<svg version="1.1" viewBox="0.0 0.0 1214.4356955380576 462.82152230971127" fill="none" stroke="none" stroke-linecap="square" stroke-miterlimit="10" xmlns:xlink="http://www.w3.org/1999/xlink" xmlns="http://www.w3.org/2000/svg"><clipPath id="p.0"><path d="m0 0l1214.4357 0l0 462.82153l-1214.4357 0l0 -462.82153z" clip-rule="nonzero"/></clipPath><g clip-path="url(#p.0)"><path fill="#000000" fill-opacity="0.0" d="m0 0l1214.4357 0l0 462.82153l-1214.4357 0z" fill-rule="evenodd"/><path fill="#8d3aed" d="m3.2020998 85.60903l0 0c0 -2.8962936 2.347908 -5.2442017 5.2441998 -5.2442017l20.97617 0l0 0c1.3908482 0 2.7247295 0.5525131 3.708208 1.5359879c0.98347855 0.98348236 1.5359917 2.31736 1.5359917 3.7082138l0 31.086403c0 2.8962936 -2.347908 5.2442017 -5.2441998 5.2442017l-20.97617 0c-2.8962917 0 -5.2441998 -2.347908 -5.2441998 -5.2442017z" fill-rule="evenodd"/><path fill="#ffffff" d="m18.938625 107.16848q-2.171875 0 -3.28125 -1.375q-1.109375 -1.375 -1.109375 -4.0625q0 -2.6875 1.109375 -4.0625q1.109375 -1.375 3.28125 -1.375q2.15625 0 3.265625 1.375q1.109375 1.375 1.109375 4.0625q0 2.6875 -1.109375 4.0625q-1.109375 1.375 -3.265625 1.375zm0 -2.140625q0.59375 0 0.953125 -0.328125q0.375 -0.328125 0.53125 -1.046875q0.171875 -0.734375 0.171875 -1.921875q0 -1.1875 -0.171875 -1.90625q-0.15625 -0.734375 -0.53125 -1.0625q-0.359375 -0.328125 -0.953125 -0.328125q-0.578125 0 -0.953125 0.328125q-0.375 0.328125 -0.546875 1.0625q-0.171875 0.71875 -0.171875 1.90625q0 1.1875 0.171875 1.921875q0.171875 0.71875 0.546875 1.046875q0.375 0.328125 0.953125 0.328125z" fill-rule="nonzero"/><path fill="#000000" fill-opacity="0.0" d="m19.346458 115.11286l0 39.425194l531.44415 0l0 -38.38845" fill-rule="evenodd"/><path stroke="#8d3aed" stroke-width="2.0" stroke-linejoin="round" stroke-linecap="butt" d="m19.346458 115.11286l0 39.425194l531.44415 0l0 -38.38845" fill-rule="evenodd"/><path fill="#8d3aed" d="m535.48566 85.60903l0 0c0 -2.8962936 2.3479004 -5.2442017 5.2442017 -5.2442017l20.976135 0l0 0c1.3908691 0 2.7247314 0.5525131 3.708191 1.5359879c0.9835205 0.98348236 1.5360107 2.31736 1.5360107 3.7082138l0 31.086403c0 2.8962936 -2.3479004 5.2442017 -5.2442017 5.2442017l-20.976135 0c-2.8963013 0 -5.2442017 -2.347908 -5.2442017 -5.2442017z" fill-rule="evenodd"/><path fill="#ffffff" d="m550.8324 107.01223l0 -6.078125q0 -0.421875 0 -0.859375q0.015625 -0.4375 0.015625 -0.90625q-0.53125 0.484375 -1.171875 0.84375q-0.640625 0.359375 -1.34375 0.484375l-0.265625 -2.265625q0.421875 -0.03125 0.890625 -0.203125q0.46875 -0.1875 0.9375 -0.4375q0.46875 -0.265625 0.828125 -0.546875q0.375 -0.296875 0.5625 -0.59375l2.203125 0l0 10.5625l-2.65625 0z" fill-rule="nonzero"/><path fill="#38761d" d="m231.79086 171.32819l0 0c0 -3.0035553 2.4348755 -5.4384155 5.438431 -5.4384155l102.44597 0c1.4423828 0 2.825653 0.5729675 3.8455505 1.592865c1.019928 1.0199127 1.5928955 2.4031982 1.5928955 3.8455505l0 21.753067c0 3.0035706 -2.4348755 5.438431 -5.438446 5.438431l-102.44597 0c-3.0035553 0 -5.438431 -2.4348602 -5.438431 -5.438431z" fill-rule="evenodd"/><path fill="#ffffff" d="m286.14868 190.46472l0 -11.75l1.796875 0l0 1.78125q0.6875 -1.25 1.265625 -1.640625q0.578125 -0.40625 1.28125 -0.40625q1.0 0 2.046875 0.640625l-0.6875 1.84375q-0.734375 -0.421875 -1.46875 -0.421875q-0.640625 0 -1.171875 0.390625q-0.515625 0.390625 -0.734375 1.09375q-0.328125 1.0625 -0.328125 2.3125l0 6.15625l-2.0 0z" fill-rule="nonzero"/><path fill="#000000" fill-opacity="0.0" d="m288.4523 165.88977l0 -112.47244" fill-rule="evenodd"/><path stroke="#38761d" stroke-width="2.0" stroke-linejoin="round" stroke-linecap="butt" stroke-dasharray="2.0,6.0" d="m288.4523 165.88977l0 -112.47244" fill-rule="evenodd"/><path fill="#d9d9d9" d="m202.07872 11.895179l0 0c0 -4.586519 3.7181091 -8.304627 8.304626 -8.304627l156.14665 0c2.2025146 0 4.31485 0.8749492 5.8722534 2.4323695c1.5574341 1.5574198 2.432373 3.669734 2.432373 5.872258l0 33.217514c0 4.586521 -3.7181091 8.30463 -8.304626 8.30463l-156.14665 0c-4.5865173 0 -8.304626 -3.7181091 -8.304626 -8.30463z" fill-rule="evenodd"/><path fill="#434343" d="m236.07172 22.297686q1.828125 0 3.234375 0.578125q1.421875 0.5625 2.453125 1.671875l-1.65625 2.21875q-0.859375 -0.90625 -1.859375 -1.34375q-0.984375 -0.453125 -2.234375 -0.453125q-0.75 0 -1.203125 0.15625q-0.453125 0.15625 -0.65625 0.4375q-0.203125 0.28125 -0.203125 0.640625q0 0.421875 0.390625 0.71875q0.390625 0.28125 1.265625 0.484375l2.21875 0.5q1.984375 0.453125 2.90625 1.34375q0.921875 0.875 0.921875 2.328125q0 1.4062481 -0.71875 2.374998q-0.71875 0.96875 -1.984375 1.46875q-1.265625 0.484375 -2.875 0.484375q-1.328125 0 -2.53125 -0.28125q-1.1875 -0.296875 -2.15625 -0.828125q-0.953125 -0.546875 -1.625 -1.25l1.671875 -2.296873q0.5 0.578125 1.21875 1.0312481q0.734375 0.4375 1.609375 0.703125q0.875 0.265625 1.765625 0.265625q0.703125 0 1.171875 -0.140625q0.46875 -0.140625 0.6875 -0.421875q0.21875 -0.28125 0.21875 -0.671875q0 -0.4062481 -0.296875 -0.7031231q-0.296875 -0.296875 -1.140625 -0.484375l-2.4375 -0.546875q-1.125 -0.265625 -2.0 -0.6875q-0.859375 -0.4375 -1.359375 -1.15625q-0.5 -0.734375 -0.5 -1.828125q0 -1.25 0.671875 -2.21875q0.6875 -0.96875 1.96875 -1.53125q1.28125 -0.5625 3.0625 -0.5625zm9.156876 2.25q-1.046875 0 -1.515625 -0.390625q-0.46875 -0.390625 -0.46875 -1.234375q0 -0.859375 0.46875 -1.25q0.46875 -0.390625 1.515625 -0.390625q1.015625 0 1.5 0.390625q0.484375 0.390625 0.484375 1.25q0 0.84375 -0.484375 1.234375q-0.484375 0.390625 -1.5 0.390625zm1.703125 1.15625l0 9.999998l-3.40625 0l0 -9.999998l3.40625 0zm6.601242 -3.1875l0 9.624998q0 0.71875 0.34375 1.03125q0.34375 0.3125 0.96875 0.3125q0.484375 0 0.828125 -0.109375q0.359375 -0.109375 0.640625 -0.328125l0.359375 2.09375q-0.5 0.359375 -1.265625 0.5625q-0.765625 0.203125 -1.5625 0.203125q-1.140625 0 -1.96875 -0.3125q-0.828125 -0.328125 -1.28125 -1.03125q-0.453125 -0.703125 -0.46875 -1.859375l0 -9.234373l3.40625 -0.953125zm2.96875 3.1875l0 2.421875l-8.09375 0l0 -2.421875l8.09375 0zm4.95874 10.203123q-1.015625 0 -1.78125 -0.34375q-0.765625 -0.359375 -1.21875 -1.140625q-0.4375 -0.78125 -0.4375 -2.03125l0 -6.687498l3.40625 0l0 5.875q0 0.9687481 0.375 1.3437481q0.375 0.375 1.078125 0.375q0.359375 0 0.671875 -0.125q0.328125 -0.125 0.5625 -0.390625q0.25 -0.28125 0.375 -0.703125q0.140625 -0.4374981 0.140625 -1.0156231l0 -5.359375l3.390625 0l0 9.999998l-3.03125 0l-0.109375 -1.875q-0.46875 1.0625 -1.34375 1.578125q-0.859375 0.5 -2.078125 0.5zm14.583099 -6.546873q0 -0.703125 -0.390625 -1.109375q-0.390625 -0.40625 -1.046875 -0.40625q-0.65625 0 -1.125 0.328125q-0.46875 0.328125 -0.65625 1.171875l-2.875 -0.6875q0.28125 -1.4375 1.46875 -2.296875q1.203125 -0.859375 3.390625 -0.859375q1.453125 0 2.484375 0.4375q1.03125 0.421875 1.578125 1.28125q0.5625 0.84375 0.5625 2.078125l0 3.671873q0 0.78125 0.6875 0.78125q0.359375 0 0.578125 -0.09375l-0.1875 1.953125q-0.609375 0.28125 -1.46875 0.28125q-0.78125 0 -1.390625 -0.25q-0.59375 -0.25 -0.9375 -0.765625q-0.328125 -0.515625 -0.328125 -1.296875l0 -0.109375l0.375 -0.140625q0 0.859375 -0.515625 1.4375q-0.5 0.578125 -1.3125 0.859375q-0.8125 0.28125 -1.6875 0.28125q-1.015625 0 -1.78125 -0.3125q-0.765625 -0.328125 -1.171875 -0.9375q-0.40625 -0.609375 -0.40625 -1.515625q0 -1.078125 0.640625 -1.7812481q0.65625 -0.71875 2.0625 -1.0l3.78125 -0.78125l-0.03125 1.8125l-1.90625 0.390625q-0.609375 0.125 -0.90625 0.3593731q-0.28125 0.21875 -0.28125 0.6875q0 0.4375 0.3125 0.65625q0.328125 0.21875 0.765625 0.21875q0.34375 0 0.65625 -0.09375q0.3125 -0.109375 0.546875 -0.3125q0.234375 -0.21875 0.375 -0.53125q0.140625 -0.328125 0.140625 -0.765625l0 -2.640623zm9.789368 -6.84375l0 9.624998q0 0.71875 0.34375 1.03125q0.34375 0.3125 0.96875 0.3125q0.484375 0 0.828125 -0.109375q0.359375 -0.109375 0.640625 -0.328125l0.359375 2.09375q-0.5 0.359375 -1.265625 0.5625q-0.765625 0.203125 -1.5625 0.203125q-1.140625 0 -1.96875 -0.3125q-0.828125 -0.328125 -1.28125 -1.03125q-0.453125 -0.703125 -0.46875 -1.859375l0 -9.234373l3.40625 -0.953125zm2.96875 3.1875l0 2.421875l-8.09375 0l0 -2.421875l8.09375 0zm3.2868652 -1.15625q-1.046875 0 -1.515625 -0.390625q-0.46875 -0.390625 -0.46875 -1.234375q0 -0.859375 0.46875 -1.25q0.46875 -0.390625 1.515625 -0.390625q1.015625 0 1.5 0.390625q0.484375 0.390625 0.484375 1.25q0 0.84375 -0.484375 1.234375q-0.484375 0.390625 -1.5 0.390625zm1.703125 1.15625l0 9.999998l-3.40625 0l0 -9.999998l3.40625 0zm7.1793823 -0.203125q1.578125 0 2.765625 0.609375q1.1875 0.609375 1.859375 1.78125q0.671875 1.171875 0.671875 2.8125q0 1.6406231 -0.671875 2.812498q-0.671875 1.171875 -1.859375 1.78125q-1.1875 0.609375 -2.765625 0.609375q-1.546875 0 -2.75 -0.609375q-1.1875 -0.609375 -1.859375 -1.78125q-0.671875 -1.171875 -0.671875 -2.812498q0 -1.640625 0.671875 -2.8125q0.671875 -1.171875 1.859375 -1.78125q1.203125 -0.609375 2.75 -0.609375zm0 2.421875q-0.578125 0 -1.0 0.28125q-0.421875 0.28125 -0.640625 0.90625q-0.21875 0.609375 -0.21875 1.59375q0 0.984375 0.21875 1.5937481q0.21875 0.609375 0.640625 0.90625q0.421875 0.28125 1.0 0.28125q0.59375 0 1.015625 -0.28125q0.421875 -0.296875 0.640625 -0.90625q0.21875 -0.6093731 0.21875 -1.5937481q0 -0.984375 -0.21875 -1.59375q-0.21875 -0.625 -0.640625 -0.90625q-0.421875 -0.28125 -1.015625 -0.28125zm7.2143555 7.781248l0 -9.999998l3.046875 0l0.171875 3.4375l-0.375 -0.375q0.203125 -1.078125 0.703125 -1.796875q0.515625 -0.71875 1.28125 -1.09375q0.765625 -0.375 1.734375 -0.375q1.03125 0 1.796875 0.40625q0.78125 0.390625 1.21875 1.171875q0.4375 0.78125 0.4375 1.96875l0 6.656248l-3.390625 0l0 -5.765623q0 -1.03125 -0.40625 -1.421875q-0.390625 -0.40625 -1.015625 -0.40625q-0.484375 0 -0.90625 0.234375q-0.421875 0.21875 -0.65625 0.71875q-0.234375 0.5 -0.234375 1.34375l0 5.296873l-3.40625 0zm28.338776 -13.203123l-2.140625 13.203123l-2.2969055 0l2.1250305 -13.203123l2.3125 0zm0.9375 7.984375l0 2.031248l-11.8594055 0l0 -2.031248l11.8594055 0zm-5.8281555 -7.984375l-2.125 13.203123l-2.328125 0l2.125 -13.203123l2.328125 0zm6.6875305 3.1875l0 2.03125l-11.8594055 0l0 -2.03125l11.8594055 0zm4.3381042 10.015623l0 -7.593748q0 -0.53125 0.015625 -1.078125q0.015625 -0.546875 0.015625 -1.125q-0.65625 0.59375 -1.46875 1.046875q-0.796875 0.453125 -1.671875 0.609375l-0.328125 -2.84375q0.53125 -0.03125 1.109375 -0.25q0.59375 -0.21875 1.171875 -0.53125q0.578125 -0.328125 1.03125 -0.703125q0.46875 -0.375 0.71875 -0.734375l2.734375 0l0 13.203123l-3.328125 0z" fill-rule="nonzero"/><path fill="#a64d79" d="m38.664043 102.96063l31.653545 -31.65355l0 15.826775l186.58267 0l0 -15.826775l31.653534 31.65355l-31.653534 31.653534l0 -15.826767l-186.58267 0l0 15.826767z" fill-rule="evenodd"/><path fill="#ffffff" d="m147.8452 96.957504l-5.0 13.203125l-1.828125 0l-5.015625 -13.203125l1.71875 0l3.359375 9.125l0.84375 2.625l0.828125 -2.609375l3.375 -9.140625l1.71875 0zm3.1006165 9.046875l1.234375 0l0 7.9375l-1.40625 0l0 -5.03125q0 -0.265625 0.015625 -0.65625q0.015625 -0.390625 0.03125 -0.78125q-0.4375 0.421875 -1.03125 0.75q-0.578125 0.3125 -1.1875 0.421875l0 -1.203125q0.359375 -0.078125 0.828125 -0.296875q0.46875 -0.234375 0.890625 -0.53125q0.421875 -0.296875 0.625 -0.609375zm11.769363 1.75q0.484375 0 0.8125 0.25q0.328125 0.25 0.5 0.6875q0.1875 0.421875 0.1875 1.015625q0 0.65625 -0.234375 1.296875q-0.21875 0.640625 -0.703125 1.171875q-0.484375 0.546875 -1.234375 0.90625l-0.84375 -0.78125q0.546875 -0.1875 0.953125 -0.515625q0.40625 -0.3125 0.65625 -0.71875q0.265625 -0.390625 0.34375 -0.8125l-0.078125 -0.03125q-0.078125 0.0625 -0.203125 0.09375q-0.109375 0.046875 -0.359375 0.046875q-0.234375 0 -0.484375 -0.140625q-0.25 -0.140625 -0.4375 -0.40625q-0.171875 -0.28125 -0.171875 -0.71875q0 -0.359375 0.171875 -0.671875q0.1875 -0.3125 0.46875 -0.484375q0.296875 -0.1875 0.65625 -0.1875zm21.209991 -10.796875l-5.0 13.203125l-1.828125 0l-5.015625 -13.203125l1.71875 0l3.359375 9.125l0.84375 2.625l0.828125 -2.609375l3.375 -9.140625l1.71875 0zm1.3349915 16.984375l0 -0.96875q0.453125 -0.328125 0.90625 -0.65625q0.46875 -0.3125 0.9375 -0.671875q0.953125 -0.765625 1.484375 -1.296875q0.546875 -0.53125 0.75 -0.953125q0.21875 -0.421875 0.21875 -0.875q0 -0.640625 -0.390625 -1.046875q-0.390625 -0.421875 -1.140625 -0.421875q-0.78125 0 -1.234375 0.5q-0.453125 0.484375 -0.5 1.359375l-1.25 -0.4375q0.078125 -1.21875 0.890625 -1.890625q0.828125 -0.6875 2.140625 -0.6875q0.984375 0 1.625 0.359375q0.65625 0.359375 0.984375 0.953125q0.34375 0.578125 0.34375 1.234375q0 0.578125 -0.3125 1.171875q-0.3125 0.578125 -0.953125 1.203125q-0.640625 0.625 -1.640625 1.328125q-0.265625 0.171875 -0.515625 0.34375q-0.25 0.171875 -0.53125 0.34375l0 0.03125q0.1875 -0.03125 0.640625 -0.046875q0.453125 -0.015625 0.640625 -0.015625l2.84375 0l0 1.140625l-5.9375 0z" fill-rule="nonzero"/><path fill="#8d3aed" d="m3.620735 334.13135l0 0c0 -2.8963013 2.3479078 -5.2442017 5.244199 -5.2442017l20.97617 0l0 0c1.3908482 0 2.7247314 0.55249023 3.70821 1.5359802c0.98347855 0.98349 1.5359879 2.3173523 1.5359879 3.7082214l0 31.086395c0 2.8963013 -2.347908 5.2442017 -5.244198 5.2442017l-20.97617 0c-2.8962913 0 -5.244199 -2.3479004 -5.244199 -5.2442017z" fill-rule="evenodd"/><path fill="#ffffff" d="m19.35726 355.6908q-2.171875 0 -3.28125 -1.375q-1.109374 -1.375 -1.109374 -4.0625q0 -2.6875 1.109374 -4.0625q1.109375 -1.375 3.28125 -1.375q2.15625 0 3.265625 1.375q1.109375 1.375 1.109375 4.0625q0 2.6875 -1.109375 4.0625q-1.109375 1.375 -3.265625 1.375zm0 -2.140625q0.59375 0 0.953125 -0.328125q0.375 -0.328125 0.53125 -1.046875q0.171875 -0.734375 0.171875 -1.921875q0 -1.1875 -0.171875 -1.90625q-0.15625 -0.734375 -0.53125 -1.0625q-0.359375 -0.328125 -0.953125 -0.328125q-0.578125 0 -0.953125 0.328125q-0.375 0.328125 -0.546875 1.0625q-0.171875 0.71875 -0.171875 1.90625q0 1.1875 0.171875 1.921875q0.171875 0.71875 0.546875 1.046875q0.375 0.328125 0.953125 0.328125z" fill-rule="nonzero"/><path fill="#000000" fill-opacity="0.0" d="m19.766405 363.63516l0 39.4252l531.4441 0l0 -38.38846" fill-rule="evenodd"/><path stroke="#8d3aed" stroke-width="2.0" stroke-linejoin="round" stroke-linecap="butt" d="m19.766405 363.63516l0 39.4252l531.4441 0l0 -38.38846" fill-rule="evenodd"/><path fill="#8d3aed" d="m535.4843 342.63266l0 0c0 -2.8963013 2.3479004 -5.2442017 5.2442017 -5.2442017l20.976196 0l0 0c1.3908081 0 2.7247314 0.55249023 3.708191 1.5359802c0.9834595 0.98349 1.5360107 2.3173523 1.5360107 3.7082214l0 31.086395c0 2.8963013 -2.3479614 5.2442017 -5.2442017 5.2442017l-20.976196 0c-2.8963013 0 -5.2442017 -2.3479004 -5.2442017 -5.2442017z" fill-rule="evenodd"/><path fill="#ffffff" d="m550.8311 364.03586l0 -6.078125q0 -0.421875 0 -0.859375q0.015625 -0.4375 0.015625 -0.90625q-0.53125 0.484375 -1.171875 0.84375q-0.640625 0.359375 -1.34375 0.484375l-0.265625 -2.265625q0.421875 -0.03125 0.890625 -0.203125q0.46875 -0.1875 0.9375 -0.4375q0.46875 -0.265625 0.828125 -0.546875q0.375 -0.296875 0.5625 -0.59375l2.203125 0l0 10.5625l-2.65625 0z" fill-rule="nonzero"/><path fill="#38761d" d="m232.2095 419.8505l0 0c0 -3.00354 2.4348755 -5.4384155 5.438431 -5.4384155l102.44597 0c1.4423828 0 2.825653 0.5729675 3.8455505 1.592865c1.0198975 1.0198975 1.5928955 2.4031982 1.5928955 3.8455505l0 21.753082c0 3.00354 -2.4348755 5.4384155 -5.438446 5.4384155l-102.44597 0c-3.0035553 0 -5.438431 -2.4348755 -5.438431 -5.4384155z" fill-rule="evenodd"/><path fill="#ffffff" d="m286.56732 438.98703l0 -11.75l1.796875 0l0 1.78125q0.6875 -1.25 1.265625 -1.640625q0.578125 -0.40625 1.28125 -0.40625q1.0 0 2.046875 0.640625l-0.6875 1.84375q-0.734375 -0.421875 -1.46875 -0.421875q-0.640625 0 -1.171875 0.390625q-0.515625 0.390625 -0.734375 1.09375q-0.328125 1.0625 -0.328125 2.3125l0 6.15625l-2.0 0z" fill-rule="nonzero"/><path fill="#000000" fill-opacity="0.0" d="m288.8709 414.41208l0 -112.47244" fill-rule="evenodd"/><path stroke="#38761d" stroke-width="2.0" stroke-linejoin="round" stroke-linecap="butt" stroke-dasharray="2.0,6.0" d="m288.8709 414.41208l0 -112.47244" fill-rule="evenodd"/><path fill="#d9d9d9" d="m202.49736 260.41748l0 0c0 -4.5865173 3.7181091 -8.304626 8.304626 -8.304626l156.14665 0c2.2025146 0 4.31485 0.8749542 5.8722534 2.432373c1.5574341 1.5574341 2.432373 3.6697388 2.432373 5.8722534l0 33.21753c0 4.5865173 -3.7181091 8.304626 -8.304626 8.304626l-156.14665 0c-4.5865173 0 -8.304626 -3.7181091 -8.304626 -8.304626z" fill-rule="evenodd"/><path fill="#434343" d="m234.84035 270.82q1.828125 0 3.234375 0.578125q1.421875 0.5625 2.453125 1.671875l-1.65625 2.21875q-0.859375 -0.90625 -1.859375 -1.34375q-0.984375 -0.453125 -2.234375 -0.453125q-0.75 0 -1.203125 0.15625q-0.453125 0.15625 -0.65625 0.4375q-0.203125 0.28125 -0.203125 0.640625q0 0.421875 0.390625 0.71875q0.390625 0.28125 1.265625 0.484375l2.21875 0.5q1.984375 0.453125 2.90625 1.34375q0.921875 0.875 0.921875 2.328125q0 1.40625 -0.71875 2.375q-0.71875 0.96875 -1.984375 1.46875q-1.265625 0.484375 -2.875 0.484375q-1.328125 0 -2.53125 -0.28125q-1.1875 -0.296875 -2.15625 -0.828125q-0.953125 -0.546875 -1.625 -1.25l1.671875 -2.296875q0.5 0.578125 1.21875 1.03125q0.734375 0.4375 1.609375 0.703125q0.875 0.265625 1.765625 0.265625q0.703125 0 1.171875 -0.140625q0.46875 -0.140625 0.6875 -0.421875q0.21875 -0.28125 0.21875 -0.671875q0 -0.40625 -0.296875 -0.703125q-0.296875 -0.296875 -1.140625 -0.484375l-2.4375 -0.546875q-1.125 -0.265625 -2.0 -0.6875q-0.859375 -0.4375 -1.359375 -1.15625q-0.5 -0.734375 -0.5 -1.828125q0 -1.25 0.671875 -2.21875q0.6875 -0.96875 1.96875 -1.53125q1.28125 -0.5625 3.0625 -0.5625zm9.156876 2.25q-1.046875 0 -1.515625 -0.390625q-0.46875 -0.390625 -0.46875 -1.234375q0 -0.859375 0.46875 -1.25q0.46875 -0.390625 1.515625 -0.390625q1.015625 0 1.5 0.390625q0.484375 0.390625 0.484375 1.25q0 0.84375 -0.484375 1.234375q-0.484375 0.390625 -1.5 0.390625zm1.703125 1.15625l0 10.0l-3.40625 0l0 -10.0l3.40625 0zm6.601242 -3.1875l0 9.625q0 0.71875 0.34375 1.03125q0.34375 0.3125 0.96875 0.3125q0.484375 0 0.828125 -0.109375q0.359375 -0.109375 0.640625 -0.328125l0.359375 2.09375q-0.5 0.359375 -1.265625 0.5625q-0.765625 0.203125 -1.5625 0.203125q-1.140625 0 -1.96875 -0.3125q-0.828125 -0.328125 -1.28125 -1.03125q-0.453125 -0.703125 -0.46875 -1.859375l0 -9.234375l3.40625 -0.953125zm2.96875 3.1875l0 2.421875l-8.09375 0l0 -2.421875l8.09375 0zm4.9587555 10.203125q-1.015625 0 -1.78125 -0.34375q-0.765625 -0.359375 -1.21875 -1.140625q-0.4375 -0.78125 -0.4375 -2.03125l0 -6.6875l3.40625 0l0 5.875q0 0.96875 0.375 1.34375q0.375 0.375 1.078125 0.375q0.359375 0 0.671875 -0.125q0.328125 -0.125 0.5625 -0.390625q0.25 -0.28125 0.375 -0.703125q0.140625 -0.4375 0.140625 -1.015625l0 -5.359375l3.390625 0l0 10.0l-3.03125 0l-0.109375 -1.875q-0.46875 1.0625 -1.34375 1.578125q-0.859375 0.5 -2.078125 0.5zm14.583099 -6.546875q0 -0.703125 -0.390625 -1.109375q-0.390625 -0.40625 -1.046875 -0.40625q-0.65625 0 -1.125 0.328125q-0.46875 0.328125 -0.65625 1.171875l-2.875 -0.6875q0.28125 -1.4375 1.46875 -2.296875q1.203125 -0.859375 3.390625 -0.859375q1.453125 0 2.484375 0.4375q1.03125 0.421875 1.578125 1.28125q0.5625 0.84375 0.5625 2.078125l0 3.671875q0 0.78125 0.6875 0.78125q0.359375 0 0.578125 -0.09375l-0.1875 1.953125q-0.609375 0.28125 -1.46875 0.28125q-0.78125 0 -1.390625 -0.25q-0.59375 -0.25 -0.9375 -0.765625q-0.328125 -0.515625 -0.328125 -1.296875l0 -0.109375l0.375 -0.140625q0 0.859375 -0.515625 1.4375q-0.5 0.578125 -1.3125 0.859375q-0.8125 0.28125 -1.6875 0.28125q-1.015625 0 -1.78125 -0.3125q-0.765625 -0.328125 -1.171875 -0.9375q-0.40625 -0.609375 -0.40625 -1.515625q0 -1.078125 0.640625 -1.78125q0.65625 -0.71875 2.0625 -1.0l3.78125 -0.78125l-0.03125 1.8125l-1.90625 0.390625q-0.609375 0.125 -0.90625 0.359375q-0.28125 0.21875 -0.28125 0.6875q0 0.4375 0.3125 0.65625q0.328125 0.21875 0.765625 0.21875q0.34375 0 0.65625 -0.09375q0.3125 -0.109375 0.546875 -0.3125q0.234375 -0.21875 0.375 -0.53125q0.140625 -0.328125 0.140625 -0.765625l0 -2.640625zm9.789368 -6.84375l0 9.625q0 0.71875 0.34375 1.03125q0.34375 0.3125 0.96875 0.3125q0.484375 0 0.828125 -0.109375q0.359375 -0.109375 0.640625 -0.328125l0.359375 2.09375q-0.5 0.359375 -1.265625 0.5625q-0.765625 0.203125 -1.5625 0.203125q-1.140625 0 -1.96875 -0.3125q-0.828125 -0.328125 -1.28125 -1.03125q-0.453125 -0.703125 -0.46875 -1.859375l0 -9.234375l3.40625 -0.953125zm2.96875 3.1875l0 2.421875l-8.09375 0l0 -2.421875l8.09375 0zm3.2868652 -1.15625q-1.046875 0 -1.515625 -0.390625q-0.46875 -0.390625 -0.46875 -1.234375q0 -0.859375 0.46875 -1.25q0.46875 -0.390625 1.515625 -0.390625q1.015625 0 1.5 0.390625q0.484375 0.390625 0.484375 1.25q0 0.84375 -0.484375 1.234375q-0.484375 0.390625 -1.5 0.390625zm1.703125 1.15625l0 10.0l-3.40625 0l0 -10.0l3.40625 0zm7.1793823 -0.203125q1.578125 0 2.765625 0.609375q1.1875 0.609375 1.859375 1.78125q0.671875 1.171875 0.671875 2.8125q0 1.640625 -0.671875 2.8125q-0.671875 1.171875 -1.859375 1.78125q-1.1875 0.609375 -2.765625 0.609375q-1.546875 0 -2.75 -0.609375q-1.1875 -0.609375 -1.859375 -1.78125q-0.671875 -1.171875 -0.671875 -2.8125q0 -1.640625 0.671875 -2.8125q0.671875 -1.171875 1.859375 -1.78125q1.203125 -0.609375 2.75 -0.609375zm0 2.421875q-0.578125 0 -1.0 0.28125q-0.421875 0.28125 -0.640625 0.90625q-0.21875 0.609375 -0.21875 1.59375q0 0.984375 0.21875 1.59375q0.21875 0.609375 0.640625 0.90625q0.421875 0.28125 1.0 0.28125q0.59375 0 1.015625 -0.28125q0.421875 -0.296875 0.640625 -0.90625q0.21875 -0.609375 0.21875 -1.59375q0 -0.984375 -0.21875 -1.59375q-0.21875 -0.625 -0.640625 -0.90625q-0.421875 -0.28125 -1.015625 -0.28125zm7.2143555 7.78125l0 -10.0l3.046875 0l0.171875 3.4375l-0.375 -0.375q0.203125 -1.078125 0.703125 -1.796875q0.515625 -0.71875 1.28125 -1.09375q0.765625 -0.375 1.734375 -0.375q1.03125 0 1.796875 0.40625q0.78125 0.390625 1.21875 1.171875q0.4375 0.78125 0.4375 1.96875l0 6.65625l-3.390625 0l0 -5.765625q0 -1.03125 -0.40625 -1.421875q-0.390625 -0.40625 -1.015625 -0.40625q-0.484375 0 -0.90625 0.234375q-0.421875 0.21875 -0.65625 0.71875q-0.234375 0.5 -0.234375 1.34375l0 5.296875l-3.40625 0zm28.338745 -13.203125l-2.140625 13.203125l-2.296875 0l2.125 -13.203125l2.3125 0zm0.9375 7.984375l0 2.03125l-11.859375 0l0 -2.03125l11.859375 0zm-5.828125 -7.984375l-2.125 13.203125l-2.328125 0l2.125 -13.203125l2.328125 0zm6.6875 3.1875l0 2.03125l-11.859375 0l0 -2.03125l11.859375 0zm1.7287292 10.015625l0 -2.203125q1.703125 -1.0625 2.890625 -1.96875q1.203125 -0.921875 1.953125 -1.734375q0.75 -0.828125 1.109375 -1.5625q0.359375 -0.75 0.359375 -1.453125q0 -0.765625 -0.453125 -1.265625q-0.4375 -0.515625 -1.328125 -0.515625q-0.9375 0 -1.453125 0.703125q-0.515625 0.6875 -0.5625 2.0l-2.9375 -0.90625q0.03125 -1.46875 0.703125 -2.46875q0.671875 -1.0 1.828125 -1.515625q1.171875 -0.515625 2.640625 -0.515625q1.3125 0 2.25 0.375q0.953125 0.375 1.546875 0.984375q0.609375 0.609375 0.890625 1.359375q0.296875 0.75 0.296875 1.53125q0 1.28125 -0.65625 2.390625q-0.65625 1.109375 -1.90625 2.140625q-1.25 1.03125 -3.03125 2.0625l0 0.015625q0.34375 -0.015625 0.796875 -0.03125q0.453125 -0.015625 0.953125 -0.03125q0.5 -0.015625 0.90625 -0.015625l3.09375 0l0 2.625l-9.890625 0z" fill-rule="nonzero"/><path fill="#a64d79" d="m288.8701 358.17584l31.653534 -31.653534l0 15.826782l186.58267 0l0 -15.826782l31.653534 31.653534l-31.653534 31.653564l0 -15.826782l-186.58267 0l0 15.826782z" fill-rule="evenodd"/><path fill="#ffffff" d="m398.05124 352.17273l-5.0 13.203125l-1.828125 0l-5.015625 -13.203125l1.71875 0l3.359375 9.125l0.84375 2.625l0.828125 -2.609375l3.375 -9.140625l1.71875 0zm3.1006165 9.046875l1.234375 0l0 7.9375l-1.40625 0l0 -5.03125q0 -0.265625 0.015625 -0.65625q0.015625 -0.390625 0.03125 -0.78125q-0.4375 0.421875 -1.03125 0.75q-0.578125 0.3125 -1.1875 0.421875l0 -1.203125q0.359375 -0.078125 0.828125 -0.296875q0.46875 -0.234375 0.890625 -0.53125q0.421875 -0.296875 0.625 -0.609375zm11.769348 1.75q0.484375 0 0.8125 0.25q0.328125 0.25 0.5 0.6875q0.1875 0.421875 0.1875 1.015625q0 0.65625 -0.234375 1.296875q-0.21875 0.640625 -0.703125 1.171875q-0.484375 0.546875 -1.234375 0.90625l-0.84375 -0.78125q0.546875 -0.1875 0.953125 -0.515625q0.40625 -0.3125 0.65625 -0.71875q0.265625 -0.390625 0.34375 -0.8125l-0.078125 -0.03125q-0.078125 0.0625 -0.203125 0.09375q-0.109375 0.046875 -0.359375 0.046875q-0.234375 0 -0.484375 -0.140625q-0.25 -0.140625 -0.4375 -0.40625q-0.171875 -0.28125 -0.171875 -0.71875q0 -0.359375 0.171875 -0.671875q0.1875 -0.3125 0.46875 -0.484375q0.296875 -0.1875 0.65625 -0.1875zm21.209991 -10.796875l-5.0 13.203125l-1.828125 0l-5.015625 -13.203125l1.71875 0l3.359375 9.125l0.84375 2.625l0.828125 -2.609375l3.375 -9.140625l1.71875 0zm1.3349915 16.984375l0 -0.96875q0.453125 -0.328125 0.90625 -0.65625q0.46875 -0.3125 0.9375 -0.671875q0.953125 -0.765625 1.484375 -1.296875q0.546875 -0.53125 0.75 -0.953125q0.21875 -0.421875 0.21875 -0.875q0 -0.640625 -0.390625 -1.046875q-0.390625 -0.421875 -1.140625 -0.421875q-0.78125 0 -1.234375 0.5q-0.453125 0.484375 -0.5 1.359375l-1.25 -0.4375q0.078125 -1.21875 0.890625 -1.890625q0.828125 -0.6875 2.140625 -0.6875q0.984375 0 1.625 0.359375q0.65625 0.359375 0.984375 0.953125q0.34375 0.578125 0.34375 1.234375q0 0.578125 -0.3125 1.171875q-0.3125 0.578125 -0.953125 1.203125q-0.640625 0.625 -1.640625 1.328125q-0.265625 0.171875 -0.515625 0.34375q-0.25 0.171875 -0.53125 0.34375l0 0.03125q0.1875 -0.03125 0.640625 -0.046875q0.453125 -0.015625 0.640625 -0.015625l2.84375 0l0 1.140625l-5.9375 0z" fill-rule="nonzero"/><path fill="#8d3aed" d="m629.2887 85.60903l0 0c0 -2.8962936 2.3479004 -5.2442017 5.2442017 -5.2442017l20.976196 0l0 0c1.3908081 0 2.7247314 0.5525131 3.708191 1.5359879c0.9834595 0.98348236 1.5360107 2.31736 1.5360107 3.7082138l0 31.086403c0 2.8962936 -2.3479004 5.2442017 -5.2442017 5.2442017l-20.976196 0c-2.8963013 0 -5.2442017 -2.347908 -5.2442017 -5.2442017z" fill-rule="evenodd"/><path fill="#ffffff" d="m645.02527 107.16848q-2.171875 0 -3.28125 -1.375q-1.109375 -1.375 -1.109375 -4.0625q0 -2.6875 1.109375 -4.0625q1.109375 -1.375 3.28125 -1.375q2.15625 0 3.265625 1.375q1.109375 1.375 1.109375 4.0625q0 2.6875 -1.109375 4.0625q-1.109375 1.375 -3.265625 1.375zm0 -2.140625q0.59375 0 0.953125 -0.328125q0.375 -0.328125 0.53125 -1.046875q0.171875 -0.734375 0.171875 -1.921875q0 -1.1875 -0.171875 -1.90625q-0.15625 -0.734375 -0.53125 -1.0625q-0.359375 -0.328125 -0.953125 -0.328125q-0.578125 0 -0.953125 0.328125q-0.375 0.328125 -0.546875 1.0625q-0.171875 0.71875 -0.171875 1.90625q0 1.1875 0.171875 1.921875q0.171875 0.71875 0.546875 1.046875q0.375 0.328125 0.953125 0.328125z" fill-rule="nonzero"/><path fill="#000000" fill-opacity="0.0" d="m645.43304 115.11286l0 39.425194l531.44415 0l0 -38.38845" fill-rule="evenodd"/><path stroke="#8d3aed" stroke-width="2.0" stroke-linejoin="round" stroke-linecap="butt" d="m645.43304 115.11286l0 39.425194l531.44415 0l0 -38.38845" fill-rule="evenodd"/><path fill="#8d3aed" d="m1161.5723 85.60903l0 0c0 -2.8962936 2.3479004 -5.2442017 5.2441406 -5.2442017l20.976196 0l0 0c1.3908691 0 2.7247314 0.5525131 3.708252 1.5359879c0.98339844 0.98348236 1.5360107 2.31736 1.5360107 3.7082138l0 31.086403c0 2.8962936 -2.3479004 5.2442017 -5.2442627 5.2442017l-20.976196 0c-2.8962402 0 -5.2441406 -2.347908 -5.2441406 -5.2442017z" fill-rule="evenodd"/><path fill="#ffffff" d="m1176.9191 107.01223l0 -6.078125q0 -0.421875 0 -0.859375q0.015625 -0.4375 0.015625 -0.90625q-0.53125 0.484375 -1.171875 0.84375q-0.640625 0.359375 -1.34375 0.484375l-0.265625 -2.265625q0.421875 -0.03125 0.890625 -0.203125q0.46875 -0.1875 0.9375 -0.4375q0.46875 -0.265625 0.828125 -0.546875q0.375 -0.296875 0.5625 -0.59375l2.203125 0l0 10.5625l-2.65625 0z" fill-rule="nonzero"/><path fill="#38761d" d="m857.8775 171.32819l0 0c0 -3.0035553 2.4348755 -5.4384155 5.4384155 -5.4384155l102.445984 0c1.4423218 0 2.8256226 0.5729675 3.84552 1.592865c1.0198975 1.0199127 1.5928955 2.4031982 1.5928955 3.8455505l0 21.753067c0 3.0035706 -2.4348755 5.438431 -5.4384155 5.438431l-102.445984 0c-3.00354 0 -5.4384155 -2.4348602 -5.4384155 -5.438431z" fill-rule="evenodd"/><path fill="#ffffff" d="m912.2353 190.46472l0 -11.75l1.796875 0l0 1.78125q0.6875 -1.25 1.265625 -1.640625q0.578125 -0.40625 1.28125 -0.40625q1.0 0 2.046875 0.640625l-0.6875 1.84375q-0.734375 -0.421875 -1.46875 -0.421875q-0.640625 0 -1.171875 0.390625q-0.515625 0.390625 -0.734375 1.09375q-0.328125 1.0625 -0.328125 2.3125l0 6.15625l-2.0 0z" fill-rule="nonzero"/><path fill="#000000" fill-opacity="0.0" d="m914.5389 165.88977l0 -112.47244" fill-rule="evenodd"/><path stroke="#38761d" stroke-width="2.0" stroke-linejoin="round" stroke-linecap="butt" stroke-dasharray="2.0,6.0" d="m914.5389 165.88977l0 -112.47244" fill-rule="evenodd"/><path fill="#d9d9d9" d="m828.16534 11.895179l0 0c0 -4.586519 3.7180786 -8.304627 8.304626 -8.304627l156.14667 0c2.2025146 0 4.3148193 0.8749492 5.8722534 2.4323695c1.557373 1.5574198 2.432373 3.669734 2.432373 5.872258l0 33.217514c0 4.586521 -3.7181396 8.30463 -8.304626 8.30463l-156.14667 0c-4.586548 0 -8.304626 -3.7181091 -8.304626 -8.30463z" fill-rule="evenodd"/><path fill="#434343" d="m860.5383 22.297686q1.828125 0 3.234375 0.578125q1.421875 0.5625 2.453125 1.671875l-1.65625 2.21875q-0.859375 -0.90625 -1.859375 -1.34375q-0.984375 -0.453125 -2.234375 -0.453125q-0.75 0 -1.203125 0.15625q-0.453125 0.15625 -0.65625 0.4375q-0.203125 0.28125 -0.203125 0.640625q0 0.421875 0.390625 0.71875q0.390625 0.28125 1.265625 0.484375l2.21875 0.5q1.984375 0.453125 2.90625 1.34375q0.921875 0.875 0.921875 2.328125q0 1.4062481 -0.71875 2.374998q-0.71875 0.96875 -1.984375 1.46875q-1.265625 0.484375 -2.875 0.484375q-1.328125 0 -2.53125 -0.28125q-1.1875 -0.296875 -2.15625 -0.828125q-0.953125 -0.546875 -1.625 -1.25l1.671875 -2.296873q0.5 0.578125 1.21875 1.0312481q0.734375 0.4375 1.609375 0.703125q0.875 0.265625 1.765625 0.265625q0.703125 0 1.171875 -0.140625q0.46875 -0.140625 0.6875 -0.421875q0.21875 -0.28125 0.21875 -0.671875q0 -0.4062481 -0.296875 -0.7031231q-0.296875 -0.296875 -1.140625 -0.484375l-2.4375 -0.546875q-1.125 -0.265625 -2.0 -0.6875q-0.859375 -0.4375 -1.359375 -1.15625q-0.5 -0.734375 -0.5 -1.828125q0 -1.25 0.671875 -2.21875q0.6875 -0.96875 1.96875 -1.53125q1.28125 -0.5625 3.0625 -0.5625zm9.15686 2.25q-1.046875 0 -1.515625 -0.390625q-0.46875 -0.390625 -0.46875 -1.234375q0 -0.859375 0.46875 -1.25q0.46875 -0.390625 1.515625 -0.390625q1.015625 0 1.5 0.390625q0.484375 0.390625 0.484375 1.25q0 0.84375 -0.484375 1.234375q-0.484375 0.390625 -1.5 0.390625zm1.703125 1.15625l0 9.999998l-3.40625 0l0 -9.999998l3.40625 0zm6.6012573 -3.1875l0 9.624998q0 0.71875 0.34375 1.03125q0.34375 0.3125 0.96875 0.3125q0.484375 0 0.828125 -0.109375q0.359375 -0.109375 0.640625 -0.328125l0.359375 2.09375q-0.5 0.359375 -1.265625 0.5625q-0.765625 0.203125 -1.5625 0.203125q-1.140625 0 -1.96875 -0.3125q-0.828125 -0.328125 -1.28125 -1.03125q-0.453125 -0.703125 -0.46875 -1.859375l0 -9.234373l3.40625 -0.953125zm2.96875 3.1875l0 2.421875l-8.09375 0l0 -2.421875l8.09375 0zm4.95874 10.203123q-1.015625 0 -1.78125 -0.34375q-0.765625 -0.359375 -1.21875 -1.140625q-0.4375 -0.78125 -0.4375 -2.03125l0 -6.687498l3.40625 0l0 5.875q0 0.9687481 0.375 1.3437481q0.375 0.375 1.078125 0.375q0.359375 0 0.671875 -0.125q0.328125 -0.125 0.5625 -0.390625q0.25 -0.28125 0.375 -0.703125q0.140625 -0.4374981 0.140625 -1.0156231l0 -5.359375l3.390625 0l0 9.999998l-3.03125 0l-0.109375 -1.875q-0.46875 1.0625 -1.34375 1.578125q-0.859375 0.5 -2.078125 0.5zm14.58313 -6.546873q0 -0.703125 -0.390625 -1.109375q-0.390625 -0.40625 -1.046875 -0.40625q-0.65625 0 -1.125 0.328125q-0.46875 0.328125 -0.65625 1.171875l-2.875 -0.6875q0.28125 -1.4375 1.46875 -2.296875q1.203125 -0.859375 3.390625 -0.859375q1.453125 0 2.484375 0.4375q1.03125 0.421875 1.578125 1.28125q0.5625 0.84375 0.5625 2.078125l0 3.671873q0 0.78125 0.6875 0.78125q0.359375 0 0.578125 -0.09375l-0.1875 1.953125q-0.609375 0.28125 -1.46875 0.28125q-0.78125 0 -1.390625 -0.25q-0.59375 -0.25 -0.9375 -0.765625q-0.328125 -0.515625 -0.328125 -1.296875l0 -0.109375l0.375 -0.140625q0 0.859375 -0.515625 1.4375q-0.5 0.578125 -1.3125 0.859375q-0.8125 0.28125 -1.6875 0.28125q-1.015625 0 -1.78125 -0.3125q-0.765625 -0.328125 -1.171875 -0.9375q-0.40625 -0.609375 -0.40625 -1.515625q0 -1.078125 0.640625 -1.7812481q0.65625 -0.71875 2.0625 -1.0l3.78125 -0.78125l-0.03125 1.8125l-1.90625 0.390625q-0.609375 0.125 -0.90625 0.3593731q-0.28125 0.21875 -0.28125 0.6875q0 0.4375 0.3125 0.65625q0.328125 0.21875 0.765625 0.21875q0.34375 0 0.65625 -0.09375q0.3125 -0.109375 0.546875 -0.3125q0.234375 -0.21875 0.375 -0.53125q0.140625 -0.328125 0.140625 -0.765625l0 -2.640623zm9.789368 -6.84375l0 9.624998q0 0.71875 0.34375 1.03125q0.34375 0.3125 0.96875 0.3125q0.484375 0 0.828125 -0.109375q0.359375 -0.109375 0.640625 -0.328125l0.359375 2.09375q-0.5 0.359375 -1.265625 0.5625q-0.765625 0.203125 -1.5625 0.203125q-1.140625 0 -1.96875 -0.3125q-0.828125 -0.328125 -1.28125 -1.03125q-0.453125 -0.703125 -0.46875 -1.859375l0 -9.234373l3.40625 -0.953125zm2.96875 3.1875l0 2.421875l-8.09375 0l0 -2.421875l8.09375 0zm3.2868652 -1.15625q-1.046875 0 -1.515625 -0.390625q-0.46875 -0.390625 -0.46875 -1.234375q0 -0.859375 0.46875 -1.25q0.46875 -0.390625 1.515625 -0.390625q1.015625 0 1.5 0.390625q0.484375 0.390625 0.484375 1.25q0 0.84375 -0.484375 1.234375q-0.484375 0.390625 -1.5 0.390625zm1.703125 1.15625l0 9.999998l-3.40625 0l0 -9.999998l3.40625 0zm7.1793823 -0.203125q1.578125 0 2.765625 0.609375q1.1875 0.609375 1.859375 1.78125q0.671875 1.171875 0.671875 2.8125q0 1.6406231 -0.671875 2.812498q-0.671875 1.171875 -1.859375 1.78125q-1.1875 0.609375 -2.765625 0.609375q-1.546875 0 -2.75 -0.609375q-1.1875 -0.609375 -1.859375 -1.78125q-0.671875 -1.171875 -0.671875 -2.812498q0 -1.640625 0.671875 -2.8125q0.671875 -1.171875 1.859375 -1.78125q1.203125 -0.609375 2.75 -0.609375zm0 2.421875q-0.578125 0 -1.0 0.28125q-0.421875 0.28125 -0.640625 0.90625q-0.21875 0.609375 -0.21875 1.59375q0 0.984375 0.21875 1.5937481q0.21875 0.609375 0.640625 0.90625q0.421875 0.28125 1.0 0.28125q0.59375 0 1.015625 -0.28125q0.421875 -0.296875 0.640625 -0.90625q0.21875 -0.6093731 0.21875 -1.5937481q0 -0.984375 -0.21875 -1.59375q-0.21875 -0.625 -0.640625 -0.90625q-0.421875 -0.28125 -1.015625 -0.28125zm7.2143555 7.781248l0 -9.999998l3.046875 0l0.171875 3.4375l-0.375 -0.375q0.203125 -1.078125 0.703125 -1.796875q0.515625 -0.71875 1.28125 -1.09375q0.765625 -0.375 1.734375 -0.375q1.03125 0 1.796875 0.40625q0.78125 0.390625 1.21875 1.171875q0.4375 0.78125 0.4375 1.96875l0 6.656248l-3.390625 0l0 -5.765623q0 -1.03125 -0.40625 -1.421875q-0.390625 -0.40625 -1.015625 -0.40625q-0.484375 0 -0.90625 0.234375q-0.421875 0.21875 -0.65625 0.71875q-0.234375 0.5 -0.234375 1.34375l0 5.296873l-3.40625 0zm28.338745 -13.203123l-2.140625 13.203123l-2.296875 0l2.125 -13.203123l2.3125 0zm0.9375 7.984375l0 2.031248l-11.859375 0l0 -2.031248l11.859375 0zm-5.828125 -7.984375l-2.125 13.203123l-2.328125 0l2.125 -13.203123l2.328125 0zm6.6875 3.1875l0 2.03125l-11.859375 0l0 -2.03125l11.859375 0zm6.5411987 10.218748q-2.109375 0 -3.53125 -0.828125q-1.40625 -0.828125 -1.9375 -2.4375l3.15625 -1.3593731q0.09375 0.7187481 0.359375 1.1562481q0.28125 0.421875 0.734375 0.625q0.46875 0.1875 1.078125 0.1875q0.5625 0 0.953125 -0.1875q0.390625 -0.203125 0.609375 -0.5625q0.21875 -0.359375 0.21875 -0.8593731q0 -0.515625 -0.21875 -0.828125q-0.203125 -0.328125 -0.59375 -0.46875q-0.390625 -0.140625 -0.9375 -0.140625q-0.265625 0 -0.484375 0.015625q-0.21875 0 -0.5 0.046875l0 -2.25q0.15625 0.03125 0.3125 0.046875q0.171875 0 0.390625 0q0.9375 0 1.34375 -0.390625q0.40625 -0.390625 0.40625 -1.234375q0 -0.71875 -0.40625 -1.09375q-0.40625 -0.375 -1.15625 -0.375q-0.765625 0 -1.265625 0.40625q-0.5 0.40625 -0.640625 1.390625l-3.03125 -1.046875q0.21875 -1.09375 0.9375 -1.84375q0.734375 -0.765625 1.8125 -1.171875q1.09375 -0.40625 2.421875 -0.40625q1.515625 0 2.546875 0.453125q1.046875 0.4375 1.578125 1.265625q0.546875 0.8125 0.546875 1.90625q0 0.859375 -0.265625 1.4375q-0.265625 0.578125 -0.6875 0.9375q-0.40625 0.359375 -0.828125 0.53125q-0.421875 0.171875 -0.703125 0.21875l0 0.0625q0.359375 0 0.8125 0.140625q0.46875 0.140625 0.90625 0.453125q0.453125 0.296875 0.734375 0.84375q0.296875 0.53125 0.296875 1.34375q0 1.2343731 -0.65625 2.140623q-0.640625 0.890625 -1.765625 1.390625q-1.125 0.484375 -2.546875 0.484375z" fill-rule="nonzero"/><path fill="#0b5394" d="m664.7507 102.96063l31.653503 -31.65355l0 15.826775l186.5827 0l0 -15.826775l31.653564 31.65355l-31.653564 31.653534l0 -15.826767l-186.5827 0l0 15.826767z" fill-rule="evenodd"/><path fill="#ffffff" d="m793.2018 96.957504l-5.0 13.203125l-1.828125 0l-5.015625 -13.203125l1.71875 0l3.359375 9.125l0.84375 2.625l0.828125 -2.609375l3.375 -9.140625l1.71875 0zm3.100647 9.046875l1.234375 0l0 7.9375l-1.40625 0l0 -5.03125q0 -0.265625 0.015625 -0.65625q0.015625 -0.390625 0.03125 -0.78125q-0.4375 0.421875 -1.03125 0.75q-0.578125 0.3125 -1.1875 0.421875l0 -1.203125q0.359375 -0.078125 0.828125 -0.296875q0.46875 -0.234375 0.890625 -0.53125q0.421875 -0.296875 0.625 -0.609375z" fill-rule="nonzero"/><path fill="#bd005e" d="m914.958 102.96063l31.653564 -31.65355l0 15.826775l186.58264 0l0 -15.826775l31.653564 31.65355l-31.653564 31.653534l0 -15.826767l-186.58264 0l0 15.826767z" fill-rule="evenodd"/><path fill="#ffffff" d="m1042.1792 96.957504l-5.0 13.203125l-1.828125 0l-5.015625 -13.203125l1.71875 0l3.359375 9.125l0.84375 2.625l0.828125 -2.609375l3.375 -9.140625l1.71875 0zm1.3349609 16.984375l0 -0.96875q0.453125 -0.328125 0.90625 -0.65625q0.46875 -0.3125 0.9375 -0.671875q0.953125 -0.765625 1.484375 -1.296875q0.546875 -0.53125 0.75 -0.953125q0.21875 -0.421875 0.21875 -0.875q0 -0.640625 -0.390625 -1.046875q-0.390625 -0.421875 -1.140625 -0.421875q-0.78125 0 -1.234375 0.5q-0.453125 0.484375 -0.5 1.359375l-1.25 -0.4375q0.078125 -1.21875 0.890625 -1.890625q0.828125 -0.6875 2.140625 -0.6875q0.984375 0 1.625 0.359375q0.65625 0.359375 0.984375 0.953125q0.34375 0.578125 0.34375 1.234375q0 0.578125 -0.3125 1.171875q-0.3125 0.578125 -0.953125 1.203125q-0.640625 0.625 -1.640625 1.328125q-0.265625 0.171875 -0.515625 0.34375q-0.25 0.171875 -0.53125 0.34375l0 0.03125q0.1875 -0.03125 0.640625 -0.046875q0.453125 -0.015625 0.640625 -0.015625l2.84375 0l0 1.140625l-5.9375 0z" fill-rule="nonzero"/><path fill="#8d3aed" d="m632.6693 334.22845l0 0c0 -2.8963013 2.3479004 -5.2442017 5.2442017 -5.2442017l20.976135 0l0 0c1.3908691 0 2.7247314 0.55252075 3.708191 1.5359802c0.9835205 0.98349 1.5360107 2.3173828 1.5360107 3.7082214l0 31.086395c0 2.8963013 -2.3479004 5.2442017 -5.2442017 5.2442017l-20.976135 0c-2.8963013 0 -5.2442017 -2.3479004 -5.2442017 -5.2442017z" fill-rule="evenodd"/><path fill="#ffffff" d="m648.4058 355.7879q-2.171875 0 -3.28125 -1.375q-1.109375 -1.375 -1.109375 -4.0625q0 -2.6875 1.109375 -4.0625q1.109375 -1.375 3.28125 -1.375q2.15625 0 3.265625 1.375q1.109375 1.375 1.109375 4.0625q0 2.6875 -1.109375 4.0625q-1.109375 1.375 -3.265625 1.375zm0 -2.140625q0.59375 0 0.953125 -0.328125q0.375 -0.328125 0.53125 -1.046875q0.171875 -0.734375 0.171875 -1.921875q0 -1.1875 -0.171875 -1.90625q-0.15625 -0.734375 -0.53125 -1.0625q-0.359375 -0.328125 -0.953125 -0.328125q-0.578125 0 -0.953125 0.328125q-0.375 0.328125 -0.546875 1.0625q-0.171875 0.71875 -0.171875 1.90625q0 1.1875 0.171875 1.921875q0.171875 0.71875 0.546875 1.046875q0.375 0.328125 0.953125 0.328125z" fill-rule="nonzero"/><path fill="#000000" fill-opacity="0.0" d="m648.81366 363.73227l0 39.4252l531.44415 0l0 -38.388428" fill-rule="evenodd"/><path stroke="#8d3aed" stroke-width="2.0" stroke-linejoin="round" stroke-linecap="butt" d="m648.81366 363.73227l0 39.4252l531.44415 0l0 -38.388428" fill-rule="evenodd"/><path fill="#8d3aed" d="m1164.9529 334.22845l0 0c0 -2.8963013 2.3479004 -5.2442017 5.2441406 -5.2442017l20.976196 0l0 0c1.3908691 0 2.7247314 0.55252075 3.70813 1.5359802c0.9835205 0.98349 1.5360107 2.3173828 1.5360107 3.7082214l0 31.086395c0 2.8963013 -2.3479004 5.2442017 -5.2441406 5.2442017l-20.976196 0c-2.8962402 0 -5.2441406 -2.3479004 -5.2441406 -5.2442017z" fill-rule="evenodd"/><path fill="#ffffff" d="m1180.2996 355.63165l0 -6.078125q0 -0.421875 0 -0.859375q0.015625 -0.4375 0.015625 -0.90625q-0.53125 0.484375 -1.171875 0.84375q-0.640625 0.359375 -1.34375 0.484375l-0.265625 -2.265625q0.421875 -0.03125 0.890625 -0.203125q0.46875 -0.1875 0.9375 -0.4375q0.46875 -0.265625 0.828125 -0.546875q0.375 -0.296875 0.5625 -0.59375l2.203125 0l0 10.5625l-2.65625 0z" fill-rule="nonzero"/><path fill="#38761d" d="m861.25806 419.9476l0 0c0 -3.00354 2.4348755 -5.4384155 5.4384155 -5.4384155l102.445984 0c1.4423828 0 2.8256836 0.5729675 3.845581 1.592865c1.0198975 1.019928 1.5928345 2.4031982 1.5928345 3.8455505l0 21.753082c0 3.0035706 -2.4348145 5.4384155 -5.4384155 5.4384155l-102.445984 0c-3.00354 0 -5.4384155 -2.434845 -5.4384155 -5.4384155z" fill-rule="evenodd"/><path fill="#ffffff" d="m915.6159 439.08414l0 -11.75l1.796875 0l0 1.78125q0.6875 -1.25 1.265625 -1.640625q0.578125 -0.40625 1.28125 -0.40625q1.0 0 2.046875 0.640625l-0.6875 1.84375q-0.734375 -0.421875 -1.46875 -0.421875q-0.640625 0 -1.171875 0.390625q-0.515625 0.390625 -0.734375 1.09375q-0.328125 1.0625 -0.328125 2.3125l0 6.15625l-2.0 0z" fill-rule="nonzero"/><path fill="#000000" fill-opacity="0.0" d="m917.9195 414.5092l0 -112.47244" fill-rule="evenodd"/><path stroke="#38761d" stroke-width="2.0" stroke-linejoin="round" stroke-linecap="butt" stroke-dasharray="2.0,6.0" d="m917.9195 414.5092l0 -112.47244" fill-rule="evenodd"/><path fill="#d9d9d9" d="m831.5459 260.5146l0 0c0 -4.586502 3.7181396 -8.304611 8.304626 -8.304611l156.14667 0c2.2025146 0 4.3148193 0.8749542 5.8722534 2.432373c1.5574341 1.5574188 2.432373 3.6697235 2.432373 5.872238l0 33.21753c0 4.5865173 -3.7180786 8.304626 -8.304626 8.304626l-156.14667 0c-4.586487 0 -8.304626 -3.7181091 -8.304626 -8.304626z" fill-rule="evenodd"/><path fill="#434343" d="m863.3889 270.9171q1.828125 0 3.234375 0.578125q1.421875 0.5625 2.453125 1.671875l-1.65625 2.21875q-0.859375 -0.90625 -1.859375 -1.34375q-0.984375 -0.453125 -2.234375 -0.453125q-0.75 0 -1.203125 0.15625q-0.453125 0.15625 -0.65625 0.4375q-0.203125 0.28125 -0.203125 0.640625q0 0.421875 0.390625 0.71875q0.390625 0.28125 1.265625 0.484375l2.21875 0.5q1.984375 0.453125 2.90625 1.34375q0.921875 0.875 0.921875 2.328125q0 1.40625 -0.71875 2.375q-0.71875 0.96875 -1.984375 1.46875q-1.265625 0.484375 -2.875 0.484375q-1.328125 0 -2.53125 -0.28125q-1.1875 -0.296875 -2.15625 -0.828125q-0.953125 -0.546875 -1.625 -1.25l1.671875 -2.296875q0.5 0.578125 1.21875 1.03125q0.734375 0.4375 1.609375 0.703125q0.875 0.265625 1.765625 0.265625q0.703125 0 1.171875 -0.140625q0.46875 -0.140625 0.6875 -0.421875q0.21875 -0.28125 0.21875 -0.671875q0 -0.40625 -0.296875 -0.703125q-0.296875 -0.296875 -1.140625 -0.484375l-2.4375 -0.546875q-1.125 -0.265625 -2.0 -0.6875q-0.859375 -0.4375 -1.359375 -1.15625q-0.5 -0.734375 -0.5 -1.828125q0 -1.25 0.671875 -2.21875q0.6875 -0.96875 1.96875 -1.53125q1.28125 -0.5625 3.0625 -0.5625zm9.15686 2.25q-1.046875 0 -1.515625 -0.390625q-0.46875 -0.390625 -0.46875 -1.234375q0 -0.859375 0.46875 -1.25q0.46875 -0.390625 1.515625 -0.390625q1.015625 0 1.5 0.390625q0.484375 0.390625 0.484375 1.25q0 0.84375 -0.484375 1.234375q-0.484375 0.390625 -1.5 0.390625zm1.703125 1.15625l0 10.0l-3.40625 0l0 -10.0l3.40625 0zm6.6012573 -3.1875l0 9.625q0 0.71875 0.34375 1.03125q0.34375 0.3125 0.96875 0.3125q0.484375 0 0.828125 -0.109375q0.359375 -0.109375 0.640625 -0.328125l0.359375 2.09375q-0.5 0.359375 -1.265625 0.5625q-0.765625 0.203125 -1.5625 0.203125q-1.140625 0 -1.96875 -0.3125q-0.828125 -0.328125 -1.28125 -1.03125q-0.453125 -0.703125 -0.46875 -1.859375l0 -9.234375l3.40625 -0.953125zm2.96875 3.1875l0 2.421875l-8.09375 0l0 -2.421875l8.09375 0zm4.95874 10.203125q-1.015625 0 -1.78125 -0.34375q-0.765625 -0.359375 -1.21875 -1.140625q-0.4375 -0.78125 -0.4375 -2.03125l0 -6.6875l3.40625 0l0 5.875q0 0.96875 0.375 1.34375q0.375 0.375 1.078125 0.375q0.359375 0 0.671875 -0.125q0.328125 -0.125 0.5625 -0.390625q0.25 -0.28125 0.375 -0.703125q0.140625 -0.4375 0.140625 -1.015625l0 -5.359375l3.390625 0l0 10.0l-3.03125 0l-0.109375 -1.875q-0.46875 1.0625 -1.34375 1.578125q-0.859375 0.5 -2.078125 0.5zm14.58313 -6.546875q0 -0.703125 -0.390625 -1.109375q-0.390625 -0.40625 -1.046875 -0.40625q-0.65625 0 -1.125 0.328125q-0.46875 0.328125 -0.65625 1.171875l-2.875 -0.6875q0.28125 -1.4375 1.46875 -2.296875q1.203125 -0.859375 3.390625 -0.859375q1.453125 0 2.484375 0.4375q1.03125 0.421875 1.578125 1.28125q0.5625 0.84375 0.5625 2.078125l0 3.671875q0 0.78125 0.6875 0.78125q0.359375 0 0.578125 -0.09375l-0.1875 1.953125q-0.609375 0.28125 -1.46875 0.28125q-0.78125 0 -1.390625 -0.25q-0.59375 -0.25 -0.9375 -0.765625q-0.328125 -0.515625 -0.328125 -1.296875l0 -0.109375l0.375 -0.140625q0 0.859375 -0.515625 1.4375q-0.5 0.578125 -1.3125 0.859375q-0.8125 0.28125 -1.6875 0.28125q-1.015625 0 -1.78125 -0.3125q-0.765625 -0.328125 -1.171875 -0.9375q-0.40625 -0.609375 -0.40625 -1.515625q0 -1.078125 0.640625 -1.78125q0.65625 -0.71875 2.0625 -1.0l3.78125 -0.78125l-0.03125 1.8125l-1.90625 0.390625q-0.609375 0.125 -0.90625 0.359375q-0.28125 0.21875 -0.28125 0.6875q0 0.4375 0.3125 0.65625q0.328125 0.21875 0.765625 0.21875q0.34375 0 0.65625 -0.09375q0.3125 -0.109375 0.546875 -0.3125q0.234375 -0.21875 0.375 -0.53125q0.140625 -0.328125 0.140625 -0.765625l0 -2.640625zm9.789368 -6.84375l0 9.625q0 0.71875 0.34375 1.03125q0.34375 0.3125 0.96875 0.3125q0.484375 0 0.828125 -0.109375q0.359375 -0.109375 0.640625 -0.328125l0.359375 2.09375q-0.5 0.359375 -1.265625 0.5625q-0.765625 0.203125 -1.5625 0.203125q-1.140625 0 -1.96875 -0.3125q-0.828125 -0.328125 -1.28125 -1.03125q-0.453125 -0.703125 -0.46875 -1.859375l0 -9.234375l3.40625 -0.953125zm2.96875 3.1875l0 2.421875l-8.09375 0l0 -2.421875l8.09375 0zm3.2868652 -1.15625q-1.046875 0 -1.515625 -0.390625q-0.46875 -0.390625 -0.46875 -1.234375q0 -0.859375 0.46875 -1.25q0.46875 -0.390625 1.515625 -0.390625q1.015625 0 1.5 0.390625q0.484375 0.390625 0.484375 1.25q0 0.84375 -0.484375 1.234375q-0.484375 0.390625 -1.5 0.390625zm1.703125 1.15625l0 10.0l-3.40625 0l0 -10.0l3.40625 0zm7.1793213 -0.203125q1.578125 0 2.765625 0.609375q1.1875 0.609375 1.859375 1.78125q0.671875 1.171875 0.671875 2.8125q0 1.640625 -0.671875 2.8125q-0.671875 1.171875 -1.859375 1.78125q-1.1875 0.609375 -2.765625 0.609375q-1.546875 0 -2.75 -0.609375q-1.1875 -0.609375 -1.859375 -1.78125q-0.671875 -1.171875 -0.671875 -2.8125q0 -1.640625 0.671875 -2.8125q0.671875 -1.171875 1.859375 -1.78125q1.203125 -0.609375 2.75 -0.609375zm0 2.421875q-0.578125 0 -1.0 0.28125q-0.421875 0.28125 -0.640625 0.90625q-0.21875 0.609375 -0.21875 1.59375q0 0.984375 0.21875 1.59375q0.21875 0.609375 0.640625 0.90625q0.421875 0.28125 1.0 0.28125q0.59375 0 1.015625 -0.28125q0.421875 -0.296875 0.640625 -0.90625q0.21875 -0.609375 0.21875 -1.59375q0 -0.984375 -0.21875 -1.59375q-0.21875 -0.625 -0.640625 -0.90625q-0.421875 -0.28125 -1.015625 -0.28125zm7.2144165 7.78125l0 -10.0l3.046875 0l0.171875 3.4375l-0.375 -0.375q0.203125 -1.078125 0.703125 -1.796875q0.515625 -0.71875 1.28125 -1.09375q0.765625 -0.375 1.734375 -0.375q1.03125 0 1.796875 0.40625q0.78125 0.390625 1.21875 1.171875q0.4375 0.78125 0.4375 1.96875l0 6.65625l-3.390625 0l0 -5.765625q0 -1.03125 -0.40625 -1.421875q-0.390625 -0.40625 -1.015625 -0.40625q-0.484375 0 -0.90625 0.234375q-0.421875 0.21875 -0.65625 0.71875q-0.234375 0.5 -0.234375 1.34375l0 5.296875l-3.40625 0zm28.338745 -13.203125l-2.140625 13.203125l-2.296875 0l2.125 -13.203125l2.3125 0zm0.9375 7.984375l0 2.03125l-11.859375 0l0 -2.03125l11.859375 0zm-5.828125 -7.984375l-2.125 13.203125l-2.328125 0l2.125 -13.203125l2.328125 0zm6.6875 3.1875l0 2.03125l-11.859375 0l0 -2.03125l11.859375 0zm7.8224487 10.015625l0 -2.90625l-6.4375 0l0 -2.15625q0.1875 -0.3125 0.46875 -0.765625q0.296875 -0.46875 0.6875 -1.078125l4.296875 -6.296875l4.03125 0l0 7.9375l2.015625 0l0 2.359375l-2.015625 0l0 2.90625l-3.046875 0zm-3.671875 -5.265625l3.71875 0l0 -4.0q0 -0.390625 0.015625 -0.8125q0.015625 -0.4375 0.046875 -0.875l-0.046875 0q-0.203125 0.40625 -0.46875 0.859375q-0.265625 0.453125 -0.515625 0.8125l-2.328125 3.421875q-0.109375 0.15625 -0.21875 0.296875q-0.09375 0.140625 -0.203125 0.296875z" fill-rule="nonzero"/><path fill="#bd005e" d="m668.1312 351.58005l31.653564 -31.653534l0 15.826782l186.58264 0l0 -15.826782l31.653564 31.653534l-31.653564 31.653534l0 -15.826752l-186.58264 0l0 15.826752z" fill-rule="evenodd"/><path fill="#ffffff" d="m795.35236 345.57693l-5.0 13.203125l-1.828125 0l-5.015625 -13.203125l1.71875 0l3.359375 9.125l0.84375 2.625l0.828125 -2.609375l3.375 -9.140625l1.71875 0zm1.335022 16.984375l0 -0.96875q0.453125 -0.328125 0.90625 -0.65625q0.46875 -0.3125 0.9375 -0.671875q0.953125 -0.765625 1.484375 -1.296875q0.546875 -0.53125 0.75 -0.953125q0.21875 -0.421875 0.21875 -0.875q0 -0.640625 -0.390625 -1.046875q-0.390625 -0.421875 -1.140625 -0.421875q-0.78125 0 -1.234375 0.5q-0.453125 0.484375 -0.5 1.359375l-1.25 -0.4375q0.078125 -1.21875 0.890625 -1.890625q0.828125 -0.6875 2.140625 -0.6875q0.984375 0 1.625 0.359375q0.65625 0.359375 0.984375 0.953125q0.34375 0.578125 0.34375 1.234375q0 0.578125 -0.3125 1.171875q-0.3125 0.578125 -0.953125 1.203125q-0.640625 0.625 -1.640625 1.328125q-0.265625 0.171875 -0.515625 0.34375q-0.25 0.171875 -0.53125 0.34375l0 0.03125q0.1875 -0.03125 0.640625 -0.046875q0.453125 -0.015625 0.640625 -0.015625l2.84375 0l0 1.140625l-5.9375 0z" fill-rule="nonzero"/><path fill="#0b5394" d="m918.33856 351.58005l31.653564 -31.653534l0 15.826782l186.5827 0l0 -15.826782l31.653564 31.653534l-31.653564 31.653534l0 -15.826752l-186.5827 0l0 15.826752z" fill-rule="evenodd"/><path fill="#ffffff" d="m1046.7897 345.57693l-5.0 13.203125l-1.828125 0l-5.015625 -13.203125l1.71875 0l3.359375 9.125l0.84375 2.625l0.828125 -2.609375l3.375 -9.140625l1.71875 0zm3.100708 9.046875l1.234375 0l0 7.9375l-1.40625 0l0 -5.03125q0 -0.265625 0.015625 -0.65625q0.015625 -0.390625 0.03125 -0.78125q-0.4375 0.421875 -1.03125 0.75q-0.578125 0.3125 -1.1875 0.421875l0 -1.203125q0.359375 -0.078125 0.828125 -0.296875q0.46875 -0.234375 0.890625 -0.53125q0.421875 -0.296875 0.625 -0.609375z" fill-rule="nonzero"/></g></svg>