<svg version="1.1" viewBox="0.0 0.0 1136.9448818897638 265.87926509186354" fill="none" stroke="none" stroke-linecap="square" stroke-miterlimit="10" xmlns:xlink="http://www.w3.org/1999/xlink" xmlns="http://www.w3.org/2000/svg"><clipPath id="p.0"><path d="m0 0l1136.9448 0l0 265.87927l-1136.9448 0l0 -265.87927z" clip-rule="nonzero"/></clipPath><g clip-path="url(#p.0)"><path fill="#000000" fill-opacity="0.0" d="m0 0l1136.9448 0l0 265.87927l-1136.9448 0z" fill-rule="evenodd"/><path fill="#8d3aed" d="m3.2020998 85.60903l0 0c0 -2.8962936 2.347908 -5.2442017 5.2441998 -5.2442017l20.97617 0l0 0c1.3908482 0 2.7247295 0.5525131 3.708208 1.5359879c0.98347855 0.98348236 1.5359917 2.31736 1.5359917 3.7082138l0 31.086403c0 2.8962936 -2.347908 5.2442017 -5.2441998 5.2442017l-20.97617 0c-2.8962917 0 -5.2441998 -2.347908 -5.2441998 -5.2442017z" fill-rule="evenodd"/><path fill="#ffffff" d="m18.938625 107.16848q-2.171875 0 -3.28125 -1.375q-1.109375 -1.375 -1.109375 -4.0625q0 -2.6875 1.109375 -4.0625q1.109375 -1.375 3.28125 -1.375q2.15625 0 3.265625 1.375q1.109375 1.375 1.109375 4.0625q0 2.6875 -1.109375 4.0625q-1.109375 1.375 -3.265625 1.375zm0 -2.140625q0.59375 0 0.953125 -0.328125q0.375 -0.328125 0.53125 -1.046875q0.171875 -0.734375 0.171875 -1.921875q0 -1.1875 -0.171875 -1.90625q-0.15625 -0.734375 -0.53125 -1.0625q-0.359375 -0.328125 -0.953125 -0.328125q-0.578125 0 -0.953125 0.328125q-0.375 0.328125 -0.546875 1.0625q-0.171875 0.71875 -0.171875 1.90625q0 1.1875 0.171875 1.921875q0.171875 0.71875 0.546875 1.046875q0.375 0.328125 0.953125 0.328125z" fill-rule="nonzero"/><path fill="#000000" fill-opacity="0.0" d="m19.34722 115.11286l0 39.425194l500.41736 0l0 -38.38845" fill-rule="evenodd"/><path stroke="#8d3aed" stroke-width="2.0" stroke-linejoin="round" stroke-linecap="butt" d="m19.34722 115.11286l0 39.425194l500.41736 0l0 -38.38845" fill-rule="evenodd"/><path fill="#8d3aed" d="m503.60373 85.60903l0 0c0 -2.8962936 2.347931 -5.2442017 5.2442017 -5.2442017l20.976166 0l0 0c1.3908691 0 2.7247314 0.5525131 3.708252 1.5359879c0.9834595 0.98348236 1.5359497 2.31736 1.5359497 3.7082138l0 31.086403c0 2.8962936 -2.3479004 5.2442017 -5.2442017 5.2442017l-20.976166 0c-2.8962708 0 -5.2442017 -2.347908 -5.2442017 -5.2442017z" fill-rule="evenodd"/><path fill="#ffffff" d="m518.9505 107.01223l0 -6.078125q0 -0.421875 0 -0.859375q0.015625 -0.4375 0.015625 -0.90625q-0.53125 0.484375 -1.171875 0.84375q-0.640625 0.359375 -1.34375 0.484375l-0.265625 -2.265625q0.421875 -0.03125 0.890625 -0.203125q0.46875 -0.1875 0.9375 -0.4375q0.46875 -0.265625 0.828125 -0.546875q0.375 -0.296875 0.5625 -0.59375l2.203125 0l0 10.5625l-2.65625 0z" fill-rule="nonzero"/><path fill="#bd005e" d="m74.46445 104.71129l162.70866 0l0 32.375946l-75.12599 0l0 4.9941254l6.228348 0l-12.45668 12.456696l-12.456696 -12.456696l6.228348 0l0 -4.9941254l-75.12599 0z" fill-rule="evenodd"/><path fill="#ffffff" d="m101.28702 115.50675l-4.40625 7.5l0 4.8125l-1.484375 0l0 -4.8125l-4.40625 -7.5l1.765625 0l2.390625 4.21875l0.984375 1.75l1.0 -1.75l2.390625 -4.21875l1.765625 0zm4.4367523 2.796875q1.328125 0 2.34375 0.578125q1.015625 0.578125 1.59375 1.671875q0.578125 1.09375 0.578125 2.59375q0 1.515625 -0.578125 2.609375q-0.578125 1.09375 -1.59375 1.671875q-1.015625 0.5781326 -2.34375 0.5781326q-1.296875 0 -2.328125 -0.5781326q-1.03125 -0.578125 -1.609375 -1.671875q-0.578125 -1.09375 -0.578125 -2.609375q0 -1.5 0.578125 -2.59375q0.578125 -1.09375 1.609375 -1.671875q1.03125 -0.578125 2.328125 -0.578125zm0 1.28125q-0.953125 0 -1.625 0.4375q-0.671875 0.421875 -1.03125 1.21875q-0.359375 0.796875 -0.359375 1.90625q0 1.109375 0.359375 1.921875q0.359375 0.796875 1.03125 1.234375q0.671875 0.421875 1.625 0.421875q0.953125 0 1.625 -0.421875q0.671875 -0.4375 1.03125 -1.234375q0.375 -0.8125 0.375 -1.921875q0 -1.109375 -0.375 -1.90625q-0.359375 -0.796875 -1.03125 -1.21875q-0.671875 -0.4375 -1.625 -0.4375zm10.709381 8.421883q-0.890625 0 -1.6875 -0.32813263q-0.796875 -0.34375 -1.296875 -1.09375q-0.484375 -0.765625 -0.484375 -1.96875l0 -6.125l1.5 0l0 5.734375q0 1.40625 0.609375 1.9375q0.609375 0.53125 1.734375 0.53125q0.515625 0 1.015625 -0.171875q0.515625 -0.171875 0.90625 -0.546875q0.40625 -0.390625 0.640625 -0.984375q0.234375 -0.609375 0.234375 -1.421875l0 -5.078125l1.5 0l0 9.328125l-1.3125 0l-0.09375 -1.421875q-0.484375 0.84375 -1.3125 1.234375q-0.828125 0.37500763 -1.953125 0.37500763zm8.13591 -0.18750763l0 -9.328125l1.21875 0l0.203125 1.53125q0.390625 -0.859375 1.140625 -1.28125q0.765625 -0.4375 1.84375 -0.4375q0.234375 0 0.515625 0.046875q0.296875 0.03125 0.5 0.140625l-0.25 1.359375q-0.203125 -0.078125 -0.453125 -0.109375q-0.234375 -0.03125 -0.6875 -0.03125q-0.578125 0 -1.171875 0.34375q-0.578125 0.328125 -0.96875 1.015625q-0.390625 0.671875 -0.390625 1.71875l0 5.03125l-1.5 0z" fill-rule="nonzero"/><path fill="#010000" fill-opacity="0.0" d="m136.37889 110.46894l84.456024 0l0 21.883781l-84.456024 0l0 -21.883781z" fill-rule="nonzero"/><path fill="#ffffff" d="m147.94139 115.50675l-4.65625 12.3125l-1.703125 0l-4.6875 -12.3125l1.609375 0l3.140625 8.5l0.78125 2.453125l0.78125 -2.421875l3.140625 -8.53125l1.59375 0zm6.5942535 6.28125q0 -1.046875 -0.5625 -1.609375q-0.5625 -0.5625 -1.59375 -0.5625q-0.96875 0 -1.640625 0.421875q-0.671875 0.40625 -0.984375 1.34375l-1.21875 -0.75q0.375 -1.046875 1.375 -1.6875q1.015625 -0.640625 2.515625 -0.640625q1.0 0 1.8125 0.34375q0.828125 0.34375 1.296875 1.046875q0.484375 0.703125 0.484375 1.796875l0 4.515625q0 0.671875 0.71875 0.671875q0.34375 0 0.6875 -0.09375l-0.078125 1.171875q-0.375 0.1875 -0.96875 0.1875q-0.546875 0 -0.984375 -0.203125q-0.421875 -0.203125 -0.671875 -0.625q-0.234375 -0.421875 -0.234375 -1.046875l0 -0.1875l0.375 0.046875q-0.21875 0.734375 -0.765625 1.1875q-0.53125 0.453125 -1.203125 0.671875q-0.671875 0.21875763 -1.328125 0.21875763q-0.828125 0 -1.53125 -0.28125763q-0.703125 -0.28125 -1.125 -0.84375q-0.421875 -0.578125 -0.421875 -1.40625q0 -1.046875 0.6875 -1.71875q0.703125 -0.6875 1.953125 -0.9375l3.703125 -0.734375l0 1.234375l-3.0 0.625q-0.921875 0.1875 -1.375 0.53125q-0.4375 0.328125 -0.4375 0.921875q0 0.578125 0.453125 0.9375q0.453125 0.359375 1.296875 0.359375q0.546875 0 1.03125 -0.140625q0.5 -0.140625 0.890625 -0.421875q0.390625 -0.296875 0.609375 -0.734375q0.234375 -0.4375 0.234375 -1.03125l0 -2.578125zm6.528183 -7.59375l0 11.25q0 0.71875 0.25 0.984375q0.265625 0.265625 0.84375 0.265625q0.375 0 0.609375 -0.046875q0.25 -0.0625 0.65625 -0.203125l-0.234375 1.296875q-0.296875 0.140625 -0.65625 0.203125q-0.359375 0.06250763 -0.71875 0.06250763q-1.140625 0 -1.703125 -0.6093826q-0.546875 -0.625 -0.546875 -1.890625l0 -11.3125l1.5 0zm7.6619415 13.812508q-0.890625 0 -1.6875 -0.32813263q-0.796875 -0.34375 -1.296875 -1.09375q-0.484375 -0.765625 -0.484375 -1.96875l0 -6.125l1.5 0l0 5.734375q0 1.40625 0.609375 1.9375q0.609375 0.53125 1.734375 0.53125q0.515625 0 1.015625 -0.171875q0.515625 -0.171875 0.90625 -0.546875q0.40625 -0.390625 0.640625 -0.984375q0.234375 -0.609375 0.234375 -1.421875l0 -5.078125l1.5 0l0 9.328125l-1.3125 0l-0.09375 -1.421875q-0.484375 0.84375 -1.3125 1.234375q-0.828125 0.37500763 -1.953125 0.37500763zm13.589035 -6.2187576q0 -1.046875 -0.5625 -1.609375q-0.5625 -0.5625 -1.59375 -0.5625q-0.96875 0 -1.640625 0.421875q-0.671875 0.40625 -0.984375 1.34375l-1.21875 -0.75q0.375 -1.046875 1.375 -1.6875q1.015625 -0.640625 2.515625 -0.640625q1.0 0 1.8125 0.34375q0.828125 0.34375 1.296875 1.046875q0.484375 0.703125 0.484375 1.796875l0 4.515625q0 0.671875 0.71875 0.671875q0.34375 0 0.6875 -0.09375l-0.078125 1.171875q-0.375 0.1875 -0.96875 0.1875q-0.546875 0 -0.984375 -0.203125q-0.421875 -0.203125 -0.671875 -0.625q-0.234375 -0.421875 -0.234375 -1.046875l0 -0.1875l0.375 0.046875q-0.21875 0.734375 -0.765625 1.1875q-0.53125 0.453125 -1.203125 0.671875q-0.671875 0.21875763 -1.328125 0.21875763q-0.828125 0 -1.53125 -0.28125763q-0.703125 -0.28125 -1.125 -0.84375q-0.421875 -0.578125 -0.421875 -1.40625q0 -1.046875 0.6875 -1.71875q0.703125 -0.6875 1.953125 -0.9375l3.703125 -0.734375l0 1.234375l-3.0 0.625q-0.921875 0.1875 -1.375 0.53125q-0.4375 0.328125 -0.4375 0.921875q0 0.578125 0.453125 0.9375q0.453125 0.359375 1.296875 0.359375q0.546875 0 1.03125 -0.140625q0.5 -0.140625 0.890625 -0.421875q0.390625 -0.296875 0.609375 -0.734375q0.234375 -0.4375 0.234375 -1.03125l0 -2.578125zm6.936096 -5.953125l0 9.40625q0 0.6875 0.390625 1.03125q0.390625 0.328125 1.0 0.328125q0.546875 0 0.9375 -0.171875q0.390625 -0.1875 0.71875 -0.515625l0.515625 1.25q-0.421875 0.390625 -1.015625 0.625q-0.59375 0.21875763 -1.359375 0.21875763q-0.703125 0 -1.328125 -0.25000763q-0.609375 -0.25 -0.96875 -0.796875q-0.359375 -0.5625 -0.390625 -1.453125l0 -9.25l1.5 -0.421875zm3.390625 2.65625l0 1.28125l-6.75 0l0 -1.28125l6.75 0zm2.9732208 -1.796875q-0.5 0 -0.8125 -0.296875q-0.3125 -0.3125 -0.3125 -0.8125q0 -0.515625 0.3125 -0.8125q0.3125 -0.3125 0.8125 -0.3125q0.5 0 0.796875 0.3125q0.3125 0.296875 0.3125 0.8125q0 0.5 -0.3125 0.8125q-0.296875 0.296875 -0.796875 0.296875zm0.75 1.796875l0 9.328125l-1.5 0l0 -9.328125l1.5 0zm7.321945 -0.1875q1.328125 0 2.34375 0.578125q1.015625 0.578125 1.59375 1.671875q0.578125 1.09375 0.578125 2.59375q0 1.515625 -0.578125 2.609375q-0.578125 1.09375 -1.59375 1.671875q-1.015625 0.5781326 -2.34375 0.5781326q-1.296875 0 -2.328125 -0.5781326q-1.03125 -0.578125 -1.609375 -1.671875q-0.578125 -1.09375 -0.578125 -2.609375q0 -1.5 0.578125 -2.59375q0.578125 -1.09375 1.609375 -1.671875q1.03125 -0.578125 2.328125 -0.578125zm0 1.28125q-0.953125 0 -1.625 0.4375q-0.671875 0.421875 -1.03125 1.21875q-0.359375 0.796875 -0.359375 1.90625q0 1.109375 0.359375 1.921875q0.359375 0.796875 1.03125 1.234375q0.671875 0.421875 1.625 0.421875q0.953125 0 1.625 -0.421875q0.671875 -0.4375 1.03125 -1.234375q0.375 -0.8125 0.375 -1.921875q0 -1.109375 -0.375 -1.90625q-0.359375 -0.796875 -1.03125 -1.21875q-0.671875 -0.4375 -1.625 -0.4375zm7.334381 8.234375l0 -9.328125l1.3125 0l0.125 2.09375l-0.25 -0.203125q0.3125 -0.75 0.8125 -1.203125q0.5 -0.46875 1.15625 -0.671875q0.671875 -0.203125 1.375 -0.203125q1.015625 0 1.828125 0.390625q0.828125 0.375 1.3125 1.15625q0.5 0.78125 0.5 2.0l0 5.96875l-1.5 0l0 -5.453125q0 -1.546875 -0.65625 -2.140625q-0.65625 -0.609375 -1.625 -0.609375q-0.671875 0 -1.34375 0.3125q-0.671875 0.3125 -1.109375 1.03125q-0.4375 0.703125 -0.4375 1.890625l0 4.96875l-1.5 0z" fill-rule="nonzero"/><path fill="#ffffff" d="m136.37889 129.0326l84.456024 0l0 1.6799927l-84.456024 0l0 -1.6799927z" fill-rule="nonzero"/><path fill="#38761d" d="m231.67538 230.40169l0 0c0 -3.0035706 2.4348602 -5.438431 5.438431 -5.438431l102.44597 0c1.4423523 0 2.825653 0.5729675 3.8455505 1.5928802c1.0198975 1.0198975 1.5928955 2.403183 1.5928955 3.8455505l0 21.753052c0 3.0035706 -2.4348755 5.438431 -5.438446 5.438431l-102.44597 0c-3.0035706 0 -5.438431 -2.4348602 -5.438431 -5.438431z" fill-rule="evenodd"/><path fill="#ffffff" d="m253.43129 248.19821l0 -5.65625l-5.15625 -7.703125l2.15625 0l2.640625 4.03125q0.71875 1.125 1.34375 2.265625q0.609375 -1.046875 1.46875 -2.359375l2.5781403 -3.9375l2.0625 0l-5.3281403 7.703125l0 5.65625l-1.765625 0zm6.1519012 -4.84375q0 -2.6875 1.484375 -3.96875q1.25 -1.078125 3.046875 -1.078125q2.0 0 3.265625 1.3125q1.265625 1.296875 1.265625 3.609375q0 1.859375 -0.5625 2.9375q-0.5625 1.0625 -1.640625 1.65625q-1.0625 0.59375 -2.328125 0.59375q-2.03125 0 -3.28125 -1.296875q-1.25 -1.3125 -1.25 -3.765625zm1.6875 0q0 1.859375 0.796875 2.796875q0.8125 0.921875 2.046875 0.921875q1.21875 0 2.03125 -0.921875q0.8125 -0.9375 0.8125 -2.84375q0 -1.796875 -0.8125 -2.71875q-0.8125 -0.921875 -2.03125 -0.921875q-1.234375 0 -2.046875 0.921875q-0.796875 0.90625 -0.796875 2.765625zm15.625732 4.84375l0 -1.421875q-1.125 1.640625 -3.0625 1.640625q-0.859375 0 -1.609375 -0.328125q-0.734375 -0.328125 -1.09375 -0.828125q-0.359375 -0.5 -0.5 -1.21875q-0.109375 -0.46875 -0.109375 -1.53125l0 -5.984375l1.640625 0l0 5.359375q0 1.28125 0.109375 1.734375q0.15625 0.640625 0.65625 1.015625q0.5 0.375 1.234375 0.375q0.734375 0 1.375 -0.375q0.65625 -0.390625 0.921875 -1.03125q0.265625 -0.65625 0.265625 -1.890625l0 -5.1875l1.640625 0l0 9.671875l-1.46875 0zm4.031952 0l0 -9.671875l1.46875 0l0 1.46875q0.5625 -1.03125 1.03125 -1.359375q0.484375 -0.328125 1.0625 -0.328125q0.828125 0 1.6875 0.53125l-0.5625 1.515625q-0.609375 -0.359375 -1.203125 -0.359375q-0.546875 0 -0.96875 0.328125q-0.421875 0.328125 -0.609375 0.890625q-0.28125 0.875 -0.28125 1.921875l0 5.0625l-1.625 0zm11.536621 0l0 -13.359375l5.015625 0q1.53125 0 2.453125 0.40625q0.921875 0.40625 1.4375 1.25q0.53125 0.84375 0.53125 1.765625q0 0.859375 -0.46875 1.625q-0.453125 0.75 -1.390625 1.203125q1.203125 0.359375 1.859375 1.21875q0.65625 0.859375 0.65625 2.015625q0 0.9375 -0.40625 1.75q-0.390625 0.796875 -0.984375 1.234375q-0.578125 0.4375 -1.453125 0.671875q-0.875 0.21875 -2.15625 0.21875l-5.09375 0zm1.78125 -7.75l2.875 0q1.1875 0 1.6875 -0.140625q0.671875 -0.203125 1.015625 -0.671875q0.34375 -0.46875 0.34375 -1.171875q0 -0.65625 -0.328125 -1.15625q-0.3125 -0.515625 -0.90625 -0.703125q-0.59375 -0.1875 -2.03125 -0.1875l-2.65625 0l0 4.03125zm0 6.171875l3.3125 0q0.859375 0 1.203125 -0.0625q0.609375 -0.109375 1.015625 -0.359375q0.421875 -0.265625 0.6875 -0.75q0.265625 -0.484375 0.265625 -1.125q0 -0.75 -0.390625 -1.296875q-0.375 -0.546875 -1.0625 -0.765625q-0.671875 -0.234375 -1.953125 -0.234375l-3.078125 0l0 4.59375zm10.537323 -9.890625l0 -1.890625l1.640625 0l0 1.890625l-1.640625 0zm0 11.46875l0 -9.671875l1.640625 0l0 9.671875l-1.640625 0zm10.410431 0l0 -1.21875q-0.90625 1.4375 -2.703125 1.4375q-1.15625 0 -2.125 -0.640625q-0.96875 -0.640625 -1.5 -1.78125q-0.53125 -1.140625 -0.53125 -2.625q0 -1.453125 0.484375 -2.625q0.484375 -1.1875 1.4375 -1.8125q0.96875 -0.625 2.171875 -0.625q0.875 0 1.546875 0.375q0.6875 0.359375 1.109375 0.953125l0 -4.796875l1.640625 0l0 13.359375l-1.53125 0zm-5.171875 -4.828125q0 1.859375 0.78125 2.78125q0.78125 0.921875 1.84375 0.921875q1.078125 0 1.828125 -0.875q0.75 -0.890625 0.75 -2.6875q0 -1.984375 -0.765625 -2.90625q-0.765625 -0.9375 -1.890625 -0.9375q-1.078125 0 -1.8125 0.890625q-0.734375 0.890625 -0.734375 2.8125zm12.344482 1.546875q0 -0.328125 0 -0.5q0 -0.96875 0.265625 -1.671875q0.203125 -0.515625 0.640625 -1.0625q0.328125 -0.390625 1.171875 -1.140625q0.859375 -0.75 1.109375 -1.1875q0.265625 -0.453125 0.265625 -0.984375q0 -0.953125 -0.75 -1.671875q-0.734375 -0.734375 -1.828125 -0.734375q-1.046875 0 -1.75 0.65625q-0.703125 0.65625 -0.921875 2.046875l-1.6875 -0.203125q0.234375 -1.859375 1.359375 -2.84375q1.125 -1.0 2.96875 -1.0q1.96875 0 3.125 1.0625q1.171875 1.0625 1.171875 2.578125q0 0.875 -0.40625 1.609375q-0.40625 0.734375 -1.609375 1.796875q-0.796875 0.703125 -1.046875 1.046875q-0.25 0.34375 -0.375 0.78125q-0.109375 0.4375 -0.125 1.421875l-1.578125 0zm-0.09375 3.28125l0 -1.875l1.859375 0l0 1.875l-1.859375 0z" fill-rule="nonzero"/><path fill="#1155cc" d="m336.37225 119.11703c-1.308258 -3.1719208 2.986847 -6.311928 11.062744 -8.087616c8.075897 -1.7756882 18.516235 -1.8756485 26.89087 -0.25745392l0 0c2.9663696 -1.8444138 8.395905 -3.117859 14.646179 -3.4351273c6.250305 -0.31726837 12.587158 0.3589096 17.09375 1.8239899l0 0c2.527069 -1.6722336 7.489044 -2.7957687 13.125183 -2.971901c5.636139 -0.1761322 11.148743 0.6200638 14.581604 2.1060486l0 0c4.565613 -1.7724609 11.829529 -2.5187302 18.648651 -1.9159012c6.819153 0.602829 11.9687195 2.4464874 13.22052 4.733223l0 0c5.5933533 0.5033951 10.252502 1.783081 12.773682 3.5084229c2.5211792 1.7253418 2.657074 3.727089 0.3725586 5.4880753c5.5082397 2.365181 6.7968445 5.5167847 3.3848572 8.278679c-3.4119568 2.7618866 -11.011841 4.719116 -19.96347 5.141266c-0.06311035 2.5922241 -4.371826 4.97081 -11.265381 6.218933c-6.893524 1.2481232 -15.295441 1.1708832 -21.967163 -0.20195007c-2.841858 3.1046295 -10.840881 5.388977 -20.541138 5.8661346c-9.700256 0.47714233 -19.362793 -0.93844604 -24.812958 -3.6351929l0 0c-6.680725 1.3292084 -14.6970825 1.7121277 -22.240692 1.0623474c-7.54364 -0.649765 -13.979065 -2.2774963 -17.854584 -4.515976l0 0c-6.8268433 0.26359558 -13.427429 -0.90341187 -16.526001 -2.9218292c-3.0985718 -2.0184174 -2.0354614 -4.4585876 2.6616516 -6.1094666l0 0c-6.090027 -1.1826172 -9.19754 -3.5293198 -7.7020874 -5.8163986c1.4954834 -2.2870865 7.255005 -3.9962845 14.275269 -4.236305z" fill-rule="evenodd"/><path fill="#1155cc" d="m377.88525 153.86354l0 0c0 0.60494995 -0.49038696 1.0953674 -1.0953674 1.0953674c-0.60494995 0 -1.0953369 -0.49041748 -1.0953369 -1.0953674c0 -0.60494995 0.49038696 -1.0953674 1.0953369 -1.0953674c0.60498047 0 1.0953674 0.49041748 1.0953674 1.0953674z" fill-rule="evenodd"/><path fill="#1155cc" d="m381.2505 151.43642c0 1.2098999 -0.98083496 2.1907196 -2.1907349 2.1907196c-1.2098999 0 -2.1907043 -0.9808197 -2.1907043 -2.1907196c0 -1.2099152 0.98080444 -2.1907349 2.1907043 -2.1907349c1.2098999 0 2.1907349 0.9808197 2.1907349 2.1907349z" fill-rule="evenodd"/><path fill="#1155cc" d="m386.1121 147.40924c0 1.8148499 -1.4712219 3.286087 -3.2861023 3.286087c-1.8148499 0 -3.2860718 -1.4712372 -3.2860718 -3.286087c0 -1.8148651 1.4712219 -3.2861023 3.2860718 -3.2861023c1.8148804 0 3.2861023 1.4712372 3.2861023 3.2861023z" fill-rule="evenodd"/><path fill="#000000" fill-opacity="0.0" d="m339.3512 129.86418l0 0c-3.3203735 0.085754395 -6.640381 -0.16740417 -9.514252 -0.7254791m17.90866 8.664673c-1.3352051 0.175354 -2.7347717 0.292099 -4.1625977 0.347229m40.030365 3.4675903l0 0c-1.004242 -0.4968872 -1.8450317 -1.0278625 -2.5080566 -1.5838623m48.889496 -2.3656921c-0.14767456 0.58935547 -0.4833374 1.1719055 -1.0014343 1.7378998m20.914276 -12.475853l0 0c7.5278015 1.208641 12.27832 3.7354965 12.211151 6.495247m16.592346 -13.413124c-1.2191162 0.9397354 -3.0802307 1.7733612 -5.437439 2.4355164m-7.610443 -11.472588l0 0c0.20773315 0.3794937 0.30389404 0.7646866 0.28710938 1.1502457m-35.013214 -2.4919586l0 0c0.7084961 -0.5306549 1.6468201 -1.0247498 2.7857056 -1.466896m-28.839417 2.1658478l0 0c0.28903198 -0.4385376 0.742218 -0.8635025 1.3491211 -1.2651062m-31.926147 1.694931l0 0c1.7720642 0.34240723 3.4114685 0.75453186 4.8821716 1.2273178m-41.96347 8.418663l0 0c-0.38684082 -0.42235565 -0.6717529 -0.85414886 -0.8520508 -1.291336" fill-rule="evenodd"/><path fill="#ffffff" d="m359.41385 131.75957l0 -13.359375l5.015625 0q1.53125 0 2.453125 0.40625q0.921875 0.40625 1.4375 1.25q0.53125 0.84375 0.53125 1.765625q0 0.859375 -0.46875 1.625q-0.453125 0.75 -1.390625 1.203125q1.203125 0.359375 1.859375 1.21875q0.65625 0.859375 0.65625 2.015625q0 0.9375 -0.40625 1.75q-0.390625 0.796875 -0.984375 1.234375q-0.578125 0.4375 -1.453125 0.671875q-0.875 0.21875 -2.15625 0.21875l-5.09375 0zm1.78125 -7.75l2.875 0q1.1875 0 1.6875 -0.140625q0.671875 -0.203125 1.015625 -0.671875q0.34375 -0.46875 0.34375 -1.171875q0 -0.65625 -0.328125 -1.15625q-0.3125 -0.515625 -0.90625 -0.703125q-0.59375 -0.1875 -2.03125 -0.1875l-2.65625 0l0 4.03125zm0 6.171875l3.3125 0q0.859375 0 1.203125 -0.0625q0.609375 -0.109375 1.015625 -0.359375q0.421875 -0.265625 0.6875 -0.75q0.265625 -0.484375 0.265625 -1.125q0 -0.75 -0.390625 -1.296875q-0.375 -0.546875 -1.0625 -0.765625q-0.671875 -0.234375 -1.953125 -0.234375l-3.078125 0l0 4.59375zm9.927948 -3.265625q0 -2.6875 1.484375 -3.96875q1.25 -1.078125 3.046875 -1.078125q2.0 0 3.265625 1.3125q1.265625 1.296875 1.265625 3.609375q0 1.859375 -0.5625 2.9375q-0.5625 1.0625 -1.640625 1.65625q-1.0625 0.59375 -2.328125 0.59375q-2.03125 0 -3.28125 -1.296875q-1.25 -1.3125 -1.25 -3.765625zm1.6875 0q0 1.859375 0.796875 2.796875q0.8125 0.921875 2.046875 0.921875q1.21875 0 2.03125 -0.921875q0.8125 -0.9375 0.8125 -2.84375q0 -1.796875 -0.8125 -2.71875q-0.8125 -0.921875 -2.03125 -0.921875q-1.234375 0 -2.046875 0.921875q-0.796875 0.90625 -0.796875 2.765625zm10.797607 4.84375l-1.515625 0l0 -13.359375l1.640625 0l0 4.765625q1.046875 -1.296875 2.65625 -1.296875q0.890625 0 1.6875 0.359375q0.796875 0.359375 1.3125 1.015625q0.515625 0.640625 0.796875 1.5625q0.296875 0.921875 0.296875 1.96875q0 2.484375 -1.234375 3.84375q-1.21875 1.359375 -2.953125 1.359375q-1.703125 0 -2.6875 -1.4375l0 1.21875zm-0.015625 -4.90625q0 1.734375 0.484375 2.515625q0.765625 1.265625 2.09375 1.265625q1.078125 0 1.859375 -0.9375q0.78125 -0.9375 0.78125 -2.78125q0 -1.890625 -0.75 -2.796875q-0.75 -0.90625 -1.828125 -0.90625q-1.0625 0 -1.859375 0.9375q-0.78125 0.9375 -0.78125 2.703125zm8.781952 -6.6875l0 -1.890625l1.765625 0l0 1.5q0 1.21875 -0.28125 1.75q-0.390625 0.75 -1.21875 1.109375l-0.40625 -0.640625q0.484375 -0.203125 0.71875 -0.625q0.25 -0.4375 0.28125 -1.203125l-0.859375 0zm3.2607117 8.703125l1.625 -0.25q0.125 0.96875 0.75 1.5q0.625 0.515625 1.75 0.515625q1.125 0 1.671875 -0.453125q0.546875 -0.46875 0.546875 -1.09375q0 -0.546875 -0.484375 -0.875q-0.328125 -0.21875 -1.671875 -0.546875q-1.8125 -0.46875 -2.515625 -0.796875q-0.6875 -0.328125 -1.046875 -0.90625q-0.359375 -0.59375 -0.359375 -1.3125q0 -0.640625 0.296875 -1.1875q0.296875 -0.5625 0.8125 -0.921875q0.375 -0.28125 1.03125 -0.46875q0.671875 -0.203125 1.421875 -0.203125q1.140625 0 2.0 0.328125q0.859375 0.328125 1.265625 0.890625q0.421875 0.5625 0.578125 1.5l-1.609375 0.21875q-0.109375 -0.75 -0.640625 -1.171875q-0.515625 -0.421875 -1.46875 -0.421875q-1.140625 0 -1.625 0.375q-0.46875 0.375 -0.46875 0.875q0 0.3125 0.1875 0.578125q0.203125 0.265625 0.640625 0.4375q0.234375 0.09375 1.4375 0.421875q1.75 0.453125 2.4375 0.75q0.6875 0.296875 1.078125 0.859375q0.390625 0.5625 0.390625 1.40625q0 0.828125 -0.484375 1.546875q-0.46875 0.71875 -1.375 1.125q-0.90625 0.390625 -2.046875 0.390625q-1.875 0 -2.875 -0.78125q-0.984375 -0.78125 -1.25 -2.328125zm15.292664 2.890625l0 -13.359375l5.015625 0q1.53125 0 2.453125 0.40625q0.921875 0.40625 1.4375 1.25q0.53125 0.84375 0.53125 1.765625q0 0.859375 -0.46875 1.625q-0.453125 0.75 -1.390625 1.203125q1.203125 0.359375 1.859375 1.21875q0.65625 0.859375 0.65625 2.015625q0 0.9375 -0.40625 1.75q-0.390625 0.796875 -0.984375 1.234375q-0.578125 0.4375 -1.453125 0.671875q-0.875 0.21875 -2.15625 0.21875l-5.09375 0zm1.78125 -7.75l2.875 0q1.1875 0 1.6875 -0.140625q0.671875 -0.203125 1.015625 -0.671875q0.34375 -0.46875 0.34375 -1.171875q0 -0.65625 -0.328125 -1.15625q-0.3125 -0.515625 -0.90625 -0.703125q-0.59375 -0.1875 -2.03125 -0.1875l-2.65625 0l0 4.03125zm0 6.171875l3.3125 0q0.859375 0 1.203125 -0.0625q0.609375 -0.109375 1.015625 -0.359375q0.421875 -0.265625 0.6875 -0.75q0.265625 -0.484375 0.265625 -1.125q0 -0.75 -0.390625 -1.296875q-0.375 -0.546875 -1.0625 -0.765625q-0.671875 -0.234375 -1.953125 -0.234375l-3.078125 0l0 4.59375zm10.537323 -9.890625l0 -1.890625l1.640625 0l0 1.890625l-1.640625 0zm0 11.46875l0 -9.671875l1.640625 0l0 9.671875l-1.640625 0zm10.410461 0l0 -1.21875q-0.90625 1.4375 -2.703125 1.4375q-1.15625 0 -2.125 -0.640625q-0.96875 -0.640625 -1.5 -1.78125q-0.53125 -1.140625 -0.53125 -2.625q0 -1.453125 0.484375 -2.625q0.484375 -1.1875 1.4375 -1.8125q0.96875 -0.625 2.171875 -0.625q0.875 0 1.546875 0.375q0.6875 0.359375 1.109375 0.953125l0 -4.796875l1.640625 0l0 13.359375l-1.53125 0zm-5.171875 -4.828125q0 1.859375 0.78125 2.78125q0.78125 0.921875 1.84375 0.921875q1.078125 0 1.828125 -0.875q0.75 -0.890625 0.75 -2.6875q0 -1.984375 -0.765625 -2.90625q-0.765625 -0.9375 -1.890625 -0.9375q-1.078125 0 -1.8125 0.890625q-0.734375 0.890625 -0.734375 2.8125z" fill-rule="nonzero"/><path fill="#000000" fill-opacity="0.0" d="m288.534 224.96326l-189.00787 -61.35434" fill-rule="evenodd"/><path stroke="#38761d" stroke-width="2.0" stroke-linejoin="round" stroke-linecap="butt" stroke-dasharray="2.0,6.0" d="m288.534 224.96326l-177.59418 -57.649307" fill-rule="evenodd"/><path fill="#38761d" stroke="#38761d" stroke-width="2.0" stroke-linecap="butt" d="m111.959785 164.17189l-9.65271 0.33976746l7.6128006 5.9443665z" fill-rule="evenodd"/><path fill="#000000" fill-opacity="0.0" d="m288.534 224.96326l179.62204 -63.307083" fill-rule="evenodd"/><path stroke="#38761d" stroke-width="2.0" stroke-linejoin="round" stroke-linecap="butt" stroke-dasharray="2.0,6.0" d="m288.534 224.96326l168.30441 -59.318237" fill-rule="evenodd"/><path fill="#38761d" stroke="#38761d" stroke-width="2.0" stroke-linecap="butt" d="m457.9365 168.76065l7.4620056 -6.132599l-9.658173 -0.09864807z" fill-rule="evenodd"/><path fill="#000000" fill-opacity="0.0" d="m288.3421 221.60104l0.2204895 -58.45668" fill-rule="evenodd"/><path stroke="#38761d" stroke-width="2.0" stroke-linejoin="round" stroke-linecap="butt" stroke-dasharray="2.0,6.0" d="m288.3421 221.60104l0.17523193 -46.45677" fill-rule="evenodd"/><path fill="#38761d" stroke="#38761d" stroke-width="2.0" stroke-linecap="butt" d="m291.82077 175.15672l-3.269226 -9.088577l-3.337677 9.06366z" fill-rule="evenodd"/><path fill="#d9d9d9" d="m221.39638 11.895179l0 0c0 -4.586519 3.7181091 -8.304627 8.304626 -8.304627l117.50099 0c2.2025146 0 4.3148193 0.8749492 5.8722534 2.4323695c1.5574036 1.5574198 2.432373 3.669734 2.432373 5.872258l0 33.217514c0 4.586521 -3.7181091 8.30463 -8.304626 8.30463l-117.50099 0l0 0c-4.5865173 0 -8.304626 -3.7181091 -8.304626 -8.30463z" fill-rule="evenodd"/><path fill="#434343" d="m238.5631 23.034561q1.59375 0 2.8125 0.5q1.21875 0.484375 2.125 1.4375l-1.4375 1.921875q-0.75 -0.78125 -1.609375 -1.171875q-0.84375 -0.390625 -1.9375 -0.390625q-0.640625 0 -1.046875 0.140625q-0.390625 0.140625 -0.5625 0.390625q-0.171875 0.234375 -0.171875 0.546875q0 0.375 0.328125 0.625q0.34375 0.25 1.109375 0.421875l1.921875 0.421875q1.703125 0.40625 2.5 1.171875q0.796875 0.765625 0.796875 2.03125q0 1.203125 -0.625 2.046875q-0.609375 0.84375 -1.703125 1.265625q-1.09375 0.421875 -2.5 0.421875q-1.140625 0 -2.1875 -0.25q-1.03125 -0.25 -1.875 -0.71875q-0.828125 -0.46875 -1.390625 -1.078125l1.4375 -1.984375q0.4375 0.5 1.0625 0.890625q0.625 0.390625 1.375 0.625q0.765625 0.21875 1.546875 0.21875q0.609375 0 1.015625 -0.125q0.40625 -0.125 0.59375 -0.359375q0.1875 -0.25 0.1875 -0.578125q0 -0.359375 -0.265625 -0.609375q-0.25 -0.265625 -0.984375 -0.4375l-2.109375 -0.46875q-0.96875 -0.21875 -1.734375 -0.59375q-0.75 -0.375 -1.1875 -1.0q-0.421875 -0.640625 -0.421875 -1.59375q0 -1.0625 0.578125 -1.90625q0.59375 -0.84375 1.703125 -1.328125q1.109375 -0.484375 2.65625 -0.484375zm7.9387817 1.9375q-0.90625 0 -1.3125 -0.328125q-0.40625 -0.34375 -0.40625 -1.078125q0 -0.734375 0.40625 -1.078125q0.40625 -0.34375 1.3125 -0.34375q0.875 0 1.296875 0.34375q0.421875 0.34375 0.421875 1.078125q0 0.734375 -0.421875 1.078125q-0.421875 0.328125 -1.296875 0.328125zm1.46875 1.015625l0 8.65625l-2.9375 0l0 -8.65625l2.9375 0zm5.714325 -2.765625l0 8.34375q0 0.625 0.296875 0.890625q0.3125 0.265625 0.859375 0.265625q0.40625 0 0.703125 -0.09375q0.3125 -0.09375 0.56251526 -0.28125l0.3125 1.8125q-0.43751526 0.3125 -1.0937653 0.484375q-0.65625 0.171875 -1.359375 0.171875q-0.984375 0 -1.703125 -0.265625q-0.71875 -0.28125 -1.109375 -0.890625q-0.390625 -0.609375 -0.40625 -1.609375l0 -8.015625l2.9375 -0.8125zm2.5937653 2.765625l0 2.09375l-7.0156403 0l0 -2.09375l7.0156403 0zm4.2910767 8.828125q-0.875 0 -1.546875 -0.296875q-0.671875 -0.3125 -1.0625 -0.984375q-0.375 -0.671875 -0.375 -1.765625l0 -5.78125l2.953125 0l0 5.09375q0 0.828125 0.328125 1.15625q0.328125 0.328125 0.9375 0.328125q0.3125 0 0.578125 -0.109375q0.28125 -0.109375 0.484375 -0.34375q0.21875 -0.234375 0.328125 -0.609375q0.109375 -0.375 0.109375 -0.875l0 -4.640625l2.953125 0l0 8.65625l-2.640625 0l-0.078125 -1.625q-0.421875 0.921875 -1.171875 1.359375q-0.734375 0.4375 -1.796875 0.4375zm12.632294 -5.671875q0 -0.59375 -0.34375 -0.953125q-0.328125 -0.359375 -0.90625 -0.359375q-0.5625 0 -0.984375 0.296875q-0.40625 0.28125 -0.546875 1.0l-2.5 -0.578125q0.234375 -1.25 1.265625 -2.0q1.046875 -0.75 2.9375 -0.75q1.265625 0 2.15625 0.375q0.890625 0.375 1.359375 1.109375q0.484375 0.734375 0.484375 1.8125l0 3.171875q0 0.671875 0.609375 0.671875q0.3125 0 0.5 -0.0625l-0.171875 1.671875q-0.515625 0.25 -1.265625 0.25q-0.671875 0 -1.1875 -0.21875q-0.515625 -0.21875 -0.8125 -0.65625q-0.296875 -0.4375 -0.296875 -1.125l0 -0.09375l0.328125 -0.125q0 0.75 -0.453125 1.25q-0.4375 0.5 -1.140625 0.75q-0.6875 0.234375 -1.453125 0.234375q-0.890625 0 -1.546875 -0.265625q-0.65625 -0.28125 -1.015625 -0.8125q-0.359375 -0.53125 -0.359375 -1.3125q0 -0.9375 0.5625 -1.546875q0.578125 -0.625 1.78125 -0.859375l3.28125 -0.671875l-0.015625 1.546875l-1.671875 0.359375q-0.515625 0.09375 -0.765625 0.296875q-0.25 0.203125 -0.25 0.59375q0 0.390625 0.265625 0.578125q0.28125 0.1875 0.671875 0.1875q0.296875 0 0.5625 -0.078125q0.265625 -0.09375 0.46875 -0.265625q0.21875 -0.1875 0.328125 -0.46875q0.125 -0.28125 0.125 -0.65625l0 -2.296875zm8.467529 -5.921875l0 8.34375q0 0.625 0.296875 0.890625q0.3125 0.265625 0.859375 0.265625q0.40625 0 0.703125 -0.09375q0.3125 -0.09375 0.5625 -0.28125l0.3125 1.8125q-0.4375 0.3125 -1.09375 0.484375q-0.65625 0.171875 -1.359375 0.171875q-0.984375 0 -1.703125 -0.265625q-0.71875 -0.28125 -1.109375 -0.890625q-0.390625 -0.609375 -0.40625 -1.609375l0 -8.015625l2.9375 -0.8125zm2.59375 2.765625l0 2.09375l-7.015625 0l0 -2.09375l7.015625 0zm2.8379517 -1.015625q-0.90625 0 -1.3125 -0.328125q-0.40625 -0.34375 -0.40625 -1.078125q0 -0.734375 0.40625 -1.078125q0.40625 -0.34375 1.3125 -0.34375q0.875 0 1.296875 0.34375q0.421875 0.34375 0.421875 1.078125q0 0.734375 -0.421875 1.078125q-0.421875 0.328125 -1.296875 0.328125zm1.46875 1.015625l0 8.65625l-2.9375 0l0 -8.65625l2.9375 0zm6.22995 -0.1875q1.359375 0 2.390625 0.53125q1.03125 0.53125 1.609375 1.546875q0.578125 1.015625 0.578125 2.4375q0 1.421875 -0.578125 2.4375q-0.578125 1.0 -1.609375 1.53125q-1.03125 0.53125 -2.390625 0.53125q-1.34375 0 -2.390625 -0.53125q-1.03125 -0.53125 -1.609375 -1.53125q-0.578125 -1.015625 -0.578125 -2.4375q0 -1.421875 0.578125 -2.4375q0.578125 -1.015625 1.609375 -1.546875q1.046875 -0.53125 2.390625 -0.53125zm0 2.109375q-0.515625 0 -0.875 0.25q-0.359375 0.234375 -0.5625 0.765625q-0.1875 0.53125 -0.1875 1.390625q0 0.84375 0.1875 1.375q0.203125 0.53125 0.5625 0.78125q0.359375 0.25 0.875 0.25q0.515625 0 0.875 -0.25q0.359375 -0.25 0.546875 -0.78125q0.203125 -0.53125 0.203125 -1.375q0 -0.859375 -0.203125 -1.390625q-0.1875 -0.53125 -0.546875 -0.765625q-0.359375 -0.25 -0.875 -0.25zm6.254486 6.734375l0 -8.65625l2.625 0l0.15625 2.96875l-0.328125 -0.328125q0.171875 -0.9375 0.609375 -1.5625q0.453125 -0.625 1.109375 -0.9375q0.671875 -0.328125 1.5 -0.328125q0.90625 0 1.5625 0.359375q0.671875 0.34375 1.046875 1.015625q0.390625 0.671875 0.390625 1.703125l0 5.765625l-2.9375 0l0 -4.984375q0 -0.90625 -0.359375 -1.25q-0.34375 -0.34375 -0.875 -0.34375q-0.421875 0 -0.78125 0.203125q-0.359375 0.1875 -0.578125 0.625q-0.203125 0.4375 -0.203125 1.15625l0 4.59375l-2.9375 0zm24.542938 -11.4375l-1.84375 11.4375l-2.0 0l1.84375 -11.4375l2.0 0zm0.8125 6.921875l0 1.765625l-10.265625 0l0 -1.765625l10.265625 0zm-5.046875 -6.921875l-1.84375 11.4375l-2.015625 0l1.84375 -11.4375l2.015625 0zm5.796875 2.75l0 1.78125l-10.265625 0l0 -1.78125l10.265625 0zm3.765442 8.6875l0 -6.578125q0 -0.453125 0 -0.921875q0.015625 -0.484375 0.015625 -0.984375q-0.578125 0.515625 -1.265625 0.90625q-0.6875 0.390625 -1.453125 0.53125l-0.28125 -2.46875q0.453125 -0.03125 0.953125 -0.21875q0.515625 -0.1875 1.015625 -0.46875q0.515625 -0.28125 0.90625 -0.59375q0.40625 -0.328125 0.609375 -0.640625l2.375 0l0 11.4375l-2.875 0z" fill-rule="nonzero"/><path fill="#8d3aed" d="m592.3333 84.64184l0 0c0 -2.8962936 2.3479004 -5.2442017 5.2442017 -5.2442017l20.976196 0l0 0c1.3908081 0 2.7247314 0.5525131 3.708191 1.5359955c0.9834595 0.98347473 1.5360107 2.31736 1.5360107 3.7082062l0 31.086403c0 2.8962936 -2.3479004 5.2442017 -5.2442017 5.2442017l-20.976196 0c-2.8963013 0 -5.2442017 -2.347908 -5.2442017 -5.2442017z" fill-rule="evenodd"/><path fill="#ffffff" d="m608.0699 106.20129q-2.171875 0 -3.28125 -1.375q-1.109375 -1.375 -1.109375 -4.0625q0 -2.6875 1.109375 -4.0625q1.109375 -1.375 3.28125 -1.375q2.15625 0 3.265625 1.375q1.109375 1.375 1.109375 4.0625q0 2.6875 -1.109375 4.0625q-1.109375 1.375 -3.265625 1.375zm0 -2.140625q0.59375 0 0.953125 -0.328125q0.375 -0.328125 0.53125 -1.046875q0.171875 -0.734375 0.171875 -1.921875q0 -1.1875 -0.171875 -1.90625q-0.15625 -0.734375 -0.53125 -1.0625q-0.359375 -0.328125 -0.953125 -0.328125q-0.578125 0 -0.953125 0.328125q-0.375 0.328125 -0.546875 1.0625q-0.171875 0.71875 -0.171875 1.90625q0 1.1875 0.171875 1.921875q0.171875 0.71875 0.546875 1.046875q0.375 0.328125 0.953125 0.328125z" fill-rule="nonzero"/><path fill="#000000" fill-opacity="0.0" d="m608.47845 114.14567l0 39.425194l500.41742 0l0 -38.38845" fill-rule="evenodd"/><path stroke="#8d3aed" stroke-width="2.0" stroke-linejoin="round" stroke-linecap="butt" d="m608.47845 114.14567l0 39.425194l500.41742 0l0 -38.38845" fill-rule="evenodd"/><path fill="#8d3aed" d="m1092.735 84.64184l0 0c0 -2.8962936 2.3479004 -5.2442017 5.2441406 -5.2442017l20.976196 0l0 0c1.3908691 0 2.7247314 0.5525131 3.708252 1.5359955c0.98339844 0.98347473 1.5360107 2.31736 1.5360107 3.7082062l0 31.086403c0 2.8962936 -2.3479004 5.2442017 -5.2442627 5.2442017l-20.976196 0c-2.8962402 0 -5.2441406 -2.347908 -5.2441406 -5.2442017z" fill-rule="evenodd"/><path fill="#ffffff" d="m1108.0818 106.04504l0 -6.078125q0 -0.421875 0 -0.859375q0.015625 -0.4375 0.015625 -0.90625q-0.53125 0.484375 -1.171875 0.84375q-0.640625 0.359375 -1.34375 0.484375l-0.265625 -2.265625q0.421875 -0.03125 0.890625 -0.203125q0.46875 -0.1875 0.9375 -0.4375q0.46875 -0.265625 0.828125 -0.546875q0.375 -0.296875 0.5625 -0.59375l2.203125 0l0 10.5625l-2.65625 0z" fill-rule="nonzero"/><path fill="#bd005e" d="m899.8398 103.744095l162.70868 0l0 32.375946l-75.12604 0l0 4.9941254l6.2283936 0l-12.456726 12.456696l-12.456665 -12.456696l6.2283325 0l0 -4.9941254l-75.12598 0z" fill-rule="evenodd"/><path fill="#ffffff" d="m926.66235 114.539566l-4.40625 7.5l0 4.8125l-1.484375 0l0 -4.8125l-4.40625 -7.5l1.765625 0l2.390625 4.21875l0.984375 1.75l1.0 -1.75l2.390625 -4.21875l1.765625 0zm4.4367676 2.796875q1.328125 0 2.34375 0.578125q1.015625 0.578125 1.59375 1.671875q0.578125 1.09375 0.578125 2.59375q0 1.515625 -0.578125 2.609375q-0.578125 1.09375 -1.59375 1.671875q-1.015625 0.578125 -2.34375 0.578125q-1.296875 0 -2.328125 -0.578125q-1.03125 -0.578125 -1.609375 -1.671875q-0.578125 -1.09375 -0.578125 -2.609375q0 -1.5 0.578125 -2.59375q0.578125 -1.09375 1.609375 -1.671875q1.03125 -0.578125 2.328125 -0.578125zm0 1.28125q-0.953125 0 -1.625 0.4375q-0.671875 0.421875 -1.03125 1.21875q-0.359375 0.796875 -0.359375 1.90625q0 1.109375 0.359375 1.921875q0.359375 0.796875 1.03125 1.234375q0.671875 0.421875 1.625 0.421875q0.953125 0 1.625 -0.421875q0.671875 -0.4375 1.03125 -1.234375q0.375 -0.8125 0.375 -1.921875q0 -1.109375 -0.375 -1.90625q-0.359375 -0.796875 -1.03125 -1.21875q-0.671875 -0.4375 -1.625 -0.4375zm10.709351 8.421875q-0.890625 0 -1.6875 -0.328125q-0.796875 -0.34375 -1.296875 -1.09375q-0.484375 -0.765625 -0.484375 -1.96875l0 -6.125l1.5 0l0 5.734375q0 1.40625 0.609375 1.9375q0.609375 0.53125 1.734375 0.53125q0.515625 0 1.015625 -0.171875q0.515625 -0.171875 0.90625 -0.546875q0.40625 -0.390625 0.640625 -0.984375q0.234375 -0.609375 0.234375 -1.421875l0 -5.078125l1.5 0l0 9.328125l-1.3125 0l-0.09375 -1.421875q-0.484375 0.84375 -1.3125 1.234375q-0.828125 0.375 -1.953125 0.375zm8.135925 -0.1875l0 -9.328125l1.21875 0l0.203125 1.53125q0.390625 -0.859375 1.140625 -1.28125q0.765625 -0.4375 1.84375 -0.4375q0.234375 0 0.515625 0.046875q0.296875 0.03125 0.5 0.140625l-0.25 1.359375q-0.203125 -0.078125 -0.453125 -0.109375q-0.234375 -0.03125 -0.6875 -0.03125q-0.578125 0 -1.171875 0.34375q-0.578125 0.328125 -0.96875 1.015625q-0.390625 0.671875 -0.390625 1.71875l0 5.03125l-1.5 0z" fill-rule="nonzero"/><path fill="#010000" fill-opacity="0.0" d="m961.7542 109.50175l84.45599 0l0 21.883781l-84.45599 0l0 -21.883781z" fill-rule="nonzero"/><path fill="#ffffff" d="m973.3167 114.539566l-4.65625 12.3125l-1.703125 0l-4.6875 -12.3125l1.609375 0l3.140625 8.5l0.78125 2.453125l0.78125 -2.421875l3.140625 -8.53125l1.59375 0zm6.5942383 6.28125q0 -1.046875 -0.5625 -1.609375q-0.5625 -0.5625 -1.59375 -0.5625q-0.96875 0 -1.640625 0.421875q-0.671875 0.40625 -0.984375 1.34375l-1.21875 -0.75q0.375 -1.046875 1.375 -1.6875q1.015625 -0.640625 2.515625 -0.640625q1.0 0 1.8125 0.34375q0.828125 0.34375 1.296875 1.046875q0.484375 0.703125 0.484375 1.796875l0 4.515625q0 0.671875 0.71875 0.671875q0.34375 0 0.6875 -0.09375l-0.078125 1.171875q-0.375 0.1875 -0.96875 0.1875q-0.546875 0 -0.984375 -0.203125q-0.421875 -0.203125 -0.671875 -0.625q-0.234375 -0.421875 -0.234375 -1.046875l0 -0.1875l0.375 0.046875q-0.21875 0.734375 -0.765625 1.1875q-0.53125 0.453125 -1.203125 0.671875q-0.671875 0.21875 -1.328125 0.21875q-0.828125 0 -1.53125 -0.28125q-0.703125 -0.28125 -1.125 -0.84375q-0.421875 -0.578125 -0.421875 -1.40625q0 -1.046875 0.6875 -1.71875q0.703125 -0.6875 1.953125 -0.9375l3.703125 -0.734375l0 1.234375l-3.0 0.625q-0.921875 0.1875 -1.375 0.53125q-0.4375 0.328125 -0.4375 0.921875q0 0.578125 0.453125 0.9375q0.453125 0.359375 1.296875 0.359375q0.546875 0 1.03125 -0.140625q0.5 -0.140625 0.890625 -0.421875q0.390625 -0.296875 0.609375 -0.734375q0.234375 -0.4375 0.234375 -1.03125l0 -2.578125zm6.5281982 -7.59375l0 11.25q0 0.71875 0.25 0.984375q0.265625 0.265625 0.84375 0.265625q0.375 0 0.609375 -0.046875q0.25 -0.0625 0.65625 -0.203125l-0.234375 1.296875q-0.296875 0.140625 -0.65625 0.203125q-0.359375 0.0625 -0.71875 0.0625q-1.140625 0 -1.703125 -0.609375q-0.546875 -0.625 -0.546875 -1.890625l0 -11.3125l1.5 0zm7.6619263 13.8125q-0.890625 0 -1.6875 -0.328125q-0.796875 -0.34375 -1.296875 -1.09375q-0.484375 -0.765625 -0.484375 -1.96875l0 -6.125l1.5 0l0 5.734375q0 1.40625 0.609375 1.9375q0.609375 0.53125 1.734375 0.53125q0.515625 0 1.015625 -0.171875q0.515625 -0.171875 0.90625 -0.546875q0.40625 -0.390625 0.640625 -0.984375q0.234375 -0.609375 0.234375 -1.421875l0 -5.078125l1.5 0l0 9.328125l-1.3125 0l-0.09375 -1.421875q-0.484375 0.84375 -1.3125 1.234375q-0.828125 0.375 -1.953125 0.375zm13.58905 -6.21875q0 -1.046875 -0.5625 -1.609375q-0.5625 -0.5625 -1.59375 -0.5625q-0.96875 0 -1.640625 0.421875q-0.671875 0.40625 -0.984375 1.34375l-1.21875 -0.75q0.375 -1.046875 1.375 -1.6875q1.015625 -0.640625 2.515625 -0.640625q1.0 0 1.8125 0.34375q0.828125 0.34375 1.296875 1.046875q0.484375 0.703125 0.484375 1.796875l0 4.515625q0 0.671875 0.71875 0.671875q0.34375 0 0.6875 -0.09375l-0.078125 1.171875q-0.375 0.1875 -0.96875 0.1875q-0.546875 0 -0.984375 -0.203125q-0.421875 -0.203125 -0.671875 -0.625q-0.234375 -0.421875 -0.234375 -1.046875l0 -0.1875l0.375 0.046875q-0.21875 0.734375 -0.765625 1.1875q-0.53125 0.453125 -1.203125 0.671875q-0.671875 0.21875 -1.328125 0.21875q-0.828125 0 -1.53125 -0.28125q-0.703125 -0.28125 -1.125 -0.84375q-0.421875 -0.578125 -0.421875 -1.40625q0 -1.046875 0.6875 -1.71875q0.703125 -0.6875 1.953125 -0.9375l3.703125 -0.734375l0 1.234375l-3.0 0.625q-0.921875 0.1875 -1.375 0.53125q-0.4375 0.328125 -0.4375 0.921875q0 0.578125 0.453125 0.9375q0.453125 0.359375 1.296875 0.359375q0.546875 0 1.03125 -0.140625q0.5 -0.140625 0.890625 -0.421875q0.390625 -0.296875 0.609375 -0.734375q0.234375 -0.4375 0.234375 -1.03125l0 -2.578125zm6.936096 -5.953125l0 9.40625q0 0.6875 0.390625 1.03125q0.390625 0.328125 1.0 0.328125q0.546875 0 0.9375 -0.171875q0.390625 -0.1875 0.71875 -0.515625l0.515625 1.25q-0.421875 0.390625 -1.015625 0.625q-0.59375 0.21875 -1.359375 0.21875q-0.703125 0 -1.328125 -0.25q-0.609375 -0.25 -0.96875 -0.796875q-0.359375 -0.5625 -0.390625 -1.453125l0 -9.25l1.5 -0.421875zm3.390625 2.65625l0 1.28125l-6.75 0l0 -1.28125l6.75 0zm2.9732056 -1.796875q-0.5 0 -0.8125 -0.296875q-0.3125 -0.3125 -0.3125 -0.8125q0 -0.515625 0.3125 -0.8125q0.3125 -0.3125 0.8125 -0.3125q0.5 0 0.796875 0.3125q0.3125 0.296875 0.3125 0.8125q0 0.5 -0.3125 0.8125q-0.296875 0.296875 -0.796875 0.296875zm0.75 1.796875l0 9.328125l-1.5 0l0 -9.328125l1.5 0zm7.3219604 -0.1875q1.328125 0 2.34375 0.578125q1.015625 0.578125 1.59375 1.671875q0.578125 1.09375 0.578125 2.59375q0 1.515625 -0.578125 2.609375q-0.578125 1.09375 -1.59375 1.671875q-1.015625 0.578125 -2.34375 0.578125q-1.296875 0 -2.328125 -0.578125q-1.03125 -0.578125 -1.609375 -1.671875q-0.578125 -1.09375 -0.578125 -2.609375q0 -1.5 0.578125 -2.59375q0.578125 -1.09375 1.609375 -1.671875q1.03125 -0.578125 2.328125 -0.578125zm0 1.28125q-0.953125 0 -1.625 0.4375q-0.671875 0.421875 -1.03125 1.21875q-0.359375 0.796875 -0.359375 1.90625q0 1.109375 0.359375 1.921875q0.359375 0.796875 1.03125 1.234375q0.671875 0.421875 1.625 0.421875q0.953125 0 1.625 -0.421875q0.671875 -0.4375 1.03125 -1.234375q0.375 -0.8125 0.375 -1.921875q0 -1.109375 -0.375 -1.90625q-0.359375 -0.796875 -1.03125 -1.21875q-0.671875 -0.4375 -1.625 -0.4375zm7.3343506 8.234375l0 -9.328125l1.3125 0l0.125 2.09375l-0.25 -0.203125q0.3125 -0.75 0.8125 -1.203125q0.5 -0.46875 1.15625 -0.671875q0.671875 -0.203125 1.375 -0.203125q1.015625 0 1.828125 0.390625q0.828125 0.375 1.3125 1.15625q0.5 0.78125 0.5 2.0l0 5.96875l-1.5 0l0 -5.453125q0 -1.546875 -0.65625 -2.140625q-0.65625 -0.609375 -1.625 -0.609375q-0.671875 0 -1.34375 0.3125q-0.671875 0.3125 -1.109375 1.03125q-0.4375 0.703125 -0.4375 1.890625l0 4.96875l-1.5 0z" fill-rule="nonzero"/><path fill="#ffffff" d="m961.7542 128.0654l84.45599 0l0 1.6799927l-84.45599 0l0 -1.6799927z" fill-rule="nonzero"/><path fill="#38761d" d="m820.80664 229.4345l0 0c0 -3.0035706 2.4348755 -5.438431 5.4384155 -5.438431l102.445984 0c1.4423218 0 2.8256226 0.5729828 3.84552 1.5928802c1.0198975 1.0198975 1.5928955 2.403183 1.5928955 3.8455505l0 21.753067c0 3.0035553 -2.4348755 5.4384155 -5.4384155 5.4384155l-102.445984 0c-3.00354 0 -5.4384155 -2.4348602 -5.4384155 -5.4384155z" fill-rule="evenodd"/><path fill="#ffffff" d="m842.5625 247.23102l0 -5.65625l-5.15625 -7.703125l2.15625 0l2.640625 4.03125q0.71875 1.125 1.34375 2.265625q0.609375 -1.046875 1.46875 -2.359375l2.578125 -3.9375l2.0625 0l-5.328125 7.703125l0 5.65625l-1.765625 0zm6.1519165 -4.84375q0 -2.6875 1.484375 -3.96875q1.25 -1.078125 3.046875 -1.078125q2.0 0 3.265625 1.3125q1.265625 1.296875 1.265625 3.609375q0 1.859375 -0.5625 2.9375q-0.5625 1.0625 -1.640625 1.65625q-1.0625 0.59375 -2.328125 0.59375q-2.03125 0 -3.28125 -1.296875q-1.25 -1.3125 -1.25 -3.765625zm1.6875 0q0 1.859375 0.796875 2.796875q0.8125 0.921875 2.046875 0.921875q1.21875 0 2.03125 -0.921875q0.8125 -0.9375 0.8125 -2.84375q0 -1.796875 -0.8125 -2.71875q-0.8125 -0.921875 -2.03125 -0.921875q-1.234375 0 -2.046875 0.921875q-0.796875 0.90625 -0.796875 2.765625zm15.625732 4.84375l0 -1.421875q-1.125 1.640625 -3.0625 1.640625q-0.859375 0 -1.609375 -0.328125q-0.734375 -0.328125 -1.09375 -0.828125q-0.359375 -0.5 -0.5 -1.21875q-0.109375 -0.46875 -0.109375 -1.53125l0 -5.984375l1.640625 0l0 5.359375q0 1.28125 0.109375 1.734375q0.15625 0.640625 0.65625 1.015625q0.5 0.375 1.234375 0.375q0.734375 0 1.375 -0.375q0.65625 -0.390625 0.921875 -1.03125q0.265625 -0.65625 0.265625 -1.890625l0 -5.1875l1.640625 0l0 9.671875l-1.46875 0zm4.0319824 0l0 -9.671875l1.46875 0l0 1.46875q0.5625 -1.03125 1.03125 -1.359375q0.484375 -0.328125 1.0625 -0.328125q0.828125 0 1.6875 0.53125l-0.5625 1.515625q-0.609375 -0.359375 -1.203125 -0.359375q-0.546875 0 -0.96875 0.328125q-0.421875 0.328125 -0.609375 0.890625q-0.28125 0.875 -0.28125 1.921875l0 5.0625l-1.625 0zm11.53656 0l0 -13.359375l5.015625 0q1.53125 0 2.453125 0.40625q0.921875 0.40625 1.4375 1.25q0.53125 0.84375 0.53125 1.765625q0 0.859375 -0.46875 1.625q-0.453125 0.75 -1.390625 1.203125q1.203125 0.359375 1.859375 1.21875q0.65625 0.859375 0.65625 2.015625q0 0.9375 -0.40625 1.75q-0.390625 0.796875 -0.984375 1.234375q-0.578125 0.4375 -1.453125 0.671875q-0.875 0.21875 -2.15625 0.21875l-5.09375 0zm1.78125 -7.75l2.875 0q1.1875 0 1.6875 -0.140625q0.671875 -0.203125 1.015625 -0.671875q0.34375 -0.46875 0.34375 -1.171875q0 -0.65625 -0.328125 -1.15625q-0.3125 -0.515625 -0.90625 -0.703125q-0.59375 -0.1875 -2.03125 -0.1875l-2.65625 0l0 4.03125zm0 6.171875l3.3125 0q0.859375 0 1.203125 -0.0625q0.609375 -0.109375 1.015625 -0.359375q0.421875 -0.265625 0.6875 -0.75q0.265625 -0.484375 0.265625 -1.125q0 -0.75 -0.390625 -1.296875q-0.375 -0.546875 -1.0625 -0.765625q-0.671875 -0.234375 -1.953125 -0.234375l-3.078125 0l0 4.59375zm10.5373535 -9.890625l0 -1.890625l1.640625 0l0 1.890625l-1.640625 0zm0 11.46875l0 -9.671875l1.640625 0l0 9.671875l-1.640625 0zm10.410461 0l0 -1.21875q-0.90625 1.4375 -2.703125 1.4375q-1.15625 0 -2.125 -0.640625q-0.96875 -0.640625 -1.5 -1.78125q-0.53125 -1.140625 -0.53125 -2.625q0 -1.453125 0.484375 -2.625q0.484375 -1.1875 1.4375 -1.8125q0.96875 -0.625 2.171875 -0.625q0.875 0 1.546875 0.375q0.6875 0.359375 1.109375 0.953125l0 -4.796875l1.640625 0l0 13.359375l-1.53125 0zm-5.171875 -4.828125q0 1.859375 0.78125 2.78125q0.78125 0.921875 1.84375 0.921875q1.078125 0 1.828125 -0.875q0.75 -0.890625 0.75 -2.6875q0 -1.984375 -0.765625 -2.90625q-0.765625 -0.9375 -1.890625 -0.9375q-1.078125 0 -1.8125 0.890625q-0.734375 0.890625 -0.734375 2.8125zm12.344421 1.546875q0 -0.328125 0 -0.5q0 -0.96875 0.265625 -1.671875q0.203125 -0.515625 0.640625 -1.0625q0.328125 -0.390625 1.171875 -1.140625q0.859375 -0.75 1.109375 -1.1875q0.265625 -0.453125 0.265625 -0.984375q0 -0.953125 -0.75 -1.671875q-0.734375 -0.734375 -1.828125 -0.734375q-1.046875 0 -1.75 0.65625q-0.703125 0.65625 -0.921875 2.046875l-1.6875 -0.203125q0.234375 -1.859375 1.359375 -2.84375q1.125 -1.0 2.96875 -1.0q1.96875 0 3.125 1.0625q1.171875 1.0625 1.171875 2.578125q0 0.875 -0.40625 1.609375q-0.40625 0.734375 -1.609375 1.796875q-0.796875 0.703125 -1.046875 1.046875q-0.25 0.34375 -0.375 0.78125q-0.109375 0.4375 -0.125 1.421875l-1.578125 0zm-0.09375 3.28125l0 -1.875l1.859375 0l0 1.875l-1.859375 0z" fill-rule="nonzero"/><path fill="#1155cc" d="m674.9576 116.82437c-1.3082886 -3.1719131 2.9868164 -6.31192 11.062744 -8.087616c8.075867 -1.7756882 18.516235 -1.8756409 26.890808 -0.2574463l0 0c2.9664307 -1.8444138 8.395935 -3.117859 14.64624 -3.4351273c6.250244 -0.31726837 12.587158 0.3589096 17.09375 1.8239899l0 0c2.5270386 -1.6722412 7.4890137 -2.7957687 13.125183 -2.971901c5.6361084 -0.1761322 11.148743 0.6200638 14.581604 2.1060486l0 0c4.5655518 -1.7724686 11.829529 -2.5187378 18.64862 -1.9159088c6.819153 0.6028366 11.96875 2.446495 13.22052 4.7332306l0 0c5.593384 0.5033951 10.252502 1.7830734 12.773682 3.5084152c2.5211792 1.7253418 2.6571045 3.7270966 0.3725586 5.4880753c5.5082397 2.365181 6.796814 5.5167923 3.3848877 8.278687c-3.4119873 2.7618866 -11.011841 4.719116 -19.963501 5.141266c-0.06311035 2.5922241 -4.371826 4.97081 -11.265381 6.218933c-6.8935547 1.2481232 -15.29541 1.1708832 -21.967163 -0.20195007c-2.841858 3.1046295 -10.840881 5.388977 -20.541138 5.8661346c-9.700256 0.47714233 -19.362793 -0.93844604 -24.812927 -3.6351929l0 0c-6.680725 1.3292084 -14.6970825 1.7121277 -22.240723 1.0623474c-7.54364 -0.6497803 -13.979065 -2.2774963 -17.854614 -4.515976l0 0c-6.826782 0.26359558 -13.427429 -0.90341187 -16.52594 -2.9218292c-3.0985718 -2.0184174 -2.0355225 -4.4585876 2.661621 -6.1094666l0 0c-6.090027 -1.1826096 -9.19751 -3.5293198 -7.7020874 -5.8164062c1.4954834 -2.2870789 7.255005 -3.9962769 14.275269 -4.236305z" fill-rule="evenodd"/><path fill="#1155cc" d="m779.9611 152.98299l0 0c0 0.60494995 -0.49041748 1.0953674 -1.095398 1.0953674c-0.60491943 0 -1.0953369 -0.49041748 -1.0953369 -1.0953674c0 -0.60494995 0.49041748 -1.0953674 1.0953369 -1.0953674c0.60498047 0 1.095398 0.49041748 1.095398 1.0953674z" fill-rule="evenodd"/><path fill="#1155cc" d="m777.1485 149.88173c0 1.2098999 -0.9807739 2.1907349 -2.1906738 2.1907349c-1.2099609 0 -2.1907349 -0.98083496 -2.1907349 -2.1907349c0 -1.2098999 0.9807739 -2.1907196 2.1907349 -2.1907196c1.2098999 0 2.1906738 0.9808197 2.1906738 2.1907196z" fill-rule="evenodd"/><path fill="#1155cc" d="m772.6199 145.41867c0 1.8148651 -1.4711914 3.286087 -3.2860718 3.286087c-1.8148804 0 -3.2860718 -1.4712219 -3.2860718 -3.286087c0 -1.8148499 1.4711914 -3.286087 3.2860718 -3.286087c1.8148804 0 3.2860718 1.4712372 3.2860718 3.286087z" fill-rule="evenodd"/><path fill="#000000" fill-opacity="0.0" d="m677.93646 127.571526l0 0c-3.3203125 0.085754395 -6.64032 -0.16739655 -9.514221 -0.7254715m17.90863 8.664658c-1.335144 0.175354 -2.7347412 0.292099 -4.1625977 0.34724426m40.030396 3.4675903l0 0c-1.0042114 -0.49690247 -1.8450317 -1.0278625 -2.5080566 -1.5838776m48.889526 -2.3656769c-0.14770508 0.58935547 -0.48339844 1.1719055 -1.0014648 1.7378998m20.914307 -12.475853l0 0c7.527771 1.208641 12.27832 3.7354965 12.211121 6.495247m16.592346 -13.413124c-1.2191162 0.9397278 -3.0802002 1.7733536 -5.437439 2.4355164m-7.6104126 -11.472588l0 0c0.20770264 0.37948608 0.303833 0.7646866 0.28704834 1.1502457m-35.013184 -2.4919586l0 0c0.7084961 -0.5306549 1.6468506 -1.0247498 2.7857056 -1.466896m-28.839417 2.1658478l0 0c0.2890625 -0.4385376 0.74224854 -0.8635025 1.3491211 -1.2651062m-31.926147 1.6949234l0 0c1.7720337 0.34240723 3.411438 0.7545395 4.882202 1.2273254m-41.9635 8.418663l0 0c-0.38684082 -0.42236328 -0.6717529 -0.8541565 -0.8520508 -1.291336" fill-rule="evenodd"/><path fill="#ffffff" d="m697.99915 129.46692l0 -13.359383l5.015625 0q1.53125 0 2.453125 0.40625q0.921875 0.40625 1.4375 1.25q0.53125 0.84375 0.53125 1.765625q0 0.859375 -0.46875 1.625q-0.453125 0.75 -1.390625 1.203125q1.203125 0.359375 1.859375 1.21875q0.65625 0.859375 0.65625 2.015625q0 0.9375 -0.40625 1.75q-0.390625 0.7968826 -0.984375 1.2343826q-0.578125 0.4375 -1.453125 0.671875q-0.875 0.21875 -2.15625 0.21875l-5.09375 0zm1.78125 -7.7500076l2.875 0q1.1875 0 1.6875 -0.140625q0.671875 -0.203125 1.015625 -0.671875q0.34375 -0.46875 0.34375 -1.171875q0 -0.65625 -0.328125 -1.15625q-0.3125 -0.515625 -0.90625 -0.703125q-0.59375 -0.1875 -2.03125 -0.1875l-2.65625 0l0 4.03125zm0 6.171875l3.3125 0q0.859375 0 1.203125 -0.0625q0.609375 -0.109375 1.015625 -0.359375q0.421875 -0.265625 0.6875 -0.75q0.265625 -0.484375 0.265625 -1.125q0 -0.75 -0.390625 -1.296875q-0.375 -0.546875 -1.0625 -0.765625q-0.671875 -0.234375 -1.953125 -0.234375l-3.078125 0l0 4.59375zm9.9279785 -3.265625q0 -2.6875 1.484375 -3.96875q1.25 -1.078125 3.046875 -1.078125q2.0 0 3.265625 1.3125q1.265625 1.296875 1.265625 3.609375q0 1.859375 -0.5625 2.9375q-0.5625 1.0625076 -1.640625 1.6562576q-1.0625 0.59375 -2.328125 0.59375q-2.03125 0 -3.28125 -1.296875q-1.25 -1.3125076 -1.25 -3.7656326zm1.6875 0q0 1.859375 0.796875 2.796875q0.8125 0.9218826 2.046875 0.9218826q1.21875 0 2.03125 -0.9218826q0.8125 -0.9375 0.8125 -2.84375q0 -1.796875 -0.8125 -2.71875q-0.8125 -0.921875 -2.03125 -0.921875q-1.234375 0 -2.046875 0.921875q-0.796875 0.90625 -0.796875 2.765625zm10.797546 4.8437576l-1.515625 0l0 -13.359383l1.640625 0l0 4.765625q1.046875 -1.296875 2.65625 -1.296875q0.890625 0 1.6875 0.359375q0.796875 0.359375 1.3125 1.015625q0.515625 0.640625 0.796875 1.5625q0.296875 0.921875 0.296875 1.96875q0 2.484375 -1.234375 3.8437576q-1.21875 1.359375 -2.953125 1.359375q-1.703125 0 -2.6875 -1.4375l0 1.21875zm-0.015625 -4.9062576q0 1.734375 0.484375 2.515625q0.765625 1.2656326 2.09375 1.2656326q1.078125 0 1.859375 -0.9375076q0.78125 -0.9375 0.78125 -2.78125q0 -1.890625 -0.75 -2.796875q-0.75 -0.90625 -1.828125 -0.90625q-1.0625 0 -1.859375 0.9375q-0.78125 0.9375 -0.78125 2.703125zm8.781982 -6.6875l0 -1.890625l1.765625 0l0 1.5q0 1.21875 -0.28125 1.75q-0.390625 0.75 -1.21875 1.109375l-0.40625 -0.640625q0.484375 -0.203125 0.71875 -0.625q0.25 -0.4375 0.28125 -1.203125l-0.859375 0zm3.2607422 8.703125l1.625 -0.25q0.125 0.96875 0.75 1.5q0.625 0.5156326 1.75 0.5156326q1.125 0 1.671875 -0.45313263q0.546875 -0.46875 0.546875 -1.09375q0 -0.546875 -0.484375 -0.875q-0.328125 -0.21875 -1.671875 -0.546875q-1.8125 -0.46875 -2.515625 -0.796875q-0.6875 -0.328125 -1.046875 -0.90625q-0.359375 -0.59375 -0.359375 -1.3125q0 -0.640625 0.296875 -1.1875q0.296875 -0.5625 0.8125 -0.921875q0.375 -0.28125 1.03125 -0.46875q0.671875 -0.203125 1.421875 -0.203125q1.140625 0 2.0 0.328125q0.859375 0.328125 1.265625 0.890625q0.421875 0.5625 0.578125 1.5l-1.609375 0.21875q-0.109375 -0.75 -0.640625 -1.171875q-0.515625 -0.421875 -1.46875 -0.421875q-1.140625 0 -1.625 0.375q-0.46875 0.375 -0.46875 0.875q0 0.3125 0.1875 0.578125q0.203125 0.265625 0.640625 0.4375q0.234375 0.09375 1.4375 0.421875q1.75 0.453125 2.4375 0.75q0.6875 0.296875 1.078125 0.859375q0.390625 0.5625 0.390625 1.40625q0 0.828125 -0.484375 1.5468826q-0.46875 0.71875 -1.375 1.125q-0.90625 0.390625 -2.046875 0.390625q-1.875 0 -2.875 -0.78125q-0.984375 -0.78125 -1.25 -2.3281326zm15.292664 2.8906326l0 -13.359383l5.015625 0q1.53125 0 2.453125 0.40625q0.921875 0.40625 1.4375 1.25q0.53125 0.84375 0.53125 1.765625q0 0.859375 -0.46875 1.625q-0.453125 0.75 -1.390625 1.203125q1.203125 0.359375 1.859375 1.21875q0.65625 0.859375 0.65625 2.015625q0 0.9375 -0.40625 1.75q-0.390625 0.7968826 -0.984375 1.2343826q-0.578125 0.4375 -1.453125 0.671875q-0.875 0.21875 -2.15625 0.21875l-5.09375 0zm1.78125 -7.7500076l2.875 0q1.1875 0 1.6875 -0.140625q0.671875 -0.203125 1.015625 -0.671875q0.34375 -0.46875 0.34375 -1.171875q0 -0.65625 -0.328125 -1.15625q-0.3125 -0.515625 -0.90625 -0.703125q-0.59375 -0.1875 -2.03125 -0.1875l-2.65625 0l0 4.03125zm0 6.171875l3.3125 0q0.859375 0 1.203125 -0.0625q0.609375 -0.109375 1.015625 -0.359375q0.421875 -0.265625 0.6875 -0.75q0.265625 -0.484375 0.265625 -1.125q0 -0.75 -0.390625 -1.296875q-0.375 -0.546875 -1.0625 -0.765625q-0.671875 -0.234375 -1.953125 -0.234375l-3.078125 0l0 4.59375zm10.5372925 -9.890625l0 -1.890625l1.640625 0l0 1.890625l-1.640625 0zm0 11.468758l0 -9.671883l1.640625 0l0 9.671883l-1.640625 0zm10.410461 0l0 -1.21875q-0.90625 1.4375 -2.703125 1.4375q-1.15625 0 -2.125 -0.640625q-0.96875 -0.640625 -1.5 -1.7812576q-0.53125 -1.140625 -0.53125 -2.625q0 -1.453125 0.484375 -2.625q0.484375 -1.1875 1.4375 -1.8125q0.96875 -0.625 2.171875 -0.625q0.875 0 1.546875 0.375q0.6875 0.359375 1.109375 0.953125l0 -4.796875l1.640625 0l0 13.359383l-1.53125 0zm-5.171875 -4.8281326q0 1.859375 0.78125 2.78125q0.78125 0.9218826 1.84375 0.9218826q1.078125 0 1.828125 -0.8750076q0.75 -0.890625 0.75 -2.6875q0 -1.984375 -0.765625 -2.90625q-0.765625 -0.9375 -1.890625 -0.9375q-1.078125 0 -1.8125 0.890625q-0.734375 0.890625 -0.734375 2.8125z" fill-rule="nonzero"/><path fill="#000000" fill-opacity="0.0" d="m877.6652 223.99606l-189.00787 -61.354324" fill-rule="evenodd"/><path stroke="#38761d" stroke-width="2.0" stroke-linejoin="round" stroke-linecap="butt" stroke-dasharray="2.0,6.0" d="m877.66516 223.99606l-177.59412 -57.649292" fill-rule="evenodd"/><path fill="#38761d" stroke="#38761d" stroke-width="2.0" stroke-linecap="butt" d="m701.091 163.2047l-9.65271 0.33976746l7.612793 5.9443665z" fill-rule="evenodd"/><path fill="#000000" fill-opacity="0.0" d="m877.6652 223.99606l179.62201 -63.307083" fill-rule="evenodd"/><path stroke="#38761d" stroke-width="2.0" stroke-linejoin="round" stroke-linecap="butt" stroke-dasharray="2.0,6.0" d="m877.66516 223.99606l168.30444 -59.318237" fill-rule="evenodd"/><path fill="#38761d" stroke="#38761d" stroke-width="2.0" stroke-linecap="butt" d="m1047.0676 167.79346l7.462036 -6.132599l-9.658203 -0.09864807z" fill-rule="evenodd"/><path fill="#000000" fill-opacity="0.0" d="m877.4733 220.63387l0.22045898 -58.456696" fill-rule="evenodd"/><path stroke="#38761d" stroke-width="2.0" stroke-linejoin="round" stroke-linecap="butt" stroke-dasharray="2.0,6.0" d="m877.4733 220.63387l0.17523193 -46.456787" fill-rule="evenodd"/><path fill="#38761d" stroke="#38761d" stroke-width="2.0" stroke-linecap="butt" d="m880.952 174.18954l-3.269226 -9.088593l-3.3377075 9.063675z" fill-rule="evenodd"/><path fill="#d9d9d9" d="m810.5276 10.927988l0 0c0 -4.5865197 3.7181396 -8.304628 8.304626 -8.304628l117.50098 0c2.2025757 0 4.3148804 0.8749492 5.8723145 2.4323692c1.557373 1.5574198 2.432373 3.669734 2.432373 5.872259l0 33.217514c0 4.5865173 -3.7181396 8.304626 -8.3046875 8.304626l-117.50098 0l0 0c-4.586487 0 -8.304626 -3.7181091 -8.304626 -8.304626z" fill-rule="evenodd"/><path fill="#434343" d="m827.69434 22.06737q1.59375 0 2.8125 0.5q1.21875 0.484375 2.125 1.4375l-1.4375 1.921875q-0.75 -0.78125 -1.609375 -1.171875q-0.84375 -0.390625 -1.9375 -0.390625q-0.640625 0 -1.046875 0.140625q-0.390625 0.140625 -0.5625 0.390625q-0.171875 0.234375 -0.171875 0.546875q0 0.375 0.328125 0.625q0.34375 0.25 1.109375 0.421875l1.921875 0.421875q1.703125 0.40625 2.5 1.171875q0.796875 0.765625 0.796875 2.03125q0 1.203125 -0.625 2.046873q-0.609375 0.84375 -1.703125 1.265625q-1.09375 0.421875 -2.5 0.421875q-1.140625 0 -2.1875 -0.25q-1.03125 -0.25 -1.875 -0.71875q-0.828125 -0.46875 -1.390625 -1.0781231l1.4375 -1.984375q0.4375 0.5 1.0625 0.890625q0.625 0.390625 1.375 0.625q0.765625 0.21875 1.546875 0.21875q0.609375 0 1.015625 -0.125q0.40625 -0.125 0.59375 -0.359375q0.1875 -0.25 0.1875 -0.578125q0 -0.359375 -0.265625 -0.609375q-0.25 -0.265625 -0.984375 -0.4375l-2.109375 -0.46875q-0.96875 -0.21875 -1.734375 -0.59375q-0.75 -0.375 -1.1875 -1.0q-0.421875 -0.640625 -0.421875 -1.59375q0 -1.0625 0.578125 -1.90625q0.59375 -0.84375 1.703125 -1.328125q1.109375 -0.484375 2.65625 -0.484375zm7.9387817 1.9375q-0.90625 0 -1.3125 -0.328125q-0.40625 -0.34375 -0.40625 -1.078125q0 -0.734375 0.40625 -1.078125q0.40625 -0.34375 1.3125 -0.34375q0.875 0 1.296875 0.34375q0.421875 0.34375 0.421875 1.078125q0 0.734375 -0.421875 1.078125q-0.421875 0.328125 -1.296875 0.328125zm1.46875 1.015625l0 8.656248l-2.9375 0l0 -8.656248l2.9375 0zm5.7142944 -2.765625l0 8.34375q0 0.625 0.296875 0.890625q0.3125 0.265625 0.859375 0.265625q0.40625 0 0.703125 -0.09375q0.3125 -0.09375 0.5625 -0.28125l0.3125 1.8124981q-0.4375 0.3125 -1.09375 0.484375q-0.65625 0.171875 -1.359375 0.171875q-0.984375 0 -1.703125 -0.265625q-0.71875 -0.28125 -1.109375 -0.890625q-0.390625 -0.609375 -0.40625 -1.6093731l0 -8.015625l2.9375 -0.8125zm2.59375 2.765625l0 2.09375l-7.015625 0l0 -2.09375l7.015625 0zm4.2911377 8.828123q-0.875 0 -1.546875 -0.296875q-0.671875 -0.3125 -1.0625 -0.984375q-0.375 -0.6718731 -0.375 -1.7656231l0 -5.78125l2.953125 0l0 5.09375q0 0.828125 0.328125 1.15625q0.328125 0.328125 0.9375 0.328125q0.3125 0 0.578125 -0.109375q0.28125 -0.109375 0.484375 -0.34375q0.21875 -0.234375 0.328125 -0.609375q0.109375 -0.375 0.109375 -0.875l0 -4.640625l2.953125 0l0 8.656248l-2.640625 0l-0.078125 -1.625q-0.421875 0.921875 -1.171875 1.359375q-0.734375 0.4375 -1.796875 0.4375zm12.632263 -5.671873q0 -0.59375 -0.34375 -0.953125q-0.328125 -0.359375 -0.90625 -0.359375q-0.5625 0 -0.984375 0.296875q-0.40625 0.28125 -0.546875 1.0l-2.5 -0.578125q0.234375 -1.25 1.265625 -2.0q1.046875 -0.75 2.9375 -0.75q1.265625 0 2.15625 0.375q0.890625 0.375 1.359375 1.109375q0.484375 0.734375 0.484375 1.8125l0 3.171875q0 0.671875 0.609375 0.671875q0.3125 0 0.5 -0.0625l-0.171875 1.6718731q-0.515625 0.25 -1.265625 0.25q-0.671875 0 -1.1875 -0.21875q-0.515625 -0.21875 -0.8125 -0.65625q-0.296875 -0.4375 -0.296875 -1.1249981l0 -0.09375l0.328125 -0.125q0 0.7499981 -0.453125 1.2499981q-0.4375 0.5 -1.140625 0.75q-0.6875 0.234375 -1.453125 0.234375q-0.890625 0 -1.546875 -0.265625q-0.65625 -0.28125 -1.015625 -0.8125q-0.359375 -0.53125 -0.359375 -1.3124981q0 -0.9375 0.5625 -1.546875q0.578125 -0.625 1.78125 -0.859375l3.28125 -0.671875l-0.015625 1.546875l-1.671875 0.359375q-0.515625 0.09375 -0.765625 0.296875q-0.25 0.203125 -0.25 0.59375q0 0.390625 0.265625 0.578125q0.28125 0.1875 0.671875 0.1875q0.296875 0 0.5625 -0.078125q0.265625 -0.09375 0.46875 -0.265625q0.21875 -0.1875 0.328125 -0.46875q0.125 -0.28125 0.125 -0.65625l0 -2.296875zm8.467529 -5.921875l0 8.34375q0 0.625 0.296875 0.890625q0.3125 0.265625 0.859375 0.265625q0.40625 0 0.703125 -0.09375q0.3125 -0.09375 0.5625 -0.28125l0.3125 1.8124981q-0.4375 0.3125 -1.09375 0.484375q-0.65625 0.171875 -1.359375 0.171875q-0.984375 0 -1.703125 -0.265625q-0.71875 -0.28125 -1.109375 -0.890625q-0.390625 -0.609375 -0.40625 -1.6093731l0 -8.015625l2.9375 -0.8125zm2.59375 2.765625l0 2.09375l-7.015625 0l0 -2.09375l7.015625 0zm2.8379517 -1.015625q-0.90625 0 -1.3125 -0.328125q-0.40625 -0.34375 -0.40625 -1.078125q0 -0.734375 0.40625 -1.078125q0.40625 -0.34375 1.3125 -0.34375q0.875 0 1.296875 0.34375q0.421875 0.34375 0.421875 1.078125q0 0.734375 -0.421875 1.078125q-0.421875 0.328125 -1.296875 0.328125zm1.46875 1.015625l0 8.656248l-2.9375 0l0 -8.656248l2.9375 0zm6.2299805 -0.1875q1.359375 0 2.390625 0.53125q1.03125 0.53125 1.609375 1.546875q0.578125 1.015625 0.578125 2.4375q0 1.421875 -0.578125 2.4375q-0.578125 0.9999981 -1.609375 1.5312481q-1.03125 0.53125 -2.390625 0.53125q-1.34375 0 -2.390625 -0.53125q-1.03125 -0.53125 -1.609375 -1.5312481q-0.578125 -1.015625 -0.578125 -2.4375q0 -1.421875 0.578125 -2.4375q0.578125 -1.015625 1.609375 -1.546875q1.046875 -0.53125 2.390625 -0.53125zm0 2.109375q-0.515625 0 -0.875 0.25q-0.359375 0.234375 -0.5625 0.765625q-0.1875 0.53125 -0.1875 1.390625q0 0.84375 0.1875 1.375q0.203125 0.53125 0.5625 0.78125q0.359375 0.25 0.875 0.25q0.515625 0 0.875 -0.25q0.359375 -0.25 0.546875 -0.78125q0.203125 -0.53125 0.203125 -1.375q0 -0.859375 -0.203125 -1.390625q-0.1875 -0.53125 -0.546875 -0.765625q-0.359375 -0.25 -0.875 -0.25zm6.2544556 6.734373l0 -8.656248l2.625 0l0.15625 2.96875l-0.328125 -0.328125q0.171875 -0.9375 0.609375 -1.5625q0.453125 -0.625 1.109375 -0.9375q0.671875 -0.328125 1.5 -0.328125q0.90625 0 1.5625 0.359375q0.671875 0.34375 1.046875 1.015625q0.390625 0.671875 0.390625 1.703125l0 5.765623l-2.9375 0l0 -4.984373q0 -0.90625 -0.359375 -1.25q-0.34375 -0.34375 -0.875 -0.34375q-0.421875 0 -0.78125 0.203125q-0.359375 0.1875 -0.578125 0.625q-0.203125 0.4375 -0.203125 1.15625l0 4.593748l-2.9375 0zm24.542969 -11.437498l-1.84375 11.437498l-2.0 0l1.84375 -11.437498l2.0 0zm0.8125 6.921875l0 1.765625l-10.265625 0l0 -1.765625l10.265625 0zm-5.046875 -6.921875l-1.84375 11.437498l-2.015625 0l1.84375 -11.437498l2.015625 0zm5.796875 2.75l0 1.78125l-10.265625 0l0 -1.78125l10.265625 0zm1.4997559 8.687498l0 -1.9062481q1.46875 -0.921875 2.5 -1.71875q1.046875 -0.796875 1.6875 -1.5q0.65625 -0.71875 0.96875 -1.359375q0.3125 -0.640625 0.3125 -1.25q0 -0.65625 -0.390625 -1.09375q-0.390625 -0.4375 -1.15625 -0.4375q-0.8125 0 -1.265625 0.59375q-0.453125 0.59375 -0.484375 1.734375l-2.546875 -0.78125q0.03125 -1.28125 0.609375 -2.140625q0.59375 -0.859375 1.59375 -1.296875q1.0 -0.453125 2.28125 -0.453125q1.140625 0 1.953125 0.328125q0.828125 0.3125 1.34375 0.84375q0.515625 0.53125 0.765625 1.1875q0.265625 0.640625 0.265625 1.3125q0 1.109375 -0.578125 2.078125q-0.578125 0.953125 -1.65625 1.84375q-1.078125 0.890625 -2.625 1.796875l0 0.015625q0.296875 -0.015625 0.6875 -0.03125q0.40625 -0.015625 0.828125 -0.015625q0.4375 -0.015625 0.796875 -0.015625l2.671875 0l0 2.265623l-8.5625 0z" fill-rule="nonzero"/></g></svg>