<?xml version="1.0" encoding="UTF-8"?>
<!DOCTYPE svg PUBLIC "-//W3C//DTD SVG 1.1//EN" "http://www.w3.org/Graphics/SVG/1.1/DTD/svg11.dtd">
<!-- Creator: CorelDRAW -->
<svg xmlns="http://www.w3.org/2000/svg" xml:space="preserve" width="6.82666in" height="6.82666in" style="shape-rendering:geometricPrecision; text-rendering:geometricPrecision; image-rendering:optimizeQuality; fill-rule:evenodd; clip-rule:evenodd"
viewBox="0 0 6.82666 6.82666"
 xmlns:xlink="http://www.w3.org/1999/xlink">
 <defs>
  <style type="text/css">
   <![CDATA[
    .fil6 {fill:none}
    .fil3 {fill:#202020}
    .fil0 {fill:#313131}
    .fil1 {fill:#4F5050}
    .fil4 {fill:#7E7E7E}
    .fil2 {fill:white}
    .fil5 {fill:#7E7E7E;fill-rule:nonzero}
   ]]>
  </style>
 </defs>
 <g id="Layer_x0020_1">
  <metadata id="CorelCorpID_0Corel-Layer"/>
  <path class="fil0" d="M1.60314 1.60314c-0.463268,0.463272 -0.749811,1.10327 -0.749811,1.81019 0,0.706917 0.286543,1.34692 0.749811,1.81019 0.463272,0.463268 1.10327,0.749811 1.81019,0.749811 0.706917,0 1.34692,-0.286543 1.81019,-0.749811 0.463268,-0.463272 0.749811,-1.10327 0.749811,-1.81019 0,-0.706917 -0.286543,-1.34692 -0.749811,-1.81019 -0.463272,-0.463268 -1.10327,-0.749811 -1.81019,-0.749811 -0.706917,0 -1.34692,0.286543 -1.81019,0.749811z"/>
  <path class="fil1" d="M3.41333 1.09683c0.639673,0 1.2188,0.259287 1.638,0.678492 0.419205,0.419201 0.678492,0.998331 0.678492,1.638 0,0.639673 -0.259287,1.2188 -0.678492,1.638 -0.419201,0.419205 -0.998331,0.678492 -1.638,0.678492 -0.639673,0 -1.2188,-0.259287 -1.638,-0.678492 -0.419205,-0.419201 -0.678492,-0.998331 -0.678492,-1.638 0,-0.639673 0.259287,-1.2188 0.678492,-1.638 0.419201,-0.419205 0.998331,-0.678492 1.638,-0.678492z"/>
  <path class="fil2" d="M3.41333 1.19507c0.612547,0 1.16712,0.248291 1.56854,0.64972 0.401429,0.401425 0.64972,0.955996 0.64972,1.56854 0,0.612547 -0.248291,1.16712 -0.64972,1.56854 -0.401425,0.401429 -0.955996,0.64972 -1.56854,0.64972 -0.612547,0 -1.16712,-0.248291 -1.56854,-0.64972 -0.401429,-0.401425 -0.64972,-0.955996 -0.64972,-1.56854 0,-0.612547 0.248291,-1.16712 0.64972,-1.56854 0.401425,-0.401429 0.955996,-0.64972 1.56854,-0.64972z"/>
  <path class="fil3" d="M2.57142 4.86325l0.0221417 0.0127835c0.00508661,0.00293701 0.0117638,0.00104331 0.0148228,-0.00397244l1.06372 -1.74398c0.00305512,-0.00501969 0.00119685,-0.0118386 -0.00397244,-0.0148228l-0.107402 -0.0620039c-0.00516929,-0.00298425 -0.0119606,-0.00126772 -0.0148189,0.0039685l-0.978469 1.7932c-0.00285827,0.00523622 -0.0011811,0.0118465 0.00397244,0.0148228z"/>
  <path class="fil3" d="M4.51813 2.81938l-0.0127835 -0.0221417c-0.00295276,-0.00511024 -0.00961417,-0.00674803 -0.0148228,-0.00397244l-1.31244 0.699626c-0.00520866,0.00277953 -0.00695669,0.00965354 -0.00397244,0.0148189l0.0620079 0.107402c0.00298425,0.00516929 0.00974803,0.00711811 0.0148189,0.00397244l1.26322 -0.784886c0.00507087,-0.00314567 0.00694488,-0.00966929 0.00397244,-0.0148189z"/>
  <circle class="fil4" transform="matrix(0.0439515 -0.0761261 0.0761261 0.0439515 3.40414 3.4465)" r="1.54667"/>
  <g id="_561537440">
   <polygon id="_561537704" class="fil5" points="2.04759,2.65037 3.69627,3.60264 3.68511,3.62197 2.03643,2.6697 "/>
   <rect id="_561537656" class="fil4" transform="matrix(0.418411 -0.724709 0.724709 0.418411 3.59331 3.60762)" width="0.106665" height="0.426665" rx="0.0262953" ry="0.0262953"/>
  </g>
  <g id="_561534104">
   <g>
    <rect id="_561537392" class="fil1" transform="matrix(-2.62372E-013 -3.3022 1.8029 -1.43247E-013 1.30212 3.45374)" width="0.0166654" height="0.147917"/>
    <rect id="_561537272" class="fil1" transform="matrix(-0.790505 -0.456398 0.662106 -1.1468 2.37547 5.25194)" width="0.0166654" height="0.147917"/>
    <rect id="_561537320" class="fil1" transform="matrix(-0.645444 -0.645444 0.936359 -0.936359 1.93496 4.92067)" width="0.0166654" height="0.147917"/>
    <rect id="_561536240" class="fil1" transform="matrix(-0.456398 -0.790505 1.1468 -0.662106 1.59521 4.48668)" width="0.0166654" height="0.147917"/>
    <rect id="_561536432" class="fil1" transform="matrix(-0.236249 -0.881693 1.27909 -0.342731 1.37936 3.97954)" width="0.0166654" height="0.147917"/>
    <rect id="_561536408" class="fil1" transform="matrix(0.236249 -0.881693 1.27909 0.342731 1.36875 2.8867)" width="0.0166654" height="0.147917"/>
    <rect id="_561536480" class="fil1" transform="matrix(0.456398 -0.790505 1.1468 0.662106 1.57472 2.37547)" width="0.0166654" height="0.147917"/>
    <rect id="_561535688" class="fil1" transform="matrix(0.645444 -0.645444 0.936359 0.936359 1.90599 1.93496)" width="0.0166654" height="0.147917"/>
    <rect id="_561535472" class="fil1" transform="matrix(0.790505 -0.456398 0.662106 1.1468 2.33998 1.59521)" width="0.0166654" height="0.147917"/>
   </g>
   <g>
    <rect id="_561536000" class="fil1" transform="matrix(0.881693 0.236249 -0.342731 1.27909 3.93996 1.36875)" width="0.0166654" height="0.147917"/>
    <rect id="_561536072" class="fil1" transform="matrix(0.790505 0.456398 -0.662106 1.1468 4.4512 1.57472)" width="0.0166654" height="0.147917"/>
    <rect id="_561535640" class="fil1" x="3.37293" y="1.30212" width="0.0550323" height="0.26668"/>
    <rect id="_561535832" class="fil1" transform="matrix(8.74572E-014 3.3022 -1.8029 4.7749E-014 5.52455 3.37293)" width="0.0166654" height="0.147917"/>
    <rect id="_561535040" class="fil1" x="3.39871" y="5.25787" width="0.0550323" height="0.26668"/>
    <rect id="_561535016" class="fil1" transform="matrix(0.645444 0.645444 -0.936359 0.936359 4.8917 1.90599)" width="0.0166654" height="0.147917"/>
    <rect id="_561534728" class="fil1" transform="matrix(0.456398 0.790505 -1.1468 0.662106 5.23145 2.33998)" width="0.0166654" height="0.147917"/>
    <rect id="_561534800" class="fil1" transform="matrix(0.236249 0.881693 -1.27909 0.342731 5.4473 2.84712)" width="0.0166654" height="0.147917"/>
    <rect id="_561535208" class="fil1" transform="matrix(-0.236249 0.881693 -1.27909 -0.342731 5.45791 3.93996)" width="0.0166654" height="0.147917"/>
    <rect id="_561534752" class="fil1" transform="matrix(-0.456398 0.790505 -1.1468 -0.662106 5.25194 4.4512)" width="0.0166654" height="0.147917"/>
    <rect id="_561534464" class="fil1" transform="matrix(-0.645444 0.645444 -0.936359 -0.936359 4.92067 4.8917)" width="0.0166654" height="0.147917"/>
    <rect id="_561534152" class="fil1" transform="matrix(-0.790505 0.456398 -0.662106 -1.1468 4.48668 5.23145)" width="0.0166654" height="0.147917"/>
    <rect id="_561534344" class="fil1" transform="matrix(-0.881693 0.236249 -0.342731 -1.27909 3.97954 5.4473)" width="0.0166654" height="0.147917"/>
    <rect id="_561534584" class="fil1" transform="matrix(-0.881693 -0.236249 0.342731 -1.27909 2.8867 5.45791)" width="0.0166654" height="0.147917"/>
    <rect id="_561534272" class="fil1" transform="matrix(0.881693 -0.236249 0.342731 1.27909 2.84712 1.37936)" width="0.0166654" height="0.147917"/>
   </g>
  </g>
 </g>
 <rect class="fil6" width="6.82666" height="6.82666"/>
</svg>
