<?xml version="1.0" encoding="utf-8"?>
<!-- Generator: Adobe Illustrator 23.0.0, SVG Export Plug-In . SVG Version: 6.00 Build 0)  -->
<svg version="1.1" id="Layer_1" xmlns="http://www.w3.org/2000/svg" xmlns:xlink="http://www.w3.org/1999/xlink" x="0px" y="0px"
	 viewBox="0 0 500 500" style="enable-background:new 0 0 500 500;" xml:space="preserve">
<style type="text/css">
	.st0{fill:#83E1E5;}
	.st1{fill:#AAB1BA;}
	.st2{fill:#FDDF7F;}
	.st3{fill:#ECF4F7;}
	.st4{fill:#1C1D21;}
</style>
<path class="st0" d="M347.892,390.651c-4.213,4.052-9.83,6.313-15.674,6.313h-41.202c-15.998,10.354-35.059,16.366-55.522,16.366
	s-39.524-6.013-55.522-16.366h-35.542c-27.117,0-49.099,21.982-49.099,49.1v48.201h262.09v-23.042c0-2.929,1.048-5.761,2.953-7.983
	l42.779-49.909l-39.643-37.697L347.892,390.651z"/>
<g>
	<g>
		<path class="st0" d="M99.556,133.679c-6.945,0-12.576-5.631-12.576-12.576V99.656c0-6.945,5.631-12.576,12.576-12.576h9.023
			c9.587,0,17.386-7.799,17.386-17.386V47.538c0-9.587-7.799-17.386-17.386-17.386H98.148c-9.587,0-17.386,7.799-17.386,17.386v8.87
			c0,6.945-5.631,12.576-12.576,12.576S55.61,63.353,55.61,56.408v-8.87C55.61,24.082,74.693,5,98.148,5h10.431
			c23.455,0,42.538,19.082,42.538,42.538v22.157c0,22.258-17.186,40.579-38.984,42.391v9.018
			C112.132,128.048,106.502,133.679,99.556,133.679z"/>
	</g>
</g>
<g>
	<circle class="st0" cx="100.172" cy="170.548" r="15.747"/>
</g>
<g>
	<g>
		<path class="st0" d="M363.816,133.679c-6.945,0-12.576-5.631-12.576-12.576V99.656c0-6.945,5.631-12.576,12.576-12.576h9.023
			c9.587,0,17.386-7.799,17.386-17.386V47.538c0-9.587-7.799-17.386-17.386-17.386h-10.431c-9.587,0-17.386,7.799-17.386,17.386
			v8.87c0,6.945-5.631,12.576-12.576,12.576c-6.945,0-12.576-5.631-12.576-12.576v-8.87C319.87,24.082,338.952,5,362.407,5h10.431
			c23.455,0,42.538,19.082,42.538,42.538v22.157c0,22.258-17.186,40.579-38.984,42.391v9.018
			C376.391,128.048,370.761,133.679,363.816,133.679z"/>
	</g>
</g>
<g>
	<circle class="st0" cx="364.432" cy="170.548" r="15.747"/>
</g>
<g>
	<g>
		<path class="st0" d="M231.686,133.679c-6.945,0-12.576-5.631-12.576-12.576V99.656c0-6.945,5.631-12.576,12.576-12.576h9.023
			c9.587,0,17.386-7.799,17.386-17.386V47.538c0-9.587-7.799-17.386-17.386-17.386h-10.431c-9.587,0-17.386,7.799-17.386,17.386
			v8.87c0,6.945-5.631,12.576-12.576,12.576c-6.945,0-12.576-5.631-12.576-12.576v-8.87C187.74,24.082,206.822,5,230.278,5h10.431
			c23.455,0,42.538,19.082,42.538,42.538v22.157c0,22.258-17.186,40.579-38.984,42.391v9.018
			C244.262,128.048,238.631,133.679,231.686,133.679z"/>
	</g>
</g>
<g>
	<circle class="st0" cx="231.493" cy="170.548" r="15.747"/>
</g>
<g>
	<rect x="95.329" y="460.564" class="st2" width="50.273" height="34.436"/>
</g>
<path class="st2" d="M458.443,337.525c-0.521-6.625-3.658-12.77-8.719-17.076L303.046,195.603
	c-10.515-8.947-26.293-7.681-35.242,2.834c-3.292,3.868-5.197,8.448-5.771,13.139c0.017,0.005,0.034,0.01,0.052,0.015
	c-8.481-2.277-17.394-3.498-26.592-3.498c-56.582,0-102.451,45.944-102.451,102.619c0,56.676,45.869,102.62,102.451,102.62
	c56.582,0,102.451-45.944,102.451-102.62c0-7.45-0.8-14.713-2.305-21.712c0,0.002,0.001,0.004,0.001,0.006l62.572,53.259
	l-34.704,33.37l39.643,37.697l49.349-57.575C456.826,350.711,458.964,344.15,458.443,337.525z"/>
<g>
	<g>
		<path class="st3" d="M184.656,362.493c4.521,3.928,11.369,3.448,15.297-1.072c8.984-10.337,21.914-16.309,35.54-16.453
			c13.626,0.145,26.556,6.116,35.54,16.453c3.928,4.52,10.776,5,15.297,1.072c4.52-3.929,5-10.777,1.072-15.297
			c-13.105-15.079-32.001-23.769-51.908-23.914c-19.908,0.145-38.804,8.835-51.908,23.914
			C179.657,351.716,180.136,358.564,184.656,362.493z"/>
	</g>
</g>
<g>
	<circle class="st3" cx="191.865" cy="279.533" r="17.988"/>
</g>
<g>
	<circle class="st3" cx="279.121" cy="279.533" r="17.988"/>
</g>
<path class="st4" d="M105.173,261.545c0,2.762-2.238,5-5,5h-6.535v6.534c0,2.762-2.238,5-5,5s-5-2.238-5-5v-6.534h-6.534
	c-2.762,0-5-2.238-5-5s2.238-5,5-5h6.534v-6.534c0-2.762,2.238-5,5-5s5,2.238,5,5v6.534h6.535
	C102.935,256.545,105.173,258.783,105.173,261.545z M88.638,338.326c2.762,0,5-2.238,5-5v-6.534h6.535c2.762,0,5-2.238,5-5
	s-2.238-5-5-5h-6.535v-6.535c0-2.762-2.238-5-5-5s-5,2.238-5,5v6.535h-6.534c-2.762,0-5,2.238-5,5s2.238,5,5,5h6.534v6.534
	C83.638,336.088,85.876,338.326,88.638,338.326z M68.187,73.983c-9.691,0-17.576-7.885-17.576-17.576v-8.87
	C50.61,21.325,71.936,0,98.148,0h10.431c26.212,0,47.537,21.325,47.537,47.537v22.157c0,22.977-16.785,42.687-38.984,46.764v4.646
	c0,9.691-7.884,17.575-17.575,17.575s-17.576-7.884-17.576-17.575V99.656c0-9.691,7.885-17.576,17.576-17.576h9.022
	c6.829,0,12.386-5.557,12.386-12.386V47.537c0-6.829-5.557-12.386-12.386-12.386H98.148c-6.83,0-12.387,5.557-12.387,12.386v8.87
	C85.762,66.099,77.878,73.983,68.187,73.983z M68.187,63.983c4.177,0,7.575-3.398,7.575-7.576v-8.87
	c0-12.344,10.043-22.386,22.387-22.386h10.431c12.344,0,22.386,10.042,22.386,22.386v22.157c0,12.344-10.042,22.386-22.386,22.386
	h-9.022c-4.178,0-7.576,3.398-7.576,7.576v21.447c0,4.177,3.398,7.575,7.576,7.575c4.177,0,7.575-3.398,7.575-7.575v-9.019
	c0-2.601,1.994-4.768,4.586-4.982c19.289-1.604,34.398-18.035,34.398-37.408V47.537c0-20.698-16.839-37.537-37.537-37.537H98.148
	C77.45,10,60.61,26.839,60.61,47.537v8.87C60.61,60.585,64.009,63.983,68.187,63.983z M100.173,191.295
	c-11.44,0-20.747-9.307-20.747-20.747s9.307-20.747,20.747-20.747s20.747,9.307,20.747,20.747S111.613,191.295,100.173,191.295z
	 M110.92,170.548c0-5.926-4.821-10.747-10.747-10.747s-10.747,4.821-10.747,10.747s4.821,10.747,10.747,10.747
	S110.92,176.474,110.92,170.548z M314.869,56.407v-8.87C314.869,21.325,336.194,0,362.407,0h10.431
	c26.213,0,47.538,21.325,47.538,47.537v22.157c0,22.977-16.785,42.687-38.984,46.764v4.646c0,9.691-7.885,17.575-17.576,17.575
	s-17.575-7.884-17.575-17.575V99.656c0-9.691,7.884-17.576,17.575-17.576h9.022c6.83,0,12.387-5.557,12.387-12.386V47.537
	c0-6.829-5.557-12.386-12.387-12.386h-10.431c-6.829,0-12.386,5.557-12.386,12.386v8.87c0,9.691-7.885,17.576-17.576,17.576
	S314.869,66.099,314.869,56.407z M324.869,56.407c0,4.178,3.398,7.576,7.576,7.576s7.576-3.398,7.576-7.576v-8.87
	c0-12.344,10.042-22.386,22.386-22.386h10.431c12.344,0,22.387,10.042,22.387,22.386v22.157c0,12.344-10.043,22.386-22.387,22.386
	h-9.022c-4.177,0-7.575,3.398-7.575,7.576v21.447c0,4.177,3.398,7.575,7.575,7.575c4.178,0,7.576-3.398,7.576-7.575v-9.019
	c0-2.601,1.994-4.768,4.586-4.982c19.289-1.604,34.398-18.035,34.398-37.408V47.537c0-20.698-16.84-37.537-37.538-37.537h-10.431
	c-20.698,0-37.538,16.839-37.538,37.537V56.407z M385.179,170.548c0,11.44-9.307,20.747-20.747,20.747s-20.747-9.307-20.747-20.747
	s9.307-20.747,20.747-20.747S385.179,159.107,385.179,170.548z M375.179,170.548c0-5.926-4.821-10.747-10.747-10.747
	s-10.747,4.821-10.747,10.747s4.821,10.747,10.747,10.747S375.179,176.474,375.179,170.548z M182.74,56.407v-8.87
	C182.74,21.325,204.065,0,230.277,0h10.432c26.212,0,47.537,21.325,47.537,47.537v22.157c0,22.977-16.785,42.687-38.984,46.764
	v4.646c0,9.691-7.885,17.575-17.576,17.575s-17.575-7.884-17.575-17.575V99.656c0-9.691,7.884-17.576,17.575-17.576h9.023
	c6.829,0,12.386-5.557,12.386-12.386V47.537c0-6.829-5.557-12.386-12.386-12.386h-10.432c-6.829,0-12.386,5.557-12.386,12.386v8.87
	c0,9.691-7.885,17.576-17.576,17.576S182.74,66.099,182.74,56.407z M192.74,56.407c0,4.178,3.398,7.576,7.575,7.576
	c4.178,0,7.576-3.398,7.576-7.576v-8.87c0-12.344,10.042-22.386,22.386-22.386h10.432c12.344,0,22.386,10.042,22.386,22.386v22.157
	c0,12.344-10.042,22.386-22.386,22.386h-9.023c-4.177,0-7.575,3.398-7.575,7.576v21.447c0,4.177,3.398,7.575,7.575,7.575
	c4.178,0,7.576-3.398,7.576-7.575v-9.019c0-2.601,1.994-4.768,4.586-4.982c19.289-1.604,34.398-18.035,34.398-37.408V47.537
	c0-20.698-16.839-37.537-37.537-37.537h-10.432c-20.698,0-37.537,16.839-37.537,37.537V56.407z M252.24,170.548
	c0,11.44-9.307,20.747-20.747,20.747s-20.747-9.307-20.747-20.747s9.307-20.747,20.747-20.747S252.24,159.107,252.24,170.548z
	 M242.24,170.548c0-5.926-4.821-10.747-10.747-10.747s-10.747,4.821-10.747,10.747s4.821,10.747,10.747,10.747
	S242.24,176.474,242.24,170.548z M45.293,489.266H41.48c-2.762,0-5,2.238-5,5s2.238,5,5,5h3.813c2.762,0,5-2.238,5-5
	S48.055,489.266,45.293,489.266z M408.533,489.266H62.453c-2.762,0-5,2.238-5,5s2.238,5,5,5h346.08c2.762,0,5-2.238,5-5
	S411.295,489.266,408.533,489.266z M429.506,489.266h-3.813c-2.762,0-5,2.238-5,5s2.238,5,5,5h3.813c2.762,0,5-2.238,5-5
	S432.268,489.266,429.506,489.266z M456.297,359.01l-92.128,107.484c-1.129,1.316-1.75,2.996-1.75,4.729v4.7c0,2.762-2.238,5-5,5
	s-5-2.238-5-5v-4.7c0-4.12,1.477-8.111,4.159-11.238l39.688-46.304l-32.737-31.13l-12.171,11.704
	c-5.171,4.971-11.968,7.709-19.141,7.709h-39.744c-7.053,4.427-14.555,7.975-22.354,10.632c-0.095,0.032-0.19,0.066-0.286,0.099
	c-0.716,0.241-1.433,0.476-2.154,0.702c-0.314,0.099-0.629,0.193-0.945,0.289c-0.924,0.281-1.852,0.551-2.783,0.807
	c-0.619,0.17-1.238,0.34-1.862,0.499c-0.471,0.12-0.944,0.233-1.417,0.348c-0.654,0.157-1.311,0.31-1.97,0.455
	c-0.399,0.088-0.797,0.178-1.197,0.262c-1.041,0.218-2.085,0.423-3.136,0.61c-0.195,0.034-0.391,0.063-0.586,0.098
	c-0.928,0.16-1.861,0.308-2.798,0.443c-0.302,0.044-0.604,0.086-0.906,0.128c-0.975,0.133-1.953,0.254-2.936,0.36
	c-0.146,0.016-0.291,0.035-0.436,0.05c-1.138,0.119-2.281,0.218-3.429,0.301c-0.233,0.017-0.468,0.029-0.701,0.044
	c-0.93,0.062-1.862,0.11-2.798,0.147c-0.28,0.011-0.559,0.022-0.839,0.031c-1.145,0.037-2.293,0.062-3.447,0.062
	s-2.302-0.024-3.447-0.062c-0.28-0.009-0.559-0.021-0.839-0.031c-0.936-0.037-1.869-0.086-2.799-0.147
	c-0.233-0.015-0.467-0.027-0.7-0.044c-1.148-0.083-2.292-0.182-3.429-0.301c-0.145-0.015-0.29-0.034-0.435-0.05
	c-0.983-0.106-1.963-0.228-2.938-0.361c-0.302-0.041-0.603-0.083-0.904-0.127c-0.939-0.136-1.874-0.284-2.804-0.444
	c-0.193-0.033-0.387-0.063-0.579-0.097c-1.052-0.188-2.099-0.393-3.14-0.611c-0.397-0.082-0.792-0.172-1.188-0.26
	c-0.663-0.146-1.324-0.299-1.982-0.458c-0.469-0.113-0.938-0.225-1.405-0.344c-0.638-0.164-1.272-0.337-1.906-0.512
	c-0.912-0.251-1.819-0.515-2.723-0.789c-0.325-0.1-0.651-0.197-0.975-0.299c-0.714-0.225-1.425-0.456-2.134-0.695
	c-0.108-0.037-0.215-0.075-0.323-0.111c-7.789-2.656-15.282-6.201-22.327-10.623h-34.087c-24.316,0-44.099,19.783-44.099,44.1v9.5
	h40.272v-18.823c0-2.762,2.238-5,5-5s5,2.238,5,5v39.183c0,2.762-2.238,5-5,5s-5-2.238-5-5v-10.359h-40.272v10.359
	c0,2.762-2.238,5-5,5s-5-2.238-5-5v-29.859c0-29.831,24.269-54.1,54.099-54.1h20.683c-22.695-19.747-37.069-48.851-37.069-81.254
	c0-59.342,48.202-107.619,107.451-107.619c7.816,0,15.436,0.848,22.782,2.442c1.199-3.77,3.121-7.282,5.722-10.338
	c10.721-12.597,29.69-14.122,42.289-3.401l146.679,124.847c6.028,5.131,9.842,12.6,10.462,20.492
	C464.048,345.026,461.449,353,456.297,359.01z M332.944,310.711c0-7.293-0.809-14.399-2.33-21.24
	c-0.146-0.659-0.301-1.315-0.461-1.971c-0.083-0.341-0.163-0.684-0.25-1.023c-0.231-0.901-0.474-1.798-0.731-2.689
	c-0.084-0.295-0.175-0.586-0.261-0.879c-0.221-0.742-0.449-1.482-0.688-2.218c-0.07-0.216-0.139-0.433-0.211-0.648
	c-8.441-25.381-27.277-46.456-51.35-57.797c-0.101-0.048-0.202-0.095-0.303-0.142c-0.867-0.405-1.741-0.795-2.621-1.175
	c-0.13-0.056-0.258-0.113-0.387-0.169c-0.813-0.346-1.634-0.675-2.457-0.998c-0.469-0.185-0.941-0.363-1.414-0.54
	c-0.382-0.144-0.767-0.282-1.151-0.421c-1.848-0.665-3.721-1.275-5.618-1.829c-0.33-0.096-0.66-0.191-0.991-0.284
	c-8.349-2.34-17.144-3.596-26.228-3.596c-53.734,0-97.451,43.792-97.451,97.619c0,43.572,28.646,80.563,68.062,93.08
	c0.256,0.081,0.512,0.162,0.768,0.241c0.591,0.183,1.184,0.36,1.78,0.531c0.477,0.137,0.956,0.266,1.434,0.396
	c0.709,0.191,1.422,0.376,2.138,0.553c0.614,0.15,1.228,0.298,1.845,0.437c0.391,0.089,0.783,0.174,1.175,0.257
	c0.779,0.165,1.561,0.322,2.344,0.468c0.203,0.038,0.404,0.081,0.607,0.117c0.999,0.18,2.002,0.341,3.007,0.488
	c0.263,0.039,0.527,0.074,0.79,0.111c0.855,0.119,1.712,0.228,2.571,0.324c0.201,0.022,0.402,0.048,0.604,0.069
	c1.051,0.111,2.104,0.206,3.161,0.283c0.168,0.012,0.338,0.021,0.506,0.032c0.903,0.062,1.809,0.109,2.716,0.146
	c0.249,0.01,0.497,0.021,0.746,0.029c1.064,0.034,2.13,0.057,3.198,0.057s2.133-0.022,3.197-0.057
	c0.249-0.009,0.498-0.02,0.747-0.029c0.906-0.036,1.811-0.084,2.713-0.146c0.17-0.012,0.34-0.021,0.509-0.032
	c1.055-0.077,2.108-0.172,3.158-0.283c0.204-0.021,0.407-0.048,0.61-0.07c0.856-0.096,1.709-0.204,2.561-0.322
	c0.267-0.037,0.534-0.073,0.8-0.112c1.002-0.148,2.003-0.309,2.999-0.487c0.211-0.038,0.42-0.082,0.63-0.121
	c0.775-0.145,1.547-0.3,2.317-0.463c0.398-0.085,0.796-0.171,1.192-0.261c0.605-0.136,1.208-0.281,1.811-0.429
	c0.746-0.184,1.488-0.376,2.227-0.576c0.454-0.123,0.907-0.245,1.359-0.375c0.605-0.174,1.207-0.354,1.807-0.539
	c0.243-0.075,0.485-0.152,0.727-0.229C304.286,391.29,332.944,354.292,332.944,310.711z M390.764,342.489l-48.222-41.043
	c0.261,3.055,0.403,6.144,0.403,9.265c0,32.403-14.374,61.507-37.069,81.254h26.341c4.575,0,8.911-1.746,12.209-4.918
	L390.764,342.489z M453.458,337.918c-0.414-5.262-2.956-10.24-6.975-13.661L299.805,199.41c-8.396-7.146-21.045-6.13-28.192,2.267
	c-1.625,1.91-2.864,4.084-3.671,6.417c17.182,5.445,32.765,15.181,45.305,28.347c10.255,10.767,18.108,23.466,23.157,37.278
	c0.013,0.035,0.025,0.07,0.038,0.106c0.57,1.564,1.107,3.143,1.604,4.735c0.021,0.068,0.044,0.135,0.065,0.203
	c0.183,0.588,0.355,1.18,0.528,1.772c0.132,0.452,0.262,0.904,0.388,1.359c0.141,0.508,0.281,1.017,0.414,1.527
	c0.182,0.695,0.354,1.395,0.523,2.095c0.061,0.256,0.131,0.508,0.19,0.764l61.299,52.175c1.075,0.916,1.714,2.244,1.757,3.656
	c0.042,1.412-0.514,2.776-1.532,3.756l-30.934,29.746l32.039,30.466l45.923-53.578C452.14,348.495,453.872,343.18,453.458,337.918z
	 M291.175,343.915c5.73,6.595,5.028,16.621-1.564,22.352c-3.196,2.776-7.277,4.146-11.501,3.846
	c-4.221-0.295-8.075-2.218-10.851-5.412c-8.014-9.22-19.59-14.588-31.766-14.732c-12.176,0.145-23.752,5.513-31.767,14.733
	c-2.774,3.193-6.629,5.116-10.85,5.411c-0.378,0.027-0.756,0.04-1.131,0.04c-3.815,0-7.461-1.358-10.369-3.886c0,0,0,0-0.001,0
	c-3.193-2.776-5.115-6.63-5.411-10.851c-0.296-4.222,1.07-8.307,3.846-11.501c14.023-16.135,34.306-25.478,55.646-25.634
	C256.87,318.438,277.152,327.78,291.175,343.915z M283.627,350.475c-12.141-13.969-29.698-22.059-48.17-22.193
	c-18.399,0.135-35.957,8.225-48.099,22.194c-1.023,1.178-1.527,2.684-1.418,4.241c0.109,1.557,0.817,2.978,1.995,4.001
	s2.685,1.526,4.242,1.42c1.557-0.109,2.978-0.818,4.001-1.996c9.899-11.391,24.21-18.014,39.262-18.174c0.018,0,0.035,0,0.053,0
	s0.035,0,0.053,0c15.052,0.16,29.362,6.783,39.261,18.173c1.024,1.179,2.445,1.888,4.002,1.997c1.557,0.107,3.064-0.396,4.242-1.42
	C285.481,356.605,285.74,352.907,283.627,350.475z M191.865,302.521c-12.675,0-22.987-10.313-22.987-22.988
	c0-12.675,10.313-22.987,22.987-22.987s22.987,10.313,22.987,22.987C214.853,292.208,204.54,302.521,191.865,302.521z
	 M191.865,292.521c7.161,0,12.987-5.826,12.987-12.988c0-7.161-5.826-12.987-12.987-12.987s-12.987,5.826-12.987,12.987
	C178.878,286.694,184.704,292.521,191.865,292.521z M302.108,279.532c0,12.676-10.313,22.988-22.987,22.988
	s-22.987-10.313-22.987-22.988c0-12.675,10.313-22.987,22.987-22.987S302.108,266.857,302.108,279.532z M292.108,279.532
	c0-7.161-5.826-12.987-12.987-12.987s-12.987,5.826-12.987,12.987c0,7.162,5.826,12.988,12.987,12.988
	S292.108,286.694,292.108,279.532z"/>
</svg>
