<svg width="48" height="48" viewBox="0 0 28 28" fill="#e6007a" xmlns="http://www.w3.org/2000/svg" stroke-width="2" stroke-linecap="round" stroke-linejoin="round" stroke="#ffffff"><path d="M23.2243 25.0435C24.7573 25.0435 26 23.8008 26 22.2679C26 20.7349 24.7573 19.4922 23.2243 19.4922C21.6914 19.4922 20.4487 20.7349 20.4487 22.2679C20.4487 23.8008 21.6914 25.0435 23.2243 25.0435Z"></path><path d="M4.77567 25.0434C6.30863 25.0434 7.55134 23.8007 7.55134 22.2677C7.55134 20.7348 6.30863 19.4921 4.77567 19.4921C3.24271 19.4921 2 20.7348 2 22.2677C2 23.8007 3.24271 25.0434 4.77567 25.0434Z"></path><path d="M4.77571 19.4975L4.77571 16.2949L22.8386 16.2949L22.8386 19.4975" stroke-miterlimit="10" fill="none" data-nofill="true"></path><path d="M11.2739 4.77561C11.2739 3.24265 12.5167 1.99994 14.0496 1.99994C15.5826 1.99994 16.8253 3.24265 16.8253 4.77561C16.8253 6.30857 15.5826 7.55128 14.0496 7.55128V9.38381M14.0496 12.8443V12.8545" fill="none" data-nofill="true"></path></svg>