<svg width="48" height="48" viewBox="0 0 28 28" fill="#e6007a" xmlns="http://www.w3.org/2000/svg" stroke-width="2" stroke-linecap="round" stroke-linejoin="round" stroke="#ffffff"><path d="M26 4H2V24.219H26V4Z"></path><path d="M15.6374 10.8382H13.4541C13.0244 10.8393 12.6127 11.011 12.309 11.3155C12.0054 11.6201 11.8346 12.0327 11.834 12.4631V12.4826C11.8346 12.913 12.0054 13.3256 12.309 13.6302C12.6127 13.9347 13.0244 14.1064 13.4541 14.1075H14.5371C14.7507 14.1067 14.9623 14.148 15.1599 14.2293C15.3575 14.3106 15.5371 14.4302 15.6884 14.5811C15.8398 14.7321 15.9598 14.9115 16.0418 15.1091C16.1237 15.3066 16.1659 15.5185 16.1659 15.7324C16.1664 15.9465 16.1248 16.1586 16.0432 16.3566C15.9617 16.5545 15.8419 16.7343 15.6907 16.8857C15.5396 17.0371 15.36 17.1571 15.1624 17.2388C14.9648 17.3205 14.753 17.3622 14.5393 17.3616H12.1719"></path><path d="M13.9959 10.7942V9.63696"></path><path d="M13.9959 18.5815V17.514"></path></svg>