<svg width="48" height="48" viewBox="0 0 26 28" fill="#e6007a" xmlns="http://www.w3.org/2000/svg" stroke-width="2" stroke-linecap="round" stroke-linejoin="round" stroke="#ffffff"><path d="M2 20.4615L13.0769 26L24.1538 20.4615V7.53846L13.0769 2L2 7.53846V20.4615Z"></path><path d="M14.29 18.9378C13.5147 19.306 12.6612 19.4994 11.7948 19.5031C10.9284 19.5068 10.0719 19.3207 9.29088 18.9592C8.50984 18.5976 7.82488 18.07 7.28834 17.4168C6.7518 16.7635 6.37787 16.0019 6.19513 15.1901C6.01239 14.3783 6.02567 13.5378 6.23396 12.7328C6.44225 11.9278 6.84003 11.1796 7.39691 10.5454C7.95379 9.91125 8.65504 9.40783 9.44707 9.07363C10.2391 8.73943 11.101 8.58331 11.9668 8.61719C12.8355 8.64962 13.6852 8.87373 14.4498 9.27204"></path><path d="M12.0288 14.0482L15.0229 14.0482" stroke-miterlimit="10"></path><path d="M13.526 12.5582L13.526 15.539" stroke-miterlimit="10"></path><path d="M18.1739 14.0482L21.168 14.0482" stroke-miterlimit="10"></path><path d="M19.6711 12.5582L19.6711 15.539" stroke-miterlimit="10"></path></svg>