<svg width="48" height="48" viewBox="0 0 29 29" fill="#e6007a" xmlns="http://www.w3.org/2000/svg" stroke-width="2" stroke-linecap="round" stroke-linejoin="round" stroke="#ffffff"><g><path d="M24.3295 13.8044L23.5935 13.5994C23.0705 13.4544 22.8725 12.8184 23.2195 12.4014L23.7625 11.7484C24.6895 10.6344 24.6155 8.99745 23.5915 7.97145C22.4955 6.87345 20.7155 6.87345 19.6195 7.97145C18.5955 8.99745 18.5215 10.6344 19.4485 11.7484L19.9915 12.4014C20.3385 12.8184 20.1395 13.4544 19.6175 13.5994L18.8835 13.8034C18.3195 13.9604 17.8115 14.2254 17.3625 14.5594C17.3555 14.5674 17.3515 14.5774 17.3445 14.5854L16.8015 15.2384C16.4545 15.6554 16.6535 16.2914 17.1755 16.4364L17.9115 16.6414C19.6565 17.1264 20.9315 18.5694 21.2425 20.3054H27.7385V18.2884C27.7385 16.1974 26.3445 14.3634 24.3305 13.8034L24.3295 13.8044Z"></path><path d="M12.782 16.5625L13.1967 16.4384C13.5377 16.3434 13.5412 15.8799 13.5442 15.5639C12.9412 14.6559 12.2137 14.1134 11.1077 13.8054L10.3737 13.6014C9.85166 13.4564 9.65266 12.8204 9.99966 12.4034L10.5427 11.7504C11.4697 10.6364 11.3957 8.9994 10.3717 7.9734C9.27566 6.8754 7.49566 6.8754 6.39966 7.9734C5.37566 8.9994 5.30166 10.6364 6.22866 11.7504L6.77166 12.4034C7.11866 12.8204 6.91966 13.4564 6.39766 13.6014L5.66166 13.8064C3.64766 14.3664 2.25366 16.2004 2.25366 18.2914V20.3084H9.13566C9.44566 18.5724 10.7197 17.1294 12.4647 16.6444L12.782 16.5625Z"></path><path d="M13.5718 15.2393L13.0288 14.5863C12.1018 13.4723 12.1758 11.8353 13.1998 10.8093C14.2958 9.71134 16.0758 9.71134 17.1718 10.8093C18.1958 11.8353 18.2698 13.4723 17.3428 14.5863L16.7998 15.2393C16.4528 15.6563 16.6518 16.2923 17.1748 16.4373L17.9108 16.6423C19.9248 17.2023 21.3188 19.0363 21.3188 21.1273V23.1433H9.05884V21.1233C9.05884 19.0343 10.4508 17.2013 12.4638 16.6413L13.1978 16.4373C13.7208 16.2923 13.9188 15.6563 13.5718 15.2393Z"></path></g></svg>