<svg width="48" height="48" viewBox="0 0 28 29" fill="#e6007a" xmlns="http://www.w3.org/2000/svg" stroke-width="2" stroke-linecap="round" stroke-linejoin="round" stroke="#ffffff"><path d="M18.6289 26.5685H2V4.453H26V19.5133V26.5685H18.6289Z" stroke-miterlimit="10"></path><path d="M9.4234 6.91007V2.56836" stroke-miterlimit="10"></path><path d="M18.5766 6.91031V2.5686" stroke-miterlimit="10"></path><path d="M2.10089 11.8185H25.9999" stroke-miterlimit="10"></path><path d="M20 25.7112C20 23.62 18.6356 21.7857 16.6643 21.2257L15.9439 21.0206C15.432 20.8756 15.2372 20.2396 15.5768 19.8225L16.1083 19.1694C17.0157 18.0553 16.9432 16.4181 15.9409 15.392C14.8682 14.2938 13.1259 14.2938 12.0532 15.392C11.0509 16.4181 10.9785 18.0553 11.8858 19.1694L12.4173 19.8225C12.7569 20.2396 12.5631 20.8756 12.0512 21.0206L11.3328 21.2247C9.36248 21.7847 8 23.618 8 25.7072"></path></svg>