<svg width="48" height="48" viewBox="0 0 28 28" fill="#e6007a" xmlns="http://www.w3.org/2000/svg" stroke-width="2" stroke-linecap="round" stroke-linejoin="round" stroke="#ffffff"><path d="M14.322 12.0015L15.1859 10.9629C16.6598 9.19058 16.5418 6.58738 14.913 4.95579C13.1691 3.20899 10.3393 3.20899 8.59532 4.95579C6.96656 6.58738 6.84853 9.19058 8.32244 10.9629L9.1864 12.0015C9.73782 12.6643 9.42245 13.6765 8.5906 13.9069L7.42072 14.2327C4.21701 15.1231 2 18.0407 2 21.3662L2 24.5737H21.4999V21.3605C21.4999 18.0378 19.2857 15.1231 16.0848 14.2327L14.9168 13.9079C14.0859 13.6765 13.7696 12.6643 14.322 12.0015Z"></path><path d="M12.7102 3.74915C13.5175 3.92572 14.2861 4.32795 14.914 4.9568C16.5428 6.5884 16.6608 9.19159 15.1869 10.9639L14.3229 12.0025C13.7715 12.6653 14.0869 13.6766 14.9178 13.9079L16.0858 14.2327C19.2866 15.1231 21.5008 18.0379 21.5008 21.3606V22.927H26V19.7139C26 16.3912 23.7858 13.4764 20.5849 12.586L19.417 12.2612C18.586 12.0299 18.2697 11.0186 18.8221 10.3558L19.6861 9.31717C21.16 7.54489 21.0419 4.94169 19.4132 3.31009C17.6692 1.5633 14.8394 1.5633 13.0955 3.31009C12.9557 3.44984 12.8282 3.59619 12.7102 3.74915Z"></path></svg>