<svg width="48" height="48" viewBox="0 0 28 28" fill="#e6007a" xmlns="http://www.w3.org/2000/svg" stroke-width="2" stroke-linecap="round" stroke-linejoin="round" stroke="#ffffff"><path d="M11.4052 9.67229C12.9211 11.1883 15.379 11.1883 16.895 9.67229C18.411 8.15631 18.411 5.69841 16.895 4.18243C15.379 2.66645 12.9211 2.66645 11.4052 4.18243C9.88917 5.69841 9.88917 8.15631 11.4052 9.67229Z"></path><path d="M21.8326 20.2595L18.6832 15.6744"></path><path d="M9.3056 15.6887L6.11505 20.2453"></path><path d="M20.7082 22.5502C20.7082 24.1448 22.0009 25.4375 23.5955 25.4375C25.1901 25.4375 26.4828 24.1448 26.4828 22.5502C26.4828 20.9555 25.1901 19.6628 23.5955 19.6628C22.0009 19.6628 20.7082 20.9555 20.7082 22.5502Z"></path><path d="M1.4826 22.5502C1.4826 24.1448 2.7753 25.4375 4.36993 25.4375C5.96456 25.4375 7.25726 24.1448 7.25726 22.5502C7.25726 20.9555 5.96456 19.6628 4.36993 19.6628C2.7753 19.6628 1.4826 20.9555 1.4826 22.5502Z"></path></svg>