<svg width="48" height="48" viewBox="0 0 28 28" fill="#e6007a" xmlns="http://www.w3.org/2000/svg" stroke-width="2" stroke-linecap="round" stroke-linejoin="round" stroke="#ffffff"><path d="M21.6088 6.31161L18.7289 2.1188"></path><path d="M10.1536 2.13193L7.23602 6.29865"></path><path d="M20.5806 8.40625C20.5806 9.86444 21.7627 11.0465 23.2209 11.0465C24.679 11.0465 25.8611 9.86444 25.8611 8.40625C25.8611 6.94806 24.679 5.76596 23.2209 5.76596C21.7627 5.76596 20.5806 6.94806 20.5806 8.40625Z"></path><path d="M3 8.40625C3 9.86444 4.1821 11.0465 5.64029 11.0465C7.09848 11.0465 8.28058 9.86444 8.28058 8.40625C8.28058 6.94806 7.09848 5.76596 5.64029 5.76596C4.1821 5.76596 3 6.94806 3 8.40625Z"></path><path d="M11.9205 23.4899C13.3067 24.8762 15.5543 24.8762 16.9406 23.4899C18.3269 22.1037 18.3269 19.8561 16.9406 18.4698C15.5543 17.0835 13.3067 17.0835 11.9205 18.4698C10.5342 19.8561 10.5342 22.1037 11.9205 23.4899Z"></path><path d="M14.445 13.1975L14.4451 2.00001M17.5406 10.7918L14.4215 13.9109L11.3024 10.7917" fill="none" data-nofill="true"></path></svg>