<svg width="48" height="48" viewBox="0 0 28 28" fill="#e6007a" xmlns="http://www.w3.org/2000/svg" stroke-width="2" stroke-linecap="round" stroke-linejoin="round" stroke="#ffffff"><g><path d="M4.59234 15.7525V12.2094M7.25879 7.96331L11.4664 5.93919M16.6637 5.9393L20.7592 7.96331M23.4155 12.2094C23.4126 13.5416 23.4108 14.4559 23.4115 15.7525M20.7592 20.0016C19.4473 20.667 17.9902 21.4764 16.6597 22.1408M11.4664 22.1408C10.2086 21.5302 8.77628 20.8483 7.47632 20.2124"></path><path d="M14.0097 7.54278C15.5403 7.54278 16.781 6.30199 16.781 4.77139C16.781 3.24079 15.5403 2 14.0097 2C12.4791 2 11.2383 3.24079 11.2383 4.77139C11.2383 6.30199 12.4791 7.54278 14.0097 7.54278Z"></path><path d="M14.0097 26C15.5403 26 16.781 24.7592 16.781 23.2286C16.781 21.698 15.5403 20.4572 14.0097 20.4572C12.4791 20.4572 11.2383 21.698 11.2383 23.2286C11.2383 24.7592 12.4791 26 14.0097 26Z"></path><path d="M4.77139 12.1215C6.30199 12.1215 7.54278 10.8807 7.54278 9.35006C7.54278 7.81947 6.30199 6.57867 4.77139 6.57867C3.24079 6.57867 2 7.81947 2 9.35006C2 10.8807 3.24079 12.1215 4.77139 12.1215Z"></path><path d="M4.77139 21.5381C6.30199 21.5381 7.54278 20.2973 7.54278 18.7667C7.54278 17.2361 6.30199 15.9953 4.77139 15.9953C3.24079 15.9953 2 17.2361 2 18.7667C2 20.2973 3.24079 21.5381 4.77139 21.5381Z"></path><path d="M23.247 12.1215C24.7776 12.1215 26.0184 10.8807 26.0184 9.35006C26.0184 7.81947 24.7776 6.57867 23.247 6.57867C21.7164 6.57867 20.4756 7.81947 20.4756 9.35006C20.4756 10.8807 21.7164 12.1215 23.247 12.1215Z"></path><path d="M23.247 21.5381C24.7776 21.5381 26.0184 20.2973 26.0184 18.7667C26.0184 17.2361 24.7776 15.9953 23.247 15.9953C21.7164 15.9953 20.4756 17.2361 20.4756 18.7667C20.4756 20.2973 21.7164 21.5381 23.247 21.5381Z"></path></g></svg>