<svg width="48" height="48" viewBox="0 0 28 28" fill="#e6007a" xmlns="http://www.w3.org/2000/svg" stroke-width="2" stroke-linecap="round" stroke-linejoin="round" stroke="#ffffff"><g><path d="M14 4L6 4"></path><path d="M17.5976 5.5976L22.5161 10.5161"></path><path d="M4 17L4 6"></path><path d="M24 14L24 22"></path><path d="M12.5837 12.5837L5.84314 5.84314"></path><path d="M22.5171 22.5168L15.426 15.4258"></path><path d="M16 13.6001L22 12.2264"></path><path d="M14.4 12L15.5767 6.11652"></path><path d="M6 18L12 15"></path><path d="M5.84326 20L22 23.9999"></path><rect x="2" y="2" width="4" height="4" rx="2"></rect><rect x="26" y="26" width="4" height="4" rx="2" transform="rotate(-180 26 26)"></rect><rect x="2" y="17" width="4" height="4" rx="2"></rect><rect x="26" y="14" width="4" height="4" rx="2" transform="rotate(-180 26 14)"></rect><rect x="14" y="2" width="4" height="4" rx="2"></rect><rect x="16" y="16" width="4" height="4" rx="2" transform="rotate(-180 16 16)"></rect></g></svg>