<svg width="48" height="48" viewBox="0 0 28 28" fill="#e6007a" xmlns="http://www.w3.org/2000/svg" stroke-width="2" stroke-linecap="round" stroke-linejoin="round" stroke="#ffffff"><path d="M14.0528 19.1297C16.8142 19.1297 19.0528 16.8901 19.0528 14.1273C19.0528 11.3646 16.8142 9.12502 14.0528 9.12502C11.2914 9.12502 9.0528 11.3646 9.0528 14.1273C9.0528 16.8901 11.2914 19.1297 14.0528 19.1297Z"></path><path d="M14.0527 26.125L14.0527 23.125"></path><path d="M14.5381 5.125L14.5381 2.125"></path><path d="M2.05273 14.125L5.05273 14.125"></path><path d="M23.0527 14.125L26.0527 14.125"></path><path d="M5.56722 22.6103L7.68854 20.489"></path><path d="M20.9019 7.76112L23.0232 5.6398"></path><path d="M6.05281 5.6397L8.17413 7.76102"></path><path d="M20.4167 20.4889L22.538 22.6102"></path></svg>