<svg width="48" height="48" viewBox="0 0 29 29" fill="#e6007a" xmlns="http://www.w3.org/2000/svg" stroke-width="2" stroke-linecap="round" stroke-linejoin="round" stroke="#ffffff"><g><path d="M22.4125 13.4391V16.8098C22.4125 19.5404 19.0921 21.445 14.9961 21.445C10.9001 21.445 7.57971 19.5404 7.57971 16.8098V13.4391"></path><path d="M14.9961 17.8865C19.0921 17.8865 22.4125 15.6729 22.4125 12.9423C22.4125 10.2116 19.0921 7.99802 14.9961 7.99802C10.9001 7.99802 7.57971 10.2116 7.57971 12.9423C7.57971 15.6729 10.9001 17.8865 14.9961 17.8865Z"></path><path d="M4.71967 27.7494C6.08514 27.7494 7.19208 26.6407 7.19208 25.2731C7.19208 23.9054 6.08514 22.7967 4.71967 22.7967C3.35419 22.7967 2.24725 23.9054 2.24725 25.2731C2.24725 26.6407 3.35419 27.7494 4.71967 27.7494Z"></path><path d="M25.2917 27.7514C26.6413 27.7514 27.7353 26.6556 27.7353 25.3039C27.7353 23.9522 26.6413 22.8564 25.2917 22.8564C23.9422 22.8564 22.8481 23.9522 22.8481 25.3039C22.8481 26.6556 23.9422 27.7514 25.2917 27.7514Z"></path><path d="M4.71978 7.1869C6.08208 7.1869 7.18645 6.08076 7.18645 4.71627C7.18645 3.35178 6.08208 2.24564 4.71978 2.24564C3.35748 2.24564 2.25311 3.35178 2.25311 4.71627C2.25311 6.08076 3.35748 7.1869 4.71978 7.1869Z"></path><path d="M25.2965 7.14925C26.6487 7.14925 27.7449 6.05132 27.7449 4.69696C27.7449 3.34259 26.6487 2.24466 25.2965 2.24466C23.9443 2.24466 22.8481 3.34259 22.8481 4.69696C22.8481 6.05132 23.9443 7.14925 25.2965 7.14925Z"></path><path d="M9.26587 9.25372L6.57501 6.55472"></path><path d="M20.5292 9.45676L23.4245 6.55472"></path><path d="M20.4209 20.4608L23.4252 23.4653"></path><path d="M9.61944 20.4143L6.49255 23.5485"></path></g></svg>