<svg width="48" height="48" viewBox="0 0 28 28" fill="#e6007a" xmlns="http://www.w3.org/2000/svg" stroke-width="2" stroke-linecap="round" stroke-linejoin="round" stroke="#ffffff"><path d="M8.34003 8.39429C7.99798 8.70785 7.59748 8.95091 7.16141 9.1096C6.72533 9.2683 6.26221 9.33952 5.7985 9.31919C5.33479 9.29887 4.87957 9.1874 4.45882 8.99115C4.03807 8.7949 3.66004 8.51771 3.34632 8.17541C2.72168 7.47754 2.3994 6.56041 2.45028 5.62549C2.50115 4.69056 2.92101 3.8143 3.61764 3.18917C3.95969 2.87561 4.36019 2.63255 4.79627 2.47385C5.23234 2.31516 5.69546 2.24394 6.15917 2.26426C6.62288 2.28459 7.07811 2.39606 7.49885 2.59231C7.9196 2.78856 8.29763 3.06575 8.61136 3.40805C9.23564 4.10608 9.55768 5.02313 9.50682 5.95794C9.45595 6.89275 9.03633 7.76896 8.34003 8.39429Z" fill="none"></path><path d="M9.61705 5.58008L25 5.58251"></path><path d="M17.4261 6.25908L17.4235 9.53152L22.324 9.53743L22.3255 6.26614"></path><path d="M8.34003 23.3901C7.99798 23.7036 7.59748 23.9467 7.16141 24.1054C6.72533 24.2641 6.26221 24.3353 5.7985 24.315C5.33479 24.2946 4.87957 24.1832 4.45882 23.9869C4.03807 23.7907 3.66004 23.5135 3.34632 23.1712C2.72168 22.4733 2.3994 21.5562 2.45028 20.6213C2.50115 19.6863 2.92101 18.8101 3.61764 18.1849C3.95969 17.8714 4.36019 17.6283 4.79627 17.4696C5.23234 17.3109 5.69546 17.2397 6.15917 17.26C6.62288 17.2804 7.07811 17.3918 7.49885 17.5881C7.9196 17.7843 8.29763 18.0615 8.61136 18.4038C9.23564 19.1019 9.55768 20.0189 9.50682 20.9537C9.45595 21.8885 9.03633 22.7647 8.34003 23.3901Z" fill="none"></path><path d="M9.61705 20.5759L25 20.5783"></path><path d="M17.4261 21.2549L17.4235 24.5273L22.324 24.5332L22.3255 21.2619"></path><path d="M13.1898 20.2033L13.1898 5.75341"></path></svg>