<svg width="48" height="48" viewBox="0 0 28 28" fill="#e6007a" xmlns="http://www.w3.org/2000/svg" stroke-width="2" stroke-linecap="round" stroke-linejoin="round" stroke="#ffffff"><g><path d="M14.0019 7.54055C15.5315 7.54055 16.7715 6.30026 16.7715 4.77028C16.7715 3.24029 15.5315 2 14.0019 2C12.4723 2 11.2323 3.24029 11.2323 4.77028C11.2323 6.30026 12.4723 7.54055 14.0019 7.54055Z"></path><path d="M7.47419 25.9903C9.00379 25.9903 10.2438 24.7501 10.2438 23.2201C10.2438 21.6901 9.00379 20.4498 7.47419 20.4498C5.94458 20.4498 4.70459 21.6901 4.70459 23.2201C4.70459 24.7501 5.94458 25.9903 7.47419 25.9903Z"></path><path d="M4.7696 14.9279C6.2992 14.9279 7.53919 13.6876 7.53919 12.1576C7.53919 10.6277 6.2992 9.38736 4.7696 9.38736C3.23999 9.38736 2 10.6277 2 12.1576C2 13.6876 3.23999 14.9279 4.7696 14.9279Z"></path><path d="M23.2332 14.9279C24.7628 14.9279 26.0028 13.6876 26.0028 12.1576C26.0028 10.6277 24.7628 9.38736 23.2332 9.38736C21.7036 9.38736 20.4636 10.6277 20.4636 12.1576C20.4636 13.6876 21.7036 14.9279 23.2332 14.9279Z"></path><path d="M20.4551 26C21.9847 26 23.2247 24.7597 23.2247 23.2297C23.2247 21.6997 21.9847 20.4594 20.4551 20.4594C18.9255 20.4594 17.6855 21.6997 17.6855 23.2297C17.6855 24.7597 18.9255 26 20.4551 26Z"></path><path d="M10.237 23.4129H17.6855"></path><path d="M7.02393 10.4565L11.3117 6.16761"></path><path d="M20.9597 10.4413L16.616 6.09658"></path><path d="M21.2394 20.5684L22.7864 14.891"></path><path d="M6.69489 20.561L5.16279 14.9059"></path></g></svg>