<svg width="48" height="48" viewBox="0 0 28 28" fill="#e6007a" xmlns="http://www.w3.org/2000/svg" stroke-width="2" stroke-linecap="round" stroke-linejoin="round" stroke="#ffffff"><g><path d="M24.3292 15.1034C24.3292 17.159 23.601 19.241 22.5507 20.8712M5.81998 8.80014C7.0663 7.19819 8.82051 5.96311 10.7784 5.29788M3.73871 15C3.78622 17.1056 4.39892 19.3392 5.5 20.9729M10.1593 24.6987C11.3465 25.1747 12.6426 25.4366 13.9998 25.4366C15.3147 25.4366 16.5721 25.1908 17.7288 24.7427M22.3333 9C21.0431 7.25881 19.1524 5.91712 17.049 5.24194"></path><path d="M14.0005 7.54055C15.5299 7.54055 16.7697 6.30026 16.7697 4.77028C16.7697 3.24029 15.5299 2 14.0005 2C12.471 2 11.2312 3.24029 11.2312 4.77028C11.2312 6.30026 12.471 7.54055 14.0005 7.54055Z"></path><path d="M7.47355 25.9903C9.00298 25.9903 10.2428 24.7501 10.2428 23.2201C10.2428 21.6901 9.00298 20.4498 7.47355 20.4498C5.94413 20.4498 4.70428 21.6901 4.70428 23.2201C4.70428 24.7501 5.94413 25.9903 7.47355 25.9903Z"></path><path d="M4.76927 14.9279C6.29869 14.9279 7.53854 13.6876 7.53854 12.1576C7.53854 10.6277 6.29869 9.38736 4.76927 9.38736C3.23984 9.38736 2 10.6277 2 12.1576C2 13.6876 3.23984 14.9279 4.76927 14.9279Z"></path><path d="M23.2308 14.9279C24.7602 14.9279 26 13.6876 26 12.1576C26 10.6277 24.7602 9.38736 23.2308 9.38736C21.7013 9.38736 20.4615 10.6277 20.4615 12.1576C20.4615 13.6876 21.7013 14.9279 23.2308 14.9279Z"></path><path d="M20.4529 26C21.9823 26 23.2222 24.7597 23.2222 23.2297C23.2222 21.6997 21.9823 20.4594 20.4529 20.4594C18.9235 20.4594 17.6837 21.6997 17.6837 23.2297C17.6837 24.7597 18.9235 26 20.4529 26Z"></path></g></svg>