<svg width="48" height="48" viewBox="0 0 28 29" fill="#e6007a" xmlns="http://www.w3.org/2000/svg" stroke-width="2" stroke-linecap="round" stroke-linejoin="round" stroke="#ffffff"><g><path d="M3.77234 15.5679C3.77234 17.8757 4.44922 20.3722 5.7042 22.1214M11.4484 5.78235C8.99324 6.48892 6.80576 8.0701 5.43494 10.1597M17.0581 5.78356C19.5102 6.48923 21.7085 8.08221 23.0796 10.1679M22.7661 22.1554C23.9544 20.4486 24.7999 18.1804 24.7999 15.943C24.7999 15.8061 24.7973 15.6698 24.7921 15.5341M10.0489 25.619C11.3369 26.1794 12.7586 26.4901 14.2528 26.4901C15.7199 26.4901 17.1171 26.1906 18.3864 25.6493"></path><path d="M14.2534 8.22364C15.815 8.22364 17.081 6.95766 17.081 5.396C17.081 3.83434 15.815 2.56836 14.2534 2.56836C12.6917 2.56836 11.4257 3.83434 11.4257 5.396C11.4257 6.95766 12.6917 8.22364 14.2534 8.22364Z"></path><path d="M7.58887 27.0554C9.15053 27.0554 10.4165 25.7895 10.4165 24.2278C10.4165 22.6661 9.15053 21.4001 7.58887 21.4001C6.02721 21.4001 4.76123 22.6661 4.76123 24.2278C4.76123 25.7895 6.02721 27.0554 7.58887 27.0554Z"></path><path d="M4.82758 15.7639C6.38924 15.7639 7.65522 14.4979 7.65522 12.9363C7.65522 11.3746 6.38924 10.1086 4.82758 10.1086C3.26592 10.1086 1.99994 11.3746 1.99994 12.9363C1.99994 14.4979 3.26592 15.7639 4.82758 15.7639Z"></path><path d="M23.6782 15.7639C25.2398 15.7639 26.5058 14.4979 26.5058 12.9363C26.5058 11.3746 25.2398 10.1086 23.6782 10.1086C22.1165 10.1086 20.8505 11.3746 20.8505 12.9363C20.8505 14.4979 22.1165 15.7639 23.6782 15.7639Z"></path><path d="M20.8418 27.0653C22.4035 27.0653 23.6694 25.7993 23.6694 24.2377C23.6694 22.676 22.4035 21.41 20.8418 21.41C19.2801 21.41 18.0142 22.676 18.0142 24.2377C18.0142 25.7993 19.2801 27.0653 20.8418 27.0653Z"></path><path d="M8.72546 21.6745V21.6745C8.72546 20.3602 9.60183 19.2071 10.8682 18.8551L12.6186 18.3687C13.1092 18.2324 13.2957 17.6352 12.9698 17.2439L12.4615 16.6337C11.5887 15.586 11.6586 14.0457 12.6226 13.0813V13.0813C13.6526 12.0509 15.323 12.0509 16.353 13.0813V13.0813C17.317 14.0457 17.3869 15.586 16.5141 16.6337L16.0059 17.2438C15.68 17.6351 15.8665 18.2323 16.3572 18.3686L18.1123 18.8559C19.3785 19.2076 20.2548 20.3604 20.2548 21.6745V21.6745" fill="none" data-nofill="true"></path></g></svg>