<svg width="48" height="48" viewBox="0 0 28 29" fill="#e6007a" xmlns="http://www.w3.org/2000/svg" stroke-width="2" stroke-linecap="round" stroke-linejoin="round" stroke="#ffffff"><rect x="18.8311" y="5.73572" width="4.08857" height="4.08857"></rect><path d="M7.33884 18.557L5.29456 22.6456H7.33884H9.38313L7.33884 18.557Z"></path><path d="M7.21388 12.205L4.39465 14.6213L1.97833 11.8021" fill="none" data-nofill="true"></path><path d="M20.8415 15.5617L23.6641 13.205L26.0754 15.983" fill="none" data-nofill="true"></path><path d="M13.2449 23.7238C18.9729 24.242 23.6304 19.5894 23.6304 14M14.9682 4.67616C9.20961 4.15517 5.25915 8.51366 4.52261 13.8284" fill="none" data-nofill="true"></path><path d="M15.386 11.7097H13.591C13.2377 11.7107 12.8991 11.8518 12.6495 12.1022C12.3998 12.3526 12.2594 12.6918 12.2589 13.0457V13.0617C12.2594 13.4156 12.3998 13.7549 12.6495 14.0053C12.8991 14.2557 13.2377 14.3968 13.591 14.3977H14.4814C14.657 14.397 14.831 14.431 14.9934 14.4979C15.1559 14.5647 15.3036 14.663 15.428 14.7871C15.5524 14.9112 15.6511 15.0588 15.7185 15.2212C15.7859 15.3836 15.8205 15.5578 15.8205 15.7337C15.821 15.9097 15.7867 16.0841 15.7197 16.2469C15.6526 16.4096 15.5541 16.5575 15.4299 16.6819C15.3056 16.8064 15.158 16.9051 14.9955 16.9722C14.833 17.0394 14.6589 17.0737 14.4831 17.0732H12.5367" fill="none" data-nofill="true"></path><path d="M14.0365 11.6736V10.722" fill="none" data-nofill="true"></path><path d="M14.0365 18.0763V17.1986" fill="none" data-nofill="true"></path></svg>