<svg width="48" height="48" viewBox="0 0 28 28" fill="#e6007a" xmlns="http://www.w3.org/2000/svg" stroke-width="2" stroke-linecap="round" stroke-linejoin="round" stroke="#ffffff"><g><path d="M8.88812 8.29893C9.93968 4.66101 13.296 2 17.273 2C22.093 2 26 5.907 26 10.727C26 14.7103 23.3309 18.0703 19.6837 19.1166"></path><path d="M10.727 25.9989C15.5468 25.9989 19.454 22.0917 19.454 17.2719C19.454 12.4521 15.5468 8.54492 10.727 8.54492C5.90721 8.54492 2 12.4521 2 17.2719C2 22.0917 5.90721 25.9989 10.727 25.9989Z"></path><path d="M12.6849 13.478H10.1519C9.65395 13.479 9.17595 13.678 8.82395 14.032C8.47195 14.385 8.27395 14.864 8.27295 15.363V15.386C8.27295 15.885 8.47195 16.364 8.82395 16.717C9.17595 17.07 9.65395 17.269 10.1519 17.271H11.4079C11.6559 17.271 11.9009 17.318 12.1299 17.412C12.3589 17.506 12.5679 17.645 12.7429 17.82C12.9189 17.995 13.0579 18.203 13.1529 18.432C13.2479 18.661 13.2969 18.907 13.2969 19.155C13.2969 19.403 13.2489 19.649 13.1549 19.879C13.0599 20.109 12.9209 20.317 12.7459 20.493C12.5709 20.669 12.3619 20.808 12.1329 20.903C11.9039 20.998 11.6579 21.046 11.4099 21.045H8.66395"></path><path d="M10.781 13.427V12.084"></path><path d="M10.781 22.4599V21.2219"></path></g></svg>