<svg width="48" height="48" viewBox="0 0 29 29" fill="#e6007a" xmlns="http://www.w3.org/2000/svg" stroke-width="2" stroke-linecap="round" stroke-linejoin="round" stroke="#ffffff"><path d="M6.34558 21.3149C6.34558 26.7283 10.0228 26.5679 14.917 26.5679C19.8112 26.5679 23.4884 26.7283 23.4884 21.3149C23.4884 15.9015 18.667 9.42554 14.917 9.42554C11.167 9.42554 6.34558 15.9015 6.34558 21.3149Z"></path><path d="M11.488 8.56836L18.3452 8.56836"></path><path d="M16.2816 15.5408H14.5142C14.1663 15.5417 13.833 15.6806 13.5872 15.9272C13.3414 16.1737 13.2032 16.5077 13.2027 16.8561V16.8719C13.2032 17.2204 13.3414 17.5544 13.5872 17.8009C13.833 18.0474 14.1663 18.1864 14.5142 18.1873H15.3909C15.5638 18.1866 15.7351 18.2201 15.895 18.2859C16.055 18.3517 16.2004 18.4485 16.3229 18.5707C16.4454 18.6929 16.5426 18.8382 16.6089 18.9981C16.6752 19.158 16.7094 19.3295 16.7094 19.5027C16.7098 19.676 16.6761 19.8477 16.6101 20.0079C16.5441 20.1682 16.4471 20.3137 16.3247 20.4363C16.2024 20.5589 16.057 20.656 15.8971 20.7221C15.7371 20.7882 15.5657 20.822 15.3926 20.8216H13.4762"></path><path d="M14.9528 15.5052V14.5684"></path><path d="M14.9528 21.8093V20.9451"></path><path d="M15.0129 8.43266L18.5392 2.56836L11.4883 2.56836L15.0129 8.43266Z"></path></svg>