<svg width="48" height="48" viewBox="0 0 28 28" fill="#e6007a" xmlns="http://www.w3.org/2000/svg" stroke-width="2" stroke-linecap="round" stroke-linejoin="round" stroke="#ffffff"><g><path d="M2 18.8681C2 22.949 4.46926 25.144 7.19827 25.7927C8.34641 26.0656 9.53014 25.7604 10.6149 25.2958C12.8072 24.3568 15.2883 24.3568 17.4805 25.2958C18.5653 25.7604 19.749 26.0656 20.8972 25.7927C23.6262 25.144 26.0955 22.949 26.0955 18.8681C26.0955 14.9293 23.2304 11.7363 19.1247 11.7363H8.97079C4.30756 11.7363 2 14.9293 2 18.8681Z"></path><path d="M6.12368 18.723H11.4803"></path><path d="M8.80172 16.0446V21.4013"></path><path d="M17.8574 20.2845L17.8682 20.2845"></path><path d="M20.9302 20.2845L20.941 20.2845"></path><path d="M17.8574 17.1613L17.8682 17.1613"></path><path d="M20.92 17.1613L20.9308 17.1613"></path><path d="M14.0708 2V11.7361"></path></g></svg>