<svg width="48" height="48" viewBox="0 0 28 28" fill="#e6007a" xmlns="http://www.w3.org/2000/svg" stroke-width="2" stroke-linecap="round" stroke-linejoin="round" stroke="#ffffff"><g><path d="M14.9827 12.757L15.892 11.6638C17.4439 9.79803 17.3196 7.05736 15.6052 5.33974C13.7696 3.5007 10.7898 3.5007 8.95416 5.33974C7.23972 7.05736 7.11542 9.79803 8.66735 11.6638L9.57647 12.7568C10.1572 13.4549 9.82447 14.5198 8.94954 14.7631L7.71783 15.1056C4.34533 16.0435 2.01171 19.1146 2.01171 22.6151V25.9916H22.5393V22.6092C22.5393 19.1117 20.208 16.0431 16.8386 15.1054L15.6094 14.7633C14.7346 14.5199 14.402 13.4551 14.9827 12.757Z"></path><path d="M20.0093 5.00335L24.5 5.00334M22.8513 8.17789L25.9966 5.00334L22.8513 1.82128" fill="none" data-nofill="true"></path></g></svg>