<svg width="48" height="48" viewBox="0 0 28 28" fill="#e6007a" xmlns="http://www.w3.org/2000/svg" stroke-width="2" stroke-linecap="round" stroke-linejoin="round" stroke="#ffffff"><path d="M9.36649 24.4503C15.3574 26.7917 22.1118 23.8339 24.4529 17.8438C26.7939 11.8537 23.8351 5.09971 17.8442 2.75833C11.8533 0.416941 5.09886 3.3748 2.75781 9.36488C0.416752 15.355 3.37556 22.109 9.36649 24.4503Z"></path><path d="M10.3107 13.9197L12.2736 10.8418M16.7663 13.5669L15.2206 10.8713M15.4945 16.4535L12.1033 16.4399"></path><path d="M17.3645 18.9673C18.7605 19.5136 20.3365 18.8183 20.8845 17.4143C21.4325 16.0104 20.7451 14.4294 19.3491 13.8832C17.9531 13.3369 16.3771 14.0322 15.8291 15.4362C15.2811 16.8401 15.9685 18.4211 17.3645 18.9673Z"></path><path d="M7.81566 19.0113C9.21166 19.5575 10.7876 18.8622 11.3356 17.4583C11.8837 16.0543 11.1962 14.4734 9.80024 13.9271C8.40424 13.3809 6.82829 14.0762 6.28026 15.4801C5.73223 16.8841 6.41965 18.465 7.81566 19.0113Z"></path><path d="M12.7483 11.014C14.1443 11.5603 15.7203 10.865 16.2683 9.46104C16.8163 8.05709 16.1289 6.47614 14.7329 5.92989C13.3369 5.38364 11.761 6.07893 11.2129 7.48288C10.6649 8.88683 11.3523 10.4678 12.7483 11.014Z"></path></svg>