<svg width="48" height="48" viewBox="0 0 29 29" fill="#e6007a" xmlns="http://www.w3.org/2000/svg" stroke-width="2" stroke-linecap="round" stroke-linejoin="round" stroke="#ffffff"><g><path d="M15 10.9774L11.387 12.9992C10.8592 12.5718 10.2336 12.2502 9.53656 12.0676C6.85492 11.3652 4.11249 12.9691 3.41008 15.6508C3.22964 16.3396 3.20756 17.0262 3.30712 17.6832L7.19007 15.4053L8.90298 18.334L4.92689 20.6664C5.50308 21.1766 6.20599 21.5711 7.00147 21.7794C9.68311 22.4818 12.4255 20.8779 13.128 18.1962C13.332 17.4172 13.3367 16.6297 13.1805 15.8877L16.5 13.9934" stroke-miterlimit="10"></path><path d="M16.512 12.8858C17.6393 14.1541 19.5813 14.2684 20.8496 13.1411C22.1179 12.0138 22.2322 10.0718 21.105 8.80354C19.9777 7.53524 18.0357 7.42092 16.7674 8.54819C15.4991 9.67547 15.3848 11.6175 16.512 12.8858Z"></path><path d="M19.3769 14.5001L23.9529 21.6126L26.854 19.7462L22.192 12.5001"></path></g></svg>