<svg width="48" height="48" viewBox="0 0 28 28" fill="#e6007a" xmlns="http://www.w3.org/2000/svg" stroke-width="2" stroke-linecap="round" stroke-linejoin="round" stroke="#ffffff"><path d="M9.55463 17.6863C9.20301 18.0092 8.7912 18.2597 8.34269 18.4234C7.89419 18.5871 7.41779 18.6608 6.94068 18.6403C6.46358 18.6199 5.99512 18.5056 5.56205 18.3041C5.12898 18.1026 4.73978 17.8178 4.41667 17.4659C3.77335 16.7485 3.4409 15.8052 3.49234 14.8433C3.54379 13.8814 3.97492 12.9794 4.69103 12.3356C5.04265 12.0127 5.45447 11.7622 5.90297 11.5985C6.35147 11.4348 6.82788 11.3611 7.30498 11.3816C7.78209 11.402 8.25055 11.5163 8.68362 11.7178C9.11669 11.9193 9.50589 12.2041 9.82899 12.556C10.4719 13.2736 10.8042 14.2168 10.7527 15.1786C10.7013 16.1404 10.2704 17.0423 9.55463 17.6863V17.6863Z" fill="none"></path><path d="M10.8674 14.7892L26 14.7775" fill="none"></path><path d="M18.184 15.4861L18.1872 19.6325L23.2291 19.6338L23.2247 15.4886"></path></svg>