<svg width="48" height="48" viewBox="0 0 28 28" fill="#e6007a" xmlns="http://www.w3.org/2000/svg" stroke-width="2" stroke-linecap="round" stroke-linejoin="round" stroke="#ffffff"><path d="M4.11078 23.0243V13.2732L13.5299 16.3413L22.9491 13.2732V23.0253L13.5299 26.42L4.11078 23.0243Z"></path><path d="M13.5289 26L13.5289 16.5"></path><path d="M10.47 11.8814L9.34205 12.1946C8.14881 12.526 7.10352 13.1515 6.2619 13.9734L13.528 16.3403L20.7922 13.9743C19.9506 13.1515 18.9034 12.5251 17.7102 12.1946L16.5803 11.8814C15.7781 11.6592 15.4726 10.685 16.0048 10.0461L16.8388 9.0461C18.2626 7.33917 18.1483 4.83242 16.5755 3.26152C14.8913 1.57949 12.158 1.57949 10.4729 3.26152C8.90011 4.83242 8.78578 7.34013 10.2096 9.0461L11.0435 10.0461C11.5768 10.685 11.2712 11.6582 10.468 11.8814H10.47Z"></path><path d="M23.5 19.2934C24.0306 19.2934 24.4607 18.8633 24.4607 18.3327C24.4607 17.8021 24.0306 17.3719 23.5 17.3719"></path><path d="M3.5 17.3685C2.96939 17.3685 2.53925 17.7986 2.53925 18.3293C2.53925 18.8599 2.96939 19.29 3.5 19.29"></path></svg>