<svg width="48" height="48" viewBox="0 0 28 28" fill="#e6007a" xmlns="http://www.w3.org/2000/svg" stroke-width="2" stroke-linecap="round" stroke-linejoin="round" stroke="#ffffff"><g><path d="M21.5494 21.0257L18.5239 16.621"></path><path d="M9.51521 16.6348L6.4502 21.0121"></path><path d="M20.4691 23.2263C20.4691 24.7582 21.711 26 23.2429 26C24.7748 26 26.0166 24.7582 26.0166 23.2263C26.0166 21.6944 24.7748 20.4525 23.2429 20.4525C21.711 20.4525 20.4691 21.6944 20.4691 23.2263Z"></path><path d="M2.00003 23.2263C2.00003 24.7582 3.24187 26 4.77376 26C6.30564 26 7.54749 24.7582 7.54749 23.2263C7.54749 21.6944 6.30565 20.4525 4.77376 20.4525C3.24187 20.4525 2.00003 21.6944 2.00003 23.2263Z"></path><path d="M5.99873 10.0109C5.99873 14.4352 9.58534 18.0218 14.0096 18.0218C18.434 18.0218 22.0206 14.4352 22.0206 10.0109C22.0206 5.58661 18.434 2 14.0096 2C9.58534 2 5.99873 5.58661 5.99873 10.0109Z" stroke-miterlimit="10"></path><path d="M15.7405 13.4617C16.0497 13.293 16.3403 13.0778 16.602 12.8161C16.8576 12.5606 17.0688 12.2774 17.2356 11.9763M12.1604 13.4769C11.8406 13.3061 11.5403 13.0858 11.2707 12.8161C11.0466 12.592 10.8566 12.3467 10.7007 12.0867M15.8061 6.87589C16.0909 7.0387 16.3589 7.24167 16.602 7.48477C16.8462 7.729 17.05 7.9984 17.2132 8.28461M10.5977 8.39755C10.7702 8.06917 10.9945 7.76088 11.2707 7.48477C11.5443 7.21111 11.8496 6.98832 12.1747 6.81639"></path></g></svg>