<svg width="48" height="48" viewBox="0 0 28 28" fill="#e6007a" xmlns="http://www.w3.org/2000/svg" stroke-width="2" stroke-linecap="round" stroke-linejoin="round" stroke="#ffffff"><path d="M19.2419 21.4536C20.5351 20.4931 21.5509 19.1973 22.1738 17.6979C22.9295 15.8789 23.0648 13.8615 22.5587 11.9579C22.0527 10.0542 20.9336 8.3703 19.3744 7.16659C17.8152 5.96289 15.9028 5.30646 13.933 5.29883L13.0491 5.35498M15.6857 8.72868L12.2762 5.4095L15.5954 2" fill="none" data-nofill="true"></path><path d="M8.62964 7.05725C7.34892 8.00527 6.3384 9.28218 5.71112 10.7614C4.9389 12.5825 4.79091 14.6079 5.29021 16.5219C5.7895 18.4358 6.90803 20.1308 8.47142 21.3426C10.0348 22.5544 11.9552 23.2148 13.9332 23.221L14.8064 23.1759M12.2705 19.7809L15.6044 23.1112L12.3372 26.5096" fill="none" data-nofill="true"></path></svg>