<svg width="48" height="48" viewBox="0 0 28 29" fill="#e6007a" xmlns="http://www.w3.org/2000/svg" stroke-width="2" stroke-linecap="round" stroke-linejoin="round" stroke="#ffffff"><path d="M19.9496 23.0396V26.5684H8.06305V23.0396"></path><path d="M14.0059 7.19092L14.0059 11.1531"></path><path d="M24.5716 11.8135H3.44006V23.0396H24.5716V11.8135Z"></path><path d="M9.71367 19.7376C10.9901 19.7376 12.0249 18.7029 12.0249 17.4264C12.0249 16.1499 10.9901 15.1151 9.71367 15.1151C8.43719 15.1151 7.4024 16.1499 7.4024 17.4264C7.4024 18.7029 8.43719 19.7376 9.71367 19.7376Z"></path><path d="M14.0058 6.53053C15.0999 6.53053 15.9869 5.64357 15.9869 4.54944C15.9869 3.45532 15.0999 2.56836 14.0058 2.56836C12.9117 2.56836 12.0247 3.45532 12.0247 4.54944C12.0247 5.64357 12.9117 6.53053 14.0058 6.53053Z"></path><path d="M18.2983 19.7376C19.5748 19.7376 20.6096 18.7029 20.6096 17.4264C20.6096 16.1499 19.5748 15.1151 18.2983 15.1151C17.0218 15.1151 15.9871 16.1499 15.9871 17.4264C15.9871 18.7029 17.0218 19.7376 18.2983 19.7376Z"></path></svg>