<svg width="48" height="48" viewBox="0 0 28 28" fill="#e6007a" xmlns="http://www.w3.org/2000/svg" stroke-width="2" stroke-linecap="round" stroke-linejoin="round" stroke="#ffffff"><g><path d="M13.9809 22.0069C18.4058 22.0069 21.9929 18.4198 21.9929 13.9949C21.9929 9.57006 18.4058 5.98297 13.9809 5.98297C9.55603 5.98297 5.96894 9.57006 5.96894 13.9949C5.96894 18.4198 9.55603 22.0069 13.9809 22.0069Z" stroke-miterlimit="10"></path><path d="M16.0572 15.8242L12.0581 11.8251" fill="none" data-nofill="true"></path><path d="M16.0572 11.8251L12.0581 15.8242" fill="none" data-nofill="true"></path><path d="M20.857 2.01674L25.9632 2L25.98 7.09755" fill="none" data-nofill="true"></path><path d="M25.478 2.67471L19.708 8.36659" stroke-miterlimit="10" fill="none" data-nofill="true"></path><path d="M7.12301 2.01674L2.0168 2L2.00003 7.09755" fill="none" data-nofill="true"></path><path d="M2.50202 2.67471L8.28686 8.36681" stroke-miterlimit="10" fill="none" data-nofill="true"></path><path d="M2.01674 20.877L2 25.9832L7.09755 26" fill="none" data-nofill="true"></path><path d="M2.67472 25.4979L8.38563 19.7086" stroke-miterlimit="10" fill="none" data-nofill="true"></path><path d="M25.9635 20.877L25.9802 25.9832L20.8827 26" fill="none" data-nofill="true"></path><path d="M25.3055 25.498L19.5948 19.709" stroke-miterlimit="10" fill="none" data-nofill="true"></path></g></svg>