<svg width="48" height="48" viewBox="0 0 28 28" fill="#e6007a" xmlns="http://www.w3.org/2000/svg" stroke-width="2" stroke-linecap="round" stroke-linejoin="round" stroke="#ffffff"><path d="M6.78715 20.9793H20.7785C23.093 19.0019 24.5657 16.0662 24.5657 12.7828C24.5657 6.82793 19.7377 2 13.7828 2C7.82793 2 3 6.82793 3 12.7828C3 16.0662 4.47262 19.001 6.78715 20.9793V20.9793Z"></path><path d="M19.3362 11.9438C19.3362 11.3037 19.0753 10.6914 18.6138 10.2479L17.3111 8.99609C16.8741 8.5748 16.3604 8.24299 15.7984 8.01903C14.6527 7.56987 13.3819 7.56987 12.2362 8.01903C11.6857 8.24671 11.1834 8.57832 10.756 8.99609L9.40974 10.2593C8.94549 10.6949 8.68213 11.3031 8.68213 11.9398V11.9398C8.68213 12.5569 8.92964 13.1482 9.36924 13.5813L10.7072 14.8995C11.3794 15.5257 12.2124 15.9486 13.1111 16.1199C14.0098 16.2912 14.9382 16.204 15.7902 15.8684C16.3503 15.6443 16.8635 15.3156 17.3029 14.8995L18.614 13.6395C19.0754 13.196 19.3362 12.5837 19.3362 11.9438V11.9438Z"></path><path d="M14.0386 11.9732L14.0092 11.9438" stroke-miterlimit="10"></path><path d="M21.4113 20.9793H6.15474C5.53974 22.3958 3.97095 26 3.97095 26H23.6059C22.8623 24.3317 22.1387 22.6547 21.4113 20.9793Z"></path></svg>