<svg width="48" height="48" viewBox="0 0 28 29" fill="#e6007a" xmlns="http://www.w3.org/2000/svg" stroke-width="2" stroke-linecap="round" stroke-linejoin="round" stroke="#ffffff"><path d="M26 6.80664H2V22.5308H26V6.80664Z"></path><path d="M13.9999 17.5652C15.5996 17.5652 16.8964 16.2684 16.8964 14.6687C16.8964 13.069 15.5996 11.7721 13.9999 11.7721C12.4002 11.7721 11.1033 13.069 11.1033 14.6687C11.1033 16.2684 12.4002 17.5652 13.9999 17.5652Z"></path><path d="M13.9999 17.5652C15.5996 17.5652 16.8964 16.2684 16.8964 14.6687C16.8964 13.069 15.5996 11.7721 13.9999 11.7721C12.4002 11.7721 11.1033 13.069 11.1033 14.6687C11.1033 16.2684 12.4002 17.5652 13.9999 17.5652Z"></path><path d="M13.9999 17.5652C15.5996 17.5652 16.8964 16.2684 16.8964 14.6687C16.8964 13.069 15.5996 11.7721 13.9999 11.7721C12.4002 11.7721 11.1033 13.069 11.1033 14.6687C11.1033 16.2684 12.4002 17.5652 13.9999 17.5652Z"></path><path d="M5.74127 7.04807C5.74127 8.98106 4.17427 10.5481 2.24127 10.5481"></path><path d="M22.2588 22.2894C22.2588 20.3564 23.8258 18.7894 25.7588 18.7894"></path><path d="M5.74133 22.2894C5.74133 20.3564 4.17433 18.7894 2.24133 18.7894"></path><path d="M22.2588 7.04803C22.2588 8.98103 23.8258 10.548 25.7588 10.548"></path></svg>