<svg width="48" height="48" viewBox="0 0 28 28" fill="#e6007a" xmlns="http://www.w3.org/2000/svg" stroke-width="2" stroke-linecap="round" stroke-linejoin="round" stroke="#ffffff"><path d="M23.4615 8.92308V2H5.00001V26H23.4615V7.98154"></path><path d="M12.7078 10.2655C12.4754 10.0111 12.2955 9.71338 12.1782 9.38936C12.0609 9.06533 12.0087 8.72134 12.0244 8.37703C12.0401 8.03272 12.1235 7.69484 12.2698 7.38267C12.4161 7.0705 12.6224 6.79016 12.877 6.55766C13.3961 6.09477 14.0775 5.85668 14.7717 5.89571C15.4659 5.93474 16.116 6.24769 16.5792 6.76581C16.8116 7.02023 16.9916 7.31795 17.1088 7.64198C17.2261 7.966 17.2784 8.30999 17.2626 8.6543C17.2469 8.99861 17.1635 9.33649 17.0172 9.64866C16.871 9.96083 16.6646 10.2412 16.41 10.4737C15.8909 10.9363 15.2095 11.1742 14.5154 11.1352C13.8213 11.0962 13.1712 10.7834 12.7078 10.2655V10.2655Z"></path><path d="M14.7961 11.2187L14.7747 22.1406"></path><path d="M14.2787 16.498L11.2861 16.4922L11.2751 20.1311L14.2669 20.1361"></path></svg>