<svg width="48" height="48" viewBox="0 0 28 28" fill="#e6007a" xmlns="http://www.w3.org/2000/svg" stroke-width="2" stroke-linecap="round" stroke-linejoin="round" stroke="#ffffff"><g><path d="M23.2244 26.0188C24.7573 26.0188 26 24.7761 26 23.2431C26 21.7102 24.7573 20.4675 23.2244 20.4675C21.6914 20.4675 20.4487 21.7102 20.4487 23.2431C20.4487 24.7761 21.6914 26.0188 23.2244 26.0188Z"></path><path d="M4.77564 26.019C6.30859 26.019 7.55129 24.7763 7.55129 23.2433C7.55129 21.7104 6.30859 20.4677 4.77564 20.4677C3.2427 20.4677 2 21.7104 2 23.2433C2 24.7763 3.2427 26.019 4.77564 26.019Z"></path><path d="M4.77592 20.473L4.77592 17.2704L22.8386 17.2704L22.8386 20.473" stroke-miterlimit="10" fill="none" data-nofill="true"></path><path d="M15.5201 6.45341L15.9264 5.93216C16.6865 4.95702 16.597 3.56744 15.7181 2.69784C14.7675 1.75724 13.2368 1.75725 12.2861 2.69785C11.4072 3.56745 11.3177 4.95701 12.0778 5.93217L12.4839 6.45329C12.7613 6.80912 12.5908 7.33254 12.1571 7.45679L11.5759 7.62332C9.89503 8.10488 8.73661 9.64179 8.73661 11.3903V13.1463H19.2634V11.3873C19.2634 9.64034 18.1061 8.10469 16.4268 7.62322L15.8468 7.45693C15.4132 7.3326 15.2428 6.8092 15.5201 6.45341Z"></path><path d="M13.9998 13.3159L13.9999 17.0078"></path></g></svg>