<svg width="48" height="48" viewBox="0 0 28 28" fill="#e6007a" xmlns="http://www.w3.org/2000/svg" stroke-width="2" stroke-linecap="round" stroke-linejoin="round" stroke="#ffffff"><path d="M21.5521 9.40534L18.5262 5"></path><path d="M9.51626 5.0138L6.45081 9.39172"></path><path d="M20.4718 11.6062C20.4718 13.1383 21.7138 14.3803 23.2459 14.3803C24.778 14.3803 26.02 13.1383 26.02 11.6062C26.02 10.0741 24.778 8.83206 23.2459 8.83206C21.7138 8.83206 20.4718 10.0741 20.4718 11.6062Z"></path><path d="M2.00003 11.6062C2.00003 13.1383 3.24205 14.3803 4.77415 14.3803C6.30626 14.3803 7.54828 13.1383 7.54828 11.6062C7.54828 10.0741 6.30626 8.83206 4.77415 8.83206C3.24205 8.83206 2.00003 10.0741 2.00003 11.6062Z"></path><path d="M11.3726 20.6644C12.8292 22.1209 15.1907 22.1209 16.6473 20.6644C18.1038 19.2078 18.1038 16.8463 16.6473 15.3898C15.1907 13.9332 12.8292 13.9332 11.3726 15.3898C9.9161 16.8463 9.9161 19.2078 11.3726 20.6644Z"></path></svg>