<svg width="48" height="48" viewBox="0 0 28 28" fill="#e6007a" xmlns="http://www.w3.org/2000/svg" stroke-width="2" stroke-linecap="round" stroke-linejoin="round" stroke="#ffffff"><path d="M26.0029 5.00293L20.0029 5.00293"></path><path d="M14.9827 12.7571L15.892 11.6639C17.4439 9.79815 17.3196 7.05748 15.6052 5.33986C13.7696 3.50082 10.7898 3.50082 8.95416 5.33986C7.23972 7.05748 7.11542 9.79815 8.66735 11.6639L9.57647 12.7569C10.1572 13.4551 9.82447 14.5199 8.94954 14.7632L7.71783 15.1057C4.34533 16.0436 2.01171 19.1147 2.01171 22.6152V25.9917H22.5393V22.6094C22.5393 19.1119 20.208 16.0432 16.8386 15.1055L15.6094 14.7634C14.7346 14.52 14.402 13.4552 14.9827 12.7571Z"></path></svg>