<svg width="48" height="48" viewBox="0 0 28 28" fill="#e6007a" xmlns="http://www.w3.org/2000/svg" stroke-width="2" stroke-linecap="round" stroke-linejoin="round" stroke="#ffffff"><g><path d="M14.0001 15.7966C14.9468 15.7966 15.7143 15.0245 15.7143 14.072C15.7143 13.1195 14.9468 12.3474 14.0001 12.3474C13.0533 12.3474 12.2858 13.1195 12.2858 14.072C12.2858 15.0245 13.0533 15.7966 14.0001 15.7966Z"></path><path d="M1.99983 26.0001L25.9993 26.0001L25.9993 19.9642L25.9995 11.4133L19.9996 11.4133L19.9996 19.9642L18.2497 19.9642L1.99983 19.9642L1.99983 26.0001Z"></path><path d="M25.9999 1.99988L2.00049 1.99988L2.00049 8.03579L2.00024 16.5867L8.00012 16.5867L8.00012 8.03579L9.75009 8.03579L25.9999 8.03579L25.9999 1.99988Z"></path></g></svg>