<svg width="48" height="48" viewBox="0 0 28 28" fill="#e6007a" xmlns="http://www.w3.org/2000/svg" stroke-width="2" stroke-linecap="round" stroke-linejoin="round" stroke="#ffffff"><g><path d="M14.5701 23.6137L17.078 26.4003L22.8004 23.1061L21.7057 19.5632L22.0074 18.6669L26.1742 17.8088V10.7457L22.5616 9.91973L21.7356 8.48664L22.8801 4.94373L17.1676 1.64961L14.6199 4.38642H12.9977L10.4998 1.59985L4.77736 4.89397L5.88203 8.49659L5.09582 9.86997L1.39368 10.6462V17.2544L5.06597 18.0903L5.86213 19.4637L4.68779 23.0564L10.4102 26.3605L12.948 23.6137H14.5701Z" stroke-miterlimit="10"></path><path d="M10 18.5357V14.1329M10 14.1329V9.46436H16.11C19.3918 9.46436 19.5186 14.1329 16.11 14.1329C15.1266 14.1329 15.1527 14.1329 14.3196 14.1329C12.9594 14.1329 10.8752 14.1329 10 14.1329ZM18.5812 18.5188L14.6763 14.5"></path></g></svg>