<svg width="48" height="48" viewBox="0 0 28 28" fill="#e6007a" xmlns="http://www.w3.org/2000/svg" stroke-width="2" stroke-linecap="round" stroke-linejoin="round" stroke="#ffffff"><path d="M22.5109 2H6V26H22.5109V2Z"></path><path d="M13.3055 22.7122H15.2053"></path><path d="M12.011 9.94757L12.011 8.25744C12.011 7.66224 12.2475 7.09142 12.6684 6.67055C13.0892 6.24969 13.6601 6.01324 14.2552 6.01324C14.8489 6.01554 15.4175 6.25299 15.8365 6.67361C16.2555 7.09423 16.4908 7.66374 16.4908 8.25744V9.94757"></path><path d="M16.834 10.0771H11.6768C11.1245 10.0771 10.6768 10.5248 10.6768 11.0771V13.9479C10.6768 14.5002 11.1245 14.9479 11.6768 14.9479H16.834C17.3863 14.9479 17.834 14.5002 17.834 13.9479V11.0771C17.834 10.5248 17.3863 10.0771 16.834 10.0771Z"></path></svg>