<svg width="48" height="48" viewBox="0 0 28 28" fill="#e6007a" xmlns="http://www.w3.org/2000/svg" stroke-width="2" stroke-linecap="round" stroke-linejoin="round" stroke="#ffffff"><g><path d="M13.9349 25.9999C15.4059 25.9999 16.5981 24.8077 16.5981 23.3367C16.5981 21.8657 15.4059 20.6735 13.9349 20.6735C12.4639 20.6735 11.2716 21.8657 11.2716 23.3367C11.2716 24.8077 12.4639 25.9999 13.9349 25.9999V25.9999Z"></path><path d="M23.8451 8.52062C25.3161 8.52062 26.5083 7.32839 26.5083 5.85739C26.5083 4.38639 25.3161 3.19415 23.8451 3.19415C22.3741 3.19415 21.1818 4.38639 21.1818 5.85739C21.1818 7.32839 22.3741 8.52062 23.8451 8.52062Z"></path><path d="M4.66323 8.52068C6.13423 8.52068 7.32647 7.32845 7.32647 5.85745C7.32647 4.38645 6.13423 3.19421 4.66323 3.19421C3.19223 3.19421 2 4.38645 2 5.85745C2 7.32845 3.19223 8.52068 4.66323 8.52068Z"></path><path d="M23.8451 8.52063C22.3741 8.52063 21.1818 7.32839 21.1818 5.8574C21.1818 5.43394 21.2899 5.03942 21.4654 4.68445L14.1288 2L7.00237 4.61018C7.20204 4.98348 7.32647 5.40404 7.32647 5.8574C7.32647 7.32839 6.13424 8.52063 4.66324 8.52063C4.58028 8.52063 4.50215 8.50327 4.42113 8.49651V14.0313C4.42113 16.983 5.9201 19.7311 8.40103 21.3294L11.2871 23.1882C11.3652 21.7876 12.515 20.6735 13.9349 20.6735C15.4059 20.6735 16.5981 21.8657 16.5981 23.3367V23.3483L19.8661 21.2416C22.3461 19.6433 23.8451 16.8952 23.8451 13.9445V8.52063Z"></path><path d="M11.6575 11.9555V10.2395C11.6575 9.58362 11.9179 8.95374 12.3828 8.48978C12.8468 8.02581 13.4767 7.7644 14.1326 7.7644C14.7876 7.7673 15.4145 8.0287 15.8766 8.49267C16.3386 8.95664 16.5981 9.58459 16.5981 10.2395V11.9555"></path><path d="M18.0797 12.2469H10.1865V17.2251H18.0797V12.2469Z"></path></g></svg>