<svg width="48" height="48" viewBox="0 0 28 28" fill="#e6007a" xmlns="http://www.w3.org/2000/svg" stroke-width="2" stroke-linecap="round" stroke-linejoin="round" stroke="#ffffff"><g><path d="M13.955 6.49153C15.8154 6.49153 17.3236 5.48604 17.3236 4.24576C17.3236 3.00548 15.8154 2 13.955 2C12.0945 2 10.5863 3.00548 10.5863 4.24576C10.5863 5.48604 12.0945 6.49153 13.955 6.49153V6.49153Z"></path><path d="M7.10977 17.7639L10.2502 12.3701"></path><path d="M20.8012 17.7639L17.6607 12.3701"></path><path d="M5.82499 26C7.93726 26 9.64998 24.8582 9.64998 23.4503C9.64998 22.0425 7.93726 20.9006 5.82499 20.9006C3.71273 20.9006 2 22.0425 2 23.4503C2 24.8582 3.71273 26 5.82499 26Z"></path><path d="M22.2015 26C24.3137 26 26.0264 24.8582 26.0264 23.4503C26.0264 22.0425 24.3137 20.9006 22.2015 20.9006C20.0892 20.9006 18.3765 22.0425 18.3765 23.4503C18.3765 24.8582 20.0892 26 22.2015 26Z"></path><path d="M17.3236 4.24585C17.3236 5.48613 15.8154 6.49161 13.955 6.49161C12.0946 6.49161 10.5863 5.48613 10.5863 4.24585V7.65047C10.5863 8.89075 12.0946 9.75611 13.955 9.75611C15.8154 9.75611 17.3236 8.89075 17.3236 7.65047V4.24585Z"></path></g></svg>