<svg width="48" height="48" viewBox="0 0 28 28" fill="#e6007a" xmlns="http://www.w3.org/2000/svg" stroke-width="2" stroke-linecap="round" stroke-linejoin="round" stroke="#ffffff"><path d="M17.1443 24.8612H2V21.6582C2 18.3465 4.20777 15.4407 7.39797 14.553L8.56208 14.2292C9.39049 13.9981 9.70546 12.99 9.15549 12.3295L8.29451 11.2947C6.82529 9.5283 6.94279 6.93349 8.56603 5.3063C10.3038 3.56457 13.1257 3.56457 14.8635 5.3063C16.4867 6.9325 16.6042 9.52732 15.135 11.2947L14.274 12.3295C13.7241 12.991 14.039 13.9991 14.8674 14.2292L17.0308 14.8305C18.0438 15.1119 18.8278 15.7784 19.2879 16.6157"></path><path d="M22.403 17.691L26 18.4869L23.5681 21.2258L23.9137 24.8544L20.527 23.4148L17.1433 24.8623L17.4829 21.2327L15.0451 18.4987L18.6411 17.695L20.5171 14.5591L22.402 17.691H22.403Z"></path></svg>