<svg width="48" height="48" viewBox="0 0 29 29" fill="#e6007a" xmlns="http://www.w3.org/2000/svg" stroke-width="2" stroke-linecap="round" stroke-linejoin="round" stroke="#ffffff"><path d="M16.1401 17.2978L23.2372 17.2978C24.5958 17.2978 25.6972 16.1964 25.6972 14.8378C25.6972 13.4792 24.5958 12.3778 23.2372 12.3778L22.2221 12.3778L23.894 12.3777C25.0442 12.3777 25.9766 11.2763 25.9766 9.9177C25.9766 8.5591 25.0442 7.45773 23.894 7.45773L21.7877 7.45773C22.9378 7.45773 23.8344 6.52958 23.8344 4.97169C23.8344 3.61309 22.5034 2.51172 21.3533 2.51172L18.9656 2.51172L15.3542 2.51177C11.3118 2.51187 9.69461 6.65141 9.69461 6.65141L3.97656 6.65141L3.97656 15.7957L9.69461 15.8378C9.69461 15.8378 12.1378 21.1212 14.1473 25.3328C14.7178 26.5283 16.1657 27.0065 17.3405 26.3945C18.3949 25.8453 18.8739 24.5958 18.4569 23.4825L16.1401 17.2978Z"></path></svg>