<svg width="48" height="48" viewBox="0 0 28 28" fill="#e6007a" xmlns="http://www.w3.org/2000/svg" stroke-width="2" stroke-linecap="round" stroke-linejoin="round" stroke="#ffffff"><path d="M13.5492 22.0063H3V18.9346C3 15.7586 5.11729 12.9719 8.17677 12.1206L9.29317 11.81C10.0876 11.5884 10.3897 10.6216 9.86227 9.98815L9.03656 8.99578C7.62756 7.30176 7.74024 4.81327 9.29696 3.25276C10.9635 1.58241 13.6698 1.58241 15.3364 3.25276C16.8931 4.81233 17.0058 7.30081 15.5968 8.99578L14.7711 9.98815C14.2436 10.6226 14.5457 11.5894 15.3402 11.81L17.4148 12.3867C18.3864 12.6565 19.1382 13.2957 19.5795 14.0987"></path><path d="M25.3561 18.3923C25.3561 20.56 22.7134 22.3173 19.4527 22.3173C16.2506 22.3173 13.6505 20.6209 13.5585 18.5065V21.4774C13.5585 23.6452 16.2012 25.4025 19.4619 25.4025C22.7226 25.4025 25.3653 23.6452 25.3653 21.4774C25.3653 21.2097 25.4339 18.645 25.357 18.3914L25.3561 18.3923Z"></path><path d="M19.4526 22.3175C22.7125 22.3175 25.356 20.5601 25.356 18.3924C25.356 16.2247 22.7133 14.4673 19.4526 14.4673C16.1919 14.4673 13.5492 16.2247 13.5492 18.3924C13.5492 20.5601 16.1919 22.3175 19.4526 22.3175Z"></path></svg>