<svg width="48" height="48" viewBox="0 0 29 29" fill="#e6007a" xmlns="http://www.w3.org/2000/svg" stroke-width="2" stroke-linecap="round" stroke-linejoin="round" stroke="#ffffff"><g><path d="M15.8744 21.235C15.2639 21.2887 14.6393 21.2849 14.0069 21.2184C12.7105 21.0822 11.5011 20.6953 10.4218 20.1112L4.79846 24.0642L7.47592 17.6476C5.94344 15.7325 5.13538 13.2365 5.41203 10.6044C5.69652 7.89795 7.10601 5.83942 9 4M12.8317 2.20431C13.8511 1.96766 14.9267 1.89399 16.026 2.00954C21.3304 2.56709 25.1785 7.31913 24.6209 12.6235C24.2828 15.8405 22.4716 18.3021 19.7768 19.8463" fill="none" data-nofill="true"></path><path d="M9.6192 7.73853L9.47795 3.24239L4.9818 3.38364" fill="none" data-nofill="true"></path><path d="M20.0228 15.5961L19.2373 20.0253L23.6665 20.8108" fill="none" data-nofill="true"></path></g></svg>