<svg width="48" height="48" viewBox="0 0 28 28" fill="#e6007a" xmlns="http://www.w3.org/2000/svg" stroke-width="2" stroke-linecap="round" stroke-linejoin="round" stroke="#ffffff"><path d="M17.2303 26C18.9647 26 20.6601 25.4857 22.1022 24.5221C23.5443 23.5586 24.6683 22.189 25.332 20.5866C25.9957 18.9842 26.1694 17.2211 25.831 15.52C25.4927 13.8189 24.6575 12.2564 23.4311 11.03C22.2047 9.8036 20.6421 8.96841 18.9411 8.63005C17.24 8.29169 15.4768 8.46535 13.8744 9.12907C12.2721 9.79279 10.9025 10.9168 9.93894 12.3589C8.97537 13.8009 8.46106 15.4964 8.46106 17.2308C8.46106 17.8296 8.52231 18.4222 8.64135 19C8.98462 20.6663 9.80841 22.2105 11.0295 23.4316C12.6741 25.0761 14.9045 26 17.2303 26Z"></path><path d="M10.7692 19.5385C12.5036 19.5385 14.1991 19.0242 15.6411 18.0606C17.0832 17.097 18.2072 15.7274 18.8709 14.1251C19.5347 12.5227 19.7083 10.7595 19.37 9.05844C19.0316 7.35738 18.1964 5.79485 16.97 4.56845C15.7436 3.34205 14.1811 2.50686 12.48 2.1685C10.779 1.83014 9.01576 2.0038 7.41339 2.66752C5.81102 3.33124 4.44146 4.45522 3.47788 5.89731C2.51431 7.3394 2 9.03484 2 10.7692C2 13.095 2.9239 15.3255 4.56845 16.97C6.213 18.6146 8.44348 19.5385 10.7692 19.5385Z"></path><path d="M18.9411 8.63005C17.24 8.29169 15.4768 8.46535 13.8744 9.12907C12.2721 9.79279 10.9025 10.9168 9.93894 12.3589C8.97537 13.8009 8.46106 15.4964 8.46106 17.2308C8.46106 17.8296 8.52231 18.4222 8.64135 19"></path><path d="M11.6923 11.2307L16.7692 16.3076"></path><path d="M14.7827 9.24402L18.6992 13.1606"></path><path d="M9.52991 14.1307L14.2306 18.3481"></path></svg>