<svg width="48" height="48" viewBox="0 0 28 28" fill="#e6007a" xmlns="http://www.w3.org/2000/svg" stroke-width="2" stroke-linecap="round" stroke-linejoin="round" stroke="#ffffff"><path d="M8.05532 10.5251H2.00006V10.3376L14.1049 2L26.2221 10.4352V10.5251H20.1399H8.05532Z"></path><path d="M2 26L26.222 26"></path><path d="M5.61755 11V25.5"></path><path d="M22.5933 11L22.5931 25.5"></path><path d="M15.7874 15.0547H13.5358C13.0926 15.0558 12.668 15.2277 12.3548 15.5326C12.0417 15.8375 11.8655 16.2506 11.8649 16.6815V16.701C11.8655 17.1319 12.0417 17.545 12.3548 17.8499C12.668 18.1548 13.0926 18.3267 13.5358 18.3278H14.6527C14.873 18.327 15.0912 18.3684 15.295 18.4498C15.4988 18.5311 15.684 18.6508 15.8401 18.802C15.9961 18.9531 16.12 19.1328 16.2045 19.3306C16.289 19.5284 16.3325 19.7404 16.3325 19.9546C16.3331 20.169 16.2901 20.3813 16.206 20.5795C16.1219 20.7777 15.9983 20.9577 15.8424 21.1093C15.6865 21.2609 15.5014 21.381 15.2976 21.4628C15.0938 21.5445 14.8754 21.5863 14.6549 21.5858H12.2134" fill="none" data-nofill="true"></path><path d="M14.0945 15.0107V13.8521" fill="none" data-nofill="true"></path><path d="M14.0945 22.8071V21.7383" fill="none" data-nofill="true"></path></svg>