<svg width="48" height="48" viewBox="0 0 29 29" fill="#e6007a" xmlns="http://www.w3.org/2000/svg" stroke-width="2" stroke-linecap="round" stroke-linejoin="round" stroke="#ffffff"><g><circle cx="14.9943" cy="23.747" r="1.83075"></circle><path d="M9.39825 18.1548C10.0764 17.3268 10.9297 16.6595 11.8966 16.2007C12.8635 15.7419 13.92 15.5031 14.9902 15.5014C16.0605 15.4997 17.1178 15.7353 18.0861 16.191C19.0544 16.6468 19.9097 17.3115 20.5905 18.1373" stroke-miterlimit="10" fill="none" data-nofill="true"></path><path d="M6.17468 13.8108C7.97526 11.465 11.2575 9.89453 15.0075 9.89453C18.7391 9.89453 22.0072 11.4497 23.8135 13.7769" fill="none" data-nofill="true"></path><path d="M2.99414 9.63123C4.47008 7.88713 6.3086 6.48588 8.38157 5.52513C10.4545 4.56437 12.7121 4.06724 14.9969 4.06836C17.2817 4.06949 19.5387 4.56885 21.6108 5.53164C23.6828 6.49444 25.5199 7.8975 26.9941 9.64305" fill="none" data-nofill="true"></path></g></svg>