<svg width="48" height="48" viewBox="0 0 28 28" fill="#e6007a" xmlns="http://www.w3.org/2000/svg" stroke-width="2" stroke-linecap="round" stroke-linejoin="round" stroke="#ffffff"><path d="M9.29544 10.0459L9.80687 9.43105C10.6797 8.38166 10.6098 6.84019 9.64556 5.87413C8.61312 4.83977 6.93717 4.83977 5.90473 5.87412C4.94046 6.84019 4.87055 8.38166 5.74341 9.43105L6.25475 10.0458C6.58137 10.4385 6.39423 11.0374 5.90214 11.1742L5.20937 11.3669C3.31252 11.8944 2 13.6217 2 15.5905V17.4896H13.5456V15.5872C13.5456 13.6201 12.2344 11.8942 10.3393 11.3668L9.64794 11.1744C9.1559 11.0374 8.96883 10.4386 9.29544 10.0459Z"></path><path d="M18.7046 10.0459L18.1932 9.43105C17.3203 8.38166 17.3902 6.84019 18.3545 5.87413C19.387 4.83977 21.0629 4.83977 22.0953 5.87412C23.0596 6.84019 23.1295 8.38166 22.2567 9.43105L21.7453 10.0458C21.4187 10.4385 21.6058 11.0374 22.0979 11.1742L22.7907 11.3669C24.6876 11.8944 26.0001 13.6217 26.0001 15.5905V17.4896H14.4545V15.5872C14.4545 13.6201 15.7657 11.8942 17.6608 11.3668L18.3521 11.1744C18.8442 11.0374 19.0312 10.4386 18.7046 10.0459Z"></path><path d="M2.00025 25.1183V17.4898H25.9788V25.1183" fill="none" data-nofill="true"></path></svg>