<svg version="1.1" viewBox="0.0 0.0 952.7769028871392 791.6666666666666" fill="none" stroke="none" stroke-linecap="square" stroke-miterlimit="10" xmlns:xlink="http://www.w3.org/1999/xlink" xmlns="http://www.w3.org/2000/svg"><clipPath id="p.0"><path d="m0 0l952.7769 0l0 791.6667l-952.7769 0l0 -791.6667z" clip-rule="nonzero"/></clipPath><g clip-path="url(#p.0)"><path fill="#000000" fill-opacity="0.0" d="m0 0l952.7769 0l0 791.6667l-952.7769 0z" fill-rule="evenodd"/><path fill="#8d3aed" d="m70.56693 34.81671l0 0c0 -12.109919 9.817024 -21.924683 21.92694 -21.921886l775.0122 0.1788559c5.8154297 0.0013418198 11.392639 2.3127832 15.5047 6.425832c4.1121216 4.1130505 6.422241 9.690788 6.422241 15.506176l0 87.705154c0 12.109924 -9.817017 21.924683 -21.92694 21.92189l-775.0122 -0.17886353c-12.109917 -0.0027923584 -21.92694 -9.8220825 -21.92694 -21.932z" fill-rule="evenodd"/><path fill="#ffffff" d="m358.6765 68.60328q0 6.5 -4.4375 10.795845q-4.4375 4.2958527 -13.546875 4.2937546l-10.0 -0.0023117065l0 21.71875l-6.796875 -0.0015640259l0 -52.031254l16.796875 0.0038757324q8.8125 0.0020332336 13.390625 4.25309q4.59375 4.2510605 4.59375 10.969814zm-17.984375 9.480225q5.671875 0.0013046265 8.359375 -2.4511948q2.6875 -2.468132 2.6875 -7.030632q0 -9.625 -11.046875 -9.627552l-10.0 -0.0023078918l0 19.109375l10.0 0.0023117065zm44.272858 28.010216q-5.75 -0.0013275146 -10.421875 -2.6117783q-4.65625 -2.6104507 -7.3125 -7.4235687q-2.65625 -4.8287354 -2.65625 -11.172485q0 -6.265625 2.71875 -11.077499q2.734375 -4.8274918 7.4375 -7.3889084q4.703125 -2.5770378 10.53125 -2.5756912q5.828125 0.0013427734 10.53125 2.5805511q4.703125 2.563591 7.421875 7.3454666q2.71875 4.7818756 2.71875 11.125626q0 6.34375 -2.796875 11.171234q-2.796875 4.8118515 -7.578125 7.4201202q-4.765625 2.6082764 -10.59375 2.6069336zm0 -5.96875q3.65625 8.468628E-4 6.859375 -1.7171707q3.21875 -1.7180023 5.1875 -5.155052q1.984375 -3.4370422 1.984375 -8.358917q0 -4.921875 -1.9375 -8.3598175q-1.9375 -3.4379501 -5.078125 -5.11055q-3.140625 -1.6882248 -6.796875 -1.6890717q-3.734375 -8.544922E-4 -6.828125 1.6859283q-3.09375 1.6711578 -4.96875 5.1082306q-1.859375 3.4370651 -1.859375 8.35894q0 5.0 1.828125 8.437927q1.828125 3.4379196 4.890625 5.126129q3.0625 1.6725769 6.71875 1.6734238zm36.733093 -49.94465l0 55.25l-6.796875 -0.0015716553l0 -55.249996l6.796875 0.0015678406zm34.412323 55.257942l-16.046875 -18.0662l0 18.0625l-6.796875 -0.0015716553l0 -55.25l6.796875 0.0015678406l0 32.48438l15.75 -18.136993l9.484375 0.0021896362l-19.265625 20.370552l19.328125 20.535713l-9.25 -0.0021362305zm13.057343 -20.606361q0 -6.265625 2.53125 -10.99942q2.546875 -4.7494125 6.984375 -7.3577576q4.453125 -2.6083488 9.90625 -2.60709q5.375 0.0012397766 9.328125 2.3146477q3.953125 2.3134155 5.890625 5.8138657l0 -7.453125l6.875 0.0015869141l0 40.90625l-6.875 -0.0015869141l0 -7.609375q-2.015625 3.5776596 -6.015625 5.9361115q-3.984375 2.3428268 -9.28125 2.3416061q-5.453125 -0.0012588501 -9.859375 -2.6897736q-4.40625 -2.6885147 -6.953125 -7.532852q-2.53125 -4.8599625 -2.53125 -11.063087zm34.640625 0.086120605q0 -4.625 -1.859375 -8.062935q-1.859375 -3.4379272 -5.046875 -5.2667847q-3.171875 -1.8288574 -6.96875 -1.8297348q-3.8125 -8.773804E-4 -6.953125 1.7952728q-3.125 1.7805252 -5.0 5.2175903q-1.859375 3.4370728 -1.859375 8.062073q0 4.703125 1.859375 8.187935q1.875 3.4691772 5.0 5.298027q3.140625 1.8288498 6.953125 1.8297272q3.796875 8.773804E-4 6.96875 -1.8265152q3.1875 -1.8273926 5.046875 -5.2957077q1.859375 -3.4839478 1.859375 -8.108948zm15.826996 -0.07447815q0 -6.265625 2.53125 -10.999413q2.546875 -4.7494125 6.984375 -7.357765q4.453125 -2.608345 9.984375 -2.607067q4.765625 0.0010986328 8.875 2.2051735q4.109375 2.204071 6.265625 5.782692l0 -21.65625l6.875 0.0015869141l0 55.25l-6.875 -0.0015869141l0 -7.6875q-2.015625 3.6557846 -5.96875 6.0142517q-3.953125 2.3428345 -9.25 2.3416138q-5.453125 -0.0012588501 -9.90625 -2.6897888q-4.4375 -2.6885223 -6.984375 -7.53286q-2.53125 -4.859955 -2.53125 -11.063087zm34.640625 0.086120605q0 -4.625 -1.859375 -8.062927q-1.859375 -3.4379272 -5.046875 -5.2667923q-3.171875 -1.8288574 -6.96875 -1.8297272q-3.8125 -8.8500977E-4 -6.953125 1.7952652q-3.125 1.7805328 -5.0 5.217598q-1.859375 3.4370728 -1.859375 8.062073q0 4.703125 1.859375 8.187927q1.875 3.4691849 5.0 5.298027q3.140625 1.8288498 6.953125 1.8297348q3.796875 8.773804E-4 6.96875 -1.8265228q3.1875 -1.827385 5.046875 -5.2957077q1.859375 -3.4839478 1.859375 -8.108948zm36.21759 21.211487q-5.75 -0.0013275146 -10.421875 -2.6117783q-4.65625 -2.6104507 -7.3125 -7.4235687q-2.65625 -4.8287354 -2.65625 -11.172485q0 -6.265625 2.71875 -11.077499q2.734375 -4.8274918 7.4375 -7.3889084q4.703125 -2.5770378 10.53125 -2.575695q5.828125 0.0013465881 10.53125 2.580555q4.703125 2.563591 7.421875 7.3454666q2.71875 4.7818756 2.71875 11.125626q0 6.34375 -2.796875 11.171234q-2.796875 4.8118515 -7.578125 7.4201202q-4.765625 2.6082764 -10.59375 2.6069336zm0 -5.96875q3.65625 8.392334E-4 6.859375 -1.7171707q3.21875 -1.7180023 5.1875 -5.155052q1.984375 -3.4370422 1.984375 -8.358917q0 -4.921875 -1.9375 -8.3598175q-1.9375 -3.4379501 -5.078125 -5.11055q-3.140625 -1.6882248 -6.796875 -1.6890717q-3.734375 -8.621216E-4 -6.828125 1.6859283q-3.09375 1.6711578 -4.96875 5.1082306q-1.859375 3.4370651 -1.859375 8.35894q0 5.0 1.828125 8.437927q1.828125 3.4379196 4.890625 5.126129q3.0625 1.6725769 6.71875 1.6734238zm38.21753 -30.006805l0 24.109375q0 2.984375 1.265625 4.21904q1.28125 1.2346725 4.40625 1.2353897l5.015625 0.001159668l0 5.75l-6.125 -0.001411438q-5.671875 -0.0013122559 -8.515625 -2.6113434q-2.84375 -2.6100311 -2.84375 -8.594406l0 -24.109375l-5.296875 -0.0012207031l0 -5.59375l5.296875 0.0012207031l0 -10.3125l6.796875 0.0015716553l0 10.3125l10.6875 0.0024642944l0 5.59375l-10.6875 -0.0024642944z" fill-rule="nonzero"/><path fill="#e06666" d="m184.29659 339.87183l0 0c0 -12.12442 9.828781 -21.95102 21.953201 -21.948334l98.266846 0.02178955c5.8223267 0.0012817383 11.4062195 2.3154297 15.523254 6.43338c4.1170044 4.11792 6.4299316 9.702301 6.4299316 15.524658l0 87.81015c0 12.12442 -9.828796 21.95102 -21.953186 21.948334l-98.266846 -0.021759033c-12.12442 -0.0026855469 -21.953201 -9.833649 -21.953201 -21.958069z" fill-rule="evenodd"/><path fill="#e06666" d="m184.29659 499.77734l0 0c0 -12.12442 9.828781 -21.95102 21.953201 -21.948334l98.266846 0.021759033c5.8223267 0.0013122559 11.4062195 2.3154602 15.523254 6.43338c4.1170044 4.1179504 6.4299316 9.702332 6.4299316 15.524689l0 87.81012c0 12.124451 -9.828796 21.95105 -21.953186 21.948364l-98.266846 -0.02178955c-12.12442 -0.0026855469 -21.953201 -9.833618 -21.953201 -21.958069z" fill-rule="evenodd"/><path fill="#e06666" d="m184.29659 659.68286l0 0c0 -12.124451 9.828781 -21.95105 21.953201 -21.948364l98.266846 0.02178955c5.8223267 0.0012817383 11.4062195 2.3154297 15.523254 6.4334106c4.1170044 4.11792 6.4299316 9.702332 6.4299316 15.524658l0 87.81012c0 12.124451 -9.828796 21.95105 -21.953186 21.948364l-98.266846 -0.02178955c-12.12442 -0.0026855469 -21.953201 -9.833618 -21.953201 -21.958069z" fill-rule="evenodd"/><path fill="#000000" fill-opacity="0.0" d="m255.38321 477.8399l0 -28.188995" fill-rule="evenodd"/><path stroke="#000000" stroke-width="1.0" stroke-linejoin="round" stroke-linecap="butt" d="m255.38321 477.8399l0 -22.188995" fill-rule="evenodd"/><path fill="#000000" stroke="#000000" stroke-width="1.0" stroke-linecap="butt" d="m257.03494 455.6509l-1.6517334 -4.538086l-1.6517334 4.538086z" fill-rule="evenodd"/><path fill="#000000" fill-opacity="0.0" d="m255.38321 637.7454l0 -28.188965" fill-rule="evenodd"/><path stroke="#000000" stroke-width="1.0" stroke-linejoin="round" stroke-linecap="butt" d="m255.38321 637.7454l0 -22.188965" fill-rule="evenodd"/><path fill="#000000" stroke="#000000" stroke-width="1.0" stroke-linecap="butt" d="m257.03494 615.55646l-1.6517334 -4.538147l-1.6517334 4.538147z" fill-rule="evenodd"/><path fill="#3c78d8" d="m405.30185 339.87183l0 0c0 -12.12442 9.828766 -21.95102 21.953186 -21.948334l98.266815 0.02178955c5.8223877 0.0012817383 11.40625 2.3154297 15.523254 6.43338c4.1170654 4.11792 6.4299316 9.702301 6.4299316 15.524658l0 87.81015c0 12.12442 -9.828735 21.95102 -21.953186 21.948334l-98.266815 -0.021759033c-12.12442 -0.0026855469 -21.953186 -9.833649 -21.953186 -21.958069z" fill-rule="evenodd"/><path fill="#3c78d8" d="m405.30185 499.77734l0 0c0 -12.12442 9.828766 -21.95102 21.953186 -21.948334l98.266815 0.021759033c5.8223877 0.0013122559 11.40625 2.3154602 15.523254 6.43338c4.1170654 4.1179504 6.4299316 9.702332 6.4299316 15.524689l0 87.81012c0 12.124451 -9.828735 21.95105 -21.953186 21.948364l-98.266815 -0.02178955c-12.12442 -0.0026855469 -21.953186 -9.833618 -21.953186 -21.958069z" fill-rule="evenodd"/><path fill="#3c78d8" d="m405.30185 659.68286l0 0c0 -12.124451 9.828766 -21.95105 21.953186 -21.948364l98.266815 0.02178955c5.8223877 0.0012817383 11.40625 2.3154297 15.523254 6.4334106c4.1170654 4.11792 6.4299316 9.702332 6.4299316 15.524658l0 87.81012c0 12.124451 -9.828735 21.95105 -21.953186 21.948364l-98.266815 -0.02178955c-12.12442 -0.0026855469 -21.953186 -9.833618 -21.953186 -21.958069z" fill-rule="evenodd"/><path fill="#000000" fill-opacity="0.0" d="m476.38846 477.8399l0 -28.188995" fill-rule="evenodd"/><path stroke="#000000" stroke-width="1.0" stroke-linejoin="round" stroke-linecap="butt" d="m476.38846 477.8399l0 -22.188995" fill-rule="evenodd"/><path fill="#000000" stroke="#000000" stroke-width="1.0" stroke-linecap="butt" d="m478.0402 455.6509l-1.6517334 -4.538086l-1.6517334 4.538086z" fill-rule="evenodd"/><path fill="#000000" fill-opacity="0.0" d="m476.38846 637.7454l0 -28.188965" fill-rule="evenodd"/><path stroke="#000000" stroke-width="1.0" stroke-linejoin="round" stroke-linecap="butt" d="m476.38846 637.7454l0 -22.188965" fill-rule="evenodd"/><path fill="#000000" stroke="#000000" stroke-width="1.0" stroke-linecap="butt" d="m478.0402 615.55646l-1.6517334 -4.538147l-1.6517334 4.538147z" fill-rule="evenodd"/><path fill="#ff00ff" d="m626.30707 339.87183l0 0c0 -12.12442 9.828796 -21.95102 21.953186 -21.948334l98.266846 0.02178955c5.8223877 0.0012817383 11.40625 2.3154297 15.523254 6.43338c4.1170654 4.11792 6.4299316 9.702301 6.4299316 15.524658l0 87.81015c0 12.12442 -9.828735 21.95102 -21.953186 21.948334l-98.266846 -0.021759033c-12.12439 -0.0026855469 -21.953186 -9.833649 -21.953186 -21.958069z" fill-rule="evenodd"/><path fill="#ff00ff" d="m626.30707 499.77734l0 0c0 -12.12442 9.828796 -21.95102 21.953186 -21.948334l98.266846 0.021759033c5.8223877 0.0013122559 11.40625 2.3154602 15.523254 6.43338c4.1170654 4.1179504 6.4299316 9.702332 6.4299316 15.524689l0 87.81012c0 12.124451 -9.828735 21.95105 -21.953186 21.948364l-98.266846 -0.02178955c-12.12439 -0.0026855469 -21.953186 -9.833618 -21.953186 -21.958069z" fill-rule="evenodd"/><path fill="#ff00ff" d="m626.30707 659.68286l0 0c0 -12.124451 9.828796 -21.95105 21.953186 -21.948364l98.266846 0.02178955c5.8223877 0.0012817383 11.40625 2.3154297 15.523254 6.4334106c4.1170654 4.11792 6.4299316 9.702332 6.4299316 15.524658l0 87.81012c0 12.124451 -9.828735 21.95105 -21.953186 21.948364l-98.266846 -0.02178955c-12.12439 -0.0026855469 -21.953186 -9.833618 -21.953186 -21.958069z" fill-rule="evenodd"/><path fill="#8d3aed" d="m70.56693 168.98972l0 0c0 -5.7259064 4.641754 -10.366592 10.3676605 -10.36528l798.13086 0.18418884c2.7496338 6.4086914E-4 5.3867188 1.0935516 7.3309937 3.0383148c1.9443359 1.9447632 3.036621 4.582077 3.036621 7.3317413l0 41.469406c0 5.7259064 -4.6417236 10.366592 -10.367615 10.365265l-798.13086 -0.18418884c-5.7259064 -0.0013122559 -10.3676605 -4.64415 -10.3676605 -10.370056z" fill-rule="evenodd"/><path fill="#ffffff" d="m325.52783 205.54013q-2.953125 -6.866455E-4 -5.28125 -1.0480957q-2.3125 -1.047409 -3.640625 -2.8914642q-1.328125 -1.8596954 -1.359375 -4.2971954l4.125 9.460449E-4q0.21875 2.093811 1.734375 3.531662q1.515625 1.422226 4.421875 1.4228821q2.765625 6.4086914E-4 4.359375 -1.3896179q1.609375 -1.3902435 1.609375 -3.5621185q0 -1.703125 -0.9375 -2.7658386q-0.9375 -1.0627289 -2.359375 -1.6099243q-1.40625 -0.56282043 -3.78125 -1.2039948q-2.953125 -0.78193665 -4.71875 -1.5479736q-1.765625 -0.7660217 -3.03125 -2.406952q-1.25 -1.6408997 -1.25 -4.4065247q0 -2.4375 1.234375 -4.3122253q1.234375 -1.8747101 3.46875 -2.8898163q2.25 -1.0307312 5.140625 -1.0300751q4.1875 9.765625E-4 6.84375 2.095337q2.671875 2.0787354 3.015625 5.531952l-4.265625 -9.918213E-4q-0.21875 -1.7031708 -1.796875 -3.000412q-1.578125 -1.2972412 -4.171875 -1.2978363q-2.4375 -5.645752E-4 -3.984375 1.2647095q-1.53125 1.2496338 -1.53125 3.4996338q0 1.625 0.921875 2.6564636q0.921875 1.0158386 2.265625 1.547409q1.34375 0.5315552 3.765625 1.2196198q2.953125 0.8131714 4.734375 1.6104584q1.796875 0.781662 3.078125 2.4225922q1.28125 1.6409149 1.28125 4.453415q0 2.1875 -1.15625 4.1091156q-1.15625 1.9059753 -3.421875 3.1085815q-2.25 1.1869812 -5.3125 1.1862793zm27.21106 -24.087479q2.640625 6.1035156E-4 4.765625 1.1260986q2.140625 1.1254883 3.359375 3.3914032q1.21875 2.2658997 1.21875 5.5002747l0 13.78125l-3.84375 -8.8500977E-4l0 -13.21875q0 -3.5 -1.75 -5.3597717q-1.75 -1.859787 -4.78125 -1.8604889q-3.0625 -7.019043E-4 -4.875 1.9207611q-1.8125 1.9214478 -1.8125 5.5933228l0 12.921875l-3.890625 -9.0026855E-4l0 -31.5625l3.890625 9.0026855E-4l0 11.515625q1.140625 -1.7966003 3.171875 -2.7648926q2.03125 -0.983902 4.546875 -0.98332214zm14.237457 12.034531q0 -3.59375 1.453125 -6.2965393q1.453125 -2.7184143 3.984375 -4.202194q2.546875 -1.4994202 5.65625 -1.498703q3.078125 7.171631E-4 5.328125 1.329361q2.265625 1.3286438 3.375 3.3289032l0 -4.265625l3.921875 9.0026855E-4l0 23.375l-3.921875 -9.0026855E-4l0 -4.34375q-1.15625 2.0466003 -3.4375 3.3898315q-2.28125 1.343216 -5.3125 1.342514q-3.109375 -7.171631E-4 -5.625 -1.532547q-2.515625 -1.5474548 -3.96875 -4.3134155q-1.453125 -2.7815857 -1.453125 -6.3128357zm19.796875 0.035827637q0 -2.640625 -1.0625 -4.593994q-1.0625 -1.9689941 -2.875 -3.0162964q-1.8125 -1.047287 -4.0 -1.0477905q-2.171875 -5.0354004E-4 -3.96875 1.0303345q-1.78125 1.015213 -2.859375 2.9837036q-1.0625 1.9528809 -1.0625 4.609131q0 2.6875 1.0625 4.672119q1.078125 1.9690094 2.859375 3.0162964q1.796875 1.047287 3.96875 1.0477905q2.1875 5.0354004E-4 4.0 -1.0459595q1.8125 -1.0464478 2.875 -3.0149536q1.0625 -1.9841309 1.0625 -4.640381zm14.382477 -7.840439q1.015625 -1.9997559 2.90625 -3.1087036q1.90625 -1.1089325 4.640625 -1.1083069l0 4.0l-1.03125 -2.2888184E-4q-6.515625 -0.0015106201 -6.515625 7.0766144l0 12.71875l-3.890625 -9.0026855E-4l0 -23.375l3.890625 9.0026855E-4l0 3.796875zm33.348236 7.0077057q0 1.109375 -0.125 2.3437195l-18.6875 -0.0043182373q0.21875 3.4531708 2.375 5.3911743q2.15625 1.9380035 5.21875 1.9387054q2.515625 5.79834E-4 4.203125 -1.1708984q1.6875 -1.1714935 2.375 -3.124466l4.171875 9.765625E-4q-0.9375 3.359146 -3.75 5.4835052q-2.8125 2.1087189 -7.0 2.1077576q-3.328125 -7.6293945E-4 -5.953125 -1.5013733q-2.625 -1.5006104 -4.125 -4.250946q-1.484375 -2.750351 -1.484375 -6.375351q0 -3.625 1.453125 -6.3434143q1.453125 -2.7340393 4.078125 -4.202179q2.625 -1.4837799 6.03125 -1.4829865q3.328125 7.6293945E-4 5.890625 1.454483q2.5625 1.4537201 3.9375 4.0009155q1.390625 2.5315704 1.390625 5.7346954zm-4.0 -0.8134308q0 -2.21875 -0.984375 -3.812729q-0.984375 -1.6096039 -2.671875 -2.4381104q-1.6875 -0.8285217 -3.734375 -0.82899475q-2.9375 -6.713867E-4 -5.015625 1.8738556q-2.0625 1.8745117 -2.359375 5.2025757l14.765625 0.00340271zm7.6655884 1.62677q0 -3.59375 1.453125 -6.2965393q1.453125 -2.7184143 3.984375 -4.2022095q2.546875 -1.4994049 5.703125 -1.4986725q2.734375 6.2561035E-4 5.078125 1.2667847q2.34375 1.2505493 3.578125 3.3133392l0 -12.375015l3.921875 9.1552734E-4l0 31.5625l-3.921875 -9.0026855E-4l0 -4.390625q-1.15625 2.0934753 -3.421875 3.4367065q-2.25 1.3432312 -5.28125 1.3425293q-3.109375 -7.171631E-4 -5.65625 -1.5325623q-2.53125 -1.5474548 -3.984375 -4.3134155q-1.453125 -2.7815857 -1.453125 -6.3128357zm19.796875 0.035827637q0 -2.640625 -1.0625 -4.5940094q-1.0625 -1.9689941 -2.875 -3.0162811q-1.8125 -1.047287 -4.0 -1.0478058q-2.171875 -4.8828125E-4 -3.96875 1.0303345q-1.78125 1.015213 -2.859375 2.9837189q-1.0625 1.9528809 -1.0625 4.609131q0 2.6875 1.0625 4.672119q1.078125 1.9690094 2.859375 3.0162811q1.796875 1.0473022 3.96875 1.0477905q2.1875 5.187988E-4 4.0 -1.0459442q1.8125 -1.046463 2.875 -3.0149689q1.0625 -1.9841156 1.0625 -4.6403656zm31.318542 12.038467q-2.953125 -6.713867E-4 -5.28125 -1.0480957q-2.3125 -1.047409 -3.640625 -2.8914642q-1.328125 -1.8596802 -1.359375 -4.29718l4.125 9.460449E-4q0.21875 2.0937958 1.734375 3.5316467q1.515625 1.422226 4.421875 1.4228973q2.765625 6.4086914E-4 4.359375 -1.3896179q1.609375 -1.3902588 1.609375 -3.5621338q0 -1.703125 -0.9375 -2.7658386q-0.9375 -1.0627136 -2.359375 -1.609909q-1.40625 -0.5628357 -3.78125 -1.20401q-2.953125 -0.7819214 -4.71875 -1.5479584q-1.765625 -0.766037 -3.03125 -2.406952q-1.25 -1.6409149 -1.25 -4.40654q0 -2.4375 1.234375 -4.31221q1.234375 -1.8747101 3.46875 -2.8898315q2.25 -1.0307312 5.140625 -1.0300598q4.1875 9.613037E-4 6.84375 2.095337q2.671875 2.0787354 3.015625 5.5319366l-4.265625 -9.765625E-4q-0.21875 -1.703186 -1.796875 -3.000412q-1.578125 -1.2972412 -4.171875 -1.2978516q-2.4375 -5.493164E-4 -3.984375 1.2647095q-1.53125 1.249649 -1.53125 3.499649q0 1.625 0.921875 2.6564636q0.921875 1.0158386 2.265625 1.5473938q1.34375 0.53157043 3.765625 1.2196198q2.953125 0.81318665 4.734375 1.6104736q1.796875 0.781662 3.078125 2.422577q1.28125 1.6409302 1.28125 4.45343q0 2.1875 -1.15625 4.1091003q-1.15625 1.9059906 -3.421875 3.1085968q-2.25 1.1869812 -5.3125 1.186264zm36.92978 -12.86647q0 1.109375 -0.125 2.3437195l-18.68747 -0.0043182373q0.21875 3.453186 2.375 5.3911743q2.15625 1.9380035 5.2187195 1.9387054q2.515625 5.79834E-4 4.203125 -1.1708984q1.6875 -1.1714935 2.375 -3.1244507l4.171875 9.613037E-4q-0.9375 3.359146 -3.75 5.4835052q-2.8125 2.1087189 -7.0 2.1077576q-3.3280945 -7.6293945E-4 -5.9530945 -1.5013733q-2.625 -1.5006104 -4.125 -4.250946q-1.484375 -2.750351 -1.484375 -6.375351q0 -3.625 1.453125 -6.3434143q1.453125 -2.7340393 4.078125 -4.202179q2.625 -1.4837646 6.0312195 -1.4829865q3.328125 7.6293945E-4 5.890625 1.454483q2.5625 1.4537201 3.9375 4.0009155q1.390625 2.5315704 1.390625 5.7346954zm-4.0 -0.8134308q0 -2.21875 -0.984375 -3.812729q-0.984375 -1.6096039 -2.671875 -2.4381104q-1.6875 -0.8285217 -3.734375 -0.82899475q-2.9374695 -6.713867E-4 -5.0155945 1.8738556q-2.0625 1.8745117 -2.359375 5.2025757l14.7655945 0.00340271zm7.6655884 1.65802q0 -3.625 1.453125 -6.3277893q1.453125 -2.7184143 4.03125 -4.202194q2.578125 -1.4994049 5.90625 -1.498642q4.3125 0.0010070801 7.109375 2.095398q2.796875 2.0943909 3.6875 5.7977295l-4.1875 -9.765625E-4q-0.59375 -2.1251373 -2.328125 -3.359909q-1.71875 -1.2347717 -4.28125 -1.2353668q-3.328125 -7.6293945E-4 -5.375 2.280014q-2.046875 2.280777 -2.046875 6.452652q0 4.234375 2.046875 6.531723q2.046875 2.297348 5.375 2.298111q2.5625 5.950928E-4 4.265625 -1.1865082q1.703125 -1.2027283 2.34375 -3.405716l4.1875 9.765625E-4q-0.9375 3.5779114 -3.75 5.7335052q-2.8125 2.1556091 -7.046875 2.1546173q-3.328125 -7.6293945E-4 -5.90625 -1.501358q-2.578125 -1.5005951 -4.03125 -4.219681q-1.453125 -2.7347107 -1.453125 -6.4065857zm48.079834 -11.629532l0 23.375l-3.875 -8.8500977E-4l0 -3.453125q-1.109375 1.7966156 -3.09375 2.7961578q-1.984375 0.99954224 -4.375 0.9989929q-2.734375 -6.4086914E-4 -4.90625 -1.1261292q-2.171875 -1.1411285 -3.4375 -3.3914185q-1.25 -2.265915 -1.25 -5.515915l0 -13.6875l3.828125 8.8500977E-4l0 13.1875q0 3.453125 1.75 5.3128967q1.75 1.844162 4.78125 1.8448486q3.109375 7.171631E-4 4.90625 -1.9207306q1.796875 -1.921463 1.796875 -5.577713l0 -12.84375l3.875 8.8500977E-4zm10.456238 3.799286q1.015625 -1.9997559 2.90625 -3.1087036q1.90625 -1.1089325 4.640625 -1.1082916l0 4.0l-1.03125 -2.4414062E-4q-6.515625 -0.0015106201 -6.515625 7.0766144l0 12.718765l-3.890686 -9.0026855E-4l0 -23.375l3.890686 8.8500977E-4l0 3.796875zm14.035706 -7.5905q-1.109375 -2.593994E-4 -1.890625 -0.7660675q-0.765625 -0.76579285 -0.765625 -1.8751678q0 -1.109375 0.765625 -1.8748322q0.78125 -0.7810669 1.890625 -0.7808075q1.0625 2.4414062E-4 1.796875 0.781662q0.75 0.76579285 0.75 1.8751678q0 1.109375 -0.75 1.8748322q-0.734375 0.76545715 -1.796875 0.765213zm1.875 3.7973022l0 23.375l-3.890625 -9.0026855E-4l0 -23.375l3.890625 9.0026855E-4zm11.337158 3.2057495l0 13.78125q0 1.703125 0.71875 2.4064026q0.734375 0.7033081 2.53125 0.7037201l2.859375 6.5612793E-4l0 3.28125l-3.5 -8.087158E-4q-3.25 -7.4768066E-4 -4.875 -1.4855042q-1.609375 -1.5003662 -1.609375 -4.906616l0 -13.78125l-3.03125 -7.019043E-4l0 -3.203125l3.03125 7.019043E-4l0 -5.890625l3.875 9.0026855E-4l0 5.890625l6.109375 0.0014038086l0 3.203125l-6.109375 -0.0014038086zm30.933105 -3.1959991l-14.078125 34.371765l-4.015625 -9.3078613E-4l4.609375 -11.248932l-9.421875 -23.127182l4.296875 9.918213E-4l7.34375 18.939194l7.25 -18.935822l4.015625 9.1552734E-4z" fill-rule="nonzero"/><path fill="#e06666" d="m170.97375 248.71674l0 0c0 -5.725891 4.641754 -10.366791 10.3676605 -10.365723l148.08357 0.027633667c2.7496643 5.0354004E-4 5.3867188 1.0933075 7.3310547 3.0379791c1.9443054 1.9446716 3.036621 4.5819397 3.036621 7.3316193l0 41.469406c0 5.725891 -4.6417847 10.366791 -10.367676 10.365723l-148.08357 -0.027648926c-5.7259064 -0.0010681152 -10.3676605 -4.6436768 -10.3676605 -10.369568z" fill-rule="evenodd"/><path fill="#ffffff" d="m210.55531 270.09445q0 -3.953125 1.78125 -7.0934143q1.78125 -3.1559143 4.84375 -4.936615q3.078125 -1.7806702 6.828125 -1.7799683q4.40625 8.239746E-4 7.6875 2.1264343q3.296875 2.1256104 4.796875 6.0321655l-4.203125 -7.9345703E-4q-1.125 -2.4220886 -3.234375 -3.7349854q-2.109375 -1.3285217 -5.046875 -1.329071q-2.8125 -5.187988E-4 -5.0625 1.327179q-2.234375 1.3121033 -3.515625 3.7337341q-1.28125 2.4060059 -1.28125 5.656006q0 3.203125 1.28125 5.625244q1.28125 2.4064941 3.515625 3.7193909q2.25 1.3129272 5.0625 1.313446q2.9375 5.493164E-4 5.046875 -1.280304q2.109375 -1.2964783 3.234375 -3.7337646l4.203125 7.9345703E-4q-1.5 3.8590698 -4.796875 5.9678345q-3.28125 2.1087646 -7.6875 2.1079407q-3.75 -7.019043E-4 -6.828125 -1.7512817q-3.0625 -1.7661743 -4.84375 -4.89151q-1.78125 -3.1409607 -1.78125 -7.0784607zm40.40512 13.835663q-2.984375 -5.493164E-4 -5.40625 -1.3447571q-2.40625 -1.3598328 -3.78125 -3.844452q-1.375 -2.5002747 -1.375 -5.7815247q0 -3.25 1.40625 -5.7341003q1.421875 -2.4997253 3.859375 -3.8273926q2.4375 -1.3432922 5.453125 -1.3427429q3.015625 5.493164E-4 5.4375153 1.3447571q2.4375 1.3285828 3.84375 3.7976074q1.421875 2.4689941 1.421875 5.765869q0 3.28125 -1.453125 5.781006q-1.453125 2.4841003 -3.921875 3.8430176q-2.4687653 1.3432617 -5.4843903 1.3427124zm0 -3.09375q1.890625 3.6621094E-4 3.546875 -0.8743286q1.6718903 -0.8903198 2.6875153 -2.6713867q1.03125 -1.7810669 1.03125 -4.327942q0 -2.5625 -1.015625 -4.328308q-1.0 -1.7814331 -2.6250153 -2.6567383q-1.625 -0.8753052 -3.515625 -0.87564087q-1.921875 -3.6621094E-4 -3.53125 0.8743286q-1.609375 0.8746948 -2.578125 2.6557617q-0.96875 1.7654419 -0.96875 4.327942q0 2.578125 0.953125 4.359558q0.953125 1.7814331 2.53125 2.6567383q1.59375 0.85964966 3.484375 0.86001587zm19.021255 -14.99646q0.921875 -1.8123169 2.640625 -2.8120117q1.71875 -0.9996643 4.203125 -0.99920654l0 3.625l-0.9375 -1.8310547E-4q-5.90625 -0.0010986328 -5.90625 6.4207764l0 11.515625l-3.53125 -6.4086914E-4l0 -21.1875l3.53125 6.4086914E-4l0 3.4375zm30.215637 6.3493958q0 1.0 -0.109375 2.1249695l-16.9375 -0.0031433105q0.203125 3.1406555 2.15625 4.9066467q1.953125 1.7503662 4.734375 1.750885q2.28125 4.272461E-4 3.796875 -1.0617981q1.53125 -1.0622253 2.15625 -2.8433533l3.78125 7.019043E-4q-0.84375 3.0467224 -3.40625 4.9681396q-2.546875 1.9057617 -6.328125 1.9050598q-3.015625 -5.79834E-4 -5.390625 -1.3447571q-2.375 -1.3598328 -3.734375 -3.844452q-1.359375 -2.5002441 -1.359375 -5.781494q0 -3.296875 1.3125 -5.765381q1.328125 -2.4685059 3.703125 -3.7962036q2.375 -1.3432922 5.46875 -1.3427124q3.015625 5.493164E-4 5.328125 1.3134766q2.328125 1.3129578 3.578125 3.6256714q1.25 2.2971191 1.25 5.187744zm-3.625 -0.7350464q0 -2.0 -0.890625 -3.453308q-0.890625 -1.4532776 -2.421875 -2.2035522q-1.515625 -0.7659302 -3.375 -0.76626587q-2.671875 -4.8828125E-4 -4.546875 1.7022705q-1.875 1.7027893 -2.140625 4.7183533l13.375 0.0025024414z" fill-rule="nonzero"/><path fill="#3c78d8" d="m391.979 248.71674l0 0c0 -5.725891 4.641754 -10.366791 10.367645 -10.365723l148.08359 0.027633667c2.7496948 5.0354004E-4 5.3867188 1.0933075 7.3310547 3.0379791c1.9442749 1.9446716 3.036621 4.5819397 3.036621 7.3316193l0 41.469406c0 5.725891 -4.6417847 10.366791 -10.367676 10.365723l-148.08359 -0.027648926c-5.725891 -0.0010681152 -10.367645 -4.6436768 -10.367645 -10.369568z" fill-rule="evenodd"/><path fill="#ffffff" d="m431.56058 270.09445q0 -3.953125 1.78125 -7.0934143q1.78125 -3.1559143 4.84375 -4.936615q3.078125 -1.7806702 6.828125 -1.7799683q4.40625 8.239746E-4 7.6875 2.1264343q3.296875 2.1256104 4.796875 6.0321655l-4.203125 -7.9345703E-4q-1.125 -2.4220886 -3.234375 -3.7349854q-2.109375 -1.3285217 -5.046875 -1.329071q-2.8125 -5.187988E-4 -5.0625 1.327179q-2.234375 1.3121033 -3.515625 3.7337341q-1.28125 2.4060059 -1.28125 5.656006q0 3.203125 1.28125 5.625244q1.28125 2.4064941 3.515625 3.7193909q2.25 1.3129272 5.0625 1.313446q2.9375 5.493164E-4 5.046875 -1.280304q2.109375 -1.2964783 3.234375 -3.7337646l4.203125 7.9345703E-4q-1.5 3.8590698 -4.796875 5.9678345q-3.28125 2.1087646 -7.6875 2.1079407q-3.75 -7.019043E-4 -6.828125 -1.7512817q-3.0625 -1.7661743 -4.84375 -4.89151q-1.78125 -3.1409607 -1.78125 -7.0784607zm40.40512 13.835663q-2.984375 -5.493164E-4 -5.40625 -1.3447571q-2.40625 -1.3598328 -3.78125 -3.844452q-1.375 -2.5002747 -1.375 -5.7815247q0 -3.25 1.40625 -5.7341003q1.421875 -2.4997253 3.859375 -3.8273926q2.4375 -1.3432922 5.453125 -1.3427429q3.015625 5.493164E-4 5.4375 1.3447571q2.4375 1.3285828 3.84375 3.7976074q1.421875 2.4689941 1.421875 5.765869q0 3.28125 -1.453125 5.781006q-1.453125 2.4841003 -3.921875 3.8430176q-2.46875 1.3432617 -5.484375 1.3427124zm0 -3.09375q1.890625 3.6621094E-4 3.546875 -0.8743286q1.671875 -0.8903198 2.6875 -2.6713867q1.03125 -1.7810669 1.03125 -4.327942q0 -2.5625 -1.015625 -4.328308q-1.0 -1.7814331 -2.625 -2.6567383q-1.625 -0.8753052 -3.515625 -0.87564087q-1.921875 -3.6621094E-4 -3.53125 0.8743286q-1.609375 0.8746948 -2.578125 2.6557617q-0.96875 1.7654419 -0.96875 4.327942q0 2.578125 0.953125 4.359558q0.953125 1.7814331 2.53125 2.6567383q1.59375 0.85964966 3.484375 0.86001587zm19.02124 -14.99646q0.921875 -1.8123169 2.640625 -2.8120117q1.71875 -0.9996643 4.203125 -0.99920654l0 3.625l-0.9375 -1.8310547E-4q-5.90625 -0.0010986328 -5.90625 6.4207764l0 11.515625l-3.53125 -6.4086914E-4l0 -21.1875l3.53125 6.4086914E-4l0 3.4375zm30.215637 6.3493958q0 1.0 -0.109375 2.1249695l-16.9375 -0.0031433105q0.203125 3.1406555 2.15625 4.9066467q1.953125 1.7503662 4.734375 1.750885q2.28125 4.272461E-4 3.796875 -1.0617981q1.53125 -1.0622253 2.15625 -2.8433533l3.78125 7.019043E-4q-0.84375 3.0467224 -3.40625 4.9681396q-2.546875 1.9057617 -6.328125 1.9050598q-3.015625 -5.79834E-4 -5.390625 -1.3447571q-2.375 -1.3598328 -3.734375 -3.844452q-1.359375 -2.5002441 -1.359375 -5.781494q0 -3.296875 1.3125 -5.765381q1.328125 -2.4685059 3.703125 -3.7962036q2.375 -1.3432922 5.46875 -1.3427124q3.015625 5.493164E-4 5.328125 1.3134766q2.328125 1.3129578 3.578125 3.6256714q1.25 2.2971191 1.25 5.187744zm-3.625 -0.7350464q0 -2.0 -0.890625 -3.453308q-0.890625 -1.4532776 -2.421875 -2.2035522q-1.515625 -0.7659302 -3.375 -0.76626587q-2.671875 -4.8828125E-4 -4.546875 1.7022705q-1.875 1.7027893 -2.140625 4.7183533l13.375 0.0025024414z" fill-rule="nonzero"/><path fill="#ff00ff" d="m612.98425 248.71674l0 0c0 -5.725891 4.6417847 -10.366791 10.367676 -10.365723l148.08356 0.027633667c2.7496948 5.0354004E-4 5.3867188 1.0933075 7.3310547 3.0379791c1.9442749 1.9446716 3.036621 4.5819397 3.036621 7.3316193l0 41.469406c0 5.725891 -4.6417847 10.366791 -10.367676 10.365723l-148.08356 -0.027648926c-5.725891 -0.0010681152 -10.367676 -4.6436768 -10.367676 -10.369568z" fill-rule="evenodd"/><path fill="#ffffff" d="m652.5658 270.09445q0 -3.953125 1.78125 -7.0934143q1.78125 -3.1559143 4.84375 -4.936615q3.078125 -1.7806702 6.828125 -1.7799683q4.40625 8.239746E-4 7.6875 2.1264343q3.296875 2.1256104 4.796875 6.0321655l-4.203125 -7.9345703E-4q-1.125 -2.4220886 -3.234375 -3.7349854q-2.109375 -1.3285217 -5.046875 -1.329071q-2.8125 -5.187988E-4 -5.0625 1.327179q-2.234375 1.3121033 -3.515625 3.7337341q-1.28125 2.4060059 -1.28125 5.656006q0 3.203125 1.28125 5.625244q1.28125 2.4064941 3.515625 3.7193909q2.25 1.3129272 5.0625 1.313446q2.9375 5.493164E-4 5.046875 -1.280304q2.109375 -1.2964783 3.234375 -3.7337646l4.203125 7.9345703E-4q-1.5 3.8590698 -4.796875 5.9678345q-3.28125 2.1087646 -7.6875 2.1079407q-3.75 -7.019043E-4 -6.828125 -1.7512817q-3.0625 -1.7661743 -4.84375 -4.89151q-1.78125 -3.1409607 -1.78125 -7.0784607zm40.40515 13.835663q-2.984375 -5.493164E-4 -5.40625 -1.3447571q-2.40625 -1.3598328 -3.78125 -3.844452q-1.375 -2.5002747 -1.375 -5.7815247q0 -3.25 1.40625 -5.7341003q1.421875 -2.4997253 3.859375 -3.8273926q2.4375 -1.3432922 5.453125 -1.3427429q3.015625 5.493164E-4 5.4375 1.3447571q2.4375 1.3285828 3.84375 3.7976074q1.421875 2.4689941 1.421875 5.765869q0 3.28125 -1.453125 5.781006q-1.453125 2.4841003 -3.921875 3.8430176q-2.46875 1.3432617 -5.484375 1.3427124zm0 -3.09375q1.890625 3.6621094E-4 3.546875 -0.8743286q1.671875 -0.8903198 2.6875 -2.6713867q1.03125 -1.7810669 1.03125 -4.327942q0 -2.5625 -1.015625 -4.328308q-1.0 -1.7814331 -2.625 -2.6567383q-1.625 -0.8753052 -3.515625 -0.87564087q-1.921875 -3.6621094E-4 -3.53125 0.8743286q-1.609375 0.8746948 -2.578125 2.6557617q-0.96875 1.7654419 -0.96875 4.327942q0 2.578125 0.953125 4.359558q0.953125 1.7814331 2.53125 2.6567383q1.59375 0.85964966 3.484375 0.86001587zm19.02124 -14.99646q0.921875 -1.8123169 2.640625 -2.8120117q1.71875 -0.9996643 4.203125 -0.99920654l0 3.625l-0.9375 -1.8310547E-4q-5.90625 -0.0010986328 -5.90625 6.4207764l0 11.515625l-3.53125 -6.4086914E-4l0 -21.1875l3.53125 6.4086914E-4l0 3.4375zm30.215637 6.3493958q0 1.0 -0.109375 2.1249695l-16.9375 -0.0031433105q0.203125 3.1406555 2.15625 4.9066467q1.953125 1.7503662 4.734375 1.750885q2.28125 4.272461E-4 3.796875 -1.0617981q1.53125 -1.0622253 2.15625 -2.8433533l3.78125 7.019043E-4q-0.84375 3.0467224 -3.40625 4.9681396q-2.546875 1.9057617 -6.328125 1.9050598q-3.015625 -5.79834E-4 -5.390625 -1.3447571q-2.375 -1.3598328 -3.734375 -3.844452q-1.359375 -2.5002441 -1.359375 -5.781494q0 -3.296875 1.3125 -5.765381q1.328125 -2.4685059 3.703125 -3.7962036q2.375 -1.3432922 5.46875 -1.3427124q3.015625 5.493164E-4 5.328125 1.3134766q2.328125 1.3129578 3.578125 3.6256714q1.25 2.2971191 1.25 5.187744zm-3.625 -0.7350464q0 -2.0 -0.890625 -3.453308q-0.890625 -1.4532776 -2.421875 -2.2035522q-1.515625 -0.7659302 -3.375 -0.76626587q-2.671875 -4.8828125E-4 -4.546875 1.7022705q-1.875 1.7027893 -2.140625 4.7183533l13.375 0.0025024414z" fill-rule="nonzero"/><path fill="#000000" fill-opacity="0.0" d="m697.3937 477.8399l0 -28.188995" fill-rule="evenodd"/><path stroke="#000000" stroke-width="1.0" stroke-linejoin="round" stroke-linecap="butt" d="m697.3937 477.8399l0 -24.761902" fill-rule="evenodd"/><path fill="#000000" stroke="#000000" stroke-width="1.0" stroke-linecap="butt" d="m697.3937 453.078l1.1246338 1.1245728l-1.1246338 -3.0897522l-1.1245728 3.0897522z" fill-rule="evenodd"/><path fill="#000000" fill-opacity="0.0" d="m697.3937 637.7454l0 -28.188965" fill-rule="evenodd"/><path stroke="#000000" stroke-width="1.0" stroke-linejoin="round" stroke-linecap="butt" d="m697.3937 637.7454l0 -24.761902" fill-rule="evenodd"/><path fill="#000000" stroke="#000000" stroke-width="1.0" stroke-linecap="butt" d="m697.3937 612.9835l1.1246338 1.1245728l-1.1246338 -3.0897827l-1.1245728 3.0897827z" fill-rule="evenodd"/></g></svg>