<svg version="1.1" viewBox="0.0 0.0 952.7769028871392 791.6666666666666" fill="none" stroke="none" stroke-linecap="square" stroke-miterlimit="10" xmlns:xlink="http://www.w3.org/1999/xlink" xmlns="http://www.w3.org/2000/svg"><clipPath id="p.0"><path d="m0 0l952.7769 0l0 791.6667l-952.7769 0l0 -791.6667z" clip-rule="nonzero"/></clipPath><g clip-path="url(#p.0)"><path fill="#000000" fill-opacity="0.0" d="m0 0l952.7769 0l0 791.6667l-952.7769 0z" fill-rule="evenodd"/><path fill="#8d3aed" d="m70.56693 71.08732l0 0c0 -19.465164 15.779633 -35.241158 35.244797 -35.236664l748.3766 0.1727066c9.347473 0.0021591187 18.312134 3.7175064 24.921814 10.328716c6.60968 6.611206 10.322937 15.576717 10.322937 24.924221l0 140.97498c0 19.465164 -15.779602 35.24115 -35.24475 35.236664l-748.3766 -0.17271423c-19.465164 -0.004486084 -35.244797 -15.7877655 -35.244797 -35.25293z" fill-rule="evenodd"/><path fill="#ffffff" d="m309.10516 141.51297q2.84375 0.43815613 5.1875 2.3136902q2.359375 1.8599243 3.734375 4.6258698q1.390625 2.7659454 1.390625 5.9065704q0 3.953125 -2.015625 7.124542q-2.015625 3.171402 -5.859375 4.998642q-3.84375 1.82724 -9.078125 1.8260345l-19.40625 -0.004486084l0 -52.03125l18.65625 0.0043029785q5.3125 0.0012283325 9.03125 1.7520905q3.734375 1.7508621 5.59375 4.7512894q1.875 2.9848022 1.875 6.70356q0 4.640625 -2.5 7.671295q-2.5 3.0150452 -6.609375 4.357849zm-19.25 -2.7700653l11.421875 0.0026397705q4.78125 0.0010986328 7.390625 -2.2326813q2.609375 -2.2493896 2.609375 -6.2025146q0 -3.953125 -2.609375 -6.1881027q-2.609375 -2.2506027 -7.546875 -2.2517471l-11.265625 -0.0025939941l0 16.875zm12.015625 23.971527q5.078125 0.001159668 7.90625 -2.3888092q2.84375 -2.3899689 2.84375 -6.639969q0 -4.34375 -2.984375 -6.8444366q-2.984375 -2.5006866 -7.984375 -2.5018463l-11.796875 -0.0027160645l0 18.375l12.015625 0.0027770996zm33.748657 -49.648468l0 55.25l-6.796875 -0.0015716553l0 -55.25l6.796875 0.0015716553zm29.412292 55.928665q-5.75 -0.0013275146 -10.421875 -2.611786q-4.65625 -2.610443 -7.3125 -7.4235535q-2.65625 -4.8287506 -2.65625 -11.172501q0 -6.265625 2.71875 -11.077484q2.734375 -4.8274994 7.4375 -7.388916q4.703125 -2.5770416 10.53125 -2.5756912q5.828125 0.0013427734 10.53125 2.5805588q4.703125 2.5635834 7.421875 7.345459q2.71875 4.7818756 2.71875 11.125626q0 6.34375 -2.796875 11.171234q-2.796875 4.811844 -7.578125 7.4201202q-4.765625 2.6082764 -10.59375 2.6069336zm0 -5.96875q3.65625 8.392334E-4 6.859375 -1.7171631q3.21875 -1.7180176 5.1875 -5.15506q1.984375 -3.4370422 1.984375 -8.358917q0 -4.921875 -1.9375 -8.3598175q-1.9375 -3.4379578 -5.078125 -5.11055q-3.140625 -1.6882324 -6.796875 -1.6890717q-3.734375 -8.544922E-4 -6.828125 1.6859283q-3.09375 1.6711578 -4.96875 5.1082306q-1.859375 3.4370728 -1.859375 8.358948q0 5.0 1.828125 8.437912q1.828125 3.4379272 4.890625 5.126129q3.0625 1.6725922 6.71875 1.6734314zm27.389374 -15.228058q0 -6.34375 2.53125 -11.077545q2.546875 -4.749405 7.0625 -7.3577423q4.515625 -2.6083298 10.34375 -2.606987q7.546875 0.0017471313 12.4375 3.6591263q4.890625 3.6573792 6.453125 10.15773l-7.3125 -0.0016784668q-1.046875 -3.7346191 -4.078125 -5.891571q-3.015625 -2.172577 -7.5 -2.1735992q-5.828125 -0.0013580322 -9.40625 3.997818q-3.578125 3.983551 -3.578125 11.296051q0 7.390625 3.578125 11.422699q3.578125 4.032089 9.40625 4.033432q4.484375 0.0010223389 7.46875 -2.0764008q2.984375 -2.0930634 4.109375 -5.983429l7.3125 0.0016784668q-1.640625 6.265259 -6.578125 10.045364q-4.921875 3.7644806 -12.3125 3.7627869q-5.828125 -0.0013427734 -10.34375 -2.6117706q-4.515625 -2.6104126 -7.0625 -7.3922577q-2.53125 -4.78183 -2.53125 -11.203705zm70.70697 20.547577l-16.046875 -18.066208l0 18.0625l-6.796875 -0.0015716553l0 -55.25l6.796875 0.0015640259l0 32.484383l15.75 -18.136993l9.484375 0.0021896362l-19.265625 20.370552l19.328125 20.535706l-9.25 -0.0021209717zm13.057343 -20.528244q0 -6.34375 2.53125 -11.077545q2.546875 -4.749405 7.0625 -7.3577423q4.515625 -2.6083298 10.34375 -2.606987q7.546875 0.001739502 12.4375 3.6591263q4.890625 3.6573792 6.453125 10.15773l-7.3125 -0.0016784668q-1.046875 -3.7346191 -4.078125 -5.891571q-3.015625 -2.172577 -7.5 -2.1736145q-5.828125 -0.0013427734 -9.40625 3.9978333q-3.578125 3.983551 -3.578125 11.296051q0 7.390625 3.578125 11.422699q3.578125 4.032074 9.40625 4.033432q4.484375 0.0010223389 7.46875 -2.0764008q2.984375 -2.0930634 4.109375 -5.983429l7.3125 0.0016784668q-1.640625 6.2652435 -6.578125 10.045364q-4.921875 3.7644806 -12.3125 3.7627869q-5.828125 -0.0013580322 -10.34375 -2.6117706q-4.515625 -2.6104126 -7.0625 -7.3922577q-2.53125 -4.78183 -2.53125 -11.203705zm68.17572 -21.109268q4.625 0.0010681152 8.359375 1.9862976q3.734375 1.9696198 5.859375 5.938858q2.125 3.9536133 2.125 9.625488l0 24.109375l-6.71875 -0.0015411377l0 -23.140625q0 -6.125 -3.0625 -9.375717q-3.0625 -3.250702 -8.359375 -3.2519226q-5.375 -0.0012359619 -8.546875 3.3574066q-3.171875 3.3586426 -3.171875 9.780518l0 22.625l-6.796875 -0.0015716553l0 -55.25l6.796875 0.0015640259l0 20.156258q2.015625 -3.1245422 5.5625 -4.8424683q3.546875 -1.7179337 7.953125 -1.716919zm24.920654 21.052628q0 -6.265625 2.53125 -10.99942q2.546875 -4.749405 6.984375 -7.3577576q4.453125 -2.6083527 9.90625 -2.6070938q5.375 0.0012435913 9.328125 2.314659q3.953125 2.3134155 5.890625 5.813858l0 -7.453125l6.875 0.0015869141l0 40.90625l-6.875 -0.0015869141l0 -7.609375q-2.015625 3.577652 -6.015625 5.9361115q-3.984375 2.3428345 -9.28125 2.3416138q-5.453125 -0.0012664795 -9.859375 -2.6897888q-4.40625 -2.688507 -6.953125 -7.532852q-2.53125 -4.859955 -2.53125 -11.06308zm34.640625 0.086120605q0 -4.625 -1.859375 -8.062927q-1.859375 -3.4379272 -5.046875 -5.2668q-3.171875 -1.8288574 -6.96875 -1.8297272q-3.8125 -8.8500977E-4 -6.953125 1.7952728q-3.125 1.7805328 -5.0 5.2175903q-1.859375 3.4370728 -1.859375 8.062073q0 4.703125 1.859375 8.187927q1.875 3.4691925 5.0 5.2980347q3.140625 1.8288422 6.953125 1.8297272q3.796875 8.8500977E-4 6.96875 -1.8265228q3.1875 -1.8273773 5.046875 -5.2957q1.859375 -3.4839478 1.859375 -8.108948zm21.87384 -27.026207q-1.9375 -4.4250488E-4 -3.28125 -1.3445053q-1.34375 -1.3440628 -1.34375 -3.2815628q0 -1.9375 1.34375 -3.2809372q1.34375 -1.3434372 3.28125 -1.3429947q1.875 4.348755E-4 3.171875 1.3444824q1.3125 1.3440552 1.3125 3.2815552q0 1.9375 -1.3125 3.2809448q-1.296875 1.3434525 -3.171875 1.3430176zm3.296875 6.657013l0 40.906258l-6.796875 -0.0015716553l0 -40.90625l6.796875 0.0015640259zm31.506104 -0.7427292q7.453125 0.0017242432 12.078125 4.5184174q4.640625 4.516693 4.640625 13.032318l0 24.109375l-6.71875 -0.0015563965l0 -23.140625q0 -6.125 -3.0625 -9.375702q-3.0625 -3.250702 -8.359375 -3.2519226q-5.375 -0.0012512207 -8.546875 3.3573914q-3.171875 3.3586426 -3.171875 9.780518l0 22.625l-6.796875 -0.0015563965l0 -40.906258l6.796875 0.0015716553l0 5.8124924q2.015625 -3.124527 5.484375 -4.8424835q3.46875 -1.7179489 7.65625 -1.71698z" fill-rule="nonzero"/><path fill="#25cc85" d="m408.9134 309.73273l0 0c0 -12.12442 9.828766 -21.95102 21.953186 -21.948334l98.266846 0.021759033c5.8223267 0.0013122559 11.40625 2.3154602 15.523254 6.43338c4.1170044 4.1179504 6.4299316 9.702332 6.4299316 15.524689l0 87.81015c0 12.12442 -9.828796 21.95102 -21.953186 21.948334l-98.266846 -0.02178955c-12.12442 -0.0026855469 -21.953186 -9.833618 -21.953186 -21.958038z" fill-rule="evenodd"/><path fill="#ffffff" d="m436.90405 340.8265l0 26.9375l-3.53125 -7.9345703E-4l0 -26.9375l3.53125 7.9345703E-4zm16.306305 5.378601q3.859375 8.544922E-4 6.25 2.3451233q2.40625 2.3286743 2.40625 6.7349243l0 12.484375l-3.46875 -7.6293945E-4l0 -11.984375q0 -3.171875 -1.59375 -4.844116q-1.578125 -1.6878357 -4.328125 -1.688446q-2.78125 -6.4086914E-4 -4.421875 1.7490234q-1.640625 1.7340088 -1.640625 5.046509l0 11.71875l-3.53125 -7.9345703E-4l0 -21.1875l3.53125 7.9345703E-4l0 3.015625q1.03125 -1.6247864 2.828125 -2.4993896q1.8125 -0.8902283 3.96875 -0.88974zm17.943115 4.2852173q1.03125 -1.8122559 3.09375 -3.030548q2.078125 -1.2182922 4.828125 -1.2176819q2.8125 6.1035156E-4 5.109375 1.3605042q2.3125 1.3442688 3.625 3.7976685q1.3125 2.4534302 1.3125 5.70343q0 3.21875 -1.3125 5.73407q-1.3125 2.4997253 -3.625 3.8898315q-2.296875 1.3901062 -5.109375 1.3894958q-2.703125 -6.1035156E-4 -4.78125 -1.2198181q-2.0625 -1.2192078 -3.140625 -3.031952l0 13.953125l-3.53125 -7.6293945E-4l0 -31.234375l3.53125 7.6293945E-4l0 3.90625zm14.375 6.6125793q0 -2.390625 -0.96875 -4.1720886q-0.96875 -1.7814941 -2.609375 -2.7037048q-1.640625 -0.9378662 -3.609375 -0.938324q-1.9375 -4.272461E-4 -3.578125 0.95233154q-1.640625 0.9527588 -2.625 2.7494202q-0.984375 1.7966614 -0.984375 4.1560364q0 2.390625 0.984375 4.1877136q0.984375 1.7970886 2.625 2.7505798q1.640625 0.9378662 3.578125 0.93829346q1.96875 4.5776367E-4 3.609375 -0.936676q1.640625 -0.9527893 2.609375 -2.7494202q0.96875 -1.7966614 0.96875 -4.2341614zm27.022247 -10.509644l0 21.1875l-3.515625 -7.9345703E-4l0 -3.125q-1.015625 1.6247864 -2.8125 2.5306396q-1.796875 0.9058533 -3.953125 0.905365q-2.484375 -5.493164E-4 -4.453125 -1.0166016q-1.96875 -1.0317078 -3.109375 -3.078827q-1.140625 -2.0627441 -1.140625 -5.000244l0 -12.40625l3.484375 7.6293945E-4l0 11.953125q0 3.125 1.578125 4.812866q1.59375 1.6722107 4.328125 1.672821q2.828125 6.4086914E-4 4.453125 -1.7333984q1.625 -1.7340088 1.625 -5.062134l0 -11.640625l3.515625 7.9345703E-4zm10.23999 2.9085083l0 12.484375q0 1.546875 0.65625 2.1876526q0.65625 0.6407776 2.28125 0.6411133l2.59375 5.79834E-4l0 2.96875l-3.171875 -7.019043E-4q-2.9375 -6.4086914E-4 -4.40625 -1.3447266q-1.46875 -1.3596802 -1.46875 -4.45343l0 -12.484375l-2.75 -6.1035156E-4l0 -2.90625l2.75 6.1035156E-4l0 -5.328125l3.515625 7.6293945E-4l0 5.328125l5.53125 0.0012207031l0 2.90625l-5.53125 -0.0012207031z" fill-rule="nonzero"/><path fill="#25cc85" d="m408.9134 469.63824l0 0c0 -12.12442 9.828766 -21.95102 21.953186 -21.948334l98.266846 0.021759033c5.8223267 0.0012817383 11.40625 2.3154602 15.523254 6.43338c4.1170044 4.1179504 6.4299316 9.702332 6.4299316 15.524689l0 87.81012c0 12.124451 -9.828796 21.95105 -21.953186 21.948364l-98.266846 -0.02178955c-12.12442 -0.0026855469 -21.953186 -9.833618 -21.953186 -21.958069z" fill-rule="evenodd"/><path fill="#ffffff" d="m436.90405 500.732l0 26.9375l-3.53125 -7.9345703E-4l0 -26.93747l3.53125 7.6293945E-4zm16.306305 5.3786316q3.859375 8.544922E-4 6.25 2.3451233q2.40625 2.3286743 2.40625 6.7349243l0 12.484375l-3.46875 -7.9345703E-4l0 -11.984375q0 -3.171875 -1.59375 -4.8440857q-1.578125 -1.6878662 -4.328125 -1.6884766q-2.78125 -6.1035156E-4 -4.421875 1.7490234q-1.640625 1.7340393 -1.640625 5.0465393l0 11.71875l-3.53125 -7.9345703E-4l0 -21.1875l3.53125 7.6293945E-4l0 3.015625q1.03125 -1.6247559 2.828125 -2.4993591q1.8125 -0.8902283 3.96875 -0.88974zm17.943115 4.2852173q1.03125 -1.8122864 3.09375 -3.0305786q2.078125 -1.2182617 4.828125 -1.2176514q2.8125 6.1035156E-4 5.109375 1.3605042q2.3125 1.3442383 3.625 3.7976685q1.3125 2.4534302 1.3125 5.70343q0 3.21875 -1.3125 5.73407q-1.3125 2.4996948 -3.625 3.8898315q-2.296875 1.3900757 -5.109375 1.3894653q-2.703125 -6.1035156E-4 -4.78125 -1.2197876q-2.0625 -1.2192383 -3.140625 -3.0319214l0 13.953125l-3.53125 -7.9345703E-4l0 -31.234406l3.53125 7.9345703E-4l0 3.90625zm14.375 6.6125793q0 -2.390625 -0.96875 -4.172119q-0.96875 -1.7814636 -2.609375 -2.7037048q-1.640625 -0.9378662 -3.609375 -0.93829346q-1.9375 -4.272461E-4 -3.578125 0.95233154q-1.640625 0.9527588 -2.625 2.7494202q-0.984375 1.7966919 -0.984375 4.156067q0 2.390625 0.984375 4.187683q0.984375 1.7971191 2.625 2.7506104q1.640625 0.9378662 3.578125 0.93829346q1.96875 4.272461E-4 3.609375 -0.93670654q1.640625 -0.9527588 2.609375 -2.7494507q0.96875 -1.7966309 0.96875 -4.234131zm27.022247 -10.509644l0 21.1875l-3.515625 -7.9345703E-4l0 -3.125q-1.015625 1.6247559 -2.8125 2.5306396q-1.796875 0.90582275 -3.953125 0.9053345q-2.484375 -5.493164E-4 -4.453125 -1.0166016q-1.96875 -1.0316772 -3.109375 -3.0787964q-1.140625 -2.0627441 -1.140625 -5.000244l0 -12.40625l3.484375 7.6293945E-4l0 11.9530945q0 3.125061 1.578125 4.812866q1.59375 1.6722412 4.328125 1.6728516q2.828125 6.1035156E-4 4.453125 -1.7333984q1.625 -1.7340088 1.625 -5.062134l0 -11.640625l3.515625 7.9345703E-4zm10.23999 2.9085083l0 12.484375q0 1.546875 0.65625 2.187622q0.65625 0.6408081 2.28125 0.6411743l2.59375 5.493164E-4l0 2.96875l-3.171875 -7.324219E-4q-2.9375 -6.1035156E-4 -4.40625 -1.3447266q-1.46875 -1.3596802 -1.46875 -4.45343l0 -12.484375l-2.75 -6.1035156E-4l0 -2.90625l2.75 6.1035156E-4l0 -5.328125l3.515625 7.9345703E-4l0 5.328125l5.53125 0.0012207031l0 2.90625l-5.53125 -0.0012207031z" fill-rule="nonzero"/><path fill="#25cc85" d="m408.9134 629.54376l0 0c0 -12.124451 9.828766 -21.95105 21.953186 -21.948364l98.266846 0.02178955c5.8223267 0.0012817383 11.40625 2.3154297 15.523254 6.4333496c4.1170044 4.117981 6.4299316 9.702332 6.4299316 15.524719l0 87.81012c0 12.124451 -9.828796 21.95105 -21.953186 21.948364l-98.266846 -0.02178955c-12.12442 -0.0026855469 -21.953186 -9.833618 -21.953186 -21.958069z" fill-rule="evenodd"/><path fill="#ffffff" d="m436.90405 660.6375l0 26.9375l-3.53125 -7.9345703E-4l0 -26.9375l3.53125 7.9345703E-4zm16.306305 5.378601q3.859375 8.544922E-4 6.25 2.3451538q2.40625 2.3286743 2.40625 6.7349243l0 12.484375l-3.46875 -7.9345703E-4l0 -11.984375q0 -3.171875 -1.59375 -4.844116q-1.578125 -1.6878052 -4.328125 -1.6884155q-2.78125 -6.1035156E-4 -4.421875 1.7490234q-1.640625 1.7340088 -1.640625 5.046509l0 11.71875l-3.53125 -7.9345703E-4l0 -21.1875l3.53125 7.9345703E-4l0 3.015625q1.03125 -1.6248169 2.828125 -2.4993896q1.8125 -0.8902588 3.96875 -0.8897705zm17.943115 4.2852173q1.03125 -1.8122559 3.09375 -3.0305176q2.078125 -1.2183228 4.828125 -1.2177124q2.8125 6.1035156E-4 5.109375 1.3605347q2.3125 1.3442383 3.625 3.7976685q1.3125 2.4534302 1.3125 5.70343q0 3.21875 -1.3125 5.73407q-1.3125 2.4996948 -3.625 3.8898315q-2.296875 1.3900757 -5.109375 1.3894653q-2.703125 -6.1035156E-4 -4.78125 -1.2197876q-2.0625 -1.2192383 -3.140625 -3.0319824l0 13.953125l-3.53125 -7.324219E-4l0 -31.234375l3.53125 7.324219E-4l0 3.90625zm14.375 6.61261q0 -2.390625 -0.96875 -4.172119q-0.96875 -1.7814331 -2.609375 -2.7036743q-1.640625 -0.9378662 -3.609375 -0.9383545q-1.9375 -4.272461E-4 -3.578125 0.9523926q-1.640625 0.9527588 -2.625 2.7493896q-0.984375 1.7966309 -0.984375 4.156006q0 2.390625 0.984375 4.187744q0.984375 1.7971191 2.625 2.7506104q1.640625 0.9378052 3.578125 0.9382324q1.96875 4.8828125E-4 3.609375 -0.9366455q1.640625 -0.9527588 2.609375 -2.7494507q0.96875 -1.7966309 0.96875 -4.234131zm27.022247 -10.509644l0 21.1875l-3.515625 -7.9345703E-4l0 -3.125q-1.015625 1.6247559 -2.8125 2.5306396q-1.796875 0.90582275 -3.953125 0.9053345q-2.484375 -5.493164E-4 -4.453125 -1.0166016q-1.96875 -1.0316772 -3.109375 -3.0787964q-1.140625 -2.0627441 -1.140625 -5.000244l0 -12.40625l3.484375 7.324219E-4l0 11.953125q0 3.125 1.578125 4.812866q1.59375 1.6722412 4.328125 1.6728516q2.828125 6.1035156E-4 4.453125 -1.7333984q1.625 -1.7340088 1.625 -5.062134l0 -11.640625l3.515625 7.9345703E-4zm10.23999 2.9085083l0 12.484375q0 1.546875 0.65625 2.187622q0.65625 0.6408081 2.28125 0.6411133l2.59375 6.1035156E-4l0 2.96875l-3.171875 -7.324219E-4q-2.9375 -6.1035156E-4 -4.40625 -1.3447266q-1.46875 -1.3596802 -1.46875 -4.45343l0 -12.484375l-2.75 -6.1035156E-4l0 -2.90625l2.75 6.1035156E-4l0 -5.328125l3.515625 7.9345703E-4l0 5.328125l5.53125 0.0012207031l0 2.90625l-5.53125 -0.0012207031z" fill-rule="nonzero"/><path fill="#000000" fill-opacity="0.0" d="m480.0 287.7953l0 -40.37796" fill-rule="evenodd"/><path stroke="#000000" stroke-width="1.0" stroke-linejoin="round" stroke-linecap="butt" d="m480.0 287.7953l0 -34.37796" fill-rule="evenodd"/><path fill="#000000" stroke="#000000" stroke-width="1.0" stroke-linecap="butt" d="m481.65173 253.41733l-1.6517334 -4.538101l-1.6517334 4.538101z" fill-rule="evenodd"/><path fill="#000000" fill-opacity="0.0" d="m480.0 447.70078l0 -28.188965" fill-rule="evenodd"/><path stroke="#000000" stroke-width="1.0" stroke-linejoin="round" stroke-linecap="butt" d="m480.0 447.70078l0 -22.188965" fill-rule="evenodd"/><path fill="#000000" stroke="#000000" stroke-width="1.0" stroke-linecap="butt" d="m481.65173 425.5118l-1.6517334 -4.538086l-1.6517334 4.538086z" fill-rule="evenodd"/><path fill="#000000" fill-opacity="0.0" d="m480.0 607.6063l0 -28.189026" fill-rule="evenodd"/><path stroke="#000000" stroke-width="1.0" stroke-linejoin="round" stroke-linecap="butt" d="m480.0 607.6063l0 -22.189026" fill-rule="evenodd"/><path fill="#000000" stroke="#000000" stroke-width="1.0" stroke-linecap="butt" d="m481.65173 585.4173l-1.6517334 -4.538086l-1.6517334 4.538086z" fill-rule="evenodd"/></g></svg>