<svg version="1.1" viewBox="0.0 0.0 910.1837270341207 356.8897637795276" fill="none" stroke="none" stroke-linecap="square" stroke-miterlimit="10" xmlns:xlink="http://www.w3.org/1999/xlink" xmlns="http://www.w3.org/2000/svg"><clipPath id="p.0"><path d="m0 0l910.1837 0l0 356.88977l-910.1837 0l0 -356.88977z" clip-rule="nonzero"/></clipPath><g clip-path="url(#p.0)"><path fill="#none" d="m0 0l910.1837 0l0 356.88977l-910.1837 0z" fill-rule="evenodd"/><path fill="#000000" fill-opacity="0.0" d="m63.721786 137.6183l0 0c0 -5.3055115 4.300972 -9.606491 9.606491 -9.606491l63.3067 0c2.5478058 0 4.9912415 1.0121155 6.792816 2.813675c1.8015594 1.8015747 2.813675 4.2450104 2.813675 6.792816l0 38.42482c0 5.3055115 -4.3009796 9.606491 -9.606491 9.606491l-63.3067 0c-5.305519 0 -9.606491 -4.3009796 -9.606491 -9.606491z" fill-rule="evenodd"/><path stroke="#24cc85" stroke-width="3.0" stroke-linejoin="round" stroke-linecap="butt" d="m63.721786 137.6183l0 0c0 -5.3055115 4.300972 -9.606491 9.606491 -9.606491l63.3067 0c2.5478058 0 4.9912415 1.0121155 6.792816 2.813675c1.8015594 1.8015747 2.813675 4.2450104 2.813675 6.792816l0 38.42482c0 5.3055115 -4.3009796 9.606491 -9.606491 9.606491l-63.3067 0c-5.305519 0 -9.606491 -4.3009796 -9.606491 -9.606491z" fill-rule="evenodd"/><path fill="#ffffff" d="m84.38673 161.72446q-0.921875 0 -1.65625 -0.328125q-0.71875 -0.328125 -1.140625 -0.90625q-0.40625 -0.578125 -0.40625 -1.34375l1.28125 0q0.078125 0.65625 0.546875 1.109375q0.46875 0.4375 1.375 0.4375q0.875 0 1.375 -0.421875q0.5 -0.4375 0.5 -1.125q0 -0.53125 -0.296875 -0.859375q-0.296875 -0.328125 -0.734375 -0.5q-0.4375 -0.1875 -1.1875 -0.375q-0.921875 -0.25 -1.484375 -0.484375q-0.546875 -0.234375 -0.9375 -0.75q-0.390625 -0.515625 -0.390625 -1.390625q0 -0.75 0.390625 -1.328125q0.390625 -0.59375 1.078125 -0.90625q0.703125 -0.328125 1.609375 -0.328125q1.3125 0 2.140625 0.65625q0.828125 0.640625 0.9375 1.71875l-1.328125 0q-0.0625 -0.53125 -0.5625 -0.9375q-0.5 -0.40625 -1.3125 -0.40625q-0.75 0 -1.234375 0.40625q-0.484375 0.390625 -0.484375 1.09375q0 0.5 0.28125 0.828125q0.296875 0.3125 0.71875 0.484375q0.421875 0.171875 1.171875 0.375q0.921875 0.25 1.484375 0.5q0.5625 0.25 0.953125 0.765625q0.40625 0.515625 0.40625 1.390625q0 0.671875 -0.359375 1.28125q-0.359375 0.59375 -1.0625 0.96875q-0.703125 0.375 -1.671875 0.375zm11.167328 -7.390625l-4.390625 10.734375l-1.25 0l1.4375 -3.515625l-2.953125 -7.21875l1.34375 0l2.296875 5.90625l2.265625 -5.90625l1.25 0zm3.800583 7.421875q-0.84375 0 -1.515625 -0.28125q-0.65625 -0.296875 -1.046875 -0.8125q-0.375 -0.515625 -0.421875 -1.171875l1.25 0q0.0625 0.546875 0.515625 0.890625q0.46875 0.34375 1.203125 0.34375q0.703125 0 1.09375 -0.296875q0.40625 -0.3125 0.40625 -0.78125q0 -0.484375 -0.4375 -0.71875q-0.421875 -0.234375 -1.3125 -0.453125q-0.8125 -0.21875 -1.328125 -0.4375q-0.515625 -0.21875 -0.890625 -0.640625q-0.359375 -0.4375 -0.359375 -1.15625q0 -0.546875 0.328125 -1.015625q0.34375 -0.46875 0.953125 -0.734375q0.625 -0.28125 1.40625 -0.28125q1.21875 0 1.953125 0.609375q0.75 0.609375 0.796875 1.6875l-1.203125 0q-0.046875 -0.578125 -0.46875 -0.921875q-0.40625 -0.34375 -1.125 -0.34375q-0.640625 0 -1.03125 0.28125q-0.390625 0.265625 -0.390625 0.71875q0 0.359375 0.234375 0.59375q0.234375 0.234375 0.578125 0.375q0.359375 0.140625 0.984375 0.3125q0.796875 0.21875 1.28125 0.421875q0.5 0.203125 0.84375 0.625q0.359375 0.40625 0.375 1.078125q0 0.59375 -0.34375 1.078125q-0.328125 0.484375 -0.9375 0.765625q-0.609375 0.265625 -1.390625 0.265625zm5.847885 -6.421875l0 4.296875q0 0.53125 0.21875 0.75q0.234375 0.21875 0.796875 0.21875l0.890625 0l0 1.03125l-1.09375 0q-1.0 0 -1.515625 -0.46875q-0.5 -0.46875 -0.5 -1.53125l0 -4.296875l-0.953125 0l0 -1.0l0.953125 0l0 -1.84375l1.203125 0l0 1.84375l1.90625 0l0 1.0l-1.90625 0zm10.038925 2.359375q0 0.359375 -0.03125 0.734375l-5.84375 0q0.0625 1.078125 0.734375 1.6875q0.671875 0.609375 1.640625 0.609375q0.78125 0 1.3125 -0.359375q0.53125 -0.375 0.734375 -0.984375l1.3125 0q-0.296875 1.046875 -1.1875 1.71875q-0.875 0.65625 -2.171875 0.65625q-1.046875 0 -1.875 -0.46875q-0.8125 -0.46875 -1.28125 -1.328125q-0.453125 -0.859375 -0.453125 -2.0q0 -1.125 0.453125 -1.96875q0.453125 -0.859375 1.265625 -1.3125q0.828125 -0.46875 1.890625 -0.46875q1.03125 0 1.828125 0.453125q0.8125 0.453125 1.234375 1.25q0.4375 0.78125 0.4375 1.78125zm-1.25 -0.25q0 -0.6875 -0.3125 -1.1875q-0.296875 -0.5 -0.828125 -0.75q-0.53125 -0.265625 -1.171875 -0.265625q-0.90625 0 -1.5625 0.59375q-0.640625 0.578125 -0.734375 1.609375l4.609375 0zm11.638412 -3.25q0.84375 0 1.515625 0.359375q0.671875 0.34375 1.0468674 1.0625q0.390625 0.703125 0.390625 1.703125l0 4.3125l-1.2031174 0l0 -4.125q0 -1.09375 -0.546875 -1.671875q-0.53125 -0.59375 -1.453125 -0.59375q-0.9375 0 -1.5 0.609375q-0.5625 0.609375 -0.5625 1.75l0 4.03125l-1.203125 0l0 -4.125q0 -1.09375 -0.546875 -1.671875q-0.53125 -0.59375 -1.4375 -0.59375q-0.953125 0 -1.515625 0.609375q-0.5625 0.609375 -0.5625 1.75l0 4.03125l-1.203125 0l0 -7.296875l1.203125 0l0 1.046875q0.359375 -0.578125 0.96875 -0.875q0.609375 -0.3125 1.34375 -0.3125q0.921875 0 1.625 0.421875q0.703125 0.40625 1.046875 1.203125q0.3125 -0.765625 1.015625 -1.1875q0.703125 -0.4375 1.578125 -0.4375z" fill-rule="nonzero"/><path fill="#000000" fill-opacity="0.0" d="m63.721786 203.93665l0 0c0 -5.3055115 4.300972 -9.606491 9.606491 -9.606491l63.3067 0c2.5478058 0 4.9912415 1.0121155 6.792816 2.813675c1.8015594 1.8015747 2.813675 4.2450256 2.813675 6.792816l0 38.42482c0 5.3055115 -4.3009796 9.606491 -9.606491 9.606491l-63.3067 0c-5.305519 0 -9.606491 -4.3009796 -9.606491 -9.606491z" fill-rule="evenodd"/><path stroke="#24cc85" stroke-width="3.0" stroke-linejoin="round" stroke-linecap="butt" d="m63.721786 203.93665l0 0c0 -5.3055115 4.300972 -9.606491 9.606491 -9.606491l63.3067 0c2.5478058 0 4.9912415 1.0121155 6.792816 2.813675c1.8015594 1.8015747 2.813675 4.2450256 2.813675 6.792816l0 38.42482c0 5.3055115 -4.3009796 9.606491 -9.606491 9.606491l-63.3067 0c-5.305519 0 -9.606491 -4.3009796 -9.606491 -9.606491z" fill-rule="evenodd"/><path fill="#ffffff" d="m89.524956 221.37093q0 1.171875 -0.796875 1.9375q-0.78125 0.765625 -2.40625 0.765625l-1.796875 0l0 3.875l-1.203125 0l0 -9.296875l3.0 0q1.5625 0 2.375 0.765625q0.828125 0.765625 0.828125 1.953125zm-3.203125 1.703125q1.0 0 1.484375 -0.4375q0.484375 -0.4375 0.484375 -1.265625q0 -1.71875 -1.96875 -1.71875l-1.796875 0l0 3.421875l1.796875 0zm4.2638245 1.203125q0 -1.125 0.453125 -1.96875q0.453125 -0.84375 1.234375 -1.3125q0.796875 -0.46875 1.765625 -0.46875q0.96875 0 1.671875 0.421875q0.703125 0.40625 1.046875 1.03125l0 -1.328125l1.234375 0l0 7.296875l-1.234375 0l0 -1.359375q-0.359375 0.640625 -1.078125 1.0625q-0.703125 0.421875 -1.640625 0.421875q-0.984375 0 -1.765625 -0.484375q-0.78125 -0.484375 -1.234375 -1.34375q-0.453125 -0.875 -0.453125 -1.96875zm6.171875 0q0 -0.8125 -0.328125 -1.421875q-0.328125 -0.625 -0.90625 -0.953125q-0.5625 -0.328125 -1.234375 -0.328125q-0.6875 0 -1.25 0.328125q-0.546875 0.3125 -0.890625 0.9375q-0.328125 0.609375 -0.328125 1.4375q0 0.828125 0.328125 1.453125q0.34375 0.625 0.890625 0.953125q0.5625 0.3125 1.25 0.3125q0.671875 0 1.234375 -0.3125q0.578125 -0.328125 0.90625 -0.953125q0.328125 -0.625 0.328125 -1.453125zm4.494156 -6.1875l0 9.859375l-1.203125 0l0 -9.859375l1.203125 0zm3.2787018 0l0 9.859375l-1.203125 0l0 -9.859375l1.203125 0zm8.731827 5.921875q0 0.359375 -0.03125 0.734375l-5.84375 0q0.0625 1.078125 0.734375 1.6875q0.671875 0.609375 1.640625 0.609375q0.78125 0 1.3125 -0.359375q0.53125 -0.375 0.734375 -0.984375l1.3125 0q-0.296875 1.046875 -1.1875 1.71875q-0.875 0.65625 -2.171875 0.65625q-1.046875 0 -1.875 -0.46875q-0.8125 -0.46875 -1.28125 -1.328125q-0.453125 -0.859375 -0.453125 -2.0q0 -1.125 0.453125 -1.96875q0.453125 -0.859375 1.265625 -1.3125q0.828125 -0.46875 1.890625 -0.46875q1.03125 0 1.828125 0.453125q0.8125 0.453125 1.234375 1.25q0.4375 0.78125 0.4375 1.78125zm-1.25 -0.25q0 -0.6875 -0.3125 -1.1875q-0.296875 -0.5 -0.828125 -0.75q-0.53125 -0.265625 -1.171875 -0.265625q-0.90625 0 -1.5625 0.59375q-0.640625 0.578125 -0.734375 1.609375l4.609375 0zm4.3259125 -2.109375l0 4.296875q0 0.53125 0.21875 0.75q0.234375 0.21875 0.796875 0.21875l0.890625 0l0 1.03125l-1.09375 0q-1.0 0 -1.515625 -0.46875q-0.5 -0.46875 -0.5 -1.53125l0 -4.296875l-0.953125 0l0 -1.0l0.953125 0l0 -1.84375l1.203125 0l0 1.84375l1.90625 0l0 1.0l-1.90625 0zm8.86705 4.234375l-4.046875 0l-0.75 2.0625l-1.28125 0l3.359375 -9.234375l1.40625 0l3.34375 9.234375l-1.28125 0l-0.75 -2.0625zm-0.34375 -0.984375l-1.6875 -4.703125l-1.671875 4.703125l3.359375 0z" fill-rule="nonzero"/><path fill="#000000" fill-opacity="0.0" d="m65.72179 270.2537l0 0c0 -5.3055115 4.300972 -9.606506 9.606491 -9.606506l63.3067 0c2.5478058 0 4.9912415 1.0121155 6.792816 2.8136902c1.8015594 1.8015747 2.813675 4.2450256 2.813675 6.792816l0 38.424805c0 5.3055115 -4.3009796 9.606506 -9.606491 9.606506l-63.3067 0c-5.305519 0 -9.606491 -4.300995 -9.606491 -9.606506z" fill-rule="evenodd"/><path stroke="#24cc85" stroke-width="3.0" stroke-linejoin="round" stroke-linecap="butt" d="m65.72179 270.2537l0 0c0 -5.3055115 4.300972 -9.606506 9.606491 -9.606506l63.3067 0c2.5478058 0 4.9912415 1.0121155 6.792816 2.8136902c1.8015594 1.8015747 2.813675 4.2450256 2.813675 6.792816l0 38.424805c0 5.3055115 -4.3009796 9.606506 -9.606491 9.606506l-63.3067 0c-5.305519 0 -9.606491 -4.300995 -9.606491 -9.606506z" fill-rule="evenodd"/><path fill="#ffffff" d="m91.931465 287.68796q0 1.171875 -0.796875 1.9375q-0.78125 0.765625 -2.40625 0.765625l-1.796875 0l0 3.875l-1.203125 0l0 -9.296875l3.0 0q1.5625 0 2.375 0.765625q0.828125 0.765625 0.828125 1.953125zm-3.203125 1.703125q1.0 0 1.484375 -0.4375q0.484375 -0.4375 0.484375 -1.265625q0 -1.71875 -1.96875 -1.71875l-1.796875 0l0 3.421875l1.796875 0zm4.2638245 1.203125q0 -1.125 0.453125 -1.96875q0.453125 -0.84375 1.234375 -1.3125q0.796875 -0.46875 1.765625 -0.46875q0.96875 0 1.671875 0.421875q0.703125 0.40625 1.046875 1.03125l0 -1.328125l1.234375 0l0 7.296875l-1.234375 0l0 -1.359375q-0.359375 0.640625 -1.078125 1.0625q-0.703125 0.421875 -1.640625 0.421875q-0.984375 0 -1.765625 -0.484375q-0.78125 -0.484375 -1.234375 -1.34375q-0.453125 -0.875 -0.453125 -1.96875zm6.171875 0q0 -0.8125 -0.328125 -1.421875q-0.328125 -0.625 -0.90625 -0.953125q-0.5625 -0.328125 -1.234375 -0.328125q-0.6875 0 -1.25 0.328125q-0.546875 0.3125 -0.890625 0.9375q-0.328125 0.609375 -0.328125 1.4375q0 0.828125 0.328125 1.453125q0.34375 0.625 0.890625 0.953125q0.5625 0.3125 1.25 0.3125q0.671875 0 1.234375 -0.3125q0.578125 -0.328125 0.90625 -0.953125q0.328125 -0.625 0.328125 -1.453125zm4.494156 -6.1875l0 9.859375l-1.203125 0l0 -9.859375l1.203125 0zm3.2787018 0l0 9.859375l-1.203125 0l0 -9.859375l1.203125 0zm8.731827 5.921875q0 0.359375 -0.03125 0.734375l-5.84375 0q0.0625 1.078125 0.734375 1.6875q0.671875 0.609375 1.640625 0.609375q0.78125 0 1.3125 -0.359375q0.53125 -0.375 0.734375 -0.984375l1.3125 0q-0.296875 1.046875 -1.1875 1.71875q-0.875 0.65625 -2.171875 0.65625q-1.046875 0 -1.875 -0.46875q-0.8125 -0.46875 -1.28125 -1.328125q-0.453125 -0.859375 -0.453125 -2.0q0 -1.125 0.453125 -1.96875q0.453125 -0.859375 1.265625 -1.3125q0.828125 -0.46875 1.890625 -0.46875q1.03125 0 1.828125 0.453125q0.8125 0.453125 1.234375 1.25q0.4375 0.78125 0.4375 1.78125zm-1.25 -0.25q0 -0.6875 -0.3125 -1.1875q-0.296875 -0.5 -0.828125 -0.75q-0.53125 -0.265625 -1.171875 -0.265625q-0.90625 0 -1.5625 0.59375q-0.640625 0.578125 -0.734375 1.609375l4.609375 0zm4.3259125 -2.109375l0 4.296875q0 0.53125 0.21875 0.75q0.234375 0.21875 0.796875 0.21875l0.890625 0l0 1.03125l-1.09375 0q-1.0 0 -1.515625 -0.46875q-0.5 -0.46875 -0.5 -1.53125l0 -4.296875l-0.953125 0l0 -1.0l0.953125 0l0 -1.84375l1.203125 0l0 1.84375l1.90625 0l0 1.0l-1.90625 0zm8.0233 1.515625q0.515625 0.078125 0.9375 0.421875q0.42186737 0.328125 0.6562424 0.828125q0.25 0.484375 0.25 1.03125q0 0.71875 -0.359375 1.28125q-0.35936737 0.5625 -1.0468674 0.890625q-0.6875 0.328125 -1.625 0.328125l-3.453125 0l0 -9.296875l3.328125 0q0.9375 0 1.609375 0.328125q0.671875 0.3125 0.9999924 0.84375q0.328125 0.53125 0.328125 1.1875q0 0.828125 -0.45311737 1.375q-0.4375 0.53125 -1.171875 0.78125zm-3.4375 -0.5l2.046875 0q0.84375 0 1.3125 -0.390625q0.46875 -0.40625 0.46875 -1.109375q0 -0.703125 -0.46875 -1.109375q-0.46875 -0.40625 -1.34375 -0.40625l-2.015625 0l0 3.015625zm2.15625 4.28125q0.90625 0 1.40625 -0.421875q0.5 -0.4375 0.5 -1.1875q0 -0.78125 -0.53125 -1.21875q-0.53125 -0.453125 -1.421875 -0.453125l-2.109375 0l0 3.28125l2.15625 0z" fill-rule="nonzero"/><path fill="#000000" fill-opacity="0.0" d="m24.257217 85.18386l0 0c0 -3.771843 3.0576859 -6.829529 6.8295326 -6.829529l151.78976 0c1.8112946 0 3.5484161 0.7195358 4.8292084 2.0003204c1.280777 1.2807846 2.0003204 3.0179062 2.0003204 4.8292084l0 27.317314c0 3.7718506 -3.0576935 6.8295364 -6.829529 6.8295364l-151.78976 0c-3.7718468 0 -6.8295326 -3.0576859 -6.8295326 -6.8295364z" fill-rule="evenodd"/><path stroke="#24cc85" stroke-width="3.0" stroke-linejoin="round" stroke-linecap="butt" d="m24.257217 85.18386l0 0c0 -3.771843 3.0576859 -6.829529 6.8295326 -6.829529l151.78976 0c1.8112946 0 3.5484161 0.7195358 4.8292084 2.0003204c1.280777 1.2807846 2.0003204 3.0179062 2.0003204 4.8292084l0 27.317314c0 3.7718506 -3.0576935 6.8295364 -6.829529 6.8295364l-151.78976 0c-3.7718468 0 -6.8295326 -3.0576859 -6.8295326 -6.8295364z" fill-rule="evenodd"/><path fill="#ffffff" d="m71.27216 103.73627q-1.296875 0 -2.359375 -0.609375q-1.0625 -0.609375 -1.6875 -1.6875q-0.609375 -1.09375 -0.609375 -2.453125q0 -1.359375 0.609375 -2.4375q0.625 -1.09375 1.6875 -1.6875q1.0625 -0.609375 2.359375 -0.609375q1.3125 0 2.375 0.609375q1.0625 0.59375 1.671875 1.671875q0.625 1.078125 0.625 2.453125q0 1.375 -0.625 2.453125q-0.609375 1.078125 -1.671875 1.6875q-1.0625 0.609375 -2.375 0.609375zm0 -1.046875q0.96875 0 1.75 -0.453125q0.78125 -0.453125 1.21875 -1.296875q0.453125 -0.84375 0.453125 -1.953125q0 -1.109375 -0.453125 -1.9375q-0.4375 -0.84375 -1.21875 -1.296875q-0.765625 -0.453125 -1.75 -0.453125q-0.984375 0 -1.765625 0.453125q-0.765625 0.453125 -1.21875 1.296875q-0.4375 0.828125 -0.4375 1.9375q0 1.109375 0.4375 1.953125q0.453125 0.84375 1.234375 1.296875q0.78125 0.453125 1.75 0.453125zm9.819611 -6.484375q1.34375 0 2.171875 0.8125q0.828125 0.796875 0.828125 2.3125l0 4.3125l-1.203125 0l0 -4.125q0 -1.09375 -0.546875 -1.671875q-0.546875 -0.59375 -1.5 -0.59375q-0.953125 0 -1.53125 0.609375q-0.5625 0.59375 -0.5625 1.75l0 4.03125l-1.203125 0l0 -7.296875l1.203125 0l0 1.03125q0.359375 -0.5625 0.984375 -0.859375q0.625 -0.3125 1.359375 -0.3125zm12.436218 7.9375l0 1.125l-7.078125 0l0 -1.125l7.078125 0zm3.5194855 -9.796875l0 9.296875l-1.203125 0l0 -9.296875l1.203125 0zm5.622452 1.859375q1.34375 0 2.171875 0.8125q0.828125 0.796875 0.828125 2.3125l0 4.3125l-1.203125 0l0 -4.125q0 -1.09375 -0.546875 -1.671875q-0.546875 -0.59375 -1.5 -0.59375q-0.953125 0 -1.53125 0.609375q-0.5625 0.59375 -0.5625 1.75l0 4.03125l-1.203125 0l0 -7.296875l1.203125 0l0 1.03125q0.359375 -0.5625 0.984375 -0.859375q0.625 -0.3125 1.359375 -0.3125zm5.6080933 -1.046875q-0.34375 0 -0.59375 -0.234375q-0.234375 -0.25 -0.234375 -0.59375q0 -0.34375 0.234375 -0.578125q0.25 -0.25 0.59375 -0.25q0.328125 0 0.5625 0.25q0.234375 0.234375 0.234375 0.578125q0 0.34375 -0.234375 0.59375q-0.234375 0.234375 -0.5625 0.234375zm0.578125 1.1875l0 7.296875l-1.203125 0l0 -7.296875l1.203125 0zm3.5443268 1.0l0 4.296875q0 0.53125 0.21875 0.75q0.234375 0.21875 0.796875 0.21875l0.890625 0l0 1.03125l-1.09375 0q-1.0 0 -1.515625 -0.46875q-0.5 -0.46875 -0.5 -1.53125l0 -4.296875l-0.953125 0l0 -1.0l0.953125 0l0 -1.84375l1.203125 0l0 1.84375l1.90625 0l0 1.0l-1.90625 0zm4.007675 -2.1875q-0.34375 0 -0.59375 -0.234375q-0.234375 -0.25 -0.234375 -0.59375q0 -0.34375 0.234375 -0.578125q0.25 -0.25 0.59375 -0.25q0.328125 0 0.5625 0.25q0.234375 0.234375 0.234375 0.578125q0 0.34375 -0.234375 0.59375q-0.234375 0.234375 -0.5625 0.234375zm0.578125 1.1875l0 7.296875l-1.203125 0l0 -7.296875l1.203125 0zm1.6224518 3.625q0 -1.125 0.453125 -1.96875q0.453125 -0.84375 1.234375 -1.3125q0.796875 -0.46875 1.765625 -0.46875q0.96875 0 1.671875 0.421875q0.703125 0.40625 1.046875 1.03125l0 -1.328125l1.234375 0l0 7.296875l-1.234375 0l0 -1.359375q-0.359375 0.640625 -1.078125 1.0625q-0.703125 0.421875 -1.640625 0.421875q-0.984375 0 -1.765625 -0.484375q-0.78125 -0.484375 -1.234375 -1.34375q-0.453125 -0.875 -0.453125 -1.96875zm6.171875 0q0 -0.8125 -0.328125 -1.421875q-0.328125 -0.625 -0.90625 -0.953125q-0.5625 -0.328125 -1.234375 -0.328125q-0.6875 0 -1.25 0.328125q-0.546875 0.3125 -0.890625 0.9375q-0.328125 0.609375 -0.328125 1.4375q0 0.828125 0.328125 1.453125q0.34375 0.625 0.890625 0.953125q0.5625 0.3125 1.25 0.3125q0.671875 0 1.234375 -0.3125q0.578125 -0.328125 0.90625 -0.953125q0.328125 -0.625 0.328125 -1.453125zm4.4941483 -6.1875l0 9.859375l-1.203125 0l0 -9.859375l1.203125 0zm2.7005768 1.375q-0.34375 0 -0.59375 -0.234375q-0.234375 -0.25 -0.234375 -0.59375q0 -0.34375 0.234375 -0.578125q0.25 -0.25 0.59375 -0.25q0.328125 0 0.5625 0.25q0.234375 0.234375 0.234375 0.578125q0 0.34375 -0.234375 0.59375q-0.234375 0.234375 -0.5625 0.234375zm0.578125 1.1875l0 7.296875l-1.203125 0l0 -7.296875l1.203125 0zm2.9818268 6.296875l3.578125 0l0 1.0l-4.96875 0l0 -1.0l3.546875 -5.3125l-3.515625 0l0 -0.984375l4.90625 0l0 0.984375l-3.546875 5.3125zm11.81427 -2.9375q0 0.359375 -0.03125 0.734375l-5.84375 0q0.0625 1.078125 0.734375 1.6875q0.671875 0.609375 1.640625 0.609375q0.78125 0 1.3125 -0.359375q0.53125 -0.375 0.734375 -0.984375l1.3125 0q-0.296875 1.046875 -1.1875 1.71875q-0.875 0.65625 -2.171875 0.65625q-1.046875 0 -1.875 -0.46875q-0.8125 -0.46875 -1.28125 -1.328125q-0.453125 -0.859375 -0.453125 -2.0q0 -1.125 0.453125 -1.96875q0.453125 -0.859375 1.265625 -1.3125q0.828125 -0.46875 1.890625 -0.46875q1.03125 0 1.828125 0.453125q0.8125 0.453125 1.234375 1.25q0.4375 0.78125 0.4375 1.78125zm-1.25 -0.25q0 -0.6875 -0.3125 -1.1875q-0.296875 -0.5 -0.828125 -0.75q-0.53125 -0.265625 -1.171875 -0.265625q-0.90625 0 -1.5625 0.59375q-0.640625 0.578125 -0.734375 1.609375l4.609375 0z" fill-rule="nonzero"/><path fill="#000000" fill-opacity="0.0" d="m258.63254 85.61956l0 0c0 -3.7718506 3.0577087 -6.8295364 6.829529 -6.8295364l151.78976 0c1.8113098 0 3.5484314 0.71954346 4.8292236 2.000328c1.2807617 1.2807846 2.0003052 3.0179062 2.0003052 4.8292084l0 27.317314c0 3.771843 -3.0576782 6.829529 -6.829529 6.829529l-151.78976 0c-3.77182 0 -6.829529 -3.0576859 -6.829529 -6.829529z" fill-rule="evenodd"/><path stroke="#24cc85" stroke-width="3.0" stroke-linejoin="round" stroke-linecap="butt" d="m258.63254 85.61956l0 0c0 -3.7718506 3.0577087 -6.8295364 6.829529 -6.8295364l151.78976 0c1.8113098 0 3.5484314 0.71954346 4.8292236 2.000328c1.2807617 1.2807846 2.0003052 3.0179062 2.0003052 4.8292084l0 27.317314c0 3.771843 -3.0576782 6.829529 -6.829529 6.829529l-151.78976 0c-3.77182 0 -6.829529 -3.0576859 -6.829529 -6.829529z" fill-rule="evenodd"/><path fill="#ffffff" d="m313.5232 95.78134l0 3.09375l3.390625 0l0 1.0l-3.390625 0l0 3.203125l3.796875 0l0 1.0l-5.0 0l0 -9.296875l5.0 0l0 1.0l-3.796875 0zm9.446655 8.296875l-1.734375 -2.71875l-1.671875 2.71875l-1.265625 0l2.359375 -3.625l-2.359375 -3.671875l1.375 0l1.734375 2.703125l1.65625 -2.703125l1.265625 0l-2.34375 3.609375l2.34375 3.6875l-1.359375 0zm4.0404053 -6.296875l0 4.296875q0 0.53125 0.21875 0.75q0.234375 0.21875 0.796875 0.21875l0.890625 0l0 1.03125l-1.09375 0q-1.0 0 -1.515625 -0.46875q-0.5 -0.46875 -0.5 -1.53125l0 -4.296875l-0.953125 0l0 -1.0l0.953125 0l0 -1.84375l1.203125 0l0 1.84375l1.90625 0l0 1.0l-1.90625 0zm4.5858154 0.171875q0.328125 -0.625 0.921875 -0.96875q0.59375 -0.34375 1.4375 -0.34375l0 1.25l-0.3125 0q-2.046875 0 -2.046875 2.21875l0 3.96875l-1.203125 0l0 -7.296875l1.203125 0l0 1.171875zm4.3932495 -2.359375q-0.34375 0 -0.59375 -0.234375q-0.234375 -0.25 -0.234375 -0.59375q0 -0.34375 0.234375 -0.578125q0.25 -0.25 0.59375 -0.25q0.328125 0 0.5625 0.25q0.234375 0.234375 0.234375 0.578125q0 0.34375 -0.234375 0.59375q-0.234375 0.234375 -0.5625 0.234375zm0.578125 1.1875l0 7.296875l-1.203125 0l0 -7.296875l1.203125 0zm5.6224365 -0.140625q1.34375 0 2.171875 0.8125q0.828125 0.796875 0.828125 2.3125l0 4.3125l-1.203125 0l0 -4.125q0 -1.09375 -0.546875 -1.671875q-0.546875 -0.59375 -1.5 -0.59375q-0.953125 0 -1.53125 0.609375q-0.5625 0.59375 -0.5625 1.75l0 4.03125l-1.203125 0l0 -7.296875l1.203125 0l0 1.03125q0.359375 -0.5625 0.984375 -0.859375q0.625 -0.3125 1.359375 -0.3125zm7.5612183 7.5625q-0.84375 0 -1.515625 -0.28125q-0.65625 -0.296875 -1.046875 -0.8125q-0.375 -0.515625 -0.421875 -1.171875l1.25 0q0.0625 0.546875 0.515625 0.890625q0.46875 0.34375 1.203125 0.34375q0.703125 0 1.09375 -0.296875q0.40625 -0.3125 0.40625 -0.78125q0 -0.484375 -0.4375 -0.71875q-0.421875 -0.234375 -1.3125 -0.453125q-0.8125 -0.21875 -1.328125 -0.4375q-0.515625 -0.21875 -0.890625 -0.640625q-0.359375 -0.4375 -0.359375 -1.15625q0 -0.546875 0.328125 -1.015625q0.34375 -0.46875 0.953125 -0.734375q0.625 -0.28125 1.40625 -0.28125q1.21875 0 1.953125 0.609375q0.75 0.609375 0.796875 1.6875l-1.203125 0q-0.046875 -0.578125 -0.46875 -0.921875q-0.40625 -0.34375 -1.125 -0.34375q-0.640625 0 -1.03125 0.28125q-0.390625 0.265625 -0.390625 0.71875q0 0.359375 0.234375 0.59375q0.234375 0.234375 0.578125 0.375q0.359375 0.140625 0.984375 0.3125q0.796875 0.21875 1.28125 0.421875q0.5 0.203125 0.84375 0.625q0.359375 0.40625 0.375 1.078125q0 0.59375 -0.34375 1.078125q-0.328125 0.484375 -0.9375 0.765625q-0.609375 0.265625 -1.390625 0.265625zm5.0041504 -8.609375q-0.34375 0 -0.59375 -0.234375q-0.234375 -0.25 -0.234375 -0.59375q0 -0.34375 0.234375 -0.578125q0.25 -0.25 0.59375 -0.25q0.328125 0 0.5625 0.25q0.234375 0.234375 0.234375 0.578125q0 0.34375 -0.234375 0.59375q-0.234375 0.234375 -0.5625 0.234375zm0.578125 1.1875l0 7.296875l-1.203125 0l0 -7.296875l1.203125 0zm1.6224365 3.625q0 -1.125 0.453125 -1.96875q0.453125 -0.84375 1.25 -1.3125q0.8125 -0.46875 1.84375 -0.46875q1.359375 0 2.21875 0.65625q0.875 0.640625 1.15625 1.8125l-1.296875 0q-0.1875 -0.671875 -0.734375 -1.046875q-0.53125 -0.390625 -1.34375 -0.390625q-1.03125 0 -1.671875 0.71875q-0.640625 0.703125 -0.640625 2.0q0 1.328125 0.640625 2.046875q0.640625 0.71875 1.671875 0.71875q0.8125 0 1.34375 -0.375q0.53125 -0.375 0.734375 -1.0625l1.296875 0q-0.296875 1.125 -1.171875 1.796875q-0.875 0.671875 -2.203125 0.671875q-1.03125 0 -1.84375 -0.46875q-0.796875 -0.46875 -1.25 -1.3125q-0.453125 -0.859375 -0.453125 -2.015625zm11.121399 3.796875q-0.84375 0 -1.515625 -0.28125q-0.65625 -0.296875 -1.046875 -0.8125q-0.375 -0.515625 -0.421875 -1.171875l1.25 0q0.0625 0.546875 0.515625 0.890625q0.46875 0.34375 1.203125 0.34375q0.703125 0 1.09375 -0.296875q0.40625 -0.3125 0.40625 -0.78125q0 -0.484375 -0.4375 -0.71875q-0.421875 -0.234375 -1.3125 -0.453125q-0.8125 -0.21875 -1.328125 -0.4375q-0.515625 -0.21875 -0.890625 -0.640625q-0.359375 -0.4375 -0.359375 -1.15625q0 -0.546875 0.328125 -1.015625q0.34375 -0.46875 0.953125 -0.734375q0.625 -0.28125 1.40625 -0.28125q1.21875 0 1.953125 0.609375q0.75 0.609375 0.796875 1.6875l-1.203125 0q-0.046875 -0.578125 -0.46875 -0.921875q-0.40625 -0.34375 -1.125 -0.34375q-0.640625 0 -1.03125 0.28125q-0.390625 0.265625 -0.390625 0.71875q0 0.359375 0.234375 0.59375q0.234375 0.234375 0.578125 0.375q0.359375 0.140625 0.984375 0.3125q0.796875 0.21875 1.28125 0.421875q0.5 0.203125 0.84375 0.625q0.359375 0.40625 0.375 1.078125q0 0.59375 -0.34375 1.078125q-0.328125 0.484375 -0.9375 0.765625q-0.609375 0.265625 -1.390625 0.265625z" fill-rule="nonzero"/><path fill="#000000" fill-opacity="0.0" d="m273.62466 135.49883l0 0c0 -3.7718506 3.0577087 -6.829529 6.829529 -6.829529l121.80551 0c1.8113098 0 3.5484314 0.7195282 4.8292236 2.0003204c1.2807617 1.280777 2.0003052 3.0178986 2.0003052 4.8292084l0 27.317307c0 3.7718506 -3.0576782 6.829544 -6.829529 6.829544l-121.80551 0c-3.77182 0 -6.829529 -3.0576935 -6.829529 -6.829544z" fill-rule="evenodd"/><path stroke="#24cc85" stroke-width="3.0" stroke-linejoin="round" stroke-linecap="butt" d="m273.62466 135.49883l0 0c0 -3.7718506 3.0577087 -6.829529 6.829529 -6.829529l121.80551 0c1.8113098 0 3.5484314 0.7195282 4.8292236 2.0003204c1.2807617 1.280777 2.0003052 3.0178986 2.0003052 4.8292084l0 27.317307c0 3.7718506 -3.0576782 6.829544 -6.829529 6.829544l-121.80551 0c-3.77182 0 -6.829529 -3.0576935 -6.829529 -6.829544z" fill-rule="evenodd"/><path fill="#ffffff" d="m308.965 144.6606l0 9.296875l-1.203125 0l0 -9.296875l1.203125 0zm5.6224365 1.859375q1.34375 0 2.171875 0.8125q0.828125 0.796875 0.828125 2.3125l0 4.3125l-1.203125 0l0 -4.125q0 -1.09375 -0.546875 -1.671875q-0.546875 -0.59375 -1.5 -0.59375q-0.953125 0 -1.53125 0.609375q-0.5625 0.59375 -0.5625 1.75l0 4.03125l-1.203125 0l0 -7.296875l1.203125 0l0 1.03125q0.359375 -0.5625 0.984375 -0.859375q0.625 -0.3125 1.359375 -0.3125zm8.608093 0q0.828125 0 1.484375 0.359375q0.671875 0.34375 1.046875 1.0625q0.390625 0.703125 0.390625 1.703125l0 4.3125l-1.203125 0l0 -4.125q0 -1.09375 -0.546875 -1.671875q-0.546875 -0.59375 -1.5 -0.59375q-0.953125 0 -1.53125 0.609375q-0.5625 0.59375 -0.5625 1.75l0 4.03125l-1.203125 0l0 -9.859375l1.203125 0l0 3.59375q0.359375 -0.5625 0.984375 -0.859375q0.640625 -0.3125 1.4375 -0.3125zm11.561218 3.5q0 0.359375 -0.03125 0.734375l-5.84375 0q0.0625 1.078125 0.734375 1.6875q0.671875 0.609375 1.640625 0.609375q0.78125 0 1.3125 -0.359375q0.53125 -0.375 0.734375 -0.984375l1.3125 0q-0.296875 1.046875 -1.1875 1.71875q-0.875 0.65625 -2.171875 0.65625q-1.046875 0 -1.875 -0.46875q-0.8125 -0.46875 -1.28125 -1.328125q-0.453125 -0.859375 -0.453125 -2.0q0 -1.125 0.453125 -1.96875q0.453125 -0.859375 1.265625 -1.3125q0.828125 -0.46875 1.890625 -0.46875q1.03125 0 1.828125 0.453125q0.8125 0.453125 1.234375 1.25q0.4375 0.78125 0.4375 1.78125zm-1.25 -0.25q0 -0.6875 -0.3125 -1.1875q-0.296875 -0.5 -0.828125 -0.75q-0.53125 -0.265625 -1.171875 -0.265625q-0.90625 0 -1.5625 0.59375q-0.640625 0.578125 -0.734375 1.609375l4.609375 0zm4.0603027 -1.9375q0.328125 -0.625 0.921875 -0.96875q0.59375 -0.34375 1.4375 -0.34375l0 1.25l-0.3125 0q-2.046875 0 -2.046875 2.21875l0 3.96875l-1.203125 0l0 -7.296875l1.203125 0l0 1.171875zm10.4244995 2.1875q0 0.359375 -0.03125 0.734375l-5.84375 0q0.0625 1.078125 0.734375 1.6875q0.671875 0.609375 1.640625 0.609375q0.78125 0 1.3125 -0.359375q0.53125 -0.375 0.734375 -0.984375l1.3125 0q-0.296875 1.046875 -1.1875 1.71875q-0.875 0.65625 -2.171875 0.65625q-1.046875 0 -1.875 -0.46875q-0.8125 -0.46875 -1.28125 -1.328125q-0.453125 -0.859375 -0.453125 -2.0q0 -1.125 0.453125 -1.96875q0.453125 -0.859375 1.265625 -1.3125q0.828125 -0.46875 1.890625 -0.46875q1.03125 0 1.828125 0.453125q0.8125 0.453125 1.234375 1.25q0.4375 0.78125 0.4375 1.78125zm-1.25 -0.25q0 -0.6875 -0.3125 -1.1875q-0.296875 -0.5 -0.828125 -0.75q-0.53125 -0.265625 -1.171875 -0.265625q-0.90625 0 -1.5625 0.59375q-0.640625 0.578125 -0.734375 1.609375l4.609375 0zm6.404022 -3.25q1.34375 0 2.171875 0.8125q0.828125 0.796875 0.828125 2.3125l0 4.3125l-1.203125 0l0 -4.125q0 -1.09375 -0.546875 -1.671875q-0.546875 -0.59375 -1.5 -0.59375q-0.953125 0 -1.53125 0.609375q-0.5625 0.59375 -0.5625 1.75l0 4.03125l-1.203125 0l0 -7.296875l1.203125 0l0 1.03125q0.359375 -0.5625 0.984375 -0.859375q0.625 -0.3125 1.359375 -0.3125zm6.4518433 1.140625l0 4.296875q0 0.53125 0.21875 0.75q0.234375 0.21875 0.796875 0.21875l0.890625 0l0 1.03125l-1.09375 0q-1.0 0 -1.515625 -0.46875q-0.5 -0.46875 -0.5 -1.53125l0 -4.296875l-0.953125 0l0 -1.0l0.953125 0l0 -1.84375l1.203125 0l0 1.84375l1.90625 0l0 1.0l-1.90625 0zm10.835815 6.796875l0 1.125l-7.078125 0l0 -1.125l7.078125 0zm1.7850952 -9.03125l0 -1.109375l2.515625 0l0 9.640625l-1.234375 0l0 -8.53125l-1.28125 0z" fill-rule="nonzero"/><path fill="#000000" fill-opacity="0.0" d="m273.62466 185.04738l0 0c0 -3.7718506 3.0577087 -6.829529 6.829529 -6.829529l121.80551 0c1.8113098 0 3.5484314 0.71954346 4.8292236 2.0003204c1.2807617 1.2807922 2.0003052 3.0178986 2.0003052 4.8292084l0 27.317322c0 3.7718353 -3.0576782 6.829529 -6.829529 6.829529l-121.80551 0c-3.77182 0 -6.829529 -3.0576935 -6.829529 -6.829529z" fill-rule="evenodd"/><path stroke="#24cc85" stroke-width="3.0" stroke-linejoin="round" stroke-linecap="butt" d="m273.62466 185.04738l0 0c0 -3.7718506 3.0577087 -6.829529 6.829529 -6.829529l121.80551 0c1.8113098 0 3.5484314 0.71954346 4.8292236 2.0003204c1.2807617 1.2807922 2.0003052 3.0178986 2.0003052 4.8292084l0 27.317322c0 3.7718353 -3.0576782 6.829529 -6.829529 6.829529l-121.80551 0c-3.77182 0 -6.829529 -3.0576935 -6.829529 -6.829529z" fill-rule="evenodd"/><path fill="#ffffff" d="m307.26566 194.20917l0 9.296875l-1.203125 0l0 -9.296875l1.203125 0zm5.6224365 1.859375q1.34375 0 2.171875 0.8125q0.828125 0.796875 0.828125 2.3125l0 4.3125l-1.203125 0l0 -4.125q0 -1.09375 -0.546875 -1.671875q-0.546875 -0.59375 -1.5 -0.59375q-0.953125 0 -1.53125 0.609375q-0.5625 0.59375 -0.5625 1.75l0 4.03125l-1.203125 0l0 -7.296875l1.203125 0l0 1.03125q0.359375 -0.5625 0.984375 -0.859375q0.625 -0.3125 1.359375 -0.3125zm8.608093 0q0.828125 0 1.484375 0.359375q0.671875 0.34375 1.046875 1.0625q0.390625 0.703125 0.390625 1.703125l0 4.3125l-1.203125 0l0 -4.125q0 -1.09375 -0.546875 -1.671875q-0.546875 -0.59375 -1.5 -0.59375q-0.953125 0 -1.53125 0.609375q-0.5625 0.59375 -0.5625 1.75l0 4.03125l-1.203125 0l0 -9.859375l1.203125 0l0 3.59375q0.359375 -0.5625 0.984375 -0.859375q0.640625 -0.3125 1.4375 -0.3125zm11.561218 3.5q0 0.359375 -0.03125 0.734375l-5.84375 0q0.0625 1.078125 0.734375 1.6875q0.671875 0.609375 1.640625 0.609375q0.78125 0 1.3125 -0.359375q0.53125 -0.375 0.734375 -0.984375l1.3125 0q-0.296875 1.046875 -1.1875 1.71875q-0.875 0.65625 -2.171875 0.65625q-1.046875 0 -1.875 -0.46875q-0.8125 -0.46875 -1.28125 -1.328125q-0.453125 -0.859375 -0.453125 -2.0q0 -1.125 0.453125 -1.96875q0.453125 -0.859375 1.265625 -1.3125q0.828125 -0.46875 1.890625 -0.46875q1.03125 0 1.828125 0.453125q0.8125 0.453125 1.234375 1.25q0.4375 0.78125 0.4375 1.78125zm-1.25 -0.25q0 -0.6875 -0.3125 -1.1875q-0.296875 -0.5 -0.828125 -0.75q-0.53125 -0.265625 -1.171875 -0.265625q-0.90625 0 -1.5625 0.59375q-0.640625 0.578125 -0.734375 1.609375l4.609375 0zm4.0603027 -1.9375q0.328125 -0.625 0.921875 -0.96875q0.59375 -0.34375 1.4375 -0.34375l0 1.25l-0.3125 0q-2.046875 0 -2.046875 2.21875l0 3.96875l-1.203125 0l0 -7.296875l1.203125 0l0 1.171875zm10.4244995 2.1875q0 0.359375 -0.03125 0.734375l-5.84375 0q0.0625 1.078125 0.734375 1.6875q0.671875 0.609375 1.640625 0.609375q0.78125 0 1.3125 -0.359375q0.53125 -0.375 0.734375 -0.984375l1.3125 0q-0.296875 1.046875 -1.1875 1.71875q-0.875 0.65625 -2.171875 0.65625q-1.046875 0 -1.875 -0.46875q-0.8125 -0.46875 -1.28125 -1.328125q-0.453125 -0.859375 -0.453125 -2.0q0 -1.125 0.453125 -1.96875q0.453125 -0.859375 1.265625 -1.3125q0.828125 -0.46875 1.890625 -0.46875q1.03125 0 1.828125 0.453125q0.8125 0.453125 1.234375 1.25q0.4375 0.78125 0.4375 1.78125zm-1.25 -0.25q0 -0.6875 -0.3125 -1.1875q-0.296875 -0.5 -0.828125 -0.75q-0.53125 -0.265625 -1.171875 -0.265625q-0.90625 0 -1.5625 0.59375q-0.640625 0.578125 -0.734375 1.609375l4.609375 0zm6.404022 -3.25q1.34375 0 2.171875 0.8125q0.828125 0.796875 0.828125 2.3125l0 4.3125l-1.203125 0l0 -4.125q0 -1.09375 -0.546875 -1.671875q-0.546875 -0.59375 -1.5 -0.59375q-0.953125 0 -1.53125 0.609375q-0.5625 0.59375 -0.5625 1.75l0 4.03125l-1.203125 0l0 -7.296875l1.203125 0l0 1.03125q0.359375 -0.5625 0.984375 -0.859375q0.625 -0.3125 1.359375 -0.3125zm6.4518433 1.140625l0 4.296875q0 0.53125 0.21875 0.75q0.234375 0.21875 0.796875 0.21875l0.890625 0l0 1.03125l-1.09375 0q-1.0 0 -1.515625 -0.46875q-0.5 -0.46875 -0.5 -1.53125l0 -4.296875l-0.953125 0l0 -1.0l0.953125 0l0 -1.84375l1.203125 0l0 1.84375l1.90625 0l0 1.0l-1.90625 0zm10.835815 6.796875l0 1.125l-7.078125 0l0 -1.125l7.078125 0zm1.9725952 -1.46875q1.6875 -1.359375 2.640625 -2.234375q0.96875 -0.875 1.625 -1.828125q0.65625 -0.953125 0.65625 -1.875q0 -0.859375 -0.421875 -1.359375q-0.421875 -0.5 -1.34375 -0.5q-0.90625 0 -1.40625 0.5625q-0.5 0.5625 -0.546875 1.515625l-1.171875 0q0.046875 -1.5 0.90625 -2.3125q0.859375 -0.8125 2.203125 -0.8125q1.375 0 2.171875 0.765625q0.8125 0.75 0.8125 2.09375q0 1.109375 -0.671875 2.15625q-0.65625 1.03125 -1.5 1.828125q-0.828125 0.796875 -2.140625 1.84375l4.59375 0l0 1.015625l-6.40625 0l0 -0.859375z" fill-rule="nonzero"/><path fill="#000000" fill-opacity="0.0" d="m273.62466 234.59593l0 0c0 -3.7718353 3.0577087 -6.829529 6.829529 -6.829529l121.80551 0c1.8113098 0 3.5484314 0.71954346 4.8292236 2.0003204c1.2807617 1.2807922 2.0003052 3.0179138 2.0003052 4.8292084l0 27.317307c0 3.7718506 -3.0576782 6.829529 -6.829529 6.829529l-121.80551 0c-3.77182 0 -6.829529 -3.0576782 -6.829529 -6.829529z" fill-rule="evenodd"/><path stroke="#24cc85" stroke-width="3.0" stroke-linejoin="round" stroke-linecap="butt" d="m273.62466 234.59593l0 0c0 -3.7718353 3.0577087 -6.829529 6.829529 -6.829529l121.80551 0c1.8113098 0 3.5484314 0.71954346 4.8292236 2.0003204c1.2807617 1.2807922 2.0003052 3.0179138 2.0003052 4.8292084l0 27.317307c0 3.7718506 -3.0576782 6.829529 -6.829529 6.829529l-121.80551 0c-3.77182 0 -6.829529 -3.0576782 -6.829529 -6.829529z" fill-rule="evenodd"/><path fill="#ffffff" d="m315.35086 253.14835q-0.921875 0 -1.65625 -0.328125q-0.71875 -0.328125 -1.140625 -0.90625q-0.40625 -0.578125 -0.40625 -1.34375l1.28125 0q0.078125 0.65625 0.546875 1.109375q0.46875 0.4375 1.375 0.4375q0.875 0 1.375 -0.421875q0.5 -0.4375 0.5 -1.125q0 -0.53125 -0.296875 -0.859375q-0.296875 -0.328125 -0.734375 -0.5q-0.4375 -0.1875 -1.1875 -0.375q-0.921875 -0.25 -1.484375 -0.484375q-0.546875 -0.234375 -0.9375 -0.75q-0.390625 -0.515625 -0.390625 -1.390625q0 -0.75 0.390625 -1.328125q0.390625 -0.59375 1.078125 -0.90625q0.703125 -0.328125 1.609375 -0.328125q1.3125 0 2.140625 0.65625q0.828125 0.640625 0.9375 1.71875l-1.328125 0q-0.0625 -0.53125 -0.5625 -0.9375q-0.5 -0.40625 -1.3125 -0.40625q-0.75 0 -1.234375 0.40625q-0.484375 0.390625 -0.484375 1.09375q0 0.5 0.28125 0.828125q0.296875 0.3125 0.71875 0.484375q0.421875 0.171875 1.171875 0.375q0.921875 0.25 1.484375 0.5q0.5625 0.25 0.953125 0.765625q0.40625 0.515625 0.40625 1.390625q0 0.671875 -0.359375 1.28125q-0.359375 0.59375 -1.0625 0.96875q-0.703125 0.375 -1.671875 0.375zm5.511078 -8.578125q-0.34375 0 -0.59375 -0.234375q-0.234375 -0.25 -0.234375 -0.59375q0 -0.34375 0.234375 -0.578125q0.25 -0.25 0.59375 -0.25q0.328125 0 0.5625 0.25q0.234375 0.234375 0.234375 0.578125q0 0.34375 -0.234375 0.59375q-0.234375 0.234375 -0.5625 0.234375zm0.578125 1.1875l0 7.296875l-1.203125 0l0 -7.296875l1.203125 0zm5.075592 -0.125q0.953125 0 1.65625 0.421875q0.71875 0.40625 1.0625 1.03125l0 -1.328125l1.234375 0l0 7.453125q0 1.0 -0.4375 1.78125q-0.421875 0.78125 -1.21875 1.21875q-0.78125 0.4375 -1.84375 0.4375q-1.4375 0 -2.390625 -0.6875q-0.953125 -0.671875 -1.140625 -1.84375l1.203125 0q0.203125 0.671875 0.828125 1.078125q0.625 0.40625 1.5 0.40625q1.0 0 1.625 -0.625q0.640625 -0.625 0.640625 -1.765625l0 -1.53125q-0.359375 0.640625 -1.0625 1.078125q-0.703125 0.421875 -1.65625 0.421875q-0.96875 0 -1.765625 -0.484375q-0.78125 -0.484375 -1.234375 -1.34375q-0.453125 -0.875 -0.453125 -1.96875q0 -1.125 0.453125 -1.96875q0.453125 -0.84375 1.234375 -1.3125q0.796875 -0.46875 1.765625 -0.46875zm2.71875 3.75q0 -0.8125 -0.328125 -1.421875q-0.328125 -0.625 -0.90625 -0.953125q-0.5625 -0.328125 -1.234375 -0.328125q-0.6875 0 -1.25 0.328125q-0.546875 0.3125 -0.890625 0.9375q-0.328125 0.609375 -0.328125 1.4375q0 0.828125 0.328125 1.453125q0.34375 0.625 0.890625 0.953125q0.5625 0.3125 1.25 0.3125q0.671875 0 1.234375 -0.3125q0.578125 -0.328125 0.90625 -0.953125q0.328125 -0.625 0.328125 -1.453125zm6.8378906 -3.765625q1.34375 0 2.171875 0.8125q0.828125 0.796875 0.828125 2.3125l0 4.3125l-1.203125 0l0 -4.125q0 -1.09375 -0.546875 -1.671875q-0.546875 -0.59375 -1.5 -0.59375q-0.953125 0 -1.53125 0.609375q-0.5625 0.59375 -0.5625 1.75l0 4.03125l-1.203125 0l0 -7.296875l1.203125 0l0 1.03125q0.359375 -0.5625 0.984375 -0.859375q0.625 -0.3125 1.359375 -0.3125zm11.639343 3.5q0 0.359375 -0.03125 0.734375l-5.84375 0q0.0625 1.078125 0.734375 1.6875q0.671875 0.609375 1.640625 0.609375q0.78125 0 1.3125 -0.359375q0.53125 -0.375 0.734375 -0.984375l1.3125 0q-0.296875 1.046875 -1.1875 1.71875q-0.875 0.65625 -2.171875 0.65625q-1.046875 0 -1.875 -0.46875q-0.8125 -0.46875 -1.28125 -1.328125q-0.453125 -0.859375 -0.453125 -2.0q0 -1.125 0.453125 -1.96875q0.453125 -0.859375 1.265625 -1.3125q0.828125 -0.46875 1.890625 -0.46875q1.03125 0 1.828125 0.453125q0.8125 0.453125 1.234375 1.25q0.4375 0.78125 0.4375 1.78125zm-1.25 -0.25q0 -0.6875 -0.3125 -1.1875q-0.296875 -0.5 -0.828125 -0.75q-0.53125 -0.265625 -1.171875 -0.265625q-0.90625 0 -1.5625 0.59375q-0.640625 0.578125 -0.734375 1.609375l4.609375 0zm2.4040527 0.515625q0 -1.125 0.453125 -1.96875q0.453125 -0.84375 1.234375 -1.3125q0.796875 -0.46875 1.78125 -0.46875q0.859375 0 1.59375 0.390625q0.734375 0.390625 1.109375 1.03125l0 -3.859375l1.234375 0l0 9.859375l-1.234375 0l0 -1.375q-0.359375 0.65625 -1.0625 1.078125q-0.703125 0.421875 -1.65625 0.421875q-0.96875 0 -1.765625 -0.484375q-0.78125 -0.484375 -1.234375 -1.34375q-0.453125 -0.875 -0.453125 -1.96875zm6.171875 0q0 -0.8125 -0.328125 -1.421875q-0.328125 -0.625 -0.90625 -0.953125q-0.5625 -0.328125 -1.234375 -0.328125q-0.6875 0 -1.25 0.328125q-0.546875 0.3125 -0.890625 0.9375q-0.328125 0.609375 -0.328125 1.4375q0 0.828125 0.328125 1.453125q0.34375 0.625 0.890625 0.953125q0.5625 0.3125 1.25 0.3125q0.671875 0 1.234375 -0.3125q0.578125 -0.328125 0.90625 -0.953125q0.328125 -0.625 0.328125 -1.453125zm10.744141 4.171875l0 1.125l-7.078125 0l0 -1.125l7.078125 0zm1.7851257 -9.03125l0 -1.109375l2.515625 0l0 9.640625l-1.234375 0l0 -8.53125l-1.28125 0z" fill-rule="nonzero"/><path fill="#000000" fill-opacity="0.0" d="m273.62466 284.1445l0 0c0 -3.7718506 3.0577087 -6.829529 6.829529 -6.829529l121.80551 0c1.8113098 0 3.5484314 0.71951294 4.8292236 2.0003052c1.2807617 1.2807922 2.0003052 3.0179138 2.0003052 4.8292236l0 27.317291c0 3.7718506 -3.0576782 6.8295593 -6.829529 6.8295593l-121.80551 0c-3.77182 0 -6.829529 -3.0577087 -6.829529 -6.8295593z" fill-rule="evenodd"/><path stroke="#24cc85" stroke-width="3.0" stroke-linejoin="round" stroke-linecap="butt" d="m273.62466 284.1445l0 0c0 -3.7718506 3.0577087 -6.829529 6.829529 -6.829529l121.80551 0c1.8113098 0 3.5484314 0.71951294 4.8292236 2.0003052c1.2807617 1.2807922 2.0003052 3.0179138 2.0003052 4.8292236l0 27.317291c0 3.7718506 -3.0576782 6.8295593 -6.829529 6.8295593l-121.80551 0c-3.77182 0 -6.829529 -3.0577087 -6.829529 -6.8295593z" fill-rule="evenodd"/><path fill="#ffffff" d="m313.65152 302.6969q-0.921875 0 -1.65625 -0.328125q-0.71875 -0.328125 -1.140625 -0.90625q-0.40625 -0.578125 -0.40625 -1.34375l1.28125 0q0.078125 0.65625 0.546875 1.109375q0.46875 0.4375 1.375 0.4375q0.875 0 1.375 -0.421875q0.5 -0.4375 0.5 -1.125q0 -0.53125 -0.296875 -0.859375q-0.296875 -0.328125 -0.734375 -0.5q-0.4375 -0.1875 -1.1875 -0.375q-0.921875 -0.25 -1.484375 -0.484375q-0.546875 -0.234375 -0.9375 -0.75q-0.390625 -0.515625 -0.390625 -1.390625q0 -0.75 0.390625 -1.328125q0.390625 -0.59375 1.078125 -0.90625q0.703125 -0.328125 1.609375 -0.328125q1.3125 0 2.140625 0.65625q0.828125 0.640625 0.9375 1.71875l-1.328125 0q-0.0625 -0.53125 -0.5625 -0.9375q-0.5 -0.40625 -1.3125 -0.40625q-0.75 0 -1.234375 0.40625q-0.484375 0.390625 -0.484375 1.09375q0 0.5 0.28125 0.828125q0.296875 0.3125 0.71875 0.484375q0.421875 0.171875 1.171875 0.375q0.921875 0.25 1.484375 0.5q0.5625 0.25 0.953125 0.765625q0.40625 0.515625 0.40625 1.390625q0 0.671875 -0.359375 1.28125q-0.359375 0.59375 -1.0625 0.96875q-0.703125 0.375 -1.671875 0.375zm5.511078 -8.578125q-0.34375 0 -0.59375 -0.234375q-0.234375 -0.25 -0.234375 -0.59375q0 -0.34375 0.234375 -0.578125q0.25 -0.25 0.59375 -0.25q0.328125 0 0.5625 0.25q0.234375 0.234375 0.234375 0.578125q0 0.34375 -0.234375 0.59375q-0.234375 0.234375 -0.5625 0.234375zm0.578125 1.1875l0 7.296875l-1.203125 0l0 -7.296875l1.203125 0zm5.075592 -0.125q0.953125 0 1.65625 0.421875q0.71875 0.40625 1.0625 1.03125l0 -1.328125l1.234375 0l0 7.453125q0 1.0 -0.4375 1.78125q-0.421875 0.78125 -1.21875 1.21875q-0.78125 0.4375 -1.84375 0.4375q-1.4375 0 -2.390625 -0.6875q-0.953125 -0.671875 -1.140625 -1.84375l1.203125 0q0.203125 0.671875 0.828125 1.078125q0.625 0.40625 1.5 0.40625q1.0 0 1.625 -0.625q0.640625 -0.625 0.640625 -1.765625l0 -1.53125q-0.359375 0.640625 -1.0625 1.078125q-0.703125 0.421875 -1.65625 0.421875q-0.96875 0 -1.765625 -0.484375q-0.78125 -0.484375 -1.234375 -1.34375q-0.453125 -0.875 -0.453125 -1.96875q0 -1.125 0.453125 -1.96875q0.453125 -0.84375 1.234375 -1.3125q0.796875 -0.46875 1.765625 -0.46875zm2.71875 3.75q0 -0.8125 -0.328125 -1.421875q-0.328125 -0.625 -0.90625 -0.953125q-0.5625 -0.328125 -1.234375 -0.328125q-0.6875 0 -1.25 0.328125q-0.546875 0.3125 -0.890625 0.9375q-0.328125 0.609375 -0.328125 1.4375q0 0.828125 0.328125 1.453125q0.34375 0.625 0.890625 0.953125q0.5625 0.3125 1.25 0.3125q0.671875 0 1.234375 -0.3125q0.578125 -0.328125 0.90625 -0.953125q0.328125 -0.625 0.328125 -1.453125zm6.8378906 -3.765625q1.34375 0 2.171875 0.8125q0.828125 0.796875 0.828125 2.3125l0 4.3125l-1.203125 0l0 -4.125q0 -1.09375 -0.546875 -1.671875q-0.546875 -0.59375 -1.5 -0.59375q-0.953125 0 -1.53125 0.609375q-0.5625 0.59375 -0.5625 1.75l0 4.03125l-1.203125 0l0 -7.296875l1.203125 0l0 1.03125q0.359375 -0.5625 0.984375 -0.859375q0.625 -0.3125 1.359375 -0.3125zm11.639343 3.5q0 0.359375 -0.03125 0.734375l-5.84375 0q0.0625 1.078125 0.734375 1.6875q0.671875 0.609375 1.640625 0.609375q0.78125 0 1.3125 -0.359375q0.53125 -0.375 0.734375 -0.984375l1.3125 0q-0.296875 1.046875 -1.1875 1.71875q-0.875 0.65625 -2.171875 0.65625q-1.046875 0 -1.875 -0.46875q-0.8125 -0.46875 -1.28125 -1.328125q-0.453125 -0.859375 -0.453125 -2.0q0 -1.125 0.453125 -1.96875q0.453125 -0.859375 1.265625 -1.3125q0.828125 -0.46875 1.890625 -0.46875q1.03125 0 1.828125 0.453125q0.8125 0.453125 1.234375 1.25q0.4375 0.78125 0.4375 1.78125zm-1.25 -0.25q0 -0.6875 -0.3125 -1.1875q-0.296875 -0.5 -0.828125 -0.75q-0.53125 -0.265625 -1.171875 -0.265625q-0.90625 0 -1.5625 0.59375q-0.640625 0.578125 -0.734375 1.609375l4.609375 0zm2.4040527 0.515625q0 -1.125 0.453125 -1.96875q0.453125 -0.84375 1.234375 -1.3125q0.796875 -0.46875 1.78125 -0.46875q0.859375 0 1.59375 0.390625q0.734375 0.390625 1.109375 1.03125l0 -3.859375l1.234375 0l0 9.859375l-1.234375 0l0 -1.375q-0.359375 0.65625 -1.0625 1.078125q-0.703125 0.421875 -1.65625 0.421875q-0.96875 0 -1.765625 -0.484375q-0.78125 -0.484375 -1.234375 -1.34375q-0.453125 -0.875 -0.453125 -1.96875zm6.171875 0q0 -0.8125 -0.328125 -1.421875q-0.328125 -0.625 -0.90625 -0.953125q-0.5625 -0.328125 -1.234375 -0.328125q-0.6875 0 -1.25 0.328125q-0.546875 0.3125 -0.890625 0.9375q-0.328125 0.609375 -0.328125 1.4375q0 0.828125 0.328125 1.453125q0.34375 0.625 0.890625 0.953125q0.5625 0.3125 1.25 0.3125q0.671875 0 1.234375 -0.3125q0.578125 -0.328125 0.90625 -0.953125q0.328125 -0.625 0.328125 -1.453125zm10.744141 4.171875l0 1.125l-7.078125 0l0 -1.125l7.078125 0zm1.9726257 -1.46875q1.6875 -1.359375 2.640625 -2.234375q0.96875 -0.875 1.625 -1.828125q0.65625 -0.953125 0.65625 -1.875q0 -0.859375 -0.421875 -1.359375q-0.421875 -0.5 -1.34375 -0.5q-0.90625 0 -1.40625 0.5625q-0.5 0.5625 -0.546875 1.515625l-1.171875 0q0.046875 -1.5 0.90625 -2.3125q0.859375 -0.8125 2.203125 -0.8125q1.375 0 2.171875 0.765625q0.8125 0.75 0.8125 2.09375q0 1.109375 -0.671875 2.15625q-0.65625 1.03125 -1.5 1.828125q-0.828125 0.796875 -2.140625 1.84375l4.59375 0l0 1.015625l-6.40625 0l0 -0.859375z" fill-rule="nonzero"/><path fill="#000000" fill-opacity="0.0" d="m534.4724 137.72722l0 0c0 -5.3055115 4.3010254 -9.606491 9.606506 -9.606491l63.3067 0c2.5477905 0 4.991272 1.0121155 6.7928467 2.8136902c1.8015747 1.8015594 2.8136597 4.2450104 2.8136597 6.792801l0 38.42482c0 5.3055115 -4.3009644 9.606491 -9.606506 9.606491l-63.3067 0c-5.305481 0 -9.606506 -4.3009796 -9.606506 -9.606491z" fill-rule="evenodd"/><path stroke="#24cc85" stroke-width="3.0" stroke-linejoin="round" stroke-linecap="butt" d="m534.4724 137.72722l0 0c0 -5.3055115 4.3010254 -9.606491 9.606506 -9.606491l63.3067 0c2.5477905 0 4.991272 1.0121155 6.7928467 2.8136902c1.8015747 1.8015594 2.8136597 4.2450104 2.8136597 6.792801l0 38.42482c0 5.3055115 -4.3009644 9.606491 -9.606506 9.606491l-63.3067 0c-5.305481 0 -9.606506 -4.3009796 -9.606506 -9.606491z" fill-rule="evenodd"/><path fill="#ffffff" d="m555.1374 161.83339q-0.921875 0 -1.65625 -0.328125q-0.71875 -0.328125 -1.140625 -0.90625q-0.40625 -0.578125 -0.40625 -1.34375l1.28125 0q0.078125 0.65625 0.546875 1.109375q0.46875 0.4375 1.375 0.4375q0.875 0 1.375 -0.421875q0.5 -0.4375 0.5 -1.125q0 -0.53125 -0.296875 -0.859375q-0.296875 -0.328125 -0.734375 -0.5q-0.4375 -0.1875 -1.1875 -0.375q-0.921875 -0.25 -1.484375 -0.484375q-0.546875 -0.234375 -0.9375 -0.75q-0.390625 -0.515625 -0.390625 -1.390625q0 -0.75 0.390625 -1.328125q0.390625 -0.59375 1.078125 -0.90625q0.703125 -0.328125 1.609375 -0.328125q1.3125 0 2.140625 0.65625q0.828125 0.640625 0.9375 1.71875l-1.328125 0q-0.0625 -0.53125 -0.5625 -0.9375q-0.5 -0.40625 -1.3125 -0.40625q-0.75 0 -1.234375 0.40625q-0.484375 0.390625 -0.484375 1.09375q0 0.5 0.28125 0.828125q0.296875 0.3125 0.71875 0.484375q0.421875 0.171875 1.171875 0.375q0.921875 0.25 1.484375 0.5q0.5625 0.25 0.953125 0.765625q0.40625 0.515625 0.40625 1.390625q0 0.671875 -0.359375 1.28125q-0.359375 0.59375 -1.0625 0.96875q-0.703125 0.375 -1.671875 0.375zm11.167297 -7.390625l-4.390625 10.734375l-1.25 0l1.4375 -3.515625l-2.953125 -7.21875l1.34375 0l2.296875 5.90625l2.265625 -5.90625l1.25 0zm3.8005981 7.421875q-0.84375 0 -1.515625 -0.28125q-0.65625 -0.296875 -1.046875 -0.8125q-0.375 -0.515625 -0.421875 -1.171875l1.25 0q0.0625 0.546875 0.515625 0.890625q0.46875 0.34375 1.203125 0.34375q0.703125 0 1.09375 -0.296875q0.40625 -0.3125 0.40625 -0.78125q0 -0.484375 -0.4375 -0.71875q-0.421875 -0.234375 -1.3125 -0.453125q-0.8125 -0.21875 -1.328125 -0.4375q-0.515625 -0.21875 -0.890625 -0.640625q-0.359375 -0.4375 -0.359375 -1.15625q0 -0.546875 0.328125 -1.015625q0.34375 -0.46875 0.953125 -0.734375q0.625 -0.28125 1.40625 -0.28125q1.21875 0 1.953125 0.609375q0.75 0.609375 0.796875 1.6875l-1.203125 0q-0.046875 -0.578125 -0.46875 -0.921875q-0.40625 -0.34375 -1.125 -0.34375q-0.640625 0 -1.03125 0.28125q-0.390625 0.265625 -0.390625 0.71875q0 0.359375 0.234375 0.59375q0.234375 0.234375 0.578125 0.375q0.359375 0.140625 0.984375 0.3125q0.796875 0.21875 1.28125 0.421875q0.5 0.203125 0.84375 0.625q0.359375 0.40625 0.375 1.078125q0 0.59375 -0.34375 1.078125q-0.328125 0.484375 -0.9375 0.765625q-0.609375 0.265625 -1.390625 0.265625zm5.8479004 -6.421875l0 4.296875q0 0.53125 0.21875 0.75q0.234375 0.21875 0.796875 0.21875l0.890625 0l0 1.03125l-1.09375 0q-1.0 0 -1.515625 -0.46875q-0.5 -0.46875 -0.5 -1.53125l0 -4.296875l-0.953125 0l0 -1.0l0.953125 0l0 -1.84375l1.203125 0l0 1.84375l1.90625 0l0 1.0l-1.90625 0zm10.03894 2.359375q0 0.359375 -0.03125 0.734375l-5.84375 0q0.0625 1.078125 0.734375 1.6875q0.671875 0.609375 1.640625 0.609375q0.78125 0 1.3125 -0.359375q0.53125 -0.375 0.734375 -0.984375l1.3125 0q-0.296875 1.046875 -1.1875 1.71875q-0.875 0.65625 -2.171875 0.65625q-1.046875 0 -1.875 -0.46875q-0.8125 -0.46875 -1.28125 -1.328125q-0.453125 -0.859375 -0.453125 -2.0q0 -1.125 0.453125 -1.96875q0.453125 -0.859375 1.265625 -1.3125q0.828125 -0.46875 1.890625 -0.46875q1.03125 0 1.828125 0.453125q0.8125 0.453125 1.234375 1.25q0.4375 0.78125 0.4375 1.78125zm-1.25 -0.25q0 -0.6875 -0.3125 -1.1875q-0.296875 -0.5 -0.828125 -0.75q-0.53125 -0.265625 -1.171875 -0.265625q-0.90625 0 -1.5625 0.59375q-0.640625 0.578125 -0.734375 1.609375l4.609375 0zm11.638367 -3.25q0.84375 0 1.515625 0.359375q0.671875 0.34375 1.046875 1.0625q0.390625 0.703125 0.390625 1.703125l0 4.3125l-1.203125 0l0 -4.125q0 -1.09375 -0.546875 -1.671875q-0.53125 -0.59375 -1.453125 -0.59375q-0.9375 0 -1.5 0.609375q-0.5625 0.609375 -0.5625 1.75l0 4.03125l-1.203125 0l0 -4.125q0 -1.09375 -0.546875 -1.671875q-0.53125 -0.59375 -1.4375 -0.59375q-0.953125 0 -1.515625 0.609375q-0.5625 0.609375 -0.5625 1.75l0 4.03125l-1.203125 0l0 -7.296875l1.203125 0l0 1.046875q0.359375 -0.578125 0.96875 -0.875q0.609375 -0.3125 1.34375 -0.3125q0.921875 0 1.625 0.421875q0.703125 0.40625 1.046875 1.203125q0.3125 -0.765625 1.015625 -1.1875q0.703125 -0.4375 1.578125 -0.4375z" fill-rule="nonzero"/><path fill="#000000" fill-opacity="0.0" d="m534.4724 203.93665l0 0c0 -5.3055115 4.3010254 -9.606491 9.606506 -9.606491l63.3067 0c2.5477905 0 4.991272 1.0121155 6.7928467 2.813675c1.8015747 1.8015747 2.8136597 4.2450256 2.8136597 6.792816l0 38.42482c0 5.3055115 -4.3009644 9.606491 -9.606506 9.606491l-63.3067 0c-5.305481 0 -9.606506 -4.3009796 -9.606506 -9.606491z" fill-rule="evenodd"/><path stroke="#24cc85" stroke-width="3.0" stroke-linejoin="round" stroke-linecap="butt" d="m534.4724 203.93665l0 0c0 -5.3055115 4.3010254 -9.606491 9.606506 -9.606491l63.3067 0c2.5477905 0 4.991272 1.0121155 6.7928467 2.813675c1.8015747 1.8015747 2.8136597 4.2450256 2.8136597 6.792816l0 38.42482c0 5.3055115 -4.3009644 9.606491 -9.606506 9.606491l-63.3067 0c-5.305481 0 -9.606506 -4.3009796 -9.606506 -9.606491z" fill-rule="evenodd"/><path fill="#ffffff" d="m560.27563 221.37093q0 1.171875 -0.796875 1.9375q-0.78125 0.765625 -2.40625 0.765625l-1.796875 0l0 3.875l-1.203125 0l0 -9.296875l3.0 0q1.5625 0 2.375 0.765625q0.828125 0.765625 0.828125 1.953125zm-3.203125 1.703125q1.0 0 1.484375 -0.4375q0.484375 -0.4375 0.484375 -1.265625q0 -1.71875 -1.96875 -1.71875l-1.796875 0l0 3.421875l1.796875 0zm4.263794 1.203125q0 -1.125 0.453125 -1.96875q0.453125 -0.84375 1.234375 -1.3125q0.796875 -0.46875 1.765625 -0.46875q0.96875 0 1.671875 0.421875q0.703125 0.40625 1.046875 1.03125l0 -1.328125l1.234375 0l0 7.296875l-1.234375 0l0 -1.359375q-0.359375 0.640625 -1.078125 1.0625q-0.703125 0.421875 -1.640625 0.421875q-0.984375 0 -1.765625 -0.484375q-0.78125 -0.484375 -1.234375 -1.34375q-0.453125 -0.875 -0.453125 -1.96875zm6.171875 0q0 -0.8125 -0.328125 -1.421875q-0.328125 -0.625 -0.90625 -0.953125q-0.5625 -0.328125 -1.234375 -0.328125q-0.6875 0 -1.25 0.328125q-0.546875 0.3125 -0.890625 0.9375q-0.328125 0.609375 -0.328125 1.4375q0 0.828125 0.328125 1.453125q0.34375 0.625 0.890625 0.953125q0.5625 0.3125 1.25 0.3125q0.671875 0 1.234375 -0.3125q0.578125 -0.328125 0.90625 -0.953125q0.328125 -0.625 0.328125 -1.453125zm4.4941406 -6.1875l0 9.859375l-1.203125 0l0 -9.859375l1.203125 0zm3.2787476 0l0 9.859375l-1.203125 0l0 -9.859375l1.203125 0zm8.731812 5.921875q0 0.359375 -0.03125 0.734375l-5.84375 0q0.0625 1.078125 0.734375 1.6875q0.671875 0.609375 1.640625 0.609375q0.78125 0 1.3125 -0.359375q0.53125 -0.375 0.734375 -0.984375l1.3125 0q-0.296875 1.046875 -1.1875 1.71875q-0.875 0.65625 -2.171875 0.65625q-1.046875 0 -1.875 -0.46875q-0.8125 -0.46875 -1.28125 -1.328125q-0.453125 -0.859375 -0.453125 -2.0q0 -1.125 0.453125 -1.96875q0.453125 -0.859375 1.265625 -1.3125q0.828125 -0.46875 1.890625 -0.46875q1.03125 0 1.828125 0.453125q0.8125 0.453125 1.234375 1.25q0.4375 0.78125 0.4375 1.78125zm-1.25 -0.25q0 -0.6875 -0.3125 -1.1875q-0.296875 -0.5 -0.828125 -0.75q-0.53125 -0.265625 -1.171875 -0.265625q-0.90625 0 -1.5625 0.59375q-0.640625 0.578125 -0.734375 1.609375l4.609375 0zm4.3259277 -2.109375l0 4.296875q0 0.53125 0.21875 0.75q0.234375 0.21875 0.796875 0.21875l0.890625 0l0 1.03125l-1.09375 0q-1.0 0 -1.515625 -0.46875q-0.5 -0.46875 -0.5 -1.53125l0 -4.296875l-0.953125 0l0 -1.0l0.953125 0l0 -1.84375l1.203125 0l0 1.84375l1.90625 0l0 1.0l-1.90625 0zm8.867004 4.234375l-4.046875 0l-0.75 2.0625l-1.28125 0l3.359375 -9.234375l1.40625 0l3.34375 9.234375l-1.28125 0l-0.75 -2.0625zm-0.34375 -0.984375l-1.6875 -4.703125l-1.671875 4.703125l3.359375 0z" fill-rule="nonzero"/><path fill="#000000" fill-opacity="0.0" d="m534.4724 270.1461l0 0c0 -5.305542 4.3010254 -9.606506 9.606506 -9.606506l63.3067 0c2.5477905 0 4.991272 1.0121155 6.7928467 2.8136902c1.8015747 1.8015442 2.8136597 4.244995 2.8136597 6.792816l0 38.424805c0 5.3055115 -4.3009644 9.606476 -9.606506 9.606476l-63.3067 0c-5.305481 0 -9.606506 -4.3009644 -9.606506 -9.606476z" fill-rule="evenodd"/><path stroke="#24cc85" stroke-width="3.0" stroke-linejoin="round" stroke-linecap="butt" d="m534.4724 270.1461l0 0c0 -5.305542 4.3010254 -9.606506 9.606506 -9.606506l63.3067 0c2.5477905 0 4.991272 1.0121155 6.7928467 2.8136902c1.8015747 1.8015442 2.8136597 4.244995 2.8136597 6.792816l0 38.424805c0 5.3055115 -4.3009644 9.606476 -9.606506 9.606476l-63.3067 0c-5.305481 0 -9.606506 -4.3009644 -9.606506 -9.606476z" fill-rule="evenodd"/><path fill="#ffffff" d="m560.6821 287.58035q0 1.171875 -0.796875 1.9375q-0.78125 0.765625 -2.40625 0.765625l-1.796875 0l0 3.875l-1.203125 0l0 -9.296875l3.0 0q1.5625 0 2.375 0.765625q0.828125 0.765625 0.828125 1.953125zm-3.203125 1.703125q1.0 0 1.484375 -0.4375q0.484375 -0.4375 0.484375 -1.265625q0 -1.71875 -1.96875 -1.71875l-1.796875 0l0 3.421875l1.796875 0zm4.263794 1.203125q0 -1.125 0.453125 -1.96875q0.453125 -0.84375 1.234375 -1.3125q0.796875 -0.46875 1.765625 -0.46875q0.96875 0 1.671875 0.421875q0.703125 0.40625 1.046875 1.03125l0 -1.328125l1.234375 0l0 7.296875l-1.234375 0l0 -1.359375q-0.359375 0.640625 -1.078125 1.0625q-0.703125 0.421875 -1.640625 0.421875q-0.984375 0 -1.765625 -0.484375q-0.78125 -0.484375 -1.234375 -1.34375q-0.453125 -0.875 -0.453125 -1.96875zm6.171875 0q0 -0.8125 -0.328125 -1.421875q-0.328125 -0.625 -0.90625 -0.953125q-0.5625 -0.328125 -1.234375 -0.328125q-0.6875 0 -1.25 0.328125q-0.546875 0.3125 -0.890625 0.9375q-0.328125 0.609375 -0.328125 1.4375q0 0.828125 0.328125 1.453125q0.34375 0.625 0.890625 0.953125q0.5625 0.3125 1.25 0.3125q0.671875 0 1.234375 -0.3125q0.578125 -0.328125 0.90625 -0.953125q0.328125 -0.625 0.328125 -1.453125zm4.4942017 -6.1875l0 9.859375l-1.203125 0l0 -9.859375l1.203125 0zm3.2786865 0l0 9.859375l-1.203125 0l0 -9.859375l1.203125 0zm8.731812 5.921875q0 0.359375 -0.03125 0.734375l-5.84375 0q0.0625 1.078125 0.734375 1.6875q0.671875 0.609375 1.640625 0.609375q0.78125 0 1.3125 -0.359375q0.53125 -0.375 0.734375 -0.984375l1.3125 0q-0.296875 1.046875 -1.1875 1.71875q-0.875 0.65625 -2.171875 0.65625q-1.046875 0 -1.875 -0.46875q-0.8125 -0.46875 -1.28125 -1.328125q-0.453125 -0.859375 -0.453125 -2.0q0 -1.125 0.453125 -1.96875q0.453125 -0.859375 1.265625 -1.3125q0.828125 -0.46875 1.890625 -0.46875q1.03125 0 1.828125 0.453125q0.8125 0.453125 1.234375 1.25q0.4375 0.78125 0.4375 1.78125zm-1.25 -0.25q0 -0.6875 -0.3125 -1.1875q-0.296875 -0.5 -0.828125 -0.75q-0.53125 -0.265625 -1.171875 -0.265625q-0.90625 0 -1.5625 0.59375q-0.640625 0.578125 -0.734375 1.609375l4.609375 0zm4.3259277 -2.109375l0 4.296875q0 0.53125 0.21875 0.75q0.234375 0.21875 0.796875 0.21875l0.890625 0l0 1.03125l-1.09375 0q-1.0 0 -1.515625 -0.46875q-0.5 -0.46875 -0.5 -1.53125l0 -4.296875l-0.953125 0l0 -1.0l0.953125 0l0 -1.84375l1.203125 0l0 1.84375l1.90625 0l0 1.0l-1.90625 0zm8.023315 1.515625q0.515625 0.078125 0.9375 0.421875q0.421875 0.328125 0.65625 0.828125q0.25 0.484375 0.25 1.03125q0 0.71875 -0.359375 1.28125q-0.359375 0.5625 -1.046875 0.890625q-0.6875 0.328125 -1.625 0.328125l-3.453125 0l0 -9.296875l3.328125 0q0.9375 0 1.609375 0.328125q0.671875 0.3125 1.0 0.84375q0.328125 0.53125 0.328125 1.1875q0 0.828125 -0.453125 1.375q-0.4375 0.53125 -1.171875 0.78125zm-3.4375 -0.5l2.046875 0q0.84375 0 1.3125 -0.390625q0.46875 -0.40625 0.46875 -1.109375q0 -0.703125 -0.46875 -1.109375q-0.46875 -0.40625 -1.34375 -0.40625l-2.015625 0l0 3.015625zm2.15625 4.28125q0.90625 0 1.40625 -0.421875q0.5 -0.4375 0.5 -1.1875q0 -0.78125 -0.53125 -1.21875q-0.53125 -0.453125 -1.421875 -0.453125l-2.109375 0l0 3.28125l2.15625 0z" fill-rule="nonzero"/><path fill="#000000" fill-opacity="0.0" d="m493.00787 85.40171l0 0c0 -3.771843 3.0576782 -6.829529 6.829529 -6.829529l151.78973 0c1.8113403 0 3.548462 0.7195358 4.8292236 2.0003204c1.2808228 1.2807846 2.0003052 3.0179062 2.0003052 4.8292084l0 27.317314c0 3.771843 -3.0576782 6.829529 -6.829529 6.829529l-151.78973 0c-3.7718506 0 -6.829529 -3.0576859 -6.829529 -6.829529z" fill-rule="evenodd"/><path stroke="#24cc85" stroke-width="3.0" stroke-linejoin="round" stroke-linecap="butt" d="m493.00787 85.40171l0 0c0 -3.771843 3.0576782 -6.829529 6.829529 -6.829529l151.78973 0c1.8113403 0 3.548462 0.7195358 4.8292236 2.0003204c1.2808228 1.2807846 2.0003052 3.0179062 2.0003052 4.8292084l0 27.317314c0 3.771843 -3.0576782 6.829529 -6.829529 6.829529l-151.78973 0c-3.7718506 0 -6.829529 -3.0576859 -6.829529 -6.829529z" fill-rule="evenodd"/><path fill="#ffffff" d="m554.6637 103.95412q-1.296875 0 -2.359375 -0.609375q-1.0625 -0.609375 -1.6875 -1.6875q-0.609375 -1.09375 -0.609375 -2.453125q0 -1.359375 0.609375 -2.4375q0.625 -1.09375 1.6875 -1.6875q1.0625 -0.609375 2.359375 -0.609375q1.3125 0 2.375 0.609375q1.0625 0.59375 1.671875 1.671875q0.625 1.078125 0.625 2.453125q0 1.375 -0.625 2.453125q-0.609375 1.078125 -1.671875 1.6875q-1.0625 0.609375 -2.375 0.609375zm0 -1.046875q0.96875 0 1.75 -0.453125q0.78125 -0.453125 1.21875 -1.296875q0.453125 -0.84375 0.453125 -1.953125q0 -1.109375 -0.453125 -1.9375q-0.4375 -0.84375 -1.21875 -1.296875q-0.765625 -0.453125 -1.75 -0.453125q-0.984375 0 -1.765625 0.453125q-0.765625 0.453125 -1.21875 1.296875q-0.4375 0.828125 -0.4375 1.9375q0 1.109375 0.4375 1.953125q0.453125 0.84375 1.234375 1.296875q0.78125 0.453125 1.75 0.453125zm9.819641 -6.484375q1.34375 0 2.171875 0.8125q0.828125 0.796875 0.828125 2.3125l0 4.3125l-1.203125 0l0 -4.125q0 -1.09375 -0.546875 -1.671875q-0.546875 -0.59375 -1.5 -0.59375q-0.953125 0 -1.53125 0.609375q-0.5625 0.59375 -0.5625 1.75l0 4.03125l-1.203125 0l0 -7.296875l1.203125 0l0 1.03125q0.359375 -0.5625 0.984375 -0.859375q0.625 -0.3125 1.359375 -0.3125zm12.436218 7.9375l0 1.125l-7.078125 0l0 -1.125l7.078125 0zm3.5194702 -9.796875l0 9.296875l-1.203125 0l0 -9.296875l1.203125 0zm1.6224365 5.625q0 -1.125 0.453125 -1.96875q0.453125 -0.84375 1.234375 -1.3125q0.796875 -0.46875 1.78125 -0.46875q0.859375 0 1.59375 0.390625q0.734375 0.390625 1.109375 1.03125l0 -3.859375l1.234375 0l0 9.859375l-1.234375 0l0 -1.375q-0.359375 0.65625 -1.0625 1.078125q-0.703125 0.421875 -1.65625 0.421875q-0.96875 0 -1.765625 -0.484375q-0.78125 -0.484375 -1.234375 -1.34375q-0.453125 -0.875 -0.453125 -1.96875zm6.171875 0q0 -0.8125 -0.328125 -1.421875q-0.328125 -0.625 -0.90625 -0.953125q-0.5625 -0.328125 -1.234375 -0.328125q-0.6875 0 -1.25 0.328125q-0.546875 0.3125 -0.890625 0.9375q-0.328125 0.609375 -0.328125 1.4375q0 0.828125 0.328125 1.453125q0.34375 0.625 0.890625 0.953125q0.5625 0.3125 1.25 0.3125q0.671875 0 1.234375 -0.3125q0.578125 -0.328125 0.90625 -0.953125q0.328125 -0.625 0.328125 -1.453125zm4.4941406 -6.1875l0 9.859375l-1.203125 0l0 -9.859375l1.203125 0zm8.731873 5.921875q0 0.359375 -0.03125 0.734375l-5.84375 0q0.0625 1.078125 0.734375 1.6875q0.671875 0.609375 1.640625 0.609375q0.78125 0 1.3125 -0.359375q0.53125 -0.375 0.734375 -0.984375l1.3125 0q-0.296875 1.046875 -1.1875 1.71875q-0.875 0.65625 -2.171875 0.65625q-1.046875 0 -1.875 -0.46875q-0.8125 -0.46875 -1.28125 -1.328125q-0.453125 -0.859375 -0.453125 -2.0q0 -1.125 0.453125 -1.96875q0.453125 -0.859375 1.265625 -1.3125q0.828125 -0.46875 1.890625 -0.46875q1.03125 0 1.828125 0.453125q0.8125 0.453125 1.234375 1.25q0.4375 0.78125 0.4375 1.78125zm-1.25 -0.25q0 -0.6875 -0.3125 -1.1875q-0.296875 -0.5 -0.828125 -0.75q-0.53125 -0.265625 -1.171875 -0.265625q-0.90625 0 -1.5625 0.59375q-0.640625 0.578125 -0.734375 1.609375l4.609375 0z" fill-rule="nonzero"/><path fill="#000000" fill-opacity="0.0" d="m768.8478 137.72722l0 0c0 -5.3055115 4.3009644 -9.606491 9.606506 -9.606491l63.3067 0c2.5477905 0 4.991211 1.0121155 6.7927856 2.8136902c1.8015747 1.8015594 2.8136597 4.2450104 2.8136597 6.792801l0 38.42482c0 5.3055115 -4.3009644 9.606491 -9.606445 9.606491l-63.3067 0c-5.305542 0 -9.606506 -4.3009796 -9.606506 -9.606491z" fill-rule="evenodd"/><path stroke="#24cc85" stroke-width="3.0" stroke-linejoin="round" stroke-linecap="butt" d="m768.8478 137.72722l0 0c0 -5.3055115 4.3009644 -9.606491 9.606506 -9.606491l63.3067 0c2.5477905 0 4.991211 1.0121155 6.7927856 2.8136902c1.8015747 1.8015594 2.8136597 4.2450104 2.8136597 6.792801l0 38.42482c0 5.3055115 -4.3009644 9.606491 -9.606445 9.606491l-63.3067 0c-5.305542 0 -9.606506 -4.3009796 -9.606506 -9.606491z" fill-rule="evenodd"/><path fill="#ffffff" d="m789.5127 161.83339q-0.921875 0 -1.65625 -0.328125q-0.71875 -0.328125 -1.140625 -0.90625q-0.40625 -0.578125 -0.40625 -1.34375l1.28125 0q0.078125 0.65625 0.546875 1.109375q0.46875 0.4375 1.375 0.4375q0.875 0 1.375 -0.421875q0.5 -0.4375 0.5 -1.125q0 -0.53125 -0.296875 -0.859375q-0.296875 -0.328125 -0.734375 -0.5q-0.4375 -0.1875 -1.1875 -0.375q-0.921875 -0.25 -1.484375 -0.484375q-0.546875 -0.234375 -0.9375 -0.75q-0.390625 -0.515625 -0.390625 -1.390625q0 -0.75 0.390625 -1.328125q0.390625 -0.59375 1.078125 -0.90625q0.703125 -0.328125 1.609375 -0.328125q1.3125 0 2.140625 0.65625q0.828125 0.640625 0.9375 1.71875l-1.328125 0q-0.0625 -0.53125 -0.5625 -0.9375q-0.5 -0.40625 -1.3125 -0.40625q-0.75 0 -1.234375 0.40625q-0.484375 0.390625 -0.484375 1.09375q0 0.5 0.28125 0.828125q0.296875 0.3125 0.71875 0.484375q0.421875 0.171875 1.171875 0.375q0.921875 0.25 1.484375 0.5q0.5625 0.25 0.953125 0.765625q0.40625 0.515625 0.40625 1.390625q0 0.671875 -0.359375 1.28125q-0.359375 0.59375 -1.0625 0.96875q-0.703125 0.375 -1.671875 0.375zm11.167358 -7.390625l-4.390625 10.734375l-1.25 0l1.4375 -3.515625l-2.953125 -7.21875l1.34375 0l2.296875 5.90625l2.265625 -5.90625l1.25 0zm3.800537 7.421875q-0.84375 0 -1.515625 -0.28125q-0.65625 -0.296875 -1.046875 -0.8125q-0.375 -0.515625 -0.421875 -1.171875l1.25 0q0.0625 0.546875 0.515625 0.890625q0.46875 0.34375 1.203125 0.34375q0.703125 0 1.09375 -0.296875q0.40625 -0.3125 0.40625 -0.78125q0 -0.484375 -0.4375 -0.71875q-0.421875 -0.234375 -1.3125 -0.453125q-0.8125 -0.21875 -1.328125 -0.4375q-0.515625 -0.21875 -0.890625 -0.640625q-0.359375 -0.4375 -0.359375 -1.15625q0 -0.546875 0.328125 -1.015625q0.34375 -0.46875 0.953125 -0.734375q0.625 -0.28125 1.40625 -0.28125q1.21875 0 1.953125 0.609375q0.75 0.609375 0.796875 1.6875l-1.203125 0q-0.046875 -0.578125 -0.46875 -0.921875q-0.40625 -0.34375 -1.125 -0.34375q-0.640625 0 -1.03125 0.28125q-0.390625 0.265625 -0.390625 0.71875q0 0.359375 0.234375 0.59375q0.234375 0.234375 0.578125 0.375q0.359375 0.140625 0.984375 0.3125q0.796875 0.21875 1.28125 0.421875q0.5 0.203125 0.84375 0.625q0.359375 0.40625 0.375 1.078125q0 0.59375 -0.34375 1.078125q-0.328125 0.484375 -0.9375 0.765625q-0.609375 0.265625 -1.390625 0.265625zm5.8479004 -6.421875l0 4.296875q0 0.53125 0.21875 0.75q0.234375 0.21875 0.796875 0.21875l0.890625 0l0 1.03125l-1.09375 0q-1.0 0 -1.515625 -0.46875q-0.5 -0.46875 -0.5 -1.53125l0 -4.296875l-0.953125 0l0 -1.0l0.953125 0l0 -1.84375l1.203125 0l0 1.84375l1.90625 0l0 1.0l-1.90625 0zm10.03894 2.359375q0 0.359375 -0.03125 0.734375l-5.84375 0q0.0625 1.078125 0.734375 1.6875q0.671875 0.609375 1.640625 0.609375q0.78125 0 1.3125 -0.359375q0.53125 -0.375 0.734375 -0.984375l1.3125 0q-0.296875 1.046875 -1.1875 1.71875q-0.875 0.65625 -2.171875 0.65625q-1.046875 0 -1.875 -0.46875q-0.8125 -0.46875 -1.28125 -1.328125q-0.453125 -0.859375 -0.453125 -2.0q0 -1.125 0.453125 -1.96875q0.453125 -0.859375 1.265625 -1.3125q0.828125 -0.46875 1.890625 -0.46875q1.03125 0 1.828125 0.453125q0.8125 0.453125 1.234375 1.25q0.4375 0.78125 0.4375 1.78125zm-1.25 -0.25q0 -0.6875 -0.3125 -1.1875q-0.296875 -0.5 -0.828125 -0.75q-0.53125 -0.265625 -1.171875 -0.265625q-0.90625 0 -1.5625 0.59375q-0.640625 0.578125 -0.734375 1.609375l4.609375 0zm11.638428 -3.25q0.84375 0 1.515625 0.359375q0.671875 0.34375 1.046875 1.0625q0.390625 0.703125 0.390625 1.703125l0 4.3125l-1.203125 0l0 -4.125q0 -1.09375 -0.546875 -1.671875q-0.53125 -0.59375 -1.453125 -0.59375q-0.9375 0 -1.5 0.609375q-0.5625 0.609375 -0.5625 1.75l0 4.03125l-1.203125 0l0 -4.125q0 -1.09375 -0.546875 -1.671875q-0.53125 -0.59375 -1.4375 -0.59375q-0.953125 0 -1.515625 0.609375q-0.5625 0.609375 -0.5625 1.75l0 4.03125l-1.203125 0l0 -7.296875l1.203125 0l0 1.046875q0.359375 -0.578125 0.96875 -0.875q0.609375 -0.3125 1.34375 -0.3125q0.921875 0 1.625 0.421875q0.703125 0.40625 1.046875 1.203125q0.3125 -0.765625 1.015625 -1.1875q0.703125 -0.4375 1.578125 -0.4375z" fill-rule="nonzero"/><path fill="#000000" fill-opacity="0.0" d="m768.8478 203.93665l0 0c0 -5.3055115 4.3009644 -9.606491 9.606506 -9.606491l63.3067 0c2.5477905 0 4.991211 1.0121155 6.7927856 2.813675c1.8015747 1.8015747 2.8136597 4.2450256 2.8136597 6.792816l0 38.42482c0 5.3055115 -4.3009644 9.606491 -9.606445 9.606491l-63.3067 0c-5.305542 0 -9.606506 -4.3009796 -9.606506 -9.606491z" fill-rule="evenodd"/><path stroke="#24cc85" stroke-width="3.0" stroke-linejoin="round" stroke-linecap="butt" d="m768.8478 203.93665l0 0c0 -5.3055115 4.3009644 -9.606491 9.606506 -9.606491l63.3067 0c2.5477905 0 4.991211 1.0121155 6.7927856 2.813675c1.8015747 1.8015747 2.8136597 4.2450256 2.8136597 6.792816l0 38.42482c0 5.3055115 -4.3009644 9.606491 -9.606445 9.606491l-63.3067 0c-5.305542 0 -9.606506 -4.3009796 -9.606506 -9.606491z" fill-rule="evenodd"/><path fill="#ffffff" d="m794.65094 221.37093q0 1.171875 -0.796875 1.9375q-0.78125 0.765625 -2.40625 0.765625l-1.796875 0l0 3.875l-1.203125 0l0 -9.296875l3.0 0q1.5625 0 2.375 0.765625q0.828125 0.765625 0.828125 1.953125zm-3.203125 1.703125q1.0 0 1.484375 -0.4375q0.484375 -0.4375 0.484375 -1.265625q0 -1.71875 -1.96875 -1.71875l-1.796875 0l0 3.421875l1.796875 0zm4.263794 1.203125q0 -1.125 0.453125 -1.96875q0.453125 -0.84375 1.234375 -1.3125q0.796875 -0.46875 1.765625 -0.46875q0.96875 0 1.671875 0.421875q0.703125 0.40625 1.046875 1.03125l0 -1.328125l1.234375 0l0 7.296875l-1.234375 0l0 -1.359375q-0.359375 0.640625 -1.078125 1.0625q-0.703125 0.421875 -1.640625 0.421875q-0.984375 0 -1.765625 -0.484375q-0.78125 -0.484375 -1.234375 -1.34375q-0.453125 -0.875 -0.453125 -1.96875zm6.171875 0q0 -0.8125 -0.328125 -1.421875q-0.328125 -0.625 -0.90625 -0.953125q-0.5625 -0.328125 -1.234375 -0.328125q-0.6875 0 -1.25 0.328125q-0.546875 0.3125 -0.890625 0.9375q-0.328125 0.609375 -0.328125 1.4375q0 0.828125 0.328125 1.453125q0.34375 0.625 0.890625 0.953125q0.5625 0.3125 1.25 0.3125q0.671875 0 1.234375 -0.3125q0.578125 -0.328125 0.90625 -0.953125q0.328125 -0.625 0.328125 -1.453125zm4.4942017 -6.1875l0 9.859375l-1.203125 0l0 -9.859375l1.203125 0zm3.2786865 0l0 9.859375l-1.203125 0l0 -9.859375l1.203125 0zm8.731812 5.921875q0 0.359375 -0.03125 0.734375l-5.84375 0q0.0625 1.078125 0.734375 1.6875q0.671875 0.609375 1.640625 0.609375q0.78125 0 1.3125 -0.359375q0.53125 -0.375 0.734375 -0.984375l1.3125 0q-0.296875 1.046875 -1.1875 1.71875q-0.875 0.65625 -2.171875 0.65625q-1.046875 0 -1.875 -0.46875q-0.8125 -0.46875 -1.28125 -1.328125q-0.453125 -0.859375 -0.453125 -2.0q0 -1.125 0.453125 -1.96875q0.453125 -0.859375 1.265625 -1.3125q0.828125 -0.46875 1.890625 -0.46875q1.03125 0 1.828125 0.453125q0.8125 0.453125 1.234375 1.25q0.4375 0.78125 0.4375 1.78125zm-1.25 -0.25q0 -0.6875 -0.3125 -1.1875q-0.296875 -0.5 -0.828125 -0.75q-0.53125 -0.265625 -1.171875 -0.265625q-0.90625 0 -1.5625 0.59375q-0.640625 0.578125 -0.734375 1.609375l4.609375 0zm4.3259277 -2.109375l0 4.296875q0 0.53125 0.21875 0.75q0.234375 0.21875 0.796875 0.21875l0.890625 0l0 1.03125l-1.09375 0q-1.0 0 -1.515625 -0.46875q-0.5 -0.46875 -0.5 -1.53125l0 -4.296875l-0.953125 0l0 -1.0l0.953125 0l0 -1.84375l1.203125 0l0 1.84375l1.90625 0l0 1.0l-1.90625 0zm8.867065 4.234375l-4.046875 0l-0.75 2.0625l-1.28125 0l3.359375 -9.234375l1.40625 0l3.34375 9.234375l-1.28125 0l-0.75 -2.0625zm-0.34375 -0.984375l-1.6875 -4.703125l-1.671875 4.703125l3.359375 0z" fill-rule="nonzero"/><path fill="#000000" fill-opacity="0.0" d="m768.8478 270.1461l0 0c0 -5.305542 4.3009644 -9.606506 9.606506 -9.606506l63.3067 0c2.5477905 0 4.991211 1.0121155 6.7927856 2.8136902c1.8015747 1.8015442 2.8136597 4.244995 2.8136597 6.792816l0 38.424805c0 5.3055115 -4.3009644 9.606476 -9.606445 9.606476l-63.3067 0c-5.305542 0 -9.606506 -4.3009644 -9.606506 -9.606476z" fill-rule="evenodd"/><path stroke="#24cc85" stroke-width="3.0" stroke-linejoin="round" stroke-linecap="butt" d="m768.8478 270.1461l0 0c0 -5.305542 4.3009644 -9.606506 9.606506 -9.606506l63.3067 0c2.5477905 0 4.991211 1.0121155 6.7927856 2.8136902c1.8015747 1.8015442 2.8136597 4.244995 2.8136597 6.792816l0 38.424805c0 5.3055115 -4.3009644 9.606476 -9.606445 9.606476l-63.3067 0c-5.305542 0 -9.606506 -4.3009644 -9.606506 -9.606476z" fill-rule="evenodd"/><path fill="#ffffff" d="m795.05743 287.58035q0 1.171875 -0.796875 1.9375q-0.78125 0.765625 -2.40625 0.765625l-1.796875 0l0 3.875l-1.203125 0l0 -9.296875l3.0 0q1.5625 0 2.375 0.765625q0.828125 0.765625 0.828125 1.953125zm-3.203125 1.703125q1.0 0 1.484375 -0.4375q0.484375 -0.4375 0.484375 -1.265625q0 -1.71875 -1.96875 -1.71875l-1.796875 0l0 3.421875l1.796875 0zm4.263855 1.203125q0 -1.125 0.453125 -1.96875q0.453125 -0.84375 1.234375 -1.3125q0.796875 -0.46875 1.765625 -0.46875q0.96875 0 1.671875 0.421875q0.703125 0.40625 1.046875 1.03125l0 -1.328125l1.234375 0l0 7.296875l-1.234375 0l0 -1.359375q-0.359375 0.640625 -1.078125 1.0625q-0.703125 0.421875 -1.640625 0.421875q-0.984375 0 -1.765625 -0.484375q-0.78125 -0.484375 -1.234375 -1.34375q-0.453125 -0.875 -0.453125 -1.96875zm6.171875 0q0 -0.8125 -0.328125 -1.421875q-0.328125 -0.625 -0.90625 -0.953125q-0.5625 -0.328125 -1.234375 -0.328125q-0.6875 0 -1.25 0.328125q-0.546875 0.3125 -0.890625 0.9375q-0.328125 0.609375 -0.328125 1.4375q0 0.828125 0.328125 1.453125q0.34375 0.625 0.890625 0.953125q0.5625 0.3125 1.25 0.3125q0.671875 0 1.234375 -0.3125q0.578125 -0.328125 0.90625 -0.953125q0.328125 -0.625 0.328125 -1.453125zm4.4941406 -6.1875l0 9.859375l-1.203125 0l0 -9.859375l1.203125 0zm3.2786865 0l0 9.859375l-1.203125 0l0 -9.859375l1.203125 0zm8.731812 5.921875q0 0.359375 -0.03125 0.734375l-5.84375 0q0.0625 1.078125 0.734375 1.6875q0.671875 0.609375 1.640625 0.609375q0.78125 0 1.3125 -0.359375q0.53125 -0.375 0.734375 -0.984375l1.3125 0q-0.296875 1.046875 -1.1875 1.71875q-0.875 0.65625 -2.171875 0.65625q-1.046875 0 -1.875 -0.46875q-0.8125 -0.46875 -1.28125 -1.328125q-0.453125 -0.859375 -0.453125 -2.0q0 -1.125 0.453125 -1.96875q0.453125 -0.859375 1.265625 -1.3125q0.828125 -0.46875 1.890625 -0.46875q1.03125 0 1.828125 0.453125q0.8125 0.453125 1.234375 1.25q0.4375 0.78125 0.4375 1.78125zm-1.25 -0.25q0 -0.6875 -0.3125 -1.1875q-0.296875 -0.5 -0.828125 -0.75q-0.53125 -0.265625 -1.171875 -0.265625q-0.90625 0 -1.5625 0.59375q-0.640625 0.578125 -0.734375 1.609375l4.609375 0zm4.3259277 -2.109375l0 4.296875q0 0.53125 0.21875 0.75q0.234375 0.21875 0.796875 0.21875l0.890625 0l0 1.03125l-1.09375 0q-1.0 0 -1.515625 -0.46875q-0.5 -0.46875 -0.5 -1.53125l0 -4.296875l-0.953125 0l0 -1.0l0.953125 0l0 -1.84375l1.203125 0l0 1.84375l1.90625 0l0 1.0l-1.90625 0zm8.023315 1.515625q0.515625 0.078125 0.9375 0.421875q0.421875 0.328125 0.65625 0.828125q0.25 0.484375 0.25 1.03125q0 0.71875 -0.359375 1.28125q-0.359375 0.5625 -1.046875 0.890625q-0.6875 0.328125 -1.625 0.328125l-3.453125 0l0 -9.296875l3.328125 0q0.9375 0 1.609375 0.328125q0.671875 0.3125 1.0 0.84375q0.328125 0.53125 0.328125 1.1875q0 0.828125 -0.453125 1.375q-0.4375 0.53125 -1.171875 0.78125zm-3.4375 -0.5l2.046875 0q0.84375 0 1.3125 -0.390625q0.46875 -0.40625 0.46875 -1.109375q0 -0.703125 -0.46875 -1.109375q-0.46875 -0.40625 -1.34375 -0.40625l-2.015625 0l0 3.015625zm2.15625 4.28125q0.90625 0 1.40625 -0.421875q0.5 -0.4375 0.5 -1.1875q0 -0.78125 -0.53125 -1.21875q-0.53125 -0.453125 -1.421875 -0.453125l-2.109375 0l0 3.28125l2.15625 0z" fill-rule="nonzero"/><path fill="#000000" fill-opacity="0.0" d="m727.3832 85.18386l0 0c0 -3.771843 3.0577393 -6.829529 6.829529 -6.829529l151.7898 0c1.8112793 0 3.5484009 0.7195358 4.8292236 2.0003204c1.2807617 1.2807846 2.0003052 3.0179062 2.0003052 4.8292084l0 27.317314c0 3.7718506 -3.0576782 6.8295364 -6.829529 6.8295364l-151.7898 0c-3.7717896 0 -6.829529 -3.0576859 -6.829529 -6.8295364z" fill-rule="evenodd"/><path stroke="#24cc85" stroke-width="3.0" stroke-linejoin="round" stroke-linecap="butt" d="m727.3832 85.18386l0 0c0 -3.771843 3.0577393 -6.829529 6.829529 -6.829529l151.7898 0c1.8112793 0 3.5484009 0.7195358 4.8292236 2.0003204c1.2807617 1.2807846 2.0003052 3.0179062 2.0003052 4.8292084l0 27.317314c0 3.7718506 -3.0576782 6.8295364 -6.829529 6.8295364l-151.7898 0c-3.7717896 0 -6.829529 -3.0576859 -6.829529 -6.8295364z" fill-rule="evenodd"/><path fill="#ffffff" d="m776.7439 103.73627q-1.296875 0 -2.359375 -0.609375q-1.0625 -0.609375 -1.6875 -1.6875q-0.609375 -1.09375 -0.609375 -2.453125q0 -1.359375 0.609375 -2.4375q0.625 -1.09375 1.6875 -1.6875q1.0625 -0.609375 2.359375 -0.609375q1.3125 0 2.375 0.609375q1.0625 0.59375 1.671875 1.671875q0.625 1.078125 0.625 2.453125q0 1.375 -0.625 2.453125q-0.609375 1.078125 -1.671875 1.6875q-1.0625 0.609375 -2.375 0.609375zm0 -1.046875q0.96875 0 1.75 -0.453125q0.78125 -0.453125 1.21875 -1.296875q0.453125 -0.84375 0.453125 -1.953125q0 -1.109375 -0.453125 -1.9375q-0.4375 -0.84375 -1.21875 -1.296875q-0.765625 -0.453125 -1.75 -0.453125q-0.984375 0 -1.765625 0.453125q-0.765625 0.453125 -1.21875 1.296875q-0.4375 0.828125 -0.4375 1.9375q0 1.109375 0.4375 1.953125q0.453125 0.84375 1.234375 1.296875q0.78125 0.453125 1.75 0.453125zm9.81958 -6.484375q1.34375 0 2.171875 0.8125q0.828125 0.796875 0.828125 2.3125l0 4.3125l-1.203125 0l0 -4.125q0 -1.09375 -0.546875 -1.671875q-0.546875 -0.59375 -1.5 -0.59375q-0.953125 0 -1.53125 0.609375q-0.5625 0.59375 -0.5625 1.75l0 4.03125l-1.203125 0l0 -7.296875l1.203125 0l0 1.03125q0.359375 -0.5625 0.984375 -0.859375q0.625 -0.3125 1.359375 -0.3125zm12.436218 7.9375l0 1.125l-7.078125 0l0 -1.125l7.078125 0zm7.5664062 -9.796875l0 1.0l-4.046875 0l0 3.125l3.28125 0l0 0.984375l-3.28125 0l0 4.1875l-1.203125 0l0 -9.296875l5.25 0zm2.0923462 0.8125q-0.34375 0 -0.59375 -0.234375q-0.234375 -0.25 -0.234375 -0.59375q0 -0.34375 0.234375 -0.578125q0.25 -0.25 0.59375 -0.25q0.328125 0 0.5625 0.25q0.234375 0.234375 0.234375 0.578125q0 0.34375 -0.234375 0.59375q-0.234375 0.234375 -0.5625 0.234375zm0.578125 1.1875l0 7.296875l-1.203125 0l0 -7.296875l1.203125 0zm5.6224365 -0.140625q1.34375 0 2.171875 0.8125q0.828125 0.796875 0.828125 2.3125l0 4.3125l-1.203125 0l0 -4.125q0 -1.09375 -0.546875 -1.671875q-0.546875 -0.59375 -1.5 -0.59375q-0.953125 0 -1.53125 0.609375q-0.5625 0.59375 -0.5625 1.75l0 4.03125l-1.203125 0l0 -7.296875l1.203125 0l0 1.03125q0.359375 -0.5625 0.984375 -0.859375q0.625 -0.3125 1.359375 -0.3125zm4.5299683 3.765625q0 -1.125 0.453125 -1.96875q0.453125 -0.84375 1.234375 -1.3125q0.796875 -0.46875 1.765625 -0.46875q0.96875 0 1.671875 0.421875q0.703125 0.40625 1.046875 1.03125l0 -1.328125l1.234375 0l0 7.296875l-1.234375 0l0 -1.359375q-0.359375 0.640625 -1.078125 1.0625q-0.703125 0.421875 -1.640625 0.421875q-0.984375 0 -1.765625 -0.484375q-0.78125 -0.484375 -1.234375 -1.34375q-0.453125 -0.875 -0.453125 -1.96875zm6.171875 0q0 -0.8125 -0.328125 -1.421875q-0.328125 -0.625 -0.90625 -0.953125q-0.5625 -0.328125 -1.234375 -0.328125q-0.6875 0 -1.25 0.328125q-0.546875 0.3125 -0.890625 0.9375q-0.328125 0.609375 -0.328125 1.4375q0 0.828125 0.328125 1.453125q0.34375 0.625 0.890625 0.953125q0.5625 0.3125 1.25 0.3125q0.671875 0 1.234375 -0.3125q0.578125 -0.328125 0.90625 -0.953125q0.328125 -0.625 0.328125 -1.453125zm4.4941406 -6.1875l0 9.859375l-1.203125 0l0 -9.859375l1.203125 0zm2.7005615 1.375q-0.34375 0 -0.59375 -0.234375q-0.234375 -0.25 -0.234375 -0.59375q0 -0.34375 0.234375 -0.578125q0.25 -0.25 0.59375 -0.25q0.328125 0 0.5625 0.25q0.234375 0.234375 0.234375 0.578125q0 0.34375 -0.234375 0.59375q-0.234375 0.234375 -0.5625 0.234375zm0.578125 1.1875l0 7.296875l-1.203125 0l0 -7.296875l1.203125 0zm2.9818726 6.296875l3.578125 0l0 1.0l-4.96875 0l0 -1.0l3.546875 -5.3125l-3.515625 0l0 -0.984375l4.90625 0l0 0.984375l-3.546875 5.3125zm11.81427 -2.9375q0 0.359375 -0.03125 0.734375l-5.84375 0q0.0625 1.078125 0.734375 1.6875q0.671875 0.609375 1.640625 0.609375q0.78125 0 1.3125 -0.359375q0.53125 -0.375 0.734375 -0.984375l1.3125 0q-0.296875 1.046875 -1.1875 1.71875q-0.875 0.65625 -2.171875 0.65625q-1.046875 0 -1.875 -0.46875q-0.8125 -0.46875 -1.28125 -1.328125q-0.453125 -0.859375 -0.453125 -2.0q0 -1.125 0.453125 -1.96875q0.453125 -0.859375 1.265625 -1.3125q0.828125 -0.46875 1.890625 -0.46875q1.03125 0 1.828125 0.453125q0.8125 0.453125 1.234375 1.25q0.4375 0.78125 0.4375 1.78125zm-1.25 -0.25q0 -0.6875 -0.3125 -1.1875q-0.296875 -0.5 -0.828125 -0.75q-0.53125 -0.265625 -1.171875 -0.265625q-0.90625 0 -1.5625 0.59375q-0.640625 0.578125 -0.734375 1.609375l4.609375 0z" fill-rule="nonzero"/><path fill="#000000" fill-opacity="0.0" d="m12.225721 65.00525l881.2914 0" fill-rule="evenodd"/><path stroke="#ffffff" stroke-width="3.0" stroke-linejoin="round" stroke-linecap="butt" d="m12.225721 65.00525l871.01013 0" fill-rule="evenodd"/><path fill="#ffffff" stroke="#ffffff" stroke-width="3.0" stroke-linecap="butt" d="m883.2358 65.00525l-3.3737183 3.3737488l9.269287 -3.3737488l-9.269287 -3.3737488z" fill-rule="evenodd"/><path fill="#000000" fill-opacity="0.0" d="m106.98163 119.33071l0 198.96063" fill-rule="evenodd"/><path stroke="#ffffff" stroke-width="1.0" stroke-linejoin="round" stroke-linecap="butt" stroke-dasharray="1.0,3.0" d="m106.98163 119.33071l0 195.53354" fill-rule="evenodd"/><path fill="#ffffff" stroke="#ffffff" stroke-width="1.0" stroke-linecap="butt" d="m106.98163 314.86426l-1.124588 -1.1246033l1.124588 3.0897827l1.1245804 -3.0897827z" fill-rule="evenodd"/><path fill="#000000" fill-opacity="0.0" d="m341.35696 119.7664l0 198.5197" fill-rule="evenodd"/><path stroke="#ffffff" stroke-width="1.0" stroke-linejoin="round" stroke-linecap="butt" stroke-dasharray="1.0,3.0" d="m341.35696 119.7664l0 195.0926" fill-rule="evenodd"/><path fill="#ffffff" stroke="#ffffff" stroke-width="1.0" stroke-linecap="butt" d="m341.35696 314.859l-1.1246033 -1.1246033l1.1246033 3.0897827l1.1245728 -3.0897827z" fill-rule="evenodd"/><path fill="#000000" fill-opacity="0.0" d="m575.7323 119.54855l0 198.61417" fill-rule="evenodd"/><path stroke="#ffffff" stroke-width="1.0" stroke-linejoin="round" stroke-linecap="butt" stroke-dasharray="1.0,3.0" d="m575.7323 119.54855l0 195.1871" fill-rule="evenodd"/><path fill="#ffffff" stroke="#ffffff" stroke-width="1.0" stroke-linecap="butt" d="m575.7323 314.73566l-1.1245728 -1.1246033l1.1245728 3.0897827l1.1245728 -3.0897827z" fill-rule="evenodd"/><path fill="#000000" fill-opacity="0.0" d="m810.1076 119.33071l0 198.83463" fill-rule="evenodd"/><path stroke="#ffffff" stroke-width="1.0" stroke-linejoin="round" stroke-linecap="butt" stroke-dasharray="1.0,3.0" d="m810.1076 119.33071l0 195.40756" fill-rule="evenodd"/><path fill="#ffffff" stroke="#ffffff" stroke-width="1.0" stroke-linecap="butt" d="m810.1076 314.73828l-1.1245728 -1.1246033l1.1245728 3.0897827l1.1245728 -3.0897827z" fill-rule="evenodd"/><path fill="#000000" fill-opacity="0.0" d="m146.24147 22.989502l525.6693 0l0 42.015747l-525.6693 0z" fill-rule="evenodd"/><path fill="#ffffff" d="m398.35553 36.9095l0 1.375l-3.546875 0l0 11.625l-1.6875 0l0 -11.625l-3.5625 0l0 -1.375l8.796875 0zm3.7961426 0l0 13.0l-1.703125 0l0 -13.0l1.703125 0zm16.073792 0.09375l0 12.90625l-1.703125 0l0 -9.625l-4.28125 9.625l-1.203125 0l-4.296875 -9.640625l0 9.640625l-1.703125 0l0 -12.90625l1.828125 0l4.78125 10.671875l4.765625 -10.671875l1.8125 0zm4.5786743 1.28125l0 4.34375l4.734375 0l0 1.40625l-4.734375 0l0 4.46875l5.296875 0l0 1.40625l-7.0 0l0 -13.015625l7.0 0l0 1.390625l-5.296875 0z" fill-rule="nonzero"/></g></svg>
