<svg version="1.1" viewBox="0.0 0.0 1250.4881889763778 599.2519685039371" fill="none" stroke="none" stroke-linecap="square" stroke-miterlimit="10" xmlns:xlink="http://www.w3.org/1999/xlink" xmlns="http://www.w3.org/2000/svg"><clipPath id="p.0"><path d="m0 0l1250.4882 0l0 599.25195l-1250.4882 0l0 -599.25195z" clip-rule="nonzero"/></clipPath><g clip-path="url(#p.0)"><path fill="#000000" fill-opacity="0.0" d="m0 0l1250.4882 0l0 599.25195l-1250.4882 0z" fill-rule="evenodd"/><path fill="#none" d="m33.619423 11.989501l1191.2441 0l0 561.98425l-1191.2441 0z" fill-rule="evenodd"/><path stroke="#none" stroke-width="1.0" stroke-linejoin="round" stroke-linecap="butt" d="m33.619423 11.989501l1191.2441 0l0 561.98425l-1191.2441 0z" fill-rule="evenodd"/><path fill="#000000" fill-opacity="0.0" d="m629.24146 11.989501l0 561.98425" fill-rule="evenodd"/><path stroke="#ffffff" stroke-width="1.0" stroke-linejoin="round" stroke-linecap="butt" stroke-dasharray="1.0,3.0" d="m629.24146 11.989501l0 561.98425" fill-rule="evenodd"/><path fill="#8d3aed" d="m52.850243 29.08118l554.4882 0l0 42.01575l-554.4882 0z" fill-rule="evenodd"/><path stroke="#8d3aed" stroke-width="1.0" stroke-linejoin="round" stroke-linecap="butt" d="m52.850243 29.08118l554.4882 0l0 42.01575l-554.4882 0z" fill-rule="evenodd"/><path fill="#ffffff" d="m273.8404 49.485554q0 -1.890625 0.859375 -3.40625q0.859375 -1.53125 2.34375 -2.390625q1.484375 -0.859375 3.296875 -0.859375q2.125 0 3.703125 1.03125q1.59375 1.015625 2.328125 2.90625l-2.046875 0q-0.53125 -1.171875 -1.546875 -1.796875q-1.015625 -0.640625 -2.4375 -0.640625q-1.359375 0 -2.453125 0.640625q-1.078125 0.625 -1.703125 1.796875q-0.609375 1.15625 -0.609375 2.71875q0 1.546875 0.609375 2.71875q0.625 1.171875 1.703125 1.8125q1.09375 0.625 2.453125 0.625q1.421875 0 2.4375 -0.625q1.015625 -0.625 1.546875 -1.796875l2.046875 0q-0.734375 1.859375 -2.328125 2.875q-1.578125 1.015625 -3.703125 1.015625q-1.8125 0 -3.296875 -0.84375q-1.484375 -0.84375 -2.34375 -2.359375q-0.859375 -1.515625 -0.859375 -3.421875zm16.746368 -7.296875l0 13.8125l-1.703125 0l0 -13.8125l1.703125 0zm3.761322 1.921875q-0.484375 0 -0.828125 -0.328125q-0.328125 -0.34375 -0.328125 -0.828125q0 -0.484375 0.328125 -0.8125q0.34375 -0.34375 0.828125 -0.34375q0.46875 0 0.796875 0.34375q0.328125 0.328125 0.328125 0.8125q0 0.484375 -0.328125 0.828125q-0.328125 0.328125 -0.796875 0.328125zm0.828125 1.671875l0 10.21875l-1.703125 0l0 -10.21875l1.703125 0zm12.2144165 4.71875q0 0.484375 -0.0625 1.015625l-8.171875 0q0.09375 1.515625 1.03125 2.375q0.953125 0.84375 2.296875 0.84375q1.09375 0 1.828125 -0.515625q0.75 -0.515625 1.046875 -1.375l1.828125 0q-0.40625 1.484375 -1.640625 2.40625q-1.234375 0.921875 -3.0625 0.921875q-1.453125 0 -2.609375 -0.65625q-1.140625 -0.65625 -1.796875 -1.859375q-0.65625 -1.203125 -0.65625 -2.78125q0 -1.59375 0.640625 -2.78125q0.640625 -1.203125 1.78125 -1.84375q1.140625 -0.640625 2.640625 -0.640625q1.453125 0 2.5625 0.640625q1.125 0.625 1.734375 1.734375q0.609375 1.109375 0.609375 2.515625zm-1.75 -0.359375q0 -0.96875 -0.4375 -1.671875q-0.421875 -0.703125 -1.171875 -1.0625q-0.734375 -0.359375 -1.625 -0.359375q-1.28125 0 -2.1875 0.828125q-0.90625 0.8125 -1.03125 2.265625l6.453125 0zm8.973145 -4.546875q1.859375 0 3.015625 1.125q1.15625 1.125 1.15625 3.25l0 6.03125l-1.671875 0l0 -5.78125q0 -1.53125 -0.765625 -2.34375q-0.765625 -0.8125 -2.09375 -0.8125q-1.34375 0 -2.140625 0.84375q-0.78125 0.84375 -0.78125 2.4375l0 5.65625l-1.703125 0l0 -10.21875l1.703125 0l0 1.453125q0.5 -0.78125 1.359375 -1.203125q0.875 -0.4375 1.921875 -0.4375zm9.018127 1.578125l0 6.03125q0 0.75 0.3125 1.0625q0.328125 0.296875 1.109375 0.296875l1.25 0l0 1.4375l-1.53125 0q-1.40625 0 -2.125 -0.65625q-0.703125 -0.65625 -0.703125 -2.140625l0 -6.03125l-1.328125 0l0 -1.390625l1.328125 0l0 -2.578125l1.6875 0l0 2.578125l2.671875 0l0 1.390625l-2.671875 0zm16.053345 -8.75l-5.109375 20.75l-1.6875 0l5.09375 -20.75l1.703125 0zm17.533478 4.578125l0 13.0l-1.703125 0l0 -5.890625l-6.609375 0l0 5.890625l-1.703125 0l0 -13.0l1.703125 0l0 5.703125l6.609375 0l0 -5.703125l1.703125 0zm7.347595 13.171875q-1.4375 0 -2.609375 -0.65625q-1.15625 -0.65625 -1.828125 -1.859375q-0.65625 -1.203125 -0.65625 -2.78125q0 -1.578125 0.6875 -2.78125q0.6875 -1.203125 1.859375 -1.84375q1.171875 -0.640625 2.625 -0.640625q1.453125 0 2.625 0.640625q1.1875 0.640625 1.859375 1.84375q0.6875 1.1875 0.6875 2.78125q0 1.578125 -0.703125 2.78125q-0.703125 1.203125 -1.90625 1.859375q-1.1875 0.65625 -2.640625 0.65625zm0 -1.5q0.921875 0 1.71875 -0.421875q0.796875 -0.4375 1.296875 -1.296875q0.5 -0.859375 0.5 -2.078125q0 -1.234375 -0.484375 -2.09375q-0.484375 -0.859375 -1.28125 -1.28125q-0.78125 -0.421875 -1.6875 -0.421875q-0.9375 0 -1.71875 0.421875q-0.765625 0.421875 -1.234375 1.28125q-0.46875 0.859375 -0.46875 2.09375q0 1.25 0.453125 2.109375q0.46875 0.84375 1.234375 1.265625q0.765625 0.421875 1.671875 0.421875zm11.111877 1.5q-1.1875 0 -2.125 -0.40625q-0.921875 -0.40625 -1.46875 -1.125q-0.53125 -0.71875 -0.59375 -1.640625l1.75 0q0.078125 0.765625 0.71875 1.25q0.65625 0.484375 1.6875 0.484375q0.96875 0 1.53125 -0.421875q0.5625 -0.4375 0.5625 -1.09375q0 -0.671875 -0.59375 -1.0q-0.59375 -0.328125 -1.84375 -0.640625q-1.140625 -0.296875 -1.859375 -0.59375q-0.71875 -0.3125 -1.234375 -0.921875q-0.515625 -0.609375 -0.515625 -1.59375q0 -0.796875 0.46875 -1.4375q0.46875 -0.65625 1.328125 -1.03125q0.859375 -0.390625 1.953125 -0.390625q1.703125 0 2.75 0.859375q1.046875 0.859375 1.109375 2.34375l-1.6875 0q-0.0625 -0.796875 -0.65625 -1.28125q-0.578125 -0.484375 -1.5625 -0.484375q-0.921875 0 -1.46875 0.390625q-0.53125 0.390625 -0.53125 1.03125q0 0.5 0.328125 0.828125q0.328125 0.328125 0.8125 0.53125q0.5 0.1875 1.375 0.421875q1.109375 0.296875 1.796875 0.59375q0.6875 0.28125 1.171875 0.859375q0.5 0.578125 0.515625 1.515625q0 0.84375 -0.46875 1.515625q-0.453125 0.671875 -1.3125 1.0625q-0.84375 0.375 -1.9375 0.375zm8.176086 -9.0l0 6.03125q0 0.75 0.3125 1.0625q0.328125 0.296875 1.109375 0.296875l1.25 0l0 1.4375l-1.53125 0q-1.40625 0 -2.125 -0.65625q-0.703125 -0.65625 -0.703125 -2.140625l0 -6.03125l-1.328125 0l0 -1.390625l1.328125 0l0 -2.578125l1.6875 0l0 2.578125l2.671875 0l0 1.390625l-2.671875 0z" fill-rule="nonzero"/><path fill="#000000" fill-opacity="0.0" d="m52.850243 120.373886l0 0c0 -10.425484 8.451527 -18.877014 18.877014 -18.877014l157.77353 0c5.0065002 0 9.807938 1.9888229 13.348068 5.5289536c3.5401306 3.540123 5.528961 8.341568 5.528961 13.348061l0 75.50581c0 10.425491 -8.451538 18.877014 -18.87703 18.877014l-157.77353 0c-10.4254875 0 -18.877014 -8.451523 -18.877014 -18.877014z" fill-rule="evenodd"/><path stroke="#8d3aed" stroke-width="3.0" stroke-linejoin="round" stroke-linecap="butt" d="m52.850243 120.373886l0 0c0 -10.425484 8.451527 -18.877014 18.877014 -18.877014l157.77353 0c5.0065002 0 9.807938 1.9888229 13.348068 5.5289536c3.5401306 3.540123 5.528961 8.341568 5.528961 13.348061l0 75.50581c0 10.425491 -8.451538 18.877014 -18.87703 18.877014l-157.77353 0c-10.4254875 0 -18.877014 -8.451523 -18.877014 -18.877014z" fill-rule="evenodd"/><path fill="#ffffff" d="m102.36258 150.58992l0 11.671875q0 1.953125 -1.203125 3.125q-1.203125 1.15625 -3.171875 1.15625q-2.0 0 -3.203125 -1.1875q-1.203125 -1.1875 -1.203125 -3.25l2.0625 0q0.03125 1.15625 0.609375 1.890625q0.578125 0.71875 1.734375 0.71875q1.15625 0 1.71875 -0.6875q0.5625 -0.703125 0.5625 -1.765625l0 -11.671875l2.09375 0zm9.054657 15.953125q-1.5625 0 -2.796875 -0.546875q-1.234375 -0.5625 -1.9375 -1.546875q-0.703125 -0.984375 -0.71875 -2.28125l2.1875 0q0.125 1.109375 0.921875 1.875q0.796875 0.765625 2.34375 0.765625q1.46875 0 2.3125 -0.734375q0.859375 -0.75 0.859375 -1.90625q0 -0.90625 -0.5 -1.46875q-0.5 -0.5625 -1.25 -0.859375q-0.734375 -0.296875 -2.015625 -0.640625q-1.5625 -0.40625 -2.5 -0.8125q-0.9375 -0.40625 -1.609375 -1.28125q-0.671875 -0.875 -0.671875 -2.34375q0 -1.28125 0.65625 -2.28125q0.671875 -1.0 1.859375 -1.546875q1.1875 -0.546875 2.71875 -0.546875q2.21875 0 3.640625 1.109375q1.421875 1.109375 1.59375 2.953125l-2.265625 0q-0.109375 -0.90625 -0.953125 -1.59375q-0.828125 -0.703125 -2.21875 -0.703125q-1.28125 0 -2.109375 0.671875q-0.8125 0.671875 -0.8125 1.875q0 0.859375 0.484375 1.40625q0.5 0.546875 1.203125 0.828125q0.71875 0.28125 2.015625 0.640625q1.5625 0.4375 2.5 0.859375q0.953125 0.40625 1.625 1.28125q0.6875 0.875 0.6875 2.375q0 1.140625 -0.609375 2.171875q-0.609375 1.015625 -1.8125 1.65625q-1.203125 0.625 -2.828125 0.625zm15.455444 0q-2.203125 0 -4.015625 -1.03125q-1.8125 -1.03125 -2.875 -2.875q-1.046875 -1.84375 -1.046875 -4.15625q0 -2.3125 1.046875 -4.15625q1.0625 -1.84375 2.875 -2.875q1.8125 -1.03125 4.015625 -1.03125q2.21875 0 4.03125 1.03125q1.8125 1.03125 2.84375 2.875q1.046875 1.828125 1.046875 4.15625q0 2.328125 -1.046875 4.171875q-1.03125 1.828125 -2.84375 2.859375q-1.8125 1.03125 -4.03125 1.03125zm0 -1.78125q1.65625 0 2.96875 -0.765625q1.328125 -0.78125 2.078125 -2.203125q0.765625 -1.4375 0.765625 -3.3125q0 -1.90625 -0.765625 -3.3125q-0.75 -1.421875 -2.0625 -2.1875q-1.3125 -0.78125 -2.984375 -0.78125q-1.671875 0 -3.0 0.78125q-1.3125 0.765625 -2.078125 2.1875q-0.75 1.40625 -0.75 3.3125q0 1.875 0.75 3.3125q0.765625 1.421875 2.09375 2.203125q1.328125 0.765625 2.984375 0.765625zm23.05777 1.625l-2.0625 0l-8.28125 -12.578125l0 12.578125l-2.0625 0l0 -15.8125l2.0625 0l8.28125 12.546875l0 -12.546875l2.0625 0l0 15.8125zm12.130432 -9.171875l0 1.734375l-9.046875 0l0 -1.734375l9.046875 0zm12.186691 9.171875l-3.765625 -6.453125l-2.484375 0l0 6.453125l-2.0625 0l0 -15.796875l5.09375 0q1.78125 0 3.015625 0.625q1.234375 0.609375 1.84375 1.65625q0.625 1.03125 0.625 2.375q0 1.625 -0.953125 2.875q-0.9375 1.25 -2.8125 1.65625l3.96875 6.609375l-2.46875 0zm-6.25 -8.109375l3.03125 0q1.671875 0 2.5 -0.828125q0.84375 -0.828125 0.84375 -2.203125q0 -1.40625 -0.828125 -2.171875q-0.8125 -0.78125 -2.515625 -0.78125l-3.03125 0l0 5.984375zm22.259369 -3.0625q0 1.96875 -1.34375 3.28125q-1.34375 1.296875 -4.1093903 1.296875l-3.03125 0l0 6.59375l-2.0625 0l0 -15.796875l5.09375 0q2.6718903 0 4.0625153 1.296875q1.390625 1.296875 1.390625 3.328125zm-5.4531403 2.875q1.7187653 0 2.5312653 -0.734375q0.8125 -0.75 0.8125 -2.140625q0 -2.921875 -3.3437653 -2.921875l-3.03125 0l0 5.796875l3.03125 0zm7.242935 0.390625q0 -2.3125 1.046875 -4.15625q1.046875 -1.84375 2.84375 -2.890625q1.796875 -1.046875 4.0 -1.046875q2.578125 0 4.5 1.25q1.9375 1.25 2.8125 3.53125l-2.46875 0q-0.65625 -1.421875 -1.890625 -2.1875q-1.234375 -0.78125 -2.953125 -0.78125q-1.65625 0 -2.96875 0.78125q-1.3125 0.765625 -2.0625 2.1875q-0.75 1.40625 -0.75 3.3125q0 1.875 0.75 3.296875q0.75 1.421875 2.0625 2.1875q1.3125 0.765625 2.96875 0.765625q1.71875 0 2.953125 -0.75q1.234375 -0.765625 1.890625 -2.1875l2.46875 0q-0.875 2.265625 -2.8125 3.5q-1.921875 1.234375 -4.5 1.234375q-2.203125 0 -4.0 -1.03125q-1.796875 -1.03125 -2.84375 -2.859375q-1.046875 -1.84375 -1.046875 -4.15625z" fill-rule="nonzero"/><path fill="#000000" fill-opacity="0.0" d="m52.850243 251.5321l0 0c0 -11.996857 9.7253685 -21.722229 21.722221 -21.722229l86.88626 0l0 0c5.761093 0 11.286224 2.2885895 15.35994 6.3622894c4.0737 4.073715 6.3622894 9.598846 6.3622894 15.35994l0 274.0044c0 11.996826 -9.725372 21.722168 -21.722229 21.722168l-86.88626 0c-11.996853 0 -21.722221 -9.725342 -21.722221 -21.722168z" fill-rule="evenodd"/><path stroke="#8d3aed" stroke-width="3.0" stroke-linejoin="round" stroke-linecap="butt" d="m52.850243 251.5321l0 0c0 -11.996857 9.7253685 -21.722229 21.722221 -21.722229l86.88626 0l0 0c5.761093 0 11.286224 2.2885895 15.35994 6.3622894c4.0737 4.073715 6.3622894 9.598846 6.3622894 15.35994l0 274.0044c0 11.996826 -9.725372 21.722168 -21.722229 21.722168l-86.88626 0c-11.996853 0 -21.722221 -9.725342 -21.722221 -21.722168z" fill-rule="evenodd"/><path fill="#ffffff" d="m80.71474 395.97928l6.1875 0l0 1.875l-8.484375 0l0 -17.65625l2.296875 0l0 15.78125zm9.832397 -14.265625q-0.65625 0 -1.109375 -0.453125q-0.453125 -0.453125 -0.453125 -1.109375q0 -0.65625 0.453125 -1.109375q0.453125 -0.46875 1.109375 -0.46875q0.640625 0 1.078125 0.46875q0.4375 0.453125 0.4375 1.109375q0 0.65625 -0.4375 1.109375q-0.4375 0.453125 -1.078125 0.453125zm1.109375 2.265625l0 13.875l-2.296875 0l0 -13.875l2.296875 0zm6.230728 2.578125q0.71875 -1.234375 2.078125 -2.015625q1.375 -0.796875 3.125 -0.796875q1.875 0 3.359375 0.890625q1.5 0.890625 2.359375 2.5q0.859375 1.59375 0.859375 3.734375q0 2.09375 -0.859375 3.75q-0.859375 1.640625 -2.375 2.5625q-1.5 0.90625 -3.34375 0.90625q-1.796875 0 -3.15625 -0.78125q-1.359375 -0.796875 -2.046875 -2.015625l0 2.5625l-2.296875 0l0 -18.75l2.296875 0l0 7.453125zm9.421875 4.3125q0 -1.578125 -0.640625 -2.734375q-0.625 -1.171875 -1.703125 -1.78125q-1.0625 -0.609375 -2.359375 -0.609375q-1.265625 0 -2.34375 0.625q-1.078125 0.625 -1.734375 1.796875q-0.640625 1.171875 -0.640625 2.71875q0 1.578125 0.640625 2.75q0.65625 1.171875 1.734375 1.796875q1.078125 0.625 2.34375 0.625q1.296875 0 2.359375 -0.625q1.078125 -0.625 1.703125 -1.796875q0.640625 -1.171875 0.640625 -2.765625zm7.6999664 -4.34375q0.6875 -1.1875 2.046875 -1.984375q1.359375 -0.796875 3.15625 -0.796875q1.84375 0 3.34375 0.890625q1.515625 0.890625 2.375 2.5q0.859375 1.59375 0.859375 3.734375q0 2.09375 -0.859375 3.75q-0.859375 1.640625 -2.375 2.5625q-1.5 0.90625 -3.34375 0.90625q-1.78125 0 -3.140625 -0.796875q-1.34375 -0.8125 -2.0625 -2.0l0 9.140625l-2.296875 0l0 -20.453125l2.296875 0l0 2.546875zm9.421875 4.34375q0 -1.578125 -0.640625 -2.734375q-0.625 -1.171875 -1.703125 -1.78125q-1.0625 -0.609375 -2.359375 -0.609375q-1.265625 0 -2.34375 0.625q-1.078125 0.625 -1.734375 1.796875q-0.640625 1.171875 -0.640625 2.71875q0 1.578125 0.640625 2.75q0.65625 1.171875 1.734375 1.796875q1.078125 0.625 2.34375 0.625q1.296875 0 2.359375 -0.625q1.078125 -0.625 1.703125 -1.796875q0.640625 -1.171875 0.640625 -2.765625zm4.7468414 5.140625q3.21875 -2.59375 5.03125 -4.25q1.828125 -1.65625 3.078125 -3.46875q1.25 -1.8125 1.25 -3.5625q0 -1.640625 -0.796875 -2.59375q-0.796875 -0.953125 -2.5625 -0.953125q-1.71875 0 -2.671875 1.078125q-0.953125 1.078125 -1.03125 2.875l-2.21875 0q0.09375 -2.828125 1.71875 -4.375q1.625 -1.546875 4.171875 -1.546875q2.609375 0 4.140625 1.453125q1.53125 1.4375 1.53125 3.96875q0 2.09375 -1.25 4.09375q-1.25 1.984375 -2.84375 3.5q-1.59375 1.5 -4.078125 3.5l8.703125 0l0 1.921875l-12.171875 0l0 -1.640625zm17.516815 -9.484375q0.6875 -1.1875 2.046875 -1.984375q1.359375 -0.796875 3.15625 -0.796875q1.84375 0 3.34375 0.890625q1.515625 0.890625 2.375 2.5q0.859375 1.59375 0.859375 3.734375q0 2.09375 -0.859375 3.75q-0.859375 1.640625 -2.375 2.5625q-1.5 0.90625 -3.34375 0.90625q-1.78125 0 -3.140625 -0.796875q-1.34375 -0.8125 -2.0625 -2.0l0 9.140625l-2.296875 0l0 -20.453125l2.296875 0l0 2.546875zm9.421875 4.34375q0 -1.578125 -0.640625 -2.734375q-0.625 -1.171875 -1.703125 -1.78125q-1.0625 -0.609375 -2.359375 -0.609375q-1.265625 0 -2.34375 0.625q-1.078125 0.625 -1.734375 1.796875q-0.640625 1.171875 -0.640625 2.71875q0 1.578125 0.640625 2.75q0.65625 1.171875 1.734375 1.796875q1.078125 0.625 2.34375 0.625q1.296875 0 2.359375 -0.625q1.078125 -0.625 1.703125 -1.796875q0.640625 -1.171875 0.640625 -2.765625z" fill-rule="nonzero"/><path fill="#000000" fill-opacity="0.0" d="m206.67888 467.39532l0 0c0 -8.822235 7.151825 -15.974091 15.974075 -15.974091l160.61877 0c4.236603 0 8.299652 1.6829834 11.29538 4.678711c2.9957275 2.9957275 4.6786804 7.058777 4.6786804 11.29538l0 63.89435c0 8.822266 -7.151825 15.97406 -15.97406 15.97406l-160.61877 0l0 0c-8.82225 0 -15.974075 -7.1517944 -15.974075 -15.97406z" fill-rule="evenodd"/><path stroke="#8d3aed" stroke-width="3.0" stroke-linejoin="round" stroke-linecap="butt" d="m206.67888 467.39532l0 0c0 -8.822235 7.151825 -15.974091 15.974075 -15.974091l160.61877 0c4.236603 0 8.299652 1.6829834 11.29538 4.678711c2.9957275 2.9957275 4.6786804 7.058777 4.6786804 11.29538l0 63.89435c0 8.822266 -7.151825 15.97406 -15.97406 15.97406l-160.61877 0l0 0c-8.82225 0 -15.974075 -7.1517944 -15.974075 -15.97406z" fill-rule="evenodd"/><path fill="#ffffff" d="m259.6674 492.605q2.28125 0 3.953125 0.859375q1.671875 0.84375 2.5625 2.421875q0.890625 1.578125 0.890625 3.71875q0 2.140625 -0.890625 3.71875q-0.890625 1.5625 -2.5625 2.390625q-1.671875 0.828125 -3.953125 0.828125l-4.3281403 0l0 -13.9375l4.3281403 0zm0 12.4375q2.703125 0 4.125 -1.421875q1.421875 -1.4375 1.421875 -4.015625q0 -2.609375 -1.4375 -4.0625q-1.421875 -1.453125 -4.109375 -1.453125l-2.515625 0l0 10.953125l2.515625 0zm9.124359 -4.015625q0 -1.6875 0.671875 -2.953125q0.6875 -1.265625 1.875 -1.96875q1.1875 -0.703125 2.65625 -0.703125q1.4375 0 2.5 0.625q1.0625 0.609375 1.578125 1.5625l0 -2.0l1.84375 0l0 10.953125l-1.84375 0l0 -2.046875q-0.546875 0.96875 -1.625 1.609375q-1.0625 0.625 -2.46875 0.625q-1.46875 0 -2.65625 -0.71875q-1.171875 -0.734375 -1.859375 -2.03125q-0.671875 -1.296875 -0.671875 -2.953125zm9.28125 0.015625q0 -1.234375 -0.5 -2.15625q-0.5 -0.921875 -1.359375 -1.40625q-0.84375 -0.5 -1.859375 -0.5q-1.015625 0 -1.859375 0.484375q-0.84375 0.484375 -1.34375 1.40625q-0.5 0.90625 -0.5 2.15625q0 1.25 0.5 2.1875q0.5 0.921875 1.34375 1.421875q0.84375 0.484375 1.859375 0.484375q1.015625 0 1.859375 -0.484375q0.859375 -0.5 1.359375 -1.421875q0.5 -0.9375 0.5 -2.171875zm7.144989 -3.953125l0 6.453125q0 0.796875 0.328125 1.125q0.34375 0.328125 1.1875 0.328125l1.34375 0l0 1.546875l-1.640625 0q-1.53125 0 -2.296875 -0.703125q-0.75 -0.703125 -0.75 -2.296875l0 -6.453125l-1.421875 0l0 -1.5l1.421875 0l0 -2.765625l1.828125 0l0 2.765625l2.859375 0l0 1.5l-2.859375 0zm4.373749 3.9375q0 -1.6875 0.671875 -2.953125q0.6875 -1.265625 1.875 -1.96875q1.1875 -0.703125 2.65625 -0.703125q1.4375 0 2.5 0.625q1.0625 0.609375 1.578125 1.5625l0 -2.0l1.84375 0l0 10.953125l-1.84375 0l0 -2.046875q-0.546875 0.96875 -1.625 1.609375q-1.0625 0.625 -2.46875 0.625q-1.46875 0 -2.65625 -0.71875q-1.171875 -0.734375 -1.859375 -2.03125q-0.671875 -1.296875 -0.671875 -2.953125zm9.28125 0.015625q0 -1.234375 -0.5 -2.15625q-0.5 -0.921875 -1.359375 -1.40625q-0.84375 -0.5 -1.859375 -0.5q-1.015625 0 -1.859375 0.484375q-0.84375 0.484375 -1.34375 1.40625q-0.5 0.90625 -0.5 2.15625q0 1.25 0.5 2.1875q0.5 0.921875 1.34375 1.421875q0.84375 0.484375 1.859375 0.484375q1.015625 0 1.859375 -0.484375q0.859375 -0.5 1.359375 -1.421875q0.5 -0.9375 0.5 -2.171875zm6.738739 -3.421875q0.5625 -0.984375 1.640625 -1.59375q1.078125 -0.625 2.453125 -0.625q1.484375 0 2.65625 0.703125q1.1875 0.703125 1.859375 1.96875q0.6875 1.265625 0.6875 2.953125q0 1.65625 -0.6875 2.953125q-0.671875 1.296875 -1.859375 2.03125q-1.1875 0.71875 -2.65625 0.71875q-1.40625 0 -2.484375 -0.625q-1.0625 -0.625 -1.609375 -1.578125l0 2.015625l-1.8125 0l0 -14.796875l1.8125 0l0 5.875zm7.4375 3.40625q0 -1.25 -0.5 -2.15625q-0.5 -0.921875 -1.359375 -1.40625q-0.84375 -0.484375 -1.859375 -0.484375q-1.0 0 -1.859375 0.5q-0.84375 0.484375 -1.359375 1.421875q-0.5 0.921875 -0.5 2.140625q0 1.234375 0.5 2.171875q0.515625 0.921875 1.359375 1.421875q0.859375 0.484375 1.859375 0.484375q1.015625 0 1.859375 -0.484375q0.859375 -0.5 1.359375 -1.421875q0.5 -0.9375 0.5 -2.1875zm3.582489 0q0 -1.6875 0.671875 -2.953125q0.6875 -1.265625 1.875 -1.96875q1.1875 -0.703125 2.65625 -0.703125q1.4375 0 2.5 0.625q1.0625 0.609375 1.578125 1.5625l0 -2.0l1.84375 0l0 10.953125l-1.84375 0l0 -2.046875q-0.546875 0.96875 -1.625 1.609375q-1.0625 0.625 -2.46875 0.625q-1.46875 0 -2.65625 -0.71875q-1.171875 -0.734375 -1.859375 -2.03125q-0.671875 -1.296875 -0.671875 -2.953125zm9.28125 0.015625q0 -1.234375 -0.5 -2.15625q-0.5 -0.921875 -1.359375 -1.40625q-0.84375 -0.5 -1.859375 -0.5q-1.015625 0 -1.859375 0.484375q-0.84375 0.484375 -1.34375 1.40625q-0.5 0.90625 -0.5 2.15625q0 1.25 0.5 2.1875q0.5 0.921875 1.34375 1.421875q0.84375 0.484375 1.859375 0.484375q1.015625 0 1.859375 -0.484375q0.859375 -0.5 1.359375 -1.421875q0.5 -0.9375 0.5 -2.171875zm8.801239 5.6875q-1.265625 0 -2.265625 -0.4375q-1.0 -0.4375 -1.578125 -1.203125q-0.578125 -0.765625 -0.640625 -1.765625l1.875 0q0.09375 0.8125 0.78125 1.34375q0.6875 0.515625 1.8125 0.515625q1.03125 0 1.625 -0.453125q0.609375 -0.46875 0.609375 -1.171875q0 -0.71875 -0.640625 -1.0625q-0.640625 -0.359375 -1.984375 -0.6875q-1.21875 -0.328125 -1.984375 -0.65625q-0.765625 -0.328125 -1.328125 -0.96875q-0.546875 -0.65625 -0.546875 -1.71875q0 -0.84375 0.5 -1.53125q0.5 -0.703125 1.421875 -1.109375q0.921875 -0.421875 2.109375 -0.421875q1.8125 0 2.921875 0.921875q1.125 0.921875 1.203125 2.515625l-1.8125 0q-0.0625 -0.859375 -0.6875 -1.375q-0.625 -0.515625 -1.6875 -0.515625q-0.984375 0 -1.5625 0.421875q-0.578125 0.40625 -0.578125 1.09375q0 0.53125 0.34375 0.890625q0.359375 0.34375 0.875 0.5625q0.53125 0.203125 1.484375 0.46875q1.171875 0.3125 1.90625 0.625q0.75 0.3125 1.28125 0.9375q0.53125 0.609375 0.546875 1.609375q0 0.90625 -0.5 1.625q-0.5 0.71875 -1.421875 1.140625q-0.90625 0.40625 -2.078125 0.40625zm16.564972 -6.09375q0 0.53125 -0.0625 1.109375l-8.765625 0q0.09375 1.609375 1.109375 2.53125q1.015625 0.90625 2.453125 0.90625q1.171875 0 1.96875 -0.546875q0.796875 -0.546875 1.109375 -1.46875l1.953125 0q-0.4375 1.578125 -1.765625 2.578125q-1.3125 0.984375 -3.265625 0.984375q-1.5625 0 -2.796875 -0.703125q-1.21875 -0.703125 -1.921875 -1.984375q-0.703125 -1.296875 -0.703125 -3.0q0 -1.703125 0.671875 -2.984375q0.6875 -1.28125 1.921875 -1.96875q1.234375 -0.6875 2.828125 -0.6875q1.5625 0 2.75 0.6875q1.203125 0.671875 1.859375 1.859375q0.65625 1.1875 0.65625 2.6875zm-1.890625 -0.375q0 -1.03125 -0.46875 -1.78125q-0.453125 -0.75 -1.25 -1.140625q-0.78125 -0.390625 -1.734375 -0.390625q-1.390625 0 -2.359375 0.875q-0.96875 0.875 -1.109375 2.4375l6.921875 0z" fill-rule="nonzero"/><path fill="#000000" fill-opacity="0.0" d="m203.71022 309.696l0 0c0 -13.234802 10.728928 -23.963745 23.963745 -23.963745l147.60008 0c6.355591 0 12.450836 2.5247498 16.944916 7.0188293c4.4940796 4.4940796 7.0188293 10.589325 7.0188293 16.944916l0 95.85205c0 13.234802 -10.728943 23.963745 -23.963745 23.963745l-147.60008 0c-13.2348175 0 -23.963745 -10.728943 -23.963745 -23.963745z" fill-rule="evenodd"/><path stroke="#8d3aed" stroke-width="3.0" stroke-linejoin="round" stroke-linecap="butt" d="m203.71022 309.696l0 0c0 -13.234802 10.728928 -23.963745 23.963745 -23.963745l147.60008 0c6.355591 0 12.450836 2.5247498 16.944916 7.0188293c4.4940796 4.4940796 7.0188293 10.589325 7.0188293 16.944916l0 95.85205c0 13.234802 -10.728943 23.963745 -23.963745 23.963745l-147.60008 0c-13.2348175 0 -23.963745 -10.728943 -23.963745 -23.963745z" fill-rule="evenodd"/><path fill="#ffffff" d="m249.08604 337.24268l0 1.578125l-4.0625 0l0 13.28125l-1.9375 0l0 -13.28125l-4.078125 0l0 -1.578125l10.078125 0zm4.319809 5.0625q0.515625 -1.0 1.46875 -1.546875q0.953125 -0.5625 2.3125 -0.5625l0 2.015625l-0.515625 0q-3.265625 0 -3.265625 3.53125l0 6.359375l-1.9375 0l0 -11.6875l1.9375 0l0 1.890625zm5.299164 3.90625q0 -1.78125 0.71875 -3.140625q0.734375 -1.359375 2.0 -2.09375q1.265625 -0.75 2.828125 -0.75q1.53125 0 2.65625 0.65625q1.140625 0.65625 1.6875 1.65625l0 -2.125l1.96875 0l0 11.6875l-1.96875 0l0 -2.171875q-0.578125 1.015625 -1.71875 1.6875q-1.140625 0.671875 -2.65625 0.671875q-1.546875 0 -2.8125 -0.765625q-1.25 -0.765625 -1.984375 -2.140625q-0.71875 -1.390625 -0.71875 -3.171875zm9.890625 0.03125q0 -1.328125 -0.53125 -2.3125q-0.53125 -0.984375 -1.4375 -1.5q-0.90625 -0.515625 -2.0 -0.515625q-1.078125 0 -1.984375 0.515625q-0.890625 0.5 -1.421875 1.484375q-0.53125 0.984375 -0.53125 2.296875q0 1.34375 0.53125 2.34375q0.53125 0.984375 1.421875 1.515625q0.90625 0.515625 1.984375 0.515625q1.09375 0 2.0 -0.515625q0.90625 -0.53125 1.4375 -1.515625q0.53125 -1.0 0.53125 -2.3125zm10.949127 -6.046875q2.125 0 3.4375 1.296875q1.328125 1.28125 1.328125 3.71875l0 6.890625l-1.921875 0l0 -6.609375q0 -1.75 -0.875 -2.671875q-0.859375 -0.9375 -2.375 -0.9375q-1.546875 0 -2.453125 0.96875q-0.90625 0.953125 -0.90625 2.78125l0 6.46875l-1.9375 0l0 -11.6875l1.9375 0l0 1.65625q0.578125 -0.890625 1.5625 -1.375q1.0 -0.5 2.203125 -0.5zm12.087555 12.09375q-1.34375 0 -2.421875 -0.453125q-1.0625 -0.453125 -1.6875 -1.28125q-0.609375 -0.828125 -0.671875 -1.890625l2.0 0q0.09375 0.875 0.828125 1.4375q0.734375 0.546875 1.9375 0.546875q1.109375 0 1.734375 -0.484375q0.640625 -0.5 0.640625 -1.234375q0 -0.78125 -0.6875 -1.140625q-0.671875 -0.375 -2.09375 -0.75q-1.3125 -0.328125 -2.140625 -0.671875q-0.8125 -0.359375 -1.40625 -1.046875q-0.578125 -0.703125 -0.578125 -1.828125q0 -0.90625 0.53125 -1.640625q0.53125 -0.75 1.515625 -1.1875q0.984375 -0.4375 2.25 -0.4375q1.9375 0 3.125 0.984375q1.203125 0.96875 1.28125 2.671875l-1.9375 0q-0.0625 -0.90625 -0.734375 -1.453125q-0.671875 -0.5625 -1.8125 -0.5625q-1.03125 0 -1.65625 0.453125q-0.625 0.4375 -0.625 1.171875q0 0.5625 0.375 0.9375q0.375 0.375 0.9375 0.609375q0.578125 0.21875 1.578125 0.5q1.25 0.328125 2.03125 0.671875q0.796875 0.328125 1.359375 0.984375q0.578125 0.65625 0.59375 1.734375q0 0.953125 -0.53125 1.71875q-0.53125 0.765625 -1.515625 1.203125q-0.96875 0.4375 -2.21875 0.4375zm6.2739563 -6.078125q0 -1.78125 0.71875 -3.140625q0.734375 -1.359375 2.0 -2.09375q1.265625 -0.75 2.828125 -0.75q1.53125 0 2.65625 0.65625q1.140625 0.65625 1.6875 1.65625l0 -2.125l1.96875 0l0 11.6875l-1.96875 0l0 -2.171875q-0.578125 1.015625 -1.71875 1.6875q-1.140625 0.671875 -2.65625 0.671875q-1.546875 0 -2.8125 -0.765625q-1.25 -0.765625 -1.984375 -2.140625q-0.71875 -1.390625 -0.71875 -3.171875zm9.890625 0.03125q0 -1.328125 -0.53125 -2.3125q-0.53125 -0.984375 -1.4375 -1.5q-0.90625 -0.515625 -2.0 -0.515625q-1.078125 0 -1.984375 0.515625q-0.890625 0.5 -1.421875 1.484375q-0.53125 0.984375 -0.53125 2.296875q0 1.34375 0.53125 2.34375q0.53125 0.984375 1.421875 1.515625q0.90625 0.515625 1.984375 0.515625q1.09375 0 2.0 -0.515625q0.90625 -0.53125 1.4375 -1.515625q0.53125 -1.0 0.53125 -2.3125zm4.527252 0q0 -1.8125 0.71875 -3.171875q0.734375 -1.359375 2.015625 -2.09375q1.296875 -0.75 2.953125 -0.75q2.15625 0 3.546875 1.046875q1.40625 1.03125 1.84375 2.890625l-2.078125 0q-0.296875 -1.0625 -1.171875 -1.671875q-0.859375 -0.625 -2.140625 -0.625q-1.65625 0 -2.6875 1.140625q-1.015625 1.140625 -1.015625 3.234375q0 2.109375 1.015625 3.265625q1.03125 1.140625 2.6875 1.140625q1.28125 0 2.125 -0.59375q0.859375 -0.59375 1.1875 -1.703125l2.078125 0q-0.46875 1.78125 -1.875 2.859375q-1.40625 1.078125 -3.515625 1.078125q-1.65625 0 -2.953125 -0.734375q-1.28125 -0.75 -2.015625 -2.109375q-0.71875 -1.375 -0.71875 -3.203125zm16.039978 -4.234375l0 6.890625q0 0.859375 0.359375 1.21875q0.359375 0.34375 1.25 0.34375l1.4375 0l0 1.640625l-1.75 0q-1.625 0 -2.4375 -0.75q-0.8125 -0.75 -0.8125 -2.453125l0 -6.890625l-1.515625 0l0 -1.59375l1.515625 0l0 -2.9375l1.953125 0l0 2.9375l3.046875 0l0 1.59375l-3.046875 0zm6.388489 -3.5q-0.546875 0 -0.9375 -0.375q-0.375 -0.390625 -0.375 -0.9375q0 -0.5625 0.375 -0.9375q0.390625 -0.390625 0.9375 -0.390625q0.53125 0 0.90625 0.390625q0.375 0.375 0.375 0.9375q0 0.546875 -0.375 0.9375q-0.375 0.375 -0.90625 0.375zm0.9375 1.90625l0 11.6875l-1.9375 0l0 -11.6875l1.9375 0zm8.402985 11.875q-1.640625 0 -2.96875 -0.734375q-1.328125 -0.75 -2.09375 -2.125q-0.75 -1.375 -0.75 -3.1875q0 -1.796875 0.765625 -3.171875q0.78125 -1.375 2.125 -2.109375q1.34375 -0.734375 3.015625 -0.734375q1.65625 0 3.0 0.734375q1.34375 0.734375 2.125 2.109375q0.78125 1.359375 0.78125 3.171875q0 1.8125 -0.796875 3.1875q-0.796875 1.375 -2.171875 2.125q-1.359375 0.734375 -3.03125 0.734375zm0 -1.703125q1.046875 0 1.96875 -0.484375q0.921875 -0.5 1.484375 -1.46875q0.5625 -0.984375 0.5625 -2.390625q0 -1.40625 -0.5625 -2.390625q-0.546875 -0.984375 -1.453125 -1.453125q-0.890625 -0.484375 -1.9375 -0.484375q-1.0625 0 -1.953125 0.484375q-0.875 0.46875 -1.40625 1.453125q-0.53125 0.984375 -0.53125 2.390625q0 1.421875 0.515625 2.40625q0.53125 0.984375 1.390625 1.46875q0.875 0.46875 1.921875 0.46875zm14.25943 -10.390625q2.125 0 3.4375 1.296875q1.328125 1.28125 1.328125 3.71875l0 6.890625l-1.921875 0l0 -6.609375q0 -1.75 -0.875 -2.671875q-0.859375 -0.9375 -2.375 -0.9375q-1.546875 0 -2.453125 0.96875q-0.90625 0.953125 -0.90625 2.78125l0 6.46875l-1.9375 0l0 -11.6875l1.9375 0l0 1.65625q0.578125 -0.890625 1.5625 -1.375q1.0 -0.5 2.203125 -0.5z" fill-rule="nonzero"/><path fill="#ffffff" d="m290.6042 367.58643q0 1.859375 -1.265625 3.09375q-1.265625 1.21875 -3.875 1.21875l-2.859375 0l0 6.203125l-1.9375 0l0 -14.859375l4.796875 0q2.515625 0 3.828125 1.21875q1.3125 1.203125 1.3125 3.125zm-5.140625 2.703125q1.625 0 2.390625 -0.703125q0.765625 -0.703125 0.765625 -2.0q0 -2.75 -3.15625 -2.75l-2.859375 0l0 5.453125l2.859375 0zm12.645905 8.0q-1.640625 0 -2.96875 -0.734375q-1.328125 -0.75 -2.09375 -2.125q-0.75 -1.375 -0.75 -3.1875q0 -1.796875 0.765625 -3.171875q0.78125 -1.375 2.125 -2.109375q1.34375 -0.734375 3.015625 -0.734375q1.65625 0 3.0 0.734375q1.34375 0.734375 2.125 2.109375q0.78125 1.359375 0.78125 3.171875q0 1.8125 -0.796875 3.1875q-0.796875 1.375 -2.171875 2.125q-1.359375 0.734375 -3.03125 0.734375zm0 -1.703125q1.046875 0 1.96875 -0.484375q0.921875 -0.5 1.484375 -1.46875q0.5625 -0.984375 0.5625 -2.390625q0 -1.40625 -0.5625 -2.390625q-0.546875 -0.984375 -1.453125 -1.453125q-0.890625 -0.484375 -1.9375 -0.484375q-1.0625 0 -1.953125 0.484375q-0.875 0.46875 -1.40625 1.453125q-0.53125 0.984375 -0.53125 2.390625q0 1.421875 0.515625 2.40625q0.53125 0.984375 1.390625 1.46875q0.875 0.46875 1.921875 0.46875zm13.650055 1.703125q-1.640625 0 -2.96875 -0.734375q-1.328125 -0.75 -2.09375 -2.125q-0.75 -1.375 -0.75 -3.1875q0 -1.796875 0.765625 -3.171875q0.78125 -1.375 2.125 -2.109375q1.34375 -0.734375 3.015625 -0.734375q1.65625 0 3.0 0.734375q1.34375 0.734375 2.125 2.109375q0.78125 1.359375 0.78125 3.171875q0 1.8125 -0.796875 3.1875q-0.796875 1.375 -2.171875 2.125q-1.359375 0.734375 -3.03125 0.734375zm0 -1.703125q1.046875 0 1.96875 -0.484375q0.921875 -0.5 1.484375 -1.46875q0.5625 -0.984375 0.5625 -2.390625q0 -1.40625 -0.5625 -2.390625q-0.546875 -0.984375 -1.453125 -1.453125q-0.890625 -0.484375 -1.9375 -0.484375q-1.0625 0 -1.953125 0.484375q-0.875 0.46875 -1.40625 1.453125q-0.53125 0.984375 -0.53125 2.390625q0 1.421875 0.515625 2.40625q0.53125 0.984375 1.390625 1.46875q0.875 0.46875 1.921875 0.46875zm10.493805 -14.265625l0 15.78125l-1.9375 0l0 -15.78125l1.9375 0z" fill-rule="nonzero"/><path fill="#000000" fill-opacity="0.0" d="m274.4436 129.14047l0 0c0 -15.267143 12.376434 -27.6436 27.643585 -27.6436l277.65768 0c7.331543 0 14.362793 2.912445 19.546997 8.096619c5.184143 5.184181 8.096619 12.215439 8.096619 19.546982l0 110.571075c0 15.267136 -12.376465 27.643585 -27.643616 27.643585l-277.65768 0c-15.267151 0 -27.643585 -12.37645 -27.643585 -27.643585z" fill-rule="evenodd"/><path stroke="#8d3aed" stroke-width="3.0" stroke-linejoin="round" stroke-linecap="butt" d="m274.4436 129.14047l0 0c0 -15.267143 12.376434 -27.6436 27.643585 -27.6436l277.65768 0c7.331543 0 14.362793 2.912445 19.546997 8.096619c5.184143 5.184181 8.096619 12.215439 8.096619 19.546982l0 110.571075c0 15.267136 -12.376465 27.643585 -27.643616 27.643585l-277.65768 0c-15.267151 0 -27.643585 -12.37645 -27.643585 -27.643585z" fill-rule="evenodd"/><path fill="#ffffff" d="m339.93735 173.19162l0 23.234375l-3.03125 0l0 -10.53125l-11.84375 0l0 10.53125l-3.03125 0l0 -23.234375l3.03125 0l0 10.203125l11.84375 0l0 -10.203125l3.03125 0zm13.125519 23.53125q-2.5625 0 -4.65625 -1.15625q-2.078125 -1.171875 -3.265625 -3.3125q-1.171875 -2.15625 -1.171875 -5.0q0 -2.796875 1.203125 -4.9375q1.21875 -2.15625 3.3125 -3.296875q2.109375 -1.15625 4.71875 -1.15625q2.59375 0 4.6875 1.15625q2.109375 1.140625 3.3125 3.28125q1.21875 2.125 1.21875 4.953125q0 2.84375 -1.25 5.0q-1.25 2.140625 -3.390625 3.3125q-2.125 1.15625 -4.71875 1.15625zm0 -2.65625q1.640625 0 3.0625 -0.765625q1.4375 -0.78125 2.3125 -2.3125q0.890625 -1.53125 0.890625 -3.734375q0 -2.1875 -0.875 -3.71875q-0.859375 -1.546875 -2.265625 -2.296875q-1.390625 -0.75 -3.03125 -0.75q-1.65625 0 -3.046875 0.75q-1.375 0.75 -2.21875 2.296875q-0.828125 1.53125 -0.828125 3.71875q0 2.234375 0.8125 3.78125q0.828125 1.53125 2.1875 2.28125q1.375 0.75 3.0 0.75zm19.829956 2.65625q-2.09375 0 -3.765625 -0.71875q-1.671875 -0.71875 -2.640625 -2.0q-0.953125 -1.28125 -1.0625 -2.9375l3.140625 0q0.125 1.359375 1.265625 2.234375q1.15625 0.859375 3.03125 0.859375q1.734375 0 2.734375 -0.765625q1.0 -0.765625 1.0 -1.9375q0 -1.203125 -1.078125 -1.78125q-1.0625 -0.578125 -3.296875 -1.15625q-2.03125 -0.53125 -3.3125 -1.078125q-1.28125 -0.546875 -2.203125 -1.625q-0.90625 -1.09375 -0.90625 -2.859375q0 -1.390625 0.828125 -2.5625q0.828125 -1.171875 2.359375 -1.84375q1.546875 -0.6875 3.5 -0.6875q3.046875 0 4.90625 1.53125q1.859375 1.53125 2.0 4.203125l-3.03125 0q-0.109375 -1.4375 -1.15625 -2.296875q-1.046875 -0.875 -2.8125 -0.875q-1.625 0 -2.59375 0.703125q-0.96875 0.703125 -0.96875 1.828125q0 0.90625 0.578125 1.5q0.578125 0.578125 1.46875 0.921875q0.890625 0.34375 2.453125 0.78125q1.96875 0.53125 3.1875 1.046875q1.234375 0.515625 2.125 1.5625q0.890625 1.03125 0.921875 2.6875q0 1.5 -0.84375 2.703125q-0.828125 1.203125 -2.34375 1.890625q-1.515625 0.671875 -3.484375 0.671875zm14.631622 -16.0625l0 10.765625q0 1.328125 0.5625 1.890625q0.578125 0.546875 1.96875 0.546875l2.234375 0l0 2.5625l-2.734375 0q-2.53125 0 -3.796875 -1.15625q-1.265625 -1.171875 -1.265625 -3.84375l0 -10.765625l-2.375 0l0 -2.5l2.375 0l0 -4.59375l3.03125 0l0 4.59375l4.765625 0l0 2.5l-4.765625 0zm30.467499 -7.46875l0 2.46875l-10.109375 0l0 7.828125l8.203125 0l0 2.46875l-8.203125 0l0 10.46875l-3.03125 0l0 -23.234375l13.140625 0zm19.859833 4.96875l0 18.265625l-3.03125 0l0 -2.703125q-0.875 1.40625 -2.421875 2.1875q-1.546875 0.78125 -3.421875 0.78125q-2.125 0 -3.828125 -0.875q-1.703125 -0.890625 -2.6875 -2.65625q-0.96875 -1.765625 -0.96875 -4.296875l0 -10.703125l3.0 0l0 10.296875q0 2.703125 1.359375 4.15625q1.359375 1.453125 3.734375 1.453125q2.4375 0 3.828125 -1.5q1.40625 -1.5 1.40625 -4.375l0 -10.03125l3.03125 0zm14.033081 -0.328125q3.328125 0 5.390625 2.015625q2.078125 2.015625 2.078125 5.8125l0 10.765625l-3.0 0l0 -10.328125q0 -2.734375 -1.375 -4.1875q-1.359375 -1.453125 -3.734375 -1.453125q-2.390625 0 -3.8125 1.5q-1.421875 1.5 -1.421875 4.375l0 10.09375l-3.03125 0l0 -18.265625l3.03125 0l0 2.59375q0.90625 -1.390625 2.453125 -2.15625q1.546875 -0.765625 3.421875 -0.765625zm11.298706 9.421875q0 -2.828125 1.125 -4.9375q1.140625 -2.125 3.15625 -3.28125q2.015625 -1.171875 4.609375 -1.171875q3.375 0 5.546875 1.640625q2.1875 1.625 2.890625 4.53125l-3.265625 0q-0.46875 -1.671875 -1.828125 -2.640625q-1.34375 -0.96875 -3.34375 -0.96875q-2.59375 0 -4.203125 1.78125q-1.59375 1.78125 -1.59375 5.046875q0 3.3125 1.59375 5.109375q1.609375 1.796875 4.203125 1.796875q2.0 0 3.328125 -0.921875q1.34375 -0.9375 1.84375 -2.671875l3.265625 0q-0.734375 2.796875 -2.9375 4.484375q-2.203125 1.671875 -5.5 1.671875q-2.59375 0 -4.609375 -1.15625q-2.015625 -1.171875 -3.15625 -3.296875q-1.125 -2.140625 -1.125 -5.015625zm25.058258 -6.59375l0 10.765625q0 1.328125 0.5625 1.890625q0.578125 0.546875 1.96875 0.546875l2.234375 0l0 2.5625l-2.734375 0q-2.53125 0 -3.796875 -1.15625q-1.265625 -1.171875 -1.265625 -3.84375l0 -10.765625l-2.375 0l0 -2.5l2.375 0l0 -4.59375l3.03125 0l0 4.59375l4.765625 0l0 2.5l-4.765625 0zm9.990784 -5.46875q-0.859375 0 -1.46875 -0.59375q-0.59375 -0.609375 -0.59375 -1.46875q0 -0.859375 0.59375 -1.453125q0.609375 -0.609375 1.46875 -0.609375q0.84375 0 1.421875 0.609375q0.578125 0.59375 0.578125 1.453125q0 0.859375 -0.578125 1.46875q-0.578125 0.59375 -1.421875 0.59375zm1.46875 2.96875l0 18.265625l-3.03125 0l0 -18.265625l3.03125 0zm13.136169 18.5625q-2.5624695 0 -4.6562195 -1.15625q-2.078125 -1.171875 -3.265625 -3.3125q-1.171875 -2.15625 -1.171875 -5.0q0 -2.796875 1.203125 -4.9375q1.21875 -2.15625 3.3125 -3.296875q2.109375 -1.15625 4.7187195 -1.15625q2.59375 0 4.6875 1.15625q2.109375 1.140625 3.3125 3.28125q1.21875 2.125 1.21875 4.953125q0 2.84375 -1.25 5.0q-1.25 2.140625 -3.390625 3.3125q-2.125 1.15625 -4.71875 1.15625zm0 -2.65625q1.640625 0 3.0625 -0.765625q1.4375 -0.78125 2.3125 -2.3125q0.890625 -1.53125 0.890625 -3.734375q0 -2.1875 -0.875 -3.71875q-0.859375 -1.546875 -2.265625 -2.296875q-1.390625 -0.75 -3.03125 -0.75q-1.6562195 0 -3.0468445 0.75q-1.375 0.75 -2.21875 2.296875q-0.828125 1.53125 -0.828125 3.71875q0 2.234375 0.8125 3.78125q0.828125 1.53125 2.1875 2.28125q1.375 0.75 2.9999695 0.75zm22.267456 -16.234375q3.328125 0 5.390625 2.015625q2.078125 2.015625 2.078125 5.8125l0 10.765625l-3.0 0l0 -10.328125q0 -2.734375 -1.375 -4.1875q-1.359375 -1.453125 -3.734375 -1.453125q-2.390625 0 -3.8125 1.5q-1.421875 1.5 -1.421875 4.375l0 10.09375l-3.03125 0l0 -18.265625l3.03125 0l0 2.59375q0.90625 -1.390625 2.453125 -2.15625q1.546875 -0.765625 3.421875 -0.765625zm18.892456 18.890625q-2.09375 0 -3.765625 -0.71875q-1.671875 -0.71875 -2.640625 -2.0q-0.953125 -1.28125 -1.0625 -2.9375l3.140625 0q0.125 1.359375 1.265625 2.234375q1.15625 0.859375 3.03125 0.859375q1.734375 0 2.734375 -0.765625q1.0 -0.765625 1.0 -1.9375q0 -1.203125 -1.078125 -1.78125q-1.0625 -0.578125 -3.296875 -1.15625q-2.03125 -0.53125 -3.3125 -1.078125q-1.28125 -0.546875 -2.203125 -1.625q-0.90625 -1.09375 -0.90625 -2.859375q0 -1.390625 0.828125 -2.5625q0.828125 -1.171875 2.359375 -1.84375q1.546875 -0.6875 3.5 -0.6875q3.046875 0 4.90625 1.53125q1.859375 1.53125 2.0 4.203125l-3.03125 0q-0.109375 -1.4375 -1.15625 -2.296875q-1.046875 -0.875 -2.8125 -0.875q-1.625 0 -2.59375 0.703125q-0.96875 0.703125 -0.96875 1.828125q0 0.90625 0.578125 1.5q0.578125 0.578125 1.46875 0.921875q0.890625 0.34375 2.453125 0.78125q1.96875 0.53125 3.1875 1.046875q1.234375 0.515625 2.125 1.5625q0.890625 1.03125 0.921875 2.6875q0 1.5 -0.84375 2.703125q-0.828125 1.203125 -2.34375 1.890625q-1.515625 0.671875 -3.484375 0.671875z" fill-rule="nonzero"/><path fill="#000000" fill-opacity="0.0" d="m419.79987 311.45193l0 0c0 -13.234802 10.728912 -23.963745 23.963715 -23.963745l139.56863 0c6.35553 0 12.450806 2.5247498 16.944885 7.0188293c4.4940796 4.494049 7.018799 10.589325 7.018799 16.944916l0 95.85205c0 13.234802 -10.728882 23.963745 -23.963684 23.963745l-139.56863 0l0 0c-13.234802 0 -23.963715 -10.728943 -23.963715 -23.963745z" fill-rule="evenodd"/><path stroke="#8d3aed" stroke-width="3.0" stroke-linejoin="round" stroke-linecap="butt" d="m419.79987 311.45193l0 0c0 -13.234802 10.728912 -23.963745 23.963715 -23.963745l139.56863 0c6.35553 0 12.450806 2.5247498 16.944885 7.0188293c4.4940796 4.494049 7.018799 10.589325 7.018799 16.944916l0 95.85205c0 13.234802 -10.728882 23.963745 -23.963684 23.963745l-139.56863 0l0 0c-13.234802 0 -23.963715 -10.728943 -23.963715 -23.963745z" fill-rule="evenodd"/><path fill="#ffffff" d="m451.81445 359.4973q0.859375 0.140625 1.5625 0.71875q0.71875 0.5625 1.140625 1.40625q0.421875 0.828125 0.421875 1.78125q0 1.203125 -0.625 2.171875q-0.609375 0.953125 -1.78125 1.515625q-1.15625 0.546875 -2.734375 0.546875l-5.890625 0l0 -15.796875l5.65625 0q1.609375 0 2.734375 0.546875q1.140625 0.53125 1.703125 1.4375q0.578125 0.90625 0.578125 2.03125q0 1.40625 -0.765625 2.328125q-0.765625 0.90625 -2.0 1.3125zm-5.84375 -0.828125l3.453125 0q1.453125 0 2.25 -0.671875q0.796875 -0.6875 0.796875 -1.890625q0 -1.203125 -0.796875 -1.875q-0.796875 -0.6875 -2.28125 -0.6875l-3.421875 0l0 5.125zm3.640625 7.265625q1.546875 0 2.40625 -0.71875q0.859375 -0.734375 0.859375 -2.015625q0 -1.3125 -0.90625 -2.0625q-0.90625 -0.765625 -2.421875 -0.765625l-3.578125 0l0 5.5625l3.640625 0zm10.24762 -15.0625l0 16.765625l-2.0625 0l0 -16.765625l2.0625 0zm8.917175 16.96875q-1.734375 0 -3.15625 -0.78125q-1.421875 -0.796875 -2.234375 -2.25q-0.796875 -1.46875 -0.796875 -3.40625q0 -1.90625 0.828125 -3.359375q0.828125 -1.46875 2.25 -2.25q1.4375 -0.78125 3.203125 -0.78125q1.765625 0 3.1875 0.78125q1.4375 0.78125 2.265625 2.234375q0.828125 1.453125 0.828125 3.375q0 1.9375 -0.859375 3.40625q-0.84375 1.453125 -2.296875 2.25q-1.453125 0.78125 -3.21875 0.78125zm0 -1.8125q1.109375 0 2.078125 -0.515625q0.984375 -0.53125 1.578125 -1.5625q0.609375 -1.046875 0.609375 -2.546875q0 -1.484375 -0.59375 -2.53125q-0.59375 -1.046875 -1.546875 -1.546875q-0.9375 -0.515625 -2.046875 -0.515625q-1.140625 0 -2.078125 0.515625q-0.9375 0.5 -1.515625 1.546875q-0.5625 1.046875 -0.5625 2.53125q0 1.515625 0.546875 2.5625q0.5625 1.046875 1.484375 1.5625q0.9375 0.5 2.046875 0.5zm8.3124695 -4.625q0 -1.921875 0.765625 -3.359375q0.78125 -1.4375 2.140625 -2.234375q1.375 -0.796875 3.140625 -0.796875q2.296875 0 3.78125 1.109375q1.484375 1.109375 1.953125 3.09375l-2.21875 0q-0.3125 -1.140625 -1.234375 -1.796875q-0.921875 -0.65625 -2.28125 -0.65625q-1.765625 0 -2.859375 1.21875q-1.078125 1.203125 -1.078125 3.421875q0 2.25 1.078125 3.46875q1.09375 1.21875 2.859375 1.21875q1.359375 0 2.265625 -0.625q0.90625 -0.640625 1.25 -1.8125l2.21875 0q-0.5 1.90625 -2.0 3.046875q-1.484375 1.140625 -3.734375 1.140625q-1.765625 0 -3.140625 -0.78125q-1.359375 -0.796875 -2.140625 -2.25q-0.765625 -1.453125 -0.765625 -3.40625zm21.455444 6.234375l-4.859375 -5.484375l0 5.484375l-2.0625 0l0 -16.765625l2.0625 0l0 9.859375l4.78125 -5.515625l2.875 0l-5.84375 6.1875l5.859375 6.234375l-2.8125 0zm18.701508 -8.140625q0.859375 0.140625 1.5625 0.71875q0.71875 0.5625 1.140625 1.40625q0.421875 0.828125 0.421875 1.78125q0 1.203125 -0.625 2.171875q-0.609375 0.953125 -1.78125 1.515625q-1.15625 0.546875 -2.734375 0.546875l-5.8905945 0l0 -15.796875l5.6562195 0q1.609375 0 2.734375 0.546875q1.140625 0.53125 1.703125 1.4375q0.578125 0.90625 0.578125 2.03125q0 1.40625 -0.765625 2.328125q-0.765625 0.90625 -2.0 1.3125zm-5.8437195 -0.828125l3.4530945 0q1.453125 0 2.25 -0.671875q0.796875 -0.6875 0.796875 -1.890625q0 -1.203125 -0.796875 -1.875q-0.796875 -0.6875 -2.28125 -0.6875l-3.4218445 0l0 5.125zm3.6405945 7.265625q1.546875 0 2.40625 -0.71875q0.859375 -0.734375 0.859375 -2.015625q0 -1.3125 -0.90625 -2.0625q-0.90625 -0.765625 -2.421875 -0.765625l-3.5780945 0l0 5.5625l3.6405945 0zm19.18512 -10.71875l0 12.421875l-2.0625 0l0 -1.828125q-0.578125 0.9375 -1.640625 1.484375q-1.046875 0.53125 -2.3125 0.53125q-1.453125 0 -2.609375 -0.59375q-1.15625 -0.609375 -1.828125 -1.8125q-0.671875 -1.203125 -0.671875 -2.921875l0 -7.28125l2.046875 0l0 7.0q0 1.84375 0.921875 2.828125q0.9375 0.984375 2.546875 0.984375q1.65625 0 2.59375 -1.015625q0.953125 -1.015625 0.953125 -2.96875l0 -6.828125l2.0625 0zm4.5625 -2.015625q-0.59375 0 -1.0 -0.40625q-0.40625 -0.40625 -0.40625 -1.0q0 -0.578125 0.40625 -0.984375q0.40625 -0.40625 1.0 -0.40625q0.5625 0 0.953125 0.40625q0.40625 0.40625 0.40625 0.984375q0 0.59375 -0.40625 1.0q-0.390625 0.40625 -0.953125 0.40625zm1.0 2.015625l0 12.421875l-2.0625 0l0 -12.421875l2.0625 0zm5.5734253 -4.34375l0 16.765625l-2.0625 0l0 -16.765625l2.0625 0zm2.7296753 10.515625q0 -1.90625 0.765625 -3.34375q0.78125 -1.4375 2.125 -2.234375q1.34375 -0.796875 3.03125 -0.796875q1.453125 0 2.6875 0.671875q1.25 0.671875 1.90625 1.765625l0 -6.578125l2.09375 0l0 16.765625l-2.09375 0l0 -2.328125q-0.609375 1.109375 -1.8125 1.828125q-1.203125 0.703125 -2.8125 0.703125q-1.65625 0 -3.0 -0.8125q-1.34375 -0.8125 -2.125 -2.28125q-0.765625 -1.484375 -0.765625 -3.359375zm10.515625 0.015625q0 -1.40625 -0.5625 -2.4375q-0.5625 -1.046875 -1.53125 -1.59375q-0.96875 -0.5625 -2.125 -0.5625q-1.15625 0 -2.109375 0.546875q-0.9375 0.546875 -1.515625 1.59375q-0.5625 1.03125 -0.5625 2.4375q0 1.421875 0.5625 2.484375q0.578125 1.046875 1.515625 1.609375q0.953125 0.546875 2.109375 0.546875q1.15625 0 2.125 -0.546875q0.96875 -0.5625 1.53125 -1.609375q0.5625 -1.0625 0.5625 -2.46875zm16.909302 -0.453125q0 0.59375 -0.078125 1.25l-9.921875 0q0.109375 1.828125 1.25 2.859375q1.15625 1.03125 2.78125 1.03125q1.34375 0 2.234375 -0.609375q0.890625 -0.625 1.265625 -1.671875l2.21875 0q-0.5 1.796875 -2.0 2.921875q-1.5 1.109375 -3.71875 1.109375q-1.765625 0 -3.15625 -0.78125q-1.390625 -0.796875 -2.1875 -2.25q-0.796875 -1.46875 -0.796875 -3.40625q0 -1.921875 0.765625 -3.375q0.78125 -1.453125 2.171875 -2.234375q1.390625 -0.78125 3.203125 -0.78125q1.765625 0 3.125 0.78125q1.359375 0.765625 2.09375 2.125q0.75 1.34375 0.75 3.03125zm-2.140625 -0.421875q0 -1.1875 -0.515625 -2.03125q-0.515625 -0.84375 -1.421875 -1.28125q-0.890625 -0.453125 -1.984375 -0.453125q-1.5625 0 -2.65625 1.0q-1.09375 1.0 -1.25 2.765625l7.828125 0zm6.921875 -3.296875q0.53125 -1.0625 1.53125 -1.640625q1.015625 -0.59375 2.46875 -0.59375l0 2.125l-0.546875 0q-3.453125 0 -3.453125 3.765625l0 6.75l-2.0625 0l0 -12.421875l2.0625 0l0 2.015625z" fill-rule="nonzero"/><path fill="#000000" fill-opacity="0.0" d="m414.73505 467.39532l0 0c0 -8.822235 7.151825 -15.974091 15.97406 -15.974091l160.61877 0c4.2366333 0 8.299683 1.6829834 11.29541 4.678711c2.9957275 2.9957275 4.678711 7.058777 4.678711 11.29538l0 63.89435c0 8.822266 -7.1518555 15.97406 -15.974121 15.97406l-160.61877 0l0 0c-8.822235 0 -15.97406 -7.1517944 -15.97406 -15.97406z" fill-rule="evenodd"/><path stroke="#8d3aed" stroke-width="3.0" stroke-linejoin="round" stroke-linecap="butt" d="m414.73505 467.39532l0 0c0 -8.822235 7.151825 -15.974091 15.97406 -15.974091l160.61877 0c4.2366333 0 8.299683 1.6829834 11.29541 4.678711c2.9957275 2.9957275 4.678711 7.058777 4.678711 11.29538l0 63.89435c0 8.822266 -7.1518555 15.97406 -15.974121 15.97406l-160.61877 0l0 0c-8.822235 0 -15.97406 -7.1517944 -15.97406 -15.97406z" fill-rule="evenodd"/><path fill="#ffffff" d="m456.1301 505.4825l-1.578125 0l-6.34375 -9.609375l0 9.609375l-1.578125 0l0 -12.09375l1.578125 0l6.34375 9.59375l0 -9.59375l1.578125 0l0 12.09375zm2.1034546 -4.78125q0 -1.453125 0.578125 -2.546875q0.59375 -1.109375 1.625 -1.71875q1.03125 -0.609375 2.296875 -0.609375q1.25 0 2.15625 0.546875q0.921875 0.53125 1.375 1.34375l0 -1.734375l1.59375 0l0 9.5l-1.59375 0l0 -1.765625q-0.46875 0.828125 -1.390625 1.375q-0.921875 0.546875 -2.15625 0.546875q-1.265625 0 -2.296875 -0.625q-1.015625 -0.625 -1.609375 -1.75q-0.578125 -1.125 -0.578125 -2.5625zm8.03125 0.015625q0 -1.078125 -0.4375 -1.875q-0.421875 -0.796875 -1.15625 -1.21875q-0.734375 -0.421875 -1.625 -0.421875q-0.890625 0 -1.625 0.421875q-0.71875 0.40625 -1.15625 1.203125q-0.421875 0.796875 -0.421875 1.875q0 1.09375 0.421875 1.90625q0.4375 0.796875 1.15625 1.21875q0.734375 0.421875 1.625 0.421875q0.890625 0 1.625 -0.421875q0.734375 -0.421875 1.15625 -1.21875q0.4375 -0.8125 0.4375 -1.890625zm6.182495 -3.4375l0 5.609375q0 0.6875 0.296875 0.984375q0.296875 0.28125 1.03125 0.28125l1.15625 0l0 1.328125l-1.421875 0q-1.3125 0 -1.96875 -0.609375q-0.65625 -0.609375 -0.65625 -1.984375l0 -5.609375l-1.234375 0l0 -1.296875l1.234375 0l0 -2.390625l1.5625 0l0 2.390625l2.484375 0l0 1.296875l-2.484375 0zm5.2136536 -2.828125q-0.453125 0 -0.765625 -0.3125q-0.3125 -0.3125 -0.3125 -0.765625q0 -0.453125 0.3125 -0.765625q0.3125 -0.3125 0.765625 -0.3125q0.421875 0 0.71875 0.3125q0.3125 0.3125 0.3125 0.765625q0 0.453125 -0.3125 0.765625q-0.296875 0.3125 -0.71875 0.3125zm0.75 1.53125l0 9.5l-1.578125 0l0 -9.5l1.578125 0zm6.2314453 8.046875l2.9375 -8.046875l1.6875 0l-3.734375 9.5l-1.828125 0l-3.734375 -9.5l1.703125 0l2.96875 8.046875zm14.846039 -3.65625q0 0.453125 -0.046875 0.953125l-7.59375 0q0.078125 1.40625 0.953125 2.203125q0.875 0.78125 2.125 0.78125q1.03125 0 1.703125 -0.46875q0.6875 -0.484375 0.96875 -1.28125l1.703125 0q-0.390625 1.359375 -1.53125 2.21875q-1.140625 0.859375 -2.84375 0.859375q-1.34375 0 -2.421875 -0.609375q-1.0625 -0.609375 -1.671875 -1.71875q-0.59375 -1.125 -0.59375 -2.59375q0 -1.46875 0.578125 -2.578125q0.59375 -1.109375 1.65625 -1.703125q1.078125 -0.609375 2.453125 -0.609375q1.359375 0 2.390625 0.59375q1.046875 0.59375 1.609375 1.625q0.5625 1.03125 0.5625 2.328125zm-1.625 -0.328125q0 -0.90625 -0.40625 -1.546875q-0.390625 -0.65625 -1.078125 -0.984375q-0.6875 -0.34375 -1.515625 -0.34375q-1.203125 0 -2.046875 0.765625q-0.828125 0.75 -0.953125 2.109375l6.0 0zm14.682465 5.4375l-2.875 -4.9375l-1.90625 0l0 4.9375l-1.578125 0l0 -12.078125l3.90625 0q1.375 0 2.3125 0.46875q0.9375 0.46875 1.40625 1.265625q0.46875 0.796875 0.46875 1.8125q0 1.25 -0.71875 2.203125q-0.71875 0.953125 -2.15625 1.265625l3.03125 5.0625l-1.890625 0zm-4.78125 -6.203125l2.328125 0q1.28125 0 1.921875 -0.625q0.640625 -0.640625 0.640625 -1.703125q0 -1.0625 -0.640625 -1.65625q-0.625 -0.59375 -1.921875 -0.59375l-2.328125 0l0 4.578125zm17.379211 -3.296875l0 9.5l-1.578125 0l0 -1.40625q-0.4375 0.734375 -1.25 1.140625q-0.8125 0.40625 -1.78125 0.40625q-1.109375 0 -2.0 -0.453125q-0.875 -0.46875 -1.390625 -1.375q-0.5 -0.921875 -0.5 -2.25l0 -5.5625l1.5625 0l0 5.359375q0 1.40625 0.703125 2.15625q0.71875 0.75 1.9375 0.75q1.265625 0 1.984375 -0.78125q0.734375 -0.78125 0.734375 -2.265625l0 -5.21875l1.578125 0zm7.29303 -0.171875q1.734375 0 2.8125 1.046875q1.078125 1.046875 1.078125 3.03125l0 5.59375l-1.5625 0l0 -5.375q0 -1.421875 -0.71875 -2.171875q-0.703125 -0.75 -1.9375 -0.75q-1.234375 0 -1.984375 0.78125q-0.734375 0.78125 -0.734375 2.265625l0 5.25l-1.578125 0l0 -9.5l1.578125 0l0 1.359375q0.46875 -0.734375 1.265625 -1.125q0.8125 -0.40625 1.78125 -0.40625zm8.386841 1.46875l0 5.609375q0 0.6875 0.296875 0.984375q0.296875 0.28125 1.03125 0.28125l1.15625 0l0 1.328125l-1.421875 0q-1.3125 0 -1.96875 -0.609375q-0.65625 -0.609375 -0.65625 -1.984375l0 -5.609375l-1.234375 0l0 -1.296875l1.234375 0l0 -2.390625l1.5625 0l0 2.390625l2.484375 0l0 1.296875l-2.484375 0zm5.213623 -2.828125q-0.453125 0 -0.765625 -0.3125q-0.3125 -0.3125 -0.3125 -0.765625q0 -0.453125 0.3125 -0.765625q0.3125 -0.3125 0.765625 -0.3125q0.421875 0 0.71875 0.3125q0.3125 0.3125 0.3125 0.765625q0 0.453125 -0.3125 0.765625q-0.296875 0.3125 -0.71875 0.3125zm0.75 1.53125l0 9.5l-1.578125 0l0 -9.5l1.578125 0zm14.106445 -0.171875q1.109375 0 1.96875 0.46875q0.875 0.453125 1.375 1.375q0.5 0.921875 0.5 2.234375l0 5.59375l-1.546875 0l0 -5.375q0 -1.421875 -0.703125 -2.171875q-0.703125 -0.75 -1.90625 -0.75q-1.21875 0 -1.953125 0.796875q-0.734375 0.78125 -0.734375 2.265625l0 5.234375l-1.546875 0l0 -5.375q0 -1.421875 -0.703125 -2.171875q-0.703125 -0.75 -1.90625 -0.75q-1.234375 0 -1.96875 0.796875q-0.71875 0.78125 -0.71875 2.265625l0 5.234375l-1.578125 0l0 -9.5l1.578125 0l0 1.375q0.46875 -0.75 1.25 -1.140625q0.796875 -0.40625 1.75 -0.40625q1.203125 0 2.109375 0.546875q0.921875 0.53125 1.375 1.5625q0.40625 -1.0 1.3125 -1.546875q0.921875 -0.5625 2.046875 -0.5625zm15.0979 4.5625q0 0.453125 -0.046875 0.953125l-7.59375 0q0.078125 1.40625 0.953125 2.203125q0.875 0.78125 2.125 0.78125q1.03125 0 1.703125 -0.46875q0.6875 -0.484375 0.96875 -1.28125l1.703125 0q-0.390625 1.359375 -1.53125 2.21875q-1.140625 0.859375 -2.84375 0.859375q-1.34375 0 -2.421875 -0.609375q-1.0625 -0.609375 -1.671875 -1.71875q-0.59375 -1.125 -0.59375 -2.59375q0 -1.46875 0.578125 -2.578125q0.59375 -1.109375 1.65625 -1.703125q1.078125 -0.609375 2.453125 -0.609375q1.359375 0 2.390625 0.59375q1.046875 0.59375 1.609375 1.625q0.5625 1.03125 0.5625 2.328125zm-1.625 -0.328125q0 -0.90625 -0.40625 -1.546875q-0.390625 -0.65625 -1.078125 -0.984375q-0.6875 -0.34375 -1.515625 -0.34375q-1.203125 0 -2.046875 0.765625q-0.828125 0.75 -0.953125 2.109375l6.0 0z" fill-rule="nonzero"/><path fill="#24cc85" d="m649.776 29.08118l554.48816 0l0 42.01575l-554.48816 0z" fill-rule="evenodd"/><path stroke="#24cc85" stroke-width="1.0" stroke-linejoin="round" stroke-linecap="butt" d="m649.776 29.08118l554.48816 0l0 42.01575l-554.48816 0z" fill-rule="evenodd"/><path fill="#ffffff" d="m896.6083 56.00118l-3.09375 -5.3125l-2.046875 0l0 5.3125l-1.703125 0l0 -13.0l4.203125 0q1.46875 0 2.484375 0.5q1.015625 0.5 1.515625 1.359375q0.515625 0.859375 0.515625 1.96875q0 1.34375 -0.78125 2.375q-0.78125 1.015625 -2.328125 1.34375l3.265625 5.453125l-2.03125 0zm-5.140625 -6.671875l2.5 0q1.375 0 2.0625 -0.6875q0.6875 -0.6875 0.6875 -1.8125q0 -1.15625 -0.6875 -1.796875q-0.671875 -0.640625 -2.0625 -0.640625l-2.5 0l0 4.9375zm18.702332 -3.546875l0 10.21875l-1.6875 0l0 -1.515625q-0.484375 0.78125 -1.359375 1.234375q-0.875 0.4375 -1.90625 0.4375q-1.203125 0 -2.15625 -0.5q-0.953125 -0.5 -1.5 -1.484375q-0.546875 -0.984375 -0.546875 -2.40625l0 -5.984375l1.671875 0l0 5.765625q0 1.5 0.765625 2.3125q0.765625 0.8125 2.09375 0.8125q1.359375 0 2.140625 -0.828125q0.796875 -0.84375 0.796875 -2.453125l0 -5.609375l1.6875 0zm7.8618774 -0.1875q1.859375 0 3.015625 1.125q1.15625 1.125 1.15625 3.25l0 6.03125l-1.671875 0l0 -5.78125q0 -1.53125 -0.765625 -2.34375q-0.765625 -0.8125 -2.09375 -0.8125q-1.34375 0 -2.140625 0.84375q-0.78125 0.84375 -0.78125 2.4375l0 5.65625l-1.703125 0l0 -10.21875l1.703125 0l0 1.453125q0.5 -0.78125 1.359375 -1.203125q0.875 -0.4375 1.921875 -0.4375zm9.018127 1.578125l0 6.03125q0 0.75 0.3125 1.0625q0.328125 0.296875 1.109375 0.296875l1.25 0l0 1.4375l-1.53125 0q-1.40625 0 -2.125 -0.65625q-0.703125 -0.65625 -0.703125 -2.140625l0 -6.03125l-1.328125 0l0 -1.390625l1.328125 0l0 -2.578125l1.6875 0l0 2.578125l2.671875 0l0 1.390625l-2.671875 0zm5.6033936 -3.0625q-0.484375 0 -0.828125 -0.328125q-0.328125 -0.34375 -0.328125 -0.828125q0 -0.484375 0.328125 -0.8125q0.34375 -0.34375 0.828125 -0.34375q0.46875 0 0.796875 0.34375q0.328125 0.328125 0.328125 0.8125q0 0.484375 -0.328125 0.828125q-0.328125 0.328125 -0.796875 0.328125zm0.828125 1.671875l0 10.21875l-1.703125 0l0 -10.21875l1.703125 0zm15.1831665 -0.1875q1.1875 0 2.125 0.5q0.9375 0.484375 1.46875 1.484375q0.546875 0.984375 0.546875 2.390625l0 6.03125l-1.6875 0l0 -5.78125q0 -1.53125 -0.75 -2.34375q-0.75 -0.8125 -2.046875 -0.8125q-1.3125 0 -2.109375 0.859375q-0.78125 0.84375 -0.78125 2.4375l0 5.640625l-1.671875 0l0 -5.78125q0 -1.53125 -0.765625 -2.34375q-0.75 -0.8125 -2.03125 -0.8125q-1.328125 0 -2.109375 0.859375q-0.78125 0.84375 -0.78125 2.4375l0 5.640625l-1.703125 0l0 -10.21875l1.703125 0l0 1.46875q0.5 -0.796875 1.34375 -1.21875q0.84375 -0.4375 1.875 -0.4375q1.296875 0 2.28125 0.578125q0.984375 0.578125 1.46875 1.6875q0.4375 -1.078125 1.421875 -1.671875q0.984375 -0.59375 2.203125 -0.59375zm16.247192 4.90625q0 0.484375 -0.0625 1.015625l-8.171875 0q0.09375 1.515625 1.03125 2.375q0.953125 0.84375 2.296875 0.84375q1.09375 0 1.828125 -0.515625q0.75 -0.515625 1.046875 -1.375l1.828125 0q-0.40625 1.484375 -1.640625 2.40625q-1.234375 0.921875 -3.0625 0.921875q-1.453125 0 -2.609375 -0.65625q-1.140625 -0.65625 -1.796875 -1.859375q-0.65625 -1.203125 -0.65625 -2.78125q0 -1.59375 0.640625 -2.78125q0.640625 -1.203125 1.78125 -1.84375q1.140625 -0.640625 2.640625 -0.640625q1.453125 0 2.5625 0.640625q1.125 0.625 1.734375 1.734375q0.609375 1.109375 0.609375 2.515625zm-1.75 -0.359375q0 -0.96875 -0.4375 -1.671875q-0.421875 -0.703125 -1.171875 -1.0625q-0.734375 -0.359375 -1.625 -0.359375q-1.28125 0 -2.1875 0.828125q-0.90625 0.8125 -1.03125 2.265625l6.453125 0z" fill-rule="nonzero"/><path fill="#000000" fill-opacity="0.0" d="m823.67194 163.73091l0 0c0 -34.390198 27.878723 -62.268967 62.26892 -62.268967l249.06842 0l0 0c16.51477 0 32.35315 6.5604553 44.03076 18.238152c11.677734 11.677696 18.23816 27.51606 18.23816 44.030815l0 310.2652c0 34.390198 -27.878784 62.26895 -62.26892 62.26895l-249.06842 0c-34.390198 0 -62.26892 -27.878754 -62.26892 -62.26895z" fill-rule="evenodd"/><path stroke="#24cc85" stroke-width="3.0" stroke-linejoin="round" stroke-linecap="butt" d="m823.67194 163.73091l0 0c0 -34.390198 27.878723 -62.268967 62.26892 -62.268967l249.06842 0l0 0c16.51477 0 32.35315 6.5604553 44.03076 18.238152c11.677734 11.677696 18.23816 27.51606 18.23816 44.030815l0 310.2652c0 34.390198 -27.878784 62.26895 -62.26892 62.26895l-249.06842 0c-34.390198 0 -62.26892 -27.878754 -62.26892 -62.26895z" fill-rule="evenodd"/><path fill="#ffffff" d="m907.6455 306.82977l-7.28125 25.09375l-3.671875 0l-5.828125 -20.203125l-6.046875 20.203125l-3.640625 0.03125l-7.015625 -25.125l3.484375 0l5.484375 21.28125l6.046875 -21.28125l3.671875 0l5.75 21.203125l5.515625 -21.203125l3.53125 0zm2.3704224 15.15625q0 -3.015625 1.21875 -5.296875q1.234375 -2.296875 3.375 -3.546875q2.140625 -1.265625 4.765625 -1.265625q2.59375 0 4.5 1.125q1.90625 1.109375 2.84375 2.796875l0 -3.609375l3.3125 0l0 19.734375l-3.3125 0l0 -3.671875q-0.96875 1.734375 -2.90625 2.875q-1.921875 1.125 -4.46875 1.125q-2.625 0 -4.75 -1.296875q-2.125 -1.296875 -3.359375 -3.640625q-1.21875 -2.34375 -1.21875 -5.328125zm16.703125 0.03125q0 -2.21875 -0.90625 -3.875q-0.890625 -1.65625 -2.421875 -2.53125q-1.53125 -0.890625 -3.359375 -0.890625q-1.84375 0 -3.359375 0.859375q-1.5 0.859375 -2.40625 2.515625q-0.90625 1.65625 -0.90625 3.890625q0 2.265625 0.90625 3.953125q0.90625 1.671875 2.40625 2.546875q1.515625 0.875 3.359375 0.875q1.828125 0 3.359375 -0.875q1.53125 -0.875 2.421875 -2.546875q0.90625 -1.6875 0.90625 -3.921875zm15.835999 10.234375q-2.265625 0 -4.0625 -0.765625q-1.796875 -0.78125 -2.84375 -2.171875q-1.046875 -1.390625 -1.15625 -3.1875l3.390625 0q0.140625 1.484375 1.375 2.421875q1.25 0.921875 3.265625 0.921875q1.875 0 2.953125 -0.828125q1.078125 -0.828125 1.078125 -2.078125q0 -1.296875 -1.15625 -1.921875q-1.140625 -0.640625 -3.5625 -1.25q-2.1875 -0.578125 -3.578125 -1.171875q-1.390625 -0.59375 -2.375 -1.765625q-0.984375 -1.171875 -0.984375 -3.078125q0 -1.515625 0.890625 -2.765625q0.90625 -1.265625 2.5625 -2.0q1.65625 -0.734375 3.78125 -0.734375q3.265625 0 5.28125 1.65625q2.015625 1.65625 2.171875 4.53125l-3.28125 0q-0.109375 -1.546875 -1.25 -2.484375q-1.125 -0.9375 -3.03125 -0.9375q-1.765625 0 -2.8125 0.765625q-1.046875 0.75 -1.046875 1.96875q0 0.96875 0.625 1.609375q0.640625 0.625 1.59375 1.0q0.953125 0.375 2.640625 0.84375q2.125 0.578125 3.453125 1.140625q1.34375 0.5625 2.296875 1.6875q0.953125 1.109375 0.984375 2.90625q0 1.609375 -0.90625 2.90625q-0.890625 1.296875 -2.53125 2.046875q-1.640625 0.734375 -3.765625 0.734375zm35.541992 -20.421875q2.296875 0 4.09375 0.953125q1.8125 0.953125 2.84375 2.875q1.046875 1.90625 1.046875 4.640625l0 11.625l-3.234375 0l0 -11.15625q0 -2.953125 -1.46875 -4.515625q-1.453125 -1.578125 -3.9375 -1.578125q-2.546875 0 -4.0625 1.640625q-1.515625 1.640625 -1.515625 4.734375l0 10.875l-3.234375 0l0 -11.15625q0 -2.953125 -1.46875 -4.515625q-1.453125 -1.578125 -3.9375 -1.578125q-2.546875 0 -4.0625 1.640625q-1.515625 1.640625 -1.515625 4.734375l0 10.875l-3.28125 0l0 -19.734375l3.28125 0l0 2.84375q0.96875 -1.546875 2.609375 -2.375q1.640625 -0.828125 3.625 -0.828125q2.484375 0 4.390625 1.125q1.90625 1.109375 2.84375 3.265625q0.828125 -2.078125 2.734375 -3.234375q1.90625 -1.15625 4.25 -1.15625zm36.17639 20.09375l-5.96875 -10.265625l-3.96875 0l0 10.265625l-3.28125 0l0 -25.09375l8.109375 0q2.84375 0 4.796875 0.984375q1.96875 0.96875 2.9375 2.625q0.96875 1.640625 0.96875 3.765625q0 2.59375 -1.5 4.578125q-1.484375 1.984375 -4.46875 2.625l6.296875 10.515625l-3.921875 0zm-9.9375 -12.890625l4.828125 0q2.65625 0 3.984375 -1.3125q1.34375 -1.3125 1.34375 -3.515625q0 -2.21875 -1.3125 -3.4375q-1.3125 -1.234375 -4.015625 -1.234375l-4.828125 0l0 9.5zm36.10681 -6.84375l0 19.734375l-3.28125 0l0 -2.921875q-0.921875 1.515625 -2.609375 2.359375q-1.671875 0.84375 -3.6875 0.84375q-2.296875 0 -4.140625 -0.953125q-1.828125 -0.953125 -2.890686 -2.859375q-1.0625 -1.90625 -1.0625 -4.640625l0 -11.5625l3.234436 0l0 11.125q0 2.921875 1.46875 4.484375q1.484375 1.5625 4.046875 1.5625q2.625 0 4.125 -1.609375q1.515625 -1.625 1.515625 -4.71875l0 -10.84375l3.28125 0zm15.164917 -0.359375q3.59375 0 5.828125 2.1875q2.234375 2.171875 2.234375 6.28125l0 11.625l-3.25 0l0 -11.15625q0 -2.953125 -1.484375 -4.515625q-1.46875 -1.578125 -4.015625 -1.578125q-2.59375 0 -4.125 1.625q-1.53125 1.625 -1.53125 4.71875l0 10.90625l-3.28125 0l0 -19.734375l3.28125 0l0 2.8125q0.96875 -1.515625 2.640625 -2.34375q1.6875 -0.828125 3.703125 -0.828125zm17.41504 3.0625l0 11.625q0 1.453125 0.609375 2.046875q0.609375 0.59375 2.125 0.59375l2.421875 0l0 2.765625l-2.953125 0q-2.734375 0 -4.109375 -1.25q-1.375 -1.265625 -1.375 -4.15625l0 -11.625l-2.546875 0l0 -2.703125l2.546875 0l0 -4.96875l3.28125 0l0 4.96875l5.15625 0l0 2.703125l-5.15625 0zm10.807129 -5.90625q-0.9375 0 -1.59375 -0.640625q-0.640625 -0.65625 -0.640625 -1.578125q0 -0.9375 0.640625 -1.578125q0.65625 -0.65625 1.59375 -0.65625q0.890625 0 1.515625 0.65625q0.640625 0.640625 0.640625 1.578125q0 0.921875 -0.640625 1.578125q-0.625 0.640625 -1.515625 0.640625zm1.578125 3.203125l0 19.734375l-3.28125 0l0 -19.734375l3.28125 0zm29.309204 -0.359375q2.296875 0 4.09375 0.953125q1.8125 0.953125 2.84375 2.875q1.046875 1.90625 1.046875 4.640625l0 11.625l-3.234375 0l0 -11.15625q0 -2.953125 -1.46875 -4.515625q-1.453125 -1.578125 -3.9375 -1.578125q-2.546875 0 -4.0625 1.640625q-1.515625 1.640625 -1.515625 4.734375l0 10.875l-3.234375 0l0 -11.15625q0 -2.953125 -1.46875 -4.515625q-1.453125 -1.578125 -3.9375 -1.578125q-2.546875 0 -4.0625 1.640625q-1.515625 1.640625 -1.515625 4.734375l0 10.875l-3.28125 0l0 -19.734375l3.28125 0l0 2.84375q0.96875 -1.546875 2.609375 -2.375q1.640625 -0.828125 3.625 -0.828125q2.484375 0 4.390625 1.125q1.90625 1.109375 2.84375 3.265625q0.828125 -2.078125 2.734375 -3.234375q1.90625 -1.15625 4.25 -1.15625zm31.345581 9.46875q0 0.9375 -0.109375 1.984375l-15.765625 0q0.1875 2.921875 2.0 4.5625q1.828125 1.625 4.40625 1.625q2.125 0 3.546875 -0.984375q1.421875 -0.984375 2.0 -2.640625l3.53125 0q-0.796875 2.84375 -3.171875 4.625q-2.375 1.78125 -5.90625 1.78125q-2.796875 0 -5.015625 -1.265625q-2.21875 -1.265625 -3.484375 -3.578125q-1.25 -2.328125 -1.25 -5.390625q0 -3.046875 1.21875 -5.34375q1.234375 -2.3125 3.4375 -3.546875q2.21875 -1.25 5.09375 -1.25q2.8125 0 4.96875 1.21875q2.171875 1.21875 3.328125 3.375q1.171875 2.140625 1.171875 4.828125zm-3.375 -0.671875q0 -1.875 -0.828125 -3.21875q-0.828125 -1.359375 -2.25 -2.0625q-1.421875 -0.703125 -3.15625 -0.703125q-2.484375 0 -4.234375 1.59375q-1.734375 1.578125 -1.984375 4.390625l12.453125 0z" fill-rule="nonzero"/><path fill="#000000" fill-opacity="0.0" d="m659.70074 123.748474l0 0c0 -12.289665 9.9627075 -22.25241 22.25238 -22.25241l89.00702 0l0 0c5.9016724 0 11.561707 2.3444443 15.734802 6.517578c4.1731567 4.1731415 6.517578 9.83313 6.517578 15.734833l0 390.29834c0 12.289673 -9.9627075 22.25238 -22.25238 22.25238l-89.00702 0c-12.289673 0 -22.25238 -9.9627075 -22.25238 -22.25238z" fill-rule="evenodd"/><path stroke="#24cc85" stroke-width="3.0" stroke-linejoin="round" stroke-linecap="butt" d="m659.70074 123.748474l0 0c0 -12.289665 9.9627075 -22.25241 22.25238 -22.25241l89.00702 0l0 0c5.9016724 0 11.561707 2.3444443 15.734802 6.517578c4.1731567 4.1731415 6.517578 9.83313 6.517578 15.734833l0 390.29834c0 12.289673 -9.9627075 22.25238 -22.25238 22.25238l-89.00702 0c-12.289673 0 -22.25238 -9.9627075 -22.25238 -22.25238z" fill-rule="evenodd"/><path fill="#ffffff" d="m691.6907 313.37762l-3.546875 -6.078125l-2.34375 0l0 6.078125l-1.9375 0l0 -14.859375l4.796875 0q1.6875 0 2.84375 0.578125q1.171875 0.5625 1.75 1.546875q0.578125 0.984375 0.578125 2.234375q0 1.546875 -0.890625 2.71875q-0.890625 1.171875 -2.65625 1.546875l3.734375 6.234375l-2.328125 0zm-5.890625 -7.640625l2.859375 0q1.578125 0 2.359375 -0.765625q0.796875 -0.78125 0.796875 -2.09375q0 -1.3125 -0.78125 -2.03125q-0.765625 -0.734375 -2.375 -0.734375l-2.859375 0l0 5.625zm21.389404 -4.046875l0 11.6875l-1.9375 0l0 -1.734375q-0.546875 0.90625 -1.546875 1.40625q-0.984375 0.5 -2.1875 0.5q-1.359375 0 -2.453125 -0.5625q-1.078125 -0.5625 -1.71875 -1.6875q-0.625 -1.140625 -0.625 -2.765625l0 -6.84375l1.921875 0l0 6.59375q0 1.71875 0.875 2.65625q0.875 0.921875 2.390625 0.921875q1.5625 0 2.453125 -0.953125q0.890625 -0.96875 0.890625 -2.796875l0 -6.421875l1.9375 0zm8.993835 -0.21875q2.125 0 3.4375 1.296875q1.328125 1.28125 1.328125 3.71875l0 6.890625l-1.921875 0l0 -6.609375q0 -1.75 -0.875 -2.671875q-0.859375 -0.9375 -2.375 -0.9375q-1.546875 0 -2.453125 0.96875q-0.90625 0.953125 -0.90625 2.78125l0 6.46875l-1.9375 0l0 -11.6875l1.9375 0l0 1.65625q0.578125 -0.890625 1.5625 -1.375q1.0 -0.5 2.203125 -0.5zm10.321899 1.8125l0 6.890625q0 0.859375 0.359375 1.21875q0.359375 0.34375 1.25 0.34375l1.4375 0l0 1.640625l-1.75 0q-1.625 0 -2.4375 -0.75q-0.8125 -0.75 -0.8125 -2.453125l0 -6.890625l-1.515625 0l0 -1.59375l1.515625 0l0 -2.9375l1.953125 0l0 2.9375l3.046875 0l0 1.59375l-3.046875 0zm6.388489 -3.5q-0.546875 0 -0.9375 -0.375q-0.375 -0.390625 -0.375 -0.9375q0 -0.5625 0.375 -0.9375q0.390625 -0.390625 0.9375 -0.390625q0.53125 0 0.90625 0.390625q0.375 0.375 0.375 0.9375q0 0.546875 -0.375 0.9375q-0.375 0.375 -0.90625 0.375zm0.9375 1.90625l0 11.6875l-1.9375 0l0 -11.6875l1.9375 0zm17.371765 -0.21875q1.359375 0 2.421875 0.578125q1.078125 0.5625 1.6875 1.6875q0.625 1.125 0.625 2.75l0 6.890625l-1.921875 0l0 -6.609375q0 -1.75 -0.875 -2.671875q-0.859375 -0.9375 -2.328125 -0.9375q-1.515625 0 -2.421875 0.96875q-0.890625 0.96875 -0.890625 2.8125l0 6.4375l-1.90625 0l0 -6.609375q0 -1.75 -0.875 -2.671875q-0.859375 -0.9375 -2.328125 -0.9375q-1.515625 0 -2.421875 0.96875q-0.890625 0.96875 -0.890625 2.8125l0 6.4375l-1.9375 0l0 -11.6875l1.9375 0l0 1.6875q0.578125 -0.921875 1.546875 -1.40625q0.96875 -0.5 2.140625 -0.5q1.484375 0 2.609375 0.671875q1.125 0.65625 1.6875 1.9375q0.484375 -1.234375 1.609375 -1.921875q1.140625 -0.6875 2.53125 -0.6875zm18.577393 5.609375q0 0.5625 -0.0625 1.171875l-9.34375 0q0.09375 1.734375 1.171875 2.703125q1.078125 0.96875 2.625 0.96875q1.25 0 2.09375 -0.578125q0.84375 -0.59375 1.1875 -1.578125l2.09375 0q-0.46875 1.6875 -1.890625 2.75q-1.40625 1.046875 -3.484375 1.046875q-1.671875 0 -2.984375 -0.734375q-1.3125 -0.75 -2.0625 -2.125q-0.734375 -1.375 -0.734375 -3.1875q0 -1.8125 0.71875 -3.171875q0.734375 -1.375 2.03125 -2.109375q1.3125 -0.734375 3.03125 -0.734375q1.65625 0 2.9375 0.734375q1.28125 0.71875 1.96875 1.984375q0.703125 1.265625 0.703125 2.859375zm-2.015625 -0.40625q0 -1.109375 -0.484375 -1.90625q-0.484375 -0.796875 -1.328125 -1.203125q-0.84375 -0.421875 -1.875 -0.421875q-1.46875 0 -2.5 0.9375q-1.03125 0.9375 -1.1875 2.59375l7.375 0z" fill-rule="nonzero"/><path fill="#ffffff" d="m720.893 336.06512l-6.46875 0l-1.203125 3.3125l-2.046875 0l5.375 -14.78125l2.234375 0l5.359375 14.78125l-2.046875 0l-1.203125 -3.3125zm-0.546875 -1.578125l-2.6875 -7.5l-2.6875 7.5l5.375 0zm16.07837 -5.625q0 1.859375 -1.265625 3.09375q-1.265625 1.21875 -3.875 1.21875l-2.859375 0l0 6.203125l-1.9375 0l0 -14.859375l4.796875 0q2.515625 0 3.828125 1.21875q1.3125 1.203125 1.3125 3.125zm-5.140625 2.703125q1.625 0 2.390625 -0.703125q0.765625 -0.703125 0.765625 -2.0q0 -2.75 -3.15625 -2.75l-2.859375 0l0 5.453125l2.859375 0zm9.489624 -7.046875l0 14.859375l-1.9375 0l0 -14.859375l1.9375 0z" fill-rule="nonzero"/></g></svg>
