<svg version="1.1" viewBox="0.0 0.0 1036.1076115485564 515.0656167979002" fill="none" stroke="none" stroke-linecap="square" stroke-miterlimit="10" xmlns:xlink="http://www.w3.org/1999/xlink" xmlns="http://www.w3.org/2000/svg"><clipPath id="p.0"><path d="m0 0l1036.1077 0l0 515.0656l-1036.1077 0l0 -515.0656z" clip-rule="nonzero"/></clipPath><g clip-path="url(#p.0)"><path fill="#140526" d="m0 0l1036.1077 0l0 515.0656l-1036.1077 0z" fill-rule="evenodd"/><path fill="#000000" fill-opacity="0.0" d="m621.8075 91.74969l0 0c0 -35.457306 28.743835 -64.201126 64.20117 -64.201126l256.7968 0l0 0c17.027222 0 33.356995 6.7640266 45.397034 18.804077c12.040039 12.040047 18.804077 28.369854 18.804077 45.397053l0 328.07016c0 35.457306 -28.743835 64.20114 -64.20111 64.20114l-256.7968 0c-35.457336 0 -64.20117 -28.743835 -64.20117 -64.20114z" fill-rule="evenodd"/><path stroke="#8d3aed" stroke-width="4.0" stroke-linejoin="round" stroke-linecap="butt" d="m621.8075 91.74969l0 0c0 -35.457306 28.743835 -64.201126 64.20117 -64.201126l256.7968 0l0 0c17.027222 0 33.356995 6.7640266 45.397034 18.804077c12.040039 12.040047 18.804077 28.369854 18.804077 45.397053l0 328.07016c0 35.457306 -28.743835 64.20114 -64.20111 64.20114l-256.7968 0c-35.457336 0 -64.20117 -28.743835 -64.20117 -64.20114z" fill-rule="evenodd"/><path fill="#000000" fill-opacity="0.0" d="m623.72424 121.28871l381.94647 0" fill-rule="evenodd"/><path stroke="#8d3aed" stroke-width="2.0" stroke-linejoin="round" stroke-linecap="butt" d="m623.72424 121.28871l381.94647 0" fill-rule="evenodd"/><path fill="#000000" fill-opacity="0.0" d="m623.72424 204.87138l381.94647 0" fill-rule="evenodd"/><path stroke="#8d3aed" stroke-width="2.0" stroke-linejoin="round" stroke-linecap="butt" d="m623.72424 204.87138l381.94647 0" fill-rule="evenodd"/><path fill="#000000" fill-opacity="0.0" d="m621.8075 297.30972l381.94653 0" fill-rule="evenodd"/><path stroke="#8d3aed" stroke-width="2.0" stroke-linejoin="round" stroke-linecap="butt" d="m621.8075 297.30972l381.94653 0" fill-rule="evenodd"/><path fill="#000000" fill-opacity="0.0" d="m623.72424 391.91077l381.94647 0" fill-rule="evenodd"/><path stroke="#8d3aed" stroke-width="2.0" stroke-linejoin="round" stroke-linecap="butt" d="m623.72424 391.91077l381.94647 0" fill-rule="evenodd"/><path fill="#000000" fill-opacity="0.0" d="m814.40704 27.548557l0 456.47244" fill-rule="evenodd"/><path stroke="#8d3aed" stroke-width="2.0" stroke-linejoin="round" stroke-linecap="butt" d="m814.40704 27.548557l0 456.47244" fill-rule="evenodd"/><path fill="#000000" fill-opacity="0.0" d="m625.0601 50.72966l189.34692 0l0 48.472443l-189.34692 0z" fill-rule="evenodd"/><path fill="#ffffff" d="m692.4914 74.941536q0 1.09375 -0.171875 2.109375q-0.171875 1.0 -0.546875 1.875q-0.375 0.859375 -0.96875 1.578125q-0.59375 0.703125 -1.46875 1.21875q-0.859375 0.5 -2.015625 0.78125q-1.140625 0.265625 -2.609375 0.265625l-3.28125 0l0 -15.3125l3.953125 0q3.578125 0 5.34375 1.84375q1.765625 1.84375 1.765625 5.640625zm-2.1875 0.15625q0 -1.640625 -0.3125 -2.765625q-0.296875 -1.125 -0.921875 -1.8125q-0.625 -0.6875 -1.5625 -1.0q-0.9375 -0.3125 -2.203125 -0.3125l-1.796875 0l0 11.75l1.5625 0q5.234375 0 5.234375 -5.859375zm14.9453125 3.09375q0 1.09375 -0.4375 1.953125q-0.421875 0.84375 -1.21875 1.4375q-0.78125 0.578125 -1.90625 0.890625q-1.109375 0.296875 -2.484375 0.296875l-4.0 0l0 -15.3125l4.375 0q5.125 0 5.125 3.71875q0 1.25 -0.59375 2.140625q-0.59375 0.890625 -1.921875 1.3125q0.609375 0.125 1.171875 0.40625q0.5625 0.28125 0.984375 0.734375q0.421875 0.4375 0.65625 1.046875q0.25 0.609375 0.25 1.375zm-2.71875 -6.734375q0 -0.46875 -0.140625 -0.875q-0.140625 -0.421875 -0.5 -0.71875q-0.34375 -0.296875 -0.9375 -0.46875q-0.59375 -0.1875 -1.515625 -0.1875l-2.15625 0l0 4.796875l2.09375 0q0.703125 0 1.28125 -0.15625q0.59375 -0.15625 1.0 -0.46875q0.421875 -0.3125 0.640625 -0.78125q0.234375 -0.484375 0.234375 -1.140625zm0.5 6.796875q0 -0.578125 -0.25 -1.046875q-0.234375 -0.46875 -0.703125 -0.796875q-0.46875 -0.328125 -1.140625 -0.5q-0.671875 -0.171875 -1.515625 -0.171875l-2.140625 0l0 5.265625l2.203125 0q1.796875 0 2.671875 -0.65625q0.875 -0.671875 0.875 -2.09375zm28.96875 4.515625l-2.625 0l-5.71875 -7.515625l0 7.515625l-2.09375 0l0 -15.3125l2.09375 0l0 7.109375l5.609375 -7.109375l2.46875 0l-6.046875 7.265625l6.3125 8.046875zm12.7421875 -6.5q0 0.421875 -0.015625 0.71875q0 0.296875 -0.03125 0.546875l-8.265625 0q0 1.8125 1.0 2.78125q1.015625 0.96875 2.921875 0.96875q0.515625 0 1.03125 -0.046875q0.515625 -0.046875 0.984375 -0.109375q0.484375 -0.078125 0.921875 -0.15625q0.453125 -0.09375 0.828125 -0.203125l0 1.6875q-0.84375 0.234375 -1.890625 0.375q-1.046875 0.15625 -2.171875 0.15625q-1.515625 0 -2.609375 -0.40625q-1.078125 -0.421875 -1.78125 -1.203125q-0.6875 -0.78125 -1.03125 -1.90625q-0.328125 -1.140625 -0.328125 -2.5625q0 -1.25 0.359375 -2.34375q0.359375 -1.109375 1.03125 -1.953125q0.6875 -0.84375 1.6875 -1.328125q1.0 -0.5 2.265625 -0.5q1.234375 0 2.171875 0.390625q0.953125 0.390625 1.59375 1.109375q0.65625 0.703125 0.984375 1.71875q0.34375 1.0 0.34375 2.265625zm-2.125 -0.296875q0.046875 -0.78125 -0.140625 -1.4375q-0.1875 -0.65625 -0.59375 -1.125q-0.390625 -0.46875 -0.984375 -0.71875q-0.578125 -0.265625 -1.34375 -0.265625q-0.671875 0 -1.21875 0.265625q-0.546875 0.25 -0.953125 0.71875q-0.390625 0.46875 -0.640625 1.125q-0.25 0.65625 -0.3125 1.4375l6.1875 0zm15.8515625 -4.96875l-4.015625 10.515625q-0.609375 1.609375 -1.28125 2.765625q-0.65625 1.171875 -1.453125 1.90625q-0.78125 0.75 -1.71875 1.09375q-0.9375 0.359375 -2.09375 0.359375q-0.296875 0 -0.546875 -0.015625q-0.25 0 -0.546875 -0.03125l0 -1.84375q0.265625 0.03125 0.5625 0.0625q0.3125 0.03125 0.65625 0.03125q0.5625 0 1.046875 -0.171875q0.484375 -0.15625 0.90625 -0.53125q0.4375 -0.375 0.828125 -0.96875q0.40625 -0.578125 0.78125 -1.40625l-4.6875 -11.765625l2.3125 0l2.984375 7.78125l0.59375 1.828125l0.671875 -1.875l2.765625 -7.734375l2.234375 0z" fill-rule="nonzero"/><path fill="#000000" fill-opacity="0.0" d="m814.40704 50.72966l192.59955 0l0 48.472443l-192.59955 0z" fill-rule="evenodd"/><path fill="#ffffff" d="m870.26935 74.941536q0 1.09375 -0.171875 2.109375q-0.171875 1.0 -0.546875 1.875q-0.375 0.859375 -0.96875 1.578125q-0.59375 0.703125 -1.46875 1.21875q-0.859375 0.5 -2.015625 0.78125q-1.140625 0.265625 -2.609375 0.265625l-3.28125 0l0 -15.3125l3.953125 0q3.578125 0 5.34375 1.84375q1.765625 1.84375 1.765625 5.640625zm-2.1875 0.15625q0 -1.640625 -0.3125 -2.765625q-0.296875 -1.125 -0.921875 -1.8125q-0.625 -0.6875 -1.5625 -1.0q-0.9375 -0.3125 -2.203125 -0.3125l-1.796875 0l0 11.75l1.5625 0q5.234375 0 5.234375 -5.859375zm14.9453125 3.09375q0 1.09375 -0.4375 1.953125q-0.421875 0.84375 -1.21875 1.4375q-0.78125 0.578125 -1.90625 0.890625q-1.109375 0.296875 -2.484375 0.296875l-4.0 0l0 -15.3125l4.375 0q5.125 0 5.125 3.71875q0 1.25 -0.59375 2.140625q-0.59375 0.890625 -1.921875 1.3125q0.609375 0.125 1.171875 0.40625q0.5625 0.28125 0.984375 0.734375q0.421875 0.4375 0.65625 1.046875q0.25 0.609375 0.25 1.375zm-2.71875 -6.734375q0 -0.46875 -0.140625 -0.875q-0.140625 -0.421875 -0.5 -0.71875q-0.34375 -0.296875 -0.9375 -0.46875q-0.59375 -0.1875 -1.515625 -0.1875l-2.15625 0l0 4.796875l2.09375 0q0.703125 0 1.28125 -0.15625q0.59375 -0.15625 1.0 -0.46875q0.421875 -0.3125 0.640625 -0.78125q0.234375 -0.484375 0.234375 -1.140625zm0.5 6.796875q0 -0.578125 -0.25 -1.046875q-0.234375 -0.46875 -0.703125 -0.796875q-0.46875 -0.328125 -1.140625 -0.5q-0.671875 -0.171875 -1.515625 -0.171875l-2.140625 0l0 5.265625l2.203125 0q1.796875 0 2.671875 -0.65625q0.875 -0.671875 0.875 -2.09375zm29.859375 -10.796875l-5.203125 15.3125l-2.8125 0l-5.09375 -15.3125l2.359375 0l3.296875 10.3125l0.9375 3.03125l0.96875 -3.03125l3.3125 -10.3125l2.234375 0zm9.4765625 15.3125l-0.046875 -1.578125q-0.96875 0.9375 -1.953125 1.375q-0.984375 0.421875 -2.078125 0.421875q-1.015625 0 -1.734375 -0.265625q-0.703125 -0.265625 -1.171875 -0.703125q-0.453125 -0.453125 -0.671875 -1.0625q-0.21875 -0.609375 -0.21875 -1.328125q0 -1.765625 1.3125 -2.765625q1.328125 -1.015625 3.90625 -1.015625l2.4375 0l0 -1.03125q0 -1.03125 -0.671875 -1.65625q-0.671875 -0.640625 -2.046875 -0.640625q-0.984375 0 -1.953125 0.234375q-0.96875 0.21875 -2.0 0.625l0 -1.84375q0.390625 -0.140625 0.859375 -0.265625q0.46875 -0.140625 1.0 -0.234375q0.53125 -0.109375 1.09375 -0.171875q0.578125 -0.078125 1.171875 -0.078125q1.0625 0 1.921875 0.234375q0.859375 0.234375 1.4375 0.71875q0.59375 0.484375 0.90625 1.21875q0.328125 0.71875 0.328125 1.703125l0 8.109375l-1.828125 0zm-0.21875 -5.359375l-2.59375 0q-0.765625 0 -1.3125 0.15625q-0.546875 0.15625 -0.90625 0.4375q-0.34375 0.28125 -0.515625 0.671875q-0.171875 0.390625 -0.171875 0.875q0 0.34375 0.09375 0.65625q0.109375 0.3125 0.34375 0.5625q0.234375 0.234375 0.609375 0.375q0.375 0.140625 0.921875 0.140625q0.703125 0 1.609375 -0.421875q0.90625 -0.4375 1.921875 -1.359375l0 -2.09375zm9.8671875 -9.53125l-3.484375 0l0 -1.671875l5.546875 0l0 14.859375l3.5 0l0 1.703125l-9.4375 0l0 -1.703125l3.875 0l0 -13.1875zm18.632812 14.890625l-1.828125 0l-0.0625 -1.90625q-0.53125 0.609375 -1.015625 1.015625q-0.46875 0.40625 -0.9375 0.65625q-0.46875 0.25 -0.9375 0.34375q-0.46875 0.109375 -1.0 0.109375q-1.8125 0 -2.75 -1.0625q-0.921875 -1.078125 -0.921875 -3.234375l0 -7.6875l2.046875 0l0 7.515625q0 2.71875 2.03125 2.71875q0.375 0 0.734375 -0.109375q0.359375 -0.125 0.75 -0.390625q0.390625 -0.28125 0.84375 -0.75q0.453125 -0.46875 1.015625 -1.1875l0 -7.796875l2.03125 0l0 11.765625zm13.6796875 -6.5q0 0.421875 -0.015625 0.71875q0 0.296875 -0.03125 0.546875l-8.265625 0q0 1.8125 1.0 2.78125q1.015625 0.96875 2.921875 0.96875q0.515625 0 1.03125 -0.046875q0.515625 -0.046875 0.984375 -0.109375q0.484375 -0.078125 0.921875 -0.15625q0.453125 -0.09375 0.828125 -0.203125l0 1.6875q-0.84375 0.234375 -1.890625 0.375q-1.046875 0.15625 -2.171875 0.15625q-1.515625 0 -2.609375 -0.40625q-1.078125 -0.421875 -1.78125 -1.203125q-0.6875 -0.78125 -1.03125 -1.90625q-0.328125 -1.140625 -0.328125 -2.5625q0 -1.25 0.359375 -2.34375q0.359375 -1.109375 1.03125 -1.953125q0.6875 -0.84375 1.6875 -1.328125q1.0 -0.5 2.265625 -0.5q1.234375 0 2.171875 0.390625q0.953125 0.390625 1.59375 1.109375q0.65625 0.703125 0.984375 1.71875q0.34375 1.0 0.34375 2.265625zm-2.125 -0.296875q0.046875 -0.78125 -0.140625 -1.4375q-0.1875 -0.65625 -0.59375 -1.125q-0.390625 -0.46875 -0.984375 -0.71875q-0.578125 -0.265625 -1.34375 -0.265625q-0.671875 0 -1.21875 0.265625q-0.546875 0.25 -0.953125 0.71875q-0.390625 0.46875 -0.640625 1.125q-0.25 0.65625 -0.3125 1.4375l6.1875 0z" fill-rule="nonzero"/><path fill="#000000" fill-opacity="0.0" d="m625.0601 226.85564l189.34692 0l0 54.929153l-189.34692 0z" fill-rule="evenodd"/><path fill="#000000" fill-opacity="0.0" d="m49.03482 167.84358l0 0c0 -7.853897 6.366852 -14.220749 14.220757 -14.220749l74.015175 0c3.7715912 0 7.388687 1.4982452 10.055603 4.165161c2.6669006 2.6669006 4.165161 6.284012 4.165161 10.055588l0 56.881317c0 7.8539124 -6.366852 14.220764 -14.220764 14.220764l-74.015175 0c-7.8539047 0 -14.220757 -6.366852 -14.220757 -14.220764z" fill-rule="evenodd"/><path stroke="#bf9000" stroke-width="4.0" stroke-linejoin="round" stroke-linecap="butt" d="m49.03482 167.84358l0 0c0 -7.853897 6.366852 -14.220749 14.220757 -14.220749l74.015175 0c3.7715912 0 7.388687 1.4982452 10.055603 4.165161c2.6669006 2.6669006 4.165161 6.284012 4.165161 10.055588l0 56.881317c0 7.8539124 -6.366852 14.220764 -14.220764 14.220764l-74.015175 0c-7.8539047 0 -14.220757 -6.366852 -14.220757 -14.220764z" fill-rule="evenodd"/><path fill="#000000" fill-opacity="0.0" d="m257.04382 170.03654l0 0c0 -7.8539124 6.366852 -14.220764 14.220764 -14.220764l74.01517 0c3.771576 0 7.3887024 1.4982605 10.055603 4.165161c2.6669006 2.666916 4.165161 6.284027 4.165161 10.055603l0 56.881317c0 7.8539124 -6.366852 14.220764 -14.220764 14.220764l-74.01517 0c-7.8539124 0 -14.220764 -6.366852 -14.220764 -14.220764z" fill-rule="evenodd"/><path stroke="#24cc85" stroke-width="4.0" stroke-linejoin="round" stroke-linecap="butt" d="m257.04382 170.03654l0 0c0 -7.8539124 6.366852 -14.220764 14.220764 -14.220764l74.01517 0c3.771576 0 7.3887024 1.4982605 10.055603 4.165161c2.6669006 2.666916 4.165161 6.284027 4.165161 10.055603l0 56.881317c0 7.8539124 -6.366852 14.220764 -14.220764 14.220764l-74.01517 0c-7.8539124 0 -14.220764 -6.366852 -14.220764 -14.220764z" fill-rule="evenodd"/><path fill="#000000" fill-opacity="0.0" d="m257.04538 31.92157l0 0c0 -7.8539066 6.366852 -14.220757 14.220734 -14.220757l74.0152 0c3.771576 0 7.388672 1.4982548 10.0555725 4.165163c2.6669312 2.6669102 4.1651917 6.2840137 4.1651917 10.0555935l0 56.881325c0 7.8539047 -6.366852 14.220757 -14.220764 14.220757l-74.0152 0c-7.853882 0 -14.220734 -6.366852 -14.220734 -14.220757z" fill-rule="evenodd"/><path stroke="#cc4125" stroke-width="4.0" stroke-linejoin="round" stroke-linecap="butt" d="m257.04538 31.92157l0 0c0 -7.8539066 6.366852 -14.220757 14.220734 -14.220757l74.0152 0c3.771576 0 7.388672 1.4982548 10.0555725 4.165163c2.6669312 2.6669102 4.1651917 6.2840137 4.1651917 10.0555935l0 56.881325c0 7.8539047 -6.366852 14.220757 -14.220764 14.220757l-74.0152 0c-7.853882 0 -14.220734 -6.366852 -14.220734 -14.220757z" fill-rule="evenodd"/><path fill="#000000" fill-opacity="0.0" d="m257.04382 326.80618l0 0c0 -7.8539124 6.366852 -14.220764 14.220764 -14.220764l74.01517 0c3.771576 0 7.3887024 1.4982605 10.055603 4.165161c2.6669006 2.6669006 4.165161 6.284027 4.165161 10.055603l0 56.881317c0 7.8539124 -6.366852 14.220764 -14.220764 14.220764l-74.01517 0c-7.8539124 0 -14.220764 -6.366852 -14.220764 -14.220764z" fill-rule="evenodd"/><path stroke="#bf9000" stroke-width="4.0" stroke-linejoin="round" stroke-linecap="butt" d="m257.04382 326.80618l0 0c0 -7.8539124 6.366852 -14.220764 14.220764 -14.220764l74.01517 0c3.771576 0 7.3887024 1.4982605 10.055603 4.165161c2.6669006 2.6669006 4.165161 6.284027 4.165161 10.055603l0 56.881317c0 7.8539124 -6.366852 14.220764 -14.220764 14.220764l-74.01517 0c-7.8539124 0 -14.220764 -6.366852 -14.220764 -14.220764z" fill-rule="evenodd"/><path fill="#ffffff" d="m300.07413 364.99557q4.40625 -3.53125 6.890625 -5.796875q2.5 -2.28125 4.21875 -4.75q1.71875 -2.484375 1.71875 -4.875q0 -2.25 -1.09375 -3.546875q-1.09375 -1.296875 -3.515625 -1.296875q-2.359375 0 -3.65625 1.46875q-1.296875 1.46875 -1.40625 3.9375l-3.046875 0q0.140625 -3.890625 2.359375 -6.0q2.21875 -2.109375 5.71875 -2.109375q3.5625 0 5.65625 1.96875q2.09375 1.96875 2.09375 5.4375q0 2.875 -1.71875 5.609375q-1.703125 2.71875 -3.890625 4.78125q-2.1875 2.046875 -5.578125 4.796875l11.921875 0l0 2.625l-16.671875 0l0 -2.25z" fill-rule="nonzero"/><path fill="#000000" fill-opacity="0.0" d="m308.2737 103.02365l-208.0 50.614166" fill-rule="evenodd"/><path stroke="#ffffff" stroke-width="1.0" stroke-linejoin="round" stroke-linecap="butt" stroke-dasharray="4.0,3.0" d="m308.2737 103.02365l-202.17012 49.195557" fill-rule="evenodd"/><path fill="#ffffff" stroke="#ffffff" stroke-width="1.0" stroke-linecap="butt" d="m105.71306 150.6143l-4.0188904 2.6778717l4.7999573 0.5319214z" fill-rule="evenodd"/><path fill="#000000" fill-opacity="0.0" d="m308.2737 103.02365l0 52.7874" fill-rule="evenodd"/><path stroke="#ffffff" stroke-width="1.0" stroke-linejoin="round" stroke-linecap="butt" stroke-dasharray="4.0,3.0" d="m308.2737 103.02365l0 46.7874" fill-rule="evenodd"/><path fill="#ffffff" stroke="#ffffff" stroke-width="1.0" stroke-linecap="butt" d="m306.62198 149.81105l1.6517334 4.538101l1.6517334 -4.538101z" fill-rule="evenodd"/><path fill="#000000" fill-opacity="0.0" d="m308.2722 241.13863l0 71.43306" fill-rule="evenodd"/><path stroke="#ffffff" stroke-width="1.0" stroke-linejoin="round" stroke-linecap="butt" stroke-dasharray="4.0,3.0" d="m308.27216 241.13861l0 65.433075" fill-rule="evenodd"/><path fill="#ffffff" stroke="#ffffff" stroke-width="1.0" stroke-linecap="butt" d="m306.62042 306.5717l1.6517334 4.538086l1.6517334 -4.538086z" fill-rule="evenodd"/><path fill="#000000" fill-opacity="0.0" d="m382.50183 325.85803l0 0c0 -7.8539124 6.3668213 -14.220764 14.220734 -14.220764l74.0152 0c3.771576 0 7.388672 1.4982605 10.0555725 4.165161c2.6669312 2.6669312 4.165161 6.284027 4.165161 10.055603l0 56.881317c0 7.8539124 -6.3668213 14.220764 -14.220734 14.220764l-74.0152 0c-7.8539124 0 -14.220734 -6.366852 -14.220734 -14.220764z" fill-rule="evenodd"/><path stroke="#bb8ba6" stroke-width="4.0" stroke-linejoin="round" stroke-linecap="butt" d="m382.50183 325.85803l0 0c0 -7.8539124 6.3668213 -14.220764 14.220734 -14.220764l74.0152 0c3.771576 0 7.388672 1.4982605 10.0555725 4.165161c2.6669312 2.6669312 4.165161 6.284027 4.165161 10.055603l0 56.881317c0 7.8539124 -6.3668213 14.220764 -14.220734 14.220764l-74.0152 0c-7.8539124 0 -14.220734 -6.366852 -14.220734 -14.220764z" fill-rule="evenodd"/><path fill="#ffffff" d="m425.60202 347.8287q0.25 -3.1875 2.46875 -4.984375q2.21875 -1.8125 5.75 -1.8125q2.359375 0 4.0625 0.859375q1.71875 0.84375 2.59375 2.296875q0.890625 1.453125 0.890625 3.296875q0 2.140625 -1.234375 3.703125q-1.21875 1.5625 -3.203125 2.015625l0 0.171875q2.265625 0.546875 3.578125 2.1875q1.3125 1.625 1.3125 4.25q0 1.984375 -0.90625 3.5625q-0.890625 1.578125 -2.703125 2.484375q-1.796875 0.890625 -4.328125 0.890625q-3.671875 0 -6.03125 -1.921875q-2.359375 -1.921875 -2.625 -5.453125l3.046875 0q0.234375 2.078125 1.6875 3.390625q1.46875 1.3125 3.890625 1.3125q2.421875 0 3.6875 -1.265625q1.265625 -1.265625 1.265625 -3.265625q0 -2.609375 -1.734375 -3.75q-1.734375 -1.140625 -5.234375 -1.140625l-0.796875 0l0 -2.640625l0.84375 0q3.1875 -0.03125 4.8125 -1.046875q1.625 -1.03125 1.625 -3.171875q0 -1.84375 -1.203125 -2.953125q-1.1875 -1.109375 -3.40625 -1.109375q-2.140625 0 -3.46875 1.109375q-1.3125 1.109375 -1.5625 2.984375l-3.078125 0z" fill-rule="nonzero"/><path fill="#000000" fill-opacity="0.0" d="m308.2722 241.13863l125.44882 70.488174" fill-rule="evenodd"/><path stroke="#ffffff" stroke-width="1.0" stroke-linejoin="round" stroke-linecap="butt" stroke-dasharray="4.0,3.0" d="m308.27216 241.13861l120.21805 67.54904" fill-rule="evenodd"/><path fill="#ffffff" stroke="#ffffff" stroke-width="1.0" stroke-linecap="butt" d="m427.68106 310.12766l4.765442 0.78302l-3.1472168 -3.6629944z" fill-rule="evenodd"/><path fill="#000000" fill-opacity="0.0" d="m121.04498 90.976875l143.1181 0l0 48.472435l-143.1181 0z" fill-rule="evenodd"/><path fill="#ffffff" d="m197.94388 116.92313q0 1.46875 -0.40625 2.625q-0.40625 1.140625 -1.15625 1.953125q-0.734375 0.796875 -1.8125 1.234375q-1.0625 0.421875 -2.390625 0.421875q-1.046875 0 -2.140625 -0.203125q-1.09375 -0.203125 -2.15625 -0.625l0 -15.875l2.046875 0l0 4.5625l-0.09375 2.171875q0.875 -1.171875 1.875 -1.65625q1.0 -0.5 2.15625 -0.5q1.0 0 1.765625 0.421875q0.765625 0.421875 1.28125 1.203125q0.515625 0.765625 0.765625 1.84375q0.265625 1.078125 0.265625 2.421875zm-2.09375 0.09375q0 -0.921875 -0.140625 -1.6875q-0.125 -0.78125 -0.421875 -1.328125q-0.296875 -0.5625 -0.75 -0.875q-0.453125 -0.3125 -1.09375 -0.3125q-0.375 0 -0.78125 0.125q-0.390625 0.125 -0.828125 0.421875q-0.421875 0.28125 -0.90625 0.765625q-0.46875 0.46875 -1.0 1.171875l0 5.703125q0.59375 0.234375 1.203125 0.375q0.625 0.125 1.1875 0.125q0.703125 0 1.34375 -0.21875q0.640625 -0.21875 1.125 -0.734375q0.484375 -0.53125 0.765625 -1.390625q0.296875 -0.859375 0.296875 -2.140625z" fill-rule="nonzero"/><path fill="#000000" fill-opacity="0.0" d="m298.54822 107.4462l83.93701 0l0 48.472443l-83.93701 0z" fill-rule="evenodd"/><path fill="#ffffff" d="m343.35657 139.48619l-0.046875 -1.578125q-0.96875 0.9375 -1.953125 1.375q-0.984375 0.421875 -2.078125 0.421875q-1.015625 0 -1.734375 -0.265625q-0.703125 -0.265625 -1.171875 -0.703125q-0.453125 -0.453125 -0.671875 -1.0625q-0.21875 -0.609375 -0.21875 -1.328125q0 -1.765625 1.3125 -2.765625q1.328125 -1.015625 3.90625 -1.015625l2.4375 0l0 -1.03125q0 -1.03125 -0.671875 -1.65625q-0.671875 -0.640625 -2.046875 -0.640625q-0.984375 0 -1.953125 0.234375q-0.96875 0.21875 -2.0 0.625l0 -1.84375q0.390625 -0.140625 0.859375 -0.26561737q0.46875 -0.140625 1.0 -0.234375q0.53125 -0.109375 1.09375 -0.171875q0.578125 -0.078125 1.171875 -0.078125q1.0625 0 1.921875 0.234375q0.859375 0.234375 1.4375 0.7187424q0.59375 0.484375 0.90625 1.21875q0.328125 0.71875 0.328125 1.703125l0 8.109375l-1.828125 0zm-0.21875 -5.359375l-2.59375 0q-0.765625 0 -1.3125 0.15625q-0.546875 0.15625 -0.90625 0.4375q-0.34375 0.28125 -0.515625 0.671875q-0.171875 0.390625 -0.171875 0.875q0 0.34375 0.09375 0.65625q0.109375 0.3125 0.34375 0.5625q0.234375 0.234375 0.609375 0.375q0.375 0.140625 0.921875 0.140625q0.703125 0 1.609375 -0.421875q0.90625 -0.4375 1.921875 -1.359375l0 -2.09375z" fill-rule="nonzero"/><path fill="#000000" fill-opacity="0.0" d="m49.034958 325.86972l0 0c0 -7.8539124 6.366848 -14.220764 14.220757 -14.220764l74.015175 0c3.771576 0 7.388687 1.4982605 10.055603 4.165161c2.6669006 2.6669006 4.165161 6.284027 4.165161 10.055603l0 56.881317c0 7.8539124 -6.366852 14.220764 -14.220764 14.220764l-74.015175 0c-7.8539085 0 -14.220757 -6.366852 -14.220757 -14.220764z" fill-rule="evenodd"/><path stroke="#bf9000" stroke-width="4.0" stroke-linejoin="round" stroke-linecap="butt" d="m49.034958 325.86972l0 0c0 -7.8539124 6.366848 -14.220764 14.220757 -14.220764l74.015175 0c3.771576 0 7.388687 1.4982605 10.055603 4.165161c2.6669006 2.6669006 4.165161 6.284027 4.165161 10.055603l0 56.881317c0 7.8539124 -6.366852 14.220764 -14.220764 14.220764l-74.015175 0c-7.8539085 0 -14.220757 -6.366852 -14.220757 -14.220764z" fill-rule="evenodd"/><path fill="#ffffff" d="m96.0308 344.40286l0 -2.875l6.515625 0l0 25.0625l-3.1875 0l0 -22.1875l-3.328125 0z" fill-rule="nonzero"/><path fill="#000000" fill-opacity="0.0" d="m100.26317 238.94566l0 72.69292" fill-rule="evenodd"/><path stroke="#ffffff" stroke-width="1.0" stroke-linejoin="round" stroke-linecap="butt" stroke-dasharray="4.0,3.0" d="m100.26316 238.94566l0 66.69292" fill-rule="evenodd"/><path fill="#ffffff" stroke="#ffffff" stroke-width="1.0" stroke-linecap="butt" d="m98.611435 305.63858l1.6517258 4.538086l1.6517334 -4.538086z" fill-rule="evenodd"/><path fill="#000000" fill-opacity="0.0" d="m-2.9396327E-4 254.28937l143.1181 0l0 48.472443l-143.1181 0z" fill-rule="evenodd"/><path fill="#ffffff" d="m75.97672 285.89188q-0.796875 0.3125 -1.640625 0.453125q-0.828125 0.15625 -1.71875 0.15625q-2.796875 0 -4.296875 -1.515625q-1.5 -1.515625 -1.5 -4.421875q0 -1.390625 0.421875 -2.53125q0.4375 -1.140625 1.21875 -1.9375q0.796875 -0.8125 1.875 -1.25q1.09375 -0.453125 2.40625 -0.453125q0.921875 0 1.71875 0.140625q0.796875 0.125 1.515625 0.421875l0 1.9375q-0.765625 -0.390625 -1.5625 -0.578125q-0.78125 -0.1875 -1.625 -0.1875q-0.78125 0 -1.484375 0.3125q-0.6875 0.296875 -1.21875 0.859375q-0.53125 0.5625 -0.84375 1.375q-0.296875 0.796875 -0.296875 1.8125q0 2.140625 1.03125 3.203125q1.046875 1.0625 2.890625 1.0625q0.828125 0 1.609375 -0.1875q0.78125 -0.1875 1.5 -0.5625l0 1.890625z" fill-rule="nonzero"/><path fill="#000000" fill-opacity="0.0" d="m233.53516 259.10196l95.46457 0l0 48.472443l-95.46457 0z" fill-rule="evenodd"/><path fill="#ffffff" d="m275.95105 285.50134q0 -1.5 0.40625 -2.65625q0.40625 -1.171875 1.15625 -1.96875q0.765625 -0.8125 1.828125 -1.21875q1.0625 -0.421875 2.359375 -0.421875q0.5625 0 1.109375 0.078125q0.546875 0.0625 1.078125 0.21875l0 -4.953125l2.046875 0l0 16.5625l-1.828125 0l-0.078125 -2.234375q-0.84375 1.25 -1.84375 1.859375q-1.0 0.59375 -2.15625 0.59375q-1.015625 0 -1.78125 -0.421875q-0.765625 -0.4375 -1.28125 -1.203125q-0.5 -0.765625 -0.765625 -1.84375q-0.25 -1.078125 -0.25 -2.390625zm2.078125 -0.125q0 2.125 0.625 3.1875q0.640625 1.046875 1.78125 1.046875q0.78125 0 1.640625 -0.6875q0.859375 -0.703125 1.8125 -2.0625l0 -5.453125q-0.515625 -0.234375 -1.125 -0.359375q-0.609375 -0.125 -1.203125 -0.125q-1.65625 0 -2.59375 1.078125q-0.9375 1.078125 -0.9375 3.375z" fill-rule="nonzero"/><path fill="#000000" fill-opacity="0.0" d="m350.27646 254.28304l108.031494 0l0 48.472458l-108.031494 0z" fill-rule="evenodd"/><path fill="#ffffff" d="m409.50705 279.82303q0 0.421875 -0.015625 0.71875q0 0.296875 -0.03125 0.546875l-8.265625 0q0 1.8125 1.0 2.78125q1.015625 0.96875 2.921875 0.96875q0.515625 0 1.03125 -0.046875q0.515625 -0.046875 0.984375 -0.109375q0.484375 -0.078125 0.921875 -0.15625q0.453125 -0.09375 0.828125 -0.203125l0 1.6875q-0.84375 0.234375 -1.890625 0.375q-1.046875 0.15625 -2.171875 0.15625q-1.515625 0 -2.609375 -0.40625q-1.078125 -0.421875 -1.78125 -1.203125q-0.6875 -0.78125 -1.03125 -1.90625q-0.328125 -1.140625 -0.328125 -2.5625q0 -1.25 0.359375 -2.34375q0.359375 -1.109375 1.03125 -1.953125q0.6875 -0.84375 1.6875 -1.328125q1.0 -0.5 2.265625 -0.5q1.234375 0 2.171875 0.390625q0.953125 0.390625 1.59375 1.109375q0.65625 0.703125 0.984375 1.71875q0.34375 1.0 0.34375 2.265625zm-2.125 -0.296875q0.046875 -0.78125 -0.140625 -1.4375q-0.1875 -0.65625 -0.59375 -1.125q-0.390625 -0.46875 -0.984375 -0.71875q-0.578125 -0.265625 -1.34375 -0.265625q-0.671875 0 -1.21875 0.265625q-0.546875 0.25 -0.953125 0.71875q-0.390625 0.46875 -0.640625 1.125q-0.25 0.65625 -0.3125 1.4375l6.1875 0z" fill-rule="nonzero"/><path fill="#000000" fill-opacity="0.0" d="m359.50208 60.362232c65.5748 0 98.36218 25.811024 131.1496 51.622044c32.787415 25.811028 65.57477 51.622047 131.1496 51.622047" fill-rule="evenodd"/><path stroke="#cccccc" stroke-width="1.0" stroke-linejoin="round" stroke-linecap="butt" stroke-dasharray="1.0,3.0" d="m359.50204 60.362232c65.5748 0 98.36221 25.811024 131.1496 51.62205c16.393707 12.90551 32.787445 25.81102 53.27957 35.490158c10.246033 4.839569 21.516724 8.872543 34.32428 11.695618c6.4038086 1.4115448 13.1918335 2.5206146 20.42804 3.2767944c3.618164 0.37809753 7.3483887 0.6679535 11.198669 0.86331177c1.9251099 0.09765625 3.88031 0.17170715 5.866455 0.22132874c0.49658203 0.0124053955 0.99505615 0.02330017 1.4954834 0.03263855l1.130127 0.017532349" fill-rule="evenodd"/><path fill="#cccccc" stroke="#cccccc" stroke-width="1.0" stroke-linecap="butt" d="m618.37427 163.58167l-1.1326294 1.1164703l3.0977783 -1.1023254l-3.081604 -1.1467896z" fill-rule="evenodd"/><path fill="#000000" fill-opacity="0.0" d="m359.50052 198.4772c65.33072 0 97.99606 12.692917 130.6614 25.385818c32.665344 12.692917 65.33075 25.385834 130.66144 25.385834" fill-rule="evenodd"/><path stroke="#cccccc" stroke-width="1.0" stroke-linejoin="round" stroke-linecap="butt" stroke-dasharray="1.0,3.0" d="m359.50052 198.4772c65.33072 0 97.99606 12.692902 130.66144 25.385818c16.332672 6.346466 32.665375 12.692917 53.081207 17.452759c10.207886 2.3799286 21.436646 4.3631897 34.196533 5.75148c6.379944 0.6941376 13.1427 1.2395325 20.35205 1.6114044c3.6046753 0.18591309 7.320984 0.32847595 11.156921 0.4245453c1.9180298 0.048034668 3.8659058 0.08442688 5.8446655 0.10884094c0.49468994 0.0061035156 0.991333 0.011459351 1.4898682 0.016052246l1.1130981 0.008529663" fill-rule="evenodd"/><path fill="#cccccc" stroke="#cccccc" stroke-width="1.0" stroke-linecap="butt" d="m617.3963 249.23663l-1.1286011 1.1205597l3.09375 -1.1135559l-3.0856934 -1.1356049z" fill-rule="evenodd"/><path fill="#000000" fill-opacity="0.0" d="m484.9585 354.2987c34.212585 0 51.31891 -2.9055176 68.42523 -5.811035c17.106262 -2.9055176 34.212585 -5.811035 68.42517 -5.811035" fill-rule="evenodd"/><path stroke="#cccccc" stroke-width="1.0" stroke-linejoin="round" stroke-linecap="butt" stroke-dasharray="1.0,3.0" d="m484.9585 354.29868c34.212585 0 51.31891 -2.9055176 68.42517 -5.8110046c8.553162 -1.4527588 17.106323 -2.9055176 27.79779 -3.9950867c5.345703 -0.5447693 11.225952 -0.9987488 17.908081 -1.3165588c3.3411255 -0.15887451 6.8826294 -0.28375244 10.658081 -0.36886597c1.8876953 -0.042541504 3.8338623 -0.07519531 5.8427124 -0.09716797c0.50219727 -0.005493164 1.0083008 -0.010345459 1.5184326 -0.01449585l1.2730713 -0.008575439" fill-rule="evenodd"/><path fill="#cccccc" stroke="#cccccc" stroke-width="1.0" stroke-linecap="butt" d="m618.38184 342.6869l-1.1212158 1.1279602l3.0863647 -1.1338196l-3.0930786 -1.1153564z" fill-rule="evenodd"/><path fill="#000000" fill-opacity="0.0" d="m621.8036 140.97113l189.35431 0l0 45.259842l-189.35431 0z" fill-rule="evenodd"/><path fill="#ffffff" d="m650.8379 170.45113l-1.84375 0l0 -6.25l-5.71875 0l0 6.25l-1.859375 0l0 -13.609375l1.859375 0l0 5.75l5.71875 0l0 -5.75l1.84375 0l0 13.609375zm9.538818 0l-0.046875 -1.40625q-0.859375 0.84375 -1.734375 1.21875q-0.875 0.375 -1.84375 0.375q-0.90625 0 -1.546875 -0.21875q-0.625 -0.234375 -1.046875 -0.640625q-0.40625 -0.40625 -0.59375 -0.9375q-0.1875 -0.546875 -0.1875 -1.1875q0 -1.5625 1.171875 -2.453125q1.171875 -0.890625 3.453125 -0.890625l2.171875 0l0 -0.921875q0 -0.921875 -0.59375 -1.484375q-0.59375 -0.5625 -1.8125 -0.5625q-0.890625 0 -1.75 0.203125q-0.859375 0.203125 -1.765625 0.5625l0 -1.640625q0.34375 -0.125 0.765625 -0.234375q0.421875 -0.125 0.890625 -0.21875q0.46875 -0.09375 0.96875 -0.140625q0.515625 -0.0625 1.03125 -0.0625q0.953125 0 1.703125 0.203125q0.765625 0.203125 1.296875 0.640625q0.53125 0.421875 0.8125 1.078125q0.28125 0.640625 0.28125 1.515625l0 7.203125l-1.625 0zm-0.203125 -4.765625l-2.296875 0q-0.6875 0 -1.171875 0.140625q-0.484375 0.140625 -0.796875 0.390625q-0.3125 0.25 -0.46875 0.59375q-0.15625 0.34375 -0.15625 0.78125q0 0.3125 0.09375 0.59375q0.09375 0.265625 0.296875 0.484375q0.21875 0.203125 0.546875 0.328125q0.34375 0.125 0.8125 0.125q0.625 0 1.4375 -0.375q0.8125 -0.375 1.703125 -1.203125l0 -1.859375zm13.491943 1.90625q0 0.5625 -0.1875 1.0q-0.1875 0.4375 -0.515625 0.78125q-0.328125 0.328125 -0.75 0.578125q-0.421875 0.234375 -0.90625 0.390625q-0.484375 0.15625 -1.0 0.21875q-0.515625 0.078125 -1.0 0.078125q-1.0625 0 -1.953125 -0.09375q-0.890625 -0.09375 -1.75 -0.296875l0 -1.671875q0.921875 0.265625 1.828125 0.40625q0.90625 0.125 1.796875 0.125q1.3125 0 1.9375 -0.34375q0.625 -0.359375 0.625 -1.015625q0 -0.28125 -0.109375 -0.5q-0.09375 -0.234375 -0.359375 -0.4375q-0.25 -0.203125 -0.796875 -0.421875q-0.546875 -0.21875 -1.5 -0.5q-0.703125 -0.203125 -1.3125 -0.46875q-0.59375 -0.265625 -1.03125 -0.625q-0.4375 -0.375 -0.6875 -0.859375q-0.25 -0.5 -0.25 -1.15625q0 -0.4375 0.203125 -0.953125q0.203125 -0.53125 0.6875 -0.96875q0.5 -0.453125 1.328125 -0.75q0.828125 -0.296875 2.078125 -0.296875q0.625 0 1.375 0.0625q0.75 0.0625 1.5625 0.234375l0 1.609375q-0.859375 -0.203125 -1.625 -0.296875q-0.765625 -0.109375 -1.328125 -0.109375q-0.671875 0 -1.140625 0.109375q-0.46875 0.109375 -0.75 0.296875q-0.28125 0.171875 -0.40625 0.421875q-0.125 0.234375 -0.125 0.515625q0 0.28125 0.109375 0.515625q0.109375 0.234375 0.40625 0.453125q0.296875 0.203125 0.828125 0.421875q0.53125 0.203125 1.375 0.453125q0.9375 0.28125 1.5625 0.578125q0.640625 0.296875 1.03125 0.65625q0.40625 0.359375 0.578125 0.828125q0.171875 0.453125 0.171875 1.03125zm11.851257 2.859375l-1.8125 0l0 -6.671875q0 -1.21875 -0.453125 -1.8125q-0.453125 -0.59375 -1.296875 -0.59375q-0.375 0 -0.6875 0.09375q-0.3125 0.09375 -0.65625 0.34375q-0.34375 0.25 -0.75 0.671875q-0.40625 0.40625 -0.9375 1.03125l0 6.9375l-1.8125 0l0 -14.71875l1.8125 0l0 4.265625l-0.0625 1.640625q0.421875 -0.515625 0.828125 -0.859375q0.421875 -0.34375 0.828125 -0.5625q0.40625 -0.21875 0.828125 -0.3125q0.4375 -0.09375 0.890625 -0.09375q1.5625 0 2.421875 0.953125q0.859375 0.953125 0.859375 2.859375l0 6.828125zm9.570068 4.375q-4.796875 -4.453125 -4.796875 -9.828125q0 -1.265625 0.25 -2.515625q0.265625 -1.265625 0.828125 -2.515625q0.5625 -1.265625 1.5 -2.515625q0.9375 -1.265625 2.265625 -2.5l1.046875 1.0625q-4.03125 3.984375 -4.03125 8.84375q0 2.421875 1.015625 4.65625q1.015625 2.21875 3.015625 4.203125l-1.09375 1.109375zm89.685425 -19.875q4.8125 4.4375 4.8125 9.890625q0 1.125 -0.234375 2.328125q-0.234375 1.203125 -0.78125 2.46875q-0.546875 1.265625 -1.484375 2.5625q-0.9375 1.3125 -2.34375 2.625l-1.0625 -1.078125q2.03125 -2.0 3.03125 -4.1875q1.0 -2.1875 1.0 -4.59375q0 -4.953125 -4.03125 -8.90625l1.09375 -1.109375z" fill-rule="nonzero"/><path fill="#000000" fill-opacity="0.0" d="m718.4048 154.47485l0 0c0 -2.7687378 2.2445068 -5.0132294 5.0131836 -5.0132294l34.382996 0c1.3295898 0 2.6047363 0.528183 3.5449219 1.468338c0.9401245 0.9401703 1.4683228 2.2153015 1.4683228 3.5448914l0 20.052292c0 2.7687225 -2.2445068 5.013214 -5.0132446 5.013214l-34.382996 0c-2.7686768 0 -5.0131836 -2.2444916 -5.0131836 -5.013214z" fill-rule="evenodd"/><path stroke="#cc4125" stroke-width="4.0" stroke-linejoin="round" stroke-linecap="butt" d="m718.4048 154.47485l0 0c0 -2.7687378 2.2445068 -5.0132294 5.0131836 -5.0132294l34.382996 0c1.3295898 0 2.6047363 0.528183 3.5449219 1.468338c0.9401245 0.9401703 1.4683228 2.2153015 1.4683228 3.5448914l0 20.052292c0 2.7687225 -2.2445068 5.013214 -5.0132446 5.013214l-34.382996 0c-2.7686768 0 -5.0131836 -2.2444916 -5.0131836 -5.013214z" fill-rule="evenodd"/><path fill="#000000" fill-opacity="0.0" d="m621.80054 228.45932l193.88977 0l0 45.259827l-193.88977 0z" fill-rule="evenodd"/><path fill="#ffffff" d="m653.10254 257.93933l-1.84375 0l0 -6.2500153l-5.71875 0l0 6.2500153l-1.859375 0l0 -13.60939l1.859375 0l0 5.75l5.71875 0l0 -5.75l1.84375 0l0 13.60939zm9.538818 0l-0.046875 -1.40625q-0.859375 0.84375 -1.734375 1.21875q-0.875 0.375 -1.84375 0.375q-0.90625 0 -1.546875 -0.21875q-0.625 -0.234375 -1.046875 -0.640625q-0.40625 -0.40625 -0.59375 -0.9375q-0.1875 -0.54689026 -0.1875 -1.1875153q0 -1.5625 1.171875 -2.453125q1.171875 -0.890625 3.453125 -0.890625l2.171875 0l0 -0.921875q0 -0.921875 -0.59375 -1.484375q-0.59375 -0.5625 -1.8125 -0.5625q-0.890625 0 -1.75 0.203125q-0.859375 0.203125 -1.765625 0.5625l0 -1.640625q0.34375 -0.125 0.765625 -0.234375q0.421875 -0.125 0.890625 -0.21875q0.46875 -0.09375 0.96875 -0.140625q0.515625 -0.0625 1.03125 -0.0625q0.953125 0 1.703125 0.203125q0.765625 0.203125 1.296875 0.640625q0.53125 0.421875 0.8125 1.078125q0.28125 0.640625 0.28125 1.515625l0 7.2031403l-1.625 0zm-0.203125 -4.7656403l-2.296875 0q-0.6875 0 -1.171875 0.140625q-0.484375 0.140625 -0.796875 0.390625q-0.3125 0.25 -0.46875 0.59375q-0.15625 0.34375 -0.15625 0.78125q0 0.3125 0.09375 0.59375q0.09375 0.265625 0.296875 0.48439026q0.21875 0.203125 0.546875 0.328125q0.34375 0.125 0.8125 0.125q0.625 0 1.4375 -0.375q0.8125 -0.37501526 1.703125 -1.2031403l0 -1.859375zm13.491943 1.90625q0 0.5625 -0.1875 1.0000153q-0.1875 0.4375 -0.515625 0.78125q-0.328125 0.328125 -0.75 0.578125q-0.421875 0.234375 -0.90625 0.390625q-0.484375 0.15625 -1.0 0.21875q-0.515625 0.078125 -1.0 0.078125q-1.0625 0 -1.953125 -0.09375q-0.890625 -0.09375 -1.75 -0.296875l0 -1.671875q0.921875 0.265625 1.828125 0.40625q0.90625 0.125 1.796875 0.125q1.3125 0 1.9375 -0.34375q0.625 -0.35939026 0.625 -1.0156403q0 -0.28125 -0.109375 -0.5q-0.09375 -0.234375 -0.359375 -0.4375q-0.25 -0.203125 -0.796875 -0.421875q-0.546875 -0.21875 -1.5 -0.5q-0.703125 -0.203125 -1.3125 -0.46875q-0.59375 -0.265625 -1.03125 -0.625q-0.4375 -0.375 -0.6875 -0.859375q-0.25 -0.5 -0.25 -1.15625q0 -0.4375 0.203125 -0.953125q0.203125 -0.53125 0.6875 -0.96875q0.5 -0.453125 1.328125 -0.75q0.828125 -0.296875 2.078125 -0.296875q0.625 0 1.375 0.0625q0.75 0.0625 1.5625 0.234375l0 1.609375q-0.859375 -0.203125 -1.625 -0.296875q-0.765625 -0.109375 -1.328125 -0.109375q-0.671875 0 -1.140625 0.109375q-0.46875 0.109375 -0.75 0.296875q-0.28125 0.171875 -0.40625 0.421875q-0.125 0.234375 -0.125 0.515625q0 0.28125 0.109375 0.515625q0.109375 0.234375 0.40625 0.453125q0.296875 0.203125 0.828125 0.421875q0.53125 0.203125 1.375 0.453125q0.9375 0.28125 1.5625 0.578125q0.640625 0.296875 1.03125 0.65625q0.40625 0.359375 0.578125 0.828125q0.171875 0.453125 0.171875 1.03125zm11.851257 2.8593903l-1.8125 0l0 -6.6718903q0 -1.21875 -0.453125 -1.8125q-0.453125 -0.59375 -1.296875 -0.59375q-0.375 0 -0.6875 0.09375q-0.3125 0.09375 -0.65625 0.34375q-0.34375 0.25 -0.75 0.671875q-0.40625 0.40625 -0.9375 1.03125l0 6.9375153l-1.8125 0l0 -14.718765l1.8125 0l0 4.265625l-0.0625 1.640625q0.421875 -0.515625 0.828125 -0.859375q0.421875 -0.34375 0.828125 -0.5625q0.40625 -0.21875 0.828125 -0.3125q0.4375 -0.09375 0.890625 -0.09375q1.5625 0 2.421875 0.953125q0.859375 0.953125 0.859375 2.859375l0 6.8281403zm9.570068 4.375q-4.796875 -4.453125 -4.796875 -9.82814q0 -1.265625 0.25 -2.515625q0.265625 -1.265625 0.828125 -2.515625q0.5625 -1.265625 1.5 -2.515625q0.9375 -1.265625 2.265625 -2.5l1.046875 1.0625q-4.03125 3.984375 -4.03125 8.84375q0 2.421875 1.015625 4.6562653q1.015625 2.21875 3.015625 4.203125l-1.09375 1.109375zm89.685425 -19.875015q4.8125 4.4375 4.8125 9.890625q0 1.125 -0.234375 2.328125q-0.234375 1.203125 -0.78125 2.4687653q-0.546875 1.265625 -1.484375 2.5625q-0.9375 1.3125 -2.34375 2.625l-1.0625 -1.078125q2.03125 -2.0 3.03125 -4.1875q1.0 -2.1875153 1.0 -4.5937653q0 -4.953125 -4.03125 -8.90625l1.09375 -1.109375z" fill-rule="nonzero"/><path fill="#000000" fill-opacity="0.0" d="m722.93494 241.96304l0 0c0 -2.7687378 2.2445068 -5.0132294 5.0132446 -5.0132294l34.382996 0c1.3295898 0 2.6047363 0.528183 3.5448608 1.468338c0.94018555 0.9401703 1.4683838 2.2153015 1.4683838 3.5448914l0 20.052277c0 2.7687378 -2.2445068 5.0132446 -5.0132446 5.0132446l-34.382996 0c-2.7687378 0 -5.0132446 -2.2445068 -5.0132446 -5.0132446z" fill-rule="evenodd"/><path stroke="#24cc85" stroke-width="4.0" stroke-linejoin="round" stroke-linecap="butt" d="m722.93494 241.96304l0 0c0 -2.7687378 2.2445068 -5.0132294 5.0132446 -5.0132294l34.382996 0c1.3295898 0 2.6047363 0.528183 3.5448608 1.468338c0.94018555 0.9401703 1.4683838 2.2153015 1.4683838 3.5448914l0 20.052277c0 2.7687378 -2.2445068 5.0132446 -5.0132446 5.0132446l-34.382996 0c-2.7687378 0 -5.0132446 -2.2445068 -5.0132446 -5.0132446z" fill-rule="evenodd"/><path fill="#000000" fill-opacity="0.0" d="m621.83673 322.57742l193.89886 0l0 45.259857l-193.89886 0z" fill-rule="evenodd"/><path fill="#ffffff" d="m653.1433 352.05743l-1.84375 0l0 -6.25l-5.71875 0l0 6.25l-1.859375 0l0 -13.609375l1.859375 0l0 5.75l5.71875 0l0 -5.75l1.84375 0l0 13.609375zm9.538818 0l-0.046875 -1.40625q-0.859375 0.84375 -1.734375 1.21875q-0.875 0.375 -1.84375 0.375q-0.90625 0 -1.546875 -0.21875q-0.625 -0.234375 -1.046875 -0.640625q-0.40625 -0.40625 -0.59375 -0.9375q-0.1875 -0.546875 -0.1875 -1.1875q0 -1.5625 1.171875 -2.453125q1.171875 -0.890625 3.453125 -0.890625l2.171875 0l0 -0.921875q0 -0.921875 -0.59375 -1.484375q-0.59375 -0.5625 -1.8125 -0.5625q-0.890625 0 -1.75 0.203125q-0.859375 0.203125 -1.765625 0.5625l0 -1.640625q0.34375 -0.125 0.765625 -0.234375q0.421875 -0.125 0.890625 -0.21875q0.46875 -0.09375 0.96875 -0.140625q0.515625 -0.0625 1.03125 -0.0625q0.953125 0 1.703125 0.203125q0.765625 0.203125 1.296875 0.640625q0.53125 0.421875 0.8125 1.078125q0.28125 0.640625 0.28125 1.515625l0 7.203125l-1.625 0zm-0.203125 -4.765625l-2.296875 0q-0.6875 0 -1.171875 0.140625q-0.484375 0.140625 -0.796875 0.390625q-0.3125 0.25 -0.46875 0.59375q-0.15625 0.34375 -0.15625 0.78125q0 0.3125 0.09375 0.59375q0.09375 0.265625 0.296875 0.484375q0.21875 0.203125 0.546875 0.328125q0.34375 0.125 0.8125 0.125q0.625 0 1.4375 -0.375q0.8125 -0.375 1.703125 -1.203125l0 -1.859375zm13.491943 1.90625q0 0.5625 -0.1875 1.0q-0.1875 0.4375 -0.515625 0.78125q-0.328125 0.328125 -0.75 0.578125q-0.421875 0.234375 -0.90625 0.390625q-0.484375 0.15625 -1.0 0.21875q-0.515625 0.078125 -1.0 0.078125q-1.0625 0 -1.953125 -0.09375q-0.890625 -0.09375 -1.75 -0.296875l0 -1.671875q0.921875 0.265625 1.828125 0.40625q0.90625 0.125 1.796875 0.125q1.3125 0 1.9375 -0.34375q0.625 -0.359375 0.625 -1.015625q0 -0.28125 -0.109375 -0.5q-0.09375 -0.234375 -0.359375 -0.4375q-0.25 -0.203125 -0.796875 -0.421875q-0.546875 -0.21875 -1.5 -0.5q-0.703125 -0.203125 -1.3125 -0.46875q-0.59375 -0.265625 -1.03125 -0.625q-0.4375 -0.375 -0.6875 -0.859375q-0.25 -0.5 -0.25 -1.15625q0 -0.4375 0.203125 -0.953125q0.203125 -0.53125 0.6875 -0.96875q0.5 -0.453125 1.328125 -0.75q0.828125 -0.296875 2.078125 -0.296875q0.625 0 1.375 0.0625q0.75 0.0625 1.5625 0.234375l0 1.609375q-0.859375 -0.203125 -1.625 -0.296875q-0.765625 -0.109375 -1.328125 -0.109375q-0.671875 0 -1.140625 0.109375q-0.46875 0.109375 -0.75 0.296875q-0.28125 0.171875 -0.40625 0.421875q-0.125 0.234375 -0.125 0.515625q0 0.28125 0.109375 0.515625q0.109375 0.234375 0.40625 0.453125q0.296875 0.203125 0.828125 0.421875q0.53125 0.203125 1.375 0.453125q0.9375 0.28125 1.5625 0.578125q0.640625 0.296875 1.03125 0.65625q0.40625 0.359375 0.578125 0.828125q0.171875 0.453125 0.171875 1.03125zm11.851318 2.859375l-1.8125 0l0 -6.671875q0 -1.21875 -0.453125 -1.8125q-0.453125 -0.59375 -1.296875 -0.59375q-0.375 0 -0.6875 0.09375q-0.3125 0.09375 -0.65625 0.34375q-0.34375 0.25 -0.75 0.671875q-0.40625 0.40625 -0.9375 1.03125l0 6.9375l-1.8125 0l0 -14.71875l1.8125 0l0 4.265625l-0.0625 1.640625q0.421875 -0.515625 0.828125 -0.859375q0.421875 -0.34375 0.828125 -0.5625q0.40625 -0.21875 0.828125 -0.3125q0.4375 -0.09375 0.890625 -0.09375q1.5625 0 2.421875 0.953125q0.859375 0.953125 0.859375 2.859375l0 6.828125zm9.570007 4.375q-4.796875 -4.453125 -4.796875 -9.828125q0 -1.265625 0.25 -2.515625q0.265625 -1.265625 0.828125 -2.515625q0.5625 -1.265625 1.5 -2.515625q0.9375 -1.265625 2.265625 -2.5l1.046875 1.0625q-4.03125 3.984375 -4.03125 8.84375q0 2.421875 1.015625 4.65625q1.015625 2.21875 3.015625 4.203125l-1.09375 1.109375zm89.685425 -19.875q4.8125 4.4375 4.8125 9.890625q0 1.125 -0.234375 2.328125q-0.234375 1.203125 -0.78125 2.46875q-0.546875 1.265625 -1.484375 2.5625q-0.9375 1.3125 -2.34375 2.625l-1.0625 -1.078125q2.03125 -2.0 3.03125 -4.1875q1.0 -2.1875 1.0 -4.59375q0 -4.953125 -4.03125 -8.90625l1.09375 -1.109375z" fill-rule="nonzero"/><path fill="#000000" fill-opacity="0.0" d="m720.75635 336.08115l0 0c0 -2.7687378 2.2445068 -5.013214 5.0132446 -5.013214l35.448853 0c1.3295898 0 2.6047363 0.5281677 3.5448608 1.4683228c0.94018555 0.94018555 1.4683228 2.2153015 1.4683228 3.5448914l0 20.052307c0 2.7687073 -2.2444458 5.013214 -5.0131836 5.013214l-35.448853 0c-2.7687378 0 -5.0132446 -2.2445068 -5.0132446 -5.013214z" fill-rule="evenodd"/><path stroke="#bb8ba6" stroke-width="4.0" stroke-linejoin="round" stroke-linecap="butt" d="m720.75635 336.08115l0 0c0 -2.7687378 2.2445068 -5.013214 5.0132446 -5.013214l35.448853 0c1.3295898 0 2.6047363 0.5281677 3.5448608 1.4683228c0.94018555 0.94018555 1.4683228 2.2153015 1.4683228 3.5448914l0 20.052307c0 2.7687073 -2.2444458 5.013214 -5.0131836 5.013214l-35.448853 0c-2.7687378 0 -5.0132446 -2.2445068 -5.0132446 -5.013214z" fill-rule="evenodd"/><path fill="#000000" fill-opacity="0.0" d="m815.6903 140.97113l193.88971 0l0 45.259842l-193.88971 0z" fill-rule="evenodd"/><path fill="#ffffff" d="m841.051 164.66988q0 0.390625 -0.015625 0.65625q0 0.25 -0.03125 0.484375l-7.34375 0q0 1.59375 0.890625 2.453125q0.90625 0.859375 2.59375 0.859375q0.453125 0 0.90625 -0.03125q0.46875 -0.03125 0.890625 -0.09375q0.4375 -0.0625 0.828125 -0.140625q0.390625 -0.078125 0.71875 -0.171875l0 1.484375q-0.734375 0.203125 -1.671875 0.328125q-0.9375 0.140625 -1.9375 0.140625q-1.34375 0 -2.3125 -0.359375q-0.96875 -0.375 -1.59375 -1.0625q-0.609375 -0.6875 -0.90625 -1.6875q-0.296875 -1.015625 -0.296875 -2.28125q0 -1.109375 0.3125 -2.09375q0.328125 -0.984375 0.9375 -1.71875q0.609375 -0.75 1.484375 -1.1875q0.890625 -0.4375 2.015625 -0.4375q1.09375 0 1.9375 0.34375q0.84375 0.34375 1.421875 0.96875q0.578125 0.625 0.875 1.53125q0.296875 0.90625 0.296875 2.015625zm-1.890625 -0.265625q0.03125 -0.6875 -0.140625 -1.265625q-0.15625 -0.578125 -0.515625 -1.0q-0.34375 -0.421875 -0.859375 -0.65625q-0.515625 -0.234375 -1.203125 -0.234375q-0.59375 0 -1.09375 0.234375q-0.484375 0.234375 -0.84375 0.65625q-0.34375 0.40625 -0.5625 1.0q-0.21875 0.578125 -0.28125 1.265625l5.5 0zm4.7888184 -4.40625l1.609375 0l0.078125 1.6875q0.453125 -0.546875 0.875 -0.90625q0.4375 -0.359375 0.84375 -0.578125q0.40625 -0.21875 0.828125 -0.296875q0.4375 -0.09375 0.890625 -0.09375q1.625 0 2.453125 0.953125q0.828125 0.953125 0.828125 2.859375l0 6.828125l-1.8125 0l0 -6.671875q0 -1.234375 -0.46875 -1.8125q-0.453125 -0.59375 -1.359375 -0.59375q-0.328125 0 -0.65625 0.09375q-0.3125 0.09375 -0.65625 0.34375q-0.34375 0.25 -0.75 0.671875q-0.390625 0.40625 -0.890625 1.03125l0 6.9375l-1.8125 0l0 -10.453125zm19.851318 10.0625q-0.71875 0.28125 -1.46875 0.40625q-0.734375 0.125 -1.53125 0.125q-2.46875 0 -3.8125 -1.34375q-1.34375 -1.34375 -1.34375 -3.921875q0 -1.234375 0.390625 -2.25q0.390625 -1.015625 1.078125 -1.734375q0.703125 -0.71875 1.671875 -1.109375q0.96875 -0.390625 2.140625 -0.390625q0.8125 0 1.515625 0.125q0.703125 0.109375 1.359375 0.375l0 1.71875q-0.6875 -0.34375 -1.390625 -0.5q-0.703125 -0.171875 -1.453125 -0.171875q-0.6875 0 -1.3125 0.265625q-0.625 0.265625 -1.09375 0.765625q-0.46875 0.5 -0.734375 1.21875q-0.265625 0.71875 -0.265625 1.625q0 1.890625 0.921875 2.84375q0.921875 0.9375 2.546875 0.9375q0.75 0 1.4375 -0.15625q0.6875 -0.171875 1.34375 -0.515625l0 1.6875zm12.695068 -4.921875q0 1.21875 -0.34375 2.234375q-0.34375 1.015625 -0.984375 1.75q-0.640625 0.71875 -1.578125 1.125q-0.921875 0.390625 -2.09375 0.390625q-1.125 0 -2.015625 -0.34375q-0.890625 -0.359375 -1.515625 -1.03125q-0.625 -0.671875 -0.953125 -1.671875q-0.328125 -1.0 -0.328125 -2.3125q0 -1.21875 0.34375 -2.21875q0.34375 -1.0 0.984375 -1.71875q0.65625 -0.734375 1.578125 -1.125q0.9375 -0.40625 2.109375 -0.40625q1.125 0 2.015625 0.34375q0.890625 0.34375 1.5 1.015625q0.625 0.671875 0.953125 1.671875q0.328125 1.0 0.328125 2.296875zm-1.84375 0.078125q0 -0.96875 -0.21875 -1.6875q-0.21875 -0.71875 -0.609375 -1.203125q-0.390625 -0.484375 -0.96875 -0.734375q-0.5625 -0.25 -1.265625 -0.25q-0.8125 0 -1.390625 0.328125q-0.578125 0.3125 -0.953125 0.84375q-0.359375 0.53125 -0.53125 1.234375q-0.171875 0.703125 -0.171875 1.46875q0 0.96875 0.203125 1.703125q0.21875 0.734375 0.609375 1.21875q0.40625 0.484375 0.96875 0.734375q0.5625 0.234375 1.265625 0.234375q0.8125 0 1.390625 -0.3125q0.578125 -0.328125 0.953125 -0.859375q0.375 -0.53125 0.546875 -1.234375q0.171875 -0.703125 0.171875 -1.484375zm3.9450073 0.21875q0 -1.328125 0.359375 -2.359375q0.359375 -1.046875 1.03125 -1.75q0.671875 -0.71875 1.609375 -1.078125q0.953125 -0.375 2.109375 -0.375q0.5 0 0.984375 0.0625q0.484375 0.0625 0.953125 0.1875l0 -4.390625l1.828125 0l0 14.71875l-1.625 0l-0.0625 -1.984375q-0.765625 1.109375 -1.65625 1.640625q-0.875 0.53125 -1.90625 0.53125q-0.90625 0 -1.59375 -0.375q-0.671875 -0.375 -1.125 -1.046875q-0.453125 -0.6875 -0.6875 -1.640625q-0.21875 -0.96875 -0.21875 -2.140625zm1.84375 -0.109375q0 1.890625 0.5625 2.828125q0.5625 0.9375 1.578125 0.9375q0.6875 0 1.453125 -0.609375q0.765625 -0.625 1.609375 -1.828125l0 -4.859375q-0.453125 -0.203125 -1.0 -0.3125q-0.53125 -0.109375 -1.0625 -0.109375q-1.484375 0 -2.3125 0.953125q-0.828125 0.953125 -0.828125 3.0zm19.241943 -0.65625q0 0.390625 -0.015625 0.65625q0 0.25 -0.03125 0.484375l-7.34375 0q0 1.59375 0.890625 2.453125q0.90625 0.859375 2.59375 0.859375q0.453125 0 0.90625 -0.03125q0.46875 -0.03125 0.890625 -0.09375q0.4375 -0.0625 0.828125 -0.140625q0.390625 -0.078125 0.71875 -0.171875l0 1.484375q-0.734375 0.203125 -1.671875 0.328125q-0.9375 0.140625 -1.9375 0.140625q-1.34375 0 -2.3125 -0.359375q-0.96875 -0.375 -1.59375 -1.0625q-0.609375 -0.6875 -0.90625 -1.6875q-0.296875 -1.015625 -0.296875 -2.28125q0 -1.109375 0.3125 -2.09375q0.328125 -0.984375 0.9375 -1.71875q0.609375 -0.75 1.484375 -1.1875q0.890625 -0.4375 2.015625 -0.4375q1.09375 0 1.9375 0.34375q0.84375 0.34375 1.421875 0.96875q0.578125 0.625 0.875 1.53125q0.296875 0.90625 0.296875 2.015625zm-1.890625 -0.265625q0.03125 -0.6875 -0.140625 -1.265625q-0.15625 -0.578125 -0.515625 -1.0q-0.34375 -0.421875 -0.859375 -0.65625q-0.515625 -0.234375 -1.203125 -0.234375q-0.59375 0 -1.09375 0.234375q-0.484375 0.234375 -0.84375 0.65625q-0.34375 0.40625 -0.5625 1.0q-0.21875 0.578125 -0.28125 1.265625l5.5 0zm11.038818 10.421875q-4.796875 -4.453125 -4.796875 -9.828125q0 -1.265625 0.25 -2.515625q0.265625 -1.265625 0.828125 -2.515625q0.5625 -1.265625 1.5 -2.515625q0.9375 -1.265625 2.265625 -2.5l1.046875 1.0625q-4.03125 3.984375 -4.03125 8.84375q0 2.421875 1.015625 4.65625q1.015625 2.21875 3.015625 4.203125l-1.09375 1.109375zm77.95911 -19.875q4.8125 4.4375 4.8125 9.890625q0 1.125 -0.234375 2.328125q-0.234375 1.203125 -0.78125 2.46875q-0.546875 1.265625 -1.484375 2.5625q-0.9375 1.3125 -2.34375 2.625l-1.0625 -1.078125q2.03125 -2.0 3.03125 -4.1875q1.0 -2.1875 1.0 -4.59375q0 -4.953125 -4.03125 -8.90625l1.09375 -1.109375z" fill-rule="nonzero"/><path fill="#000000" fill-opacity="0.0" d="m929.07666 153.57458l0 0c0 -2.7687225 2.2445068 -5.013214 5.0132446 -5.013214l34.382996 0c1.3295898 0 2.6047363 0.5281677 3.5449219 1.468338c0.9401245 0.940155 1.4683228 2.2152863 1.4683228 3.544876l0 20.052292c0 2.7687378 -2.2445068 5.0132294 -5.0132446 5.0132294l-34.382996 0c-2.7687378 0 -5.0132446 -2.2444916 -5.0132446 -5.0132294z" fill-rule="evenodd"/><path stroke="#cc4125" stroke-width="4.0" stroke-linejoin="round" stroke-linecap="butt" d="m929.07666 153.57458l0 0c0 -2.7687225 2.2445068 -5.013214 5.0132446 -5.013214l34.382996 0c1.3295898 0 2.6047363 0.5281677 3.5449219 1.468338c0.9401245 0.940155 1.4683228 2.2152863 1.4683228 3.544876l0 20.052292c0 2.7687378 -2.2445068 5.0132294 -5.0132446 5.0132294l-34.382996 0c-2.7687378 0 -5.0132446 -2.2444916 -5.0132446 -5.0132294z" fill-rule="evenodd"/><path fill="#000000" fill-opacity="0.0" d="m815.6903 228.97113l193.88971 0l0 45.259827l-193.88971 0z" fill-rule="evenodd"/><path fill="#ffffff" d="m841.051 252.66988q0 0.390625 -0.015625 0.65625q0 0.25 -0.03125 0.484375l-7.34375 0q0 1.59375 0.890625 2.4531403q0.90625 0.859375 2.59375 0.859375q0.453125 0 0.90625 -0.03125q0.46875 -0.03125 0.890625 -0.09375q0.4375 -0.0625 0.828125 -0.140625q0.390625 -0.078125 0.71875 -0.171875l0 1.484375q-0.734375 0.203125 -1.671875 0.328125q-0.9375 0.140625 -1.9375 0.140625q-1.34375 0 -2.3125 -0.359375q-0.96875 -0.375 -1.59375 -1.0625q-0.609375 -0.6875 -0.90625 -1.6875153q-0.296875 -1.015625 -0.296875 -2.28125q0 -1.109375 0.3125 -2.09375q0.328125 -0.984375 0.9375 -1.71875q0.609375 -0.75 1.484375 -1.1875q0.890625 -0.4375 2.015625 -0.4375q1.09375 0 1.9375 0.34375q0.84375 0.34375 1.421875 0.96875q0.578125 0.625 0.875 1.53125q0.296875 0.90625 0.296875 2.015625zm-1.890625 -0.265625q0.03125 -0.6875 -0.140625 -1.265625q-0.15625 -0.578125 -0.515625 -1.0q-0.34375 -0.421875 -0.859375 -0.65625q-0.515625 -0.234375 -1.203125 -0.234375q-0.59375 0 -1.09375 0.234375q-0.484375 0.234375 -0.84375 0.65625q-0.34375 0.40625 -0.5625 1.0q-0.21875 0.578125 -0.28125 1.265625l5.5 0zm4.7888184 -4.40625l1.609375 0l0.078125 1.6875q0.453125 -0.546875 0.875 -0.90625q0.4375 -0.359375 0.84375 -0.578125q0.40625 -0.21875 0.828125 -0.296875q0.4375 -0.09375 0.890625 -0.09375q1.625 0 2.453125 0.953125q0.828125 0.953125 0.828125 2.859375l0 6.8281403l-1.8125 0l0 -6.6718903q0 -1.234375 -0.46875 -1.8125q-0.453125 -0.59375 -1.359375 -0.59375q-0.328125 0 -0.65625 0.09375q-0.3125 0.09375 -0.65625 0.34375q-0.34375 0.25 -0.75 0.671875q-0.390625 0.40625 -0.890625 1.03125l0 6.9375153l-1.8125 0l0 -10.45314zm19.851318 10.062515q-0.71875 0.28125 -1.46875 0.40625q-0.734375 0.125 -1.53125 0.125q-2.46875 0 -3.8125 -1.34375q-1.34375 -1.3437653 -1.34375 -3.9218903q0 -1.234375 0.390625 -2.25q0.390625 -1.015625 1.078125 -1.734375q0.703125 -0.71875 1.671875 -1.109375q0.96875 -0.390625 2.140625 -0.390625q0.8125 0 1.515625 0.125q0.703125 0.109375 1.359375 0.375l0 1.71875q-0.6875 -0.34375 -1.390625 -0.5q-0.703125 -0.171875 -1.453125 -0.171875q-0.6875 0 -1.3125 0.265625q-0.625 0.265625 -1.09375 0.765625q-0.46875 0.5 -0.734375 1.21875q-0.265625 0.71875 -0.265625 1.625q0 1.890625 0.921875 2.8437653q0.921875 0.9375 2.546875 0.9375q0.75 0 1.4375 -0.15625q0.6875 -0.171875 1.34375 -0.515625l0 1.6875zm12.695068 -4.9218903q0 1.21875 -0.34375 2.234375q-0.34375 1.0156403 -0.984375 1.7500153q-0.640625 0.71875 -1.578125 1.125q-0.921875 0.390625 -2.09375 0.390625q-1.125 0 -2.015625 -0.34375q-0.890625 -0.359375 -1.515625 -1.03125q-0.625 -0.671875 -0.953125 -1.6718903q-0.328125 -1.0 -0.328125 -2.3125q0 -1.21875 0.34375 -2.21875q0.34375 -1.0 0.984375 -1.71875q0.65625 -0.734375 1.578125 -1.125q0.9375 -0.40625 2.109375 -0.40625q1.125 0 2.015625 0.34375q0.890625 0.34375 1.5 1.015625q0.625 0.671875 0.953125 1.671875q0.328125 1.0 0.328125 2.296875zm-1.84375 0.078125q0 -0.96875 -0.21875 -1.6875q-0.21875 -0.71875 -0.609375 -1.203125q-0.390625 -0.484375 -0.96875 -0.734375q-0.5625 -0.25 -1.265625 -0.25q-0.8125 0 -1.390625 0.328125q-0.578125 0.3125 -0.953125 0.84375q-0.359375 0.53125 -0.53125 1.234375q-0.171875 0.703125 -0.171875 1.46875q0 0.96875 0.203125 1.703125q0.21875 0.734375 0.609375 1.2187653q0.40625 0.484375 0.96875 0.734375q0.5625 0.234375 1.265625 0.234375q0.8125 0 1.390625 -0.3125q0.578125 -0.328125 0.953125 -0.85939026q0.375 -0.53125 0.546875 -1.234375q0.171875 -0.703125 0.171875 -1.484375zm3.9450073 0.21875q0 -1.328125 0.359375 -2.359375q0.359375 -1.046875 1.03125 -1.75q0.671875 -0.71875 1.609375 -1.078125q0.953125 -0.375 2.109375 -0.375q0.5 0 0.984375 0.0625q0.484375 0.0625 0.953125 0.1875l0 -4.390625l1.828125 0l0 14.718765l-1.625 0l-0.0625 -1.984375q-0.765625 1.109375 -1.65625 1.640625q-0.875 0.53125 -1.90625 0.53125q-0.90625 0 -1.59375 -0.375q-0.671875 -0.375 -1.125 -1.046875q-0.453125 -0.6875 -0.6875 -1.6406403q-0.21875 -0.96875 -0.21875 -2.140625zm1.84375 -0.109375q0 1.890625 0.5625 2.8281403q0.5625 0.9375 1.578125 0.9375q0.6875 0 1.453125 -0.609375q0.765625 -0.62501526 1.609375 -1.8281403l0 -4.859375q-0.453125 -0.203125 -1.0 -0.3125q-0.53125 -0.109375 -1.0625 -0.109375q-1.484375 0 -2.3125 0.953125q-0.828125 0.953125 -0.828125 3.0zm19.241943 -0.65625q0 0.390625 -0.015625 0.65625q0 0.25 -0.03125 0.484375l-7.34375 0q0 1.59375 0.890625 2.4531403q0.90625 0.859375 2.59375 0.859375q0.453125 0 0.90625 -0.03125q0.46875 -0.03125 0.890625 -0.09375q0.4375 -0.0625 0.828125 -0.140625q0.390625 -0.078125 0.71875 -0.171875l0 1.484375q-0.734375 0.203125 -1.671875 0.328125q-0.9375 0.140625 -1.9375 0.140625q-1.34375 0 -2.3125 -0.359375q-0.96875 -0.375 -1.59375 -1.0625q-0.609375 -0.6875 -0.90625 -1.6875153q-0.296875 -1.015625 -0.296875 -2.28125q0 -1.109375 0.3125 -2.09375q0.328125 -0.984375 0.9375 -1.71875q0.609375 -0.75 1.484375 -1.1875q0.890625 -0.4375 2.015625 -0.4375q1.09375 0 1.9375 0.34375q0.84375 0.34375 1.421875 0.96875q0.578125 0.625 0.875 1.53125q0.296875 0.90625 0.296875 2.015625zm-1.890625 -0.265625q0.03125 -0.6875 -0.140625 -1.265625q-0.15625 -0.578125 -0.515625 -1.0q-0.34375 -0.421875 -0.859375 -0.65625q-0.515625 -0.234375 -1.203125 -0.234375q-0.59375 0 -1.09375 0.234375q-0.484375 0.234375 -0.84375 0.65625q-0.34375 0.40625 -0.5625 1.0q-0.21875 0.578125 -0.28125 1.265625l5.5 0zm11.038818 10.42189q-4.796875 -4.453125 -4.796875 -9.82814q0 -1.265625 0.25 -2.515625q0.265625 -1.265625 0.828125 -2.515625q0.5625 -1.265625 1.5 -2.515625q0.9375 -1.265625 2.265625 -2.5l1.046875 1.0625q-4.03125 3.984375 -4.03125 8.84375q0 2.421875 1.015625 4.6562653q1.015625 2.21875 3.015625 4.203125l-1.09375 1.109375zm77.95911 -19.875015q4.8125 4.4375 4.8125 9.890625q0 1.125 -0.234375 2.328125q-0.234375 1.2031403 -0.78125 2.4687653q-0.546875 1.265625 -1.484375 2.5625q-0.9375 1.3125 -2.34375 2.625l-1.0625 -1.078125q2.03125 -2.0 3.03125 -4.1875q1.0 -2.1875153 1.0 -4.5937653q0 -4.953125 -4.03125 -8.90625l1.09375 -1.109375z" fill-rule="nonzero"/><path fill="#000000" fill-opacity="0.0" d="m929.07666 241.57458l0 0c0 -2.7687225 2.2445068 -5.013214 5.0132446 -5.013214l34.382996 0c1.3295898 0 2.6047363 0.5281677 3.5449219 1.468338c0.9401245 0.940155 1.4683228 2.2152863 1.4683228 3.544876l0 20.052307c0 2.7687073 -2.2445068 5.013214 -5.0132446 5.013214l-34.382996 0c-2.7687378 0 -5.0132446 -2.2445068 -5.0132446 -5.013214z" fill-rule="evenodd"/><path stroke="#24cc85" stroke-width="4.0" stroke-linejoin="round" stroke-linecap="butt" d="m929.07666 241.57458l0 0c0 -2.7687225 2.2445068 -5.013214 5.0132446 -5.013214l34.382996 0c1.3295898 0 2.6047363 0.5281677 3.5449219 1.468338c0.9401245 0.940155 1.4683228 2.2152863 1.4683228 3.544876l0 20.052307c0 2.7687073 -2.2445068 5.013214 -5.0132446 5.013214l-34.382996 0c-2.7687378 0 -5.0132446 -2.2445068 -5.0132446 -5.013214z" fill-rule="evenodd"/><path fill="#000000" fill-opacity="0.0" d="m815.6903 324.56168l193.88971 0l0 45.259857l-193.88971 0z" fill-rule="evenodd"/><path fill="#ffffff" d="m841.051 348.26044q0 0.390625 -0.015625 0.65625q0 0.25 -0.03125 0.484375l-7.34375 0q0 1.59375 0.890625 2.453125q0.90625 0.859375 2.59375 0.859375q0.453125 0 0.90625 -0.03125q0.46875 -0.03125 0.890625 -0.09375q0.4375 -0.0625 0.828125 -0.140625q0.390625 -0.078125 0.71875 -0.171875l0 1.484375q-0.734375 0.203125 -1.671875 0.328125q-0.9375 0.140625 -1.9375 0.140625q-1.34375 0 -2.3125 -0.359375q-0.96875 -0.375 -1.59375 -1.0625q-0.609375 -0.6875 -0.90625 -1.6875q-0.296875 -1.015625 -0.296875 -2.28125q0 -1.109375 0.3125 -2.09375q0.328125 -0.984375 0.9375 -1.71875q0.609375 -0.75 1.484375 -1.1875q0.890625 -0.4375 2.015625 -0.4375q1.09375 0 1.9375 0.34375q0.84375 0.34375 1.421875 0.96875q0.578125 0.625 0.875 1.53125q0.296875 0.90625 0.296875 2.015625zm-1.890625 -0.265625q0.03125 -0.6875 -0.140625 -1.265625q-0.15625 -0.578125 -0.515625 -1.0q-0.34375 -0.421875 -0.859375 -0.65625q-0.515625 -0.234375 -1.203125 -0.234375q-0.59375 0 -1.09375 0.234375q-0.484375 0.234375 -0.84375 0.65625q-0.34375 0.40625 -0.5625 1.0q-0.21875 0.578125 -0.28125 1.265625l5.5 0zm4.7888184 -4.40625l1.609375 0l0.078125 1.6875q0.453125 -0.546875 0.875 -0.90625q0.4375 -0.359375 0.84375 -0.578125q0.40625 -0.21875 0.828125 -0.296875q0.4375 -0.09375 0.890625 -0.09375q1.625 0 2.453125 0.953125q0.828125 0.953125 0.828125 2.859375l0 6.828125l-1.8125 0l0 -6.671875q0 -1.234375 -0.46875 -1.8125q-0.453125 -0.59375 -1.359375 -0.59375q-0.328125 0 -0.65625 0.09375q-0.3125 0.09375 -0.65625 0.34375q-0.34375 0.25 -0.75 0.671875q-0.390625 0.40625 -0.890625 1.03125l0 6.9375l-1.8125 0l0 -10.453125zm19.851318 10.0625q-0.71875 0.28125 -1.46875 0.40625q-0.734375 0.125 -1.53125 0.125q-2.46875 0 -3.8125 -1.34375q-1.34375 -1.34375 -1.34375 -3.921875q0 -1.234375 0.390625 -2.25q0.390625 -1.015625 1.078125 -1.734375q0.703125 -0.71875 1.671875 -1.109375q0.96875 -0.390625 2.140625 -0.390625q0.8125 0 1.515625 0.125q0.703125 0.109375 1.359375 0.375l0 1.71875q-0.6875 -0.34375 -1.390625 -0.5q-0.703125 -0.171875 -1.453125 -0.171875q-0.6875 0 -1.3125 0.265625q-0.625 0.265625 -1.09375 0.765625q-0.46875 0.5 -0.734375 1.21875q-0.265625 0.71875 -0.265625 1.625q0 1.890625 0.921875 2.84375q0.921875 0.9375 2.546875 0.9375q0.75 0 1.4375 -0.15625q0.6875 -0.171875 1.34375 -0.515625l0 1.6875zm12.695068 -4.921875q0 1.21875 -0.34375 2.234375q-0.34375 1.015625 -0.984375 1.75q-0.640625 0.71875 -1.578125 1.125q-0.921875 0.390625 -2.09375 0.390625q-1.125 0 -2.015625 -0.34375q-0.890625 -0.359375 -1.515625 -1.03125q-0.625 -0.671875 -0.953125 -1.671875q-0.328125 -1.0 -0.328125 -2.3125q0 -1.21875 0.34375 -2.21875q0.34375 -1.0 0.984375 -1.71875q0.65625 -0.734375 1.578125 -1.125q0.9375 -0.40625 2.109375 -0.40625q1.125 0 2.015625 0.34375q0.890625 0.34375 1.5 1.015625q0.625 0.671875 0.953125 1.671875q0.328125 1.0 0.328125 2.296875zm-1.84375 0.078125q0 -0.96875 -0.21875 -1.6875q-0.21875 -0.71875 -0.609375 -1.203125q-0.390625 -0.484375 -0.96875 -0.734375q-0.5625 -0.25 -1.265625 -0.25q-0.8125 0 -1.390625 0.328125q-0.578125 0.3125 -0.953125 0.84375q-0.359375 0.53125 -0.53125 1.234375q-0.171875 0.703125 -0.171875 1.46875q0 0.96875 0.203125 1.703125q0.21875 0.734375 0.609375 1.21875q0.40625 0.484375 0.96875 0.734375q0.5625 0.234375 1.265625 0.234375q0.8125 0 1.390625 -0.3125q0.578125 -0.328125 0.953125 -0.859375q0.375 -0.53125 0.546875 -1.234375q0.171875 -0.703125 0.171875 -1.484375zm3.9450073 0.21875q0 -1.328125 0.359375 -2.359375q0.359375 -1.046875 1.03125 -1.75q0.671875 -0.71875 1.609375 -1.078125q0.953125 -0.375 2.109375 -0.375q0.5 0 0.984375 0.0625q0.484375 0.0625 0.953125 0.1875l0 -4.390625l1.828125 0l0 14.71875l-1.625 0l-0.0625 -1.984375q-0.765625 1.109375 -1.65625 1.640625q-0.875 0.53125 -1.90625 0.53125q-0.90625 0 -1.59375 -0.375q-0.671875 -0.375 -1.125 -1.046875q-0.453125 -0.6875 -0.6875 -1.640625q-0.21875 -0.96875 -0.21875 -2.140625zm1.84375 -0.109375q0 1.890625 0.5625 2.828125q0.5625 0.9375 1.578125 0.9375q0.6875 0 1.453125 -0.609375q0.765625 -0.625 1.609375 -1.828125l0 -4.859375q-0.453125 -0.203125 -1.0 -0.3125q-0.53125 -0.109375 -1.0625 -0.109375q-1.484375 0 -2.3125 0.953125q-0.828125 0.953125 -0.828125 3.0zm19.241943 -0.65625q0 0.390625 -0.015625 0.65625q0 0.25 -0.03125 0.484375l-7.34375 0q0 1.59375 0.890625 2.453125q0.90625 0.859375 2.59375 0.859375q0.453125 0 0.90625 -0.03125q0.46875 -0.03125 0.890625 -0.09375q0.4375 -0.0625 0.828125 -0.140625q0.390625 -0.078125 0.71875 -0.171875l0 1.484375q-0.734375 0.203125 -1.671875 0.328125q-0.9375 0.140625 -1.9375 0.140625q-1.34375 0 -2.3125 -0.359375q-0.96875 -0.375 -1.59375 -1.0625q-0.609375 -0.6875 -0.90625 -1.6875q-0.296875 -1.015625 -0.296875 -2.28125q0 -1.109375 0.3125 -2.09375q0.328125 -0.984375 0.9375 -1.71875q0.609375 -0.75 1.484375 -1.1875q0.890625 -0.4375 2.015625 -0.4375q1.09375 0 1.9375 0.34375q0.84375 0.34375 1.421875 0.96875q0.578125 0.625 0.875 1.53125q0.296875 0.90625 0.296875 2.015625zm-1.890625 -0.265625q0.03125 -0.6875 -0.140625 -1.265625q-0.15625 -0.578125 -0.515625 -1.0q-0.34375 -0.421875 -0.859375 -0.65625q-0.515625 -0.234375 -1.203125 -0.234375q-0.59375 0 -1.09375 0.234375q-0.484375 0.234375 -0.84375 0.65625q-0.34375 0.40625 -0.5625 1.0q-0.21875 0.578125 -0.28125 1.265625l5.5 0zm11.038818 10.421875q-4.796875 -4.453125 -4.796875 -9.828125q0 -1.265625 0.25 -2.515625q0.265625 -1.265625 0.828125 -2.515625q0.5625 -1.265625 1.5 -2.515625q0.9375 -1.265625 2.265625 -2.5l1.046875 1.0625q-4.03125 3.984375 -4.03125 8.84375q0 2.421875 1.015625 4.65625q1.015625 2.21875 3.015625 4.203125l-1.09375 1.109375zm77.95911 -19.875q4.8125 4.4375 4.8125 9.890625q0 1.125 -0.234375 2.328125q-0.234375 1.203125 -0.78125 2.46875q-0.546875 1.265625 -1.484375 2.5625q-0.9375 1.3125 -2.34375 2.625l-1.0625 -1.078125q2.03125 -2.0 3.03125 -4.1875q1.0 -2.1875 1.0 -4.59375q0 -4.953125 -4.03125 -8.90625l1.09375 -1.109375z" fill-rule="nonzero"/><path fill="#000000" fill-opacity="0.0" d="m929.07666 337.5746l0 0c0 -2.7687378 2.2445068 -5.013214 5.0132446 -5.013214l34.382996 0c1.3295898 0 2.6047363 0.5281677 3.5449219 1.4683228c0.9401245 0.94018555 1.4683228 2.2153015 1.4683228 3.5448914l0 20.052307c0 2.7687073 -2.2445068 5.013214 -5.0132446 5.013214l-34.382996 0c-2.7687378 0 -5.0132446 -2.2445068 -5.0132446 -5.013214z" fill-rule="evenodd"/><path stroke="#bb8ba6" stroke-width="4.0" stroke-linejoin="round" stroke-linecap="butt" d="m929.07666 337.5746l0 0c0 -2.7687378 2.2445068 -5.013214 5.0132446 -5.013214l34.382996 0c1.3295898 0 2.6047363 0.5281677 3.5449219 1.4683228c0.9401245 0.94018555 1.4683228 2.2153015 1.4683228 3.5448914l0 20.052307c0 2.7687073 -2.2445068 5.013214 -5.0132446 5.013214l-34.382996 0c-2.7687378 0 -5.0132446 -2.2445068 -5.0132446 -5.013214z" fill-rule="evenodd"/><path fill="#000000" fill-opacity="0.0" d="m621.8407 410.80054l193.88977 0l0 45.259827l-193.88977 0z" fill-rule="evenodd"/><path fill="#ffffff" d="m710.6059 440.28052l0 -2.140625l2.140625 0l0 2.140625l-2.140625 0zm7.125 0l0 -2.140625l2.125 0l0 2.140625l-2.125 0zm7.09375 0l0 -2.140625l2.140625 0l0 2.140625l-2.140625 0z" fill-rule="nonzero"/><path fill="#000000" fill-opacity="0.0" d="m815.6911 412.56168l193.88977 0l0 45.259857l-193.88977 0z" fill-rule="evenodd"/><path fill="#ffffff" d="m904.4563 442.0417l0 -2.140625l2.140625 0l0 2.140625l-2.140625 0zm7.125 0l0 -2.140625l2.125 0l0 2.140625l-2.125 0zm7.09375 0l0 -2.140625l2.140625 0l0 2.140625l-2.140625 0z" fill-rule="nonzero"/><path fill="#000000" fill-opacity="0.0" d="m19.857973 405.85892l143.11812 0l0 48.472443l-143.11812 0z" fill-rule="evenodd"/><path fill="#ffffff" d="m38.42875 422.71143q-0.515625 -0.015625 -1.0 0.09375q-0.484375 0.109375 -0.875 0.34375q-0.375 0.234375 -0.609375 0.59375q-0.234375 0.34375 -0.234375 0.8125q0 0.453125 0.140625 0.734375q0.15625 0.28125 0.34375 0.53125q0.1875 0.234375 0.34375 0.515625q0.15625 0.28125 0.15625 0.734375q0 0.234375 -0.09375 0.484375q-0.078125 0.25 -0.265625 0.453125q-0.1875 0.203125 -0.46875 0.34375q-0.28125 0.140625 -0.65625 0.140625q-0.390625 0 -0.75 -0.15625q-0.34375 -0.171875 -0.625 -0.5q-0.265625 -0.328125 -0.421875 -0.8125q-0.15625 -0.5 -0.15625 -1.171875q0 -0.921875 0.328125 -1.75q0.34375 -0.84375 0.984375 -1.484375q0.65625 -0.640625 1.625 -1.03125q0.96875 -0.390625 2.234375 -0.390625l0 1.515625zm6.140625 0q-0.515625 -0.015625 -1.0 0.09375q-0.484375 0.109375 -0.875 0.34375q-0.375 0.234375 -0.609375 0.59375q-0.21875 0.34375 -0.21875 0.8125q0 0.453125 0.140625 0.734375q0.15625 0.28125 0.34375 0.53125q0.1875 0.234375 0.34375 0.515625q0.15625 0.28125 0.15625 0.734375q0 0.234375 -0.09375 0.484375q-0.09375 0.25 -0.28125 0.453125q-0.171875 0.203125 -0.453125 0.34375q-0.28125 0.140625 -0.671875 0.140625q-0.375 0 -0.734375 -0.15625q-0.34375 -0.171875 -0.625 -0.5q-0.265625 -0.328125 -0.421875 -0.8125q-0.15625 -0.5 -0.15625 -1.171875q0 -0.921875 0.328125 -1.75q0.328125 -0.84375 0.96875 -1.484375q0.65625 -0.640625 1.625 -1.03125q0.96875 -0.390625 2.234375 -0.390625l0 1.515625zm12.6015625 9.09375q0 1.46875 -0.40625 2.625q-0.40625 1.140625 -1.15625 1.953125q-0.734375 0.796875 -1.8125 1.234375q-1.0625 0.421875 -2.390625 0.421875q-1.046875 0 -2.140625 -0.203125q-1.09375 -0.203125 -2.15625 -0.625l0 -15.875l2.046875 0l0 4.5625l-0.09375 2.171875q0.875 -1.171875 1.875 -1.65625q1.0 -0.5 2.15625 -0.5q1.0 0 1.765625 0.421875q0.765625 0.421875 1.28125 1.203125q0.515625 0.765625 0.765625 1.84375q0.265625 1.078125 0.265625 2.421875zm-2.09375 0.09375q0 -0.921875 -0.140625 -1.6875q-0.125 -0.78125 -0.421875 -1.328125q-0.296875 -0.5625 -0.75 -0.875q-0.453125 -0.3125 -1.09375 -0.3125q-0.375 0 -0.78125 0.125q-0.390625 0.125 -0.828125 0.421875q-0.421875 0.28125 -0.90625 0.765625q-0.46875 0.46875 -1.0 1.171875l0 5.703125q0.59375 0.234375 1.203125 0.375q0.625 0.125 1.1875 0.125q0.703125 0 1.34375 -0.21875q0.640625 -0.21875 1.125 -0.734375q0.484375 -0.53125 0.765625 -1.390625q0.296875 -0.859375 0.296875 -2.140625zm14.3671875 5.5625q-0.796875 0.3125 -1.640625 0.453125q-0.828125 0.15625 -1.71875 0.15625q-2.796875 0 -4.296875 -1.515625q-1.5 -1.515625 -1.5 -4.421875q0 -1.390625 0.421875 -2.53125q0.4375 -1.140625 1.21875 -1.9375q0.796875 -0.8125 1.875 -1.25q1.09375 -0.453125 2.40625 -0.453125q0.921875 0 1.71875 0.140625q0.796875 0.125 1.515625 0.421875l0 1.9375q-0.765625 -0.390625 -1.5625 -0.578125q-0.78125 -0.1875 -1.625 -0.1875q-0.78125 0 -1.484375 0.3125q-0.6875 0.296875 -1.21875 0.859375q-0.53125 0.5625 -0.84375 1.375q-0.296875 0.796875 -0.296875 1.8125q0 2.140625 1.03125 3.203125q1.046875 1.0625 2.890625 1.0625q0.828125 0 1.609375 -0.1875q0.78125 -0.1875 1.5 -0.5625l0 1.890625zm9.0078125 -10.484375q0.5 0.015625 0.984375 -0.09375q0.5 -0.125 0.875 -0.359375q0.375 -0.234375 0.609375 -0.578125q0.234375 -0.359375 0.234375 -0.828125q0 -0.453125 -0.15625 -0.71875q-0.15625 -0.28125 -0.34375 -0.53125q-0.1875 -0.25 -0.34375 -0.53125q-0.140625 -0.28125 -0.140625 -0.734375q0 -0.234375 0.078125 -0.46875q0.09375 -0.25 0.265625 -0.453125q0.1875 -0.21875 0.46875 -0.34375q0.28125 -0.140625 0.671875 -0.140625q0.390625 0 0.734375 0.171875q0.359375 0.15625 0.625 0.484375q0.265625 0.3125 0.421875 0.8125q0.171875 0.5 0.171875 1.171875q0 0.90625 -0.34375 1.75q-0.328125 0.84375 -0.984375 1.484375q-0.640625 0.640625 -1.609375 1.03125q-0.953125 0.390625 -2.21875 0.390625l0 -1.515625zm-6.15625 0q0.515625 0.015625 1.0 -0.09375q0.484375 -0.125 0.859375 -0.359375q0.390625 -0.234375 0.625 -0.578125q0.234375 -0.359375 0.234375 -0.828125q0 -0.453125 -0.15625 -0.71875q-0.15625 -0.28125 -0.34375 -0.53125q-0.1875 -0.25 -0.34375 -0.53125q-0.140625 -0.28125 -0.140625 -0.734375q0 -0.234375 0.078125 -0.46875q0.09375 -0.25 0.265625 -0.453125q0.1875 -0.21875 0.46875 -0.34375q0.28125 -0.140625 0.671875 -0.140625q0.390625 0 0.734375 0.171875q0.359375 0.15625 0.625 0.484375q0.265625 0.3125 0.421875 0.8125q0.171875 0.5 0.171875 1.171875q0 0.90625 -0.34375 1.75q-0.328125 0.84375 -0.984375 1.484375q-0.640625 0.640625 -1.609375 1.03125q-0.96875 0.390625 -2.234375 0.390625l0 -1.515625zm37.359367 3.34375l-10.078125 0l0 -1.71875l10.078125 0l0 1.71875zm0 4.078125l-10.078125 0l0 -1.71875l10.078125 0l0 1.71875zm4.0078125 -8.15625l1.265625 -1.3125l7.875 6.578125l-7.875 6.578125l-1.265625 -1.296875l6.390625 -5.25l-6.390625 -5.296875zm35.625 11.65625l-9.625 0l0 -1.90625l3.9375 0l0 -11.171875l-3.671875 1.984375l-0.75 -1.734375l4.875 -2.5625l1.8125 0l0 13.484375l3.421875 0l0 1.90625z" fill-rule="nonzero"/><path fill="#000000" fill-opacity="0.0" d="m233.53514 407.7382l143.11812 0l0 48.472443l-143.11812 0z" fill-rule="evenodd"/><path fill="#ffffff" d="m252.10591 424.5907q-0.515625 -0.015625 -1.0 0.09375q-0.484375 0.109375 -0.875 0.34375q-0.375 0.234375 -0.609375 0.59375q-0.234375 0.34375 -0.234375 0.8125q0 0.453125 0.140625 0.734375q0.15625 0.28125 0.34375 0.53125q0.1875 0.234375 0.34375 0.515625q0.15625 0.28125 0.15625 0.734375q0 0.234375 -0.09375 0.484375q-0.078125 0.25 -0.265625 0.453125q-0.1875 0.203125 -0.46875 0.34375q-0.28125 0.140625 -0.65625 0.140625q-0.390625 0 -0.75 -0.15625q-0.34375 -0.171875 -0.625 -0.5q-0.265625 -0.328125 -0.421875 -0.8125q-0.15625 -0.5 -0.15625 -1.171875q0 -0.921875 0.328125 -1.75q0.34375 -0.84375 0.984375 -1.484375q0.65625 -0.640625 1.625 -1.03125q0.96875 -0.390625 2.234375 -0.390625l0 1.515625zm6.1406403 0q-0.515625 -0.015625 -1.0 0.09375q-0.484375 0.109375 -0.875 0.34375q-0.37501526 0.234375 -0.60939026 0.59375q-0.21875 0.34375 -0.21875 0.8125q0 0.453125 0.140625 0.734375q0.15625 0.28125 0.34376526 0.53125q0.1875 0.234375 0.34375 0.515625q0.15625 0.28125 0.15625 0.734375q0 0.234375 -0.09375 0.484375q-0.09375 0.25 -0.28125 0.453125q-0.17189026 0.203125 -0.45314026 0.34375q-0.28125 0.140625 -0.671875 0.140625q-0.375 0 -0.734375 -0.15625q-0.34375 -0.171875 -0.625 -0.5q-0.265625 -0.328125 -0.421875 -0.8125q-0.15625 -0.5 -0.15625 -1.171875q0 -0.921875 0.328125 -1.75q0.328125 -0.84375 0.96875 -1.484375q0.65625 -0.640625 1.6250153 -1.03125q0.96875 -0.390625 2.234375 -0.390625l0 1.515625zm10.1015625 15.1875l-0.046875 -1.578125q-0.96875 0.9375 -1.953125 1.375q-0.984375 0.421875 -2.078125 0.421875q-1.015625 0 -1.734375 -0.265625q-0.703125 -0.265625 -1.171875 -0.703125q-0.453125 -0.453125 -0.671875 -1.0625q-0.21875 -0.609375 -0.21875 -1.328125q0 -1.765625 1.3125 -2.765625q1.328125 -1.015625 3.90625 -1.015625l2.4375 0l0 -1.03125q0 -1.03125 -0.671875 -1.65625q-0.671875 -0.640625 -2.046875 -0.640625q-0.984375 0 -1.953125 0.234375q-0.96875 0.21875 -2.0 0.625l0 -1.84375q0.390625 -0.140625 0.859375 -0.265625q0.46875 -0.140625 1.0 -0.234375q0.53125 -0.109375 1.09375 -0.171875q0.578125 -0.078125 1.171875 -0.078125q1.0625 0 1.921875 0.234375q0.859375 0.234375 1.4375 0.71875q0.59375 0.484375 0.90625 1.21875q0.328125 0.71875 0.328125 1.703125l0 8.109375l-1.828125 0zm-0.21875 -5.359375l-2.59375 0q-0.765625 0 -1.3125 0.15625q-0.546875 0.15625 -0.90625 0.4375q-0.34375 0.28125 -0.515625 0.671875q-0.171875 0.390625 -0.171875 0.875q0 0.34375 0.09375 0.65625q0.109375 0.3125 0.34375 0.5625q0.234375 0.234375 0.609375 0.375q0.375 0.140625 0.921875 0.140625q0.703125 0 1.609375 -0.421875q0.90625 -0.4375 1.921875 -1.359375l0 -2.09375zm5.2578125 -0.28125q0 -1.5 0.40625 -2.65625q0.40625 -1.171875 1.15625 -1.96875q0.765625 -0.8125 1.828125 -1.21875q1.0625 -0.421875 2.359375 -0.421875q0.5625 0 1.109375 0.078125q0.546875 0.0625 1.078125 0.21875l0 -4.953125l2.046875 0l0 16.5625l-1.828125 0l-0.078125 -2.234375q-0.84375 1.25 -1.84375 1.859375q-1.0 0.59375 -2.15625 0.59375q-1.015625 0 -1.78125 -0.421875q-0.765625 -0.4375 -1.28125 -1.203125q-0.5 -0.765625 -0.765625 -1.84375q-0.25 -1.078125 -0.25 -2.390625zm2.078125 -0.125q0 2.125 0.625 3.1875q0.640625 1.046875 1.78125 1.046875q0.78125 0 1.640625 -0.6875q0.859375 -0.703125 1.8125 -2.0625l0 -5.453125q-0.515625 -0.234375 -1.125 -0.359375q-0.609375 -0.125 -1.203125 -0.125q-1.65625 0 -2.59375 1.078125q-0.9375 1.078125 -0.9375 3.375zm16.664062 -5.15625q0.5 0.015625 0.984375 -0.09375q0.5 -0.125 0.875 -0.359375q0.375 -0.234375 0.609375 -0.578125q0.234375 -0.359375 0.234375 -0.828125q0 -0.453125 -0.15625 -0.71875q-0.15625 -0.28125 -0.34375 -0.53125q-0.1875 -0.25 -0.34375 -0.53125q-0.140625 -0.28125 -0.140625 -0.734375q0 -0.234375 0.078125 -0.46875q0.09375 -0.25 0.265625 -0.453125q0.1875 -0.21875 0.46875 -0.34375q0.28125 -0.140625 0.671875 -0.140625q0.390625 0 0.734375 0.171875q0.359375 0.15625 0.625 0.484375q0.265625 0.3125 0.421875 0.8125q0.171875 0.5 0.171875 1.171875q0 0.90625 -0.34375 1.75q-0.328125 0.84375 -0.984375 1.484375q-0.640625 0.640625 -1.609375 1.03125q-0.953125 0.390625 -2.21875 0.390625l0 -1.515625zm-6.15625 0q0.515625 0.015625 1.0 -0.09375q0.484375 -0.125 0.859375 -0.359375q0.390625 -0.234375 0.625 -0.578125q0.234375 -0.359375 0.234375 -0.828125q0 -0.453125 -0.15625 -0.71875q-0.15625 -0.28125 -0.34375 -0.53125q-0.1875 -0.25 -0.34375 -0.53125q-0.140625 -0.28125 -0.140625 -0.734375q0 -0.234375 0.078125 -0.46875q0.09375 -0.25 0.265625 -0.453125q0.1875 -0.21875 0.46875 -0.34375q0.28125 -0.140625 0.671875 -0.140625q0.390625 0 0.734375 0.171875q0.359375 0.15625 0.625 0.484375q0.265625 0.3125 0.421875 0.8125q0.171875 0.5 0.171875 1.171875q0 0.90625 -0.34375 1.75q-0.328125 0.84375 -0.984375 1.484375q-0.640625 0.640625 -1.609375 1.03125q-0.96875 0.390625 -2.234375 0.390625l0 -1.515625zm37.359344 3.34375l-10.078125 0l0 -1.71875l10.078125 0l0 1.71875zm0 4.078125l-10.078125 0l0 -1.71875l10.078125 0l0 1.71875zm4.0078125 -8.15625l1.265625 -1.3125l7.875 6.578125l-7.875 6.578125l-1.265625 -1.296875l6.390625 -5.25l-6.390625 -5.296875zm35.75 11.65625l-10.09375 0l0 -1.828125l3.96875 -3.9375q0.96875 -0.96875 1.578125 -1.671875q0.609375 -0.703125 0.953125 -1.28125q0.34375 -0.578125 0.453125 -1.09375q0.125 -0.515625 0.125 -1.109375q0 -0.5625 -0.15625 -1.0625q-0.15625 -0.515625 -0.46875 -0.90625q-0.3125 -0.390625 -0.828125 -0.609375q-0.5 -0.21875 -1.203125 -0.21875q-0.96875 0 -1.765625 0.4375q-0.796875 0.421875 -1.46875 1.109375l-1.125 -1.34375q0.875 -0.90625 2.0 -1.453125q1.125 -0.5625 2.625 -0.5625q1.03125 0 1.859375 0.3125q0.84375 0.296875 1.453125 0.875q0.609375 0.578125 0.9375 1.40625q0.34375 0.828125 0.34375 1.875q0 0.875 -0.234375 1.625q-0.234375 0.75 -0.71875 1.5q-0.46875 0.734375 -1.1875 1.53125q-0.71875 0.796875 -1.703125 1.75l-2.78125 2.703125l7.4375 0l0 1.953125z" fill-rule="nonzero"/><path fill="#000000" fill-opacity="0.0" d="m382.48526 409.1949l143.11813 0l0 48.472443l-143.11813 0z" fill-rule="evenodd"/><path fill="#ffffff" d="m401.05603 426.0474q-0.515625 -0.015625 -1.0 0.09375q-0.484375 0.109375 -0.875 0.34375q-0.375 0.234375 -0.609375 0.59375q-0.234375 0.34375 -0.234375 0.8125q0 0.453125 0.140625 0.734375q0.15625 0.28125 0.34375 0.53125q0.1875 0.234375 0.34375 0.515625q0.15625 0.28125 0.15625 0.734375q0 0.234375 -0.09375 0.484375q-0.078125 0.25 -0.265625 0.453125q-0.1875 0.203125 -0.46875 0.34375q-0.28125 0.140625 -0.65625 0.140625q-0.390625 0 -0.75 -0.15625q-0.34375 -0.171875 -0.625 -0.5q-0.265625 -0.328125 -0.421875 -0.8125q-0.15625 -0.5 -0.15625 -1.171875q0 -0.921875 0.328125 -1.75q0.34375 -0.84375 0.984375 -1.484375q0.65625 -0.640625 1.625 -1.03125q0.96875 -0.390625 2.234375 -0.390625l0 1.515625zm6.140625 0q-0.515625 -0.015625 -1.0 0.09375q-0.484375 0.109375 -0.875 0.34375q-0.375 0.234375 -0.609375 0.59375q-0.21875 0.34375 -0.21875 0.8125q0 0.453125 0.140625 0.734375q0.15625 0.28125 0.34375 0.53125q0.1875 0.234375 0.34375 0.515625q0.15625 0.28125 0.15625 0.734375q0 0.234375 -0.09375 0.484375q-0.09375 0.25 -0.28125 0.453125q-0.171875 0.203125 -0.453125 0.34375q-0.28125 0.140625 -0.671875 0.140625q-0.375 0 -0.734375 -0.15625q-0.34375 -0.171875 -0.625 -0.5q-0.265625 -0.328125 -0.421875 -0.8125q-0.15625 -0.5 -0.15625 -1.171875q0 -0.921875 0.328125 -1.75q0.328125 -0.84375 0.96875 -1.484375q0.65625 -0.640625 1.625 -1.03125q0.96875 -0.390625 2.234375 -0.390625l0 1.515625zm10.1015625 15.1875l-0.046875 -1.578125q-0.96875 0.9375 -1.953125 1.375q-0.984375 0.421875 -2.078125 0.421875q-1.015625 0 -1.734375 -0.265625q-0.703125 -0.265625 -1.171875 -0.703125q-0.453125 -0.453125 -0.671875 -1.0625q-0.21875 -0.609375 -0.21875 -1.328125q0 -1.765625 1.3125 -2.765625q1.328125 -1.015625 3.90625 -1.015625l2.4375 0l0 -1.03125q0 -1.03125 -0.671875 -1.65625q-0.671875 -0.640625 -2.046875 -0.640625q-0.984375 0 -1.953125 0.234375q-0.96875 0.21875 -2.0 0.625l0 -1.84375q0.390625 -0.140625 0.859375 -0.265625q0.46875 -0.140625 1.0 -0.234375q0.53125 -0.109375 1.09375 -0.171875q0.578125 -0.078125 1.171875 -0.078125q1.0625 0 1.921875 0.234375q0.859375 0.234375 1.4375 0.71875q0.59375 0.484375 0.90625 1.21875q0.328125 0.71875 0.328125 1.703125l0 8.109375l-1.828125 0zm-0.21875 -5.359375l-2.59375 0q-0.765625 0 -1.3125 0.15625q-0.546875 0.15625 -0.90625 0.4375q-0.34375 0.28125 -0.515625 0.671875q-0.171875 0.390625 -0.171875 0.875q0 0.34375 0.09375 0.65625q0.109375 0.3125 0.34375 0.5625q0.234375 0.234375 0.609375 0.375q0.375 0.140625 0.921875 0.140625q0.703125 0 1.609375 -0.421875q0.90625 -0.4375 1.921875 -1.359375l0 -2.09375zm15.7890625 -1.140625q0 0.421875 -0.015625 0.71875q0 0.296875 -0.03125 0.546875l-8.265625 0q0 1.8125 1.0 2.78125q1.015625 0.96875 2.921875 0.96875q0.515625 0 1.03125 -0.046875q0.515625 -0.046875 0.984375 -0.109375q0.484375 -0.078125 0.921875 -0.15625q0.453125 -0.09375 0.828125 -0.203125l0 1.6875q-0.84375 0.234375 -1.890625 0.375q-1.046875 0.15625 -2.171875 0.15625q-1.515625 0 -2.609375 -0.40625q-1.078125 -0.421875 -1.78125 -1.203125q-0.6875 -0.78125 -1.03125 -1.90625q-0.328125 -1.140625 -0.328125 -2.5625q0 -1.25 0.359375 -2.34375q0.359375 -1.109375 1.03125 -1.953125q0.6875 -0.84375 1.6875 -1.328125q1.0 -0.5 2.265625 -0.5q1.234375 0 2.171875 0.390625q0.953125 0.390625 1.59375 1.109375q0.65625 0.703125 0.984375 1.71875q0.34375 1.0 0.34375 2.265625zm-2.125 -0.296875q0.046875 -0.78125 -0.140625 -1.4375q-0.1875 -0.65625 -0.59375 -1.125q-0.390625 -0.46875 -0.984375 -0.71875q-0.578125 -0.265625 -1.34375 -0.265625q-0.671875 0 -1.21875 0.265625q-0.546875 0.25 -0.953125 0.71875q-0.390625 0.46875 -0.640625 1.125q-0.25 0.65625 -0.3125 1.4375l6.1875 0zm10.3359375 -4.125q0.5 0.015625 0.984375 -0.09375q0.5 -0.125 0.875 -0.359375q0.375 -0.234375 0.609375 -0.578125q0.234375 -0.359375 0.234375 -0.828125q0 -0.453125 -0.15625 -0.71875q-0.15625 -0.28125 -0.34375 -0.53125q-0.1875 -0.25 -0.34375 -0.53125q-0.140625 -0.28125 -0.140625 -0.734375q0 -0.234375 0.078125 -0.46875q0.09375 -0.25 0.265625 -0.453125q0.1875 -0.21875 0.46875 -0.34375q0.28125 -0.140625 0.671875 -0.140625q0.390625 0 0.734375 0.171875q0.359375 0.15625 0.625 0.484375q0.265625 0.3125 0.421875 0.8125q0.171875 0.5 0.171875 1.171875q0 0.90625 -0.34375 1.75q-0.328125 0.84375 -0.984375 1.484375q-0.640625 0.640625 -1.609375 1.03125q-0.953125 0.390625 -2.21875 0.390625l0 -1.515625zm-6.15625 0q0.515625 0.015625 1.0 -0.09375q0.484375 -0.125 0.859375 -0.359375q0.390625 -0.234375 0.625 -0.578125q0.234375 -0.359375 0.234375 -0.828125q0 -0.453125 -0.15625 -0.71875q-0.15625 -0.28125 -0.34375 -0.53125q-0.1875 -0.25 -0.34375 -0.53125q-0.140625 -0.28125 -0.140625 -0.734375q0 -0.234375 0.078125 -0.46875q0.09375 -0.25 0.265625 -0.453125q0.1875 -0.21875 0.46875 -0.34375q0.28125 -0.140625 0.671875 -0.140625q0.390625 0 0.734375 0.171875q0.359375 0.15625 0.625 0.484375q0.265625 0.3125 0.421875 0.8125q0.171875 0.5 0.171875 1.171875q0 0.90625 -0.34375 1.75q-0.328125 0.84375 -0.984375 1.484375q-0.640625 0.640625 -1.609375 1.03125q-0.96875 0.390625 -2.234375 0.390625l0 -1.515625zm37.359375 3.34375l-10.078125 0l0 -1.71875l10.078125 0l0 1.71875zm0 4.078125l-10.078125 0l0 -1.71875l10.078125 0l0 1.71875zm4.0078125 -8.15625l1.265625 -1.3125l7.875 6.578125l-7.875 6.578125l-1.265625 -1.296875l6.390625 -5.25l-6.390625 -5.296875zm35.453125 7.0q0 1.015625 -0.40625 1.90625q-0.40625 0.875 -1.234375 1.546875q-0.8125 0.65625 -2.0625 1.046875q-1.234375 0.375 -2.890625 0.375q-0.90625 0 -1.640625 -0.0625q-0.71875 -0.0625 -1.359375 -0.15625l0 -1.828125q0.734375 0.125 1.53125 0.203125q0.8125 0.0625 1.65625 0.0625q1.15625 0 1.96875 -0.203125q0.8125 -0.203125 1.328125 -0.59375q0.515625 -0.390625 0.75 -0.9375q0.234375 -0.546875 0.234375 -1.234375q0 -0.640625 -0.28125 -1.109375q-0.28125 -0.46875 -0.796875 -0.78125q-0.5 -0.3125 -1.21875 -0.46875q-0.703125 -0.171875 -1.546875 -0.171875l-1.75 0l0 -1.671875l1.765625 0q0.703125 0 1.265625 -0.171875q0.5625 -0.1875 0.96875 -0.53125q0.40625 -0.34375 0.625 -0.828125q0.21875 -0.5 0.21875 -1.140625q0 -1.234375 -0.75 -1.796875q-0.75 -0.5625 -2.203125 -0.5625q-0.78125 0 -1.609375 0.15625q-0.8125 0.15625 -1.75 0.453125l0 -1.78125q0.40625 -0.140625 0.859375 -0.25q0.453125 -0.109375 0.890625 -0.1875q0.453125 -0.078125 0.890625 -0.109375q0.453125 -0.046875 0.875 -0.046875q1.21875 0 2.140625 0.265625q0.921875 0.265625 1.546875 0.765625q0.625 0.484375 0.9375 1.1875q0.3125 0.703125 0.3125 1.578125q0 1.3125 -0.671875 2.203125q-0.671875 0.890625 -1.84375 1.421875q0.59375 0.09375 1.171875 0.375q0.578125 0.28125 1.046875 0.71875q0.46875 0.4375 0.75 1.046875q0.28125 0.59375 0.28125 1.3125z" fill-rule="nonzero"/></g></svg>