<svg version="1.1" viewBox="0.0 0.0 351.71128608923885 225.12073490813648" fill="none" stroke="none" stroke-linecap="square" stroke-miterlimit="10" xmlns:xlink="http://www.w3.org/1999/xlink" xmlns="http://www.w3.org/2000/svg"><clipPath id="p.0"><path d="m0 0l351.71127 0l0 225.12073l-351.71127 0l0 -225.12073z" clip-rule="nonzero"/></clipPath><g clip-path="url(#p.0)"><path fill="#000000" fill-opacity="0.0" d="m0 0l351.71127 0l0 225.12073l-351.71127 0z" fill-rule="evenodd"/><path fill="#000000" fill-opacity="0.0" d="m9.052493 30.760695l0 0c0 -11.486834 9.311919 -20.798752 20.798752 -20.798752l292.0088 0c5.5161743 0 10.8063965 2.1912909 14.70694 6.091814c3.9005127 3.9005222 6.091797 9.190765 6.091797 14.706938l0 163.59935c0 11.486832 -9.31192 20.798752 -20.798737 20.798752l-292.0088 0l0 0c-11.486834 0 -20.798752 -9.31192 -20.798752 -20.798752z" fill-rule="evenodd"/><path stroke="#d4d4d4" stroke-width="1.0" stroke-linejoin="round" stroke-linecap="butt" d="m9.052493 30.760695l0 0c0 -11.486834 9.311919 -20.798752 20.798752 -20.798752l292.0088 0c5.5161743 0 10.8063965 2.1912909 14.70694 6.091814c3.9005127 3.9005222 6.091797 9.190765 6.091797 14.706938l0 163.59935c0 11.486832 -9.31192 20.798752 -20.798737 20.798752l-292.0088 0l0 0c-11.486834 0 -20.798752 -9.31192 -20.798752 -20.798752z" fill-rule="evenodd"/><path fill="#000000" fill-opacity="0.0" d="m43.327827 34.965103l70.89764 0l0 82.92913l-70.89764 0z" fill-rule="evenodd"/><path stroke="#5ee7f9" stroke-width="1.0" stroke-linejoin="round" stroke-linecap="butt" d="m43.327827 34.965103l70.89764 0l0 82.92913l-70.89764 0z" fill-rule="evenodd"/><path fill="#000000" fill-opacity="0.0" d="m140.98279 37.88802l167.40158 0l0 7.7165337l-167.40158 0z" fill-rule="evenodd"/><path stroke="#a081d9" stroke-width="1.0" stroke-linejoin="round" stroke-linecap="butt" d="m140.98279 37.88802l167.40158 0l0 7.7165337l-167.40158 0z" fill-rule="evenodd"/><path fill="#000000" fill-opacity="0.0" d="m140.98279 61.973583l120.31497 0l0 7.7165337l-120.31497 0z" fill-rule="evenodd"/><path stroke="#6c98f5" stroke-width="1.0" stroke-linejoin="round" stroke-linecap="butt" d="m140.98279 61.973583l120.31497 0l0 7.7165337l-120.31497 0z" fill-rule="evenodd"/><path fill="#000000" fill-opacity="0.0" d="m140.98279 86.06277l120.31497 0l0 7.71653l-120.31497 0z" fill-rule="evenodd"/><path stroke="#5ee7f9" stroke-width="1.0" stroke-linejoin="round" stroke-linecap="butt" d="m140.98279 86.06277l120.31497 0l0 7.71653l-120.31497 0z" fill-rule="evenodd"/><path fill="#000000" fill-opacity="0.0" d="m43.327827 134.24234l265.03937 0l0 7.7165375l-265.03937 0z" fill-rule="evenodd"/><path stroke="#d1e3cc" stroke-width="1.0" stroke-linejoin="round" stroke-linecap="butt" d="m43.327827 134.24234l265.03937 0l0 7.7165375l-265.03937 0z" fill-rule="evenodd"/><path fill="#000000" fill-opacity="0.0" d="m43.327827 182.4195l217.95276 0l0 7.7165375l-217.95276 0z" fill-rule="evenodd"/><path stroke="#a081d9" stroke-width="1.0" stroke-linejoin="round" stroke-linecap="butt" d="m43.327827 182.4195l217.95276 0l0 7.7165375l-217.95276 0z" fill-rule="evenodd"/><path fill="#000000" fill-opacity="0.0" d="m43.327827 158.3303l217.95276 0l0 7.7165375l-217.95276 0z" fill-rule="evenodd"/><path stroke="#bb8ba6" stroke-width="1.0" stroke-linejoin="round" stroke-linecap="butt" d="m43.327827 158.3303l217.95276 0l0 7.7165375l-217.95276 0z" fill-rule="evenodd"/></g></svg>