<svg version="1.1" viewBox="0.0 0.0 960.0 540.0" fill="none" stroke="none" stroke-linecap="square" stroke-miterlimit="10" xmlns:xlink="http://www.w3.org/1999/xlink" xmlns="http://www.w3.org/2000/svg"><clipPath id="g2b296103e72_0_148.0"><path d="m0 0l960.0 0l0 540.0l-960.0 0l0 -540.0z" clip-rule="nonzero"/></clipPath><g clip-path="url(#g2b296103e72_0_148.0)"><path fill="#000000" fill-opacity="0.0" d="m0 0l960.0 0l0 540.0l-960.0 0z" fill-rule="evenodd"/><path fill="#000000" fill-opacity="0.0" d="m435.9185 159.53654l0 0c0 -8.227737 6.4019775 -14.897644 14.299194 -14.897644l0 0c3.792389 0 7.429474 1.5695648 10.111084 4.3634186c2.68161 2.7938538 4.188141 6.5831146 4.188141 10.534225l0 0c0 8.227737 -6.4019775 14.897629 -14.299225 14.897629l0 0c-7.897217 0 -14.299194 -6.6698914 -14.299194 -14.897629z" fill-rule="evenodd"/><path stroke="#ff00ff" stroke-width="3.0" stroke-linejoin="round" stroke-linecap="butt" d="m435.9185 159.53654l0 0c0 -8.227737 6.4019775 -14.897644 14.299194 -14.897644l0 0c3.792389 0 7.429474 1.5695648 10.111084 4.3634186c2.68161 2.7938538 4.188141 6.5831146 4.188141 10.534225l0 0c0 8.227737 -6.4019775 14.897629 -14.299225 14.897629l0 0c-7.897217 0 -14.299194 -6.6698914 -14.299194 -14.897629z" fill-rule="evenodd"/><path fill="#000000" fill-opacity="0.0" d="m341.18372 96.20998l269.03937 0l0 48.472443l-269.03937 0z" fill-rule="evenodd"/><path fill="#ffffff" d="m429.99832 128.24997l-6.65625 -17.187492l2.453125 0l4.46875 12.484375q0.546875 1.5 0.90625 2.8125q0.390625 -1.40625 0.921875 -2.8125l4.640625 -12.484375l2.328125 0l-6.734375 17.187492l-2.328125 0zm17.164062 -1.5312424q-1.171875 0.984375 -2.265625 1.4062424q-1.078125 0.40625 -2.3125 0.40625q-2.046875 0 -3.15625 -0.9999924q-1.09375 -1.0 -1.09375 -2.5625q0 -0.921875 0.40625 -1.671875q0.421875 -0.75 1.09375 -1.203125q0.671875 -0.46875 1.515625 -0.703125q0.625 -0.15625 1.875 -0.3125q2.5625 -0.3125 3.765625 -0.734375q0.015625 -0.421875 0.015625 -0.546875q0 -1.28125 -0.609375 -1.8125q-0.796875 -0.71875 -2.390625 -0.71875q-1.5 0 -2.203125 0.53125q-0.703125 0.515625 -1.046875 1.84375l-2.0625 -0.28125q0.28125 -1.328125 0.921875 -2.140625q0.640625 -0.8125 1.859375 -1.25q1.21875 -0.453125 2.828125 -0.453125q1.59375 0 2.59375 0.375q1.0 0.375 1.46875 0.953125q0.46875 0.5625 0.65625 1.4375q0.09375 0.53125 0.09375 1.9375l0 2.8125q0 2.9375 0.140625 3.71875q0.140625 0.78125 0.53125 1.4999924l-2.203125 0q-0.328125 -0.6562424 -0.421875 -1.5312424zm-0.171875 -4.71875q-1.15625 0.46875 -3.453125 0.796875q-1.296875 0.1875 -1.84375 0.421875q-0.53125 0.234375 -0.828125 0.6875q-0.28125 0.453125 -0.28125 1.0q0 0.84375 0.625 1.40625q0.640625 0.5625 1.875 0.5625q1.21875 0 2.171875 -0.53125q0.953125 -0.53125 1.390625 -1.453125q0.34375 -0.71875 0.34375 -2.109375l0 -0.78125zm5.3476562 6.2499924l0 -17.187492l2.109375 0l0 17.187492l-2.109375 0zm5.3945312 -14.749992l0 -2.4375l2.109375 0l0 2.4375l-2.109375 0zm0 14.749992l0 -12.453117l2.109375 0l0 12.453117l-2.109375 0zm13.394531 0l0 -1.5781174q-1.1875 1.8593674 -3.484375 1.8593674q-1.484375 0 -2.734375 -0.8124924q-1.25 -0.828125 -1.9375 -2.296875q-0.671875 -1.46875 -0.671875 -3.390625q0 -1.859375 0.609375 -3.375q0.625 -1.515625 1.859375 -2.328125q1.25 -0.8125 2.78125 -0.8125q1.125 0 2.0 0.484375q0.890625 0.46875 1.4375 1.234375l0 -6.171875l2.09375 0l0 17.187492l-1.953125 0zm-6.671875 -6.2187424q0 2.390625 1.0 3.578125q1.015625 1.1875 2.390625 1.1875q1.390625 0 2.34375 -1.125q0.96875 -1.140625 0.96875 -3.453125q0 -2.5625 -0.984375 -3.75q-0.984375 -1.203125 -2.421875 -1.203125q-1.40625 0 -2.359375 1.15625q-0.9375 1.140625 -0.9375 3.609375zm20.066406 4.6875q-1.171875 0.984375 -2.265625 1.4062424q-1.078125 0.40625 -2.3125 0.40625q-2.046875 0 -3.15625 -0.9999924q-1.09375 -1.0 -1.09375 -2.5625q0 -0.921875 0.40625 -1.671875q0.421875 -0.75 1.09375 -1.203125q0.671875 -0.46875 1.515625 -0.703125q0.625 -0.15625 1.875 -0.3125q2.5625 -0.3125 3.765625 -0.734375q0.015625 -0.421875 0.015625 -0.546875q0 -1.28125 -0.609375 -1.8125q-0.796875 -0.71875 -2.390625 -0.71875q-1.5 0 -2.203125 0.53125q-0.703125 0.515625 -1.046875 1.84375l-2.0625 -0.28125q0.28125 -1.328125 0.921875 -2.140625q0.640625 -0.8125 1.859375 -1.25q1.21875 -0.453125 2.828125 -0.453125q1.59375 0 2.59375 0.375q1.0 0.375 1.46875 0.953125q0.46875 0.5625 0.65625 1.4375q0.09375 0.53125 0.09375 1.9375l0 2.8125q0 2.9375 0.140625 3.71875q0.140625 0.78125 0.53125 1.4999924l-2.203125 0q-0.328125 -0.6562424 -0.421875 -1.5312424zm-0.171875 -4.71875q-1.15625 0.46875 -3.453125 0.796875q-1.296875 0.1875 -1.84375 0.421875q-0.53125 0.234375 -0.828125 0.6875q-0.28125 0.453125 -0.28125 1.0q0 0.84375 0.625 1.40625q0.640625 0.5625 1.875 0.5625q1.21875 0 2.171875 -0.53125q0.953125 -0.53125 1.390625 -1.453125q0.34375 -0.71875 0.34375 -2.109375l0 -0.78125zm10.003906 4.359375l0.3125 1.8593674q-0.890625 0.203125 -1.59375 0.203125q-1.15625 0 -1.796875 -0.359375q-0.625 -0.37499237 -0.890625 -0.9687424q-0.25 -0.59375 -0.25 -2.484375l0 -7.171875l-1.546875 0l0 -1.640625l1.546875 0l0 -3.078125l2.09375 -1.265625l0 4.34375l2.125 0l0 1.640625l-2.125 0l0 7.28125q0 0.90625 0.109375 1.171875q0.125 0.25 0.375 0.40625q0.25 0.140625 0.71875 0.140625q0.34375 0 0.921875 -0.078125zm1.2773438 -4.328125q0 -3.46875 1.921875 -5.125q1.609375 -1.390625 3.921875 -1.390625q2.5625 0 4.1875 1.6875q1.625 1.6875 1.625 4.640625q0 2.40625 -0.71875 3.78125q-0.71875 1.375 -2.09375 2.140625q-1.375 0.7656174 -3.0 0.7656174q-2.625 0 -4.234375 -1.6718674q-1.609375 -1.6875 -1.609375 -4.828125zm2.171875 0q0 2.390625 1.03125 3.578125q1.046875 1.1875 2.640625 1.1875q1.5625 0 2.609375 -1.1875q1.046875 -1.203125 1.046875 -3.65625q0 -2.3125 -1.0625 -3.5q-1.046875 -1.1875 -2.59375 -1.1875q-1.59375 0 -2.640625 1.1875q-1.03125 1.1875 -1.03125 3.578125zm11.941406 6.2187424l0 -12.453117l1.890625 0l0 1.890625q0.7344055 -1.328125 1.3437805 -1.75q0.625 -0.421875 1.359375 -0.421875q1.0625 0 2.171875 0.6875l-0.734375 1.953125q-0.765625 -0.453125 -1.546875 -0.453125q-0.6875 0 -1.25 0.421875q-0.546875 0.40625 -0.78125 1.140625q-0.34378052 1.125 -0.34378052 2.46875l0 6.5156174l-2.109375 0zm7.164093 -3.7187424l2.09375 -0.328125q0.171875 1.25 0.96875 1.921875q0.8125 0.671875 2.25 0.671875q1.453125 0 2.15625 -0.59375q0.703125 -0.59375 0.703125 -1.390625q0 -0.71875 -0.625 -1.125q-0.421875 -0.28125 -2.15625 -0.71875q-2.3125 -0.578125 -3.21875 -1.0q-0.890625 -0.4375 -1.359375 -1.1875q-0.453125 -0.765625 -0.453125 -1.671875q0 -0.828125 0.375 -1.53125q0.390625 -0.71875 1.046875 -1.1875q0.484375 -0.359375 1.328125 -0.609375q0.859375 -0.265625 1.828125 -0.265625q1.46875 0 2.578125 0.421875q1.109375 0.421875 1.625 1.15625q0.53125 0.71875 0.734375 1.921875l-2.0625 0.28125q-0.140625 -0.96875 -0.8125 -1.5q-0.671875 -0.546875 -1.90625 -0.546875q-1.453125 0 -2.078125 0.484375q-0.625 0.484375 -0.625 1.125q0 0.40625 0.265625 0.734375q0.25 0.34375 0.8125 0.5625q0.3125 0.125 1.859375 0.546875q2.234375 0.59375 3.109375 0.984375q0.890625 0.375 1.390625 1.109375q0.515625 0.71875 0.515625 1.796875q0 1.046875 -0.625 1.984375q-0.609375 0.9375 -1.765625 1.4531174q-1.15625 0.5 -2.625 0.5q-2.421875 0 -3.703125 -0.9999924q-1.265625 -1.015625 -1.625 -3.0z" fill-rule="nonzero"/><path fill="#000000" fill-opacity="0.0" d="m380.63724 189.28879l0 0c0 -8.227737 6.401947 -14.897644 14.299194 -14.897644l0 0c3.792389 0 7.4294434 1.5695648 10.111084 4.3634186c2.68161 2.7938538 4.188141 6.5831146 4.188141 10.534225l0 0c0 8.227737 -6.4019775 14.897629 -14.299225 14.897629l0 0c-7.8972473 0 -14.299194 -6.6698914 -14.299194 -14.897629z" fill-rule="evenodd"/><path stroke="#ff00ff" stroke-width="3.0" stroke-linejoin="round" stroke-linecap="butt" d="m380.63724 189.28879l0 0c0 -8.227737 6.401947 -14.897644 14.299194 -14.897644l0 0c3.792389 0 7.4294434 1.5695648 10.111084 4.3634186c2.68161 2.7938538 4.188141 6.5831146 4.188141 10.534225l0 0c0 8.227737 -6.4019775 14.897629 -14.299225 14.897629l0 0c-7.8972473 0 -14.299194 -6.6698914 -14.299194 -14.897629z" fill-rule="evenodd"/><path fill="#000000" fill-opacity="0.0" d="m545.6642 159.53654l0 0c0 -8.227737 6.4019775 -14.897644 14.299194 -14.897644l0 0c3.7923584 0 7.4294434 1.5695648 10.111084 4.3634186c2.6815796 2.7938538 4.1881104 6.5831146 4.1881104 10.534225l0 0c0 8.227737 -6.4019775 14.897629 -14.299194 14.897629l0 0c-7.897217 0 -14.299194 -6.6698914 -14.299194 -14.897629z" fill-rule="evenodd"/><path stroke="#ff00ff" stroke-width="3.0" stroke-linejoin="round" stroke-linecap="butt" d="m545.6642 159.53654l0 0c0 -8.227737 6.4019775 -14.897644 14.299194 -14.897644l0 0c3.7923584 0 7.4294434 1.5695648 10.111084 4.3634186c2.6815796 2.7938538 4.1881104 6.5831146 4.1881104 10.534225l0 0c0 8.227737 -6.4019775 14.897629 -14.299194 14.897629l0 0c-7.897217 0 -14.299194 -6.6698914 -14.299194 -14.897629z" fill-rule="evenodd"/><path fill="#000000" fill-opacity="0.0" d="m541.22424 226.40517l0 0c0 -8.227737 6.4019775 -14.897644 14.299194 -14.897644l0 0c3.7923584 0 7.4294434 1.5695801 10.111084 4.3634186c2.6815796 2.7938538 4.1881104 6.58313 4.1881104 10.534225l0 0c0 8.227737 -6.4019775 14.897644 -14.299194 14.897644l0 0c-7.897217 0 -14.299194 -6.6699066 -14.299194 -14.897644z" fill-rule="evenodd"/><path stroke="#ff00ff" stroke-width="3.0" stroke-linejoin="round" stroke-linecap="butt" d="m541.22424 226.40517l0 0c0 -8.227737 6.4019775 -14.897644 14.299194 -14.897644l0 0c3.7923584 0 7.4294434 1.5695801 10.111084 4.3634186c2.6815796 2.7938538 4.1881104 6.58313 4.1881104 10.534225l0 0c0 8.227737 -6.4019775 14.897644 -14.299194 14.897644l0 0c-7.897217 0 -14.299194 -6.6699066 -14.299194 -14.897644z" fill-rule="evenodd"/><path fill="#000000" fill-opacity="0.0" d="m442.28293 219.04102l0 0c0 -8.227737 6.4019775 -14.897629 14.299194 -14.897629l0 0c3.792389 0 7.429474 1.5695648 10.111084 4.3634186c2.68161 2.7938385 4.188141 6.5831146 4.188141 10.53421l0 0c0 8.227753 -6.4019775 14.897644 -14.299225 14.897644l0 0c-7.897217 0 -14.299194 -6.6698914 -14.299194 -14.897644z" fill-rule="evenodd"/><path stroke="#ff00ff" stroke-width="3.0" stroke-linejoin="round" stroke-linecap="butt" d="m442.28293 219.04102l0 0c0 -8.227737 6.4019775 -14.897629 14.299194 -14.897629l0 0c3.792389 0 7.429474 1.5695648 10.111084 4.3634186c2.68161 2.7938385 4.188141 6.5831146 4.188141 10.53421l0 0c0 8.227753 -6.4019775 14.897644 -14.299225 14.897644l0 0c-7.897217 0 -14.299194 -6.6698914 -14.299194 -14.897644z" fill-rule="evenodd"/><path fill="#000000" fill-opacity="0.0" d="m490.79132 183.61244l0 0c0 -8.227737 6.4019775 -14.897629 14.299225 -14.897629l0 0c3.792389 0 7.429413 1.5695648 10.111053 4.3634186c2.6816406 2.7938385 4.1881714 6.5831146 4.1881714 10.53421l0 0c0 8.227737 -6.4019775 14.897644 -14.299225 14.897644l0 0c-7.8972473 0 -14.299225 -6.6699066 -14.299225 -14.897644z" fill-rule="evenodd"/><path stroke="#ff00ff" stroke-width="3.0" stroke-linejoin="round" stroke-linecap="butt" d="m490.79132 183.61244l0 0c0 -8.227737 6.4019775 -14.897629 14.299225 -14.897629l0 0c3.792389 0 7.429413 1.5695648 10.111053 4.3634186c2.6816406 2.7938385 4.1881714 6.5831146 4.1881714 10.53421l0 0c0 8.227737 -6.4019775 14.897644 -14.299225 14.897644l0 0c-7.8972473 0 -14.299225 -6.6699066 -14.299225 -14.897644z" fill-rule="evenodd"/><path fill="#000000" fill-opacity="0.0" d="m398.03192 248.79326l0 0c0 -8.227737 6.4019775 -14.897629 14.299225 -14.897629l0 0c3.792389 0 7.4294434 1.5695648 10.111053 4.3634186c2.6816406 2.7938385 4.188141 6.5831146 4.188141 10.53421l0 0c0 8.227737 -6.401947 14.897629 -14.299194 14.897629l0 0c-7.8972473 0 -14.299225 -6.6698914 -14.299225 -14.897629z" fill-rule="evenodd"/><path stroke="#ff00ff" stroke-width="3.0" stroke-linejoin="round" stroke-linecap="butt" d="m398.03192 248.79326l0 0c0 -8.227737 6.4019775 -14.897629 14.299225 -14.897629l0 0c3.792389 0 7.4294434 1.5695648 10.111053 4.3634186c2.6816406 2.7938385 4.188141 6.5831146 4.188141 10.53421l0 0c0 8.227737 -6.401947 14.897629 -14.299194 14.897629l0 0c-7.8972473 0 -14.299225 -6.6698914 -14.299225 -14.897629z" fill-rule="evenodd"/><path fill="#000000" fill-opacity="0.0" d="m491.75357 248.79326l0 0c0 -8.227737 6.4019775 -14.897629 14.299225 -14.897629l0 0c3.792389 0 7.4294434 1.5695648 10.111084 4.3634186c2.6815796 2.7938385 4.1881104 6.5831146 4.1881104 10.53421l0 0c0 8.227737 -6.4019775 14.897629 -14.299194 14.897629l0 0c-7.8972473 0 -14.299225 -6.6698914 -14.299225 -14.897629z" fill-rule="evenodd"/><path stroke="#ff00ff" stroke-width="3.0" stroke-linejoin="round" stroke-linecap="butt" d="m491.75357 248.79326l0 0c0 -8.227737 6.4019775 -14.897629 14.299225 -14.897629l0 0c3.792389 0 7.4294434 1.5695648 10.111084 4.3634186c2.6815796 2.7938385 4.1881104 6.5831146 4.1881104 10.53421l0 0c0 8.227737 -6.4019775 14.897629 -14.299194 14.897629l0 0c-7.8972473 0 -14.299225 -6.6698914 -14.299225 -14.897629z" fill-rule="evenodd"/><path fill="#000000" fill-opacity="0.0" d="m136.71707 381.92365l0 0c0 -8.880035 6.712204 -16.078735 14.992126 -16.078735l0 0c3.9761505 0 7.789459 1.6940002 10.601028 4.7093506c2.8115692 3.0153503 4.391098 7.1050415 4.391098 11.369385l0 0c0 8.880066 -6.712204 16.078766 -14.992126 16.078766l0 0c-8.2799225 0 -14.992126 -7.1987 -14.992126 -16.078766z" fill-rule="evenodd"/><path stroke="#6aa84f" stroke-width="3.0" stroke-linejoin="round" stroke-linecap="butt" d="m136.71707 381.92365l0 0c0 -8.880035 6.712204 -16.078735 14.992126 -16.078735l0 0c3.9761505 0 7.789459 1.6940002 10.601028 4.7093506c2.8115692 3.0153503 4.391098 7.1050415 4.391098 11.369385l0 0c0 8.880066 -6.712204 16.078766 -14.992126 16.078766l0 0c-8.2799225 0 -14.992126 -7.1987 -14.992126 -16.078766z" fill-rule="evenodd"/><path fill="#000000" fill-opacity="0.0" d="m37.73491 315.89468l282.07874 0l0 48.472443l-282.07874 0z" fill-rule="evenodd"/><path fill="#ffffff" d="m88.57701 347.9347l0 -17.1875l6.46875 0q1.71875 0 2.625 0.171875q1.265625 0.203125 2.109375 0.796875q0.859375 0.59375 1.375 1.671875q0.53125 1.0625 0.53125 2.328125q0 2.203125 -1.40625 3.71875q-1.390625 1.515625 -5.03125 1.515625l-4.40625 0l0 6.984375l-2.265625 0zm2.265625 -9.015625l4.4375 0q2.203125 0 3.125 -0.8125q0.9375 -0.828125 0.9375 -2.3125q0 -1.078125 -0.546875 -1.84375q-0.546875 -0.765625 -1.4375 -1.015625q-0.578125 -0.15625 -2.125 -0.15625l-4.390625 0l0 6.140625zm21.585938 7.484375q-1.171875 0.984375 -2.265625 1.40625q-1.078125 0.40625 -2.3125 0.40625q-2.046875 0 -3.15625 -1.0q-1.09375 -1.0 -1.09375 -2.5625q0 -0.921875 0.40625 -1.671875q0.421875 -0.75 1.09375 -1.203125q0.671875 -0.46875 1.515625 -0.703125q0.625 -0.15625 1.875 -0.3125q2.5625 -0.3125 3.765625 -0.734375q0.015625 -0.421875 0.015625 -0.546875q0 -1.28125 -0.609375 -1.8125q-0.796875 -0.71875 -2.390625 -0.71875q-1.5 0 -2.203125 0.53125q-0.703125 0.515625 -1.046875 1.84375l-2.0625 -0.28125q0.28125 -1.328125 0.921875 -2.140625q0.640625 -0.8125 1.859375 -1.25q1.21875 -0.453125 2.828125 -0.453125q1.59375 0 2.59375 0.375q1.0 0.375 1.46875 0.953125q0.46875 0.5625 0.65625 1.4375q0.09375 0.53125 0.09375 1.9375l0 2.8125q0 2.9375 0.140625 3.71875q0.140625 0.78125 0.53125 1.5l-2.203125 0q-0.328125 -0.65625 -0.421875 -1.53125zm-0.171875 -4.71875q-1.15625 0.46875 -3.453125 0.796875q-1.296875 0.1875 -1.84375 0.421875q-0.53125 0.234375 -0.828125 0.6875q-0.28125 0.453125 -0.28125 1.0q0 0.84375 0.625 1.40625q0.640625 0.5625 1.875 0.5625q1.21875 0 2.171875 -0.53125q0.953125 -0.53125 1.390625 -1.453125q0.34375 -0.71875 0.34375 -2.109375l0 -0.78125zm5.3789062 6.25l0 -12.453125l1.890625 0l0 1.890625q0.734375 -1.328125 1.34375 -1.75q0.625 -0.421875 1.359375 -0.421875q1.0625 0 2.171875 0.6875l-0.734375 1.953125q-0.765625 -0.453125 -1.546875 -0.453125q-0.6875 0 -1.25 0.421875q-0.546875 0.40625 -0.78125 1.140625q-0.34375 1.125 -0.34375 2.46875l0 6.515625l-2.109375 0zm16.132812 -1.53125q-1.171875 0.984375 -2.265625 1.40625q-1.078125 0.40625 -2.3125 0.40625q-2.046875 0 -3.15625 -1.0q-1.09375 -1.0 -1.09375 -2.5625q0 -0.921875 0.40625 -1.671875q0.421875 -0.75 1.09375 -1.203125q0.671875 -0.46875 1.515625 -0.703125q0.625 -0.15625 1.875 -0.3125q2.5625 -0.3125 3.765625 -0.734375q0.015625 -0.421875 0.015625 -0.546875q0 -1.28125 -0.609375 -1.8125q-0.796875 -0.71875 -2.390625 -0.71875q-1.5 0 -2.203125 0.53125q-0.703125 0.515625 -1.046875 1.84375l-2.0625 -0.28125q0.28125 -1.328125 0.921875 -2.140625q0.640625 -0.8125 1.859375 -1.25q1.21875 -0.453125 2.828125 -0.453125q1.59375 0 2.59375 0.375q1.0 0.375 1.46875 0.953125q0.46875 0.5625 0.65625 1.4375q0.09375 0.53125 0.09375 1.9375l0 2.8125q0 2.9375 0.140625 3.71875q0.140625 0.78125 0.53125 1.5l-2.203125 0q-0.328125 -0.65625 -0.421875 -1.53125zm-0.171875 -4.71875q-1.15625 0.46875 -3.453125 0.796875q-1.296875 0.1875 -1.84375 0.421875q-0.53125 0.234375 -0.828125 0.6875q-0.28125 0.453125 -0.28125 1.0q0 0.84375 0.625 1.40625q0.640625 0.5625 1.875 0.5625q1.21875 0 2.171875 -0.53125q0.953125 -0.53125 1.390625 -1.453125q0.34375 -0.71875 0.34375 -2.109375l0 -0.78125zm13.519531 1.6875l2.078125 0.265625q-0.34375 2.15625 -1.75 3.375q-1.390625 1.203125 -3.4375 1.203125q-2.546875 0 -4.109375 -1.671875q-1.546875 -1.671875 -1.546875 -4.78125q0 -2.015625 0.671875 -3.53125q0.671875 -1.515625 2.03125 -2.265625q1.359375 -0.765625 2.96875 -0.765625q2.03125 0 3.3125 1.03125q1.296875 1.03125 1.65625 2.90625l-2.046875 0.328125q-0.296875 -1.265625 -1.046875 -1.890625q-0.734375 -0.640625 -1.796875 -0.640625q-1.59375 0 -2.59375 1.15625q-0.984375 1.140625 -0.984375 3.609375q0 2.5 0.953125 3.640625q0.96875 1.140625 2.515625 1.140625q1.234375 0 2.0625 -0.765625q0.84375 -0.765625 1.0625 -2.34375zm3.875 4.5625l0 -17.1875l2.109375 0l0 6.171875q1.484375 -1.71875 3.734375 -1.71875q1.375 0 2.390625 0.546875q1.03125 0.546875 1.46875 1.515625q0.4375 0.953125 0.4375 2.78125l0 7.890625l-2.109375 0l0 -7.890625q0 -1.578125 -0.6875 -2.296875q-0.6875 -0.71875 -1.9375 -0.71875q-0.9375 0 -1.765625 0.484375q-0.828125 0.484375 -1.1875 1.3125q-0.34375 0.828125 -0.34375 2.296875l0 6.8125l-2.109375 0zm21.472656 -1.53125q-1.171875 0.984375 -2.265625 1.40625q-1.078125 0.40625 -2.3125 0.40625q-2.046875 0 -3.15625 -1.0q-1.09375 -1.0 -1.09375 -2.5625q0 -0.921875 0.40625 -1.671875q0.421875 -0.75 1.09375 -1.203125q0.671875 -0.46875 1.515625 -0.703125q0.625 -0.15625 1.875 -0.3125q2.5625 -0.3125 3.765625 -0.734375q0.015625 -0.421875 0.015625 -0.546875q0 -1.28125 -0.609375 -1.8125q-0.796875 -0.71875 -2.390625 -0.71875q-1.5 0 -2.203125 0.53125q-0.703125 0.515625 -1.046875 1.84375l-2.0625 -0.28125q0.28125 -1.328125 0.921875 -2.140625q0.640625 -0.8125 1.859375 -1.25q1.21875 -0.453125 2.828125 -0.453125q1.59375 0 2.59375 0.375q1.0 0.375 1.46875 0.953125q0.46875 0.5625 0.65625 1.4375q0.09375 0.53125 0.09375 1.9375l0 2.8125q0 2.9375 0.140625 3.71875q0.140625 0.78125 0.53125 1.5l-2.203125 0q-0.328125 -0.65625 -0.421875 -1.53125zm-0.171875 -4.71875q-1.15625 0.46875 -3.453125 0.796875q-1.296875 0.1875 -1.84375 0.421875q-0.53125 0.234375 -0.828125 0.6875q-0.28125 0.453125 -0.28125 1.0q0 0.84375 0.625 1.40625q0.640625 0.5625 1.875 0.5625q1.21875 0 2.171875 -0.53125q0.953125 -0.53125 1.390625 -1.453125q0.34375 -0.71875 0.34375 -2.109375l0 -0.78125zm5.4101562 -8.5l0 -2.4375l2.109375 0l0 2.4375l-2.109375 0zm0 14.75l0 -12.453125l2.109375 0l0 12.453125l-2.109375 0zm5.3164062 0l0 -12.453125l1.90625 0l0 1.78125q1.375 -2.0625 3.953125 -2.0625q1.125 0 2.0625 0.40625q0.953125 0.40625 1.421875 1.0625q0.46875 0.65625 0.65625 1.5625q0.125 0.578125 0.125 2.046875l0 7.65625l-2.109375 0l0 -7.578125q0 -1.28125 -0.25 -1.921875q-0.25 -0.640625 -0.875 -1.015625q-0.625 -0.390625 -1.46875 -0.390625q-1.34375 0 -2.328125 0.859375q-0.984375 0.859375 -0.984375 3.25l0 6.796875l-2.109375 0zm20.265625 0l0 -17.1875l2.328125 0l9.03125 13.5l0 -13.5l2.171875 0l0 17.1875l-2.328125 0l-9.015625 -13.5l0 13.5l-2.1875 0zm16.300781 -6.21875q0 -3.46875 1.921875 -5.125q1.609375 -1.390625 3.921875 -1.390625q2.5625 0 4.1875 1.6875q1.625 1.6875 1.625 4.640625q0 2.40625 -0.71875 3.78125q-0.71875 1.375 -2.09375 2.140625q-1.375 0.765625 -3.0 0.765625q-2.625 0 -4.234375 -1.671875q-1.609375 -1.6875 -1.609375 -4.828125zm2.171875 0q0 2.390625 1.03125 3.578125q1.046875 1.1875 2.640625 1.1875q1.5625 0 2.609375 -1.1875q1.046875 -1.203125 1.046875 -3.65625q0 -2.3125 -1.0625 -3.5q-1.046875 -1.1875 -2.59375 -1.1875q-1.59375 0 -2.640625 1.1875q-1.03125 1.1875 -1.03125 3.578125zm20.035156 6.21875l0 -1.578125q-1.1875 1.859375 -3.484375 1.859375q-1.484375 0 -2.734375 -0.8125q-1.25 -0.828125 -1.9375 -2.296875q-0.671875 -1.46875 -0.671875 -3.390625q0 -1.859375 0.609375 -3.375q0.625 -1.515625 1.859375 -2.328125q1.25 -0.8125 2.78125 -0.8125q1.125 0 2.0 0.484375q0.890625 0.46875 1.4375 1.234375l0 -6.171875l2.09375 0l0 17.1875l-1.953125 0zm-6.671875 -6.21875q0 2.390625 1.0 3.578125q1.015625 1.1875 2.390625 1.1875q1.390625 0 2.34375 -1.125q0.96875 -1.140625 0.96875 -3.453125q0 -2.5625 -0.984375 -3.75q-0.984375 -1.203125 -2.421875 -1.203125q-1.40625 0 -2.359375 1.15625q-0.9375 1.140625 -0.9375 3.609375zm20.472656 2.203125l2.1718597 0.28125q-0.515625 1.90625 -1.9062347 2.96875q-1.390625 1.046875 -3.5625 1.046875q-2.734375 0 -4.34375 -1.671875q-1.59375 -1.6875 -1.59375 -4.734375q0 -3.140625 1.609375 -4.875q1.625 -1.734375 4.203125 -1.734375q2.5 0 4.0781097 1.703125q1.59375 1.703125 1.59375 4.78125q0 0.1875 -0.015625 0.5625l-9.281235 0q0.109375 2.046875 1.15625 3.140625q1.046875 1.09375 2.609375 1.09375q1.15625 0 1.96875 -0.609375q0.828125 -0.609375 1.3125 -1.953125zm-6.9375 -3.40625l6.953125 0q-0.140625 -1.5625 -0.796875 -2.359375q-1.0 -1.21875 -2.609375 -1.21875q-1.453125 0 -2.453125 0.984375q-0.984375 0.96875 -1.09375 2.59375zm10.910141 3.703125l2.09375 -0.328125q0.171875 1.25 0.96875 1.921875q0.8125 0.671875 2.25 0.671875q1.453125 0 2.15625 -0.59375q0.703125 -0.59375 0.703125 -1.390625q0 -0.71875 -0.625 -1.125q-0.421875 -0.28125 -2.15625 -0.71875q-2.3125 -0.578125 -3.21875 -1.0q-0.890625 -0.4375 -1.359375 -1.1875q-0.453125 -0.765625 -0.453125 -1.671875q0 -0.828125 0.375 -1.53125q0.390625 -0.71875 1.046875 -1.1875q0.484375 -0.359375 1.328125 -0.609375q0.859375 -0.265625 1.828125 -0.265625q1.46875 0 2.578125 0.421875q1.109375 0.421875 1.625 1.15625q0.53125 0.71875 0.734375 1.921875l-2.0625 0.28125q-0.140625 -0.96875 -0.8125 -1.5q-0.671875 -0.546875 -1.90625 -0.546875q-1.453125 0 -2.078125 0.484375q-0.625 0.484375 -0.625 1.125q0 0.40625 0.265625 0.734375q0.25 0.34375 0.8125 0.5625q0.3125 0.125 1.859375 0.546875q2.234375 0.59375 3.109375 0.984375q0.890625 0.375 1.390625 1.109375q0.515625 0.71875 0.515625 1.796875q0 1.046875 -0.625 1.984375q-0.609375 0.9375 -1.765625 1.453125q-1.15625 0.5 -2.625 0.5q-2.421875 0 -3.703125 -1.0q-1.265625 -1.015625 -1.625 -3.0z" fill-rule="nonzero"/><path fill="#000000" fill-opacity="0.0" d="m78.75919 414.0646l0 0c0 -8.880035 6.712204 -16.078735 14.992126 -16.078735l0 0c3.9761581 0 7.789467 1.6940002 10.601036 4.7093506c2.8115692 3.0153503 4.3910904 7.1050415 4.3910904 11.369385l0 0c0 8.880035 -6.712204 16.078735 -14.992126 16.078735l0 0c-8.2799225 0 -14.992126 -7.1987 -14.992126 -16.078735z" fill-rule="evenodd"/><path stroke="#6aa84f" stroke-width="3.0" stroke-linejoin="round" stroke-linecap="butt" d="m78.75919 414.0646l0 0c0 -8.880035 6.712204 -16.078735 14.992126 -16.078735l0 0c3.9761581 0 7.789467 1.6940002 10.601036 4.7093506c2.8115692 3.0153503 4.3910904 7.1050415 4.3910904 11.369385l0 0c0 8.880035 -6.712204 16.078735 -14.992126 16.078735l0 0c-8.2799225 0 -14.992126 -7.1987 -14.992126 -16.078735z" fill-rule="evenodd"/><path fill="#000000" fill-opacity="0.0" d="m251.77644 381.92365l0 0c0 -8.880035 6.712204 -16.078735 14.992111 -16.078735l0 0c3.9761658 0 7.789459 1.6940002 10.601044 4.7093506c2.811554 3.0153503 4.391083 7.1050415 4.391083 11.369385l0 0c0 8.880066 -6.7121887 16.078766 -14.992126 16.078766l0 0c-8.279907 0 -14.992111 -7.1987 -14.992111 -16.078766z" fill-rule="evenodd"/><path stroke="#6aa84f" stroke-width="3.0" stroke-linejoin="round" stroke-linecap="butt" d="m251.77644 381.92365l0 0c0 -8.880035 6.712204 -16.078735 14.992111 -16.078735l0 0c3.9761658 0 7.789459 1.6940002 10.601044 4.7093506c2.811554 3.0153503 4.391083 7.1050415 4.391083 11.369385l0 0c0 8.880066 -6.7121887 16.078766 -14.992126 16.078766l0 0c-8.279907 0 -14.992111 -7.1987 -14.992111 -16.078766z" fill-rule="evenodd"/><path fill="#000000" fill-opacity="0.0" d="m247.1215 454.16092l0 0c0 -8.880035 6.712204 -16.078735 14.992142 -16.078735l0 0c3.9761353 0 7.789459 1.6940002 10.601013 4.7093506c2.8115845 3.0153503 4.3911133 7.1050415 4.3911133 11.369385l0 0c0 8.880066 -6.712219 16.078766 -14.992126 16.078766l0 0c-8.279938 0 -14.992142 -7.1987 -14.992142 -16.078766z" fill-rule="evenodd"/><path stroke="#6aa84f" stroke-width="3.0" stroke-linejoin="round" stroke-linecap="butt" d="m247.1215 454.16092l0 0c0 -8.880035 6.712204 -16.078735 14.992142 -16.078735l0 0c3.9761353 0 7.789459 1.6940002 10.601013 4.7093506c2.8115845 3.0153503 4.3911133 7.1050415 4.3911133 11.369385l0 0c0 8.880066 -6.712219 16.078766 -14.992126 16.078766l0 0c-8.279938 0 -14.992142 -7.1987 -14.992142 -16.078766z" fill-rule="evenodd"/><path fill="#000000" fill-opacity="0.0" d="m143.38966 446.20554l0 0c0 -8.880035 6.712204 -16.078735 14.992126 -16.078735l0 0c3.9761658 0 7.7894745 1.6940002 10.601044 4.7093506c2.8115692 3.0153503 4.391083 7.1050415 4.391083 11.369385l0 0c0 8.880066 -6.712204 16.078766 -14.992126 16.078766l0 0c-8.2799225 0 -14.992126 -7.1987 -14.992126 -16.078766z" fill-rule="evenodd"/><path stroke="#6aa84f" stroke-width="3.0" stroke-linejoin="round" stroke-linecap="butt" d="m143.38966 446.20554l0 0c0 -8.880035 6.712204 -16.078735 14.992126 -16.078735l0 0c3.9761658 0 7.7894745 1.6940002 10.601044 4.7093506c2.8115692 3.0153503 4.391083 7.1050415 4.391083 11.369385l0 0c0 8.880066 -6.712204 16.078766 -14.992126 16.078766l0 0c-8.2799225 0 -14.992126 -7.1987 -14.992126 -16.078766z" fill-rule="evenodd"/><path fill="#000000" fill-opacity="0.0" d="m194.24675 407.93253l0 0c0 -8.880035 6.712204 -16.078735 14.992126 -16.078735l0 0c3.9761658 0 7.7894745 1.6940002 10.601044 4.7093506c2.811554 3.0153503 4.391083 7.1050415 4.391083 11.369385l0 0c0 8.880066 -6.712204 16.078766 -14.992126 16.078766l0 0c-8.2799225 0 -14.992126 -7.1987 -14.992126 -16.078766z" fill-rule="evenodd"/><path stroke="#6aa84f" stroke-width="3.0" stroke-linejoin="round" stroke-linecap="butt" d="m194.24675 407.93253l0 0c0 -8.880035 6.712204 -16.078735 14.992126 -16.078735l0 0c3.9761658 0 7.7894745 1.6940002 10.601044 4.7093506c2.811554 3.0153503 4.391083 7.1050415 4.391083 11.369385l0 0c0 8.880066 -6.712204 16.078766 -14.992126 16.078766l0 0c-8.2799225 0 -14.992126 -7.1987 -14.992126 -16.078766z" fill-rule="evenodd"/><path fill="#000000" fill-opacity="0.0" d="m96.99612 478.3465l0 0c0 -8.880035 6.712204 -16.078735 14.992126 -16.078735l0 0c3.9761581 0 7.789467 1.6940002 10.601036 4.7093506c2.8115692 3.0153503 4.3910904 7.1050415 4.3910904 11.369385l0 0c0 8.880035 -6.712204 16.078735 -14.992126 16.078735l0 0c-8.2799225 0 -14.992126 -7.1987 -14.992126 -16.078735z" fill-rule="evenodd"/><path stroke="#6aa84f" stroke-width="3.0" stroke-linejoin="round" stroke-linecap="butt" d="m96.99612 478.3465l0 0c0 -8.880035 6.712204 -16.078735 14.992126 -16.078735l0 0c3.9761581 0 7.789467 1.6940002 10.601036 4.7093506c2.8115692 3.0153503 4.3910904 7.1050415 4.3910904 11.369385l0 0c0 8.880035 -6.712204 16.078735 -14.992126 16.078735l0 0c-8.2799225 0 -14.992126 -7.1987 -14.992126 -16.078735z" fill-rule="evenodd"/><path fill="#000000" fill-opacity="0.0" d="m195.25558 478.3465l0 0c0 -8.880035 6.712204 -16.078735 14.992126 -16.078735l0 0c3.9761658 0 7.7894745 1.6940002 10.601044 4.7093506c2.8115692 3.0153503 4.391083 7.1050415 4.391083 11.369385l0 0c0 8.880035 -6.712204 16.078735 -14.992126 16.078735l0 0c-8.2799225 0 -14.992126 -7.1987 -14.992126 -16.078735z" fill-rule="evenodd"/><path stroke="#6aa84f" stroke-width="3.0" stroke-linejoin="round" stroke-linecap="butt" d="m195.25558 478.3465l0 0c0 -8.880035 6.712204 -16.078735 14.992126 -16.078735l0 0c3.9761658 0 7.7894745 1.6940002 10.601044 4.7093506c2.8115692 3.0153503 4.391083 7.1050415 4.391083 11.369385l0 0c0 8.880035 -6.712204 16.078735 -14.992126 16.078735l0 0c-8.2799225 0 -14.992126 -7.1987 -14.992126 -16.078735z" fill-rule="evenodd"/><path fill="#000000" fill-opacity="0.0" d="m671.54065 405.16068l0 0c0 -61.238373 51.41327 -110.88187 114.834656 -110.88187l0 0c30.456055 0 59.664673 11.682159 81.20038 32.476532c21.535645 20.794403 33.634277 48.99765 33.634277 78.405334l0 0c0 61.238373 -51.413208 110.88193 -114.834656 110.88193l0 0c-63.421387 0 -114.834656 -49.643555 -114.834656 -110.88193z" fill-rule="evenodd"/><path stroke="#6aa84f" stroke-width="3.0" stroke-linejoin="round" stroke-linecap="butt" d="m671.54065 405.16068l0 0c0 -61.238373 51.41327 -110.88187 114.834656 -110.88187l0 0c30.456055 0 59.664673 11.682159 81.20038 32.476532c21.535645 20.794403 33.634277 48.99765 33.634277 78.405334l0 0c0 61.238373 -51.413208 110.88193 -114.834656 110.88193l0 0c-63.421387 0 -114.834656 -49.643555 -114.834656 -110.88193z" fill-rule="evenodd"/><path fill="#ffffff" d="m725.3293 399.48068l-4.8125 -18.125l2.453125 0l2.765625 11.875q0.4375 1.875 0.765625 3.71875q0.6875 -2.90625 0.8125 -3.359375l3.453125 -12.234375l2.890625 0l2.59375 9.171875q0.984375 3.40625 1.421875 6.421875q0.34375 -1.71875 0.890625 -3.953125l2.84375 -11.640625l2.421875 0l-4.96875 18.125l-2.3125 0l-3.828125 -13.8125q-0.484375 -1.734375 -0.5625 -2.125q-0.296875 1.25 -0.53125 2.125l-3.859375 13.8125l-2.4375 0zm20.468445 -15.578125l0 -2.546875l2.21875 0l0 2.546875l-2.21875 0zm0 15.578125l0 -13.140625l2.21875 0l0 13.140625l-2.21875 0zm10.470825 -1.984375l0.3125 1.953125q-0.9375 0.203125 -1.671875 0.203125q-1.21875 0 -1.890625 -0.375q-0.65625 -0.390625 -0.9375 -1.015625q-0.265625 -0.625 -0.265625 -2.625l0 -7.5625l-1.640625 0l0 -1.734375l1.640625 0l0 -3.25l2.21875 -1.328125l0 4.578125l2.234375 0l0 1.734375l-2.234375 0l0 7.6875q0 0.953125 0.109375 1.234375q0.125 0.265625 0.390625 0.421875q0.265625 0.15625 0.75 0.15625q0.375 0 0.984375 -0.078125zm2.1776123 1.984375l0 -18.125l2.21875 0l0 6.5q1.5625 -1.8125 3.9375 -1.8125q1.453125 0 2.53125 0.578125q1.078125 0.578125 1.546875 1.59375q0.46875 1.015625 0.46875 2.9375l0 8.328125l-2.234375 0l0 -8.328125q0 -1.671875 -0.734375 -2.421875q-0.71875 -0.765625 -2.03125 -0.765625q-1.0 0 -1.875 0.515625q-0.859375 0.515625 -1.234375 1.390625q-0.375 0.875 -0.375 2.421875l0 7.1875l-2.21875 0zm14.086304 0l0 -18.125l2.21875 0l0 6.5q1.5625 -1.8125 3.9375 -1.8125q1.453125 0 2.53125 0.578125q1.078125 0.578125 1.546875 1.59375q0.46875 1.015625 0.46875 2.9375l0 8.328125l-2.234375 0l0 -8.328125q0 -1.671875 -0.734375 -2.421875q-0.71875 -0.765625 -2.03125 -0.765625q-1.0 0 -1.875 0.515625q-0.859375 0.515625 -1.234375 1.390625q-0.375 0.875 -0.375 2.421875l0 7.1875l-2.21875 0zm13.258179 -6.5625q0 -3.65625 2.03125 -5.40625q1.6875 -1.46875 4.125 -1.46875q2.703125 0 4.421875 1.78125q1.71875 1.78125 1.71875 4.90625q0 2.53125 -0.765625 3.984375q-0.75 1.453125 -2.203125 2.265625q-1.453125 0.796875 -3.171875 0.796875q-2.765625 0 -4.46875 -1.765625q-1.6875 -1.765625 -1.6875 -5.09375zm2.28125 0q0 2.515625 1.09375 3.78125q1.109375 1.25 2.78125 1.25q1.65625 0 2.75 -1.265625q1.109375 -1.265625 1.109375 -3.84375q0 -2.4375 -1.109375 -3.6875q-1.109375 -1.265625 -2.75 -1.265625q-1.671875 0 -2.78125 1.25q-1.09375 1.25 -1.09375 3.78125zm12.586304 6.5625l0 -18.125l2.21875 0l0 18.125l-2.21875 0zm14.189575 0l0 -1.65625q-1.25 1.953125 -3.671875 1.953125q-1.5625 0 -2.890625 -0.859375q-1.3125 -0.875 -2.046875 -2.421875q-0.71875 -1.546875 -0.71875 -3.5625q0 -1.96875 0.65625 -3.5625q0.65625 -1.609375 1.96875 -2.46875q1.3125 -0.859375 2.9375 -0.859375q1.1875 0 2.109375 0.515625q0.9375 0.5 1.515625 1.296875l0 -6.5l2.203125 0l0 18.125l-2.0625 0zm-7.03125 -6.546875q0 2.515625 1.0625 3.765625q1.0625 1.25 2.515625 1.25q1.453125 0 2.46875 -1.1875q1.03125 -1.203125 1.03125 -3.65625q0 -2.6875 -1.046875 -3.953125q-1.03125 -1.265625 -2.5625 -1.265625q-1.484375 0 -2.484375 1.21875q-0.984375 1.203125 -0.984375 3.828125zm12.617554 -9.03125l0 -2.546875l2.21875 0l0 2.546875l-2.21875 0zm0 15.578125l0 -13.140625l2.21875 0l0 13.140625l-2.21875 0zm5.611511 0l0 -13.140625l2.0 0l0 1.875q1.453125 -2.171875 4.1875 -2.171875q1.1875 0 2.171875 0.4375q1.0 0.421875 1.484375 1.125q0.5 0.6875 0.703125 1.640625q0.125 0.609375 0.125 2.15625l0 8.078125l-2.234375 0l0 -7.984375q0 -1.359375 -0.265625 -2.03125q-0.25 -0.6875 -0.90625 -1.078125q-0.65625 -0.40625 -1.546875 -0.40625q-1.421875 0 -2.46875 0.90625q-1.03125 0.890625 -1.03125 3.421875l0 7.171875l-2.21875 0zm13.680054 1.09375l2.15625 0.3125q0.140625 1.0 0.765625 1.46875q0.828125 0.609375 2.25 0.609375q1.546875 0 2.390625 -0.625q0.84375 -0.609375 1.140625 -1.71875q0.171875 -0.6875 0.15625 -2.859375q-1.453125 1.71875 -3.625 1.71875q-2.71875 0 -4.203125 -1.953125q-1.484375 -1.953125 -1.484375 -4.6875q0 -1.875 0.671875 -3.46875q0.6875 -1.59375 1.984375 -2.453125q1.296875 -0.875 3.03125 -0.875q2.328125 0 3.84375 1.890625l0 -1.59375l2.046875 0l0 11.359375q0 3.0625 -0.625 4.34375q-0.625 1.28125 -1.984375 2.015625q-1.34375 0.75 -3.328125 0.75q-2.34375 0 -3.796875 -1.0625q-1.4375 -1.046875 -1.390625 -3.171875zm1.84375 -7.890625q0 2.578125 1.015625 3.765625q1.03125 1.1875 2.578125 1.1875q1.53125 0 2.5625 -1.171875q1.046875 -1.1875 1.046875 -3.71875q0 -2.40625 -1.078125 -3.625q-1.0625 -1.234375 -2.5625 -1.234375q-1.484375 0 -2.53125 1.21875q-1.03125 1.203125 -1.03125 3.578125z" fill-rule="nonzero"/><path fill="#ffffff" d="m717.1355 429.48068l0 -18.125l6.796875 0q2.078125 0 3.328125 0.546875q1.265625 0.546875 1.96875 1.703125q0.71875 1.140625 0.71875 2.375q0 1.171875 -0.640625 2.203125q-0.625 1.015625 -1.90625 1.65625q1.65625 0.46875 2.53125 1.640625q0.890625 1.15625 0.890625 2.75q0 1.265625 -0.546875 2.359375q-0.53125 1.09375 -1.328125 1.6875q-0.78125 0.59375 -1.984375 0.90625q-1.1875 0.296875 -2.921875 0.296875l-6.90625 0zm2.390625 -10.515625l3.921875 0q1.59375 0 2.296875 -0.203125q0.90625 -0.28125 1.375 -0.90625q0.46875 -0.625 0.46875 -1.578125q0 -0.90625 -0.4375 -1.59375q-0.4375 -0.6875 -1.25 -0.9375q-0.796875 -0.25 -2.75 -0.25l-3.625 0l0 5.46875zm0 8.375l4.515625 0q1.171875 0 1.640625 -0.078125q0.828125 -0.15625 1.375 -0.5q0.5625 -0.34375 0.921875 -1.0q0.359375 -0.671875 0.359375 -1.53125q0 -1.015625 -0.53125 -1.765625q-0.515625 -0.75 -1.4375 -1.046875q-0.921875 -0.3125 -2.640625 -0.3125l-4.203125 0l0 6.234375zm14.268677 2.140625l0 -18.125l2.21875 0l0 18.125l-2.21875 0zm4.845825 -6.5625q0 -3.65625 2.03125 -5.40625q1.6875 -1.46875 4.125 -1.46875q2.703125 0 4.421875 1.78125q1.71875 1.78125 1.71875 4.90625q0 2.53125 -0.765625 3.984375q-0.75 1.453125 -2.203125 2.265625q-1.453125 0.796875 -3.171875 0.796875q-2.765625 0 -4.46875 -1.765625q-1.6875 -1.765625 -1.6875 -5.09375zm2.28125 0q0 2.515625 1.09375 3.78125q1.109375 1.25 2.78125 1.25q1.65625 0 2.75 -1.265625q1.109375 -1.265625 1.109375 -3.84375q0 -2.4375 -1.109375 -3.6875q-1.109375 -1.265625 -2.75 -1.265625q-1.671875 0 -2.78125 1.25q-1.09375 1.25 -1.09375 3.78125zm21.195679 1.75l2.1875 0.28125q-0.34375 2.265625 -1.828125 3.546875q-1.484375 1.28125 -3.625 1.28125q-2.703125 0 -4.34375 -1.765625q-1.640625 -1.765625 -1.640625 -5.046875q0 -2.125 0.703125 -3.71875q0.71875 -1.59375 2.15625 -2.390625q1.4375 -0.8125 3.125 -0.8125q2.140625 0 3.5 1.09375q1.359375 1.078125 1.75 3.0625l-2.171875 0.34375q-0.296875 -1.328125 -1.09375 -1.984375q-0.78125 -0.671875 -1.890625 -0.671875q-1.6875 0 -2.734375 1.203125q-1.046875 1.203125 -1.046875 3.8125q0 2.640625 1.015625 3.84375q1.015625 1.203125 2.640625 1.203125q1.3125 0 2.1875 -0.796875q0.875 -0.8125 1.109375 -2.484375zm4.1171875 4.8125l0 -18.125l2.21875 0l0 10.328125l5.265625 -5.34375l2.890625 0l-5.03125 4.875l5.53125 8.265625l-2.75 0l-4.328125 -6.71875l-1.578125 1.515625l0 5.203125l-2.21875 0zm16.584534 0l6.953125 -18.125l2.59375 0l7.421875 18.125l-2.734375 0l-2.125 -5.484375l-7.578125 0l-1.984375 5.484375l-2.546875 0zm5.21875 -7.4375l6.15625 0l-1.890625 -5.03125q-0.875 -2.28125 -1.296875 -3.75q-0.34375 1.734375 -0.96875 3.453125l-2.0 5.328125zm21.987366 7.4375l0 -1.921875q-1.53125 2.21875 -4.171875 2.21875q-1.15625 0 -2.171875 -0.4375q-1.0 -0.453125 -1.5 -1.125q-0.484375 -0.671875 -0.6875 -1.65625q-0.125 -0.65625 -0.125 -2.078125l0 -8.140625l2.21875 0l0 7.296875q0 1.734375 0.140625 2.34375q0.203125 0.875 0.875 1.375q0.6875 0.5 1.6875 0.5q1.015625 0 1.890625 -0.5q0.875 -0.515625 1.234375 -1.40625q0.375 -0.890625 0.375 -2.5625l0 -7.046875l2.21875 0l0 13.140625l-1.984375 0zm10.336304 -1.984375l0.3125 1.953125q-0.9375 0.203125 -1.671875 0.203125q-1.21875 0 -1.890625 -0.375q-0.65625 -0.390625 -0.9375 -1.015625q-0.265625 -0.625 -0.265625 -2.625l0 -7.5625l-1.640625 0l0 -1.734375l1.640625 0l0 -3.25l2.21875 -1.328125l0 4.578125l2.234375 0l0 1.734375l-2.234375 0l0 7.6875q0 0.953125 0.109375 1.234375q0.125 0.265625 0.390625 0.421875q0.265625 0.15625 0.75 0.15625q0.375 0 0.984375 -0.078125zm2.1776123 1.984375l0 -18.125l2.21875 0l0 6.5q1.5625 -1.8125 3.9375 -1.8125q1.453125 0 2.53125 0.578125q1.078125 0.578125 1.546875 1.59375q0.46875 1.015625 0.46875 2.9375l0 8.328125l-2.234375 0l0 -8.328125q0 -1.671875 -0.734375 -2.421875q-0.71875 -0.765625 -2.03125 -0.765625q-1.0 0 -1.875 0.515625q-0.859375 0.515625 -1.234375 1.390625q-0.375 0.875 -0.375 2.421875l0 7.1875l-2.21875 0zm13.258179 -6.5625q0 -3.65625 2.03125 -5.40625q1.6875 -1.46875 4.125 -1.46875q2.703125 0 4.421875 1.78125q1.71875 1.78125 1.71875 4.90625q0 2.53125 -0.765625 3.984375q-0.75 1.453125 -2.203125 2.265625q-1.453125 0.796875 -3.171875 0.796875q-2.765625 0 -4.46875 -1.765625q-1.6875 -1.765625 -1.6875 -5.09375zm2.28125 0q0 2.515625 1.09375 3.78125q1.109375 1.25 2.78125 1.25q1.65625 0 2.75 -1.265625q1.109375 -1.265625 1.109375 -3.84375q0 -2.4375 -1.109375 -3.6875q-1.109375 -1.265625 -2.75 -1.265625q-1.671875 0 -2.78125 1.25q-1.09375 1.25 -1.09375 3.78125zm12.601929 6.5625l0 -13.140625l2.0 0l0 2.0q0.78125 -1.40625 1.421875 -1.84375q0.65625 -0.453125 1.4375 -0.453125q1.125 0 2.28125 0.71875l-0.765625 2.078125q-0.8125 -0.484375 -1.640625 -0.484375q-0.71875 0 -1.3125 0.4375q-0.578125 0.4375 -0.828125 1.21875q-0.359375 1.1875 -0.359375 2.59375l0 6.875l-2.234375 0z" fill-rule="nonzero"/><path fill="#ffffff" d="m299.90836 405.15726l12.992126 -12.992126l0 6.496063l338.59842 0l0 12.992126l-338.59842 0l0 6.496063z" fill-rule="evenodd"/><path fill="#ff0000" d="m465.98093 425.57272l52.22049 -48.629913l7.1810913 7.7795105l-52.22049 48.629944z" fill-rule="evenodd"/><path fill="#ff0000" d="m473.473 375.35663l51.937042 52.031494l-7.527588 7.5275574l-51.93701 -52.031494z" fill-rule="evenodd"/><path fill="#eeeeee" d="m596.07385 224.24658l18.332458 -0.0017700195l-4.5826416 4.598419l83.8407 84.09625l-9.165344 9.196869l-83.84076 -84.09627l-4.5826416 4.598419z" fill-rule="evenodd"/><path stroke="#595959" stroke-width="1.0" stroke-linejoin="round" stroke-linecap="butt" d="m596.07385 224.24658l18.332458 -0.0017700195l-4.5826416 4.598419l83.8407 84.09625l-9.165344 9.196869l-83.84076 -84.09627l-4.5826416 4.598419z" fill-rule="evenodd"/><path fill="#ffffff" d="m110.21489 13.44851l8.503937 8.503938l-8.503937 8.503937l0 -4.2519684l-95.37007 0l0 -8.503939l95.37007 0z" fill-rule="evenodd"/><path stroke="#595959" stroke-width="1.0" stroke-linejoin="round" stroke-linecap="butt" d="m110.21489 13.44851l8.503937 8.503938l-8.503937 8.503937l0 -4.2519684l-95.37007 0l0 -8.503939l95.37007 0z" fill-rule="evenodd"/><path fill="#000000" fill-opacity="0.0" d="m107.125984 0l261.03937 0l0 64.62992l-261.03937 0z" fill-rule="evenodd"/><path fill="#ffffff" d="m136.79277 19.060623l-8.828125 0l0 -1.515625l8.828125 0l0 1.515625zm0 4.0625l-8.828125 0l0 -1.53125l8.828125 0l0 1.53125zm7.6876373 3.796875l0 -13.359375l9.65625 0l0 1.578125l-7.875 0l0 4.09375l7.375 0l0 1.5625l-7.375 0l0 4.546875l8.1875 0l0 1.578125l-9.96875 0zm11.115448 0l3.53125 -5.03125l-3.265625 -4.640625l2.046875 0l1.484375 2.265625q0.421875 0.640625 0.671875 1.078125q0.40625 -0.59375 0.734375 -1.0625l1.640625 -2.28125l1.953125 0l-3.34375 4.546875l3.59375 5.125l-2.015625 0l-1.984375 -3.0l-0.515625 -0.8125l-2.546875 3.8125l-1.984375 0zm10.421875 3.703125l0 -13.375l1.484375 0l0 1.25q0.53125 -0.734375 1.1875 -1.09375q0.671875 -0.375 1.625 -0.375q1.234375 0 2.171875 0.640625q0.953125 0.625 1.4375 1.796875q0.484375 1.15625 0.484375 2.546875q0 1.484375 -0.53125 2.671875q-0.53125 1.1875 -1.546875 1.828125q-1.015625 0.625 -2.140625 0.625q-0.8125 0 -1.46875 -0.34375q-0.65625 -0.34375 -1.0625 -0.875l0 4.703125l-1.640625 0zm1.484375 -8.484375q0 1.859375 0.75 2.765625q0.765625 0.890625 1.828125 0.890625q1.09375 0 1.875 -0.921875q0.78125 -0.9375 0.78125 -2.875q0 -1.84375 -0.765625 -2.765625q-0.75 -0.921875 -1.8125 -0.921875q-1.046875 0 -1.859375 0.984375q-0.796875 0.96875 -0.796875 2.84375zm15.516342 1.671875l1.6875 0.203125q-0.40625 1.484375 -1.484375 2.3125q-1.078125 0.8125 -2.765625 0.8125q-2.125 0 -3.375 -1.296875q-1.234375 -1.3125 -1.234375 -3.671875q0 -2.453125 1.25 -3.796875q1.265625 -1.34375 3.265625 -1.34375q1.9375 0 3.15625 1.328125q1.234375 1.3125 1.234375 3.703125q0 0.15625 0 0.4375l-7.21875 0q0.09375 1.59375 0.90625 2.453125q0.8125 0.84375 2.015625 0.84375q0.90625 0 1.546875 -0.46875q0.640625 -0.484375 1.015625 -1.515625zm-5.390625 -2.65625l5.40625 0q-0.109375 -1.21875 -0.625 -1.828125q-0.78125 -0.953125 -2.03125 -0.953125q-1.125 0 -1.90625 0.765625q-0.765625 0.75 -0.84375 2.015625zm15.453842 2.21875l1.609375 0.21875q-0.265625 1.65625 -1.359375 2.609375q-1.078125 0.9375 -2.671875 0.9375q-1.984375 0 -3.1875 -1.296875q-1.203125 -1.296875 -1.203125 -3.71875q0 -1.578125 0.515625 -2.75q0.515625 -1.171875 1.578125 -1.75q1.0625 -0.59375 2.3125 -0.59375q1.578125 0 2.578125 0.796875q1.0 0.796875 1.28125 2.265625l-1.59375 0.234375q-0.234375 -0.96875 -0.8125 -1.453125q-0.578125 -0.5 -1.390625 -0.5q-1.234375 0 -2.015625 0.890625q-0.78125 0.890625 -0.78125 2.8125q0 1.953125 0.75 2.84375q0.75 0.875 1.953125 0.875q0.96875 0 1.609375 -0.59375q0.65625 -0.59375 0.828125 -1.828125zm6.59375 2.078125l0.234375 1.453125q-0.6875 0.140625 -1.234375 0.140625q-0.890625 0 -1.390625 -0.28125q-0.484375 -0.28125 -0.6875 -0.734375q-0.203125 -0.46875 -0.203125 -1.9375l0 -5.578125l-1.203125 0l0 -1.265625l1.203125 0l0 -2.390625l1.625 -0.984375l0 3.375l1.65625 0l0 1.265625l-1.65625 0l0 5.671875q0 0.6875 0.078125 0.890625q0.09375 0.203125 0.28125 0.328125q0.203125 0.109375 0.578125 0.109375q0.265625 0 0.71875 -0.0625zm8.230179 -1.640625l1.6875 0.203125q-0.40625 1.484375 -1.484375 2.3125q-1.078125 0.8125 -2.765625 0.8125q-2.125 0 -3.375 -1.296875q-1.234375 -1.3125 -1.234375 -3.671875q0 -2.453125 1.25 -3.796875q1.265625 -1.34375 3.265625 -1.34375q1.9375 0 3.15625 1.328125q1.234375 1.3125 1.234375 3.703125q0 0.15625 0 0.4375l-7.21875 0q0.09375 1.59375 0.90625 2.453125q0.8125 0.84375 2.015625 0.84375q0.90625 0 1.546875 -0.46875q0.640625 -0.484375 1.015625 -1.515625zm-5.390625 -2.65625l5.40625 0q-0.109375 -1.21875 -0.625 -1.828125q-0.78125 -0.953125 -2.03125 -0.953125q-1.125 0 -1.90625 0.765625q-0.765625 0.75 -0.84375 2.015625zm15.406967 5.765625l0 -1.21875q-0.90625 1.4375 -2.703125 1.4375q-1.15625 0 -2.125 -0.640625q-0.96875 -0.640625 -1.5 -1.78125q-0.53125 -1.140625 -0.53125 -2.625q0 -1.453125 0.484375 -2.625q0.484375 -1.1875 1.4375 -1.8125q0.96875 -0.625 2.171875 -0.625q0.875 0 1.546875 0.375q0.6875 0.359375 1.109375 0.953125l0 -4.796875l1.640625 0l0 13.359375l-1.53125 0zm-5.171875 -4.828125q0 1.859375 0.78125 2.78125q0.78125 0.921875 1.84375 0.921875q1.078125 0 1.828125 -0.875q0.75 -0.890625 0.75 -2.6875q0 -1.984375 -0.765625 -2.90625q-0.765625 -0.9375 -1.890625 -0.9375q-1.078125 0 -1.8125 0.890625q-0.734375 0.890625 -0.734375 2.8125zm14.590271 4.828125l0 -13.359375l5.015625 0q1.53125 0 2.453125 0.40625q0.92189026 0.40625 1.4375153 1.25q0.53125 0.84375 0.53125 1.765625q0 0.859375 -0.46875 1.625q-0.453125 0.75 -1.3906403 1.203125q1.2031403 0.359375 1.8593903 1.21875q0.65625 0.859375 0.65625 2.015625q0 0.9375 -0.40625 1.75q-0.390625 0.796875 -0.984375 1.234375q-0.578125 0.4375 -1.4531403 0.671875q-0.875 0.21875 -2.15625 0.21875l-5.09375 0zm1.78125 -7.75l2.875 0q1.1875 0 1.6875 -0.140625q0.671875 -0.203125 1.015625 -0.671875q0.34375 -0.46875 0.34375 -1.171875q0 -0.65625 -0.328125 -1.15625q-0.3125 -0.515625 -0.90625 -0.703125q-0.59375 -0.1875 -2.03125 -0.1875l-2.65625 0l0 4.03125zm0 6.171875l3.3125 0q0.859375 0 1.203125 -0.0625q0.609375 -0.109375 1.015625 -0.359375q0.421875 -0.265625 0.68751526 -0.75q0.265625 -0.484375 0.265625 -1.125q0 -0.75 -0.390625 -1.296875q-0.37501526 -0.546875 -1.0625153 -0.765625q-0.671875 -0.234375 -1.953125 -0.234375l-3.078125 0l0 4.59375zm10.490463 1.578125l0 -13.359375l1.640625 0l0 13.359375l-1.640625 0zm3.582306 -4.84375q0 -2.6875 1.484375 -3.96875q1.25 -1.078125 3.046875 -1.078125q2.0 0 3.265625 1.3125q1.265625 1.296875 1.265625 3.609375q0 1.859375 -0.5625 2.9375q-0.5625 1.0625 -1.640625 1.65625q-1.0625 0.59375 -2.328125 0.59375q-2.03125 0 -3.28125 -1.296875q-1.25 -1.3125 -1.25 -3.765625zm1.6875 0q0 1.859375 0.796875 2.796875q0.8125 0.921875 2.046875 0.921875q1.21875 0 2.03125 -0.921875q0.8125 -0.9375 0.8125 -2.84375q0 -1.796875 -0.8125 -2.71875q-0.8125 -0.921875 -2.03125 -0.921875q-1.234375 0 -2.046875 0.921875q-0.796875 0.90625 -0.796875 2.765625zm15.610092 1.296875l1.609375 0.21875q-0.265625 1.65625 -1.359375 2.609375q-1.078125 0.9375 -2.671875 0.9375q-1.984375 0 -3.1874847 -1.296875q-1.203125 -1.296875 -1.203125 -3.71875q0 -1.578125 0.515625 -2.75q0.515625 -1.171875 1.578125 -1.75q1.0624847 -0.59375 2.3124847 -0.59375q1.578125 0 2.578125 0.796875q1.0 0.796875 1.28125 2.265625l-1.59375 0.234375q-0.234375 -0.96875 -0.8125 -1.453125q-0.578125 -0.5 -1.390625 -0.5q-1.234375 0 -2.015625 0.890625q-0.78123474 0.890625 -0.78123474 2.8125q0 1.953125 0.74998474 2.84375q0.75 0.875 1.953125 0.875q0.96875 0 1.609375 -0.59375q0.65625 -0.59375 0.828125 -1.828125zm3.015625 3.546875l0 -13.359375l1.640625 0l0 7.625l3.890625 -3.9375l2.109375 0l-3.6875 3.59375l4.0625 6.078125l-2.015625 0l-3.203125 -4.953125l-1.15625 1.125l0 3.828125l-1.640625 0zm20.823914 -1.1875q-0.921875 0.765625 -1.765625 1.09375q-0.828125 0.3125 -1.796875 0.3125q-1.59375 0 -2.453125 -0.78125q-0.859375 -0.78125 -0.859375 -1.984375q0 -0.71875 0.328125 -1.296875q0.328125 -0.59375 0.84375 -0.9375q0.53125 -0.359375 1.1875 -0.546875q0.46875 -0.125 1.453125 -0.25q1.984375 -0.234375 2.921875 -0.5625q0.015625 -0.34375 0.015625 -0.421875q0 -1.0 -0.46875 -1.421875q-0.625 -0.546875 -1.875 -0.546875q-1.15625 0 -1.703125 0.40625q-0.546875 0.40625 -0.8125 1.421875l-1.609375 -0.21875q0.21875 -1.015625 0.71875 -1.640625q0.5 -0.640625 1.453125 -0.984375q0.953125 -0.34375 2.1875 -0.34375q1.25 0 2.015625 0.296875q0.78125 0.28125 1.140625 0.734375q0.375 0.4375 0.515625 1.109375q0.078125 0.421875 0.078125 1.515625l0 2.1875q0 2.28125 0.109375 2.890625q0.109375 0.59375 0.40625 1.15625l-1.703125 0q-0.265625 -0.515625 -0.328125 -1.1875zm-0.140625 -3.671875q-0.890625 0.375 -2.671875 0.625q-1.015625 0.140625 -1.4375 0.328125q-0.421875 0.1875 -0.65625 0.53125q-0.21875 0.34375 -0.21875 0.78125q0 0.65625 0.5 1.09375q0.5 0.4375 1.453125 0.4375q0.9375 0 1.671875 -0.40625q0.75 -0.421875 1.09375 -1.140625q0.265625 -0.5625 0.265625 -1.640625l0 -0.609375zm4.2038574 4.859375l0 -9.671875l1.46875 0l0 1.375q1.0625 -1.59375 3.078125 -1.59375q0.875 0 1.609375 0.3125q0.734375 0.3125 1.09375 0.828125q0.375 0.5 0.515625 1.203125q0.09375 0.453125 0.09375 1.59375l0 5.953125l-1.640625 0l0 -5.890625q0 -1.0 -0.203125 -1.484375q-0.1875 -0.5 -0.671875 -0.796875q-0.484375 -0.296875 -1.140625 -0.296875q-1.046875 0 -1.8125 0.671875q-0.75 0.65625 -0.75 2.515625l0 5.28125l-1.640625 0zm16.641327 0l0 -1.21875q-0.90625 1.4375 -2.703125 1.4375q-1.15625 0 -2.125 -0.640625q-0.96875 -0.640625 -1.5 -1.78125q-0.53125 -1.140625 -0.53125 -2.625q0 -1.453125 0.484375 -2.625q0.484375 -1.1875 1.4375 -1.8125q0.96875 -0.625 2.171875 -0.625q0.875 0 1.546875 0.375q0.6875 0.359375 1.109375 0.953125l0 -4.796875l1.640625 0l0 13.359375l-1.53125 0zm-5.171875 -4.828125q0 1.859375 0.78125 2.78125q0.78125 0.921875 1.84375 0.921875q1.078125 0 1.828125 -0.875q0.75 -0.890625 0.75 -2.6875q0 -1.984375 -0.765625 -2.90625q-0.765625 -0.9375 -1.890625 -0.9375q-1.078125 0 -1.8125 0.890625q-0.734375 0.890625 -0.734375 2.8125zm14.668396 4.828125l0 -13.359375l5.046875 0q1.328125 0 2.03125 0.125q0.96875 0.171875 1.640625 0.640625q0.671875 0.453125 1.078125 1.28125q0.40625 0.828125 0.40625 1.828125q0 1.703125 -1.09375 2.890625q-1.078125 1.171875 -3.921875 1.171875l-3.421875 0l0 5.421875l-1.765625 0zm1.765625 -7.0l3.453125 0q1.71875 0 2.4375 -0.640625q0.71875 -0.640625 0.71875 -1.796875q0 -0.84375 -0.421875 -1.4375q-0.421875 -0.59375 -1.125 -0.78125q-0.4375 -0.125 -1.640625 -0.125l-3.421875 0l0 4.78125zm9.865448 2.15625q0 -2.6875 1.484375 -3.96875q1.25 -1.078125 3.046875 -1.078125q2.0 0 3.265625 1.3125q1.265625 1.296875 1.265625 3.609375q0 1.859375 -0.5625 2.9375q-0.5625 1.0625 -1.640625 1.65625q-1.0625 0.59375 -2.328125 0.59375q-2.03125 0 -3.28125 -1.296875q-1.25 -1.3125 -1.25 -3.765625zm1.6875 0q0 1.859375 0.796875 2.796875q0.8125 0.921875 2.046875 0.921875q1.21875 0 2.03125 -0.921875q0.8125 -0.9375 0.8125 -2.84375q0 -1.796875 -0.8125 -2.71875q-0.8125 -0.921875 -2.03125 -0.921875q-1.234375 0 -2.046875 0.921875q-0.796875 0.90625 -0.796875 2.765625zm13.313232 4.84375l-5.171875 -13.359375l1.921875 0l3.46875 9.703125q0.421875 1.171875 0.703125 2.1875q0.3125 -1.09375 0.71875 -2.1875l3.609375 -9.703125l1.796875 0l-5.234375 13.359375l-1.8125 0z" fill-rule="nonzero"/><path fill="#ffffff" d="m192.42433 49.319996l0 -13.359375l4.609375 0q1.546875 0 2.375 0.203125q1.140625 0.25 1.953125 0.953125q1.0625 0.890625 1.578125 2.28125q0.53125 1.390625 0.53125 3.171875q0 1.515625 -0.359375 2.703125q-0.359375 1.171875 -0.921875 1.9375q-0.546875 0.765625 -1.203125 1.21875q-0.65625 0.4375 -1.59375 0.671875q-0.9375 0.21875 -2.140625 0.21875l-4.828125 0zm1.765625 -1.578125l2.859375 0q1.3125 0 2.0625 -0.234375q0.75 -0.25 1.203125 -0.703125q0.625 -0.625 0.96875 -1.6875q0.359375 -1.0625 0.359375 -2.578125q0 -2.09375 -0.6875 -3.21875q-0.6875 -1.125 -1.671875 -1.5q-0.703125 -0.28125 -2.28125 -0.28125l-2.8125 0l0 10.203125zm11.504196 -9.890625l0 -1.890625l1.640625 0l0 1.890625l-1.640625 0zm0 11.46875l0 -9.671875l1.640625 0l0 9.671875l-1.640625 0zm3.4885712 -2.890625l1.625 -0.25q0.125 0.96875 0.75 1.5q0.625 0.515625 1.75 0.515625q1.125 0 1.671875 -0.453125q0.546875 -0.46875 0.546875 -1.09375q0 -0.546875 -0.484375 -0.875q-0.328125 -0.21875 -1.671875 -0.546875q-1.8125 -0.46875 -2.515625 -0.796875q-0.6875 -0.328125 -1.046875 -0.90625q-0.359375 -0.59375 -0.359375 -1.3125q0 -0.640625 0.296875 -1.1875q0.296875 -0.5625 0.8125 -0.921875q0.375 -0.28125 1.03125 -0.46875q0.671875 -0.203125 1.421875 -0.203125q1.140625 0 2.0 0.328125q0.859375 0.328125 1.265625 0.890625q0.421875 0.5625 0.578125 1.5l-1.609375 0.21875q-0.109375 -0.75 -0.640625 -1.171875q-0.515625 -0.421875 -1.46875 -0.421875q-1.140625 0 -1.625 0.375q-0.46875 0.375 -0.46875 0.875q0 0.3125 0.1875 0.578125q0.203125 0.265625 0.640625 0.4375q0.234375 0.09375 1.4375 0.421875q1.75 0.453125 2.4375 0.75q0.6875 0.296875 1.078125 0.859375q0.390625 0.5625 0.390625 1.40625q0 0.828125 -0.484375 1.546875q-0.46875 0.71875 -1.375 1.125q-0.90625 0.390625 -2.046875 0.390625q-1.875 0 -2.875 -0.78125q-0.984375 -0.78125 -1.25 -2.328125zm13.5625 1.421875l0.234375 1.453125q-0.6875 0.140625 -1.234375 0.140625q-0.890625 0 -1.390625 -0.28125q-0.484375 -0.28125 -0.6875 -0.734375q-0.203125 -0.46875 -0.203125 -1.9375l0 -5.578125l-1.203125 0l0 -1.265625l1.203125 0l0 -2.390625l1.625 -0.984375l0 3.375l1.65625 0l0 1.265625l-1.65625 0l0 5.671875q0 0.6875 0.078125 0.890625q0.09375 0.203125 0.28125 0.328125q0.203125 0.109375 0.578125 0.109375q0.265625 0 0.71875 -0.0625zm1.5895538 1.46875l0 -9.671875l1.46875 0l0 1.46875q0.5625 -1.03125 1.03125 -1.359375q0.484375 -0.328125 1.0625 -0.328125q0.828125 0 1.6875 0.53125l-0.5625 1.515625q-0.609375 -0.359375 -1.203125 -0.359375q-0.546875 0 -0.96875 0.328125q-0.421875 0.328125 -0.609375 0.890625q-0.28125 0.875 -0.28125 1.921875l0 5.0625l-1.625 0zm6.228302 -11.46875l0 -1.890625l1.640625 0l0 1.890625l-1.640625 0zm0 11.46875l0 -9.671875l1.640625 0l0 9.671875l-1.640625 0zm5.644821 0l-1.515625 0l0 -13.359375l1.640625 0l0 4.765625q1.046875 -1.296875 2.65625 -1.296875q0.890625 0 1.6875 0.359375q0.796875 0.359375 1.3125 1.015625q0.515625 0.640625 0.796875 1.5625q0.296875 0.921875 0.296875 1.96875q0 2.484375 -1.234375 3.84375q-1.21875 1.359375 -2.953125 1.359375q-1.703125 0 -2.6875 -1.4375l0 1.21875zm-0.015625 -4.90625q0 1.734375 0.484375 2.515625q0.765625 1.265625 2.09375 1.265625q1.078125 0 1.859375 -0.9375q0.78125 -0.9375 0.78125 -2.78125q0 -1.890625 -0.75 -2.796875q-0.75 -0.90625 -1.828125 -0.90625q-1.0625 0 -1.859375 0.9375q-0.78125 0.9375 -0.78125 2.703125zm15.219467 4.90625l0 -1.421875q-1.125 1.640625 -3.0625 1.640625q-0.859375 0 -1.609375 -0.328125q-0.734375 -0.328125 -1.09375 -0.828125q-0.359375 -0.5 -0.5 -1.21875q-0.109375 -0.46875 -0.109375 -1.53125l0 -5.984375l1.640625 0l0 5.359375q0 1.28125 0.109375 1.734375q0.15625 0.640625 0.65625 1.015625q0.5 0.375 1.234375 0.375q0.734375 0 1.375 -0.375q0.65625 -0.390625 0.921875 -1.03125q0.265625 -0.65625 0.265625 -1.890625l0 -5.1875l1.640625 0l0 9.671875l-1.46875 0zm7.625702 -1.46875l0.234375 1.453125q-0.6875 0.140625 -1.234375 0.140625q-0.890625 0 -1.390625 -0.28125q-0.484375 -0.28125 -0.68748474 -0.734375q-0.203125 -0.46875 -0.203125 -1.9375l0 -5.578125l-1.203125 0l0 -1.265625l1.203125 0l0 -2.390625l1.6249847 -0.984375l0 3.375l1.65625 0l0 1.265625l-1.65625 0l0 5.671875q0 0.6875 0.078125 0.890625q0.09375 0.203125 0.28125 0.328125q0.203125 0.109375 0.578125 0.109375q0.265625 0 0.71875 -0.0625zm1.6051941 -10.0l0 -1.890625l1.640625 0l0 1.890625l-1.640625 0zm0 11.46875l0 -9.671875l1.640625 0l0 9.671875l-1.640625 0zm3.535431 -4.84375q0 -2.6875 1.484375 -3.96875q1.25 -1.078125 3.046875 -1.078125q2.0 0 3.265625 1.3125q1.265625 1.296875 1.265625 3.609375q0 1.859375 -0.5625 2.9375q-0.5625 1.0625 -1.640625 1.65625q-1.0625 0.59375 -2.328125 0.59375q-2.03125 0 -3.28125 -1.296875q-1.25 -1.3125 -1.25 -3.765625zm1.6875 0q0 1.859375 0.796875 2.796875q0.8125 0.921875 2.046875 0.921875q1.21875 0 2.03125 -0.921875q0.8125 -0.9375 0.8125 -2.84375q0 -1.796875 -0.8125 -2.71875q-0.8125 -0.921875 -2.03125 -0.921875q-1.234375 0 -2.046875 0.921875q-0.796875 0.90625 -0.796875 2.765625zm9.297607 4.84375l0 -9.671875l1.46875 0l0 1.375q1.0625 -1.59375 3.078125 -1.59375q0.875 0 1.609375 0.3125q0.734375 0.3125 1.09375 0.828125q0.375 0.5 0.515625 1.203125q0.09375 0.453125 0.09375 1.59375l0 5.953125l-1.640625 0l0 -5.890625q0 -1.0 -0.203125 -1.484375q-0.1875 -0.5 -0.671875 -0.796875q-0.484375 -0.296875 -1.140625 -0.296875q-1.046875 0 -1.8125 0.671875q-0.75 0.65625 -0.75 2.515625l0 5.28125l-1.640625 0z" fill-rule="nonzero"/><path fill="#000000" fill-opacity="0.0" d="m118.71916 49.160107l249.4488 0l0 42.015743l-249.4488 0z" fill-rule="evenodd"/><path fill="#ffffff" d="m137.57854 68.220726l-8.828125 0l0 -1.515625l8.828125 0l0 1.515625zm0 4.0625l-8.828125 0l0 -1.53125l8.828125 0l0 1.53125zm7.6563873 3.796875l0 -13.359371l5.046875 0q1.328125 0 2.03125 0.125q0.96875 0.171875 1.640625 0.640625q0.671875 0.453125 1.078125 1.2812462q0.40625 0.828125 0.40625 1.828125q0 1.703125 -1.09375 2.890625q-1.078125 1.171875 -3.921875 1.171875l-3.421875 0l0 5.421875l-1.765625 0zm1.765625 -7.0l3.453125 0q1.71875 0 2.4375 -0.640625q0.71875 -0.640625 0.71875 -1.796875q0 -0.84375 -0.421875 -1.4375q-0.421875 -0.59375 -1.125 -0.78125q-0.4375 -0.125 -1.640625 -0.125l-3.421875 0l0 4.78125zm9.865448 2.15625q0 -2.6875 1.484375 -3.96875q1.25 -1.078125 3.046875 -1.078125q2.0 0 3.265625 1.3125q1.265625 1.296875 1.265625 3.609375q0 1.859375 -0.5625 2.9375q-0.5625 1.0625 -1.640625 1.65625q-1.0625 0.59375 -2.328125 0.59375q-2.03125 0 -3.28125 -1.296875q-1.25 -1.3125 -1.25 -3.765625zm1.6875 0q0 1.859375 0.796875 2.796875q0.8125 0.921875 2.046875 0.921875q1.21875 0 2.03125 -0.921875q0.8125 -0.9375 0.8125 -2.84375q0 -1.796875 -0.8125 -2.71875q-0.8125 -0.921875 -2.03125 -0.921875q-1.234375 0 -2.046875 0.921875q-0.796875 0.90625 -0.796875 2.765625zm9.250717 4.84375l0 -13.359371l1.640625 0l0 13.359371l-1.640625 0zm4.191696 0l0 -13.359371l1.640625 0l0 7.624996l3.890625 -3.9375l2.109375 0l-3.6875 3.59375l4.0625 6.078125l-2.015625 0l-3.203125 -4.953125l-1.15625 1.125l0 3.828125l-1.640625 0zm15.640625 -1.1875q-0.921875 0.765625 -1.765625 1.09375q-0.828125 0.3125 -1.796875 0.3125q-1.59375 0 -2.453125 -0.78125q-0.859375 -0.78125 -0.859375 -1.984375q0 -0.71875 0.328125 -1.296875q0.328125 -0.59375 0.84375 -0.9375q0.53125 -0.359375 1.1875 -0.546875q0.46875 -0.125 1.453125 -0.25q1.984375 -0.234375 2.921875 -0.5625q0.015625 -0.34375 0.015625 -0.421875q0 -1.0 -0.46875 -1.421875q-0.625 -0.546875 -1.875 -0.546875q-1.15625 0 -1.703125 0.40625q-0.546875 0.40625 -0.8125 1.421875l-1.609375 -0.21875q0.21875 -1.015625 0.71875 -1.640625q0.5 -0.640625 1.453125 -0.984375q0.953125 -0.34375 2.1875 -0.34375q1.25 0 2.015625 0.296875q0.78125 0.28125 1.140625 0.734375q0.375 0.4375 0.515625 1.109375q0.078125 0.421875 0.078125 1.515625l0 2.1875q0 2.28125 0.109375 2.890625q0.109375 0.59375 0.40625 1.15625l-1.703125 0q-0.265625 -0.515625 -0.328125 -1.1875zm-0.140625 -3.671875q-0.890625 0.375 -2.671875 0.625q-1.015625 0.140625 -1.4375 0.328125q-0.421875 0.1875 -0.65625 0.53125q-0.21875 0.34375 -0.21875 0.78125q0 0.65625 0.5 1.09375q0.5 0.4375 1.453125 0.4375q0.9375 0 1.671875 -0.40625q0.75 -0.421875 1.09375 -1.140625q0.265625 -0.5625 0.265625 -1.640625l0 -0.609375zm10.469467 4.859375l0 -1.21875q-0.90625 1.4375 -2.703125 1.4375q-1.15625 0 -2.125 -0.640625q-0.96875 -0.640625 -1.5 -1.78125q-0.53125 -1.140625 -0.53125 -2.625q0 -1.453125 0.484375 -2.625q0.484375 -1.1875 1.4375 -1.8125q0.96875 -0.625 2.171875 -0.625q0.875 0 1.546875 0.375q0.6875 0.359375 1.109375 0.953125l0 -4.796871l1.640625 0l0 13.359371l-1.53125 0zm-5.171875 -4.828125q0 1.859375 0.78125 2.78125q0.78125 0.921875 1.84375 0.921875q1.078125 0 1.828125 -0.875q0.75 -0.890625 0.75 -2.6875q0 -1.984375 -0.765625 -2.90625q-0.765625 -0.9375 -1.890625 -0.9375q-1.078125 0 -1.8125 0.890625q-0.734375 0.890625 -0.734375 2.8125zm8.672592 -0.015625q0 -2.6875 1.484375 -3.96875q1.25 -1.078125 3.046875 -1.078125q2.0 0 3.265625 1.3125q1.265625 1.296875 1.265625 3.609375q0 1.859375 -0.5625 2.9375q-0.5625 1.0625 -1.640625 1.65625q-1.0625 0.59375 -2.328125 0.59375q-2.03125 0 -3.28125 -1.296875q-1.25 -1.3125 -1.25 -3.765625zm1.6875 0q0 1.859375 0.796875 2.796875q0.8125 0.921875 2.046875 0.921875q1.21875 0 2.03125 -0.921875q0.8125 -0.9375 0.8125 -2.84375q0 -1.796875 -0.8125 -2.71875q-0.8125 -0.921875 -2.03125 -0.921875q-1.234375 0 -2.046875 0.921875q-0.796875 0.90625 -0.796875 2.765625zm12.875717 3.375l0.234375 1.453125q-0.6875 0.140625 -1.234375 0.140625q-0.890625 0 -1.390625 -0.28125q-0.484375 -0.28125 -0.6875 -0.734375q-0.203125 -0.46875 -0.203125 -1.9375l0 -5.578125l-1.203125 0l0 -1.265625l1.203125 0l0 -2.390625l1.625 -0.9843712l0 3.3749962l1.65625 0l0 1.265625l-1.65625 0l0 5.671875q0 0.6875 0.078125 0.890625q0.09375 0.203125 0.28125 0.328125q0.203125 0.109375 0.578125 0.109375q0.265625 0 0.71875 -0.0625zm6.9916077 1.46875l0 -13.359371l4.609375 0q1.546875 0 2.375 0.203125q1.140625 0.25 1.953125 0.953125q1.0625 0.8906212 1.578125 2.2812462q0.53125 1.390625 0.53125 3.171875q0 1.515625 -0.359375 2.703125q-0.359375 1.171875 -0.921875 1.9375q-0.546875 0.765625 -1.203125 1.21875q-0.65625 0.4375 -1.59375 0.671875q-0.9375 0.21875 -2.140625 0.21875l-4.828125 0zm1.765625 -1.578125l2.859375 0q1.3125 0 2.0625 -0.234375q0.75 -0.25 1.203125 -0.703125q0.625 -0.625 0.96875 -1.6875q0.359375 -1.0625 0.359375 -2.578125q0 -2.09375 -0.6875 -3.21875q-0.6875 -1.125 -1.671875 -1.5q-0.703125 -0.28125 -2.28125 -0.28125l-2.8125 0l0 10.203125zm17.816696 0.390625q-0.921875 0.765625 -1.765625 1.09375q-0.828125 0.3125 -1.796875 0.3125q-1.59375 0 -2.453125 -0.78125q-0.859375 -0.78125 -0.859375 -1.984375q0 -0.71875 0.328125 -1.296875q0.328125 -0.59375 0.84375 -0.9375q0.53125 -0.359375 1.1875 -0.546875q0.46875 -0.125 1.453125 -0.25q1.984375 -0.234375 2.921875 -0.5625q0.015625 -0.34375 0.015625 -0.421875q0 -1.0 -0.46875 -1.421875q-0.625 -0.546875 -1.875 -0.546875q-1.15625 0 -1.703125 0.40625q-0.546875 0.40625 -0.8125 1.421875l-1.609375 -0.21875q0.21875 -1.015625 0.71875 -1.640625q0.5 -0.640625 1.453125 -0.984375q0.953125 -0.34375 2.1875 -0.34375q1.25 0 2.015625 0.296875q0.78125 0.28125 1.140625 0.734375q0.375 0.4375 0.515625 1.109375q0.078125 0.421875 0.078125 1.515625l0 2.1875q0 2.28125 0.109375 2.890625q0.109375 0.59375 0.40625 1.15625l-1.703125 0q-0.265625 -0.515625 -0.328125 -1.1875zm-0.140625 -3.671875q-0.890625 0.375 -2.671875 0.625q-1.015625 0.140625 -1.4375 0.328125q-0.421875 0.1875 -0.65625 0.53125q-0.21875 0.34375 -0.21875 0.78125q0 0.65625 0.5 1.09375q0.5 0.4375 1.453125 0.4375q0.9375 0 1.671875 -0.40625q0.75 -0.421875 1.09375 -1.140625q0.265625 -0.5625 0.265625 -1.640625l0 -0.609375zm7.781967 3.390625l0.234375 1.453125q-0.6875 0.140625 -1.234375 0.140625q-0.890625 0 -1.390625 -0.28125q-0.484375 -0.28125 -0.6875 -0.734375q-0.203125 -0.46875 -0.203125 -1.9375l0 -5.578125l-1.203125 0l0 -1.265625l1.203125 0l0 -2.390625l1.625 -0.9843712l0 3.3749962l1.65625 0l0 1.265625l-1.65625 0l0 5.671875q0 0.6875 0.078125 0.890625q0.09375 0.203125 0.28125 0.328125q0.203125 0.109375 0.578125 0.109375q0.265625 0 0.71875 -0.0625zm7.917679 0.28125q-0.921875 0.765625 -1.765625 1.09375q-0.828125 0.3125 -1.796875 0.3125q-1.59375 0 -2.453125 -0.78125q-0.859375 -0.78125 -0.859375 -1.984375q0 -0.71875 0.328125 -1.296875q0.328125 -0.59375 0.84375 -0.9375q0.53125 -0.359375 1.1875 -0.546875q0.46875 -0.125 1.453125 -0.25q1.984375 -0.234375 2.921875 -0.5625q0.015625 -0.34375 0.015625 -0.421875q0 -1.0 -0.46875 -1.421875q-0.625 -0.546875 -1.875 -0.546875q-1.15625 0 -1.703125 0.40625q-0.546875 0.40625 -0.8125 1.421875l-1.609375 -0.21875q0.21875 -1.015625 0.71875 -1.640625q0.5 -0.640625 1.453125 -0.984375q0.953125 -0.34375 2.1875 -0.34375q1.25 0 2.015625 0.296875q0.78125 0.28125 1.140625 0.734375q0.375 0.4375 0.515625 1.109375q0.078125 0.421875 0.078125 1.515625l0 2.1875q0 2.28125 0.109375 2.890625q0.109375 0.59375 0.40625 1.15625l-1.703125 0q-0.265625 -0.515625 -0.328125 -1.1875zm-0.140625 -3.671875q-0.890625 0.375 -2.671875 0.625q-1.015625 0.140625 -1.4375 0.328125q-0.421875 0.1875 -0.65625 0.53125q-0.21875 0.34375 -0.21875 0.78125q0 0.65625 0.5 1.09375q0.5 0.4375 1.453125 0.4375q0.9375 0 1.671875 -0.40625q0.75 -0.421875 1.09375 -1.140625q0.265625 -0.5625 0.265625 -1.640625l0 -0.609375zm7.0915527 4.859375l5.125 -13.359371l1.90625 0l5.46875 13.359371l-2.015625 0l-1.546875 -4.046875l-5.59375 0l-1.46875 4.046875l-1.875 0zm3.859375 -5.484375l4.53125 0l-1.40625 -3.703125q-0.625 -1.6875 -0.9375 -2.765625q-0.265625 1.28125 -0.71875 2.546875l-1.46875 3.921875zm12.200104 5.484375l-3.6875 -9.671875l1.734375 0l2.078125 5.796875q0.328125 0.9375 0.625 1.9375q0.203125 -0.765625 0.609375 -1.828125l2.140625 -5.90625l1.6875 0l-3.65625 9.671875l-1.53125 0zm12.953125 -1.1875q-0.921875 0.765625 -1.765625 1.09375q-0.828125 0.3125 -1.796875 0.3125q-1.59375 0 -2.453125 -0.78125q-0.859375 -0.78125 -0.859375 -1.984375q0 -0.71875 0.328125 -1.296875q0.328125 -0.59375 0.84375 -0.9375q0.53125 -0.359375 1.1875 -0.546875q0.46875 -0.125 1.453125 -0.25q1.984375 -0.234375 2.921875 -0.5625q0.015625 -0.34375 0.015625 -0.421875q0 -1.0 -0.46875 -1.421875q-0.625 -0.546875 -1.875 -0.546875q-1.15625 0 -1.703125 0.40625q-0.546875 0.40625 -0.8125 1.421875l-1.609375 -0.21875q0.21875 -1.015625 0.71875 -1.640625q0.5 -0.640625 1.453125 -0.984375q0.953125 -0.34375 2.1875 -0.34375q1.25 0 2.015625 0.296875q0.78125 0.28125 1.140625 0.734375q0.375 0.4375 0.515625 1.109375q0.078125 0.421875 0.078125 1.515625l0 2.1875q0 2.28125 0.109375 2.890625q0.109375 0.59375 0.40625 1.15625l-1.703125 0q-0.265625 -0.515625 -0.328125 -1.1875zm-0.140625 -3.671875q-0.890625 0.375 -2.671875 0.625q-1.015625 0.140625 -1.4375 0.328125q-0.421875 0.1875 -0.65625 0.53125q-0.21875 0.34375 -0.21875 0.78125q0 0.65625 0.5 1.09375q0.5 0.4375 1.453125 0.4375q0.9375 0 1.671875 -0.40625q0.75 -0.421875 1.09375 -1.140625q0.265625 -0.5625 0.265625 -1.640625l0 -0.609375zm4.203827 -6.609375l0 -1.8906212l1.640625 0l0 1.8906212l-1.640625 0zm0 11.46875l0 -9.671875l1.640625 0l0 9.671875l-1.640625 0zm4.0979614 0l0 -13.359371l1.640625 0l0 13.359371l-1.640625 0zm10.504181 -1.1875q-0.921875 0.765625 -1.765625 1.09375q-0.828125 0.3125 -1.796875 0.3125q-1.59375 0 -2.453125 -0.78125q-0.859375 -0.78125 -0.859375 -1.984375q0 -0.71875 0.328125 -1.296875q0.328125 -0.59375 0.84375 -0.9375q0.53125 -0.359375 1.1875 -0.546875q0.46875 -0.125 1.453125 -0.25q1.984375 -0.234375 2.921875 -0.5625q0.015625 -0.34375 0.015625 -0.421875q0 -1.0 -0.46875 -1.421875q-0.625 -0.546875 -1.875 -0.546875q-1.15625 0 -1.703125 0.40625q-0.546875 0.40625 -0.8125 1.421875l-1.609375 -0.21875q0.21875 -1.015625 0.71875 -1.640625q0.5 -0.640625 1.453125 -0.984375q0.953125 -0.34375 2.1875 -0.34375q1.25 0 2.015625 0.296875q0.78125 0.28125 1.140625 0.734375q0.375 0.4375 0.515625 1.109375q0.078125 0.421875 0.078125 1.515625l0 2.1875q0 2.28125 0.109375 2.890625q0.109375 0.59375 0.40625 1.15625l-1.703125 0q-0.265625 -0.515625 -0.328125 -1.1875zm-0.140625 -3.671875q-0.890625 0.375 -2.671875 0.625q-1.015625 0.140625 -1.4375 0.328125q-0.421875 0.1875 -0.65625 0.53125q-0.21875 0.34375 -0.21875 0.78125q0 0.65625 0.5 1.09375q0.5 0.4375 1.453125 0.4375q0.9375 0 1.671875 -0.40625q0.75 -0.421875 1.09375 -1.140625q0.265625 -0.5625 0.265625 -1.640625l0 -0.609375zm5.7038574 4.859375l-1.515625 0l0 -13.359371l1.640625 0l0 4.765621q1.046875 -1.296875 2.65625 -1.296875q0.890625 0 1.6875 0.359375q0.796875 0.359375 1.3125 1.015625q0.515625 0.640625 0.796875 1.5625q0.296875 0.921875 0.296875 1.96875q0 2.484375 -1.234375 3.84375q-1.21875 1.359375 -2.953125 1.359375q-1.703125 0 -2.6875 -1.4375l0 1.21875zm-0.015625 -4.90625q0 1.734375 0.484375 2.515625q0.765625 1.265625 2.09375 1.265625q1.078125 0 1.859375 -0.9375q0.78125 -0.9375 0.78125 -2.78125q0 -1.890625 -0.75 -2.796875q-0.75 -0.90625 -1.828125 -0.90625q-1.0625 0 -1.859375 0.9375q-0.78125 0.9375 -0.78125 2.703125zm8.891327 -6.5625l0 -1.8906212l1.640625 0l0 1.8906212l-1.640625 0zm0 11.46875l0 -9.671875l1.640625 0l0 9.671875l-1.640625 0zm4.0979614 0l0 -13.359371l1.640625 0l0 13.359371l-1.640625 0zm4.191681 -11.46875l0 -1.8906212l1.640625 0l0 1.8906212l-1.640625 0zm0 11.46875l0 -9.671875l1.640625 0l0 9.671875l-1.640625 0zm7.7229614 -1.46875l0.234375 1.453125q-0.6875 0.140625 -1.234375 0.140625q-0.890625 0 -1.390625 -0.28125q-0.484375 -0.28125 -0.6875 -0.734375q-0.203125 -0.46875 -0.203125 -1.9375l0 -5.578125l-1.203125 0l0 -1.265625l1.203125 0l0 -2.390625l1.625 -0.9843712l0 3.3749962l1.65625 0l0 1.265625l-1.65625 0l0 5.671875q0 0.6875 0.078125 0.890625q0.09375 0.203125 0.28125 0.328125q0.203125 0.109375 0.578125 0.109375q0.265625 0 0.71875 -0.0625zm1.5270386 5.1875l-0.1875 -1.53125q0.546875 0.140625 0.9375 0.140625q0.546875 0 0.875 -0.1875q0.328125 -0.171875 0.546875 -0.5q0.15625 -0.25 0.5 -1.21875q0.046875 -0.140625 0.140625 -0.40625l-3.671875 -9.6875l1.765625 0l2.015625 5.59375q0.390625 1.078125 0.703125 2.25q0.28125 -1.125 0.671875 -2.203125l2.078125 -5.640625l1.640625 0l-3.6875 9.828125q-0.59375 1.609375 -0.921875 2.203125q-0.4375 0.8125 -1.0 1.1875q-0.5625 0.375 -1.34375 0.375q-0.484375 0 -1.0625 -0.203125z" fill-rule="nonzero"/><path fill="#ff0000" d="m110.215225 61.664043l8.503937 8.503933l-8.503937 8.503937l0 -4.2519684l-95.37008 0l0 -8.503937l95.37008 0z" fill-rule="evenodd"/><path stroke="#595959" stroke-width="1.0" stroke-linejoin="round" stroke-linecap="butt" d="m110.215225 61.664043l8.503937 8.503933l-8.503937 8.503937l0 -4.2519684l-95.37008 0l0 -8.503937l95.37008 0z" fill-rule="evenodd"/><path fill="#ff0000" d="m273.05246 319.77414l0.028076172 -18.334045l4.590576 4.5905457l83.60971 -83.09903l9.181091 9.181107l-83.60971 83.099014l4.5905457 4.590576z" fill-rule="evenodd"/><path stroke="#595959" stroke-width="1.0" stroke-linejoin="round" stroke-linecap="butt" d="m273.05246 319.77414l0.028076172 -18.334045l4.590576 4.5905457l83.60971 -83.09903l9.181091 9.181107l-83.60971 83.099014l4.5905457 4.590576z" fill-rule="evenodd"/></g></svg>