<?xml version="1.0" encoding="UTF-8" standalone="no"?>
<!-- Created with Inkscape (http://www.inkscape.org/) -->

<svg
   xmlns:dc="http://purl.org/dc/elements/1.1/"
   xmlns:cc="http://creativecommons.org/ns#"
   xmlns:rdf="http://www.w3.org/1999/02/22-rdf-syntax-ns#"
   xmlns:svg="http://www.w3.org/2000/svg"
   xmlns="http://www.w3.org/2000/svg"
   xmlns:sodipodi="http://sodipodi.sourceforge.net/DTD/sodipodi-0.dtd"
   xmlns:inkscape="http://www.inkscape.org/namespaces/inkscape"
   version="1.0"
   width="280"
   height="250"
   id="svg2328"
   inkscape:version="0.92.4 (5da689c313, 2019-01-14)"
   sodipodi:docname="Big-Endian.svg"
   viewBox="0 0 280 250">
  <metadata
     id="metadata84">
    <rdf:RDF>
      <cc:Work
         rdf:about="">
        <dc:format>image/svg+xml</dc:format>
        <dc:type
           rdf:resource="http://purl.org/dc/dcmitype/StillImage" />
        <dc:title></dc:title>
      </cc:Work>
    </rdf:RDF>
  </metadata>
  <sodipodi:namedview
     pagecolor="#ffffff"
     bordercolor="#666666"
     borderopacity="1"
     objecttolerance="10"
     gridtolerance="10"
     guidetolerance="10"
     inkscape:pageopacity="0"
     inkscape:pageshadow="2"
     inkscape:window-width="1107"
     inkscape:window-height="769"
     id="namedview82"
     showgrid="false"
     inkscape:zoom="2"
     inkscape:cx="139.27456"
     inkscape:cy="125"
     inkscape:window-x="0"
     inkscape:window-y="0"
     inkscape:window-maximized="0"
     inkscape:current-layer="layer2" />
  <defs
     id="defs2330">
    <inkscape:perspective
       sodipodi:type="inkscape:persp3d"
       inkscape:vp_x="0 : 133.33333 : 1"
       inkscape:vp_y="0 : 1066.6666 : 0"
       inkscape:vp_z="298.66667 : 133.33333 : 1"
       inkscape:persp3d-origin="149.33333 : 88.88889 : 1"
       id="perspective86" />
    <marker
       refX="0"
       refY="0"
       orient="auto"
       style="overflow:visible"
       id="Arrow1Lend">
      <path
         d="M 0,0 5,-5 -12.5,0 5,5 Z"
         transform="matrix(-0.8,0,0,-0.8,-10,0)"
         style="fill-rule:evenodd;stroke:#000000;stroke-width:1.00000003pt;marker-start:none"
         id="path3194"
         inkscape:connector-curvature="0" />
    </marker>
  </defs>
  <g
     inkscape:groupmode="layer"
     id="layer1"
     inkscape:label="all"
     transform="translate(0,-16.666656)">
    <path
       inkscape:connector-curvature="0"
       d="M 59.554289,230.80405 V 201 h 30.010779 v 29.80405 z"
       style="overflow:visible;fill:#ffffff;stroke:none;stroke-width:1"
       id="path2179" />
    <path
       inkscape:connector-curvature="0"
       d="M 59.554289,140.80406 V 111 h 30.010779 v 29.80406 z"
       style="overflow:visible;fill:#ffffff;stroke:none;stroke-width:1"
       id="path3182" />
    <path
       inkscape:connector-curvature="0"
       d="M 59.554289,170.80405 V 141 h 30.010779 v 29.80405 z"
       style="overflow:visible;fill:#ffffff;stroke:none;stroke-width:1"
       id="path3190" />
    <path
       inkscape:connector-curvature="0"
       d="m 59.554289,200.80405 v -29.80406 h 30.010779 v 29.80406 z"
       style="overflow:visible;fill:#ffffff;stroke:none;stroke-width:1"
       id="path3198" />
    <path
       id="path2185"
       style="fill:none;stroke:#000000;stroke-width:0.51429158;stroke-linecap:butt;stroke-linejoin:miter;stroke-miterlimit:4;stroke-dasharray:none;stroke-opacity:1"
       d="m 59.822219,231.25714 29.4857,0.17065"
       inkscape:connector-curvature="0" />
    <path
       id="path3158"
       style="fill:none;stroke:#000000;stroke-width:0.6337797;stroke-linecap:butt;stroke-linejoin:miter;stroke-miterlimit:4;stroke-dasharray:none;stroke-opacity:1"
       d="m 59.933109,96.31689 -0.0512,149.36621"
       inkscape:connector-curvature="0" />
    <path
       id="path3168"
       style="fill:none;stroke:#000000;stroke-width:0.63377368;stroke-linecap:butt;stroke-linejoin:miter;stroke-miterlimit:4;stroke-dasharray:none;stroke-opacity:1"
       d="m 89.933108,96.31689 -0.0512,149.36621"
       inkscape:connector-curvature="0" />
    <path
       id="path3170"
       style="fill:none;stroke:#000000;stroke-width:0.51429158;stroke-linecap:butt;stroke-linejoin:miter;stroke-miterlimit:4;stroke-dasharray:none;stroke-opacity:1"
       d="m 59.822219,201.25714 29.4857,0.17065"
       inkscape:connector-curvature="0" />
    <path
       id="path3172"
       style="fill:none;stroke:#000000;stroke-width:0.51429158;stroke-linecap:butt;stroke-linejoin:miter;stroke-miterlimit:4;stroke-dasharray:none;stroke-opacity:1"
       d="m 59.822219,170.5722 29.4857,0.17065"
       inkscape:connector-curvature="0" />
    <path
       id="path3174"
       style="fill:none;stroke:#000000;stroke-width:0.51429158;stroke-linecap:butt;stroke-linejoin:miter;stroke-miterlimit:4;stroke-dasharray:none;stroke-opacity:1"
       d="m 59.822219,141.25715 29.4857,0.17064"
       inkscape:connector-curvature="0" />
    <path
       id="path3178"
       style="fill:none;stroke:#000000;stroke-width:0.51429158;stroke-linecap:butt;stroke-linejoin:miter;stroke-miterlimit:4;stroke-dasharray:none;stroke-opacity:1"
       d="m 59.822219,111.25715 29.4857,0.17064"
       inkscape:connector-curvature="0" />
    <text
       x="102.22559"
       y="-73.860001"
       transform="rotate(90)"
       style="font-style:normal;font-weight:normal;font-size:20px;line-height:0%;font-family:'Arial Black';text-align:center;text-anchor:middle;fill:#000000;fill-opacity:1;stroke:none;stroke-width:1"
       id="text3208"
       xml:space="preserve"><tspan
         x="102.22559"
         y="-73.860001"
         style="font-size:18px;font-family:'Times New Roman';stroke:none;stroke-width:1"
         id="tspan3210">...</tspan></text>
    <text
       x="240.47557"
       y="-73.860001"
       transform="rotate(90)"
       style="font-style:normal;font-weight:normal;font-size:20px;line-height:0%;font-family:'Arial Black';text-align:center;text-anchor:middle;fill:#000000;fill-opacity:1;stroke:none;stroke-width:1"
       id="text3212"
       xml:space="preserve"><tspan
         x="240.47557"
         y="-73.860001"
         style="font-size:18px;font-family:'Times New Roman';stroke:none;stroke-width:1"
         id="tspan3214">...</tspan></text>
    <rect
       id="rect3281"
       style="fill:none;stroke:none;stroke-width:1"
       y="205.99998"
       x="19.565071"
       height="24.999998"
       width="40" />
    <rect
       id="rect3311"
       style="fill:none;stroke:none;stroke-width:1"
       y="176"
       x="19.565071"
       height="24.999998"
       width="40" />
    <rect
       id="rect3321"
       style="fill:none;stroke:none;stroke-width:1"
       y="146"
       x="19.565071"
       height="24.999998"
       width="40" />
    <rect
       id="rect3331"
       style="fill:none;stroke:none;stroke-width:1"
       y="116"
       x="19.565071"
       height="24.999998"
       width="40" />
    <path
       inkscape:connector-curvature="0"
       d="M 130.69887,90.111122 V 57.448877 h 121.78025 v 32.662245 z"
       style="overflow:visible;fill:#ffffff;stroke:#000000;stroke-width:0.89775217"
       id="path2340" />
    <g
       id="g2250"
       transform="translate(-27.75,15.000002)">
      <path
         id="path2215"
         style="display:inline;fill:#000000;fill-opacity:1;fill-rule:evenodd;stroke:none"
         d="m 260.6875,75.09375 0.8125,124.5 L 124,200.5 v 1 l 138,-0.875 0.53125,-0.0312 v -0.5 l -0.8125,-125 h -1.03125 z"
         inkscape:connector-curvature="0" />
      <path
         id="path2256"
         style="fill-rule:evenodd;stroke:#000000;stroke-width:0.82364577pt;marker-start:none"
         d="m 134.29535,200.9325 4.09114,-4.14514 L 124,201 l 14.44049,4.02364 z"
         inkscape:connector-curvature="0" />
    </g>
    <g
       id="g2242"
       transform="translate(-27.75,15.000002)">
      <path
         id="path3388"
         style="display:inline;fill:#000000;fill-opacity:1;fill-rule:evenodd;stroke:none"
         d="M 232.6875,75 231.96875,170.875 123.5,171 v 1 l 108.96875,-0.125 h 0.5 v -0.5 L 233.6875,75 Z"
         inkscape:connector-curvature="0" />
      <path
         id="path2248"
         style="fill-rule:evenodd;stroke:#000000;stroke-width:0.80000004pt;marker-start:none"
         d="m 133.49999,171.48944 3.99578,-4.00423 L 123.5,171.5 l 14.00422,3.98521 z"
         inkscape:connector-curvature="0" />
    </g>
    <g
       id="g2234"
       transform="translate(-27.75,15.000002)">
      <path
         id="path3390"
         style="display:inline;fill:#000000;fill-opacity:1;fill-rule:evenodd;stroke:none"
         d="m 201.625,75.375 0.5,64.6875 L 124,141 v 1 l 78.65625,-0.9375 h 0.46875 v -0.5 l -0.5,-65.1875 z"
         inkscape:connector-curvature="0" />
      <path
         id="path2240"
         style="fill-rule:evenodd;stroke:#000000;stroke-width:0.80000004pt;marker-start:none"
         d="m 133.9993,141.3816 3.95236,-4.04709 L 124,141.5 l 14.04638,3.83395 z"
         inkscape:connector-curvature="0" />
    </g>
    <g
       id="g2226"
       transform="translate(-27.75,15.000002)">
      <path
         id="path3392"
         style="display:inline;fill:#000000;fill-opacity:1;fill-rule:evenodd;stroke:none"
         d="m 174.1875,75 -0.125,35.46875 L 124,111 v 1 l 50.5625,-0.53125 0.5,-0.0312 v -0.46875 l 0.125,-35.96875 h -1 z"
         inkscape:connector-curvature="0" />
      <path
         id="path2232"
         style="fill-rule:evenodd;stroke:#000000;stroke-width:0.80000004pt;marker-start:none"
         d="m 133.99943,111.3928 3.95688,-4.04266 L 124,111.5 l 14.04208,3.84968 z"
         inkscape:connector-curvature="0" />
    </g>
  </g>
  <g
     inkscape:groupmode="layer"
     id="layer2"
     inkscape:label="text"
     style="display:inline"
     transform="translate(0,-16.666656)">
    <g
       aria-label="Memory"
       style="font-style:normal;font-weight:normal;font-size:16px;line-height:0%;font-family:'Times New Roman';text-align:center;text-anchor:middle;fill:#000000;fill-opacity:1;stroke:none;stroke-width:1"
       id="text3347">
      <path
         d="m 51.796875,81.59375 -4.09375,-8.914063 v 7.078125 q 0,0.976563 0.210937,1.21875 0.289063,0.328125 0.914063,0.328125 h 0.375 v 0.289063 h -3.6875 v -0.289063 h 0.375 q 0.671875,0 0.953125,-0.40625 0.171875,-0.25 0.171875,-1.140625 v -6.921875 q 0,-0.703125 -0.15625,-1.015625 -0.109375,-0.226562 -0.40625,-0.375 -0.289063,-0.15625 -0.9375,-0.15625 V 71 h 3 l 3.84375,8.289062 L 56.140625,71 h 3 v 0.289062 h -0.367188 q -0.679687,0 -0.960937,0.40625 -0.171875,0.25 -0.171875,1.140625 v 6.921875 q 0,0.976563 0.21875,1.21875 0.289062,0.328125 0.914062,0.328125 h 0.367188 v 0.289063 h -4.5 v -0.289063 h 0.375 q 0.679687,0 0.953125,-0.40625 0.171875,-0.25 0.171875,-1.140625 v -7.078125 l -4.085938,8.914063 z"
         style="stroke-width:1"
         id="path201" />
      <path
         d="m 61.171875,77.132812 q -0.0078,1.59375 0.773437,2.5 0.78125,0.90625 1.835938,0.90625 0.703125,0 1.21875,-0.382812 0.523437,-0.390625 0.875,-1.328125 l 0.242187,0.15625 q -0.164062,1.070312 -0.953125,1.953125 -0.789062,0.875 -1.976562,0.875 -1.289063,0 -2.210938,-1 Q 60.0625,79.804687 60.0625,78.109375 60.0625,76.273437 61,75.25 q 0.945312,-1.03125 2.367187,-1.03125 1.203125,0 1.976563,0.796875 0.773437,0.789062 0.773437,2.117187 z m 0,-0.453125 h 3.3125 q -0.03906,-0.6875 -0.164063,-0.96875 -0.195312,-0.4375 -0.585937,-0.6875 -0.382813,-0.25 -0.804688,-0.25 -0.648437,0 -1.164062,0.507813 -0.507813,0.5 -0.59375,1.398437 z"
         style="stroke-width:1"
         id="path203" />
      <path
         d="m 69.1875,75.75 q 0.78125,-0.78125 0.921875,-0.898438 0.351562,-0.296875 0.757812,-0.460937 0.40625,-0.164063 0.804688,-0.164063 0.671875,0 1.15625,0.390625 0.484375,0.390625 0.648437,1.132813 0.804688,-0.9375 1.359375,-1.226563 0.554688,-0.296875 1.140625,-0.296875 0.570313,0 1.007813,0.296875 0.445312,0.289063 0.703125,0.953125 0.171875,0.453125 0.171875,1.421875 v 3.078125 q 0,0.671875 0.101562,0.921875 0.07813,0.171875 0.289063,0.296875 0.210937,0.117188 0.6875,0.117188 v 0.28125 H 75.40625 V 81.3125 h 0.148437 q 0.460938,0 0.71875,-0.179688 0.179688,-0.125 0.257813,-0.398437 0.03125,-0.132813 0.03125,-0.757813 v -3.078125 q 0,-0.875 -0.210938,-1.234375 -0.304687,-0.5 -0.976562,-0.5 -0.414063,0 -0.835938,0.210938 -0.414062,0.203125 -1.007812,0.765625 l -0.01563,0.08594 0.01563,0.335938 v 3.414062 q 0,0.734375 0.07813,0.914063 0.08594,0.179687 0.3125,0.304687 0.226562,0.117188 0.773437,0.117188 v 0.28125 H 71.078125 V 81.3125 q 0.59375,0 0.8125,-0.140625 0.226562,-0.140625 0.3125,-0.421875 0.03906,-0.132813 0.03906,-0.773438 v -3.078125 q 0,-0.875 -0.257812,-1.257812 -0.34375,-0.5 -0.960938,-0.5 -0.421875,0 -0.835937,0.226562 -0.648438,0.34375 -1,0.773438 v 3.835937 q 0,0.703125 0.09375,0.914063 0.101562,0.210937 0.289062,0.320312 0.195313,0.101563 0.78125,0.101563 v 0.28125 H 66.8125 V 81.3125 q 0.492187,0 0.6875,-0.101563 0.195312,-0.109375 0.296875,-0.335937 0.101562,-0.234375 0.101562,-0.898438 v -2.734375 q 0,-1.179687 -0.07031,-1.523437 -0.05469,-0.257813 -0.171875,-0.351563 -0.117188,-0.101562 -0.320313,-0.101562 -0.21875,0 -0.523437,0.117187 l -0.117188,-0.28125 2.15625,-0.875 H 69.1875 Z"
         style="stroke-width:1"
         id="path205" />
      <path
         d="m 83,74.226562 q 1.625,0 2.609375,1.234375 0.835937,1.054688 0.835937,2.421875 0,0.960938 -0.460937,1.945313 -0.460938,0.984375 -1.273438,1.484375 -0.804687,0.5 -1.796875,0.5 -1.617187,0 -2.570312,-1.289063 -0.804688,-1.085937 -0.804688,-2.4375 0,-0.984375 0.484375,-1.953125 0.492188,-0.976562 1.289063,-1.4375 0.796875,-0.46875 1.6875,-0.46875 z m -0.242188,0.507813 q -0.414062,0 -0.835937,0.25 -0.414063,0.242187 -0.671875,0.859375 -0.257813,0.617187 -0.257813,1.585937 0,1.5625 0.617188,2.695313 0.625,1.132812 1.640625,1.132812 0.757812,0 1.25,-0.625 0.492187,-0.625 0.492187,-2.148437 0,-1.90625 -0.820312,-3 -0.554688,-0.75 -1.414063,-0.75 z"
         style="stroke-width:1"
         id="path207" />
      <path
         d="m 89.59375,74.226562 v 1.609375 q 0.898437,-1.609375 1.84375,-1.609375 0.429687,0 0.710937,0.265625 0.28125,0.257813 0.28125,0.601563 0,0.304687 -0.203125,0.515625 -0.203125,0.210937 -0.484375,0.210937 -0.273437,0 -0.617187,-0.265625 -0.335938,-0.273437 -0.5,-0.273437 -0.140625,0 -0.304688,0.15625 -0.351562,0.320312 -0.726562,1.054687 v 3.429688 q 0,0.59375 0.148437,0.898437 0.101563,0.210938 0.359375,0.351563 0.257813,0.140625 0.742188,0.140625 v 0.28125 H 87.179687 V 81.3125 q 0.546875,0 0.8125,-0.171875 0.195313,-0.125 0.273438,-0.398438 0.03906,-0.132812 0.03906,-0.757812 v -2.773438 q 0,-1.25 -0.05469,-1.484375 -0.04687,-0.242187 -0.1875,-0.351562 -0.132813,-0.109375 -0.335938,-0.109375 -0.242187,0 -0.546875,0.117187 l -0.07813,-0.28125 2.164063,-0.875 z"
         style="stroke-width:1"
         id="path209" />
      <path
         d="m 92.4375,74.4375 h 3.335937 v 0.289062 h -0.164062 q -0.351563,0 -0.53125,0.15625 -0.171875,0.148438 -0.171875,0.375 0,0.304688 0.257812,0.84375 l 1.742188,3.609375 1.601562,-3.953125 Q 98.640625,75.4375 98.640625,75.125 q 0,-0.140625 -0.05469,-0.210938 -0.0625,-0.08594 -0.195312,-0.132812 -0.132813,-0.05469 -0.46875,-0.05469 V 74.4375 H 100.25 v 0.289062 q -0.289063,0.03125 -0.445313,0.125 -0.15625,0.09375 -0.34375,0.351563 -0.07031,0.109375 -0.265625,0.601562 l -2.914062,7.140625 q -0.421875,1.039063 -1.109375,1.570313 -0.679688,0.53125 -1.3125,0.53125 -0.460938,0 -0.757813,-0.265625 -0.296875,-0.265625 -0.296875,-0.609375 0,-0.328125 0.210938,-0.53125 0.21875,-0.195313 0.59375,-0.195313 0.257812,0 0.703125,0.171875 0.3125,0.117188 0.390625,0.117188 0.234375,0 0.507812,-0.242188 0.28125,-0.242187 0.5625,-0.9375 L 96.28125,81.3125 93.710937,75.914062 q -0.117187,-0.242187 -0.375,-0.601562 -0.195312,-0.273438 -0.320312,-0.367188 -0.179688,-0.125 -0.578125,-0.21875 z"
         style="stroke-width:1"
         id="path211" />
    </g>
    <g
       aria-label="32-bit integer"
       style="font-style:normal;font-weight:normal;font-size:16px;line-height:0%;font-family:'Times New Roman';text-align:center;text-anchor:middle;fill:#000000;fill-opacity:1;stroke:none;stroke-width:1"
       id="text3343">
      <path
         d="m 148.68581,39.531254 q 0.45312,-1.070313 1.14062,-1.648438 0.69531,-0.585937 1.72656,-0.585937 1.27344,0 1.95313,0.828125 0.51562,0.617187 0.51562,1.320312 0,1.15625 -1.45312,2.390625 0.97656,0.382813 1.47656,1.09375 0.5,0.710938 0.5,1.671875 0,1.375 -0.875,2.382813 -1.14062,1.3125 -3.30469,1.3125 -1.07031,0 -1.46093,-0.265625 -0.38282,-0.265625 -0.38282,-0.570313 0,-0.226562 0.17969,-0.398437 0.1875,-0.171875 0.44531,-0.171875 0.19532,0 0.39844,0.0625 0.13281,0.03906 0.60156,0.289062 0.46875,0.242188 0.64844,0.289063 0.28906,0.08594 0.61719,0.08594 0.79687,0 1.38281,-0.617187 0.59375,-0.617188 0.59375,-1.460938 0,-0.617187 -0.27344,-1.203125 -0.20312,-0.4375 -0.44531,-0.664062 -0.33594,-0.3125 -0.92187,-0.5625 -0.58594,-0.257813 -1.19532,-0.257813 h -0.25 v -0.234375 q 0.61719,-0.07813 1.23438,-0.445312 0.625,-0.367188 0.90625,-0.882813 0.28125,-0.515625 0.28125,-1.132812 0,-0.804688 -0.50781,-1.296875 -0.5,-0.5 -1.25,-0.5 -1.21094,0 -2.02344,1.296875 z"
         style="stroke-width:1"
         id="path214" />
      <path
         d="m 163.20924,46.070316 -0.74218,2.039063 h -6.25 v -0.289063 q 2.75781,-2.515625 3.88281,-4.109375 1.125,-1.59375 1.125,-2.914062 0,-1.007813 -0.61719,-1.65625 -0.61719,-0.648438 -1.47656,-0.648438 -0.78125,0 -1.40625,0.460938 -0.61719,0.453125 -0.91406,1.335937 h -0.28907 q 0.19532,-1.445312 1,-2.21875 0.8125,-0.773437 2.02344,-0.773437 1.28906,0 2.14844,0.828125 0.86719,0.828125 0.86719,1.953125 0,0.804687 -0.375,1.609375 -0.57813,1.265625 -1.875,2.679687 -1.94532,2.125 -2.42969,2.5625 h 2.76562 q 0.84375,0 1.17969,-0.0625 0.34375,-0.0625 0.61719,-0.25 0.27344,-0.195312 0.47656,-0.546875 z"
         style="stroke-width:1"
         id="path216" />
      <path
         d="m 164.52174,43.929691 h 4.03907 v 1.179688 h -4.03907 z"
         style="stroke-width:1"
         id="path218" />
      <path
         d="m 171.67799,42.187504 q 1.03907,-1.445313 2.24219,-1.445313 1.10156,0 1.92188,0.945313 0.82031,0.9375 0.82031,2.570312 0,1.90625 -1.26563,3.070313 -1.08593,1 -2.42187,1 -0.625,0 -1.27344,-0.226563 -0.64062,-0.226562 -1.3125,-0.679687 v -7.414063 q 0,-1.21875 -0.0625,-1.5 -0.0547,-0.28125 -0.17969,-0.382812 -0.125,-0.101563 -0.3125,-0.101563 -0.21875,0 -0.54687,0.125 l -0.10938,-0.273437 2.14844,-0.875 h 0.35156 z m 0,0.5 v 4.28125 q 0.39844,0.390625 0.82032,0.59375 0.42968,0.195312 0.875,0.195312 0.71093,0 1.32031,-0.78125 0.61719,-0.78125 0.61719,-2.273437 0,-1.375 -0.61719,-2.109375 -0.60938,-0.742188 -1.39063,-0.742188 -0.41406,0 -0.82812,0.210938 -0.3125,0.15625 -0.79688,0.625 z"
         style="stroke-width:1"
         id="path220" />
      <path
         d="m 179.53737,37.000004 q 0.32812,0 0.55469,0.234375 0.23437,0.226562 0.23437,0.554687 0,0.328125 -0.23437,0.5625 -0.22657,0.234375 -0.55469,0.234375 -0.32813,0 -0.5625,-0.234375 -0.23438,-0.234375 -0.23438,-0.5625 0,-0.328125 0.22657,-0.554687 0.23437,-0.234375 0.57031,-0.234375 z m 0.64844,3.742187 v 5.75 q 0,0.671875 0.0937,0.898438 0.10156,0.21875 0.28906,0.328125 0.19531,0.109375 0.70312,0.109375 v 0.28125 h -3.47656 v -0.28125 q 0.52344,0 0.70313,-0.101563 0.17968,-0.101562 0.28125,-0.335937 0.10937,-0.234375 0.10937,-0.898438 v -2.757812 q 0,-1.164063 -0.0703,-1.507813 -0.0547,-0.25 -0.17188,-0.34375 -0.11718,-0.101562 -0.32031,-0.101562 -0.21875,0 -0.53125,0.117187 l -0.10937,-0.28125 2.15625,-0.875 z"
         style="stroke-width:1"
         id="path222" />
      <path
         d="m 184.23268,38.601566 v 2.351563 h 1.67188 v 0.546875 h -1.67188 v 4.640625 q 0,0.695312 0.19531,0.9375 0.20313,0.242187 0.51563,0.242187 0.25781,0 0.5,-0.15625 0.24219,-0.164062 0.375,-0.476562 h 0.30469 q -0.27344,0.765625 -0.77344,1.15625 -0.5,0.382812 -1.03125,0.382812 -0.35938,0 -0.70313,-0.195312 -0.34375,-0.203125 -0.50781,-0.570313 -0.16406,-0.375 -0.16406,-1.148437 v -4.8125 h -1.13281 v -0.257813 q 0.42968,-0.171875 0.875,-0.578125 0.45312,-0.414062 0.80468,-0.976562 0.17969,-0.296875 0.5,-1.085938 z"
         style="stroke-width:1"
         id="path224" />
      <path
         d="m 192.41237,37.000004 q 0.32812,0 0.55469,0.234375 0.23437,0.226562 0.23437,0.554687 0,0.328125 -0.23437,0.5625 -0.22657,0.234375 -0.55469,0.234375 -0.32813,0 -0.5625,-0.234375 -0.23438,-0.234375 -0.23438,-0.5625 0,-0.328125 0.22657,-0.554687 0.23437,-0.234375 0.57031,-0.234375 z m 0.64844,3.742187 v 5.75 q 0,0.671875 0.0937,0.898438 0.10156,0.21875 0.28906,0.328125 0.19531,0.109375 0.70312,0.109375 v 0.28125 h -3.47656 v -0.28125 q 0.52344,0 0.70313,-0.101563 0.17968,-0.101562 0.28125,-0.335937 0.10937,-0.234375 0.10937,-0.898438 v -2.757812 q 0,-1.164063 -0.0703,-1.507813 -0.0547,-0.25 -0.17188,-0.34375 -0.11718,-0.101562 -0.32031,-0.101562 -0.21875,0 -0.53125,0.117187 l -0.10937,-0.28125 2.15625,-0.875 z"
         style="stroke-width:1"
         id="path226" />
      <path
         d="m 197.11549,42.257816 q 1.25782,-1.515625 2.39844,-1.515625 0.58594,0 1.00781,0.296875 0.42188,0.289063 0.67188,0.960938 0.17187,0.46875 0.17187,1.4375 v 3.054687 q 0,0.679688 0.10938,0.921875 0.0859,0.195313 0.27344,0.304688 0.19531,0.109375 0.71093,0.109375 v 0.28125 h -3.53906 v -0.28125 h 0.14844 q 0.5,0 0.69531,-0.148438 0.20313,-0.15625 0.28125,-0.453125 0.0312,-0.117187 0.0312,-0.734375 v -2.929687 q 0,-0.976563 -0.25781,-1.414063 -0.25,-0.445312 -0.85156,-0.445312 -0.92969,0 -1.85157,1.015625 v 3.773437 q 0,0.726563 0.0859,0.898438 0.10938,0.226562 0.29688,0.335937 0.19531,0.101563 0.78125,0.101563 v 0.28125 h -3.53907 v -0.28125 h 0.15625 q 0.54688,0 0.73438,-0.273438 0.19531,-0.28125 0.19531,-1.0625 v -2.65625 q 0,-1.289062 -0.0625,-1.570312 -0.0547,-0.28125 -0.17969,-0.382813 -0.11718,-0.101562 -0.32031,-0.101562 -0.21875,0 -0.52344,0.117187 l -0.11718,-0.28125 2.15625,-0.875 h 0.33593 z"
         style="stroke-width:1"
         id="path228" />
      <path
         d="m 205.10768,38.601566 v 2.351563 h 1.67188 v 0.546875 h -1.67188 v 4.640625 q 0,0.695312 0.19531,0.9375 0.20313,0.242187 0.51563,0.242187 0.25781,0 0.5,-0.15625 0.24219,-0.164062 0.375,-0.476562 h 0.30469 q -0.27344,0.765625 -0.77344,1.15625 -0.5,0.382812 -1.03125,0.382812 -0.35938,0 -0.70313,-0.195312 -0.34375,-0.203125 -0.50781,-0.570313 -0.16406,-0.375 -0.16406,-1.148437 v -4.8125 h -1.13281 v -0.257813 q 0.42968,-0.171875 0.875,-0.578125 0.45312,-0.414062 0.80468,-0.976562 0.17969,-0.296875 0.5,-1.085938 z"
         style="stroke-width:1"
         id="path230" />
      <path
         d="m 208.67018,43.648441 q -0.008,1.59375 0.77344,2.5 0.78125,0.90625 1.83594,0.90625 0.70312,0 1.21875,-0.382812 0.52343,-0.390625 0.875,-1.328125 l 0.24218,0.15625 q -0.16406,1.070312 -0.95312,1.953125 -0.78906,0.875 -1.97656,0.875 -1.28907,0 -2.21094,-1 -0.91406,-1.007813 -0.91406,-2.703125 0,-1.835938 0.9375,-2.859375 0.94531,-1.03125 2.36718,-1.03125 1.20313,0 1.97657,0.796875 0.77343,0.789062 0.77343,2.117187 z m 0,-0.453125 h 3.3125 q -0.0391,-0.6875 -0.16406,-0.96875 -0.19531,-0.4375 -0.58594,-0.6875 -0.38281,-0.25 -0.80469,-0.25 -0.64843,0 -1.16406,0.507813 -0.50781,0.5 -0.59375,1.398437 z"
         style="stroke-width:1"
         id="path232" />
      <path
         d="m 216.47487,45.500004 q -0.65625,-0.320313 -1.00781,-0.890625 -0.35157,-0.578125 -0.35157,-1.273438 0,-1.0625 0.79688,-1.828125 0.80469,-0.765625 2.05469,-0.765625 1.02343,0 1.77343,0.5 h 1.51563 q 0.33594,0 0.39062,0.02344 0.0547,0.01563 0.0781,0.0625 0.0469,0.07031 0.0469,0.25 0,0.203125 -0.0391,0.28125 -0.0234,0.03906 -0.0859,0.0625 -0.0547,0.02344 -0.39062,0.02344 h -0.92969 q 0.4375,0.5625 0.4375,1.4375 0,1 -0.76562,1.710938 -0.76563,0.710937 -2.05469,0.710937 -0.53125,0 -1.08594,-0.15625 -0.34375,0.296875 -0.46875,0.523438 -0.11719,0.21875 -0.11719,0.375 0,0.132812 0.125,0.257812 0.13282,0.125 0.50782,0.179688 0.21875,0.03125 1.09375,0.05469 1.60937,0.03906 2.08593,0.109375 0.72657,0.101563 1.15625,0.539063 0.4375,0.4375 0.4375,1.078125 0,0.882812 -0.82812,1.65625 -1.21875,1.140625 -3.17969,1.140625 -1.50781,0 -2.54687,-0.679688 -0.58594,-0.390625 -0.58594,-0.8125 0,-0.1875 0.0859,-0.375 0.13281,-0.289062 0.54687,-0.804687 0.0547,-0.07031 0.79688,-0.84375 -0.40625,-0.242188 -0.57813,-0.429688 -0.16406,-0.195312 -0.16406,-0.4375 0,-0.273437 0.21875,-0.640625 0.22656,-0.367187 1.03125,-1.039062 z m 1.35937,-4.382813 q -0.57812,0 -0.96875,0.460938 -0.39062,0.460937 -0.39062,1.414062 0,1.234375 0.53125,1.914063 0.40625,0.515625 1.03125,0.515625 0.59375,0 0.97656,-0.445313 0.38281,-0.445312 0.38281,-1.398437 0,-1.242188 -0.53906,-1.945313 -0.39844,-0.515625 -1.02344,-0.515625 z m -1.4375,6.992188 q -0.36718,0.398437 -0.55468,0.742187 -0.1875,0.34375 -0.1875,0.632813 0,0.375 0.45312,0.65625 0.78125,0.484375 2.25781,0.484375 1.40625,0 2.07032,-0.5 0.67187,-0.492188 0.67187,-1.054688 0,-0.40625 -0.39844,-0.578125 -0.40625,-0.171875 -1.60937,-0.203125 -1.75781,-0.04687 -2.70313,-0.179687 z"
         style="stroke-width:1"
         id="path234" />
      <path
         d="m 223.76393,43.648441 q -0.008,1.59375 0.77344,2.5 0.78125,0.90625 1.83594,0.90625 0.70312,0 1.21875,-0.382812 0.52343,-0.390625 0.875,-1.328125 l 0.24218,0.15625 q -0.16406,1.070312 -0.95312,1.953125 -0.78906,0.875 -1.97656,0.875 -1.28907,0 -2.21094,-1 -0.91406,-1.007813 -0.91406,-2.703125 0,-1.835938 0.9375,-2.859375 0.94531,-1.03125 2.36718,-1.03125 1.20313,0 1.97657,0.796875 0.77343,0.789062 0.77343,2.117187 z m 0,-0.453125 h 3.3125 q -0.0391,-0.6875 -0.16406,-0.96875 -0.19531,-0.4375 -0.58594,-0.6875 -0.38281,-0.25 -0.80469,-0.25 -0.64843,0 -1.16406,0.507813 -0.50781,0.5 -0.59375,1.398437 z"
         style="stroke-width:1"
         id="path236" />
      <path
         d="m 231.74831,40.742191 v 1.609375 q 0.89843,-1.609375 1.84375,-1.609375 0.42968,0 0.71093,0.265625 0.28125,0.257813 0.28125,0.601563 0,0.304687 -0.20312,0.515625 -0.20313,0.210937 -0.48438,0.210937 -0.27343,0 -0.61718,-0.265625 -0.33594,-0.273437 -0.5,-0.273437 -0.14063,0 -0.30469,0.15625 -0.35156,0.320312 -0.72656,1.054687 v 3.429688 q 0,0.59375 0.14843,0.898437 0.10157,0.210938 0.35938,0.351563 0.25781,0.140625 0.74219,0.140625 v 0.28125 h -3.66407 v -0.28125 q 0.54688,0 0.8125,-0.171875 0.19532,-0.125 0.27344,-0.398438 0.0391,-0.132812 0.0391,-0.757812 v -2.773438 q 0,-1.25 -0.0547,-1.484375 -0.0469,-0.242187 -0.1875,-0.351562 -0.13282,-0.109375 -0.33594,-0.109375 -0.24219,0 -0.54688,0.117187 l -0.0781,-0.28125 2.16406,-0.875 z"
         style="stroke-width:1"
         id="path238" />
    </g>
    <g
       aria-label="Big-endian"
       style="font-style:normal;font-weight:normal;font-size:16px;line-height:0%;font-family:'Times New Roman';text-align:center;text-anchor:middle;fill:#000000;fill-opacity:1;stroke:none;stroke-width:1"
       id="text3351">
      <path
         d="m 165.5,237.76562 q 1.10156,0.23438 1.64844,0.75 0.75781,0.71875 0.75781,1.75782 0,0.78906 -0.5,1.51562 -0.5,0.71875 -1.375,1.05469 -0.86719,0.32812 -2.65625,0.32812 h -5 v -0.28906 h 0.39844 q 0.66406,0 0.95312,-0.42187 0.17969,-0.27344 0.17969,-1.16407 v -6.84375 q 0,-0.98437 -0.22656,-1.24218 -0.30469,-0.34375 -0.90625,-0.34375 H 158.375 v -0.28907 h 4.57812 q 1.28125,0 2.05469,0.1875 1.17188,0.28125 1.78906,1 0.61719,0.71094 0.61719,1.64063 0,0.79687 -0.48437,1.42969 -0.48438,0.625 -1.42969,0.92968 z m -4.09375,-0.42187 q 0.28906,0.0547 0.65625,0.0859 0.375,0.0234 0.82031,0.0234 1.14063,0 1.71094,-0.24218 0.57812,-0.25 0.88281,-0.75782 0.30469,-0.50781 0.30469,-1.10937 0,-0.92969 -0.75781,-1.58594 -0.75782,-0.65625 -2.21094,-0.65625 -0.78125,0 -1.40625,0.17188 z m 0,5.0625 q 0.90625,0.21094 1.78906,0.21094 1.41406,0 2.15625,-0.63282 0.74219,-0.64062 0.74219,-1.57812 0,-0.61719 -0.33594,-1.1875 -0.33594,-0.57031 -1.09375,-0.89844 -0.75781,-0.32812 -1.875,-0.32812 -0.48437,0 -0.82812,0.0156 -0.34375,0.0156 -0.55469,0.0547 z"
         style="stroke-width:1"
         id="path241" />
      <path
         d="m 171.11719,232.0625 q 0.32812,0 0.55468,0.23437 0.23438,0.22657 0.23438,0.55469 0,0.32813 -0.23438,0.5625 -0.22656,0.23438 -0.55468,0.23438 -0.32813,0 -0.5625,-0.23438 -0.23438,-0.23437 -0.23438,-0.5625 0,-0.32812 0.22656,-0.55469 0.23438,-0.23437 0.57032,-0.23437 z m 0.64843,3.74219 v 5.75 q 0,0.67187 0.0937,0.89843 0.10157,0.21875 0.28907,0.32813 0.19531,0.10937 0.70312,0.10937 v 0.28125 H 169.375 v -0.28125 q 0.52344,0 0.70312,-0.10156 0.17969,-0.10156 0.28125,-0.33594 0.10938,-0.23437 0.10938,-0.89843 v -2.75782 q 0,-1.16406 -0.0703,-1.50781 -0.0547,-0.25 -0.17188,-0.34375 -0.11719,-0.10156 -0.32031,-0.10156 -0.21875,0 -0.53125,0.11719 l -0.10938,-0.28125 2.15625,-0.875 z"
         style="stroke-width:1"
         id="path243" />
      <path
         d="m 175.64844,240.5625 q -0.65625,-0.32031 -1.00782,-0.89063 -0.35156,-0.57812 -0.35156,-1.27343 0,-1.0625 0.79688,-1.82813 0.80468,-0.76562 2.05468,-0.76562 1.02344,0 1.77344,0.5 h 1.51563 q 0.33593,0 0.39062,0.0234 0.0547,0.0156 0.0781,0.0625 0.0469,0.0703 0.0469,0.25 0,0.20313 -0.0391,0.28125 -0.0234,0.0391 -0.0859,0.0625 -0.0547,0.0234 -0.39062,0.0234 H 179.5 q 0.4375,0.5625 0.4375,1.4375 0,1 -0.76563,1.71094 -0.76562,0.71094 -2.05468,0.71094 -0.53125,0 -1.08594,-0.15625 -0.34375,0.29687 -0.46875,0.52343 -0.11719,0.21875 -0.11719,0.375 0,0.13282 0.125,0.25782 0.13281,0.125 0.50781,0.17968 0.21875,0.0312 1.09375,0.0547 1.60938,0.0391 2.08594,0.10938 0.72656,0.10156 1.15625,0.53906 0.4375,0.4375 0.4375,1.07812 0,0.88282 -0.82812,1.65625 -1.21875,1.14063 -3.17969,1.14063 -1.50781,0 -2.54688,-0.67969 -0.58593,-0.39062 -0.58593,-0.8125 0,-0.1875 0.0859,-0.375 0.13282,-0.28906 0.54688,-0.80469 0.0547,-0.0703 0.79687,-0.84375 -0.40625,-0.24218 -0.57812,-0.42968 -0.16406,-0.19532 -0.16406,-0.4375 0,-0.27344 0.21875,-0.64063 0.22656,-0.36719 1.03125,-1.03906 z m 1.35937,-4.38281 q -0.57812,0 -0.96875,0.46093 -0.39062,0.46094 -0.39062,1.41407 0,1.23437 0.53125,1.91406 0.40625,0.51562 1.03125,0.51562 0.59375,0 0.97656,-0.44531 0.38281,-0.44531 0.38281,-1.39844 0,-1.24218 -0.53906,-1.94531 -0.39844,-0.51562 -1.02344,-0.51562 z m -1.4375,6.99218 q -0.36719,0.39844 -0.55469,0.74219 -0.1875,0.34375 -0.1875,0.63281 0,0.375 0.45313,0.65625 0.78125,0.48438 2.25781,0.48438 1.40625,0 2.07031,-0.5 0.67188,-0.49219 0.67188,-1.05469 0,-0.40625 -0.39844,-0.57812 -0.40625,-0.17188 -1.60937,-0.20313 -1.75782,-0.0469 -2.70313,-0.17969 z"
         style="stroke-width:1"
         id="path245" />
      <path
         d="m 181.88281,238.99219 h 4.03906 v 1.17968 h -4.03906 z"
         style="stroke-width:1"
         id="path247" />
      <path
         d="m 188.28125,238.71094 q -0.008,1.59375 0.77344,2.5 0.78125,0.90625 1.83593,0.90625 0.70313,0 1.21875,-0.38282 0.52344,-0.39062 0.875,-1.32812 l 0.24219,0.15625 q -0.16406,1.07031 -0.95312,1.95312 -0.78907,0.875 -1.97657,0.875 -1.28906,0 -2.21093,-1 -0.91407,-1.00781 -0.91407,-2.70312 0,-1.83594 0.9375,-2.85938 0.94532,-1.03125 2.36719,-1.03125 1.20313,0 1.97656,0.79688 0.77344,0.78906 0.77344,2.11719 z m 0,-0.45313 h 3.3125 q -0.0391,-0.6875 -0.16406,-0.96875 -0.19532,-0.4375 -0.58594,-0.6875 -0.38281,-0.25 -0.80469,-0.25 -0.64844,0 -1.16406,0.50781 -0.50781,0.5 -0.59375,1.39844 z"
         style="stroke-width:1"
         id="path249" />
      <path
         d="m 196.25781,237.32031 q 1.25781,-1.51562 2.39844,-1.51562 0.58594,0 1.00781,0.29687 0.42188,0.28906 0.67188,0.96094 0.17187,0.46875 0.17187,1.4375 v 3.05469 q 0,0.67968 0.10938,0.92187 0.0859,0.19531 0.27343,0.30469 0.19532,0.10937 0.71094,0.10937 v 0.28125 h -3.53906 v -0.28125 h 0.14844 q 0.5,0 0.69531,-0.14843 0.20312,-0.15625 0.28125,-0.45313 0.0312,-0.11719 0.0312,-0.73437 V 238.625 q 0,-0.97656 -0.25781,-1.41406 -0.25,-0.44532 -0.85157,-0.44532 -0.92968,0 -1.85156,1.01563 v 3.77344 q 0,0.72656 0.0859,0.89843 0.10937,0.22657 0.29687,0.33594 0.19532,0.10156 0.78125,0.10156 v 0.28125 h -3.53906 v -0.28125 h 0.15625 q 0.54688,0 0.73438,-0.27343 0.19531,-0.28125 0.19531,-1.0625 v -2.65625 q 0,-1.28907 -0.0625,-1.57032 -0.0547,-0.28125 -0.17969,-0.38281 -0.11719,-0.10156 -0.32031,-0.10156 -0.21875,0 -0.52344,0.11719 l -0.11719,-0.28125 2.15625,-0.875 h 0.33594 z"
         style="stroke-width:1"
         id="path251" />
      <path
         d="m 207.22656,242.36719 q -0.52344,0.54687 -1.02344,0.78906 -0.5,0.23437 -1.07812,0.23437 -1.17188,0 -2.04688,-0.97656 -0.875,-0.98437 -0.875,-2.52344 0,-1.53906 0.96875,-2.8125 0.96875,-1.28125 2.49219,-1.28125 0.94531,0 1.5625,0.60157 v -1.32032 q 0,-1.22656 -0.0625,-1.50781 -0.0547,-0.28125 -0.17969,-0.38281 -0.125,-0.10156 -0.3125,-0.10156 -0.20312,0 -0.53906,0.125 l -0.10156,-0.27344 2.13281,-0.875 h 0.35156 v 8.27344 q 0,1.25781 0.0547,1.53906 0.0625,0.27344 0.1875,0.38281 0.13281,0.10938 0.30469,0.10938 0.21094,0 0.5625,-0.13282 l 0.0859,0.27344 -2.125,0.88281 h -0.35938 z m 0,-0.54688 v -3.6875 q -0.0469,-0.53125 -0.28125,-0.96875 -0.23437,-0.4375 -0.625,-0.65625 -0.38281,-0.22656 -0.75,-0.22656 -0.6875,0 -1.22656,0.61719 -0.71094,0.8125 -0.71094,2.375 0,1.57812 0.6875,2.42187 0.6875,0.83594 1.53125,0.83594 0.71094,0 1.375,-0.71094 z"
         style="stroke-width:1"
         id="path253" />
      <path
         d="m 211.99219,232.0625 q 0.32812,0 0.55468,0.23437 0.23438,0.22657 0.23438,0.55469 0,0.32813 -0.23438,0.5625 -0.22656,0.23438 -0.55468,0.23438 -0.32813,0 -0.5625,-0.23438 -0.23438,-0.23437 -0.23438,-0.5625 0,-0.32812 0.22656,-0.55469 0.23438,-0.23437 0.57032,-0.23437 z m 0.64843,3.74219 v 5.75 q 0,0.67187 0.0937,0.89843 0.10157,0.21875 0.28907,0.32813 0.19531,0.10937 0.70312,0.10937 v 0.28125 H 210.25 v -0.28125 q 0.52344,0 0.70312,-0.10156 0.17969,-0.10156 0.28125,-0.33594 0.10938,-0.23437 0.10938,-0.89843 v -2.75782 q 0,-1.16406 -0.0703,-1.50781 -0.0547,-0.25 -0.17188,-0.34375 -0.11719,-0.10156 -0.32031,-0.10156 -0.21875,0 -0.53125,0.11719 l -0.10938,-0.28125 2.15625,-0.875 z"
         style="stroke-width:1"
         id="path255" />
      <path
         d="m 218.66406,242.14062 q -1.10156,0.85157 -1.38281,0.98438 -0.42188,0.19531 -0.89844,0.19531 -0.74219,0 -1.22656,-0.50781 -0.47656,-0.50781 -0.47656,-1.33594 0,-0.52344 0.23437,-0.90625 0.32031,-0.53125 1.10938,-1 0.79687,-0.46875 2.64062,-1.14062 v -0.28125 q 0,-1.07032 -0.34375,-1.46875 -0.33594,-0.39844 -0.98437,-0.39844 -0.49219,0 -0.78125,0.26562 -0.29688,0.26563 -0.29688,0.60938 l 0.0156,0.45312 q 0,0.35938 -0.1875,0.55469 -0.17969,0.19531 -0.47657,0.19531 -0.28906,0 -0.47656,-0.20312 -0.17969,-0.20313 -0.17969,-0.55469 0,-0.67187 0.6875,-1.23437 0.6875,-0.5625 1.92969,-0.5625 0.95313,0 1.5625,0.32031 0.46094,0.24219 0.67969,0.75781 0.14062,0.33594 0.14062,1.375 v 2.42969 q 0,1.02344 0.0391,1.25781 0.0391,0.22656 0.125,0.30469 0.0937,0.0781 0.21093,0.0781 0.125,0 0.21875,-0.0547 0.16407,-0.10157 0.63282,-0.57032 v 0.4375 q -0.875,1.17188 -1.67188,1.17188 -0.38281,0 -0.60937,-0.26563 -0.22657,-0.26562 -0.23438,-0.90625 z m 0,-0.50781 v -2.72656 q -1.17969,0.46875 -1.52344,0.66406 -0.61718,0.34375 -0.88281,0.71875 -0.26562,0.375 -0.26562,0.82031 0,0.5625 0.33593,0.9375 0.33594,0.36719 0.77344,0.36719 0.59375,0 1.5625,-0.78125 z"
         style="stroke-width:1"
         id="path257" />
      <path
         d="m 223.78906,237.32031 q 1.25781,-1.51562 2.39844,-1.51562 0.58594,0 1.00781,0.29687 0.42188,0.28906 0.67188,0.96094 0.17187,0.46875 0.17187,1.4375 v 3.05469 q 0,0.67968 0.10938,0.92187 0.0859,0.19531 0.27343,0.30469 0.19532,0.10937 0.71094,0.10937 v 0.28125 h -3.53906 v -0.28125 h 0.14844 q 0.5,0 0.69531,-0.14843 0.20312,-0.15625 0.28125,-0.45313 0.0312,-0.11719 0.0312,-0.73437 V 238.625 q 0,-0.97656 -0.25781,-1.41406 -0.25,-0.44532 -0.85157,-0.44532 -0.92968,0 -1.85156,1.01563 v 3.77344 q 0,0.72656 0.0859,0.89843 0.10937,0.22657 0.29687,0.33594 0.19532,0.10156 0.78125,0.10156 v 0.28125 h -3.53906 v -0.28125 h 0.15625 q 0.54688,0 0.73438,-0.27343 0.19531,-0.28125 0.19531,-1.0625 v -2.65625 q 0,-1.28907 -0.0625,-1.57032 -0.0547,-0.28125 -0.17969,-0.38281 -0.11719,-0.10156 -0.32031,-0.10156 -0.21875,0 -0.52344,0.11719 l -0.11719,-0.28125 2.15625,-0.875 h 0.33594 z"
         style="stroke-width:1"
         id="path259" />
    </g>
    <g
       aria-label="0A0B0C0D"
       style="font-style:normal;font-weight:normal;font-size:16px;line-height:0%;font-family:'Arial Black';text-align:center;text-anchor:middle;fill:#000000;fill-opacity:1;stroke:none;stroke-width:1"
       id="text2359">
      <path
         d="m 145.90541,66.404999 q 2.08008,0 3.25195,1.484375 1.39649,1.757812 1.39649,5.830078 0,4.0625 -1.40625,5.839844 -1.16211,1.464843 -3.24219,1.464843 -2.08984,0 -3.36914,-1.601562 -1.2793,-1.611328 -1.2793,-5.732422 0,-4.042969 1.40625,-5.820312 1.16211,-1.464844 3.24219,-1.464844 z m 0,2.27539 q -0.49805,0 -0.88867,0.322266 -0.39063,0.3125 -0.60547,1.132813 -0.2832,1.064453 -0.2832,3.583984 0,2.519531 0.2539,3.466797 0.25391,0.9375 0.63477,1.25 0.39062,0.3125 0.88867,0.3125 0.49805,0 0.88867,-0.3125 0.39063,-0.322266 0.60547,-1.142578 0.2832,-1.054688 0.2832,-3.574219 0,-2.519531 -0.2539,-3.457031 -0.25391,-0.947266 -0.64453,-1.259766 -0.38086,-0.322266 -0.87891,-0.322266 z"
         style="font-style:normal;font-variant:normal;font-weight:bold;font-stretch:normal;font-size:20px;font-family:Arial;-inkscape-font-specification:'Arial Bold';stroke-width:1"
         id="path262" />
      <path
         d="m 165.91518,80.779999 h -3.14453 l -1.25,-3.251953 h -5.72266 l -1.18164,3.251953 h -3.06641 l 5.57617,-14.316406 h 3.05664 z m -5.32227,-5.664063 -1.97266,-5.3125 -1.93359,5.3125 z"
         style="font-style:normal;font-variant:normal;font-weight:bold;font-stretch:normal;font-size:20px;font-family:Arial;-inkscape-font-specification:'Arial Bold';stroke-width:1"
         id="path264" />
      <path
         d="m 171.49135,66.404999 q 2.08008,0 3.25195,1.484375 1.39649,1.757812 1.39649,5.830078 0,4.0625 -1.40625,5.839844 -1.16211,1.464843 -3.24219,1.464843 -2.08985,0 -3.36914,-1.601562 -1.2793,-1.611328 -1.2793,-5.732422 0,-4.042969 1.40625,-5.820312 1.16211,-1.464844 3.24219,-1.464844 z m 0,2.27539 q -0.49805,0 -0.88867,0.322266 -0.39063,0.3125 -0.60547,1.132813 -0.28321,1.064453 -0.28321,3.583984 0,2.519531 0.25391,3.466797 0.25391,0.9375 0.63477,1.25 0.39062,0.3125 0.88867,0.3125 0.49805,0 0.88867,-0.3125 0.39063,-0.322266 0.60547,-1.142578 0.2832,-1.054688 0.2832,-3.574219 0,-2.519531 -0.2539,-3.457031 -0.25391,-0.947266 -0.64454,-1.259766 -0.38085,-0.322266 -0.8789,-0.322266 z"
         style="font-style:normal;font-variant:normal;font-weight:bold;font-stretch:normal;font-size:20px;font-family:Arial;-inkscape-font-specification:'Arial Bold';stroke-width:1"
         id="path266" />
      <path
         d="m 178.60072,66.463593 h 5.72266 q 1.69922,0 2.5293,0.146484 0.83984,0.136719 1.49414,0.585937 0.66406,0.449219 1.10351,1.201172 0.43946,0.742188 0.43946,1.669922 0,1.00586 -0.54688,1.845703 -0.53711,0.839844 -1.46484,1.259766 1.30859,0.380859 2.01172,1.298828 0.70312,0.917969 0.70312,2.158203 0,0.976563 -0.45898,1.904297 -0.44922,0.917969 -1.24024,1.474609 -0.78125,0.546875 -1.93359,0.673829 -0.72266,0.07813 -3.48633,0.09766 h -4.87305 z m 2.89063,2.382812 v 3.310547 h 1.89453 q 1.68945,0 2.09961,-0.04883 0.74219,-0.08789 1.16211,-0.507813 0.42969,-0.429687 0.42969,-1.123047 0,-0.664062 -0.3711,-1.074218 -0.36133,-0.419922 -1.08398,-0.507813 -0.42969,-0.04883 -2.47071,-0.04883 z m 0,5.693359 v 3.828125 h 2.67578 q 1.5625,0 1.98242,-0.08789 0.64453,-0.117188 1.04492,-0.566406 0.41016,-0.458985 0.41016,-1.220704 0,-0.644531 -0.3125,-1.09375 -0.3125,-0.449218 -0.9082,-0.654296 -0.58594,-0.205079 -2.5586,-0.205079 z"
         style="font-style:normal;font-variant:normal;font-weight:bold;font-stretch:normal;font-size:20px;font-family:Arial;-inkscape-font-specification:'Arial Bold';stroke-width:1"
         id="path268" />
      <path
         d="m 197.07729,66.404999 q 2.08007,0 3.25195,1.484375 1.39648,1.757812 1.39648,5.830078 0,4.0625 -1.40625,5.839844 -1.16211,1.464843 -3.24218,1.464843 -2.08985,0 -3.36914,-1.601562 -1.2793,-1.611328 -1.2793,-5.732422 0,-4.042969 1.40625,-5.820312 1.16211,-1.464844 3.24219,-1.464844 z m 0,2.27539 q -0.49805,0 -0.88868,0.322266 -0.39062,0.3125 -0.60546,1.132813 -0.28321,1.064453 -0.28321,3.583984 0,2.519531 0.25391,3.466797 0.2539,0.9375 0.63476,1.25 0.39063,0.3125 0.88868,0.3125 0.49804,0 0.88867,-0.3125 0.39062,-0.322266 0.60547,-1.142578 0.2832,-1.054688 0.2832,-3.574219 0,-2.519531 -0.25391,-3.457031 -0.2539,-0.947266 -0.64453,-1.259766 -0.38086,-0.322266 -0.8789,-0.322266 z"
         style="font-style:normal;font-variant:normal;font-weight:bold;font-stretch:normal;font-size:20px;font-family:Arial;-inkscape-font-specification:'Arial Bold';stroke-width:1"
         id="path270" />
      <path
         d="m 213.33705,75.516327 2.80274,0.888672 q -0.64454,2.34375 -2.14844,3.486328 -1.49414,1.132812 -3.79883,1.132812 -2.85156,0 -4.6875,-1.943359 -1.83594,-1.953125 -1.83594,-5.332031 0,-3.574219 1.84571,-5.546875 1.8457,-1.982422 4.85351,-1.982422 2.62695,0 4.26758,1.552734 0.97656,0.917969 1.46484,2.636719 l -2.86132,0.683594 q -0.25391,-1.113281 -1.06446,-1.757813 -0.80078,-0.644531 -1.95312,-0.644531 -1.5918,0 -2.58789,1.142578 -0.98633,1.142578 -0.98633,3.701172 0,2.714844 0.97656,3.867188 0.97656,1.152343 2.53906,1.152343 1.15235,0 1.98243,-0.732422 0.83007,-0.732421 1.1914,-2.304687 z"
         style="font-style:normal;font-variant:normal;font-weight:bold;font-stretch:normal;font-size:20px;font-family:Arial;-inkscape-font-specification:'Arial Bold';stroke-width:1"
         id="path272" />
      <path
         d="m 222.66322,66.404999 q 2.08008,0 3.25196,1.484375 1.39648,1.757812 1.39648,5.830078 0,4.0625 -1.40625,5.839844 -1.16211,1.464843 -3.24219,1.464843 -2.08984,0 -3.36914,-1.601562 -1.27929,-1.611328 -1.27929,-5.732422 0,-4.042969 1.40625,-5.820312 1.16211,-1.464844 3.24218,-1.464844 z m 0,2.27539 q -0.49804,0 -0.88867,0.322266 -0.39062,0.3125 -0.60547,1.132813 -0.2832,1.064453 -0.2832,3.583984 0,2.519531 0.25391,3.466797 0.2539,0.9375 0.63476,1.25 0.39063,0.3125 0.88867,0.3125 0.49805,0 0.88868,-0.3125 0.39062,-0.322266 0.60546,-1.142578 0.28321,-1.054688 0.28321,-3.574219 0,-2.519531 -0.25391,-3.457031 -0.25391,-0.947266 -0.64453,-1.259766 -0.38086,-0.322266 -0.87891,-0.322266 z"
         style="font-style:normal;font-variant:normal;font-weight:bold;font-stretch:normal;font-size:20px;font-family:Arial;-inkscape-font-specification:'Arial Bold';stroke-width:1"
         id="path274" />
      <path
         d="m 229.75307,66.463593 h 5.2832 q 1.78711,0 2.72461,0.273437 1.25977,0.371094 2.1582,1.318359 0.89844,0.947266 1.36719,2.324219 0.46875,1.367188 0.46875,3.378906 0,1.767579 -0.43945,3.046875 -0.53711,1.5625 -1.53321,2.529297 -0.75195,0.732422 -2.03125,1.142578 -0.95703,0.302735 -2.55859,0.302735 h -5.43945 z m 2.89062,2.421875 v 9.482421 h 2.15821 q 1.21093,0 1.74804,-0.136718 0.70313,-0.175782 1.16211,-0.595703 0.46875,-0.419922 0.76172,-1.376954 0.29297,-0.966796 0.29297,-2.626953 0,-1.660156 -0.29297,-2.548828 -0.29297,-0.888672 -0.82031,-1.386719 -0.52735,-0.498046 -1.33789,-0.673828 -0.60547,-0.136718 -2.37305,-0.136718 z"
         style="font-style:normal;font-variant:normal;font-weight:bold;font-stretch:normal;font-size:20px;font-family:Arial;-inkscape-font-specification:'Arial Bold';stroke-width:1"
         id="path276" />
    </g>
    <g
       aria-label="0A"
       style="font-style:normal;font-weight:normal;font-size:20px;line-height:0%;font-family:'Arial Black';text-align:center;text-anchor:middle;fill:#000000;fill-opacity:1;stroke:none;stroke-width:1"
       id="text3184">
      <path
         d="m 68.483002,119.44763 q 1.87207,0 2.926758,1.33594 1.256835,1.58203 1.256835,5.24707 0,3.65625 -1.265625,5.25586 -1.045898,1.31836 -2.917968,1.31836 -1.88086,0 -3.032227,-1.44141 -1.151367,-1.45019 -1.151367,-5.15918 0,-3.63867 1.265625,-5.23828 1.045898,-1.31836 2.917969,-1.31836 z m 0,2.04785 q -0.448242,0 -0.799805,0.29004 -0.351562,0.28125 -0.544922,1.01953 -0.254883,0.95801 -0.254883,3.22559 0,2.26758 0.228516,3.12012 0.228516,0.84375 0.571289,1.125 0.351563,0.28125 0.799805,0.28125 0.448242,0 0.799804,-0.28125 0.351563,-0.29004 0.544922,-1.02832 0.254883,-0.94922 0.254883,-3.2168 0,-2.26758 -0.228516,-3.11133 -0.228515,-0.85254 -0.580078,-1.13379 -0.342773,-0.29004 -0.791015,-0.29004 z"
         style="font-style:normal;font-variant:normal;font-weight:bold;font-stretch:normal;font-size:18px;font-family:Arial;-inkscape-font-specification:'Arial Bold';stroke:none;stroke-width:1"
         id="path279" />
      <path
         d="m 86.491791,132.38513 h -2.830078 l -1.125,-2.92676 h -5.150391 l -1.063477,2.92676 H 73.56308 l 5.018555,-12.88476 h 2.750976 z m -4.790039,-5.09765 -1.775391,-4.78125 -1.740234,4.78125 z"
         style="font-style:normal;font-variant:normal;font-weight:bold;font-stretch:normal;font-size:18px;font-family:Arial;-inkscape-font-specification:'Arial Bold';stroke:none;stroke-width:1"
         id="path281" />
    </g>
    <g
       aria-label="0B"
       style="font-style:normal;font-weight:normal;font-size:20px;line-height:0%;font-family:'Arial Black';text-align:center;text-anchor:middle;fill:#000000;fill-opacity:1;stroke:none;stroke-width:1"
       id="text3192">
      <path
         d="m 68.483002,149.44765 q 1.87207,0 2.926758,1.33593 1.256835,1.58204 1.256835,5.24707 0,3.65625 -1.265625,5.25586 -1.045898,1.31836 -2.917968,1.31836 -1.88086,0 -3.032227,-1.4414 -1.151367,-1.4502 -1.151367,-5.15918 0,-3.63867 1.265625,-5.23828 1.045898,-1.31836 2.917969,-1.31836 z m 0,2.04785 q -0.448242,0 -0.799805,0.29004 -0.351562,0.28125 -0.544922,1.01953 -0.254883,0.95801 -0.254883,3.22558 0,2.26758 0.228516,3.12012 0.228516,0.84375 0.571289,1.125 0.351563,0.28125 0.799805,0.28125 0.448242,0 0.799804,-0.28125 0.351563,-0.29004 0.544922,-1.02832 0.254883,-0.94922 0.254883,-3.2168 0,-2.26757 -0.228516,-3.11132 -0.228515,-0.85254 -0.580078,-1.13379 -0.342773,-0.29004 -0.791015,-0.29004 z"
         style="font-style:normal;font-variant:normal;font-weight:bold;font-stretch:normal;font-size:18px;font-family:Arial;-inkscape-font-specification:'Arial Bold';stroke:none;stroke-width:1"
         id="path284" />
      <path
         d="m 74.881439,149.50038 h 5.150391 q 1.529297,0 2.276367,0.13184 0.755859,0.12304 1.344727,0.52734 0.597656,0.4043 0.993164,1.08106 0.395507,0.66796 0.395507,1.50293 0,0.90527 -0.492187,1.66113 -0.483398,0.75586 -1.318359,1.13379 1.177734,0.34277 1.810546,1.16894 0.632813,0.82617 0.632813,1.94239 0,0.8789 -0.413086,1.71386 -0.404297,0.82617 -1.116211,1.32715 -0.703125,0.49219 -1.740234,0.60645 -0.650391,0.0703 -3.137696,0.0879 h -4.385742 z m 2.601563,2.14453 v 2.97949 h 1.705078 q 1.520508,0 1.889648,-0.0439 0.667969,-0.0791 1.045899,-0.45703 0.386718,-0.38672 0.386718,-1.01074 0,-0.59766 -0.333984,-0.9668 -0.325195,-0.37793 -0.975586,-0.45703 -0.386719,-0.0439 -2.223633,-0.0439 z m 0,5.12403 v 3.44531 h 2.408203 q 1.40625,0 1.78418,-0.0791 0.580078,-0.10547 0.940429,-0.50977 0.369141,-0.41308 0.369141,-1.09863 0,-0.58008 -0.28125,-0.98438 -0.28125,-0.40429 -0.817383,-0.58886 -0.527344,-0.18457 -2.302734,-0.18457 z"
         style="font-style:normal;font-variant:normal;font-weight:bold;font-stretch:normal;font-size:18px;font-family:Arial;-inkscape-font-specification:'Arial Bold';stroke:none;stroke-width:1"
         id="path286" />
    </g>
    <g
       aria-label="0C"
       style="font-style:normal;font-weight:normal;font-size:20px;line-height:0%;font-family:'Arial Black';text-align:center;text-anchor:middle;fill:#000000;fill-opacity:1;stroke:none;stroke-width:1"
       id="text3200">
      <path
         d="m 68.483002,179.44763 q 1.87207,0 2.926758,1.33594 1.256835,1.58203 1.256835,5.24707 0,3.65625 -1.265625,5.25586 -1.045898,1.31836 -2.917968,1.31836 -1.88086,0 -3.032227,-1.44141 -1.151367,-1.45019 -1.151367,-5.15918 0,-3.63867 1.265625,-5.23828 1.045898,-1.31836 2.917969,-1.31836 z m 0,2.04785 q -0.448242,0 -0.799805,0.29004 -0.351562,0.28125 -0.544922,1.01953 -0.254883,0.95801 -0.254883,3.22559 0,2.26758 0.228516,3.12012 0.228516,0.84375 0.571289,1.125 0.351563,0.28125 0.799805,0.28125 0.448242,0 0.799804,-0.28125 0.351563,-0.29004 0.544922,-1.02832 0.254883,-0.94922 0.254883,-3.2168 0,-2.26758 -0.228516,-3.11133 -0.228515,-0.85254 -0.580078,-1.13379 -0.342773,-0.29004 -0.791015,-0.29004 z"
         style="font-style:normal;font-variant:normal;font-weight:bold;font-stretch:normal;font-size:18px;font-family:Arial;-inkscape-font-specification:'Arial Bold';stroke:none;stroke-width:1"
         id="path289" />
      <path
         d="m 83.116791,187.64783 2.522461,0.7998 q -0.580078,2.10938 -1.933594,3.1377 -1.344727,1.01953 -3.418945,1.01953 -2.566407,0 -4.21875,-1.74903 -1.652344,-1.75781 -1.652344,-4.79882 0,-3.2168 1.661133,-4.99219 1.661133,-1.78418 4.368164,-1.78418 2.364258,0 3.84082,1.39746 0.878906,0.82617 1.318359,2.37305 l -2.575195,0.61523 q -0.228515,-1.00195 -0.958008,-1.58203 -0.720703,-0.58008 -1.757812,-0.58008 -1.432617,0 -2.329102,1.02832 -0.887695,1.02832 -0.887695,3.33106 0,2.44336 0.878906,3.48047 0.878906,1.03711 2.285156,1.03711 1.03711,0 1.78418,-0.65918 0.74707,-0.65918 1.072266,-2.07422 z"
         style="font-style:normal;font-variant:normal;font-weight:bold;font-stretch:normal;font-size:18px;font-family:Arial;-inkscape-font-specification:'Arial Bold';stroke:none;stroke-width:1"
         id="path291" />
    </g>
    <g
       aria-label="0D"
       style="font-style:normal;font-weight:normal;font-size:20px;line-height:0%;font-family:'Arial Black';text-align:center;text-anchor:middle;fill:#000000;fill-opacity:1;stroke:none;stroke-width:1"
       id="text2181">
      <path
         d="m 68.483002,209.44763 q 1.87207,0 2.926758,1.33594 1.256835,1.58203 1.256835,5.24707 0,3.65625 -1.265625,5.25586 -1.045898,1.31836 -2.917968,1.31836 -1.88086,0 -3.032227,-1.44141 -1.151367,-1.45019 -1.151367,-5.15918 0,-3.63867 1.265625,-5.23828 1.045898,-1.31836 2.917969,-1.31836 z m 0,2.04785 q -0.448242,0 -0.799805,0.29004 -0.351562,0.28125 -0.544922,1.01953 -0.254883,0.95801 -0.254883,3.22559 0,2.26758 0.228516,3.12012 0.228516,0.84375 0.571289,1.125 0.351563,0.28125 0.799805,0.28125 0.448242,0 0.799804,-0.28125 0.351563,-0.29004 0.544922,-1.02832 0.254883,-0.94922 0.254883,-3.2168 0,-2.26758 -0.228516,-3.11133 -0.228515,-0.85254 -0.580078,-1.13379 -0.342773,-0.29004 -0.791015,-0.29004 z"
         style="font-style:normal;font-variant:normal;font-weight:bold;font-stretch:normal;font-size:18px;font-family:Arial;-inkscape-font-specification:'Arial Bold';stroke:none;stroke-width:1"
         id="path294" />
      <path
         d="m 74.863861,209.50037 h 4.754883 q 1.608398,0 2.452148,0.24609 1.133789,0.33398 1.942383,1.18652 0.808594,0.85254 1.230469,2.0918 0.421875,1.23047 0.421875,3.04102 0,1.59082 -0.395508,2.74218 -0.483398,1.40625 -1.379883,2.27637 -0.676758,0.65918 -1.828125,1.02832 -0.861328,0.27246 -2.302734,0.27246 h -4.895508 z m 2.601563,2.17968 v 8.53418 h 1.942382 q 1.089844,0 1.573243,-0.12304 0.632812,-0.15821 1.045898,-0.53614 0.421875,-0.37793 0.685547,-1.23925 0.263672,-0.87012 0.263672,-2.36426 0,-1.49414 -0.263672,-2.29395 -0.263672,-0.7998 -0.738281,-1.24804 -0.47461,-0.44825 -1.204102,-0.60645 -0.544922,-0.12305 -2.135742,-0.12305 z"
         style="font-style:normal;font-variant:normal;font-weight:bold;font-stretch:normal;font-size:18px;font-family:Arial;-inkscape-font-specification:'Arial Bold';stroke:none;stroke-width:1"
         id="path296" />
    </g>
    <g
       aria-label="a:"
       style="font-style:normal;font-weight:normal;font-size:18px;line-height:0%;font-family:'Times New Roman';text-align:center;text-anchor:middle;fill:#000000;fill-opacity:1;stroke:none;stroke-width:1"
       id="text3333">
      <path
         d="m 51.499641,123.0498 -1.713867,5.95899 -0.193359,0.7998 q -0.02637,0.11426 -0.02637,0.19336 0,0.14063 0.08789,0.2461 0.07031,0.0791 0.175782,0.0791 0.114257,0 0.298828,-0.14063 0.342773,-0.25488 0.914062,-1.05468 l 0.298828,0.21093 q -0.606445,0.91407 -1.248047,1.39746 -0.641601,0.47461 -1.186523,0.47461 -0.37793,0 -0.571289,-0.19336 -0.18457,-0.18457 -0.18457,-0.54492 0,-0.43066 0.193359,-1.13379 l 0.18457,-0.65918 q -1.151367,1.50293 -2.118164,2.10059 -0.694336,0.43066 -1.362304,0.43066 -0.641602,0 -1.107422,-0.52734 -0.465821,-0.53613 -0.465821,-1.46777 0,-1.39746 0.834961,-2.94434 0.84375,-1.55566 2.135742,-2.4873 1.010743,-0.73829 1.907227,-0.73829 0.536133,0 0.887695,0.28125 0.360352,0.28125 0.544922,0.93165 l 0.316406,-1.00196 z m -3.128906,0.45704 q -0.5625,0 -1.195312,0.52734 -0.896485,0.74707 -1.59961,2.21484 -0.694336,1.46778 -0.694336,2.6543 0,0.59766 0.298828,0.94922 0.298829,0.34277 0.685547,0.34277 0.958008,0 2.083008,-1.41504 1.50293,-1.88086 1.50293,-3.85839 0,-0.74708 -0.290039,-1.08106 -0.290039,-0.33398 -0.791016,-0.33398 z"
         style="font-style:italic;font-size:18px;text-align:end;text-anchor:end;stroke:none;stroke-width:1"
         id="path299" />
      <path
         d="m 54.593391,122.70703 q 0.404297,0 0.685547,0.29004 0.290039,0.28125 0.290039,0.68555 0,0.40429 -0.290039,0.69433 -0.28125,0.28125 -0.685547,0.28125 -0.404296,0 -0.694336,-0.28125 -0.28125,-0.29004 -0.28125,-0.69433 0,-0.4043 0.28125,-0.68555 0.29004,-0.29004 0.694336,-0.29004 z m -0.01758,6.58301 q 0.413086,0 0.694336,0.29004 0.290039,0.29004 0.290039,0.69433 0,0.4043 -0.290039,0.69434 -0.290039,0.28125 -0.694336,0.28125 -0.404297,0 -0.694336,-0.28125 -0.28125,-0.29004 -0.28125,-0.69434 0,-0.40429 0.28125,-0.69433 0.290039,-0.29004 0.694336,-0.29004 z"
         style="font-style:normal;font-variant:normal;font-weight:normal;font-stretch:normal;font-size:18px;line-height:125%;font-family:'Times New Roman';text-align:end;writing-mode:lr-tb;text-anchor:end;stroke:none;stroke-width:1"
         id="path301" />
    </g>
    <g
       aria-label="a+1:"
       style="font-style:normal;font-weight:normal;font-size:18px;line-height:0%;font-family:'Times New Roman';text-align:center;text-anchor:middle;fill:#000000;fill-opacity:1;stroke:none;stroke-width:1"
       id="text3323">
      <path
         d="m 32.339485,153.0498 -1.713867,5.95899 -0.193359,0.7998 q -0.02637,0.11426 -0.02637,0.19336 0,0.14063 0.08789,0.2461 0.07031,0.0791 0.175781,0.0791 0.114258,0 0.298828,-0.14063 0.342774,-0.25488 0.914063,-1.05468 l 0.298828,0.21093 q -0.606445,0.91407 -1.248047,1.39746 -0.641601,0.47461 -1.186523,0.47461 -0.37793,0 -0.571289,-0.19336 -0.184571,-0.18457 -0.184571,-0.54492 0,-0.43066 0.19336,-1.13379 l 0.18457,-0.65918 q -1.151367,1.50293 -2.118164,2.10059 -0.694336,0.43066 -1.362305,0.43066 -0.641601,0 -1.107422,-0.52734 -0.46582,-0.53613 -0.46582,-1.46777 0,-1.39746 0.834961,-2.94434 0.84375,-1.55566 2.135742,-2.4873 1.010742,-0.73829 1.907227,-0.73829 0.536133,0 0.887695,0.28125 0.360352,0.28125 0.544922,0.93165 l 0.316406,-1.00196 z m -3.128906,0.45704 q -0.5625,0 -1.195313,0.52734 -0.896484,0.74707 -1.599609,2.21484 -0.694336,1.46778 -0.694336,2.6543 0,0.59766 0.298828,0.94922 0.298828,0.34277 0.685547,0.34277 0.958008,0 2.083008,-1.41504 1.50293,-1.88086 1.50293,-3.8584 0,-0.74707 -0.290039,-1.08105 -0.29004,-0.33398 -0.791016,-0.33398 z"
         style="font-style:italic;font-size:18px;text-align:end;text-anchor:end;stroke:none;stroke-width:1"
         id="path304" />
      <path
         d="m 37.595345,159.76465 v -4.38574 h -4.376954 v -0.72071 h 4.376954 v -4.36816 h 0.703125 v 4.36816 h 4.394531 v 0.72071 H 38.29847 v 4.38574 z"
         style="font-style:normal;font-variant:normal;font-weight:normal;font-stretch:normal;font-size:18px;line-height:125%;font-family:'Times New Roman';text-align:end;writing-mode:lr-tb;text-anchor:end;stroke:none;stroke-width:1"
         id="path306" />
      <path
         d="m 45.162727,150.25488 2.900391,-1.41504 h 0.290039 v 10.06348 q 0,1.00195 0.0791,1.24805 0.08789,0.24609 0.351562,0.37793 0.263672,0.13183 1.072266,0.14941 v 0.3252 h -4.482422 v -0.3252 q 0.84375,-0.0176 1.089844,-0.14062 0.246093,-0.13184 0.342773,-0.34278 0.09668,-0.21972 0.09668,-1.29199 v -6.43359 q 0,-1.30078 -0.08789,-1.66993 -0.06152,-0.28125 -0.228516,-0.41308 -0.158203,-0.13184 -0.386718,-0.13184 -0.325196,0 -0.905274,0.27246 z"
         style="font-style:normal;font-variant:normal;font-weight:normal;font-stretch:normal;font-size:18px;line-height:125%;font-family:'Times New Roman';text-align:end;writing-mode:lr-tb;text-anchor:end;stroke:none;stroke-width:1"
         id="path308" />
      <path
         d="m 54.593391,152.70703 q 0.404297,0 0.685547,0.29004 0.290039,0.28125 0.290039,0.68555 0,0.40429 -0.290039,0.69433 -0.28125,0.28125 -0.685547,0.28125 -0.404296,0 -0.694336,-0.28125 -0.28125,-0.29004 -0.28125,-0.69433 0,-0.4043 0.28125,-0.68555 0.29004,-0.29004 0.694336,-0.29004 z m -0.01758,6.58301 q 0.413086,0 0.694336,0.29004 0.290039,0.29004 0.290039,0.69433 0,0.4043 -0.290039,0.69434 -0.290039,0.28125 -0.694336,0.28125 -0.404297,0 -0.694336,-0.28125 -0.28125,-0.29004 -0.28125,-0.69434 0,-0.40429 0.28125,-0.69433 0.290039,-0.29004 0.694336,-0.29004 z"
         style="font-style:normal;font-variant:normal;font-weight:normal;font-stretch:normal;font-size:18px;line-height:125%;font-family:'Times New Roman';text-align:end;writing-mode:lr-tb;text-anchor:end;stroke:none;stroke-width:1"
         id="path310" />
    </g>
    <g
       aria-label="a+2:"
       style="font-style:normal;font-weight:normal;font-size:18px;line-height:0%;font-family:'Times New Roman';text-align:center;text-anchor:middle;fill:#000000;fill-opacity:1;stroke:none;stroke-width:1"
       id="text3313">
      <path
         d="m 32.339485,183.0498 -1.713867,5.95899 -0.193359,0.7998 q -0.02637,0.11426 -0.02637,0.19336 0,0.14063 0.08789,0.2461 0.07031,0.0791 0.175781,0.0791 0.114258,0 0.298828,-0.14063 0.342774,-0.25488 0.914063,-1.05468 l 0.298828,0.21093 q -0.606445,0.91407 -1.248047,1.39746 -0.641601,0.47461 -1.186523,0.47461 -0.37793,0 -0.571289,-0.19336 -0.184571,-0.18457 -0.184571,-0.54492 0,-0.43066 0.19336,-1.13379 l 0.18457,-0.65918 q -1.151367,1.50293 -2.118164,2.10059 -0.694336,0.43066 -1.362305,0.43066 -0.641601,0 -1.107422,-0.52734 -0.46582,-0.53613 -0.46582,-1.46777 0,-1.39746 0.834961,-2.94434 0.84375,-1.55566 2.135742,-2.4873 1.010742,-0.73829 1.907227,-0.73829 0.536133,0 0.887695,0.28125 0.360352,0.28125 0.544922,0.93165 l 0.316406,-1.00196 z m -3.128906,0.45704 q -0.5625,0 -1.195313,0.52734 -0.896484,0.74707 -1.599609,2.21484 -0.694336,1.46778 -0.694336,2.6543 0,0.59766 0.298828,0.94922 0.298828,0.34277 0.685547,0.34277 0.958008,0 2.083008,-1.41504 1.50293,-1.88086 1.50293,-3.8584 0,-0.74707 -0.290039,-1.08105 -0.29004,-0.33398 -0.791016,-0.33398 z"
         style="font-style:italic;font-size:18px;text-align:end;text-anchor:end;stroke:none;stroke-width:1"
         id="path313" />
      <path
         d="m 37.595345,189.76465 v -4.38574 h -4.376954 v -0.72071 h 4.376954 v -4.36816 h 0.703125 v 4.36816 h 4.394531 v 0.72071 H 38.29847 v 4.38574 z"
         style="font-style:normal;font-variant:normal;font-weight:normal;font-stretch:normal;font-size:18px;line-height:125%;font-family:'Times New Roman';text-align:end;writing-mode:lr-tb;text-anchor:end;stroke:none;stroke-width:1"
         id="path315" />
      <path
         d="m 51.306282,188.70996 -0.834961,2.29395 h -7.03125 v -0.3252 q 3.102539,-2.83008 4.368164,-4.62305 1.265625,-1.79296 1.265625,-3.27832 0,-1.13379 -0.694336,-1.86328 -0.694336,-0.72949 -1.661133,-0.72949 -0.878906,0 -1.582031,0.51855 -0.694336,0.50977 -1.02832,1.50293 h -0.325195 q 0.219726,-1.62597 1.125,-2.49609 0.914062,-0.87012 2.276367,-0.87012 1.450195,0 2.416992,0.93164 0.975586,0.93164 0.975586,2.19727 0,0.90527 -0.421875,1.81055 -0.650391,1.42382 -2.109375,3.01465 -2.188477,2.39062 -2.733399,2.88281 h 3.111329 q 0.949218,0 1.327148,-0.0703 0.386719,-0.0703 0.694336,-0.28125 0.307617,-0.21973 0.536133,-0.61524 z"
         style="font-style:normal;font-variant:normal;font-weight:normal;font-stretch:normal;font-size:18px;line-height:125%;font-family:'Times New Roman';text-align:end;writing-mode:lr-tb;text-anchor:end;stroke:none;stroke-width:1"
         id="path317" />
      <path
         d="m 54.593391,182.70703 q 0.404297,0 0.685547,0.29004 0.290039,0.28125 0.290039,0.68555 0,0.40429 -0.290039,0.69433 -0.28125,0.28125 -0.685547,0.28125 -0.404296,0 -0.694336,-0.28125 -0.28125,-0.29004 -0.28125,-0.69433 0,-0.4043 0.28125,-0.68555 0.29004,-0.29004 0.694336,-0.29004 z m -0.01758,6.58301 q 0.413086,0 0.694336,0.29004 0.290039,0.29004 0.290039,0.69433 0,0.4043 -0.290039,0.69434 -0.290039,0.28125 -0.694336,0.28125 -0.404297,0 -0.694336,-0.28125 -0.28125,-0.29004 -0.28125,-0.69434 0,-0.40429 0.28125,-0.69433 0.290039,-0.29004 0.694336,-0.29004 z"
         style="font-style:normal;font-variant:normal;font-weight:normal;font-stretch:normal;font-size:18px;line-height:125%;font-family:'Times New Roman';text-align:end;writing-mode:lr-tb;text-anchor:end;stroke:none;stroke-width:1"
         id="path319" />
    </g>
    <g
       aria-label="a+3:"
       style="font-style:normal;font-weight:normal;font-size:18px;line-height:0%;font-family:'Times New Roman';text-align:center;text-anchor:middle;fill:#000000;fill-opacity:1;stroke:none;stroke-width:1"
       id="text3283">
      <path
         d="m 32.339485,213.0498 -1.713867,5.95899 -0.193359,0.7998 q -0.02637,0.11426 -0.02637,0.19336 0,0.14063 0.08789,0.2461 0.07031,0.0791 0.175781,0.0791 0.114258,0 0.298828,-0.14063 0.342774,-0.25488 0.914063,-1.05468 l 0.298828,0.21093 q -0.606445,0.91407 -1.248047,1.39746 -0.641601,0.47461 -1.186523,0.47461 -0.37793,0 -0.571289,-0.19336 -0.184571,-0.18457 -0.184571,-0.54492 0,-0.43066 0.19336,-1.13379 l 0.18457,-0.65918 q -1.151367,1.50293 -2.118164,2.10059 -0.694336,0.43066 -1.362305,0.43066 -0.641601,0 -1.107422,-0.52734 -0.46582,-0.53613 -0.46582,-1.46777 0,-1.39746 0.834961,-2.94434 0.84375,-1.55566 2.135742,-2.4873 1.010742,-0.73829 1.907227,-0.73829 0.536133,0 0.887695,0.28125 0.360352,0.28125 0.544922,0.93165 l 0.316406,-1.00196 z m -3.128906,0.45704 q -0.5625,0 -1.195313,0.52734 -0.896484,0.74707 -1.599609,2.21484 -0.694336,1.46778 -0.694336,2.6543 0,0.59766 0.298828,0.94922 0.298828,0.34277 0.685547,0.34277 0.958008,0 2.083008,-1.41504 1.50293,-1.88086 1.50293,-3.8584 0,-0.74707 -0.290039,-1.08105 -0.29004,-0.33398 -0.791016,-0.33398 z"
         style="font-style:italic;font-size:18px;text-align:end;text-anchor:end;stroke:none;stroke-width:1"
         id="path322" />
      <path
         d="m 37.595345,219.76465 v -4.38574 h -4.376954 v -0.72071 h 4.376954 v -4.36816 h 0.703125 v 4.36816 h 4.394531 v 0.72071 H 38.29847 v 4.38574 z"
         style="font-style:normal;font-variant:normal;font-weight:normal;font-stretch:normal;font-size:18px;line-height:125%;font-family:'Times New Roman';text-align:end;writing-mode:lr-tb;text-anchor:end;stroke:none;stroke-width:1"
         id="path324" />
      <path
         d="m 43.967415,211.35352 q 0.509765,-1.20411 1.283203,-1.8545 0.782227,-0.65918 1.942383,-0.65918 1.432617,0 2.197265,0.93164 0.580079,0.69434 0.580079,1.48536 0,1.30078 -1.634766,2.68945 1.098633,0.43066 1.661133,1.23047 0.5625,0.7998 0.5625,1.88086 0,1.54687 -0.984375,2.68066 -1.283203,1.47656 -3.717774,1.47656 -1.204101,0 -1.643554,-0.29882 -0.430664,-0.29883 -0.430664,-0.64161 0,-0.25488 0.202148,-0.44824 0.210937,-0.19336 0.500977,-0.19336 0.219726,0 0.448242,0.0703 0.149414,0.0439 0.676758,0.3252 0.527343,0.27246 0.729492,0.3252 0.325195,0.0967 0.694336,0.0967 0.896484,0 1.555664,-0.69434 0.667968,-0.69434 0.667968,-1.64356 0,-0.69433 -0.307617,-1.35351 -0.228515,-0.49219 -0.500976,-0.74707 -0.37793,-0.35156 -1.03711,-0.63281 -0.659179,-0.29004 -1.344726,-0.29004 h -0.28125 v -0.26367 q 0.694336,-0.0879 1.388672,-0.50098 0.703125,-0.41309 1.019531,-0.99317 0.316406,-0.58007 0.316406,-1.27441 0,-0.90527 -0.571289,-1.45898 -0.5625,-0.5625 -1.40625,-0.5625 -1.362305,0 -2.276367,1.45898 z"
         style="font-style:normal;font-variant:normal;font-weight:normal;font-stretch:normal;font-size:18px;line-height:125%;font-family:'Times New Roman';text-align:end;writing-mode:lr-tb;text-anchor:end;stroke:none;stroke-width:1"
         id="path326" />
      <path
         d="m 54.593391,212.70703 q 0.404297,0 0.685547,0.29004 0.290039,0.28125 0.290039,0.68555 0,0.40429 -0.290039,0.69433 -0.28125,0.28125 -0.685547,0.28125 -0.404296,0 -0.694336,-0.28125 -0.28125,-0.29004 -0.28125,-0.69433 0,-0.4043 0.28125,-0.68555 0.29004,-0.29004 0.694336,-0.29004 z m -0.01758,6.58301 q 0.413086,0 0.694336,0.29004 0.290039,0.29004 0.290039,0.69433 0,0.4043 -0.290039,0.69434 -0.290039,0.28125 -0.694336,0.28125 -0.404297,0 -0.694336,-0.28125 -0.28125,-0.29004 -0.28125,-0.69434 0,-0.40429 0.28125,-0.69433 0.290039,-0.29004 0.694336,-0.29004 z"
         style="font-style:normal;font-variant:normal;font-weight:normal;font-stretch:normal;font-size:18px;line-height:125%;font-family:'Times New Roman';text-align:end;writing-mode:lr-tb;text-anchor:end;stroke:none;stroke-width:1"
         id="path328" />
    </g>
  </g>
</svg>
