<?xml version="1.0" encoding="UTF-8" standalone="no"?>
<!-- Created with Inkscape (http://www.inkscape.org/) -->

<svg
   xmlns:dc="http://purl.org/dc/elements/1.1/"
   xmlns:cc="http://creativecommons.org/ns#"
   xmlns:rdf="http://www.w3.org/1999/02/22-rdf-syntax-ns#"
   xmlns:svg="http://www.w3.org/2000/svg"
   xmlns="http://www.w3.org/2000/svg"
   xmlns:sodipodi="http://sodipodi.sourceforge.net/DTD/sodipodi-0.dtd"
   xmlns:inkscape="http://www.inkscape.org/namespaces/inkscape"
   version="1.0"
   width="280"
   height="250"
   id="svg2328"
   inkscape:version="0.92.4 (5da689c313, 2019-01-14)"
   sodipodi:docname="Little-Endian.svg"
   viewBox="0 0 280 250">
  <metadata
     id="metadata84">
    <rdf:RDF>
      <cc:Work
         rdf:about="">
        <dc:format>image/svg+xml</dc:format>
        <dc:type
           rdf:resource="http://purl.org/dc/dcmitype/StillImage" />
        <dc:title></dc:title>
      </cc:Work>
    </rdf:RDF>
  </metadata>
  <sodipodi:namedview
     pagecolor="#ffffff"
     bordercolor="#666666"
     borderopacity="1"
     objecttolerance="10"
     gridtolerance="10"
     guidetolerance="10"
     inkscape:pageopacity="0"
     inkscape:pageshadow="2"
     inkscape:window-width="1201"
     inkscape:window-height="864"
     id="namedview82"
     showgrid="false"
     inkscape:zoom="2"
     inkscape:cx="151.1"
     inkscape:cy="136.48482"
     inkscape:window-x="700"
     inkscape:window-y="8"
     inkscape:window-maximized="0"
     inkscape:current-layer="layer3" />
  <defs
     id="defs2330">
    <inkscape:perspective
       sodipodi:type="inkscape:persp3d"
       inkscape:vp_x="0 : 133.33333 : 1"
       inkscape:vp_y="0 : 1066.6666 : 0"
       inkscape:vp_z="298.66667 : 133.33333 : 1"
       inkscape:persp3d-origin="149.33333 : 88.88889 : 1"
       id="perspective86" />
    <marker
       refX="0"
       refY="0"
       orient="auto"
       style="overflow:visible"
       id="Arrow1Lend">
      <path
         d="M 0,0 5,-5 -12.5,0 5,5 Z"
         transform="matrix(-0.8,0,0,-0.8,-10,0)"
         style="fill-rule:evenodd;stroke:#000000;stroke-width:1.00000003pt;marker-start:none"
         id="path3194"
         inkscape:connector-curvature="0" />
    </marker>
  </defs>
  <g
     inkscape:groupmode="layer"
     id="layer1"
     inkscape:label="all"
     transform="translate(0,-16.666656)">
    <path
       inkscape:connector-curvature="0"
       d="M 222.23229,230.80405 V 201 h 30.01078 v 29.80405 z"
       style="overflow:visible;fill:#ffffff;stroke:none;stroke-width:1"
       id="path2179" />
    <path
       inkscape:connector-curvature="0"
       d="M 222.23229,140.80406 V 111 h 30.01078 v 29.80406 z"
       style="overflow:visible;fill:#ffffff;stroke:none;stroke-width:1"
       id="path3182" />
    <path
       inkscape:connector-curvature="0"
       d="M 222.23229,170.80405 V 141 h 30.01078 v 29.80405 z"
       style="overflow:visible;fill:#ffffff;stroke:none;stroke-width:1"
       id="path3190" />
    <path
       inkscape:connector-curvature="0"
       d="m 222.23229,200.80405 v -29.80406 h 30.01078 v 29.80406 z"
       style="overflow:visible;fill:#ffffff;stroke:none;stroke-width:1"
       id="path3198" />
    <path
       id="path2185"
       style="fill:none;stroke:#000000;stroke-width:0.51429158;stroke-linecap:butt;stroke-linejoin:miter;stroke-miterlimit:4;stroke-dasharray:none;stroke-opacity:1"
       d="m 222.50022,231.25714 29.4857,0.17065"
       inkscape:connector-curvature="0" />
    <path
       id="path3158"
       style="fill:none;stroke:#000000;stroke-width:0.6337797;stroke-linecap:butt;stroke-linejoin:miter;stroke-miterlimit:4;stroke-dasharray:none;stroke-opacity:1"
       d="m 222.61111,96.31689 -0.0512,149.36621"
       inkscape:connector-curvature="0" />
    <path
       id="path3168"
       style="fill:none;stroke:#000000;stroke-width:0.63377368;stroke-linecap:butt;stroke-linejoin:miter;stroke-miterlimit:4;stroke-dasharray:none;stroke-opacity:1"
       d="m 252.61111,96.31689 -0.0512,149.36621"
       inkscape:connector-curvature="0" />
    <path
       id="path3170"
       style="fill:none;stroke:#000000;stroke-width:0.51429158;stroke-linecap:butt;stroke-linejoin:miter;stroke-miterlimit:4;stroke-dasharray:none;stroke-opacity:1"
       d="m 222.50022,201.25714 29.4857,0.17065"
       inkscape:connector-curvature="0" />
    <path
       id="path3172"
       style="fill:none;stroke:#000000;stroke-width:0.51429158;stroke-linecap:butt;stroke-linejoin:miter;stroke-miterlimit:4;stroke-dasharray:none;stroke-opacity:1"
       d="m 222.50022,170.5722 29.4857,0.17065"
       inkscape:connector-curvature="0" />
    <path
       id="path3174"
       style="fill:none;stroke:#000000;stroke-width:0.51429158;stroke-linecap:butt;stroke-linejoin:miter;stroke-miterlimit:4;stroke-dasharray:none;stroke-opacity:1"
       d="m 222.50022,141.25715 29.4857,0.17064"
       inkscape:connector-curvature="0" />
    <path
       id="path3178"
       style="fill:none;stroke:#000000;stroke-width:0.51429158;stroke-linecap:butt;stroke-linejoin:miter;stroke-miterlimit:4;stroke-dasharray:none;stroke-opacity:1"
       d="m 222.50022,111.25715 29.4857,0.17064"
       inkscape:connector-curvature="0" />
    <text
       x="102.22559"
       y="-236.53799"
       transform="rotate(90)"
       style="font-style:normal;font-weight:normal;font-size:20px;line-height:0%;font-family:'Arial Black';text-align:center;text-anchor:middle;fill:#000000;fill-opacity:1;stroke:none;stroke-width:1"
       id="text3208"
       xml:space="preserve"><tspan
         x="102.22559"
         y="-236.53799"
         style="font-size:18px;font-family:'Times New Roman';stroke:none;stroke-width:1"
         id="tspan3210">...</tspan></text>
    <text
       x="240.47557"
       y="-236.53799"
       transform="rotate(90)"
       style="font-style:normal;font-weight:normal;font-size:20px;line-height:0%;font-family:'Arial Black';text-align:center;text-anchor:middle;fill:#000000;fill-opacity:1;stroke:none;stroke-width:1"
       id="text3212"
       xml:space="preserve"><tspan
         x="240.47557"
         y="-236.53799"
         style="font-size:18px;font-family:'Times New Roman';stroke:none;stroke-width:1"
         id="tspan3214">...</tspan></text>
    <rect
       id="rect3281"
       style="fill:none;stroke:none;stroke-width:1"
       y="205.99998"
       x="182.24307"
       height="24.999998"
       width="40" />
    <rect
       id="rect3311"
       style="fill:none;stroke:none;stroke-width:1"
       y="176"
       x="182.24307"
       height="24.999998"
       width="40" />
    <rect
       id="rect3321"
       style="fill:none;stroke:none;stroke-width:1"
       y="146"
       x="182.24307"
       height="24.999998"
       width="40" />
    <rect
       id="rect3331"
       style="fill:none;stroke:none;stroke-width:1"
       y="116"
       x="182.24307"
       height="24.999998"
       width="40" />
    <path
       inkscape:connector-curvature="0"
       d="M 141.7942,90.111122 V 57.448877 H 20.013947 v 32.662245 z"
       style="overflow:visible;fill:#ffffff;stroke:#000000;stroke-width:0.89775217"
       id="path2340" />
    <path
       inkscape:connector-curvature="0"
       d="M 39.555567,90.093752 38.743067,214.59375 176.24307,215.5 v 1 l -138.000003,-0.875 -0.53125,-0.0312 v -0.5 l 0.8125,-124.999998 h 1.03125 z"
       style="display:inline;fill:#000000;fill-opacity:1;fill-rule:evenodd;stroke:none"
       id="path2215" />
    <path
       inkscape:connector-curvature="0"
       d="m 165.94772,215.9325 -4.09114,-4.14514 14.38649,4.21264 -14.44049,4.02364 z"
       style="fill-rule:evenodd;stroke:#000000;stroke-width:0.82364577pt;marker-start:none"
       id="path2256" />
    <path
       inkscape:connector-curvature="0"
       d="M 67.555567,90.000002 68.274317,185.875 176.74307,186 v 1 L 67.774317,186.875 h -0.5 v -0.5 l -0.71875,-96.374998 z"
       style="display:inline;fill:#000000;fill-opacity:1;fill-rule:evenodd;stroke:none"
       id="path3388" />
    <path
       inkscape:connector-curvature="0"
       d="m 166.74308,186.48944 -3.99578,-4.00423 13.99577,4.01479 -14.00422,3.98521 z"
       style="fill-rule:evenodd;stroke:#000000;stroke-width:0.80000004pt;marker-start:none"
       id="path2248" />
    <path
       inkscape:connector-curvature="0"
       d="m 98.618067,90.375002 -0.5,64.687498 L 176.24307,156 v 1 l -78.656253,-0.9375 h -0.46875 v -0.5 l 0.5,-65.187498 z"
       style="display:inline;fill:#000000;fill-opacity:1;fill-rule:evenodd;stroke:none"
       id="path3390" />
    <path
       inkscape:connector-curvature="0"
       d="m 166.24377,156.3816 -3.95236,-4.04709 13.95166,4.16549 -14.04638,3.83395 z"
       style="fill-rule:evenodd;stroke:#000000;stroke-width:0.80000004pt;marker-start:none"
       id="path2240" />
    <path
       inkscape:connector-curvature="0"
       d="m 126.05557,90.000002 0.125,35.468748 50.0625,0.53125 v 1 l -50.5625,-0.53125 -0.5,-0.0312 v -0.46875 l -0.125,-35.968748 h 1 z"
       style="display:inline;fill:#000000;fill-opacity:1;fill-rule:evenodd;stroke:none"
       id="path3392" />
    <path
       inkscape:connector-curvature="0"
       d="m 166.24364,126.3928 -3.95688,-4.04266 13.95631,4.14986 -14.04208,3.84968 z"
       style="fill-rule:evenodd;stroke:#000000;stroke-width:0.80000004pt;marker-start:none"
       id="path2232" />
  </g>
  <g
     inkscape:groupmode="layer"
     id="layer3"
     inkscape:label="text"
     style="display:inline"
     transform="translate(0,-16.666656)">
    <g
       aria-label="0D"
       style="font-style:normal;font-weight:normal;font-size:20px;line-height:0%;font-family:'Arial Black';text-align:center;text-anchor:middle;display:inline;fill:#000000;fill-opacity:1;stroke:none;stroke-width:1"
       id="text3184-2">
      <path
         d="m 230.6705,119.44763 q 1.87207,0 2.92676,1.33594 1.25684,1.58203 1.25684,5.24707 0,3.65625 -1.26563,5.25586 -1.0459,1.31836 -2.91797,1.31836 -1.88086,0 -3.03222,-1.44141 -1.15137,-1.45019 -1.15137,-5.15918 0,-3.63867 1.26562,-5.23828 1.0459,-1.31836 2.91797,-1.31836 z m 0,2.04785 q -0.44824,0 -0.7998,0.29004 -0.35157,0.28125 -0.54492,1.01953 -0.25489,0.95801 -0.25489,3.22559 0,2.26758 0.22852,3.12012 0.22851,0.84375 0.57129,1.125 0.35156,0.28125 0.7998,0.28125 0.44824,0 0.79981,-0.28125 0.35156,-0.29004 0.54492,-1.02832 0.25488,-0.94922 0.25488,-3.2168 0,-2.26758 -0.22851,-3.11133 -0.22852,-0.85254 -0.58008,-1.13379 -0.34278,-0.29004 -0.79102,-0.29004 z"
         style="font-style:normal;font-variant:normal;font-weight:bold;font-stretch:normal;font-size:18px;font-family:Arial;-inkscape-font-specification:'Arial Bold';stroke:none;stroke-width:1"
         id="path69" />
      <path
         d="m 237.05136,119.50037 h 4.75488 q 1.6084,0 2.45215,0.24609 1.13379,0.33398 1.94239,1.18652 0.80859,0.85254 1.23046,2.0918 0.42188,1.23047 0.42188,3.04102 0,1.59082 -0.39551,2.74218 -0.4834,1.40625 -1.37988,2.27637 -0.67676,0.65918 -1.82813,1.02832 -0.86132,0.27246 -2.30273,0.27246 h -4.89551 z m 2.60156,2.17968 v 8.53418 h 1.94239 q 1.08984,0 1.57324,-0.12304 0.63281,-0.15821 1.0459,-0.53614 0.42187,-0.37793 0.68554,-1.23925 0.26368,-0.87012 0.26368,-2.36426 0,-1.49414 -0.26368,-2.29395 -0.26367,-0.7998 -0.73828,-1.24804 -0.47461,-0.44825 -1.2041,-0.60645 -0.54492,-0.12305 -2.13574,-0.12305 z"
         style="font-style:normal;font-variant:normal;font-weight:bold;font-stretch:normal;font-size:18px;font-family:Arial;-inkscape-font-specification:'Arial Bold';stroke:none;stroke-width:1"
         id="path71" />
    </g>
    <g
       aria-label="0C"
       style="font-style:normal;font-weight:normal;font-size:20px;line-height:0%;font-family:'Arial Black';text-align:center;text-anchor:middle;display:inline;fill:#000000;fill-opacity:1;stroke:none;stroke-width:1"
       id="text3192-9">
      <path
         d="m 230.6705,149.44765 q 1.87207,0 2.92676,1.33593 1.25684,1.58204 1.25684,5.24707 0,3.65625 -1.26563,5.25586 -1.0459,1.31836 -2.91797,1.31836 -1.88086,0 -3.03222,-1.4414 -1.15137,-1.4502 -1.15137,-5.15918 0,-3.63867 1.26562,-5.23828 1.0459,-1.31836 2.91797,-1.31836 z m 0,2.04785 q -0.44824,0 -0.7998,0.29004 -0.35157,0.28125 -0.54492,1.01953 -0.25489,0.95801 -0.25489,3.22558 0,2.26758 0.22852,3.12012 0.22851,0.84375 0.57129,1.125 0.35156,0.28125 0.7998,0.28125 0.44824,0 0.79981,-0.28125 0.35156,-0.29004 0.54492,-1.02832 0.25488,-0.94922 0.25488,-3.2168 0,-2.26757 -0.22851,-3.11132 -0.22852,-0.85254 -0.58008,-1.13379 -0.34278,-0.29004 -0.79102,-0.29004 z"
         style="font-style:normal;font-variant:normal;font-weight:bold;font-stretch:normal;font-size:18px;font-family:Arial;-inkscape-font-specification:'Arial Bold';stroke:none;stroke-width:1"
         id="path74" />
      <path
         d="m 245.30429,157.64784 2.52246,0.79981 q -0.58008,2.10937 -1.93359,3.13769 -1.34473,1.01953 -3.41895,1.01953 -2.5664,0 -4.21875,-1.74902 -1.65234,-1.75781 -1.65234,-4.79883 0,-3.21679 1.66113,-4.99219 1.66113,-1.78418 4.36817,-1.78418 2.36425,0 3.84082,1.39747 0.8789,0.82617 1.31836,2.37304 l -2.5752,0.61524 q -0.22852,-1.00196 -0.95801,-1.58203 -0.7207,-0.58008 -1.75781,-0.58008 -1.43262,0 -2.3291,1.02832 -0.8877,1.02832 -0.8877,3.33105 0,2.44336 0.87891,3.48047 0.87891,1.03711 2.28516,1.03711 1.0371,0 1.78418,-0.65918 0.74707,-0.65918 1.07226,-2.07422 z"
         style="font-style:normal;font-variant:normal;font-weight:bold;font-stretch:normal;font-size:18px;font-family:Arial;-inkscape-font-specification:'Arial Bold';stroke:none;stroke-width:1"
         id="path76" />
    </g>
    <g
       aria-label="0B"
       style="font-style:normal;font-weight:normal;font-size:20px;line-height:0%;font-family:'Arial Black';text-align:center;text-anchor:middle;display:inline;fill:#000000;fill-opacity:1;stroke:none;stroke-width:1"
       id="text3200-4">
      <path
         d="m 230.6705,179.44763 q 1.87207,0 2.92676,1.33594 1.25684,1.58203 1.25684,5.24707 0,3.65625 -1.26563,5.25586 -1.0459,1.31836 -2.91797,1.31836 -1.88086,0 -3.03222,-1.44141 -1.15137,-1.45019 -1.15137,-5.15918 0,-3.63867 1.26562,-5.23828 1.0459,-1.31836 2.91797,-1.31836 z m 0,2.04785 q -0.44824,0 -0.7998,0.29004 -0.35157,0.28125 -0.54492,1.01953 -0.25489,0.95801 -0.25489,3.22559 0,2.26758 0.22852,3.12012 0.22851,0.84375 0.57129,1.125 0.35156,0.28125 0.7998,0.28125 0.44824,0 0.79981,-0.28125 0.35156,-0.29004 0.54492,-1.02832 0.25488,-0.94922 0.25488,-3.2168 0,-2.26758 -0.22851,-3.11133 -0.22852,-0.85254 -0.58008,-1.13379 -0.34278,-0.29004 -0.79102,-0.29004 z"
         style="font-style:normal;font-variant:normal;font-weight:bold;font-stretch:normal;font-size:18px;font-family:Arial;-inkscape-font-specification:'Arial Bold';stroke:none;stroke-width:1"
         id="path79" />
      <path
         d="m 237.06894,179.50037 h 5.15039 q 1.5293,0 2.27637,0.13183 0.75586,0.12305 1.34472,0.52735 0.59766,0.40429 0.99317,1.08105 0.39551,0.66797 0.39551,1.50293 0,0.90527 -0.49219,1.66113 -0.4834,0.75586 -1.31836,1.13379 1.17773,0.34278 1.81055,1.16895 0.63281,0.82617 0.63281,1.94238 0,0.87891 -0.41309,1.71387 -0.40429,0.82617 -1.11621,1.32715 -0.70312,0.49218 -1.74023,0.60644 -0.65039,0.0703 -3.1377,0.0879 h -4.38574 z m 2.60156,2.14453 v 2.97949 h 1.70508 q 1.52051,0 1.88965,-0.0439 0.66797,-0.0791 1.0459,-0.45703 0.38672,-0.38672 0.38672,-1.01074 0,-0.59766 -0.33399,-0.9668 -0.32519,-0.37793 -0.97558,-0.45703 -0.38672,-0.0439 -2.22364,-0.0439 z m 0,5.12402 v 3.44531 h 2.4082 q 1.40625,0 1.78418,-0.0791 0.58008,-0.10547 0.94043,-0.50976 0.36914,-0.41309 0.36914,-1.09864 0,-0.58007 -0.28125,-0.98437 -0.28125,-0.4043 -0.81738,-0.58887 -0.52734,-0.18457 -2.30273,-0.18457 z"
         style="font-style:normal;font-variant:normal;font-weight:bold;font-stretch:normal;font-size:18px;font-family:Arial;-inkscape-font-specification:'Arial Bold';stroke:none;stroke-width:1"
         id="path81" />
    </g>
    <g
       aria-label="0A"
       style="font-style:normal;font-weight:normal;font-size:20px;line-height:0%;font-family:'Arial Black';text-align:center;text-anchor:middle;display:inline;fill:#000000;fill-opacity:1;stroke:none;stroke-width:1"
       id="text2181-5">
      <path
         d="m 230.6705,209.44763 q 1.87207,0 2.92676,1.33594 1.25684,1.58203 1.25684,5.24707 0,3.65625 -1.26563,5.25586 -1.0459,1.31836 -2.91797,1.31836 -1.88086,0 -3.03222,-1.44141 -1.15137,-1.45019 -1.15137,-5.15918 0,-3.63867 1.26562,-5.23828 1.0459,-1.31836 2.91797,-1.31836 z m 0,2.04785 q -0.44824,0 -0.7998,0.29004 -0.35157,0.28125 -0.54492,1.01953 -0.25489,0.95801 -0.25489,3.22559 0,2.26758 0.22852,3.12012 0.22851,0.84375 0.57129,1.125 0.35156,0.28125 0.7998,0.28125 0.44824,0 0.79981,-0.28125 0.35156,-0.29004 0.54492,-1.02832 0.25488,-0.94922 0.25488,-3.2168 0,-2.26758 -0.22851,-3.11133 -0.22852,-0.85254 -0.58008,-1.13379 -0.34278,-0.29004 -0.79102,-0.29004 z"
         style="font-style:normal;font-variant:normal;font-weight:bold;font-stretch:normal;font-size:18px;font-family:Arial;-inkscape-font-specification:'Arial Bold';stroke:none;stroke-width:1"
         id="path84" />
      <path
         d="m 248.67929,222.38513 h -2.83008 l -1.125,-2.92676 h -5.15039 l -1.06347,2.92676 h -2.75977 l 5.01855,-12.88476 h 2.75098 z m -4.79004,-5.09765 -1.77539,-4.78125 -1.74023,4.78125 z"
         style="font-style:normal;font-variant:normal;font-weight:bold;font-stretch:normal;font-size:18px;font-family:Arial;-inkscape-font-specification:'Arial Bold';stroke:none;stroke-width:1"
         id="path86" />
    </g>
    <g
       aria-label="a:"
       style="font-style:normal;font-weight:normal;font-size:18px;line-height:0%;font-family:'Times New Roman';text-align:center;text-anchor:middle;display:inline;fill:#000000;fill-opacity:1;stroke:none;stroke-width:1"
       id="text3333-3">
      <path
         d="m 213.68715,123.0498 -1.71387,5.95899 -0.19336,0.7998 q -0.0264,0.11426 -0.0264,0.19336 0,0.14063 0.0879,0.2461 0.0703,0.0791 0.17578,0.0791 0.11425,0 0.29883,-0.14063 0.34277,-0.25488 0.91406,-1.05468 l 0.29883,0.21093 q -0.60645,0.91407 -1.24805,1.39746 -0.6416,0.47461 -1.18652,0.47461 -0.37793,0 -0.57129,-0.19336 -0.18457,-0.18457 -0.18457,-0.54492 0,-0.43066 0.19336,-1.13379 l 0.18457,-0.65918 q -1.15137,1.50293 -2.11817,2.10059 -0.69433,0.43066 -1.3623,0.43066 -0.6416,0 -1.10742,-0.52734 -0.46583,-0.53613 -0.46583,-1.46777 0,-1.39746 0.83497,-2.94434 0.84375,-1.55566 2.13574,-2.4873 1.01074,-0.73829 1.90722,-0.73829 0.53614,0 0.8877,0.28125 0.36035,0.28125 0.54492,0.93165 l 0.31641,-1.00196 z m -3.12891,0.45704 q -0.5625,0 -1.19531,0.52734 -0.89648,0.74707 -1.59961,2.21484 -0.69434,1.46778 -0.69434,2.6543 0,0.59766 0.29883,0.94922 0.29883,0.34277 0.68555,0.34277 0.95801,0 2.08301,-1.41504 1.50293,-1.88086 1.50293,-3.85839 0,-0.74708 -0.29004,-1.08106 -0.29004,-0.33398 -0.79102,-0.33398 z"
         style="font-style:italic;font-size:18px;text-align:end;text-anchor:end;stroke:none;stroke-width:1"
         id="path89" />
      <path
         d="m 216.7809,122.70703 q 0.4043,0 0.68555,0.29004 0.29003,0.28125 0.29003,0.68555 0,0.40429 -0.29003,0.69433 -0.28125,0.28125 -0.68555,0.28125 -0.4043,0 -0.69434,-0.28125 -0.28125,-0.29004 -0.28125,-0.69433 0,-0.4043 0.28125,-0.68555 0.29004,-0.29004 0.69434,-0.29004 z m -0.0176,6.58301 q 0.41309,0 0.69434,0.29004 0.29004,0.29004 0.29004,0.69433 0,0.4043 -0.29004,0.69434 -0.29004,0.28125 -0.69434,0.28125 -0.4043,0 -0.69434,-0.28125 -0.28125,-0.29004 -0.28125,-0.69434 0,-0.40429 0.28125,-0.69433 0.29004,-0.29004 0.69434,-0.29004 z"
         style="font-style:normal;font-variant:normal;font-weight:normal;font-stretch:normal;font-size:18px;line-height:125%;font-family:'Times New Roman';text-align:end;writing-mode:lr-tb;text-anchor:end;stroke:none;stroke-width:1"
         id="path91" />
    </g>
    <g
       aria-label="a+1:"
       style="font-style:normal;font-weight:normal;font-size:18px;line-height:0%;font-family:'Times New Roman';text-align:center;text-anchor:middle;display:inline;fill:#000000;fill-opacity:1;stroke:none;stroke-width:1"
       id="text3323-9">
      <path
         d="m 194.52699,153.0498 -1.71386,5.95899 -0.19336,0.7998 q -0.0264,0.11426 -0.0264,0.19336 0,0.14063 0.0879,0.2461 0.0703,0.0791 0.17578,0.0791 0.11426,0 0.29883,-0.14063 0.34277,-0.25488 0.91406,-1.05468 l 0.29883,0.21093 q -0.60645,0.91407 -1.24805,1.39746 -0.6416,0.47461 -1.18652,0.47461 -0.37793,0 -0.57129,-0.19336 -0.18457,-0.18457 -0.18457,-0.54492 0,-0.43066 0.19336,-1.13379 l 0.18457,-0.65918 q -1.15137,1.50293 -2.11816,2.10059 -0.69434,0.43066 -1.36231,0.43066 -0.6416,0 -1.10742,-0.52734 -0.46582,-0.53613 -0.46582,-1.46777 0,-1.39746 0.83496,-2.94434 0.84375,-1.55566 2.13574,-2.4873 1.01074,-0.73829 1.90723,-0.73829 0.53613,0 0.88769,0.28125 0.36036,0.28125 0.54493,0.93165 l 0.3164,-1.00196 z m -3.1289,0.45704 q -0.5625,0 -1.19532,0.52734 -0.89648,0.74707 -1.59961,2.21484 -0.69433,1.46778 -0.69433,2.6543 0,0.59766 0.29883,0.94922 0.29882,0.34277 0.68554,0.34277 0.95801,0 2.08301,-1.41504 1.50293,-1.88086 1.50293,-3.8584 0,-0.74707 -0.29004,-1.08105 -0.29004,-0.33398 -0.79101,-0.33398 z"
         style="font-style:italic;font-size:18px;text-align:end;text-anchor:end;stroke:none;stroke-width:1"
         id="path94" />
      <path
         d="m 199.78285,159.76465 v -4.38574 h -4.37695 v -0.72071 h 4.37695 v -4.36816 h 0.70313 v 4.36816 h 4.39453 v 0.72071 h -4.39453 v 4.38574 z"
         style="font-style:normal;font-variant:normal;font-weight:normal;font-stretch:normal;font-size:18px;line-height:125%;font-family:'Times New Roman';text-align:end;writing-mode:lr-tb;text-anchor:end;stroke:none;stroke-width:1"
         id="path96" />
      <path
         d="m 207.35023,150.25488 2.9004,-1.41504 h 0.29003 v 10.06348 q 0,1.00195 0.0791,1.24805 0.0879,0.24609 0.35156,0.37793 0.26367,0.13183 1.07226,0.14941 v 0.3252 h -4.48242 v -0.3252 q 0.84375,-0.0176 1.08985,-0.14062 0.24609,-0.13184 0.34277,-0.34278 0.0967,-0.21972 0.0967,-1.29199 v -6.43359 q 0,-1.30078 -0.0879,-1.66993 -0.0615,-0.28125 -0.22852,-0.41308 -0.1582,-0.13184 -0.38672,-0.13184 -0.32519,0 -0.90527,0.27246 z"
         style="font-style:normal;font-variant:normal;font-weight:normal;font-stretch:normal;font-size:18px;line-height:125%;font-family:'Times New Roman';text-align:end;writing-mode:lr-tb;text-anchor:end;stroke:none;stroke-width:1"
         id="path98" />
      <path
         d="m 216.7809,152.70703 q 0.4043,0 0.68555,0.29004 0.29003,0.28125 0.29003,0.68555 0,0.40429 -0.29003,0.69433 -0.28125,0.28125 -0.68555,0.28125 -0.4043,0 -0.69434,-0.28125 -0.28125,-0.29004 -0.28125,-0.69433 0,-0.4043 0.28125,-0.68555 0.29004,-0.29004 0.69434,-0.29004 z m -0.0176,6.58301 q 0.41309,0 0.69434,0.29004 0.29004,0.29004 0.29004,0.69433 0,0.4043 -0.29004,0.69434 -0.29004,0.28125 -0.69434,0.28125 -0.4043,0 -0.69434,-0.28125 -0.28125,-0.29004 -0.28125,-0.69434 0,-0.40429 0.28125,-0.69433 0.29004,-0.29004 0.69434,-0.29004 z"
         style="font-style:normal;font-variant:normal;font-weight:normal;font-stretch:normal;font-size:18px;line-height:125%;font-family:'Times New Roman';text-align:end;writing-mode:lr-tb;text-anchor:end;stroke:none;stroke-width:1"
         id="path100" />
    </g>
    <g
       aria-label="a+2:"
       style="font-style:normal;font-weight:normal;font-size:18px;line-height:0%;font-family:'Times New Roman';text-align:center;text-anchor:middle;display:inline;fill:#000000;fill-opacity:1;stroke:none;stroke-width:1"
       id="text3313-4">
      <path
         d="m 194.52699,183.0498 -1.71386,5.95899 -0.19336,0.7998 q -0.0264,0.11426 -0.0264,0.19336 0,0.14063 0.0879,0.2461 0.0703,0.0791 0.17578,0.0791 0.11426,0 0.29883,-0.14063 0.34277,-0.25488 0.91406,-1.05468 l 0.29883,0.21093 q -0.60645,0.91407 -1.24805,1.39746 -0.6416,0.47461 -1.18652,0.47461 -0.37793,0 -0.57129,-0.19336 -0.18457,-0.18457 -0.18457,-0.54492 0,-0.43066 0.19336,-1.13379 l 0.18457,-0.65918 q -1.15137,1.50293 -2.11816,2.10059 -0.69434,0.43066 -1.36231,0.43066 -0.6416,0 -1.10742,-0.52734 -0.46582,-0.53613 -0.46582,-1.46777 0,-1.39746 0.83496,-2.94434 0.84375,-1.55566 2.13574,-2.4873 1.01074,-0.73829 1.90723,-0.73829 0.53613,0 0.88769,0.28125 0.36036,0.28125 0.54493,0.93165 l 0.3164,-1.00196 z m -3.1289,0.45704 q -0.5625,0 -1.19532,0.52734 -0.89648,0.74707 -1.59961,2.21484 -0.69433,1.46778 -0.69433,2.6543 0,0.59766 0.29883,0.94922 0.29882,0.34277 0.68554,0.34277 0.95801,0 2.08301,-1.41504 1.50293,-1.88086 1.50293,-3.8584 0,-0.74707 -0.29004,-1.08105 -0.29004,-0.33398 -0.79101,-0.33398 z"
         style="font-style:italic;font-size:18px;text-align:end;text-anchor:end;stroke:none;stroke-width:1"
         id="path103" />
      <path
         d="m 199.78285,189.76465 v -4.38574 h -4.37695 v -0.72071 h 4.37695 v -4.36816 h 0.70313 v 4.36816 h 4.39453 v 0.72071 h -4.39453 v 4.38574 z"
         style="font-style:normal;font-variant:normal;font-weight:normal;font-stretch:normal;font-size:18px;line-height:125%;font-family:'Times New Roman';text-align:end;writing-mode:lr-tb;text-anchor:end;stroke:none;stroke-width:1"
         id="path105" />
      <path
         d="m 213.49379,188.70996 -0.83496,2.29395 h -7.03125 v -0.3252 q 3.10254,-2.83008 4.36816,-4.62305 1.26563,-1.79296 1.26563,-3.27832 0,-1.13379 -0.69434,-1.86328 -0.69433,-0.72949 -1.66113,-0.72949 -0.87891,0 -1.58203,0.51855 -0.69434,0.50977 -1.02832,1.50293 h -0.3252 q 0.21973,-1.62597 1.125,-2.49609 0.91406,-0.87012 2.27637,-0.87012 1.45019,0 2.41699,0.93164 0.97559,0.93164 0.97559,2.19727 0,0.90527 -0.42188,1.81055 -0.65039,1.42382 -2.10937,3.01465 -2.18848,2.39062 -2.7334,2.88281 h 3.11133 q 0.94922,0 1.32715,-0.0703 0.38671,-0.0703 0.69433,-0.28125 0.30762,-0.21973 0.53613,-0.61524 z"
         style="font-style:normal;font-variant:normal;font-weight:normal;font-stretch:normal;font-size:18px;line-height:125%;font-family:'Times New Roman';text-align:end;writing-mode:lr-tb;text-anchor:end;stroke:none;stroke-width:1"
         id="path107" />
      <path
         d="m 216.7809,182.70703 q 0.4043,0 0.68555,0.29004 0.29003,0.28125 0.29003,0.68555 0,0.40429 -0.29003,0.69433 -0.28125,0.28125 -0.68555,0.28125 -0.4043,0 -0.69434,-0.28125 -0.28125,-0.29004 -0.28125,-0.69433 0,-0.4043 0.28125,-0.68555 0.29004,-0.29004 0.69434,-0.29004 z m -0.0176,6.58301 q 0.41309,0 0.69434,0.29004 0.29004,0.29004 0.29004,0.69433 0,0.4043 -0.29004,0.69434 -0.29004,0.28125 -0.69434,0.28125 -0.4043,0 -0.69434,-0.28125 -0.28125,-0.29004 -0.28125,-0.69434 0,-0.40429 0.28125,-0.69433 0.29004,-0.29004 0.69434,-0.29004 z"
         style="font-style:normal;font-variant:normal;font-weight:normal;font-stretch:normal;font-size:18px;line-height:125%;font-family:'Times New Roman';text-align:end;writing-mode:lr-tb;text-anchor:end;stroke:none;stroke-width:1"
         id="path109" />
    </g>
    <g
       aria-label="a+3:"
       style="font-style:normal;font-weight:normal;font-size:18px;line-height:0%;font-family:'Times New Roman';text-align:center;text-anchor:middle;display:inline;fill:#000000;fill-opacity:1;stroke:none;stroke-width:1"
       id="text3283-2">
      <path
         d="m 194.52699,213.0498 -1.71386,5.95899 -0.19336,0.7998 q -0.0264,0.11426 -0.0264,0.19336 0,0.14063 0.0879,0.2461 0.0703,0.0791 0.17578,0.0791 0.11426,0 0.29883,-0.14063 0.34277,-0.25488 0.91406,-1.05468 l 0.29883,0.21093 q -0.60645,0.91407 -1.24805,1.39746 -0.6416,0.47461 -1.18652,0.47461 -0.37793,0 -0.57129,-0.19336 -0.18457,-0.18457 -0.18457,-0.54492 0,-0.43066 0.19336,-1.13379 l 0.18457,-0.65918 q -1.15137,1.50293 -2.11816,2.10059 -0.69434,0.43066 -1.36231,0.43066 -0.6416,0 -1.10742,-0.52734 -0.46582,-0.53613 -0.46582,-1.46777 0,-1.39746 0.83496,-2.94434 0.84375,-1.55566 2.13574,-2.4873 1.01074,-0.73829 1.90723,-0.73829 0.53613,0 0.88769,0.28125 0.36036,0.28125 0.54493,0.93165 l 0.3164,-1.00196 z m -3.1289,0.45704 q -0.5625,0 -1.19532,0.52734 -0.89648,0.74707 -1.59961,2.21484 -0.69433,1.46778 -0.69433,2.6543 0,0.59766 0.29883,0.94922 0.29882,0.34277 0.68554,0.34277 0.95801,0 2.08301,-1.41504 1.50293,-1.88086 1.50293,-3.8584 0,-0.74707 -0.29004,-1.08105 -0.29004,-0.33398 -0.79101,-0.33398 z"
         style="font-style:italic;font-size:18px;text-align:end;text-anchor:end;stroke:none;stroke-width:1"
         id="path112" />
      <path
         d="m 199.78285,219.76465 v -4.38574 h -4.37695 v -0.72071 h 4.37695 v -4.36816 h 0.70313 v 4.36816 h 4.39453 v 0.72071 h -4.39453 v 4.38574 z"
         style="font-style:normal;font-variant:normal;font-weight:normal;font-stretch:normal;font-size:18px;line-height:125%;font-family:'Times New Roman';text-align:end;writing-mode:lr-tb;text-anchor:end;stroke:none;stroke-width:1"
         id="path114" />
      <path
         d="m 206.15492,211.35352 q 0.50977,-1.20411 1.28321,-1.8545 0.78222,-0.65918 1.94238,-0.65918 1.43262,0 2.19726,0.93164 0.58008,0.69434 0.58008,1.48536 0,1.30078 -1.63476,2.68945 1.09863,0.43066 1.66113,1.23047 0.5625,0.7998 0.5625,1.88086 0,1.54687 -0.98438,2.68066 -1.2832,1.47656 -3.71777,1.47656 -1.2041,0 -1.64355,-0.29882 -0.43067,-0.29883 -0.43067,-0.64161 0,-0.25488 0.20215,-0.44824 0.21094,-0.19336 0.50098,-0.19336 0.21972,0 0.44824,0.0703 0.14941,0.0439 0.67676,0.3252 0.52734,0.27246 0.72949,0.3252 0.32519,0.0967 0.69434,0.0967 0.89648,0 1.55566,-0.69434 0.66797,-0.69434 0.66797,-1.64356 0,-0.69433 -0.30762,-1.35351 -0.22851,-0.49219 -0.50098,-0.74707 -0.37793,-0.35156 -1.03711,-0.63281 -0.65917,-0.29004 -1.34472,-0.29004 h -0.28125 v -0.26367 q 0.69433,-0.0879 1.38867,-0.50098 0.70313,-0.41309 1.01953,-0.99317 0.31641,-0.58007 0.31641,-1.27441 0,-0.90527 -0.57129,-1.45898 -0.5625,-0.5625 -1.40625,-0.5625 -1.36231,0 -2.27637,1.45898 z"
         style="font-style:normal;font-variant:normal;font-weight:normal;font-stretch:normal;font-size:18px;line-height:125%;font-family:'Times New Roman';text-align:end;writing-mode:lr-tb;text-anchor:end;stroke:none;stroke-width:1"
         id="path116" />
      <path
         d="m 216.7809,212.70703 q 0.4043,0 0.68555,0.29004 0.29003,0.28125 0.29003,0.68555 0,0.40429 -0.29003,0.69433 -0.28125,0.28125 -0.68555,0.28125 -0.4043,0 -0.69434,-0.28125 -0.28125,-0.29004 -0.28125,-0.69433 0,-0.4043 0.28125,-0.68555 0.29004,-0.29004 0.69434,-0.29004 z m -0.0176,6.58301 q 0.41309,0 0.69434,0.29004 0.29004,0.29004 0.29004,0.69433 0,0.4043 -0.29004,0.69434 -0.29004,0.28125 -0.69434,0.28125 -0.4043,0 -0.69434,-0.28125 -0.28125,-0.29004 -0.28125,-0.69434 0,-0.40429 0.28125,-0.69433 0.29004,-0.29004 0.69434,-0.29004 z"
         style="font-style:normal;font-variant:normal;font-weight:normal;font-stretch:normal;font-size:18px;line-height:125%;font-family:'Times New Roman';text-align:end;writing-mode:lr-tb;text-anchor:end;stroke:none;stroke-width:1"
         id="path118" />
    </g>
    <g
       aria-label="32-bit integer"
       style="font-style:normal;font-weight:normal;font-size:16px;line-height:0%;font-family:'Times New Roman';text-align:center;text-anchor:middle;display:inline;fill:#000000;fill-opacity:1;stroke:none;stroke-width:1"
       id="text3343-0">
      <path
         d="m 38.060806,39.531254 q 0.453125,-1.070313 1.140625,-1.648438 0.695313,-0.585937 1.726563,-0.585937 1.273437,0 1.953125,0.828125 0.515625,0.617187 0.515625,1.320312 0,1.15625 -1.453125,2.390625 0.976562,0.382813 1.476562,1.09375 0.5,0.710938 0.5,1.671875 0,1.375 -0.875,2.382813 -1.140625,1.3125 -3.304687,1.3125 -1.070313,0 -1.460938,-0.265625 -0.382812,-0.265625 -0.382812,-0.570313 0,-0.226562 0.179687,-0.398437 0.1875,-0.171875 0.445313,-0.171875 0.195312,0 0.398437,0.0625 0.132813,0.03906 0.601563,0.289062 0.46875,0.242188 0.648437,0.289063 0.289063,0.08594 0.617188,0.08594 0.796875,0 1.382812,-0.617187 0.59375,-0.617188 0.59375,-1.460938 0,-0.617187 -0.273437,-1.203125 -0.203125,-0.4375 -0.445313,-0.664062 -0.335937,-0.3125 -0.921875,-0.5625 -0.585937,-0.257813 -1.195312,-0.257813 h -0.25 v -0.234375 q 0.617187,-0.07813 1.234375,-0.445312 0.625,-0.367188 0.90625,-0.882813 0.28125,-0.515625 0.28125,-1.132812 0,-0.804688 -0.507813,-1.296875 -0.5,-0.5 -1.25,-0.5 -1.210937,0 -2.023437,1.296875 z"
         style="stroke-width:1"
         id="path121" />
      <path
         d="m 52.584244,46.070316 -0.742188,2.039063 h -6.25 v -0.289063 q 2.757813,-2.515625 3.882813,-4.109375 1.125,-1.59375 1.125,-2.914062 0,-1.007813 -0.617188,-1.65625 -0.617187,-0.648438 -1.476562,-0.648438 -0.78125,0 -1.40625,0.460938 -0.617188,0.453125 -0.914063,1.335937 h -0.289062 q 0.195312,-1.445312 1,-2.21875 0.8125,-0.773437 2.023437,-0.773437 1.289063,0 2.148438,0.828125 0.867187,0.828125 0.867187,1.953125 0,0.804687 -0.375,1.609375 -0.578125,1.265625 -1.875,2.679687 -1.945312,2.125 -2.429687,2.5625 h 2.765625 q 0.84375,0 1.179687,-0.0625 0.34375,-0.0625 0.617188,-0.25 0.273437,-0.195312 0.476562,-0.546875 z"
         style="stroke-width:1"
         id="path123" />
      <path
         d="m 53.896744,43.929691 h 4.039062 v 1.179688 h -4.039062 z"
         style="stroke-width:1"
         id="path125" />
      <path
         d="m 61.052994,42.187504 q 1.039062,-1.445313 2.242187,-1.445313 1.101563,0 1.921875,0.945313 0.820313,0.9375 0.820313,2.570312 0,1.90625 -1.265625,3.070313 -1.085938,1 -2.421875,1 -0.625,0 -1.273438,-0.226563 -0.640625,-0.226562 -1.3125,-0.679687 v -7.414063 q 0,-1.21875 -0.0625,-1.5 -0.05469,-0.28125 -0.179687,-0.382812 -0.125,-0.101563 -0.3125,-0.101563 -0.21875,0 -0.546875,0.125 l -0.109375,-0.273437 2.148437,-0.875 h 0.351563 z m 0,0.5 v 4.28125 q 0.398437,0.390625 0.820312,0.59375 0.429688,0.195312 0.875,0.195312 0.710938,0 1.320313,-0.78125 0.617187,-0.78125 0.617187,-2.273437 0,-1.375 -0.617187,-2.109375 -0.609375,-0.742188 -1.390625,-0.742188 -0.414063,0 -0.828125,0.210938 -0.3125,0.15625 -0.796875,0.625 z"
         style="stroke-width:1"
         id="path127" />
      <path
         d="m 68.912369,37.000004 q 0.328125,0 0.554687,0.234375 0.234375,0.226562 0.234375,0.554687 0,0.328125 -0.234375,0.5625 -0.226562,0.234375 -0.554687,0.234375 -0.328125,0 -0.5625,-0.234375 -0.234375,-0.234375 -0.234375,-0.5625 0,-0.328125 0.226562,-0.554687 0.234375,-0.234375 0.570313,-0.234375 z m 0.648437,3.742187 v 5.75 q 0,0.671875 0.09375,0.898438 0.101563,0.21875 0.289063,0.328125 0.195312,0.109375 0.703125,0.109375 v 0.28125 h -3.476563 v -0.28125 q 0.523438,0 0.703125,-0.101563 0.179688,-0.101562 0.28125,-0.335937 0.109375,-0.234375 0.109375,-0.898438 v -2.757812 q 0,-1.164063 -0.07031,-1.507813 -0.05469,-0.25 -0.171875,-0.34375 -0.117188,-0.101562 -0.320313,-0.101562 -0.21875,0 -0.53125,0.117187 l -0.109375,-0.28125 2.15625,-0.875 z"
         style="stroke-width:1"
         id="path129" />
      <path
         d="m 73.607681,38.601566 v 2.351563 h 1.671875 v 0.546875 h -1.671875 v 4.640625 q 0,0.695312 0.195313,0.9375 0.203125,0.242187 0.515625,0.242187 0.257812,0 0.5,-0.15625 0.242187,-0.164062 0.375,-0.476562 h 0.304687 q -0.273437,0.765625 -0.773437,1.15625 -0.5,0.382812 -1.03125,0.382812 -0.359375,0 -0.703125,-0.195312 -0.34375,-0.203125 -0.507813,-0.570313 -0.164062,-0.375 -0.164062,-1.148437 v -4.8125 h -1.132813 v -0.257813 q 0.429688,-0.171875 0.875,-0.578125 0.453125,-0.414062 0.804688,-0.976562 0.179687,-0.296875 0.5,-1.085938 z"
         style="stroke-width:1"
         id="path131" />
      <path
         d="m 81.787369,37.000004 q 0.328125,0 0.554687,0.234375 0.234375,0.226562 0.234375,0.554687 0,0.328125 -0.234375,0.5625 -0.226562,0.234375 -0.554687,0.234375 -0.328125,0 -0.5625,-0.234375 -0.234375,-0.234375 -0.234375,-0.5625 0,-0.328125 0.226562,-0.554687 0.234375,-0.234375 0.570313,-0.234375 z m 0.648437,3.742187 v 5.75 q 0,0.671875 0.09375,0.898438 0.101563,0.21875 0.289063,0.328125 0.195312,0.109375 0.703125,0.109375 v 0.28125 h -3.476563 v -0.28125 q 0.523438,0 0.703125,-0.101563 0.179688,-0.101562 0.28125,-0.335937 0.109375,-0.234375 0.109375,-0.898438 v -2.757812 q 0,-1.164063 -0.07031,-1.507813 -0.05469,-0.25 -0.171875,-0.34375 -0.117188,-0.101562 -0.320313,-0.101562 -0.21875,0 -0.53125,0.117187 l -0.109375,-0.28125 2.15625,-0.875 z"
         style="stroke-width:1"
         id="path133" />
      <path
         d="m 86.490494,42.257816 q 1.257812,-1.515625 2.398437,-1.515625 0.585938,0 1.007813,0.296875 0.421875,0.289063 0.671875,0.960938 0.171875,0.46875 0.171875,1.4375 v 3.054687 q 0,0.679688 0.109375,0.921875 0.08594,0.195313 0.273437,0.304688 0.195313,0.109375 0.710938,0.109375 v 0.28125 h -3.539063 v -0.28125 h 0.148438 q 0.5,0 0.695312,-0.148438 0.203125,-0.15625 0.28125,-0.453125 0.03125,-0.117187 0.03125,-0.734375 v -2.929687 q 0,-0.976563 -0.257812,-1.414063 -0.25,-0.445312 -0.851563,-0.445312 -0.929687,0 -1.851562,1.015625 v 3.773437 q 0,0.726563 0.08594,0.898438 0.109375,0.226562 0.296875,0.335937 0.195313,0.101563 0.78125,0.101563 v 0.28125 h -3.539062 v -0.28125 h 0.15625 q 0.546875,0 0.734375,-0.273438 0.195312,-0.28125 0.195312,-1.0625 v -2.65625 q 0,-1.289062 -0.0625,-1.570312 -0.05469,-0.28125 -0.179687,-0.382813 -0.117188,-0.101562 -0.320313,-0.101562 -0.21875,0 -0.523437,0.117187 l -0.117188,-0.28125 2.15625,-0.875 h 0.335938 z"
         style="stroke-width:1"
         id="path135" />
      <path
         d="m 94.482681,38.601566 v 2.351563 h 1.671875 v 0.546875 h -1.671875 v 4.640625 q 0,0.695312 0.195313,0.9375 0.203125,0.242187 0.515625,0.242187 0.257812,0 0.5,-0.15625 0.242187,-0.164062 0.375,-0.476562 h 0.304687 q -0.273437,0.765625 -0.773437,1.15625 -0.5,0.382812 -1.03125,0.382812 -0.359375,0 -0.703125,-0.195312 -0.34375,-0.203125 -0.507813,-0.570313 -0.164062,-0.375 -0.164062,-1.148437 v -4.8125 h -1.132813 v -0.257813 q 0.429688,-0.171875 0.875,-0.578125 0.453125,-0.414062 0.804688,-0.976562 0.179687,-0.296875 0.5,-1.085938 z"
         style="stroke-width:1"
         id="path137" />
      <path
         d="m 98.045181,43.648441 q -0.0078,1.59375 0.773438,2.5 0.78125,0.90625 1.835941,0.90625 0.70312,0 1.21875,-0.382812 0.52343,-0.390625 0.875,-1.328125 l 0.24218,0.15625 q -0.16406,1.070312 -0.95312,1.953125 -0.78906,0.875 -1.97656,0.875 -1.289066,0 -2.210941,-1 -0.914063,-1.007813 -0.914063,-2.703125 0,-1.835938 0.9375,-2.859375 0.945313,-1.03125 2.367184,-1.03125 1.20313,0 1.97657,0.796875 0.77343,0.789062 0.77343,2.117187 z m 0,-0.453125 h 3.312499 q -0.0391,-0.6875 -0.16406,-0.96875 -0.19531,-0.4375 -0.58594,-0.6875 -0.38281,-0.25 -0.804686,-0.25 -0.648438,0 -1.164063,0.507813 -0.507812,0.5 -0.59375,1.398437 z"
         style="stroke-width:1"
         id="path139" />
      <path
         d="m 105.84987,45.500004 q -0.65625,-0.320313 -1.00781,-0.890625 -0.35157,-0.578125 -0.35157,-1.273438 0,-1.0625 0.79688,-1.828125 0.80469,-0.765625 2.05469,-0.765625 1.02343,0 1.77343,0.5 h 1.51563 q 0.33594,0 0.39062,0.02344 0.0547,0.01563 0.0781,0.0625 0.0469,0.07031 0.0469,0.25 0,0.203125 -0.0391,0.28125 -0.0234,0.03906 -0.0859,0.0625 -0.0547,0.02344 -0.39062,0.02344 h -0.92969 q 0.4375,0.5625 0.4375,1.4375 0,1 -0.76562,1.710938 -0.76563,0.710937 -2.05469,0.710937 -0.53125,0 -1.08594,-0.15625 -0.34375,0.296875 -0.46875,0.523438 -0.11719,0.21875 -0.11719,0.375 0,0.132812 0.125,0.257812 0.13282,0.125 0.50782,0.179688 0.21875,0.03125 1.09375,0.05469 1.60937,0.03906 2.08593,0.109375 0.72657,0.101563 1.15625,0.539063 0.4375,0.4375 0.4375,1.078125 0,0.882812 -0.82812,1.65625 -1.21875,1.140625 -3.17969,1.140625 -1.50781,0 -2.54687,-0.679688 -0.58594,-0.390625 -0.58594,-0.8125 0,-0.1875 0.0859,-0.375 0.13281,-0.289062 0.54687,-0.804687 0.0547,-0.07031 0.79688,-0.84375 -0.40625,-0.242188 -0.57813,-0.429688 -0.16406,-0.195312 -0.16406,-0.4375 0,-0.273437 0.21875,-0.640625 0.22656,-0.367187 1.03125,-1.039062 z m 1.35937,-4.382813 q -0.57812,0 -0.96875,0.460938 -0.39062,0.460937 -0.39062,1.414062 0,1.234375 0.53125,1.914063 0.40625,0.515625 1.03125,0.515625 0.59375,0 0.97656,-0.445313 0.38281,-0.445312 0.38281,-1.398437 0,-1.242188 -0.53906,-1.945313 -0.39844,-0.515625 -1.02344,-0.515625 z m -1.4375,6.992188 q -0.36718,0.398437 -0.55468,0.742187 -0.1875,0.34375 -0.1875,0.632813 0,0.375 0.45312,0.65625 0.78125,0.484375 2.25781,0.484375 1.40625,0 2.07032,-0.5 0.67187,-0.492188 0.67187,-1.054688 0,-0.40625 -0.39844,-0.578125 -0.40625,-0.171875 -1.60937,-0.203125 -1.75781,-0.04687 -2.70313,-0.179687 z"
         style="stroke-width:1"
         id="path141" />
      <path
         d="m 113.13893,43.648441 q -0.008,1.59375 0.77344,2.5 0.78125,0.90625 1.83594,0.90625 0.70312,0 1.21875,-0.382812 0.52343,-0.390625 0.875,-1.328125 l 0.24218,0.15625 q -0.16406,1.070312 -0.95312,1.953125 -0.78906,0.875 -1.97656,0.875 -1.28907,0 -2.21094,-1 -0.91406,-1.007813 -0.91406,-2.703125 0,-1.835938 0.9375,-2.859375 0.94531,-1.03125 2.36718,-1.03125 1.20313,0 1.97657,0.796875 0.77343,0.789062 0.77343,2.117187 z m 0,-0.453125 h 3.3125 q -0.0391,-0.6875 -0.16406,-0.96875 -0.19531,-0.4375 -0.58594,-0.6875 -0.38281,-0.25 -0.80469,-0.25 -0.64843,0 -1.16406,0.507813 -0.50781,0.5 -0.59375,1.398437 z"
         style="stroke-width:1"
         id="path143" />
      <path
         d="m 121.12331,40.742191 v 1.609375 q 0.89843,-1.609375 1.84375,-1.609375 0.42968,0 0.71093,0.265625 0.28125,0.257813 0.28125,0.601563 0,0.304687 -0.20312,0.515625 -0.20313,0.210937 -0.48438,0.210937 -0.27343,0 -0.61718,-0.265625 -0.33594,-0.273437 -0.5,-0.273437 -0.14063,0 -0.30469,0.15625 -0.35156,0.320312 -0.72656,1.054687 v 3.429688 q 0,0.59375 0.14843,0.898437 0.10157,0.210938 0.35938,0.351563 0.25781,0.140625 0.74219,0.140625 v 0.28125 h -3.66407 v -0.28125 q 0.54688,0 0.8125,-0.171875 0.19532,-0.125 0.27344,-0.398438 0.0391,-0.132812 0.0391,-0.757812 v -2.773438 q 0,-1.25 -0.0547,-1.484375 -0.0469,-0.242187 -0.1875,-0.351562 -0.13282,-0.109375 -0.33594,-0.109375 -0.24219,0 -0.54688,0.117187 l -0.0781,-0.28125 2.16406,-0.875 z"
         style="stroke-width:1"
         id="path145" />
    </g>
    <g
       aria-label="Little-endian"
       style="font-style:normal;font-weight:normal;font-size:16px;line-height:0%;font-family:'Times New Roman';text-align:center;text-anchor:middle;display:inline;fill:#000000;fill-opacity:1;stroke:none;stroke-width:1"
       id="text3351-4">
      <path
         d="m 50.90625,240.24217 0.257812,0.0547 -0.90625,2.875 h -8.203125 v -0.28906 h 0.398438 q 0.671875,0 0.960937,-0.4375 0.164063,-0.25 0.164063,-1.15625 v -6.83594 q 0,-0.99219 -0.21875,-1.24219 -0.304688,-0.34375 -0.90625,-0.34375 h -0.398438 v -0.28906 h 4.796875 v 0.28906 q -0.84375,-0.008 -1.1875,0.15625 -0.335937,0.16406 -0.460937,0.41406 -0.125,0.25 -0.125,1.19532 v 6.65625 q 0,0.64843 0.125,0.89062 0.09375,0.16406 0.289062,0.24219 0.195313,0.0781 1.21875,0.0781 h 0.773438 q 1.21875,0 1.710937,-0.17968 0.492188,-0.17969 0.898438,-0.63282 0.40625,-0.46093 0.8125,-1.44531 z"
         style="stroke-width:1"
         id="path148" />
      <path
         d="m 53.835937,232.06248 q 0.328125,0 0.554688,0.23438 0.234375,0.22656 0.234375,0.55469 0,0.32812 -0.234375,0.5625 -0.226563,0.23437 -0.554688,0.23437 -0.328125,0 -0.5625,-0.23437 -0.234375,-0.23438 -0.234375,-0.5625 0,-0.32813 0.226563,-0.55469 0.234375,-0.23438 0.570312,-0.23438 z m 0.648438,3.74219 v 5.75 q 0,0.67188 0.09375,0.89844 0.101562,0.21875 0.289062,0.32812 0.195313,0.10938 0.703125,0.10938 v 0.28125 H 52.09375 v -0.28125 q 0.523437,0 0.703125,-0.10156 0.179687,-0.10157 0.28125,-0.33594 0.109375,-0.23438 0.109375,-0.89844 v -2.75781 q 0,-1.16406 -0.07031,-1.50781 -0.05469,-0.25 -0.171875,-0.34375 -0.117187,-0.10157 -0.320312,-0.10157 -0.21875,0 -0.53125,0.11719 l -0.109375,-0.28125 2.15625,-0.875 z"
         style="stroke-width:1"
         id="path150" />
      <path
         d="m 58.53125,233.66405 v 2.35156 h 1.671875 v 0.54687 H 58.53125 v 4.64063 q 0,0.69531 0.195312,0.9375 0.203125,0.24219 0.515625,0.24219 0.257813,0 0.5,-0.15625 0.242188,-0.16407 0.375,-0.47657 h 0.304688 q -0.273438,0.76563 -0.773438,1.15625 -0.5,0.38282 -1.03125,0.38282 -0.359375,0 -0.703125,-0.19532 -0.34375,-0.20312 -0.507812,-0.57031 -0.164063,-0.375 -0.164063,-1.14844 v -4.8125 h -1.132812 v -0.25781 q 0.429687,-0.17187 0.875,-0.57812 0.453125,-0.41407 0.804687,-0.97657 0.179688,-0.29687 0.5,-1.08593 z"
         style="stroke-width:1"
         id="path152" />
      <path
         d="m 62.96875,233.66405 v 2.35156 h 1.671875 v 0.54687 H 62.96875 v 4.64063 q 0,0.69531 0.195312,0.9375 0.203125,0.24219 0.515625,0.24219 0.257813,0 0.5,-0.15625 0.242188,-0.16407 0.375,-0.47657 h 0.304688 q -0.273438,0.76563 -0.773438,1.15625 -0.5,0.38282 -1.03125,0.38282 -0.359375,0 -0.703125,-0.19532 -0.34375,-0.20312 -0.507812,-0.57031 -0.164063,-0.375 -0.164063,-1.14844 v -4.8125 h -1.132812 v -0.25781 q 0.429687,-0.17187 0.875,-0.57812 0.453125,-0.41407 0.804687,-0.97657 0.179688,-0.29687 0.5,-1.08593 z"
         style="stroke-width:1"
         id="path154" />
      <path
         d="m 67.789062,232.06248 v 9.49219 q 0,0.67188 0.09375,0.89063 0.101563,0.21875 0.304688,0.33593 0.203125,0.10938 0.757812,0.10938 v 0.28125 H 65.4375 v -0.28125 q 0.492187,0 0.671875,-0.10156 0.179687,-0.10157 0.28125,-0.33594 0.101562,-0.23438 0.101562,-0.89844 v -6.5 q 0,-1.21094 -0.05469,-1.48437 -0.05469,-0.28125 -0.179688,-0.38282 -0.117187,-0.10156 -0.304687,-0.10156 -0.203125,0 -0.515625,0.125 l -0.132813,-0.27344 2.132813,-0.875 z"
         style="stroke-width:1"
         id="path156" />
      <path
         d="m 70.96875,238.71092 q -0.0078,1.59375 0.773437,2.5 0.78125,0.90625 1.835938,0.90625 0.703125,0 1.21875,-0.38281 0.523437,-0.39063 0.875,-1.32813 l 0.242187,0.15625 q -0.164062,1.07032 -0.953125,1.95313 -0.789062,0.875 -1.976562,0.875 -1.289063,0 -2.210938,-1 -0.914062,-1.00781 -0.914062,-2.70313 0,-1.83593 0.9375,-2.85937 0.945312,-1.03125 2.367187,-1.03125 1.203125,0 1.976563,0.79687 0.773437,0.78907 0.773437,2.11719 z m 0,-0.45312 h 3.3125 q -0.03906,-0.6875 -0.164063,-0.96875 -0.195312,-0.4375 -0.585937,-0.6875 -0.382813,-0.25 -0.804688,-0.25 -0.648437,0 -1.164062,0.50781 -0.507813,0.5 -0.59375,1.39844 z"
         style="stroke-width:1"
         id="path158" />
      <path
         d="m 77.007812,238.99217 h 4.039063 v 1.17969 h -4.039063 z"
         style="stroke-width:1"
         id="path160" />
      <path
         d="m 83.40625,238.71092 q -0.0078,1.59375 0.773437,2.5 0.78125,0.90625 1.835938,0.90625 0.703125,0 1.21875,-0.38281 0.523437,-0.39063 0.875,-1.32813 l 0.242187,0.15625 q -0.164062,1.07032 -0.953125,1.95313 -0.789062,0.875 -1.976562,0.875 -1.289063,0 -2.210938,-1 -0.914062,-1.00781 -0.914062,-2.70313 0,-1.83593 0.9375,-2.85937 0.945312,-1.03125 2.367187,-1.03125 1.203125,0 1.976563,0.79687 0.773437,0.78907 0.773437,2.11719 z m 0,-0.45312 h 3.3125 q -0.03906,-0.6875 -0.164063,-0.96875 -0.195312,-0.4375 -0.585937,-0.6875 -0.382813,-0.25 -0.804688,-0.25 -0.648437,0 -1.164062,0.50781 -0.507813,0.5 -0.59375,1.39844 z"
         style="stroke-width:1"
         id="path162" />
      <path
         d="m 91.382812,237.3203 q 1.257813,-1.51563 2.398438,-1.51563 0.585937,0 1.007812,0.29688 0.421875,0.28906 0.671875,0.96093 0.171875,0.46875 0.171875,1.4375 v 3.05469 q 0,0.67969 0.109375,0.92188 0.08594,0.19531 0.273438,0.30468 0.195312,0.10938 0.710937,0.10938 v 0.28125 H 93.1875 v -0.28125 h 0.148437 q 0.5,0 0.695313,-0.14844 0.203125,-0.15625 0.28125,-0.45312 0.03125,-0.11719 0.03125,-0.73438 v -2.92969 q 0,-0.97656 -0.257813,-1.41406 -0.25,-0.44531 -0.851562,-0.44531 -0.929688,0 -1.851563,1.01562 v 3.77344 q 0,0.72656 0.08594,0.89844 0.109375,0.22656 0.296875,0.33594 0.195312,0.10156 0.78125,0.10156 v 0.28125 h -3.539063 v -0.28125 h 0.15625 q 0.546875,0 0.734375,-0.27344 0.195313,-0.28125 0.195313,-1.0625 v -2.65625 q 0,-1.28906 -0.0625,-1.57031 -0.05469,-0.28125 -0.179688,-0.38281 -0.117187,-0.10157 -0.320312,-0.10157 -0.21875,0 -0.523438,0.11719 l -0.117187,-0.28125 2.15625,-0.875 h 0.335937 z"
         style="stroke-width:1"
         id="path164" />
      <path
         d="m 102.35156,242.36717 q -0.52343,0.54688 -1.02343,0.78906 -0.5,0.23438 -1.07813,0.23438 -1.171875,0 -2.046875,-0.97656 -0.875,-0.98438 -0.875,-2.52344 0,-1.53906 0.96875,-2.8125 0.96875,-1.28125 2.492185,-1.28125 0.94532,0 1.5625,0.60156 v -1.32031 q 0,-1.22656 -0.0625,-1.50781 -0.0547,-0.28125 -0.17968,-0.38282 -0.125,-0.10156 -0.3125,-0.10156 -0.20313,0 -0.53907,0.125 l -0.10156,-0.27344 2.13281,-0.875 h 0.35157 v 8.27344 q 0,1.25781 0.0547,1.53906 0.0625,0.27344 0.1875,0.38282 0.13282,0.10937 0.30469,0.10937 0.21094,0 0.5625,-0.13281 l 0.0859,0.27344 -2.125,0.88281 h -0.35938 z m 0,-0.54687 v -3.6875 q -0.0469,-0.53125 -0.28125,-0.96875 -0.23437,-0.4375 -0.625,-0.65625 -0.38281,-0.22657 -0.75,-0.22657 -0.6875,0 -1.22656,0.61719 -0.710938,0.8125 -0.710938,2.375 0,1.57813 0.6875,2.42188 0.687498,0.83593 1.531248,0.83593 0.71094,0 1.375,-0.71093 z"
         style="stroke-width:1"
         id="path166" />
      <path
         d="m 107.11719,232.06248 q 0.32812,0 0.55469,0.23438 0.23437,0.22656 0.23437,0.55469 0,0.32812 -0.23437,0.5625 -0.22657,0.23437 -0.55469,0.23437 -0.32813,0 -0.5625,-0.23437 -0.23438,-0.23438 -0.23438,-0.5625 0,-0.32813 0.22657,-0.55469 0.23437,-0.23438 0.57031,-0.23438 z m 0.64844,3.74219 v 5.75 q 0,0.67188 0.0937,0.89844 0.10156,0.21875 0.28906,0.32812 0.19531,0.10938 0.70312,0.10938 v 0.28125 H 105.375 v -0.28125 q 0.52344,0 0.70313,-0.10156 0.17968,-0.10157 0.28125,-0.33594 0.10937,-0.23438 0.10937,-0.89844 v -2.75781 q 0,-1.16406 -0.0703,-1.50781 -0.0547,-0.25 -0.17188,-0.34375 -0.11718,-0.10157 -0.32031,-0.10157 -0.21875,0 -0.53125,0.11719 l -0.10937,-0.28125 2.15625,-0.875 z"
         style="stroke-width:1"
         id="path168" />
      <path
         d="m 113.78906,242.14061 q -1.10156,0.85156 -1.38281,0.98437 -0.42187,0.19532 -0.89844,0.19532 -0.74218,0 -1.22656,-0.50782 -0.47656,-0.50781 -0.47656,-1.33593 0,-0.52344 0.23437,-0.90625 0.32032,-0.53125 1.10938,-1 0.79687,-0.46875 2.64062,-1.14063 v -0.28125 q 0,-1.07031 -0.34375,-1.46875 -0.33593,-0.39844 -0.98437,-0.39844 -0.49219,0 -0.78125,0.26563 -0.29688,0.26562 -0.29688,0.60937 l 0.0156,0.45313 q 0,0.35937 -0.1875,0.55469 -0.17969,0.19531 -0.47656,0.19531 -0.28907,0 -0.47657,-0.20313 -0.17968,-0.20312 -0.17968,-0.55468 0,-0.67188 0.6875,-1.23438 0.6875,-0.5625 1.92968,-0.5625 0.95313,0 1.5625,0.32031 0.46094,0.24219 0.67969,0.75782 0.14063,0.33593 0.14063,1.375 v 2.42968 q 0,1.02344 0.0391,1.25782 0.0391,0.22656 0.125,0.30468 0.0937,0.0781 0.21094,0.0781 0.125,0 0.21875,-0.0547 0.16406,-0.10156 0.63281,-0.57031 v 0.4375 q -0.875,1.17187 -1.67188,1.17187 -0.38281,0 -0.60937,-0.26562 -0.22656,-0.26563 -0.23438,-0.90625 z m 0,-0.50781 v -2.72657 q -1.17968,0.46875 -1.52343,0.66407 -0.61719,0.34375 -0.88282,0.71875 -0.26562,0.375 -0.26562,0.82031 0,0.5625 0.33594,0.9375 0.33593,0.36719 0.77343,0.36719 0.59375,0 1.5625,-0.78125 z"
         style="stroke-width:1"
         id="path170" />
      <path
         d="m 118.91406,237.3203 q 1.25782,-1.51563 2.39844,-1.51563 0.58594,0 1.00781,0.29688 0.42188,0.28906 0.67188,0.96093 0.17187,0.46875 0.17187,1.4375 v 3.05469 q 0,0.67969 0.10938,0.92188 0.0859,0.19531 0.27344,0.30468 0.19531,0.10938 0.71093,0.10938 v 0.28125 h -3.53906 v -0.28125 h 0.14844 q 0.5,0 0.69531,-0.14844 0.20313,-0.15625 0.28125,-0.45312 0.0312,-0.11719 0.0312,-0.73438 v -2.92969 q 0,-0.97656 -0.25781,-1.41406 -0.25,-0.44531 -0.85156,-0.44531 -0.92969,0 -1.85157,1.01562 v 3.77344 q 0,0.72656 0.0859,0.89844 0.10938,0.22656 0.29688,0.33594 0.19531,0.10156 0.78125,0.10156 v 0.28125 h -3.53907 v -0.28125 h 0.15625 q 0.54688,0 0.73438,-0.27344 0.19531,-0.28125 0.19531,-1.0625 v -2.65625 q 0,-1.28906 -0.0625,-1.57031 -0.0547,-0.28125 -0.17969,-0.38281 -0.11718,-0.10157 -0.32031,-0.10157 -0.21875,0 -0.52344,0.11719 l -0.11718,-0.28125 2.15625,-0.875 h 0.33593 z"
         style="stroke-width:1"
         id="path172" />
    </g>
    <g
       aria-label="0A0B0C0D"
       style="font-style:normal;font-weight:normal;font-size:16px;line-height:0%;font-family:'Arial Black';text-align:center;text-anchor:middle;display:inline;fill:#000000;fill-opacity:1;stroke:none;stroke-width:1"
       id="text2359-5">
      <path
         d="m 35.280411,66.404999 q 2.080078,0 3.251953,1.484375 1.396484,1.757812 1.396484,5.830078 0,4.0625 -1.40625,5.839844 -1.162109,1.464843 -3.242187,1.464843 -2.089844,0 -3.369141,-1.601562 -1.279297,-1.611328 -1.279297,-5.732422 0,-4.042969 1.40625,-5.820312 1.16211,-1.464844 3.242188,-1.464844 z m 0,2.27539 q -0.498047,0 -0.888672,0.322266 -0.390625,0.3125 -0.605469,1.132813 -0.283203,1.064453 -0.283203,3.583984 0,2.519531 0.253906,3.466797 0.253907,0.9375 0.634766,1.25 0.390625,0.3125 0.888672,0.3125 0.498047,0 0.888672,-0.3125 0.390625,-0.322266 0.605468,-1.142578 0.283204,-1.054688 0.283204,-3.574219 0,-2.519531 -0.253907,-3.457031 -0.253906,-0.947266 -0.644531,-1.259766 -0.380859,-0.322266 -0.878906,-0.322266 z"
         style="font-style:normal;font-variant:normal;font-weight:bold;font-stretch:normal;font-size:20px;font-family:Arial;-inkscape-font-specification:'Arial Bold';stroke-width:1"
         id="path175" />
      <path
         d="m 55.290176,80.779999 h -3.144531 l -1.25,-3.251953 h -5.722656 l -1.181641,3.251953 h -3.066406 l 5.576172,-14.316406 h 3.056641 z m -5.322265,-5.664063 -1.972656,-5.3125 -1.933594,5.3125 z"
         style="font-style:normal;font-variant:normal;font-weight:bold;font-stretch:normal;font-size:20px;font-family:Arial;-inkscape-font-specification:'Arial Bold';stroke-width:1"
         id="path177" />
      <path
         d="m 60.866348,66.404999 q 2.080078,0 3.251953,1.484375 1.396485,1.757812 1.396485,5.830078 0,4.0625 -1.40625,5.839844 -1.16211,1.464843 -3.242188,1.464843 -2.089843,0 -3.36914,-1.601562 -1.279297,-1.611328 -1.279297,-5.732422 0,-4.042969 1.40625,-5.820312 1.162109,-1.464844 3.242187,-1.464844 z m 0,2.27539 q -0.498047,0 -0.888672,0.322266 -0.390625,0.3125 -0.605468,1.132813 -0.283203,1.064453 -0.283203,3.583984 0,2.519531 0.253906,3.466797 0.253906,0.9375 0.634765,1.25 0.390625,0.3125 0.888672,0.3125 0.498047,0 0.888672,-0.3125 0.390625,-0.322266 0.605469,-1.142578 0.283203,-1.054688 0.283203,-3.574219 0,-2.519531 -0.253906,-3.457031 -0.253906,-0.947266 -0.644531,-1.259766 -0.38086,-0.322266 -0.878907,-0.322266 z"
         style="font-style:normal;font-variant:normal;font-weight:bold;font-stretch:normal;font-size:20px;font-family:Arial;-inkscape-font-specification:'Arial Bold';stroke-width:1"
         id="path179" />
      <path
         d="m 67.975723,66.463593 h 5.722657 q 1.699218,0 2.529296,0.146484 0.839844,0.136719 1.494141,0.585937 0.664063,0.449219 1.103516,1.201172 0.439453,0.742188 0.439453,1.669922 0,1.00586 -0.546875,1.845703 -0.53711,0.839844 -1.464844,1.259766 1.308594,0.380859 2.011719,1.298828 0.703125,0.917969 0.703125,2.158203 0,0.976563 -0.458985,1.904297 -0.449218,0.917969 -1.240234,1.474609 -0.78125,0.546875 -1.933594,0.673829 -0.722656,0.07813 -3.486328,0.09766 h -4.873047 z m 2.890625,2.382812 v 3.310547 h 1.894532 q 1.689453,0 2.099609,-0.04883 0.742187,-0.08789 1.162109,-0.507813 0.429688,-0.429687 0.429688,-1.123047 0,-0.664062 -0.371094,-1.074218 -0.361328,-0.419922 -1.083984,-0.507813 -0.429688,-0.04883 -2.470703,-0.04883 z m 0,5.693359 v 3.828125 h 2.675782 q 1.5625,0 1.982421,-0.08789 0.644532,-0.117188 1.044922,-0.566406 0.410157,-0.458985 0.410157,-1.220704 0,-0.644531 -0.3125,-1.09375 -0.3125,-0.449218 -0.908204,-0.654296 -0.585937,-0.205079 -2.558593,-0.205079 z"
         style="font-style:normal;font-variant:normal;font-weight:bold;font-stretch:normal;font-size:20px;font-family:Arial;-inkscape-font-specification:'Arial Bold';stroke-width:1"
         id="path181" />
      <path
         d="m 86.452286,66.404999 q 2.080078,0 3.251953,1.484375 1.396484,1.757812 1.396484,5.830078 0,4.0625 -1.40625,5.839844 -1.162109,1.464843 -3.242187,1.464843 -2.089844,0 -3.369141,-1.601562 -1.279297,-1.611328 -1.279297,-5.732422 0,-4.042969 1.40625,-5.820312 1.16211,-1.464844 3.242188,-1.464844 z m 0,2.27539 q -0.498047,0 -0.888672,0.322266 -0.390625,0.3125 -0.605469,1.132813 -0.283203,1.064453 -0.283203,3.583984 0,2.519531 0.253906,3.466797 0.253907,0.9375 0.634766,1.25 0.390625,0.3125 0.888672,0.3125 0.498047,0 0.888672,-0.3125 0.390625,-0.322266 0.605468,-1.142578 0.283204,-1.054688 0.283204,-3.574219 0,-2.519531 -0.253907,-3.457031 -0.253906,-0.947266 -0.644531,-1.259766 -0.380859,-0.322266 -0.878906,-0.322266 z"
         style="font-style:normal;font-variant:normal;font-weight:bold;font-stretch:normal;font-size:20px;font-family:Arial;-inkscape-font-specification:'Arial Bold';stroke-width:1"
         id="path183" />
      <path
         d="m 102.71205,75.516327 2.80274,0.888672 q -0.64454,2.34375 -2.14844,3.486328 -1.49414,1.132812 -3.79883,1.132812 -2.851562,0 -4.6875,-1.943359 -1.835937,-1.953125 -1.835937,-5.332031 0,-3.574219 1.845703,-5.546875 1.845703,-1.982422 4.853515,-1.982422 2.626949,0 4.267579,1.552734 0.97656,0.917969 1.46484,2.636719 l -2.86132,0.683594 q -0.25391,-1.113281 -1.06446,-1.757813 -0.80078,-0.644531 -1.953123,-0.644531 -1.591797,0 -2.587891,1.142578 -0.986328,1.142578 -0.986328,3.701172 0,2.714844 0.976563,3.867188 0.976562,1.152343 2.539062,1.152343 1.152347,0 1.982427,-0.732422 0.83007,-0.732421 1.1914,-2.304687 z"
         style="font-style:normal;font-variant:normal;font-weight:bold;font-stretch:normal;font-size:20px;font-family:Arial;-inkscape-font-specification:'Arial Bold';stroke-width:1"
         id="path185" />
      <path
         d="m 112.03822,66.404999 q 2.08008,0 3.25196,1.484375 1.39648,1.757812 1.39648,5.830078 0,4.0625 -1.40625,5.839844 -1.16211,1.464843 -3.24219,1.464843 -2.08984,0 -3.36914,-1.601562 -1.27929,-1.611328 -1.27929,-5.732422 0,-4.042969 1.40625,-5.820312 1.16211,-1.464844 3.24218,-1.464844 z m 0,2.27539 q -0.49804,0 -0.88867,0.322266 -0.39062,0.3125 -0.60547,1.132813 -0.2832,1.064453 -0.2832,3.583984 0,2.519531 0.25391,3.466797 0.2539,0.9375 0.63476,1.25 0.39063,0.3125 0.88867,0.3125 0.49805,0 0.88868,-0.3125 0.39062,-0.322266 0.60546,-1.142578 0.28321,-1.054688 0.28321,-3.574219 0,-2.519531 -0.25391,-3.457031 -0.25391,-0.947266 -0.64453,-1.259766 -0.38086,-0.322266 -0.87891,-0.322266 z"
         style="font-style:normal;font-variant:normal;font-weight:bold;font-stretch:normal;font-size:20px;font-family:Arial;-inkscape-font-specification:'Arial Bold';stroke-width:1"
         id="path187" />
      <path
         d="m 119.12807,66.463593 h 5.2832 q 1.78711,0 2.72461,0.273437 1.25977,0.371094 2.1582,1.318359 0.89844,0.947266 1.36719,2.324219 0.46875,1.367188 0.46875,3.378906 0,1.767579 -0.43945,3.046875 -0.53711,1.5625 -1.53321,2.529297 -0.75195,0.732422 -2.03125,1.142578 -0.95703,0.302735 -2.55859,0.302735 h -5.43945 z m 2.89062,2.421875 v 9.482421 h 2.15821 q 1.21093,0 1.74804,-0.136718 0.70313,-0.175782 1.16211,-0.595703 0.46875,-0.419922 0.76172,-1.376954 0.29297,-0.966796 0.29297,-2.626953 0,-1.660156 -0.29297,-2.548828 -0.29297,-0.888672 -0.82031,-1.386719 -0.52735,-0.498046 -1.33789,-0.673828 -0.60547,-0.136718 -2.37305,-0.136718 z"
         style="font-style:normal;font-variant:normal;font-weight:bold;font-stretch:normal;font-size:20px;font-family:Arial;-inkscape-font-specification:'Arial Bold';stroke-width:1"
         id="path189" />
    </g>
    <g
       aria-label="Memory"
       style="font-style:normal;font-weight:normal;font-size:16px;line-height:0%;font-family:'Times New Roman';text-align:center;text-anchor:middle;display:inline;fill:#000000;fill-opacity:1;stroke:none;stroke-width:1"
       id="text3347-7">
      <path
         d="m 214.92187,81.59375 -4.09375,-8.914063 v 7.078125 q 0,0.976563 0.21094,1.21875 0.28906,0.328125 0.91406,0.328125 h 0.375 v 0.289063 h -3.6875 v -0.289063 h 0.375 q 0.67188,0 0.95313,-0.40625 0.17187,-0.25 0.17187,-1.140625 v -6.921875 q 0,-0.703125 -0.15625,-1.015625 -0.10937,-0.226562 -0.40625,-0.375 -0.28906,-0.15625 -0.9375,-0.15625 V 71 h 3 l 3.84375,8.289062 L 219.26562,71 h 3 v 0.289062 h -0.36718 q -0.67969,0 -0.96094,0.40625 -0.17188,0.25 -0.17188,1.140625 v 6.921875 q 0,0.976563 0.21875,1.21875 0.28907,0.328125 0.91407,0.328125 h 0.36718 v 0.289063 h -4.5 v -0.289063 h 0.375 q 0.67969,0 0.95313,-0.40625 0.17187,-0.25 0.17187,-1.140625 v -7.078125 l -4.08593,8.914063 z"
         style="stroke-width:1"
         id="path192" />
      <path
         d="m 224.29687,77.132812 q -0.008,1.59375 0.77344,2.5 0.78125,0.90625 1.83594,0.90625 0.70312,0 1.21875,-0.382812 0.52344,-0.390625 0.875,-1.328125 l 0.24219,0.15625 q -0.16407,1.070312 -0.95313,1.953125 -0.78906,0.875 -1.97656,0.875 -1.28906,0 -2.21094,-1 -0.91406,-1.007813 -0.91406,-2.703125 0,-1.835938 0.9375,-2.859375 0.94531,-1.03125 2.36719,-1.03125 1.20312,0 1.97656,0.796875 0.77344,0.789062 0.77344,2.117187 z m 0,-0.453125 h 3.3125 q -0.0391,-0.6875 -0.16406,-0.96875 -0.19531,-0.4375 -0.58594,-0.6875 -0.38281,-0.25 -0.80468,-0.25 -0.64844,0 -1.16407,0.507813 -0.50781,0.5 -0.59375,1.398437 z"
         style="stroke-width:1"
         id="path194" />
      <path
         d="m 232.3125,75.75 q 0.78125,-0.78125 0.92187,-0.898438 0.35157,-0.296875 0.75782,-0.460937 0.40625,-0.164063 0.80468,-0.164063 0.67188,0 1.15625,0.390625 0.48438,0.390625 0.64844,1.132813 0.80469,-0.9375 1.35938,-1.226563 0.55468,-0.296875 1.14062,-0.296875 0.57031,0 1.00781,0.296875 0.44532,0.289063 0.70313,0.953125 0.17187,0.453125 0.17187,1.421875 v 3.078125 q 0,0.671875 0.10157,0.921875 0.0781,0.171875 0.28906,0.296875 0.21094,0.117188 0.6875,0.117188 v 0.28125 h -3.53125 V 81.3125 h 0.14844 q 0.46093,0 0.71875,-0.179688 0.17968,-0.125 0.25781,-0.398437 0.0312,-0.132813 0.0312,-0.757813 v -3.078125 q 0,-0.875 -0.21094,-1.234375 -0.30469,-0.5 -0.97656,-0.5 -0.41406,0 -0.83594,0.210938 -0.41406,0.203125 -1.00781,0.765625 l -0.0156,0.08594 0.0156,0.335938 v 3.414062 q 0,0.734375 0.0781,0.914063 0.0859,0.179687 0.3125,0.304687 0.22657,0.117188 0.77344,0.117188 v 0.28125 h -3.61719 V 81.3125 q 0.59375,0 0.8125,-0.140625 0.22657,-0.140625 0.3125,-0.421875 0.0391,-0.132813 0.0391,-0.773438 v -3.078125 q 0,-0.875 -0.25782,-1.257812 -0.34375,-0.5 -0.96093,-0.5 -0.42188,0 -0.83594,0.226562 -0.64844,0.34375 -1,0.773438 v 3.835937 q 0,0.703125 0.0937,0.914063 0.10156,0.210937 0.28906,0.320312 0.19531,0.101563 0.78125,0.101563 v 0.28125 H 229.9375 V 81.3125 q 0.49219,0 0.6875,-0.101563 0.19531,-0.109375 0.29687,-0.335937 0.10157,-0.234375 0.10157,-0.898438 v -2.734375 q 0,-1.179687 -0.0703,-1.523437 -0.0547,-0.257813 -0.17187,-0.351563 -0.11719,-0.101562 -0.32031,-0.101562 -0.21875,0 -0.52344,0.117187 l -0.11719,-0.28125 2.15625,-0.875 h 0.33594 z"
         style="stroke-width:1"
         id="path196" />
      <path
         d="m 246.125,74.226562 q 1.625,0 2.60937,1.234375 0.83594,1.054688 0.83594,2.421875 0,0.960938 -0.46094,1.945313 -0.46093,0.984375 -1.27343,1.484375 -0.80469,0.5 -1.79688,0.5 -1.61719,0 -2.57031,-1.289063 -0.80469,-1.085937 -0.80469,-2.4375 0,-0.984375 0.48438,-1.953125 0.49218,-0.976562 1.28906,-1.4375 0.79687,-0.46875 1.6875,-0.46875 z m -0.24219,0.507813 q -0.41406,0 -0.83594,0.25 -0.41406,0.242187 -0.67187,0.859375 -0.25781,0.617187 -0.25781,1.585937 0,1.5625 0.61718,2.695313 0.625,1.132812 1.64063,1.132812 0.75781,0 1.25,-0.625 0.49219,-0.625 0.49219,-2.148437 0,-1.90625 -0.82032,-3 -0.55468,-0.75 -1.41406,-0.75 z"
         style="stroke-width:1"
         id="path198" />
      <path
         d="m 252.71875,74.226562 v 1.609375 q 0.89844,-1.609375 1.84375,-1.609375 0.42969,0 0.71094,0.265625 0.28125,0.257813 0.28125,0.601563 0,0.304687 -0.20313,0.515625 -0.20312,0.210937 -0.48437,0.210937 -0.27344,0 -0.61719,-0.265625 -0.33594,-0.273437 -0.5,-0.273437 -0.14063,0 -0.30469,0.15625 -0.35156,0.320312 -0.72656,1.054687 v 3.429688 q 0,0.59375 0.14844,0.898437 0.10156,0.210938 0.35937,0.351563 0.25781,0.140625 0.74219,0.140625 v 0.28125 h -3.66406 V 81.3125 q 0.54687,0 0.8125,-0.171875 0.19531,-0.125 0.27343,-0.398438 0.0391,-0.132812 0.0391,-0.757812 v -2.773438 q 0,-1.25 -0.0547,-1.484375 -0.0469,-0.242187 -0.1875,-0.351562 -0.13281,-0.109375 -0.33594,-0.109375 -0.24219,0 -0.54687,0.117187 l -0.0781,-0.28125 2.16406,-0.875 z"
         style="stroke-width:1"
         id="path200" />
      <path
         d="m 255.5625,74.4375 h 3.33594 v 0.289062 h -0.16407 q -0.35156,0 -0.53125,0.15625 -0.17187,0.148438 -0.17187,0.375 0,0.304688 0.25781,0.84375 l 1.74219,3.609375 1.60156,-3.953125 q 0.13281,-0.320312 0.13281,-0.632812 0,-0.140625 -0.0547,-0.210938 -0.0625,-0.08594 -0.19532,-0.132812 -0.13281,-0.05469 -0.46875,-0.05469 V 74.4375 h 2.32813 v 0.289062 q -0.28906,0.03125 -0.44531,0.125 -0.15625,0.09375 -0.34375,0.351563 -0.0703,0.109375 -0.26563,0.601562 l -2.91406,7.140625 q -0.42188,1.039063 -1.10938,1.570313 -0.67968,0.53125 -1.3125,0.53125 -0.46093,0 -0.75781,-0.265625 -0.29687,-0.265625 -0.29687,-0.609375 0,-0.328125 0.21093,-0.53125 0.21875,-0.195313 0.59375,-0.195313 0.25782,0 0.70313,0.171875 0.3125,0.117188 0.39062,0.117188 0.23438,0 0.50782,-0.242188 0.28125,-0.242187 0.5625,-0.9375 l 0.50781,-1.242187 -2.57031,-5.398438 q -0.11719,-0.242187 -0.375,-0.601562 -0.19532,-0.273438 -0.32032,-0.367188 -0.17968,-0.125 -0.57812,-0.21875 z"
         style="stroke-width:1"
         id="path202" />
    </g>
  </g>
</svg>
