<?xml version="1.0" encoding="UTF-8" standalone="no"?>
<svg
   width="1164"
   height="571"
   viewBox="0 0 1164 571"
   fill="none"
   version="1.1"
   id="svg163"
   sodipodi:docname="5.4-availability-gossip.svg"
   inkscape:version="1.2.1 (9c6d41e410, 2022-07-14)"
   xmlns:inkscape="http://www.inkscape.org/namespaces/inkscape"
   xmlns:sodipodi="http://sodipodi.sourceforge.net/DTD/sodipodi-0.dtd"
   xmlns="http://www.w3.org/2000/svg"
   xmlns:svg="http://www.w3.org/2000/svg">
  <defs
     id="defs167" />
  <sodipodi:namedview
     id="namedview165"
     pagecolor="#505050"
     bordercolor="#eeeeee"
     borderopacity="1"
     inkscape:showpageshadow="0"
     inkscape:pageopacity="0"
     inkscape:pagecheckerboard="0"
     inkscape:deskcolor="#505050"
     showgrid="false"
     inkscape:zoom="1.3642732"
     inkscape:cx="581.99487"
     inkscape:cy="286.96598"
     inkscape:window-width="1920"
     inkscape:window-height="1003"
     inkscape:window-x="0"
     inkscape:window-y="0"
     inkscape:window-maximized="1"
     inkscape:current-layer="svg163" />
  <rect
     x="227.5"
     y="110.5"
     width="66"
     height="65"
     rx="8.5"
     stroke="white"
     stroke-width="3"
     id="rect105" />
  <rect
     x="311.5"
     y="110.5"
     width="68"
     height="65"
     rx="8.5"
     stroke="white"
     stroke-width="3"
     id="rect107" />
  <rect
     x="396.5"
     y="110.5"
     width="67"
     height="65"
     rx="8.5"
     stroke="white"
     stroke-width="3"
     id="rect109" />
  <rect
     x="480.5"
     y="110.5"
     width="68"
     height="65"
     rx="8.5"
     stroke="white"
     stroke-width="3"
     id="rect111" />
  <rect
     x="649.5"
     y="110.5"
     width="68"
     height="65"
     rx="8.5"
     stroke="white"
     stroke-width="3"
     id="rect113" />
  <rect
     x="566.5"
     y="110.5"
     width="66"
     height="65"
     rx="8.5"
     stroke="white"
     stroke-width="3"
     id="rect115" />
  <rect
     x="735.5"
     y="110.5"
     width="66"
     height="65"
     rx="8.5"
     stroke="white"
     stroke-width="3"
     id="rect117" />
  <path
     d="M265.149 131.24V155H260.325V137.288C260.325 136.904 260.337 136.604 260.361 136.388C259.497 137.18 258.561 137.852 257.553 138.404C256.569 138.956 255.573 139.328 254.565 139.52L253.917 135.344C255.021 135.224 256.341 134.732 257.877 133.868C259.437 132.98 260.517 132.104 261.117 131.24H265.149Z"
     fill="#18F0BD"
     id="path119" />
  <path
     d="M346.505 155.36C343.361 155.36 340.985 154.328 339.377 152.264C337.793 150.2 337.001 147.152 337.001 143.12C337.001 139.088 337.793 136.04 339.377 133.976C340.985 131.912 343.361 130.88 346.505 130.88C349.649 130.88 352.013 131.912 353.597 133.976C355.205 136.04 356.009 139.088 356.009 143.12C356.009 147.152 355.205 150.2 353.597 152.264C352.013 154.328 349.649 155.36 346.505 155.36ZM346.505 151.364C348.041 151.364 349.181 150.692 349.925 149.348C350.669 148.004 351.041 145.928 351.041 143.12C351.041 140.312 350.669 138.236 349.925 136.892C349.181 135.548 348.041 134.876 346.505 134.876C344.969 134.876 343.829 135.548 343.085 136.892C342.341 138.236 341.969 140.312 341.969 143.12C341.969 145.928 342.341 148.004 343.085 149.348C343.829 150.692 344.969 151.364 346.505 151.364Z"
     fill="#E6007A"
     id="path121" />
  <path
     d="M431.005 155.36C427.861 155.36 425.485 154.328 423.877 152.264C422.293 150.2 421.501 147.152 421.501 143.12C421.501 139.088 422.293 136.04 423.877 133.976C425.485 131.912 427.861 130.88 431.005 130.88C434.149 130.88 436.513 131.912 438.097 133.976C439.705 136.04 440.509 139.088 440.509 143.12C440.509 147.152 439.705 150.2 438.097 152.264C436.513 154.328 434.149 155.36 431.005 155.36ZM431.005 151.364C432.541 151.364 433.681 150.692 434.425 149.348C435.169 148.004 435.541 145.928 435.541 143.12C435.541 140.312 435.169 138.236 434.425 136.892C433.681 135.548 432.541 134.876 431.005 134.876C429.469 134.876 428.329 135.548 427.585 136.892C426.841 138.236 426.469 140.312 426.469 143.12C426.469 145.928 426.841 148.004 427.585 149.348C428.329 150.692 429.469 151.364 431.005 151.364Z"
     fill="#E6007A"
     id="path123" />
  <path
     d="M519.649 131.24V155H514.825V137.288C514.825 136.904 514.837 136.604 514.861 136.388C513.997 137.18 513.061 137.852 512.053 138.404C511.069 138.956 510.073 139.328 509.065 139.52L508.417 135.344C509.521 135.224 510.841 134.732 512.377 133.868C513.937 132.98 515.017 132.104 515.617 131.24H519.649Z"
     fill="#18F0BD"
     id="path125" />
  <path
     d="M688.649 131.24V155H683.825V137.288C683.825 136.904 683.837 136.604 683.861 136.388C682.997 137.18 682.061 137.852 681.053 138.404C680.069 138.956 679.073 139.328 678.065 139.52L677.417 135.344C678.521 135.224 679.841 134.732 681.377 133.868C682.937 132.98 684.017 132.104 684.617 131.24H688.649Z"
     fill="#18F0BD"
     id="path127" />
  <path
     d="M601.005 155.36C597.861 155.36 595.485 154.328 593.877 152.264C592.293 150.2 591.501 147.152 591.501 143.12C591.501 139.088 592.293 136.04 593.877 133.976C595.485 131.912 597.861 130.88 601.005 130.88C604.149 130.88 606.513 131.912 608.097 133.976C609.705 136.04 610.509 139.088 610.509 143.12C610.509 147.152 609.705 150.2 608.097 152.264C606.513 154.328 604.149 155.36 601.005 155.36ZM601.005 151.364C602.541 151.364 603.681 150.692 604.425 149.348C605.169 148.004 605.541 145.928 605.541 143.12C605.541 140.312 605.169 138.236 604.425 136.892C603.681 135.548 602.541 134.876 601.005 134.876C599.469 134.876 598.329 135.548 597.585 136.892C596.841 138.236 596.469 140.312 596.469 143.12C596.469 145.928 596.841 148.004 597.585 149.348C598.329 150.692 599.469 151.364 601.005 151.364Z"
     fill="#E6007A"
     id="path129" />
  <path
     d="M770.005 155.36C766.861 155.36 764.485 154.328 762.877 152.264C761.293 150.2 760.501 147.152 760.501 143.12C760.501 139.088 761.293 136.04 762.877 133.976C764.485 131.912 766.861 130.88 770.005 130.88C773.149 130.88 775.513 131.912 777.097 133.976C778.705 136.04 779.509 139.088 779.509 143.12C779.509 147.152 778.705 150.2 777.097 152.264C775.513 154.328 773.149 155.36 770.005 155.36ZM770.005 151.364C771.541 151.364 772.681 150.692 773.425 149.348C774.169 148.004 774.541 145.928 774.541 143.12C774.541 140.312 774.169 138.236 773.425 136.892C772.681 135.548 771.541 134.876 770.005 134.876C768.469 134.876 767.329 135.548 766.585 136.892C765.841 138.236 765.469 140.312 765.469 143.12C765.469 145.928 765.841 148.004 766.585 149.348C767.329 150.692 768.469 151.364 770.005 151.364Z"
     fill="#E6007A"
     id="path131" />
  <path
     d="M243.155 194.163C242.692 193.475 241.76 193.293 241.073 193.756L229.873 201.292C229.185 201.755 229.003 202.687 229.466 203.374C229.928 204.062 230.86 204.244 231.548 203.781L241.503 197.082L248.203 207.038C248.665 207.725 249.597 207.907 250.285 207.445C250.972 206.982 251.154 206.05 250.692 205.363L243.155 194.163ZM137.507 204.853C138.586 216.295 145.103 225.319 154.317 231.407C163.512 237.483 175.435 240.675 187.555 240.535C211.812 240.254 237.266 226.574 243.383 195.288L240.438 194.712C234.658 224.278 210.715 237.267 187.52 237.535C175.914 237.669 164.598 234.605 155.97 228.904C147.361 223.216 141.472 214.941 140.493 204.571L137.507 204.853Z"
     fill="white"
     id="path133" />
  <path
     d="M344.991 194C345.988 265.709 261.997 287.944 261 383"
     stroke="#E6007A"
     stroke-width="3"
     id="path135" />
  <path
     d="M261.055 194C254.883 265.709 774.829 287.944 781 383"
     stroke="#18F0BD"
     stroke-width="3"
     id="path137" />
  <path
     d="M515.028 194C511.871 265.709 777.843 287.944 781 383"
     stroke="#18F0BD"
     stroke-width="3"
     id="path139" />
  <path
     d="M686.01 194C684.882 265.709 779.873 287.944 781 383"
     stroke="#18F0BD"
     stroke-width="3"
     id="path141" />
  <path
     d="M428.982 194C430.976 265.709 262.994 287.944 261 383"
     stroke="#E6007A"
     stroke-width="3"
     id="path143" />
  <path
     d="M597.965 194C601.964 265.709 265 287.944 261 383"
     stroke="#E6007A"
     stroke-width="3"
     id="path145" />
  <path
     d="M48.3277 2C22.7416 2 2 22.7174 2 48.2736V453.63C2 479.186 22.7416 499.903 48.3277 499.903H854.93L950.791 567L938.252 499.903H939.672C965.258 499.903 986 479.186 986 453.63V48.2735C986 22.7174 965.258 2 939.672 2H48.3277Z"
     stroke="white"
     stroke-width="3"
     id="path147" />
  <path
     d="M810.5 178.875H808.75V175.375C808.75 170.545 804.83 166.625 800 166.625C795.17 166.625 791.25 170.545 791.25 175.375V178.875H789.5C787.575 178.875 786 180.45 786 182.375V199.875C786 201.8 787.575 203.375 789.5 203.375H810.5C812.425 203.375 814 201.8 814 199.875V182.375C814 180.45 812.425 178.875 810.5 178.875ZM794.75 175.375C794.75 172.47 797.095 170.125 800 170.125C802.905 170.125 805.25 172.47 805.25 175.375V178.875H794.75V175.375ZM810.5 199.875H789.5V182.375H810.5V199.875ZM800 194.625C801.925 194.625 803.5 193.05 803.5 191.125C803.5 189.2 801.925 187.625 800 187.625C798.075 187.625 796.5 189.2 796.5 191.125C796.5 193.05 798.075 194.625 800 194.625Z"
     fill="white"
     id="path149" />
  <path
     d="M229.744 59.52H237.024C239.189 59.52 240.795 59.9587 241.84 60.836C242.904 61.7133 243.436 62.964 243.436 64.588C243.436 65.596 243.147 66.4733 242.568 67.22C241.989 67.9667 241.177 68.4333 240.132 68.62V68.648C241.289 68.8347 242.204 69.32 242.876 70.104C243.567 70.888 243.912 71.812 243.912 72.876C243.912 74.4813 243.324 75.7413 242.148 76.656C240.972 77.552 239.301 78 237.136 78H229.744V59.52ZM236.8 67.472C239.152 67.472 240.328 66.5667 240.328 64.756C240.328 62.9453 239.152 62.04 236.8 62.04H232.684V67.472H236.8ZM237.276 75.508C238.433 75.508 239.311 75.2747 239.908 74.808C240.505 74.3227 240.804 73.632 240.804 72.736C240.804 71.84 240.505 71.1587 239.908 70.692C239.311 70.2067 238.433 69.964 237.276 69.964H232.684V75.508H237.276ZM249.935 61.648C249.3 61.648 248.806 61.4893 248.451 61.172C248.096 60.836 247.919 60.3693 247.919 59.772C247.919 59.1747 248.096 58.7173 248.451 58.4C248.806 58.0827 249.3 57.924 249.935 57.924C250.57 57.924 251.055 58.0827 251.391 58.4C251.746 58.7173 251.923 59.1747 251.923 59.772C251.923 60.3693 251.746 60.836 251.391 61.172C251.055 61.4893 250.57 61.648 249.935 61.648ZM251.419 78H248.423V64H251.419V78ZM265.739 77.076C265.291 77.4493 264.74 77.748 264.087 77.972C263.452 78.1773 262.761 78.28 262.015 78.28C260.727 78.28 259.691 77.9627 258.907 77.328C258.141 76.6747 257.749 75.6667 257.731 74.304V66.352H255.071V64H257.731V60.724L260.727 59.884V64H265.627V66.352H260.727V73.8C260.727 74.472 260.904 74.976 261.259 75.312C261.632 75.6293 262.136 75.788 262.771 75.788C263.629 75.788 264.385 75.4893 265.039 74.892L265.739 77.076ZM272.632 64H277.168V66.352H272.716V78H269.72V66.352H267.088V64H269.72V61.984C269.72 60.5653 270.15 59.464 271.008 58.68C271.867 57.896 273.071 57.504 274.62 57.504C275.18 57.504 275.694 57.5693 276.16 57.7C276.627 57.812 276.991 57.9707 277.252 58.176L276.692 60.36C276.263 60.08 275.731 59.94 275.096 59.94C273.454 59.94 272.632 60.696 272.632 62.208V64ZM281.368 61.648C280.734 61.648 280.239 61.4893 279.884 61.172C279.53 60.836 279.352 60.3693 279.352 59.772C279.352 59.1747 279.53 58.7173 279.884 58.4C280.239 58.0827 280.734 57.924 281.368 57.924C282.003 57.924 282.488 58.0827 282.824 58.4C283.179 58.7173 283.356 59.1747 283.356 59.772C283.356 60.3693 283.179 60.836 282.824 61.172C282.488 61.4893 282.003 61.648 281.368 61.648ZM282.852 78H279.856V64H282.852V78ZM300.572 70.58C300.572 71.1213 300.535 71.6347 300.46 72.12H290.212C290.38 73.352 290.819 74.2947 291.528 74.948C292.238 75.5827 293.152 75.9 294.272 75.9C295.187 75.9 295.943 75.7413 296.54 75.424C297.156 75.088 297.576 74.612 297.8 73.996L300.292 75.032C299.247 77.1973 297.24 78.28 294.272 78.28C292.07 78.28 290.343 77.636 289.092 76.348C287.86 75.06 287.244 73.2773 287.244 71C287.244 68.704 287.842 66.9213 289.036 65.652C290.231 64.364 291.911 63.72 294.076 63.72C296.13 63.72 297.726 64.3453 298.864 65.596C300.003 66.8467 300.572 68.508 300.572 70.58ZM294.076 66.1C292.994 66.1 292.116 66.4173 291.444 67.052C290.791 67.6867 290.38 68.6107 290.212 69.824H297.772C297.623 68.648 297.222 67.7333 296.568 67.08C295.934 66.4267 295.103 66.1 294.076 66.1ZM307.798 73.912C307.798 74.6027 307.9 75.088 308.106 75.368C308.311 75.6293 308.694 75.76 309.254 75.76C309.608 75.76 309.907 75.7413 310.15 75.704C310.411 75.648 310.728 75.5453 311.102 75.396L310.766 77.804C310.131 78.1213 309.356 78.28 308.442 78.28C307.191 78.28 306.267 77.9627 305.67 77.328C305.091 76.6933 304.802 75.6947 304.802 74.332V57.7H307.798V73.912ZM327.132 57.7V78H324.5L324.332 75.508C323.922 76.348 323.296 77.02 322.456 77.524C321.635 78.028 320.692 78.28 319.628 78.28C317.706 78.28 316.184 77.6453 315.064 76.376C313.963 75.088 313.412 73.3053 313.412 71.028C313.412 68.7507 313.963 66.968 315.064 65.68C316.184 64.3733 317.706 63.72 319.628 63.72C320.655 63.72 321.56 63.9533 322.344 64.42C323.128 64.868 323.726 65.484 324.136 66.268V57.7H327.132ZM320.3 75.872C321.476 75.872 322.41 75.452 323.1 74.612C323.791 73.772 324.136 72.624 324.136 71.168V70.832C324.136 69.376 323.791 68.2373 323.1 67.416C322.41 66.576 321.476 66.156 320.3 66.156C319.087 66.156 318.135 66.5853 317.444 67.444C316.772 68.284 316.436 69.4693 316.436 71C316.436 72.5307 316.772 73.7253 317.444 74.584C318.135 75.4427 319.087 75.872 320.3 75.872Z"
     fill="white"
     id="path151" />
  <path
     d="M204.404 419H201.102L194.472 408.184L192.808 405.012H192.782L192.886 407.924V419H190.338V401.84H193.614L200.218 412.63L201.908 415.828H201.934L201.83 412.916V401.84H204.404V419ZM214.635 405.74C216.663 405.74 218.249 406.338 219.393 407.534C220.537 408.73 221.109 410.385 221.109 412.5C221.109 414.615 220.537 416.27 219.393 417.466C218.249 418.662 216.663 419.26 214.635 419.26C212.607 419.26 211.021 418.662 209.877 417.466C208.733 416.27 208.161 414.615 208.161 412.5C208.161 410.385 208.733 408.73 209.877 407.534C211.021 406.338 212.607 405.74 214.635 405.74ZM214.635 407.924C213.456 407.924 212.546 408.323 211.905 409.12C211.281 409.9 210.969 411.027 210.969 412.5C210.969 413.973 211.281 415.109 211.905 415.906C212.546 416.686 213.456 417.076 214.635 417.076C215.814 417.076 216.724 416.677 217.365 415.88C218.006 415.083 218.327 413.956 218.327 412.5C218.327 411.044 218.006 409.917 217.365 409.12C216.724 408.323 215.814 407.924 214.635 407.924ZM232.929 418.142C232.513 418.489 232.001 418.766 231.395 418.974C230.805 419.165 230.164 419.26 229.471 419.26C228.275 419.26 227.313 418.965 226.585 418.376C225.874 417.769 225.51 416.833 225.493 415.568V408.184H223.023V406H225.493V402.958L228.275 402.178V406H232.825V408.184H228.275V415.1C228.275 415.724 228.439 416.192 228.769 416.504C229.115 416.799 229.583 416.946 230.173 416.946C230.97 416.946 231.672 416.669 232.279 416.114L232.929 418.142ZM249.335 412.89L246.761 415.542V419H243.979V400.15H246.761V412.37L252.975 406H256.251L251.285 411.096L256.563 419H253.339L249.335 412.89ZM266.131 405.74C267.57 405.74 268.74 406.156 269.641 406.988C270.56 407.82 271.019 409.016 271.019 410.576V419H268.237V411.46C268.237 409.172 267.31 408.028 265.455 408.028C264.485 408.028 263.653 408.366 262.959 409.042C262.266 409.701 261.919 410.723 261.919 412.11V419H259.137V406H261.607L261.737 408.158C262.171 407.343 262.769 406.737 263.531 406.338C264.294 405.939 265.161 405.74 266.131 405.74ZM280.955 405.74C282.983 405.74 284.569 406.338 285.713 407.534C286.857 408.73 287.429 410.385 287.429 412.5C287.429 414.615 286.857 416.27 285.713 417.466C284.569 418.662 282.983 419.26 280.955 419.26C278.927 419.26 277.341 418.662 276.197 417.466C275.053 416.27 274.481 414.615 274.481 412.5C274.481 410.385 275.053 408.73 276.197 407.534C277.341 406.338 278.927 405.74 280.955 405.74ZM280.955 407.924C279.776 407.924 278.866 408.323 278.225 409.12C277.601 409.9 277.289 411.027 277.289 412.5C277.289 413.973 277.601 415.109 278.225 415.906C278.866 416.686 279.776 417.076 280.955 417.076C282.134 417.076 283.044 416.677 283.685 415.88C284.326 415.083 284.647 413.956 284.647 412.5C284.647 411.044 284.326 409.917 283.685 409.12C283.044 408.323 282.134 407.924 280.955 407.924ZM310.382 406L306.04 419H302.998L299.722 409.172L296.602 419H293.56L289.218 406H292.234L295.172 416.4L298.422 406H301.178L304.402 416.4L307.366 406H310.382ZM320.264 405.74C321.703 405.74 322.873 406.156 323.774 406.988C324.693 407.82 325.152 409.016 325.152 410.576V419H322.37V411.46C322.37 409.172 321.443 408.028 319.588 408.028C318.618 408.028 317.786 408.366 317.092 409.042C316.399 409.701 316.052 410.723 316.052 412.11V419H313.27V406H315.74L315.87 408.158C316.304 407.343 316.902 406.737 317.664 406.338C318.427 405.939 319.294 405.74 320.264 405.74ZM172.059 434.74C173.845 434.74 175.249 435.347 176.271 436.56C177.294 437.756 177.805 439.411 177.805 441.526C177.805 443.641 177.294 445.296 176.271 446.492C175.249 447.671 173.845 448.26 172.059 448.26C171.037 448.26 170.135 448.017 169.355 447.532C168.593 447.047 168.021 446.397 167.639 445.582L167.509 448H165.065V429.15H167.847V437.08C168.246 436.352 168.809 435.78 169.537 435.364C170.283 434.948 171.123 434.74 172.059 434.74ZM171.435 446.024C172.562 446.024 173.437 445.625 174.061 444.828C174.703 444.031 175.023 442.921 175.023 441.5C175.023 440.079 174.703 438.978 174.061 438.198C173.437 437.401 172.562 437.002 171.435 437.002C170.378 437.002 169.529 437.357 168.887 438.068C168.263 438.779 167.917 439.758 167.847 441.006V441.994C167.917 443.259 168.263 444.247 168.887 444.958C169.529 445.669 170.378 446.024 171.435 446.024ZM186.966 449.534C186.394 451.025 185.744 452.073 185.016 452.68C184.288 453.287 183.334 453.59 182.156 453.59C181.48 453.59 180.89 453.503 180.388 453.33C179.902 453.174 179.469 452.914 179.088 452.55L179.894 450.418C180.414 451.042 181.124 451.354 182.026 451.354C182.546 451.354 182.979 451.215 183.326 450.938C183.69 450.678 184.01 450.193 184.288 449.482L184.86 448.078L183.508 444.854L179.452 435H182.572L185.432 443.164L186.186 445.608L187.07 442.93L189.774 435H192.66L186.966 449.534ZM213.805 435L208.631 448H205.589L200.389 435H203.457L207.123 445.738L210.893 435H213.805ZM227.078 446.18C227.46 446.18 227.78 446.145 228.04 446.076L227.858 447.948C227.39 448.156 226.853 448.26 226.246 448.26C225.501 448.26 224.903 448.113 224.452 447.818C224.019 447.523 223.733 447.029 223.594 446.336C223.196 446.943 222.606 447.419 221.826 447.766C221.046 448.095 220.171 448.26 219.2 448.26C217.935 448.26 216.912 447.965 216.132 447.376C215.352 446.787 214.962 445.946 214.962 444.854C214.962 443.831 215.387 442.973 216.236 442.28C217.086 441.569 218.351 441.067 220.032 440.772L223.334 440.2V439.498C223.334 438.701 223.1 438.077 222.632 437.626C222.164 437.158 221.514 436.924 220.682 436.924C218.966 436.924 217.848 437.704 217.328 439.264L215.17 438.12C215.482 437.08 216.115 436.257 217.068 435.65C218.039 435.043 219.226 434.74 220.63 434.74C222.312 434.74 223.646 435.13 224.634 435.91C225.622 436.69 226.116 437.834 226.116 439.342V445.218C226.116 445.547 226.186 445.79 226.324 445.946C226.48 446.102 226.732 446.18 227.078 446.18ZM219.798 446.154C220.734 446.154 221.558 445.929 222.268 445.478C222.979 445.027 223.334 444.429 223.334 443.684V442.124L220.5 442.696C219.599 442.869 218.932 443.112 218.498 443.424C218.065 443.736 217.848 444.152 217.848 444.672C217.848 445.157 218.013 445.53 218.342 445.79C218.689 446.033 219.174 446.154 219.798 446.154ZM233.379 444.204C233.379 444.845 233.474 445.296 233.665 445.556C233.855 445.799 234.211 445.92 234.731 445.92C235.06 445.92 235.337 445.903 235.563 445.868C235.805 445.816 236.1 445.721 236.447 445.582L236.135 447.818C235.545 448.113 234.826 448.26 233.977 448.26C232.815 448.26 231.957 447.965 231.403 447.376C230.865 446.787 230.597 445.859 230.597 444.594V429.15H233.379V444.204ZM240.178 432.816C239.589 432.816 239.13 432.669 238.8 432.374C238.471 432.062 238.306 431.629 238.306 431.074C238.306 430.519 238.471 430.095 238.8 429.8C239.13 429.505 239.589 429.358 240.178 429.358C240.768 429.358 241.218 429.505 241.53 429.8C241.86 430.095 242.024 430.519 242.024 431.074C242.024 431.629 241.86 432.062 241.53 432.374C241.218 432.669 240.768 432.816 240.178 432.816ZM241.556 448H238.774V435H241.556V448ZM257.947 429.15V448H255.503L255.347 445.686C254.966 446.466 254.385 447.09 253.605 447.558C252.842 448.026 251.967 448.26 250.979 448.26C249.194 448.26 247.781 447.671 246.741 446.492C245.718 445.296 245.207 443.641 245.207 441.526C245.207 439.411 245.718 437.756 246.741 436.56C247.781 435.347 249.194 434.74 250.979 434.74C251.932 434.74 252.773 434.957 253.501 435.39C254.229 435.806 254.784 436.378 255.165 437.106V429.15H257.947ZM251.603 446.024C252.695 446.024 253.562 445.634 254.203 444.854C254.844 444.074 255.165 443.008 255.165 441.656V441.344C255.165 439.992 254.844 438.935 254.203 438.172C253.562 437.392 252.695 437.002 251.603 437.002C250.476 437.002 249.592 437.401 248.951 438.198C248.327 438.978 248.015 440.079 248.015 441.5C248.015 442.921 248.327 444.031 248.951 444.828C249.592 445.625 250.476 446.024 251.603 446.024ZM273.493 446.18C273.874 446.18 274.195 446.145 274.455 446.076L274.273 447.948C273.805 448.156 273.267 448.26 272.661 448.26C271.915 448.26 271.317 448.113 270.867 447.818C270.433 447.523 270.147 447.029 270.009 446.336C269.61 446.943 269.021 447.419 268.241 447.766C267.461 448.095 266.585 448.26 265.615 448.26C264.349 448.26 263.327 447.965 262.547 447.376C261.767 446.787 261.377 445.946 261.377 444.854C261.377 443.831 261.801 442.973 262.651 442.28C263.5 441.569 264.765 441.067 266.447 440.772L269.749 440.2V439.498C269.749 438.701 269.515 438.077 269.047 437.626C268.579 437.158 267.929 436.924 267.097 436.924C265.381 436.924 264.263 437.704 263.743 439.264L261.585 438.12C261.897 437.08 262.529 436.257 263.483 435.65C264.453 435.043 265.641 434.74 267.045 434.74C268.726 434.74 270.061 435.13 271.049 435.91C272.037 436.69 272.531 437.834 272.531 439.342V445.218C272.531 445.547 272.6 445.79 272.739 445.946C272.895 446.102 273.146 446.18 273.493 446.18ZM266.213 446.154C267.149 446.154 267.972 445.929 268.683 445.478C269.393 445.027 269.749 444.429 269.749 443.684V442.124L266.915 442.696C266.013 442.869 265.346 443.112 264.913 443.424C264.479 443.736 264.263 444.152 264.263 444.672C264.263 445.157 264.427 445.53 264.757 445.79C265.103 446.033 265.589 446.154 266.213 446.154ZM285.005 447.142C284.589 447.489 284.078 447.766 283.471 447.974C282.882 448.165 282.24 448.26 281.547 448.26C280.351 448.26 279.389 447.965 278.661 447.376C277.95 446.769 277.586 445.833 277.569 444.568V437.184H275.099V435H277.569V431.958L280.351 431.178V435H284.901V437.184H280.351V444.1C280.351 444.724 280.516 445.192 280.845 445.504C281.192 445.799 281.66 445.946 282.249 445.946C283.046 445.946 283.748 445.669 284.355 445.114L285.005 447.142ZM293.32 434.74C295.348 434.74 296.934 435.338 298.078 436.534C299.222 437.73 299.794 439.385 299.794 441.5C299.794 443.615 299.222 445.27 298.078 446.466C296.934 447.662 295.348 448.26 293.32 448.26C291.292 448.26 289.706 447.662 288.562 446.466C287.418 445.27 286.846 443.615 286.846 441.5C286.846 439.385 287.418 437.73 288.562 436.534C289.706 435.338 291.292 434.74 293.32 434.74ZM293.32 436.924C292.142 436.924 291.232 437.323 290.59 438.12C289.966 438.9 289.654 440.027 289.654 441.5C289.654 442.973 289.966 444.109 290.59 444.906C291.232 445.686 292.142 446.076 293.32 446.076C294.499 446.076 295.409 445.677 296.05 444.88C296.692 444.083 297.012 442.956 297.012 441.5C297.012 440.044 296.692 438.917 296.05 438.12C295.409 437.323 294.499 436.924 293.32 436.924ZM310.076 434.74C310.683 434.74 311.159 434.827 311.506 435L311.064 437.548C310.665 437.323 310.119 437.21 309.426 437.21C308.871 437.21 308.343 437.357 307.84 437.652C307.355 437.947 306.947 438.389 306.618 438.978C306.306 439.567 306.15 440.278 306.15 441.11V448H303.368V435H305.734L305.968 437.34C306.696 435.607 308.065 434.74 310.076 434.74ZM328.686 430.034C327.057 431.525 325.895 433.093 325.202 434.74C324.526 436.387 324.188 438.397 324.188 440.772C324.188 443.147 324.526 445.157 325.202 446.804C325.895 448.433 327.057 449.993 328.686 451.484L327.23 452.94C325.341 451.415 323.911 449.629 322.94 447.584C321.987 445.539 321.51 443.268 321.51 440.772C321.51 438.259 321.987 435.979 322.94 433.934C323.911 431.889 325.341 430.103 327.23 428.578L328.686 430.034ZM339.209 448L335.933 443.112L332.553 448H329.407L334.295 441.448L329.667 435H332.995L336.115 439.706L339.209 435H342.407L337.753 441.37L342.485 448H339.209ZM344.753 428.578C346.625 430.103 348.038 431.889 348.991 433.934C349.962 435.979 350.447 438.259 350.447 440.772C350.447 443.268 349.962 445.539 348.991 447.584C348.038 449.629 346.625 451.415 344.753 452.94L343.271 451.484C344.9 450.011 346.053 448.451 346.729 446.804C347.422 445.157 347.769 443.147 347.769 440.772C347.769 438.397 347.422 436.387 346.729 434.74C346.053 433.076 344.9 431.507 343.271 430.034L344.753 428.578Z"
     fill="#E6007A"
     id="path153" />
  <path
     d="M742.826 410.732L740.044 413.722V419H737.262V401.84H740.044V410.368L747.922 401.84H751.328L744.828 408.86L751.484 419H748.208L742.826 410.732ZM761.208 405.74C762.646 405.74 763.816 406.156 764.718 406.988C765.636 407.82 766.096 409.016 766.096 410.576V419H763.314V411.46C763.314 409.172 762.386 408.028 760.532 408.028C759.561 408.028 758.729 408.366 758.036 409.042C757.342 409.701 756.996 410.723 756.996 412.11V419H754.214V406H756.684L756.814 408.158C757.247 407.343 757.845 406.737 758.608 406.338C759.37 405.939 760.237 405.74 761.208 405.74ZM776.031 405.74C778.059 405.74 779.645 406.338 780.789 407.534C781.933 408.73 782.505 410.385 782.505 412.5C782.505 414.615 781.933 416.27 780.789 417.466C779.645 418.662 778.059 419.26 776.031 419.26C774.003 419.26 772.417 418.662 771.273 417.466C770.129 416.27 769.557 414.615 769.557 412.5C769.557 410.385 770.129 408.73 771.273 407.534C772.417 406.338 774.003 405.74 776.031 405.74ZM776.031 407.924C774.853 407.924 773.943 408.323 773.301 409.12C772.677 409.9 772.365 411.027 772.365 412.5C772.365 413.973 772.677 415.109 773.301 415.906C773.943 416.686 774.853 417.076 776.031 417.076C777.21 417.076 778.12 416.677 778.761 415.88C779.403 415.083 779.723 413.956 779.723 412.5C779.723 411.044 779.403 409.917 778.761 409.12C778.12 408.323 777.21 407.924 776.031 407.924ZM805.458 406L801.116 419H798.074L794.798 409.172L791.678 419H788.636L784.294 406H787.31L790.248 416.4L793.498 406H796.254L799.478 416.4L802.442 406H805.458ZM815.34 405.74C816.779 405.74 817.949 406.156 818.85 406.988C819.769 407.82 820.228 409.016 820.228 410.576V419H817.446V411.46C817.446 409.172 816.519 408.028 814.664 408.028C813.694 408.028 812.862 408.366 812.168 409.042C811.475 409.701 811.128 410.723 811.128 412.11V419H808.346V406H810.816L810.946 408.158C811.38 407.343 811.978 406.737 812.74 406.338C813.503 405.939 814.37 405.74 815.34 405.74ZM693.059 434.74C694.845 434.74 696.249 435.347 697.271 436.56C698.294 437.756 698.805 439.411 698.805 441.526C698.805 443.641 698.294 445.296 697.271 446.492C696.249 447.671 694.845 448.26 693.059 448.26C692.037 448.26 691.135 448.017 690.355 447.532C689.593 447.047 689.021 446.397 688.639 445.582L688.509 448H686.065V429.15H688.847V437.08C689.246 436.352 689.809 435.78 690.537 435.364C691.283 434.948 692.123 434.74 693.059 434.74ZM692.435 446.024C693.562 446.024 694.437 445.625 695.061 444.828C695.703 444.031 696.023 442.921 696.023 441.5C696.023 440.079 695.703 438.978 695.061 438.198C694.437 437.401 693.562 437.002 692.435 437.002C691.378 437.002 690.529 437.357 689.887 438.068C689.263 438.779 688.917 439.758 688.847 441.006V441.994C688.917 443.259 689.263 444.247 689.887 444.958C690.529 445.669 691.378 446.024 692.435 446.024ZM707.966 449.534C707.394 451.025 706.744 452.073 706.016 452.68C705.288 453.287 704.334 453.59 703.156 453.59C702.48 453.59 701.89 453.503 701.388 453.33C700.902 453.174 700.469 452.914 700.088 452.55L700.894 450.418C701.414 451.042 702.124 451.354 703.026 451.354C703.546 451.354 703.979 451.215 704.326 450.938C704.69 450.678 705.01 450.193 705.288 449.482L705.86 448.078L704.508 444.854L700.452 435H703.572L706.432 443.164L707.186 445.608L708.07 442.93L710.774 435H713.66L707.966 449.534ZM734.805 435L729.631 448H726.589L721.389 435H724.457L728.123 445.738L731.893 435H734.805ZM748.078 446.18C748.46 446.18 748.78 446.145 749.04 446.076L748.858 447.948C748.39 448.156 747.853 448.26 747.246 448.26C746.501 448.26 745.903 448.113 745.452 447.818C745.019 447.523 744.733 447.029 744.594 446.336C744.196 446.943 743.606 447.419 742.826 447.766C742.046 448.095 741.171 448.26 740.2 448.26C738.935 448.26 737.912 447.965 737.132 447.376C736.352 446.787 735.962 445.946 735.962 444.854C735.962 443.831 736.387 442.973 737.236 442.28C738.086 441.569 739.351 441.067 741.032 440.772L744.334 440.2V439.498C744.334 438.701 744.1 438.077 743.632 437.626C743.164 437.158 742.514 436.924 741.682 436.924C739.966 436.924 738.848 437.704 738.328 439.264L736.17 438.12C736.482 437.08 737.115 436.257 738.068 435.65C739.039 435.043 740.226 434.74 741.63 434.74C743.312 434.74 744.646 435.13 745.634 435.91C746.622 436.69 747.116 437.834 747.116 439.342V445.218C747.116 445.547 747.186 445.79 747.324 445.946C747.48 446.102 747.732 446.18 748.078 446.18ZM740.798 446.154C741.734 446.154 742.558 445.929 743.268 445.478C743.979 445.027 744.334 444.429 744.334 443.684V442.124L741.5 442.696C740.599 442.869 739.932 443.112 739.498 443.424C739.065 443.736 738.848 444.152 738.848 444.672C738.848 445.157 739.013 445.53 739.342 445.79C739.689 446.033 740.174 446.154 740.798 446.154ZM754.379 444.204C754.379 444.845 754.474 445.296 754.665 445.556C754.855 445.799 755.211 445.92 755.731 445.92C756.06 445.92 756.337 445.903 756.563 445.868C756.805 445.816 757.1 445.721 757.447 445.582L757.135 447.818C756.545 448.113 755.826 448.26 754.977 448.26C753.815 448.26 752.957 447.965 752.403 447.376C751.865 446.787 751.597 445.859 751.597 444.594V429.15H754.379V444.204ZM761.178 432.816C760.589 432.816 760.13 432.669 759.8 432.374C759.471 432.062 759.306 431.629 759.306 431.074C759.306 430.519 759.471 430.095 759.8 429.8C760.13 429.505 760.589 429.358 761.178 429.358C761.768 429.358 762.218 429.505 762.53 429.8C762.86 430.095 763.024 430.519 763.024 431.074C763.024 431.629 762.86 432.062 762.53 432.374C762.218 432.669 761.768 432.816 761.178 432.816ZM762.556 448H759.774V435H762.556V448ZM778.947 429.15V448H776.503L776.347 445.686C775.966 446.466 775.385 447.09 774.605 447.558C773.842 448.026 772.967 448.26 771.979 448.26C770.194 448.26 768.781 447.671 767.741 446.492C766.718 445.296 766.207 443.641 766.207 441.526C766.207 439.411 766.718 437.756 767.741 436.56C768.781 435.347 770.194 434.74 771.979 434.74C772.932 434.74 773.773 434.957 774.501 435.39C775.229 435.806 775.784 436.378 776.165 437.106V429.15H778.947ZM772.603 446.024C773.695 446.024 774.562 445.634 775.203 444.854C775.844 444.074 776.165 443.008 776.165 441.656V441.344C776.165 439.992 775.844 438.935 775.203 438.172C774.562 437.392 773.695 437.002 772.603 437.002C771.476 437.002 770.592 437.401 769.951 438.198C769.327 438.978 769.015 440.079 769.015 441.5C769.015 442.921 769.327 444.031 769.951 444.828C770.592 445.625 771.476 446.024 772.603 446.024ZM794.493 446.18C794.874 446.18 795.195 446.145 795.455 446.076L795.273 447.948C794.805 448.156 794.267 448.26 793.661 448.26C792.915 448.26 792.317 448.113 791.867 447.818C791.433 447.523 791.147 447.029 791.009 446.336C790.61 446.943 790.021 447.419 789.241 447.766C788.461 448.095 787.585 448.26 786.615 448.26C785.349 448.26 784.327 447.965 783.547 447.376C782.767 446.787 782.377 445.946 782.377 444.854C782.377 443.831 782.801 442.973 783.651 442.28C784.5 441.569 785.765 441.067 787.447 440.772L790.749 440.2V439.498C790.749 438.701 790.515 438.077 790.047 437.626C789.579 437.158 788.929 436.924 788.097 436.924C786.381 436.924 785.263 437.704 784.743 439.264L782.585 438.12C782.897 437.08 783.529 436.257 784.483 435.65C785.453 435.043 786.641 434.74 788.045 434.74C789.726 434.74 791.061 435.13 792.049 435.91C793.037 436.69 793.531 437.834 793.531 439.342V445.218C793.531 445.547 793.6 445.79 793.739 445.946C793.895 446.102 794.146 446.18 794.493 446.18ZM787.213 446.154C788.149 446.154 788.972 445.929 789.683 445.478C790.393 445.027 790.749 444.429 790.749 443.684V442.124L787.915 442.696C787.013 442.869 786.346 443.112 785.913 443.424C785.479 443.736 785.263 444.152 785.263 444.672C785.263 445.157 785.427 445.53 785.757 445.79C786.103 446.033 786.589 446.154 787.213 446.154ZM806.005 447.142C805.589 447.489 805.078 447.766 804.471 447.974C803.882 448.165 803.24 448.26 802.547 448.26C801.351 448.26 800.389 447.965 799.661 447.376C798.95 446.769 798.586 445.833 798.569 444.568V437.184H796.099V435H798.569V431.958L801.351 431.178V435H805.901V437.184H801.351V444.1C801.351 444.724 801.516 445.192 801.845 445.504C802.192 445.799 802.66 445.946 803.249 445.946C804.046 445.946 804.748 445.669 805.355 445.114L806.005 447.142ZM814.32 434.74C816.348 434.74 817.934 435.338 819.078 436.534C820.222 437.73 820.794 439.385 820.794 441.5C820.794 443.615 820.222 445.27 819.078 446.466C817.934 447.662 816.348 448.26 814.32 448.26C812.292 448.26 810.706 447.662 809.562 446.466C808.418 445.27 807.846 443.615 807.846 441.5C807.846 439.385 808.418 437.73 809.562 436.534C810.706 435.338 812.292 434.74 814.32 434.74ZM814.32 436.924C813.142 436.924 812.232 437.323 811.59 438.12C810.966 438.9 810.654 440.027 810.654 441.5C810.654 442.973 810.966 444.109 811.59 444.906C812.232 445.686 813.142 446.076 814.32 446.076C815.499 446.076 816.409 445.677 817.05 444.88C817.692 444.083 818.012 442.956 818.012 441.5C818.012 440.044 817.692 438.917 817.05 438.12C816.409 437.323 815.499 436.924 814.32 436.924ZM831.076 434.74C831.683 434.74 832.159 434.827 832.506 435L832.064 437.548C831.665 437.323 831.119 437.21 830.426 437.21C829.871 437.21 829.343 437.357 828.84 437.652C828.355 437.947 827.947 438.389 827.618 438.978C827.306 439.567 827.15 440.278 827.15 441.11V448H824.368V435H826.734L826.968 437.34C827.696 435.607 829.065 434.74 831.076 434.74ZM849.686 430.034C848.057 431.525 846.895 433.093 846.202 434.74C845.526 436.387 845.188 438.397 845.188 440.772C845.188 443.147 845.526 445.157 846.202 446.804C846.895 448.433 848.057 449.993 849.686 451.484L848.23 452.94C846.341 451.415 844.911 449.629 843.94 447.584C842.987 445.539 842.51 443.268 842.51 440.772C842.51 438.259 842.987 435.979 843.94 433.934C844.911 431.889 846.341 430.103 848.23 428.578L849.686 430.034ZM860.209 448L856.933 443.112L853.553 448H850.407L855.295 441.448L850.667 435H853.995L857.115 439.706L860.209 435H863.407L858.753 441.37L863.485 448H860.209ZM865.753 428.578C867.625 430.103 869.038 431.889 869.991 433.934C870.962 435.979 871.447 438.259 871.447 440.772C871.447 443.268 870.962 445.539 869.991 447.584C869.038 449.629 867.625 451.415 865.753 452.94L864.271 451.484C865.9 450.011 867.053 448.451 867.729 446.804C868.422 445.157 868.769 443.147 868.769 440.772C868.769 438.397 868.422 436.387 867.729 434.74C867.053 433.076 865.9 431.507 864.271 430.034L865.753 428.578Z"
     fill="#18F0BD"
     id="path155" />
  <path
     d="M999.926 535.134V544H997.872L997.794 541.816C997.291 542.596 996.598 543.203 995.714 543.636C994.83 544.052 993.773 544.26 992.542 544.26C990.947 544.26 989.552 543.905 988.356 543.194C987.16 542.483 986.233 541.469 985.574 540.152C984.915 538.817 984.586 537.24 984.586 535.42C984.586 533.617 984.924 532.057 985.6 530.74C986.276 529.405 987.229 528.383 988.46 527.672C989.691 526.944 991.121 526.58 992.75 526.58C994.518 526.58 995.974 526.909 997.118 527.568C998.262 528.227 999.163 529.249 999.822 530.636L997.274 531.858C996.945 530.922 996.39 530.211 995.61 529.726C994.83 529.241 993.894 528.998 992.802 528.998C991.173 528.998 989.881 529.561 988.928 530.688C987.975 531.815 987.498 533.392 987.498 535.42C987.498 537.483 987.949 539.077 988.85 540.204C989.769 541.313 991.103 541.868 992.854 541.868C994.223 541.868 995.333 541.53 996.182 540.854C997.031 540.178 997.456 539.199 997.456 537.916V537.422H992.204V535.134H999.926ZM1009.69 530.74C1011.72 530.74 1013.31 531.338 1014.45 532.534C1015.59 533.73 1016.17 535.385 1016.17 537.5C1016.17 539.615 1015.59 541.27 1014.45 542.466C1013.31 543.662 1011.72 544.26 1009.69 544.26C1007.66 544.26 1006.08 543.662 1004.93 542.466C1003.79 541.27 1003.22 539.615 1003.22 537.5C1003.22 535.385 1003.79 533.73 1004.93 532.534C1006.08 531.338 1007.66 530.74 1009.69 530.74ZM1009.69 532.924C1008.51 532.924 1007.6 533.323 1006.96 534.12C1006.34 534.9 1006.03 536.027 1006.03 537.5C1006.03 538.973 1006.34 540.109 1006.96 540.906C1007.6 541.686 1008.51 542.076 1009.69 542.076C1010.87 542.076 1011.78 541.677 1012.42 540.88C1013.06 540.083 1013.38 538.956 1013.38 537.5C1013.38 536.044 1013.06 534.917 1012.42 534.12C1011.78 533.323 1010.87 532.924 1009.69 532.924ZM1024.45 544.26C1023.13 544.26 1021.96 544.035 1020.94 543.584C1019.93 543.133 1019.17 542.449 1018.65 541.53L1020.52 539.918C1020.85 540.663 1021.36 541.209 1022.05 541.556C1022.75 541.903 1023.58 542.076 1024.55 542.076C1025.43 542.076 1026.12 541.937 1026.6 541.66C1027.09 541.365 1027.33 540.984 1027.33 540.516C1027.33 540.1 1027.11 539.771 1026.66 539.528C1026.21 539.268 1025.43 539.025 1024.32 538.8C1022.39 538.436 1021.04 537.951 1020.26 537.344C1019.48 536.737 1019.09 535.879 1019.09 534.77C1019.09 534.059 1019.31 533.401 1019.74 532.794C1020.17 532.17 1020.8 531.676 1021.61 531.312C1022.44 530.931 1023.42 530.74 1024.55 530.74C1025.99 530.74 1027.14 530.983 1028.01 531.468C1028.87 531.936 1029.54 532.673 1030.01 533.678L1028.03 535.134C1027.72 534.371 1027.28 533.817 1026.71 533.47C1026.15 533.106 1025.44 532.924 1024.58 532.924C1023.8 532.924 1023.15 533.089 1022.63 533.418C1022.12 533.73 1021.87 534.094 1021.87 534.51C1021.87 534.978 1022.1 535.351 1022.55 535.628C1023.02 535.905 1023.86 536.157 1025.07 536.382C1026.91 536.711 1028.21 537.179 1028.97 537.786C1029.73 538.393 1030.11 539.242 1030.11 540.334C1030.11 541.495 1029.61 542.44 1028.61 543.168C1027.6 543.896 1026.21 544.26 1024.45 544.26ZM1038.21 544.26C1036.89 544.26 1035.72 544.035 1034.7 543.584C1033.69 543.133 1032.93 542.449 1032.41 541.53L1034.28 539.918C1034.61 540.663 1035.12 541.209 1035.82 541.556C1036.51 541.903 1037.34 542.076 1038.31 542.076C1039.2 542.076 1039.88 541.937 1040.37 541.66C1040.85 541.365 1041.09 540.984 1041.09 540.516C1041.09 540.1 1040.87 539.771 1040.42 539.528C1039.97 539.268 1039.19 539.025 1038.08 538.8C1036.15 538.436 1034.8 537.951 1034.02 537.344C1033.24 536.737 1032.85 535.879 1032.85 534.77C1032.85 534.059 1033.07 533.401 1033.5 532.794C1033.94 532.17 1034.56 531.676 1035.37 531.312C1036.21 530.931 1037.19 530.74 1038.31 530.74C1039.75 530.74 1040.9 530.983 1041.77 531.468C1042.64 531.936 1043.3 532.673 1043.77 533.678L1041.8 535.134C1041.48 534.371 1041.04 533.817 1040.47 533.47C1039.92 533.106 1039.2 532.924 1038.34 532.924C1037.56 532.924 1036.91 533.089 1036.39 533.418C1035.89 533.73 1035.63 534.094 1035.63 534.51C1035.63 534.978 1035.86 535.351 1036.31 535.628C1036.78 535.905 1037.62 536.157 1038.83 536.382C1040.67 536.711 1041.97 537.179 1042.73 537.786C1043.49 538.393 1043.88 539.242 1043.88 540.334C1043.88 541.495 1043.37 542.44 1042.37 543.168C1041.36 543.896 1039.98 544.26 1038.21 544.26ZM1048.67 528.816C1048.08 528.816 1047.62 528.669 1047.29 528.374C1046.96 528.062 1046.8 527.629 1046.8 527.074C1046.8 526.519 1046.96 526.095 1047.29 525.8C1047.62 525.505 1048.08 525.358 1048.67 525.358C1049.26 525.358 1049.71 525.505 1050.02 525.8C1050.35 526.095 1050.51 526.519 1050.51 527.074C1050.51 527.629 1050.35 528.062 1050.02 528.374C1049.71 528.669 1049.26 528.816 1048.67 528.816ZM1050.05 544H1047.26V531H1050.05V544ZM1061.39 530.74C1063.18 530.74 1064.58 531.338 1065.6 532.534C1066.63 533.713 1067.14 535.359 1067.14 537.474C1067.14 539.589 1066.63 541.253 1065.6 542.466C1064.58 543.662 1063.18 544.26 1061.39 544.26C1060.46 544.26 1059.62 544.052 1058.87 543.636C1058.14 543.22 1057.58 542.648 1057.18 541.92V549.46H1054.4V531H1056.84L1056.97 533.418C1057.35 532.603 1057.93 531.953 1058.69 531.468C1059.47 530.983 1060.37 530.74 1061.39 530.74ZM1060.77 541.998C1061.89 541.998 1062.77 541.608 1063.39 540.828C1064.04 540.031 1064.36 538.921 1064.36 537.5C1064.36 536.079 1064.04 534.969 1063.39 534.172C1062.77 533.375 1061.89 532.976 1060.77 532.976C1059.71 532.976 1058.86 533.331 1058.22 534.042C1057.6 534.753 1057.25 535.741 1057.18 537.006V537.994C1057.25 539.242 1057.6 540.221 1058.22 540.932C1058.86 541.643 1059.71 541.998 1060.77 541.998ZM1082.37 537.11C1082.37 537.613 1082.34 538.089 1082.27 538.54H1072.75C1072.91 539.684 1073.32 540.559 1073.97 541.166C1074.63 541.755 1075.48 542.05 1076.52 542.05C1077.37 542.05 1078.07 541.903 1078.63 541.608C1079.2 541.296 1079.59 540.854 1079.8 540.282L1082.11 541.244C1081.14 543.255 1079.28 544.26 1076.52 544.26C1074.48 544.26 1072.87 543.662 1071.71 542.466C1070.57 541.27 1070 539.615 1070 537.5C1070 535.368 1070.55 533.713 1071.66 532.534C1072.77 531.338 1074.33 530.74 1076.34 530.74C1078.25 530.74 1079.73 531.321 1080.79 532.482C1081.84 533.643 1082.37 535.186 1082.37 537.11ZM1076.34 532.95C1075.33 532.95 1074.52 533.245 1073.9 533.834C1073.29 534.423 1072.91 535.281 1072.75 536.408H1079.77C1079.63 535.316 1079.26 534.467 1078.65 533.86C1078.06 533.253 1077.29 532.95 1076.34 532.95ZM1097.9 525.15V544H1095.45L1095.3 541.686C1094.91 542.466 1094.33 543.09 1093.55 543.558C1092.79 544.026 1091.92 544.26 1090.93 544.26C1089.14 544.26 1087.73 543.671 1086.69 542.492C1085.67 541.296 1085.16 539.641 1085.16 537.526C1085.16 535.411 1085.67 533.756 1086.69 532.56C1087.73 531.347 1089.14 530.74 1090.93 530.74C1091.88 530.74 1092.72 530.957 1093.45 531.39C1094.18 531.806 1094.73 532.378 1095.11 533.106V525.15H1097.9ZM1091.55 542.024C1092.64 542.024 1093.51 541.634 1094.15 540.854C1094.79 540.074 1095.11 539.008 1095.11 537.656V537.344C1095.11 535.992 1094.79 534.935 1094.15 534.172C1093.51 533.392 1092.64 533.002 1091.55 533.002C1090.42 533.002 1089.54 533.401 1088.9 534.198C1088.28 534.978 1087.96 536.079 1087.96 537.5C1087.96 538.921 1088.28 540.031 1088.9 540.828C1089.54 541.625 1090.42 542.024 1091.55 542.024Z"
     fill="white"
     id="path159" />
  <path
     d="M793.864 235.26C792.547 235.26 791.377 235.035 790.354 234.584C789.349 234.133 788.586 233.449 788.066 232.53L789.938 230.918C790.267 231.663 790.779 232.209 791.472 232.556C792.165 232.903 792.997 233.076 793.968 233.076C794.852 233.076 795.537 232.937 796.022 232.66C796.507 232.365 796.75 231.984 796.75 231.516C796.75 231.1 796.525 230.771 796.074 230.528C795.623 230.268 794.843 230.025 793.734 229.8C791.81 229.436 790.458 228.951 789.678 228.344C788.898 227.737 788.508 226.879 788.508 225.77C788.508 225.059 788.725 224.401 789.158 223.794C789.591 223.17 790.215 222.676 791.03 222.312C791.862 221.931 792.841 221.74 793.968 221.74C795.407 221.74 796.559 221.983 797.426 222.468C798.293 222.936 798.96 223.673 799.428 224.678L797.452 226.134C797.14 225.371 796.698 224.817 796.126 224.47C795.571 224.106 794.861 223.924 793.994 223.924C793.214 223.924 792.564 224.089 792.044 224.418C791.541 224.73 791.29 225.094 791.29 225.51C791.29 225.978 791.515 226.351 791.966 226.628C792.434 226.905 793.275 227.157 794.488 227.382C796.325 227.711 797.625 228.179 798.388 228.786C799.151 229.393 799.532 230.242 799.532 231.334C799.532 232.495 799.029 233.44 798.024 234.168C797.019 234.896 795.632 235.26 793.864 235.26ZM804.324 219.816C803.734 219.816 803.275 219.669 802.946 219.374C802.616 219.062 802.452 218.629 802.452 218.074C802.452 217.519 802.616 217.095 802.946 216.8C803.275 216.505 803.734 216.358 804.324 216.358C804.913 216.358 805.364 216.505 805.676 216.8C806.005 217.095 806.17 217.519 806.17 218.074C806.17 218.629 806.005 219.062 805.676 219.374C805.364 219.669 804.913 219.816 804.324 219.816ZM805.702 235H802.92V222H805.702V235ZM817.62 232.972C818.938 232.972 819.96 233.267 820.688 233.856C821.416 234.445 821.78 235.26 821.78 236.3C821.78 237.184 821.486 237.947 820.896 238.588C820.324 239.229 819.527 239.723 818.504 240.07C817.499 240.417 816.364 240.59 815.098 240.59C813.036 240.59 811.484 240.287 810.444 239.68C809.422 239.073 808.91 238.267 808.91 237.262C808.91 236.673 809.11 236.153 809.508 235.702C809.924 235.269 810.496 234.957 811.224 234.766C810.67 234.506 810.228 234.177 809.898 233.778C809.569 233.362 809.404 232.868 809.404 232.296C809.404 231.031 810.08 230.164 811.432 229.696C810.774 229.315 810.271 228.821 809.924 228.214C809.595 227.607 809.43 226.914 809.43 226.134C809.43 225.267 809.664 224.505 810.132 223.846C810.6 223.17 811.259 222.65 812.108 222.286C812.975 221.922 813.963 221.74 815.072 221.74C816.026 221.74 816.901 221.879 817.698 222.156C817.941 221.203 818.374 220.483 818.998 219.998C819.64 219.495 820.48 219.253 821.52 219.27L821.988 221.428C821.156 221.411 820.48 221.515 819.96 221.74C819.458 221.965 819.111 222.303 818.92 222.754C819.492 223.153 819.934 223.638 820.246 224.21C820.558 224.782 820.714 225.423 820.714 226.134C820.714 227.469 820.194 228.535 819.154 229.332C818.132 230.129 816.771 230.528 815.072 230.528C814.275 230.528 813.556 230.45 812.914 230.294C812.481 230.398 812.16 230.571 811.952 230.814C811.762 231.039 811.666 231.343 811.666 231.724C811.666 232.123 811.805 232.435 812.082 232.66C812.377 232.868 812.776 232.972 813.278 232.972H817.62ZM815.072 223.69C814.275 223.69 813.608 223.924 813.07 224.392C812.533 224.843 812.264 225.423 812.264 226.134C812.264 226.862 812.533 227.46 813.07 227.928C813.608 228.379 814.275 228.604 815.072 228.604C815.887 228.604 816.554 228.379 817.074 227.928C817.612 227.46 817.88 226.862 817.88 226.134C817.88 225.406 817.612 224.817 817.074 224.366C816.554 223.915 815.887 223.69 815.072 223.69ZM815.358 238.51C816.624 238.51 817.612 238.328 818.322 237.964C819.033 237.6 819.388 237.149 819.388 236.612C819.388 236.179 819.215 235.849 818.868 235.624C818.522 235.399 817.941 235.286 817.126 235.286H813.616C812.836 235.286 812.247 235.407 811.848 235.65C811.467 235.893 811.276 236.231 811.276 236.664C811.276 237.253 811.614 237.704 812.29 238.016C812.984 238.345 814.006 238.51 815.358 238.51ZM831.445 221.74C832.884 221.74 834.054 222.156 834.955 222.988C835.874 223.82 836.333 225.016 836.333 226.576V235H833.551V227.46C833.551 225.172 832.624 224.028 830.769 224.028C829.798 224.028 828.966 224.366 828.273 225.042C827.58 225.701 827.233 226.723 827.233 228.11V235H824.451V222H826.921L827.051 224.158C827.484 223.343 828.082 222.737 828.845 222.338C829.608 221.939 830.474 221.74 831.445 221.74ZM852.171 228.11C852.171 228.613 852.136 229.089 852.067 229.54H842.551C842.707 230.684 843.114 231.559 843.773 232.166C844.431 232.755 845.281 233.05 846.321 233.05C847.17 233.05 847.872 232.903 848.427 232.608C848.999 232.296 849.389 231.854 849.597 231.282L851.911 232.244C850.94 234.255 849.077 235.26 846.321 235.26C844.275 235.26 842.672 234.662 841.511 233.466C840.367 232.27 839.795 230.615 839.795 228.5C839.795 226.368 840.349 224.713 841.459 223.534C842.568 222.338 844.128 221.74 846.139 221.74C848.045 221.74 849.527 222.321 850.585 223.482C851.642 224.643 852.171 226.186 852.171 228.11ZM846.139 223.95C845.133 223.95 844.319 224.245 843.695 224.834C843.088 225.423 842.707 226.281 842.551 227.408H849.571C849.432 226.316 849.059 225.467 848.453 224.86C847.863 224.253 847.092 223.95 846.139 223.95ZM867.694 216.15V235H865.25L865.094 232.686C864.713 233.466 864.132 234.09 863.352 234.558C862.589 235.026 861.714 235.26 860.726 235.26C858.941 235.26 857.528 234.671 856.488 233.492C855.465 232.296 854.954 230.641 854.954 228.526C854.954 226.411 855.465 224.756 856.488 223.56C857.528 222.347 858.941 221.74 860.726 221.74C861.679 221.74 862.52 221.957 863.248 222.39C863.976 222.806 864.531 223.378 864.912 224.106V216.15H867.694ZM861.35 233.024C862.442 233.024 863.309 232.634 863.95 231.854C864.591 231.074 864.912 230.008 864.912 228.656V228.344C864.912 226.992 864.591 225.935 863.95 225.172C863.309 224.392 862.442 224.002 861.35 224.002C860.223 224.002 859.339 224.401 858.698 225.198C858.074 225.978 857.762 227.079 857.762 228.5C857.762 229.921 858.074 231.031 858.698 231.828C859.339 232.625 860.223 233.024 861.35 233.024ZM887.457 221.74C889.242 221.74 890.646 222.347 891.669 223.56C892.691 224.756 893.203 226.411 893.203 228.526C893.203 230.641 892.691 232.296 891.669 233.492C890.646 234.671 889.242 235.26 887.457 235.26C886.434 235.26 885.533 235.017 884.753 234.532C883.99 234.047 883.418 233.397 883.037 232.582L882.907 235H880.463V216.15H883.245V224.08C883.643 223.352 884.207 222.78 884.935 222.364C885.68 221.948 886.521 221.74 887.457 221.74ZM886.833 233.024C887.959 233.024 888.835 232.625 889.459 231.828C890.1 231.031 890.421 229.921 890.421 228.5C890.421 227.079 890.1 225.978 889.459 225.198C888.835 224.401 887.959 224.002 886.833 224.002C885.775 224.002 884.926 224.357 884.285 225.068C883.661 225.779 883.314 226.758 883.245 228.006V228.994C883.314 230.259 883.661 231.247 884.285 231.958C884.926 232.669 885.775 233.024 886.833 233.024ZM902.363 236.534C901.791 238.025 901.141 239.073 900.413 239.68C899.685 240.287 898.732 240.59 897.553 240.59C896.877 240.59 896.288 240.503 895.785 240.33C895.3 240.174 894.867 239.914 894.485 239.55L895.291 237.418C895.811 238.042 896.522 238.354 897.423 238.354C897.943 238.354 898.377 238.215 898.723 237.938C899.087 237.678 899.408 237.193 899.685 236.482L900.257 235.078L898.905 231.854L894.849 222H897.969L900.829 230.164L901.583 232.608L902.467 229.93L905.171 222H908.057L902.363 236.534ZM800.624 251L795.45 264H792.408L787.208 251H790.276L793.942 261.738L797.712 251H800.624ZM813.898 262.18C814.279 262.18 814.6 262.145 814.86 262.076L814.678 263.948C814.21 264.156 813.672 264.26 813.066 264.26C812.32 264.26 811.722 264.113 811.272 263.818C810.838 263.523 810.552 263.029 810.414 262.336C810.015 262.943 809.426 263.419 808.646 263.766C807.866 264.095 806.99 264.26 806.02 264.26C804.754 264.26 803.732 263.965 802.952 263.376C802.172 262.787 801.782 261.946 801.782 260.854C801.782 259.831 802.206 258.973 803.056 258.28C803.905 257.569 805.17 257.067 806.852 256.772L810.154 256.2V255.498C810.154 254.701 809.92 254.077 809.452 253.626C808.984 253.158 808.334 252.924 807.502 252.924C805.786 252.924 804.668 253.704 804.148 255.264L801.99 254.12C802.302 253.08 802.934 252.257 803.888 251.65C804.858 251.043 806.046 250.74 807.45 250.74C809.131 250.74 810.466 251.13 811.454 251.91C812.442 252.69 812.936 253.834 812.936 255.342V261.218C812.936 261.547 813.005 261.79 813.144 261.946C813.3 262.102 813.551 262.18 813.898 262.18ZM806.618 262.154C807.554 262.154 808.377 261.929 809.088 261.478C809.798 261.027 810.154 260.429 810.154 259.684V258.124L807.32 258.696C806.418 258.869 805.751 259.112 805.318 259.424C804.884 259.736 804.668 260.152 804.668 260.672C804.668 261.157 804.832 261.53 805.162 261.79C805.508 262.033 805.994 262.154 806.618 262.154ZM820.198 260.204C820.198 260.845 820.293 261.296 820.484 261.556C820.675 261.799 821.03 261.92 821.55 261.92C821.879 261.92 822.157 261.903 822.382 261.868C822.625 261.816 822.919 261.721 823.266 261.582L822.954 263.818C822.365 264.113 821.645 264.26 820.796 264.26C819.635 264.26 818.777 263.965 818.222 263.376C817.685 262.787 817.416 261.859 817.416 260.594V245.15H820.198V260.204ZM826.998 248.816C826.408 248.816 825.949 248.669 825.62 248.374C825.29 248.062 825.126 247.629 825.126 247.074C825.126 246.519 825.29 246.095 825.62 245.8C825.949 245.505 826.408 245.358 826.998 245.358C827.587 245.358 828.038 245.505 828.35 245.8C828.679 246.095 828.844 246.519 828.844 247.074C828.844 247.629 828.679 248.062 828.35 248.374C828.038 248.669 827.587 248.816 826.998 248.816ZM828.376 264H825.594V251H828.376V264ZM844.766 245.15V264H842.322L842.166 261.686C841.785 262.466 841.204 263.09 840.424 263.558C839.662 264.026 838.786 264.26 837.798 264.26C836.013 264.26 834.6 263.671 833.56 262.492C832.538 261.296 832.026 259.641 832.026 257.526C832.026 255.411 832.538 253.756 833.56 252.56C834.6 251.347 836.013 250.74 837.798 250.74C838.752 250.74 839.592 250.957 840.32 251.39C841.048 251.806 841.603 252.378 841.984 253.106V245.15H844.766ZM838.422 262.024C839.514 262.024 840.381 261.634 841.022 260.854C841.664 260.074 841.984 259.008 841.984 257.656V257.344C841.984 255.992 841.664 254.935 841.022 254.172C840.381 253.392 839.514 253.002 838.422 253.002C837.296 253.002 836.412 253.401 835.77 254.198C835.146 254.978 834.834 256.079 834.834 257.5C834.834 258.921 835.146 260.031 835.77 260.828C836.412 261.625 837.296 262.024 838.422 262.024ZM860.312 262.18C860.693 262.18 861.014 262.145 861.274 262.076L861.092 263.948C860.624 264.156 860.087 264.26 859.48 264.26C858.735 264.26 858.137 264.113 857.686 263.818C857.253 263.523 856.967 263.029 856.828 262.336C856.429 262.943 855.84 263.419 855.06 263.766C854.28 264.095 853.405 264.26 852.434 264.26C851.169 264.26 850.146 263.965 849.366 263.376C848.586 262.787 848.196 261.946 848.196 260.854C848.196 259.831 848.621 258.973 849.47 258.28C850.319 257.569 851.585 257.067 853.266 256.772L856.568 256.2V255.498C856.568 254.701 856.334 254.077 855.866 253.626C855.398 253.158 854.748 252.924 853.916 252.924C852.2 252.924 851.082 253.704 850.562 255.264L848.404 254.12C848.716 253.08 849.349 252.257 850.302 251.65C851.273 251.043 852.46 250.74 853.864 250.74C855.545 250.74 856.88 251.13 857.868 251.91C858.856 252.69 859.35 253.834 859.35 255.342V261.218C859.35 261.547 859.419 261.79 859.558 261.946C859.714 262.102 859.965 262.18 860.312 262.18ZM853.032 262.154C853.968 262.154 854.791 261.929 855.502 261.478C856.213 261.027 856.568 260.429 856.568 259.684V258.124L853.734 258.696C852.833 258.869 852.165 259.112 851.732 259.424C851.299 259.736 851.082 260.152 851.082 260.672C851.082 261.157 851.247 261.53 851.576 261.79C851.923 262.033 852.408 262.154 853.032 262.154ZM871.824 263.142C871.408 263.489 870.897 263.766 870.29 263.974C869.701 264.165 869.06 264.26 868.366 264.26C867.17 264.26 866.208 263.965 865.48 263.376C864.77 262.769 864.406 261.833 864.388 260.568V253.184H861.918V251H864.388V247.958L867.17 247.178V251H871.72V253.184H867.17V260.1C867.17 260.724 867.335 261.192 867.664 261.504C868.011 261.799 868.479 261.946 869.068 261.946C869.866 261.946 870.568 261.669 871.174 261.114L871.824 263.142ZM880.14 250.74C882.168 250.74 883.754 251.338 884.898 252.534C886.042 253.73 886.614 255.385 886.614 257.5C886.614 259.615 886.042 261.27 884.898 262.466C883.754 263.662 882.168 264.26 880.14 264.26C878.112 264.26 876.526 263.662 875.382 262.466C874.238 261.27 873.666 259.615 873.666 257.5C873.666 255.385 874.238 253.73 875.382 252.534C876.526 251.338 878.112 250.74 880.14 250.74ZM880.14 252.924C878.961 252.924 878.051 253.323 877.41 254.12C876.786 254.9 876.474 256.027 876.474 257.5C876.474 258.973 876.786 260.109 877.41 260.906C878.051 261.686 878.961 262.076 880.14 262.076C881.318 262.076 882.228 261.677 882.87 260.88C883.511 260.083 883.832 258.956 883.832 257.5C883.832 256.044 883.511 254.917 882.87 254.12C882.228 253.323 881.318 252.924 880.14 252.924ZM896.895 250.74C897.502 250.74 897.979 250.827 898.325 251L897.883 253.548C897.485 253.323 896.939 253.21 896.245 253.21C895.691 253.21 895.162 253.357 894.659 253.652C894.174 253.947 893.767 254.389 893.437 254.978C893.125 255.567 892.969 256.278 892.969 257.11V264H890.187V251H892.553L892.787 253.34C893.515 251.607 894.885 250.74 896.895 250.74ZM915.505 246.034C913.876 247.525 912.715 249.093 912.021 250.74C911.345 252.387 911.007 254.397 911.007 256.772C911.007 259.147 911.345 261.157 912.021 262.804C912.715 264.433 913.876 265.993 915.505 267.484L914.049 268.94C912.16 267.415 910.73 265.629 909.759 263.584C908.806 261.539 908.329 259.268 908.329 256.772C908.329 254.259 908.806 251.979 909.759 249.934C910.73 247.889 912.16 246.103 914.049 244.578L915.505 246.034ZM926.028 264L922.752 259.112L919.372 264H916.226L921.114 257.448L916.486 251H919.814L922.934 255.706L926.028 251H929.226L924.572 257.37L929.304 264H926.028ZM931.572 244.578C933.444 246.103 934.857 247.889 935.81 249.934C936.781 251.979 937.266 254.259 937.266 256.772C937.266 259.268 936.781 261.539 935.81 263.584C934.857 265.629 933.444 267.415 931.572 268.94L930.09 267.484C931.72 266.011 932.872 264.451 933.548 262.804C934.242 261.157 934.588 259.147 934.588 256.772C934.588 254.397 934.242 252.387 933.548 250.74C932.872 249.076 931.72 247.507 930.09 246.034L931.572 244.578Z"
     fill="white"
     id="path161" />
  <text
     xml:space="preserve"
     style="font-style:normal;font-variant:normal;font-weight:normal;font-stretch:normal;font-size:26.6667px;line-height:1.25;font-family:'Fira Sans';-inkscape-font-specification:'Fira Sans';fill:#ffffff;fill-opacity:1;stroke:none"
     x="18.903152"
     y="191.43665"
     id="text381"><tspan
       sodipodi:role="line"
       id="tspan379"
       x="18.903152"
       y="191.43665">Availability Core</tspan></text>
</svg>
