<?xml version="1.0" standalone="no"?>
<!DOCTYPE svg PUBLIC "-//W3C//DTD SVG 1.1//EN" "http://www.w3.org/Graphics/SVG/1.1/DTD/svg11.dtd">
<svg xmlns="http://www.w3.org/2000/svg">
<defs >
<font id="WorkSans" horiz-adv-x="577" ><font-face
    font-family="Work Sans"
    units-per-em="1000"
    panose-1="0 0 0 0 0 0 0 0 0 0"
    ascent="930"
    descent="-243"
    alphabetic="0" />
<glyph unicode=" " horiz-adv-x="336" />
<glyph unicode="!" horiz-adv-x="268" d="M92 208L116 374L182 660H268L202 374L150 208H92ZM84 -10Q59 -10 43 5T26 46Q26 80 46 100T94 120Q119 120 135 105T152 64Q152 30 133 10T84 -10Z" />
<glyph unicode="&quot;" horiz-adv-x="398" d="M439 690L355 443H291L348 690H439ZM272 690L188 443H124L181 690H272Z" />
<glyph unicode="#" horiz-adv-x="639" d="M303 0L526 660H597L374 0H303ZM27 185V246H582V185H27ZM69 0L292 660H363L140 0H69ZM94 414V475H649V414H94Z" />
<glyph unicode="$" horiz-adv-x="620" d="M321 1Q249 1 192 22T94 86T32 191L106 225Q123 169 156 135T233 85T327 69Q375 69 408 86T459 130T476 187Q476 222 453 243T385 276L276 306Q230 319 196 342T143 397T124 468Q124 522 152 565T233 634T356 660Q419
660 468 643T551 591T604 503L530 470Q518 521 490 547T426 583T352 593Q279 593 240 559T201 481Q201 459 212 440T245 405T295 381L412 347Q481 327 516 291T552 199Q552 139 521 95T437 26T321 1ZM200 -100L399 760H468L269 -100H200Z" />
<glyph unicode="%" horiz-adv-x="888" d="M123 0L716 660H802L209 0H123ZM235 306Q190 306 158 325T109 377T92 454Q92 511 115 560T179 639T275 670Q321 670 352 651T401 599T418 522Q418 466 395 417T331 337T235 306ZM240 369Q275 369 298 392T334 450T347
520Q347 559 328 583T270 607Q236 607 212 584T176 527T163 456Q163 417 182 393T240 369ZM650 -10Q605 -10 573 9T524 61T507 138Q507 195 530 244T594 323T690 354Q736 354 767 335T816 283T833 206Q833 150 810 101T746 21T650 -10ZM655 53Q690 53 713 76T749
134T762 204Q762 243 743 267T685 291Q651 291 627 268T591 211T578 140Q578 101 597 77T655 53Z" />
<glyph unicode="&amp;" horiz-adv-x="606" d="M232 -8Q165 -8 118 14T47 78T22 175Q22 236 48 277T123 345T235 390L272 405Q313 418 346 435T400 478T420 539Q420 574 402 590T356 607Q319 607 293 580T267 499Q267 475 273 445T290 382T315 315T346 245Q372
192 408 148T485 76T565 49L553 -11V-11Q498 -11 449 18T358 95T287 203Q261 255 240 306T207 406T195 496Q195 550 217 589T276 649T362 671Q423 671 456 637T490 551Q490 493 463 454T387 389T273 342L266 341Q214 326 176 306T118 256T97 179Q97 121 135 90T233
59Q284 59 319 76T388 123L403 133Q438 168 465 214T503 319L570 313Q558 250 524 189T442 84L422 68Q395 45 365 28T303 2T232 -8Z" />
<glyph unicode="&apos;" horiz-adv-x="231" d="M272 690L188 443H124L181 690H272Z" />
<glyph unicode="(" horiz-adv-x="342" d="M166 -189Q115 -112 88 -13T60 182Q60 268 81 350T144 507T245 644T384 751L417 702Q326 643 264 559T171 377T139 174Q139 86 160 -1T219 -155L166 -189Z" />
<glyph unicode=")" horiz-adv-x="342" d="M190 751Q241 674 268 575T296 380Q296 294 275 212T212 55T111 -82T-28 -189L-61 -140Q31 -81 92 3T185 186T217 388Q217 477 196 563T137 717L190 751Z" />
<glyph unicode="*" horiz-adv-x="564" d="M402 277L353 382L330 458L275 389L182 300L138 346L229 436L299 489L225 514L121 565L151 622L257 573L323 530L331 613L357 730H427L398 606L368 525L450 552L572 575L576 512L456 487L371 480L413 412L460 307L402 277Z" />
<glyph unicode="+" horiz-adv-x="604" d="M412 564L298 68H223L337 564H412ZM569 354L552 279H66L83 354H569Z" />
<glyph unicode="," horiz-adv-x="252" d="M94 120Q124 120 142 98T160 39Q160 1 141 -38T84 -108T-5 -149L-30 -101Q9 -95 35 -81T78 -47T101 -2L100 -1Q95 -5 90 -6T73 -8Q49 -8 37 9T24 48Q24 80 44 100T94 120Z" />
<glyph unicode="-" horiz-adv-x="510" d="M432 303L413 220H83L102 303H432Z" />
<glyph unicode="." horiz-adv-x="262" d="M81 -10Q56 -10 40 5T23 46Q23 80 43 100T91 120Q116 120 132 105T149 64Q149 30 130 10T81 -10Z" />
<glyph unicode="/" horiz-adv-x="420" d="M505 730L34 -70H-48L423 730H505Z" />
<glyph unicode="0" horiz-adv-x="629" d="M296 -8Q227 -8 178 23T102 111T75 244Q75 281 79 316T91 386Q105 446 130 497T192 588T276 648T381 670Q446 670 493 639T565 551T591 419Q591 383 587 348T575 279Q561 219 536 167T476 76T395 14T296 -8ZM303 63Q353
63 391 94T455 178T494 289Q502 321 505 353T509 417Q509 513 472 556T373 599Q320 599 280 567T212 484T171 371Q164 340 161 308T157 245Q157 179 176 139T229 81T303 63Z" />
<glyph unicode="1" horiz-adv-x="382" d="M132 0L239 466Q247 497 254 520T269 566Q250 548 217 530T146 498T76 478V556Q113 564 156 581T237 620T295 660H365L212 0H132Z" />
<glyph unicode="2" horiz-adv-x="565" d="M25 0L43 75Q125 133 198 183T326 282T413 380T445 487Q445 541 411 567T327 594Q258 594 216 553T156 447L94 499Q110 547 142 586T222 647T331 670Q390 670 434 649T503 590T528 501Q528 446 505 397T442 304T353 220T251
144T152 73V72Q163 73 186 74T220 75H489L471 0H25Z" />
<glyph unicode="3" horiz-adv-x="564" d="M269 -10Q178 -10 119 40T42 172L127 196Q135 136 172 101T275 65Q320 65 350 83T396 132T412 196Q412 254 376 275T288 297Q281 297 275 297T260 296L278 375Q289 374 299 373T319 372Q361 372 391 386T437 427T454 493Q454
530 437 552T392 585T334 596Q273 596 242 568T192 495L123 538Q149 601 207 636T343 671Q397 671 440 651T508 595T533 506Q533 456 513 417T459 356T381 330L380 328Q416 323 441 307T479 265T493 203Q493 136 461 89T378 16T269 -10Z" />
<glyph unicode="4" horiz-adv-x="565" d="M275 0L315 173H16L32 242Q48 263 64 284T99 327L393 660H507L410 242H535L519 173H394L354 0H275ZM106 242H331L410 585L185 328Q165 306 146 285T106 242Z" />
<glyph unicode="5" horiz-adv-x="571" d="M269 -10Q208 -10 162 14T87 77T52 161L137 183Q142 153 156 126T199 82T278 65Q327 65 358 88T405 149T421 229Q421 274 403 302T355 343T290 356Q252 356 225 346T172 312L108 334L215 660H558L540 585H268L202 386Q225
405 256 414T322 424Q372 424 413 404T479 342T504 241Q504 169 476 112T395 23T269 -10Z" />
<glyph unicode="6" horiz-adv-x="589" d="M307 -10Q229 -10 178 22T102 111T77 244Q77 323 95 399T150 536T247 634T387 671Q458 671 514 636T586 521L506 495Q499 544 463 570T380 596Q327 596 288 570T221 501T178 406T156 301Q173 356 225 385T339 415Q428
415 479 364T531 230Q531 162 504 108T427 22T307 -10ZM310 65Q355 65 386 85T432 140T448 217Q448 270 413 305T310 341Q264 341 232 321T184 267T168 196Q168 165 178 141T208 99T254 74T310 65Z" />
<glyph unicode="7" horiz-adv-x="538" d="M122 660H589L571 585Q490 512 425 425T314 232T243 0H156Q177 111 224 219T345 426T514 605L512 585H104L122 660Z" />
<glyph unicode="8" horiz-adv-x="606" d="M294 -9Q244 -9 200 3T121 40T68 98T48 177Q48 231 72 269T138 332T238 364L234 348Q208 359 189 378T160 423T149 477Q149 535 177 578T253 646T365 671Q424 671 471 651T547 595T575 506Q575 439 532 390T419 327V344Q453
329 477 308T515 258T529 195Q529 133 498 87T414 16T294 -9ZM301 65Q345 65 377 79T428 121T446 187Q446 226 423 253T362 295T283 309Q239 309 205 293T151 249T131 184Q131 145 155 119T217 79T301 65ZM359 379Q398 379 428 394T475 435T492 496Q492 541 458
570T364 599Q324 599 294 583T248 540T231 480Q231 452 247 429T292 393T359 379Z" />
<glyph unicode="9" horiz-adv-x="609" d="M259 -10Q199 -10 156 12T85 75T46 168L130 195Q135 163 150 133T193 84T265 65Q319 65 359 89T426 154T469 249T490 360Q479 324 453 299T392 261T320 248Q256 248 210 273T140 341T115 440Q115 504 144 556T225 639T346
670Q424 670 473 638T546 549T569 416Q569 337 551 262T494 125T398 27T259 -10ZM336 319Q383 319 414 339T462 393T478 464Q478 506 461 535T414 580T343 595Q298 595 266 577T216 527T198 453Q198 418 213 387T260 338T336 319Z" />
<glyph unicode=":" horiz-adv-x="296" d="M98 -10Q73 -10 57 5T40 46Q40 80 60 100T108 120Q133 120 149 105T166 64Q166 30 147 10T98 -10ZM188 380Q163 380 147 395T130 436Q130 470 150 490T198 510Q223 510 239 495T256 454Q256 420 237 400T188 380Z" />
<glyph unicode=";" horiz-adv-x="296" d="M198 510Q223 510 239 495T256 454Q256 420 237 400T188 380Q163 380 147 395T130 436Q130 470 150 490T198 510ZM108 120Q138 120 156 98T174 39Q174 1 155 -38T98 -108T9 -149L-16 -101Q23 -95 49 -81T92 -47T115 -2L114
-1Q109 -5 104 -6T87 -8Q63 -8 51 9T38 48Q38 80 58 100T108 120Z" />
<glyph unicode="&lt;" horiz-adv-x="604" d="M621 571L601 487L142 298L514 105L496 28L72 253L93 346L621 571Z" />
<glyph unicode="=" horiz-adv-x="604" d="M584 441L567 366H91L108 441H584ZM538 241L521 166H45L62 241H538Z" />
<glyph unicode="&gt;" horiz-adv-x="604" d="M6 28L26 112L485 301L113 494L131 571L555 346L534 253L6 28Z" />
<glyph unicode="?" horiz-adv-x="536" d="M203 208L238 354Q305 354 354 367T430 410T457 494Q457 545 420 569T328 593Q262 593 220 562T158 478L93 525Q111 567 145 599T226 650T330 668Q390 668 437 648T511 589T539 498Q539 434 509 391T426 323T307 295L286
208H203ZM207 -10Q182 -10 166 5T149 46Q149 80 169 100T217 120Q242 120 258 105T275 64Q275 30 256 10T207 -10Z" />
<glyph unicode="@" horiz-adv-x="950" d="M469 -196Q352 -196 261 -148T118 -12T66 196Q66 298 99 383T192 530T333 626T513 660Q604 660 674 633T794 558T868 443T893 297Q893 230 876 175T830 80T764 17T686 -5Q653 -5 631 7T598 42T591 93Q569 51 525 27T434
2Q382 2 343 27T281 96T259 199Q259 255 276 303T323 388T396 445T487 466Q526 466 557 453T609 415T638 356L662 457H733L657 131Q655 120 654 111T652 94Q652 67 665 59T696 51Q723 51 747 68T791 117T822 194T834 297Q834 368 812 424T747 519T644 580T507 601Q426
601 358 572T239 490T161 362T133 196Q133 117 160 55T233 -50T341 -115T469 -137Q540 -137 587 -123T667 -89L691 -141Q663 -155 633 -168T565 -188T469 -196ZM457 63Q499 63 534 90T589 165T610 272Q610 312 596 341T555 387T492 404Q456 404 427 389T376 345T342
280T330 200Q330 156 345 126T388 79T457 63Z" />
<glyph unicode="A" horiz-adv-x="643" d="M-35 0L367 660H466L562 0H483L455 189H168L55 0H-35ZM214 264H445L400 574L214 264Z" />
<glyph unicode="B" horiz-adv-x="645" d="M47 0L200 660H436Q519 660 564 620T610 511Q610 464 593 426T544 363T472 328V327Q519 320 548 285T577 202Q577 136 545 91T457 23T327 0H47ZM145 75H327Q408 75 450 109T493 202Q493 232 480 252T441 282T376 292H195L145
75ZM212 367H379Q426 367 459 384T509 431T527 500Q527 547 496 566T416 585H263L212 367Z" />
<glyph unicode="C" horiz-adv-x="674" d="M363 -10Q286 -10 223 22T121 117T83 273Q83 347 104 417T169 545T275 636T422 670Q485 670 534 650T617 589T668 485L584 457Q567 531 525 563T414 595Q354 595 308 568T231 497T184 397T168 285Q168 216 194 167T266
92T368 65Q434 65 472 92T536 166L613 129Q572 66 513 28T363 -10Z" />
<glyph unicode="D" horiz-adv-x="706" d="M47 0L200 660H391Q476 660 536 625T628 529T661 390Q661 307 635 236T559 112T442 30T290 0H47ZM144 75H302Q365 75 415 99T501 166T556 263T575 378Q575 437 554 483T490 557T381 585H263L144 75Z" />
<glyph unicode="E" horiz-adv-x="625" d="M47 0L200 660H653L635 585H262L213 372H505L488 297H196L145 75H534L516 0H47Z" />
<glyph unicode="F" horiz-adv-x="585" d="M621 585H263L213 372H511L494 297H196L127 0H47L200 660H639L621 585Z" />
<glyph unicode="G" horiz-adv-x="707" d="M343 -8Q273 -8 214 25T120 122T84 275Q84 352 106 422T172 549T280 637T428 670Q488 670 539 653T629 598T685 493L604 465Q586 536 539 566T423 596Q361 596 314 570T234 498T185 398T168 284Q168 216 191 168T258 94T359
68Q415 68 456 87T523 142T560 223L567 253H361L378 328H655L575 0H512L539 132L548 121Q529 80 500 51T432 7T343 -8Z" />
<glyph unicode="H" horiz-adv-x="719" d="M709 660L556 0H476L629 660H709ZM280 660L127 0H47L200 660H280ZM599 372L582 297H158L175 372H599Z" />
<glyph unicode="I" horiz-adv-x="290" d="M280 660L127 0H47L200 660H280Z" />
<glyph unicode="J" horiz-adv-x="549" d="M214 -8Q162 -8 122 11T59 64T32 143T46 240L122 245Q105 193 109 152T142 88T221 64Q286 64 318 101T369 227L469 660H550L445 207Q431 146 404 97T332 20T214 -8Z" />
<glyph unicode="K" horiz-adv-x="637" d="M47 0L200 660H280L202 324L589 660H701L386 385L551 0H463L324 331L174 202L127 0H47Z" />
<glyph unicode="L" horiz-adv-x="586" d="M144 75H515L497 0H47L200 660H280L144 75Z" />
<glyph unicode="M" horiz-adv-x="837" d="M47 0L200 660H315L364 250L378 97H379L460 248L698 660H827L674 0H599L695 415L740 589H739L392 0H324L252 589H251L219 415L123 0H47Z" />
<glyph unicode="N" horiz-adv-x="719" d="M47 0L200 660H296L460 220L503 88H504L525 194L633 660H709L556 0H461L294 442L253 572H252L231 466L123 0H47Z" />
<glyph unicode="O" horiz-adv-x="742" d="M359 -10Q285 -10 223 23T123 122T85 280Q85 357 107 427T171 551T277 638T423 670Q497 670 558 636T657 538T694 380Q694 304 673 234T609 109T504 22T359 -10ZM368 66Q428 66 473 92T548 162T594 262T610 375Q610 444
585 493T516 568T413 594Q353 594 308 568T231 498T185 399T169 285Q169 216 194 167T263 92T368 66Z" />
<glyph unicode="P" horiz-adv-x="610" d="M47 0L200 660H392Q491 660 547 610T604 479Q604 414 572 363T482 283T345 254H153L170 329H364Q417 329 451 349T503 402T521 474Q521 524 487 554T386 585H263L127 0H47Z" />
<glyph unicode="Q" horiz-adv-x="742" d="M474 -194Q435 -194 402 -183T344 -152T304 -102T290 -37Q290 -23 292 -9T299 20L374 37Q368 21 366 6T363 -23Q363 -69 394 -92T481 -116Q514 -116 539 -109T590 -86L596 -165Q568 -181 535 -187T474 -194ZM359 -10Q285
-10 223 23T123 122T85 280Q85 357 107 427T171 551T277 638T423 670Q497 670 558 636T657 538T694 380Q694 304 673 234T609 109T504 22T359 -10ZM368 66Q428 66 473 92T548 162T594 262T610 375Q610 444 585 493T516 568T413 594Q353 594 308 568T231 498T185
399T169 285Q169 216 194 167T263 92T368 66Z" />
<glyph unicode="R" horiz-adv-x="637" d="M47 0L200 660H416Q505 660 557 613T610 481Q610 425 585 381T518 310T428 273L378 266H173L190 341H370Q423 341 458 360T510 412T527 484Q527 534 493 559T400 585H263L127 0H47ZM469 0L356 281L437 291L556 0H469Z" />
<glyph unicode="S" horiz-adv-x="639" d="M337 -8Q263 -8 204 14T103 80T39 187L119 227Q136 169 169 134T247 83T344 67Q393 67 426 83T475 126T492 183Q492 220 469 241T400 275L293 305Q242 320 207 344T153 401T134 473Q134 528 163 573T246 644T373 671Q470
671 535 631T628 509L548 470Q535 522 507 549T443 586T368 596Q318 596 284 581T234 541T217 486Q217 452 243 425T313 384L432 350Q505 329 540 291T575 196Q575 134 543 88T456 17T337 -8Z" />
<glyph unicode="T" horiz-adv-x="592" d="M656 660L638 585H415L280 0H200L335 585H108L126 660H656Z" />
<glyph unicode="U" horiz-adv-x="693" d="M325 -10Q238 -10 180 25T100 126T99 286L187 660H267L177 267Q162 200 178 155T233 88T330 65Q410 65 456 115T521 249L616 660H696L596 226Q571 120 503 55T325 -10Z" />
<glyph unicode="V" horiz-adv-x="628" d="M700 660L300 0H209L118 660H199L257 204L269 73L335 203L612 660H700Z" />
<glyph unicode="W" horiz-adv-x="939" d="M166 0L128 660H205L232 83L507 660H605L623 78L915 660H1001L658 0H557L539 428L538 577H537L471 428L263 0H166Z" />
<glyph unicode="X" horiz-adv-x="588" d="M-34 0L272 347L143 660H231L332 405L552 660H645L363 336L501 0H417L304 277L63 0H-34Z" />
<glyph unicode="Y" horiz-adv-x="562" d="M183 0L243 258L110 660H196L268 431L295 333L370 437L546 660H642L322 251L263 0H183Z" />
<glyph unicode="Z" horiz-adv-x="591" d="M-3 0L14 73L504 585H130L148 660H623L606 588L114 75H515L497 0H-3Z" />
<glyph unicode="[" horiz-adv-x="344" d="M408 660H255L79 -98H233L216 -168H-12L196 730H424L408 660Z" />
<glyph unicode="\" horiz-adv-x="469" d="M137 730H208L369 -70H298L137 730Z" />
<glyph unicode="]" horiz-adv-x="345" d="M-49 -98H104L280 660H126L143 730H371L163 -168H-65L-49 -98Z" />
<glyph unicode="^" horiz-adv-x="560" d="M51 355L353 730H429L557 355H481L379 663L137 355H51Z" />
<glyph unicode="_" horiz-adv-x="539" d="M459 -97L442 -172H-97L-80 -97H459Z" />
<glyph unicode="`" horiz-adv-x="500" d="M364 750L409 583H348L284 750H364Z" />
<glyph unicode="a" horiz-adv-x="616" d="M251 -8Q193 -8 149 20T80 97T55 212Q55 274 74 328T127 423T208 487T310 510Q354 510 389 495T447 453T479 387L505 500H585L469 0H399L416 93Q392 47 348 20T251 -8ZM272 60Q307 60 338 78T394 127T433 201T447 293Q447
338 431 371T385 423T315 441Q275 441 242 424T185 375T148 303T134 213Q134 164 150 130T196 78T272 60Z" />
<glyph unicode="b" horiz-adv-x="616" d="M372 508Q426 508 469 482T536 407T561 286Q561 223 542 170T488 76T407 13T306 -10Q260 -10 225 6T167 51T137 113L111 0H31L200 730H280L208 420Q231 458 275 483T372 508ZM305 59Q341 59 373 76T429 123T468 196T482
288Q482 339 465 372T417 422T349 439Q309 439 276 422T219 373T182 299T169 205Q169 140 203 100T305 59Z" />
<glyph unicode="c" horiz-adv-x="538" d="M277 -9Q208 -9 159 21T83 103T57 217Q57 303 90 368T182 471T319 509Q376 509 418 489T487 434T523 355L439 335Q435 379 405 409T315 440Q277 440 245 424T188 379T151 309T138 218Q138 174 155 138T204 81T285 60Q324
60 358 80T407 139L485 111Q459 53 404 22T277 -9Z" />
<glyph unicode="d" horiz-adv-x="616" d="M251 -8Q193 -8 149 20T80 97T55 212Q55 274 74 328T127 423T208 487T310 510Q354 510 389 495T447 453T479 387L558 730H638L469 0H399L416 93Q392 47 348 20T251 -8ZM271 60Q307 60 339 78T395 127T433 201T447 293Q447
338 431 371T385 423T315 441Q275 441 242 424T185 375T148 303T134 213Q134 164 150 130T196 78T271 60Z" />
<glyph unicode="e" horiz-adv-x="572" d="M276 -9Q207 -9 158 21T82 102T56 216Q56 294 87 361T177 468T322 509Q383 509 426 484T493 416T516 317Q516 297 513 276T502 231H95V301H467L432 273Q435 285 436 297T438 320Q438 356 424 383T382 425T317 440Q268
440 234 421T178 368T147 295T137 213Q137 168 155 134T207 80T285 60Q336 61 369 82T423 137L486 95Q464 63 433 40T363 4T276 -9Z" />
<glyph unicode="f" horiz-adv-x="385" d="M70 0L207 593Q219 643 242 674T299 720T380 735Q408 735 432 729T469 711L442 646Q433 653 416 658T380 663Q338 663 315 643T281 572L265 500L260 474L150 0H70ZM68 431L84 500H420L404 431H68Z" />
<glyph unicode="g" horiz-adv-x="613" d="M213 -215Q170 -215 133 -204T67 -171T20 -121T-6 -54L74 -26Q85 -82 117 -113T219 -145Q257 -145 291 -132T351 -85T390 10L415 123L428 135Q413 80 365 46T254 11Q196 11 150 40T78 118T52 227Q52 290 71 341T124 431T204
489T305 510Q356 510 394 491T456 436T481 352L466 344L502 500H582L465 1Q447 -76 411 -123T324 -193T213 -215ZM275 80Q322 80 360 108T420 184T443 295Q443 340 427 372T381 423T310 441Q258 441 218 415T155 341T132 229Q132 164 170 122T275 80Z" />
<glyph unicode="h" horiz-adv-x="600" d="M31 0L200 730H280L204 400L188 393Q202 432 230 458T296 497T375 510Q431 510 471 485T529 414T531 301L461 0H381L451 302Q466 367 439 403T352 440Q306 440 271 420T211 360T172 263L111 0H31Z" />
<glyph unicode="i" horiz-adv-x="258" d="M218 596Q194 596 179 610T164 648Q164 679 182 697T227 716Q251 716 266 702T281 664Q281 633 263 615T218 596ZM227 500L111 0H31L147 500H227Z" />
<glyph unicode="j" horiz-adv-x="258" d="M218 596Q194 596 179 610T164 648Q164 679 182 697T227 716Q251 716 266 702T281 664Q281 633 263 615T218 596ZM-53 -215Q-83 -215 -112 -206T-159 -179L-131 -107Q-117 -119 -98 -127T-59 -135Q-31 -135 -13 -119T16
-57L147 500H227L93 -78Q77 -149 36 -182T-53 -215Z" />
<glyph unicode="k" horiz-adv-x="545" d="M568 500L307 283L290 272L96 110L111 212L456 500H568ZM280 730L111 0H31L200 730H280ZM322 325L464 0H377L257 282L322 325Z" />
<glyph unicode="l" horiz-adv-x="303" d="M168 -7Q99 -7 72 34T61 143L197 730H277L140 140Q130 99 146 81T201 63Q216 63 227 64T248 67L228 3Q212 -3 199 -5T168 -7Z" />
<glyph unicode="m" horiz-adv-x="934" d="M31 0L147 500H217L198 388L188 393Q208 452 260 481T373 510Q427 510 465 485T520 413T520 299L450 0H370L440 300Q456 366 431 403T350 440Q304 440 269 420T210 360T172 263L111 0H31ZM710 0L779 300Q794 366 769 403T689
440Q643 440 608 420T549 360T511 263L501 369Q530 440 587 475T712 510Q766 510 804 485T859 413T859 299L790 0H710Z" />
<glyph unicode="n" horiz-adv-x="600" d="M31 0L147 500H217L198 388L188 393Q208 452 261 481T375 510Q433 510 473 485T529 414T531 301L461 0H381L451 302Q466 367 439 403T352 440Q306 440 271 420T211 360T172 263L111 0H31Z" />
<glyph unicode="o" horiz-adv-x="595" d="M282 -9Q210 -9 160 21T83 103T56 216Q56 302 89 368T180 471T314 509Q387 509 437 479T513 398T539 285Q539 200 507 134T416 29T282 -9ZM285 60Q321 60 352 75T408 120T445 191T458 282Q458 326 443 361T395 418T311
440Q275 440 243 425T188 380T151 310T137 219Q137 176 153 140T202 82T285 60Z" />
<glyph unicode="p" horiz-adv-x="616" d="M-17 -210L147 500H217L195 377L182 365Q194 410 221 442T289 491T375 508Q428 508 470 482T536 407T561 290Q561 226 542 171T487 76T406 13T304 -10Q255 -10 217 9T157 65T132 148L147 156L63 -210H-17ZM305 59Q341
59 373 76T429 124T468 198T482 290Q482 338 465 371T418 422T348 439Q309 439 277 422T220 373T183 299T169 205Q169 140 203 100T305 59Z" />
<glyph unicode="q" horiz-adv-x="616" d="M341 -210L415 110L421 113Q400 58 354 25T251 -8Q195 -8 151 19T81 96T55 212Q55 275 74 329T128 424T209 487T310 510Q361 510 398 491T457 439T482 365L471 354L505 500H585L421 -210H341ZM271 60Q308 60 340 78T396
127T433 201T447 293Q447 338 431 371T385 423T315 441Q275 441 242 424T185 375T148 303T134 213Q134 164 150 130T197 78T271 60Z" />
<glyph unicode="r" horiz-adv-x="388" d="M31 0L147 500H212L201 385L189 392Q205 429 233 455T296 496T367 510Q383 510 395 508T418 501L394 425Q384 430 372 432T342 435Q304 435 271 418T212 364T174 271L111 0H31Z" />
<glyph unicode="s" horiz-adv-x="512" d="M252 -11Q194 -11 148 7T69 58T19 136L95 169Q114 114 154 87T256 59Q309 59 336 82T364 140Q364 166 349 181T302 205L213 230Q151 247 120 281T89 361Q89 403 112 436T178 490T280 510Q351 510 405 478T482 385L409
350Q400 378 381 398T336 430T275 441Q220 441 194 421T167 368Q167 340 186 324T235 299L333 271Q384 257 413 225T443 151Q443 101 418 65T350 9T252 -11Z" />
<glyph unicode="t" horiz-adv-x="402" d="M235 -8Q187 -8 153 11T105 66T102 152L207 610L294 635L180 148Q170 102 192 83T249 63Q274 63 293 70T326 88L342 22Q317 5 291 -1T235 -8ZM65 431L81 500H417L401 431H65Z" />
<glyph unicode="u" horiz-adv-x="598" d="M228 -8Q174 -8 133 16T73 87T69 199L139 500H219L150 201Q134 134 162 98T249 62Q295 62 330 82T389 141T426 237L487 500H567L451 0H381L400 112L410 107Q390 49 340 21T228 -8Z" />
<glyph unicode="v" horiz-adv-x="493" d="M456 500H545L232 0H151L64 500H143L213 60L193 64L456 500Z" />
<glyph unicode="w" horiz-adv-x="803" d="M130 0L76 500H153L191 100L402 500H482L533 94L749 500H834L558 0H478L423 397L211 0H130Z" />
<glyph unicode="x" horiz-adv-x="519" d="M-31 0L232 278L252 294L439 500H537L287 231L266 211L70 0H-31ZM345 0L236 220L226 238L93 500H184L288 288L292 279L435 0H345Z" />
<glyph unicode="y" horiz-adv-x="504" d="M12 -215Q-26 -215 -53 -206T-99 -181L-67 -114Q-33 -145 9 -145Q41 -145 65 -127T114 -71L161 4L73 500H152L198 214L218 89L288 206L465 500H556L178 -98Q152 -139 125 -165T69 -203T12 -215Z" />
<glyph unicode="z" horiz-adv-x="513" d="M1 0L16 65L345 383L400 433L312 431H96L112 500H509L493 431L190 140L112 69H220H430L414 0H1Z" />
<glyph unicode="{" horiz-adv-x="333" d="M185 -189Q107 -189 75 -155T55 -65L103 142Q116 198 97 222T31 246H25L41 316H56Q99 316 125 334T163 401L217 637Q229 689 268 720T380 751H403L389 689H388Q336 689 316 674T288 623L235 394Q225 346 193 314T113 273Q156
263 173 231T179 149L130 -63Q123 -96 139 -112T199 -130H200L186 -189H185Z" />
<glyph unicode="|" horiz-adv-x="239" d="M265 730L57 -168H-12L196 730H265Z" />
<glyph unicode="}" horiz-adv-x="333" d="M-56 -189L-42 -130V-130Q10 -130 30 -113T59 -61L112 168Q123 216 155 249T234 289Q191 300 174 332T168 413L216 622Q224 655 207 672T146 689V689L161 751V751Q214 751 245 736T289 692T292 627L244 420Q231 364 250
340T316 316H322L306 246H291Q248 246 222 229T184 161L130 -75Q118 -127 80 -158T-33 -189H-56Z" />
<glyph unicode="~" horiz-adv-x="540" d="M528 384Q514 333 489 300T431 251T364 235Q331 235 310 246T272 272T238 298T195 309Q169 309 148 290T116 235H40Q54 286 79 319T137 368T205 384Q237 384 258 373T296 347T331 321T373 310Q399 310 420 328T452 384H528Z" />
<glyph unicode="&#xa0;" horiz-adv-x="336" />
<glyph unicode="&#xa1;" horiz-adv-x="264" d="M166 292L142 126L76 -160H-10L56 126L108 292H166ZM174 510Q199 510 215 495T232 454Q232 420 213 400T164 380Q139 380 123 395T106 436Q106 470 126 490T174 510Z" />
<glyph unicode="&#xa2;" horiz-adv-x="565" d="M283 -9Q214 -9 165 21T89 102T63 215Q63 301 96 367T188 471T325 509Q382 509 424 489T493 434T529 355L449 335Q445 379 413 411T321 444Q270 444 229 415T164 336T140 218Q140 174 157 137T209 78T291 56Q330
56 366 78T417 139L491 111Q465 53 410 22T283 -9ZM184 -100L346 600H413L251 -100H184Z" />
<glyph unicode="&#xa3;" horiz-adv-x="599" d="M88 278L103 343H469L454 278H88ZM412 -10Q368 -10 335 1T276 30T228 64T184 92T134 104Q115 104 105 96T95 74Q95 60 104 52T132 44Q158 44 180 67T216 130T230 215Q230 245 225 274T213 333T201 392T195 452Q195
517 225 566T304 643T410 671Q461 671 501 650T567 592T597 504L524 482Q519 530 491 564T408 599Q364 599 333 578T286 522T270 448Q270 407 276 372T287 301T293 219Q293 176 281 135T246 62T192 10T122 -9Q81 -9 54 14T26 71Q26 108 56 135T139 162Q174 162
201 152T251 125T296 93T345 67T406 56Q445 56 465 80T497 158L561 136Q550 87 529 55T479 6T412 -10Z" />
<glyph unicode="&#xa4;" horiz-adv-x="665" d="M351 539Q412 539 459 512T534 438T561 329Q561 268 534 221T460 146T351 118Q290 118 243 145T168 220T140 329Q140 390 167 437T242 512T351 539ZM351 467Q294 467 257 428T220 329Q220 268 257 229T351 190Q407
190 444 229T481 329Q481 389 444 428T351 467ZM139 591L258 474L207 424L88 540L139 591ZM205 236L255 185L139 66L88 117L205 236ZM494 233L613 117L562 66L443 182L494 233ZM562 591L613 540L497 421L446 472L562 591Z" />
<glyph unicode="&#xa5;" horiz-adv-x="600" d="M207 0L232 107H60L73 162H245L262 237H90L104 297H213L261 293L129 660H209L294 417L320 321H322L383 419L566 660H661L368 292L409 297H519L505 237H332L315 162H488L475 107H302L277 0H207Z" />
<glyph unicode="&#xa6;" horiz-adv-x="239" d="M265 730L181 367H112L196 730H265ZM141 195L57 -168H-12L72 195H141Z" />
<glyph unicode="&#xa7;" horiz-adv-x="591" d="M255 -110Q201 -110 154 -95T71 -50T16 25L89 67Q106 21 149 -11T269 -43Q333 -43 366 -17T399 50Q399 82 380 100T309 132L194 163Q112 185 76 219T40 311Q40 346 57 373T104 416T173 436L208 405Q159 402 136 378T112
324Q112 293 134 270T216 231L338 199Q410 180 444 151T479 69Q479 21 456 -20T383 -85T255 -110ZM420 125L400 163Q430 163 451 172T483 200T495 244Q495 273 477 292T404 326L282 360Q237 373 208 391T166 436T152 501Q152 546 175 584T246 646T365 670Q406 670
449 659T530 620T597 544L528 503Q497 556 456 578T355 601Q315 601 288 589T247 557T233 512Q233 475 251 457T322 423L445 388Q505 371 536 340T567 260Q567 228 552 199T504 149T420 125Z" />
<glyph unicode="&#xa8;" horiz-adv-x="500" d="M431 582Q409 582 395 596T381 631Q381 661 399 678T443 696Q465 696 479 682T493 647Q493 617 475 600T431 582ZM237 582Q215 582 201 596T187 631Q187 661 205 678T249 696Q271 696 285 682T299 647Q299 617 281
600T237 582Z" />
<glyph unicode="&#xa9;" horiz-adv-x="807" d="M422 -10Q320 -10 243 35T123 157T80 330Q80 427 123 503T243 625T422 670Q524 670 601 626T721 504T764 330Q764 234 721 157T601 35T422 -10ZM422 55Q503 55 564 91T659 190T693 330Q693 407 659 469T564 568T422
605Q342 605 281 569T185 470T151 330Q151 253 185 191T280 92T422 55ZM429 143Q344 143 296 192T247 328Q247 414 295 463T429 513Q488 513 527 488T585 418L527 389Q514 421 490 437T428 453Q375 453 345 420T314 328Q314 269 344 236T428 203Q468 203 494 219T534
270L589 248Q570 199 530 171T429 143Z" />
<glyph unicode="&#xaa;" horiz-adv-x="355" d="M184 327Q134 327 101 365T68 467Q68 510 80 546T116 609T170 651T238 666Q265 666 286 654T320 617T331 555L315 529L348 660H413L336 336H279L316 500L312 439Q295 382 259 355T184 327ZM25 201L37 254H320L308
201H25ZM208 382Q240 382 262 403T295 457T306 526Q306 563 288 587T238 611Q203 611 181 590T147 536T136 467Q136 430 154 406T208 382Z" />
<glyph unicode="&#xab;" horiz-adv-x="490" d="M312 461L115 239L119 296L211 69H133L52 265L224 461H312ZM489 461L292 239L296 296L388 69H310L229 265L401 461H489Z" />
<glyph unicode="&#xac;" horiz-adv-x="604" d="M561 319L518 131H438L481 319H561ZM569 354L552 279H66L83 354H569Z" />
<glyph unicode="&#xad;" horiz-adv-x="510" d="M432 303L413 220H83L102 303H432Z" />
<glyph unicode="&#xae;" horiz-adv-x="809" d="M423 670Q527 670 604 628T723 510T765 330Q765 227 723 151T604 32T423 -10Q319 -10 242 32T123 150T81 330Q81 433 123 509T242 628T423 670ZM361 513V143H294V513H361ZM473 316L594 143H518L418 293L473 316ZM423
605Q341 605 280 571T186 476T152 330Q152 246 185 185T280 89T423 55Q506 55 566 89T660 184T694 330Q694 414 661 475T567 571T423 605ZM446 513Q488 513 519 499T568 458T586 395Q586 340 547 309T446 277H335V328H445Q481 328 500 344T519 395Q519 429 500
445T445 462H335V513H446Z" />
<glyph unicode="&#xaf;" horiz-adv-x="500" d="M502 663L487 596H173L188 663H502Z" />
<glyph unicode="&#xb0;" horiz-adv-x="444" d="M281 340Q232 340 194 361T133 420T111 505Q111 553 133 590T193 649T281 670Q331 670 369 649T429 591T451 505Q451 457 429 420T369 362T281 340ZM281 405Q325 405 353 433T381 505Q381 549 353 577T281 605Q238
605 210 577T181 505Q181 462 209 434T281 405Z" />
<glyph unicode="&#xb1;" horiz-adv-x="604" d="M430 640L318 154H243L355 640H430ZM587 434L570 359H84L101 434H587ZM505 75L487 0H1L19 75H505Z" />
<glyph unicode="&#xb2;" horiz-adv-x="368" d="M75 333L88 388Q135 418 178 445T256 500T311 555T331 614Q331 649 313 663T267 677Q230 677 206 653T174 588L114 623Q128 673 167 704T269 735Q332 735 366 702T401 624Q401 584 380 551T326 489T254 436T179 389V388Q190
389 207 389T233 390H376L363 333H75Z" />
<glyph unicode="&#xb3;" horiz-adv-x="346" d="M215 327Q154 327 114 357T62 441L133 457Q138 425 158 405T216 385Q251 385 270 405T290 453Q290 479 272 492T218 506Q214 506 210 506T201 505L214 561Q219 560 225 560T239 559Q274 559 294 576T314 622Q314
651 295 664T249 677Q219 677 199 663T169 620L107 649Q124 690 162 712T253 735Q310 735 347 708T384 633Q384 591 359 562T290 530L289 529Q321 525 341 506T361 451Q361 412 341 384T287 342T215 327Z" />
<glyph unicode="&#xb4;" horiz-adv-x="600" d="M409 750H505L362 583H287L409 750Z" />
<glyph unicode="&#xb5;" horiz-adv-x="606" d="M-17 -210L147 500H227L158 201Q142 134 170 98T257 62Q303 62 338 82T397 141T434 237L495 500H575L459 0H389L401 72Q376 32 334 12T244 -8Q210 -8 177 5T123 49V49L63 -210H-17Z" />
<glyph unicode="&#xb6;" horiz-adv-x="657" d="M213 -100L280 191Q234 194 197 210T134 253T94 316T80 394Q80 481 116 540T217 629T372 660H661L485 -100H415L575 593H446L286 -100H213ZM296 258L373 593H339Q287 593 245 572T177 508T152 402Q152 341 190 300T296 258Z" />
<glyph unicode="&#xb7;" horiz-adv-x="223" d="M131 290Q106 290 90 305T73 346Q73 380 93 400T141 420Q166 420 182 405T199 364Q199 330 180 310T131 290Z" />
<glyph unicode="&#xb8;" horiz-adv-x="500" d="M140 6L186 29Q230 10 253 -19T277 -90Q277 -131 259 -159T211 -201T147 -215Q112 -215 85 -201T45 -171L77 -121Q91 -137 110 -144T150 -152Q179 -152 197 -134T215 -87Q215 -55 196 -34T140 6Z" />
<glyph unicode="&#xb9;" horiz-adv-x="253" d="M146 333L206 588Q209 601 213 615T220 640T224 652Q203 635 169 621T106 601L110 666Q130 670 156 680T208 703T248 729H308L216 333H146Z" />
<glyph unicode="&#xba;" horiz-adv-x="355" d="M218 327Q155 327 116 365T77 467Q77 521 98 566T159 639T252 666Q315 666 354 628T393 527Q393 476 372 430T311 356T218 327ZM25 201L37 254H320L308 201H25ZM222 382Q256 382 278 403T312 457T324 526Q324 563
305 587T248 611Q214 611 192 590T158 536T146 467Q146 430 165 406T222 382Z" />
<glyph unicode="&#xbb;" horiz-adv-x="491" d="M8 69L205 291L201 234L109 461H187L268 265L96 69H8ZM185 69L382 291L378 234L286 461H364L445 265L273 69H185Z" />
<glyph unicode="&#xbc;" horiz-adv-x="794" d="M387 524L447 779Q450 792 454 806T461 831T465 843Q444 826 410 812T347 792L351 857Q371 861 397 871T449 894T489 920H549L457 524H387ZM51 0L669 660H756L137 0H51ZM590 -4L613 95H437L448 147Q457 158 463 165T475
180T494 202L657 393H741L682 145H759L749 95H672L649 -4H590ZM512 145H623L668 329L536 170Q529 163 523 157T512 145Z" />
<glyph unicode="&#xbd;" horiz-adv-x="885" d="M387 524L447 779Q450 792 454 806T461 831T465 843Q444 826 410 812T347 792L351 857Q371 861 397 871T449 894T489 920H549L457 524H387ZM51 0L669 660H756L137 0H51ZM514 -4L527 51Q574 81 617 108T695 163T750
218T770 277Q770 312 752 326T706 340Q669 340 645 316T613 251L553 286Q567 336 606 367T708 398Q771 398 805 365T840 287Q840 247 819 214T765 152T693 99T618 52V51Q629 52 646 52T672 53H815L802 -4H514Z" />
<glyph unicode="&#xbe;" horiz-adv-x="887" d="M456 518Q395 518 355 548T303 632L374 648Q379 616 399 596T457 576Q492 576 511 596T531 644Q531 670 513 683T459 697Q455 697 451 697T442 696L455 752Q460 751 466 751T480 750Q515 750 535 767T555 813Q555
842 536 855T490 868Q460 868 440 854T410 811L348 840Q365 881 403 903T494 926Q551 926 588 899T625 824Q625 782 600 753T531 721L530 720Q562 716 582 697T602 642Q602 603 582 575T528 533T456 518ZM144 0L762 660H849L230 0H144ZM683 -4L706 95H530L541 147Q550
158 556 165T568 180T587 202L750 393H834L775 145H852L842 95H765L742 -4H683ZM605 145H716L761 329L629 170Q622 163 616 157T605 145Z" />
<glyph unicode="&#xbf;" horiz-adv-x="528" d="M334 292L299 146Q232 146 183 133T107 90T80 6Q80 -45 117 -69T209 -93Q275 -93 317 -62T379 22L444 -25Q426 -67 392 -99T312 -149T207 -168Q148 -168 101 -148T26 -89T-2 2Q-2 66 28 110T111 177T230 205L251
292H334ZM330 510Q355 510 371 495T388 454Q388 420 369 400T320 380Q295 380 279 395T262 436Q262 470 282 490T330 510Z" />
<glyph unicode="&#xc0;" horiz-adv-x="643" d="M-35 0L367 660H466L562 0H483L455 189H168L55 0H-35ZM214 264H445L400 574L214 264ZM435 902L475 743H418L353 902H435Z" />
<glyph unicode="&#xc1;" horiz-adv-x="643" d="M-35 0L367 660H466L562 0H483L455 189H168L55 0H-35ZM214 264H445L400 574L214 264ZM473 902H566L445 743H377L473 902Z" />
<glyph unicode="&#xc2;" horiz-adv-x="643" d="M-35 0L367 660H466L562 0H483L455 189H168L55 0H-35ZM214 264H445L400 574L214 264ZM506 902L579 743H511L454 849L351 743H271L418 902H506Z" />
<glyph unicode="&#xc3;" horiz-adv-x="643" d="M-35 0L367 660H466L562 0H483L455 189H168L55 0H-35ZM214 264H445L400 574L214 264ZM624 877Q613 812 579 778T500 743Q474 743 456 753T425 777T400 801T373 812Q355 812 341 793T318 742H255Q266 807 300 841T379
876Q405 876 423 866T454 842T479 818T506 807Q524 807 538 826T561 877H624Z" />
<glyph unicode="&#xc4;" horiz-adv-x="643" d="M-35 0L367 660H466L562 0H483L455 189H168L55 0H-35ZM214 264H445L400 574L214 264ZM530 742Q508 742 494 756T480 791Q480 821 498 838T542 856Q564 856 578 842T592 807Q592 777 574 760T530 742ZM336 742Q314
742 300 756T286 791Q286 821 304 838T348 856Q370 856 384 842T398 807Q398 777 380 760T336 742Z" />
<glyph unicode="&#xc5;" horiz-adv-x="643" d="M-35 0L367 660H466L562 0H483L455 189H168L55 0H-35ZM214 264H445L400 574L214 264ZM430 847Q481 847 514 816T547 739Q547 683 511 647T419 610Q368 610 335 641T302 718Q302 774 338 810T430 847ZM429 797Q399
797 378 777T357 723Q357 696 376 678T422 660Q451 660 471 680T492 734Q492 761 475 779T429 797Z" />
<glyph unicode="&#xc6;" horiz-adv-x="935" d="M-52 0L473 660H964L946 585H600L550 372H814L797 297H533L481 75H844L826 0H384L433 213H211L43 0H-52ZM271 288H451L520 585H506L271 288Z" />
<glyph unicode="&#xc7;" horiz-adv-x="674" d="M363 -10Q286 -10 223 22T121 117T83 273Q83 347 104 417T169 545T275 636T422 670Q485 670 534 650T617 589T668 485L584 457Q567 531 525 563T414 595Q354 595 308 568T231 497T184 397T168 285Q168 216 194 167T266
92T368 65Q434 65 472 92T536 166L613 129Q572 66 513 28T363 -10ZM300 6L346 29Q390 10 413 -19T437 -90Q437 -131 419 -159T371 -201T307 -215Q272 -215 245 -201T205 -171L237 -121Q251 -137 270 -144T310 -152Q339 -152 357 -134T375 -87Q375 -55 356 -34T300
6Z" />
<glyph unicode="&#xc8;" horiz-adv-x="625" d="M47 0L200 660H653L635 585H262L213 372H505L488 297H196L145 75H534L516 0H47ZM435 902L475 743H418L353 902H435Z" />
<glyph unicode="&#xc9;" horiz-adv-x="625" d="M47 0L200 660H653L635 585H262L213 372H505L488 297H196L145 75H534L516 0H47ZM485 902H578L457 743H389L485 902Z" />
<glyph unicode="&#xca;" horiz-adv-x="625" d="M47 0L200 660H653L635 585H262L213 372H505L488 297H196L145 75H534L516 0H47ZM518 902L591 743H523L466 849L363 743H283L430 902H518Z" />
<glyph unicode="&#xcb;" horiz-adv-x="625" d="M47 0L200 660H653L635 585H262L213 372H505L488 297H196L145 75H534L516 0H47ZM542 742Q520 742 506 756T492 791Q492 821 510 838T554 856Q576 856 590 842T604 807Q604 777 586 760T542 742ZM348 742Q326 742
312 756T298 791Q298 821 316 838T360 856Q382 856 396 842T410 807Q410 777 392 760T348 742Z" />
<glyph unicode="&#xcc;" horiz-adv-x="290" d="M280 660L127 0H47L200 660H280ZM248 902L288 743H231L166 902H248Z" />
<glyph unicode="&#xcd;" horiz-adv-x="290" d="M280 660L127 0H47L200 660H280ZM318 902H411L290 743H222L318 902Z" />
<glyph unicode="&#xce;" horiz-adv-x="290" d="M280 660L127 0H47L200 660H280ZM338 902L411 743H343L286 849L183 743H103L250 902H338Z" />
<glyph unicode="&#xcf;" horiz-adv-x="290" d="M352 742Q330 742 316 756T302 791Q302 821 320 838T364 856Q386 856 400 842T414 807Q414 777 396 760T352 742ZM178 742Q156 742 142 756T128 791Q128 821 146 838T190 856Q212 856 226 842T240 807Q240 777 222
760T178 742ZM280 660L127 0H47L200 660H280Z" />
<glyph unicode="&#xd0;" horiz-adv-x="725" d="M27 296L44 371H419L402 296H27ZM66 0L219 660H410Q495 660 555 625T647 529T680 390Q680 307 654 236T578 112T461 30T309 0H66ZM163 75H321Q384 75 434 99T520 166T575 263T594 378Q594 437 573 483T509 557T400
585H282L163 75Z" />
<glyph unicode="&#xd1;" horiz-adv-x="719" d="M47 0L200 660H296L460 220L503 88H504L525 194L633 660H709L556 0H461L294 442L253 572H252L231 466L123 0H47ZM663 877Q652 812 618 778T539 743Q513 743 495 753T464 777T439 801T412 812Q394 812 380 793T357
742H294Q305 807 339 841T418 876Q444 876 462 866T493 842T518 818T545 807Q563 807 577 826T600 877H663Z" />
<glyph unicode="&#xd2;" horiz-adv-x="742" d="M359 -10Q285 -10 223 23T123 122T85 280Q85 357 107 427T171 551T277 638T423 670Q497 670 558 636T657 538T694 380Q694 304 673 234T609 109T504 22T359 -10ZM368 66Q428 66 473 92T548 162T594 262T610 375Q610
444 585 493T516 568T413 594Q353 594 308 568T231 498T185 399T169 285Q169 216 194 167T263 92T368 66ZM452 902L492 743H435L370 902H452Z" />
<glyph unicode="&#xd3;" horiz-adv-x="742" d="M359 -10Q285 -10 223 23T123 122T85 280Q85 357 107 427T171 551T277 638T423 670Q497 670 558 636T657 538T694 380Q694 304 673 234T609 109T504 22T359 -10ZM368 66Q428 66 473 92T548 162T594 262T610 375Q610
444 585 493T516 568T413 594Q353 594 308 568T231 498T185 399T169 285Q169 216 194 167T263 92T368 66ZM502 902H595L474 743H406L502 902Z" />
<glyph unicode="&#xd4;" horiz-adv-x="742" d="M359 -10Q285 -10 223 23T123 122T85 280Q85 357 107 427T171 551T277 638T423 670Q497 670 558 636T657 538T694 380Q694 304 673 234T609 109T504 22T359 -10ZM368 66Q428 66 473 92T548 162T594 262T610 375Q610
444 585 493T516 568T413 594Q353 594 308 568T231 498T185 399T169 285Q169 216 194 167T263 92T368 66ZM535 902L608 743H540L483 849L380 743H300L447 902H535Z" />
<glyph unicode="&#xd5;" horiz-adv-x="742" d="M359 -10Q285 -10 223 23T123 122T85 280Q85 357 107 427T171 551T277 638T423 670Q497 670 558 636T657 538T694 380Q694 304 673 234T609 109T504 22T359 -10ZM368 66Q428 66 473 92T548 162T594 262T610 375Q610
444 585 493T516 568T413 594Q353 594 308 568T231 498T185 399T169 285Q169 216 194 167T263 92T368 66ZM653 877Q642 812 608 778T529 743Q503 743 485 753T454 777T429 801T402 812Q384 812 370 793T347 742H284Q295 807 329 841T408 876Q434 876 452 866T483
842T508 818T535 807Q553 807 567 826T590 877H653Z" />
<glyph unicode="&#xd6;" horiz-adv-x="742" d="M359 -10Q285 -10 223 23T123 122T85 280Q85 357 107 427T171 551T277 638T423 670Q497 670 558 636T657 538T694 380Q694 304 673 234T609 109T504 22T359 -10ZM368 66Q428 66 473 92T548 162T594 262T610 375Q610
444 585 493T516 568T413 594Q353 594 308 568T231 498T185 399T169 285Q169 216 194 167T263 92T368 66ZM559 742Q537 742 523 756T509 791Q509 821 527 838T571 856Q593 856 607 842T621 807Q621 777 603 760T559 742ZM365 742Q343 742 329 756T315 791Q315 821
333 838T377 856Q399 856 413 842T427 807Q427 777 409 760T365 742Z" />
<glyph unicode="&#xd7;" horiz-adv-x="604" d="M88 97L43 156L515 538L560 479L88 97ZM424 97L121 492L179 538L482 143L424 97Z" />
<glyph unicode="&#xd8;" horiz-adv-x="742" d="M216 94L176 136L562 566L599 521L216 94ZM44 -12L176 136L216 94L121 -12H44ZM599 521L562 566L659 674H737L599 521ZM359 -10Q285 -10 223 23T123 122T85 280Q85 357 107 427T171 551T277 638T423 670Q497 670
558 636T657 538T694 380Q694 304 673 234T609 109T504 22T359 -10ZM368 66Q428 66 473 92T548 162T594 262T610 375Q610 444 585 493T516 568T413 594Q353 594 308 568T231 498T185 399T169 285Q169 216 194 167T263 92T368 66Z" />
<glyph unicode="&#xd9;" horiz-adv-x="693" d="M325 -10Q238 -10 180 25T100 126T99 286L187 660H267L177 267Q162 200 178 155T233 88T330 65Q410 65 456 115T521 249L616 660H696L596 226Q571 120 503 55T325 -10ZM445 882L485 723H428L363 882H445Z" />
<glyph unicode="&#xda;" horiz-adv-x="693" d="M325 -10Q238 -10 180 25T100 126T99 286L187 660H267L177 267Q162 200 178 155T233 88T330 65Q410 65 456 115T521 249L616 660H696L596 226Q571 120 503 55T325 -10ZM495 882H588L467 723H399L495 882Z" />
<glyph unicode="&#xdb;" horiz-adv-x="693" d="M325 -10Q238 -10 180 25T100 126T99 286L187 660H267L177 267Q162 200 178 155T233 88T330 65Q410 65 456 115T521 249L616 660H696L596 226Q571 120 503 55T325 -10ZM528 882L601 723H533L476 829L373 723H293L440
882H528Z" />
<glyph unicode="&#xdc;" horiz-adv-x="693" d="M325 -10Q238 -10 180 25T100 126T99 286L187 660H267L177 267Q162 200 178 155T233 88T330 65Q410 65 456 115T521 249L616 660H696L596 226Q571 120 503 55T325 -10ZM552 722Q530 722 516 736T502 771Q502 801
520 818T564 836Q586 836 600 822T614 787Q614 757 596 740T552 722ZM358 722Q336 722 322 736T308 771Q308 801 326 818T370 836Q392 836 406 822T420 787Q420 757 402 740T358 722Z" />
<glyph unicode="&#xdd;" horiz-adv-x="562" d="M183 0L243 258L110 660H196L268 431L295 333L370 437L546 660H642L322 251L263 0H183ZM424 882H517L396 723H328L424 882Z" />
<glyph unicode="&#xde;" horiz-adv-x="614" d="M130 132L147 207H345Q399 207 434 228T485 285T502 360Q502 407 467 435T367 463H204L224 538H373Q472 538 528 489T584 358Q584 293 553 242T465 161T336 132H130ZM47 0L200 660H280L127 0H47Z" />
<glyph unicode="&#xdf;" horiz-adv-x="595" d="M320 -10Q281 -10 248 -1T193 23L218 94Q235 81 262 72T323 63Q368 63 398 85T444 143T459 218Q459 276 422 313T314 350Q308 350 302 350T290 349L307 420Q316 419 325 419T342 418Q395 418 430 436T484 486T502
560Q502 593 487 615T447 648T387 660Q326 660 286 623T225 492L111 0H31L152 525Q178 634 241 684T394 735Q453 735 494 715T558 659T581 572Q581 522 558 479T495 409T408 382V380Q439 376 468 356T516 303T535 222Q535 151 507 99T431 18T320 -10Z" />
<glyph unicode="&#xe0;" horiz-adv-x="616" d="M251 -8Q193 -8 149 20T80 97T55 212Q55 274 74 328T127 423T208 487T310 510Q354 510 389 495T447 453T479 387L505 500H585L469 0H399L416 93Q392 47 348 20T251 -8ZM272 60Q307 60 338 78T394 127T433 201T447
293Q447 338 431 371T385 423T315 441Q275 441 242 424T185 375T148 303T134 213Q134 164 150 130T196 78T272 60ZM341 750L386 583H325L261 750H341Z" />
<glyph unicode="&#xe1;" horiz-adv-x="616" d="M251 -8Q193 -8 149 20T80 97T55 212Q55 274 74 328T127 423T208 487T310 510Q354 510 389 495T447 453T479 387L505 500H585L469 0H399L416 93Q392 47 348 20T251 -8ZM272 60Q307 60 338 78T394 127T433 201T447
293Q447 338 431 371T385 423T315 441Q275 441 242 424T185 375T148 303T134 213Q134 164 150 130T196 78T272 60ZM418 750H514L371 583H296L418 750Z" />
<glyph unicode="&#xe2;" horiz-adv-x="616" d="M251 -8Q193 -8 149 20T80 97T55 212Q55 274 74 328T127 423T208 487T310 510Q354 510 389 495T447 453T479 387L505 500H585L469 0H399L416 93Q392 47 348 20T251 -8ZM272 60Q307 60 338 78T394 127T433 201T447
293Q447 338 431 371T385 423T315 441Q275 441 242 424T185 375T148 303T134 213Q134 164 150 130T196 78T272 60ZM185 576L337 743H427L503 576H434L374 690L263 576H185Z" />
<glyph unicode="&#xe3;" horiz-adv-x="616" d="M251 -8Q193 -8 149 20T80 97T55 212Q55 274 74 328T127 423T208 487T310 510Q354 510 389 495T447 453T479 387L505 500H585L469 0H399L416 93Q392 47 348 20T251 -8ZM272 60Q307 60 338 78T394 127T433 201T447
293Q447 338 431 371T385 423T315 441Q275 441 242 424T185 375T148 303T134 213Q134 164 150 130T196 78T272 60ZM546 717Q535 652 501 618T422 583Q396 583 378 593T347 617T322 641T295 652Q277 652 263 633T240 582H177Q188 647 222 681T301 716Q327 716 345
706T376 682T401 658T428 647Q446 647 460 666T483 717H546Z" />
<glyph unicode="&#xe4;" horiz-adv-x="616" d="M251 -8Q193 -8 149 20T80 97T55 212Q55 274 74 328T127 423T208 487T310 510Q354 510 389 495T447 453T479 387L505 500H585L469 0H399L416 93Q392 47 348 20T251 -8ZM272 60Q307 60 338 78T394 127T433 201T447
293Q447 338 431 371T385 423T315 441Q275 441 242 424T185 375T148 303T134 213Q134 164 150 130T196 78T272 60ZM452 582Q430 582 416 596T402 631Q402 661 420 678T464 696Q486 696 500 682T514 647Q514 617 496 600T452 582ZM258 582Q236 582 222 596T208 631Q208
661 226 678T270 696Q292 696 306 682T320 647Q320 617 302 600T258 582Z" />
<glyph unicode="&#xe5;" horiz-adv-x="616" d="M251 -8Q193 -8 149 20T80 97T55 212Q55 274 74 328T127 423T208 487T310 510Q354 510 389 495T447 453T479 387L505 500H585L469 0H399L416 93Q392 47 348 20T251 -8ZM272 60Q307 60 338 78T394 127T433 201T447
293Q447 338 431 371T385 423T315 441Q275 441 242 424T185 375T148 303T134 213Q134 164 150 130T196 78T272 60ZM375 813Q426 813 459 782T492 705Q492 649 456 613T364 576Q313 576 280 607T247 684Q247 740 283 776T375 813ZM374 763Q344 763 323 743T302 689Q302
662 321 644T367 626Q396 626 416 646T437 700Q437 727 420 745T374 763Z" />
<glyph unicode="&#xe6;" horiz-adv-x="883" d="M206 -10Q122 -10 82 30T41 129Q41 174 64 204T129 251T223 276L417 301L414 239L251 217Q193 209 159 192T124 132Q124 97 146 78T213 58Q278 58 317 94T370 194L396 309Q398 318 399 326T400 342Q400 386 370 413T289
440Q234 440 198 418T135 347L77 388Q108 447 163 478T297 509Q341 509 375 494T431 454T454 401L441 405Q461 437 492 460T563 496T649 509Q704 509 744 484T805 416T827 317Q827 297 824 276T813 231H443L452 301H748Q749 306 749 311T749 320Q749 356 735 383T697
425T641 440Q590 440 555 420T499 366T468 291T458 209Q458 165 475 131T525 79T599 60Q647 60 680 81T734 137L797 95Q775 63 744 40T675 4T592 -9Q535 -9 492 13T424 71T399 148L415 160Q411 117 384 78T311 15T206 -10Z" />
<glyph unicode="&#xe7;" horiz-adv-x="538" d="M277 -9Q208 -9 159 21T83 103T57 217Q57 303 90 368T182 471T319 509Q376 509 418 489T487 434T523 355L439 335Q435 379 405 409T315 440Q277 440 245 424T188 379T151 309T138 218Q138 174 155 138T204 81T285
60Q324 60 358 80T407 139L485 111Q459 53 404 22T277 -9ZM193 6L239 29Q283 10 306 -19T330 -90Q330 -131 312 -159T264 -201T200 -215Q165 -215 138 -201T98 -171L130 -121Q144 -137 163 -144T203 -152Q232 -152 250 -134T268 -87Q268 -55 249 -34T193 6Z" />
<glyph unicode="&#xe8;" horiz-adv-x="572" d="M276 -9Q207 -9 158 21T82 102T56 216Q56 294 87 361T177 468T322 509Q383 509 426 484T493 416T516 317Q516 297 513 276T502 231H95V301H467L432 273Q435 285 436 297T438 320Q438 356 424 383T382 425T317 440Q268
440 234 421T178 368T147 295T137 213Q137 168 155 134T207 80T285 60Q336 61 369 82T423 137L486 95Q464 63 433 40T363 4T276 -9ZM331 750L376 583H315L251 750H331Z" />
<glyph unicode="&#xe9;" horiz-adv-x="572" d="M276 -9Q207 -9 158 21T82 102T56 216Q56 294 87 361T177 468T322 509Q383 509 426 484T493 416T516 317Q516 297 513 276T502 231H95V301H467L432 273Q435 285 436 297T438 320Q438 356 424 383T382 425T317 440Q268
440 234 421T178 368T147 295T137 213Q137 168 155 134T207 80T285 60Q336 61 369 82T423 137L486 95Q464 63 433 40T363 4T276 -9ZM408 750H504L361 583H286L408 750Z" />
<glyph unicode="&#xea;" horiz-adv-x="572" d="M276 -9Q207 -9 158 21T82 102T56 216Q56 294 87 361T177 468T322 509Q383 509 426 484T493 416T516 317Q516 297 513 276T502 231H95V301H467L432 273Q435 285 436 297T438 320Q438 356 424 383T382 425T317 440Q268
440 234 421T178 368T147 295T137 213Q137 168 155 134T207 80T285 60Q336 61 369 82T423 137L486 95Q464 63 433 40T363 4T276 -9ZM175 576L327 743H417L493 576H424L364 690L253 576H175Z" />
<glyph unicode="&#xeb;" horiz-adv-x="572" d="M276 -9Q207 -9 158 21T82 102T56 216Q56 294 87 361T177 468T322 509Q383 509 426 484T493 416T516 317Q516 297 513 276T502 231H95V301H467L432 273Q435 285 436 297T438 320Q438 356 424 383T382 425T317 440Q268
440 234 421T178 368T147 295T137 213Q137 168 155 134T207 80T285 60Q336 61 369 82T423 137L486 95Q464 63 433 40T363 4T276 -9ZM442 582Q420 582 406 596T392 631Q392 661 410 678T454 696Q476 696 490 682T504 647Q504 617 486 600T442 582ZM248 582Q226 582
212 596T198 631Q198 661 216 678T260 696Q282 696 296 682T310 647Q310 617 292 600T248 582Z" />
<glyph unicode="&#xec;" horiz-adv-x="258" d="M227 500L111 0H31L147 500H227ZM198 750L243 583H182L118 750H198Z" />
<glyph unicode="&#xed;" horiz-adv-x="258" d="M227 500L111 0H31L147 500H227ZM275 750H371L228 583H153L275 750Z" />
<glyph unicode="&#xee;" horiz-adv-x="258" d="M227 500L111 0H31L147 500H227ZM42 576L194 743H284L360 576H291L231 690L120 576H42Z" />
<glyph unicode="&#xef;" horiz-adv-x="258" d="M299 582Q277 582 263 596T249 631Q249 661 267 678T311 696Q333 696 347 682T361 647Q361 617 343 600T299 582ZM125 582Q103 582 89 596T75 631Q75 661 93 678T137 696Q159 696 173 682T187 647Q187 617 169 600T125
582ZM227 500L111 0H31L147 500H227Z" />
<glyph unicode="&#xf0;" horiz-adv-x="598" d="M267 -10Q199 -10 151 20T78 101T52 214Q52 291 84 353T173 451T299 487Q351 487 390 469T452 419T476 344L460 343Q461 353 461 362T461 382Q461 452 441 515T376 632T255 730H351Q401 708 437 669T496 579T530
475T541 367Q541 291 524 223T473 102T388 20T267 -10ZM281 60Q320 60 351 77T405 125T438 192T450 269Q450 319 430 351T377 400T301 417Q262 417 231 400T177 355T144 290T132 216Q132 170 150 135T203 80T281 60ZM253 536L240 593L429 635L464 588L253 536ZM464
588L430 635L591 677L607 621L464 588Z" />
<glyph unicode="&#xf1;" horiz-adv-x="600" d="M31 0L147 500H217L198 388L188 393Q208 452 261 481T375 510Q433 510 473 485T529 414T531 301L461 0H381L451 302Q466 367 439 403T352 440Q306 440 271 420T211 360T172 263L111 0H31ZM576 717Q565 652 531 618T452
583Q426 583 408 593T377 617T352 641T325 652Q307 652 293 633T270 582H207Q218 647 252 681T331 716Q357 716 375 706T406 682T431 658T458 647Q476 647 490 666T513 717H576Z" />
<glyph unicode="&#xf2;" horiz-adv-x="595" d="M282 -9Q210 -9 160 21T83 103T56 216Q56 302 89 368T180 471T314 509Q387 509 437 479T513 398T539 285Q539 200 507 134T416 29T282 -9ZM285 60Q321 60 352 75T408 120T445 191T458 282Q458 326 443 361T395 418T311
440Q275 440 243 425T188 380T151 310T137 219Q137 176 153 140T202 82T285 60ZM334 750L379 583H318L254 750H334Z" />
<glyph unicode="&#xf3;" horiz-adv-x="595" d="M282 -9Q210 -9 160 21T83 103T56 216Q56 302 89 368T180 471T314 509Q387 509 437 479T513 398T539 285Q539 200 507 134T416 29T282 -9ZM285 60Q321 60 352 75T408 120T445 191T458 282Q458 326 443 361T395 418T311
440Q275 440 243 425T188 380T151 310T137 219Q137 176 153 140T202 82T285 60ZM411 750H507L364 583H289L411 750Z" />
<glyph unicode="&#xf4;" horiz-adv-x="595" d="M282 -9Q210 -9 160 21T83 103T56 216Q56 302 89 368T180 471T314 509Q387 509 437 479T513 398T539 285Q539 200 507 134T416 29T282 -9ZM285 60Q321 60 352 75T408 120T445 191T458 282Q458 326 443 361T395 418T311
440Q275 440 243 425T188 380T151 310T137 219Q137 176 153 140T202 82T285 60ZM178 576L330 743H420L496 576H427L367 690L256 576H178Z" />
<glyph unicode="&#xf5;" horiz-adv-x="595" d="M282 -9Q210 -9 160 21T83 103T56 216Q56 302 89 368T180 471T314 509Q387 509 437 479T513 398T539 285Q539 200 507 134T416 29T282 -9ZM285 60Q321 60 352 75T408 120T445 191T458 282Q458 326 443 361T395 418T311
440Q275 440 243 425T188 380T151 310T137 219Q137 176 153 140T202 82T285 60ZM539 717Q528 652 494 618T415 583Q389 583 371 593T340 617T315 641T288 652Q270 652 256 633T233 582H170Q181 647 215 681T294 716Q320 716 338 706T369 682T394 658T421 647Q439
647 453 666T476 717H539Z" />
<glyph unicode="&#xf6;" horiz-adv-x="595" d="M282 -9Q210 -9 160 21T83 103T56 216Q56 302 89 368T180 471T314 509Q387 509 437 479T513 398T539 285Q539 200 507 134T416 29T282 -9ZM285 60Q321 60 352 75T408 120T445 191T458 282Q458 326 443 361T395 418T311
440Q275 440 243 425T188 380T151 310T137 219Q137 176 153 140T202 82T285 60ZM445 582Q423 582 409 596T395 631Q395 661 413 678T457 696Q479 696 493 682T507 647Q507 617 489 600T445 582ZM251 582Q229 582 215 596T201 631Q201 661 219 678T263 696Q285 696
299 682T313 647Q313 617 295 600T251 582Z" />
<glyph unicode="&#xf7;" horiz-adv-x="604" d="M569 354L552 279H66L83 354H569ZM267 55Q242 55 226 70T209 111Q209 145 229 165T277 185Q302 185 318 170T335 129Q335 95 316 75T267 55ZM357 446Q332 446 316 461T299 502Q299 536 319 556T367 576Q392 576 408
561T425 520Q425 486 406 466T357 446Z" />
<glyph unicode="&#xf8;" horiz-adv-x="595" d="M282 -9Q210 -9 160 21T83 103T56 216Q56 302 89 368T180 471T314 509Q387 509 437 479T513 398T539 285Q539 200 507 134T416 29T282 -9ZM285 60Q321 60 352 75T408 120T445 191T458 282Q458 326 443 361T395 418T311
440Q275 440 243 425T188 380T151 310T137 219Q137 176 153 140T202 82T285 60ZM12 -26L507 527H579L84 -26H12Z" />
<glyph unicode="&#xf9;" horiz-adv-x="598" d="M228 -8Q174 -8 133 16T73 87T69 199L139 500H219L150 201Q134 134 162 98T249 62Q295 62 330 82T389 141T426 237L487 500H567L451 0H381L400 112L410 107Q390 49 340 21T228 -8ZM354 740L399 573H338L274 740H354Z" />
<glyph unicode="&#xfa;" horiz-adv-x="598" d="M228 -8Q174 -8 133 16T73 87T69 199L139 500H219L150 201Q134 134 162 98T249 62Q295 62 330 82T389 141T426 237L487 500H567L451 0H381L400 112L410 107Q390 49 340 21T228 -8ZM431 740H527L384 573H309L431 740Z" />
<glyph unicode="&#xfb;" horiz-adv-x="598" d="M228 -8Q174 -8 133 16T73 87T69 199L139 500H219L150 201Q134 134 162 98T249 62Q295 62 330 82T389 141T426 237L487 500H567L451 0H381L400 112L410 107Q390 49 340 21T228 -8ZM198 566L350 733H440L516 566H447L387
680L276 566H198Z" />
<glyph unicode="&#xfc;" horiz-adv-x="598" d="M228 -8Q174 -8 133 16T73 87T69 199L139 500H219L150 201Q134 134 162 98T249 62Q295 62 330 82T389 141T426 237L487 500H567L451 0H381L400 112L410 107Q390 49 340 21T228 -8ZM465 572Q443 572 429 586T415 621Q415
651 433 668T477 686Q499 686 513 672T527 637Q527 607 509 590T465 572ZM271 572Q249 572 235 586T221 621Q221 651 239 668T283 686Q305 686 319 672T333 637Q333 607 315 590T271 572Z" />
<glyph unicode="&#xfd;" horiz-adv-x="504" d="M12 -215Q-26 -215 -53 -206T-99 -181L-67 -114Q-33 -145 9 -145Q41 -145 65 -127T114 -71L161 4L73 500H152L198 214L218 89L288 206L465 500H556L178 -98Q152 -139 125 -165T69 -203T12 -215ZM390 740H486L343
573H268L390 740Z" />
<glyph unicode="&#xfe;" horiz-adv-x="616" d="M-17 -210L200 730H280L201 391L185 365Q202 432 254 470T378 508Q428 508 469 482T536 407T561 290Q561 226 542 171T487 76T406 13T304 -10Q255 -10 217 9T157 65T132 148L147 156L63 -210H-17ZM305 59Q341 59
373 76T429 124T468 198T482 290Q482 338 465 371T418 422T348 439Q309 439 277 422T220 373T183 299T169 205Q169 140 203 100T305 59Z" />
<glyph unicode="&#xff;" horiz-adv-x="504" d="M12 -215Q-26 -215 -53 -206T-99 -181L-67 -114Q-33 -145 9 -145Q41 -145 65 -127T114 -71L161 4L73 500H152L198 214L218 89L288 206L465 500H556L178 -98Q152 -139 125 -165T69 -203T12 -215ZM424 572Q402 572
388 586T374 621Q374 651 392 668T436 686Q458 686 472 672T486 637Q486 607 468 590T424 572ZM230 572Q208 572 194 586T180 621Q180 651 198 668T242 686Q264 686 278 672T292 637Q292 607 274 590T230 572Z" />
<glyph unicode="&#x2013;" horiz-adv-x="664" d="M593 299L576 224H76L93 299H593Z" />
<glyph unicode="&#x2014;" horiz-adv-x="1014" d="M943 299L926 224H76L93 299H943Z" />
<glyph unicode="&#x2018;" horiz-adv-x="241" d="M174 432Q145 432 126 453T107 507Q107 551 130 592T191 662T276 700L297 652Q258 649 232 633T190 596T169 558L171 556Q173 557 179 558T193 560Q219 560 231 544T244 507Q244 475 225 454T174 432Z" />
<glyph unicode="&#x2019;" horiz-adv-x="241" d="M221 700Q251 700 269 678T287 619Q287 581 268 542T211 472T122 431L97 479Q136 485 162 499T205 533T228 578L227 579Q222 575 217 574T200 572Q176 572 164 589T151 628Q151 660 171 680T221 700Z" />
<glyph unicode="&#x201a;" horiz-adv-x="241" d="M343 120Q373 120 391 98T409 39Q409 1 390 -38T333 -108T244 -149L219 -101Q258 -95 284 -81T327 -47T350 -2L349 -1Q344 -5 339 -6T322 -8Q298 -8 286 9T273 48Q273 80 293 100T343 120Z" />
<glyph unicode="&#x201c;" horiz-adv-x="425" d="M174 432Q145 432 126 453T107 507Q107 551 130 592T191 662T276 700L297 652Q258 649 232 633T190 596T169 558L171 556Q173 557 179 558T193 560Q219 560 231 544T244 507Q244 475 225 454T174 432ZM358 432Q329
432 310 453T291 507Q291 551 314 592T375 662T460 700L481 652Q442 649 416 633T374 596T353 558L355 556Q357 557 363 558T377 560Q403 560 415 544T428 507Q428 475 409 454T358 432Z" />
<glyph unicode="&#x201d;" horiz-adv-x="425" d="M221 700Q251 700 269 678T287 619Q287 581 268 542T211 472T122 431L97 479Q136 485 162 499T205 533T228 578L227 579Q222 575 217 574T200 572Q176 572 164 589T151 628Q151 660 171 680T221 700ZM405 700Q435
700 453 678T471 619Q471 581 452 542T395 472T306 431L281 479Q320 485 346 499T389 533T412 578L411 579Q406 575 401 574T384 572Q360 572 348 589T335 628Q335 660 355 680T405 700Z" />
<glyph unicode="&#x201e;" horiz-adv-x="425" d="M343 120Q373 120 391 98T409 39Q409 1 390 -38T333 -108T244 -149L219 -101Q258 -95 284 -81T327 -47T350 -2L349 -1Q344 -5 339 -6T322 -8Q298 -8 286 9T273 48Q273 80 293 100T343 120ZM271 120Q301 120 319
98T337 39Q337 1 318 -38T261 -108T172 -149L147 -101Q186 -95 212 -81T255 -47T278 -2L277 -1Q272 -5 267 -6T250 -8Q226 -8 214 9T201 48Q201 80 221 100T271 120Z" />
<glyph unicode="&#x2022;" horiz-adv-x="422" d="M224 215Q172 215 140 248T108 328Q108 386 145 422T238 458Q291 458 322 425T354 345Q354 287 317 251T224 215Z" />
<glyph unicode="&#x2039;" horiz-adv-x="313" d="M312 461L115 239L119 296L211 69H133L52 265L224 461H312Z" />
<glyph unicode="&#x203a;" horiz-adv-x="314" d="M8 69L205 291L201 234L109 461H187L268 265L96 69H8Z" />
</font>
</defs>
</svg>
