<svg width="48" height="48" viewBox="0 0 29 29" fill="none" xmlns="http://www.w3.org/2000/svg" stroke-width="2" stroke-linecap="round" stroke-linejoin="round" stroke="#ffffff"><g><path d="M23.9991 9.00464V3.00464"></path><path d="M26.9991 6.00464L20.9991 6.00464"></path><path d="M10.5497 13.747L9.64035 12.6538C8.08843 10.788 8.21272 8.04735 9.92716 6.32973C11.7628 4.49069 14.7426 4.49069 16.5782 6.32973C18.2926 8.04735 18.4169 10.788 16.865 12.6538L15.9559 13.7467C15.3751 14.4449 15.7079 15.5097 16.5828 15.7531L17.8145 16.0956C21.187 17.0335 23.5206 20.1046 23.5206 23.6051V26.9816H2.99304V23.5992C2.99304 20.1017 5.32433 17.0331 8.69379 16.0954L9.92292 15.7533C10.7978 15.5099 11.1304 14.4451 10.5497 13.747Z"></path></g></svg>