<svg width="48" height="48" viewBox="0 0 28 28" fill="none" xmlns="http://www.w3.org/2000/svg" stroke-width="2" stroke-linecap="round" stroke-linejoin="round" stroke="#ffffff"><path d="M14.7641 17.1156L14.7641 11.7782"></path><path d="M17.4328 14.4469L12.0954 14.4469"></path><path d="M9.34094 24.5222C8.99891 24.8358 8.59843 25.0788 8.16238 25.2375C7.72632 25.3962 7.26323 25.4674 6.79954 25.4471C6.33586 25.4267 5.88066 25.3153 5.45993 25.119C5.03921 24.9228 4.6612 24.6456 4.34749 24.3033C3.72289 23.6055 3.40063 22.6884 3.4515 21.7536C3.50237 20.8187 3.92221 19.9425 4.6188 19.3174C4.96083 19.0038 5.36131 18.7608 5.79736 18.6021C6.23342 18.4434 6.69651 18.3722 7.1602 18.3925C7.62388 18.4128 8.07908 18.5243 8.49981 18.7206C8.92053 18.9168 9.29854 19.194 9.61225 19.5362C10.2365 20.2342 10.5585 21.1512 10.5077 22.086C10.4568 23.0208 10.0372 23.8969 9.34094 24.5222Z" fill="none"></path><path d="M10.6179 21.7082L26 21.7106"></path><path d="M18.4265 22.3872L18.4239 25.6594L23.3242 25.6653L23.3256 22.3942"></path><path d="M9.33963 9.39374C8.9976 9.70728 8.59712 9.95033 8.16107 10.109C7.72502 10.2677 7.26193 10.3389 6.79824 10.3186C6.33455 10.2983 5.87935 10.1868 5.45863 9.99056C5.03791 9.79432 4.6599 9.51715 4.34619 9.17487C3.72159 8.47703 3.39933 7.55996 3.4502 6.62508C3.50107 5.69021 3.92091 4.81399 4.6175 4.1889C4.95953 3.87536 5.36001 3.63231 5.79606 3.47362C6.23211 3.31494 6.6952 3.24372 7.15889 3.26404C7.62258 3.28437 8.07778 3.39583 8.4985 3.59208C8.91923 3.78832 9.29723 4.06549 9.61094 4.40777C10.2352 5.10576 10.5572 6.02276 10.5064 6.95752C10.4555 7.89228 10.0359 8.76845 9.33963 9.39374Z" fill="none"></path><path d="M10.6166 6.57965L25.9987 6.58208"></path><path d="M18.4252 7.25862L18.4226 10.5309L23.3229 10.5368L23.3243 7.26568"></path></svg>