<svg width="48" height="48" viewBox="0 0 28 28" fill="none" xmlns="http://www.w3.org/2000/svg" stroke-width="2" stroke-linecap="round" stroke-linejoin="round" stroke="#ffffff"><path d="M3.3167 18.2338C4.07764 19.5517 5.76294 20.0033 7.08092 19.2424L8.54062 18.3913C12.7495 16.0327 17.4091 15.0552 21.0684 15.6442L17.7517 9.8996L14.4351 4.15498C13.1156 7.61851 9.93917 11.1651 5.79211 13.6308L4.32532 14.4695C3.00733 15.2305 2.55576 16.9158 3.3167 18.2338Z"></path><path d="M19.7145 5.64923C19.7145 5.64923 21.0466 6.40554 21.7209 7.54587C22.3951 8.6862 22.4218 10.192 22.4218 10.192" fill="none" data-nofill="true"></path><path d="M20.7148 2C20.7148 2 23.3154 3.47646 24.6316 5.70262C25.9479 7.92878 26 11.351 26 11.351" fill="none" data-nofill="true"></path><path d="M10.0083 17.53L8.63049 15.1436L7.25269 12.7572"></path><path d="M10.0161 17.5781L6.77264 19.4507L9.99432 25.0308L13.2378 23.1582L10.0161 17.5781Z" stroke-miterlimit="10"></path></svg>