<svg width="48" height="48" viewBox="0 0 28 28" fill="none" xmlns="http://www.w3.org/2000/svg" stroke-width="2" stroke-linecap="round" stroke-linejoin="round" stroke="#ffffff"><path d="M14.0019 7.29055C15.5315 7.29055 16.7715 6.05026 16.7715 4.52028C16.7715 2.99029 15.5315 1.75 14.0019 1.75C12.4723 1.75 11.2323 2.99029 11.2323 4.52028C11.2323 6.05026 12.4723 7.29055 14.0019 7.29055Z"></path><path d="M7.47419 25.7403C9.00379 25.7403 10.2438 24.5001 10.2438 22.9701C10.2438 21.4401 9.00379 20.1998 7.47419 20.1998C5.94458 20.1998 4.70459 21.4401 4.70459 22.9701C4.70459 24.5001 5.94458 25.7403 7.47419 25.7403Z"></path><path d="M4.7696 14.6779C6.2992 14.6779 7.53919 13.4376 7.53919 11.9076C7.53919 10.3777 6.2992 9.13736 4.7696 9.13736C3.23999 9.13736 2 10.3777 2 11.9076C2 13.4376 3.23999 14.6779 4.7696 14.6779Z"></path><path d="M23.2332 14.6779C24.7628 14.6779 26.0028 13.4376 26.0028 11.9076C26.0028 10.3777 24.7628 9.13736 23.2332 9.13736C21.7036 9.13736 20.4636 10.3777 20.4636 11.9076C20.4636 13.4376 21.7036 14.6779 23.2332 14.6779Z"></path><path d="M20.4551 25.75C21.9847 25.75 23.2247 24.5097 23.2247 22.9797C23.2247 21.4497 21.9847 20.2094 20.4551 20.2094C18.9255 20.2094 17.6855 21.4497 17.6855 22.9797C17.6855 24.5097 18.9255 25.75 20.4551 25.75Z"></path><path d="M14.0006 18.63C16.1827 18.63 17.9517 16.8606 17.9517 14.678C17.9517 12.4953 16.1827 10.726 14.0006 10.726C11.8185 10.726 10.0496 12.4953 10.0496 14.678C10.0496 16.8606 11.8185 18.63 14.0006 18.63Z"></path><path d="M11.501 17.965L8.92651 20.5395"></path><path d="M16.4661 18.0051L19.0005 20.5394"></path><path d="M14.0012 10.726L14.0012 7.29065"></path><path d="M10.1505 13.7689L7.41382 12.8087M17.8281 13.7583L20.5886 12.8087"></path></svg>