<svg width="48" height="48" viewBox="0 0 28 28" fill="none" xmlns="http://www.w3.org/2000/svg" stroke-width="2" stroke-linecap="round" stroke-linejoin="round" stroke="#ffffff"><path d="M5.00001 26V2H17L23.4615 8.46154V26H5.00001Z"></path><path d="M22.5 8.46155H17V3"></path><path d="M15.9251 12.7784H13.6415C13.4179 12.7769 13.1962 12.8196 12.9892 12.9041C12.7822 12.9885 12.5939 13.1132 12.4353 13.2707C12.2766 13.4283 12.1507 13.6157 12.0648 13.8221C11.9789 14.0285 11.9346 14.2499 11.9346 14.4735C11.9378 14.9241 12.119 15.3552 12.4387 15.6728C12.7585 15.9903 13.1908 16.1685 13.6415 16.1685H14.8186C15.2692 16.1685 15.7016 16.3467 16.0214 16.6643C16.3411 16.9818 16.5223 17.4129 16.5254 17.8636C16.5352 18.0976 16.4967 18.3312 16.4123 18.5497C16.328 18.7682 16.1995 18.967 16.035 19.1337C15.8705 19.3005 15.6734 19.4315 15.456 19.5188C15.2387 19.6061 15.0057 19.6477 14.7715 19.641H12.2996"></path><path d="M14.2065 12.7308V11.4595"></path><path d="M14.2065 20.9713V19.7589"></path></svg>