<svg width="48" height="48" viewBox="0 0 29 29" fill="none" xmlns="http://www.w3.org/2000/svg" stroke-width="2" stroke-linecap="round" stroke-linejoin="round" stroke="#ffffff"><g><path d="M22.4647 22.2436H9.06277C5.71439 22.2436 3 19.5292 3 16.1809C3 12.8325 5.71439 10.1181 9.06277 10.1181C9.50272 10.1181 9.93174 10.165 10.3451 10.254C10.5 8.85565 11.9169 7.05177 13.0652 6.24989C16.1449 4.09916 20.3438 4.79319 22.4436 7.80005C23.7349 9.64905 23.5 11.8557 23.256 13.7969C24.2553 13.8564 25.2376 14.2679 26.0011 15.0315C27.6574 16.6877 27.6574 19.373 26.0011 21.0292C25.0632 21.9671 23.741 22.2495 22.5711 22.2495"></path><path d="M13.7635 12.3517C12.9098 11.3049 11.7132 10.5486 10.3451 10.254M20.0034 15.0315C20.8961 14.1388 22.0877 13.7273 23.2561 13.7969"></path></g></svg>