<svg width="48" height="48" viewBox="0 0 28 28" fill="none" xmlns="http://www.w3.org/2000/svg" stroke-width="2" stroke-linecap="round" stroke-linejoin="round" stroke="#ffffff"><path d="M15.5589 17.9552C14.2554 19.7707 12.0408 20.8544 9.65901 20.6041C8.79582 20.5134 7.99056 20.2558 7.27188 19.8668L3.52769 22.4989L5.31043 18.2265C4.29006 16.9514 3.75202 15.2894 3.93623 13.5369C4.23879 10.6584 6.39652 8.42401 9.09652 7.89684"></path><path d="M15.9185 2.77813C20.0071 2.34838 23.6699 5.31441 24.0996 9.40294C24.3128 11.4317 23.69 13.3556 22.5088 14.8317L24.5725 19.7775L20.2382 16.7306C19.4062 17.1808 18.474 17.479 17.4748 17.584C16.5998 17.676 15.7442 17.6124 14.9357 17.4156C11.9665 16.6928 9.63149 14.1727 9.29372 10.9592C9.17739 9.85252 9.30987 8.77702 9.64607 7.78839C10.5519 5.12465 12.9367 3.09156 15.9185 2.77813Z"></path></svg>