<svg width="48" height="48" viewBox="0 0 28 28" fill="none" xmlns="http://www.w3.org/2000/svg" stroke-width="2" stroke-linecap="round" stroke-linejoin="round" stroke="#ffffff"><path d="M7.81383 3.91949H4.48675C4.16099 3.91723 3.83801 3.97944 3.5364 4.10253C3.2348 4.22563 2.96053 4.40718 2.72939 4.63673C2.49824 4.86628 2.3148 5.13929 2.18962 5.44003C2.06444 5.74078 1.99999 6.06332 2 6.38908C2.00453 7.04563 2.26852 7.67374 2.73439 8.13639C3.20025 8.59904 3.83018 8.85868 4.48675 8.85867H6.20174C6.8583 8.85865 7.48822 9.11829 7.95408 9.58094C8.41995 10.0436 8.68394 10.6717 8.68847 11.3283C8.70273 11.6692 8.64666 12.0095 8.52374 12.3279C8.40082 12.6462 8.21367 12.9359 7.97397 13.1788C7.73427 13.4217 7.44715 13.6127 7.13045 13.7398C6.81375 13.867 6.47427 13.9276 6.13314 13.9179H2.53166" fill="none" data-nofill="true"></path><path d="M5.31042 3.85219V2"></path><path d="M5.30995 15.856V14.0896"></path><path d="M13.6198 16.3551C13.1888 15.4931 12.9409 14.5233 12.9409 13.4996C12.9409 9.97602 15.7964 7.12053 19.32 7.12053C20.3652 7.12053 21.3565 7.37914 22.2294 7.82093L18.0916 11.9695L21.141 15.0189L25.1818 10.9674C25.5159 11.7432 25.7098 12.5945 25.7098 13.4996C25.7098 17.0232 22.8543 19.8787 19.3308 19.8787C18.4148 19.8787 17.542 19.6847 16.7554 19.3291L9.89058 26L6.84113 22.9505L13.6198 16.3551Z" stroke-miterlimit="10"></path></svg>