<svg width="48" height="48" viewBox="0 0 28 28" fill="none" xmlns="http://www.w3.org/2000/svg" stroke-width="2" stroke-linecap="round" stroke-linejoin="round" stroke="#ffffff"><path d="M19.6501 14.6921H23.9518C23.8887 12.3445 22.3113 10.3001 20.0372 9.6682L19.1896 9.43278C18.5879 9.26516 18.3591 8.53252 18.7583 8.05226L19.3836 7.29985C20.4515 6.01632 20.3658 4.13011 19.1859 2.94923C17.9231 1.68359 15.873 1.68359 14.6102 2.94923C13.4302 4.13105 13.3455 6.01632 14.4124 7.29985L15.0377 8.05226C15.437 8.53252 15.2082 9.26516 14.6064 9.43278L13.7608 9.6682C12.4735 10.026 11.4207 10.8463 10.7266 11.9075C10.7426 12.2607 10.9724 12.595 11.3547 12.7014L12.2004 12.9368C14.21 13.4962 15.6781 15.1583 16.035 17.1575H19.6482L19.6501 14.6921Z"></path><path d="M10.9254 11.3208L11.5506 10.5684C12.6185 9.28489 12.5328 7.39868 11.3529 6.2178C10.0901 4.95216 8.04002 4.95216 6.77721 6.2178C5.59727 7.39962 5.51251 9.28489 6.57945 10.5684L7.20474 11.3208C7.60401 11.8011 7.37518 12.5337 6.77344 12.7014L5.92592 12.9368C3.60559 13.5818 2 15.695 2 18.1038V20.427H16.1235V18.1001C16.1235 15.6941 14.5198 13.5828 12.2014 12.9368L11.3557 12.7014C10.754 12.5337 10.5251 11.8011 10.9244 11.3208H10.9254Z"></path><path d="M26 25.1949V14.6922H19.6511V25.2005L22.8246 23.9085L26 25.1949Z"></path></svg>