<svg width="48" height="48" viewBox="0 0 28 28" fill="none" xmlns="http://www.w3.org/2000/svg" stroke-width="2" stroke-linecap="round" stroke-linejoin="round" stroke="#ffffff"><g><path d="M25.8173 25.8292L22 22.022M21.476 25.1348L21.464 21.4874L25.115 21.4754" stroke-miterlimit="10"></path><path d="M25.8173 2.17082L21.9881 6M21.476 2.86516L21.464 6.51259L25.115 6.52456" stroke-miterlimit="10"></path><path d="M2.18269 25.8292L5.97493 22.047M6.52398 25.1348L6.53597 21.4874L2.88498 21.4754" stroke-miterlimit="10"></path><path d="M2.18269 2.17082L6 5.97804M6.52398 2.86516L6.53597 6.51259L2.88498 6.52456" stroke-miterlimit="10"></path><path d="M19.8726 12.4064C19.8726 14.6668 17.117 16.4992 13.717 16.4992C10.378 16.4992 7.66682 14.7302 7.5709 12.5256V15.6234C7.5709 17.8838 10.3265 19.7162 13.7266 19.7162C17.1266 19.7162 19.8822 17.8838 19.8822 15.6234C19.8822 15.3443 19.9537 12.6699 19.8735 12.4055L19.8726 12.4064Z"></path><path d="M13.7169 16.4993C17.116 16.4993 19.8725 14.6668 19.8725 12.4065C19.8725 10.1461 17.1169 8.31367 13.7169 8.31367C10.3168 8.31367 7.56121 10.1461 7.56121 12.4065C7.56121 14.6668 10.3168 16.4993 13.7169 16.4993Z"></path></g></svg>