<svg width="48" height="48" viewBox="0 0 28 24" fill="none" xmlns="http://www.w3.org/2000/svg" stroke-width="2" stroke-linecap="round" stroke-linejoin="round" stroke="#ffffff"><path d="M2 3.68604H21.7647"></path><path d="M16.8236 5.80366L16.8236 1.56836"></path><path d="M2 10.0388H12.5882"></path><path d="M6.23505 12.1564L6.23505 7.92114"></path><path d="M2 16.6272H10.4706"></path><path d="M19.2511 20.7851L20.8215 22.53L24.4049 20.4672L23.7194 18.2487L23.9934 17.426L26.5175 16.9923V12.7272L24.2553 12.2099L23.7381 11.3125L24.4548 9.09393L20.8776 7.03116L19.2823 8.74494H18.2664L16.7022 7L13.1189 9.06277L13.8106 11.3187L13.3183 12.1787L11 12.6648V16.8028L13.2996 17.3263L13.7981 18.1863L13.0628 20.4361L16.6461 22.5051L18.2353 20.7851H19.2511Z" stroke-miterlimit="10"></path><path d="M18.765 17.3533C20.1945 17.3533 21.3534 16.1945 21.3534 14.765C21.3534 13.3355 20.1945 12.1766 18.765 12.1766C17.3355 12.1766 16.1767 13.3355 16.1767 14.765C16.1767 16.1945 17.3355 17.3533 18.765 17.3533Z"></path></svg>