<svg width="48" height="48" viewBox="0 0 28 28" fill="none" xmlns="http://www.w3.org/2000/svg" stroke-width="2" stroke-linecap="round" stroke-linejoin="round" stroke="#ffffff"><g><path d="M5.92887 21.9746L8.58764 19.4102M22.0787 5.94148C22.4963 6.36388 23.0756 6.62554 23.716 6.62554C24.9885 6.62554 26.0201 5.59228 26.0201 4.3177C26.0201 3.04312 24.9885 2.00986 23.716 2.00986C22.4435 2.00986 21.4119 3.04312 21.4119 4.3177C21.4119 4.95088 21.6665 5.5245 22.0787 5.94148ZM22.0787 5.94148L22.081 5.9392M22.0787 5.94148L18.4691 9.52873M5.98825 5.96243L7.22554 7.19972L8.11709 8.11709M22.081 21.9746C21.6227 22.3957 21.3354 23.0004 21.3354 23.6724C21.3354 24.9445 22.365 25.9757 23.6351 25.9757C24.9051 25.9757 25.9347 24.9445 25.9347 23.6724C25.9347 22.4003 24.9051 21.3691 23.6351 21.3691C23.0359 21.3691 22.4902 21.5986 22.081 21.9746ZM22.081 21.9746L22.0817 21.9753M22.081 21.9746L19.8807 19.4102M6.65354 23.6695C6.65354 24.9566 5.61181 26 4.32677 26C3.04173 26 2 24.9566 2 23.6695C2 22.3824 3.04173 21.339 4.32677 21.339C5.61181 21.339 6.65354 22.3824 6.65354 23.6695ZM6.65615 4.32511C6.65615 5.60922 5.61684 6.6502 4.33479 6.6502C3.05274 6.6502 2.01343 5.60922 2.01343 4.32511C2.01343 3.04099 3.05274 2.00002 4.33479 2.00002C5.61684 2.00002 6.65615 3.04099 6.65615 4.32511Z"></path><path d="M7.44904 8.62103H12.4695L14.2742 10.191H20.6825V18.8291H7.44904V8.62103Z"></path></g></svg>