<svg width="48" height="48" viewBox="0 0 28 28" fill="none" xmlns="http://www.w3.org/2000/svg" stroke-width="2" stroke-linecap="round" stroke-linejoin="round" stroke="#ffffff"><path d="M17.4073 14.0779C17.4073 12.8246 17.4246 8.15076 17.4355 5.31269C17.4403 4.07636 16.4394 3.07286 15.203 3.07286V3.07286C13.9702 3.07286 12.9708 4.07226 12.9708 5.30509L12.9708 11.4237L12.9707 3.94594C12.9707 2.87123 11.9692 2 10.7339 2C9.49861 2 8.49719 2.87122 8.49719 3.94593L8.49719 11.4237L8.49719 7.09448C8.49719 6.01976 7.47206 5.14854 6.23674 5.14854C5.00142 5.14854 4 6.01976 4 7.09448L4 11.9943L4.00004 15.3687C4.00013 19.1459 7.76403 20.6571 7.76403 20.6571L7.76403 26L16.0785 26L16.0785 20.6571C16.0785 20.6571 17.3382 20.3811 20.3229 18.1508C23.0038 16.1475 23.4183 14.1302 23.4749 13.7403C23.4815 13.6948 23.4831 13.6499 23.4831 13.6038V13.6038C23.4831 11.9579 21.3989 11.1732 20.2377 12.3396C18.791 13.7928 17.4073 14.9538 17.4073 14.0779Z"></path></svg>