<svg width="48" height="48" viewBox="0 0 28 28" fill="none" xmlns="http://www.w3.org/2000/svg" stroke-width="2" stroke-linecap="round" stroke-linejoin="round" stroke="#ffffff"><path d="M21.182 8.77164C20.2215 7.47849 18.9257 6.46269 17.4263 5.83979C15.6073 5.08408 13.5899 4.94877 11.6863 5.4548C9.78259 5.96083 8.09869 7.07999 6.89499 8.63919C5.69129 10.1984 5.03486 12.1108 5.02722 14.0805L5.08337 14.9644M8.45708 12.3279L5.1379 15.7374L1.72839 12.4182" fill="none"></path><path d="M6.78601 19.3839C7.73403 20.6646 9.01094 21.6752 10.4902 22.3024C12.3113 23.0746 14.3367 23.2226 16.2506 22.7233C18.1646 22.224 19.8596 21.1055 21.0714 19.5421C22.2831 17.9787 22.9436 16.0583 22.9498 14.0803L22.9047 13.2071M19.5096 15.7431L22.84 12.4092L26.2383 15.6764" fill="none"></path><path d="M13.8499 10.2246L12.6312 14.0837H15.5425L14.1884 17.9428" fill="none"></path></svg>