<svg width="48" height="48" viewBox="0 0 28 28" fill="none" xmlns="http://www.w3.org/2000/svg" stroke-width="2" stroke-linecap="round" stroke-linejoin="round" stroke="#ffffff"><g><path d="M25.5743 6.69975L16.368 6.69975M15.9292 21.3911L18.6861 17.517M11.6479 21.3911L9.07848 17.7086M9.07848 12.7338L11.4805 9.39406" stroke-miterlimit="10"></path><path d="M25.5737 15.2132L23.1141 15.2132M2 15.2131L4.57076 15.2131M10.4359 15.2132L17.4014 15.2132" stroke-miterlimit="10"></path><path d="M16.1899 4.35102L11.3874 4.35102L11.3874 9.13458L16.1899 9.13458L16.1899 4.35102Z"></path><path d="M11.0675 23.3526C11.0675 24.8554 12.2858 26.0736 13.7886 26.0736C15.2914 26.0736 16.5096 24.8554 16.5096 23.3526C16.5096 21.8498 15.2914 20.6315 13.7886 20.6315C12.2858 20.6315 11.0675 21.8498 11.0675 23.3526Z"></path><path d="M17.5424 15.2134C17.5424 16.7162 18.7606 17.9345 20.2634 17.9345C21.7662 17.9345 22.9845 16.7162 22.9845 15.2134C22.9845 13.7107 21.7662 12.4924 20.2634 12.4924C18.7606 12.4924 17.5424 13.7107 17.5424 15.2134Z"></path><path d="M4.59851 15.2134C4.59851 16.7162 5.81676 17.9345 7.31956 17.9345C8.82235 17.9345 10.0406 16.7162 10.0406 15.2134C10.0406 13.7107 8.82235 12.4924 7.31956 12.4924C5.81676 12.4924 4.59851 13.7107 4.59851 15.2134Z"></path></g></svg>