<svg width="48" height="48" viewBox="0 0 29 29" fill="none" xmlns="http://www.w3.org/2000/svg" stroke-width="2" stroke-linecap="round" stroke-linejoin="round" stroke="#ffffff"><g><path d="M13.2291 20.1446L18.7474 20.1446L18.7474 22.8113L22.3215 22.8113L22.3215 19.0335C23.0583 18.5015 23.5748 17.8561 23.9785 17.0335L26.9898 17.0335L26.9898 13.0335L24.3231 13.0335C23.7308 10.9989 22.0063 9.44662 19.8771 9.10423L19.8771 5.75236C17.4883 5.75236 15.5253 6.25236 15.5253 9.10421L11.2104 9.10421C8.1422 9.10421 5.65489 11.5915 5.65489 14.6598C5.65489 17.188 7.34385 19.3219 9.65498 19.9946L9.65498 22.8113L13.2291 22.8113L13.2291 20.1446Z"></path><path d="M5.65495 14.8113C4.18219 14.8113 2.98828 13.6173 2.98828 12.1446"></path><path d="M10.9884 12.6817H14.9884"></path><path d="M19.9883 12.6816L20.0064 12.6997" stroke-miterlimit="10"></path></g></svg>