<svg width="48" height="48" viewBox="0 0 29 29" fill="none" xmlns="http://www.w3.org/2000/svg" stroke-width="2" stroke-linecap="round" stroke-linejoin="round" stroke="#ffffff"><g><path d="M3 26.749L26.9834 26.749"></path><path d="M6.59839 11.4411L6.59839 26.749"></path><path d="M23.3994 11.4411L23.3994 26.749"></path><path d="M9.01234 11.4411H3.01672V11.2555L15.0024 3L27.0002 11.3521V11.4411H20.9779H9.01234Z"></path><path d="M21.1614 26.0519C21.1614 23.9777 19.7786 22.1585 17.7808 21.603L17.0508 21.3996C16.532 21.2558 16.3346 20.6249 16.6788 20.2113L17.2174 19.5635C18.1369 18.4585 18.0635 16.8346 17.0478 15.8169C15.9606 14.7277 14.1949 14.7277 13.1077 15.8169C12.0919 16.8346 12.0185 18.4585 12.9381 19.5635L13.4767 20.2113C13.8209 20.6249 13.6245 21.2558 13.1057 21.3996L12.3776 21.602C10.3808 22.1575 9 23.9758 9 26.048"></path></g></svg>