<svg width="48" height="48" viewBox="0 0 28 29" fill="none" xmlns="http://www.w3.org/2000/svg" stroke-width="2" stroke-linecap="round" stroke-linejoin="round" stroke="#ffffff"><path d="M14 26.6758C20.6274 26.6758 26 21.3032 26 14.6758C26 8.04836 20.6274 2.67578 14 2.67578C7.37258 2.67578 2 8.04836 2 14.6758C2 21.3032 7.37258 26.6758 14 26.6758Z"></path><path d="M14.0047 19.395C16.6109 19.395 18.7237 17.2823 18.7237 14.676C18.7237 12.0698 16.6109 9.95705 14.0047 9.95705C11.3985 9.95705 9.28571 12.0698 9.28571 14.676C9.28571 17.2823 11.3985 19.395 14.0047 19.395Z" fill="none"></path><path d="M10.8569 3.6758L13.3569 9.6758M17.1426 3.6758L14.6426 9.6758"></path><path d="M17.1427 25.6758L14.6427 19.6758M10.857 25.6758L13.357 19.6758"></path><path d="M24.9997 11.533L18.9997 14.033M24.9997 17.8187L18.9997 15.3187"></path><path d="M2.99988 17.8186L8.99988 15.3187M2.99988 11.5329L8.99988 14.0329"></path></svg>