<svg width="48" height="48" viewBox="0 0 28 28" fill="none" xmlns="http://www.w3.org/2000/svg" stroke-width="2" stroke-linecap="round" stroke-linejoin="round" stroke="#ffffff"><path d="M5 16V12H23V16" fill="none"></path><path d="M14.0335 7.54287C15.5641 7.54287 16.805 6.30206 16.805 4.77144C16.805 3.24081 15.5641 2 14.0335 2C12.5029 2 11.2621 3.24081 11.2621 4.77144C11.2621 6.30206 12.5029 7.54287 14.0335 7.54287Z"></path><path d="M13.9317 25.6754C15.4623 25.6754 16.7031 24.4346 16.7031 22.904C16.7031 21.3734 15.4623 20.1326 13.9317 20.1326C12.401 20.1326 11.1602 21.3734 11.1602 22.904C11.1602 24.4346 12.401 25.6754 13.9317 25.6754Z"></path><path d="M14.0128 7.65308L14.0128 20.1334"></path><path d="M4.77144 21.5152C6.30206 21.5152 7.54287 20.2743 7.54287 18.7437C7.54287 17.2131 6.30206 15.9723 4.77144 15.9723C3.24081 15.9723 2 17.2131 2 18.7437C2 20.2743 3.24081 21.5152 4.77144 21.5152Z"></path><path d="M23.2284 21.5152C24.759 21.5152 25.9998 20.2743 25.9998 18.7437C25.9998 17.2131 24.759 15.9723 23.2284 15.9723C21.6978 15.9723 20.457 17.2131 20.457 18.7437C20.457 20.2743 21.6978 21.5152 23.2284 21.5152Z"></path></svg>