<svg width="48" height="48" viewBox="0 0 28 28" fill="none" xmlns="http://www.w3.org/2000/svg" stroke-width="2" stroke-linecap="round" stroke-linejoin="round" stroke="#ffffff"><path d="M15.4119 7.57826C16.9523 7.57826 18.201 6.32953 18.201 4.78913C18.201 3.24874 16.9523 2 15.4119 2C13.8715 2 12.6228 3.24874 12.6228 4.78913C12.6228 6.32953 13.8715 7.57826 15.4119 7.57826Z"></path><path d="M5.78913 21.4489C7.32953 21.4489 8.57826 20.2002 8.57826 18.6598C8.57826 17.1194 7.32953 15.8706 5.78913 15.8706C4.24874 15.8706 3 17.1194 3 18.6598C3 20.2002 4.24874 21.4489 5.78913 21.4489Z"></path><path d="M21.7582 26C23.2986 26 24.5473 24.7513 24.5473 23.2109C24.5473 21.6705 23.2986 20.4218 21.7582 20.4218C20.2178 20.4218 18.9691 21.6705 18.9691 23.2109C18.9691 24.7513 20.2178 26 21.7582 26Z"></path><path d="M15.4119 17.8724C16.9523 17.8724 18.201 16.6237 18.201 15.0833C18.201 13.5429 16.9523 12.2941 15.4119 12.2941C13.8715 12.2941 12.6228 13.5429 12.6228 15.0833C12.6228 16.6237 13.8715 17.8724 15.4119 17.8724Z"></path><path d="M12.1823 16.2561L9 17.4465"></path><path d="M17.5 17.7715L19.6315 20.5"></path><path d="M15.4113 11.5L15.4113 8.5"></path></svg>