<svg width="48" height="48" viewBox="0 0 28 29" fill="none" xmlns="http://www.w3.org/2000/svg" stroke-width="2" stroke-linecap="round" stroke-linejoin="round" stroke="#ffffff"><path d="M2.00011 16.7242C2.00011 22.0367 6.30674 26.3433 11.6192 26.3433C16.9317 26.3433 21.2383 22.0367 21.2383 16.7242C21.2383 11.4117 16.9317 7.1051 11.6192 7.1051C6.30673 7.1051 2.00011 11.4117 2.00011 16.7242Z"></path><path d="M6.18213 16.724C6.18213 19.7267 8.61631 22.1609 11.619 22.1609C14.6217 22.1609 17.0559 19.7267 17.0559 16.724C17.0559 13.7213 14.6217 11.2871 11.619 11.2871C8.6163 11.2871 6.18213 13.7213 6.18213 16.724Z"></path><path d="M12.0376 16.5693L19.8289 8.77795"></path><path d="M22.5962 3L19.7678 5.82842V9.36396H23.3033L26.1317 6.53553L22.9497 6.18198L22.5962 3Z"></path><path d="M10.3645 16.724C10.3645 17.417 10.9262 17.9787 11.6192 17.9787C12.3121 17.9787 12.8738 17.417 12.8738 16.724C12.8738 16.0311 12.3121 15.4694 11.6192 15.4694C10.9262 15.4694 10.3645 16.0311 10.3645 16.724Z"></path></svg>