<svg width="48" height="48" viewBox="0 0 28 28" fill="none" xmlns="http://www.w3.org/2000/svg" stroke-width="2" stroke-linecap="round" stroke-linejoin="round" stroke="#ffffff"><path d="M6.38416 5.05048V9.32685C6.38416 12.7262 8.11105 15.8928 10.9688 17.7336L13.4887 19.3569L16.1077 17.6691C18.9644 15.828 20.6905 12.662 20.6905 9.26342V5.05048L13.5341 2.43164L6.38416 5.05048Z"></path><path d="M11.0864 10.8108L13.2208 13.1803L17.1326 8.47766"></path><path d="M13.5411 22.9513V21.8663L13.5411 19.3029M12.5304 23.3763C13.0934 22.8133 14.0055 22.8126 14.5677 23.3747C15.1298 23.9368 15.1291 24.849 14.5661 25.412C14.003 25.9751 13.0909 25.9758 12.5287 25.4137C11.9666 24.8515 11.9673 23.9394 12.5304 23.3763Z"></path><path d="M19.9885 20.4934L19.9885 17.8104L18.7251 16.5693M21.0037 20.9203C20.4382 20.3548 19.522 20.3541 18.9574 20.9187C18.3928 21.4833 18.3935 22.3995 18.959 22.965C19.5246 23.5306 20.4408 23.5313 21.0054 22.9667C21.57 22.402 21.5693 21.4859 21.0037 20.9203Z"></path><path d="M7.08645 20.4934L7.08645 17.8104L8.49101 16.4306M6.07122 20.9203C6.63675 20.3548 7.55293 20.3541 8.11755 20.9187C8.68218 21.4833 8.68144 22.3995 8.11591 22.965C7.55037 23.5306 6.6342 23.5313 6.06957 22.9667C5.50495 22.402 5.50568 21.4859 6.07122 20.9203Z"></path></svg>