<svg width="48" height="48" viewBox="0 0 28 28" fill="none" xmlns="http://www.w3.org/2000/svg" stroke-width="2" stroke-linecap="round" stroke-linejoin="round" stroke="#ffffff"><path d="M13.8063 10.2429C15.1482 10.2429 20.8017 10.224 24.0544 10.2127C25.3424 10.2082 26.3854 11.251 26.3854 12.539V12.539C26.3854 13.8236 25.3439 14.8651 24.0593 14.8651L15.8327 14.8651L18.4876 14.8652C19.6072 14.8652 20.5149 15.9086 20.5149 17.1956C20.5149 18.4826 19.6072 19.5259 18.4876 19.5259L15.8327 19.5259L17.3597 19.5259C18.4794 19.5259 19.387 20.5939 19.387 21.8809C19.387 23.1679 18.4794 24.2112 17.3597 24.2112L15.2382 24.2112L12.4615 24.2112C8.52621 24.2111 6.95186 20.0641 6.95186 20.0641L1.38538 20.0641L1.38538 11.3893L6.95186 11.3893C6.95186 11.3893 7.49398 9.97422 9.56296 7.2054C11.4093 4.73458 13.1113 4.36533 13.4562 4.31447C13.4992 4.30813 13.5415 4.30683 13.5849 4.30683V4.30683C15.3328 4.30683 16.1822 6.50551 14.9953 7.78866C13.7981 9.08303 12.961 10.2429 13.8063 10.2429Z"></path></svg>