<svg width="48" height="48" viewBox="0 0 28 29" fill="none" xmlns="http://www.w3.org/2000/svg" stroke-width="2" stroke-linecap="round" stroke-linejoin="round" stroke="#ffffff"><path d="M2 7.13977H5M26 7.13977H23M11 7.13977H17.2523"></path><path d="M2 14.854H11M26 14.854H17"></path><path d="M2 22.854H5.42397M26 22.854H22.5M17.3319 22.854H10.5"></path><path d="M17.4287 7.09099C17.4287 8.4842 18.5581 9.61362 19.9513 9.61362C21.3445 9.61362 22.4739 8.4842 22.4739 7.09099C22.4739 5.69778 21.3445 4.56836 19.9513 4.56836C18.5581 4.56836 17.4287 5.69778 17.4287 7.09099Z"></path><path d="M5.42868 7.09099C5.42868 8.4842 6.5581 9.61362 7.95131 9.61362C9.34452 9.61362 10.4739 8.4842 10.4739 7.09099C10.4739 5.69778 9.34452 4.56836 7.95131 4.56836C6.5581 4.56836 5.42868 5.69778 5.42868 7.09099Z"></path><path d="M17.4287 22.5196C17.4287 23.9128 18.5581 25.0422 19.9513 25.0422C21.3445 25.0422 22.4739 23.9128 22.4739 22.5196C22.4739 21.1264 21.3445 19.9969 19.9513 19.9969C18.5581 19.9969 17.4287 21.1264 17.4287 22.5196Z"></path><path d="M5.42868 22.5196C5.42868 23.9128 6.5581 25.0422 7.95131 25.0422C9.34452 25.0422 10.4739 23.9128 10.4739 22.5196C10.4739 21.1264 9.34452 19.9969 7.95131 19.9969C6.5581 19.9969 5.42868 21.1264 5.42868 22.5196Z"></path><path d="M11.4287 14.8052C11.4287 16.1984 12.5581 17.3279 13.9513 17.3279C15.3445 17.3279 16.4739 16.1984 16.4739 14.8052C16.4739 13.412 15.3445 12.2826 13.9513 12.2826C12.5581 12.2826 11.4287 13.412 11.4287 14.8052Z"></path></svg>