<svg width="48" height="48" viewBox="0 0 29 29" fill="none" xmlns="http://www.w3.org/2000/svg" stroke-width="2" stroke-linecap="round" stroke-linejoin="round" stroke="#ffffff"><g><path d="M10.3184 5.13758C12.0523 3.21126 14.5652 2 17.3609 2C22.5922 2 26.8335 6.24131 26.8335 11.4726C26.8335 14.357 25.5398 16.9361 23.5065 18.6732C24.1455 20.145 25.3371 21.6183 25.9903 23.0838H21.497"></path><path d="M7.32699 21.5893H19.6183C21.6516 19.8522 22.9453 17.2732 22.9453 14.3888C22.9453 9.15744 18.704 4.91614 13.4726 4.91614C8.24131 4.91614 4 9.15744 4 14.3888C4 17.2732 5.29369 19.8514 7.32699 21.5893V21.5893Z"></path><path d="M18.3513 13.6518C18.3513 13.0895 18.1221 12.5515 17.7167 12.162L16.5722 11.0622C16.1884 10.6921 15.7371 10.4006 15.2433 10.2039C14.2368 9.80931 13.1205 9.80931 12.114 10.2039C11.6304 10.4039 11.1891 10.6952 10.8136 11.0622L9.63096 12.1719C9.22312 12.5546 8.99176 13.089 8.99176 13.6482V13.6482C8.99176 14.1904 9.2092 14.7098 9.59538 15.0903L10.7708 16.2484C11.3613 16.7985 12.093 17.1699 12.8826 17.3204C13.6721 17.4709 14.4877 17.3944 15.2362 17.0995C15.7282 16.9027 16.1791 16.6139 16.5651 16.2484L17.7168 15.1414C18.1222 14.7518 18.3513 14.2139 18.3513 13.6518V13.6518Z"></path><path d="M13.6973 13.6776L13.6714 13.6517" stroke-miterlimit="10"></path><path d="M20.1742 21.5894H6.77142C6.23114 22.8337 4.85297 26 4.85297 26H22.1021C21.4489 24.5344 20.8132 23.0611 20.1742 21.5894Z"></path></g></svg>