<svg width="48" height="48" viewBox="0 0 28 29" fill="none" xmlns="http://www.w3.org/2000/svg" stroke-width="2" stroke-linecap="round" stroke-linejoin="round" stroke="#ffffff"><path d="M7.8457 19.5327C8.01694 20.633 8.56691 21.6449 9.4082 22.3895C10.3604 23.2321 11.5002 23.5904 12.8786 23.5904H15.8779C16.4687 23.5919 17.0541 23.4799 17.6002 23.2608C18.1464 23.0416 18.6427 22.7197 19.0605 22.3134C19.4783 21.9072 19.8094 21.4247 20.0348 20.8936C20.2601 20.3625 20.3754 19.7934 20.3738 19.2189C20.3738 18.6449 20.2572 18.0765 20.0308 17.5464C19.8043 17.0163 19.4724 16.5349 19.0541 16.1298C18.6358 15.7247 18.1394 15.404 17.5933 15.1859C17.0472 14.9678 16.4622 14.8567 15.8719 14.859H12.8786C11.6909 14.856 10.5528 14.3954 9.71355 13.5783C8.87428 12.7612 8.40218 11.654 8.4006 10.4992V10.4468C8.40218 9.29195 8.87428 8.18477 9.71355 7.36764C10.5528 6.55051 11.6909 6.08999 12.8786 6.08691H15.4004C16.5 6.08691 18.0129 6.48212 18.9537 7.33758C19.4302 7.77089 19.8097 8.29077 20.0764 8.86328M14 6.10519V3M14 26.6956V23.5904" fill="none" data-nofill="true"></path></svg>