<svg width="48" height="48" viewBox="0 0 28 28" fill="none" xmlns="http://www.w3.org/2000/svg" stroke-width="2" stroke-linecap="round" stroke-linejoin="round" stroke="#ffffff"><path d="M14.4059 21.6734C8.10701 21.6734 3 18.7439 3 14.5446V18.8713C3 23.0706 8.10701 26 14.4059 26C20.7049 26 25.8119 23.0706 25.8119 18.8713V14.5456C25.8119 18.7449 20.7049 21.6734 14.4059 21.6734Z"></path><path d="M14.4268 17.2079C20.7257 17.2079 25.8328 13.8032 25.8328 9.60396C25.8328 5.40467 20.7257 2 14.4268 2C8.12788 2 3.02087 5.40467 3.02087 9.60396C3.02087 13.8032 8.12788 17.2079 14.4268 17.2079Z"></path><path d="M14.4268 17.2079C8.45295 17.2079 3.5598 14.1445 3.06935 10.2465H3.02087V14.5447C3.02087 18.7439 8.12788 21.6734 14.4268 21.6734C20.7257 21.6734 25.8328 18.7439 25.8328 14.5447V10.2465H25.7843C25.2938 14.1445 20.4007 17.2079 14.4268 17.2079Z"></path><path d="M10.6013 12.099L16.3042 8.29703"></path><path d="M13.4526 6.42194L18.0414 9.24751L19.1556 8.58527L16.5364 7.00225L13.47 6.39603L13.4526 6.42194Z"></path></svg>