<svg width="48" height="48" viewBox="0 0 28 28" fill="none" xmlns="http://www.w3.org/2000/svg" stroke-width="2" stroke-linecap="round" stroke-linejoin="round" stroke="#ffffff"><path d="M9.63636 21C9.63636 21 11.2727 22.0909 14 22.0909M24.9091 18.2727C24.9091 22.4902 20.0249 25.9091 14 25.9091C7.97508 25.9091 3.09091 22.4902 3.09091 18.2727C3.09091 17.7581 3.16363 17.2554 3.30227 16.7693L3.09091 16.6366C2.42848 16.139 2 15.3468 2 14.4545C2 12.9483 3.22104 11.7273 4.72727 11.7273C5.48668 11.7273 6.17359 12.0376 6.66808 12.5385L6.70692 12.5936C8.63936 11.3768 11.1962 10.6364 14 10.6364C16.7996 10.6364 19.3528 11.3745 21.2842 12.588C21.7817 12.0582 22.4886 11.7273 23.2727 11.7273C24.779 11.7273 26 12.9483 26 14.4545C26 15.4373 25.4801 16.2987 24.7004 16.7787C24.8373 17.2619 24.9091 17.7614 24.9091 18.2727Z"></path><path d="M14 22.0909C16.7273 22.0909 18.3636 21 18.3636 21"></path><path d="M22.1818 6.27273C23.0856 6.27273 23.8182 5.5401 23.8182 4.63636C23.8182 3.73263 23.0856 3 22.1818 3C21.2781 3 20.5455 3.73263 20.5455 4.63636C20.5455 5.5401 21.2781 6.27273 22.1818 6.27273Z"></path><path d="M14 10.6364L15.6364 3.54544L20.5455 4.63635" fill="none"></path><path d="M10.0002 16.3333L10.0222 16.3553" stroke-miterlimit="10"></path><path d="M18.0001 16.3333L18.0221 16.3553" stroke-miterlimit="10"></path></svg>