<svg width="48" height="48" viewBox="0 0 28 29" fill="none" xmlns="http://www.w3.org/2000/svg" stroke-width="2" stroke-linecap="round" stroke-linejoin="round" stroke="#ffffff"><path d="M12.1408 12.0528L10.4136 11.6793L8.2547 8.10168L6.10812 11.6793L2 12.5922L4.78809 15.7134L4.40566 19.8586L8.26704 18.2054L10.2039 19.0258" stroke-miterlimit="10"></path><path d="M16.0756 12.0152L17.5866 11.6794L19.7332 8.10181L21.8921 11.6794L26.0002 12.5677L23.2245 15.7012L23.6193 19.8463L19.7455 18.2056L17.8149 19.0321" stroke-miterlimit="10"></path><path d="M20.2609 13.611L17.4851 16.7445L17.8799 20.8897L14.0062 19.2489L10.1448 20.902L10.5272 16.7569L7.73914 13.6357L11.8473 12.7228L13.9938 9.14514L16.1528 12.7228L20.2609 13.611Z" stroke-miterlimit="10"></path></svg>