<svg width="48" height="48" viewBox="0 0 28 28" fill="none" xmlns="http://www.w3.org/2000/svg" stroke-width="2" stroke-linecap="round" stroke-linejoin="round" stroke="#ffffff"><g><path d="M14 26L14.0001 22.8711M14.0001 5.12893L14.0001 2"></path><path d="M1.99999 14L5.12892 14.0001M22.8711 14.0001L26 14.0001"></path><path d="M14.0043 22.7311C18.7503 22.7311 22.5976 18.8837 22.5976 14.1378C22.5976 9.39189 18.7503 5.54456 14.0043 5.54456C9.25842 5.54456 5.41109 9.39189 5.41109 14.1378C5.41109 18.8837 9.25842 22.7311 14.0043 22.7311Z"></path><path d="M11.9876 13.1907L11.9876 11.6747C11.9876 11.1408 12.1997 10.6288 12.5772 10.2513C12.9547 9.87382 13.4667 9.66174 14.0005 9.66174C14.5331 9.6638 15.0431 9.87679 15.4189 10.2541C15.7947 10.6313 16.0057 11.1422 16.0057 11.6747V13.1907"></path><path d="M17.2103 13.3083H10.7906V17.6772H17.2103V13.3083Z"></path></g></svg>