<svg width="48" height="48" viewBox="0 0 28 28" fill="none" xmlns="http://www.w3.org/2000/svg" stroke-width="2" stroke-linecap="round" stroke-linejoin="round" stroke="#ffffff"><path d="M3.35229 5.23344V14.2632C3.35229 17.6625 5.07919 20.8291 7.93697 22.67L13.9277 26.529L20.065 22.5737C22.9217 20.7326 24.6478 17.5667 24.6478 14.1681V5.23344L13.9952 1.33521L3.35229 5.23344Z"></path><path d="M11.2649 12.4983V11.1572C11.2649 10.4318 11.553 9.73611 12.066 9.22319C12.5789 8.71027 13.2746 8.42212 13.9999 8.42212C14.7235 8.42491 15.4164 8.7143 15.9271 9.22691C16.4377 9.73953 16.7244 10.4336 16.7244 11.1572V12.4983"></path><path d="M18.3612 12.4983H9.63867V18H18.3612V12.4983Z"></path></svg>