<svg width="48" height="48" viewBox="0 0 29 29" fill="none" xmlns="http://www.w3.org/2000/svg" stroke-width="2" stroke-linecap="round" stroke-linejoin="round" stroke="#ffffff"><g><path d="M16.5769 6.74188L16.9633 6.24627C17.686 5.31907 17.6009 3.99783 16.7652 3.17099C15.8613 2.27664 14.4059 2.27666 13.5019 3.171C12.6663 3.99784 12.5812 5.31907 13.3038 6.24628L13.6901 6.74177C13.9538 7.0801 13.7917 7.57778 13.3793 7.69593L12.8267 7.85426C11.2285 8.31215 10.127 9.77348 10.127 11.436V13.1056H20.1361V11.4332C20.1361 9.77209 19.0358 8.31197 17.4391 7.85417L16.8876 7.69606C16.4753 7.57784 16.3132 7.08018 16.5769 6.74188Z"></path><path d="M23.2969 20.1929L23.6832 19.6973C24.406 18.7701 24.3209 17.4489 23.4852 16.622C22.5813 15.7277 21.1258 15.7277 20.2219 16.6221C19.3862 17.4489 19.3011 18.7701 20.0238 19.6973L20.41 20.1928C20.6737 20.5311 20.5116 21.0288 20.0993 21.147L19.5466 21.3053C17.9484 21.7632 16.847 23.2245 16.847 24.887V26.5567H26.8561V24.8842C26.8561 23.2231 25.7558 21.763 24.159 21.3052L23.6075 21.1471C23.1952 21.0289 23.0332 20.5312 23.2969 20.1929Z"></path><path d="M9.84585 20.1929L10.2322 19.6973C10.9549 18.7701 10.8698 17.4489 10.0341 16.622C9.13021 15.7277 7.67479 15.7277 6.77087 16.6221C5.93519 17.4489 5.85007 18.7701 6.57277 19.6973L6.95898 20.1928C7.22268 20.5311 7.06059 21.0288 6.64823 21.147L6.09557 21.3053C4.49737 21.7632 3.39592 23.2245 3.39592 24.887V26.5567H13.405V24.8842C13.405 23.2231 12.3047 21.763 10.708 21.3052L10.1565 21.1471C9.74418 21.0289 9.58216 20.5312 9.84585 20.1929Z"></path><path d="M14.93 17.2586L19.4675 20.3067M10.5389 20.2033L14.9224 17.2586V13.1639" fill="none" data-nofill="true"></path></g></svg>