<svg width="48" height="48" viewBox="0 0 29 29" fill="none" xmlns="http://www.w3.org/2000/svg" stroke-width="2" stroke-linecap="round" stroke-linejoin="round" stroke="#ffffff"><path d="M16.782 17.1763L17.4326 16.4065C18.6193 15.0022 18.5248 12.9209 17.2157 11.6299C15.8456 10.2789 13.6445 10.2789 12.2744 11.6299C10.9653 12.9209 10.8707 15.0022 12.0575 16.4065L12.7079 17.1762C13.1425 17.6904 12.8968 18.4818 12.2474 18.6596L11.2907 18.9214C8.75691 19.615 6.99997 21.9175 6.99997 24.5445V27H22.4838V24.5401C22.4838 21.9154 20.7286 19.6147 18.1971 18.9213L17.2424 18.6598C16.5931 18.4819 16.3475 17.6905 16.782 17.1763Z"></path><path d="M18.9113 5.70968C18.9113 5.7294 18.8629 6.08376 18.015 6.50767C17.242 6.8942 16.0865 7.16935 14.742 7.16935C13.3974 7.16935 12.242 6.8942 11.4689 6.50767C10.6211 6.08376 10.5726 5.7294 10.5726 5.70968C10.5726 5.68995 10.6211 5.33559 11.4689 4.91168C12.242 4.52515 13.3974 4.25 14.742 4.25C16.0865 4.25 17.242 4.52515 18.015 4.91168C18.8629 5.33559 18.9113 5.68995 18.9113 5.70968Z"></path></svg>