<svg width="48" height="48" viewBox="0 0 29 29" fill="none" xmlns="http://www.w3.org/2000/svg" stroke-width="2" stroke-linecap="round" stroke-linejoin="round" stroke="#ffffff"><path d="M16.1323 11.7257L23.2294 11.7257C24.588 11.7257 25.6894 12.827 25.6894 14.1856C25.6894 15.5442 24.588 16.6456 23.2294 16.6456L22.2143 16.6456L23.8862 16.6458C25.0364 16.6458 25.9687 17.7471 25.9687 19.1057C25.9687 20.4643 25.0364 21.5657 23.8862 21.5657L21.7799 21.5657C22.93 21.5657 23.8266 22.4939 23.8266 24.0517C23.8266 25.4103 22.4956 26.5117 21.3455 26.5117L18.9578 26.5117L15.3464 26.5117C11.304 26.5116 9.6868 22.372 9.6868 22.372L3.96875 22.372L3.96875 13.2277L9.6868 13.1857C9.6868 13.1857 12.13 7.90225 14.1395 3.69067C14.71 2.4951 16.1579 2.01692 17.3327 2.62891C18.3871 3.17815 18.8661 4.42765 18.4491 5.54096L16.1323 11.7257Z"></path></svg>