<svg width="48" height="48" viewBox="0 0 28 28" fill="none" xmlns="http://www.w3.org/2000/svg" stroke-width="2" stroke-linecap="round" stroke-linejoin="round" stroke="#ffffff"><path d="M18.6909 4C16.0399 4 13.8909 6.2207 13.8909 8.96006C13.8909 9.34783 13.934 9.7252 14.0154 10.0874C14.0154 10.0874 10.463 9.63442 8.43636 8.62188C6.40973 7.60934 3.63636 4.90183 3.63636 4.90183C3.63636 4.90183 2.76727 6.3673 3.2 8.28369C3.63273 10.2001 5.16364 11.6656 5.16364 11.6656L2.98182 10.9892C2.98182 10.9892 3.09091 12.7414 4.18182 14.1456C5.27273 15.5497 6.90909 16.062 6.90909 16.062L4.72727 16.1747C4.72727 16.1747 5.38182 17.7589 6.58182 18.6547C7.78182 19.5506 9.30909 19.6693 9.30909 19.6693C9.30909 19.6693 7.54009 20.9234 6.25455 21.3602C4.6679 21.8994 2 21.8111 2 21.8111C2 21.8111 11.9273 27.0927 18.0364 21.2475C24.1455 15.4023 23.4909 8.96006 23.4909 8.96006C23.4909 8.96006 24.4192 8.36106 24.9091 7.83278C25.399 7.3045 26 6.25458 26 6.25458C26 6.25458 25.2234 6.64213 24.6909 6.81822C24.1584 6.99431 23.2727 7.1564 23.2727 7.1564C23.2727 7.1564 24.068 6.35395 24.4727 5.80366C24.8775 5.25337 25.3455 4.33819 25.3455 4.33819C25.3455 4.33819 24.2643 4.89081 23.6 5.12729C22.9948 5.34272 22.0973 5.46547 22.0973 5.46547C21.2277 4.56042 20.0226 4 18.6909 4Z"></path></svg>