<svg width="48" height="48" viewBox="0 0 28 28" fill="none" xmlns="http://www.w3.org/2000/svg" stroke-width="2" stroke-linecap="round" stroke-linejoin="round" stroke="#ffffff"><path d="M19.665 24.771H2V21.588C2 18.288 4.20059 15.3916 7.37984 14.5072L8.54142 14.1848C9.3664 13.9557 9.68037 12.9516 9.13258 12.2934L8.27554 11.2629C6.81225 9.50359 6.92916 6.92021 8.54613 5.30041C10.2772 3.56653 13.0859 3.56653 14.817 5.30041C16.433 6.92021 16.5508 9.50359 15.0876 11.2629L14.173 12.3623C13.6365 13.0072 13.9109 13.9896 14.7038 14.263L16.4703 14.7928"></path><path d="M26 19.2449C26 20.711 25.4173 22.1177 24.3811 23.1539C23.344 24.191 21.9382 24.7728 20.4721 24.7728C19.006 24.7728 17.5993 24.1901 16.5631 23.1539C15.526 22.1168 14.9433 20.711 14.9433 19.2449C14.9433 17.7788 15.526 16.3721 16.5631 15.3359C17.6002 14.2988 19.006 13.717 20.4721 13.717C21.9382 13.717 23.3449 14.2997 24.3811 15.3359C25.4182 16.373 26 17.7788 26 19.2449Z" stroke-miterlimit="10"></path><path d="M22.259 17.9769L19.7834 20.6706L18.4628 19.3491"></path></svg>