<svg width="48" height="48" viewBox="0 0 28 28" fill="none" xmlns="http://www.w3.org/2000/svg" stroke-width="2" stroke-linecap="round" stroke-linejoin="round" stroke="#ffffff"><path d="M11.1211 5.47856L11.1211 4.45884V4.45884C11.1211 3.10099 12.2218 2.00024 13.5797 2.00024V2.00024C14.9375 2.00024 16.0383 3.10099 16.0383 4.45884V4.45884L16.0383 5.47856" fill="none"></path><path d="M18.3618 5.48004H8.79722V12.4361H18.3618V5.48004Z"></path><path d="M8.01595 19.1049L8.00957 19.1065V19.1918C8.01117 19.1631 8.01356 19.1336 8.01595 19.1049Z"></path><path d="M19.2526 19.301C19.2526 21.3726 16.7339 23.052 13.6262 23.052C10.5743 23.052 8.09627 21.4308 8.00859 19.4102V22.2493C8.00859 24.3209 10.5273 26.0003 13.635 26.0003C16.7427 26.0003 19.2614 24.3209 19.2614 22.2493C19.2614 21.9935 19.3267 19.5425 19.2534 19.3002L19.2526 19.301Z"></path><path d="M13.6264 23.052C16.7333 23.052 19.2528 21.3726 19.2528 19.301C19.2528 17.2295 16.7341 15.5501 13.6264 15.5501C10.5187 15.5501 8 17.2295 8 19.301C8 21.3726 10.5187 23.052 13.6264 23.052Z"></path></svg>