<svg width="48" height="48" viewBox="0 0 28 28" fill="none" xmlns="http://www.w3.org/2000/svg" stroke-width="2" stroke-linecap="round" stroke-linejoin="round" stroke="#ffffff"><g><path d="M13.9999 1.27868C21.0256 1.27868 26.7211 6.97413 26.7211 13.9998C26.7211 21.0255 21.0256 26.7209 13.9999 26.7209C6.97425 26.7209 1.27881 21.0255 1.27881 13.9998C1.27881 6.97413 6.97425 1.27868 13.9999 1.27868Z"></path><path d="M6 11.1799L7.39339 17.5405H7.48107L10.1802 11.1799H10.2482L12.967 17.5405H13.022L14.3604 11.1799"></path><path d="M19.3003 14.18C20.1785 14.18 20.8905 14.8919 20.8905 15.7701C20.8905 16.6483 20.1785 17.3602 19.3003 17.3602H18.2402M19.3003 14.18C20.1785 14.18 20.8905 13.468 20.8905 12.5898C20.8905 11.7116 20.1785 10.9996 19.3003 10.9996H18.2402M19.3003 14.18H19.0984"></path></g></svg>