<svg width="48" height="48" viewBox="0 0 28 28" fill="none" xmlns="http://www.w3.org/2000/svg" stroke-width="2" stroke-linecap="round" stroke-linejoin="round" stroke="#ffffff"><g><circle cx="14.0003" cy="23.6787" r="1.83075"></circle><path d="M8.40405 18.0865C9.08223 17.2586 9.93545 16.5912 10.9024 16.1325C11.8693 15.6737 12.9258 15.4348 13.996 15.4332C15.0663 15.4315 16.1236 15.667 17.0919 16.1228C18.0602 16.5786 18.9155 17.2432 19.5963 18.069" stroke-miterlimit="10" fill="none" data-nofill="true"></path><path d="M5.18091 13.7426C6.98148 11.3968 10.2637 9.82629 14.0138 9.82629C17.7453 9.82629 21.0134 11.3814 22.8198 13.7087" fill="none" data-nofill="true"></path><path d="M2 9.56293C3.47594 7.81883 5.31446 6.41758 7.38743 5.45683C9.4604 4.49607 11.718 3.99894 14.0027 4.00006C16.2875 4.00119 18.5446 4.50055 20.6166 5.46335C22.6886 6.42614 24.5258 7.82921 26 9.57476" fill="none" data-nofill="true"></path><path d="M2.99982 2L24.9998 26" fill="none" data-nofill="true"></path></g></svg>