<svg version="1.1" viewBox="0.0 0.0 960.0 540.0" fill="none" stroke="none" stroke-linecap="square" stroke-miterlimit="10" xmlns:xlink="http://www.w3.org/1999/xlink" xmlns="http://www.w3.org/2000/svg"><clipPath id="g238092da423_0_67.0"><path d="m0 0l960.0 0l0 540.0l-960.0 0l0 -540.0z" clip-rule="nonzero"/></clipPath><g clip-path="url(#g238092da423_0_67.0)"><path fill="#000000" fill-opacity="0.0" d="m0 0l960.0 0l0 540.0l-960.0 0z" fill-rule="evenodd"/><path fill="#000000" fill-opacity="0.0" d="m334.5748 159.43076l0 0c0 -8.520721 6.9074097 -15.428131 15.428131 -15.428131l214.75006 0c4.091797 0 8.015991 1.6254578 10.909302 4.518799c2.8933716 2.8933258 4.518799 6.8175354 4.518799 10.909332l0 61.710663c0 8.520721 -6.9074097 15.428131 -15.428101 15.428131l-214.75006 0l0 0c-8.520721 0 -15.428131 -6.9074097 -15.428131 -15.428131z" fill-rule="evenodd"/><path stroke="#ff00ff" stroke-width="3.0" stroke-linejoin="round" stroke-linecap="butt" d="m334.5748 159.43076l0 0c0 -8.520721 6.9074097 -15.428131 15.428131 -15.428131l214.75006 0c4.091797 0 8.015991 1.6254578 10.909302 4.518799c2.8933716 2.8933258 4.518799 6.8175354 4.518799 10.909332l0 61.710663c0 8.520721 -6.9074097 15.428131 -15.428101 15.428131l-214.75006 0l0 0c-8.520721 0 -15.428131 -6.9074097 -15.428131 -15.428131z" fill-rule="evenodd"/><path fill="#ff00ff" d="m353.04666 197.20609l1.28125 0l4.015625 -9.859375l-1.71875 0l-2.765625 7.4375l-0.15625 0.609375l-0.15625 -0.609375l-2.828125 -7.4375l-1.734375 0l4.0625 9.859375zm14.304962 0l1.75 0l0 -0.140625q-0.15625 -0.421875 -0.25 -0.96875q-0.09375 -0.546875 -0.09375 -1.046875l0 -4.578125q0 -0.828125 -0.296875 -1.4375q-0.296875 -0.625 -0.8125 -1.046875q-0.53125 -0.40625 -1.25 -0.609375q-0.71875 -0.203125 -1.5625 -0.203125q-0.921875 0 -1.65625 0.25q-0.71875 0.25 -1.21875 0.65625q-0.5 0.421875 -0.78125 0.953125q-0.265625 0.515625 -0.265625 1.046875l1.6875 0q0 -0.3125 0.140625 -0.59375q0.15625 -0.28125 0.4375 -0.5q0.265625 -0.203125 0.65625 -0.328125q0.40625 -0.140625 0.90625 -0.140625q0.546875 0 0.96875 0.140625q0.4375 0.140625 0.734375 0.390625q0.296875 0.25 0.453125 0.609375q0.171875 0.34375 0.171875 0.796875l0 0.78125l-1.828125 0q-1.03125 0 -1.875 0.203125q-0.828125 0.1875 -1.421875 0.59375q-0.59375 0.40625 -0.921875 1.015625q-0.3125 0.609375 -0.3125 1.421875q0 0.625 0.234375 1.15625q0.25 0.53125 0.6875 0.90625q0.4375 0.40625 1.0625 0.640625q0.640625 0.21875 1.4375 0.21875q0.46875 0 0.890625 -0.109375q0.4375 -0.09375 0.828125 -0.265625q0.375 -0.171875 0.6875 -0.390625q0.3125 -0.234375 0.5625 -0.5q0.03125 0.3125 0.09375 0.609375q0.0625 0.28125 0.15625 0.46875zm-2.984375 -1.28125q-0.484375 0 -0.859375 -0.125q-0.375 -0.140625 -0.625 -0.359375q-0.234375 -0.21875 -0.359375 -0.53125q-0.125 -0.3125 -0.125 -0.671875q0 -0.390625 0.140625 -0.6875q0.140625 -0.296875 0.40625 -0.515625q0.390625 -0.3125 1.03125 -0.453125q0.65625 -0.15625 1.53125 -0.15625l1.5625 0l0 2.0q-0.140625 0.28125 -0.40625 0.5625q-0.25 0.265625 -0.59375 0.46875q-0.34375 0.203125 -0.78125 0.34375q-0.421875 0.125 -0.921875 0.125zm7.9611816 -12.71875l0 1.46875l3.359375 0l0 11.078125l-3.359375 0l0 1.453125l8.265625 0l0 -1.453125l-3.21875 0l0 -12.546875l-5.046875 0zm11.195587 4.140625l0 1.46875l3.359375 0l0 6.9375l-3.359375 0l0 1.453125l8.265625 0l0 -1.453125l-3.21875 0l0 -8.40625l-5.046875 0zm3.140625 -2.578125q0 0.40625 0.25 0.6875q0.25 0.265625 0.765625 0.265625q0.5 0 0.75 -0.265625q0.25 -0.28125 0.25 -0.6875q0 -0.234375 -0.078125 -0.421875q-0.0625 -0.1875 -0.203125 -0.328125q-0.125 -0.109375 -0.3125 -0.171875q-0.171875 -0.078125 -0.40625 -0.078125q-0.25 0 -0.4375 0.078125q-0.171875 0.0625 -0.296875 0.171875q-0.140625 0.140625 -0.21875 0.34375q-0.0625 0.1875 -0.0625 0.40625zm7.4768066 7.421875l0 0.203125q0 1.046875 0.28125 1.96875q0.28125 0.90625 0.796875 1.59375q0.5 0.671875 1.21875 1.0625q0.734375 0.375 1.625 0.375q0.921875 0 1.59375 -0.3125q0.6875 -0.3125 1.1875 -0.90625l0.0625 1.03125l1.546875 0l0 -14.0l-1.6875 0l0 5.125q-0.46875 -0.578125 -1.140625 -0.859375q-0.65625 -0.296875 -1.546875 -0.296875q-0.890625 0 -1.625 0.375q-0.734375 0.359375 -1.234375 1.03125q-0.515625 0.65625 -0.796875 1.59375q-0.28125 0.921875 -0.28125 2.015625zm1.6875 0.203125l0 -0.203125q0 -0.71875 0.15625 -1.359375q0.15625 -0.65625 0.484375 -1.15625q0.3125 -0.5 0.8125 -0.78125q0.515625 -0.296875 1.21875 -0.296875q0.828125 0 1.375 0.390625q0.5625 0.390625 0.890625 0.984375l0 4.578125q-0.328125 0.640625 -0.890625 1.03125q-0.546875 0.375 -1.390625 0.375q-0.703125 0 -1.203125 -0.28125q-0.5 -0.296875 -0.8125 -0.78125q-0.328125 -0.5 -0.484375 -1.140625q-0.15625 -0.640625 -0.15625 -1.359375zm16.304962 4.8125l1.75 0l0 -0.140625q-0.15625 -0.421875 -0.25 -0.96875q-0.09375 -0.546875 -0.09375 -1.046875l0 -4.578125q0 -0.828125 -0.296875 -1.4375q-0.296875 -0.625 -0.8125 -1.046875q-0.53125 -0.40625 -1.25 -0.609375q-0.71875 -0.203125 -1.5625 -0.203125q-0.921875 0 -1.65625 0.25q-0.71875 0.25 -1.21875 0.65625q-0.5 0.421875 -0.78125 0.953125q-0.265625 0.515625 -0.265625 1.046875l1.6875 0q0 -0.3125 0.140625 -0.59375q0.15625 -0.28125 0.4375 -0.5q0.265625 -0.203125 0.65625 -0.328125q0.40625 -0.140625 0.90625 -0.140625q0.546875 0 0.96875 0.140625q0.4375 0.140625 0.734375 0.390625q0.296875 0.25 0.453125 0.609375q0.171875 0.34375 0.171875 0.796875l0 0.78125l-1.828125 0q-1.03125 0 -1.875 0.203125q-0.828125 0.1875 -1.421875 0.59375q-0.59375 0.40625 -0.921875 1.015625q-0.3125 0.609375 -0.3125 1.421875q0 0.625 0.234375 1.15625q0.25 0.53125 0.6875 0.90625q0.4375 0.40625 1.0625 0.640625q0.640625 0.21875 1.4375 0.21875q0.46875 0 0.890625 -0.109375q0.4375 -0.09375 0.828125 -0.265625q0.375 -0.171875 0.6875 -0.390625q0.3125 -0.234375 0.5625 -0.5q0.03125 0.3125 0.09375 0.609375q0.0625 0.28125 0.15625 0.46875zm-2.984375 -1.28125q-0.484375 0 -0.859375 -0.125q-0.375 -0.140625 -0.625 -0.359375q-0.234375 -0.21875 -0.359375 -0.53125q-0.125 -0.3125 -0.125 -0.671875q0 -0.390625 0.140625 -0.6875q0.140625 -0.296875 0.40625 -0.515625q0.390625 -0.3125 1.03125 -0.453125q0.65625 -0.15625 1.53125 -0.15625l1.5625 0l0 2.0q-0.140625 0.28125 -0.40625 0.5625q-0.25 0.265625 -0.59375 0.46875q-0.34375 0.203125 -0.78125 0.34375q-0.421875 0.125 -0.921875 0.125zm11.695557 -10.96875l-1.703125 0l0 2.390625l-2.578125 0l0 1.3125l2.578125 0l0 5.34375q0 0.921875 0.234375 1.5625q0.25 0.640625 0.671875 1.046875q0.421875 0.40625 0.984375 0.59375q0.578125 0.1875 1.234375 0.1875q0.390625 0 0.78125 -0.046875q0.40625 -0.03125 0.75 -0.109375q0.359375 -0.0625 0.65625 -0.15625q0.296875 -0.09375 0.515625 -0.21875l-0.234375 -1.203125q-0.15625 0.046875 -0.40625 0.09375q-0.234375 0.046875 -0.515625 0.09375q-0.28125 0.046875 -0.578125 0.078125q-0.28125 0.03125 -0.546875 0.03125q-0.375 0 -0.71875 -0.09375q-0.328125 -0.09375 -0.578125 -0.3125q-0.265625 -0.21875 -0.40625 -0.59375q-0.140625 -0.375 -0.140625 -0.953125l0 -5.34375l3.75 0l0 -1.3125l-3.75 0l0 -2.390625zm11.554962 12.4375q1.4375 0 2.421875 -0.578125q0.984375 -0.578125 1.46875 -1.328125l-1.03125 -0.796875q-0.46875 0.59375 -1.171875 0.96875q-0.6875 0.359375 -1.59375 0.359375q-0.6875 0 -1.25 -0.25q-0.5625 -0.265625 -0.96875 -0.71875q-0.390625 -0.40625 -0.609375 -0.953125q-0.21875 -0.546875 -0.28125 -1.265625l0 -0.078125l7.03125 0l0 -0.75q0 -1.03125 -0.265625 -1.90625q-0.25 -0.890625 -0.78125 -1.546875q-0.53125 -0.640625 -1.328125 -1.0q-0.796875 -0.375 -1.859375 -0.375q-0.84375 0 -1.65625 0.34375q-0.796875 0.34375 -1.4375 0.984375q-0.625 0.65625 -1.015625 1.609375q-0.375 0.9375 -0.375 2.125l0 0.390625q0 1.03125 0.34375 1.90625q0.34375 0.875 0.96875 1.5q0.609375 0.640625 1.484375 1.0q0.875 0.359375 1.90625 0.359375zm-0.21875 -8.84375q0.65625 0 1.125 0.234375q0.46875 0.234375 0.765625 0.625q0.3125 0.375 0.484375 0.90625q0.171875 0.515625 0.171875 0.984375l0 0.078125l-5.296875 0q0.09375 -0.6875 0.34375 -1.203125q0.265625 -0.53125 0.625 -0.890625q0.359375 -0.359375 0.8125 -0.546875q0.453125 -0.1875 0.96875 -0.1875zm15.242432 10.03125l0 -1.375l-8.359375 0l0 1.375l8.359375 0zm11.367462 -6.1875l0 -0.203125q0 -0.765625 -0.125 -1.453125q-0.125 -0.703125 -0.375 -1.28125q-0.234375 -0.515625 -0.546875 -0.921875q-0.3125 -0.421875 -0.703125 -0.703125q-0.4375 -0.3125 -0.984375 -0.484375q-0.53125 -0.171875 -1.15625 -0.171875q-0.515625 0 -0.953125 0.09375q-0.4375 0.09375 -0.796875 0.296875q-0.296875 0.15625 -0.5625 0.375q-0.25 0.203125 -0.453125 0.46875l0 -5.203125l-1.6875 0l0 14.0l1.546875 0l0.078125 -1.125q0.171875 0.21875 0.34375 0.390625q0.1875 0.171875 0.390625 0.3125q0.421875 0.296875 0.9375 0.453125q0.53125 0.15625 1.171875 0.15625q0.546875 0 1.015625 -0.140625q0.484375 -0.140625 0.890625 -0.390625q0.5625 -0.34375 0.953125 -0.890625q0.390625 -0.546875 0.640625 -1.21875q0.1875 -0.53125 0.28125 -1.125q0.09375 -0.59375 0.09375 -1.234375zm-1.6875 -0.203125l0 0.203125q0 0.4375 -0.0625 0.859375q-0.046875 0.40625 -0.15625 0.78125q-0.15625 0.46875 -0.40625 0.875q-0.234375 0.390625 -0.609375 0.640625q-0.265625 0.203125 -0.609375 0.3125q-0.34375 0.09375 -0.765625 0.09375q-0.4375 0 -0.8125 -0.109375q-0.359375 -0.109375 -0.640625 -0.328125q-0.296875 -0.203125 -0.53125 -0.484375q-0.21875 -0.28125 -0.375 -0.609375l0 -4.3125q0.15625 -0.328125 0.375 -0.59375q0.21875 -0.28125 0.515625 -0.5q0.28125 -0.1875 0.640625 -0.296875q0.375 -0.125 0.8125 -0.125q0.390625 0 0.71875 0.09375q0.328125 0.09375 0.59375 0.25q0.390625 0.234375 0.65625 0.640625q0.265625 0.390625 0.421875 0.875q0.125 0.390625 0.171875 0.84375q0.0625 0.4375 0.0625 0.890625zm4.7893066 -8.984375l0 1.46875l3.359375 0l0 11.078125l-3.359375 0l0 1.453125l8.265625 0l0 -1.453125l-3.21875 0l0 -12.546875l-5.046875 0zm10.461212 8.984375l0 0.203125q0 1.0625 0.3125 1.96875q0.3125 0.90625 0.890625 1.59375q0.578125 0.671875 1.40625 1.0625q0.84375 0.375 1.890625 0.375q1.03125 0 1.859375 -0.375q0.828125 -0.390625 1.40625 -1.0625q0.578125 -0.6875 0.890625 -1.59375q0.3125 -0.90625 0.3125 -1.96875l0 -0.203125q0 -1.0625 -0.3125 -1.984375q-0.3125 -0.921875 -0.890625 -1.59375q-0.578125 -0.671875 -1.421875 -1.046875q-0.828125 -0.390625 -1.875 -0.390625q-1.03125 0 -1.859375 0.390625q-0.828125 0.375 -1.40625 1.046875q-0.578125 0.671875 -0.890625 1.59375q-0.3125 0.921875 -0.3125 1.984375zm1.6875 0.203125l0 -0.203125q0 -0.71875 0.171875 -1.375q0.171875 -0.671875 0.53125 -1.171875q0.34375 -0.5 0.859375 -0.796875q0.515625 -0.296875 1.21875 -0.296875q0.703125 0 1.21875 0.296875q0.53125 0.296875 0.890625 0.796875q0.34375 0.5 0.515625 1.171875q0.1875 0.65625 0.1875 1.375l0 0.203125q0 0.71875 -0.171875 1.390625q-0.171875 0.65625 -0.515625 1.15625q-0.359375 0.5 -0.890625 0.796875q-0.515625 0.28125 -1.203125 0.28125q-0.703125 0 -1.234375 -0.28125q-0.53125 -0.296875 -0.875 -0.796875q-0.359375 -0.5 -0.53125 -1.15625q-0.171875 -0.671875 -0.171875 -1.390625zm14.179932 3.625q-0.796875 0 -1.328125 -0.3125q-0.53125 -0.3125 -0.84375 -0.828125q-0.328125 -0.5 -0.46875 -1.125q-0.140625 -0.640625 -0.140625 -1.28125l0 -0.390625q0 -0.625 0.140625 -1.25q0.140625 -0.640625 0.46875 -1.15625q0.328125 -0.5 0.859375 -0.8125q0.53125 -0.3125 1.3125 -0.3125q0.515625 0 0.953125 0.171875q0.4375 0.171875 0.765625 0.484375q0.3125 0.296875 0.5 0.6875q0.1875 0.390625 0.203125 0.84375l1.59375 0q0 -0.75 -0.3125 -1.40625q-0.296875 -0.65625 -0.828125 -1.140625q-0.53125 -0.46875 -1.265625 -0.734375q-0.734375 -0.28125 -1.609375 -0.28125q-1.109375 0 -1.953125 0.40625q-0.84375 0.390625 -1.390625 1.0625q-0.5625 0.6875 -0.859375 1.578125q-0.28125 0.890625 -0.28125 1.859375l0 0.390625q0 0.984375 0.28125 1.875q0.296875 0.875 0.859375 1.5625q0.546875 0.671875 1.390625 1.078125q0.84375 0.40625 1.953125 0.40625q0.78125 0 1.5 -0.265625q0.71875 -0.28125 1.28125 -0.734375q0.5625 -0.4375 0.890625 -1.03125q0.328125 -0.609375 0.34375 -1.265625l-1.59375 0q-0.015625 0.40625 -0.21875 0.765625q-0.203125 0.34375 -0.546875 0.609375q-0.328125 0.265625 -0.765625 0.40625q-0.4375 0.140625 -0.890625 0.140625zm9.945587 -3.40625l3.625 4.59375l2.140625 0l-4.609375 -5.75l4.0 -4.109375l-2.046875 0l-3.234375 3.25l-1.109375 1.1875l0 -8.578125l-1.6875 0l0 14.0l1.6875 0l0 -3.40625l1.234375 -1.1875zm9.914307 -0.796875l0 0.09375q0 1.3125 0.203125 2.46875q0.203125 1.140625 0.5625 2.109375q0.328125 0.984375 0.78125 1.78125q0.453125 0.8125 0.953125 1.4375q0.484375 0.640625 0.984375 1.078125q0.515625 0.453125 0.96875 0.703125l0.359375 -1.03125q-0.375 -0.296875 -0.75 -0.71875q-0.359375 -0.421875 -0.703125 -0.96875q-0.34375 -0.578125 -0.65625 -1.3125q-0.3125 -0.71875 -0.546875 -1.5625q-0.21875 -0.84375 -0.34375 -1.828125q-0.125 -1.0 -0.125 -2.140625l0 -0.125q0 -1.1875 0.125 -2.203125q0.140625 -1.03125 0.390625 -1.890625q0.265625 -0.953125 0.640625 -1.75q0.390625 -0.796875 0.796875 -1.390625q0.28125 -0.375 0.578125 -0.6875q0.296875 -0.3125 0.59375 -0.53125l-0.359375 -1.109375q-0.453125 0.25 -0.953125 0.703125q-0.5 0.453125 -1.0 1.078125q-0.5 0.625 -0.953125 1.4375q-0.4375 0.8125 -0.78125 1.78125q-0.359375 0.984375 -0.5625 2.140625q-0.203125 1.140625 -0.203125 2.4375zm15.679932 0.09375l0 -0.09375q0 -1.390625 -0.21875 -2.5q-0.203125 -1.125 -0.53125 -2.078125q-0.34375 -0.984375 -0.796875 -1.78125q-0.4375 -0.796875 -0.953125 -1.4375q-0.484375 -0.625 -1.0 -1.078125q-0.515625 -0.453125 -0.96875 -0.703125l-0.34375 1.03125q0.296875 0.25 0.609375 0.609375q0.328125 0.34375 0.625 0.796875q0.390625 0.59375 0.765625 1.390625q0.375 0.796875 0.640625 1.796875q0.171875 0.703125 0.328125 1.71875q0.15625 1.0 0.15625 2.21875l0 0.125q0 1.09375 -0.125 2.046875q-0.109375 0.953125 -0.3125 1.765625q-0.203125 0.890625 -0.53125 1.625q-0.3125 0.75 -0.640625 1.34375q-0.359375 0.578125 -0.75 1.015625q-0.390625 0.453125 -0.765625 0.734375l0.34375 1.03125q0.453125 -0.25 0.953125 -0.703125q0.515625 -0.4375 1.015625 -1.078125q0.5 -0.625 0.9375 -1.4375q0.453125 -0.796875 0.8125 -1.78125q0.34375 -0.96875 0.546875 -2.109375q0.203125 -1.15625 0.203125 -2.46875z" fill-rule="nonzero"/><path fill="#000000" fill-opacity="0.0" d="m377.01575 108.64567l160.72443 0l0 22.488197l-160.72443 0z" fill-rule="evenodd"/><path fill="#ff00ff" d="m387.45325 135.56567l0 -13.359383l5.046875 0q1.328125 0 2.03125 0.125q0.96875 0.171875 1.640625 0.640625q0.671875 0.453125 1.078125 1.28125q0.40625 0.828125 0.40625 1.828125q0 1.703125 -1.09375 2.8906326q-1.078125 1.171875 -3.921875 1.171875l-3.421875 0l0 5.421875l-1.765625 0zm1.765625 -7.0l3.453125 0q1.71875 0 2.4375 -0.6406326q0.71875 -0.640625 0.71875 -1.796875q0 -0.84375 -0.421875 -1.4375q-0.421875 -0.59375 -1.125 -0.78125q-0.4375 -0.125 -1.640625 -0.125l-3.421875 0l0 4.7812576zm14.490448 7.0l-5.171875 -13.359383l1.921875 0l3.46875 9.703133q0.421875 1.171875 0.703125 2.1875q0.3125 -1.09375 0.71875 -2.1875l3.609375 -9.703133l1.796875 0l-5.234375 13.359383l-1.8125 0zm8.724823 0l0 -13.359383l9.015625 0l0 1.578125l-7.25 0l0 4.140625l6.265625 0l0 1.5781326l-6.265625 0l0 6.0625l-1.765625 0zm11.552246 -7.8125076l0 -1.859375l1.859375 0l0 1.859375l-1.859375 0zm0 7.8125076l0 -1.875l1.859375 0l0 1.875l-1.859375 0zm12.444733 0l-3.53125 -13.359383l1.8125 0l2.03125 8.765633q0.328125 1.375 0.5625 2.71875q0.5 -2.140625 0.59375 -2.46875l2.546875 -9.015633l2.125 0l1.921875 6.7656326q0.71875 2.515625 1.03125 4.71875q0.265625 -1.265625 0.671875 -2.890625l2.09375 -8.593758l1.78125 0l-3.671875 13.359383l-1.703125 0l-2.8125 -10.171883q-0.359375 -1.28125 -0.421875 -1.5625q-0.203125 0.90625 -0.390625 1.5625l-2.828125 10.171883l-1.8125 0zm20.697174 -1.1875q-0.921875 0.765625 -1.765625 1.09375q-0.828125 0.3125 -1.796875 0.3125q-1.59375 0 -2.453125 -0.78125q-0.859375 -0.78125 -0.859375 -1.984375q0 -0.71875 0.328125 -1.296875q0.328125 -0.59375 0.84375 -0.9375q0.53125 -0.359375 1.1875 -0.546875q0.46875 -0.125 1.453125 -0.25q1.984375 -0.234375 2.921875 -0.5625q0.015625 -0.34375 0.015625 -0.421875q0 -1.0 -0.46875 -1.4218826q-0.625 -0.546875 -1.875 -0.546875q-1.15625 0 -1.703125 0.40625q-0.546875 0.40625 -0.8125 1.4218826l-1.609375 -0.21875q0.21875 -1.0156326 0.71875 -1.6406326q0.5 -0.640625 1.453125 -0.984375q0.953125 -0.34375 2.1875 -0.34375q1.25 0 2.015625 0.296875q0.78125 0.28125 1.140625 0.734375q0.375 0.4375 0.515625 1.109375q0.078125 0.42188263 0.078125 1.5156326l0 2.1875q0 2.28125 0.109375 2.890625q0.109375 0.59375 0.40625 1.15625l-1.703125 0q-0.265625 -0.515625 -0.328125 -1.1875zm-0.140625 -3.671875q-0.890625 0.375 -2.671875 0.625q-1.015625 0.140625 -1.4375 0.328125q-0.421875 0.1875 -0.65625 0.53125q-0.21875 0.34375 -0.21875 0.78125q0 0.65625 0.5 1.09375q0.5 0.4375 1.453125 0.4375q0.9375 0 1.671875 -0.40625q0.75 -0.421875 1.09375 -1.140625q0.265625 -0.5625 0.265625 -1.640625l0 -0.609375zm3.5476074 1.96875l1.625 -0.25q0.125 0.96875 0.75 1.5q0.625 0.515625 1.75 0.515625q1.125 0 1.671875 -0.453125q0.546875 -0.46875 0.546875 -1.09375q0 -0.546875 -0.484375 -0.875q-0.328125 -0.21875 -1.671875 -0.546875q-1.8125 -0.46875 -2.515625 -0.796875q-0.6875 -0.328125 -1.046875 -0.90625q-0.359375 -0.59375 -0.359375 -1.3125q0 -0.6406326 0.296875 -1.1875076q0.296875 -0.5625 0.8125 -0.921875q0.375 -0.28125 1.03125 -0.46875q0.671875 -0.203125 1.421875 -0.203125q1.140625 0 2.0 0.328125q0.859375 0.328125 1.265625 0.890625q0.421875 0.5625 0.578125 1.5000076l-1.609375 0.21875q-0.109375 -0.7500076 -0.640625 -1.1718826q-0.515625 -0.421875 -1.46875 -0.421875q-1.140625 0 -1.625 0.375q-0.46875 0.375 -0.46875 0.8750076q0 0.3125 0.1875 0.578125q0.203125 0.265625 0.640625 0.4375q0.234375 0.09375 1.4375 0.421875q1.75 0.453125 2.4375 0.75q0.6875 0.296875 1.078125 0.859375q0.390625 0.5625 0.390625 1.40625q0 0.828125 -0.484375 1.546875q-0.46875 0.71875 -1.375 1.125q-0.90625 0.390625 -2.046875 0.390625q-1.875 0 -2.875 -0.78125q-0.984375 -0.78125 -1.25 -2.328125zm9.984375 2.890625l0 -9.671883l1.46875 0l0 1.359375q0.453125 -0.71875 1.203125 -1.140625q0.765625 -0.4375 1.71875 -0.4375q1.078125 0 1.765625 0.453125q0.6875 0.4375 0.96875 1.234375q1.15625 -1.6875 2.984375 -1.6875q1.453125 0 2.21875 0.796875q0.78125 0.796875 0.78125 2.4531326l0 6.640625l-1.640625 0l0 -6.09375q0 -0.984375 -0.15625 -1.40625q-0.15625 -0.43750763 -0.578125 -0.7031326q-0.421875 -0.265625 -0.984375 -0.265625q-1.015625 0 -1.6875 0.6875q-0.671875 0.6718826 -0.671875 2.1562576l0 5.625l-1.640625 0l0 -6.28125q0 -1.09375 -0.40625 -1.6406326q-0.40625 -0.546875 -1.3125 -0.546875q-0.6875 0 -1.28125 0.359375q-0.59375 0.359375 -0.859375 1.0625076q-0.25 0.703125 -0.25 2.03125l0 5.015625l-1.640625 0z" fill-rule="nonzero"/><path fill="#000000" fill-opacity="0.0" d="m377.01575 399.20996l0 0c0 -29.84076 35.9794 -54.031494 80.36221 -54.031494l0 0c44.382812 0 80.36221 24.190735 80.36221 54.031494l0 0c0 29.84079 -35.9794 54.031494 -80.36221 54.031494l0 0c-44.382812 0 -80.36221 -24.190704 -80.36221 -54.031494z" fill-rule="evenodd"/><path stroke="#ff00ff" stroke-width="3.0" stroke-linejoin="round" stroke-linecap="butt" d="m377.01575 399.20996l0 0c0 -29.84076 35.9794 -54.031494 80.36221 -54.031494l0 0c44.382812 0 80.36221 24.190735 80.36221 54.031494l0 0c0 29.84079 -35.9794 54.031494 -80.36221 54.031494l0 0c-44.382812 0 -80.36221 -24.190704 -80.36221 -54.031494z" fill-rule="evenodd"/><path fill="#ff00ff" d="m420.52203 401.44247l1.765625 0.453125q-0.5625 2.171875 -2.0 3.328125q-1.4375 1.140625 -3.53125 1.140625q-2.15625 0 -3.515625 -0.875q-1.34375 -0.890625 -2.0625 -2.546875q-0.703125 -1.671875 -0.703125 -3.59375q0 -2.078125 0.796875 -3.625q0.796875 -1.5625 2.265625 -2.359375q1.484375 -0.8125 3.25 -0.8125q2.0 0 3.359375 1.015625q1.375 1.015625 1.90625 2.875l-1.734375 0.40625q-0.46875 -1.453125 -1.359375 -2.109375q-0.875 -0.671875 -2.203125 -0.671875q-1.546875 0 -2.578125 0.734375q-1.03125 0.734375 -1.453125 1.984375q-0.421875 1.234375 -0.421875 2.5625q0 1.703125 0.5 2.96875q0.5 1.265625 1.546875 1.90625q1.046875 0.625 2.265625 0.625q1.484375 0 2.515625 -0.859375q1.03125 -0.859375 1.390625 -2.546875zm3.1292114 -0.15625q0 -2.6875 1.484375 -3.96875q1.25 -1.078125 3.046875 -1.078125q2.0 0 3.265625 1.3125q1.265625 1.296875 1.265625 3.609375q0 1.859375 -0.5625 2.9375q-0.5625 1.0625 -1.640625 1.65625q-1.0625 0.59375 -2.328125 0.59375q-2.03125 0 -3.28125 -1.296875q-1.25 -1.3125 -1.25 -3.765625zm1.6875 0q0 1.859375 0.796875 2.796875q0.8125 0.921875 2.046875 0.921875q1.21875 0 2.03125 -0.921875q0.8125 -0.9375 0.8125 -2.84375q0 -1.796875 -0.8125 -2.71875q-0.8125 -0.921875 -2.03125 -0.921875q-1.234375 0 -2.046875 0.921875q-0.796875 0.90625 -0.796875 2.765625zm9.250702 4.84375l0 -13.359375l1.640625 0l0 13.359375l-1.640625 0zm4.1448364 0l0 -13.359375l1.640625 0l0 13.359375l-1.640625 0zm10.504181 -1.1875q-0.921875 0.765625 -1.765625 1.09375q-0.828125 0.3125 -1.796875 0.3125q-1.59375 0 -2.453125 -0.78125q-0.859375 -0.78125 -0.859375 -1.984375q0 -0.71875 0.328125 -1.296875q0.328125 -0.59375 0.84375 -0.9375q0.53125 -0.359375 1.1875 -0.546875q0.46875 -0.125 1.453125 -0.25q1.984375 -0.234375 2.921875 -0.5625q0.015625 -0.34375 0.015625 -0.421875q0 -1.0 -0.46875 -1.421875q-0.625 -0.546875 -1.875 -0.546875q-1.15625 0 -1.703125 0.40625q-0.546875 0.40625 -0.8125 1.421875l-1.609375 -0.21875q0.21875 -1.015625 0.71875 -1.640625q0.5 -0.640625 1.453125 -0.984375q0.953125 -0.34375 2.1875 -0.34375q1.25 0 2.015625 0.296875q0.78125 0.28125 1.140625 0.734375q0.375 0.4375 0.515625 1.109375q0.078125 0.421875 0.078125 1.515625l0 2.1875q0 2.28125 0.109375 2.890625q0.109375 0.59375 0.40625 1.15625l-1.703125 0q-0.265625 -0.515625 -0.328125 -1.1875zm-0.140625 -3.671875q-0.890625 0.375 -2.671875 0.625q-1.015625 0.140625 -1.4375 0.328125q-0.421875 0.1875 -0.65625 0.53125q-0.21875 0.34375 -0.21875 0.78125q0 0.65625 0.5 1.09375q0.5 0.4375 1.453125 0.4375q0.9375 0 1.671875 -0.40625q0.75 -0.421875 1.09375 -1.140625q0.265625 -0.5625 0.265625 -1.640625l0 -0.609375zm7.7819824 3.390625l0.234375 1.453125q-0.6875 0.140625 -1.234375 0.140625q-0.890625 0 -1.390625 -0.28125q-0.484375 -0.28125 -0.6875 -0.734375q-0.203125 -0.46875 -0.203125 -1.9375l0 -5.578125l-1.203125 0l0 -1.265625l1.203125 0l0 -2.390625l1.625 -0.984375l0 3.375l1.65625 0l0 1.265625l-1.65625 0l0 5.671875q0 0.6875 0.078125 0.890625q0.09375 0.203125 0.28125 0.328125q0.203125 0.109375 0.578125 0.109375q0.265625 0 0.71875 -0.0625zm1.6051636 -10.0l0 -1.890625l1.640625 0l0 1.890625l-1.640625 0zm0 11.46875l0 -9.671875l1.640625 0l0 9.671875l-1.640625 0zm3.5354614 -4.84375q0 -2.6875 1.484375 -3.96875q1.25 -1.078125 3.046875 -1.078125q2.0 0 3.265625 1.3125q1.265625 1.296875 1.265625 3.609375q0 1.859375 -0.5625 2.9375q-0.5625 1.0625 -1.640625 1.65625q-1.0625 0.59375 -2.328125 0.59375q-2.03125 0 -3.28125 -1.296875q-1.25 -1.3125 -1.25 -3.765625zm1.6875 0q0 1.859375 0.796875 2.796875q0.8125 0.921875 2.046875 0.921875q1.21875 0 2.03125 -0.921875q0.8125 -0.9375 0.8125 -2.84375q0 -1.796875 -0.8125 -2.71875q-0.8125 -0.921875 -2.03125 -0.921875q-1.234375 0 -2.046875 0.921875q-0.796875 0.90625 -0.796875 2.765625zm9.297577 4.84375l0 -9.671875l1.46875 0l0 1.375q1.0625 -1.59375 3.078125 -1.59375q0.875 0 1.609375 0.3125q0.734375 0.3125 1.09375 0.828125q0.375 0.5 0.515625 1.203125q0.09375 0.453125 0.09375 1.59375l0 5.953125l-1.640625 0l0 -5.890625q0 -1.0 -0.203125 -1.484375q-0.1875 -0.5 -0.671875 -0.796875q-0.484375 -0.296875 -1.140625 -0.296875q-1.046875 0 -1.8125 0.671875q-0.75 0.65625 -0.75 2.515625l0 5.28125l-1.640625 0z" fill-rule="nonzero"/><path fill="#000000" fill-opacity="0.0" d="m67.08924 399.20996l0 0c0 -29.84076 35.979385 -54.031494 80.362206 -54.031494l0 0c44.382812 0 80.3622 24.190735 80.3622 54.031494l0 0c0 29.84079 -35.979385 54.031494 -80.3622 54.031494l0 0c-44.38282 0 -80.362206 -24.190704 -80.362206 -54.031494z" fill-rule="evenodd"/><path stroke="#ff00ff" stroke-width="3.0" stroke-linejoin="round" stroke-linecap="butt" d="m67.08924 399.20996l0 0c0 -29.84076 35.979385 -54.031494 80.362206 -54.031494l0 0c44.382812 0 80.3622 24.190735 80.3622 54.031494l0 0c0 29.84079 -35.979385 54.031494 -80.3622 54.031494l0 0c-44.38282 0 -80.362206 -24.190704 -80.362206 -54.031494z" fill-rule="evenodd"/><path fill="#ff00ff" d="m110.595535 401.44247l1.765625 0.453125q-0.5625 2.171875 -2.0 3.328125q-1.4375 1.140625 -3.53125 1.140625q-2.15625 0 -3.515625 -0.875q-1.34375 -0.890625 -2.0625 -2.546875q-0.703125 -1.671875 -0.703125 -3.59375q0 -2.078125 0.796875 -3.625q0.796875 -1.5625 2.265625 -2.359375q1.484375 -0.8125 3.25 -0.8125q2.0 0 3.359375 1.015625q1.375 1.015625 1.90625 2.875l-1.734375 0.40625q-0.46875 -1.453125 -1.359375 -2.109375q-0.875 -0.671875 -2.203125 -0.671875q-1.546875 0 -2.578125 0.734375q-1.03125 0.734375 -1.453125 1.984375q-0.421875 1.234375 -0.421875 2.5625q0 1.703125 0.5 2.96875q0.5 1.265625 1.546875 1.90625q1.046875 0.625 2.265625 0.625q1.484375 0 2.515625 -0.859375q1.03125 -0.859375 1.390625 -2.546875zm3.1291962 -0.15625q0 -2.6875 1.484375 -3.96875q1.25 -1.078125 3.046875 -1.078125q2.0 0 3.265625 1.3125q1.265625 1.296875 1.265625 3.609375q0 1.859375 -0.5625 2.9375q-0.5625 1.0625 -1.640625 1.65625q-1.0625 0.59375 -2.328125 0.59375q-2.03125 0 -3.28125 -1.296875q-1.25 -1.3125 -1.25 -3.765625zm1.6875 0q0 1.859375 0.796875 2.796875q0.8125 0.921875 2.046875 0.921875q1.21875 0 2.03125 -0.921875q0.8125 -0.9375 0.8125 -2.84375q0 -1.796875 -0.8125 -2.71875q-0.8125 -0.921875 -2.03125 -0.921875q-1.234375 0 -2.046875 0.921875q-0.796875 0.90625 -0.796875 2.765625zm9.250717 4.84375l0 -13.359375l1.640625 0l0 13.359375l-1.640625 0zm4.144821 0l0 -13.359375l1.640625 0l0 13.359375l-1.640625 0zm10.504196 -1.1875q-0.921875 0.765625 -1.765625 1.09375q-0.828125 0.3125 -1.796875 0.3125q-1.59375 0 -2.453125 -0.78125q-0.859375 -0.78125 -0.859375 -1.984375q0 -0.71875 0.328125 -1.296875q0.328125 -0.59375 0.84375 -0.9375q0.53125 -0.359375 1.1875 -0.546875q0.46875 -0.125 1.453125 -0.25q1.984375 -0.234375 2.921875 -0.5625q0.015625 -0.34375 0.015625 -0.421875q0 -1.0 -0.46875 -1.421875q-0.625 -0.546875 -1.875 -0.546875q-1.15625 0 -1.703125 0.40625q-0.546875 0.40625 -0.8125 1.421875l-1.609375 -0.21875q0.21875 -1.015625 0.71875 -1.640625q0.5 -0.640625 1.453125 -0.984375q0.953125 -0.34375 2.1875 -0.34375q1.25 0 2.015625 0.296875q0.78125 0.28125 1.140625 0.734375q0.375 0.4375 0.515625 1.109375q0.078125 0.421875 0.078125 1.515625l0 2.1875q0 2.28125 0.109375 2.890625q0.109375 0.59375 0.40625 1.15625l-1.703125 0q-0.265625 -0.515625 -0.328125 -1.1875zm-0.140625 -3.671875q-0.890625 0.375 -2.671875 0.625q-1.015625 0.140625 -1.4375 0.328125q-0.421875 0.1875 -0.65625 0.53125q-0.21875 0.34375 -0.21875 0.78125q0 0.65625 0.5 1.09375q0.5 0.4375 1.453125 0.4375q0.9375 0 1.671875 -0.40625q0.75 -0.421875 1.09375 -1.140625q0.265625 -0.5625 0.265625 -1.640625l0 -0.609375zm7.781967 3.390625l0.234375 1.453125q-0.6875 0.140625 -1.234375 0.140625q-0.890625 0 -1.390625 -0.28125q-0.484375 -0.28125 -0.6875 -0.734375q-0.203125 -0.46875 -0.203125 -1.9375l0 -5.578125l-1.203125 0l0 -1.265625l1.203125 0l0 -2.390625l1.625 -0.984375l0 3.375l1.65625 0l0 1.265625l-1.65625 0l0 5.671875q0 0.6875 0.078125 0.890625q0.09375 0.203125 0.28125 0.328125q0.203125 0.109375 0.578125 0.109375q0.265625 0 0.71875 -0.0625zm0.99580383 -3.375q0 -2.6875 1.484375 -3.96875q1.25 -1.078125 3.046875 -1.078125q2.0 0 3.265625 1.3125q1.265625 1.296875 1.265625 3.609375q0 1.859375 -0.5625 2.9375q-0.5625 1.0625 -1.640625 1.65625q-1.0625 0.59375 -2.328125 0.59375q-2.03125 0 -3.28125 -1.296875q-1.25 -1.3125 -1.25 -3.765625zm1.6875 0q0 1.859375 0.796875 2.796875q0.8125 0.921875 2.046875 0.921875q1.21875 0 2.03125 -0.921875q0.8125 -0.9375 0.8125 -2.84375q0 -1.796875 -0.8125 -2.71875q-0.8125 -0.921875 -2.03125 -0.921875q-1.234375 0 -2.046875 0.921875q-0.796875 0.90625 -0.796875 2.765625zm9.281967 4.84375l0 -9.671875l1.46875 0l0 1.46875q0.5625 -1.03125 1.03125 -1.359375q0.484375 -0.328125 1.0625 -0.328125q0.828125 0 1.6875 0.53125l-0.5625 1.515625q-0.609375 -0.359375 -1.203125 -0.359375q-0.546875 0 -0.96875 0.328125q-0.421875 0.328125 -0.609375 0.890625q-0.28125 0.875 -0.28125 1.921875l0 5.0625l-1.625 0z" fill-rule="nonzero"/><path fill="#000000" fill-opacity="0.0" d="m716.30444 399.20996l0 0c0 -29.84076 35.97943 -54.031494 80.36224 -54.031494l0 0c44.382812 0 80.36218 24.190735 80.36218 54.031494l0 0c0 29.84079 -35.97937 54.031494 -80.36218 54.031494l0 0c-44.382812 0 -80.36224 -24.190704 -80.36224 -54.031494z" fill-rule="evenodd"/><path stroke="#ff00ff" stroke-width="3.0" stroke-linejoin="round" stroke-linecap="butt" d="m716.30444 399.20996l0 0c0 -29.84076 35.97943 -54.031494 80.36224 -54.031494l0 0c44.382812 0 80.36218 24.190735 80.36218 54.031494l0 0c0 29.84079 -35.97937 54.031494 -80.36218 54.031494l0 0c-44.382812 0 -80.36224 -24.190704 -80.36224 -54.031494z" fill-rule="evenodd"/><path fill="#ff00ff" d="m754.092 406.12997l-5.171875 -13.359375l1.921875 0l3.46875 9.703125q0.421875 1.171875 0.703125 2.1875q0.3125 -1.09375 0.71875 -2.1875l3.609375 -9.703125l1.796875 0l-5.234375 13.359375l-1.8125 0zm13.3550415 -1.1875q-0.921875 0.765625 -1.765625 1.09375q-0.828125 0.3125 -1.796875 0.3125q-1.59375 0 -2.453125 -0.78125q-0.859375 -0.78125 -0.859375 -1.984375q0 -0.71875 0.328125 -1.296875q0.328125 -0.59375 0.84375 -0.9375q0.53125 -0.359375 1.1875 -0.546875q0.46875 -0.125 1.453125 -0.25q1.984375 -0.234375 2.921875 -0.5625q0.015625 -0.34375 0.015625 -0.421875q0 -1.0 -0.46875 -1.421875q-0.625 -0.546875 -1.875 -0.546875q-1.15625 0 -1.703125 0.40625q-0.546875 0.40625 -0.8125 1.421875l-1.609375 -0.21875q0.21875 -1.015625 0.71875 -1.640625q0.5 -0.640625 1.453125 -0.984375q0.953125 -0.34375 2.1875 -0.34375q1.25 0 2.015625 0.296875q0.78125 0.28125 1.140625 0.734375q0.375 0.4375 0.515625 1.109375q0.078125 0.421875 0.078125 1.515625l0 2.1875q0 2.28125 0.109375 2.890625q0.109375 0.59375 0.40625 1.15625l-1.703125 0q-0.265625 -0.515625 -0.328125 -1.1875zm-0.140625 -3.671875q-0.890625 0.375 -2.671875 0.625q-1.015625 0.140625 -1.4375 0.328125q-0.421875 0.1875 -0.65625 0.53125q-0.21875 0.34375 -0.21875 0.78125q0 0.65625 0.5 1.09375q0.5 0.4375 1.453125 0.4375q0.9375 0 1.671875 -0.40625q0.75 -0.421875 1.09375 -1.140625q0.265625 -0.5625 0.265625 -1.640625l0 -0.609375zm4.1569824 4.859375l0 -13.359375l1.640625 0l0 13.359375l-1.640625 0zm4.1917114 -11.46875l0 -1.890625l1.640625 0l0 1.890625l-1.640625 0zm0 11.46875l0 -9.671875l1.640625 0l0 9.671875l-1.640625 0zm10.4104 0l0 -1.21875q-0.90625 1.4375 -2.703125 1.4375q-1.15625 0 -2.125 -0.640625q-0.96875 -0.640625 -1.5 -1.78125q-0.53125 -1.140625 -0.53125 -2.625q0 -1.453125 0.484375 -2.625q0.484375 -1.1875 1.4375 -1.8125q0.96875 -0.625 2.171875 -0.625q0.875 0 1.546875 0.375q0.6875 0.359375 1.109375 0.953125l0 -4.796875l1.640625 0l0 13.359375l-1.53125 0zm-5.171875 -4.828125q0 1.859375 0.78125 2.78125q0.78125 0.921875 1.84375 0.921875q1.078125 0 1.828125 -0.875q0.75 -0.890625 0.75 -2.6875q0 -1.984375 -0.765625 -2.90625q-0.765625 -0.9375 -1.890625 -0.9375q-1.078125 0 -1.8125 0.890625q-0.734375 0.890625 -0.734375 2.8125zm15.594482 3.640625q-0.921875 0.765625 -1.765625 1.09375q-0.828125 0.3125 -1.796875 0.3125q-1.59375 0 -2.453125 -0.78125q-0.859375 -0.78125 -0.859375 -1.984375q0 -0.71875 0.328125 -1.296875q0.328125 -0.59375 0.84375 -0.9375q0.53125 -0.359375 1.1875 -0.546875q0.46875 -0.125 1.453125 -0.25q1.984375 -0.234375 2.921875 -0.5625q0.015625 -0.34375 0.015625 -0.421875q0 -1.0 -0.46875 -1.421875q-0.625 -0.546875 -1.875 -0.546875q-1.15625 0 -1.703125 0.40625q-0.546875 0.40625 -0.8125 1.421875l-1.609375 -0.21875q0.21875 -1.015625 0.71875 -1.640625q0.5 -0.640625 1.453125 -0.984375q0.953125 -0.34375 2.1875 -0.34375q1.25 0 2.015625 0.296875q0.78125 0.28125 1.140625 0.734375q0.375 0.4375 0.515625 1.109375q0.078125 0.421875 0.078125 1.515625l0 2.1875q0 2.28125 0.109375 2.890625q0.109375 0.59375 0.40625 1.15625l-1.703125 0q-0.265625 -0.515625 -0.328125 -1.1875zm-0.140625 -3.671875q-0.890625 0.375 -2.671875 0.625q-1.015625 0.140625 -1.4375 0.328125q-0.421875 0.1875 -0.65625 0.53125q-0.21875 0.34375 -0.21875 0.78125q0 0.65625 0.5 1.09375q0.5 0.4375 1.453125 0.4375q0.9375 0 1.671875 -0.40625q0.75 -0.421875 1.09375 -1.140625q0.265625 -0.5625 0.265625 -1.640625l0 -0.609375zm7.7819824 3.390625l0.234375 1.453125q-0.6875 0.140625 -1.234375 0.140625q-0.890625 0 -1.390625 -0.28125q-0.484375 -0.28125 -0.6875 -0.734375q-0.203125 -0.46875 -0.203125 -1.9375l0 -5.578125l-1.203125 0l0 -1.265625l1.203125 0l0 -2.390625l1.625 -0.984375l0 3.375l1.65625 0l0 1.265625l-1.65625 0l0 5.671875q0 0.6875 0.078125 0.890625q0.09375 0.203125 0.28125 0.328125q0.203125 0.109375 0.578125 0.109375q0.265625 0 0.71875 -0.0625zm0.9957886 -3.375q0 -2.6875 1.484375 -3.96875q1.25 -1.078125 3.046875 -1.078125q2.0 0 3.265625 1.3125q1.265625 1.296875 1.265625 3.609375q0 1.859375 -0.5625 2.9375q-0.5625 1.0625 -1.640625 1.65625q-1.0625 0.59375 -2.328125 0.59375q-2.03125 0 -3.28125 -1.296875q-1.25 -1.3125 -1.25 -3.765625zm1.6875 0q0 1.859375 0.796875 2.796875q0.8125 0.921875 2.046875 0.921875q1.21875 0 2.03125 -0.921875q0.8125 -0.9375 0.8125 -2.84375q0 -1.796875 -0.8125 -2.71875q-0.8125 -0.921875 -2.03125 -0.921875q-1.234375 0 -2.046875 0.921875q-0.796875 0.90625 -0.796875 2.765625zm9.281982 4.84375l0 -9.671875l1.46875 0l0 1.46875q0.5625 -1.03125 1.03125 -1.359375q0.484375 -0.328125 1.0625 -0.328125q0.828125 0 1.6875 0.53125l-0.5625 1.515625q-0.609375 -0.359375 -1.203125 -0.359375q-0.546875 0 -0.96875 0.328125q-0.421875 0.328125 -0.609375 0.890625q-0.28125 0.875 -0.28125 1.921875l0 5.0625l-1.625 0z" fill-rule="nonzero"/><path fill="#000000" fill-opacity="0.0" d="m227.81364 399.20996l149.19685 0" fill-rule="evenodd"/><path stroke="#cccccc" stroke-width="3.0" stroke-linejoin="round" stroke-linecap="butt" d="m227.81364 399.20996l131.19685 0" fill-rule="evenodd"/><path fill="#cccccc" stroke="#cccccc" stroke-width="3.0" stroke-linecap="butt" d="m359.0105 404.16516l13.614288 -4.9552l-13.614288 -4.9551697z" fill-rule="evenodd"/><path fill="#000000" fill-opacity="0.0" d="m716.30444 399.20996l-178.55115 0" fill-rule="evenodd"/><path stroke="#cccccc" stroke-width="3.0" stroke-linejoin="round" stroke-linecap="butt" d="m716.30444 399.20996l-160.55115 0" fill-rule="evenodd"/><path fill="#cccccc" stroke="#cccccc" stroke-width="3.0" stroke-linecap="butt" d="m555.7533 394.2548l-13.614319 4.9551697l13.614319 4.9552z" fill-rule="evenodd"/><path fill="#000000" fill-opacity="0.0" d="m457.37796 345.17847l0 -108.59842" fill-rule="evenodd"/><path stroke="#cccccc" stroke-width="3.0" stroke-linejoin="round" stroke-linecap="butt" d="m457.37796 345.17847l0 -90.59842" fill-rule="evenodd"/><path fill="#cccccc" stroke="#cccccc" stroke-width="3.0" stroke-linecap="butt" d="m462.33316 254.58005l-4.9552 -13.614288l-4.9552 13.614288z" fill-rule="evenodd"/><path fill="#000000" fill-opacity="0.0" d="m240.05774 355.43045l160.72443 0l0 22.48819l-160.72443 0z" fill-rule="evenodd"/><path fill="#ff00ff" d="m250.41711 382.35043l0 -13.359375l5.015625 0q1.53125 0 2.453125 0.40625q0.921875 0.40625 1.4375 1.25q0.53125 0.84375 0.53125 1.765625q0 0.859375 -0.46875 1.625q-0.453125 0.75 -1.390625 1.203125q1.203125 0.359375 1.859375 1.21875q0.65625 0.859375 0.65625 2.015625q0 0.9375 -0.40625 1.75q-0.390625 0.796875 -0.984375 1.234375q-0.578125 0.4375 -1.453125 0.671875q-0.875 0.21875 -2.15625 0.21875l-5.09375 0zm1.78125 -7.75l2.875 0q1.1875 0 1.6875 -0.140625q0.671875 -0.203125 1.015625 -0.671875q0.34375 -0.46875 0.34375 -1.171875q0 -0.65625 -0.328125 -1.15625q-0.3125 -0.515625 -0.90625 -0.703125q-0.59375 -0.1875 -2.03125 -0.1875l-2.65625 0l0 4.03125zm0 6.171875l3.3125 0q0.859375 0 1.203125 -0.0625q0.609375 -0.109375 1.015625 -0.359375q0.421875 -0.265625 0.6875 -0.75q0.265625 -0.484375 0.265625 -1.125q0 -0.75 -0.390625 -1.296875q-0.375 -0.546875 -1.0625 -0.765625q-0.671875 -0.234375 -1.953125 -0.234375l-3.078125 0l0 4.59375zm16.865448 1.578125l0 -1.421875q-1.125 1.640625 -3.0625 1.640625q-0.859375 0 -1.609375 -0.328125q-0.734375 -0.328125 -1.09375 -0.828125q-0.359375 -0.5 -0.5 -1.21875q-0.109375 -0.46875 -0.109375 -1.53125l0 -5.984375l1.640625 0l0 5.359375q0 1.28125 0.109375 1.734375q0.15625 0.640625 0.65625 1.015625q0.5 0.375 1.234375 0.375q0.734375 0 1.375 -0.375q0.65625 -0.390625 0.921875 -1.03125q0.265625 -0.65625 0.265625 -1.890625l0 -5.1875l1.640625 0l0 9.671875l-1.46875 0zm4.0476074 -11.46875l0 -1.890625l1.640625 0l0 1.890625l-1.640625 0zm0 11.46875l0 -9.671875l1.640625 0l0 9.671875l-1.640625 0zm4.097931 0l0 -13.359375l1.640625 0l0 13.359375l-1.640625 0zm10.457336 0l0 -1.21875q-0.90625 1.4375 -2.703125 1.4375q-1.15625 0 -2.125 -0.640625q-0.96875 -0.640625 -1.5 -1.78125q-0.53125 -1.140625 -0.53125 -2.625q0 -1.453125 0.484375 -2.625q0.484375 -1.1875 1.4375 -1.8125q0.96875 -0.625 2.171875 -0.625q0.875 0 1.546875 0.375q0.6875 0.359375 1.109375 0.953125l0 -4.796875l1.640625 0l0 13.359375l-1.53125 0zm-5.171875 -4.828125q0 1.859375 0.78125 2.78125q0.78125 0.921875 1.84375 0.921875q1.078125 0 1.828125 -0.875q0.75 -0.890625 0.75 -2.6875q0 -1.984375 -0.765625 -2.90625q-0.765625 -0.9375 -1.890625 -0.9375q-1.078125 0 -1.8125 0.890625q-0.734375 0.890625 -0.734375 2.8125zm8.625702 1.9375l1.625 -0.25q0.125 0.96875 0.75 1.5q0.625 0.515625 1.75 0.515625q1.125 0 1.671875 -0.453125q0.546875 -0.46875 0.546875 -1.09375q0 -0.546875 -0.484375 -0.875q-0.328125 -0.21875 -1.671875 -0.546875q-1.8125 -0.46875 -2.515625 -0.796875q-0.6875 -0.328125 -1.046875 -0.90625q-0.359375 -0.59375 -0.359375 -1.3125q0 -0.640625 0.296875 -1.1875q0.296875 -0.5625 0.8125 -0.921875q0.375 -0.28125 1.03125 -0.46875q0.671875 -0.203125 1.421875 -0.203125q1.140625 0 2.0 0.328125q0.859375 0.328125 1.265625 0.890625q0.421875 0.5625 0.578125 1.5l-1.609375 0.21875q-0.109375 -0.75 -0.640625 -1.171875q-0.515625 -0.421875 -1.46875 -0.421875q-1.140625 0 -1.625 0.375q-0.46875 0.375 -0.46875 0.875q0 0.3125 0.1875 0.578125q0.203125 0.265625 0.640625 0.4375q0.234375 0.09375 1.4375 0.421875q1.75 0.453125 2.4375 0.75q0.6875 0.296875 1.078125 0.859375q0.390625 0.5625 0.390625 1.40625q0 0.828125 -0.484375 1.546875q-0.46875 0.71875 -1.375 1.125q-0.90625 0.390625 -2.046875 0.390625q-1.875 0 -2.875 -0.78125q-0.984375 -0.78125 -1.25 -2.328125z" fill-rule="nonzero"/><path fill="#000000" fill-opacity="0.0" d="m567.8425 358.57217l160.72443 0l0 22.48819l-160.72443 0z" fill-rule="evenodd"/><path fill="#ff00ff" d="m587.8113 380.8047l1.765625 0.453125q-0.5625 2.171875 -2.0 3.328125q-1.4375 1.140625 -3.53125 1.140625q-2.15625 0 -3.515625 -0.875q-1.34375 -0.890625 -2.0625 -2.546875q-0.703125 -1.671875 -0.703125 -3.59375q0 -2.078125 0.796875 -3.625q0.796875 -1.5625 2.265625 -2.359375q1.484375 -0.8125 3.25 -0.8125q2.0 0 3.359375 1.015625q1.375 1.015625 1.90625 2.875l-1.734375 0.40625q-0.46875 -1.453125 -1.359375 -2.109375q-0.875 -0.671875 -2.203125 -0.671875q-1.546875 0 -2.578125 0.734375q-1.03125 0.734375 -1.453125 1.984375q-0.421875 1.234375 -0.421875 2.5625q0 1.703125 0.5 2.96875q0.5 1.265625 1.546875 1.90625q1.046875 0.625 2.265625 0.625q1.484375 0 2.515625 -0.859375q1.03125 -0.859375 1.390625 -2.546875zm3.7385864 4.6875l0 -13.359375l1.640625 0l0 4.796875q1.140625 -1.328125 2.890625 -1.328125q1.078125 0 1.859375 0.421875q0.796875 0.421875 1.140625 1.171875q0.34375 0.75 0.34375 2.171875l0 6.125l-1.640625 0l0 -6.125q0 -1.234375 -0.53125 -1.796875q-0.53125 -0.5625 -1.515625 -0.5625q-0.71875 0 -1.359375 0.390625q-0.640625 0.375 -0.921875 1.015625q-0.265625 0.640625 -0.265625 1.78125l0 5.296875l-1.640625 0zm17.000671 -3.109375l1.6875 0.203125q-0.40625 1.484375 -1.484375 2.3125q-1.078125 0.8125 -2.765625 0.8125q-2.125 0 -3.375 -1.296875q-1.234375 -1.3125 -1.234375 -3.671875q0 -2.453125 1.25 -3.796875q1.265625 -1.34375 3.265625 -1.34375q1.9375 0 3.15625 1.328125q1.234375 1.3125 1.234375 3.703125q0 0.15625 0 0.4375l-7.21875 0q0.09375 1.59375 0.90625 2.453125q0.8125 0.84375 2.015625 0.84375q0.90625 0 1.546875 -0.46875q0.640625 -0.484375 1.015625 -1.515625zm-5.390625 -2.65625l5.40625 0q-0.109375 -1.21875 -0.625 -1.828125q-0.78125 -0.953125 -2.03125 -0.953125q-1.125 0 -1.90625 0.765625q-0.765625 0.75 -0.84375 2.015625zm15.453857 2.21875l1.609375 0.21875q-0.265625 1.65625 -1.359375 2.609375q-1.078125 0.9375 -2.671875 0.9375q-1.984375 0 -3.1875 -1.296875q-1.203125 -1.296875 -1.203125 -3.71875q0 -1.578125 0.515625 -2.75q0.515625 -1.171875 1.578125 -1.75q1.0625 -0.59375 2.3125 -0.59375q1.578125 0 2.578125 0.796875q1.0 0.796875 1.28125 2.265625l-1.59375 0.234375q-0.234375 -0.96875 -0.8125 -1.453125q-0.578125 -0.5 -1.390625 -0.5q-1.234375 0 -2.015625 0.890625q-0.78125 0.890625 -0.78125 2.8125q0 1.953125 0.75 2.84375q0.75 0.875 1.953125 0.875q0.96875 0 1.609375 -0.59375q0.65625 -0.59375 0.828125 -1.828125zm3.015625 3.546875l0 -13.359375l1.640625 0l0 7.625l3.890625 -3.9375l2.109375 0l-3.6875 3.59375l4.0625 6.078125l-2.015625 0l-3.203125 -4.953125l-1.15625 1.125l0 3.828125l-1.640625 0zm8.671875 -2.890625l1.625 -0.25q0.125 0.96875 0.75 1.5q0.625 0.515625 1.75 0.515625q1.125 0 1.671875 -0.453125q0.546875 -0.46875 0.546875 -1.09375q0 -0.546875 -0.484375 -0.875q-0.328125 -0.21875 -1.671875 -0.546875q-1.8125 -0.46875 -2.515625 -0.796875q-0.6875 -0.328125 -1.046875 -0.90625q-0.359375 -0.59375 -0.359375 -1.3125q0 -0.640625 0.296875 -1.1875q0.296875 -0.5625 0.8125 -0.921875q0.375 -0.28125 1.03125 -0.46875q0.671875 -0.203125 1.421875 -0.203125q1.140625 0 2.0 0.328125q0.859375 0.328125 1.265625 0.890625q0.421875 0.5625 0.578125 1.5l-1.609375 0.21875q-0.109375 -0.75 -0.640625 -1.171875q-0.515625 -0.421875 -1.46875 -0.421875q-1.140625 0 -1.625 0.375q-0.46875 0.375 -0.46875 0.875q0 0.3125 0.1875 0.578125q0.203125 0.265625 0.640625 0.4375q0.234375 0.09375 1.4375 0.421875q1.75 0.453125 2.4375 0.75q0.6875 0.296875 1.078125 0.859375q0.390625 0.5625 0.390625 1.40625q0 0.828125 -0.484375 1.546875q-0.46875 0.71875 -1.375 1.125q-0.90625 0.390625 -2.046875 0.390625q-1.875 0 -2.875 -0.78125q-0.984375 -0.78125 -1.25 -2.328125z" fill-rule="nonzero"/></g></svg>