<svg width="235" height="450" viewBox="0 0 235 450" fill="none" xmlns="http://www.w3.org/2000/svg">
<path d="M183.939 134.061C184.525 134.646 185.475 134.646 186.061 134.061L195.607 124.515C196.192 123.929 196.192 122.979 195.607 122.393C195.021 121.808 194.071 121.808 193.485 122.393L185 130.879L176.515 122.393C175.929 121.808 174.979 121.808 174.393 122.393C173.808 122.979 173.808 123.929 174.393 124.515L183.939 134.061ZM183.5 60L183.5 133L186.5 133L186.5 60L183.5 60Z" fill="white"/>
<path d="M184.494 20.88C186.755 20.88 188.547 21.4453 189.87 22.576C191.214 23.7067 191.886 25.232 191.886 27.152C191.886 29.136 191.214 30.672 189.87 31.76C188.547 32.8267 186.755 33.36 184.494 33.36L184.174 33.552H179.278V42H175.886V20.88H184.494ZM184.238 30.704C185.625 30.704 186.649 30.4267 187.31 29.872C187.993 29.296 188.334 28.4213 188.334 27.248C188.334 26.096 187.993 25.232 187.31 24.656C186.649 24.08 185.625 23.792 184.238 23.792H179.278V30.704H184.238ZM186.254 31.408L193.134 42H189.198L183.31 32.752L186.254 31.408Z" fill="white"/>
<path d="M176.173 180V158.88H184.493C187.032 158.88 188.888 159.392 190.061 160.416C191.234 161.44 191.821 162.859 191.821 164.672C191.821 165.781 191.501 166.773 190.861 167.648C190.221 168.501 189.282 169.045 188.045 169.28V169.312C189.41 169.525 190.466 170.091 191.213 171.008C191.981 171.904 192.365 172.949 192.365 174.144C192.365 175.957 191.704 177.387 190.381 178.432C189.058 179.477 187.138 180 184.621 180H176.173ZM179.533 177.152H184.781C186.125 177.152 187.128 176.875 187.789 176.32C188.472 175.765 188.813 174.987 188.813 173.984C188.813 172.981 188.472 172.203 187.789 171.648C187.128 171.093 186.125 170.816 184.781 170.816H179.533V177.152ZM179.533 167.968H184.237C186.925 167.968 188.269 166.933 188.269 164.864C188.269 162.795 186.925 161.76 184.237 161.76H179.533V167.968ZM195.625 180V178.44C196.891 177.533 197.951 176.733 198.805 176.04C199.671 175.347 200.365 174.707 200.885 174.12C201.405 173.533 201.778 172.98 202.005 172.46C202.245 171.927 202.365 171.387 202.365 170.84C202.365 170.133 202.145 169.56 201.705 169.12C201.265 168.68 200.651 168.46 199.865 168.46C199.038 168.46 198.378 168.74 197.885 169.3C197.405 169.847 197.131 170.6 197.065 171.56L195.205 170.7C195.298 169.86 195.545 169.133 195.945 168.52C196.345 167.907 196.885 167.433 197.565 167.1C198.258 166.767 199.058 166.6 199.965 166.6C200.711 166.6 201.365 166.707 201.925 166.92C202.498 167.133 202.978 167.433 203.365 167.82C203.751 168.193 204.045 168.633 204.245 169.14C204.458 169.647 204.565 170.187 204.565 170.76C204.565 171.6 204.358 172.413 203.945 173.2C203.531 173.973 202.878 174.767 201.985 175.58C201.091 176.393 199.918 177.267 198.465 178.2V178.24C198.625 178.213 198.845 178.2 199.125 178.2C199.405 178.187 199.685 178.18 199.965 178.18C200.245 178.167 200.471 178.16 200.645 178.16H204.805V180H195.625Z" fill="white"/>
<rect x="136.5" y="1.5" width="97" height="60" rx="8.5" fill="#8D3AED" stroke="white" stroke-width="3"/>
<rect x="136.5" y="139.5" width="97" height="60" rx="8.5" fill="#8D3AED" stroke="white" stroke-width="3"/>
<path d="M47.5291 268.706C47.3667 269.518 47.8935 270.308 48.7058 270.471L61.9437 273.118C62.756 273.281 63.5462 272.754 63.7087 271.942C63.8712 271.129 63.3443 270.339 62.532 270.177L50.765 267.823L53.1184 256.056C53.2809 255.244 52.7541 254.454 51.9417 254.291C51.1294 254.129 50.3392 254.656 50.1767 255.468L47.5291 268.706ZM150.168 199.752L48.1679 267.752L49.832 270.248L151.832 202.248L150.168 199.752Z" fill="white"/>
<rect x="1.5" y="278.5" width="97" height="60" rx="8.5" fill="#8D3AED" stroke="white" stroke-width="3"/>
<path d="M52.9393 388.061C53.5251 388.646 54.4749 388.646 55.0607 388.061L64.6066 378.515C65.1924 377.929 65.1924 376.979 64.6066 376.393C64.0208 375.808 63.0711 375.808 62.4853 376.393L54 384.879L45.5147 376.393C44.9289 375.808 43.9792 375.808 43.3934 376.393C42.8076 376.979 42.8076 377.929 43.3934 378.515L52.9393 388.061ZM52.5 340L52.5 387L55.5 387L55.5 340L52.5 340Z" fill="white"/>
<path d="M40.6616 315.056H52.3096V318H37.2376V296.88H40.6616V315.056ZM58.9978 318.2C57.8245 318.2 56.8578 317.947 56.0978 317.44C55.3511 316.933 54.7578 316.2 54.3178 315.24L56.3178 314.2C56.5178 314.84 56.8178 315.367 57.2178 315.78C57.6311 316.18 58.2378 316.38 59.0378 316.38C59.5978 316.38 60.0711 316.28 60.4578 316.08C60.8578 315.867 61.1645 315.573 61.3778 315.2C61.5911 314.813 61.6978 314.353 61.6978 313.82C61.6978 313.26 61.5978 312.793 61.3978 312.42C61.1978 312.047 60.9111 311.767 60.5378 311.58C60.1645 311.38 59.6978 311.28 59.1378 311.28C58.7511 311.28 58.3911 311.32 58.0578 311.4C57.7245 311.48 57.4245 311.607 57.1578 311.78C56.8911 311.94 56.6578 312.153 56.4578 312.42L54.6978 312.08L55.4978 304.8H63.1778V306.64H57.1978L56.7178 310.36L56.6778 310.58H56.7178C57.0245 310.247 57.4178 309.987 57.8978 309.8C58.3911 309.613 58.9711 309.52 59.6378 309.52C60.4911 309.52 61.2245 309.7 61.8378 310.06C62.4511 310.407 62.9311 310.893 63.2778 311.52C63.6245 312.147 63.7978 312.873 63.7978 313.7C63.7978 314.42 63.6778 315.06 63.4378 315.62C63.1978 316.18 62.8578 316.653 62.4178 317.04C61.9778 317.427 61.4645 317.72 60.8778 317.92C60.3045 318.107 59.6778 318.2 58.9978 318.2Z" fill="white"/>
<rect x="1.5" y="388.5" width="97" height="60" rx="8.5" fill="#8D3AED" fill-opacity="0.5" stroke="white" stroke-width="3"/>
<path d="M53.468 406.88L45.628 428H41.628L33.788 406.88H37.436L42.364 420.928L43.644 425.12L44.924 420.96L49.852 406.88H53.468ZM55.5777 428V426.44C56.8444 425.533 57.9044 424.733 58.7577 424.04C59.6244 423.347 60.3177 422.707 60.8377 422.12C61.3577 421.533 61.7311 420.98 61.9577 420.46C62.1977 419.927 62.3177 419.387 62.3177 418.84C62.3177 418.133 62.0977 417.56 61.6577 417.12C61.2177 416.68 60.6044 416.46 59.8177 416.46C58.9911 416.46 58.3311 416.74 57.8377 417.3C57.3577 417.847 57.0844 418.6 57.0177 419.56L55.1577 418.7C55.2511 417.86 55.4977 417.133 55.8977 416.52C56.2977 415.907 56.8377 415.433 57.5177 415.1C58.2111 414.767 59.0111 414.6 59.9177 414.6C60.6644 414.6 61.3177 414.707 61.8777 414.92C62.4511 415.133 62.9311 415.433 63.3177 415.82C63.7044 416.193 63.9977 416.633 64.1977 417.14C64.4111 417.647 64.5177 418.187 64.5177 418.76C64.5177 419.6 64.3111 420.413 63.8977 421.2C63.4844 421.973 62.8311 422.767 61.9377 423.58C61.0444 424.393 59.8711 425.267 58.4177 426.2V426.24C58.5777 426.213 58.7977 426.2 59.0777 426.2C59.3577 426.187 59.6377 426.18 59.9177 426.18C60.1977 426.167 60.4244 426.16 60.5977 426.16H64.7577V428H55.5777Z" fill="white"/>
<path d="M186.494 20.88C188.755 20.88 190.547 21.4453 191.87 22.576C193.214 23.7067 193.886 25.232 193.886 27.152C193.886 29.136 193.214 30.672 191.87 31.76C190.547 32.8267 188.755 33.36 186.494 33.36L186.174 33.552H181.278V42H177.886V20.88H186.494ZM186.238 30.704C187.625 30.704 188.649 30.4267 189.31 29.872C189.993 29.296 190.334 28.4213 190.334 27.248C190.334 26.096 189.993 25.232 189.31 24.656C188.649 24.08 187.625 23.792 186.238 23.792H181.278V30.704H186.238ZM188.254 31.408L195.134 42H191.198L185.31 32.752L188.254 31.408Z" fill="white"/>
<path d="M172.173 180V158.88H180.493C183.032 158.88 184.888 159.392 186.061 160.416C187.234 161.44 187.821 162.859 187.821 164.672C187.821 165.781 187.501 166.773 186.861 167.648C186.221 168.501 185.282 169.045 184.045 169.28V169.312C185.41 169.525 186.466 170.091 187.213 171.008C187.981 171.904 188.365 172.949 188.365 174.144C188.365 175.957 187.704 177.387 186.381 178.432C185.058 179.477 183.138 180 180.621 180H172.173ZM175.533 177.152H180.781C182.125 177.152 183.128 176.875 183.789 176.32C184.472 175.765 184.813 174.987 184.813 173.984C184.813 172.981 184.472 172.203 183.789 171.648C183.128 171.093 182.125 170.816 180.781 170.816H175.533V177.152ZM175.533 167.968H180.237C182.925 167.968 184.269 166.933 184.269 164.864C184.269 162.795 182.925 161.76 180.237 161.76H175.533V167.968ZM191.625 180V178.44C192.891 177.533 193.951 176.733 194.805 176.04C195.671 175.347 196.365 174.707 196.885 174.12C197.405 173.533 197.778 172.98 198.005 172.46C198.245 171.927 198.365 171.387 198.365 170.84C198.365 170.133 198.145 169.56 197.705 169.12C197.265 168.68 196.651 168.46 195.865 168.46C195.038 168.46 194.378 168.74 193.885 169.3C193.405 169.847 193.131 170.6 193.065 171.56L191.205 170.7C191.298 169.86 191.545 169.133 191.945 168.52C192.345 167.907 192.885 167.433 193.565 167.1C194.258 166.767 195.058 166.6 195.965 166.6C196.711 166.6 197.365 166.707 197.925 166.92C198.498 167.133 198.978 167.433 199.365 167.82C199.751 168.193 200.045 168.633 200.245 169.14C200.458 169.647 200.565 170.187 200.565 170.76C200.565 171.6 200.358 172.413 199.945 173.2C199.531 173.973 198.878 174.767 197.985 175.58C197.091 176.393 195.918 177.267 194.465 178.2V178.24C194.625 178.213 194.845 178.2 195.125 178.2C195.405 178.187 195.685 178.18 195.965 178.18C196.245 178.167 196.471 178.16 196.645 178.16H200.805V180H191.625Z" fill="white"/>
</svg>
