<svg width="881" height="450" viewBox="0 0 881 450" fill="none" xmlns="http://www.w3.org/2000/svg">
<path d="M55.3137 406.88L47.4737 428H43.4737L35.6337 406.88H39.2817L44.2097 420.928L45.4897 425.12L46.7697 420.96L51.6977 406.88H55.3137ZM60.0834 428V418.94C60.0834 418.673 60.0834 418.4 60.0834 418.12C60.0968 417.827 60.1101 417.52 60.1234 417.2C59.6701 417.64 59.1501 418.02 58.5634 418.34C57.9901 418.647 57.3968 418.867 56.7834 419L56.3834 417.14C56.6634 417.1 56.9901 417.007 57.3634 416.86C57.7368 416.713 58.1234 416.527 58.5234 416.3C58.9234 416.073 59.2901 415.833 59.6234 415.58C59.9568 415.313 60.2168 415.053 60.4034 414.8H62.2034V428H60.0834Z" fill="white"/>
<path d="M442.939 134.061C443.525 134.646 444.475 134.646 445.061 134.061L454.607 124.515C455.192 123.929 455.192 122.979 454.607 122.393C454.021 121.808 453.071 121.808 452.485 122.393L444 130.879L435.515 122.393C434.929 121.808 433.979 121.808 433.393 122.393C432.808 122.979 432.808 123.929 433.393 124.515L442.939 134.061ZM442.5 60L442.5 133L445.5 133L445.5 60L442.5 60Z" fill="white"/>
<path d="M47.5291 267.706C47.3667 268.518 47.8935 269.308 48.7058 269.471L61.9437 272.118C62.756 272.281 63.5462 271.754 63.7087 270.942C63.8712 270.129 63.3443 269.339 62.532 269.177L50.765 266.823L53.1184 255.056C53.2809 254.244 52.7541 253.454 51.9417 253.291C51.1294 253.129 50.3392 253.656 50.1767 254.468L47.5291 267.706ZM150.168 198.752L48.1679 266.752L49.832 269.248L151.832 201.248L150.168 198.752Z" fill="white"/>
<path d="M200.663 132.32C200.287 133.058 200.582 133.961 201.32 134.337L213.353 140.457C214.091 140.833 214.994 140.539 215.37 139.801C215.745 139.062 215.451 138.159 214.713 137.784L204.017 132.343L209.457 121.647C209.833 120.909 209.539 120.006 208.801 119.63C208.062 119.255 207.159 119.549 206.784 120.287L200.663 132.32ZM419.535 60.5737L201.535 131.574L202.465 134.426L420.465 63.4263L419.535 60.5737Z" fill="white"/>
<path d="M688.687 134.333C689.424 133.954 689.713 133.049 689.333 132.313L683.149 120.313C682.769 119.576 681.865 119.287 681.128 119.667C680.392 120.046 680.103 120.951 680.482 121.687L685.979 132.354L675.313 137.851C674.576 138.231 674.287 139.135 674.667 139.872C675.046 140.608 675.951 140.897 676.687 140.518L688.687 134.333ZM465.543 63.4287L687.543 134.429L688.457 131.571L466.457 60.5713L465.543 63.4287Z" fill="white"/>
<rect x="392.5" y="1.5" width="97" height="60" rx="8.5" fill="#8D3AED" stroke="white" stroke-width="3"/>
<path d="M441.494 20.88C443.755 20.88 445.547 21.4453 446.87 22.576C448.214 23.7067 448.886 25.232 448.886 27.152C448.886 29.136 448.214 30.672 446.87 31.76C445.547 32.8267 443.755 33.36 441.494 33.36L441.174 33.552H436.278V42H432.886V20.88H441.494ZM441.238 30.704C442.625 30.704 443.649 30.4267 444.31 29.872C444.993 29.296 445.334 28.4213 445.334 27.248C445.334 26.096 444.993 25.232 444.31 24.656C443.649 24.08 442.625 23.792 441.238 23.792H436.278V30.704H441.238ZM443.254 31.408L450.134 42H446.198L440.31 32.752L443.254 31.408Z" fill="white"/>
<rect x="392.5" y="139.5" width="97" height="60" rx="8.5" fill="#8D3AED" stroke="white" stroke-width="3"/>
<rect x="637.5" y="139.5" width="97" height="60" rx="8.5" fill="#8D3AED" stroke="white" stroke-width="3"/>
<rect x="147.5" y="139.5" width="97" height="60" rx="8.5" fill="#8D3AED" stroke="white" stroke-width="3"/>
<rect x="1.5" y="277.5" width="97" height="60" rx="8.5" fill="#8D3AED" stroke="white" stroke-width="3"/>
<path d="M833.471 265.706C833.633 266.518 833.107 267.308 832.294 267.471L819.056 270.118C818.244 270.281 817.454 269.754 817.291 268.942C817.129 268.129 817.656 267.339 818.468 267.177L830.235 264.823L827.882 253.056C827.719 252.244 828.246 251.454 829.058 251.291C829.871 251.129 830.661 251.656 830.823 252.468L833.471 265.706ZM730.832 196.752L832.832 264.752L831.168 267.248L729.168 199.248L730.832 196.752Z" fill="white"/>
<rect x="-1.5" y="1.5" width="97" height="60" rx="8.5" transform="matrix(-1 0 0 1 878 276)" fill="#8D3AED" stroke="white" stroke-width="3"/>
<path d="M574.281 270.474C575.094 270.319 575.629 269.533 575.474 268.719L572.947 255.458C572.792 254.644 572.007 254.11 571.193 254.265C570.38 254.42 569.845 255.205 570 256.019L572.246 267.807L560.458 270.053C559.644 270.208 559.11 270.993 559.265 271.807C559.42 272.62 560.205 273.155 561.019 273L574.281 270.474ZM473.157 202.24L573.157 270.24L574.843 267.76L474.843 199.76L473.157 202.24Z" fill="white"/>
<path d="M304.529 268.706C304.367 269.518 304.893 270.308 305.706 270.471L318.944 273.118C319.756 273.281 320.546 272.754 320.709 271.942C320.871 271.129 320.344 270.339 319.532 270.177L307.765 267.823L310.118 256.056C310.281 255.244 309.754 254.454 308.942 254.291C308.129 254.129 307.339 254.656 307.177 255.468L304.529 268.706ZM407.168 199.752L305.168 267.752L306.832 270.248L408.832 202.248L407.168 199.752Z" fill="white"/>
<rect x="525.5" y="278.5" width="97" height="60" rx="8.5" fill="#8D3AED" stroke="white" stroke-width="3"/>
<rect x="258.5" y="278.5" width="97" height="60" rx="8.5" fill="#8D3AED" stroke="white" stroke-width="3"/>
<path d="M187.019 180V158.88H195.339C197.877 158.88 199.733 159.392 200.907 160.416C202.08 161.44 202.667 162.859 202.667 164.672C202.667 165.781 202.347 166.773 201.707 167.648C201.067 168.501 200.128 169.045 198.891 169.28V169.312C200.256 169.525 201.312 170.091 202.059 171.008C202.827 171.904 203.211 172.949 203.211 174.144C203.211 175.957 202.549 177.387 201.227 178.432C199.904 179.477 197.984 180 195.467 180H187.019ZM190.379 177.152H195.627C196.971 177.152 197.973 176.875 198.635 176.32C199.317 175.765 199.659 174.987 199.659 173.984C199.659 172.981 199.317 172.203 198.635 171.648C197.973 171.093 196.971 170.816 195.627 170.816H190.379V177.152ZM190.379 167.968H195.083C197.771 167.968 199.115 166.933 199.115 164.864C199.115 162.795 197.771 161.76 195.083 161.76H190.379V167.968ZM209.13 180V170.94C209.13 170.673 209.13 170.4 209.13 170.12C209.144 169.827 209.157 169.52 209.17 169.2C208.717 169.64 208.197 170.02 207.61 170.34C207.037 170.647 206.444 170.867 205.83 171L205.43 169.14C205.71 169.1 206.037 169.007 206.41 168.86C206.784 168.713 207.17 168.527 207.57 168.3C207.97 168.073 208.337 167.833 208.67 167.58C209.004 167.313 209.264 167.053 209.45 166.8H211.25V180H209.13Z" fill="white"/>
<path d="M433.173 180V158.88H441.493C444.032 158.88 445.888 159.392 447.061 160.416C448.234 161.44 448.821 162.859 448.821 164.672C448.821 165.781 448.501 166.773 447.861 167.648C447.221 168.501 446.282 169.045 445.045 169.28V169.312C446.41 169.525 447.466 170.091 448.213 171.008C448.981 171.904 449.365 172.949 449.365 174.144C449.365 175.957 448.704 177.387 447.381 178.432C446.058 179.477 444.138 180 441.621 180H433.173ZM436.533 177.152H441.781C443.125 177.152 444.128 176.875 444.789 176.32C445.472 175.765 445.813 174.987 445.813 173.984C445.813 172.981 445.472 172.203 444.789 171.648C444.128 171.093 443.125 170.816 441.781 170.816H436.533V177.152ZM436.533 167.968H441.237C443.925 167.968 445.269 166.933 445.269 164.864C445.269 162.795 443.925 161.76 441.237 161.76H436.533V167.968ZM452.625 180V178.44C453.891 177.533 454.951 176.733 455.805 176.04C456.671 175.347 457.365 174.707 457.885 174.12C458.405 173.533 458.778 172.98 459.005 172.46C459.245 171.927 459.365 171.387 459.365 170.84C459.365 170.133 459.145 169.56 458.705 169.12C458.265 168.68 457.651 168.46 456.865 168.46C456.038 168.46 455.378 168.74 454.885 169.3C454.405 169.847 454.131 170.6 454.065 171.56L452.205 170.7C452.298 169.86 452.545 169.133 452.945 168.52C453.345 167.907 453.885 167.433 454.565 167.1C455.258 166.767 456.058 166.6 456.965 166.6C457.711 166.6 458.365 166.707 458.925 166.92C459.498 167.133 459.978 167.433 460.365 167.82C460.751 168.193 461.045 168.633 461.245 169.14C461.458 169.647 461.565 170.187 461.565 170.76C461.565 171.6 461.358 172.413 460.945 173.2C460.531 173.973 459.878 174.767 458.985 175.58C458.091 176.393 456.918 177.267 455.465 178.2V178.24C455.625 178.213 455.845 178.2 456.125 178.2C456.405 178.187 456.685 178.18 456.965 178.18C457.245 178.167 457.471 178.16 457.645 178.16H461.805V180H452.625Z" fill="white"/>
<path d="M47.9393 387.061C48.5251 387.646 49.4749 387.646 50.0607 387.061L59.6066 377.515C60.1924 376.929 60.1924 375.979 59.6066 375.393C59.0208 374.808 58.0711 374.808 57.4853 375.393L49 383.879L40.5147 375.393C39.9289 374.808 38.9792 374.808 38.3934 375.393C37.8076 375.979 37.8076 376.929 38.3934 377.515L47.9393 387.061ZM47.5 339L47.5 386L50.5 386L50.5 339L47.5 339Z" fill="white"/>
<path d="M309.939 388.061C310.525 388.646 311.475 388.646 312.061 388.061L321.607 378.515C322.192 377.929 322.192 376.979 321.607 376.393C321.021 375.808 320.071 375.808 319.485 376.393L311 384.879L302.515 376.393C301.929 375.808 300.979 375.808 300.393 376.393C299.808 376.979 299.808 377.929 300.393 378.515L309.939 388.061ZM309.5 340L309.5 387L312.5 387L312.5 340L309.5 340Z" fill="white"/>
<path d="M575.939 388.061C576.525 388.646 577.475 388.646 578.061 388.061L587.607 378.515C588.192 377.929 588.192 376.979 587.607 376.393C587.021 375.808 586.071 375.808 585.485 376.393L577 384.879L568.515 376.393C567.929 375.808 566.979 375.808 566.393 376.393C565.808 376.979 565.808 377.929 566.393 378.515L575.939 388.061ZM575.5 340L575.5 387L578.5 387L578.5 340L575.5 340Z" fill="white"/>
<path d="M830.939 388.061C831.525 388.646 832.475 388.646 833.061 388.061L842.607 378.515C843.192 377.929 843.192 376.979 842.607 376.393C842.021 375.808 841.071 375.808 840.485 376.393L832 384.879L823.515 376.393C822.929 375.808 821.979 375.808 821.393 376.393C820.808 376.979 820.808 377.929 821.393 378.515L830.939 388.061ZM830.5 340L830.5 387L833.5 387L833.5 340L830.5 340Z" fill="white"/>
<path d="M297.662 316.056H309.31V319H294.238V297.88H297.662V316.056ZM315.998 319.2C314.824 319.2 313.858 318.947 313.098 318.44C312.351 317.933 311.758 317.2 311.318 316.24L313.318 315.2C313.518 315.84 313.818 316.367 314.218 316.78C314.631 317.18 315.238 317.38 316.038 317.38C316.598 317.38 317.071 317.28 317.458 317.08C317.858 316.867 318.164 316.573 318.378 316.2C318.591 315.813 318.698 315.353 318.698 314.82C318.698 314.26 318.598 313.793 318.398 313.42C318.198 313.047 317.911 312.767 317.538 312.58C317.164 312.38 316.698 312.28 316.138 312.28C315.751 312.28 315.391 312.32 315.058 312.4C314.724 312.48 314.424 312.607 314.158 312.78C313.891 312.94 313.658 313.153 313.458 313.42L311.698 313.08L312.498 305.8H320.178V307.64H314.198L313.718 311.36L313.678 311.58H313.718C314.024 311.247 314.418 310.987 314.898 310.8C315.391 310.613 315.971 310.52 316.638 310.52C317.491 310.52 318.224 310.7 318.838 311.06C319.451 311.407 319.931 311.893 320.278 312.52C320.624 313.147 320.798 313.873 320.798 314.7C320.798 315.42 320.678 316.06 320.438 316.62C320.198 317.18 319.858 317.653 319.418 318.04C318.978 318.427 318.464 318.72 317.878 318.92C317.304 319.107 316.678 319.2 315.998 319.2Z" fill="white"/>
<path d="M40.2612 316.056H51.9092V319H36.8372V297.88H40.2612V316.056ZM60.1774 319V315.7H53.7374V314.24C53.7641 314.173 53.8041 314.093 53.8574 314C53.9241 313.907 53.9974 313.8 54.0774 313.68L59.5774 305.8H62.1974V314.04H64.4374V315.7H62.1974V319H60.1774ZM55.7374 314.04H60.1774V309.38C60.1774 309.06 60.1841 308.733 60.1974 308.4C60.2241 308.053 60.2441 307.713 60.2574 307.38H60.2174C60.0708 307.7 59.8774 308.053 59.6374 308.44C59.4108 308.813 59.1974 309.14 58.9974 309.42L55.8774 313.86C55.8508 313.887 55.8241 313.913 55.7974 313.94C55.7841 313.967 55.7641 314 55.7374 314.04Z" fill="white"/>
<path d="M564.369 316.056H576.017V319H560.945V297.88H564.369V316.056ZM583.545 305.6C584.252 305.6 584.878 305.7 585.425 305.9C585.972 306.087 586.445 306.387 586.845 306.8C587.258 307.213 587.598 307.753 587.865 308.42L585.985 309.32C585.798 308.747 585.498 308.293 585.085 307.96C584.685 307.627 584.125 307.46 583.405 307.46C582.885 307.46 582.425 307.587 582.025 307.84C581.625 308.093 581.285 308.453 581.005 308.92C580.725 309.373 580.512 309.913 580.365 310.54C580.218 311.153 580.145 311.82 580.145 312.54C580.145 312.58 580.145 312.627 580.145 312.68C580.145 312.72 580.145 312.793 580.145 312.9L580.225 312.94C580.372 312.407 580.632 311.98 581.005 311.66C581.392 311.327 581.825 311.08 582.305 310.92C582.785 310.76 583.258 310.68 583.725 310.68C584.605 310.68 585.372 310.853 586.025 311.2C586.678 311.533 587.185 312.013 587.545 312.64C587.918 313.267 588.105 314.013 588.105 314.88C588.105 315.76 587.912 316.527 587.525 317.18C587.138 317.82 586.598 318.32 585.905 318.68C585.225 319.027 584.405 319.2 583.445 319.2C582.325 319.2 581.372 318.92 580.585 318.36C579.798 317.8 579.198 317.013 578.785 316C578.372 314.987 578.165 313.8 578.165 312.44C578.165 310.933 578.398 309.673 578.865 308.66C579.345 307.647 579.992 306.887 580.805 306.38C581.618 305.86 582.532 305.6 583.545 305.6ZM583.405 312.46C582.898 312.46 582.452 312.567 582.065 312.78C581.678 312.98 581.372 313.26 581.145 313.62C580.932 313.98 580.825 314.4 580.825 314.88C580.825 315.347 580.938 315.767 581.165 316.14C581.405 316.513 581.718 316.813 582.105 317.04C582.492 317.253 582.925 317.36 583.405 317.36C584.218 317.36 584.852 317.14 585.305 316.7C585.758 316.26 585.985 315.653 585.985 314.88C585.985 314.387 585.885 313.96 585.685 313.6C585.485 313.227 585.192 312.947 584.805 312.76C584.432 312.56 583.965 312.46 583.405 312.46Z" fill="white"/>
<path d="M822.73 316.056H834.378V319H819.306V297.88H822.73V316.056ZM836.086 305.8H846.146V307.58C845.04 308.727 844.146 309.907 843.466 311.12C842.786 312.32 842.293 313.573 841.986 314.88C841.693 316.173 841.546 317.547 841.546 319H839.386C839.386 317.533 839.566 316.107 839.926 314.72C840.3 313.32 840.86 311.987 841.606 310.72C842.366 309.44 843.32 308.24 844.466 307.12L844.866 307.66H836.086V305.8Z" fill="white"/>
<rect x="1.5" y="387.5" width="97" height="60" rx="8.5" fill="#8D3AED" fill-opacity="0.5" stroke="white" stroke-width="3"/>
<path d="M55.3137 406.88L47.4737 428H43.4737L35.6337 406.88H39.2817L44.2097 420.928L45.4897 425.12L46.7697 420.96L51.6977 406.88H55.3137ZM60.0834 428V418.94C60.0834 418.673 60.0834 418.4 60.0834 418.12C60.0968 417.827 60.1101 417.52 60.1234 417.2C59.6701 417.64 59.1501 418.02 58.5634 418.34C57.9901 418.647 57.3968 418.867 56.7834 419L56.3834 417.14C56.6634 417.1 56.9901 417.007 57.3634 416.86C57.7368 416.713 58.1234 416.527 58.5234 416.3C58.9234 416.073 59.2901 415.833 59.6234 415.58C59.9568 415.313 60.2168 415.053 60.4034 414.8H62.2034V428H60.0834Z" fill="white"/>
<rect x="-1.5" y="1.5" width="97" height="60" rx="8.5" transform="matrix(-1 0 0 1 878 386)" fill="#8D3AED" fill-opacity="0.5" stroke="white" stroke-width="3"/>
<rect x="525.5" y="388.5" width="97" height="60" rx="8.5" fill="#8D3AED" fill-opacity="0.5" stroke="white" stroke-width="3"/>
<rect x="258.5" y="388.5" width="97" height="60" rx="8.5" fill="#8D3AED" fill-opacity="0.5" stroke="white" stroke-width="3"/>
<path d="M577.478 407.88L569.638 429H565.638L557.798 407.88H561.446L566.374 421.928L567.654 426.12L568.934 421.96L573.862 407.88H577.478ZM584.048 429.2C582.808 429.2 581.728 428.927 580.808 428.38C579.901 427.82 579.281 427.04 578.948 426.04L581.028 425.06C581.148 425.54 581.334 425.953 581.588 426.3C581.841 426.647 582.174 426.913 582.588 427.1C583.001 427.273 583.514 427.36 584.128 427.36C584.648 427.36 585.088 427.267 585.448 427.08C585.808 426.893 586.081 426.633 586.268 426.3C586.468 425.967 586.568 425.587 586.568 425.16C586.568 424.72 586.481 424.353 586.308 424.06C586.148 423.767 585.888 423.553 585.528 423.42C585.181 423.287 584.734 423.22 584.188 423.22C584.028 423.22 583.861 423.227 583.688 423.24C583.528 423.24 583.354 423.253 583.168 423.28V421.48C583.288 421.493 583.401 421.507 583.508 421.52C583.628 421.52 583.741 421.52 583.848 421.52C584.714 421.52 585.334 421.347 585.708 421C586.081 420.653 586.268 420.113 586.268 419.38C586.268 418.753 586.074 418.273 585.688 417.94C585.314 417.607 584.774 417.44 584.067 417.44C583.334 417.44 582.761 417.613 582.348 417.96C581.948 418.293 581.641 418.78 581.428 419.42L579.468 418.6C579.654 417.987 579.968 417.453 580.408 417C580.848 416.547 581.388 416.2 582.028 415.96C582.681 415.707 583.394 415.58 584.168 415.58C585.114 415.58 585.901 415.733 586.528 416.04C587.168 416.347 587.641 416.767 587.948 417.3C588.268 417.833 588.428 418.427 588.428 419.08C588.428 419.587 588.354 420.033 588.208 420.42C588.061 420.793 587.861 421.12 587.608 421.4C587.368 421.667 587.101 421.873 586.808 422.02C586.528 422.167 586.241 422.267 585.948 422.32V422.36C586.334 422.373 586.688 422.453 587.008 422.6C587.341 422.733 587.634 422.927 587.888 423.18C588.154 423.42 588.361 423.713 588.508 424.06C588.654 424.407 588.728 424.787 588.728 425.2C588.728 426 588.528 426.7 588.128 427.3C587.728 427.9 587.174 428.367 586.468 428.7C585.774 429.033 584.968 429.2 584.048 429.2Z" fill="white"/>
<path d="M835.116 406.88L827.276 428H823.276L815.436 406.88H819.084L824.012 420.928L825.292 425.12L826.572 420.96L831.5 406.88H835.116ZM843.146 428V424.7H836.706V423.24C836.733 423.173 836.773 423.093 836.826 423C836.893 422.907 836.966 422.8 837.046 422.68L842.546 414.8H845.166V423.04H847.406V424.7H845.166V428H843.146ZM838.706 423.04H843.146V418.38C843.146 418.06 843.153 417.733 843.166 417.4C843.193 417.053 843.213 416.713 843.226 416.38H843.186C843.04 416.7 842.846 417.053 842.606 417.44C842.38 417.813 842.166 418.14 841.966 418.42L838.846 422.86C838.82 422.887 838.793 422.913 838.766 422.94C838.753 422.967 838.733 423 838.706 423.04Z" fill="white"/>
<path d="M678.183 180V158.88H686.503C689.042 158.88 690.898 159.392 692.071 160.416C693.244 161.44 693.831 162.859 693.831 164.672C693.831 165.781 693.511 166.773 692.871 167.648C692.231 168.501 691.292 169.045 690.055 169.28V169.312C691.42 169.525 692.476 170.091 693.223 171.008C693.991 171.904 694.375 172.949 694.375 174.144C694.375 175.957 693.714 177.387 692.391 178.432C691.068 179.477 689.148 180 686.631 180H678.183ZM681.543 177.152H686.791C688.135 177.152 689.138 176.875 689.799 176.32C690.482 175.765 690.823 174.987 690.823 173.984C690.823 172.981 690.482 172.203 689.799 171.648C689.138 171.093 688.135 170.816 686.791 170.816H681.543V177.152ZM681.543 167.968H686.247C688.935 167.968 690.279 166.933 690.279 164.864C690.279 162.795 688.935 161.76 686.247 161.76H681.543V167.968ZM702.094 180.2C700.854 180.2 699.774 179.927 698.854 179.38C697.948 178.82 697.328 178.04 696.994 177.04L699.074 176.06C699.194 176.54 699.381 176.953 699.634 177.3C699.888 177.647 700.221 177.913 700.634 178.1C701.048 178.273 701.561 178.36 702.174 178.36C702.694 178.36 703.134 178.267 703.494 178.08C703.854 177.893 704.128 177.633 704.314 177.3C704.514 176.967 704.614 176.587 704.614 176.16C704.614 175.72 704.528 175.353 704.354 175.06C704.194 174.767 703.934 174.553 703.574 174.42C703.228 174.287 702.781 174.22 702.234 174.22C702.074 174.22 701.908 174.227 701.734 174.24C701.574 174.24 701.401 174.253 701.214 174.28V172.48C701.334 172.493 701.448 172.507 701.554 172.52C701.674 172.52 701.788 172.52 701.894 172.52C702.761 172.52 703.381 172.347 703.754 172C704.128 171.653 704.314 171.113 704.314 170.38C704.314 169.753 704.121 169.273 703.734 168.94C703.361 168.607 702.821 168.44 702.114 168.44C701.381 168.44 700.808 168.613 700.394 168.96C699.994 169.293 699.688 169.78 699.474 170.42L697.514 169.6C697.701 168.987 698.014 168.453 698.454 168C698.894 167.547 699.434 167.2 700.074 166.96C700.728 166.707 701.441 166.58 702.214 166.58C703.161 166.58 703.948 166.733 704.574 167.04C705.214 167.347 705.688 167.767 705.994 168.3C706.314 168.833 706.474 169.427 706.474 170.08C706.474 170.587 706.401 171.033 706.254 171.42C706.108 171.793 705.908 172.12 705.654 172.4C705.414 172.667 705.148 172.873 704.854 173.02C704.574 173.167 704.288 173.267 703.994 173.32V173.36C704.381 173.373 704.734 173.453 705.054 173.6C705.388 173.733 705.681 173.927 705.934 174.18C706.201 174.42 706.408 174.713 706.554 175.06C706.701 175.407 706.774 175.787 706.774 176.2C706.774 177 706.574 177.7 706.174 178.3C705.774 178.9 705.221 179.367 704.514 179.7C703.821 180.033 703.014 180.2 702.094 180.2Z" fill="white"/>
<path d="M310.468 406.88L302.628 428H298.628L290.788 406.88H294.436L299.364 420.928L300.644 425.12L301.924 420.96L306.852 406.88H310.468ZM312.578 428V426.44C313.844 425.533 314.904 424.733 315.758 424.04C316.624 423.347 317.318 422.707 317.838 422.12C318.358 421.533 318.731 420.98 318.958 420.46C319.198 419.927 319.318 419.387 319.318 418.84C319.318 418.133 319.098 417.56 318.658 417.12C318.218 416.68 317.604 416.46 316.818 416.46C315.991 416.46 315.331 416.74 314.838 417.3C314.358 417.847 314.084 418.6 314.018 419.56L312.158 418.7C312.251 417.86 312.498 417.133 312.898 416.52C313.298 415.907 313.838 415.433 314.518 415.1C315.211 414.767 316.011 414.6 316.918 414.6C317.664 414.6 318.318 414.707 318.878 414.92C319.451 415.133 319.931 415.433 320.318 415.82C320.704 416.193 320.998 416.633 321.198 417.14C321.411 417.647 321.518 418.187 321.518 418.76C321.518 419.6 321.311 420.413 320.898 421.2C320.484 421.973 319.831 422.767 318.938 423.58C318.044 424.393 316.871 425.267 315.418 426.2V426.24C315.578 426.213 315.798 426.2 316.078 426.2C316.358 426.187 316.638 426.18 316.918 426.18C317.198 426.167 317.424 426.16 317.598 426.16H321.758V428H312.578Z" fill="white"/>
</svg>
