<?xml version="1.0" encoding="UTF-8" standalone="no"?>
<!-- Created with Inkscape (http://www.inkscape.org/) -->

<svg
   width="1300"
   height="800"
   viewBox="0 0 1300 800"
   version="1.1"
   id="svg5"
   xmlns="http://www.w3.org/2000/svg"
   xmlns:svg="http://www.w3.org/2000/svg">
  <defs
     id="defs2">
    <rect
       x="934.88354"
       y="657.03058"
       width="369.97"
       height="149.33202"
       id="rect759" />
    <rect
       x="645.42542"
       y="646.08636"
       width="555.11298"
       height="115.3587"
       id="rect753" />
    <rect
       x="1372.6157"
       y="43.408382"
       width="465.27634"
       height="119.77076"
       id="rect747" />
    <rect
       x="757.20294"
       y="73.130806"
       width="206.1671"
       height="90.923401"
       id="rect685" />
    <rect
       x="143.54713"
       y="69.114738"
       width="193.40691"
       height="73.987434"
       id="rect667" />
  </defs>
  <g
     id="layer1">
    <path
       style="fill:none;stroke:#ffffff;stroke-width:4;stroke-linecap:butt;stroke-linejoin:miter;stroke-dasharray:none;stroke-opacity:1"
       d="m 188.23689,172.0522 c -1.42968,1.92999 -2.85936,3.85999 -4.28904,5.78999 0.0546,0.33518 -0.47409,-0.1676 -0.53616,0 -0.32273,0.87143 -0.17867,2.94041 -0.17867,1.93001 0,-4.3425 -0.15188,-8.68766 0,-13.02751 0.32416,-9.26262 2.07117,-18.44206 2.85935,-27.66333 0.63794,-7.4635 0.73911,-15.02796 0.53615,-22.51662 -0.0307,-1.13321 -0.99269,-3.6393 0.71483,-4.18166 3.18562,-1.01185 6.42387,-1.0107 9.65039,-0.32168 4.77142,1.01893 9.23261,2.70182 13.22457,5.62914 6.10271,4.47514 14.39347,11.98921 19.65818,18.01333 2.04763,2.34297 7.41037,8.31527 6.61229,12.54502 -0.2546,1.34933 -1.96089,2.01812 -3.21678,2.57333 -7.684,3.39698 -18.22461,2.39575 -26.44919,1.60833 -1.98497,-0.19005 -4.06551,-0.69106 -6.07617,-0.80417 -0.59476,-0.0334 -1.45665,-0.49564 -1.78709,0 -0.32544,0.48814 0.40592,1.10957 0.71482,1.60833 1.71987,2.77695 3.44295,5.55878 5.36135,8.20248 3.40052,4.68614 8.77935,10.72567 12.68842,14.95751 1.86672,2.02085 3.58094,4.21928 5.71874,5.95083 3.65344,2.95916 6.7452,4.31651 10.90138,5.78998 0.58156,0.20618 1.21296,0.25643 1.78709,0.48249 6.46149,2.54409 12.72755,5.58579 18.76459,9.00668"
       id="path134" />
    <path
       style="fill:none;stroke:#ffffff;stroke-width:4;stroke-linecap:butt;stroke-linejoin:miter;stroke-dasharray:none;stroke-opacity:1"
       d="m 201.28279,218.0505 c -1.25098,2.14445 -2.19411,4.50107 -3.75294,6.43335 -1.63294,2.02415 -3.78561,3.56772 -5.71874,5.30746 -4.1766,3.75878 -8.3939,7.47408 -12.68846,11.09749 -1.18295,0.99808 -2.55706,1.75156 -3.75289,2.73418 -4.15683,3.41567 0.46804,0.0612 -5.18264,5.14666 -2.48313,2.23474 -5.05038,4.37879 -7.68454,6.43335 -3.62951,2.83091 -7.66305,5.02548 -11.25877,7.8808 -0.69975,0.55566 -1.50474,0.98455 -2.14452,1.60832 -1.58762,1.54789 -1.93082,2.43345 -3.3955,4.3425 -1.04482,1.36181 -2.09977,2.71767 -3.21683,4.02087 -1.34913,1.34909 -1.82978,1.76677 -3.03807,3.21665 -0.69105,0.82922 -1.25397,1.76188 -1.9658,2.57333 -2.60134,2.96538 -5.43941,5.7323 -8.2207,8.52416 -3.80038,3.81483 1.73347,-1.65179 -2.85939,2.89502 -0.11519,0.11403 -0.67582,0.41727 -0.71483,0.48248 -1.19298,1.99392 -1.62965,4.40954 -2.32324,6.59415 -0.171,0.53861 -0.22263,1.13813 -0.53611,1.60832 -0.53598,0.80395 -1.30201,1.69568 -1.96585,2.41254 -0.66985,0.72336 -1.00307,1.62943 -1.60837,2.41249 -0.60934,0.7883 -1.26831,1.54019 -1.96584,2.25165 -0.22443,0.2289 -1.02188,0.55123 -0.71483,0.64332 1.8259,0.54761 3.81249,0 5.71874,0"
       id="path136" />
    <path
       style="fill:none;stroke:#ffffff;stroke-width:4;stroke-linecap:butt;stroke-linejoin:miter;stroke-dasharray:none;stroke-opacity:1"
       d="m 75.470477,371.9679 c 0.11914,-5.20028 0.40813,-10.39944 0.35743,-15.60083 -0.0793,-8.13572 -0.11356,-20.39552 -1.78713,-29.43246 -0.50249,-2.71335 -1.22722,-5.38287 -1.9658,-8.04168 -0.28276,-1.01789 -0.84157,-2.2639 -1.4297,-3.21665 -0.18018,-0.29189 -0.69761,-0.92127 -0.35739,-0.96501 1.24075,-0.15951 2.50375,-0.0675 3.75289,0 7.36517,0.39769 14.73779,2.26776 20.90916,6.43331 1.07184,0.72347 2.03319,1.59861 3.03807,2.41253 0.005,0.004 0.66351,0.35677 0.53615,0.64333 -2.85473,6.423 -9.84496,10.29945 -16.08396,12.70581 -1.21856,0.47 -2.51267,0.71658 -3.75294,1.12585 -0.54141,0.17866 -2.14452,0.69768 -2.14452,1.1258 0,0.0596 0.13602,-0.0415 0.17872,0 2.17369,2.11488 4.28904,4.28891 6.43356,6.43336 3.37586,3.37572 6.37998,6.32694 9.6504,9.8108 2.29629,2.44616 7.18917,7.51502 7.863263,10.77581 0.17195,0.83177 -1.682623,0.25872 -2.501953,0.48257 -2.51975,0.6884 -5.02976,1.41968 -7.50583,2.2516 -1.99466,0.67018 -3.83456,1.8367 -5.89746,2.2517 -3.04816,0.6132 -6.19531,0.53611 -9.29296,0.80416 z"
       id="path138" />
    <path
       style="fill:none;stroke:#ffffff;stroke-width:4;stroke-linecap:butt;stroke-linejoin:miter;stroke-dasharray:none;stroke-opacity:1"
       d="m 108.88938,357.81459 c 2.68066,-1.55472 5.61875,-2.73259 8.04198,-4.66418 1.80834,-1.44145 2.92543,-3.58441 4.46777,-5.3075 0.19172,-0.2142 0.57521,-0.73378 0.71482,-0.48249 0.2864,0.51552 0,1.17945 0,1.76917 0,1.01861 -0.0276,2.03759 0,3.05582 0.0916,3.37837 0.43354,6.75377 0.35744,10.13253 -0.0695,3.08693 -0.81113,12.94659 -1.25098,18.01328 -0.15259,1.75766 0.24136,6.80976 -1.25098,6.27251 -0.82926,-0.29854 1.14728,-3.74599 1.60841,-4.82498"
       id="path140" />
    <path
       style="fill:none;stroke:#ffffff;stroke-width:4;stroke-linecap:butt;stroke-linejoin:miter;stroke-dasharray:none;stroke-opacity:1"
       d="m 214.14997,229.95215 c -0.83399,1.98361 -1.66797,3.96722 -2.50196,5.95083 -0.0596,0.0536 -0.17189,0.081 -0.17872,0.16084 -0.21452,2.50973 0.67038,6.08413 1.60837,8.36332 0.33492,0.8138 0.77686,1.58354 1.07231,2.41249 0.71845,2.01581 1.42274,4.04171 1.9658,6.11167 0.70536,2.68858 1.4909,8.20127 1.96581,10.93665 0.55959,3.22315 1.24738,6.42347 1.78708,9.65001 4.13743,24.73476 0.43374,1.88214 1.96585,13.83166 0.0436,0.34024 0.29494,0.62772 0.35739,0.96501 0.20526,1.10856 0.21724,2.25074 0.17872,3.37749 -0.14127,4.1325 -0.55086,8.25247 -0.71482,12.38414 -0.0483,1.21676 0.0273,5.24749 -0.17872,6.91583 -0.01,0.0795 -0.16412,0.082 -0.17872,0.16084 -0.3431,1.85263 -0.17872,3.75703 -0.17872,5.62919 0,0.10723 0.007,-0.2147 0,-0.32168 -0.11194,-1.66244 -0.23826,-3.32388 -0.35739,-4.98582"
       id="path142" />
    <path
       style="fill:none;stroke:#ffffff;stroke-width:4;stroke-linecap:butt;stroke-linejoin:miter;stroke-dasharray:none;stroke-opacity:1"
       d="m 177.87167,375.02376 c -1.69477,-2.97066 1.76684,-10.81424 1.07226,-15.44 -1.08216,-7.20701 -0.7964,-2.82318 -3.03807,-11.41917 -0.77541,-2.97346 -1.39752,-5.98678 -1.9658,-9.00669 -0.68313,-3.63018 -1.21467,-7.28737 -1.78713,-10.93665 -0.20025,-1.27655 -0.63769,-2.59858 -0.35739,-3.85997 0.0434,-0.19539 0.19726,-0.36244 0.35739,-0.48253 0.91995,-0.68993 1.74473,-1.64739 2.85939,-1.92996 8.03682,-2.03742 13.97283,-1.84393 21.44527,1.28664 2.3042,0.96534 9.56325,5.32645 9.82907,7.55916 0.27718,2.3281 -2.69203,7.06216 -3.3955,8.04167 -2.00032,2.78525 -4.39032,5.269 -6.61229,7.88084 -0.80048,0.94094 -1.3396,2.3157 -2.50195,2.73413 -3.29517,1.18622 -6.76723,1.81586 -10.18651,2.57333 -1.23917,0.27452 -2.50227,0.42693 -3.75289,0.64337 -1.31597,0.22775 -1.47797,0.2782 -1.4297,0.32164 0.33221,0.29898 0.84924,0.28668 1.25098,0.48252 1.02998,0.5021 2.00123,1.12057 3.03807,1.60833 5.68157,2.6728 5.79321,2.3551 12.68846,4.66414 2.50802,0.83987 5.09386,1.48804 7.50583,2.57338 1.78226,0.80198 3.38399,1.96238 5.00391,3.05577 0.32661,0.22045 1.67499,1.96194 1.4297,2.25169 -0.87487,1.03341 -2.2697,1.56731 -3.57422,1.93001 -32.98514,9.17105 -6.36369,1.16545 -27.87888,5.46835 -3.32101,0.66418 -6.55372,1.71167 -9.82907,2.57328 -0.59672,0.15698 -2.20057,0.94047 -1.78709,0.48249 1.14408,-1.26721 2.74022,-2.03718 4.11033,-3.05577"
       id="path144" />
    <path
       style="fill:none;stroke:#ffffff;stroke-width:4;stroke-linecap:butt;stroke-linejoin:miter;stroke-dasharray:none;stroke-opacity:1"
       d="m 243.99461,371.32453 c -3.29182,2.16185 -10.66403,7.26413 -14.29683,8.52421 -3.03447,1.05254 -6.28432,1.37347 -9.47168,1.76912 -0.33592,0.0417 -0.87378,-0.14456 -0.89354,-0.48248 -0.12631,-2.15968 2.42491,-5.22584 3.3955,-6.43331 1.32134,-1.64383 4.77983,-5.26682 6.61228,-6.59419 5.10136,-3.69526 12.76685,-5.57615 14.65427,3.21665 1.04708,4.87798 -2.51546,13.37958 -4.28905,17.37001 -0.8469,1.90547 -2.1055,3.60329 -3.03806,5.46834 -2.05541,4.11067 -1.34984,3.14996 -2.50196,6.43331 -0.28852,0.82225 -0.63546,1.12585 -0.35744,1.12585 0.72284,0 1.42541,-0.24842 2.14453,-0.32168 2.43915,-0.2485 4.87867,-0.51616 7.32715,-0.64328 3.74942,-0.19467 7.50953,-0.51901 11.25881,-0.32169 6.45672,0.33982 12.85879,1.37648 19.3007,1.93001 5.41391,0.46521 10.84176,0.75057 16.26264,1.12585"
       id="path146" />
    <path
       style="fill:none;stroke:#ffffff;stroke-width:4;stroke-linecap:butt;stroke-linejoin:miter;stroke-dasharray:none;stroke-opacity:1"
       d="m 272.94575,251.98629 c -1.90626,-1.87638 -3.9113,-3.65743 -5.71878,-5.62914 -0.18556,-0.20241 -0.0453,-0.56413 -0.17868,-0.80416 -0.0634,-0.11422 -0.27966,-0.0559 -0.35743,-0.16085 -0.76707,-1.03549 -1.37746,-2.18115 -2.14453,-3.21665 -1.60165,-2.16215 -2.57701,-3.1369 -4.28904,-4.98582 -1.0103,-1.09109 -1.54368,-2.29348 -1.25098,-2.09085 0.82779,0.57304 1.502,1.34767 2.32328,1.93001 2.46729,1.74945 5.1616,3.15681 7.68455,4.82498 5.22163,3.45252 10.19019,7.27104 15.01166,11.25833 0.961,0.79474 1.88729,1.63137 2.85939,2.41249 0.29427,0.23646 2.92379,2.08323 3.3955,2.73417 0.57579,0.79458 0.93084,1.72831 1.42966,2.57334 2.38231,4.03578 4.76427,8.27011 7.50587,12.06249 4.79976,6.63939 10.05926,12.93448 15.01166,19.46081 1.43433,1.89019 1.1366,1.86684 2.85939,3.69918 0.61883,0.65818 0.11895,-0.45598 0.71487,0.48248 2.1134,3.32827 3.93282,6.86767 5.89746,10.29333 0.54362,0.9479 1.79552,2.31386 2.32319,3.05586 0.78522,1.10415 1.52381,2.39935 2.50196,3.37749 0.14736,0.14736 0.39084,0.17223 0.53611,0.32164 2.66772,2.74379 0.036,0.354 0.89354,1.12585 0.21368,0.19232 0.70423,0.76977 0.71487,0.48248 0.12105,-3.26803 0,-6.54054 0,-9.8108"
       id="path148" />
    <path
       style="fill:none;stroke:#ffffff;stroke-width:4;stroke-linecap:butt;stroke-linejoin:miter;stroke-dasharray:none;stroke-opacity:1"
       d="m 314.22788,373.09375 c -1.07225,-3.96722 -2.20721,-7.91802 -3.21675,-11.90166 -1.15586,-4.56103 -4.24707,-20.40161 -4.4678,-21.55166 -0.16323,-0.85049 -0.25132,-1.71385 -0.35744,-2.57333 -0.0131,-0.10642 -0.087,-0.25904 0,-0.32169 1.77722,-1.27951 3.87186,-2.06274 5.89746,-2.89497 5.33976,-2.19386 12.1791,-3.87052 17.15627,0.1608 2.26513,1.83467 -5.94437,9.06917 -7.50587,10.61501 -0.47286,0.46812 -1.933,2.17286 -1.78709,2.25165 0.57479,0.31036 1.22992,0.46318 1.78709,0.80416 3.71358,2.27266 6.08551,5.63315 8.22065,9.32837 0.71739,1.24155 1.25731,2.15346 1.07231,3.85998 -0.14029,1.29406 -0.68872,2.52519 -1.25098,3.69913 -2.24403,4.68532 -2.59665,5.75438 -6.61233,8.20252 -0.65186,0.39741 -1.38157,0.7767 -2.14452,0.80417 -2.26791,0.0816 -4.86003,-1.6747 -6.791,-0.48248 -3.73074,2.30342 -5.71873,6.64776 -8.57809,9.97164"
       id="path150" />
    <path
       style="fill:none;stroke:#ffffff;stroke-width:4;stroke-linecap:butt;stroke-linejoin:miter;stroke-dasharray:none;stroke-opacity:1"
       d="m 352.65069,366.01707 c 4.28598,-0.22042 7.13298,-1.00849 11.08005,0.96496 1.25871,0.62933 2.15457,1.81113 3.21683,2.73418 1.97548,1.71658 4.05381,3.10994 3.21674,6.59419 -0.43936,1.82881 -5.24247,8.72835 -6.791,11.09749 -0.31024,0.47464 -0.57901,0.97573 -0.89355,1.44753 -0.0444,0.0667 -0.25791,0.14892 -0.17867,0.1608 1.12433,0.16863 2.26833,0.17324 3.3955,0.32168 1.3166,0.17339 2.61376,0.4797 3.93161,0.64328 5.13345,0.63722 8.09169,0.21843 12.86714,2.73418 3.25703,1.71582 -2.71152,11.74933 -3.03807,12.22333 -5.94705,8.63251 -12.9775,15.27561 -22.33877,19.94338 -1.83341,0.91419 -3.81252,1.50107 -5.71878,2.25161"
       id="path152" />
    <path
       style="fill:none;stroke:#ffffff;stroke-width:4;stroke-linecap:butt;stroke-linejoin:miter;stroke-dasharray:none;stroke-opacity:1"
       d="m 104.95773,401.40036 c 0.33546,12.24261 -2.31512,24.08898 -4.64648,36.02665 -0.794953,4.07049 -1.423523,8.17471 -2.323243,12.22333 -0.99932,4.49677 -2.51006,8.86732 -3.57418,13.34919 -0.92732,3.90573 -1.89103,7.8049 -2.68067,11.74077 -0.81371,4.05586 -0.70776,8.34419 -2.14452,12.22334 -0.0557,0.15031 -0.32825,0.16407 -0.35744,0.32168 -0.0488,0.26357 0,0.53611 0,0.80417 0,0.16082 -0.14302,0.40893 0,0.48248 6.90466,3.55075 -3.14186,-3.47316 5.89746,3.37754"
       id="path154" />
    <path
       style="fill:none;stroke:#ffffff;stroke-width:4;stroke-linecap:butt;stroke-linejoin:miter;stroke-dasharray:none;stroke-opacity:1"
       d="m 34.545744,524.9203 c -5.825042,11.45545 -4.110882,7.46313 -8.935525,19.46081 -3.418006,8.49973 -1.775555,4.63293 -4.467763,11.90166 -0.529339,1.42917 -1.462828,3.25278 -1.608413,4.82498 -0.103809,1.12105 0.09589,2.25578 0,3.37754 -0.0068,0.0798 -0.162849,0.0823 -0.178718,0.16079 -0.108331,0.53625 -0.432513,3.96175 -0.178674,4.34251 0.10349,0.15523 0.351064,-0.13701 0.536109,-0.1608 1.068813,-0.13741 2.143187,-0.22878 3.216784,-0.32169 6.023117,-0.5212 7.573901,-0.41718 13.93944,-1.60832 11.024616,-2.06297 21.890056,-5.32156 33.061463,-6.5942 0.31321,-0.0357 8.58666,-0.43281 10.18651,-0.48248 0.8278,-0.0257 1.28189,0.14698 1.9658,-0.1608 0.17016,-0.0766 0.53616,-0.34747 0.53616,-0.16088 0,0.34304 -0.43967,1.29808 -0.35744,0.96505 0.32012,-1.29646 0.71484,-2.57335 1.07226,-3.86002"
       id="path164" />
    <path
       style="fill:none;stroke:#ffffff;stroke-width:4;stroke-linecap:butt;stroke-linejoin:miter;stroke-dasharray:none;stroke-opacity:1"
       d="m 105.6726,530.54944 c -1.6084,2.41252 -3.52373,4.64655 -4.8252,7.23756 -0.69262,1.37889 -0.75065,2.99412 -1.072263,4.5033 -0.51253,2.40511 -1.01813,4.81305 -1.4297,7.23747 -0.48664,2.8667 -1.5137,7.87344 0.17872,10.61502 0.49378,0.79987 1.958693,0.32168 2.501963,0.32168 2.16071,0 6.49555,0.0984 8.57809,-0.32168 2.01184,-0.40582 3.94501,-1.13657 5.89746,-1.76913 5.24308,-1.69868 0.91216,-0.4667 5.54002,-2.25169 0.40171,-0.15495 1.11482,-0.73015 1.25098,-0.32168 0.21696,0.65083 -0.57764,1.25782 -0.71483,1.93 -0.4011,1.96534 -0.59572,3.96722 -0.89358,5.95083"
       id="path166" />
    <path
       style="fill:none;stroke:#ffffff;stroke-width:4;stroke-linecap:butt;stroke-linejoin:miter;stroke-dasharray:none;stroke-opacity:1"
       d="m 110.31908,547.91945 c -0.42452,18.33801 -0.13081,-3.6455 0.35739,16.56584 0.0215,0.89029 0.10381,16.55273 -0.17872,20.26497 -0.12338,1.62119 -0.49115,3.21456 -0.71482,4.82498 -0.0148,0.10621 -0.0867,0.38473 0,0.32169 1.60136,-1.16401 3.09765,-2.4661 4.64648,-3.69914"
       id="path168" />
    <path
       style="fill:none;stroke:#ffffff;stroke-width:4;stroke-linecap:butt;stroke-linejoin:miter;stroke-dasharray:none;stroke-opacity:1"
       d="m 220.76225,417.16203 c -0.59571,2.35889 -1.03135,4.76409 -1.78713,7.07668 -0.44045,1.34773 -1.21121,2.56435 -1.78709,3.86002 -5.63786,13.10742 0.48178,-0.87982 -3.57422,7.88083 -5.33102,11.5146 -11.18682,22.80521 -16.9775,34.09664 -1.03816,2.02435 -2.12496,4.02789 -3.03807,6.11163 -1.65211,3.77016 -2.91701,7.69913 -4.28909,11.57997 -0.31725,0.89733 -0.24254,2.5562 -0.53611,3.21666 -0.0813,0.18292 -0.23829,0.32171 -0.35743,0.48256 -0.0596,0.26806 -0.0899,0.54434 -0.17872,0.80417 -0.15031,0.43964 -0.41176,0.83897 -0.53611,1.28664 -0.0574,0.20663 -0.18827,0.74606 0,0.64337 2.06261,-1.12501 3.93164,-2.57335 5.89746,-3.86002"
       id="path170" />
    <path
       style="fill:none;stroke:#ffffff;stroke-width:4;stroke-linecap:butt;stroke-linejoin:miter;stroke-dasharray:none;stroke-opacity:1"
       d="m 232.55713,423.43454 c 0.83398,2.03721 1.69368,4.06408 2.50195,6.11163 0.80026,2.02723 1.56626,4.06793 2.32324,6.11171 0.85147,2.29887 1.40301,4.72443 2.50196,6.91579 4.49537,8.96395 7.28449,12.23224 13.0459,19.94338 6.75007,9.03437 8.51891,11.09289 15.01166,20.42577 0.94301,1.35552 8.55443,12.15965 9.47172,14.63583 0.16888,0.4559 0.0486,0.97909 0.17867,1.44753 0.0287,0.10332 0.0559,-0.23019 0,-0.32168 -0.60827,-0.9953 -1.35143,-1.90347 -1.96585,-2.89497 -1.11394,-1.79761 -2.14449,-3.64557 -3.21674,-5.46835"
       id="path172" />
    <path
       style="fill:none;stroke:#ffffff;stroke-width:4;stroke-linecap:butt;stroke-linejoin:miter;stroke-dasharray:none;stroke-opacity:1"
       d="m 175.01232,507.71118 c 2.37437,5.97183 2.20336,9.50697 1.96581,15.27911 -0.0662,1.60807 0.1005,3.23996 -0.17872,4.82498 -0.49929,2.83432 -1.44731,5.57109 -2.14452,8.36332 -0.49423,1.97931 -0.91681,3.97636 -1.4297,5.95091 -0.55954,2.15416 -1.32875,4.25538 -1.78709,6.43331 -1.03225,4.90506 -1.75029,9.87124 -2.68067,14.79663 -0.12394,0.65609 -0.41453,1.27348 -0.53611,1.93001 -0.39064,2.10938 -0.66357,4.33154 -1.07226,6.43331 -0.15725,0.80864 -0.31567,1.61876 -0.53616,2.41249 -0.10538,0.37937 -0.75102,1.1347 -0.35739,1.12585 2.38762,-0.0537 4.76435,-0.34133 7.1484,-0.48248 7.22407,-0.42773 14.49229,-0.57891 21.62398,-1.93001 1.48383,-0.28112 2.92514,-0.20353 4.46777,-0.32169 1.78909,-0.13704 3.57203,-0.34829 5.36135,-0.48248 0.35642,-0.0267 1.07226,0.35742 1.07226,0 0,-0.35742 -0.71541,-0.0201 -1.07226,0 -1.55009,0.0872 -3.09766,0.21446 -4.64648,0.32168"
       id="path174" />
    <path
       style="fill:none;stroke:#ffffff;stroke-width:4;stroke-linecap:butt;stroke-linejoin:miter;stroke-dasharray:none;stroke-opacity:1"
       d="m 229.87649,540.68197 c -2.32324,-0.16082 -4.64215,-0.40677 -6.96972,-0.48248 -2.6197,-0.0852 -5.247,-0.15909 -7.86326,0 -1.80378,0.10969 -3.57185,0.55253 -5.36135,0.80417 -1.03283,0.14523 -1.20821,1.32157 -1.42965,2.2516 -0.088,0.36965 -0.30453,0.7673 -0.17872,1.12585 0.25384,0.72342 0.82878,1.29008 1.25098,1.93001 0.70966,1.07565 1.4849,2.10961 2.14452,3.21665 0.0147,0.0246 3.88404,7.94186 6.07618,9.81085 0.43012,0.36672 3.8653,1.94993 4.11033,2.09081 4.95907,2.85141 3.46235,1.99545 7.50582,5.95083 0.23267,0.22759 1.17357,0.83379 1.25098,1.28664 0.38452,2.24922 0.0807,3.54311 -0.17871,6.11172 -0.15193,1.50404 -0.32292,3.0067 -0.53611,4.50329 -0.0849,0.59564 -0.0707,1.24027 -0.35744,1.76922 -0.92112,1.69941 -1.9149,3.39614 -3.21678,4.82498 -3.0018,3.29452 -8.14341,5.98014 -12.50975,6.75499 -3.99547,0.70904 -7.86199,-0.20878 -11.25876,2.25169 -5.5679,4.03314 -4.57955,5.07977 -7.32716,12.22334"
       id="path176" />
    <path
       style="fill:none;stroke:#ffffff;stroke-width:4;stroke-linecap:butt;stroke-linejoin:miter;stroke-dasharray:none;stroke-opacity:1"
       d="m 266.15475,510.28447 c -0.29785,2.14444 -0.72465,4.27488 -0.89355,6.43331 -0.12965,1.65689 0.033,3.32424 0,4.98586 -0.0505,2.54728 -0.31852,6.99351 -0.71487,9.32829 -1.08953,6.41828 -2.85224,10.41972 -4.82515,17.0484 -0.71313,2.39603 -1.30441,4.82666 -1.96585,7.23747 -0.52998,1.93168 -1.06255,3.86269 -1.60841,5.78995 -0.22856,0.80697 -0.46743,1.61107 -0.71479,2.41249 -0.0506,0.16391 -0.35029,0.48257 -0.17876,0.48257 0.61704,0 1.18039,-0.37016 1.78709,-0.48257 1.42151,-0.26339 2.85655,-0.44901 4.28913,-0.64328 6.07356,-0.82362 12.14159,-1.69408 18.22849,-2.41249 0.37429,-0.0442 3.57434,-0.12049 3.75285,0 0.1333,0.09 0.0137,0.32224 0,0.48248 -0.10548,1.23429 -0.58628,2.48169 -0.35735,3.69913 0.44004,2.3401 1.5488,4.50333 2.3232,6.755"
       id="path178" />
    <path
       style="fill:none;stroke:#ffffff;stroke-width:4;stroke-linecap:butt;stroke-linejoin:miter;stroke-dasharray:none;stroke-opacity:1"
       d="m 321.37631,534.57026 c -3.88529,7.03233 -9.81082,12.46812 -14.83298,18.65674 -6.59869,8.13131 -8.1298,9.77691 -13.58201,18.01328 -1.49731,2.26192 -3.04431,4.50563 -4.28904,6.91579 -2.52908,4.89703 -2.11439,8.81498 0,13.83166 0.53565,1.2709 1.19106,2.54185 2.14452,3.53834 1.80862,1.89024 5.92308,3.43442 8.22074,4.02082 5.06706,1.29319 7.03389,1.45813 11.79483,1.28673 1.43277,-0.0516 2.90628,0.0571 4.28905,-0.32168 1.40809,-0.38568 2.66331,-1.20706 3.9317,-1.93001 5.69479,-3.24592 0.95383,-12.04346 -3.57427,-13.99247 -2.28715,-0.98445 -5.43423,-0.75582 -7.86322,-0.48256 -15.53557,1.74769 -1.50074,0.27383 -14.47555,1.60841"
       id="path180" />
    <path
       style="fill:none;stroke:#ffffff;stroke-width:4;stroke-linecap:butt;stroke-linejoin:miter;stroke-dasharray:none;stroke-opacity:1"
       d="m 373.55981,454.47533 c 0.77443,2.51971 1.42959,5.07923 2.32329,7.55915 0.53868,1.4948 1.35959,2.87377 1.96576,4.3425 0.94322,2.28543 1.80693,4.60302 2.68072,6.91588 3.18331,8.42601 6.23022,18.94564 11.61615,26.2158 0.17647,0.23821 -0.0353,0.96901 0,1.28665 0.29709,2.6729 -0.12088,0.38949 0.53611,1.76921 0.43395,0.9113 0.36382,1.44744 1.42974,1.44744"
       id="path182" />
    <path
       style="fill:none;stroke:#ffffff;stroke-width:4;stroke-linecap:butt;stroke-linejoin:miter;stroke-dasharray:none;stroke-opacity:1"
       d="m 383.74632,524.27693 c -3.05612,12.32644 -5.39507,24.80945 -8.39933,37.1525 -0.43332,1.78027 -0.92877,3.54512 -1.42974,5.30755 -0.15452,0.54357 -0.44753,1.0502 -0.53611,1.60833 -0.0314,0.1977 0.18232,-0.38558 0.35743,-0.48257 0.61932,-0.34302 1.28137,-0.62301 1.96576,-0.80416 1.34962,-0.35724 2.74025,-0.53611 4.11038,-0.80417 3.13243,-0.61284 6.27039,-1.48824 9.47163,-1.60833 2.0543,-0.077 4.21932,0.0143 6.25489,0.16089 0.53742,0.0387 1.13772,0.42303 1.60842,0.1608 1.16116,-0.6469 2.26366,-1.39387 3.3955,-2.09081"
       id="path184" />
    <path
       style="fill:none;stroke:#ffffff;stroke-width:4;stroke-linecap:butt;stroke-linejoin:miter;stroke-dasharray:none;stroke-opacity:1"
       d="m 407.51483,544.54199 c 7.56971,-1.19693 15.38128,-1.81284 23.05372,-1.28673 3.06101,0.2099 6.08355,0.80823 9.1142,1.28673 0.5162,0.0815 1.54311,0.13313 1.42974,0.64328 -0.22325,1.00458 -0.76717,1.91225 -1.0723,2.89506 -0.82731,2.66469 -1.5996,5.34694 -2.3232,8.04164 -1.00415,3.73943 -1.69368,7.56602 -2.85939,11.25829 -3.42376,10.8444 -7.3051,21.5391 -10.90138,32.32751 -2.17754,6.5324 -0.75489,2.80437 -2.68063,9.48917 -0.0445,0.15454 -0.0151,-0.32236 0,-0.48248 0.28284,-3.00368 1.08804,-5.996 0.89355,-9.00669 -0.20842,-3.22617 -4.97781,-10.08948 -6.07614,-11.90165 15.71609,-10.02612 8.83621,-8.84966 21.98142,-9.48917 1.78578,-0.0869 3.5739,-0.11739 5.36127,-0.16088 0.41687,-0.0101 0.83398,0 1.25098,0 0.1787,0 0.71148,-0.0343 0.5361,0 -2.91252,0.56982 -5.83784,1.07222 -8.75676,1.60832"
       id="path186" />
    <path
       style="fill:none;stroke:#ffffff;stroke-width:4;stroke-linecap:butt;stroke-linejoin:miter;stroke-dasharray:none;stroke-opacity:1"
       d="m 77.614997,623.99357 c 2.03158,6.16035 1.34546,12.73009 2.68068,18.97833 0.093,0.43529 0.25072,0.8545 0.35743,1.28664 0.0396,0.16029 -0.0945,0.90707 0,0.96505 1.24434,0.76354 2.62107,1.28667 3.93161,1.93001"
       id="path198" />
    <path
       style="fill:none;stroke:#ffffff;stroke-width:4;stroke-linecap:butt;stroke-linejoin:miter;stroke-dasharray:none;stroke-opacity:1"
       d="m 51.70197,678.03358 c 4.79725,10.07371 2.70963,4.65351 5.00391,12.06246 3.15547,10.18996 1.19606,2.52973 4.28905,18.01328 0.31397,1.57173 0.53611,3.06444 0.53611,4.66418 0,1.14242 0.44724,3.01499 0.89358,2.41249 0.12765,-0.17229 -0.0448,-0.43358 0,-0.64328 0.25421,-1.18961 0.50143,-2.38679 0.89355,-3.53833 0.74167,-2.17809 1.68633,-4.28182 2.50196,-6.43331 3.08363,-8.13415 2.36411,-6.24502 5.003867,-14.47503 0.89411,-2.7876 1.88837,-5.5451 2.68067,-8.36332 0.89499,-3.18348 0.97165,-7.35407 3.3955,-9.97165 0.0729,-0.0787 -0.0176,0.21592 0,0.32169 0.16134,0.96804 0.23915,1.95958 0.53611,2.89497 0.89749,2.82697 2.02541,5.57554 3.03811,8.36332"
       id="path200" />
    <path
       style="fill:none;stroke:#ffffff;stroke-width:4;stroke-linecap:butt;stroke-linejoin:miter;stroke-dasharray:none;stroke-opacity:1"
       d="m 93.341527,719.3677 c 0.71485,-1.93001 1.1576,-3.98397 2.14456,-5.79003 1.73038,-3.16646 7.077623,-8.17576 9.829073,-10.77581 0.15167,-0.14332 1.33636,-0.76938 1.4297,-0.64337 0.25774,0.34797 -0.164,0.85395 -0.17872,1.28673 -0.16408,4.82366 -0.31553,9.64868 -0.35743,14.47495 -0.0343,3.9499 0.13894,7.54819 0.89354,11.41917 0.42585,2.18452 1.51441,4.22444 1.78713,6.43331 0.0726,0.58827 -0.21332,1.17748 -0.17872,1.76921 0.0852,1.45601 0.35744,2.895 0.53616,4.3425"
       id="path202" />
    <path
       style="fill:none;stroke:#ffffff;stroke-width:4;stroke-linecap:butt;stroke-linejoin:miter;stroke-dasharray:none;stroke-opacity:1"
       d="m 193.95563,639.11188 c 0.29785,2.62694 0.73919,5.24157 0.89355,7.88083 0.13234,2.26289 -0.32936,6.10837 -0.71483,8.36332 -0.13845,0.80993 -0.63027,2.73418 -0.71483,2.73418 -0.16082,0 0.0924,-0.35084 0,-0.48249 -0.64141,-0.91399 -1.42968,-1.71558 -2.14452,-2.57337"
       id="path204" />
    <path
       style="fill:none;stroke:#ffffff;stroke-width:4;stroke-linecap:butt;stroke-linejoin:miter;stroke-dasharray:none;stroke-opacity:1"
       d="m 162.86001,687.52266 c 3.71588,7.74453 4.93267,16.18072 7.50583,24.28588 0.57087,1.79816 1.31053,3.53831 1.96581,5.30746 0.5957,1.60833 1.18032,3.22081 1.78713,4.82498 0.34636,0.91566 0.59682,1.87841 1.07226,2.73418 0.0618,0.11122 0.92543,0.77545 1.25098,0.48248 0.16542,-0.14887 0.0626,-0.45339 0.17867,-0.64328 0.54459,-0.89112 1.18672,-1.71887 1.78713,-2.57338 6.64867,-9.46236 4.75449,-6.20189 9.82907,-15.11831 1.21342,-2.13206 2.52227,-4.21712 3.57422,-6.4333 2.57202,-5.41857 2.74533,-8.7979 6.07618,-12.54503 0.90614,-1.01938 -0.11341,-0.49533 1.07226,-2.57328 0.71847,-1.25916 2.78991,-4.77574 3.75293,-4.3425 0.29235,0.13151 -0.59477,0.34606 -0.71487,0.64327 -0.37238,0.92162 -0.47655,1.93004 -0.71482,2.89506"
       id="path206" />
    <path
       style="fill:none;stroke:#ffffff;stroke-width:4;stroke-linecap:butt;stroke-linejoin:miter;stroke-dasharray:none;stroke-opacity:1"
       d="m 217.54547,727.08765 c -1.19141,-2.68055 -2.4407,-5.33611 -3.57422,-8.04164 -0.23811,-0.56833 -0.34969,-1.18182 -0.53615,-1.76912 -0.0519,-0.16349 -0.35025,-0.48257 -0.17872,-0.48257 1.34257,0 4.51691,1.16303 4.8252,2.57338 0.55085,2.52001 -2.07155,5.64719 -0.53611,7.71995 1.76277,2.37965 5.80562,1.46588 8.39937,2.89506 0.49341,0.27187 0.35857,10.43218 0.35744,10.45412 -0.28603,5.53418 -0.48555,10.3388 -2.8594,15.2792 -0.62944,1.30998 -1.28143,3.00965 -2.32324,4.18161 -0.0607,0.0683 -0.90211,0.8061 -0.89354,0.80417 3.34303,-0.75241 6.32919,-0.68418 9.82911,-0.64328 3.06981,0.0359 9.21345,-0.54277 12.50975,1.44744 3.48309,2.103 6.55268,4.82498 9.82902,7.23747"
       id="path208" />
    <path
       style="fill:none;stroke:#ffffff;stroke-width:4;stroke-linecap:butt;stroke-linejoin:miter;stroke-dasharray:none;stroke-opacity:1"
       d="m 295.46328,639.91604 c 1.11073,2.91885 3.18516,10.05392 5.71879,13.99255 0.43117,0.67027 1.3469,1.01625 1.60832,1.76912 0.21962,0.63247 0.005,6.26832 0.35744,5.95083 0.15938,-0.14344 -0.10414,-0.45584 0,-0.64328 0.62585,-1.1265 1.42968,-2.14449 2.14452,-3.21674"
       id="path210" />
    <path
       style="fill:none;stroke:#ffffff;stroke-width:4;stroke-linecap:butt;stroke-linejoin:miter;stroke-dasharray:none;stroke-opacity:1"
       d="m 295.82072,688.97019 c 10.8156,17.84488 0.29659,-0.56726 9.47163,18.97833 3.16055,6.73292 6.61372,13.32504 10.00783,19.94329 0.53848,1.04999 1.14149,2.06812 1.78709,3.05586 0.54753,0.8377 1.04321,1.74302 1.78709,2.41249 0.19924,0.17932 0,-0.53611 0,-0.80416 0,-2.84138 0,-5.68275 0,-8.52412 0,-2.41252 -0.24007,-4.83701 0,-7.23756 0.29822,-2.98207 0.8429,-5.94827 1.60841,-8.8458 2.50919,-9.49754 6.31508,-18.26984 9.47163,-27.50245 0.90327,-2.64194 2.50914,-10.10461 5.54011,-9.81084 3.45177,0.33454 4.76557,5.03943 7.14836,7.55915"
       id="path212" />
    <path
       style="fill:none;stroke:#ffffff;stroke-width:4;stroke-linecap:butt;stroke-linejoin:miter;stroke-dasharray:none;stroke-opacity:1"
       d="m 346.03837,726.92685 c 2.74024,-1.01862 5.40473,-2.27058 8.22074,-3.05586 1.44285,-0.40235 2.97092,-0.5398 4.46772,-0.48248 1.33672,0.0512 2.67306,0.35108 3.93169,0.80417 0.30312,0.10911 0.53611,0.482 0.53611,0.80416 0,0.9814 -0.35739,1.92998 -0.53611,2.89497 -0.3967,2.14207 -1.59255,7.16089 -1.0723,9.16757 0.54599,2.10595 1.58372,4.07202 2.68063,5.95083 1.46043,2.50146 4.06988,4.8378 6.43366,6.43331 1.12226,0.75751 2.38857,1.27606 3.57417,1.93001 2.00143,1.10395 2.999,1.30674 2.14452,3.69913 -2.00046,5.60097 -7.83617,9.18353 -12.33102,12.38414 -3.02201,2.15185 -13.07118,8.02247 -16.08397,9.81085"
       id="path214" />
    <path
       style="fill:none;stroke:#ffffff;stroke-width:4;stroke-linecap:butt;stroke-linejoin:miter;stroke-dasharray:none;stroke-opacity:1"
       d="m 403.76198,633.00025 c -0.0596,2.30526 -0.39919,4.62031 -0.17877,6.91579 0.36247,3.77465 1.85331,7.36137 2.50196,11.09749 0.59422,3.4226 0.76245,5.82131 1.07231,9.16748"
       id="path216" />
    <path
       style="fill:none;stroke:#ffffff;stroke-width:4;stroke-linecap:butt;stroke-linejoin:miter;stroke-dasharray:none;stroke-opacity:1"
       d="m 398.5793,674.49525 c 5.45129,10.08437 1.97296,2.79077 6.96976,17.5308 5.41541,15.97487 -0.11426,-0.95162 5.54003,14.31414 8.7728,23.68532 0.0115,2.08903 3.93161,10.61502 0.38819,0.84428 0.63948,1.75098 1.0723,2.57328 0.11198,0.21275 0.39301,0.67567 0.53611,0.48249 0.51044,-0.68909 0.60961,-1.60332 0.89355,-2.4125 1.50323,-4.28399 3.19709,-8.50799 4.4678,-12.86661 3.73297,-12.80434 3.04839,-15.86557 7.14835,-25.08996 1.54367,-3.47306 0.71399,-1.71456 2.14461,-3.21674 0.1925,-0.20213 0.53208,-0.92238 0.53611,-0.64328 0.0603,4.18124 0,8.36335 0,12.54502"
       id="path218" />
    <path
       style="fill:none;stroke:#ffffff;stroke-width:4;stroke-linecap:butt;stroke-linejoin:miter;stroke-dasharray:none;stroke-opacity:1"
       d="m 445.75897,714.06015 c 0.78003,7.00684 -1.26352,13.12727 0.53611,20.10417 0.26882,1.04216 0.90695,1.95424 1.42965,2.89506 0.13557,0.24402 0.29057,0.51066 0.5362,0.64328 0.37886,0.20456 0.82853,0.23852 1.25098,0.32168 1.18043,0.2324 7.80846,1.3322 8.93552,1.76913 2.47895,0.96103 4.76557,2.35889 7.14835,3.53834"
       id="path220" />
    <path
       style="fill:none;stroke:#ffffff;stroke-width:4;stroke-linecap:butt;stroke-linejoin:miter;stroke-dasharray:none;stroke-opacity:1"
       d="m 460.23452,724.83604 c 0.12565,14.48576 -1.03721,28.92584 -0.35744,43.42492 0.22769,4.85631 -1.26643,10.69197 1.78709,14.47503 2.56405,3.17665 7.9824,1.71553 11.97359,2.57329"
       id="path222" />
    <path
       style="fill:none;stroke:#ffffff;stroke-width:4;stroke-linecap:butt;stroke-linejoin:miter;stroke-dasharray:none;stroke-opacity:1"
       d="m 647.23917,164.03461 c -0.75717,6.67644 -0.7223,13.39882 -0.89354,20.10413 -0.1696,6.64094 -0.37466,5.24611 0.17867,12.38418 0.48711,6.28366 1.59792,12.52575 1.96585,18.81749 0.072,1.23094 -0.0537,2.46726 0,3.69914 0.0774,1.77704 0.60516,7.46202 0.89355,9.16752 0.15705,0.92883 0.46273,1.82649 0.71487,2.73413 0.0459,0.16526 0.007,0.48253 0.17867,0.48253 0.16084,0 0.0241,-0.3235 0,-0.48253 -0.15492,-1.02249 -0.24316,-2.06401 -0.53611,-3.05581 -0.96049,-3.2518 -2.15991,-6.42826 -3.21683,-9.65001 -2.18464,-6.65939 -2.69049,-7.88166 -4.11028,-14.79663 -0.49241,-2.39824 -0.77987,-4.83499 -1.25098,-7.23751 -0.42271,-2.1557 -0.92936,-4.2943 -1.42974,-6.43331 -0.45282,-1.93571 -0.92121,-3.86817 -1.42965,-5.79003 -0.0877,-0.33162 -0.38121,-0.6228 -0.35744,-0.965 0.033,-0.47522 0.56767,-1.95832 1.07231,-2.41249 0.1942,-0.17479 0.46453,-0.24657 0.71478,-0.32164 1.18204,-0.3546 2.36358,-0.72583 3.57426,-0.96501 2.4255,-0.47917 7.603,-0.84438 9.6504,-0.64336 3.8778,0.38071 8.23319,3.04633 11.79492,4.50334 1.69801,0.69461 3.69954,0.89665 5.18258,2.09085 0.33726,0.27156 0.22498,0.85613 0.17868,1.28664 -0.13429,1.24868 -0.51088,2.45999 -0.71487,3.69918 -0.59737,3.62898 -0.5792,6.59719 -2.3232,9.97165 -1.17059,2.26497 -9.74106,7.19001 -11.61615,8.20252 -0.78653,0.42471 -1.65785,0.67094 -2.50196,0.965 -1.0034,0.34956 -2.40558,0.11118 -3.03807,0.96496 -0.40162,0.54215 1.31781,0.29442 1.96576,0.48253 1.1996,0.34826 2.41447,0.66195 3.57427,1.12584 3.57934,1.43168 7.64894,3.82371 10.90128,5.62915 6.7895,3.76898 15.37821,7.6062 21.08788,13.34914 1.7079,1.71785 3.79228,4.78981 5.00392,6.43335 3.06709,4.16042 6.07613,8.36332 9.1142,12.54498"
       id="path232" />
    <path
       style="fill:none;stroke:#ffffff;stroke-width:4;stroke-linecap:butt;stroke-linejoin:miter;stroke-dasharray:none;stroke-opacity:1"
       d="m 657.96179,253.77955 c 0.41451,8.02485 0.58346,16.09041 0.35743,24.12495 -0.0679,2.41449 -0.011,4.84705 -0.35743,7.23752 -0.37138,2.5624 -1.18054,5.04203 -1.78709,7.55915 -1.64213,6.81469 -1.38484,4.13945 -1.78709,10.29333 -0.0315,0.48147 -0.16759,1.89994 0,1.44749 2.10686,-5.68811 -5.35498,8.29329 3.75294,-7.23747"
       id="path234" />
    <path
       style="fill:none;stroke:#ffffff;stroke-width:4;stroke-linecap:butt;stroke-linejoin:miter;stroke-dasharray:none;stroke-opacity:1"
       d="m 626.33006,362.50278 c 0.22988,-8.37821 -2.43268,-16.09658 -4.82524,-23.96411 -0.79683,-2.62023 -1.59018,-5.24204 -2.3232,-7.88084 -0.16103,-0.57968 -0.25606,-1.17613 -0.35744,-1.76917 -0.0181,-0.10569 -0.0758,-0.24586 0,-0.32168 2.73152,-2.73137 6.86566,-3.88686 10.36527,-5.14666 3.13187,-1.12743 6.93865,-2.38145 10.00774,-0.48248 0.89536,0.55399 1.16919,1.41876 1.25098,2.41249 0.2238,2.71899 0.24102,2.66942 -0.89354,4.82498 -0.37795,0.71806 -1.31006,1.83016 -1.25098,2.73417 0.15162,2.3202 0.33228,2.87948 2.32328,4.50334 1.15243,0.93993 2.42271,1.74745 3.75285,2.4125 4.16675,2.08328 10.4546,2.53306 9.11429,9.16748 -0.5141,2.54472 -2.98291,7.29767 -3.93161,9.32832 -2.52387,5.40219 -4.48415,12.74707 -11.08005,14.63583 -1.38314,0.39607 -2.85146,0.42746 -4.28913,0.48252 -1.37014,0.0525 -2.74046,-0.1007 -4.11029,-0.16084 -1.07258,-0.0471 -2.14429,-0.11257 -3.21682,-0.16084 -0.11903,-0.005 -0.33575,0.11716 -0.35744,0 -0.0596,-0.32167 0.18427,-0.63791 0.17876,-0.965 -0.0542,-3.21842 -0.23829,-6.43334 -0.35743,-9.65001 z"
       id="path236" />
    <path
       style="fill:none;stroke:#ffffff;stroke-width:4;stroke-linecap:butt;stroke-linejoin:miter;stroke-dasharray:none;stroke-opacity:1"
       d="m 691.20202,358.48196 c -1.90626,1.34028 -3.562,3.13853 -5.71879,4.02082 -3.17601,1.29923 -6.61262,1.91435 -10.00774,2.41253 -2.1218,0.31135 -4.29437,0.15101 -6.43357,0 -0.91666,-0.0647 -1.9304,-0.1128 -2.68072,-0.64336 -0.31024,-0.21938 -0.12062,-0.89182 0.17876,-1.1258 4.66087,-3.64267 6.69795,-4.66355 12.15227,-5.62919 1.76686,-0.31281 3.56938,-0.39034 5.36135,-0.48248 0.30223,-0.0155 0.63897,-0.003 0.89354,0.16084 0.20636,0.13265 0.4461,0.41459 0.35744,0.64332 -2.4134,6.22638 -6.39372,11.70185 -9.82907,17.37 -0.73874,1.21888 -1.42,2.47176 -2.14452,3.69914 -0.28825,0.4883 -0.579,0.97574 -0.89355,1.44753 -0.0445,0.0667 -0.2584,0.15184 -0.17876,0.1608 0.53278,0.0599 1.07775,-0.0764 1.60842,0 3.94325,0.5678 7.82862,1.55557 11.79491,1.93001 1.34465,0.12693 21.95509,0.46207 24.66206,1.44748 2.1773,0.7926 3.33594,3.21668 5.00391,4.82503"
       id="path238" />
    <path
       style="fill:none;stroke:#ffffff;stroke-width:4;stroke-linecap:butt;stroke-linejoin:miter;stroke-dasharray:none;stroke-opacity:1"
       d="m 650.81344,392.4178 c 0.51132,7.51649 2.4325,14.81077 3.75285,22.19495 0.97598,5.45828 1.34882,11.03751 1.60841,16.56583 0.13741,2.92633 -0.17432,4.35691 0.53619,6.755 0.0823,0.27761 0.51054,1.12584 0.53611,1.12584 0.16029,0 0.20495,-0.27227 0.35744,-0.32168 1.3514,-0.43785 2.74019,-0.75056 4.11028,-1.12585"
       id="path240" />
    <path
       style="fill:none;stroke:#ffffff;stroke-width:4;stroke-linecap:butt;stroke-linejoin:miter;stroke-dasharray:none;stroke-opacity:1"
       d="m 645.27341,453.53445 c -0.13311,5.14991 0.26196,5.27304 -0.53619,8.68492 -0.98336,4.20357 -1.67157,8.60707 -3.03807,12.7059 -0.0852,0.25546 -0.88812,3.25866 -0.53611,3.37746 0.45438,0.15334 0.95401,0.0996 1.42965,0.1608 1.19242,0.15331 2.38932,0.27943 3.57427,0.48256 3.25974,0.55882 6.51096,1.59351 9.82906,1.76913 2.98142,0.15779 6.19502,-0.29769 9.1142,-0.64337 3.64025,-0.43106 7.25045,-1.11883 10.90138,-1.44744 1.06929,-0.0963 2.14419,-0.1149 3.21682,-0.16088 0.17854,-0.008 0.42323,-0.13854 0.53611,0 0.59048,0.72468 0.95311,1.60838 1.42966,2.41257"
       id="path242" />
    <path
       style="fill:none;stroke:#ffffff;stroke-width:4;stroke-linecap:butt;stroke-linejoin:miter;stroke-dasharray:none;stroke-opacity:1"
       d="m 723.01251,456.10774 c -6.47456,4.05033 -13.85802,6.515 -20.01558,11.09749 -1.41443,1.05264 -2.70043,2.27634 -3.93169,3.53834 -0.91933,0.94229 -1.68346,2.02471 -2.50187,3.05586 -0.0763,0.0961 -0.25176,0.22304 -0.17876,0.32159 0.11104,0.14994 0.36116,0.0961 0.5361,0.16089 0.83817,0.31061 1.66343,0.65537 2.50196,0.96496 6.23964,2.30372 3.87154,1.37074 11.61625,3.86002 0.95766,0.30781 1.91533,0.61741 2.8593,0.96496 0.83945,0.30907 1.49221,0.68057 1.42974,0.80425 -0.2875,0.56922 -0.83293,0.96588 -1.25098,1.44744 -1.07122,1.23399 -2.06544,2.53967 -3.21682,3.69923 -2.65867,2.67753 -7.32526,7.14054 -11.08005,8.04163 -2.58297,0.61988 -3.79905,0.67021 -6.2549,0.80417 -1.13142,0.0617 -2.30428,-0.14444 -3.3955,0.16079 -3.35346,0.93802 -6.55271,2.3589 -9.82907,3.53834"
       id="path244" />
    <path
       style="fill:none;stroke:#ffffff;stroke-width:4;stroke-linecap:butt;stroke-linejoin:miter;stroke-dasharray:none;stroke-opacity:1"
       d="m 665.64642,512.72105 c 1.58569,9.21661 1.63068,18.53691 0.89354,27.82413 -0.2404,3.0289 -0.17863,3.21598 -0.53619,5.30755 -0.0551,0.32244 -0.1274,0.64188 -0.17868,0.96496 -0.008,0.0529 -0.0489,0.18279 0,0.1608 0.85521,-0.38483 1.66798,-0.85776 2.50196,-1.28665"
       id="path246" />
    <path
       style="fill:none;stroke:#ffffff;stroke-width:4;stroke-linecap:butt;stroke-linejoin:miter;stroke-dasharray:none;stroke-opacity:1"
       d="m 637.23143,553.57268 c 0.9531,4.98584 1.70507,10.01437 2.85931,14.95751 0.57613,2.46737 1.48666,4.84584 2.32328,7.23748 1.18926,3.39973 2.51332,6.75083 3.75294,10.13253 0.66664,1.81862 1.28188,3.65605 1.96576,5.46826 0.38861,1.02978 0.83862,2.03535 1.25098,3.05585 0.0642,0.15902 0.0513,0.36775 0.17876,0.48248 0.13868,0.12482 0.40712,0.2957 0.53611,0.16089 1.79173,-1.87257 3.41647,-3.9022 5.00391,-5.95083 4.34308,-5.60483 7.32747,-10.53355 10.36518,-17.2092 1.48887,-3.27194 1.87814,-6.95714 3.21683,-10.29333 0.21115,-0.52623 0.68112,-0.92173 0.89354,-1.44745 1.18969,-4.63993 -0.0602,-0.85759 0.89354,-2.57337 0.0389,-0.07 -0.16885,0.0813 -0.17867,0.16088 -0.11191,0.90643 -0.1268,1.82226 -0.17876,2.73409 -0.0672,1.17904 -0.11912,2.35889 -0.17868,3.53834"
       id="path248" />
    <path
       style="fill:none;stroke:#ffffff;stroke-width:4;stroke-linecap:butt;stroke-linejoin:miter;stroke-dasharray:none;stroke-opacity:1"
       d="m 704.42659,588.1518 c -2.97851,-0.69693 -6.03717,-1.11267 -8.93553,-2.09081 -0.96779,-0.32661 -1.74272,-1.08585 -2.50196,-1.76912 -3.22267,-2.90024 5.74184,-6.43425 8.04199,-5.62923 0.71274,0.24945 1.3472,0.69281 1.96584,1.12584 7.65814,5.36049 -3.82063,14.32598 -5.89745,17.04832 -0.4597,0.60259 -0.58571,1.39823 -0.89355,2.09081 -0.0498,0.1121 -0.28477,0.25995 -0.17876,0.32168 4.78944,2.78912 9.14818,2.37198 15.19042,2.57338 11.80734,0.39356 17.27187,-1.22906 29.84473,-1.93001 0.848,-0.0473 2.1681,-0.29851 2.50187,0.48248 0.75882,1.77558 0.11917,3.86002 0.17876,5.79003"
       id="path250" />
    <path
       style="fill:none;stroke:#ffffff;stroke-width:4;stroke-linecap:butt;stroke-linejoin:miter;stroke-dasharray:none;stroke-opacity:1"
       d="m 1021.8058,160.73742 c 1.3701,4.18166 3.0799,8.26694 4.1104,12.54498 0.8237,3.41935 0.9802,6.96585 1.4296,10.45417 1.2607,9.78578 1.3939,11.73402 2.502,20.9083 0.2659,2.20215 0.1233,4.51408 0.8936,6.59419 0.1215,0.32813 0.1786,-0.74276 0.1786,-1.93001 0,-4.86436 0.045,-7.07094 -0.3574,-12.86666 -0.2016,-2.90329 -0.5957,-5.79 -0.8936,-8.685 -0.2382,-3.16305 -0.5211,-6.32307 -0.7147,-9.48916 -0.1638,-2.67819 -0.4668,-5.36067 -0.3575,-8.04164 0.1296,-3.18054 0.52,-6.35425 1.0722,-9.48917 0.2258,-1.28192 0.8627,-2.45678 1.251,-3.69917 0.2261,-0.72342 0.1357,-2.09081 0.8936,-2.09081 5.3034,0 10.314,1.87899 15.0117,4.18166 8.6667,4.24809 11.3807,5.26833 17.335,10.77581 0.6148,0.56863 1.3048,1.14952 1.6083,1.93001 0.366,0.94102 -2.1805,3.69682 -2.6807,4.18166 -1.6797,1.62789 -4.1695,3.72449 -6.4335,4.98582 -0.6377,0.35527 -1.3312,0.60429 -1.9658,0.965 -0.4999,0.28413 -0.9238,0.69181 -1.4298,0.96501 -0.1048,0.0566 -0.2894,-0.0978 -0.3573,0 -0.9525,1.37169 -0.9426,4.74864 -0.8936,5.62914 0.2778,5.00086 -0.1313,10.19841 1.4297,14.95752 5.0829,15.4971 18.2357,18.79145 31.0957,25.08995 5.2181,2.55571 10.3652,5.25389 15.5479,7.88084"
       id="path300" />
    <path
       style="fill:none;stroke:#ffffff;stroke-width:4;stroke-linecap:butt;stroke-linejoin:miter;stroke-dasharray:none;stroke-opacity:1"
       d="m 1035.0304,239.22403 c -14.313,12.44984 -29.6435,23.66971 -44.67768,35.22249 -7.5762,5.8218 -5.6908,4.29622 -10.3652,8.20248 -0.8339,0.69694 -1.6712,1.38997 -2.5019,2.09085 -0.1225,0.10334 -0.5176,0.32164 -0.3574,0.32164 0.2084,0 0.3401,-0.25105 0.5361,-0.32164 0.5145,-0.18519 1.0782,-0.18809 1.6084,-0.32168 2.561,-0.64536 5.1231,-1.28668 7.6846,-1.93001"
       id="path302" />
    <path
       style="fill:none;stroke:#ffffff;stroke-width:4;stroke-linecap:butt;stroke-linejoin:miter;stroke-dasharray:none;stroke-opacity:1"
       d="m 964.97577,324.62648 c 1.3321,-5.55822 -3.5802,-9.19496 -4.6464,-13.99251 -0.233,-1.0483 -0.1301,-2.14389 -0.1788,-3.21666 -0.2235,-4.92857 -0.2764,-8.19367 -0.3573,-13.50998 -0.015,-0.96489 0,-1.93001 0,-2.89501 0,-0.37527 -0.1303,-0.7739 0,-1.12581 0.072,-0.19543 0.332,-0.27969 0.5361,-0.32168 6.0383,-1.24212 11.52435,-3.45735 17.51355,-1.44749 1.802,0.60471 3.4677,1.61495 5.0039,2.73418 2.6425,1.92512 4.1421,4.60661 1.6085,7.07663 -0.011,0.0104 -2.3936,1.72774 -2.3233,1.93001 1.4358,4.13512 8.3626,11.96422 9.6505,13.99251 1.4551,2.29181 4.4579,11.69742 3.3954,14.47498 -0.7866,2.05636 -2.3236,3.80361 -3.9316,5.30751 -4.5141,4.22195 -13.7659,7.03411 -19.8369,5.62914 -0.7393,-0.1711 -7.43785,-2.88784 -7.50585,-3.37749 -0.093,-0.67273 0.834,-1.07222 1.251,-1.60833"
       id="path304" />
    <path
       style="fill:none;stroke:#ffffff;stroke-width:4;stroke-linecap:butt;stroke-linejoin:miter;stroke-dasharray:none;stroke-opacity:1"
       d="m 1040.3917,327.68233 c -9.1964,1.91655 -15.998,4.96862 -23.4111,-2.41253 -1.0914,-1.08676 -1.7623,-2.65494 -1.9658,-4.18166 -0.6707,-5.02974 4.298,-7.40539 8.5781,-6.27247 4.1022,1.08585 5.0531,4.69449 5.7187,8.36332 0.9488,5.22964 1.178,5.53424 -0.1787,11.74081 -0.1935,0.88496 -0.8111,1.62064 -1.251,2.41249 -0.097,0.17496 -0.4944,0.33671 -0.3573,0.48253 0.6451,0.68619 1.4931,1.16328 2.3232,1.60833 6.1506,3.29765 6.3522,3.12779 13.4034,4.66414 3.2052,0.69838 7.0326,-0.0472 9.6503,1.93001 1.5003,1.13322 0.2382,3.75279 0.3573,5.62918"
       id="path306" />
    <path
       style="fill:none;stroke:#ffffff;stroke-width:4;stroke-linecap:butt;stroke-linejoin:miter;stroke-dasharray:none;stroke-opacity:1"
       d="m 984.81272,346.33898 c -0.099,10.14091 -0.8876,20.25887 -1.0722,30.3975 -0.056,3.05532 0.038,6.11189 0,9.16749 -0.022,1.77002 -0.1308,3.53795 -0.1788,5.30746 -0.012,0.42872 -0.1298,0.87788 0,1.28664 0.04,0.12455 0.2302,-0.13158 0.3575,-0.1608 2.9133,-0.6683 5.8378,-1.28667 8.7567,-1.93001"
       id="path308" />
    <path
       style="fill:none;stroke:#ffffff;stroke-width:4;stroke-linecap:butt;stroke-linejoin:miter;stroke-dasharray:none;stroke-opacity:1"
       d="m 948.17697,407.93807 c -1.3648,4.52507 -4.4162,14.80269 -6.0762,19.78249 -1.3815,4.14443 -3.0505,8.19481 -4.289,12.38422 -0.4936,1.66978 -0.5904,3.43204 -0.8935,5.14667 -0.1415,0.80053 -0.7524,1.70189 -0.3575,2.41249 0.039,0.0701 0.099,-0.15245 0.1788,-0.16089 0.9493,-0.10051 1.9077,-0.0843 2.8593,-0.1608 2.3848,-0.19162 4.8055,-0.15941 7.1485,-0.64336 9.4554,-1.95302 16.0584,-4.38851 25.01945,-7.07667 2.3325,-0.69971 8.4536,-2.89498 11.7949,-2.89498 0.2383,0 -0.8732,-0.1781 -0.7149,0 0.5325,0.599 1.1914,1.07222 1.7871,1.60833"
       id="path310" />
    <path
       style="fill:none;stroke:#ffffff;stroke-width:4;stroke-linecap:butt;stroke-linejoin:miter;stroke-dasharray:none;stroke-opacity:1"
       d="m 1050.2208,416.94475 c -4.8848,0.10723 -9.7782,0.0114 -14.6543,0.32168 -1.0454,0.0665 -2.0285,0.5246 -3.038,0.80417 -1.1645,0.32246 -4.5351,0.72021 -4.8252,2.0908 -0.167,0.78889 -0.01,1.62732 0.1786,2.4125 1.0509,4.49261 2.1844,5.80604 6.791,8.685 6.3836,3.98954 10.7335,2.66122 17.335,7.23747 1.6254,1.12681 2.2562,3.25694 3.2168,4.98586 0.955,1.71902 -0.7628,4.29471 -1.9659,5.14667 -7.8069,5.52862 -17.1089,9.22955 -26.4491,11.09749 -1.5269,0.30536 -3.1744,0.99029 -4.6464,0.48248 -2.3243,-0.80184 -4.0509,-2.78774 -6.0763,-4.18161"
       id="path312" />
    <path
       style="fill:none;stroke:#ffffff;stroke-width:4;stroke-linecap:butt;stroke-linejoin:miter;stroke-dasharray:none;stroke-opacity:1"
       d="m 973.19652,461.6564 c 2.6607,9.78529 2.6437,19.19798 1.9659,29.11078 -0.2782,4.06881 -1.3756,3.28791 1.4296,5.30754"
       id="path314" />
    <path
       style="fill:none;stroke:#ffffff;stroke-width:4;stroke-linecap:butt;stroke-linejoin:miter;stroke-dasharray:none;stroke-opacity:1"
       d="m 920.47677,520.36052 c 1.8595,13.10932 -0.037,2.08885 3.5742,16.56584 1.0703,4.29059 1.5143,8.11191 3.3956,12.06245 0.1261,0.26483 0.175,0.57439 0.3574,0.80416 0.9201,1.15944 2.4753,-1.12573 2.8594,-1.44744 3.5438,-2.96777 7.2618,-5.75194 10.544,-9.00668 5.4924,-5.44646 13.9455,-16.58144 17.871,-22.83835 2.1863,-3.48477 3.9903,-7.20347 5.7186,-10.93661 3.0878,-6.66944 0.4377,-5.64589 1.7873,-3.21666 1.7713,3.18821 3.81245,6.21886 5.71865,9.32829"
       id="path316" />
    <path
       style="fill:none;stroke:#ffffff;stroke-width:4;stroke-linecap:butt;stroke-linejoin:miter;stroke-dasharray:none;stroke-opacity:1"
       d="m 1020.7336,531.77969 c -0.1225,-10e-4 -11.7726,2.00141 -15.1904,-1.28664 -1.207,-1.16122 -3.0202,-2.1967 -3.2168,-3.86002 -0.482,-4.07675 9.9969,-7.64534 12.6884,-6.5942 1.8565,0.72508 3.2376,2.55063 4.1104,4.3425 1.1052,2.26889 1.8754,4.88881 1.6084,7.39836 -0.295,2.77214 -1.9786,5.22226 -3.2169,7.71995 -1.4744,2.97405 -4.588,4.42168 -3.9315,8.20253 0.1422,0.81906 0.4447,1.70642 1.0722,2.25169 3.7886,3.29203 9.8735,3.36507 14.2969,3.69913 5.111,0.38599 10.2445,0.38112 15.3691,0.48248 5.7179,0.11311 11.49,-0.61422 17.1562,0.16089 1.9605,0.26819 3.4551,1.92998 5.1826,2.89497"
       id="path318" />
    <path
       style="fill:none;stroke:#ffffff;stroke-width:4;stroke-linecap:butt;stroke-linejoin:miter;stroke-dasharray:none;stroke-opacity:1"
       d="m 1116.5225,257.88068 c 1.9062,1.66194 3.6823,3.48628 5.7187,4.98582 1.258,0.9263 2.7707,1.44797 4.1103,2.2517 1.3432,0.80584 2.6568,1.66336 3.9317,2.57333 19.1507,13.6691 -8.9949,-5.77587 15.1904,11.25833 1.1512,0.81083 2.4289,1.4324 3.5741,2.25165 1.7276,1.23584 6.6311,5.48508 7.8634,6.59415 0.4447,0.40016 0.7381,0.97891 1.251,1.28669 0.4188,0.25131 0.9565,0.20001 1.4296,0.32164 2.0254,1.60834 4.0507,3.21668 6.0761,4.82502"
       id="path320" />
    <path
       style="fill:none;stroke:#ffffff;stroke-width:4;stroke-linecap:butt;stroke-linejoin:miter;stroke-dasharray:none;stroke-opacity:1"
       d="m 1135.1084,339.42315 c -1.0127,-4.44973 -1.9567,-8.91565 -3.0381,-13.34919 -2e-4,-8.9e-4 -3.574,-12.86579 -3.5742,-12.86666 -0.6452,-2.87265 -1.1223,-5.78116 -1.6085,-8.68496 -0.1693,-1.01148 -0.2269,-2.03862 -0.3573,-3.05585 -0.055,-0.42949 -0.5377,-1.0444 -0.1788,-1.28665 1.6445,-1.10996 3.9147,-0.87554 5.8974,-0.80416 4.3615,0.15702 7.5202,3.30326 10.1866,6.43331 0.3013,0.35369 0.4247,0.8356 0.5361,1.28668 0.6111,2.47485 -0.7316,2.5885 -2.3232,4.02082 -0.4695,0.42251 -1.0732,1.28504 -1.0722,1.28665 0.3893,0.65062 1.1271,1.02246 1.6083,1.60837 1.5472,1.88388 3.1978,3.70917 4.4678,5.78998 1.0698,1.7527 1.6875,3.74423 2.502,5.62915 0.6491,1.50213 3.6121,7.96953 3.7529,10.29333 0.4231,6.98082 -5.8035,9.99527 -11.7949,10.45417 -1.2485,0.0956 -3.0076,0.8453 -3.7529,-0.16084 -1.3318,-1.79774 -0.834,-4.3961 -1.251,-6.59415 z"
       id="path322" />
    <path
       style="fill:none;stroke:#ffffff;stroke-width:4;stroke-linecap:butt;stroke-linejoin:miter;stroke-dasharray:none;stroke-opacity:1"
       d="m 1188.1854,329.93398 c 3.7357,0.40831 8.2393,0.49191 10.3652,4.18166 0.5004,0.86843 1.2209,1.73237 1.251,2.73417 0.077,2.57068 -3.3463,6.50957 -4.6464,7.72 -2.0788,1.9354 -4.4663,3.5148 -6.791,5.14666 -0.7246,0.50863 -1.8934,0.51282 -2.3234,1.28665 -0.1783,0.32083 0.5913,0.43528 0.8936,0.64336 1.7745,1.22116 3.5103,2.50242 5.1827,3.85998 1.7621,1.43034 9.8959,6.68299 8.5781,11.09749 -0.75,2.51256 -2.5111,4.66688 -4.289,6.5942 -0.9181,0.99525 -2.2934,1.49131 -3.5744,1.93001 -5.4719,1.87392 -11.08,3.32385 -16.6201,4.98578"
       id="path324" />
    <path
       style="fill:none;stroke:#ffffff;stroke-width:4;stroke-linecap:butt;stroke-linejoin:miter;stroke-dasharray:none;stroke-opacity:1"
       d="m 1168.3485,389.28142 c 0.4286,7.07083 1.251,19.77126 1.251,25.57252 0,4.29549 -0.4559,8.57894 -0.7149,12.86662 -0.039,0.64491 -0.1389,1.28515 -0.1787,1.93001 -0.02,0.32107 -0.1307,0.67111 0,0.96505 0.053,0.11941 0.2319,-0.12491 0.3575,-0.16089 1.1864,-0.33971 2.3828,-0.64331 3.5742,-0.96496"
       id="path326" />
    <path
       style="fill:none;stroke:#ffffff;stroke-width:4;stroke-linecap:butt;stroke-linejoin:miter;stroke-dasharray:none;stroke-opacity:1"
       d="m 1139.7548,426.9164 c 0.9372,10.15866 -1.1467,18.44204 -3.753,27.82413 -0.2978,1.07223 -0.5836,2.14789 -0.8934,3.21674 -0.062,0.21375 -0.3919,0.57934 -0.1788,0.64328 0.1712,0.0513 0.3605,-0.0329 0.5361,0 6.3318,1.18715 12.3518,2.60867 18.9435,1.76921 3.0747,-0.39158 5.943,-1.76544 8.9354,-2.57338 1.1214,-0.30276 1.7985,-0.28147 2.8595,-0.48248 8.9245,-1.69087 2.8323,-0.81661 13.2245,-1.93001"
       id="path328" />
    <path
       style="fill:none;stroke:#ffffff;stroke-width:4;stroke-linecap:butt;stroke-linejoin:miter;stroke-dasharray:none;stroke-opacity:1"
       d="m 1202.3035,436.88804 c 1.6699,-2.44241 0.8863,-9.04694 3.753,-11.25829 2.5566,-1.97215 5.4715,-3.4636 8.3993,-4.82498 0.7039,-0.32732 1.5478,-0.12598 2.3234,-0.16088 0.4165,-0.0188 0.834,0 1.251,0 0.1191,0 0.3409,-0.11799 0.3573,0 0.06,0.42891 -0.061,0.86992 -0.1788,1.28673 -0.956,3.39393 -1.9106,6.79151 -3.038,10.13244 -7.3274,21.71315 -1.6043,2.34194 -6.9696,20.10418 -1.0642,3.52319 -2.1858,7.03467 -3.0383,10.61501 -0.1515,0.63648 -0.9486,2.21008 -0.3573,1.93001 2.6536,-1.25686 4.7657,-3.43111 7.1485,-5.14667"
       id="path330" />
    <path
       style="fill:none;stroke:#ffffff;stroke-width:4;stroke-linecap:butt;stroke-linejoin:miter;stroke-dasharray:none;stroke-opacity:1"
       d="m 1200.5165,451.68476 c 7.2682,-6.28376 10.2777,-7.54797 20.0156,-8.04173 1.3725,-0.0696 2.737,0.26909 4.1103,0.32169 3.8323,0.14677 4.3684,-0.007 8.042,-0.32169"
       id="path332" />
    <path
       style="fill:none;stroke:#ffffff;stroke-width:4;stroke-linecap:butt;stroke-linejoin:miter;stroke-dasharray:none;stroke-opacity:1"
       d="m 1172.2802,480.15225 c -2.3617,14.49129 -1.9246,8.98298 -2.5019,22.83826 -0.055,1.33232 0,2.68518 0,4.02082 0,0.64334 0,1.28667 0,1.93001 0,0.10723 -0.1073,0.32168 0,0.32168 6.5081,0 -10.0886,-4.42977 8.9354,2.2517"
       id="path334" />
    <path
       style="fill:none;stroke:#ffffff;stroke-width:4;stroke-linecap:butt;stroke-linejoin:miter;stroke-dasharray:none;stroke-opacity:1"
       d="m 1146.1884,516.5005 c 1.3183,6.88107 1.9828,9.43198 2.6807,15.92256 0.2992,2.78189 0.3497,5.58929 0.7147,8.36332 0.3584,2.72324 1.6334,5.18729 1.9659,7.88083 0.1205,0.97626 -0.3508,4.26512 0.1788,4.5033 1.9514,0.87768 3.4021,-2.60212 5.0039,-4.02082 5.3278,-4.71877 8.3834,-7.65458 13.0459,-13.18838 2.0083,-2.38369 3.8963,-4.86965 5.7188,-7.39827 0.8718,-1.20967 4.4905,-7.84942 5.7186,-8.04164 1.3045,-0.20419 2.6211,-0.32171 3.9317,-0.48257"
       id="path336" />
    <path
       style="fill:none;stroke:#ffffff;stroke-width:4;stroke-linecap:butt;stroke-linejoin:miter;stroke-dasharray:none;stroke-opacity:1"
       d="m 1207.4862,535.47883 c -1.668,2.14443 -3.5175,4.15924 -5.0039,6.43331 -0.9097,1.39173 -1.4253,3.00436 -2.1446,4.50338 -0.5085,1.05983 -1.5994,2.8677 -1.251,3.05586 0.2621,0.14153 0.5958,0 0.8936,0 1.6084,0 3.2169,0.0166 4.8252,0 12.4314,-0.12864 7.227,0.0153 16.2627,-0.48257 1.072,-0.0591 2.1947,0.16772 3.2168,-0.1608 1.0604,-0.3408 3.0103,-2.87856 3.5742,-3.53834"
       id="path338" />
    <path
       style="fill:none;stroke:#ffffff;stroke-width:4;stroke-linecap:butt;stroke-linejoin:miter;stroke-dasharray:none;stroke-opacity:1"
       d="m 1222.1404,536.76556 c -5.5462,21.50166 -3.9697,11.92112 -5.8973,29.11077 -0.2405,2.1442 -0.4616,4.2906 -0.7149,6.43331 -0.045,0.37736 -0.5527,1.19315 -0.1788,1.12585 1.3612,-0.24498 2.502,-1.17942 3.753,-1.76913"
       id="path340" />
    <text
       xml:space="preserve"
       id="text665"
       style="font-style:normal;font-weight:normal;font-size:40px;line-height:1.25;font-family:sans-serif;letter-spacing:0px;word-spacing:0px;white-space:pre;shape-inside:url(#rect667);fill:#ffffff;fill-opacity:1;stroke:none;stroke-width:4;stroke-dasharray:none"
       transform="translate(-30.645783,-40.949043)"><tspan
         x="143.54688"
         y="105.51024"
         id="tspan2811">State</tspan></text>
    <text
       xml:space="preserve"
       id="text683"
       style="font-style:normal;font-weight:normal;font-size:40px;line-height:1.25;font-family:sans-serif;letter-spacing:0px;word-spacing:0px;white-space:pre;shape-inside:url(#rect685);fill:#ffffff;fill-opacity:1;stroke:none;stroke-width:4;stroke-dasharray:none"
       transform="translate(-202.68455,-49.811661)"><tspan
         x="757.20312"
         y="109.52587"
         id="tspan2813">proof V2</tspan></text>
    <text
       xml:space="preserve"
       id="text745"
       style="font-style:normal;font-weight:normal;font-size:40px;line-height:1.25;font-family:sans-serif;letter-spacing:0px;word-spacing:0px;white-space:pre;shape-inside:url(#rect747);fill:#ffffff;fill-opacity:1;stroke:none;stroke-width:4;stroke-dasharray:none"
       transform="translate(-432.92638,-19.913391)"><tspan
         x="1372.6152"
         y="79.80321"
         id="tspan2815">Proof  {V2, V4}</tspan></text>
    <text
       xml:space="preserve"
       id="text751"
       style="font-style:normal;font-weight:normal;font-size:40px;line-height:1.25;font-family:sans-serif;letter-spacing:0px;word-spacing:0px;white-space:pre;shape-inside:url(#rect753);fill:#ffffff;fill-opacity:1;stroke:none;stroke-width:4;stroke-dasharray:none"
       transform="translate(-93.338764,-11.478934)"><tspan
         x="645.42578"
         y="682.48094"
         id="tspan2817">[R, B2, L5, V2]</tspan></text>
    <text
       xml:space="preserve"
       id="text757"
       style="font-style:normal;font-weight:normal;font-size:40px;line-height:1.25;font-family:sans-serif;letter-spacing:0px;word-spacing:0px;white-space:pre;shape-inside:url(#rect759);fill:#ffffff;fill-opacity:1;stroke:none;stroke-width:4;stroke-dasharray:none"
       transform="translate(-30.645783,-40.949043)"><tspan
         x="934.88281"
         y="693.42626"
         id="tspan2819">[R, B2, B3, L5,
</tspan><tspan
         x="934.88281"
         y="743.42626"
         id="tspan2821">L7, V2, V4]</tspan></text>
  </g>
</svg>
