<?xml version="1.0" encoding="UTF-8" standalone="no"?>
<!-- Created with Inkscape (http://www.inkscape.org/) -->

<svg
   width="79.200005mm"
   height="76.800003mm"
   viewBox="0 0 79.200005 76.800003"
   version="1.1"
   id="svg3459"
   xmlns="http://www.w3.org/2000/svg"
   xmlns:svg="http://www.w3.org/2000/svg">
  <defs
     id="defs3456" />
  <g
     id="layer1">
    <path
       style="fill:none;stroke:#ffffff;stroke-width:0.665;stroke-linecap:butt;stroke-linejoin:miter;stroke-dasharray:none;stroke-opacity:1"
       d="m 13.938114,11.549162 c 0.07178,0.310086 0.134623,0.622379 0.215344,0.930259 0.08545,0.325906 0.410653,1.339632 0.4953,1.647334 0.624374,2.269697 0.604602,2.69877 1.335145,4.457493 0.107387,0.258527 0.246423,0.502759 0.366086,0.755838 0.02394,0.05062 0.03023,0.110847 0.06461,0.155041 0.01545,0.01987 0.172524,0.07708 0.193813,0.03876 0.03137,-0.05647 -0.02008,-0.132398 0,-0.193802 0.196371,-0.600869 0.45435,-1.180618 0.646038,-1.782998 0.395309,-1.242265 0.665525,-2.522704 1.07673,-3.759798 0.0967,-0.290922 0.226634,-0.569751 0.344551,-0.852739 0.150133,-0.360302 0.319913,-0.6942 0.581435,-0.988401 0.05775,-0.06496 0.12677,-0.119113 0.193815,-0.174422 0.02429,-0.02004 0.08474,-0.07021 0.08614,-0.03876 0.01434,0.322768 0.01437,0.646013 0.02154,0.96902"
       id="path3477" />
    <path
       style="fill:none;stroke:#ffffff;stroke-width:0.665;stroke-linecap:butt;stroke-linejoin:miter;stroke-dasharray:none;stroke-opacity:1"
       d="m 25.243793,17.634608 c 0.07896,-0.232565 0.1836,-0.457939 0.236882,-0.697694 0.0195,-0.08779 -0.168484,-0.07752 -0.258416,-0.07752 -0.836946,0 -0.334224,-0.01128 -0.947523,0.01938 -0.143532,0.0072 -0.291217,-0.01525 -0.430694,0.01938 -0.868283,0.215566 -1.367626,0.57588 -2.110394,1.162824 -0.18461,0.145883 -0.354459,0.320468 -0.47376,0.523271 -0.439161,0.746549 -0.359979,1.368248 -0.301485,2.248125 0.04883,0.734579 0.303694,1.598528 0.839851,2.131843 0.324887,0.323165 1.30147,0.247383 1.658165,0.174427 0.381196,-0.07797 0.755076,-0.193955 1.119801,-0.329467 1.115381,-0.414414 1.835328,-0.835358 2.799498,-1.608577 0.63163,-0.506531 1.097651,-1.337379 0.969061,-2.170599 -0.07049,-0.456742 -0.545735,-0.785924 -0.904452,-0.969023 -0.257828,-0.131601 -0.543293,-0.200396 -0.818317,-0.290706 -0.05413,-0.01778 -1.200097,-0.481573 -1.378217,-0.135662 -0.230081,0.446825 -0.143565,0.994862 -0.215347,1.492292"
       id="path3479" />
    <path
       style="fill:none;stroke:#ffffff;stroke-width:0.665;stroke-linecap:butt;stroke-linejoin:miter;stroke-dasharray:none;stroke-opacity:1"
       d="m 18.417313,29.107807 c -0.414361,0.862361 -0.604358,0.663932 0.129209,0.813974"
       id="path3481" />
    <path
       style="fill:none;stroke:#ffffff;stroke-width:0.665;stroke-linecap:butt;stroke-linejoin:miter;stroke-dasharray:none;stroke-opacity:1"
       d="m 18.094299,32.34433 c -0.237151,0.675857 -0.255722,0.528101 -0.27995,1.007785 -0.0026,0.05161 0.0071,0.103851 0,0.15504 -0.0019,0.01421 -0.05412,-0.0092 -0.04307,0 0.09763,0.0811 0.200991,0.155044 0.301485,0.232567"
       id="path3483" />
    <path
       style="fill:none;stroke:#ffffff;stroke-width:0.665;stroke-linecap:butt;stroke-linejoin:miter;stroke-dasharray:none;stroke-opacity:1"
       d="m 17.900484,36.666159 c -0.04307,0.47159 -0.08614,0.943181 -0.129207,1.414772"
       id="path3485" />
    <path
       style="fill:none;stroke:#ffffff;stroke-width:0.665;stroke-linecap:butt;stroke-linejoin:miter;stroke-dasharray:none;stroke-opacity:1"
       d="m 3.816841,43.565579 c 1.263344,-0.483738 2.56641,-0.952487 3.9193,-1.10468 0.19485,-0.02191 1.184437,-0.09418 1.227473,-0.0969 0.250437,-0.01582 0.5236,0.0058 0.77525,-0.01939 1.128187,-0.112805 -1.386694,0.07137 1.012124,-0.07752 0.502168,-0.03117 0.46346,-0.06101 0.925988,-0.01939 0.815053,0.07336 0.44937,0.13073 1.679702,0.329467 0.148814,0.02405 0.301519,-0.0031 0.452229,0 0.308865,0.0065 0.617116,0.03259 0.925987,0.03876 0.626077,0.01252 0.348689,-0.01805 0.861387,0.01937 0.721939,0.05268 1.437962,0.165478 2.153459,0.271327 0.165312,0.02445 0.332806,0.03852 0.4953,0.07752 0.605047,0.145206 0.339643,0.186079 0.969061,0.251947 0.142782,0.01495 0.287144,-0.0024 0.430686,0 0.646252,0.01077 1.29191,0.01029 1.938118,0.01937 0.48824,0.0069 0.976383,0.02119 1.464357,0.03876 0.555495,0.02 1.099878,0.09347 1.658168,0.07752 0.785122,-0.02244 1.561978,-0.119229 2.347269,-0.13566 0.548918,-0.01148 1.088626,-0.03859 1.636636,-0.07753 0.07697,-0.0055 0.317786,-0.01167 0.430689,-0.03876 0.06558,-0.01574 0.128008,-0.04334 0.193812,-0.05814 0.141769,-0.0319 0.40545,0 0.516829,0 0.415536,0 0.851533,-0.01796 1.270545,0 0.350655,0.01503 0.679141,0.06508 1.033661,0.05814 0.186709,-0.0037 0.373195,-0.01548 0.559901,-0.01939 0.169479,-0.0035 0.421886,0.02716 0.60297,0 0.06837,-0.01027 0.33111,-0.128374 0.387627,-0.07752 0.100841,0.09073 0.04306,0.745662 0.04306,0.910879 0,0.569335 0.02461,1.160192 -0.02154,1.724853 -0.01617,0.197874 -0.104889,0.384373 -0.129214,0.581411 -0.06452,0.522624 -0.08173,1.063969 -0.107673,1.589193 -0.04265,0.863706 0.03981,1.709278 0.193816,2.558214 0.02947,0.162431 0.04196,0.336659 0.107672,0.484513 0.0084,0.01889 0.03384,0.04153 0.02154,0.05814 -0.03777,0.05099 -0.09759,0.0816 -0.150744,0.116282 -0.234182,0.152796 -0.46637,0.309657 -0.710641,0.445746 -0.63948,0.356264 -1.327756,0.570052 -2.04579,0.697698 -1.886588,0.335381 -3.777965,0.345956 -5.685142,0.445746 -1.068808,0.05592 -2.143371,0.131649 -3.208663,0.232566 -1.666568,0.157877 0.219551,0.0048 -1.292074,0.135663 -1.453674,0.125793 -2.913708,0.210775 -4.371528,0.271325 -0.44142,0.01834 -0.919898,0.02127 -1.356686,-0.01939 -0.410633,-0.03823 -0.818002,-0.105908 -1.227473,-0.155041 -0.493184,-0.05918 -0.98186,-0.08912 -1.464353,-0.213185 C 11.837181,52.773648 11.457816,52.498516 11.030927,52.34484 10.694163,52.223608 10.344589,52.140593 9.997268,52.054135 9.68293,51.975885 9.368129,51.943864 9.049744,51.899094 8.173114,51.775825 7.30434,51.619046 6.42252,51.530863 c -0.460438,-0.04604 -0.967487,-0.04869 -1.421288,0.01939 -0.20431,0.03064 -0.406785,0.154326 -0.602971,0.213183 -0.04813,0.01445 -0.100534,0.0019 -0.150743,0 -0.3673,-0.01437 -0.731812,-0.07752 -1.098266,-0.07752 -0.06495,0 -0.77448,0.03945 -0.818316,0 -0.02871,-0.02585 0.06213,-0.04726 0.08614,-0.07753 C 2.499526,51.5045 2.524581,51.365543 2.567819,51.240163 2.762575,50.675399 3.080117,49.59996 2.998512,49.030794 2.973522,48.856505 2.669414,48.324571 2.589354,48.139296 2.47207,47.867879 2.467,47.623382 2.395541,47.344702 2.344591,47.146011 2.241134,46.98956 2.158661,46.80205 2.068501,46.597051 1.975812,46.392697 1.900246,46.181877 1.757613,45.783946 1.706433,45.536323 1.706433,45.154717 c 0,-0.02585 -0.01433,-0.05602 0,-0.07752 0.150614,-0.225904 0.545041,-0.272421 0.775244,-0.310087 0.402348,-0.06584 0.798182,-0.121549 1.205943,-0.135665 0.250177,-0.0087 0.504076,-0.0033 0.75371,-0.01939 0.131613,-0.0085 0.351847,-0.0033 0.473764,-0.05814 0.0088,-0.004 0.01189,-0.01886 0.02153,-0.01939 0.114691,-0.0061 0.229704,0 0.344557,0"
       id="path3487" />
    <path
       style="fill:none;stroke:#ffffff;stroke-width:0.665;stroke-linecap:butt;stroke-linejoin:miter;stroke-dasharray:none;stroke-opacity:1"
       d="m 4.139857,48.759527 c 0.488925,0.211601 1.000392,0.395317 1.52896,0.48451 0.0993,0.01675 0.201377,0.0085 0.301485,0.01939 0.136944,0.01495 0.272383,0.04173 0.409158,0.05815 0.373212,0.04478 0.748543,0.04945 1.119801,0.116277 0.244702,0.04405 0.488194,0.132601 0.732174,0.174426 0.227828,0.03906 0.461179,0.03906 0.689108,0.07752 0.375981,0.06344 0.747309,0.182079 1.098266,0.32947 0.164777,0.0692 0.357961,0.09578 0.516835,0.174421 0.170103,0.0842 0.418715,0.286936 0.624502,0.310087 0.05034,0.0057 0.10056,0.01243 0.150743,0.01939 0.04314,0.006 0.09885,0.05061 0.129208,0.01939 0.04084,-0.042 7.14e-4,-0.119669 0.02153,-0.174429 0.07327,-0.192741 0.165454,-0.377976 0.258415,-0.562028 0.319384,-0.632352 0.395839,-0.360831 -0.215344,-0.910879"
       id="path3489" />
    <path
       style="fill:none;stroke:#ffffff;stroke-width:0.665;stroke-linecap:butt;stroke-linejoin:miter;stroke-dasharray:none;stroke-opacity:1"
       d="m 3.515356,47.616085 c 0.23212,0.499957 0.236879,0.769488 0.236879,1.220962 0,0.05814 0,0.116287 0,0.17443 0,0.01937 -0.01767,0.06609 0,0.05814 0.03523,-0.01585 0.05332,-0.05715 0.08614,-0.07752 0.175958,-0.109209 0.358913,-0.206724 0.53837,-0.310086"
       id="path3491" />
    <path
       style="fill:none;stroke:#ffffff;stroke-width:0.665;stroke-linecap:butt;stroke-linejoin:miter;stroke-dasharray:none;stroke-opacity:1"
       d="m 5.30273,45.232295 c -0.689269,1.513578 -0.399049,0.697871 -0.710644,1.841138 -0.08433,0.309417 -0.203613,0.670536 -0.04307,0.988401 0.06722,0.133091 0.36939,0.177596 0.452229,0.193805 0.06372,0.01246 0.129349,0.01164 0.193814,0.01939 0.278611,0.03343 0.196071,0.08874 0.495294,-0.135665 0.04636,-0.03476 0.09279,-0.07122 0.129207,-0.116282 0.359284,-0.444601 0.115319,-0.159306 0.279951,-0.445752 0.628863,-1.094165 -0.02424,0.09849 0.409158,-0.717073 0.115632,-0.217594 0.213428,-0.438857 0.27995,-0.678313 0.01106,-0.03983 0.04307,-0.07495 0.04307,-0.116284 0,-0.215133 -0.08648,-0.441841 -0.193814,-0.620173 -0.08587,-0.142666 -0.09827,-0.128701 -0.215344,-0.15504 -0.03558,-0.008 -0.115589,-0.05498 -0.107677,-0.01939 0.04343,0.195442 0.100495,0.387606 0.150743,0.581411"
       id="path3493" />
    <path
       style="fill:none;stroke:#ffffff;stroke-width:0.665;stroke-linecap:butt;stroke-linejoin:miter;stroke-dasharray:none;stroke-opacity:1"
       d="M 8.554457,47.596702 C 8.067409,46.654304 8.123763,47.076036 8.123763,46.395121 c 0,-0.40699 0,-0.813978 0,-1.220965 0,-0.03876 -0.02881,-0.09035 0,-0.116285 0.03201,-0.02881 0.08617,-0.0016 0.129208,0 0.150783,0.0054 0.303984,-0.0087 0.452228,0.01939 0.127864,0.02424 0.244843,0.08838 0.366087,0.135658 0.300418,0.117157 0.45809,0.190219 0.753715,0.387611 0.173164,0.01939 0.173431,0.208537 0.27995,0.290706 0.01705,0.01315 0.05138,-0.01699 0.0646,0 0.06612,0.08501 0.300595,0.743175 0.323021,0.852739 0.02736,0.133649 0.02504,0.271764 0.04307,0.40699 0.0035,0.02658 0.04351,0.06214 0.02154,0.07752 -0.123634,0.08654 -0.272013,0.130831 -0.409158,0.193802 -0.214604,0.09854 -0.429959,0.195456 -0.646043,0.290706 -0.135666,0.0598 -0.262,0.192482 -0.409157,0.174421 -0.202428,-0.02484 -0.334882,-0.276971 -0.538366,-0.290706 -0.398153,-0.02687 -0.787712,0.131009 -1.184402,0.17443 -0.228339,0.025 -0.459405,0 -0.689108,0 -0.04355,0 -0.170184,-0.0046 -0.129208,-0.01939 0.154728,-0.0557 0.515791,0.02585 0.602967,0.01939 0.468906,-0.03476 0.933167,-0.116287 1.399751,-0.17443 z"
       id="path3495" />
    <path
       style="fill:none;stroke:#ffffff;stroke-width:0.665;stroke-linecap:butt;stroke-linejoin:miter;stroke-dasharray:none;stroke-opacity:1"
       d="m 12.344554,46.201316 c -0.258417,-0.122743 -0.514361,-0.250833 -0.77525,-0.368231 -0.05472,-0.02463 -0.41175,-0.01005 -0.430693,0.05815 -0.06298,0.226697 -0.02218,0.724595 -0.04307,0.969017 -0.01107,0.129527 -0.01487,0.260708 -0.04307,0.387612 -0.04747,0.21362 -0.156773,0.409324 -0.215344,0.620173 -0.02084,0.07501 -0.0046,0.156562 -0.02153,0.232561 -0.0032,0.01442 -0.03632,0.03876 -0.02154,0.03876 0.01574,0 0.02739,-0.01796 0.04307,-0.01939 0.247901,-0.0223 0.510102,0.02162 0.75371,0.05814 0.08722,0.01307 0.347552,0.316487 0.344556,0.348843 -0.0052,0.05626 -0.100495,0.05168 -0.150743,0.07753"
       id="path3497" />
    <path
       style="fill:none;stroke:#ffffff;stroke-width:0.665;stroke-linecap:butt;stroke-linejoin:miter;stroke-dasharray:none;stroke-opacity:1"
       d="m 11.87079,47.189715 c -0.02853,0.02768 -1.345803,-0.06793 -1.399752,-0.01939 -0.0072,0.0065 0.01273,0.01543 0.02153,0.01939 0.09215,0.04146 0.178904,0.116284 0.279951,0.116284 0.368134,0 0.732177,-0.07752 1.098266,-0.116284 z"
       id="path3499" />
    <path
       style="fill:none;stroke:#ffffff;stroke-width:0.665;stroke-linecap:butt;stroke-linejoin:miter;stroke-dasharray:none;stroke-opacity:1"
       d="m 14.174994,47.112194 c -0.05907,0.709494 -0.04307,1.420995 -0.04307,2.131843 0,0.170273 -0.03634,0.359701 0,0.52327 0.01391,0.0626 0.09621,0.134416 0.129207,0.193804 0.08838,0.159073 0.147658,0.362678 0.23688,0.523272 0.0121,0.02177 0.14667,0.01865 0.150743,0.01939 0.459732,0.08275 0.782129,0.180067 1.270545,0.193804 0.443301,0.01246 0.156284,-0.0047 0.581429,-0.01939 0.262406,-0.0091 0.314434,0.01579 0.581438,-0.01937 1.30411,-0.171746 -0.05732,-0.025 1.033664,-0.174427 0.363791,-0.04982 0.716126,-0.06032 1.076729,-0.135659 0.225134,-0.04704 0.446517,-0.110935 0.667573,-0.174427 0.196356,-0.0564 0.383837,-0.141938 0.581438,-0.193805 0.560041,-0.146999 -0.0065,0.04567 0.58143,-0.15504 0.144402,-0.0493 0.280522,-0.128013 0.430694,-0.155046 0.516924,-0.09305 -0.172876,0.116422 0.667573,-0.07752 1.234011,-0.284761 -0.08596,-0.04987 0.5599,-0.174421 0.568085,-0.109554 1.148895,-0.179645 1.722771,-0.251947 0.642877,-0.081 1.293604,-0.153183 1.938118,-0.213186 0.298839,-0.08781 0.603314,-0.01939 0.904452,-0.03876 0.0096,-5.3e-4 0.01191,-0.0186 0.02154,-0.01939 0.152654,-0.01249 1.057558,-0.02241 1.119801,0 0.273857,0.09858 0.559671,0.144306 0.839851,0.23256 0.250291,0.07884 -0.04149,0.04292 0.150741,0.07753 0.450856,0.08116 1.106318,0.0085 1.55049,-0.05814 0.135329,-0.02029 0.243343,-0.09884 0.366094,-0.135657 0.09125,-0.02737 0.191659,-0.0378 0.27995,-0.07753 0.03692,-0.01662 0.06061,-0.07394 0.08613,-0.0969 0.0444,-0.03996 0.112501,-0.05101 0.150744,-0.0969 0.106815,-0.128164 0.125981,-0.320151 0.193807,-0.465127 0.05662,-0.121023 0.167712,-0.220231 0.21535,-0.348848 0.05599,-0.151151 0.04917,-0.516091 0.04307,-0.658937 -0.0057,-0.132371 -0.01495,-0.196149 -0.04307,-0.310081 -0.0079,-0.03213 -0.04991,-0.07988 -0.02154,-0.09691 0.240638,-0.144362 0.55958,-0.04413 0.839851,-0.05814"
       id="path3501" />
    <path
       style="fill:none;stroke:#ffffff;stroke-width:0.665;stroke-linecap:butt;stroke-linejoin:miter;stroke-dasharray:none;stroke-opacity:1"
       d="m 17.18984,44.999735 c 0.417605,1.006194 0.620974,2.064493 0.753716,3.139619 0.02257,0.182743 0.01453,0.313235 0.0646,0.290706 0.07481,-0.03365 0.501685,-1.483656 0.624507,-1.317866 0.0123,0.01662 -0.02278,0.03751 -0.02154,0.05814 0.04534,0.75492 0.226107,1.498166 0.624501,2.151229 0.07252,0.11888 0.144799,0.276532 0.27995,0.310086 0.122235,0.03035 0.26692,-0.05588 0.344557,-0.155045 0.280969,-0.358902 0.45743,-1.1609 0.646038,-1.569816 0.128651,-0.278929 0.340945,-0.445124 0.4953,-0.697693 0.183753,-0.300672 0.133956,-0.405646 0.236879,-0.736454 0.03199,-0.102825 0.103283,-0.162584 0.129207,-0.232566 0.01897,-0.05121 0.08776,-0.06179 0.08614,-0.05814 -0.01577,0.03548 -0.04307,0.0646 -0.0646,0.0969 -0.05025,0.258408 -0.100494,0.516813 -0.150741,0.775219"
       id="path3503" />
    <path
       style="fill:none;stroke:#ffffff;stroke-width:0.665;stroke-linecap:butt;stroke-linejoin:miter;stroke-dasharray:none;stroke-opacity:1"
       d="m 22.315083,47.693606 c 0,-1.239981 -0.140745,-1.092907 0.172278,-1.938042 0.08415,-0.227197 0.166646,-0.419856 0.323017,-0.600789 0.0084,-0.0098 -0.0059,0.02726 0,0.03876 0.03792,0.07394 0.08467,0.143036 0.129207,0.213185 0.224721,0.35392 0.43094,0.719849 0.667578,1.065919 0.04907,0.07176 0.547084,0.689292 0.667573,0.930259 0.01762,0.03526 0.0055,0.08026 0.02154,0.116282 0.0036,0.0081 0.160652,-0.09203 0.129209,-0.116282 -0.138369,-0.106738 -0.406008,-0.138404 -0.559901,-0.193805 -0.103976,-0.03743 -0.169894,-0.136326 -0.27995,-0.174421 -0.370991,-0.128413 -0.02111,0.0195 -0.559901,-0.135665 -0.142401,-0.04101 -0.222112,-0.100084 -0.366093,-0.116282 -0.03567,-0.004 -0.133281,-0.02514 -0.107672,0 0.09888,0.09708 0.229706,0.155043 0.344556,0.232566"
       id="path3505" />
    <path
       style="fill:none;stroke:#ffffff;stroke-width:0.665;stroke-linecap:butt;stroke-linejoin:miter;stroke-dasharray:none;stroke-opacity:1"
       d="m 27.483391,44.670265 c -0.396203,0.144642 -1.285,0.22974 -1.658165,0.503891 -0.236993,0.174109 -0.446646,0.384638 -0.646039,0.600792 -0.131609,0.142671 -0.296314,0.292248 -0.323022,0.484507 -0.02027,0.145871 0.02302,0.151355 0.193816,0.232567 0.270261,0.128497 0.724027,0.366506 1.098267,0.445751 0.171558,0.03633 0.35552,0.04334 0.301484,0.116282 -0.0094,0.01265 -0.03013,0.01042 -0.04307,0.01937 -0.08062,0.05581 -0.156102,0.118835 -0.236879,0.174427 -0.452408,0.311351 -0.539589,0.370057 -1.033666,0.620173 -0.162727,0.08238 -0.328965,0.157715 -0.495292,0.23256 -0.03479,0.01566 -0.09746,0.0021 -0.107672,0.03876 -0.02622,0.09439 -0.02872,0.193804 -0.04307,0.290705"
       id="path3507" />
    <path
       style="fill:none;stroke:#ffffff;stroke-width:0.665;stroke-linecap:butt;stroke-linejoin:miter;stroke-dasharray:none;stroke-opacity:1"
       d="m 28.883142,47.247859 c 0.12921,-0.39407 0.232971,-0.797411 0.387623,-1.182208 0.09031,-0.224684 0.233378,-0.424429 0.344559,-0.639554 0.04869,-0.09421 0.08613,-0.193804 0.129206,-0.290705 0.01437,-0.0323 0.0168,-0.120547 0.04307,-0.0969 0.03361,0.03025 -0.01069,0.09172 0,0.135665 0.03995,0.164354 0.08291,0.329565 0.150736,0.484507 0.02698,0.06163 0.08507,0.104281 0.129214,0.155046 0.08508,0.09784 0.144809,0.228227 0.258413,0.290706 0.207809,0.114289 0.520809,0.197292 0.753711,0.07752 0.08215,-0.04225 0.143566,-0.116282 0.21535,-0.174421 0.07178,-0.05814 0.141441,-0.119004 0.215341,-0.174429 0.02519,-0.01889 0.08181,-0.06994 0.08614,-0.03876 0.02013,0.145044 -0.02334,0.322582 0.08614,0.445746 0.06732,0.07573 0.244213,-0.112819 0.27995,-0.05814 0.06897,0.105516 0.05743,0.245483 0.08614,0.368226"
       id="path3509" />
    <path
       style="fill:none;stroke:#ffffff;stroke-width:0.665;stroke-linecap:butt;stroke-linejoin:miter;stroke-dasharray:none;stroke-opacity:1"
       d="m 47.725947,13.254637 c 0.929058,1.409471 0.725829,0.953546 1.399746,2.655117 0.315172,0.795772 0.590653,1.606858 0.904457,2.403172 0.01802,0.04575 0.606383,1.373894 0.689105,1.569807 0.04589,0.108675 0.0854,0.21994 0.129212,0.329467 0.0208,0.05199 0.02741,0.1132 0.0646,0.155046 0.02994,0.03369 0.01961,-0.06808 0.02154,-0.07753 0.06334,-0.310346 0.130586,-0.61989 0.193813,-0.93026 0.0947,-0.464849 0.178422,-0.931981 0.279956,-1.395386 0.283593,-1.294349 0.598463,-2.35637 1.184402,-3.546612 0.246853,-0.501442 0.208079,-0.3045 0.452228,-0.697696 0.07797,-0.125565 0.146672,-0.256726 0.215344,-0.387607 0.172593,-0.328929 0.05125,-0.274602 0.236874,-0.348849 0.04386,-0.01754 0.09123,-0.08621 0.129215,-0.05814 0.185385,0.137048 0.315838,0.335927 0.473757,0.50389"
       id="path3511" />
    <path
       style="fill:none;stroke:#ffffff;stroke-width:0.665;stroke-linecap:butt;stroke-linejoin:miter;stroke-dasharray:none;stroke-opacity:1"
       d="m 57.545735,20.541667 c 0.287128,-0.432829 0.565507,-0.871593 0.861385,-1.298487 0.441619,-0.637173 0.938544,-1.237914 1.399747,-1.860515 0.05499,-0.07423 0.09268,-0.160712 0.150743,-0.232566 0.0061,-0.0075 0.01326,0.01441 0.02154,0.01938 0.128903,0.07733 0.06928,-0.104655 0.107683,0.310088 0.04827,0.521234 0.03821,1.046363 0.04306,1.569807 0.0043,0.465111 0.0052,0.930291 0,1.395391 -0.0021,0.181015 -0.01561,0.361723 -0.02154,0.542653 -0.0041,0.12474 7.94e-4,0.173731 0.02154,0.15504 0.09978,-0.08979 0.104204,-0.41892 0.129212,-0.193802 0.01011,0.09101 -0.02871,0.180883 -0.04307,0.271323"
       id="path3513" />
    <path
       style="fill:none;stroke:#ffffff;stroke-width:0.665;stroke-linecap:butt;stroke-linejoin:miter;stroke-dasharray:none;stroke-opacity:1"
       d="m 55.176918,25.968179 c -0.352629,0.764288 -0.323014,1.347771 -0.323014,2.112465 0,0.0323 -0.02522,-0.07672 0,-0.0969 0.0564,-0.04512 0.127262,-0.06883 0.193812,-0.0969 0.163349,-0.06891 0.3302,-0.129207 0.4953,-0.19381"
       id="path3515" />
    <path
       style="fill:none;stroke:#ffffff;stroke-width:0.665;stroke-linecap:butt;stroke-linejoin:miter;stroke-dasharray:none;stroke-opacity:1"
       d="m 55.112317,32.092386 c -0.289597,1.876536 -0.08614,0.155943 -0.08614,0.891498 0,0.11811 -0.0391,0.244043 -0.02154,0.251946 0.01762,0.0079 0.02466,-0.03291 0.04307,-0.03876 0.105534,-0.03352 0.215344,-0.05168 0.323017,-0.07752"
       id="path3517" />
    <path
       style="fill:none;stroke:#ffffff;stroke-width:0.665;stroke-linecap:butt;stroke-linejoin:miter;stroke-dasharray:none;stroke-opacity:1"
       d="m 55.026177,36.70492 c 0.361534,2.184614 0.02858,0.03772 0.193812,1.376011 0.0097,0.07824 0.06417,0.156599 0.04307,0.232561 -0.0096,0.03458 -0.07178,0 -0.107672,0"
       id="path3519" />
    <path
       style="fill:none;stroke:#ffffff;stroke-width:0.665;stroke-linecap:butt;stroke-linejoin:miter;stroke-dasharray:none;stroke-opacity:1"
       d="m 46.993763,42.848505 c 0.294306,-0.09044 0.578001,-0.228637 0.882917,-0.271325 0.348337,-0.04877 0.703556,0.0079 1.055201,0 0.222842,-0.005 0.444791,-0.03151 0.667572,-0.03876 0.595096,-0.05534 1.191856,-2.36e-4 1.787375,-0.01937 0.179826,-0.0058 0.358629,-0.03067 0.538368,-0.03876 0.853155,-0.03839 1.71019,-0.02461 2.56262,-0.07752 0.586348,-0.03639 1.162595,-0.17716 1.744302,-0.251947 0.491858,-0.06324 0.992079,-0.07396 1.48589,-0.116284 0.889251,-0.07622 1.781058,0.0048 2.670291,-0.05814 0.516991,-0.0366 1.032925,-0.08915 1.550498,-0.116282 0.704689,-0.03694 1.406689,0.01939 2.110391,0.01939 0.236881,0 0.473884,-0.0076 0.710644,0 0.0062,1.99e-4 0.510646,0.03857 0.516829,0.03876 0.322279,0.01 0.324342,-0.01646 0.602973,0.01939 0.108508,0.01394 0.214505,0.04419 0.323016,0.05815 0.05558,0.0071 0.117898,-0.01222 0.172284,0 0.0063,0.0013 0,0.01291 0,0.01937 0,0.04522 0,0.09044 0,0.135665 0,0.103363 0,0.206725 0,0.310087 0,0.691234 0,1.382469 0,2.073703 0,0.363588 0.0021,0.832319 0.107669,1.182206 0.10668,0.354021 0.393126,0.962348 0.538361,1.317866 0.09704,0.23754 0.183245,0.479401 0.279956,0.717074 0.755234,1.856055 -0.08745,-0.288819 0.452228,1.124064 0.01998,0.0523 0.0569,0.09959 0.0646,0.15504 0.0019,0.01423 -0.03044,-0.0068 -0.04307,0 -0.04609,0.0249 -0.1295,0.101447 -0.172276,0.135665 -0.19015,0.152117 -0.07863,0.06737 -0.215352,0.251947 -0.208727,0.281776 0.03263,-0.07145 -0.172273,0.174421 -0.0098,0.01177 -0.166346,0.2447 -0.193815,0.271325 -0.154919,0.150143 -0.203115,0.149106 -0.366085,0.271328 -0.09271,0.06953 -0.167926,0.160171 -0.258416,0.232561 -0.01754,0.01405 -0.04662,0.0059 -0.0646,0.01939 -0.146553,0.109902 -0.207539,0.307451 -0.387628,0.368228 -0.342897,0.115724 -0.289306,0.07986 -0.732173,0.13566 -0.637699,0.08035 -1.280724,0.10224 -1.916586,0.193805 -0.583145,0.08397 -0.605343,0.135543 -1.227474,0.174426 -1.307288,0.0817 -2.636578,0.03017 -3.940836,-0.07752 -1.114671,-0.09203 -2.221265,-0.301728 -3.337865,-0.368231 -1.118975,-0.06664 -2.240256,-0.02381 -3.359404,-0.05814 -0.620368,-0.01902 -1.234617,-0.06999 -1.851974,-0.116282 -0.284589,-0.02135 -0.564224,0.0646 -0.839857,0.116282 -0.193431,0.03627 -0.389122,0.05844 -0.581429,0.0969 -0.52287,0.104568 -1.046666,0.262884 -1.57203,0.348842 -0.04959,0.0081 -0.102616,-0.01445 -0.150744,0 -0.15785,0.04735 -0.314261,0.138541 -0.473758,0.174427 -0.03502,0.0079 -0.07218,-0.0053 -0.107672,0 -0.04251,-0.0073 -0.07013,0.032 -0.107672,0.03876 -0.148071,0.02665 -0.489844,-0.01704 -0.559901,-0.01939 -0.19436,-0.0065 -0.419645,0.01624 -0.602972,-0.03876 -0.06044,-0.01812 -0.01894,-0.253548 -0.02154,-0.290706 -0.0083,-0.118866 -0.07216,-0.497985 -0.08614,-0.542652 -0.106759,-0.341085 -0.245491,-0.671335 -0.366085,-1.00778 -0.182539,-0.509256 -0.336632,-1.029091 -0.538372,-1.531051 -0.547918,-1.3633 -1.313505,-2.596771 -2.024258,-3.876082 -0.236823,-0.426268 -0.194913,-0.283789 -0.236874,-0.755838 -0.0029,-0.03217 0,-0.0646 0,-0.0969 0,-0.01939 -0.01807,-0.05117 0,-0.05814 0.04688,-0.01807 0.100494,0 0.150741,0 0.100497,0 0.201028,0.0028 0.301488,0 0.634796,-0.0173 0.220834,-0.04853 0.969057,0.03876 1.307844,0.152577 -0.101562,0.0089 1.205934,0.13566 0.265605,0.02574 0.533199,0.03591 0.796785,0.07753 0.908209,0.143394 -0.05547,0.09867 0.882917,0.213178 0.271444,0.03312 0.544888,0.05383 0.818314,0.05814 0.02506,2.65e-4 0.433972,-0.03754 0.559901,-0.05814 0.04298,-0.007 0.09401,-0.04502 0.129212,-0.01937 0.141531,0.103108 0.272772,0.219641 0.409159,0.329462"
       id="path3521" />
    <path
       style="fill:none;stroke:#ffffff;stroke-width:0.665;stroke-linecap:butt;stroke-linejoin:miter;stroke-dasharray:none;stroke-opacity:1"
       d="m 46.089306,45.135392 c 0.01931,0.593182 -0.45234,1.062921 -0.430689,1.647335 0.01326,0.357614 0.406019,1.562045 0.925989,1.472912 0.52302,-0.08966 1.011333,-0.557454 1.249013,-1.00778 0.202607,-0.38387 0.236469,-0.819038 0.301487,-1.240345 0.042,-0.272174 0.167074,-0.980141 -0.02154,-1.259729 -0.117014,-0.173453 -0.30984,-0.326792 -0.452228,-0.484508 -0.09384,-0.103936 -0.280448,-0.381452 -0.387617,-0.445751 -0.07852,-0.04711 -0.01244,0.198485 0.04306,0.271325 0.128063,0.168076 0.287131,0.310089 0.430699,0.465132"
       id="path3523" />
    <path
       style="fill:none;stroke:#ffffff;stroke-width:0.665;stroke-linecap:butt;stroke-linejoin:miter;stroke-dasharray:none;stroke-opacity:1"
       d="m 49.857867,47.984314 c -0.495409,-1.188956 -0.266301,-0.557853 -0.538359,-1.414772 -0.08743,-0.275392 -0.13758,-0.52478 -0.193815,-0.813978 -0.01566,-0.08061 -0.151347,-0.541012 -0.107672,-0.658928 0.07717,-0.208349 0.650174,-0.282906 0.818317,-0.329468 0.121652,-0.03369 0.239855,-0.0969 0.366088,-0.0969 0.158445,0 0.319735,0.0016 0.473757,0.03876 0.468424,0.113104 1.309249,0.648766 1.57203,1.02716 0.218813,0.315079 0.01828,1.053615 -0.04307,1.317871 -0.07574,0.326226 -0.317799,1.046109 -0.624502,1.240345 -0.100795,0.06384 -0.225644,0.08718 -0.344556,0.0969 -0.418534,0.03424 -1.141833,-0.32099 -1.378218,-0.40699 z"
       id="path3525" />
    <path
       style="fill:none;stroke:#ffffff;stroke-width:0.665;stroke-linecap:butt;stroke-linejoin:miter;stroke-dasharray:none;stroke-opacity:1"
       d="m 54.660089,44.670265 c -0.629158,0.09842 -1.268397,-0.02056 -1.895047,0.07752 -0.102309,0.01601 -0.325736,0.02244 -0.409157,0.116284 -0.0086,0.0097 0.0013,0.0259 0,0.03876 -0.0058,0.05186 -0.0149,0.103293 -0.02154,0.155045 -0.0149,0.116216 -0.0259,0.23295 -0.04307,0.348851 -0.06442,0.434774 -0.172273,0.838049 -0.172273,1.279104 0,0.219644 0,0.439291 0,0.658934 0,0.0323 -0.024,0.07529 0,0.0969 0.01066,0.0096 0.02881,-0.0016 0.04306,0 0.09354,0.01122 0.187925,0.0186 0.279955,0.03876 0.04188,0.0092 0.417357,0.156546 0.60297,0.135665 0.216889,-0.02439 0.429112,-0.08625 0.646033,-0.116284 0.08291,-0.01148 0.362958,-0.10835 0.452228,-0.05814 0.04692,0.02641 0.08614,0.0646 0.129212,0.0969"
       id="path3527" />
    <path
       style="fill:none;stroke:#ffffff;stroke-width:0.665;stroke-linecap:butt;stroke-linejoin:miter;stroke-dasharray:none;stroke-opacity:1"
       d="m 51.602172,45.736184 c 0.229703,0.180885 0.447458,0.378073 0.689113,0.542652 0.02967,0.02021 0.07208,-0.0046 0.107672,0 0.09749,-0.03072 0.171098,0.04505 0.258413,0.05815 0.128945,0.01934 0.281617,0 0.40916,0 0.05742,0 0.114847,0 0.172272,0 0.02154,0 0.07002,0.02085 0.06461,0 -0.05187,-0.200057 -0.143571,-0.387609 -0.215355,-0.581417"
       id="path3529" />
    <path
       style="fill:none;stroke:#ffffff;stroke-width:0.665;stroke-linecap:butt;stroke-linejoin:miter;stroke-dasharray:none;stroke-opacity:1"
       d="m 48.802677,31.685399 c -0.595233,0.156858 -1.204492,0.330895 -1.658171,0.775213 -0.13055,0.127855 -0.229706,0.284244 -0.344556,0.426371 -0.05742,0.07106 -0.133405,0.1305 -0.172273,0.213182 -0.04223,0.08983 -0.04418,0.193564 -0.0646,0.290706 -0.02983,0.141893 -0.06295,0.283242 -0.08614,0.426371 -0.0571,0.352396 -0.115166,0.655381 0,1.007779 0.07974,0.243996 0.674428,0.395499 0.839845,0.465132 0.768842,0.323647 1.101627,0.518901 1.938118,0.697693 0.320561,0.06852 0.662715,0.05814 0.990597,0.05814"
       id="path3531" />
    <path
       style="fill:none;stroke:#ffffff;stroke-width:0.665;stroke-linecap:butt;stroke-linejoin:miter;stroke-dasharray:none;stroke-opacity:1"
       d="m 12.279947,32.479993 c -0.830407,0.65769 -1.676597,1.294767 -2.454946,2.015558 -0.281891,0.261046 -0.868984,0.842672 -1.098266,1.22097 -0.04819,0.07951 0.05321,0.179055 0.0646,0.271325 0.04242,0.343583 0.0124,0.811655 0,1.124061 -0.0065,0.162627 -0.08874,0.50549 -0.02153,0.678313 0.114835,0.29528 0.763165,0.582276 1.033659,0.639553 1.047579,0.221832 1.296889,0.155046 2.433412,0.155046 0.124103,0 0.190165,0.01146 0.301485,-0.01939 0.151672,-0.042 0.301486,-0.09044 0.452229,-0.135665"
       id="path3533" />
    <path
       style="fill:none;stroke:#ffffff;stroke-width:0.665;stroke-linecap:butt;stroke-linejoin:miter;stroke-dasharray:none;stroke-opacity:1"
       d="m 44.904904,47.538565 c 0.176797,0.409083 0.006,0.876734 0.06461,1.298482 0.0044,0.102767 0.07223,0.190601 0.08613,0.290706 0.01754,0.126333 -0.02339,0.267986 0.04307,0.387612 0.06378,0.114813 0.197324,0.06332 0.301488,0.07752 0.43126,0.05881 0.835009,0.158168 1.270542,0.193805 0.42042,0.0344 0.543153,0.05131 0.947518,0.03876 0.136933,-0.0043 0.272277,-0.03316 0.40916,-0.03876 0.702786,-0.02875 1.407242,-0.01958 2.110398,-0.03876 0.570638,-0.01556 1.151224,-0.107913 1.722763,-0.05814 0.297275,0.0259 0.586195,0.05845 0.882928,0.07752 0.184195,0.01185 0.105622,0.03404 0.323017,0.07752 0.228962,0.04579 0.642762,0.08602 0.861385,0.116284 0.05377,-0.0021 0.09944,0.03107 0.150744,0.03876 0.06389,0.0096 0.129529,-0.0064 0.193812,0 0.355505,0.03555 0.639263,0.03513 0.99059,0 0.0575,-0.0057 0.114678,-0.01466 0.172273,-0.01939 0.02146,-0.0019 0.0486,0.01442 0.06461,0 0.01098,-0.0099 -0.02154,-0.02397 -0.02154,-0.03876 0,-0.193939 0.01257,-0.387686 0.02154,-0.581416 0.0054,-0.116377 0.01294,-0.232659 0.02154,-0.348843 0.02437,-0.3288 -0.0043,-0.488481 -0.02154,-0.813982 -0.0024,-0.04516 0,-0.09044 0,-0.13566 0,-0.01291 0.0096,-0.03012 0,-0.03876 -0.05309,-0.04777 0.006,0.143463 0.02154,0.213186"
       id="path3535" />
    <path
       style="fill:none;stroke:#ffffff;stroke-width:0.665;stroke-linecap:butt;stroke-linejoin:miter;stroke-dasharray:none;stroke-opacity:1"
       d="m 57.890291,46.782727 c -0.08203,0.587986 -0.152609,1.175838 -0.236884,1.763617 -0.02278,0.158785 -0.06305,0.322697 -0.04307,0.484508 0.0049,0.03962 0.05781,0.125534 0.0646,0.174427 0.0074,0.05297 -0.01458,0.06753 0.02154,0.116284 0.01283,0.0173 0.04307,0 0.0646,0 0.07823,0 -0.09256,0.0021 0.08614,-0.01939 0.2046,-0.02455 0.395859,-0.02392 0.602962,-0.01937 0.575341,0.01262 1.1465,0.05924 1.722773,0.03876 1.286084,-0.04569 2.583738,-0.255106 3.854704,-0.445752 0.297823,-0.04467 0.715825,-0.141346 1.012119,-0.0969 0.102007,0.01529 0.489444,0.103674 0.4953,0.0969 0.04832,-0.05591 0.07435,-0.127839 0.107672,-0.193804 0.182208,-0.360765 0.08384,-0.43524 0.06461,-0.833356 -0.0075,-0.154866 0,-0.310089 0,-0.465132 0,-0.0969 -0.0079,-0.19413 0,-0.290706 0.0065,-0.07857 0.0307,-0.154702 0.04306,-0.232566 0.0021,-0.01275 -0.0028,-0.05137 0,-0.03876 0.01712,0.07696 0.02872,0.155046 0.04307,0.232566"
       id="path3537" />
    <path
       style="fill:none;stroke:#ffffff;stroke-width:0.665;stroke-linecap:butt;stroke-linejoin:miter;stroke-dasharray:none;stroke-opacity:1"
       d="m 61.185084,43.081071 c 0.07627,1.010944 0.193812,1.985606 0.193812,3.003963 0,0.180883 0,0.361768 0,0.542653 0,0.09044 0,0.180882 0,0.271322 0,0.01939 -0.01937,0.05814 0,0.05814 0.04623,0 0.03268,-0.150942 0.02154,-0.271328 -0.03074,-0.331962 0.0072,-0.229362 -0.08613,-0.523272 -0.05742,-0.18085 -0.126876,-0.202297 -0.04307,-0.368225 0.02259,-0.04471 0.03406,-0.09596 0.0646,-0.135666 0.169114,-0.219839 0.314118,-0.133963 0.602969,-0.15504 0.214072,-0.01561 0.415973,-0.03999 0.624502,-0.07753 0.0428,-0.0077 0.165515,0.02545 0.193815,0 0.0096,-0.0087 -0.0035,-0.0263 0,-0.03876 0.01823,-0.06561 0.04379,-0.128966 0.0646,-0.193804 0.0725,-0.225875 0.156154,-0.448594 0.215344,-0.678318 0.05585,-0.216747 0.09412,-0.43787 0.129212,-0.658929 0.104643,-0.659212 0.101944,-0.837859 0.08613,-1.492295 -0.0021,-0.09041 0,-0.180882 0,-0.271322 0,-0.01291 0.0035,-0.05121 0,-0.03876 -0.09182,0.33061 0.02347,0.683884 0.06461,1.007782 0.07872,0.619852 -0.0074,1.448199 -0.04307,2.073701 -0.01291,0.226761 -0.03889,0.452649 -0.0646,0.678317 -0.02513,0.220636 -0.07522,0.400696 -0.06461,0.620173 0.01024,0.211616 0.01966,0.339222 0.08614,0.542647 0.0075,0.02291 0.03404,0.08051 0.04307,0.05814 0.03431,-0.0849 0.02871,-0.180885 0.04307,-0.271328"
       id="path3539" />
    <path
       style="fill:none;stroke:#ffffff;stroke-width:0.665;stroke-linecap:butt;stroke-linejoin:miter;stroke-dasharray:none;stroke-opacity:1"
       d="m 56.189049,52.422421 c 0.100487,1.124948 0.105892,2.267744 -0.02154,3.391575 -0.01685,0.148714 -0.09988,0.466804 -0.04307,0.620173 0.05681,0.153363 0.05254,0.05965 0.08614,0.271322 0.01519,0.09559 -0.01185,0.21994 0.02154,0.310086 0.02944,0.07951 0.085,-0.153307 0.08614,-0.155045 0.08724,-0.132491 0.200991,-0.245483 0.301485,-0.368224"
       id="path3541" />
    <path
       style="fill:none;stroke:#ffffff;stroke-width:0.665;stroke-linecap:butt;stroke-linejoin:miter;stroke-dasharray:none;stroke-opacity:1"
       d="m 49.147225,60.038924 c 0.684451,0.845184 0.749903,0.88302 1.205942,1.531051 0.11072,0.157331 0.211759,0.343908 0.344556,0.484507 0.361778,0.383032 0.188889,0.176975 0.40916,0.387607 0.07997,0.07647 0.154625,0.158544 0.236873,0.232566 0.04717,0.04245 0.106976,0.07032 0.150744,0.116276 0.04339,0.04557 0.07178,0.103368 0.107672,0.155052 0.07896,0.0969 0.150416,0.200437 0.236884,0.290705 0.09352,0.09763 0.206163,0.175443 0.301485,0.27132 0.06949,0.06989 0.270444,0.344927 0.323016,0.271327 0.06014,-0.08419 0.09844,-0.182057 0.150744,-0.271327 0.364051,-0.621374 0.733846,-1.239367 1.09827,-1.860518 0.253637,-0.432319 0.33519,-0.566449 0.538361,-0.988394 0.02122,-0.04407 0.197246,-0.442666 0.236884,-0.406995 0.02461,0.02215 0.0066,0.06737 0.02154,0.0969 0.05744,0.113731 0.123573,0.22316 0.193812,0.329467 0.08786,0.132977 0.192479,0.254378 0.279956,0.387606 0.117602,0.17911 0.170659,0.417465 0.344546,0.542658 0.148468,0.106894 0.10873,0.06792 0.215355,0.07752 0.05755,0.0052 0.117702,0.0384 0.172272,0.01939 0.577562,-0.201208 0.694145,-0.447045 0.99059,-0.969026 0.03296,-0.05804 0.175837,-0.351311 0.215355,-0.465121 0.06013,-0.173176 0.08807,-0.357931 0.172273,-0.523272 0.11095,-0.217861 0.234286,-0.319498 0.430686,-0.445752"
       id="path3543" />
    <path
       style="fill:none;stroke:#ffffff;stroke-width:0.665;stroke-linecap:butt;stroke-linejoin:miter;stroke-dasharray:none;stroke-opacity:1"
       d="m 58.256377,62.228909 c 0.401978,-0.40699 0.816477,-0.801981 1.205933,-1.22097 0.235522,-0.253378 0.446104,-0.528849 0.667573,-0.7946 0.05849,-0.07019 0.122137,-0.136808 0.172284,-0.21318 0.0437,-0.06655 0.06159,-0.148272 0.107672,-0.21319 0.221533,-0.312063 0.63346,-0.841381 0.925989,-1.104675 0.04125,-0.03713 0.03943,0.194836 0.04307,0.213185 0.02331,0.117483 0.04611,0.235958 0.08614,0.348843 0.338289,0.953949 0.141587,0.206568 0.344546,0.891503 0.08352,0.281847 0.02999,0.241763 0.193813,0.503885 0.02344,0.0375 0.140544,0.107111 0.107672,0.07752 -0.287279,-0.258564 -0.337693,-0.188762 -0.839846,-0.387606 -0.42378,-0.16781 -0.358505,-0.19716 -0.796785,-0.251942 -0.128367,-0.01603 -0.258386,-0.01341 -0.387617,-0.01939 -0.15072,-0.007 -0.301463,-0.01347 -0.452228,-0.01937 -0.01434,-5.3e-4 -0.04307,0.01437 -0.04307,0 0,-0.01574 0.02737,-0.0182 0.04307,-0.01939 0.157609,-0.01183 0.315732,-0.01659 0.47376,-0.01937 0.208135,-0.0037 0.416333,0 0.624501,0"
       id="path3545" />
    <path
       style="fill:none;stroke:#ffffff;stroke-width:0.665;stroke-linecap:butt;stroke-linejoin:miter;stroke-dasharray:none;stroke-opacity:1"
       d="m 66.719479,58.449728 c -0.337373,0.200263 -0.693721,0.371554 -1.012118,0.600792 -0.258628,0.186203 -0.470088,0.430522 -0.710645,0.639548 -0.175868,0.152818 -0.362302,0.293171 -0.538371,0.445757 -0.01823,0.01579 -0.03784,0.03459 -0.04307,0.05814 -0.0032,0.01442 0.01619,0.02498 0.02154,0.03876 0.04494,0.11557 0.09601,0.229367 0.129201,0.348845 0.0814,0.293018 0.116824,0.611404 0.172284,0.910878 0.07298,0.394076 0.300521,1.369261 -0.02154,1.705478 -0.427406,0.446188 -1.31295,0.460208 -1.873518,0.523269 -0.04328,0.0049 -0.135191,0.06251 -0.129201,0.01937 0.01704,-0.12275 0.11485,-0.219646 0.172273,-0.329469"
       id="path3547" />
    <path
       style="fill:none;stroke:#ffffff;stroke-width:0.665;stroke-linecap:butt;stroke-linejoin:miter;stroke-dasharray:none;stroke-opacity:1"
       d="m 67.064035,63.740574 c 0.346261,-2.306037 -0.04161,0.204589 0.172273,-1.046544 0.03858,-0.22566 0.07179,-0.452207 0.107683,-0.678312 0.01437,-0.09044 0.02439,-0.181679 0.04306,-0.271327 0.003,-0.01447 0.01923,-0.05335 0.02154,-0.03875 0.0091,0.05742 -0.02122,0.120293 0,0.174419 0.147392,0.375848 0.753975,0.387498 1.055201,0.251952 0.135088,-0.06079 0.25214,-0.157292 0.366085,-0.251952 0.351002,-0.291592 0.627798,-0.605801 0.925989,-0.949643 0.08189,-0.09443 0.15249,-0.19849 0.236873,-0.290703 0.01696,-0.01852 0.04966,-0.05893 0.06461,-0.03875 0.03106,0.04193 0.01138,0.103862 0.02154,0.15504 0.05573,0.28085 0.12633,0.589082 0.236884,0.852739 0.273799,0.652992 0.208441,0.477409 0.667573,0.94964 0.02344,0.02413 0.03171,0.07047 0.0646,0.07752 0.27635,0.05922 0.559904,0.07752 0.839857,0.11629"
       id="path3549" />
    <path
       style="fill:none;stroke:#ffffff;stroke-width:0.665;stroke-linecap:butt;stroke-linejoin:miter;stroke-dasharray:none;stroke-opacity:1"
       d="m 72.296954,58.139641 c -0.05743,0.348848 -0.147479,0.69387 -0.172283,1.046544 -0.0154,0.218834 0.186486,1.029507 0.215344,1.16282 0.05867,0.271057 0.124661,0.540758 0.172283,0.813974 0.05154,0.295672 -0.032,0.677892 -0.02154,0.988404 0.0087,0.258657 0.04307,0.516411 0.04307,0.775214 0,0.465899 -0.06632,0.931605 -0.08613,1.395386 -0.01005,0.235561 0.01453,0.926684 -0.236884,1.065929 -0.05149,0.02852 -0.115329,0.02387 -0.172273,0.03876 -0.560419,0.146614 -1.114549,0.31859 -1.679702,0.445744 -1.113615,0.250552 -2.273506,0.173297 -3.402475,0.232566 -0.359865,0.01889 -0.717738,0.06553 -1.07673,0.0969 -1.10476,0.09653 -2.207662,0.162624 -3.316335,0.193802 -1.598165,0.04494 -0.627655,-0.01307 -2.605688,0.05814 -1.13565,0.04088 -2.266664,0.156496 -3.402475,0.193802 -0.602782,0.01979 -1.205847,0.03117 -1.808904,0.03876 -0.648097,0.0081 -1.795544,-0.01453 -2.454947,0.01937 -1.67219,0.08599 -0.477226,0.08354 -1.830445,0.174426 -0.339572,0.02281 -0.709714,0.01937 -1.055201,0.01937 -0.150625,0 -0.162303,0.01759 -0.279945,0.03876 -0.06165,0.01109 -0.195506,-0.01471 -0.236884,-0.01937 -0.134567,-0.01514 -0.301816,-0.01947 -0.430689,-0.05814 -0.0691,-0.02074 -0.25853,-0.108574 -0.279956,-0.116287 -0.09727,-0.03502 -0.576609,-0.218869 -0.624501,-0.290706 -0.03439,-0.05159 -0.04543,-0.115464 -0.0646,-0.174426 -0.07527,-0.231458 -0.159258,-0.460851 -0.215344,-0.697688 -0.03907,-0.164965 -0.119081,-1.021948 -0.129212,-1.124069 -0.03787,-0.381698 -0.09416,-0.761473 -0.129201,-1.143444 -0.04321,-0.470975 -0.06706,-0.943557 -0.107683,-1.414762 -0.024,-0.278236 -0.04873,-0.556612 -0.08613,-0.833363 -0.04207,-0.311301 -0.101492,-0.620009 -0.150744,-0.930254 -0.0074,-0.04686 -0.03808,-0.08848 -0.04307,-0.135665 -0.03949,-0.373221 -0.03264,-0.75012 -0.0646,-1.124061 -0.02617,-0.306113 -0.113962,-0.574149 -0.150741,-0.872123 -0.0071,-0.05727 0.0071,-0.117152 0,-0.174421 -0.01122,-0.09088 -0.02492,-0.181562 -0.04307,-0.271322 -0.01061,-0.05258 -0.04964,-0.101812 -0.04307,-0.155046 0.0028,-0.0223 0.04213,-0.01855 0.0646,-0.01939 0.150638,-0.0057 0.302218,-0.01482 0.452229,0 0.439576,0.04342 0.878758,0.0969 1.313616,0.174429 2.443417,0.435647 -0.518872,0.04261 1.959647,0.426363 0.335598,0.05196 0.674876,0.07648 1.012129,0.116285 4.220993,0.498194 -1.624896,-0.169323 4.048506,0.426368 1.204437,0.126463 1.622566,0.232007 2.821046,0.290705 1.132147,0.05545 2.288678,0.06381 3.424005,0.01937 0.244213,-0.0096 0.488116,-0.02585 0.732173,-0.03876 0.258416,-0.01939 0.516321,-0.04755 0.775245,-0.05814 0.373012,-0.01527 0.746855,-0.0026 1.119801,-0.01939 1.577219,-0.07097 -0.240315,-0.03547 1.07673,-0.116285 0.157623,-0.0097 0.315841,0 0.473761,0 0.294309,-0.0065 0.589264,0.0011 0.882925,-0.01937 0.446251,-0.03119 0.891545,-0.07795 1.335145,-0.135665 0.32539,-0.04234 0.631259,-0.154051 0.947518,-0.232566 0.406503,-0.10092 0.821037,-0.168154 1.227474,-0.271323 0.234926,-0.05963 0.482555,-0.144367 0.732184,-0.116284 0.04468,0.005 0.120742,-0.0054 0.129204,0.03876 0.07012,0.36602 0.114855,0.736452 0.172283,1.104681"
       id="path3551" />
    <path
       style="fill:none;stroke:#ffffff;stroke-width:0.665;stroke-linecap:butt;stroke-linejoin:miter;stroke-dasharray:none;stroke-opacity:1"
       d="m 37.305666,9.9983027 c -0.02566,1.1132043 0.07062,2.2302763 0,3.3420523 -0.03308,0.520685 -0.203333,1.025198 -0.253836,1.544483 -0.03438,0.353504 0.03897,0.712488 0,1.065515 -0.03494,0.316481 -0.184833,0.613045 -0.220245,0.929474 -0.0385,0.344018 0.02853,0.693509 0,1.038497 -0.256706,3.104665 -0.0749,-1.031156 -0.389096,2.101495 -0.03678,0.366673 0,0.737029 0,1.105543 -0.07149,0.410879 -0.168034,0.818176 -0.214458,1.232636 -0.02532,0.225911 0.03215,0.456935 0,0.681974 -0.02543,0.177911 -0.113665,0.340987 -0.170495,0.511482 -0.05683,0.371869 -0.134974,0.7411 -0.170495,1.115607 -0.02146,0.226309 0,0.45465 0,0.681974 0,0.39882 0,0.79764 0,1.196459 0,0.349256 -0.04103,0.700929 0,1.047764 0.08652,0.731319 0.289552,1.445413 0.381416,2.176078 0.03566,0.283647 -0.02672,0.573011 0,0.857637 0.277667,2.95725 0.05654,-0.700765 0.344109,1.780614 0.02617,0.225814 -0.02984,0.456618 0,0.681977 0.21976,1.659723 0.06771,-0.146453 0.340987,0.946658 0.02757,0.110267 -0.03634,0.233293 0,0.340987 0.08148,0.241416 0.27064,0.438345 0.345234,0.681974 0.158435,0.517453 0.220273,1.059907 0.349033,1.585534 0.120615,0.492392 0.350231,0.956786 0.440698,1.4556 0.02983,0.164462 0,0.33429 0,0.501433 0,0.170495 0,0.340989 0,0.511482 0,0.515474 0,1.030946 0,1.54642 0,2.530647 0,5.061292 0,7.591939 0,1.28788 -0.03365,-0.470109 0.170492,1.367144 0.02511,0.225933 0,0.454649 0,0.681974 0,0.284157 0,0.568312 0,0.852469 0,0.344763 0.02861,0.690716 0,1.034288 -0.03648,0.438031 -0.149014,0.867019 -0.19476,1.304179 -0.08111,0.775131 -0.103169,1.555721 -0.185613,2.330712 -0.08524,0.80129 -0.297643,1.585923 -0.37768,2.387748 -0.0011,0.01103 0.03756,1.07963 0,1.191403 -0.04028,0.119877 -0.149661,0.214188 -0.170495,0.338926 -0.03744,0.224218 0,0.454649 0,0.681974 0,0.170495 0,0.340987 0,0.511482 0,0.170492 0.03312,0.344236 0,0.511482 -0.02516,0.127114 -0.139424,0.223567 -0.170492,0.349374 -0.02725,0.110347 0,0.227325 0,0.340987 -0.05683,0.113663 -0.130307,0.22043 -0.170495,0.340987 -0.03594,0.107829 0,0.227325 0,0.340987 0,0.340987 0,0.681974 0,1.022961 0,0.454653 0,0.909302 0,1.363951 0,0.170493 -0.02803,0.343308 0,0.511482 0.02955,0.177271 0.13525,0.335254 0.170495,0.51148 0.02228,0.111455 -0.0365,0.233343 0,0.340987 0.02604,0.07677 0.136372,0.09839 0.173419,0.170494 0.01421,0.02768 -0.01236,0.274357 0,0.312079 0.03945,0.120505 0.124981,0.223171 0.160398,0.344922 0.01924,0.06609 0,0.137657 0,0.206488 0,0.222594 0,0.445186 0,0.66778"
       id="path4033" />
    <path
       style="fill:none;stroke:#ffffff;stroke-width:0.665;stroke-linecap:butt;stroke-linejoin:miter;stroke-dasharray:none;stroke-opacity:1"
       d="m 6.607319,33.29592 c -0.01015,0.196424 -0.01936,0.392898 -0.03046,0.589272 -0.0041,0.07315 -0.01276,0.146042 -0.01522,0.219263 -0.0026,0.07761 0,0.155313 0,0.232971 0,0.0137 0.0137,0.04111 0,0.04111 -0.04407,0 0.0083,-0.304191 0.01522,-0.356304 0.0485,-0.363744 0.03046,-0.26344 0.03046,-0.72631 z"
       id="path4047" />
    <path
       style="fill:none;stroke:#ffffff;stroke-width:0.665;stroke-linecap:butt;stroke-linejoin:miter;stroke-dasharray:none;stroke-opacity:1"
       d="m 6.576863,38.051213 c -0.06769,0.353168 -0.04412,0.634687 0.01523,0.972981 0.0012,0.0067 0.01015,0.0091 0.01523,0.0137 0.0051,0.02283 0.0118,0.04538 0.01523,0.06852 0.01412,0.09526 -8.2e-4,0.191116 0.07614,0.260379 0.05676,0.05108 0.03807,-0.0454 0.04568,-0.08222 0.03406,-0.164759 0.129232,-0.326633 0.106591,-0.493345 -0.0354,-0.260654 -0.392389,-0.505068 -0.274094,-0.740015 0.109231,-0.216951 0.477122,-0.09136 0.715684,-0.137041"
       id="path4049" />
    <path
       style="fill:none;stroke:#ffffff;stroke-width:0.665;stroke-linecap:butt;stroke-linejoin:miter;stroke-dasharray:none;stroke-opacity:1"
       d="m 42.680748,31.130686 c -0.05076,0.178152 -0.132962,0.350224 -0.152273,0.534453 -0.0072,0.06843 0.06251,0.124418 0.07614,0.19186 0.01722,0.08522 0.0016,0.174509 0.01521,0.260374 0.01987,0.125228 0.239873,-0.09938 0.258863,-0.10963 0.05319,-0.02873 0.213182,-0.02463 0.213182,-0.02741 0,-0.03079 -0.0799,0.01487 -0.09136,-0.01371 -0.110977,-0.276932 -0.213183,-0.557295 -0.319773,-0.835944 z"
       id="path4051" />
    <path
       style="fill:none;stroke:#ffffff;stroke-width:0.665;stroke-linecap:butt;stroke-linejoin:miter;stroke-dasharray:none;stroke-opacity:1"
       d="m 42.254382,36.283394 c 0.510903,-1.352211 0.547883,-0.310989 0.426366,-0.219266 -0.127556,0.09628 -0.284245,0.146177 -0.426366,0.219266 z"
       id="path4053" />
  </g>
</svg>
