<svg width="490" height="449" viewBox="0 0 490 449" fill="none" xmlns="http://www.w3.org/2000/svg">
<path d="M297.687 134.333C298.424 133.954 298.713 133.049 298.333 132.313L292.149 120.313C291.769 119.576 290.865 119.287 290.128 119.667C289.392 120.046 289.103 120.951 289.482 121.687L294.979 132.354L284.313 137.851C283.576 138.231 283.287 139.135 283.667 139.872C284.046 140.608 284.951 140.897 285.687 140.518L297.687 134.333ZM74.5431 63.4287L296.543 134.429L297.457 131.571L75.4569 60.5713L74.5431 63.4287Z" fill="white"/>
<rect x="1.5" y="1.5" width="97" height="60" rx="8.5" fill="#8D3AED" stroke="white" stroke-width="3"/>
<path d="M50.494 20.88C52.7553 20.88 54.5473 21.4453 55.87 22.576C57.214 23.7067 57.886 25.232 57.886 27.152C57.886 29.136 57.214 30.672 55.87 31.76C54.5473 32.8267 52.7553 33.36 50.494 33.36L50.174 33.552H45.278V42H41.886V20.88H50.494ZM50.238 30.704C51.6247 30.704 52.6487 30.4267 53.31 29.872C53.9927 29.296 54.334 28.4213 54.334 27.248C54.334 26.096 53.9927 25.232 53.31 24.656C52.6487 24.08 51.6247 23.792 50.238 23.792H45.278V30.704H50.238ZM52.254 31.408L59.134 42H55.198L49.31 32.752L52.254 31.408Z" fill="white"/>
<rect x="246.5" y="139.5" width="97" height="60" rx="8.5" fill="#8D3AED" stroke="white" stroke-width="3"/>
<path d="M442.471 265.706C442.633 266.518 442.107 267.308 441.294 267.471L428.056 270.118C427.244 270.281 426.454 269.754 426.291 268.942C426.129 268.129 426.656 267.339 427.468 267.177L439.235 264.823L436.882 253.056C436.719 252.244 437.246 251.454 438.058 251.291C438.871 251.129 439.661 251.656 439.823 252.468L442.471 265.706ZM339.832 196.752L441.832 264.752L440.168 267.248L338.168 199.248L339.832 196.752Z" fill="white"/>
<rect x="-1.5" y="1.5" width="97" height="60" rx="8.5" transform="matrix(-1 0 0 1 487 276)" fill="#8D3AED" stroke="white" stroke-width="3"/>
<path d="M439.939 388.061C440.525 388.646 441.475 388.646 442.061 388.061L451.607 378.515C452.192 377.929 452.192 376.979 451.607 376.393C451.021 375.808 450.071 375.808 449.485 376.393L441 384.879L432.515 376.393C431.929 375.808 430.979 375.808 430.393 376.393C429.808 376.979 429.808 377.929 430.393 378.515L439.939 388.061ZM439.5 340L439.5 387L442.5 387L442.5 340L439.5 340Z" fill="white"/>
<path d="M431.73 315.056H443.378V318H428.306V296.88H431.73V315.056ZM445.086 304.8H455.146V306.58C454.04 307.727 453.146 308.907 452.466 310.12C451.786 311.32 451.293 312.573 450.986 313.88C450.693 315.173 450.546 316.547 450.546 318H448.386C448.386 316.533 448.566 315.107 448.926 313.72C449.3 312.32 449.86 310.987 450.606 309.72C451.366 308.44 452.32 307.24 453.466 306.12L453.866 306.66H445.086V304.8Z" fill="white"/>
<rect x="-1.5" y="1.5" width="97" height="60" rx="8.5" transform="matrix(-1 0 0 1 487 386)" fill="#8D3AED" fill-opacity="0.5" stroke="white" stroke-width="3"/>
<path d="M444.116 406.88L436.276 428H432.276L424.436 406.88H428.084L433.012 420.928L434.292 425.12L435.572 420.96L440.5 406.88H444.116ZM452.146 428V424.7H445.706V423.24C445.733 423.173 445.773 423.093 445.826 423C445.893 422.907 445.966 422.8 446.046 422.68L451.546 414.8H454.166V423.04H456.406V424.7H454.166V428H452.146ZM447.706 423.04H452.146V418.38C452.146 418.06 452.153 417.733 452.166 417.4C452.193 417.053 452.213 416.713 452.226 416.38H452.186C452.04 416.7 451.846 417.053 451.606 417.44C451.38 417.813 451.166 418.14 450.966 418.42L447.846 422.86C447.82 422.887 447.793 422.913 447.766 422.94C447.753 422.967 447.733 423 447.706 423.04Z" fill="white"/>
<path d="M287.183 180V158.88H295.503C298.042 158.88 299.898 159.392 301.071 160.416C302.244 161.44 302.831 162.859 302.831 164.672C302.831 165.781 302.511 166.773 301.871 167.648C301.231 168.501 300.292 169.045 299.055 169.28V169.312C300.42 169.525 301.476 170.091 302.223 171.008C302.991 171.904 303.375 172.949 303.375 174.144C303.375 175.957 302.714 177.387 301.391 178.432C300.068 179.477 298.148 180 295.631 180H287.183ZM290.543 177.152H295.791C297.135 177.152 298.138 176.875 298.799 176.32C299.482 175.765 299.823 174.987 299.823 173.984C299.823 172.981 299.482 172.203 298.799 171.648C298.138 171.093 297.135 170.816 295.791 170.816H290.543V177.152ZM290.543 167.968H295.247C297.935 167.968 299.279 166.933 299.279 164.864C299.279 162.795 297.935 161.76 295.247 161.76H290.543V167.968ZM311.094 180.2C309.854 180.2 308.774 179.927 307.854 179.38C306.948 178.82 306.328 178.04 305.994 177.04L308.074 176.06C308.194 176.54 308.381 176.953 308.634 177.3C308.888 177.647 309.221 177.913 309.634 178.1C310.048 178.273 310.561 178.36 311.174 178.36C311.694 178.36 312.134 178.267 312.494 178.08C312.854 177.893 313.128 177.633 313.314 177.3C313.514 176.967 313.614 176.587 313.614 176.16C313.614 175.72 313.528 175.353 313.354 175.06C313.194 174.767 312.934 174.553 312.574 174.42C312.228 174.287 311.781 174.22 311.234 174.22C311.074 174.22 310.908 174.227 310.734 174.24C310.574 174.24 310.401 174.253 310.214 174.28V172.48C310.334 172.493 310.448 172.507 310.554 172.52C310.674 172.52 310.788 172.52 310.894 172.52C311.761 172.52 312.381 172.347 312.754 172C313.128 171.653 313.314 171.113 313.314 170.38C313.314 169.753 313.121 169.273 312.734 168.94C312.361 168.607 311.821 168.44 311.114 168.44C310.381 168.44 309.808 168.613 309.394 168.96C308.994 169.293 308.688 169.78 308.474 170.42L306.514 169.6C306.701 168.987 307.014 168.453 307.454 168C307.894 167.547 308.434 167.2 309.074 166.96C309.728 166.707 310.441 166.58 311.214 166.58C312.161 166.58 312.948 166.733 313.574 167.04C314.214 167.347 314.688 167.767 314.994 168.3C315.314 168.833 315.474 169.427 315.474 170.08C315.474 170.587 315.401 171.033 315.254 171.42C315.108 171.793 314.908 172.12 314.654 172.4C314.414 172.667 314.148 172.873 313.854 173.02C313.574 173.167 313.288 173.267 312.994 173.32V173.36C313.381 173.373 313.734 173.453 314.054 173.6C314.388 173.733 314.681 173.927 314.934 174.18C315.201 174.42 315.408 174.713 315.554 175.06C315.701 175.407 315.774 175.787 315.774 176.2C315.774 177 315.574 177.7 315.174 178.3C314.774 178.9 314.221 179.367 313.514 179.7C312.821 180.033 312.014 180.2 311.094 180.2Z" fill="white"/>
</svg>
