<svg version="1.1" xmlns="http://www.w3.org/2000/svg" viewBox="0 0 765.4923804635558 497.89450214575714" width="765.4923804635558" height="497.89450214575714">
  <!-- svg-source:excalidraw -->
  
  <defs>
    <style class="style-fonts">
      @font-face {
        font-family: "Virgil";
        src: url("https://excalidraw.com/Virgil.woff2");
      }
      @font-face {
        font-family: "Cascadia";
        src: url("https://excalidraw.com/Cascadia.woff2");
      }
    </style>
    
  </defs>
  <g stroke-linecap="round" transform="translate(10 78.3571788719205) rotate(0 90.5 40)"><path d="M20 0 M20 0 C60.36 0.62, 104.75 0.47, 161 0 M20 0 C75.91 0.16, 130.25 0.7, 161 0 M161 0 C176.11 -1.63, 182.01 6.38, 181 20 M161 0 C176.31 0.88, 183.24 7.34, 181 20 M181 20 C179.97 33.69, 180.91 46.69, 181 60 M181 20 C181.38 30.39, 180.39 41.92, 181 60 M181 60 C182.55 75.01, 175.71 80.34, 161 80 M181 60 C180.03 74.39, 176.54 78.6, 161 80 M161 80 C123.59 79.88, 89.22 79.47, 20 80 M161 80 C116.18 79.4, 70.75 78.78, 20 80 M20 80 C6.2 79.03, 1.36 73.49, 0 60 M20 80 C5.11 77.89, -0.17 73.59, 0 60 M0 60 C-0.2 46.01, 1.37 29.69, 0 20 M0 60 C0.75 45.26, -0.69 28.97, 0 20 M0 20 C0.16 5.17, 6.44 0.14, 20 0 M0 20 C-1.37 7.7, 6.31 -0.87, 20 0" stroke="#ffffff" stroke-width="1" fill="none"></path></g><g transform="translate(53.400001525878906 106.8571788719205) rotate(0 47.099998474121094 11.5)"><text x="47.099998474121094" y="0" font-family="Helvetica, Segoe UI Emoji" font-size="20px" fill="#ffffff" text-anchor="middle" style="white-space: pre;" direction="ltr" dominant-baseline="text-before-edge">Rust Code</text></g><g stroke-linecap="round" transform="translate(524.9798106963138 74.7382055984607) rotate(0 99.45705241155542 38.90525873746137)"><path d="M19.45 0 M19.45 0 C53.43 2.28, 90.58 1.06, 179.46 0 M19.45 0 C56.58 1.16, 96.25 0.93, 179.46 0 M179.46 0 C190.6 -1.81, 200.1 6.39, 198.91 19.45 M179.46 0 C191.88 1.27, 197.88 7.35, 198.91 19.45 M198.91 19.45 C197.62 29.46, 199.75 38.04, 198.91 58.36 M198.91 19.45 C198.89 32.21, 198.58 42.76, 198.91 58.36 M198.91 58.36 C197.92 69.99, 194.13 76.62, 179.46 77.81 M198.91 58.36 C196.8 71.28, 193.32 77.65, 179.46 77.81 M179.46 77.81 C124.2 77.56, 71.15 77.23, 19.45 77.81 M179.46 77.81 C141.13 78.22, 105.5 78.24, 19.45 77.81 M19.45 77.81 C5.49 77.1, -1.2 72.1, 0 58.36 M19.45 77.81 C6.82 79, -1.35 71.45, 0 58.36 M0 58.36 C-0.92 48.77, -1.69 43.51, 0 19.45 M0 58.36 C-0.8 43.65, -0.65 27.58, 0 19.45 M0 19.45 C1.96 6.54, 6.58 1.2, 19.45 0 M0 19.45 C-1.31 8.38, 7.68 -0.86, 19.45 0" stroke="transparent" stroke-width="1" fill="none"></path></g><g transform="translate(594.0535299016925 102.14346433592203) rotate(0 30.383333206176758 11.5)"><text x="30.383333206176758" y="0" font-family="Helvetica, Segoe UI Emoji" font-size="20px" fill="transparent" text-anchor="middle" style="white-space: pre;" direction="ltr" dominant-baseline="text-before-edge">WASM</text></g><g stroke-linecap="round" transform="translate(156.40367528878505 209.41475539340223) rotate(0 212.37005897290948 139.23987337617746)"><path d="M32 0 M32 0 C127.25 -1.71, 220.44 -0.68, 392.74 0 M32 0 C115.11 -1.59, 197.09 -1.73, 392.74 0 M392.74 0 C415 1.02, 424.41 9.74, 424.74 32 M392.74 0 C414.39 1.3, 424.37 10.67, 424.74 32 M424.74 32 C426.27 76.59, 427.44 121.53, 424.74 246.48 M424.74 32 C424.4 102.71, 425.56 173.06, 424.74 246.48 M424.74 246.48 C422.98 268.94, 412.92 277.42, 392.74 278.48 M424.74 246.48 C424.13 267.24, 412.74 279.15, 392.74 278.48 M392.74 278.48 C255.8 279.17, 118.64 281.64, 32 278.48 M392.74 278.48 C308.91 280.09, 224.5 279.94, 32 278.48 M32 278.48 C11.06 276.63, 1.97 269.72, 0 246.48 M32 278.48 C9.51 278.65, -0.58 267.94, 0 246.48 M0 246.48 C0.81 184.21, -1.35 120.2, 0 32 M0 246.48 C1.21 192.41, 2.6 136.5, 0 32 M0 32 C0.78 11.47, 11.52 -0.98, 32 0 M0 32 C-0.47 12.91, 12.72 -1.43, 32 0" stroke="transparent" stroke-width="1" fill="none"></path></g><g transform="translate(198.4712310131472 181.91780560903095) rotate(0 37.78333282470703 11.5)"><text x="37.78333282470703" y="0" font-family="Helvetica, Segoe UI Emoji" font-size="20px" fill="transparent" text-anchor="middle" style="white-space: pre;" direction="ltr" dominant-baseline="text-before-edge">Machine</text></g><g stroke-linecap="round" transform="translate(287.45296787812845 239.25187111686904) rotate(0 136.3146659523083 113.79056878851469)"><path d="M32 0 M32 0 C107.9 -1.08, 180.41 -1.02, 240.63 0 M32 0 C112.23 -0.2, 193.69 1.02, 240.63 0 M240.63 0 C262.23 -1.96, 272.88 9.05, 272.63 32 M240.63 0 C262.92 -2.25, 274.45 12.6, 272.63 32 M272.63 32 C273.84 86.64, 274.48 137.29, 272.63 195.58 M272.63 32 C273.49 88.74, 273.53 143.37, 272.63 195.58 M272.63 195.58 C274.27 218.91, 260.56 226.57, 240.63 227.58 M272.63 195.58 C273.24 216.16, 264.05 227.19, 240.63 227.58 M240.63 227.58 C159.97 227.46, 79.35 228.17, 32 227.58 M240.63 227.58 C167.58 229.51, 96.65 228.82, 32 227.58 M32 227.58 C11.84 225.8, 1.63 218.06, 0 195.58 M32 227.58 C10.33 229.25, 0.09 217.13, 0 195.58 M0 195.58 C-1.38 157.77, 2.16 114.99, 0 32 M0 195.58 C-0.84 134.27, -0.25 73.99, 0 32 M0 32 C-1.26 11.1, 11.3 -0.09, 32 0 M0 32 C-0.5 8.67, 8.37 1.73, 32 0" stroke="transparent" stroke-width="1" fill="none"></path></g><g transform="translate(378.07105191351 212.33996281727133) rotate(0 39.07500076293945 11.5)"><text x="39.07500076293945" y="0" font-family="Helvetica, Segoe UI Emoji" font-size="20px" fill="transparent" text-anchor="middle" style="white-space: pre;" direction="ltr" dominant-baseline="text-before-edge">Executor</text></g><g stroke-linecap="round" transform="translate(305.5892539061182 335.198674619781) rotate(0 120.22602512102719 54.116337341581584)"><path d="M27.06 0 M27.06 0 C82.16 -0.04, 134.01 1.34, 213.39 0 M27.06 0 C93.13 1.27, 159.47 0.41, 213.39 0 M213.39 0 C232.57 0.1, 238.92 8.17, 240.45 27.06 M213.39 0 C233.49 -1.4, 241.59 9.16, 240.45 27.06 M240.45 27.06 C242.01 39.02, 239.22 51.83, 240.45 81.17 M240.45 27.06 C240.11 45.83, 239.46 63.14, 240.45 81.17 M240.45 81.17 C238.6 100.53, 230.09 107.61, 213.39 108.23 M240.45 81.17 C240.79 100.99, 230.56 109.83, 213.39 108.23 M213.39 108.23 C167.24 108.19, 117.3 106.46, 27.06 108.23 M213.39 108.23 C143.99 108.11, 76.74 109.41, 27.06 108.23 M27.06 108.23 C8.11 107.12, 0.2 98.29, 0 81.17 M27.06 108.23 C9.44 106.36, 1.79 98.4, 0 81.17 M0 81.17 C0.73 66.28, -0.26 50.37, 0 27.06 M0 81.17 C-0.15 68.61, -0.46 55.9, 0 27.06 M0 27.06 C1.44 10.2, 8.56 0.43, 27.06 0 M0 27.06 C-0.16 7.6, 10.95 0.2, 27.06 0" stroke="transparent" stroke-width="1" fill="none"></path></g><g transform="translate(318.90266692287685 301.8513099876713) rotate(0 70.82499694824219 11.5)"><text x="141.64999389648438" y="0" font-family="Helvetica, Segoe UI Emoji" font-size="20px" fill="transparent" text-anchor="end" style="white-space: pre;" direction="ltr" dominant-baseline="text-before-edge">Sandboxed env.</text></g><g stroke-linecap="round"><g transform="translate(627.8463804265874 159.6862291876244) rotate(0 10.622081722834821 125.0813207637959)"><path d="M0.57 1.11 C21.71 35.01, 143.7 162.14, 125.87 203.46 C108.04 244.79, -67.77 241.53, -106.4 249.05" stroke="transparent" stroke-width="1.5" fill="none" stroke-dasharray="8 9"></path></g><g transform="translate(627.8463804265874 159.6862291876244) rotate(0 10.622081722834821 125.0813207637959)"><path d="M-77.31 236.45 C-84.34 238.33, -91.34 241.92, -107.46 248.32" stroke="transparent" stroke-width="1.5" fill="none"></path></g><g transform="translate(627.8463804265874 159.6862291876244) rotate(0 10.622081722834821 125.0813207637959)"><path d="M-75.6 256.9 C-83.02 254.32, -90.39 253.46, -107.46 248.32" stroke="transparent" stroke-width="1.5" fill="none"></path></g></g><mask></mask><g stroke-linecap="round"><g transform="translate(317.2900836015955 263.82361347737077) rotate(0 -29.701446130718864 -0.8812124687138976)"><path d="M-0.77 0 C-10.85 -0.35, -49.82 -1.62, -59.34 -1.76 M1.02 -1.05 C-9.33 -1.33, -50.58 -1.07, -60.43 -0.84" stroke="transparent" stroke-width="1" fill="none"></path></g><g transform="translate(317.2900836015955 263.82361347737077) rotate(0 -29.701446130718864 -0.8812124687138976)"><path d="M-32.8 -11.72 C-45.59 -5.4, -54.94 -1.48, -61.61 0.88 M-33.63 -11.36 C-40.01 -9.32, -45.54 -7.03, -61.05 -1.76" stroke="transparent" stroke-width="1" fill="none"></path></g><g transform="translate(317.2900836015955 263.82361347737077) rotate(0 -29.701446130718864 -0.8812124687138976)"><path d="M-32.54 8.48 C-45.49 6.86, -54.94 2.83, -61.61 0.88 M-33.37 8.85 C-39.81 5.88, -45.4 3.16, -61.05 -1.76" stroke="transparent" stroke-width="1" fill="none"></path></g></g><mask></mask><g stroke-linecap="round"><g transform="translate(530.0762290477256 337.3602060590411) rotate(270.52779347531276 -29.813038407569536 -0.7042275570552192)"><path d="M0.49 -0.48 C-9.53 -0.81, -50.23 -1.01, -60.11 -0.97 M-0.72 -1.77 C-10.37 -1.42, -48.16 0.47, -57.94 0.36" stroke="transparent" stroke-width="1" fill="none"></path></g><g transform="translate(530.0762290477256 337.3602060590411) rotate(270.52779347531276 -29.813038407569536 -0.7042275570552192)"><path d="M-31.22 -12.1 C-39.25 -6.57, -46.32 -2.07, -59.36 -0.31 M-29.56 -9.69 C-36 -8.95, -40.61 -6.75, -58.63 -0.07" stroke="transparent" stroke-width="1" fill="none"></path></g><g transform="translate(530.0762290477256 337.3602060590411) rotate(270.52779347531276 -29.813038407569536 -0.7042275570552192)"><path d="M-30.74 8.11 C-39.1 7.56, -46.31 5.98, -59.36 -0.31 M-29.08 10.51 C-35.81 7.15, -40.51 5.26, -58.63 -0.07" stroke="transparent" stroke-width="1" fill="none"></path></g></g><mask></mask><g stroke-linecap="round"><g transform="translate(257.0308106698884 288.9803973226465) rotate(0 31.00706196211064 -1.2505832423817083)"><path d="M0.15 0.27 C10.81 0.32, 52.74 -0.47, 63.25 -0.83 M-1.23 -0.63 C9.3 -0.87, 51.47 -2.72, 62.02 -2.77" stroke="transparent" stroke-width="1" fill="none"></path></g><g transform="translate(257.0308106698884 288.9803973226465) rotate(0 31.00706196211064 -1.2505832423817083)"><path d="M34.57 7.38 C41.42 4.6, 46.26 1.82, 61.76 -1.27 M34.54 8.79 C42.08 5.99, 50.89 2.33, 62.57 -3.06" stroke="transparent" stroke-width="1" fill="none"></path></g><g transform="translate(257.0308106698884 288.9803973226465) rotate(0 31.00706196211064 -1.2505832423817083)"><path d="M34.01 -13.14 C40.81 -11.04, 45.78 -8.94, 61.76 -1.27 M33.98 -11.73 C41.5 -8.37, 50.48 -5.88, 62.57 -3.06" stroke="transparent" stroke-width="1" fill="none"></path></g></g><mask></mask><g stroke-linecap="round"><g transform="translate(493.77719305902986 336.78313237913807) rotate(270.52779347531276 31.452120829590342 -0.9030950723092133)"><path d="M-0.48 -1.02 C9.91 -1.25, 52.62 -1.03, 63.38 -0.88 M1.47 1.05 C11.58 0.4, 51.89 -2.36, 62.23 -2.86" stroke="transparent" stroke-width="1" fill="none"></path></g><g transform="translate(493.77719305902986 336.78313237913807) rotate(270.52779347531276 31.452120829590342 -0.9030950723092133)"><path d="M32.99 8.42 C45.79 5.12, 57.72 -1.48, 61.56 -4.8 M35.4 8.96 C44.74 5.03, 55.56 -1.21, 61.8 -3.22" stroke="transparent" stroke-width="1" fill="none"></path></g><g transform="translate(493.77719305902986 336.78313237913807) rotate(270.52779347531276 31.452120829590342 -0.9030950723092133)"><path d="M31.77 -12.07 C45.13 -7.43, 57.53 -6.09, 61.56 -4.8 M34.18 -11.52 C44 -7.44, 55.3 -5.65, 61.8 -3.22" stroke="transparent" stroke-width="1" fill="none"></path></g></g><mask></mask><g stroke-linecap="round" transform="translate(321.38448747935 62.333856462891276) rotate(0 43.5 56.5)"><path d="M21.75 0 M21.75 0 C36.49 0, 51.23 0, 65.25 0 M21.75 0 C36.03 0, 50.32 0, 65.25 0 M65.25 0 C79.75 0, 87 7.25, 87 21.75 M65.25 0 C79.75 0, 87 7.25, 87 21.75 M87 21.75 C87 45.11, 87 68.47, 87 91.25 M87 21.75 C87 36.05, 87 50.36, 87 91.25 M87 91.25 C87 105.75, 79.75 113, 65.25 113 M87 91.25 C87 105.75, 79.75 113, 65.25 113 M65.25 113 C51.91 113, 38.57 113, 21.75 113 M65.25 113 C54.37 113, 43.49 113, 21.75 113 M21.75 113 C7.25 113, 0 105.75, 0 91.25 M21.75 113 C7.25 113, 0 105.75, 0 91.25 M0 91.25 C0 65.66, 0 40.07, 0 21.75 M0 91.25 C0 64.1, 0 36.95, 0 21.75 M0 21.75 C0 7.25, 7.25 0, 21.75 0 M0 21.75 C0 7.25, 7.25 0, 21.75 0" stroke="transparent" stroke-width="1" fill="none"></path></g><g transform="translate(327.0344890052289 107.33385646289128) rotate(0 37.849998474121094 11.5)"><text x="37.849998474121094" y="0" font-family="Helvetica, Segoe UI Emoji" font-size="20px" fill="transparent" text-anchor="middle" style="white-space: pre;" direction="ltr" dominant-baseline="text-before-edge">LLVM IR</text></g><g stroke-linecap="round"><g transform="translate(197.80599854239824 115.63916265436364) rotate(0 57.60014314857915 -0.2618188324935602)"><path d="M0 0 C19.2 -0.09, 96 -0.44, 115.2 -0.52 M0 0 C19.2 -0.09, 96 -0.44, 115.2 -0.52" stroke="transparent" stroke-width="1" fill="none"></path></g><g transform="translate(197.80599854239824 115.63916265436364) rotate(0 57.60014314857915 -0.2618188324935602)"><path d="M87.06 9.86 C92.92 7.7, 98.78 5.54, 115.2 -0.52 M87.06 9.86 C96.51 6.38, 105.96 2.89, 115.2 -0.52" stroke="transparent" stroke-width="1" fill="none"></path></g><g transform="translate(197.80599854239824 115.63916265436364) rotate(0 57.60014314857915 -0.2618188324935602)"><path d="M86.96 -10.66 C92.84 -8.55, 98.73 -6.44, 115.2 -0.52 M86.96 -10.66 C96.44 -7.25, 105.93 -3.85, 115.2 -0.52" stroke="transparent" stroke-width="1" fill="none"></path></g></g><mask></mask><g stroke-linecap="round"><g transform="translate(417.73381783697334 112.49733666444115) rotate(0 49.483759341279324 0.2618188324935318)"><path d="M0 0 C16.49 0.09, 82.47 0.44, 98.97 0.52 M0 0 C16.49 0.09, 82.47 0.44, 98.97 0.52" stroke="transparent" stroke-width="1" fill="none"></path></g><g transform="translate(417.73381783697334 112.49733666444115) rotate(0 49.483759341279324 0.2618188324935318)"><path d="M70.72 10.63 C77.69 8.14, 84.66 5.64, 98.97 0.52 M70.72 10.63 C78.41 7.88, 86.1 5.13, 98.97 0.52" stroke="transparent" stroke-width="1" fill="none"></path></g><g transform="translate(417.73381783697334 112.49733666444115) rotate(0 49.483759341279324 0.2618188324935318)"><path d="M70.83 -9.89 C77.78 -7.32, 84.72 -4.75, 98.97 0.52 M70.83 -9.89 C78.49 -7.05, 86.15 -4.22, 98.97 0.52" stroke="transparent" stroke-width="1" fill="none"></path></g></g><mask></mask><g transform="translate(297.80884431316315 10) rotate(0 66.84166717529297 9.199999999999989)"><text x="66.84166717529297" y="0" font-family="Helvetica, Segoe UI Emoji" font-size="16px" fill="transparent" text-anchor="middle" style="white-space: pre;" direction="ltr" dominant-baseline="text-before-edge">Compilation Phase</text></g><g transform="translate(628.8294906352952 344.4688222537192) rotate(0 59.625 9.199999999999989)"><text x="59.625" y="0" font-family="Helvetica, Segoe UI Emoji" font-size="16px" fill="transparent" text-anchor="middle" style="white-space: pre;" direction="ltr" dominant-baseline="text-before-edge">Execution Phase</text></g><g transform="translate(225.93747615921404 118.04789591330422) rotate(0 17.424999237060547 9.199999999999989)"><text x="17.424999237060547" y="0" font-family="Helvetica, Segoe UI Emoji" font-size="16px" fill="transparent" text-anchor="middle" style="white-space: pre;" direction="ltr" dominant-baseline="text-before-edge">rusct</text></g><g transform="translate(427.3969471698149 114.90606992338172) rotate(0 30.133333206176758 18.400000000000006)"><text x="30.133333206176758" y="0" font-family="Helvetica, Segoe UI Emoji" font-size="16px" fill="transparent" text-anchor="middle" style="white-space: pre;" direction="ltr" dominant-baseline="text-before-edge">LLVM</text><text x="30.133333206176758" y="18.4" font-family="Helvetica, Segoe UI Emoji" font-size="16px" fill="transparent" text-anchor="middle" style="white-space: pre;" direction="ltr" dominant-baseline="text-before-edge">backend</text></g><g stroke-linecap="round"><g transform="translate(200.82358614601128 77.37251903691094) rotate(0 160.66795891390194 -14.06849301284521)"><path d="M0 17.89 C12.61 17.3, 61.35 24.03, 75.69 14.35 C90.03 4.67, 58.85 -30.79, 86.07 -40.19 C113.29 -49.58, 211.96 -50.29, 238.99 -42.01 C266.01 -33.73, 234.47 0.41, 248.2 9.5 C261.92 18.59, 309.15 12.03, 321.34 12.53" stroke="transparent" stroke-width="1.5" fill="none" stroke-dasharray="8 9"></path></g><g transform="translate(200.82358614601128 77.37251903691094) rotate(0 160.66795891390194 -14.06849301284521)"><path d="M293.64 24.06 C302.55 20.35, 311.47 16.64, 321.34 12.53" stroke="transparent" stroke-width="1.5" fill="none"></path></g><g transform="translate(200.82358614601128 77.37251903691094) rotate(0 160.66795891390194 -14.06849301284521)"><path d="M292.71 3.56 C301.92 6.45, 311.14 9.33, 321.34 12.53" stroke="transparent" stroke-width="1.5" fill="none"></path></g></g><mask></mask></svg>