<?xml version="1.0" encoding="UTF-8" standalone="no"?>
<!-- Generator: Adobe Illustrator 26.3.1, SVG Export Plug-In . SVG Version: 6.00 Build 0)  -->

<svg
   version="1.1"
   id="Layer_1"
   x="0px"
   y="0px"
   viewBox="0 0 273.53 462.36"
   style="enable-background:new 0 0 273.53 462.36;"
   xml:space="preserve"
   sodipodi:docname="question-mark.svg"
   inkscape:version="1.2 (dc2aedaf03, 2022-05-15)"
   xmlns:inkscape="http://www.inkscape.org/namespaces/inkscape"
   xmlns:sodipodi="http://sodipodi.sourceforge.net/DTD/sodipodi-0.dtd"
   xmlns="http://www.w3.org/2000/svg"
   xmlns:svg="http://www.w3.org/2000/svg"><defs
   id="defs483" /><sodipodi:namedview
   id="namedview481"
   pagecolor="#ffffff"
   bordercolor="#666666"
   borderopacity="1.0"
   inkscape:showpageshadow="2"
   inkscape:pageopacity="0.0"
   inkscape:pagecheckerboard="0"
   inkscape:deskcolor="#d1d1d1"
   showgrid="false"
   inkscape:zoom="1.8838135"
   inkscape:cx="50.960458"
   inkscape:cy="231.17999"
   inkscape:window-width="1499"
   inkscape:window-height="1080"
   inkscape:window-x="0"
   inkscape:window-y="23"
   inkscape:window-maximized="1"
   inkscape:current-layer="g478" />
<style
   type="text/css"
   id="style459">
	.st0{fill-rule:evenodd;clip-rule:evenodd;fill:#0E0E0E;}
</style>
<g
   id="g478">
	<path
   id="inc_00000052102702251356517240000009980933011380465280_"
   class="st0"
   d="M101.52,373.43   c-25.16,9.11-39.16,35.74-31.25,59.43c7.91,23.7,34.76,35.54,59.92,26.44c25.16-9.11,39.16-35.74,31.25-59.43   C153.53,376.17,126.68,364.32,101.52,373.43L101.52,373.43z"
   style="fill:#ffffff" />
	<g
   id="g476"
   style="fill:#ffffff">
		<g
   id="g466"
   style="fill:#ffffff">
			<path
   class="st0"
   d="M180.93,103.93c-2.51,28.28,13.98,54.24,25.69,65.95c-34.06,0-66.25,44.65-45.69,77.6     c-18.87,0.08-37,16.18-34.46,41.43c1.4,13.91,8.49,22.92,14.2,28.04c2.1,1.88,0.74,5.37-2.09,5.37H85.26     c-4.24,0-8.06-2.57-9.66-6.5l0,0c-12.25-25.07-7.89-56.37,7.08-83.2c17.27-30.95,46.98-67.55,68.47-87.53     c20.09-18.68,23.79-46.26,5.58-65.77c-23.54-25.23-67.98-13.04-79.74,23.59c-2.03,6.31-2.65,12.42-1.91,18.17     c0.49,3.86-2.29,7.32-6.01,7.32H6.08c-3.34,0-6.06-2.82-6.08-6.31c-0.08-11.29,2.09-22.91,5.74-34.99     C34.06-6.71,166.61-30.85,223.99,44.85C201.77,51.62,183.67,73.07,180.93,103.93z"
   id="path462"
   style="fill:#ffffff" />
			<line
   class="st0"
   x1="70.57"
   y1="262.77"
   x2="70.08"
   y2="262.77"
   id="line464"
   style="fill:#ffffff" />
		</g>
		<g
   id="g474"
   style="fill:#ffffff">
			<path
   class="st0"
   d="M273.51,116.41c-0.86,33.92-31.32,54.3-54.83,36.67s-22.44-60.03,1.93-76.33S274.36,82.49,273.51,116.41z"
   id="path468"
   style="fill:#ffffff" />
			<path
   class="st0"
   d="M222.69,240.43c-15.66,19.76-42.89,16.96-49-5.04c-6.11-22,13.47-46.7,35.24-44.46     S238.36,220.67,222.69,240.43z"
   id="path470"
   style="fill:#ffffff" />
			<path
   class="st0"
   d="M180.08,285.38c1.79,17.12-12.19,29.55-25.16,22.38s-15.22-28.57-4.03-38.51S178.28,268.26,180.08,285.38z"
   id="path472"
   style="fill:#ffffff" />
		</g>
	</g>
</g>
</svg>
