<svg version="1.1" xmlns="http://www.w3.org/2000/svg" viewBox="0 0 863.9888296315834 499.3414561632666" width="863.9888296315834" height="499.3414561632666">
  <!-- svg-source:excalidraw -->
  
  <defs>
    <style class="style-fonts">
      @font-face {
        font-family: "Virgil";
        src: url("https://excalidraw.com/Virgil.woff2");
      }
      @font-face {
        font-family: "Cascadia";
        src: url("https://excalidraw.com/Cascadia.woff2");
      }
    </style>
    
  </defs>
  <g stroke-linecap="round" transform="translate(15.58275617112713 78.3571788719205) rotate(0 90.5 40)"><path d="M20 0 M20 0 C60.36 0.62, 104.75 0.47, 161 0 M20 0 C75.91 0.16, 130.25 0.7, 161 0 M161 0 C176.11 -1.63, 182.01 6.38, 181 20 M161 0 C176.31 0.88, 183.24 7.34, 181 20 M181 20 C179.97 33.69, 180.91 46.69, 181 60 M181 20 C181.38 30.39, 180.39 41.92, 181 60 M181 60 C182.55 75.01, 175.71 80.34, 161 80 M181 60 C180.03 74.39, 176.54 78.6, 161 80 M161 80 C123.59 79.88, 89.22 79.47, 20 80 M161 80 C116.18 79.4, 70.75 78.78, 20 80 M20 80 C6.2 79.03, 1.36 73.49, 0 60 M20 80 C5.11 77.89, -0.17 73.59, 0 60 M0 60 C-0.2 46.01, 1.37 29.69, 0 20 M0 60 C0.75 45.26, -0.69 28.97, 0 20 M0 20 C0.16 5.17, 6.44 0.14, 20 0 M0 20 C-1.37 7.7, 6.31 -0.87, 20 0" stroke="#ffffff" stroke-width="1" fill="none"></path></g><g transform="translate(58.982757697006036 106.8571788719205) rotate(0 47.099998474121094 11.5)"><text x="47.099998474121094" y="0" font-family="Helvetica, Segoe UI Emoji" font-size="20px" fill="#ffffff" text-anchor="middle" style="white-space: pre;" direction="ltr" dominant-baseline="text-before-edge">Rust Code</text></g><g stroke-linecap="round" transform="translate(530.562566867441 74.7382055984607) rotate(0 99.45705241155542 38.90525873746137)"><path d="M19.45 0 M19.45 0 C53.43 2.28, 90.58 1.06, 179.46 0 M19.45 0 C56.58 1.16, 96.25 0.93, 179.46 0 M179.46 0 C190.6 -1.81, 200.1 6.39, 198.91 19.45 M179.46 0 C191.88 1.27, 197.88 7.35, 198.91 19.45 M198.91 19.45 C197.62 29.46, 199.75 38.04, 198.91 58.36 M198.91 19.45 C198.89 32.21, 198.58 42.76, 198.91 58.36 M198.91 58.36 C197.92 69.99, 194.13 76.62, 179.46 77.81 M198.91 58.36 C196.8 71.28, 193.32 77.65, 179.46 77.81 M179.46 77.81 C124.2 77.56, 71.15 77.23, 19.45 77.81 M179.46 77.81 C141.13 78.22, 105.5 78.24, 19.45 77.81 M19.45 77.81 C5.49 77.1, -1.2 72.1, 0 58.36 M19.45 77.81 C6.82 79, -1.35 71.45, 0 58.36 M0 58.36 C-0.92 48.77, -1.69 43.51, 0 19.45 M0 58.36 C-0.8 43.65, -0.65 27.58, 0 19.45 M0 19.45 C1.96 6.54, 6.58 1.2, 19.45 0 M0 19.45 C-1.31 8.38, 7.68 -0.86, 19.45 0" stroke="#ffffff" stroke-width="1" fill="none"></path></g><g transform="translate(599.6362860728196 102.14346433592203) rotate(0 30.383333206176758 11.5)"><text x="30.383333206176758" y="0" font-family="Helvetica, Segoe UI Emoji" font-size="20px" fill="#ffffff" text-anchor="middle" style="white-space: pre;" direction="ltr" dominant-baseline="text-before-edge">WASM</text></g><g stroke-linecap="round" transform="translate(10 216.56057188675874) rotate(0 358.007655577889 136.39044213825395)"><path d="M32 0 M32 0 C203.18 -1.68, 373.06 -1.03, 684.02 0 M32 0 C181.74 -1.65, 330.76 -1.74, 684.02 0 M684.02 0 C706.27 1.02, 715.68 9.74, 716.02 32 M684.02 0 C705.67 1.3, 715.64 10.67, 716.02 32 M716.02 32 C717.53 75.4, 718.71 119.15, 716.02 240.78 M716.02 32 C715.66 100.82, 716.84 169.28, 716.02 240.78 M716.02 240.78 C714.26 263.24, 704.19 271.72, 684.02 272.78 M716.02 240.78 C715.4 261.54, 704.02 273.46, 684.02 272.78 M684.02 272.78 C436.71 274.2, 189.28 275.76, 32 272.78 M684.02 272.78 C532.31 274.38, 380.24 274.28, 32 272.78 M32 272.78 C11.06 270.93, 1.97 264.02, 0 240.78 M32 272.78 C9.51 272.95, -0.58 262.24, 0 240.78 M0 240.78 C0.84 180.2, -1.34 117.85, 0 32 M0 240.78 C1.18 188.18, 2.58 133.71, 0 32 M0 32 C0.78 11.47, 11.52 -0.98, 32 0 M0 32 C-0.47 12.91, 12.72 -1.43, 32 0" stroke="#ffffff" stroke-width="1" fill="none"></path></g><g transform="translate(52.70076266612284 189.06362210238746) rotate(0 37.78333282470703 11.5)"><text x="37.78333282470703" y="0" font-family="Helvetica, Segoe UI Emoji" font-size="20px" fill="#ffffff" text-anchor="middle" style="white-space: pre;" direction="ltr" dominant-baseline="text-before-edge">Machine</text></g><g stroke-linecap="round" transform="translate(141.6824995311041 246.39768761022555) rotate(0 277.5198139649623 113.79056878851469)"><path d="M32 0 M32 0 C208.97 -0.21, 384.35 -0.18, 523.04 0 M32 0 C221.91 0.07, 412.4 0.64, 523.04 0 M523.04 0 C544.64 -1.96, 555.29 9.05, 555.04 32 M523.04 0 C545.33 -2.25, 556.86 12.6, 555.04 32 M555.04 32 C556.25 86.64, 556.89 137.29, 555.04 195.58 M555.04 32 C555.9 88.74, 555.94 143.37, 555.04 195.58 M555.04 195.58 C556.68 218.91, 542.97 226.57, 523.04 227.58 M555.04 195.58 C555.65 216.16, 546.46 227.19, 523.04 227.58 M523.04 227.58 C333.29 227.48, 143.56 227.81, 32 227.58 M523.04 227.58 C352.46 229.28, 182.87 228.96, 32 227.58 M32 227.58 C11.84 225.8, 1.63 218.06, 0 195.58 M32 227.58 C10.33 229.25, 0.09 217.13, 0 195.58 M0 195.58 C-1.38 157.77, 2.16 114.99, 0 32 M0 195.58 C-0.84 134.27, -0.25 73.99, 0 32 M0 32 C-1.26 11.1, 11.3 -0.09, 32 0 M0 32 C-0.5 8.67, 8.37 1.73, 32 0" stroke="#ffffff" stroke-width="1" fill="none"></path></g><g transform="translate(159.988477032765 220.75219319414936) rotate(0 46.79999923706055 11.5)"><text x="46.79999923706055" y="0" font-family="Helvetica, Segoe UI Emoji" font-size="20px" fill="#ffffff" text-anchor="middle" style="white-space: pre;" direction="ltr" dominant-baseline="text-before-edge">Wasmtime</text></g><g stroke-linecap="round" transform="translate(159.81878555909384 382.8697353858275) rotate(0 258.5817418957576 33.8537152052366)"><path d="M16.93 0 M16.93 0 C157.59 -0.01, 296.87 0.58, 500.24 0 M16.93 0 C187.88 1.04, 358.95 0.67, 500.24 0 M500.24 0 C512.66 0.1, 515.63 4.79, 517.16 16.93 M500.24 0 C513.58 -1.4, 518.3 5.78, 517.16 16.93 M517.16 16.93 C518.76 24.01, 515.97 31.93, 517.16 50.78 M517.16 16.93 C516.92 28.77, 516.26 39.15, 517.16 50.78 M517.16 50.78 C515.32 63.38, 510.17 67.08, 500.24 67.71 M517.16 50.78 C517.5 63.84, 510.65 69.3, 500.24 67.71 M500.24 67.71 C378.05 66.57, 254.25 65.83, 16.93 67.71 M500.24 67.71 C321.77 68.07, 144.22 68.62, 16.93 67.71 M16.93 67.71 C4.73 66.6, 0.2 61.14, 0 50.78 M16.93 67.71 C6.06 65.83, 1.79 61.25, 0 50.78 M0 50.78 C0.6 41.59, -0.39 31.38, 0 16.93 M0 50.78 C-0.13 42.99, -0.43 35.05, 0 16.93 M0 16.93 C1.44 6.82, 5.18 0.43, 16.93 0 M0 16.93 C-0.16 4.23, 7.57 0.2, 16.93 0" stroke="#ffffff" stroke-width="1" fill="none"></path></g><g transform="translate(175.66502634289566 358.38726793836867) rotate(0 70.82499694824219 11.5)"><text x="141.64999389648438" y="0" font-family="Helvetica, Segoe UI Emoji" font-size="20px" fill="#ffffff" text-anchor="end" style="white-space: pre;" direction="ltr" dominant-baseline="text-before-edge">Sandboxed env.</text></g><g stroke-linecap="round" transform="translate(326.96724365047714 62.333856462891276) rotate(0 43.5 56.5)"><path d="M21.75 0 M21.75 0 C36.49 0, 51.23 0, 65.25 0 M21.75 0 C36.03 0, 50.32 0, 65.25 0 M65.25 0 C79.75 0, 87 7.25, 87 21.75 M65.25 0 C79.75 0, 87 7.25, 87 21.75 M87 21.75 C87 45.11, 87 68.47, 87 91.25 M87 21.75 C87 36.05, 87 50.36, 87 91.25 M87 91.25 C87 105.75, 79.75 113, 65.25 113 M87 91.25 C87 105.75, 79.75 113, 65.25 113 M65.25 113 C51.91 113, 38.57 113, 21.75 113 M65.25 113 C54.37 113, 43.49 113, 21.75 113 M21.75 113 C7.25 113, 0 105.75, 0 91.25 M21.75 113 C7.25 113, 0 105.75, 0 91.25 M0 91.25 C0 65.66, 0 40.07, 0 21.75 M0 91.25 C0 64.1, 0 36.95, 0 21.75 M0 21.75 C0 7.25, 7.25 0, 21.75 0 M0 21.75 C0 7.25, 7.25 0, 21.75 0" stroke="#ffffff" stroke-width="1" fill="none"></path></g><g transform="translate(332.61724517635605 107.33385646289128) rotate(0 37.849998474121094 11.5)"><text x="37.849998474121094" y="0" font-family="Helvetica, Segoe UI Emoji" font-size="20px" fill="#ffffff" text-anchor="middle" style="white-space: pre;" direction="ltr" dominant-baseline="text-before-edge">LLVM IR</text></g><g stroke-linecap="round"><g transform="translate(203.38875471352537 115.63916265436364) rotate(0 57.60014314857915 -0.2618188324935602)"><path d="M0 0 C19.2 -0.09, 96 -0.44, 115.2 -0.52 M0 0 C19.2 -0.09, 96 -0.44, 115.2 -0.52" stroke="#ffffff" stroke-width="1" fill="none"></path></g><g transform="translate(203.38875471352537 115.63916265436364) rotate(0 57.60014314857915 -0.2618188324935602)"><path d="M87.06 9.86 C92.92 7.7, 98.78 5.54, 115.2 -0.52 M87.06 9.86 C96.51 6.38, 105.96 2.89, 115.2 -0.52" stroke="#ffffff" stroke-width="1" fill="none"></path></g><g transform="translate(203.38875471352537 115.63916265436364) rotate(0 57.60014314857915 -0.2618188324935602)"><path d="M86.96 -10.66 C92.84 -8.55, 98.73 -6.44, 115.2 -0.52 M86.96 -10.66 C96.44 -7.25, 105.93 -3.85, 115.2 -0.52" stroke="#ffffff" stroke-width="1" fill="none"></path></g></g><mask></mask><g stroke-linecap="round"><g transform="translate(423.3165740081005 112.49733666444115) rotate(0 49.483759341279324 0.2618188324935318)"><path d="M0 0 C16.49 0.09, 82.47 0.44, 98.97 0.52 M0 0 C16.49 0.09, 82.47 0.44, 98.97 0.52" stroke="#ffffff" stroke-width="1" fill="none"></path></g><g transform="translate(423.3165740081005 112.49733666444115) rotate(0 49.483759341279324 0.2618188324935318)"><path d="M70.72 10.63 C77.69 8.14, 84.66 5.64, 98.97 0.52 M70.72 10.63 C78.41 7.88, 86.1 5.13, 98.97 0.52" stroke="#ffffff" stroke-width="1" fill="none"></path></g><g transform="translate(423.3165740081005 112.49733666444115) rotate(0 49.483759341279324 0.2618188324935318)"><path d="M70.83 -9.89 C77.78 -7.32, 84.72 -4.75, 98.97 0.52 M70.83 -9.89 C78.49 -7.05, 86.15 -4.22, 98.97 0.52" stroke="#ffffff" stroke-width="1" fill="none"></path></g></g><mask></mask><g transform="translate(303.3916004842903 10) rotate(0 66.84166717529297 9.199999999999989)"><text x="66.84166717529297" y="0" font-family="Helvetica, Segoe UI Emoji" font-size="16px" fill="#ffffff" text-anchor="middle" style="white-space: pre;" direction="ltr" dominant-baseline="text-before-edge">Compilation Phase</text></g><g transform="translate(734.7388296315834 195.50141624327296) rotate(0 59.625 9.200000000000017)"><text x="59.625" y="0" font-family="Helvetica, Segoe UI Emoji" font-size="16px" fill="#ffffff" text-anchor="middle" style="white-space: pre;" direction="ltr" dominant-baseline="text-before-edge">Execution Phase</text></g><g transform="translate(231.52023233034117 118.04789591330422) rotate(0 17.424999237060547 9.199999999999989)"><text x="17.424999237060547" y="0" font-family="Helvetica, Segoe UI Emoji" font-size="16px" fill="#ffffff" text-anchor="middle" style="white-space: pre;" direction="ltr" dominant-baseline="text-before-edge">rusct</text></g><g transform="translate(432.979703340942 114.90606992338172) rotate(0 30.133333206176758 18.400000000000006)"><text x="30.133333206176758" y="0" font-family="Helvetica, Segoe UI Emoji" font-size="16px" fill="#ffffff" text-anchor="middle" style="white-space: pre;" direction="ltr" dominant-baseline="text-before-edge">LLVM</text><text x="30.133333206176758" y="18.4" font-family="Helvetica, Segoe UI Emoji" font-size="16px" fill="#ffffff" text-anchor="middle" style="white-space: pre;" direction="ltr" dominant-baseline="text-before-edge">backend</text></g><g stroke-linecap="round"><g transform="translate(206.4063423171384 77.37251903691094) rotate(0 160.66795891390194 -14.06849301284521)"><path d="M0 17.89 C12.61 17.3, 61.35 24.03, 75.69 14.35 C90.03 4.67, 58.85 -30.79, 86.07 -40.19 C113.29 -49.58, 211.96 -50.29, 238.99 -42.01 C266.01 -33.73, 234.47 0.41, 248.2 9.5 C261.92 18.59, 309.15 12.03, 321.34 12.53" stroke="#ffffff" stroke-width="1.5" fill="none" stroke-dasharray="8 9"></path></g><g transform="translate(206.4063423171384 77.37251903691094) rotate(0 160.66795891390194 -14.06849301284521)"><path d="M293.64 24.06 C302.55 20.35, 311.47 16.64, 321.34 12.53" stroke="#ffffff" stroke-width="1.5" fill="none"></path></g><g transform="translate(206.4063423171384 77.37251903691094) rotate(0 160.66795891390194 -14.06849301284521)"><path d="M292.71 3.56 C301.92 6.45, 311.14 9.33, 321.34 12.53" stroke="#ffffff" stroke-width="1.5" fill="none"></path></g></g><mask></mask><g stroke-linecap="round" transform="translate(267.19331573942384 396.6333120813226) rotate(0 122.05541787829975 20.342569646383254)"><path d="M10.17 0 M10.17 0 C81.89 -1.72, 153.34 -1.76, 233.94 0 M10.17 0 C72.21 -1.12, 133.28 -0.11, 233.94 0 M233.94 0 C240.96 1.43, 244.31 4.32, 244.11 10.17 M233.94 0 C242.12 -1.28, 245.75 3.53, 244.11 10.17 M244.11 10.17 C242.13 14.18, 242.58 21.7, 244.11 30.51 M244.11 10.17 C244.2 15.71, 245.03 18.95, 244.11 30.51 M244.11 30.51 C246 37.58, 241.77 41.05, 233.94 40.69 M244.11 30.51 C245.56 37.57, 240.88 39.53, 233.94 40.69 M233.94 40.69 C165.14 39.69, 92.81 39.16, 10.17 40.69 M233.94 40.69 C174.42 41.83, 114.28 40.63, 10.17 40.69 M10.17 40.69 C5.31 40.48, -1.74 38.54, 0 30.51 M10.17 40.69 C5.08 42.13, -2.14 36.91, 0 30.51 M0 30.51 C0.57 25.91, -0.24 15.67, 0 10.17 M0 30.51 C-0.44 25.49, -0.89 18.14, 0 10.17 M0 10.17 C-1.91 2.82, 3.59 0.2, 10.17 0 M0 10.17 C1.51 2.48, 1.68 -0.5, 10.17 0" stroke="#ffffff" stroke-width="1" fill="none"></path></g><g transform="translate(331.4737320918447 407.7758817277058) rotate(0 57.775001525878906 9.199999999999989)"><text x="57.775001525878906" y="0" font-family="Helvetica, Segoe UI Emoji" font-size="16px" fill="#ffffff" text-anchor="middle" style="white-space: pre;" direction="ltr" dominant-baseline="text-before-edge">Native Bytecode</text></g><g stroke-linecap="round"><g transform="translate(670.3460596404747 153.1389178291588) rotate(0 12.734137830454927 138.46081026494784)"><path d="M0.12 0.79 C25.48 28.46, 127.81 121.31, 151.79 166.16 C175.76 211.02, 194.36 253.59, 143.98 269.93 C93.61 286.27, -101.38 265.27, -150.44 264.22" stroke="#ffffff" stroke-width="1.5" fill="none" stroke-dasharray="8 9"></path></g><g transform="translate(670.3460596404747 153.1389178291588) rotate(0 12.734137830454927 138.46081026494784)"><path d="M-120.35 254.97 C-130.95 257.65, -138.42 260.06, -149.6 263.98" stroke="#ffffff" stroke-width="1.5" fill="none"></path></g><g transform="translate(670.3460596404747 153.1389178291588) rotate(0 12.734137830454927 138.46081026494784)"><path d="M-121.64 275.45 C-131.91 272.57, -139.03 269.42, -149.6 263.98" stroke="#ffffff" stroke-width="1.5" fill="none"></path></g></g><mask></mask><g stroke-linecap="round"><g transform="translate(574.7976264529167 153.1389178291588) rotate(0 -151.28847953484478 82.23788403657616)"><path d="M-1.02 0.21 C-0.72 5.86, 47.8 25.64, 1.55 34.67 C-44.7 43.7, -224.49 34.42, -278.54 54.4 C-332.58 74.38, -324.64 136.78, -322.71 154.56 C-320.78 172.34, -276.38 160.18, -266.96 161.07 M0.65 -0.73 C0.9 5.02, 47.66 27.1, 1.09 35.96 C-45.47 44.81, -224.8 32.47, -278.75 52.4 C-332.69 72.33, -324.83 137.34, -322.56 155.53 C-320.29 173.72, -274.76 160.48, -265.11 161.56" stroke="#ffffff" stroke-width="1" fill="none"></path></g><g transform="translate(574.7976264529167 153.1389178291588) rotate(0 -151.28847953484478 82.23788403657616)"><path d="M-290.22 175.44 C-284.36 172.45, -275.44 166.96, -265.55 160.47 M-290.4 173.75 C-283.49 169.66, -273.84 166.48, -264.54 161.46" stroke="#ffffff" stroke-width="1" fill="none"></path></g><g transform="translate(574.7976264529167 153.1389178291588) rotate(0 -151.28847953484478 82.23788403657616)"><path d="M-292.19 156.2 C-285.66 158.56, -276.2 158.42, -265.55 160.47 M-292.37 154.51 C-284.82 156.5, -274.54 159.38, -264.54 161.46" stroke="#ffffff" stroke-width="1" fill="none"></path></g></g><mask></mask><g stroke-linecap="round" transform="translate(322.1062741108906 266.4139388062992) rotate(0 49 46)"><path d="M23 0 M23 0 C35.55 0.89, 45.69 1.44, 75 0 M23 0 C40.67 0.17, 57.21 -0.87, 75 0 M75 0 C90.32 0.96, 98.94 6.66, 98 23 M75 0 C90.32 -2.16, 98.58 8.99, 98 23 M98 23 C98.48 40.36, 96.02 56.25, 98 69 M98 23 C98.98 39.09, 97.45 54.06, 98 69 M98 69 C98.19 82.35, 88.66 90.82, 75 92 M98 69 C99.62 85.39, 88.7 91.54, 75 92 M75 92 C55.95 90.88, 34.95 93.13, 23 92 M75 92 C60.2 91.83, 46.04 91.71, 23 92 M23 92 C8.25 93.61, 1.88 84.88, 0 69 M23 92 C6.4 94.1, 1.19 82.84, 0 69 M0 69 C-0.12 56.82, -0.8 43.08, 0 23 M0 69 C0.42 58, 0.94 46.99, 0 23 M0 23 C-0.94 9.62, 5.79 -1.98, 23 0 M0 23 C-1.02 6.28, 5.57 1.16, 23 0" stroke="#ffffff" stroke-width="1" fill="none"></path></g><g transform="translate(330.9729389973652 303.21393880629915) rotate(0 40.13333511352539 9.199999999999989)"><text x="40.13333511352539" y="0" font-family="Helvetica, Segoe UI Emoji" font-size="16px" fill="#ffffff" text-anchor="middle" style="white-space: pre;" direction="ltr" dominant-baseline="text-before-edge">Cranelift IR</text></g><g stroke-linecap="round"><g transform="translate(431.2164203960374 312.18082597361007) rotate(0 49.28854578658627 37.46892510325773)"><path d="M-0.28 -0.4 C15.81 1.09, 88.65 -3.03, 97.68 9.68 C106.71 22.4, 60.98 64.48, 53.92 75.89 M1.78 -1.66 C17.58 -0.6, 87.46 -5.26, 96.56 7.79 C105.65 20.83, 63.12 65.2, 56.32 76.6" stroke="#ffffff" stroke-width="1" fill="none"></path></g><g transform="translate(431.2164203960374 312.18082597361007) rotate(0 49.28854578658627 37.46892510325773)"><path d="M64.71 47.44 C62.7 57.73, 56.44 71.37, 58.12 76.23 M66.17 47.71 C63.74 55.01, 61.94 60.95, 56.31 76.95" stroke="#ffffff" stroke-width="1" fill="none"></path></g><g transform="translate(431.2164203960374 312.18082597361007) rotate(0 49.28854578658627 37.46892510325773)"><path d="M80.98 59.95 C72.45 65.25, 59.76 73.94, 58.12 76.23 M82.43 60.23 C76.28 64.45, 70.67 67.47, 56.31 76.95" stroke="#ffffff" stroke-width="1" fill="none"></path></g></g><mask></mask><g transform="translate(443.1403057797031 273.3528179879291) rotate(0 32.13333511352539 18.399999999999977)"><text x="32.13333511352539" y="0" font-family="Helvetica, Segoe UI Emoji" font-size="16px" fill="#ffffff" text-anchor="middle" style="white-space: pre;" direction="ltr" dominant-baseline="text-before-edge">Cranelift </text><text x="32.13333511352539" y="18.4" font-family="Helvetica, Segoe UI Emoji" font-size="16px" fill="#ffffff" text-anchor="middle" style="white-space: pre;" direction="ltr" dominant-baseline="text-before-edge">Backend</text></g></svg>