<svg width="48" height="48" viewBox="0 0 28 28" fill="#e6007a" xmlns="http://www.w3.org/2000/svg" stroke-width="2" stroke-linecap="round" stroke-linejoin="round" stroke="#e6007a"><path fill-rule="evenodd" clip-rule="evenodd" d="M13.8075 7.66319C15.75 5.71709 18.9032 5.71709 20.8457 7.66319C22.66 9.48082 22.7915 12.381 21.1492 14.3554L20.3805 15.2796C20.3699 15.2924 20.368 15.3001 20.3671 15.3047C20.3659 15.3115 20.3659 15.322 20.3697 15.3342C20.3735 15.3464 20.3795 15.355 20.3844 15.3599C20.3876 15.3632 20.3936 15.3684 20.4096 15.3729L21.4487 15.6621C24.7298 16.5752 27 19.5634 27 22.9692V25.8286C27 26.3809 26.5523 26.8286 26 26.8286H8.64612C8.09383 26.8286 7.64612 26.3809 7.64612 25.8286V22.9741C7.64612 19.5657 9.91833 16.5754 13.2021 15.6622L14.2434 15.3726C14.2594 15.3682 14.2654 15.3629 14.2686 15.3597C14.2735 15.3547 14.2795 15.3462 14.2833 15.3339C14.2871 15.3217 14.2871 15.3113 14.2859 15.3044C14.285 15.2999 14.2831 15.2922 14.2725 15.2794L13.5039 14.3554C11.8617 12.381 11.9932 9.48082 13.8075 7.66319ZM5.46275 15.9737C5.07223 16.3642 5.07224 16.9974 5.46277 17.3879C5.8533 17.7784 6.48647 17.7784 6.87699 17.3879L9.79324 14.4715C10.1837 14.081 10.1837 13.4478 9.79323 13.0573L6.87697 10.141C6.48645 9.75051 5.85329 9.75051 5.46276 10.141C5.07224 10.5316 5.07223 11.1647 5.46276 11.5553L6.67202 12.7645H2C1.44772 12.7645 1 13.2122 1 13.7645C1 14.3168 1.44772 14.7645 2 14.7645H6.67186L5.46275 15.9737Z" stroke="none"></path></svg>