<svg width="48" height="48" viewBox="0 0 29 29" fill="#e6007a" xmlns="http://www.w3.org/2000/svg" stroke-width="2" stroke-linecap="round" stroke-linejoin="round" stroke="#e6007a"><path fill-rule="evenodd" clip-rule="evenodd" d="M24.9991 3.00488C24.9991 2.4526 24.5514 2.00488 23.9991 2.00488C23.4469 2.00488 22.9991 2.4526 22.9991 3.00488V5.00488H20.9991C20.4469 5.00488 19.9991 5.4526 19.9991 6.00488C19.9991 6.55717 20.4469 7.00488 20.9991 7.00488H22.9991V9.00488C22.9991 9.55717 23.4469 10.0049 23.9991 10.0049C24.5514 10.0049 24.9991 9.55717 24.9991 9.00488V7.00488H26.9991C27.5514 7.00488 27.9991 6.55717 27.9991 6.00488C27.9991 5.4526 27.5514 5.00488 26.9991 5.00488H24.9991V3.00488ZM9.92292 15.7536L9.65482 14.7902L8.42568 15.1322C4.62363 16.1903 1.99304 19.6529 1.99304 23.5995V26.9818C1.99304 27.5341 2.44076 27.9818 2.99304 27.9818H23.5206C24.0729 27.9818 24.5206 27.5341 24.5206 26.9818V23.6053C24.5206 19.6557 21.8876 16.1906 18.0824 15.1324L16.8507 14.7898C16.6748 14.7409 16.6079 14.5268 16.7247 14.3865L17.6338 13.2935C19.516 11.0306 19.3653 7.70669 17.2859 5.62351C15.0596 3.39307 11.4457 3.39308 9.2194 5.62351C7.14008 7.70669 6.98933 11.0306 8.87154 13.2935L9.78085 14.3867C9.89763 14.5271 9.83074 14.7412 9.65482 14.7902L9.92292 15.7536Z" stroke="none"></path></svg>