<svg width="48" height="48" viewBox="0 0 28 28" fill="#e6007a" xmlns="http://www.w3.org/2000/svg" stroke-width="2" stroke-linecap="round" stroke-linejoin="round" stroke="#e6007a"><path fill-rule="evenodd" clip-rule="evenodd" d="M6.13804 4.41342C5.82545 4.52717 5.53839 4.70139 5.29323 4.92613L5.28542 4.93329L5.28538 4.93325C4.78618 5.38122 4.4852 6.00924 4.44873 6.6795C4.41236 7.34783 4.64196 8.00365 5.08739 8.50363C5.31163 8.74716 5.58136 8.94446 5.88135 9.08438C6.18311 9.22514 6.50955 9.30506 6.84203 9.31964C7.17451 9.33421 7.50652 9.28314 7.8191 9.16939C8.13168 9.05564 8.41874 8.88142 8.6639 8.65668L8.67143 8.64978L8.67146 8.64982C9.1705 8.20164 9.47136 7.57356 9.50783 6.90328C9.5442 6.23499 9.31478 5.57921 8.86964 5.07906C8.64541 4.83558 8.37572 4.63832 8.07579 4.49843C7.77403 4.35767 7.44758 4.27775 7.1151 4.26317C6.78263 4.2486 6.45062 4.29966 6.13804 4.41342ZM3.94568 3.44826C4.38372 3.04765 4.89622 2.73702 5.45409 2.534C6.01361 2.33038 6.60779 2.23902 7.20268 2.26509C7.79758 2.29117 8.38153 2.43417 8.92122 2.6859C9.4609 2.93763 9.94577 3.29316 10.3482 3.73219L10.3564 3.74117L10.3563 3.74122C10.8319 4.27301 11.1708 4.90393 11.3539 5.57991L25.9989 5.58222C26.5511 5.58231 26.9988 6.03009 26.9987 6.58238C26.9986 7.13466 26.5508 7.58231 25.9985 7.58222L24.3242 7.58196L24.3229 10.5371C24.3228 10.8024 24.2172 11.0568 24.0294 11.2443C23.8416 11.4318 23.587 11.5369 23.3217 11.5366L18.4214 11.5307C17.8693 11.5301 17.4222 11.0821 17.4226 10.5299L17.4249 7.58087L11.4379 7.57992C11.2589 8.56052 10.7602 9.46061 10.0116 10.1345C9.57349 10.5351 9.06095 10.8458 8.50305 11.0488C7.94353 11.2524 7.34935 11.3438 6.75445 11.3177C6.15956 11.2916 5.57561 11.1486 5.03592 10.8969C4.49624 10.6452 4.01137 10.2897 3.60899 9.85062L3.60101 9.84193L3.60107 9.84188C2.79987 8.94674 2.38641 7.77029 2.45168 6.57084C2.51685 5.37312 3.05406 4.25024 3.94568 3.44826ZM15.7641 11.7783C15.7641 11.2261 15.3164 10.7783 14.7641 10.7783C14.2118 10.7783 13.7641 11.2261 13.7641 11.7783V13.4471H12.0954C11.5431 13.4471 11.0954 13.8948 11.0954 14.4471C11.0954 14.9993 11.5431 15.4471 12.0954 15.4471H13.7641V17.1158C13.7641 17.668 14.2118 18.1158 14.7641 18.1158C15.3164 18.1158 15.7641 17.668 15.7641 17.1158V15.4471H17.4328C17.9851 15.4471 18.4328 14.9993 18.4328 14.4471C18.4328 13.8948 17.9851 13.4471 17.4328 13.4471H15.7641V11.7783ZM6.13933 19.5418C5.82675 19.6556 5.53969 19.8298 5.29453 20.0545L5.28672 20.0617L5.28668 20.0617C4.78748 20.5096 4.48649 21.1377 4.45002 21.8079C4.41366 22.4763 4.64326 23.1321 5.08868 23.632C5.31293 23.8756 5.58266 24.0729 5.88264 24.2128C6.18441 24.3536 6.51085 24.4335 6.84333 24.4481C7.17581 24.4626 7.50781 24.4116 7.8204 24.2978C8.13298 24.1841 8.42004 24.0098 8.6652 23.7851L8.67272 23.7782L8.67276 23.7782C9.1718 23.3301 9.47266 22.702 9.50913 22.0317C9.54549 21.3634 9.31608 20.7076 8.87093 20.2075C8.64671 19.964 8.37702 19.7667 8.07709 19.6268C7.77533 19.4861 7.44888 19.4062 7.1164 19.3916C6.78392 19.377 6.45192 19.4281 6.13933 19.5418ZM3.94697 18.5767C4.38502 18.1761 4.89752 17.8654 5.45538 17.6624C6.01491 17.4588 6.60909 17.3674 7.20398 17.3935C7.79887 17.4196 8.38283 17.5626 8.92251 17.8143C9.4622 18.066 9.94707 18.4216 10.3494 18.8606L10.3577 18.8696L10.3576 18.8696C10.8332 19.4014 11.1721 20.0323 11.3552 20.7083L26.0002 20.7106C26.5524 20.7107 27.0001 21.1585 27 21.7108C26.9999 22.2631 26.5521 22.7107 25.9998 22.7106L24.3255 22.7104L24.3242 25.666C24.3241 25.9313 24.2185 26.1857 24.0307 26.3732C23.8429 26.5607 23.5883 26.6659 23.323 26.6655L18.4227 26.6596C17.8706 26.659 17.4235 26.211 17.4239 25.6588L17.4263 22.7093L11.4392 22.7083C11.2602 23.6889 10.7615 24.589 10.0128 25.2629C9.57478 25.6635 9.06225 25.9742 8.50435 26.1772C7.94482 26.3808 7.35065 26.4722 6.75575 26.4461C6.16086 26.4201 5.5769 26.2771 5.03722 26.0253C4.49753 25.7736 4.01266 25.4181 3.61028 24.979L3.60231 24.9703L3.60236 24.9703C2.80117 24.0752 2.38771 22.8987 2.45298 21.6993C2.51815 20.5015 3.05536 19.3787 3.94697 18.5767Z" stroke="none"></path></svg>