<svg width="48" height="48" viewBox="0 0 28 28" fill="#e6007a" xmlns="http://www.w3.org/2000/svg" stroke-width="2" stroke-linecap="round" stroke-linejoin="round" stroke="#e6007a"><path fill-rule="evenodd" clip-rule="evenodd" d="M1 14C1 21.1797 6.8203 27 14 27C21.1797 27 27 21.1797 27 14C27 6.8203 21.1797 1 14 1C6.8203 1 1 6.8203 1 14ZM13.9679 19.6847C14.5202 19.6877 14.9703 19.2424 14.9733 18.6901L14.996 14.4939L19.1897 14.5166C19.742 14.5195 20.1921 14.0742 20.1951 13.522C20.1981 12.9697 19.7528 12.5196 19.2005 12.5166L15.0068 12.4939L15.0295 8.30054C15.0325 7.74826 14.5872 7.29813 14.0349 7.29515C13.4826 7.29216 13.0325 7.73745 13.0295 8.28973L13.0068 12.4831L8.81091 12.4604C8.25863 12.4574 7.80851 12.9027 7.80552 13.455C7.80253 14.0073 8.24782 14.4574 8.8001 14.4604L12.996 14.4831L12.9733 18.6793C12.9703 19.2316 13.4156 19.6817 13.9679 19.6847Z" stroke="none"></path></svg>