<svg width="48" height="48" viewBox="0 0 28 28" fill="#e6007a" xmlns="http://www.w3.org/2000/svg" stroke-width="2" stroke-linecap="round" stroke-linejoin="round" stroke="#e6007a"><path fill-rule="evenodd" clip-rule="evenodd" d="M4.22522 18.6357V9.32178L2 9.32178C1.44772 9.32178 1 8.87406 1 8.32178C1 7.76949 1.44772 7.32178 2 7.32178L4.22522 7.32178V2C4.22522 1.73479 4.33058 1.48043 4.51811 1.29289C4.70565 1.10536 4.96 1 5.22522 1L25.9999 1C26.2651 1 26.5194 1.10536 26.707 1.29289C26.8945 1.48043 26.9999 1.73478 26.9999 2V26.003C26.9999 26.2683 26.8945 26.5226 26.707 26.7102C26.5194 26.8977 26.2651 27.003 25.9999 27.003L5.22522 27.0029C4.67293 27.0029 4.22522 26.5552 4.22522 26.0029V20.6357H2C1.44772 20.6357 1 20.188 1 19.6357C1 19.0835 1.44771 18.6357 2 18.6357L4.22522 18.6357ZM16.634 9.29486C15.9768 8.64455 14.9185 8.64455 14.2612 9.29486C13.6362 9.91329 13.591 10.9081 14.1574 11.5806L14.659 12.1762C15.4609 13.1282 15.0063 14.5908 13.806 14.9204L13.0809 15.1195C11.5817 15.5313 10.5426 16.8943 10.5426 18.449V19.3358H20.3479V18.4457C20.3479 16.8926 19.31 15.531 17.8124 15.1194L17.0889 14.9205C15.8888 14.5907 15.4343 13.1283 16.2361 12.1763L16.7378 11.5806C17.3043 10.9081 17.2591 9.91329 16.634 9.29486ZM12.8546 7.87314C14.2911 6.45179 16.6042 6.45179 18.0407 7.87314C19.4068 9.2248 19.5056 11.3991 18.2675 12.869L18.0615 13.1137L18.3425 13.1909C20.7083 13.8411 22.3479 15.9921 22.3479 18.4457V20.3358C22.3479 20.8881 21.9002 21.3358 21.3479 21.3358H9.54258C8.9903 21.3358 8.54258 20.8881 8.54258 20.3358V18.449C8.54258 15.9937 10.1836 13.8412 12.5513 13.191L12.8336 13.1134L12.6277 12.869C11.3897 11.3991 11.4884 9.2248 12.8546 7.87314Z" stroke="none"></path></svg>