<svg width="48" height="48" viewBox="0 0 28 28" fill="#e6007a" xmlns="http://www.w3.org/2000/svg" stroke-width="2" stroke-linecap="round" stroke-linejoin="round" stroke="#e6007a"><path fill-rule="evenodd" clip-rule="evenodd" d="M6 6C6 4.34315 7.34315 3 9 3C10.3062 3 11.4175 3.83481 11.8293 5H14C14.5523 5 15 5.44772 15 6V10H17C17.5523 10 18 10.4477 18 11V13H20.5707C20.9826 11.8348 22.0938 11 23.4 11C25.0569 11 26.4 12.3431 26.4 14C26.4 15.6569 25.0569 17 23.4 17C22.0938 17 20.9826 16.1652 20.5707 15H18V17C18 17.5523 17.5523 18 17 18H15L15 21H16.1707C16.5825 19.8348 17.6938 19 19 19C20.6569 19 22 20.3431 22 22C22 23.6569 20.6569 25 19 25C17.6938 25 16.5825 24.1652 16.1707 23H14C13.4477 23 13 22.5523 13 22L13 18H11C10.4477 18 10 17.5523 10 17V15H7.82929C7.41746 16.1652 6.30622 17 5 17C3.34315 17 2 15.6569 2 14C2 12.3431 3.34315 11 5 11C6.30622 11 7.41746 11.8348 7.82929 13H10V11C10 10.4477 10.4477 10 11 10H13V7H11.8293C11.4175 8.16519 10.3062 9 9 9C7.34315 9 6 7.65685 6 6Z" stroke="none"></path></svg>