<svg width="48" height="48" viewBox="0 0 28 28" fill="#e6007a" xmlns="http://www.w3.org/2000/svg" stroke-width="2" stroke-linecap="round" stroke-linejoin="round" stroke="#e6007a"><path d="M12.2538 21.1306L9.47419 24.7392L13.9318 23.6567L18.3887 24.7392L15.5932 21.1306L15.6222 16.6818L25.8701 19.4502L15.666 11.5381L15.7125 6.08368C15.7348 3.47089 12.4046 3.44036 12.3823 6.05315L12.3356 11.5381L2.04451 19.4501L12.2917 16.6818C12.2978 18.1648 12.2664 19.6477 12.2538 21.1306Z" stroke="none"></path><path fill-rule="evenodd" clip-rule="evenodd" d="M26.7656 19.8958C26.5536 20.3224 26.07 20.5399 25.6099 20.4156L16.6137 17.9854L16.5954 20.7921L19.1791 24.1272C19.4393 24.4631 19.459 24.9268 19.2281 25.2833C18.9972 25.6398 18.5662 25.8113 18.1532 25.711L13.9324 24.6858L9.71075 25.711C9.29831 25.8112 8.86742 25.64 8.63594 25.284C8.40447 24.928 8.42286 24.4649 8.68182 24.1287L11.257 20.7856C11.2609 20.3959 11.2659 20.0086 11.2708 19.6229C11.2778 19.0762 11.2847 18.5324 11.2888 17.9888L2.30588 20.4156C1.84515 20.5401 1.36048 20.3215 1.14851 19.8937C0.936546 19.4659 1.05638 18.9481 1.43467 18.6573L11.3398 11.042L11.3824 6.04405C11.3898 5.17126 11.6791 4.42429 12.1983 3.89069C12.7113 3.36344 13.3946 3.10271 14.0726 3.10893C14.7507 3.11515 15.4295 3.38837 15.9334 3.92494C16.4434 4.46798 16.7199 5.22013 16.7125 6.09292L16.6702 11.0518L26.4826 18.6601C26.8592 18.9522 26.9777 19.4693 26.7656 19.8958ZM21.3165 17.1845L15.0536 12.3283C14.8067 12.1369 14.6634 11.8412 14.666 11.529L14.7125 6.07458C14.7162 5.64098 14.5848 5.40952 14.476 5.29364C14.3611 5.17129 14.2101 5.11027 14.0556 5.10886C13.9011 5.10744 13.7491 5.16568 13.6321 5.2859C13.5213 5.39977 13.386 5.62878 13.3823 6.06239L13.3355 11.5473C13.3329 11.8547 13.189 12.1437 12.9454 12.3311L6.65232 17.1694L12.0303 15.7165C12.3302 15.6355 12.6507 15.6984 12.8978 15.8869C13.1449 16.0753 13.2904 16.3678 13.2917 16.6784C13.2958 17.6752 13.283 18.6789 13.2704 19.6727C13.2641 20.1649 13.2579 20.6546 13.2537 21.1399C13.2519 21.3576 13.179 21.5688 13.0461 21.7413L12.0026 23.096L13.6952 22.685C13.8503 22.6473 14.0121 22.6473 14.1672 22.685L15.8492 23.0935L14.8028 21.7428C14.6655 21.5656 14.5917 21.3476 14.5932 21.1235L14.6222 16.6747C14.6242 16.3647 14.7699 16.0733 15.0166 15.8857C15.2632 15.6981 15.583 15.6356 15.8824 15.7165L21.3165 17.1845Z" stroke="none"></path></svg>