<svg width="48" height="48" viewBox="0 0 28 28" fill="#e6007a" xmlns="http://www.w3.org/2000/svg" stroke-width="2" stroke-linecap="round" stroke-linejoin="round" stroke="#e6007a"><g><path fill-rule="evenodd" clip-rule="evenodd" d="M19.0513 0.564453C18.499 0.564453 18.0513 1.01217 18.0513 1.56445V4.42383H15.2495C14.6973 4.42383 14.2495 4.87154 14.2495 5.42383V12.9775H12.3521L7.57286 8.19832C7.18233 7.80779 6.54917 7.80779 6.15865 8.19832L1.08653 13.2704C0.696009 13.661 0.696009 14.2941 1.08653 14.6846L6.15865 19.7568C6.54917 20.1473 7.18233 20.1473 7.57286 19.7568L12.3521 14.9775H14.2495V22.7292C14.2495 23.2815 14.6973 23.7292 15.2495 23.7292H18.1889C18.7065 25.8565 20.6242 27.4357 22.9108 27.4357C25.5946 27.4357 27.7702 25.2601 27.7702 22.5763C27.7702 19.8925 25.5946 17.7168 22.9108 17.7168C20.5159 17.7168 18.5257 19.4492 18.1249 21.7292H16.2495V6.42383H18.0513V9.28338C18.0513 9.83567 18.499 10.2834 19.0513 10.2834H26.7702C27.3225 10.2834 27.7702 9.83567 27.7702 9.28338V1.56445C27.7702 1.01217 27.3225 0.564453 26.7702 0.564453H19.0513Z" stroke="none"></path></g></svg>