<svg width="48" height="48" viewBox="0 0 28 28" fill="#e6007a" xmlns="http://www.w3.org/2000/svg" stroke-width="2" stroke-linecap="round" stroke-linejoin="round" stroke="#e6007a"><path fill-rule="evenodd" clip-rule="evenodd" d="M18.8448 5.15587C19.1175 4.67559 19.7279 4.50729 20.2082 4.77997L19.7145 5.64959C20.2082 4.77997 20.208 4.77986 20.2082 4.77997L20.2099 4.78094L20.2121 4.7822L20.218 4.78557L20.2354 4.79573C20.2495 4.804 20.2685 4.81527 20.2919 4.82945C20.3386 4.85779 20.403 4.89791 20.4812 4.94911C20.6369 5.05114 20.85 5.19908 21.087 5.38737C21.5488 5.75436 22.1561 6.31754 22.5816 7.03727C23.0055 7.75407 23.2082 8.54839 23.3091 9.12431C23.3609 9.41939 23.3887 9.6742 23.4037 9.85755C23.4113 9.94954 23.4157 10.0244 23.4182 10.0783C23.4195 10.1053 23.4203 10.1272 23.4208 10.1434L23.4214 10.1634L23.4215 10.1701L23.4216 10.1727L23.4216 10.1737C23.4216 10.174 23.4216 10.1747 22.4218 10.1924L23.4216 10.1737C23.4314 10.7259 22.9917 11.1824 22.4395 11.1922C21.8881 11.202 21.4331 10.7636 21.422 10.2126L21.4218 10.207C21.4216 10.2006 21.4212 10.189 21.4204 10.1726C21.4189 10.1397 21.4159 10.088 21.4104 10.021C21.3994 9.88638 21.3784 9.69347 21.3392 9.46955C21.2582 9.00748 21.1105 8.47871 20.8601 8.05518C20.6114 7.63458 20.2155 7.24944 19.8427 6.95319C19.6623 6.80987 19.5002 6.69746 19.3851 6.62205C19.3279 6.58452 19.283 6.55665 19.2542 6.53918C19.2398 6.53045 19.2295 6.52436 19.2238 6.52099L19.2187 6.51804C18.74 6.24479 18.5726 5.63546 18.8448 5.15587Z" stroke="none"></path><path fill-rule="evenodd" clip-rule="evenodd" d="M19.8452 1.50645C20.1179 1.02618 20.7283 0.857879 21.2085 1.13055L20.7148 2.00017C21.2085 1.13055 21.2083 1.13044 21.2085 1.13055L21.2105 1.13166L21.2134 1.13331L21.222 1.13826L21.2502 1.15467C21.2737 1.16847 21.3066 1.18801 21.348 1.2131C21.4306 1.26325 21.5471 1.33575 21.6897 1.42918C21.9744 1.61569 22.3661 1.88759 22.8018 2.23377C23.661 2.91652 24.7459 3.9312 25.4925 5.19384C26.2468 6.46962 26.613 8.02987 26.7974 9.20708C26.8914 9.80729 26.9418 10.3331 26.9688 10.7103C26.9823 10.8992 26.99 11.0519 26.9944 11.159C26.9966 11.2126 26.9979 11.2549 26.9987 11.2848L26.9996 11.3201L26.9998 11.3305L26.9999 11.3339L26.9999 11.3351C26.9999 11.3353 26.9999 11.336 26 11.3512L26.9999 11.3351C27.0083 11.8873 26.5675 12.3427 26.0153 12.3511C25.4633 12.3595 25.009 11.919 25.0002 11.3672C25.0002 11.367 25.0002 11.3673 25.0002 11.3672L25.0001 11.3625L24.9995 11.3397C24.9989 11.3183 24.9979 11.2849 24.9961 11.2406C24.9924 11.1519 24.9858 11.0197 24.9739 10.8531C24.95 10.519 24.905 10.0501 24.8215 9.51652C24.6507 8.42608 24.3328 7.16213 23.7709 6.21175C23.2012 5.24823 22.3277 4.4116 21.5575 3.79958C21.1785 3.49837 20.8378 3.26202 20.5937 3.10213C20.472 3.02236 20.375 2.96211 20.3103 2.92283C20.2779 2.9032 20.2537 2.88884 20.2385 2.87993L20.2226 2.87069L20.2211 2.8698C20.221 2.86973 20.2212 2.86986 20.2211 2.8698M19.8452 1.50645C19.5726 1.98662 19.7411 2.59703 20.2211 2.8698L19.8452 1.50645Z" stroke="none"></path><path fill-rule="evenodd" clip-rule="evenodd" d="M15.3011 3.6548C15.1081 3.32057 14.7401 3.12721 14.3554 3.15798C13.9707 3.18874 13.638 3.43814 13.5006 3.79878C12.2801 7.00241 9.28621 10.3878 5.28828 12.7668L3.82892 13.6013L3.82533 13.6033C2.02905 14.6404 1.4136 16.9373 2.45068 18.7336C3.2458 20.1108 4.78145 20.7938 6.26426 20.5702L9.1283 25.5309C9.40444 26.0092 10.016 26.1731 10.4943 25.8969L13.7378 24.0243C14.2161 23.7482 14.3799 23.1366 14.1038 22.6583L11.4604 18.0797C14.7953 16.6888 18.1895 16.1935 20.9095 16.6313C21.2905 16.6927 21.6728 16.5293 21.8918 16.2115C22.1108 15.8937 22.1274 15.4783 21.9344 15.144L15.3011 3.6548ZM8.13867 19.8168L10.3603 23.6649L11.8717 22.7923L9.65007 18.9442L8.13867 19.8168Z" stroke="none"></path></svg>