<svg width="48" height="48" viewBox="0 0 28 28" fill="#e6007a" xmlns="http://www.w3.org/2000/svg" stroke-width="2" stroke-linecap="round" stroke-linejoin="round" stroke="#e6007a"><path fill-rule="evenodd" clip-rule="evenodd" d="M4.32718 10.9237C4.90901 5.38828 9.86799 1.37264 15.4034 1.95447C20.9388 2.5363 24.9544 7.49528 24.3726 13.0307C23.7907 18.566 18.8318 22.5817 13.2964 21.9999C12.1658 21.881 11.097 21.579 10.1175 21.126L5.32003 24.4985C4.95571 24.7546 4.46593 24.7389 4.11872 24.46C3.77151 24.1812 3.65056 23.7063 3.82206 23.2953L6.11848 17.7919C4.75705 15.8659 4.06118 13.4543 4.32718 10.9237ZM14.5241 6.63965C15.0764 6.63892 15.5247 7.08603 15.5255 7.63832L15.5327 13.1171C15.5335 13.6694 15.0864 14.1177 14.5341 14.1184C13.9818 14.1192 13.5335 13.672 13.5327 13.1198L13.5255 7.64098C13.5247 7.0887 13.9718 6.64039 14.5241 6.63965ZM13.8188 15.305C14.2093 14.9144 14.8425 14.9144 15.233 15.305L15.2501 15.322C15.6406 15.7126 15.6406 16.3457 15.2501 16.7363C14.8596 17.1268 14.2264 17.1268 13.8359 16.7363L13.8188 16.7192C13.4283 16.3287 13.4283 15.6955 13.8188 15.305Z" stroke="none"></path></svg>