<svg width="48" height="48" viewBox="0 0 28 28" fill="#e6007a" xmlns="http://www.w3.org/2000/svg" stroke-width="2" stroke-linecap="round" stroke-linejoin="round" stroke="#e6007a"><path fill-rule="evenodd" clip-rule="evenodd" d="M12.2739 4.77567C12.2739 3.79499 13.0689 3 14.0496 3C15.0303 3 15.8253 3.79499 15.8253 4.77567C15.8253 5.75635 15.0303 6.55134 14.0496 6.55134C13.4973 6.55134 13.0496 6.99906 13.0496 7.55134V9.38388C13.0496 9.93616 13.4973 10.3839 14.0496 10.3839C14.6019 10.3839 15.0496 9.93616 15.0496 9.38388V8.41749C16.6496 7.97917 17.8253 6.51472 17.8253 4.77567C17.8253 2.69042 16.1349 1 14.0496 1C11.9644 1 10.2739 2.69042 10.2739 4.77567C10.2739 5.32796 10.7217 5.77567 11.2739 5.77567C11.8262 5.77567 12.2739 5.32796 12.2739 4.77567ZM15.0496 12.8444C15.0496 12.2921 14.6019 11.8444 14.0496 11.8444C13.4973 11.8444 13.0496 12.2921 13.0496 12.8444V12.8545C13.0496 13.4068 13.4973 13.8545 14.0496 13.8545C14.6019 13.8545 15.0496 13.4068 15.0496 12.8545V12.8444ZM5.77571 17.2949V18.626C7.37563 19.0643 8.55134 20.5287 8.55134 22.2678C8.55134 24.353 6.86092 26.0435 4.77567 26.0435C2.69043 26.0435 1 24.353 1 22.2678C1 20.5287 2.17575 19.0643 3.77571 18.6259V16.2949C3.77571 16.0297 3.88107 15.7754 4.06861 15.5878C4.25614 15.4003 4.5105 15.2949 4.77571 15.2949H22.8386C23.3909 15.2949 23.8386 15.7426 23.8386 16.2949V18.5419C25.6317 18.8353 27 20.3918 27 22.2679C27 24.3531 25.3096 26.0436 23.2243 26.0436C21.1391 26.0436 19.4487 24.3531 19.4487 22.2679C19.4487 20.6719 20.4389 19.3071 21.8386 18.7546V17.2949L5.77571 17.2949Z" stroke="none"></path></svg>