<svg width="48" height="48" viewBox="0 0 28 29" fill="#e6007a" xmlns="http://www.w3.org/2000/svg" stroke-width="2" stroke-linecap="round" stroke-linejoin="round" stroke="#e6007a"><path fill-rule="evenodd" clip-rule="evenodd" d="M14.4767 9.76457C14.4767 6.89478 16.8031 4.56836 19.6729 4.56836C22.5427 4.56836 24.8691 6.89478 24.8691 9.76457C24.8691 12.6344 22.5427 14.9608 19.6729 14.9608C16.8031 14.9608 14.4767 12.6344 14.4767 9.76457ZM21.2912 16.7781V21.9624C21.2912 22.5147 20.8435 22.9624 20.2912 22.9624H11.7378L6.74312 26.7669C6.44074 26.9973 6.03391 27.0363 5.6933 26.8675C5.35268 26.6988 5.13717 26.3516 5.13717 25.9714V22.9624H2C1.44772 22.9624 1 22.5147 1 21.9624V9.30664C1 8.75436 1.44772 8.30664 2 8.30664H12.6245C13.2984 5.03126 16.198 2.56836 19.6729 2.56836C23.6472 2.56836 26.8691 5.79021 26.8691 9.76457C26.8691 13.1825 24.4863 16.0438 21.2912 16.7781ZM22.7334 7.88838C23.1089 8.29333 23.0851 8.92605 22.6801 9.30159L19.4452 12.3016C19.0728 12.647 18.5006 12.6583 18.1148 12.3279L16.3497 10.8163C15.9302 10.4571 15.8814 9.8258 16.2406 9.40631C16.5998 8.98683 17.2311 8.93799 17.6506 9.29723L18.7387 10.2291L21.3202 7.83513C21.7251 7.45959 22.3578 7.48343 22.7334 7.88838ZM7.70711 15.2929C7.31658 14.9024 6.68342 14.9024 6.29289 15.2929C5.90237 15.6834 5.90237 16.3166 6.29289 16.7071L6.31103 16.7252C6.70156 17.1158 7.33472 17.1158 7.72525 16.7252C8.11577 16.3347 8.11577 15.7016 7.72525 15.311L7.70711 15.2929ZM11.7071 15.2929C11.3166 14.9024 10.6834 14.9024 10.2929 15.2929C9.90237 15.6834 9.90237 16.3166 10.2929 16.7071L10.311 16.7252C10.7016 17.1158 11.3347 17.1158 11.7252 16.7252C12.1158 16.3347 12.1158 15.7016 11.7252 15.311L11.7071 15.2929ZM14.3291 15.2929C14.7197 14.9024 15.3528 14.9024 15.7434 15.2929L15.7615 15.311C16.152 15.7016 16.152 16.3347 15.7615 16.7252C15.371 17.1158 14.7378 17.1158 14.3473 16.7252L14.3291 16.7071C13.9386 16.3166 13.9386 15.6834 14.3291 15.2929Z" stroke="none"></path></svg>