<svg width="48" height="48" viewBox="0 0 28 28" fill="#e6007a" xmlns="http://www.w3.org/2000/svg" stroke-width="2" stroke-linecap="round" stroke-linejoin="round" stroke="#e6007a"><path fill-rule="evenodd" clip-rule="evenodd" d="M14 1C6.8203 1 1 6.8203 1 14C1 16.3662 1.63309 18.5876 2.73978 20.5007C2.91852 20.8097 3.24842 21 3.60539 21H6.32682V26C6.32682 26.5523 6.77454 27 7.32682 27H20.6602C21.2124 27 21.6602 26.5523 21.6602 26V21H24.3946C24.7516 21 25.0815 20.8097 25.2602 20.5007C26.3669 18.5876 27 16.3662 27 14C27 6.8203 21.1797 1 14 1ZM9.28605 12.1841C8.79696 12.1841 8.40047 12.5806 8.40047 13.0697C8.40047 13.5587 8.79696 13.9552 9.28605 13.9552C9.77514 13.9552 10.1716 13.5587 10.1716 13.0697C10.1716 12.5806 9.77514 12.1841 9.28605 12.1841ZM6.40047 13.0697C6.40047 11.476 7.69239 10.1841 9.28605 10.1841C10.8797 10.1841 12.1716 11.476 12.1716 13.0697C12.1716 14.6633 10.8797 15.9552 9.28605 15.9552C7.69239 15.9552 6.40047 14.6633 6.40047 13.0697ZM17.8284 13.0697C17.8284 12.5806 18.2248 12.1841 18.7139 12.1841C19.203 12.1841 19.5995 12.5806 19.5995 13.0697C19.5995 13.5587 19.203 13.9552 18.7139 13.9552C18.2248 13.9552 17.8284 13.5587 17.8284 13.0697ZM18.7139 10.1841C17.1203 10.1841 15.8284 11.476 15.8284 13.0697C15.8284 14.6633 17.1203 15.9552 18.7139 15.9552C20.3076 15.9552 21.5995 14.6633 21.5995 13.0697C21.5995 11.476 20.3076 10.1841 18.7139 10.1841Z" stroke="none"></path></svg>