<svg width="48" height="48" viewBox="0 0 28 28" fill="#e6007a" xmlns="http://www.w3.org/2000/svg" stroke-width="2" stroke-linecap="round" stroke-linejoin="round" stroke="#e6007a"><path fill-rule="evenodd" clip-rule="evenodd" d="M5.63426 13.5843C5.24374 13.1938 5.24374 12.5606 5.63426 12.1701L16.5115 1.29289C16.902 0.902369 17.5352 0.902369 17.9257 1.29289L23.3643 6.7315C23.7548 7.12202 23.7548 7.75518 23.3643 8.14571L19.9923 11.5176L26.6905 18.2158C27.081 18.6063 27.081 19.2395 26.6905 19.63L23.9712 22.3493C23.5807 22.7398 22.9475 22.7398 22.557 22.3493L15.8588 15.6512L12.4871 19.0229C12.0966 19.4134 11.4634 19.4134 11.0729 19.0229L5.63426 13.5843ZM23.2641 20.228L17.2732 14.2371L18.5782 12.932L24.5692 18.9229L23.2641 20.228ZM1 26C1 25.4477 1.44772 25 2 25L14.4984 25C15.0507 25 15.4984 25.4477 15.4984 26C15.4984 26.5523 15.0507 27 14.4984 27L2 27C1.44772 27 1 26.5523 1 26ZM3.92285 21.6309C3.37057 21.6309 2.92285 22.0786 2.92285 22.6309C2.92285 23.1831 3.37057 23.6309 3.92285 23.6309H12.5756C13.1279 23.6309 13.5756 23.1831 13.5756 22.6309C13.5756 22.0786 13.1279 21.6309 12.5756 21.6309H3.92285Z" stroke="none"></path></svg>