<svg width="48" height="48" viewBox="0 0 30 29" fill="#e6007a" xmlns="http://www.w3.org/2000/svg" stroke-width="2" stroke-linecap="round" stroke-linejoin="round" stroke="#e6007a"><path fill-rule="evenodd" clip-rule="evenodd" d="M11.0111 3.05935C13.0856 0.642977 16.8255 0.642977 18.9001 3.05935C20.1124 4.4714 20.4774 6.42377 19.8572 8.17845L18.546 11.8878C18.3575 12.4214 18.5674 13.0141 19.0497 13.31L24.4413 16.6178C24.5796 16.7027 24.6927 16.8182 24.774 16.9526H5.14406C5.22532 16.8181 5.3384 16.7025 5.4767 16.6176L10.8619 13.3105C11.3441 13.0145 11.5538 12.4218 11.3653 11.8884L10.0539 8.17844C9.43371 6.42377 9.79874 4.4714 11.0111 3.05935ZM5 18.9526V22.4415C5 22.9938 5.44772 23.4415 6 23.4415H23.9184C24.4707 23.4415 24.9184 22.9938 24.9184 22.4415V18.9526H5Z" stroke="none"></path><path d="M22.1264 26.3618H8.25928"></path></svg>