<svg width="48" height="48" viewBox="0 0 28 28" fill="#e6007a" xmlns="http://www.w3.org/2000/svg" stroke-width="2" stroke-linecap="round" stroke-linejoin="round" stroke="#e6007a"><path fill-rule="evenodd" clip-rule="evenodd" d="M1 4C1 3.44772 1.44772 3 2 3H26C26.5523 3 27 3.44772 27 4V24.219C27 24.7713 26.5523 25.219 26 25.219H2C1.44772 25.219 1 24.7713 1 24.219V4ZM15.0116 9.6499C15.0116 9.09762 14.5639 8.6499 14.0116 8.6499C13.4593 8.6499 13.0116 9.09762 13.0116 9.6499V9.89248C12.4865 9.98646 11.9982 10.2396 11.6163 10.6234C11.1261 11.1152 10.8514 11.7812 10.85 12.4742V12.496C10.85 13.192 11.1273 13.8584 11.6168 14.3492C12.1072 14.841 12.7725 15.1178 13.4654 15.1206H14.5519C14.6392 15.1206 14.721 15.1371 14.7945 15.1672C14.8697 15.1981 14.9385 15.244 14.9954 15.3009L14.9974 15.3029C15.0547 15.3598 15.1006 15.4281 15.1322 15.5044C15.1637 15.5803 15.18 15.6621 15.18 15.7444C15.18 15.8285 15.1638 15.9114 15.1326 15.9883C15.1011 16.064 15.0551 16.133 14.996 16.1924C14.9401 16.2486 14.8714 16.295 14.7936 16.3272C14.7202 16.3577 14.6399 16.3736 14.5577 16.3733H12.187C11.6347 16.3733 11.187 16.821 11.187 17.3733C11.187 17.9256 11.6347 18.3733 12.187 18.3733H13.0116V18.5924C13.0116 19.1447 13.4593 19.5924 14.0116 19.5924C14.5639 19.5924 15.0116 19.1447 15.0116 18.5924V18.3341C15.1989 18.3013 15.3828 18.2481 15.56 18.1746C15.877 18.0431 16.1685 17.8498 16.4142 17.6026C16.6564 17.3591 16.8497 17.0702 16.9819 16.7501L16.9833 16.7467C17.1137 16.4276 17.18 16.0871 17.18 15.7444C17.18 15.3991 17.1118 15.0569 16.9796 14.738C16.8478 14.4205 16.6548 14.131 16.4096 13.8867C16.1649 13.6419 15.8734 13.4482 15.5539 13.317C15.2327 13.1852 14.8922 13.1206 14.5519 13.1206H13.4719C13.307 13.1195 13.149 13.0533 13.033 12.937C12.9157 12.8194 12.85 12.6601 12.85 12.496V12.4774C12.8505 12.3107 12.9169 12.1516 13.033 12.0351L13.034 12.0341C13.1499 11.9176 13.3071 11.8521 13.4707 11.8516H15.6525C16.2048 11.8516 16.6525 11.4038 16.6525 10.8516C16.6525 10.2993 16.2048 9.85156 15.6525 9.85156H15.0116V9.6499Z" stroke="none"></path></svg>