<svg width="48" height="48" viewBox="0 0 28 28" fill="#e6007a" xmlns="http://www.w3.org/2000/svg" stroke-width="2" stroke-linecap="round" stroke-linejoin="round" stroke="#e6007a"><path fill-rule="evenodd" clip-rule="evenodd" d="M13.2139 1.29057C13.402 1.4775 13.5082 1.73151 13.5091 1.99672L13.5272 7.54622C13.5291 8.0985 13.0828 8.54768 12.5305 8.54949C11.9782 8.5513 11.5291 8.10505 11.5273 7.55277L11.5173 4.51604L2.70711 13.3262C2.31658 13.7168 1.68342 13.7168 1.29289 13.3262C0.902369 12.9357 0.902369 12.3025 1.29289 11.912L10.1973 3.00762L6.97827 3.01822C6.42599 3.02004 5.9768 2.5738 5.97498 2.02152C5.97316 1.46924 6.4194 1.02005 6.97168 1.01823L12.5058 1.00001C12.771 0.999132 13.0257 1.10365 13.2139 1.29057ZM24.9901 4.5315L25 7.55277C25.0018 8.10505 25.451 8.5513 26.0033 8.54949C26.5556 8.54768 27.0018 8.0985 27 7.54622L26.9818 1.99672C26.981 1.73151 26.8748 1.4775 26.6866 1.29057C26.4985 1.10365 26.2438 0.999132 25.9786 1.00001L20.4445 1.01823C19.8922 1.02005 19.4459 1.46924 19.4478 2.02152C19.4496 2.5738 19.8988 3.02004 20.451 3.01822L23.6856 3.00757L1.40013 25.2931C1.00961 25.6836 1.00961 26.3168 1.40013 26.7073C1.79066 27.0978 2.42382 27.0978 2.81435 26.7073L24.9901 4.5315ZM23.6701 16.3885L20.451 16.3991C19.8988 16.4009 19.4496 15.9547 19.4478 15.4024C19.4459 14.8501 19.8922 14.4009 20.4445 14.3991L25.9786 14.3809C26.2438 14.38 26.4985 14.4845 26.6866 14.6714C26.8748 14.8584 26.981 15.1124 26.9818 15.3776L27 20.9271C27.0018 21.4794 26.5556 21.9285 26.0033 21.9303C25.451 21.9322 25.0018 21.4859 25 20.9336L24.9901 17.8969L16.1799 26.7071C15.7894 27.0976 15.1562 27.0976 14.7657 26.7071C14.3751 26.3166 14.3751 25.6834 14.7657 25.2929L23.6701 16.3885Z" stroke="none"></path></svg>