<svg width="48" height="48" viewBox="0 0 28 28" fill="#e6007a" xmlns="http://www.w3.org/2000/svg" stroke-width="2" stroke-linecap="round" stroke-linejoin="round" stroke="#e6007a"><path fill-rule="evenodd" clip-rule="evenodd" d="M13.5053 1C8.25567 1 4 5.25567 4 10.5053C4 15.4172 7.72574 19.459 12.5054 19.9587V26C12.5054 26.5523 12.9531 27 13.5054 27C14.0577 27 14.5054 26.5523 14.5054 26V19.9587C19.285 19.4589 23.0106 15.4172 23.0106 10.5053C23.0106 5.25567 18.755 1 13.5053 1ZM17.5208 6.88008C17.957 7.21877 18.0361 7.84698 17.6974 8.28322L13.2952 13.9534C13.1099 14.192 12.8267 14.3341 12.5247 14.34C12.2227 14.3459 11.9342 14.2149 11.7398 13.9837L9.33784 11.1267C8.98243 10.704 9.03701 10.0732 9.45974 9.71774C9.88247 9.36233 10.5133 9.41691 10.8687 9.83964L12.4743 11.7494L16.1176 7.05672C16.4563 6.62047 17.0845 6.54139 17.5208 6.88008Z" stroke="none"></path></svg>