<svg width="48" height="48" viewBox="0 0 28 28" fill="#e6007a" xmlns="http://www.w3.org/2000/svg" stroke-width="2" stroke-linecap="round" stroke-linejoin="round" stroke="#e6007a"><path fill-rule="evenodd" clip-rule="evenodd" d="M1 2C1 1.44772 1.44772 1 2 1H11.2309C11.7832 1 12.2309 1.44772 12.2309 2V5.70215H15.7692V2C15.7692 1.44772 16.2169 1 16.7692 1H26.0001C26.5523 1 27.0001 1.44772 27.0001 2V11.2309C27.0001 11.7832 26.5523 12.2309 26.0001 12.2309H17.1834L12.2308 17.1836V20.5342H15.7692V16.769C15.7692 16.2168 16.2169 15.769 16.7692 15.769H26C26.5523 15.769 27 16.2168 27 16.769V25.9999C27 26.5521 26.5523 26.9999 26 26.9999H16.7692C16.2169 26.9999 15.7692 26.5521 15.7692 25.9999V22.5342H12.2308V25.9998C12.2308 26.5521 11.7831 26.9998 11.2308 26.9998H2C1.44772 26.9998 1 26.5521 1 25.9998V16.769C1 16.2168 1.44772 15.769 2 15.769H10.8169L15.7692 10.8167V7.70215H12.2309V11.2309C12.2309 11.7832 11.7832 12.2309 11.2309 12.2309H2C1.44772 12.2309 1 11.7832 1 11.2309V2Z" stroke="none"></path></svg>