<svg width="48" height="48" viewBox="0 0 28 28" fill="#e6007a" xmlns="http://www.w3.org/2000/svg" stroke-width="2" stroke-linecap="round" stroke-linejoin="round" stroke="#e6007a"><path fill-rule="evenodd" clip-rule="evenodd" d="M13.831 1C8.40091 1 4 5.40201 4 10.831C4 16.2601 8.40194 20.662 13.831 20.662C14.2447 20.662 14.6525 20.6365 15.0527 20.5869L18.4657 26.5C18.5983 26.7297 18.8167 26.8974 19.0729 26.966C19.3291 27.0347 19.6021 26.9988 19.8318 26.8661L23.8734 24.5324C24.3516 24.2563 24.5155 23.6449 24.2395 23.1666L21.0024 17.5556C22.6519 15.7972 23.662 13.432 23.662 10.831C23.662 5.40201 19.2611 1 13.831 1ZM19.6979 24.634L17.0868 20.1101C17.9387 19.8112 18.7369 19.3984 19.4632 18.8898L22.0076 23.3002L19.6979 24.634ZM10.8704 6.93066C10.3181 6.93066 9.87037 7.37838 9.87037 7.93066V13.73C9.87037 14.2823 10.3181 14.73 10.8704 14.73H16.6735C17.2258 14.73 17.6735 14.2823 17.6735 13.73V7.93066C17.6735 7.37838 17.2258 6.93066 16.6735 6.93066H10.8704ZM11.8704 12.73V8.93066H15.6735V12.73H11.8704Z" stroke="none"></path></svg>