<svg width="48" height="48" viewBox="0 0 28 28" fill="#e6007a" xmlns="http://www.w3.org/2000/svg" stroke-width="2" stroke-linecap="round" stroke-linejoin="round" stroke="#e6007a"><path fill-rule="evenodd" clip-rule="evenodd" d="M3.57235 5C3.57235 4.44771 4.02006 4 4.57235 4H23.4277C23.9799 4 24.4277 4.44771 24.4277 5V13.4277H26C26.5523 13.4277 27 13.8754 27 14.4277C27 14.98 26.5523 15.4277 26 15.4277H24.4277V23.8553C24.4277 24.4076 23.9799 24.8553 23.4277 24.8553H4.57235C4.02006 24.8553 3.57235 24.4076 3.57235 23.8553V15.4277H2C1.44772 15.4277 1 14.98 1 14.4277C1 13.8754 1.44772 13.4277 2 13.4277H3.57235V5ZM11.8745 19.5992C11.3222 19.5992 10.8745 19.1515 10.8745 18.5992V17.502H9.77731C9.22503 17.502 8.77731 17.0542 8.77731 16.502C8.77731 15.9497 9.22503 15.502 9.77731 15.502H10.8745V13.2113H9.77731C9.22503 13.2113 8.77731 12.7636 8.77731 12.2113C8.77731 11.6591 9.22503 11.2113 9.77731 11.2113H10.8745V10.1143C10.8745 9.56197 11.3222 9.11426 11.8745 9.11426C12.4268 9.11426 12.8745 9.56197 12.8745 10.1143V11.2113L15.1651 11.2113V10.1143C15.1651 9.56197 15.6128 9.11426 16.1651 9.11426C16.7174 9.11426 17.1651 9.56197 17.1651 10.1143V11.2113H18.2623C18.8146 11.2113 19.2623 11.6591 19.2623 12.2113C19.2623 12.7636 18.8146 13.2113 18.2623 13.2113H17.1651V15.502H18.2623C18.8146 15.502 19.2623 15.9497 19.2623 16.502C19.2623 17.0542 18.8146 17.502 18.2623 17.502H17.1651V18.5992C17.1651 19.1515 16.7174 19.5992 16.1651 19.5992C15.6128 19.5992 15.1651 19.1515 15.1651 18.5992V17.502L12.8745 17.502V18.5992C12.8745 19.1515 12.4267 19.5992 11.8745 19.5992ZM15.1651 15.502H12.8745V13.2113H15.1651V15.502Z" stroke="none"></path></svg>