<svg width="48" height="48" viewBox="0 0 28 28" fill="#e6007a" xmlns="http://www.w3.org/2000/svg" stroke-width="2" stroke-linecap="round" stroke-linejoin="round" stroke="#e6007a"><path fill-rule="evenodd" clip-rule="evenodd" d="M3 2C3 1.44772 3.44772 1 4 1H24C24.5523 1 25 1.44772 25 2V26C25 26.5523 24.5523 27 24 27H4C3.44772 27 3 26.5523 3 26V2ZM19.4584 9.33936C20.0107 9.33936 20.4584 8.89164 20.4584 8.33936C20.4584 7.78707 20.0107 7.33936 19.4584 7.33936H11.9206C11.3683 7.33936 10.9206 7.78707 10.9206 8.33936C10.9206 8.89164 11.3683 9.33936 11.9206 9.33936H19.4584ZM8.43256 9.33936C8.98484 9.33936 9.43256 8.89164 9.43256 8.33936C9.43256 7.78707 8.98484 7.33936 8.43256 7.33936H8.42177C7.86948 7.33936 7.42177 7.78707 7.42177 8.33936C7.42177 8.89164 7.86948 9.33936 8.42177 9.33936H8.43256ZM19.4584 14.75C20.0107 14.75 20.4584 14.3023 20.4584 13.75C20.4584 13.1977 20.0107 12.75 19.4584 12.75H11.9206C11.3683 12.75 10.9206 13.1977 10.9206 13.75C10.9206 14.3023 11.3683 14.75 11.9206 14.75H19.4584ZM8.43256 14.75C8.98484 14.75 9.43256 14.3023 9.43256 13.75C9.43256 13.1977 8.98484 12.75 8.43256 12.75H8.42177C7.86948 12.75 7.42177 13.1977 7.42177 13.75C7.42177 14.3023 7.86948 14.75 8.42177 14.75H8.43256ZM20.4584 19.3394C20.4584 19.8916 20.0107 20.3394 19.4584 20.3394H11.9206C11.3683 20.3394 10.9206 19.8916 10.9206 19.3394C10.9206 18.7871 11.3683 18.3394 11.9206 18.3394H19.4584C20.0107 18.3394 20.4584 18.7871 20.4584 19.3394ZM9.43256 19.3394C9.43256 19.8916 8.98484 20.3394 8.43256 20.3394H8.42177C7.86948 20.3394 7.42177 19.8916 7.42177 19.3394C7.42177 18.7871 7.86948 18.3394 8.42177 18.3394H8.43256C8.98484 18.3394 9.43256 18.7871 9.43256 19.3394Z" stroke="none"></path></svg>