<svg width="48" height="48" viewBox="0 0 29 29" fill="#e6007a" xmlns="http://www.w3.org/2000/svg" stroke-width="2" stroke-linecap="round" stroke-linejoin="round" stroke="#e6007a"><path fill-rule="evenodd" clip-rule="evenodd" d="M23.6246 4.90601C23.6181 4.91286 23.6115 4.91963 23.6048 4.92631L16.6946 11.8365L15.9564 14.556L18.6795 13.8197L25.5889 6.91019C26.1372 6.36137 26.1367 5.47288 25.5894 4.92544M23.6246 4.90601C24.1733 4.37812 25.047 4.38404 25.5894 4.92544L23.6246 4.90601ZM22.1906 3.51116C23.5195 2.18228 25.6738 2.18279 27.0032 3.5108C28.332 4.83967 28.3319 6.99435 27.0039 8.3237L19.9051 15.4225C19.7815 15.5461 19.6277 15.6351 19.459 15.6807L14.7956 16.9417C14.4497 17.0352 14.0803 16.9365 13.8271 16.6831C13.5739 16.4296 13.4756 16.0601 13.5695 15.7143L14.8342 11.0557C14.8799 10.8873 17.3767 10.6233 17.5 10.5L22.1652 3.53748C22.1735 3.52857 22.182 3.51979 22.1906 3.51116Z" stroke="none"></path><path fill-rule="evenodd" clip-rule="evenodd" d="M2 3C2 2.44772 2.44772 2 3 2H24.1462C24.6985 2 25.1462 2.44772 25.1462 3V3.5578C25.1462 4.03821 24.8046 4.45074 24.3326 4.54028C24.0653 4.59097 23.8122 4.71835 23.6056 4.92557L23.6046 4.92652L16.6944 11.8367L15.9562 14.5562L18.6793 13.8199L23.4391 9.06005C23.7251 8.77405 24.1552 8.6885 24.5289 8.84328C24.9026 8.99806 25.1462 9.3627 25.1462 9.76716V21.2005C25.1462 21.7528 24.6985 22.2005 24.1462 22.2005H11.919L3.50007 27.0621C3.19067 27.2408 2.80946 27.2408 2.50004 27.0622C2.19061 26.8836 2 26.5534 2 26.1962V3ZM5.98218 9.25098C5.98218 8.69869 6.42989 8.25098 6.98218 8.25098H16.8356C17.3879 8.25098 17.8356 8.69869 17.8356 9.25098C17.8356 9.80326 17.3879 10.251 16.8356 10.251H6.98218C6.42989 10.251 5.98218 9.80326 5.98218 9.25098ZM6.32574 15.9766C6.32574 15.4243 6.77346 14.9766 7.32574 14.9766H11.1708C11.7231 14.9766 12.1708 15.4243 12.1708 15.9766C12.1708 16.5288 11.7231 16.9766 11.1708 16.9766H7.32574C6.77346 16.9766 6.32574 16.5288 6.32574 15.9766Z" stroke="none"></path></svg>