<svg width="48" height="48" viewBox="0 0 28 28" fill="#e6007a" xmlns="http://www.w3.org/2000/svg" stroke-width="2" stroke-linecap="round" stroke-linejoin="round" stroke="#e6007a"><path fill-rule="evenodd" clip-rule="evenodd" d="M17.8779 4.07829C15.872 2.14317 12.6941 2.14318 10.6882 4.07829C8.70956 5.98699 8.56757 9.10922 10.3647 11.1896L11.273 12.241C11.3272 12.3038 11.309 12.4008 11.2356 12.4396L9.64619 13.28C6.17287 15.1164 4.00002 18.7232 4.00005 22.6521L4.00007 25.9998C4.00007 26.5521 4.44779 26.9998 5.00007 26.9998H23.5736C23.8388 26.9998 24.0931 26.8945 24.2807 26.7069C24.4682 26.5194 24.5736 26.2651 24.5736 25.9998L24.5735 22.657C24.5735 18.7254 22.3985 15.1165 18.9222 13.28L17.3308 12.4392C17.2574 12.4004 17.2392 12.3035 17.2934 12.2407L18.2014 11.1896C19.9985 9.10922 19.8565 5.98699 17.8779 4.07829Z" stroke="none"></path></svg>