<svg width="48" height="48" viewBox="0 0 28 28" fill="#e6007a" xmlns="http://www.w3.org/2000/svg" stroke-width="2" stroke-linecap="round" stroke-linejoin="round" stroke="#e6007a"><path fill-rule="evenodd" clip-rule="evenodd" d="M6.55818 6.82266C6.55819 3.60689 9.16508 1 12.3808 1C15.5966 1 18.2035 3.6069 18.2035 6.82268L18.2035 7.82568H21.7615C22.3138 7.82568 22.7615 8.2734 22.7615 8.82568V12.8543C25.4227 13.9606 27.294 16.5852 27.294 19.6469C27.294 23.7078 24.0019 26.9998 19.941 26.9998C17.2806 26.9998 14.9501 25.5869 13.6591 23.4704H3C2.44772 23.4704 2 23.0227 2 22.4704V8.82568C2 8.2734 2.44772 7.82568 3 7.82568H6.55817L6.55818 6.82267V6.82266ZM16.2035 6.82267L16.2035 7.82568H8.55817L8.55818 6.82268L7.55818 6.82267H8.55818C8.55818 4.71147 10.2696 3 12.3808 3C14.4921 3 16.2035 4.71147 16.2035 6.82267ZM19.941 14.2939C16.9847 14.2939 14.5881 16.6905 14.5881 19.6469C14.5881 22.6032 16.9847 24.9998 19.941 24.9998C22.8974 24.9998 25.294 22.6032 25.294 19.6469C25.294 16.6905 22.8974 14.2939 19.941 14.2939ZM19.063 17.1426C19.063 16.5903 19.5107 16.1426 20.063 16.1426C20.6153 16.1426 21.063 16.5903 21.063 17.1426V19.8528C21.063 20.0848 20.9823 20.3097 20.8347 20.4887L19.7717 21.7786C19.4205 22.2048 18.7902 22.2655 18.364 21.9143C17.9378 21.563 17.8771 20.9328 18.2283 20.5066L19.063 19.4938V17.1426Z" stroke="none"></path></svg>