<svg width="48" height="48" viewBox="0 0 28 28" fill="#e6007a" xmlns="http://www.w3.org/2000/svg" stroke-width="2" stroke-linecap="round" stroke-linejoin="round" stroke="#e6007a"><path fill-rule="evenodd" clip-rule="evenodd" d="M8.45055 2.49412C9.86533 1.55089 11.7623 1 13.8078 1C15.8533 1 17.7503 1.55089 19.1651 2.49412C20.5729 3.4327 21.5994 4.83912 21.5994 6.52773C21.5994 6.57737 21.5985 6.62676 21.5968 6.6759L21.5974 6.68613L21.5978 6.69309C21.6052 6.82292 21.6097 6.97961 21.6123 7.14695C21.6176 7.48359 21.6159 7.9009 21.6115 8.3108C21.606 8.82887 21.5967 9.31697 21.5903 9.65446C21.5862 9.87105 21.5832 10.0256 21.5832 10.0862C21.5832 11.7748 20.5567 13.1813 19.1489 14.1198C17.7341 15.0631 15.8371 15.614 13.7916 15.614C11.7461 15.614 9.84912 15.0631 8.43434 14.1198C7.02654 13.1813 6 11.7748 6 10.0862V6.65916C6 6.59707 6.00567 6.53627 6.01651 6.47727C6.03673 4.8111 7.05679 3.42334 8.45055 2.49412ZM13.8078 12.0555C13.7487 12.0555 13.6898 12.055 13.631 12.0541C11.6788 12.0283 9.87284 11.5002 8.50367 10.6101C8.33237 10.4988 8.16649 10.3806 8.00717 10.256C8.07126 11.0165 8.56656 11.8043 9.54378 12.4558C10.587 13.1513 12.0858 13.614 13.7916 13.614C15.4974 13.614 16.9962 13.1513 18.0394 12.4558C19.0125 11.807 19.5077 11.0233 19.5752 10.2658C19.4426 10.3689 19.3055 10.4675 19.1647 10.5614C17.7498 11.5046 15.8529 12.0555 13.8078 12.0555ZM9.39971 21.3154C9.00919 21.7059 9.00919 22.3391 9.39971 22.7296C9.79023 23.1201 10.4234 23.1201 10.8139 22.7296L12.8081 20.7354L12.8081 26.0001C12.8081 26.5524 13.2558 27.0001 13.8081 27.0001C14.3604 27.0001 14.8081 26.5524 14.8081 26.0001L14.8081 20.7355L16.8021 22.7296C17.1927 23.1201 17.8258 23.1201 18.2164 22.7296C18.6069 22.3391 18.6069 21.7059 18.2164 21.3154L14.5151 17.6142C14.3276 17.4266 14.0733 17.3213 13.808 17.3213C13.5428 17.3213 13.2885 17.4266 13.1009 17.6142L9.39971 21.3154Z" stroke="none"></path></svg>