<svg width="48" height="48" viewBox="0 0 28 28" fill="#e6007a" xmlns="http://www.w3.org/2000/svg" stroke-width="2" stroke-linecap="round" stroke-linejoin="round" stroke="#e6007a"><path fill-rule="evenodd" clip-rule="evenodd" d="M23.2282 19.4399C25.3113 19.4399 27 21.1286 27 23.2118C27 25.2949 25.3113 26.9836 23.2282 26.9836C21.1451 26.9836 19.4564 25.2949 19.4564 23.2118C19.4564 22.3414 19.7512 21.5399 20.2463 20.9017L18.226 17.9604C16.9661 18.6308 15.5281 19.0108 14.0013 19.0108C12.4801 19.0108 11.047 18.6336 9.79042 17.9677L7.74437 20.8897C8.24516 21.5299 8.54364 22.336 8.54364 23.2118C8.54364 25.2949 6.85494 26.9836 4.77182 26.9836C2.68871 26.9836 1.00001 25.2949 1.00001 23.2118C1.00001 21.1286 2.68871 19.4399 4.77182 19.4399C5.25408 19.4399 5.71519 19.5304 6.1391 19.6954L8.13799 16.8407C6.21441 15.1891 4.99593 12.7396 4.99593 10.0054C4.99593 5.03185 9.02778 0.999999 14.0013 0.999999C18.9749 1 23.0067 5.03185 23.0067 10.0054C23.0067 12.734 21.7932 15.1792 19.8764 16.8306L21.8477 19.7006C22.2752 19.5323 22.7409 19.4399 23.2282 19.4399ZM11.715 9.739C11.3244 9.34848 10.6913 9.34849 10.3008 9.73902C9.91024 10.1295 9.91025 10.7627 10.3008 11.1532L13.2942 14.1466C13.6847 14.5371 14.3179 14.5371 14.7084 14.1466L17.7017 11.1532C18.0922 10.7627 18.0922 10.1295 17.7017 9.73901C17.3112 9.34848 16.678 9.34849 16.2875 9.73901L15.0013 11.0252L15.0013 6.57417C15.0013 6.02188 14.5536 5.57417 14.0013 5.57417C13.449 5.57417 13.0013 6.02188 13.0013 6.57417L13.0013 11.0253L11.715 9.739Z" stroke="none"></path></svg>