<svg width="48" height="48" viewBox="0 0 28 28" fill="#e6007a" xmlns="http://www.w3.org/2000/svg" stroke-width="2" stroke-linecap="round" stroke-linejoin="round" stroke="#e6007a"><path fill-rule="evenodd" clip-rule="evenodd" d="M5.2272 6.68938C5.41474 6.50184 5.6691 6.39648 5.93432 6.39648L26 6.39651C26.2652 6.39651 26.5196 6.50189 26.7071 6.68945C26.8946 6.87701 27 7.1314 27 7.39664L26.9986 18.0196C26.9986 18.5718 26.5509 19.0195 25.9986 19.0195H23.0647L23.0643 22.3476C23.0643 22.8998 22.6166 23.3475 22.0643 23.3475L19.5574 23.3475C19.2242 23.3475 18.9129 23.1815 18.7272 22.9048L18.7143 22.8867C18.7008 22.8677 18.6779 22.8363 18.6457 22.7942C18.5811 22.7098 18.4796 22.5831 18.3413 22.428C18.064 22.117 17.6432 21.6968 17.0812 21.2759C15.9601 20.4361 14.293 19.6035 12.0684 19.6035C9.84278 19.6035 8.15606 20.4369 7.01456 21.2799C6.44284 21.7021 6.01267 22.1237 5.72842 22.4358C5.58664 22.5915 5.48225 22.7188 5.41575 22.8036C5.38253 22.846 5.35886 22.8776 5.34481 22.8968L5.33098 22.9159C5.14431 23.1864 4.83687 23.3475 4.5082 23.3475L2.00007 23.3475C1.44779 23.3475 1.00008 22.8997 1.00008 22.3475L1 11.3311C1 11.0658 1.10535 10.8115 1.29289 10.624C1.48043 10.4364 1.73478 10.3311 2 10.3311L4.93438 10.3311L4.93432 7.3965C4.93431 7.13128 5.03967 6.87693 5.2272 6.68938ZM23.065 17.0195L23.0656 11.3312C23.0657 11.066 22.9603 10.8116 22.7728 10.624C22.5852 10.4365 22.3309 10.3311 22.0656 10.3311L6.93438 10.3311L6.93434 8.39649L24.9998 8.39651L24.9988 17.0195H23.065Z" stroke="none"></path></svg>