<svg width="48" height="48" viewBox="0 0 28 28" fill="#e6007a" xmlns="http://www.w3.org/2000/svg" stroke-width="2" stroke-linecap="round" stroke-linejoin="round" stroke="#e6007a"><path fill-rule="evenodd" clip-rule="evenodd" d="M3 7.39648C2.73478 7.39648 2.48043 7.50184 2.29289 7.68938C2.10535 7.87692 2 8.13127 2 8.39649L2.00008 20.3965C2.00009 20.9488 2.4478 21.3965 3.00008 21.3965L5.74999 21.3965C6.07721 21.3965 6.38368 21.2364 6.57063 20.9679L6.57024 20.9685L6.56973 20.9692C6.56973 20.9692 6.57039 20.9683 6.57172 20.9664L6.58767 20.9445C6.60362 20.9229 6.63016 20.8877 6.66721 20.8407C6.74138 20.7467 6.85728 20.6064 7.01438 20.435C7.32929 20.0914 7.80543 19.6279 8.43821 19.1636C9.70173 18.2366 11.5715 17.3182 14.039 17.3182C16.5055 17.3182 18.3539 18.2358 19.5954 19.1596C20.2176 19.6226 20.6835 20.0848 20.9908 20.4272C21.1441 20.598 21.2568 20.7378 21.3288 20.8313C21.3648 20.878 21.3905 20.913 21.4058 20.9344L21.4211 20.956L21.4218 20.9568L21.4218 20.9569L21.4218 20.9569C21.6078 21.2317 21.918 21.3965 22.25 21.3965L24.9986 21.3965C25.5508 21.3965 25.9985 20.9488 25.9986 20.3966L26 8.39664C26 8.1314 25.8947 7.87701 25.7071 7.68945C25.5196 7.50189 25.2652 7.39652 25 7.39652L3 7.39648ZM6.57063 20.9679L6.57087 20.9676L6.57128 20.967C6.57106 20.9673 6.57084 20.9676 6.57063 20.9679Z" stroke="none"></path></svg>