<svg width="48" height="48" viewBox="0 0 28 28" fill="#e6007a" xmlns="http://www.w3.org/2000/svg" stroke-width="2" stroke-linecap="round" stroke-linejoin="round" stroke="#e6007a"><path fill-rule="evenodd" clip-rule="evenodd" d="M11.5568 1.33254C11.2414 0.980711 10.7228 0.897646 10.3133 1.13338L4.77558 4.32118C4.37137 4.55387 4.18168 5.03508 4.31841 5.481L5.26046 8.55326L4.93792 9.11669L1.79478 9.77574C1.33166 9.87284 1 10.2813 1 10.7545V17.1493C1 17.6161 1.32291 18.0208 1.77804 18.1244L4.90709 18.8367L5.23474 19.4019L4.23729 22.4534C4.09039 22.9028 4.27832 23.3937 4.68777 23.6301L10.2255 26.8275C10.6302 27.0612 11.1429 26.9834 11.46 26.6401L13.6189 24.3034H14.3058L16.4349 26.669C16.7505 27.0197 17.2682 27.1021 17.6771 26.8667L23.2148 23.6789C23.6197 23.4458 23.8092 22.9634 23.6713 22.517L22.7067 19.3951L22.8394 18.9965L26.1501 18.4277C26.63 18.3452 26.9807 17.929 26.9807 17.4421V10.8508C26.9807 10.3844 26.6583 9.97988 26.2036 9.87592L23.1332 9.17386L22.7734 8.54967L23.7445 5.54339C23.8895 5.09451 23.7011 4.60535 23.2925 4.36971L17.7644 1.18191C17.3609 0.949244 16.8503 1.02593 16.5329 1.36682L14.364 3.69667H13.6761L11.5568 1.33254ZM13.9936 9.19385C13.5575 9.19436 13.1394 9.3678 12.8311 9.67617C12.5222 9.985 12.3487 10.4039 12.3487 10.8406V11.9866H15.632V10.8406C15.632 10.405 15.4594 9.98705 15.152 9.67841C14.845 9.37021 14.4285 9.19604 13.9936 9.19385ZM17.632 11.9866V10.8406C17.632 9.87587 17.2498 8.95043 16.5689 8.26693C15.8881 7.58344 14.9641 7.19757 13.9994 7.19385H13.9955C13.0283 7.19385 12.1008 7.57806 11.4168 8.26196C10.7329 8.94586 10.3487 9.87343 10.3487 10.8406V11.9866H9.775C9.22272 11.9866 8.775 12.4344 8.775 12.9866V18.3108C8.775 18.8631 9.22272 19.3108 9.775 19.3108H18.216C18.7683 19.3108 19.216 18.8631 19.216 18.3108V12.9866C19.216 12.4344 18.7683 11.9866 18.216 11.9866H17.632ZM10.775 17.3108V13.9866H17.216V17.3108H10.775Z" stroke="none"></path></svg>