<svg width="48" height="48" viewBox="0 0 29 29" fill="#e6007a" xmlns="http://www.w3.org/2000/svg" stroke-width="2" stroke-linecap="round" stroke-linejoin="round" stroke="#e6007a"><path fill-rule="evenodd" clip-rule="evenodd" d="M15.5099 2.09714C15.2379 1.96762 14.922 1.96762 14.65 2.09714L12.5968 3.07485C12.0982 3.3123 11.8865 3.90901 12.1239 4.40765C12.3614 4.90628 12.9581 5.11802 13.4567 4.88058L15.08 4.10759L16.7032 4.88058C17.2019 5.11802 17.7986 4.90628 18.036 4.40765C18.2735 3.90901 18.0617 3.3123 17.5631 3.07485L15.5099 2.09714ZM7.68819 7.62749C8.18682 7.39004 8.39856 6.79333 8.16111 6.2947C7.92367 5.79606 7.32696 5.58432 6.82832 5.82177L4.38403 6.98572C4.03579 7.15155 3.81396 7.50287 3.81396 7.88858C3.81396 8.27429 4.03579 8.62561 4.38403 8.79144L6.82832 9.95538C7.32696 10.1928 7.92367 9.98109 8.16111 9.48246C8.39856 8.98382 8.18682 8.38711 7.68819 8.14966L7.13991 7.88858L7.68819 7.62749ZM23.3316 5.82177C22.833 5.58432 22.2363 5.79606 21.9988 6.2947C21.7614 6.79333 21.9731 7.39004 22.4718 7.62749L23.02 7.88858L22.4718 8.14966C21.9731 8.38711 21.7614 8.98382 21.9988 9.48246C22.2363 9.98109 22.833 10.1928 23.3316 9.95538L25.7759 8.79144C26.1242 8.62561 26.346 8.27429 26.346 7.88858C26.346 7.50287 26.1242 7.15155 25.7759 6.98572L23.3316 5.82177ZM13.4567 10.8966C12.9581 10.6591 12.3614 10.8709 12.1239 11.3695C11.8865 11.8681 12.0982 12.4649 12.5968 12.7023L14.65 13.68C14.922 13.8095 15.2379 13.8095 15.5099 13.68L17.5631 12.7023C18.0617 12.4649 18.2735 11.8681 18.036 11.3695C17.7986 10.8709 17.2019 10.6591 16.7032 10.8966L15.08 11.6696L13.4567 10.8966ZM3.47024 11.2148C3.76275 11.0321 4.12877 11.0131 4.4387 11.1644L13.5042 15.59C13.8476 15.7576 14.0655 16.1064 14.0655 16.4886V26.9998C14.0655 27.3447 13.8877 27.6652 13.5952 27.8479C13.3027 28.0306 12.9367 28.0497 12.6268 27.8984L3.56129 23.4727C3.21784 23.305 3 22.9563 3 22.5741V12.063C3 11.7181 3.17772 11.3976 3.47024 11.2148ZM26.6897 11.2148C26.3972 11.0321 26.0312 11.0131 25.7213 11.1644L16.6558 15.59C16.3124 15.7576 16.0945 16.1064 16.0945 16.4886V26.9998C16.0945 27.3447 16.2722 27.6652 16.5648 27.8479C16.8573 28.0306 17.2233 28.0497 17.5332 27.8984L26.5987 23.4727C26.9421 23.305 27.16 22.9563 27.16 22.5741V12.063C27.16 11.7181 26.9823 11.3976 26.6897 11.2148Z" stroke="none"></path></svg>