<svg width="48" height="48" viewBox="0 0 28 28" fill="#e6007a" xmlns="http://www.w3.org/2000/svg" stroke-width="2" stroke-linecap="round" stroke-linejoin="round" stroke="#e6007a"><path fill-rule="evenodd" clip-rule="evenodd" d="M14 3C12.3433 3 11 4.34328 11 6H17C17 4.34328 15.6567 3 14 3ZM19.3523 8H20C20.5523 8 21 7.55228 21 7C21 6.44772 20.5523 6 20 6H19C19 3.23872 16.7613 1 14 1C11.2387 1 9 3.23872 9 6H8C7.44772 6 7 6.44772 7 7C7 7.55228 7.44772 8 8 8H8.63859C8.26587 9.43149 8.46866 10.9877 9.27732 12.2969C9.41951 12.527 9.58042 12.7496 9.76023 12.9625L10.6002 13.9565C10.6895 14.0623 10.6394 14.2256 10.5046 14.2626L9.27165 14.6006C5.56729 15.6156 2.99902 18.9814 2.99902 22.823V26C2.99902 26.5523 3.44674 27 3.99902 27H24C24.5523 27 25 26.5523 25 26V22.828C25 18.9844 22.4294 15.6154 18.7218 14.6004L17.4863 14.2626C17.3515 14.2255 17.3015 14.0621 17.3909 13.9564L18.2308 12.9625C19.4337 11.5392 19.7908 9.68353 19.3523 8Z" stroke="none"></path></svg>