<svg width="48" height="48" viewBox="0 0 28 28" fill="#e6007a" xmlns="http://www.w3.org/2000/svg" stroke-width="2" stroke-linecap="round" stroke-linejoin="round" stroke="#e6007a"><path fill-rule="evenodd" clip-rule="evenodd" d="M14.3192 4.74019C14.2073 4.32405 13.8413 4.02644 13.4111 4.00167C12.9808 3.97689 12.5831 4.23053 12.4241 4.63107L10.2699 10.0579L9.29948 8.49294C9.0859 8.14852 8.68556 7.96706 8.28576 8.03346C7.88597 8.09986 7.56565 8.40158 7.47489 8.79655L7.46955 8.81992L7.45444 8.88658C7.44131 8.94475 7.42223 9.02985 7.39815 9.13877C7.34999 9.35659 7.28179 9.66985 7.20118 10.0536C7.04007 10.8204 6.82877 11.8716 6.62864 13.0063C6.42887 14.1391 6.23823 15.3663 6.12055 16.4824C6.00548 17.5737 5.94988 18.6449 6.05876 19.4241C6.59958 23.2943 9.63179 26 13.3536 26C15.6288 26 17.4522 25.4093 18.7637 24.2065C20.0717 23.007 20.7378 21.3205 20.9471 19.3937C21.1201 17.8017 20.8374 15.938 20.5395 14.5351C20.3878 13.8206 20.2262 13.1996 20.1025 12.7564C20.0405 12.5346 19.9878 12.3565 19.9501 12.2326C19.9313 12.1707 19.9162 12.1223 19.9057 12.0887L19.8933 12.0495L19.8897 12.0386L19.8887 12.0353L19.8881 12.0335C19.7645 11.6525 19.4253 11.382 19.0263 11.3462C18.6273 11.3104 18.2455 11.5162 18.0559 11.8691L16.8444 14.1253L14.3192 4.74019ZM18.9369 12.3422C19.8881 12.0335 19.8881 12.0334 19.8881 12.0335L18.9369 12.3422ZM8.44959 9.01993L7.47489 8.79655C7.47491 8.79644 7.47502 8.79597 8.44959 9.01993Z" stroke="none"></path></svg>