<svg width="48" height="48" viewBox="0 0 28 28" fill="#e6007a" xmlns="http://www.w3.org/2000/svg" stroke-width="2" stroke-linecap="round" stroke-linejoin="round" stroke="#e6007a"><path fill-rule="evenodd" clip-rule="evenodd" d="M13.6297 1.10557C13.9112 0.964809 14.2426 0.964809 14.5241 1.10557L25.6011 6.64403C25.9398 6.81343 26.1538 7.15969 26.1538 7.53846V20.4615C26.1538 20.8403 25.9398 21.1866 25.6011 21.356L14.5241 26.8944C14.2426 27.0352 13.9112 27.0352 13.6297 26.8944L2.55279 21.356C2.214 21.1866 2 20.8403 2 20.4615V7.53846C2 7.15969 2.214 6.81343 2.55279 6.64403L13.6297 1.10557ZM12.9291 9.61661C13.6509 9.64356 14.3555 9.8298 14.9875 10.1591C15.4772 10.4142 16.0812 10.2239 16.3365 9.73413C16.5918 9.24432 16.4018 8.64042 15.912 8.38529C15.0152 7.91805 14.0206 7.6561 13.0053 7.61806C11.9944 7.57864 10.9867 7.76085 10.0586 8.15246C9.13007 8.54424 8.30399 9.13608 7.64556 9.88592C6.98696 10.6359 6.51393 11.5239 6.26582 12.4828C6.01768 13.4418 6.00191 14.4435 6.21952 15.4102C6.43709 16.3767 6.88153 17.2799 7.51547 18.0517C8.14926 18.8234 8.95548 19.4432 9.87047 19.8668C10.7854 20.2903 11.7868 20.5075 12.7987 20.5032C13.8107 20.4989 14.8094 20.2731 15.7188 19.8411C16.2177 19.6041 16.4302 19.0076 16.1934 18.5088C15.9566 18.0099 15.3601 17.7977 14.8612 18.0346C14.22 18.3392 13.5117 18.5002 12.7909 18.5032C12.07 18.5063 11.3585 18.3514 10.7113 18.0518C10.0642 17.7522 9.50049 17.3169 9.06119 16.782C8.62205 16.2474 8.31864 15.6274 8.17073 14.9703C8.02286 14.3134 8.03365 13.6341 8.20208 12.9831C8.37054 12.332 8.69307 11.7236 9.14824 11.2052C9.60357 10.6867 10.18 10.2717 10.8356 9.99506C11.4913 9.7184 12.2069 9.58835 12.9273 9.61654L12.9291 9.61661ZM13.0053 7.61806L13.0062 7.6181L12.9668 8.61718L13.0045 7.61803L13.0053 7.61806ZM13.0289 13.0481H13.526V12.5581C13.526 12.0058 13.9737 11.5581 14.526 11.5581C15.0783 11.5581 15.526 12.0058 15.526 12.5581V13.0481H16.023C16.5752 13.0481 17.023 13.4959 17.023 14.0481C17.023 14.6004 16.5752 15.0481 16.023 15.0481H15.526V15.5389C15.526 16.0912 15.0783 16.5389 14.526 16.5389C13.9737 16.5389 13.526 16.0912 13.526 15.5389V15.0481H13.0289C12.4766 15.0481 12.0289 14.6004 12.0289 14.0481C12.0289 13.4959 12.4766 13.0481 13.0289 13.0481ZM19.1739 13.0481H19.6711V12.5581C19.6711 12.0058 20.1188 11.5581 20.6711 11.5581C21.2234 11.5581 21.6711 12.0058 21.6711 12.5581V13.0481H22.168C22.7203 13.0481 23.168 13.4959 23.168 14.0481C23.168 14.6004 22.7203 15.0481 22.168 15.0481H21.6711V15.5389C21.6711 16.0912 21.2234 16.5389 20.6711 16.5389C20.1188 16.5389 19.6711 16.0912 19.6711 15.5389V15.0481H19.1739C18.6216 15.0481 18.1739 14.6004 18.1739 14.0481C18.1739 13.4959 18.6216 13.0481 19.1739 13.0481Z" stroke="none"></path></svg>