<svg width="48" height="48" viewBox="0 0 28 28" fill="#e6007a" xmlns="http://www.w3.org/2000/svg" stroke-width="2" stroke-linecap="round" stroke-linejoin="round" stroke="#e6007a"><path fill-rule="evenodd" clip-rule="evenodd" d="M9.42334 1C9.97563 1 10.4233 1.44772 10.4233 2V2.88477H17.5764V6.34177C17.5764 6.89405 18.0241 7.34177 18.5764 7.34177C19.1287 7.34177 19.5764 6.89405 19.5764 6.34177V2.88477H26C26.5523 2.88477 27 3.33248 27 3.88477V10H1V3.88477C1 3.33248 1.44772 2.88477 2 2.88477H8.42334V2C8.42334 1.44772 8.87106 1 9.42334 1ZM1 12V26.0002C1 26.5525 1.44772 27.0002 2 27.0002H26C26.5523 27.0002 27 26.5525 27 26.0002V12H1ZM19.5764 2V2.88184H17.5764V2C17.5764 1.44772 18.0241 1 18.5764 1C19.1287 1 19.5764 1.44772 19.5764 2ZM9.42334 7.34156C9.97562 7.34156 10.4233 6.89384 10.4233 6.34156V2.89014H8.42334V6.34156C8.42334 6.89384 8.87106 7.34156 9.42334 7.34156Z" stroke="none"></path></svg>