<svg width="48" height="48" viewBox="0 0 29 29" fill="#e6007a" xmlns="http://www.w3.org/2000/svg" stroke-width="2" stroke-linecap="round" stroke-linejoin="round" stroke="#e6007a"><path fill-rule="evenodd" clip-rule="evenodd" d="M10.3813 2C9.829 2 9.38129 2.44772 9.38129 3V6.62793H3C2.44772 6.62793 2 7.07564 2 7.62793V13.3442H28V7.62793C28 7.07564 27.5523 6.62793 27 6.62793H20.6192V3C20.6192 2.44772 20.1714 2 19.6192 2H10.3813ZM28 15.3442H2V24.2376C2 24.7899 2.44772 25.2376 3 25.2376H27C27.5523 25.2376 28 24.7899 28 24.2376V15.3442ZM11.3813 6.62793H18.6192V4H11.3813V6.62793Z" stroke="none"></path></svg>