<svg width="48" height="48" viewBox="0 0 28 28" fill="#e6007a" xmlns="http://www.w3.org/2000/svg" stroke-width="2" stroke-linecap="round" stroke-linejoin="round" stroke="#e6007a"><path fill-rule="evenodd" clip-rule="evenodd" d="M24.9559 26.7227C24.9559 27.2749 24.5082 27.7227 23.9559 27.7227H4.38208C3.82979 27.7227 3.38208 27.2749 3.38208 26.7227V1.27665C3.38208 0.724361 3.82979 0.276646 4.38208 0.276646H23.9559C24.5082 0.276646 24.9559 0.724361 24.9559 1.27665V26.7227ZM13.89 4C13.6248 4 13.3705 4.10535 13.1829 4.29289C12.9954 4.48042 12.89 4.73478 12.89 5V14.3606C12.89 14.6966 13.0588 15.0102 13.3392 15.1953C13.6197 15.3803 13.9743 15.4122 14.2833 15.2801L16.9656 14.1328L19.6498 15.274C19.9587 15.4053 20.3128 15.3729 20.5928 15.1878C20.8727 15.0026 21.0411 14.6894 21.0411 14.3537V5.00011C21.0411 4.44783 20.5934 4.00012 20.0411 4.00011L13.89 4ZM14.89 12.8453V6.00002L19.0411 6.00009V12.842L17.3556 12.1254C17.1049 12.0189 16.8216 12.0192 16.5711 12.1263L14.89 12.8453ZM8.29675 21.8081C7.74447 21.8081 7.29675 22.2558 7.29675 22.8081C7.29675 23.3604 7.74447 23.8081 8.29675 23.8081H20.0411C20.5934 23.8081 21.0411 23.3604 21.0411 22.8081C21.0411 22.2558 20.5934 21.8081 20.0411 21.8081H8.29675ZM7.29675 18.8931C7.29675 19.4454 7.74447 19.8931 8.29675 19.8931H20.0411C20.5934 19.8931 21.0411 19.4454 21.0411 18.8931C21.0411 18.3408 20.5934 17.8931 20.0411 17.8931H8.29675C7.74447 17.8931 7.29675 18.3408 7.29675 18.8931Z" stroke="none"></path></svg>