<svg width="48" height="48" viewBox="0 0 28 28" fill="#e6007a" xmlns="http://www.w3.org/2000/svg" stroke-width="2" stroke-linecap="round" stroke-linejoin="round" stroke="#e6007a"><path fill-rule="evenodd" clip-rule="evenodd" d="M14.0019 0.75C11.9198 0.75 10.2323 2.43824 10.2323 4.52028C10.2323 6.25585 11.4049 7.71778 13.0012 8.15627V9.827C11.4827 10.1383 10.2177 11.145 9.55313 12.4997L8.53206 12.1414C8.53679 12.0641 8.53919 11.9862 8.53919 11.9076C8.53919 9.82561 6.85172 8.13736 4.7696 8.13736C2.68747 8.13736 1 9.82561 1 11.9076C1 13.9897 2.68747 15.6779 4.7696 15.6779C6.0632 15.6779 7.20447 15.0262 7.88336 14.0333L9.05498 14.4444C9.05138 14.5219 9.04956 14.5998 9.04956 14.6781C9.04956 15.8857 9.48173 16.9924 10.1999 17.8518L8.66113 19.3905C8.28795 19.2668 7.8889 19.1998 7.47419 19.1998C5.39207 19.1998 3.70459 20.888 3.70459 22.9701C3.70459 25.0521 5.39207 26.7403 7.47419 26.7403C9.55631 26.7403 11.2438 25.0521 11.2438 22.9701C11.2438 22.0401 10.9071 21.1886 10.3489 20.5311L11.7765 19.1036C12.4452 19.4404 13.2008 19.6301 14.0006 19.6301C14.7808 19.6301 15.5188 19.4497 16.1752 19.1282L17.5838 20.5367C17.0236 21.1948 16.6855 22.0478 16.6855 22.9797C16.6855 25.0618 18.373 26.75 20.4551 26.75C22.5372 26.75 24.2247 25.0618 24.2247 22.9797C24.2247 20.8977 22.5372 19.2094 20.4551 19.2094C20.0425 19.2094 19.6454 19.2757 19.2738 19.3983L17.7675 17.892C18.5059 17.027 18.9517 15.9046 18.9517 14.6781C18.9517 14.5954 18.9497 14.5132 18.9457 14.4315L20.1164 14.0288C20.7949 15.0243 21.9377 15.6779 23.2332 15.6779C25.3154 15.6779 27.0028 13.9897 27.0028 11.9076C27.0028 9.82561 25.3154 8.13736 23.2332 8.13736C21.1511 8.13736 19.4636 9.82561 19.4636 11.9076C19.4636 11.9843 19.4659 12.0605 19.4704 12.136L18.4431 12.4894C17.7774 11.1402 16.5154 10.1381 15.0012 9.82725V8.15665C16.5982 7.71862 17.7715 6.25635 17.7715 4.52028C17.7715 2.43824 16.084 0.75 14.0019 0.75Z" stroke="none"></path></svg>