<svg width="48" height="48" viewBox="0 0 28 28" fill="#e6007a" xmlns="http://www.w3.org/2000/svg" stroke-width="2" stroke-linecap="round" stroke-linejoin="round" stroke="#e6007a"><path fill-rule="evenodd" clip-rule="evenodd" d="M19.536 1.29289L26.1588 7.91569C26.5493 8.30621 26.5493 8.93938 26.1588 9.3299L19.5054 15.9833C19.1148 16.3739 18.4817 16.3739 18.0911 15.9833L15.4653 13.3575L13.3471 15.4757L11.9329 14.0615L14.0513 11.9432L15.4654 13.3573L18.7012 10.1215C19.0917 9.73099 19.0917 9.09783 18.7012 8.7073C18.3106 8.31678 17.6775 8.31678 17.2869 8.7073L14.051 11.9432L11.4683 9.36054C11.0778 8.97002 11.0778 8.33685 11.4683 7.94633L18.1218 1.29289C18.5123 0.902369 19.1455 0.902369 19.536 1.29289ZM8.71307 17.2812L11.9321 14.0621L9.32308 11.453C8.93256 11.0625 8.2994 11.0625 7.90887 11.453L1.29288 18.069C0.902353 18.4596 0.902354 19.0927 1.29288 19.4833L7.91568 26.1061C8.3062 26.4966 8.93936 26.4966 9.32989 26.1061L15.9459 19.4901C16.3364 19.0995 16.3364 18.4664 15.9459 18.0758L13.3464 15.4763L10.1273 18.6954C9.73676 19.0859 9.1036 19.0859 8.71307 18.6954C8.32255 18.3049 8.32255 17.6717 8.71307 17.2812Z" stroke="none"></path></svg>