<svg width="48" height="48" viewBox="0 0 28 28" fill="#e6007a" xmlns="http://www.w3.org/2000/svg" stroke-width="2" stroke-linecap="round" stroke-linejoin="round" stroke="#e6007a"><path fill-rule="evenodd" clip-rule="evenodd" d="M5 1H16V8.46155C16 9.01384 16.4477 9.46155 17 9.46155H24.4615V26C24.4615 26.5523 24.0138 27 23.4615 27H5C4.44772 27 4 26.5523 4 26V2C4 1.44772 4.44772 1 5 1ZM18 7.46155H23.8758L18 1.58579V7.46155ZM15.2065 11.4595C15.2065 10.9072 14.7588 10.4595 14.2065 10.4595C13.6542 10.4595 13.2065 10.9072 13.2065 11.4595V11.8118C13.0028 11.8441 12.8031 11.8999 12.6113 11.9781C12.2822 12.1125 11.9829 12.3106 11.7306 12.5611C11.4784 12.8116 11.2782 13.1095 11.1416 13.4377C11.005 13.7659 10.9346 14.1179 10.9346 14.4734L10.9347 14.4803C10.9396 15.195 11.227 15.8787 11.7341 16.3823C12.2411 16.8859 12.9268 17.1685 13.6415 17.1685H14.8186C15.0052 17.1685 15.1843 17.2423 15.3167 17.3738C15.4491 17.5053 15.5242 17.6838 15.5254 17.8704C15.5255 17.882 15.5258 17.8937 15.5263 17.9053C15.5303 18.0022 15.5144 18.0989 15.4795 18.1894C15.4445 18.2799 15.3913 18.3622 15.3232 18.4313C15.2551 18.5003 15.1735 18.5546 15.0835 18.5908C14.9934 18.6269 14.8969 18.6441 14.8 18.6414C14.7905 18.6411 14.781 18.641 14.7715 18.641H12.2996C11.7473 18.641 11.2996 19.0887 11.2996 19.641C11.2996 20.1933 11.7473 20.641 12.2996 20.641H13.2065V20.9712C13.2065 21.5235 13.6542 21.9712 14.2065 21.9712C14.7588 21.9712 15.2065 21.5235 15.2065 20.9712V20.6139C15.4192 20.5833 15.6281 20.5273 15.8286 20.4468C16.1734 20.3083 16.4859 20.1005 16.7468 19.836C17.0077 19.5716 17.2114 19.2564 17.3452 18.9098C17.4769 18.5687 17.5381 18.2045 17.5252 17.8392C17.5158 17.1308 17.229 16.4542 16.726 15.9547C16.2189 15.4511 15.5332 15.1685 14.8186 15.1685H13.6415C13.4548 15.1685 13.2758 15.0947 13.1434 14.9632C13.0118 14.8325 12.9368 14.6553 12.9347 14.47C12.9351 14.3795 12.9532 14.2899 12.988 14.2063C13.0233 14.1216 13.0749 14.0448 13.1399 13.9802C13.205 13.9156 13.2822 13.8645 13.3671 13.8299C13.452 13.7952 13.5429 13.7777 13.6345 13.7784H15.9251C16.4774 13.7784 16.9251 13.3306 16.9251 12.7784C16.9251 12.2261 16.4774 11.7784 15.9251 11.7784H15.2065V11.4595Z" stroke="none"></path></svg>