<svg width="48" height="48" viewBox="0 0 28 28" fill="#e6007a" xmlns="http://www.w3.org/2000/svg" stroke-width="2" stroke-linecap="round" stroke-linejoin="round" stroke="#e6007a"><path fill-rule="evenodd" clip-rule="evenodd" d="M8.74181 7.97323C9.09558 8.39733 9.03857 9.02793 8.61447 9.3817L3.56596 13.593L8.61371 17.7953C9.03816 18.1486 9.0958 18.7791 8.74244 19.2036C8.38909 19.6281 7.75855 19.6857 7.3341 19.3323L1.3641 14.3623C1.13602 14.1725 1.00405 13.8911 1.00391 13.5943C1.00376 13.2975 1.13544 13.016 1.36334 12.8259L7.33334 7.84589C7.75744 7.49212 8.38804 7.54913 8.74181 7.97323Z" stroke="none"></path><path fill-rule="evenodd" clip-rule="evenodd" d="M19.3054 7.96397C19.6589 7.53964 20.2895 7.48221 20.7138 7.8357L26.7038 12.8257C26.932 13.0158 27.0639 13.2975 27.0638 13.5945C27.0636 13.8915 26.9314 14.1731 26.7031 14.363L20.7131 19.343C20.2884 19.6961 19.6579 19.638 19.3048 19.2133C18.9517 18.7886 19.0098 18.1581 19.4345 17.8051L24.5005 13.5933L19.4337 9.37236C19.0094 9.01886 18.9519 8.38831 19.3054 7.96397Z" stroke="none"></path><path fill-rule="evenodd" clip-rule="evenodd" d="M17.3676 3.6457C17.891 3.82174 18.1727 4.38881 17.9966 4.91229L11.9466 22.9023C11.7706 23.4258 11.2035 23.7074 10.6801 23.5314C10.1566 23.3553 9.87493 22.7883 10.051 22.2648L16.101 4.27478C16.277 3.7513 16.8441 3.46965 17.3676 3.6457Z" stroke="none"></path></svg>