<svg width="48" height="48" viewBox="0 0 29 29" fill="#e6007a" xmlns="http://www.w3.org/2000/svg" stroke-width="2" stroke-linecap="round" stroke-linejoin="round" stroke="#e6007a"><path fill-rule="evenodd" clip-rule="evenodd" d="M21.9041 3.77094C22.2576 3.34661 22.2002 2.71605 21.7758 2.36256C21.3515 2.00906 20.7209 2.06649 20.3675 2.49083L14.5533 9.47016L8.75139 2.49158C8.39832 2.0669 7.76782 2.00885 7.34313 2.36193C6.91845 2.715 6.8604 3.3455 7.21348 3.77018L13.7836 11.6727C13.9734 11.9011 14.255 12.0333 14.552 12.0334C14.849 12.0336 15.1307 11.9017 15.3208 11.6735L21.9041 3.77094ZM20.3684 26.5504C20.7221 26.9745 21.3527 27.0315 21.7768 26.6778C22.2009 26.324 22.2579 25.6934 21.9042 25.2693L15.3341 17.3931C15.144 17.1652 14.8625 17.0335 14.5657 17.0337C14.2689 17.0338 13.9875 17.1658 13.7977 17.3939L7.24077 25.2701C6.88742 25.6945 6.94505 26.325 7.3695 26.6784C7.79396 27.0318 8.42449 26.9741 8.77785 26.5497L14.567 19.5957L20.3684 26.5504Z" stroke="none"></path></svg>