<svg width="48" height="48" viewBox="0 0 28 28" fill="#e6007a" xmlns="http://www.w3.org/2000/svg" stroke-width="2" stroke-linecap="round" stroke-linejoin="round" stroke="#e6007a"><path fill-rule="evenodd" clip-rule="evenodd" d="M10.3816 4.81338C12.8045 3.83401 15.5323 3.83393 17.9554 4.81338C17.3824 6.35143 17.7141 8.15002 18.9505 9.38647C20.187 10.6229 21.9855 10.9546 23.5236 10.3816C24.503 12.8046 24.503 15.5324 23.5236 17.9554C21.9855 17.3824 20.187 17.7141 18.9505 18.9505C17.7141 20.1869 17.3824 21.9855 17.9554 23.5236C15.5325 24.5029 12.8047 24.503 10.3818 23.5236C10.955 21.9855 10.6233 20.1868 9.3868 18.9503C8.15026 17.7137 6.3515 17.3821 4.81337 17.9553C3.83401 15.5324 3.834 12.8046 4.81339 10.3816C6.35144 10.9546 8.15002 10.6229 9.38647 9.38647C10.6229 8.15002 10.9546 6.35144 10.3816 4.81338ZM19.0982 25.2106C15.9684 26.6072 12.3686 26.6073 9.23883 25.2107C7.54072 26.7578 4.90893 26.7107 3.26765 25.0694C1.62638 23.4282 1.57928 20.7964 3.12636 19.0983C1.72969 15.9684 1.72969 12.3686 3.1263 9.23876C1.57895 7.54066 1.62595 4.90868 3.26732 3.26732C4.90868 1.62596 7.54064 1.57895 9.23875 3.12629C12.3686 1.72962 15.9685 1.72972 19.0982 3.12629C20.7963 1.57895 23.4283 1.62595 25.0697 3.26732C26.711 4.90868 26.758 7.54066 25.2107 9.23876C26.6073 12.3685 26.6073 15.9684 25.2107 19.0982C26.758 20.7963 26.711 23.4283 25.0697 25.0696C23.4283 26.711 20.7963 26.758 19.0982 25.2106Z" stroke="none"></path></svg>