<svg width="48" height="48" viewBox="0 0 28 28" fill="#e6007a" xmlns="http://www.w3.org/2000/svg" stroke-width="2" stroke-linecap="round" stroke-linejoin="round" stroke="#e6007a"><path fill-rule="evenodd" clip-rule="evenodd" d="M13.3716 1.30791C13.7608 0.916111 14.394 0.914032 14.7858 1.30327L18.6406 5.13274C19.0324 5.52197 19.0344 6.15513 18.6452 6.54694C18.256 6.93875 17.6228 6.94083 17.231 6.55159L15.0001 4.33531V10.4026L21.3844 10.4025C21.6496 10.4025 21.904 10.5078 22.0915 10.6954C22.2791 10.8829 22.3844 11.1373 22.3844 11.4025L22.3843 15.3042H26C26.5523 15.3042 27 15.7519 27 16.3042V25.5349C27 26.0872 26.5523 26.5349 26 26.5349H16.7693C16.217 26.5349 15.7693 26.0872 15.7693 25.5349V16.3042C15.7693 15.7519 16.217 15.3042 16.7693 15.3042H20.3843L20.3844 12.4025L7.61572 12.4027L7.61562 15.3042H11.2307C11.783 15.3042 12.2307 15.7519 12.2307 16.3042V25.5349C12.2307 26.0872 11.783 26.5349 11.2307 26.5349H2C1.44772 26.5349 1 26.0872 1 25.5349V16.3042C1 15.7519 1.44772 15.3042 2 15.3042H5.61562L5.61575 11.4027C5.61577 10.8504 6.06347 10.4028 6.61573 10.4027L13.0001 10.4026V4.51962L10.9544 6.57873C10.5652 6.97053 9.93203 6.97261 9.54023 6.58337C9.14843 6.19413 9.14635 5.56096 9.53559 5.16916L13.3716 1.30791Z" stroke="none"></path></svg>