<svg width="48" height="48" viewBox="0 0 28 29" fill="#e6007a" xmlns="http://www.w3.org/2000/svg" stroke-width="2" stroke-linecap="round" stroke-linejoin="round" stroke="#e6007a"><path fill-rule="evenodd" clip-rule="evenodd" d="M9.42334 2C9.97563 2 10.4233 2.44772 10.4233 3V3.88477H17.5764V7.34177C17.5764 7.89405 18.0241 8.34177 18.5764 8.34177C19.1287 8.34177 19.5764 7.89405 19.5764 7.34177V3.88477H26C26.5523 3.88477 27 4.33248 27 4.88477V11H1V4.88477C1 4.33248 1.44772 3.88477 2 3.88477H8.42334V3C8.42334 2.44772 8.87106 2 9.42334 2ZM1 13H27V27.0002C27 27.5525 26.5523 28.0002 26 28.0002H21V26.1428C21 23.6173 19.3511 21.3813 16.938 20.6955L16.588 20.5959L16.8837 20.2325C18.1109 18.7253 18.0148 16.5156 16.6563 15.1248C15.9245 14.3757 14.9624 14.0008 14 14C13.0376 14.0008 12.0754 14.3757 11.3436 15.1248C9.98514 16.5156 9.88902 18.7253 11.1162 20.2325L11.4119 20.5959L11.0619 20.6955C8.64884 21.3813 6.99994 23.6173 6.99994 26.1428V28.0002H2C1.44772 28.0002 1 27.5525 1 27.0002V13ZM8.99994 28.0002H19V26.1428C19 24.486 17.9198 23.0536 16.3905 22.6191L15.6706 22.4142C14.448 22.0673 14.0212 20.5811 14.8014 19.6226L15.3329 18.9696C15.9202 18.2485 15.8715 17.1837 15.2256 16.5223C14.8996 16.1886 14.4781 16.0148 14.0527 16.0009C13.6203 16.0148 13.1004 16.1886 12.7744 16.5223C12.1284 17.1837 12.0798 18.2485 12.667 18.9696L13.1985 19.6226C13.9788 20.5811 13.5519 22.0673 12.3294 22.4142L11.6094 22.6191C10.0801 23.0536 8.99994 24.486 8.99994 26.1428V28.0002ZM19.5764 3.88184V3C19.5764 2.44772 19.1287 2 18.5764 2C18.0241 2 17.5764 2.44772 17.5764 3V3.88184H19.5764ZM10.4233 7.34205C10.4233 7.89433 9.97562 8.34205 9.42334 8.34205C8.87106 8.34205 8.42334 7.89433 8.42334 7.34205V3.89062H10.4233V7.34205Z" stroke="none"></path></svg>