<svg width="48" height="48" viewBox="0 0 29 29" fill="#e6007a" xmlns="http://www.w3.org/2000/svg" stroke-width="2" stroke-linecap="round" stroke-linejoin="round" stroke="#e6007a"><g><path d="M23.9919 13.8044L23.2559 13.5994C22.7329 13.4544 22.5349 12.8184 22.8819 12.4014L23.4249 11.7484C24.3519 10.6344 24.2779 8.99745 23.2539 7.97145C22.1579 6.87345 20.3779 6.87345 19.2819 7.97145C18.2579 8.99745 18.1839 10.6344 19.1109 11.7484L19.6539 12.4014C20.0009 12.8184 19.8019 13.4544 19.2799 13.5994L18.5459 13.8034C17.9819 13.9604 17.4739 14.2254 17.0249 14.5594C17.0179 14.5674 17.0139 14.5774 17.0069 14.5854L16.4639 15.2384C16.1169 15.6554 16.3159 16.2914 16.8379 16.4364L17.5739 16.6414C19.3189 17.1264 20.5939 18.5694 20.9049 20.3054H27.4009V18.2884C27.4009 16.1974 26.0069 14.3634 23.9929 13.8034L23.9919 13.8044Z" stroke="none"></path><path fill-rule="evenodd" clip-rule="evenodd" d="M18.5741 7.26499C20.0608 5.7756 22.475 5.7756 23.9616 7.26499C25.3504 8.65649 25.451 10.8767 24.1938 12.3878L23.9002 12.7409L24.213 12.828C24.229 12.8316 24.2449 12.8356 24.2608 12.84C26.7074 13.5203 28.4009 15.7483 28.4009 18.2884V20.3054C28.4009 20.8577 27.9532 21.3054 27.4009 21.3054H20.9049C20.4206 21.3054 20.0059 20.9585 19.9205 20.4818C19.676 19.1169 18.6739 17.9851 17.3061 17.6049L18.2301 15.2895M18.5741 7.26499C17.1853 8.65649 17.0848 10.8767 18.342 12.3878L18.5741 7.26499ZM23.523 12.6358L23.5242 12.6361L23.523 12.6358ZM19.9896 8.67791C19.3305 9.33833 19.283 10.3919 19.8795 11.1088L20.4226 11.7618C21.2333 12.7365 20.7689 14.2237 19.5475 14.563L18.8141 14.7668C18.4218 14.8761 18.0569 15.0556 17.722 15.2895L17.4822 15.5779L17.8417 15.678C19.6801 16.1891 21.088 17.5743 21.6767 19.3054H26.4009V18.2884C26.4009 16.6611 25.3256 15.2321 23.7668 14.7788C23.7524 14.7755 23.7379 14.7718 23.7236 14.7678L22.9887 14.5631L22.9876 14.5628C21.764 14.2227 21.3035 12.7352 22.113 11.7621L22.656 11.1091C23.2525 10.3922 23.2052 9.33833 22.5461 8.67791M19.9896 8.67791C20.6949 7.97136 21.8408 7.97136 22.5461 8.67791H19.9896Z" stroke="none"></path><path d="M13.5283 16.5625L13.943 16.4384C14.284 16.3434 14.2875 15.8799 14.2905 15.5639C13.6875 14.6559 12.96 14.1134 11.854 13.8054L11.12 13.6014C10.598 13.4564 10.399 12.8204 10.746 12.4034L11.289 11.7504C12.216 10.6364 12.142 8.9994 11.118 7.9734C10.022 6.8754 8.242 6.8754 7.146 7.9734C6.122 8.9994 6.048 10.6364 6.975 11.7504L7.518 12.4034C7.865 12.8204 7.666 13.4564 7.144 13.6014L6.408 13.8064C4.394 14.3664 3 16.2004 3 18.2914V20.3084H9.882C10.192 18.5724 11.466 17.1294 13.211 16.6444L13.5283 16.5625Z" stroke="none"></path><path fill-rule="evenodd" clip-rule="evenodd" d="M6.43825 7.26694C7.92492 5.77756 10.3391 5.77756 11.8258 7.26694C13.2146 8.65852 13.3151 10.8789 12.0577 12.39L11.7645 12.7426L12.1218 12.8419C13.4601 13.2146 14.3882 13.9034 15.1235 15.0107C15.2342 15.1774 15.2923 15.3734 15.2904 15.5734C15.2904 15.5812 15.2903 15.5896 15.2903 15.5987C15.2892 15.7422 15.2871 16.0468 15.2108 16.3378C15.1258 16.6616 14.8788 17.2101 14.223 17.3984L13.8151 17.5205C13.8029 17.5242 13.7906 17.5276 13.7782 17.5308L13.4704 17.6102C12.1072 17.9926 11.1096 19.1222 10.8664 20.4842C10.7813 20.9611 10.3665 21.3084 9.882 21.3084H3C2.44772 21.3084 2 20.8607 2 20.3084V18.2914C2 15.7514 3.69326 13.5235 6.13968 12.8431L6.49966 12.7428L6.20633 12.39C4.94912 10.8789 5.04946 8.65844 6.43825 7.26694ZM8.7287 9.12568C9.43401 8.41908 9.70487 7.97325 10.4102 8.67982L8.7287 9.12568ZM10.4102 8.67982C11.0693 9.34024 11.1169 10.3939 10.5203 11.1108L10.4102 8.67982ZM10.5203 11.1108L9.97733 11.7638L10.5203 11.1108ZM9.97733 11.7638C9.16655 12.7385 9.63098 14.2256 10.8524 14.5649L11.5857 14.7687C12.2415 14.9514 12.7022 15.2203 13.0903 15.6428L12.9611 15.6761L12.9432 15.6809C11.1044 16.192 9.6977 17.5771 9.10981 19.3084M13.6746 15.4751L13.664 15.4781C13.6676 15.4771 13.6711 15.4761 13.6746 15.4751Z" stroke="none"></path><path d="M13.5718 15.2393L13.0288 14.5863C12.1018 13.4723 12.1758 11.8353 13.1998 10.8093C14.2958 9.71134 16.0758 9.71134 17.1718 10.8093C18.1958 11.8353 18.2698 13.4723 17.3428 14.5863L16.7998 15.2393C16.4528 15.6563 16.6518 16.2923 17.1748 16.4373L17.9108 16.6423C19.9248 17.2023 21.3188 19.0363 21.3188 21.1273V23.1433H9.05884V21.1233C9.05884 19.0343 10.4508 17.2013 12.4638 16.6413L13.1978 16.4373C13.7208 16.2923 13.9188 15.6563 13.5718 15.2393Z" stroke="none"></path><path fill-rule="evenodd" clip-rule="evenodd" d="M12.4921 10.1029C13.9788 8.61349 16.3929 8.61349 17.8796 10.1029C19.2685 11.4945 19.369 13.7149 18.1115 15.226L17.8184 15.5785L18.1787 15.6789C20.6254 16.3592 22.3188 18.5872 22.3188 21.1273V23.1433C22.3188 23.6956 21.8711 24.1433 21.3188 24.1433H9.05884C8.50655 24.1433 8.05884 23.6956 8.05884 23.1433V21.1233C8.05884 18.5854 9.75002 16.3583 12.1958 15.6779L12.5533 15.5786L12.2602 15.226C11.003 13.7149 11.1033 11.4944 12.4921 10.1029ZM17.442 15.4737L17.4432 15.474L17.442 15.4737Z" stroke="none"></path></g></svg>