<svg width="48" height="48" viewBox="0 0 28 28" fill="#e6007a" xmlns="http://www.w3.org/2000/svg" stroke-width="2" stroke-linecap="round" stroke-linejoin="round" stroke="#e6007a"><path fill-rule="evenodd" clip-rule="evenodd" d="M15.814 1.78376C20.4518 1.29628 24.6067 4.66076 25.0942 9.29855C25.3133 11.383 24.7533 13.3714 23.6505 14.9711L25.4954 19.3926C25.6669 19.8036 25.546 20.2784 25.1988 20.5573C24.8516 20.8362 24.3618 20.8519 23.9975 20.5957L20.1479 17.8896C19.3531 18.2453 18.49 18.483 17.5794 18.5787C17.153 18.6235 16.7303 18.6357 16.3139 18.6173C14.8023 20.6654 12.2733 21.8847 9.55443 21.5989C8.78028 21.5175 8.04504 21.3196 7.36522 21.0239L4.10274 23.3173C3.73842 23.5734 3.24864 23.5577 2.90143 23.2789C2.55423 23 2.43328 22.5251 2.60477 22.1141L4.17007 18.3628C3.22754 16.9659 2.75167 15.2403 2.94167 13.4327C3.29144 10.105 5.7858 7.52465 8.90486 6.91567C8.90618 6.91541 8.90751 6.91515 8.90883 6.9149C10.0631 4.16936 12.6393 2.11746 15.814 1.78376ZM8.31245 9.16692C6.50406 9.89275 5.14841 11.5707 4.93071 13.6418C4.77512 15.122 5.22857 16.524 6.09118 17.602C6.31954 17.8874 6.37402 18.2746 6.23328 18.6119L5.78277 19.6916L6.69675 19.049C7.00711 18.8309 7.41419 18.8071 7.74783 18.9877C8.35342 19.3154 9.03273 19.533 9.7635 19.6099C11.3836 19.7801 12.9129 19.22 14.0226 18.1922C10.9825 17.1754 8.65646 14.4626 8.29922 11.0639C8.23154 10.42 8.23821 9.78473 8.31245 9.16692Z" stroke="none"></path></svg>