<svg width="48" height="48" viewBox="0 0 28 28" fill="#e6007a" xmlns="http://www.w3.org/2000/svg" stroke-width="2" stroke-linecap="round" stroke-linejoin="round" stroke="#e6007a"><path d="M20.9,11.6l-1.2-0.3c-0.1,0-0.1-0.1-0.1-0.1c0-0.1,0-0.1,0-0.2l0.9-1c1.8-2.2,1.7-5.3-0.3-7.4c-1-1-2.4-1.6-3.9-1.6 s-2.8,0.6-3.9,1.6c0,0-0.1,0.1-0.1,0.1c-0.2,0-0.4-0.1-0.5-0.1c-1.5,0-2.8,0.6-3.9,1.6c-2,2-2.1,5.2-0.3,7.4l0.9,1 c0.1,0.1,0,0.1,0,0.2c0,0.1-0.1,0.1-0.1,0.1l-1.2,0.3c-3.6,1-6.2,4.3-6.2,8.1v3.2c0,0.6,0.4,1,1,1h19.5c0.6,0,1-0.4,1-1v-0.6H26 c0.6,0,1-0.4,1-1v-3.2C27,16,24.5,12.6,20.9,11.6z M25,21.9h-2.5v-0.6c0-3.8-2.5-7.1-6.1-8.1l-1.2-0.3c-0.1,0-0.1-0.1-0.1-0.1 c0,0,0,0,0,0c0-0.1,0-0.1,0-0.2c0,0,0,0,0,0l0.9-1c1.6-1.9,1.7-4.6,0.3-6.6c-0.2-0.3-0.4-0.6-0.7-0.8c0,0,0,0,0,0 c-0.2-0.2-0.5-0.4-0.7-0.6c-0.1,0-0.1-0.1-0.2-0.1c0,0-0.1-0.1-0.1-0.1c1.3-0.7,3.1-0.5,4.1,0.6c1.3,1.3,1.4,3.3,0.2,4.7l-0.9,1 c-0.5,0.6-0.6,1.3-0.4,2.1c0.2,0.7,0.8,1.3,1.5,1.5l1.2,0.3c2.8,0.8,4.7,3.3,4.7,6.2V21.9z" stroke="none"></path></svg>