<svg width="48" height="48" viewBox="0 0 29 29" fill="#e6007a" xmlns="http://www.w3.org/2000/svg" stroke-width="2" stroke-linecap="round" stroke-linejoin="round" stroke="#e6007a"><path fill-rule="evenodd" clip-rule="evenodd" d="M13.4206 18.5903C13.4206 18.038 12.9729 17.5903 12.4206 17.5903H7.70051C5.64059 17.5903 3.9707 15.9204 3.9707 13.8605C3.9707 11.8006 5.64059 10.1307 7.70051 10.1307L12.4206 10.1307C12.9729 10.1307 13.4206 9.68301 13.4206 9.13072C13.4206 8.57844 12.9729 8.13072 12.4206 8.13072L7.70051 8.13072C4.53603 8.13072 1.9707 10.696 1.9707 13.8605C1.9707 17.025 4.53602 19.5903 7.70051 19.5903H12.4206C12.9729 19.5903 13.4206 19.1426 13.4206 18.5903ZM22.241 19.6279C25.4055 19.6279 27.9708 17.0626 27.9708 13.8981C27.9708 10.7336 25.4055 8.16832 22.241 8.16832L17.4675 8.16832C16.9152 8.16832 16.4675 8.61604 16.4675 9.16832C16.4675 9.72061 16.9152 10.1683 17.4675 10.1683H22.241C24.3009 10.1683 25.9708 11.8382 25.9708 13.8981C25.9708 15.958 24.3009 17.6279 22.241 17.6279H17.4675C16.9152 17.6279 16.4675 18.0756 16.4675 18.6279C16.4675 19.1802 16.9152 19.6279 17.4675 19.6279H22.241ZM8.83264 12.8677C8.28036 12.8677 7.83264 13.3154 7.83264 13.8677C7.83264 14.42 8.28036 14.8677 8.83264 14.8677L21.079 14.8677C21.6313 14.8677 22.079 14.42 22.079 13.8677C22.079 13.3154 21.6313 12.8677 21.079 12.8677L8.83264 12.8677Z" stroke="none"></path></svg>