<svg width="48" height="48" viewBox="0 0 28 28" fill="#e6007a" xmlns="http://www.w3.org/2000/svg" stroke-width="2" stroke-linecap="round" stroke-linejoin="round" stroke="#e6007a"><path fill-rule="evenodd" clip-rule="evenodd" d="M23.2209 4.76569C25.2313 4.76569 26.8611 6.3955 26.8611 8.40598C26.8611 10.4165 25.2313 12.0463 23.2209 12.0463C21.2104 12.0463 19.5806 10.4165 19.5806 8.40598C19.5806 7.57844 19.8567 6.81539 20.3219 6.20395L17.9046 2.6847C17.5919 2.22946 17.7074 1.60693 18.1627 1.29424C18.6179 0.981546 19.2404 1.0971 19.5531 1.55234L21.9237 5.00359C22.3266 4.84988 22.7639 4.76569 23.2209 4.76569ZM5.64029 4.76569C6.0926 4.76569 6.52564 4.84818 6.92519 4.99894L9.33447 1.55815C9.65124 1.10574 10.2748 0.995793 10.7272 1.31257C11.1796 1.62935 11.2895 2.25289 10.9728 2.7053L8.53078 6.19281C9.00108 6.80611 9.28058 7.57341 9.28058 8.40598C9.28058 10.4165 7.65077 12.0463 5.64029 12.0463C3.62981 12.0463 2 10.4165 2 8.40598C2 6.39551 3.62981 4.76569 5.64029 4.76569ZM11.2134 17.7627C12.9902 15.9859 15.8709 15.9859 17.6477 17.7627C19.4245 19.5395 19.4245 22.4202 17.6477 24.197C15.8709 25.9738 12.9902 25.9738 11.2134 24.197C9.43657 22.4202 9.43657 19.5395 11.2134 17.7627ZM13.7144 14.618C13.9019 14.8055 14.1563 14.9109 14.4215 14.9109C14.6867 14.9109 14.9411 14.8056 15.1286 14.618L18.2478 11.4989C18.6383 11.1083 18.6383 10.4752 18.2478 10.0846C17.8572 9.69412 17.2241 9.69412 16.8335 10.0846L15.445 11.4732L15.4451 2.00002C15.4452 1.44773 14.9975 1.00001 14.4452 0.999999C13.8929 0.999991 13.4452 1.4477 13.4452 1.99998L13.445 11.5201L12.0096 10.0846C11.6191 9.69404 10.9859 9.69402 10.5954 10.0845C10.2048 10.475 10.2048 11.1082 10.5953 11.4987L13.7144 14.618Z" stroke="none"></path></svg>