<svg width="48" height="48" viewBox="0 0 28 28" fill="#e6007a" xmlns="http://www.w3.org/2000/svg" stroke-width="2" stroke-linecap="round" stroke-linejoin="round" stroke="#e6007a"><path fill-rule="evenodd" clip-rule="evenodd" d="M5 2C5 1.44772 5.44772 1 6 1H22.3687C22.921 1 23.3687 1.44772 23.3687 2V4.67529H16.6018C14.2714 4.67529 12.3823 6.56441 12.3823 8.89474C12.3823 11.2251 14.2714 13.1142 16.6018 13.1142H23.3687V15.79C23.3687 16.3423 22.921 16.79 22.3687 16.79H15.1556V19.6138C16.3979 19.9838 17.3725 20.9755 17.7166 22.2285H26C26.5523 22.2285 27 22.6762 27 23.2285C27 23.7808 26.5523 24.2285 26 24.2285H17.7166C17.2779 25.827 15.8128 27.0002 14.0751 27.0002C12.3373 27.0002 10.8723 25.827 10.4335 24.2285H2C1.44772 24.2285 1 23.7808 1 23.2285C1 22.6762 1.44772 22.2285 2 22.2285H10.4336C10.7923 20.9219 11.8369 19.8993 13.1556 19.5697V16.79H6C5.44772 16.79 5 16.3423 5 15.79V2ZM23.3687 6.67529H16.6018C15.376 6.67529 14.3823 7.66898 14.3823 8.89474C14.3823 10.1205 15.376 11.1142 16.6018 11.1142H23.3687V6.67529ZM15.7157 8.13469C16.1062 7.74417 16.7393 7.74417 17.1299 8.13469L17.1451 8.14993C17.5356 8.54046 17.5356 9.17362 17.1451 9.56415C16.7546 9.95467 16.1214 9.95467 15.7309 9.56415L15.7157 9.5489C15.3251 9.15838 15.3251 8.52521 15.7157 8.13469ZM14.0751 21.457C13.093 21.457 12.2994 22.2516 12.2994 23.2286C12.2994 24.2057 13.093 25.0002 14.0751 25.0002C15.0571 25.0002 15.8507 24.2057 15.8507 23.2286C15.8507 22.2516 15.0571 21.457 14.0751 21.457Z" stroke="none"></path></svg>