<svg width="48" height="48" viewBox="0 0 28 28" fill="#e6007a" xmlns="http://www.w3.org/2000/svg" stroke-width="2" stroke-linecap="round" stroke-linejoin="round" stroke="#e6007a"><path fill-rule="evenodd" clip-rule="evenodd" d="M27.4828 22.5502C27.4828 20.4033 25.7424 18.6629 23.5955 18.6629C23.0816 18.6629 22.591 18.7626 22.142 18.9438L19.5075 15.1082C19.1948 14.653 18.5722 14.5374 18.117 14.8501C17.6618 15.1628 17.5462 15.7854 17.8589 16.2406L20.5411 20.1455C20.0194 20.8071 19.7082 21.6423 19.7082 22.5502C19.7082 24.6972 21.4486 26.4376 23.5955 26.4376C25.7424 26.4376 27.4828 24.6972 27.4828 22.5502ZM17.6021 3.47529C15.6956 1.56878 12.6046 1.56878 10.698 3.47529C8.79154 5.3818 8.79154 8.47286 10.698 10.3794C12.6046 12.2859 15.6956 12.2859 17.6021 10.3794C19.5086 8.47286 19.5086 5.3818 17.6021 3.47529ZM5.80959 18.9382C5.36434 18.7606 4.87854 18.6629 4.36993 18.6629C2.22301 18.6629 0.482597 20.4033 0.482596 22.5502C0.482596 24.6972 2.22301 26.4376 4.36993 26.4376C6.51684 26.4376 8.25726 24.6972 8.25726 22.5502C8.25726 21.6366 7.94208 20.7966 7.41453 20.133L10.1247 16.2624C10.4415 15.81 10.3316 15.1865 9.87915 14.8697C9.42674 14.5529 8.8032 14.6629 8.48642 15.1153L5.80959 18.9382Z" stroke="none"></path></svg>