<svg width="48" height="48" viewBox="0 0 28 28" fill="#e6007a" xmlns="http://www.w3.org/2000/svg" stroke-width="2" stroke-linecap="round" stroke-linejoin="round" stroke="#e6007a"><path fill-rule="evenodd" clip-rule="evenodd" d="M23.0833 3.82104C20.7227 2.05966 17.508 1 14 1C10.492 1 7.27732 2.05966 4.91669 3.82104C2.55595 5.58251 1 8.09375 1 10.9538C1 13.4782 2.22824 15.6712 4.11586 17.357L2.58662 23.3976C2.4837 23.8042 2.64535 24.2317 2.99147 24.4684C3.33758 24.7052 3.79465 24.7008 4.1362 24.4576L9.92213 20.3363C10.2287 20.4157 10.5697 20.4967 10.9268 20.563L13.1428 25.0807C13.3144 25.4304 13.6733 25.6486 14.0626 25.6401C14.452 25.6315 14.801 25.3977 14.9569 25.0408L16.904 20.5865C17.315 20.5141 17.7269 20.4228 18.0844 20.3337L23.862 24.4545C24.2033 24.6978 24.6601 24.7026 25.0063 24.4664C25.3526 24.2301 25.5147 23.803 25.4125 23.3965L23.8929 17.3519C25.7808 15.6657 27 13.4772 27 10.9538C27 8.09375 25.444 5.58251 23.0833 3.82104ZM20.4119 8.42182C20.8002 8.02908 20.7966 7.39593 20.4039 7.00763C20.0111 6.61934 19.378 6.62294 18.9897 7.01568L13 13.0739L10.0693 10.3366C9.66569 9.95959 9.0329 9.98118 8.65592 10.3848C8.27893 10.7884 8.30052 11.4212 8.70414 11.7982L12.3452 15.199C12.7407 15.5684 13.3584 15.5561 13.7389 15.1712L20.4119 8.42182Z" stroke="none"></path></svg>