<svg width="48" height="48" viewBox="0 0 28 28" fill="#e6007a" xmlns="http://www.w3.org/2000/svg" stroke-width="2" stroke-linecap="round" stroke-linejoin="round" stroke="#e6007a"><path fill-rule="evenodd" clip-rule="evenodd" d="M2.16339 1.16357C1.61111 1.16357 1.16339 1.61129 1.16339 2.16357V25.8461C1.16339 26.3984 1.61111 26.8461 2.16339 26.8461H20.3809C20.9332 26.8461 21.3809 26.3984 21.3809 25.8461V15.7555L25.8904 11.246C27.1521 9.98434 27.1521 7.93837 25.8904 6.67671C24.6485 5.43479 22.6466 5.41536 21.3809 6.61844V2.16357C21.3809 1.61129 20.9332 1.16357 20.3809 1.16357H2.16339ZM24.4762 9.83178L19.5856 14.7224L18.0812 16.226L15.8025 16.7646L16.3412 14.4851L21.088 9.73831L21.0935 9.73274L22.7353 8.09093C23.2159 7.61032 23.9956 7.61032 24.4762 8.09093C24.9568 8.57154 24.9568 9.35117 24.4762 9.83178ZM5.80707 4.80713C5.25478 4.80713 4.80707 5.25484 4.80707 5.80713C4.80707 6.35941 5.25478 6.80713 5.80707 6.80713H16.7372C17.2895 6.80713 17.7372 6.35941 17.7372 5.80713C17.7372 5.25484 17.2895 4.80713 16.7372 4.80713H5.80707ZM5.80707 8.4502C5.25478 8.4502 4.80707 8.89791 4.80707 9.4502C4.80707 10.0025 5.25478 10.4502 5.80707 10.4502H12.1833C12.7356 10.4502 13.1833 10.0025 13.1833 9.4502C13.1833 8.89791 12.7356 8.4502 12.1833 8.4502H5.80707ZM4.80707 21.2896C4.80707 20.7373 5.25478 20.2896 5.80707 20.2896H12.1824C12.7346 20.2896 13.1824 20.7373 13.1824 21.2896C13.1824 21.8418 12.7346 22.2896 12.1824 22.2896H5.80707C5.25478 22.2896 4.80707 21.8418 4.80707 21.2896Z" stroke="none"></path></svg>