<svg width="48" height="48" viewBox="0 0 28 28" fill="#e6007a" xmlns="http://www.w3.org/2000/svg" stroke-width="2" stroke-linecap="round" stroke-linejoin="round" stroke="#e6007a"><path fill-rule="evenodd" clip-rule="evenodd" d="M10.4234 2C10.4234 1.44772 9.97566 1 9.42337 1C8.87109 1 8.42337 1.44772 8.42337 2V2.88477H2C1.44772 2.88477 1 3.33248 1 3.88477V26.0002C1 26.5525 1.44772 27.0002 2 27.0002H26C26.5523 27.0002 27 26.5525 27 26.0002V3.88477C27 3.33248 26.5523 2.88477 26 2.88477H19.5764L19.5764 6.34177C19.5764 6.89405 19.1287 7.34177 18.5764 7.34177C18.0241 7.34177 17.5764 6.89405 17.5764 6.34177V2.88184H19.5764L19.5764 2C19.5764 1.44772 19.1287 1 18.5764 1C18.0241 1 17.5764 1.44772 17.5764 2V2.88477H10.4234V2ZM10.4234 6.34156C10.4234 6.89384 9.97566 7.34156 9.42338 7.34156C8.87109 7.34156 8.42338 6.89384 8.42338 6.34156V2.89014H10.4234V6.34156ZM19.9956 13.2861C20.3861 13.6766 20.3861 14.3097 19.9956 14.7003L18.5518 16.1441L19.9955 17.5879C20.386 17.9784 20.386 18.6116 19.9955 19.0021C19.605 19.3926 18.9718 19.3926 18.5813 19.0021L16.7233 17.1441H15.1443V18.7234L17.0023 20.5815C17.3928 20.972 17.3928 21.6052 17.0023 21.9957C16.6118 22.3862 15.9786 22.3862 15.5881 21.9957L14.1443 20.5519L12.7005 21.9956C12.31 22.3862 11.6768 22.3862 11.2863 21.9956C10.8958 21.6051 10.8958 20.972 11.2863 20.5814L13.1443 18.7234V17.1441H11.5651L9.70711 19.0021C9.31659 19.3926 8.68342 19.3926 8.2929 19.0021C7.90237 18.6116 7.90237 17.9784 8.29289 17.5879L9.73671 16.144L8.29293 14.7003C7.90241 14.3097 7.90241 13.6766 8.29293 13.2861C8.68346 12.8955 9.31662 12.8955 9.70715 13.2861L11.5652 15.1441H13.1443V13.5652L11.2863 11.7072C10.8958 11.3167 10.8958 10.6835 11.2863 10.293C11.6768 9.90248 12.31 9.90248 12.7005 10.293L14.1443 11.7368L15.5881 10.293C15.9786 9.90252 16.6118 9.90252 17.0023 10.293C17.3928 10.6836 17.3928 11.3167 17.0023 11.7073L15.1443 13.5653V15.1441H16.7233L18.5813 13.2861C18.9719 12.8955 19.605 12.8955 19.9956 13.2861Z" stroke="none"></path></svg>