<svg width="48" height="48" viewBox="0 0 28 28" fill="#e6007a" xmlns="http://www.w3.org/2000/svg" stroke-width="2" stroke-linecap="round" stroke-linejoin="round" stroke="#e6007a"><path fill-rule="evenodd" clip-rule="evenodd" d="M5.31042 1C5.86271 1 6.31042 1.44772 6.31042 2V2.91949H7.81383C8.36611 2.91949 8.81383 3.36721 8.81383 3.91949C8.81383 4.47178 8.36611 4.91949 7.81383 4.91949H4.47979C4.28595 4.91815 4.09374 4.95514 3.91427 5.02839C3.7348 5.10164 3.57159 5.20967 3.43404 5.34628C3.29648 5.48288 3.18732 5.64534 3.11283 5.8243C3.03878 6.00222 3.00044 6.19295 3 6.38563C3.0036 6.77691 3.16132 7.15105 3.43903 7.42684C3.71756 7.70345 4.09418 7.85868 4.48671 7.85867H6.20171C7.12229 7.85865 8.00554 8.2227 8.65873 8.87139C9.30781 9.51599 9.6774 10.3897 9.68827 11.3039C9.70566 11.7762 9.62687 12.2471 9.45661 12.688C9.28425 13.1344 9.02185 13.5406 8.68577 13.8812C8.34969 14.2218 7.9471 14.4895 7.50304 14.6678C7.12258 14.8206 6.71867 14.9049 6.30995 14.9173V15.8558C6.30995 16.4081 5.86224 16.8558 5.30995 16.8558C4.75767 16.8558 4.30995 16.4081 4.30995 15.8558V14.9179H2.53165C1.97936 14.9179 1.53165 14.4702 1.53165 13.9179C1.53165 13.3656 1.97936 12.9179 2.53165 12.9179H6.13313C6.14262 12.9179 6.1521 12.918 6.16159 12.9183C6.36554 12.9241 6.56851 12.8879 6.75785 12.8118C6.94718 12.7358 7.11884 12.6217 7.26216 12.4764C7.40548 12.3312 7.51736 12.158 7.59085 11.9677C7.66434 11.7773 7.69786 11.5739 7.68934 11.37C7.68885 11.3584 7.68857 11.3468 7.68849 11.3352C7.68578 10.9426 7.52795 10.5671 7.24942 10.2905C6.9709 10.0139 6.59429 9.85866 6.20175 9.85867H4.48676C3.56618 9.85868 2.68292 9.49464 2.02972 8.84594C1.37652 8.19725 1.00637 7.31655 1.00002 6.39598L0.999969 6.38911C0.999958 5.93143 1.09053 5.47828 1.26639 5.05576C1.44226 4.63323 1.69999 4.24967 2.02472 3.92718C2.34946 3.60468 2.73478 3.34962 3.15852 3.17668C3.52562 3.02685 3.91525 2.94123 4.31042 2.92309V2C4.31042 1.44772 4.75814 1 5.31042 1ZM19.32 6.12061C20.5313 6.12061 21.6766 6.4204 22.681 6.9288C22.9668 7.07347 23.166 7.34631 23.2167 7.66262C23.2675 7.97892 23.1636 8.30038 22.9374 8.5272L19.5049 11.9686L21.1401 13.6039L24.4738 10.2613C24.7081 10.0264 25.0436 9.92295 25.3695 9.9852C25.6953 10.0475 25.9691 10.2673 26.1003 10.572C26.4843 11.4639 26.7098 12.4493 26.7098 13.4997C26.7098 17.5755 23.4066 20.8787 19.3308 20.8787C18.516 20.8787 17.7278 20.7457 16.9901 20.4955L10.5875 26.7172C10.1954 27.0982 9.57004 27.0938 9.18347 26.7072L6.13402 23.6577C5.9448 23.4685 5.83932 23.2114 5.84115 22.9438C5.84298 22.6762 5.95198 22.4205 6.14377 22.2339L12.4259 16.1215C12.1149 15.3067 11.9409 14.4227 11.9409 13.4997C11.9409 9.42381 15.2441 6.12061 19.32 6.12061Z" stroke="none"></path></svg>