<svg width="48" height="48" viewBox="0 0 29 29" fill="#e6007a" xmlns="http://www.w3.org/2000/svg" stroke-width="2" stroke-linecap="round" stroke-linejoin="round" stroke="#e6007a"><path fill-rule="evenodd" clip-rule="evenodd" d="M6.99414 1.125C6.44186 1.125 5.99414 1.57272 5.99414 2.125C5.99414 2.67728 6.44186 3.125 6.99414 3.125H7.99402L7.99402 8.365C7.99402 8.65014 8.11575 8.92173 8.3286 9.11147L13.9528 14.125L8.32868 19.1385C8.11583 19.3283 7.9941 19.5999 7.9941 19.885L7.9941 25.125H6.99408C6.44179 25.125 5.99408 25.5727 5.99408 26.125C5.99408 26.6773 6.44179 27.125 6.99408 27.125L8.9941 27.125L21.9172 27.125L23.9941 27.125C24.5464 27.125 24.9941 26.6773 24.9941 26.125C24.9941 25.5727 24.5464 25.125 23.9941 25.125H22.9172V19.885C22.9172 19.5999 22.7954 19.3283 22.5826 19.1385L16.9584 14.125L22.5825 9.11147C22.7954 8.92173 22.9171 8.65014 22.9171 8.365V3.125L23.9941 3.125C24.5464 3.125 24.9941 2.67729 24.9941 2.125C24.9941 1.57272 24.5464 1.125 23.9941 1.125L21.9171 1.125L8.99402 1.125L6.99414 1.125Z" stroke="none"></path></svg>