<svg width="48" height="48" viewBox="0 0 29 29" fill="#e6007a" xmlns="http://www.w3.org/2000/svg" stroke-width="2" stroke-linecap="round" stroke-linejoin="round" stroke="#e6007a"><path fill-rule="evenodd" clip-rule="evenodd" d="M26.0527 18.7085C26.0527 19.2608 25.605 19.7085 25.0527 19.7085H19.636V25.125C19.636 25.6773 19.1883 26.125 18.636 26.125L3.05265 26.125C2.50037 26.125 2.05265 25.6773 2.05265 25.125L2.05266 9.54167C2.05266 8.98938 2.50037 8.54167 3.05266 8.54167L8.4694 8.54167L8.4694 3.12516C8.4694 2.57288 8.91712 2.12516 9.4694 2.12516L25.0527 2.12516C25.605 2.12516 26.0527 2.57288 26.0527 3.12516L26.0527 18.7085ZM8.4694 18.7085L8.4694 10.5417H4.05266L4.05265 24.125L17.636 24.125L17.636 19.7085L9.4694 19.7085C8.91712 19.7085 8.4694 19.2608 8.4694 18.7085ZM17.1827 15.9161C17.7349 15.9191 18.1851 15.4738 18.188 14.9215L18.2045 11.8696L21.2544 11.8861C21.8067 11.889 22.2568 11.4438 22.2598 10.8915C22.2628 10.3392 21.8175 9.88908 21.2652 9.88609L18.2154 9.8696L18.2318 6.81986C18.2348 6.26758 17.7895 5.81745 17.2373 5.81447C16.685 5.81148 16.2349 6.25677 16.2319 6.80905L16.2154 9.85879L13.1635 9.84229C12.6113 9.83931 12.1611 10.2846 12.1582 10.8369C12.1552 11.3891 12.6005 11.8393 13.1527 11.8423L16.2046 11.8588L16.1881 14.9107C16.1851 15.463 16.6304 15.9131 17.1827 15.9161Z" stroke="none"></path></svg>