<svg width="48" height="48" viewBox="0 0 28 28" fill="#e6007a" xmlns="http://www.w3.org/2000/svg" stroke-width="2" stroke-linecap="round" stroke-linejoin="round" stroke="#e6007a"><path fill-rule="evenodd" clip-rule="evenodd" d="M2 19.6103H5.46254V26C5.46254 26.5523 5.91026 27 6.46254 27C7.01483 27 7.46254 26.5523 7.46254 26V19.6103H11.2265C11.7788 19.6103 12.2265 19.1626 12.2265 18.6103V14.9971L15.7626 14.9971V18.6103C15.7626 19.1626 16.2103 19.6103 16.7626 19.6103H20.3759V26C20.3759 26.5523 20.8236 27 21.3759 27C21.9282 27 22.3759 26.5523 22.3759 26V19.6103H25.9891C26.5414 19.6103 26.9891 19.1626 26.9891 18.6103V9.38379C26.9891 8.8315 26.5414 8.38379 25.9891 8.38379H22.3759V2C22.3759 1.44772 21.9282 1 21.3759 1C20.8237 1 20.3759 1.44772 20.3759 2V8.38379H16.7626C16.2103 8.38379 15.7626 8.8315 15.7626 9.38379V12.9971L12.2265 12.9971V9.38379C12.2265 8.83151 11.7788 8.38379 11.2265 8.38379H7.46257V2C7.46257 1.44772 7.01485 1 6.46257 1C5.91028 1 5.46257 1.44772 5.46257 2V8.38379H2C1.44772 8.38379 1 8.83151 1 9.38379V18.6103C1 19.1626 1.44772 19.6103 2 19.6103Z" stroke="none"></path></svg>