<svg width="48" height="48" viewBox="0 0 28 28" fill="#e6007a" xmlns="http://www.w3.org/2000/svg" stroke-width="2" stroke-linecap="round" stroke-linejoin="round" stroke="#e6007a"><path fill-rule="evenodd" clip-rule="evenodd" d="M26 26.7583C26.5523 26.7583 27 26.3106 27 25.7583L27 9.5127H20.1895V13.5264H22.3295C22.8818 13.5264 23.3295 13.9741 23.3295 14.5264V20.807C23.3295 21.3593 22.8818 21.807 22.3295 21.807H20.1895L20.1895 26.7583H26ZM1 7.5127H27V2C27 1.44772 26.5523 1 26 1L2 1C1.44772 1 1 1.44772 1 2V7.5127ZM1 25.7584V9.5127H8V13.5264H6C5.44772 13.5264 5 13.9741 5 14.5264V20.807C5 21.3593 5.44772 21.807 6 21.807H7.99998V26.7584H2C1.44772 26.7584 1 26.3106 1 25.7584ZM18.1895 26.7583L9.99998 26.7584V21.807H12.2806C12.8329 21.807 13.2806 21.3593 13.2806 20.807V18.666H15.0489V20.807C15.0489 21.3593 15.4966 21.807 16.0489 21.807H18.1895L18.1895 26.7583ZM18.1895 9.5127H10V13.5264H12.2806C12.8329 13.5264 13.2806 13.9741 13.2806 14.5264V16.666H15.0489V14.5264C15.0489 13.9741 15.4966 13.5264 16.0489 13.5264H18.1895V9.5127ZM17.0489 19.807V17.6935C17.0491 17.6844 17.0493 17.6752 17.0493 17.666C17.0493 17.6568 17.0491 17.6477 17.0489 17.6385V15.5264H21.3295V19.807H17.0489ZM7 15.5264V19.807H11.2806V15.5264H7ZM4.74162 4.70793C5.13215 4.31741 5.76531 4.31741 6.15584 4.70793L6.173 4.7251C6.56353 5.11562 6.56353 5.74879 6.173 6.13931C5.78248 6.52984 5.14931 6.52984 4.75879 6.13931L4.74162 6.12215C4.3511 5.73162 4.3511 5.09846 4.74162 4.70793ZM8.52696 4.70793C8.91749 4.31741 9.55065 4.31741 9.94118 4.70793L9.95834 4.7251C10.3489 5.11562 10.3489 5.74879 9.95834 6.13931C9.56782 6.52984 8.93465 6.52984 8.54413 6.13931L8.52696 6.12215C8.13644 5.73162 8.13644 5.09846 8.52696 4.70793Z" stroke="none"></path></svg>