<svg width="48" height="48" viewBox="0 0 28 29" fill="#e6007a" xmlns="http://www.w3.org/2000/svg" stroke-width="2" stroke-linecap="round" stroke-linejoin="round" stroke="#e6007a"><path fill-rule="evenodd" clip-rule="evenodd" d="M17.8026 4.24334L16.9842 7.2975C18.9238 8.09444 20.4741 9.64489 21.2708 11.5845L24.3251 10.7661C23.214 7.74977 20.8189 5.35457 17.8026 4.24334ZM24.8417 12.6982L21.7874 13.5166C21.8334 13.8606 21.8571 14.2116 21.8571 14.5681C21.8571 16.3775 21.2455 18.0441 20.2177 19.3723L22.4531 21.6077C24.0433 19.7001 25 17.246 25 14.5684C25 13.9309 24.9458 13.306 24.8417 12.6982ZM23.1946 23.7586C25.5458 21.4062 27 18.1571 27 14.5684C27 7.38866 21.1797 1.56836 14 1.56836C6.8203 1.56836 0.999999 7.38866 0.999999 14.5684C1 21.7481 6.8203 27.5684 14 27.5684C17.5884 27.5684 20.8373 26.1145 23.1896 23.7636L23.1922 23.761L23.1946 23.7586ZM12.4289 20.2121C9.95705 19.5256 8.14283 17.2587 8.14283 14.5681C8.14283 11.3333 10.7652 8.71094 14 8.71094C17.2348 8.71094 19.8571 11.3333 19.8571 14.5681C19.8571 17.8029 17.2348 20.4252 14 20.4252C13.495 20.4252 13.005 20.3613 12.5375 20.2412C12.52 20.2354 12.5022 20.2301 12.4841 20.2253C12.4658 20.2204 12.4473 20.216 12.4289 20.2121ZM11.0165 21.839L10.198 24.8936C8.0909 24.1175 6.28689 22.7147 5.01192 20.9114L7.75013 19.3305C8.59086 20.4321 9.71623 21.3049 11.0165 21.839ZM17.5713 14.5682C17.5713 12.5958 15.9723 10.9968 13.9999 10.9968C12.0274 10.9968 10.4285 12.5958 10.4285 14.5682C10.4285 16.5407 12.0274 18.1396 13.9999 18.1396C15.9723 18.1396 17.5713 16.5407 17.5713 14.5682Z" stroke="none"></path></svg>