<svg width="48" height="48" viewBox="0 0 28 28" fill="#e6007a" xmlns="http://www.w3.org/2000/svg" stroke-width="2" stroke-linecap="round" stroke-linejoin="round" stroke="#e6007a"><path fill-rule="evenodd" clip-rule="evenodd" d="M9 10.8603C9 7.86212 11.4305 5.43164 14.4286 5.43164C17.4268 5.43164 19.8573 7.86212 19.8573 10.8603C19.8573 13.8584 17.4268 16.2889 14.4286 16.2889C11.4305 16.2889 9 13.8584 9 10.8603ZM14.4286 3.43164C10.3259 3.43164 7 6.75755 7 10.8603C7 11.2021 7.02309 11.5386 7.0678 11.8682L2 11.8682C1.44772 11.8682 1 12.3159 1 12.8682L1 22.0989C1 22.6512 1.44772 23.0989 2 23.0989H11.2308C11.7831 23.0989 12.2308 22.6512 12.2308 22.0989L12.2308 18.4834L15.769 18.4834L15.769 22.099C15.769 22.6513 16.2167 23.099 16.769 23.099H25.9998C26.5521 23.099 26.9998 22.6513 26.9998 22.099L26.9998 12.8682C26.9998 12.3159 26.5521 11.8682 25.9998 11.8682H21.7895C21.8342 11.5386 21.8573 11.2021 21.8573 10.8603C21.8573 6.75755 18.5313 3.43164 14.4286 3.43164ZM17.9882 9.70307C18.3765 9.31033 18.3729 8.67718 17.9802 8.28888C17.5875 7.90059 16.9543 7.90419 16.566 8.29693L13.9414 10.9516L12.7188 9.80964C12.3152 9.43266 11.6824 9.45425 11.3054 9.85786C10.9284 10.2615 10.95 10.8943 11.3536 11.2713L13.2866 13.0766C13.6821 13.4461 14.2997 13.4338 14.6803 13.0489L17.9882 9.70307Z" stroke="none"></path></svg>