<svg width="48" height="48" viewBox="0 0 28 28" fill="#e6007a" xmlns="http://www.w3.org/2000/svg" stroke-width="2" stroke-linecap="round" stroke-linejoin="round" stroke="#e6007a"><path fill-rule="evenodd" clip-rule="evenodd" d="M20.4627 6.50951C20.4609 7.06105 20.9077 7.50963 21.4607 7.51144L25.1117 7.52342C25.6647 7.52524 26.1145 7.0796 26.1163 6.52805C26.1182 5.97651 25.6713 5.52793 25.1183 5.52611L23.8805 5.52205L26.5263 2.87624C26.9168 2.48572 26.916 1.8534 26.5244 1.46392C26.1328 1.07444 25.4988 1.07529 25.1083 1.46581L22.4733 4.10081L22.4773 2.86864C22.4791 2.3171 22.0323 1.86852 21.4793 1.86671C20.9263 1.8649 20.4765 2.31055 20.4747 2.86209L20.4627 6.50951ZM20.4627 21.4905C20.4609 20.9389 20.9077 20.4904 21.4607 20.4886L25.1117 20.4766C25.6647 20.4748 26.1145 20.9204 26.1163 21.4719C26.1182 22.0235 25.6713 22.4721 25.1183 22.4739L23.8735 22.478L26.5253 25.1228C26.9164 25.5128 26.9164 26.1451 26.5253 26.5351C26.1343 26.9251 25.5003 26.9251 25.1092 26.5351L22.4733 23.9062L22.4773 25.1314C22.4791 25.6829 22.0323 26.1315 21.4793 26.1333C20.9263 26.1351 20.4765 25.6895 20.4747 25.1379L20.4627 21.4905ZM6.53926 20.4886C7.09228 20.4904 7.53911 20.9389 7.5373 21.4905L7.52531 25.1379C7.5235 25.6895 7.07372 26.1351 6.5207 26.1333C5.96768 26.1315 5.52083 25.6829 5.52265 25.1314L5.52668 23.9062L2.89076 26.5351C2.49972 26.9251 1.8657 26.9251 1.47465 26.5351C1.0836 26.1451 1.08359 25.5128 1.47463 25.1228L4.1265 22.478L2.88169 22.4739C2.32867 22.4721 1.88183 22.0235 1.88365 21.4719C1.88547 20.9204 2.33526 20.4748 2.88828 20.4766L6.53926 20.4886ZM7.5373 6.50951C7.53911 7.06105 7.09228 7.50963 6.53926 7.51144L2.88828 7.52342C2.33526 7.52524 1.88547 7.0796 1.88365 6.52805C1.88183 5.97651 2.32867 5.52793 2.88169 5.52611L4.1265 5.52203L1.47463 2.87718C1.08359 2.48717 1.0836 1.85485 1.47465 1.46485C1.8657 1.07486 2.49972 1.07487 2.89076 1.46487L5.52668 4.09382L5.52265 2.86864C5.52083 2.3171 5.96768 1.86852 6.5207 1.86671C7.07372 1.8649 7.5235 2.31055 7.52531 2.86209L7.5373 6.50951ZM6.57089 12.6788C6.56448 12.5889 6.56121 12.4981 6.56121 12.4063C6.56121 10.8365 7.51797 9.53884 8.81033 8.67953C10.1099 7.81541 11.8475 7.31348 13.7169 7.31348C15.5862 7.31348 17.3238 7.81541 18.6234 8.67953C19.8865 9.51935 20.829 10.7779 20.8711 12.2999C20.8868 12.402 20.892 12.4941 20.8948 12.5423V12.5424L20.8952 12.5503C20.9021 12.6697 20.9062 12.8129 20.9086 12.9647C20.9134 13.2703 20.9118 13.6486 20.9079 14.0194C20.9029 14.4904 20.8944 14.9313 20.8886 15.2354L20.8886 15.2362L20.8886 15.2367L20.8885 15.2381C20.8849 15.4312 20.8822 15.5687 20.8822 15.6232C20.8822 17.193 19.9255 18.4906 18.6331 19.3499C17.3335 20.2141 15.5959 20.716 13.7266 20.716C11.8572 20.716 10.1196 20.2141 8.82002 19.3499C7.52765 18.4906 6.57089 17.193 6.57089 15.6232V12.6788ZM8.61117 15.9952C8.73649 16.5754 9.15791 17.1728 9.9274 17.6845C10.8556 18.3017 12.1959 18.716 13.7266 18.716C15.2572 18.716 16.5975 18.3017 17.5257 17.6845C18.3026 17.168 18.7246 16.564 18.8454 15.9786C18.7727 16.0315 18.6987 16.0829 18.6235 16.1329C17.9432 16.5853 17.1428 16.9384 16.2663 17.1722C15.4684 17.3851 14.6076 17.4991 13.7169 17.4991C11.8475 17.4991 10.1099 16.9972 8.81033 16.133C8.74301 16.0883 8.67659 16.0423 8.61117 15.9952Z" stroke="none"></path></svg>