<svg width="48" height="48" viewBox="0 0 28 28" fill="#e6007a" xmlns="http://www.w3.org/2000/svg" stroke-width="2" stroke-linecap="round" stroke-linejoin="round" stroke="#e6007a"><path fill-rule="evenodd" clip-rule="evenodd" d="M13.9888 2C10.0033 2 6.7724 5.23088 6.7724 9.21637C6.7724 10.0065 6.89969 10.7678 7.13501 11.4805C3.66249 12.0023 1 14.9984 1 18.6164C1 22.6019 4.23088 25.8327 8.21637 25.8327C10.6063 25.8327 12.7235 24.6712 14.0364 22.8834C15.3492 24.6711 17.4664 25.8327 19.8564 25.8327C23.8419 25.8327 27.0728 22.6019 27.0728 18.6164C27.0728 14.9669 24.3637 11.9501 20.8468 11.4674C21.0794 10.7585 21.2051 10.0016 21.2051 9.21637C21.2051 5.23088 17.9743 2 13.9888 2ZM3 18.6164C3 15.7713 5.27768 13.4582 8.10906 13.4011C9.21995 14.9593 10.9367 16.0589 12.9181 16.3538C13.2478 17.0374 13.4327 17.8042 13.4327 18.6164C13.4327 19.2645 13.315 19.8828 13.1006 20.4526C12.3571 22.4291 10.4494 23.8327 8.21637 23.8327C5.33545 23.8327 3 21.4973 3 18.6164ZM15.4327 18.6164C15.4327 17.8263 15.3054 17.0649 15.0701 16.3522C17.0467 16.0551 18.7601 14.9563 19.8692 13.4C22.7442 13.4069 25.0728 15.7397 25.0728 18.6164C25.0728 21.4973 22.7373 23.8327 19.8564 23.8327C17.7459 23.8327 15.9259 22.579 15.1048 20.7726C15.3181 20.0907 15.4327 19.3661 15.4327 18.6164Z" stroke="none"></path></svg>