<svg width="48" height="48" viewBox="0 0 28 28" fill="#e6007a" xmlns="http://www.w3.org/2000/svg" stroke-width="2" stroke-linecap="round" stroke-linejoin="round" stroke="#e6007a"><path fill-rule="evenodd" clip-rule="evenodd" d="M17.8236 3C17.8236 2.44772 17.3759 2 16.8236 2C16.2713 2 15.8236 2.44772 15.8236 3V4.11765H2C1.44772 4.11765 1 4.56537 1 5.11765C1 5.66994 1.44772 6.11765 2 6.11765H15.8236V7.2353C15.8236 7.40856 15.8676 7.57154 15.9452 7.71362L12.62 9.62779C12.311 9.80564 12.1274 10.1287 12.119 10.4702H7.23506V9.35254C7.23506 8.80025 6.78734 8.35254 6.23506 8.35254C5.68278 8.35254 5.23506 8.80025 5.23506 9.35254V10.4702H2C1.44772 10.4702 1 10.9179 1 11.4702C1 12.0225 1.44772 12.4702 2 12.4702H5.23506V13.5878C5.23506 14.1401 5.68278 14.5878 6.23506 14.5878C6.78734 14.5878 7.23506 14.1401 7.23506 13.5878V12.4702H12.5882C12.6183 12.4702 12.6481 12.4689 12.6775 12.4663L12.7276 12.6295L12.6735 12.7239L10.7948 13.1178C10.3317 13.2149 10 13.6233 10 14.0965V17.0586H2C1.44772 17.0586 1 17.5063 1 18.0586C1 18.6109 1.44772 19.0586 2 19.0586H10.4333C10.5353 19.1288 10.6516 19.1808 10.778 19.2096L12.6529 19.6364L12.7086 19.7325L12.1123 21.5571C11.9654 22.0065 12.1533 22.4973 12.5627 22.7338L16.1461 24.8028C16.5509 25.0365 17.0635 24.9586 17.3806 24.6154L18.6728 23.2167H18.8057L20.0782 24.6306C20.3938 24.9813 20.9116 25.0637 21.3204 24.8283L24.9038 22.7656C25.3087 22.5325 25.4983 22.0501 25.3603 21.6037L24.7834 19.7366L26.6869 19.4095C27.1668 19.3271 27.5175 18.9109 27.5175 18.424V14.1588C27.5175 13.6924 27.1951 13.288 26.7404 13.184L24.9038 12.764L24.8261 12.6293L25.4063 10.833C25.5513 10.3841 25.3629 9.89497 24.9543 9.65933L21.3772 7.59655C20.9737 7.36389 20.463 7.44057 20.1457 7.78147L18.8469 9.17662H18.713L17.5696 7.90118C17.7276 7.72436 17.8236 7.49104 17.8236 7.2353V6.11765H21.7647C22.317 6.11765 22.7647 5.66994 22.7647 5.11765C22.7647 4.56537 22.317 4.11765 21.7647 4.11765H17.8236V3ZM18.765 14.6084C17.8878 14.6084 17.1767 15.3195 17.1767 16.1967C17.1767 17.0739 17.8878 17.7851 18.765 17.7851C19.6422 17.7851 20.3534 17.0739 20.3534 16.1967C20.3534 15.3195 19.6422 14.6084 18.765 14.6084ZM15.1767 16.1967C15.1767 14.2149 16.7832 12.6084 18.765 12.6084C20.7468 12.6084 22.3534 14.2149 22.3534 16.1967C22.3534 18.1785 20.7468 19.7851 18.765 19.7851C16.7832 19.7851 15.1767 18.1785 15.1767 16.1967Z" stroke="none"></path></svg>