<svg width="48" height="48" viewBox="0 0 28 28" fill="#e6007a" xmlns="http://www.w3.org/2000/svg" stroke-width="2" stroke-linecap="round" stroke-linejoin="round" stroke="#e6007a"><path fill-rule="evenodd" clip-rule="evenodd" d="M14.0097 1C11.9268 1 10.2383 2.68851 10.2383 4.77139C10.2383 4.98402 10.2559 5.19255 10.2897 5.39558L7.49411 6.74042C6.80768 6.02443 5.84159 5.57867 4.77139 5.57867C2.68851 5.57867 1 7.26718 1 9.35006C1 11.0212 2.0869 12.4384 3.59234 12.9335V15.1833C2.0869 15.6783 1 17.0956 1 18.7667C1 20.8496 2.68851 22.5381 4.77139 22.5381C5.8561 22.5381 6.83384 22.0802 7.52186 21.3471C8.13366 21.6445 8.76866 21.9501 9.39163 22.2499L9.39231 22.2502L9.39347 22.2508L9.39383 22.251L9.39551 22.2518L9.3997 22.2538L9.40599 22.2568C9.70077 22.3987 9.9928 22.5392 10.2783 22.677C10.2519 22.857 10.2383 23.0412 10.2383 23.2286C10.2383 25.3115 11.9268 27 14.0097 27C16.0925 27 17.781 25.3115 17.781 23.2286C17.781 23.0529 17.769 22.88 17.7458 22.7108C18.2226 22.465 18.7071 22.2085 19.1852 21.9549L19.3386 21.8735L19.3387 21.8734C19.713 21.6747 20.0825 21.4786 20.4437 21.2896C21.134 22.0562 22.1342 22.5381 23.247 22.5381C25.3299 22.5381 27.0184 20.8496 27.0184 18.7667C27.0184 17.0902 25.9244 15.6691 24.4114 15.1785C24.4114 14.3955 24.4124 13.7233 24.414 12.9374C25.9257 12.446 27.0184 11.0257 27.0184 9.35006C27.0184 7.26718 25.3299 5.57867 23.247 5.57867C22.1797 5.57867 21.216 6.022 20.5299 6.73454L17.7363 5.35395C17.7658 5.16407 17.781 4.96952 17.781 4.77139C17.781 2.68851 16.0925 1 14.0097 1ZM22.4114 15.0882C22.4115 14.3732 22.4124 13.7451 22.4138 13.0291C20.7318 12.6498 19.4756 11.1466 19.4756 9.35006C19.4756 9.05517 19.5095 8.76818 19.5735 8.49277L16.9134 7.17815C16.2216 8.01184 15.1776 8.54278 14.0097 8.54278C12.8564 8.54278 11.8241 8.02517 11.1323 7.20961L8.44692 8.50144C8.50964 8.7742 8.54278 9.05826 8.54278 9.35006C8.54278 11.151 7.28046 12.6571 5.59234 13.0318V15.0849C7.28046 15.4597 8.54278 16.9658 8.54278 18.7667C8.54278 19.0449 8.51265 19.3161 8.45548 19.5772C9.04534 19.8637 9.65022 20.1548 10.248 20.4425L10.2481 20.4425C10.5298 20.5781 10.8098 20.7128 11.086 20.846C11.7776 19.9984 12.8304 19.4572 14.0097 19.4572C15.1998 19.4572 16.2611 20.0085 16.9523 20.8696C17.3764 20.65 17.8103 20.4203 18.2477 20.1882L18.4046 20.1049C18.7859 19.9025 19.1693 19.699 19.5472 19.5015C19.5002 19.2639 19.4756 19.0182 19.4756 18.7667C19.4756 16.971 20.7306 15.4684 22.4114 15.0882Z" stroke="none"></path></svg>