<svg width="48" height="48" viewBox="0 0 28 28" fill="#e6007a" xmlns="http://www.w3.org/2000/svg" stroke-width="2" stroke-linecap="round" stroke-linejoin="round" stroke="#e6007a"><path fill-rule="evenodd" clip-rule="evenodd" d="M4 1C2.34315 1 1 2.34315 1 4C1 5.30622 1.83481 6.41746 3 6.82929L3 16.1707C1.83481 16.5825 1 17.6938 1 19C1 20.6569 2.34315 22 4 22C4.83747 22 5.59478 21.6568 6.13902 21.1035L21.1106 24.81C21.464 26.0733 22.6238 27 24 27C25.6569 27 27 25.6569 27 24C27 22.6938 26.1652 21.5825 25 21.1707V14.8293C26.1652 14.4175 27 13.3062 27 12C27 10.3431 25.6569 9 24 9C23.5368 9 23.0981 9.10498 22.7064 9.29244L18.7076 5.29356C18.895 4.90189 19 4.4632 19 4C19 2.34315 17.6569 1 16 1C14.6938 1 13.5825 1.83481 13.1707 3H6.82929C6.41746 1.83481 5.30622 1 4 1ZM13.1707 5H6.82929C6.79381 5.1004 6.75313 5.19836 6.70757 5.29353L12.7065 11.2924C12.9759 11.1635 13.2676 11.0735 13.5743 11.03L14.4647 6.5779C13.8682 6.22188 13.4056 5.6647 13.1707 5ZM16.5659 12.4448C16.3113 12.0256 15.9568 11.6737 15.5354 11.4222L16.4259 6.97C16.7324 6.92645 17.0239 6.83658 17.2933 6.7077L21.2923 10.7067C21.1857 10.9295 21.1058 11.1676 21.0567 11.4167L16.5659 12.4448ZM16.7077 15.2933C16.8397 15.0174 16.9308 14.7181 16.9731 14.4033L21.347 13.4019C21.697 14.0627 22.2866 14.5771 23 14.8293V21.1707C22.8997 21.2062 22.8018 21.2468 22.7067 21.2923L16.7077 15.2933ZM11.9174 16.1593C12.4569 16.6798 13.1911 17 14 17C14.4632 17 14.9018 16.895 15.2935 16.7076L21.2924 22.7065C21.2799 22.7326 21.2677 22.759 21.256 22.7856L6.98943 19.2536C6.99643 19.17 7 19.0854 7 19C7 18.8745 6.99229 18.7508 6.97732 18.6293L11.9174 16.1593ZM11.2923 12.7067C11.1049 13.0983 11 13.5369 11 14C11 14.1255 11.0077 14.2492 11.0227 14.3706L6.08257 16.8406C5.7769 16.5458 5.40878 16.3152 5 16.1707V6.82929C5.10032 6.79384 5.1982 6.75319 5.2933 6.70768L11.2923 12.7067Z" stroke="none"></path></svg>