<svg width="48" height="48" viewBox="0 0 28 28" fill="#e6007a" xmlns="http://www.w3.org/2000/svg" stroke-width="2" stroke-linecap="round" stroke-linejoin="round" stroke="#e6007a"><path fill-rule="evenodd" clip-rule="evenodd" d="M21.7496 8.22085C21.7496 8.9112 22.3093 9.47085 22.9996 9.47085C23.69 9.47085 24.2496 8.9112 24.2496 8.22085V4C24.2496 3.30964 23.69 2.75 22.9996 2.75H18.785C18.0946 2.75 17.535 3.30964 17.535 4C17.535 4.69036 18.0946 5.25 18.785 5.25H20.0719L16.6013 9.32172L11.2272 3.94759C10.739 3.45944 9.94758 3.45944 9.45942 3.94759L3.12815 10.2789C2.63999 10.767 2.63999 11.5585 3.12815 12.0466C3.6163 12.5348 4.40776 12.5348 4.89591 12.0466L10.3433 6.59924L15.7907 12.0466C16.0373 12.2932 16.3758 12.4256 16.7243 12.4118C17.0728 12.3979 17.3996 12.239 17.6259 11.9736L21.7496 7.13557V8.22085ZM11.5871 11.3864C11.5871 10.696 11.0275 10.1364 10.3371 10.1364C9.64674 10.1364 9.0871 10.696 9.0871 11.3864L9.0871 23.2953C9.0871 23.9856 9.64674 24.5453 10.3371 24.5453C11.0275 24.5453 11.5871 23.9856 11.5871 23.2953L11.5871 11.3864ZM4.00586 14.3571C4.69622 14.3571 5.25586 14.9167 5.25586 15.6071L5.25586 23.2951C5.25586 23.9855 4.69622 24.5451 4.00586 24.5451C3.3155 24.5451 2.75586 23.9855 2.75586 23.2951V15.6071C2.75586 14.9167 3.31551 14.3571 4.00586 14.3571ZM15.4184 15.6071L15.4184 23.2952C15.4184 23.9856 15.978 24.5452 16.6684 24.5452C17.3588 24.5452 17.9184 23.9856 17.9184 23.2952L17.9184 15.6071C17.9184 14.9167 17.3588 14.3571 16.6684 14.3571C15.978 14.3571 15.4184 14.9167 15.4184 15.6071ZM21.7496 23.2952L21.7496 12.4416C21.7496 11.7512 22.3093 11.1916 22.9996 11.1916C23.69 11.1916 24.2496 11.7512 24.2496 12.4416L24.2496 23.2952C24.2496 23.9856 23.69 24.5452 22.9996 24.5452C22.3093 24.5452 21.7496 23.9856 21.7496 23.2952Z" stroke="none"></path></svg>