<svg width="48" height="48" viewBox="0 0 28 28" fill="#e6007a" xmlns="http://www.w3.org/2000/svg" stroke-width="2" stroke-linecap="round" stroke-linejoin="round" stroke="#e6007a"><path fill-rule="evenodd" clip-rule="evenodd" d="M15.4854 2C15.4854 1.44772 15.0377 1 14.4854 1C13.9331 1 13.4854 1.44772 13.4854 2V5C13.4854 5.55228 13.9331 6 14.4854 6C15.0377 6 15.4854 5.55228 15.4854 5V2ZM14.0001 8C10.6859 8 8.00006 10.6878 8.00006 14.0023C8.00006 17.3169 10.6859 20.0047 14.0001 20.0047C17.3142 20.0047 20.0001 17.3169 20.0001 14.0023C20.0001 10.6878 17.3142 8 14.0001 8ZM14 22C14.5523 22 15 22.4477 15 23V26C15 26.5523 14.5523 27 14 27C13.4477 27 13 26.5523 13 26V23C13 22.4477 13.4477 22 14 22ZM6 14C6 14.5523 5.55228 15 5 15H2C1.44772 15 1 14.5523 1 14C1 13.4477 1.44772 13 2 13H5C5.55228 13 6 13.4477 6 14ZM26 15C26.5523 15 27 14.5523 27 14C27 13.4477 26.5523 13 26 13H23C22.4477 13 22 13.4477 22 14C22 14.5523 22.4477 15 23 15H26ZM8.34291 19.6568C8.73343 20.0473 8.73343 20.6805 8.34291 21.071L6.22159 23.1923C5.83107 23.5829 5.1979 23.5829 4.80738 23.1923C4.41685 22.8018 4.41685 22.1687 4.80738 21.7781L6.9287 19.6568C7.31922 19.2663 7.95239 19.2663 8.34291 19.6568ZM23.6776 6.22191C24.0681 5.83138 24.0681 5.19822 23.6776 4.80769C23.287 4.41717 22.6539 4.41717 22.2634 4.80769L20.142 6.92901C19.7515 7.31954 19.7515 7.9527 20.142 8.34323C20.5326 8.73375 21.1657 8.73375 21.5562 8.34323L23.6776 6.22191ZM8.82854 8.34334C8.43801 8.73386 7.80485 8.73386 7.41432 8.34334L5.293 6.22202C4.90248 5.83149 4.90248 5.19833 5.293 4.8078C5.68353 4.41728 6.31669 4.41728 6.70722 4.8078L8.82854 6.92912C9.21906 7.31965 9.21906 7.95281 8.82854 8.34334ZM21.7782 23.1925C22.1687 23.583 22.8019 23.583 23.1924 23.1925C23.583 22.8019 23.583 22.1688 23.1924 21.7782L21.0711 19.6569C20.6806 19.2664 20.0474 19.2664 19.6569 19.6569C19.2664 20.0474 19.2664 20.6806 19.6569 21.0711L21.7782 23.1925Z" stroke="none"></path></svg>