<svg width="48" height="48" viewBox="0 0 28 28" fill="#e6007a" xmlns="http://www.w3.org/2000/svg" stroke-width="2" stroke-linecap="round" stroke-linejoin="round" stroke="#e6007a"><path fill-rule="evenodd" clip-rule="evenodd" d="M4.33479 1C2.49894 1 1.01343 2.49021 1.01343 4.32509C1.01343 6.15997 2.49894 7.65018 4.33479 7.65018C4.89309 7.65018 5.41899 7.51236 5.88056 7.26894L6.5134 7.90178L6.64049 8.03255C6.52008 8.19767 6.44904 8.40109 6.44904 8.62109V18.8292C6.44904 19.1743 6.6239 19.4786 6.88988 19.6583L5.81851 20.6917C5.36997 20.466 4.86331 20.339 4.32677 20.339C2.48793 20.339 1 21.8316 1 23.6695C1 25.5073 2.48793 27 4.32677 27C6.16561 27 7.65354 25.5073 7.65354 23.6695C7.65354 23.0964 7.50888 22.5569 7.25404 22.0858L9.28186 20.1299C9.37399 20.0411 9.44539 19.9388 9.49593 19.8292H18.9725C19.0103 19.9112 19.0601 19.9894 19.1218 20.0613L20.7875 22.0028C20.5005 22.4927 20.3354 23.0636 20.3354 23.6724C20.3354 25.4952 21.8112 26.9757 23.6351 26.9757C25.4589 26.9757 26.9347 25.4952 26.9347 23.6724C26.9347 21.8495 25.4589 20.369 23.6351 20.369C23.1498 20.369 22.6885 20.4743 22.2732 20.6629L21.3436 19.5795C21.5514 19.3962 21.6825 19.128 21.6825 18.8292V10.191C21.6825 9.63874 21.2348 9.19102 20.6825 9.19102H20.2275L22.1825 7.24816C22.6407 7.4889 23.1627 7.62552 23.716 7.62552C25.5423 7.62552 27.0201 6.14304 27.0201 4.31768C27.0201 2.49233 25.5423 1.00985 23.716 1.00985C21.8897 1.00985 20.4119 2.49233 20.4119 4.31768C20.4119 4.86095 20.5432 5.37431 20.7753 5.82692L17.7642 8.81942C17.6551 8.92786 17.5762 9.05523 17.5276 9.19102H14.6483L13.1258 7.8666C12.9438 7.70829 12.7107 7.62109 12.4695 7.62109H8.9857C8.94479 7.54956 8.89431 7.48196 8.83422 7.42014L7.93769 6.49764L7.28804 5.84799C7.52333 5.39159 7.65615 4.87375 7.65615 4.32509C7.65615 2.49021 6.17064 1 4.33479 1Z" stroke="none"></path></svg>