<svg width="48" height="48" viewBox="0 0 29 29" fill="#e6007a" xmlns="http://www.w3.org/2000/svg" stroke-width="2" stroke-linecap="round" stroke-linejoin="round" stroke="#e6007a"><g><path fill-rule="evenodd" clip-rule="evenodd" d="M25.2965 1.24463C23.3905 1.24463 21.8482 2.79179 21.8482 4.69693C21.8482 5.2818 21.9935 5.83294 22.2501 6.31593L20.2754 8.2953C18.8161 7.47201 16.9714 6.99805 14.9961 6.99805C13.0224 6.99805 11.1791 7.47124 9.72044 8.29328L7.78043 6.34741C8.0396 5.861 8.18646 5.30566 8.18646 4.71624C8.18646 2.80098 6.63589 1.24561 4.71979 1.24561C2.80369 1.24561 1.25313 2.80098 1.25313 4.71624C1.25313 6.6315 2.80369 8.18687 4.71979 8.18687C5.31841 8.18687 5.88134 8.03506 6.37247 7.7679L8.10513 9.50581C7.17865 10.4364 6.57971 11.6093 6.57971 12.9423C6.57971 13.0556 6.58404 13.1677 6.59252 13.2786C6.58409 13.3309 6.57971 13.3845 6.57971 13.4391V16.8098C6.57971 18.2359 7.26412 19.4267 8.29622 20.3247L6.39702 22.2283C5.89994 21.9533 5.32821 21.7966 4.71967 21.7966C2.80039 21.7966 1.24725 23.3546 1.24725 25.273C1.24725 27.1915 2.80039 28.7494 4.71967 28.7494C6.63894 28.7494 8.19208 27.1915 8.19208 25.273C8.19208 24.6904 8.04881 24.1409 7.79551 23.6583L10.0209 21.4278C11.4342 22.0902 13.1644 22.4451 14.9961 22.4451C16.8285 22.4451 18.5593 22.09 19.9729 21.4271L22.2438 23.6981C21.9911 24.1778 21.8482 24.7242 21.8482 25.3039C21.8482 27.2064 23.3884 28.7514 25.2917 28.7514C27.1951 28.7514 28.7353 27.2064 28.7353 25.3039C28.7353 23.4014 27.1951 21.8564 25.2917 21.8564C24.6962 21.8564 24.1363 22.0076 23.6479 22.2737L21.6976 20.3233C22.7288 19.4254 23.4125 18.2352 23.4125 16.8098V13.4391C23.4125 13.3845 23.4081 13.3309 23.3997 13.2786C23.4082 13.1677 23.4125 13.0556 23.4125 12.9423C23.4125 11.6107 22.8148 10.4389 21.8899 9.50868L23.6587 7.73581C24.1458 7.99948 24.7036 8.14922 25.2965 8.14922C27.2025 8.14922 28.7449 6.60206 28.7449 4.69693C28.7449 2.79179 27.2025 1.24463 25.2965 1.24463ZM8.57972 16.8114C8.77581 16.974 8.98228 17.1272 9.19722 17.2705C10.7251 18.2891 12.7782 18.8866 14.9961 18.8866C17.214 18.8866 19.2671 18.2891 20.795 17.2705C21.0099 17.1272 21.2164 16.974 21.4125 16.8114C21.4119 17.7184 20.8701 18.5969 19.7201 19.2974C18.5674 19.9995 16.9031 20.4451 14.9961 20.4451C13.0891 20.4451 11.4248 19.9995 10.2721 19.2974C9.12209 18.5969 8.58035 17.7184 8.57972 16.8114Z" stroke="none"></path></g></svg>