<svg width="48" height="48" viewBox="0 0 29 29" fill="#e6007a" xmlns="http://www.w3.org/2000/svg" stroke-width="2" stroke-linecap="round" stroke-linejoin="round" stroke="#e6007a"><path fill-rule="evenodd" clip-rule="evenodd" d="M8.60451 5.4665C8.79439 5.24948 9.06872 5.125 9.35708 5.125H26.0527C26.605 5.125 27.0527 5.57272 27.0527 6.125V22.8207C27.0527 23.3729 26.605 23.8207 26.0527 23.8207H9.35708C9.06872 23.8207 8.79439 23.6962 8.60451 23.4792L1.30016 15.1313C0.97026 14.7543 0.97026 14.1913 1.30016 13.8143L8.60451 5.4665ZM21.5556 18.6709C21.9482 18.2825 21.9516 17.6493 21.5632 17.2567L18.8849 14.5493L21.5908 11.8725C21.9834 11.4841 21.9869 10.8509 21.5984 10.4583C21.21 10.0657 20.5769 10.0622 20.1843 10.4506L17.4784 13.1274L14.8019 10.4219C14.4135 10.0293 13.7804 10.0258 13.3877 10.4142C12.9951 10.8026 12.9917 11.4358 13.3801 11.8284L16.0565 14.534L13.3495 17.2119C12.9568 17.6003 12.9534 18.2335 13.3418 18.6261C13.7302 19.0188 14.3634 19.0222 14.756 18.6338L17.4631 15.9558L20.1414 18.6632C20.5298 19.0559 21.1629 19.0593 21.5556 18.6709Z" stroke="none"></path></svg>