<svg width="48" height="48" viewBox="0 0 28 28" fill="#e6007a" xmlns="http://www.w3.org/2000/svg" stroke-width="2" stroke-linecap="round" stroke-linejoin="round" stroke="#e6007a"><path d="M17.4073 14.0779C17.4073 12.8246 17.4246 8.15076 17.4355 5.31269C17.4403 4.07636 16.4394 3.07286 15.2031 3.07286C13.9702 3.07286 12.9708 4.07226 12.9708 5.30509L12.9708 11.4237L12.9707 3.94594C12.9707 2.87123 11.9692 2 10.7339 2C9.49861 2 8.49719 2.87122 8.49719 3.94593L8.49719 7.09448C8.49719 6.01976 7.47206 5.14854 6.23674 5.14854C5.00142 5.14854 4 6.01976 4 7.09448L4 11.9943L4.00004 15.3687C4.00013 19.1459 7.76403 20.6571 7.76403 20.6571L7.76403 26L16.0785 26L16.0785 20.6571C16.0785 20.6571 17.3382 20.3811 20.3229 18.1508C23.0038 16.1475 23.4183 14.1302 23.4749 13.7403C23.4815 13.6948 23.4831 13.6499 23.4831 13.6038C23.4831 11.9579 21.3989 11.1732 20.2377 12.3396C18.791 13.7928 17.4073 14.9538 17.4073 14.0779Z" stroke="none"></path><path fill-rule="evenodd" clip-rule="evenodd" d="M7.49719 3.94593C7.49719 2.19269 9.08165 1 10.7339 1C11.8817 1 12.9968 1.57555 13.5707 2.51474C14.0498 2.23387 14.6076 2.07286 15.2031 2.07286C16.9925 2.07286 18.4424 3.5257 18.4355 5.31654C18.4271 7.4892 18.4151 10.7342 18.4099 12.6989C18.7449 12.4032 19.1258 12.039 19.529 11.6341C21.2587 9.89654 24.4831 10.9807 24.4831 13.6038C24.4831 13.6711 24.4811 13.7701 24.4645 13.884C24.3763 14.4916 23.8482 16.7649 20.9215 18.9519C19.3919 20.0948 18.2816 20.7541 17.5326 21.1328C17.3633 21.2183 17.2122 21.2897 17.0785 21.3492L17.0785 26C17.0785 26.2652 16.9732 26.5196 16.7856 26.7071C16.5981 26.8946 16.3438 27 16.0785 27L7.76403 27C7.49882 27 7.24446 26.8946 7.05693 26.7071C6.86939 26.5196 6.76403 26.2652 6.76403 26L6.76403 21.2775C6.73718 21.2626 6.70967 21.2472 6.68155 21.2312C6.28223 21.0041 5.74867 20.6564 5.21178 20.1715C4.13626 19.2 3.0001 17.6279 3.00004 15.3688L3 7.09448C3 5.34124 4.58447 4.14854 6.23674 4.14854C6.6677 4.14854 7.09761 4.23025 7.49719 4.38285L7.49719 3.94593ZM7.49719 7.09448C7.49719 6.71082 7.06961 6.14854 6.23674 6.14854C5.41838 6.14854 5 6.69829 5 7.09448L5.00004 15.3687C5.00008 16.8867 5.74591 17.9588 6.55236 18.6873C6.95646 19.0522 7.36388 19.3184 7.67029 19.4927C7.82251 19.5793 7.94705 19.6416 8.03 19.6808C8.0714 19.7004 8.10219 19.7141 8.1206 19.7222L8.138 19.7296C8.13883 19.73 8.139 19.73 8.13982 19.7304C8.51704 19.8833 8.76403 20.2498 8.76403 20.6571L8.76403 25L15.0785 25L15.0785 20.6571C15.0785 20.1936 15.3969 19.7917 15.8461 19.6844C15.8468 19.6842 15.8477 19.684 15.8487 19.6837C15.8504 19.6832 15.8525 19.6826 15.8551 19.6819C15.8734 19.6764 15.9134 19.6639 15.9761 19.6408C16.1017 19.5945 16.3172 19.5061 16.6303 19.3478C17.2573 19.0309 18.2691 18.4371 19.7243 17.3498C22.1035 15.5719 22.4454 13.8496 22.4831 13.611C22.4831 13.6091 22.4831 13.6067 22.4831 13.6038C22.4831 13.2547 22.2761 12.9809 21.937 12.8505C21.5921 12.7179 21.2129 12.7774 20.9464 13.0451C20.2216 13.7732 19.4572 14.4861 18.8468 14.906C18.6896 15.0142 18.5221 15.1174 18.352 15.1986C18.1952 15.2734 17.9657 15.3641 17.7011 15.3787C17.4043 15.395 16.996 15.3113 16.6985 14.9511C16.443 14.6416 16.4073 14.2869 16.4073 14.0779C16.4073 12.8221 16.4246 8.14552 16.4355 5.30884C16.4381 4.62701 15.8863 4.07286 15.2031 4.07286C14.5225 4.07286 13.9708 4.62455 13.9708 5.30509L13.9708 11.4237C13.9708 11.9759 13.5231 12.4237 12.9708 12.4237C12.4185 12.4237 11.9708 11.976 11.9708 11.4237L11.9707 3.94596C11.9707 3.54978 11.5523 3 10.7339 3C9.91557 3 9.49719 3.54975 9.49719 3.94594L9.49719 11.4237C9.49719 11.976 9.04947 12.4237 8.49719 12.4237C7.9449 12.4237 7.49719 11.976 7.49719 11.4237L7.49719 7.09448ZM15.8609 19.681C15.8613 19.681 15.8606 19.6811 15.8609 19.681V19.681ZM15.8634 19.6805C15.8634 19.6805 15.8634 19.6805 15.8634 19.6805V19.6805Z" stroke="none"></path></svg>