<svg width="48" height="48" viewBox="0 0 28 28" fill="#e6007a" xmlns="http://www.w3.org/2000/svg" stroke-width="2" stroke-linecap="round" stroke-linejoin="round" stroke="#e6007a"><path fill-rule="evenodd" clip-rule="evenodd" d="M5.13824 3.41392C4.82564 3.52768 4.53855 3.70192 4.29337 3.92667L4.28556 3.93383L4.28552 3.93379C3.78628 4.38179 3.48528 5.00986 3.4488 5.68018C3.41243 6.34856 3.64205 7.00442 4.08751 7.50444C4.31178 7.74799 4.58153 7.94531 4.88153 8.08524C5.18332 8.226 5.50979 8.30593 5.84229 8.32051C6.17479 8.33508 6.50682 8.28401 6.81943 8.17025C7.13204 8.05649 7.41912 7.88225 7.6643 7.6575L7.67182 7.6506L7.67186 7.65064C8.17094 7.20243 8.47182 6.5743 8.50829 5.90397C8.54466 5.23562 8.31522 4.57978 7.87003 4.07958C7.64579 3.8361 7.37609 3.63884 7.07614 3.49893C6.77436 3.35817 6.44789 3.27824 6.11538 3.26366C5.78288 3.24909 5.45085 3.30016 5.13824 3.41392ZM2.94582 2.4488C3.38388 2.04817 3.8964 1.73752 4.45429 1.5345C5.01384 1.33087 5.60804 1.2395 6.20296 1.26558C6.79788 1.29166 7.38186 1.43467 7.92157 1.6864C8.46128 1.93814 8.94617 2.29369 9.34856 2.73274L9.3568 2.74172L9.35674 2.74177C9.83237 3.27359 10.1712 3.90454 10.3543 4.58056L25.0002 4.58288C25.5524 4.58297 26.0001 5.03075 26 5.58303C25.9999 6.13532 25.5521 6.58296 24.9998 6.58288L23.3253 6.58261L23.324 9.53782C23.3239 9.80317 23.2183 10.0576 23.0306 10.2451C22.8428 10.4325 22.5882 10.5377 22.3228 10.5374L17.4223 10.5315C16.8702 10.5308 16.423 10.0828 16.4235 9.53067L16.4258 6.58152L14.1898 6.58117L14.1898 19.5768L25.0002 19.5785C25.5524 19.5786 26.0001 20.0264 26 20.5786C25.9999 21.1309 25.5521 21.5786 24.9998 21.5785L23.3253 21.5782L23.324 24.5339C23.3239 24.7993 23.2183 25.0537 23.0306 25.2412C22.8428 25.4286 22.5882 25.5338 22.3228 25.5335L17.4223 25.5276C16.8702 25.5269 16.423 25.0789 16.4235 24.5268L16.4258 21.5771L10.4383 21.5762C10.2593 22.5568 9.7607 23.4569 9.01204 24.1308C8.57393 24.5315 8.06134 24.8422 7.50338 25.0453C6.94384 25.2489 6.34963 25.3403 5.75471 25.3142C5.15979 25.2881 4.57582 25.1451 4.03611 24.8934C3.4964 24.6416 3.01151 24.2861 2.60911 23.847L2.60114 23.8383L2.60119 23.8383C1.79996 22.9431 1.38649 21.7666 1.45176 20.5671C1.51693 19.3693 2.05417 18.2464 2.94582 17.4444C3.38388 17.0438 3.8964 16.7331 4.45429 16.5301C5.01384 16.3265 5.60804 16.2351 6.20296 16.2612C6.79788 16.2873 7.38186 16.4303 7.92157 16.682C8.46128 16.9337 8.94617 17.2893 9.34856 17.7283L9.3568 17.7373L9.35674 17.7374C9.83237 18.2692 10.1712 18.9001 10.3543 19.5762L12.1898 19.5765L12.1898 6.58085L10.4383 6.58058C10.2593 7.56121 9.7607 8.46132 9.01204 9.13521C8.57393 9.53591 8.06134 9.84662 7.50338 10.0497C6.94384 10.2533 6.34963 10.3447 5.75471 10.3186C5.15979 10.2925 4.57582 10.1495 4.03611 9.89777C3.4964 9.64603 3.01151 9.29048 2.60911 8.85143L2.60114 8.84274L2.60119 8.84269C1.79996 7.94751 1.38649 6.77101 1.45176 5.57151C1.51693 4.37374 2.05417 3.25082 2.94582 2.4488ZM4.29337 18.9223C4.53855 18.6975 4.82564 18.5233 5.13824 18.4095C5.45085 18.2958 5.78288 18.2447 6.11538 18.2593C6.44789 18.2738 6.77436 18.3538 7.07614 18.4945C7.37609 18.6344 7.64579 18.8317 7.87003 19.0752C8.31522 19.5754 8.54466 20.2312 8.50829 20.8996C8.47182 21.5699 8.17094 22.198 7.67186 22.6462L7.67182 22.6462L7.6643 22.6531C7.41912 22.8779 7.13204 23.0521 6.81943 23.1659C6.50682 23.2796 6.17479 23.3307 5.84229 23.3161C5.50979 23.3015 5.18332 23.2216 4.88153 23.0808C4.58153 22.9409 4.31178 22.7436 4.08751 22.5C3.64205 22 3.41243 21.3442 3.4488 20.6758C3.48528 20.0055 3.78628 19.3774 4.28552 18.9294L4.28556 18.9294L4.29337 18.9223Z" stroke="none"></path></svg>