<svg width="48" height="48" viewBox="0 0 28 28" fill="#e6007a" xmlns="http://www.w3.org/2000/svg" stroke-width="2" stroke-linecap="round" stroke-linejoin="round" stroke="#e6007a"><path fill-rule="evenodd" clip-rule="evenodd" d="M7.74806 7C7.74806 6.44772 7.30034 6 6.74806 6H2C1.44772 6 1 6.44772 1 7V11.7481C1 12.3003 1.44772 12.7481 2 12.7481H6.14185L10.9569 20.3316C10.5316 20.9511 10.2828 21.7012 10.2828 22.5094C10.2828 24.6372 12.0077 26.3621 14.1354 26.3621C16.2632 26.3621 17.9881 24.6372 17.9881 22.5094C17.9881 21.6997 17.7383 20.9484 17.3116 20.3282L22.1791 12.7481H26C26.5523 12.7481 27 12.3003 27 11.7481V7C27 6.44772 26.5523 6 26 6H21.2519C20.6997 6 20.2519 6.44772 20.2519 7V11.7481C20.2519 11.8345 20.2629 11.9185 20.2836 11.9985L15.7738 19.0215C15.5608 18.9212 15.3371 18.8399 15.1048 18.7798V12.7481H16.5096C17.0618 12.7481 17.5096 12.3003 17.5096 11.7481V7C17.5096 6.44772 17.0618 6 16.5096 6H11.7615C11.2092 6 10.7615 6.44772 10.7615 7V11.7481C10.7615 12.3003 11.2092 12.7481 11.7615 12.7481H13.1048V18.7962C12.8937 18.8546 12.6898 18.9307 12.4948 19.0225L7.74806 11.5466V7Z" stroke="none"></path></svg>