<svg width="48" height="48" viewBox="0 0 28 28" fill="#e6007a" xmlns="http://www.w3.org/2000/svg" stroke-width="2" stroke-linecap="round" stroke-linejoin="round" stroke="#e6007a"><path fill-rule="evenodd" clip-rule="evenodd" d="M10.2323 4.77028C10.2323 2.68824 11.9198 1 14.0019 1C16.084 1 17.7715 2.68824 17.7715 4.77028C17.7715 5.09749 17.7298 5.41497 17.6515 5.71771L21.0306 9.09763C21.6501 8.6507 22.4109 8.38736 23.2332 8.38736C25.3154 8.38736 27.0028 10.0756 27.0028 12.1576C27.0028 14.1351 25.4806 15.7574 23.5437 15.9153L22.4265 20.0155C23.5054 20.6789 24.2247 21.8704 24.2247 23.2297C24.2247 25.3118 22.5372 27 20.4551 27C18.7864 27 17.3711 25.9156 16.8749 24.4131H11.0512C10.5521 25.9105 9.13937 26.9903 7.47419 26.9903C5.39207 26.9903 3.70459 25.3021 3.70459 23.2201C3.70459 21.8587 4.42608 20.6657 5.50761 20.0029L4.39874 15.9099C2.49073 15.7236 1 14.1145 1 12.1576C1 10.0756 2.68747 8.38736 4.7696 8.38736C5.59094 8.38736 6.35088 8.65007 6.97004 9.09603L10.3513 5.7139C10.2736 5.41231 10.2323 5.09612 10.2323 4.77028ZM6.3783 15.5683L7.42994 19.4501C7.44467 19.4499 7.45942 19.4498 7.47419 19.4498C9.27932 19.4498 10.7878 20.7187 11.1572 22.4131H16.7742C17.1472 20.7236 18.6534 19.4594 20.4551 19.4594C20.466 19.4594 20.4769 19.4595 20.4877 19.4596C20.4935 19.4596 20.4993 19.4597 20.505 19.4598L21.5722 15.5431C20.3232 14.9289 19.4636 13.6436 19.4636 12.1576C19.4636 11.6277 19.573 11.1233 19.7703 10.6658L16.6037 7.49848C15.9272 8.14409 15.0109 8.54055 14.0019 8.54055C12.9917 8.54055 12.0744 8.14313 11.3976 7.49613L8.23142 10.6631C8.42946 11.1214 8.53919 11.6267 8.53919 12.1576C8.53919 13.6642 7.65562 14.9646 6.3783 15.5683Z" stroke="none"></path></svg>