<svg width="48" height="48" viewBox="0 0 28 28" fill="#e6007a" xmlns="http://www.w3.org/2000/svg" stroke-width="2" stroke-linecap="round" stroke-linejoin="round" stroke="#e6007a"><path fill-rule="evenodd" clip-rule="evenodd" d="M25.7369 25.3243C26.1101 25.7314 26.0826 26.364 25.6755 26.7371C25.2684 27.1103 24.6358 27.0828 24.2626 26.6757L17.6822 19.4971H16.4965C15.9442 19.4971 15.4965 19.0494 15.4965 18.4971C15.4965 18.1337 15.6904 17.8156 15.9803 17.6405L13.3182 14.7363H7.86176C7.30947 14.7363 6.86176 14.2886 6.86176 13.7363C6.86176 13.184 7.30947 12.7363 7.86176 12.7363H11.4848L8.97645 9.99991H6.72972C4.66981 9.99991 2.99992 11.6698 2.99992 13.7297C2.99992 15.7896 4.66981 17.4595 6.72972 17.4595H11.4498C12.0021 17.4595 12.4498 17.9072 12.4498 18.4595C12.4498 19.0118 12.0021 19.4595 11.4498 19.4595H6.72972C3.56524 19.4595 0.999923 16.8942 0.999923 13.7297C0.999923 10.5652 3.56524 7.99991 6.72972 7.99991H7.14312L2.26261 2.67572C1.88942 2.2686 1.91692 1.63603 2.32404 1.26284C2.73116 0.889647 3.36372 0.91715 3.73692 1.32427L9.85625 7.99991H11.4498C12.0021 7.99991 12.4498 8.44762 12.4498 8.99991C12.4498 9.47734 12.1152 9.87662 11.6678 9.97609L14.198 12.7363H20.1081C20.6604 12.7363 21.1081 13.184 21.1081 13.7363C21.1081 14.2886 20.6604 14.7363 20.1081 14.7363H16.0313L18.562 17.4971H21.2701C23.33 17.4971 24.9999 15.8272 24.9999 13.7673C24.9999 11.7074 23.33 10.0375 21.2701 10.0375H16.4965C15.9442 10.0375 15.4965 9.58976 15.4965 9.03748C15.4965 8.48519 15.9442 8.03748 16.4965 8.03748H21.2701C24.4346 8.03748 26.9999 10.6028 26.9999 13.7673C26.9999 16.9318 24.4346 19.4971 21.2701 19.4971H20.3953L25.7369 25.3243Z" stroke="none"></path></svg>