<svg width="48" height="48" viewBox="0 0 28 28" fill="#e6007a" xmlns="http://www.w3.org/2000/svg" stroke-width="2" stroke-linecap="round" stroke-linejoin="round" stroke="#e6007a"><path fill-rule="evenodd" clip-rule="evenodd" d="M20.4313 1.29289C20.2438 1.10536 19.9894 1 19.7242 1H9.22418C8.6719 1 8.22418 1.44772 8.22418 2V4H2.99994C2.44765 4 1.99994 4.44772 1.99994 5V26C1.99994 26.5523 2.44765 27 2.99994 27H19.1538C19.7061 27 20.1538 26.5523 20.1538 26V24H25.378C25.9303 24 26.378 23.5523 26.378 23V7.65385C26.378 7.38863 26.2727 7.13428 26.0851 6.94674L20.4313 1.29289ZM20.1538 22H24.378V8.65386H19.7242C19.1719 8.65386 18.7242 8.20614 18.7242 7.65386V3H10.2242V4H12.5V10.6538C12.5 11.2061 12.9477 11.6538 13.5 11.6538H20C20.0523 11.6538 20.1037 11.6498 20.1538 11.6421V22ZM20.7242 6.65386V4.41422L22.9638 6.65386H20.7242ZM14.5 4.58581L19.568 9.65384H14.5V4.58581ZM5.13055 17.9624C5.13055 18.5147 5.57827 18.9624 6.13055 18.9624H15.8128C16.3651 18.9624 16.8128 18.5147 16.8128 17.9624C16.8128 17.4101 16.3651 16.9624 15.8128 16.9624H6.13055C5.57827 16.9624 5.13055 17.4101 5.13055 17.9624ZM5.13055 21.1899C5.13055 20.6377 5.57827 20.1899 6.13055 20.1899H15.8128C16.3651 20.1899 16.8128 20.6377 16.8128 21.1899C16.8128 21.7422 16.3651 22.1899 15.8128 22.1899H6.13055C5.57827 22.1899 5.13055 21.7422 5.13055 21.1899Z" stroke="none"></path></svg>