<svg width="48" height="48" viewBox="0 0 28 28" fill="#e6007a" xmlns="http://www.w3.org/2000/svg" stroke-width="2" stroke-linecap="round" stroke-linejoin="round" stroke="#e6007a"><path fill-rule="evenodd" clip-rule="evenodd" d="M20.7234 16.6282C21.114 16.2378 21.1142 15.6047 20.7238 15.214C20.3333 14.8234 19.7002 14.8233 19.3095 15.2137L15.4865 19.0348V2C15.4865 1.44772 15.0388 1 14.4865 1C13.9342 1 13.4865 1.44772 13.4865 2V19.0369L9.65823 15.215C9.26738 14.8248 8.63422 14.8253 8.24402 15.2162C7.85383 15.607 7.85436 16.2402 8.24521 16.6304L13.78 22.1559C14.1705 22.5458 14.8031 22.5456 15.1934 22.1555L20.7234 16.6282ZM7 23.5C7 22.9477 6.55228 22.5 6 22.5C5.44772 22.5 5 22.9477 5 23.5V26C5 26.2652 5.10536 26.5196 5.29289 26.7071C5.48043 26.8946 5.73478 27 6 27H22.706C23.2583 27 23.706 26.5523 23.706 26V23.5C23.706 22.9477 23.2583 22.5 22.706 22.5C22.1537 22.5 21.706 22.9477 21.706 23.5V25H7V23.5Z" stroke="none"></path></svg>