<svg width="48" height="48" viewBox="0 0 28 28" fill="#e6007a" xmlns="http://www.w3.org/2000/svg" stroke-width="2" stroke-linecap="round" stroke-linejoin="round" stroke="#e6007a"><path fill-rule="evenodd" clip-rule="evenodd" d="M18.1453 2.69745C18.4657 2.36818 18.5205 1.86298 18.2782 1.47267C18.0359 1.08236 17.5588 0.907349 17.1216 1.04839L3.83588 5.3341C3.31027 5.50366 3.02162 6.0672 3.19117 6.59281C3.36073 7.11843 3.92427 7.40707 4.44989 7.23752L13.9051 4.18744L1.2833 17.1599C0.996184 17.455 0.919276 17.8959 1.08953 18.2708C1.25978 18.6456 1.64239 18.8778 2.05352 18.8558L5.28848 18.6825L3.85323 24.655C3.77192 24.9934 3.87237 25.3497 4.11844 25.5957C4.36452 25.8418 4.72083 25.9423 5.05921 25.861L11.3696 24.3445C11.5488 24.3014 11.7127 24.2097 11.843 24.0793L17.9163 18.006L23.1826 17.7239L18.0527 22.2503C17.6386 22.6157 17.5991 23.2476 17.9645 23.6617C18.3299 24.0758 18.9618 24.1153 19.3759 23.7499L26.6616 17.3214C26.9808 17.0397 27.0867 16.5869 26.9256 16.193C26.7645 15.799 26.3716 15.5502 25.9465 15.573L20.0326 15.8898L20.254 15.6683L14.0459 9.46014L6.91346 16.5926L4.49993 16.7219L18.1453 2.69745ZM15.4601 8.04593L21.6683 14.2541L24.366 11.5564C24.7565 11.1658 24.7565 10.5327 24.366 10.1422L19.572 5.34822C19.1815 4.9577 18.5483 4.9577 18.1578 5.34822L15.4601 8.04593Z" stroke="none"></path></svg>