<svg width="48" height="48" viewBox="0 0 28 28" fill="#e6007a" xmlns="http://www.w3.org/2000/svg" stroke-width="2" stroke-linecap="round" stroke-linejoin="round" stroke="#e6007a"><path fill-rule="evenodd" clip-rule="evenodd" d="M14 3L14.8009 2.40124C14.6121 2.14871 14.3153 2 14 2C13.6847 2 13.3879 2.14871 13.1991 2.40124C13.1992 2.40106 13.1991 2.40124 14 3ZM14 3L13.1991 2.40124L13.1927 2.40984L13.1763 2.43191L13.1149 2.51523C13.0617 2.58778 12.9845 2.69386 12.8867 2.83022C12.6911 3.1029 12.4129 3.49699 12.0796 3.9866C11.4137 4.96484 10.5246 6.32927 9.63399 7.87175C8.74493 9.41154 7.84468 11.1454 7.16423 12.8605C6.49003 14.5598 6 16.3178 6 17.8836C6 20.8204 6.80098 23.1207 8.27024 24.6943C9.74514 26.2738 11.7809 27 14 27C16.2191 27 18.2549 26.2738 19.7298 24.6943C21.199 23.1207 22 20.8204 22 17.8836C22 16.3178 21.51 14.5598 20.8358 12.8605C20.1553 11.1454 19.2551 9.41154 18.366 7.87175C17.4754 6.32927 16.5863 4.96484 15.9204 3.9866C15.5871 3.49699 15.3089 3.1029 15.1133 2.83022C15.0155 2.69386 14.9383 2.58778 14.8851 2.51523L14.8237 2.43191L14.8073 2.40984L14.8016 2.40211C14.8014 2.40193 14.8009 2.40124 14 3Z" stroke="none"></path></svg>