<svg width="48" height="48" viewBox="0 0 28 28" fill="#e6007a" xmlns="http://www.w3.org/2000/svg" stroke-width="2" stroke-linecap="round" stroke-linejoin="round" stroke="#e6007a"><path fill-rule="evenodd" clip-rule="evenodd" d="M2.75007 15.3417C2.84357 17.3203 3.3924 19.4001 4.37805 21.0682C3.9533 21.6784 3.70428 22.4202 3.70428 23.22C3.70428 25.3019 5.3915 26.9903 7.47355 26.9903C8.56083 26.9903 9.54043 26.5298 10.2283 25.7934C11.4092 26.2103 12.679 26.4368 13.9998 26.4368C15.2974 26.4368 16.5459 26.2182 17.7093 25.8151C18.3966 26.5446 19.3715 27 20.4529 27C22.5349 27 24.2221 25.3117 24.2221 23.2297C24.2221 22.4472 23.9837 21.7203 23.5756 21.1177C24.5833 19.4497 25.2874 17.3808 25.3274 15.2911C26.3362 14.6145 27 13.4634 27 12.1575C27 10.0756 25.3128 8.38721 23.2308 8.38721C23.1953 8.38721 23.1599 8.3877 23.1247 8.38867C21.79 6.59446 19.8844 5.19746 17.7543 4.42645C17.5807 2.5056 15.9666 1 14.0005 1C12.0349 1 10.4212 2.50475 10.2468 4.42482C8.19363 5.16655 6.35541 6.48357 5.03068 8.18631L4.87328 8.38861C4.83872 8.38768 4.80405 8.38721 4.76927 8.38721C2.68722 8.38721 1 10.0756 1 12.1575C1 13.4965 1.69798 14.6728 2.75007 15.3417ZM22.0272 19.8031C22.6823 18.6378 23.1481 17.284 23.2865 15.9273L23.2556 15.9277L23.2308 15.9278C21.1487 15.9278 19.4615 14.2394 19.4615 12.1575C19.4615 10.8694 20.1073 9.73202 21.0929 9.05188C20.1041 7.91446 18.8151 7.00065 17.3873 6.42685C16.7743 7.67853 15.4882 8.54055 14.0005 8.54055C12.5121 8.54055 11.2256 7.67781 10.6128 6.42528C9.18113 6.99932 7.89425 7.9112 6.90696 9.05176C7.89264 9.73188 8.53854 10.8693 8.53854 12.1575C8.53854 14.229 6.86821 15.9108 4.80058 15.9276C4.94819 17.298 5.34343 18.6569 5.94353 19.7733C6.41108 19.5653 6.9288 19.4497 7.47355 19.4497C9.5556 19.4497 11.2428 21.1381 11.2428 23.22C11.2428 23.4866 11.2152 23.7467 11.1625 23.9976C12.0563 24.2827 13.0093 24.4368 13.9998 24.4368C14.9644 24.4368 15.8933 24.2907 16.7665 24.0198C16.7122 23.765 16.6836 23.5007 16.6836 23.2297C16.6836 21.1478 18.3708 19.4595 20.4529 19.4595C21.0149 19.4595 21.5482 19.5825 22.0272 19.8031Z" stroke="none"></path></svg>