<svg width="48" height="48" viewBox="0 0 28 29" fill="#e6007a" xmlns="http://www.w3.org/2000/svg" stroke-width="2" stroke-linecap="round" stroke-linejoin="round" stroke="#e6007a"><g><path fill-rule="evenodd" clip-rule="evenodd" d="M4.45326 22.0323C3.4428 20.3282 2.88074 18.1996 2.78654 16.1747C1.71298 15.4967 0.999939 14.2996 0.999939 12.936C0.999939 10.8221 2.71363 9.1084 4.82758 9.1084C4.86791 9.1084 4.90809 9.10902 4.94812 9.11026C6.31131 7.26723 8.25753 5.84374 10.4404 5.05814C10.6115 3.10244 12.2533 1.56836 14.2534 1.56836C16.254 1.56836 17.8961 3.10325 18.0664 5.0597C20.2457 5.84539 22.196 7.27382 23.5596 9.1102C23.599 9.10901 23.6385 9.1084 23.6782 9.1084C25.7921 9.1084 27.5058 10.8221 27.5058 12.936C27.5058 14.2659 26.8276 15.4373 25.7983 16.1234C25.7597 18.258 25.0399 20.3748 24.0054 22.0825C24.4244 22.6964 24.6694 23.4385 24.6694 24.2378C24.6694 26.3517 22.9557 28.0654 20.8418 28.0654C19.7388 28.0654 18.7448 27.5989 18.0463 26.8524C16.8571 27.2659 15.5803 27.4902 14.2528 27.4902C12.9017 27.4902 11.6031 27.2578 10.396 26.8301C9.69693 27.5839 8.69799 28.0557 7.58887 28.0557C5.47492 28.0557 3.76123 26.342 3.76123 24.228C3.76123 23.4111 4.01718 22.6539 4.45326 22.0323ZM23.7586 16.7628C23.6191 18.1669 23.136 19.5671 22.4582 20.7672C22.0259 20.5655 21.5497 20.4422 21.0478 20.4156C20.6393 19.21 19.6575 18.2473 18.3798 17.8925L17.0701 17.5288L17.2825 17.2738C18.4862 15.8288 18.3898 13.7045 17.0603 12.3744C15.6397 10.9533 13.3359 10.9533 11.9153 12.3744C10.5858 13.7045 10.4894 15.8288 11.6931 17.2738L11.9057 17.529L10.6005 17.8918C9.3227 18.2468 8.34086 19.2098 7.93246 20.4156C7.81928 20.4055 7.70468 20.4004 7.58887 20.4004C7.02889 20.4004 6.497 20.5206 6.01761 20.7367C5.39481 19.5851 4.98603 18.1794 4.83625 16.7637C6.94621 16.759 8.65522 15.0471 8.65522 12.936C8.65522 11.6199 7.99092 10.4589 6.97932 9.77002C7.99554 8.59058 9.32468 7.64837 10.8047 7.0586C11.4235 8.3398 12.7352 9.22364 14.2534 9.22364C15.7709 9.22364 17.0822 8.34049 17.7013 7.0601C19.1772 7.64961 20.5087 8.59382 21.5265 9.76998C20.5149 10.4588 19.8505 11.6199 19.8505 12.936C19.8505 15.05 21.5642 16.7637 23.6782 16.7637C23.705 16.7637 23.7319 16.7634 23.7586 16.7628ZM9.80983 21.1103C9.99875 20.4939 10.4904 19.9981 11.136 19.8187L12.8864 19.3323C14.0764 19.0016 14.5287 17.553 13.7381 16.604L13.2298 15.9938C12.688 15.3433 12.7314 14.3871 13.3298 13.7884C13.9693 13.1487 15.0063 13.1487 15.6458 13.7884C16.2442 14.3871 16.2876 15.3433 15.7458 15.9938L15.2376 16.6039C14.447 17.553 14.8994 19.0017 16.0896 19.3322L17.8447 19.8196C18.3946 19.9723 18.8328 20.3546 19.0672 20.8455C17.8468 21.4852 17.0142 22.7643 17.0142 24.2378C17.0142 24.5194 17.0446 24.7938 17.1023 25.0581C16.2033 25.3388 15.2465 25.4902 14.2528 25.4902C13.2326 25.4902 12.2512 25.3306 11.3312 25.0352C11.3871 24.775 11.4165 24.5049 11.4165 24.228C11.4165 22.9421 10.7824 21.8043 9.80983 21.1103Z" stroke="none"></path></g></svg>