<svg width="48" height="48" viewBox="0 0 28 28" fill="#e6007a" xmlns="http://www.w3.org/2000/svg" stroke-width="2" stroke-linecap="round" stroke-linejoin="round" stroke="#e6007a"><path fill-rule="evenodd" clip-rule="evenodd" d="M20.8362 1.29289C20.4456 0.902369 19.8125 0.902369 19.4219 1.29289L15.8145 4.90039L23.0996 12.1856L26.7071 8.57807C27.0977 8.18755 27.0977 7.55439 26.7071 7.16386L20.8362 1.29289ZM21.6854 13.5998L14.4002 6.3146L10.0471 10.6678L3.04427 3.665C2.65374 3.27447 2.02058 3.27447 1.63005 3.665C1.23953 4.05552 1.23953 4.68869 1.63005 5.07921L8.63284 12.082L4.08554 16.6293C3.95519 16.7597 3.8634 16.9235 3.82033 17.1027L1.96319 24.8309C1.88187 25.1692 1.98232 25.5255 2.2284 25.7716C2.47448 26.0177 2.83079 26.1182 3.16916 26.0368L10.8973 24.1797C11.0765 24.1366 11.2404 24.0448 11.3707 23.9145L15.918 19.3672L22.9801 26.4293C23.3706 26.8198 24.0038 26.8198 24.3943 26.4293C24.7849 26.0387 24.7849 25.4056 24.3943 25.0151L17.3322 17.953L21.6854 13.5998Z" stroke="none"></path></svg>