<svg width="48" height="48" viewBox="0 0 28 28" fill="#e6007a" xmlns="http://www.w3.org/2000/svg" stroke-width="2" stroke-linecap="round" stroke-linejoin="round" stroke="#e6007a"><path fill-rule="evenodd" clip-rule="evenodd" d="M10.8696 1C10.3173 1 9.86963 1.44772 9.86963 2V4.76318H5.77523C5.37085 4.76318 5.00627 5.00673 4.85144 5.3803L1.07712 14.4868C1.02681 14.6082 1.00092 14.7383 1.00092 14.8697V15.8765C1.00092 15.9502 1.0089 16.0221 1.02406 16.0913L1 25.9974C0.999358 26.263 1.10443 26.518 1.29204 26.706C1.47964 26.8941 1.73436 26.9998 2 26.9998H25.8716C26.4239 26.9998 26.8716 26.5521 26.8716 25.9998V15.9197C26.8722 15.9053 26.8725 15.8909 26.8725 15.8765V14.8706C26.8725 14.7404 26.8471 14.6114 26.7976 14.4909L23.0592 5.38345C22.9051 5.00821 22.5397 4.76318 22.1341 4.76318H18.0029V2C18.0029 1.44772 17.5552 1 17.0029 1H10.8696ZM11.8696 9.53185V3H16.0029V9.53185H11.8696ZM3.00243 24.9998L3.02216 16.8765H24.8716V24.9998H3.00243Z" stroke="none"></path></svg>