<svg width="48" height="48" viewBox="0 0 28 28" fill="#e6007a" xmlns="http://www.w3.org/2000/svg" stroke-width="2" stroke-linecap="round" stroke-linejoin="round" stroke="#e6007a"><path fill-rule="evenodd" clip-rule="evenodd" d="M13.5398 1C9.99494 1 7.1213 3.87364 7.12129 7.41846V7.41847L7.12128 8.66943H3C2.44772 8.66943 2 9.11715 2 9.66943V24.9999C2 25.5522 2.44772 25.9999 3 25.9999H24.0794C24.6317 25.9999 25.0794 25.5522 25.0794 24.9999V9.66943C25.0794 9.11715 24.6317 8.66943 24.0794 8.66943H19.9582L19.9582 7.41848C19.9582 3.87365 17.0846 1 13.5398 1ZM17.9582 8.66943H9.12128L9.12129 7.41848L8.12129 7.41847H9.12129C9.12129 4.97822 11.0995 3 13.5398 3C15.98 3 17.9582 4.97822 17.9582 7.41847L17.9582 8.66943ZM15.4301 11.6511C15.9535 11.8271 16.2352 12.3942 16.0591 12.9177L12.9066 22.2919C12.7306 22.8154 12.1635 23.097 11.64 22.921C11.1165 22.7449 10.8349 22.1779 11.0109 21.6544L14.1635 12.2801C14.3395 11.7567 14.9066 11.475 15.4301 11.6511ZM10.2351 15.7152C10.6592 15.3614 10.7163 14.7308 10.3625 14.3067C10.0087 13.8826 9.37811 13.8256 8.95401 14.1794L6.14728 16.5207C5.91938 16.7108 5.7877 16.9923 5.78784 17.2891C5.78799 17.5859 5.91995 17.8672 6.14804 18.0571L8.8602 20.315C9.28465 20.6683 9.91518 20.6107 10.2685 20.1862C10.6219 19.7618 10.5643 19.1313 10.1398 18.7779L8.34989 17.2878L10.2351 15.7152ZM18.238 14.2717C17.8137 13.9182 17.1831 13.9757 16.8296 14.4C16.4761 14.8243 16.5336 15.4549 16.9579 15.8084L18.7283 17.2833L16.8362 18.8564C16.4115 19.2094 16.3535 19.8399 16.7065 20.2646C17.0596 20.6893 17.6901 20.7474 18.1148 20.3943L20.9309 18.053C21.1593 17.8631 21.2915 17.5815 21.2916 17.2845C21.2918 16.9875 21.1599 16.7058 20.9317 16.5157L18.238 14.2717Z" stroke="none"></path></svg>