<svg width="48" height="48" viewBox="0 0 28 28" fill="#e6007a" xmlns="http://www.w3.org/2000/svg" stroke-width="2" stroke-linecap="round" stroke-linejoin="round" stroke="#e6007a"><path fill-rule="evenodd" clip-rule="evenodd" d="M17.0427 6.76327C15.4266 6.09189 13.6344 5.97168 11.9432 6.42124C10.2519 6.8708 8.75593 7.86507 7.68655 9.25028C6.76697 10.4415 6.20691 11.8646 6.06374 13.3528L7.74055 11.6303C8.12579 11.2346 8.7589 11.2261 9.15463 11.6113C9.55036 11.9966 9.55886 12.6297 9.17361 13.0254L5.85443 16.4349C5.46918 16.8307 4.83607 16.8392 4.44034 16.4539L1.03084 13.1347C0.635111 12.7495 0.626613 12.1164 1.01186 11.7206C1.39711 11.3249 2.03022 11.3164 2.42595 11.7017L4.0611 13.2935C4.21916 11.3837 4.9256 9.55379 6.10342 8.0281C7.44145 6.29491 9.31326 5.05086 11.4294 4.48836C13.5455 3.92587 15.788 4.07627 17.81 4.91631C19.4767 5.60873 20.917 6.73789 21.9848 8.17534C22.3141 8.6187 22.2217 9.24508 21.7783 9.57441C21.335 9.90373 20.7086 9.8113 20.3793 9.36794C19.5259 8.21909 18.3747 7.31665 17.0427 6.76327ZM22.1325 11.7024C22.5176 11.317 23.1403 11.3107 23.5331 11.6883L26.9314 14.9555C27.3295 15.3383 27.342 15.9713 26.9592 16.3694C26.5764 16.7676 25.9434 16.78 25.5453 16.3973L23.9191 14.8339C23.7672 16.7647 23.0549 18.6154 21.8617 20.1547C20.5147 21.8926 18.6306 23.1359 16.503 23.691C14.3755 24.246 12.1241 24.0815 10.0998 23.2231C8.45545 22.5258 7.03606 21.4025 5.98225 19.9789C5.65367 19.535 5.74715 18.9087 6.19105 18.5802C6.63496 18.2516 7.26118 18.345 7.58977 18.7889C8.432 19.9268 9.56642 20.8245 10.8806 21.3818C12.4984 22.0678 14.2978 22.1993 15.9982 21.7557C17.6986 21.3121 19.2044 20.3184 20.281 18.9295C21.2204 17.7175 21.7869 16.2639 21.9196 14.7455L20.2171 16.4498C19.8268 16.8405 19.1936 16.8408 18.8029 16.4505C18.4122 16.0602 18.4118 15.427 18.8022 15.0363L22.1325 11.7024ZM14.8035 10.5258C14.9698 9.99911 14.6776 9.43736 14.151 9.27105C13.6243 9.10474 13.0626 9.39686 12.8963 9.92351L11.6776 13.7826C11.5817 14.0865 11.6363 14.4179 11.8247 14.6749C12.013 14.9319 12.3126 15.0837 12.6312 15.0837H14.1318L13.2448 17.6118C13.062 18.1329 13.3362 18.7036 13.8573 18.8864C14.3785 19.0693 14.9492 18.7951 15.132 18.2739L16.4861 14.4148C16.5934 14.1089 16.5458 13.7699 16.3583 13.5054C16.1708 13.2409 15.8667 13.0837 15.5425 13.0837H13.9957L14.8035 10.5258Z" stroke="none"></path></svg>