<svg width="48" height="48" viewBox="0 0 28 28" fill="#e6007a" xmlns="http://www.w3.org/2000/svg" stroke-width="2" stroke-linecap="round" stroke-linejoin="round" stroke="#e6007a"><path fill-rule="evenodd" clip-rule="evenodd" d="M7.02344 26.4316C6.47115 26.4316 6.02344 25.9839 6.02344 25.4316V5.30664C6.02344 4.75436 6.47115 4.30664 7.02344 4.30664L9.73844 4.30664V2.43164C9.73844 1.87936 10.1862 1.43164 10.7384 1.43164H17.2913C17.5576 1.43164 17.813 1.53789 18.0007 1.72682C18.1884 1.91576 18.293 2.17177 18.2913 2.4381L18.2792 4.30664L20.9877 4.30664C21.54 4.30664 21.9877 4.75436 21.9877 5.30664L21.9877 25.4316C21.9877 25.9839 21.54 26.4316 20.9877 26.4316H7.02344ZM14.7386 10.0197C14.9049 9.49301 14.6128 8.93125 14.0861 8.76495C13.5595 8.59864 12.9977 8.89075 12.8314 9.4174L11.1306 14.8034C11.0346 15.1072 11.0892 15.4386 11.2776 15.6956C11.466 15.9526 11.7655 16.1045 12.0842 16.1045H14.7366L13.3139 20.1594C13.131 20.6805 13.4053 21.2512 13.9264 21.4341C14.4475 21.6169 15.0182 21.3427 15.2011 20.8216L17.0909 15.4356C17.1982 15.1297 17.1506 14.7907 16.9631 14.5262C16.7756 14.2617 16.4715 14.1045 16.1473 14.1045H13.4486L14.7386 10.0197Z" stroke="none"></path></svg>