<svg width="48" height="48" viewBox="0 0 29 29" fill="#e6007a" xmlns="http://www.w3.org/2000/svg" stroke-width="2" stroke-linecap="round" stroke-linejoin="round" stroke="#e6007a"><path fill-rule="evenodd" clip-rule="evenodd" d="M7.79767 1.56836C7.53245 1.56836 7.2781 1.67372 7.09056 1.86125C6.90303 2.04879 6.79767 2.30314 6.79767 2.56836V25.5684H4.54956C3.99728 25.5684 3.54956 26.0161 3.54956 26.5684C3.54956 27.1206 3.99728 27.5684 4.54956 27.5684L25.8959 27.5684C26.4482 27.5684 26.8959 27.1206 26.8959 26.5684C26.8959 26.0161 26.4482 25.5684 25.8959 25.5684H23.7057V2.56836C23.7057 2.01607 23.258 1.56836 22.7057 1.56836H7.79767ZM18.5428 25.5684V19.2744C18.5428 18.7221 18.0951 18.2744 17.5428 18.2744H12.9023C12.3501 18.2744 11.9023 18.7221 11.9023 19.2744V25.5684H18.5428Z" stroke="none"></path></svg>