<svg width="48" height="48" viewBox="0 0 28 28" fill="#e6007a" xmlns="http://www.w3.org/2000/svg" stroke-width="2" stroke-linecap="round" stroke-linejoin="round" stroke="#e6007a"><path fill-rule="evenodd" clip-rule="evenodd" d="M1 14C1 21.1797 6.8203 27 14 27C21.1797 27 27 21.1797 27 14C27 6.8203 21.1797 1 14 1C6.8203 1 1 6.8203 1 14ZM18.359 18.3725C18.7517 17.9841 18.7551 17.351 18.3667 16.9583L15.4158 13.9754L18.397 11.0262C18.7897 10.6378 18.7931 10.0046 18.4047 9.61197C18.0163 9.21934 17.3831 9.21592 16.9905 9.60433L14.0092 12.5535L11.0599 9.57208C10.6715 9.17945 10.0383 9.17603 9.64567 9.56444C9.25303 9.95284 9.24961 10.586 9.63802 10.9786L12.5874 13.9601L9.60422 16.9112C9.21159 17.2996 9.20817 17.9327 9.59658 18.3253C9.98498 18.718 10.6181 18.7214 11.0108 18.333L13.9939 15.3819L16.9448 18.3649C17.3332 18.7575 17.9664 18.7609 18.359 18.3725Z" stroke="none"></path></svg>