<svg width="48" height="48" viewBox="0 0 28 28" fill="#e6007a" xmlns="http://www.w3.org/2000/svg" stroke-width="2" stroke-linecap="round" stroke-linejoin="round" stroke="#e6007a"><path fill-rule="evenodd" clip-rule="evenodd" d="M10.4234 2C10.4234 1.44772 9.97569 1 9.4234 1C8.87112 1 8.4234 1.44772 8.4234 2V2.88281H10.4234V2ZM10.4234 2.88477V6.34171C10.4234 6.89399 9.97569 7.34171 9.4234 7.34171C8.87112 7.34171 8.4234 6.89399 8.4234 6.34171V2.88477H2C1.44772 2.88477 1 3.33248 1 3.88477V10.25H27V3.88477C27 3.33248 26.5523 2.88477 26 2.88477H19.5764V6.34171C19.5764 6.89399 19.1287 7.34171 18.5764 7.34171C18.0241 7.34171 17.5764 6.89399 17.5764 6.34171V2.88477H10.4234ZM17.5764 2.87891H19.5764V2C19.5764 1.44772 19.1287 1 18.5764 1C18.0241 1 17.5764 1.44772 17.5764 2V2.87891ZM27 12.25H1V26.0002C1 26.5525 1.44772 27.0002 2 27.0002H17.4785V18.4536C17.4785 17.9013 17.9262 17.4536 18.4785 17.4536H27V12.25ZM26.861 19.4536H19.4785V26.5713L26.6915 19.6675C26.7581 19.6037 26.815 19.5316 26.861 19.4536Z" stroke="none"></path></svg>