<svg width="48" height="48" viewBox="0 0 28 28" fill="#e6007a" xmlns="http://www.w3.org/2000/svg" stroke-width="2" stroke-linecap="round" stroke-linejoin="round" stroke="#e6007a"><path fill-rule="evenodd" clip-rule="evenodd" d="M14 3.5C9.02944 3.5 5 7.52944 5 12.5C5 17.4706 9.02944 21.5 14 21.5C18.9706 21.5 23 17.4706 23 12.5C23 7.52944 18.9706 3.5 14 3.5ZM2 19.5C2.55228 19.5 3 19.9477 3 20.5V25H25V20.5C25 19.9477 25.4477 19.5 26 19.5C26.5523 19.5 27 19.9477 27 20.5V26C27 26.5523 26.5523 27 26 27H2C1.44772 27 1 26.5523 1 26V20.5C1 19.9477 1.44772 19.5 2 19.5ZM15.0487 7.75C15.0487 7.19772 14.601 6.75 14.0487 6.75C13.4965 6.75 13.0487 7.19772 13.0487 7.75V8.06153C12.4832 8.1514 11.9559 8.41834 11.5464 8.82999C11.037 9.34109 10.7514 10.0333 10.75 10.7535V10.7766C10.75 11.4999 11.0382 12.1925 11.5469 12.7026C12.0566 13.2137 12.748 13.5014 13.4682 13.5043H14.6234C14.7242 13.5043 14.8194 13.5233 14.9054 13.5586C14.9932 13.5946 15.0733 13.6481 15.1398 13.7146L15.1419 13.7166C15.2088 13.7831 15.2622 13.8627 15.2991 13.9516C15.3357 14.04 15.3547 14.1352 15.3547 14.231C15.3547 14.3288 15.3359 14.4251 15.2996 14.5146C15.2629 14.6028 15.2092 14.6833 15.1406 14.7523C15.0751 14.8181 14.9949 14.872 14.9047 14.9095C14.8187 14.9451 14.725 14.9637 14.6292 14.9633H12.1084C11.5561 14.9633 11.1084 15.411 11.1084 15.9633C11.1084 16.5156 11.5561 16.9633 12.1084 16.9633H13.0487V17.2597C13.0487 17.812 13.4965 18.2597 14.0487 18.2597C14.601 18.2597 15.0487 17.812 15.0487 17.2597V16.9313C15.2615 16.8983 15.4705 16.84 15.671 16.7568C16.0005 16.6201 16.3035 16.4193 16.5588 16.1625C16.8105 15.9093 17.0114 15.6091 17.1488 15.2764L17.1502 15.2729C17.2858 14.9413 17.3547 14.5873 17.3547 14.231C17.3547 13.8723 17.2839 13.5166 17.1464 13.1852C17.0095 12.8551 16.8088 12.5542 16.5541 12.3004C16.2998 12.0461 15.9968 11.8447 15.6648 11.7084C15.331 11.5714 14.9772 11.5043 14.6234 11.5043H13.4746C13.2825 11.5031 13.0983 11.426 12.9631 11.2904C12.8266 11.1535 12.75 10.968 12.75 10.7766V10.7567C12.7506 10.5628 12.8278 10.3774 12.9631 10.2417L12.9641 10.2407C13.0993 10.1048 13.2826 10.0284 13.4734 10.0278H15.7938C16.3461 10.0278 16.7938 9.58012 16.7938 9.02783C16.7938 8.47555 16.3461 8.02783 15.7938 8.02783H15.0487V7.75Z" stroke="none"></path></svg>