<svg width="48" height="48" viewBox="0 0 28 28" fill="#e6007a" xmlns="http://www.w3.org/2000/svg" stroke-width="2" stroke-linecap="round" stroke-linejoin="round" stroke="#e6007a"><path fill-rule="evenodd" clip-rule="evenodd" d="M9.43932 5.00533C9.04879 5.39586 9.04879 6.02902 9.43932 6.41955C9.82984 6.81007 10.463 6.81007 10.8535 6.41955L12.8617 4.41138L12.8617 14H6C5.44772 14 5 14.4477 5 15L5.00001 26C5.00001 26.5523 5.44772 27 6.00001 27L22 27C22.5523 27 23 26.5523 23 26V15C23 14.4477 22.5523 14 22 14H14.8617L14.8617 18.5825C14.8617 19.1348 14.414 19.5825 13.8617 19.5825C13.3095 19.5825 12.8617 19.1348 12.8617 18.5825L12.8617 14L14.8617 14L14.8617 4.41419L16.871 6.42014C17.2619 6.81034 17.895 6.80981 18.2852 6.41896C18.6754 6.0281 18.6749 5.39494 18.2841 5.00474L14.5654 1.2923C14.1748 0.902335 13.5421 0.9026 13.1518 1.29289L9.43932 5.00533Z" stroke="none"></path></svg>