<svg width="48" height="48" viewBox="0 0 28 28" fill="#e6007a" xmlns="http://www.w3.org/2000/svg" stroke-width="2" stroke-linecap="round" stroke-linejoin="round" stroke="#e6007a"><path fill-rule="evenodd" clip-rule="evenodd" d="M9.43944 5.00533C9.04891 5.39586 9.04891 6.02902 9.43944 6.41955C9.82996 6.81007 10.4631 6.81007 10.8537 6.41955L12.8618 4.41138L12.8618 9.27637H6C5.44772 9.27637 5 9.72408 5 10.2764V26.0001C5 26.5524 5.44771 27.0001 6 27.0001H21.7237C22.276 27.0001 22.7237 26.5524 22.7237 26.0001V10.2764C22.7237 9.72408 22.276 9.27637 21.7237 9.27637H14.8619V17.5825C14.8619 18.1348 14.4142 18.5825 13.8619 18.5825C13.3096 18.5825 12.8619 18.1348 12.8619 17.5825L12.8619 9.26953L14.8618 9.26953L14.8618 4.41418L16.8711 6.42014C17.262 6.81034 17.8952 6.80981 18.2854 6.41896C18.6756 6.0281 18.675 5.39494 18.2842 5.00474L14.5655 1.2923C14.1749 0.902335 13.5422 0.9026 13.1519 1.29289L9.43944 5.00533Z" stroke="none"></path></svg>