<svg width="48" height="48" viewBox="0 0 28 28" fill="#e6007a" xmlns="http://www.w3.org/2000/svg" stroke-width="2" stroke-linecap="round" stroke-linejoin="round" stroke="#e6007a"><path fill-rule="evenodd" clip-rule="evenodd" d="M11.9311 1C10.0076 1 8.44828 2.55922 8.44828 4.48273V5.1379H2C1.44772 5.1379 1 5.58562 1 6.1379V13.5862C1 14.1385 1.44772 14.5862 2 14.5862H3.65517C4.47405 14.5862 5.13794 15.2501 5.13794 16.069C5.13794 16.8879 4.47412 17.5517 3.65517 17.5517H2C1.44772 17.5517 1 17.9994 1 18.5517V26C1 26.5523 1.44772 27 2 27H9.44828C10.0006 27 10.4483 26.5523 10.4483 26V24.3448C10.4483 23.5259 11.1121 22.8621 11.9311 22.8621C12.75 22.8621 13.4138 23.5259 13.4138 24.3448V26C13.4138 26.5523 13.8615 27 14.4138 27H21.8621C22.4144 27 22.8621 26.5523 22.8621 26V18.7241H23.5172C25.4407 18.7241 27 17.1649 27 15.2414C27 13.318 25.4408 11.7586 23.5172 11.7586H22.8621V6.1379C22.8621 5.58562 22.4144 5.1379 21.8621 5.1379H15.4138V4.48273C15.4138 2.55925 13.8545 1 11.9311 1Z" stroke="none"></path></svg>