<svg width="48" height="48" viewBox="0 0 28 28" fill="#e6007a" xmlns="http://www.w3.org/2000/svg" stroke-width="2" stroke-linecap="round" stroke-linejoin="round" stroke="#e6007a"><path fill-rule="evenodd" clip-rule="evenodd" d="M14.4818 2.48334C14.3005 2.18297 13.9751 1.99956 13.6243 2C13.2735 2.00044 12.9486 2.18469 12.7681 2.4855L8.99934 8.76678L1.78307 10.3704C1.43661 10.4474 1.15692 10.7022 1.04813 11.0401C0.939351 11.3779 1.01778 11.7481 1.25422 12.0128L6.14646 17.4895L5.47561 24.7606C5.44324 25.1115 5.59798 25.4536 5.88293 25.661C6.16788 25.8684 6.54096 25.9104 6.86495 25.7717L13.6506 22.8667L20.4586 25.7503C20.7829 25.8877 21.1557 25.8443 21.4398 25.636C21.7239 25.4278 21.8775 25.0854 21.8441 24.7347L21.1515 17.4628L26.0227 11.9638C26.2582 11.6979 26.335 11.3271 26.2245 10.9895C26.1139 10.652 25.8326 10.3984 25.4854 10.3233L18.2716 8.76355L14.4818 2.48334Z" stroke="none"></path></svg>