<svg width="48" height="48" viewBox="0 0 28 28" fill="#e6007a" xmlns="http://www.w3.org/2000/svg" stroke-width="2" stroke-linecap="round" stroke-linejoin="round" stroke="#e6007a"><path fill-rule="evenodd" clip-rule="evenodd" d="M14.849 1.80943C14.6688 1.50469 14.341 1.31792 13.9869 1.31836C13.6329 1.3188 13.3055 1.5064 13.1261 1.81159L9.23098 8.43774L1.77882 10.128C1.43522 10.206 1.15799 10.4589 1.04904 10.794C0.940081 11.129 1.01548 11.4967 1.24751 11.7618L6.30938 17.5456L5.61492 25.2283C5.5831 25.5803 5.73945 25.923 6.02617 26.1296C6.3129 26.3363 6.68741 26.3762 7.01127 26.2347L14.014 23.1747L21.0396 26.2121C21.3639 26.3523 21.738 26.311 22.0239 26.1035C22.3098 25.896 22.465 25.553 22.4321 25.2013L21.7152 17.5178L26.7553 11.7104C26.9864 11.4441 27.0602 11.0758 26.9494 10.741C26.8387 10.4062 26.5599 10.1545 26.2155 10.0785L18.7658 8.43443L14.849 1.80943Z" stroke="none"></path></svg>