<svg width="48" height="48" viewBox="0 0 28 28" fill="#e6007a" xmlns="http://www.w3.org/2000/svg" stroke-width="2" stroke-linecap="round" stroke-linejoin="round" stroke="#e6007a"><path fill-rule="evenodd" clip-rule="evenodd" d="M20.5213 4.88018C18.5942 4.11183 16.3626 3.67969 14 3.67969C10.5164 3.67969 7.31736 4.61922 4.96002 6.19078C2.60966 7.75769 1 10.0322 1 12.6797V16.6797C1 19.3466 2.63154 21.5013 4.99452 22.9406C5.16042 23.0416 5.33041 23.1395 5.5043 23.2342L6.79759 21.6536C6.53157 21.5205 6.27707 21.38 6.03492 21.2325C4.4129 20.2445 3.41181 18.9954 3.10275 17.6133C3.64326 18.1871 4.26969 18.7084 4.96002 19.1686C5.77692 19.7132 6.69489 20.1819 7.69076 20.5619L20.5213 4.88018ZM8.74725 22.429C10.2972 22.9094 12.0824 23.1797 14 23.1797C17.1727 23.1797 19.983 22.4398 21.9651 21.2325C23.5871 20.2445 24.5882 18.9954 24.8972 17.6133C24.3567 18.1871 23.7303 18.7084 23.04 19.1686C20.6826 20.7402 17.4836 21.6797 14 21.6797C12.5201 21.6797 11.0916 21.5101 9.7572 21.1946L22.3726 5.77576C22.6018 5.90866 22.8244 6.04708 23.04 6.19078C25.3903 7.75769 27 10.0322 27 12.6797V16.6797C27 19.3466 25.3685 21.5013 23.0055 22.9406C20.6445 24.3787 17.4547 25.1797 14 25.1797C11.6088 25.1797 9.34453 24.7959 7.39414 24.0828L8.74725 22.429Z" stroke="none"></path></svg>