<svg width="48" height="48" viewBox="0 0 28 28" fill="#e6007a" xmlns="http://www.w3.org/2000/svg" stroke-width="2" stroke-linecap="round" stroke-linejoin="round" stroke="#e6007a"><path fill-rule="evenodd" clip-rule="evenodd" d="M10.727 7.54492C10.5581 7.54492 10.3902 7.54923 10.2234 7.55774C11.4335 4.87043 14.1362 3 17.273 3C21.5408 3 25 6.45928 25 10.727C25 13.8642 23.1293 16.5668 20.4411 17.7769C20.4497 17.6096 20.454 17.4413 20.454 17.2719C20.454 11.8998 16.0991 7.54492 10.727 7.54492ZM10.727 26.9989C15.1334 26.9989 18.8554 24.069 20.0512 20.0511C24.0685 18.8554 27 15.1348 27 10.727C27 5.35471 22.6453 1 17.273 1C12.8658 1 9.14489 3.93099 7.94913 7.94735C3.93054 9.14274 1 12.8651 1 17.2719C1 22.644 5.35493 26.9989 10.727 26.9989ZM11.781 12.084C11.781 11.5317 11.3333 11.084 10.781 11.084C10.2287 11.084 9.78101 11.5317 9.78101 12.084V12.5025C9.1539 12.5849 8.56696 12.8725 8.11535 13.3264C7.57658 13.867 7.27448 14.5991 7.27295 15.361V15.386C7.27295 16.151 7.57777 16.8835 8.11584 17.4231C8.65487 17.9637 9.38618 18.268 10.1479 18.271H11.4079C11.5294 18.271 11.6451 18.294 11.7502 18.3371C11.8571 18.381 11.9547 18.446 12.0358 18.5271L12.0379 18.5291C12.1194 18.6103 12.1845 18.7073 12.2293 18.8152C12.2739 18.9227 12.2969 19.0385 12.2969 19.155C12.2969 19.2734 12.2741 19.3903 12.23 19.499C12.1853 19.6064 12.1201 19.7042 12.0368 19.7879C11.9568 19.8684 11.8591 19.934 11.7498 19.9794C11.6447 20.0229 11.5305 20.0455 11.414 20.045H8.66395C8.11166 20.045 7.66395 20.4927 7.66395 21.045C7.66395 21.5973 8.11166 22.045 8.66395 22.045H9.78101V22.4597C9.78101 23.012 10.2287 23.4597 10.781 23.4597C11.3333 23.4597 11.781 23.012 11.781 22.4597V22.022C12.0326 21.99 12.2799 21.9247 12.5161 21.8267C12.8648 21.6821 13.1851 21.4696 13.4551 21.1981C13.7214 20.9303 13.9339 20.6127 14.0792 20.2608L14.0806 20.2573C14.224 19.9065 14.2969 19.532 14.2969 19.155C14.2969 18.7755 14.222 18.3993 14.0766 18.0488C13.9318 17.6997 13.7195 17.3814 13.4501 17.1129C13.1812 16.844 12.8608 16.6311 12.5097 16.4869C12.1568 16.3421 11.7825 16.271 11.4079 16.271H10.1543C9.92067 16.2697 9.69664 16.176 9.53206 16.0109C9.36613 15.8445 9.27295 15.6191 9.27295 15.386V15.3642C9.27364 15.1286 9.36733 14.9033 9.53206 14.7381L9.53306 14.7371C9.69756 14.5717 9.9208 14.4787 10.1531 14.478H12.6849C13.2372 14.478 13.6849 14.0303 13.6849 13.478C13.6849 12.9257 13.2372 12.478 12.6849 12.478H11.781V12.084ZM12.23 19.499L12.2307 19.4973L13.1549 19.879L12.2293 19.5007L12.23 19.499Z" stroke="none"></path></svg>