<svg width="48" height="48" viewBox="0 0 28 29" fill="#e6007a" xmlns="http://www.w3.org/2000/svg" stroke-width="2" stroke-linecap="round" stroke-linejoin="round" stroke="#e6007a"><path fill-rule="evenodd" clip-rule="evenodd" d="M20.5 5.68164C20.5 5.12936 20.0523 4.68164 19.5 4.68164C18.9477 4.68164 18.5 5.12936 18.5 5.68164V7.03878H3C2.44772 7.03878 2 7.4865 2 8.03878C2 8.59107 2.44772 9.03878 3 9.03878H18.5V10.3959C18.5 10.9482 18.9477 11.3959 19.5 11.3959C20.0523 11.3959 20.5 10.9482 20.5 10.3959V9.03878H25C25.5523 9.03878 26 8.59107 26 8.03878C26 7.4865 25.5523 7.03878 25 7.03878H20.5V5.68164ZM2 15.1101C2 14.5578 2.44772 14.1101 3 14.1101H6.71429V12.7529C6.71429 12.2006 7.162 11.7529 7.71429 11.7529C8.26657 11.7529 8.71429 12.2006 8.71429 12.7529V14.1101H25C25.5523 14.1101 26 14.5578 26 15.1101C26 15.6624 25.5523 16.1101 25 16.1101H8.71429V17.4672C8.71429 18.0195 8.26657 18.4672 7.71429 18.4672C7.162 18.4672 6.71429 18.0195 6.71429 17.4672V16.1101H3C2.44772 16.1101 2 15.6624 2 15.1101ZM2 22.4437C2 21.8915 2.44772 21.4437 3 21.4437H13V19.8247C13 19.2724 13.4477 18.8247 14 18.8247C14.5523 18.8247 15 19.2724 15 19.8247V21.4437H25C25.5523 21.4437 26 21.8915 26 22.4437C26 22.996 25.5523 23.4437 25 23.4437H15V24.539C15 25.0913 14.5523 25.539 14 25.539C13.4477 25.539 13 25.0913 13 24.539V23.4437H3C2.44772 23.4437 2 22.996 2 22.4437Z" stroke="none"></path></svg>