<svg width="48" height="48" viewBox="0 0 29 29" fill="#e6007a" xmlns="http://www.w3.org/2000/svg" stroke-width="2" stroke-linecap="round" stroke-linejoin="round" stroke="#e6007a"><path fill-rule="evenodd" clip-rule="evenodd" d="M19.4096 2.07608C19.587 2.38983 19.5819 2.77478 19.3961 3.08368L16.6994 7.56836L18.3452 7.56836C18.8975 7.56836 19.3452 8.01608 19.3452 8.56836C19.3452 9.12065 18.8975 9.56836 18.3452 9.56836H18.2165C18.2832 9.61295 18.3494 9.6585 18.4152 9.70494C19.5014 10.4721 20.5301 11.5347 21.4169 12.7508C23.1788 15.1668 24.4884 18.341 24.4884 21.3147C24.4884 22.7717 24.2424 23.9644 23.7082 24.9108C23.1616 25.8791 22.3616 26.5038 21.4219 26.8945C20.5079 27.2746 19.4627 27.4335 18.3882 27.5059C17.4351 27.57 16.3916 27.569 15.3274 27.5679H15.3274L14.9169 27.5676L14.5065 27.5679H14.5065C13.4423 27.569 12.3988 27.57 11.4457 27.5059C10.3712 27.4335 9.326 27.2746 8.412 26.8945C7.47227 26.5038 6.67232 25.8791 6.12571 24.9108C5.59152 23.9644 5.34552 22.7717 5.34552 21.3147C5.34552 18.341 6.65514 15.1668 8.41701 12.7508C9.30382 11.5347 10.3325 10.4721 11.4187 9.70494C11.4845 9.65849 11.5507 9.61295 11.6174 9.56836H11.488C10.9358 9.56836 10.488 9.12064 10.488 8.56836C10.488 8.01607 10.9358 7.56836 11.488 7.56836L13.3266 7.56836L10.6311 3.0835C10.4454 2.7746 10.4404 2.38968 10.6178 2.07599C10.7953 1.7623 11.1278 1.56836 11.4882 1.56836H18.5391C18.8996 1.56836 19.2321 1.76234 19.4096 2.07608ZM15.9606 14.5186C15.9606 13.9663 15.5129 13.5186 14.9606 13.5186C14.4083 13.5186 13.9606 13.9663 13.9606 14.5186V14.5981C13.8466 14.6254 13.7345 14.6614 13.6255 14.7059C13.3433 14.8211 13.0868 14.9909 12.8706 15.2056C12.6544 15.4203 12.4828 15.6757 12.3657 15.957C12.2486 16.2383 12.1883 16.54 12.1883 16.8448L12.1883 16.8516C12.1926 17.4639 12.4388 18.0497 12.8732 18.4812C13.3077 18.9126 13.8952 19.1548 14.5075 19.1548H15.4172C15.5015 19.1548 15.5823 19.1881 15.6421 19.2475C15.7019 19.3068 15.7358 19.3874 15.7364 19.4717C15.7364 19.4833 15.7367 19.495 15.7372 19.5066C15.739 19.5504 15.7318 19.594 15.7161 19.6349C15.7003 19.6757 15.6763 19.7129 15.6455 19.7441C15.6147 19.7753 15.5779 19.7998 15.5373 19.8161C15.4966 19.8324 15.453 19.8402 15.4093 19.8389C15.3998 19.8387 15.3903 19.8385 15.3808 19.8385H13.4703C12.9181 19.8385 12.4703 20.2862 12.4703 20.8385C12.4703 21.3908 12.9181 21.8385 13.4703 21.8385H13.9606V21.8697C13.9606 22.4219 14.4083 22.8697 14.9606 22.8697C15.5129 22.8697 15.9606 22.4219 15.9606 21.8697V21.7748C16.07 21.7485 16.1776 21.7142 16.2824 21.6721C16.5778 21.5535 16.8456 21.3754 17.0691 21.1488C17.2926 20.9223 17.4672 20.6522 17.5818 20.3552C17.6944 20.0638 17.7468 19.7526 17.7361 19.4405C17.7274 18.8345 17.4818 18.2557 17.0514 17.8284C16.617 17.3969 16.0295 17.1548 15.4172 17.1548H14.5074C14.4232 17.1548 14.3423 17.1214 14.2825 17.0621C14.2236 17.0035 14.1898 16.9243 14.1883 16.8413C14.1888 16.8016 14.1968 16.7623 14.2121 16.7256C14.2278 16.6878 14.2509 16.6535 14.2799 16.6247C14.3089 16.5959 14.3433 16.5731 14.3812 16.5577C14.4191 16.5422 14.4596 16.5344 14.5005 16.5347H16.2724C16.8246 16.5347 17.2724 16.087 17.2724 15.5347C17.2724 14.9824 16.8246 14.5347 16.2724 14.5347H15.9606V14.5186Z" stroke="none"></path></svg>