<svg width="48" height="48" viewBox="0 0 28 28" fill="#e6007a" xmlns="http://www.w3.org/2000/svg" stroke-width="2" stroke-linecap="round" stroke-linejoin="round" stroke="#e6007a"><path fill-rule="evenodd" clip-rule="evenodd" d="M17.3177 2C16.7654 2 16.3177 2.44772 16.3177 3V7.47177L11.6821 10.7176V9.85645C11.6821 9.30416 11.2344 8.85645 10.6821 8.85645H2C1.44772 8.85645 1 9.30416 1 9.85645V18.5386C1 19.0909 1.44772 19.5386 2 19.5386H10.6821C11.2344 19.5386 11.6821 19.0909 11.6821 18.5386V17.8703L16.3177 21.1162V25.5733C16.3177 26.1255 16.7654 26.5733 17.3177 26.5733H25.9998C26.5521 26.5733 26.9998 26.1255 26.9998 25.5733V16.8911C26.9998 16.3388 26.5521 15.8911 25.9998 15.8911H17.3177C16.7654 15.8911 16.3177 16.3388 16.3177 16.8911V18.6746L11.6821 15.4288V13.1592L16.3177 9.91332V11.6822C16.3177 12.2345 16.7654 12.6822 17.3177 12.6822H25.9999C26.5522 12.6822 26.9999 12.2345 26.9999 11.6822V3C26.9999 2.44772 26.5522 2 25.9999 2H17.3177Z" stroke="none"></path></svg>