<svg width="48" height="48" viewBox="0 0 28 28" fill="#e6007a" xmlns="http://www.w3.org/2000/svg" stroke-width="2" stroke-linecap="round" stroke-linejoin="round" stroke="#e6007a"><g><path fill-rule="evenodd" clip-rule="evenodd" d="M11.3874 3.35059C10.8351 3.35059 10.3874 3.7983 10.3874 4.35059V9.13415C10.3874 9.15567 10.388 9.17703 10.3894 9.19822L8.58164 11.7117C8.18756 11.5696 7.76261 11.4922 7.31957 11.4922C5.61111 11.4922 4.17156 12.6436 3.73457 14.2127L2.00001 14.2127C1.44773 14.2127 1.00001 14.6604 1.00001 15.2127C1 15.765 1.44772 16.2127 2 16.2127L3.73429 16.2127C4.17094 17.7824 5.61074 18.9343 7.31957 18.9343C7.75653 18.9343 8.1759 18.859 8.5654 18.7206L10.5356 21.5443C10.2374 22.0796 10.0675 22.6962 10.0675 23.3524C10.0675 25.4075 11.7335 27.0734 13.7886 27.0734C15.8436 27.0734 17.5096 25.4075 17.5096 23.3524C17.5096 22.6981 17.3407 22.0832 17.0441 21.5489L19.049 18.7316C19.4296 18.8629 19.8382 18.9343 20.2634 18.9343C21.9722 18.9343 23.412 17.7824 23.8487 16.2128L25.5737 16.2128C26.126 16.2128 26.5737 15.7651 26.5737 15.2128C26.5737 14.6605 26.126 14.2128 25.5737 14.2128L23.8484 14.2128C23.4115 12.6436 21.9719 11.4922 20.2634 11.4922C18.5549 11.4922 17.1154 12.6436 16.6784 14.2128L10.9046 14.2128C10.7662 13.7159 10.5274 13.261 10.2113 12.8712L12.1798 10.1341H16.1899C16.7422 10.1341 17.1899 9.68643 17.1899 9.13415V7.69952H25.5743C26.1266 7.69952 26.5743 7.2518 26.5743 6.69952C26.5743 6.14723 26.1266 5.69952 25.5743 5.69952L17.1899 5.69952V4.35059C17.1899 3.7983 16.7422 3.35059 16.1899 3.35059H11.3874ZM10.2004 17.5687C10.5221 17.1757 10.7649 16.7157 10.9048 16.2128L16.6782 16.2128C16.8211 16.7266 17.0715 17.1956 17.4037 17.5942L15.614 20.1091C15.0747 19.8049 14.4519 19.6313 13.7886 19.6313C13.1281 19.6313 12.5078 19.8034 11.9701 20.1052L10.2004 17.5687Z" stroke="none"></path></g></svg>