<svg width="48" height="48" viewBox="0 0 28 28" fill="#e6007a" xmlns="http://www.w3.org/2000/svg" stroke-width="2" stroke-linecap="round" stroke-linejoin="round" stroke="#e6007a"><path fill-rule="evenodd" clip-rule="evenodd" d="M23.2282 19.4399C25.3113 19.4399 27 21.1286 27 23.2118C27 25.2949 25.3113 26.9836 23.2282 26.9836C21.1451 26.9836 19.4564 25.2949 19.4564 23.2118C19.4564 22.3414 19.7512 21.5399 20.2463 20.9017L18.226 17.9604C16.9661 18.6308 15.5281 19.0108 14.0013 19.0108C12.4801 19.0108 11.047 18.6336 9.79035 17.9676L7.74432 20.8897C8.24514 21.5298 8.54364 22.3359 8.54364 23.2118C8.54364 25.2949 6.85494 26.9836 4.77182 26.9836C2.68871 26.9836 1.00001 25.2949 1.00001 23.2118C1.00001 21.1286 2.68871 19.4399 4.77182 19.4399C5.25405 19.4399 5.71513 19.5304 6.13903 19.6954L8.13793 16.8406C6.21439 15.1891 4.99593 12.7395 4.99593 10.0054C4.99593 5.03185 9.02778 0.999999 14.0013 0.999999C18.9749 1 23.0067 5.03185 23.0067 10.0054C23.0067 12.734 21.7932 15.1792 19.8764 16.8306L21.8477 19.7006C22.2752 19.5323 22.7409 19.4399 23.2282 19.4399ZM12.2435 8.07772C13.3083 7.01291 15.0347 7.01291 16.0995 8.07772C17.1643 9.14252 17.1643 10.8689 16.0995 11.9337C15.0347 12.9985 13.3083 12.9985 12.2435 11.9337C11.1787 10.8689 11.1787 9.14252 12.2435 8.07772ZM17.5137 6.6635C15.6679 4.81765 12.6751 4.81765 10.8293 6.6635C8.98344 8.50936 8.98344 11.5021 10.8293 13.3479C12.6751 15.1938 15.6679 15.1938 17.5137 13.3479C19.3596 11.5021 19.3596 8.50936 17.5137 6.6635Z" stroke="none"></path></svg>