<svg width="48" height="48" viewBox="0 0 29 29" fill="#e6007a" xmlns="http://www.w3.org/2000/svg" stroke-width="2" stroke-linecap="round" stroke-linejoin="round" stroke="#e6007a"><path fill-rule="evenodd" clip-rule="evenodd" d="M14.4351 2.17645C14.7782 1.94015 15.2318 1.94128 15.5737 2.17928L27.5715 10.5314C27.8401 10.7183 28.0002 11.0249 28.0002 11.3521V11.4411C28.0002 11.9934 27.5525 12.4411 27.0002 12.4411H24.3994V25.749H26.9834C27.5357 25.749 27.9834 26.1967 27.9834 26.749C27.9834 27.3013 27.5357 27.749 26.9834 27.749L3 27.749C2.44772 27.749 2 27.3013 2 26.749C2 26.1967 2.44772 25.749 3 25.749H5.59839L5.59839 12.4411H3.01672C2.46444 12.4411 2.01672 11.9934 2.01672 11.4411V11.2555C2.01672 10.9265 2.17854 10.6186 2.44948 10.4319L14.4351 2.17645ZM7.59839 12.4411H22.3994V25.749H22.1533C22.0249 23.353 20.3814 21.2882 18.0487 20.6395L17.7032 20.5433L17.9863 20.2029C19.2361 18.7007 19.1361 16.4937 17.7555 15.1104C16.2777 13.6299 13.8778 13.6299 12.4 15.1104C11.0194 16.4937 10.9197 18.701 12.1694 20.2032L12.4523 20.5433L12.1096 20.6386C9.77652 21.2876 8.13467 23.3535 8.0079 25.749H7.59839L7.59839 12.4411Z" stroke="none"></path></svg>