<svg width="48" height="48" viewBox="0 0 29 29" fill="#e6007a" xmlns="http://www.w3.org/2000/svg" stroke-width="2" stroke-linecap="round" stroke-linejoin="round" stroke="#e6007a"><path fill-rule="evenodd" clip-rule="evenodd" d="M22.3215 23.8114C22.8738 23.8114 23.3215 23.3637 23.3215 22.8114L23.3215 19.5182C23.8273 19.0847 24.2342 18.5927 24.5717 18.0336L26.9897 18.0336C27.542 18.0336 27.9897 17.5859 27.9897 17.0336V13.0336C27.9897 12.4813 27.542 12.0336 26.9897 12.0336L25.0267 12.0336C24.2718 10.2517 22.752 8.8732 20.8771 8.31002V5.75244C20.8771 5.20016 20.4294 4.75244 19.8771 4.75244C18.6615 4.75244 17.3277 4.86898 16.2846 5.50521C15.3741 6.06062 14.804 6.92992 14.6049 8.1043L11.2104 8.1043C7.97023 8.1043 5.27907 10.4551 4.74943 13.5442C4.29134 13.2472 3.98828 12.7313 3.98828 12.1447C3.98828 11.5924 3.54057 11.1447 2.98828 11.1447C2.436 11.1447 1.98828 11.5924 1.98828 12.1447C1.98828 13.8525 3.15579 15.2876 4.73618 15.6953C5.09495 17.9566 6.6098 19.8317 8.65497 20.6983L8.65497 22.8114C8.65497 23.0766 8.76033 23.3309 8.94786 23.5185C9.1354 23.706 9.38975 23.8114 9.65497 23.8114H13.229C13.7813 23.8114 14.229 23.3637 14.229 22.8114V21.1447H17.7474L17.7474 22.8114C17.7474 23.3637 18.1952 23.8114 18.7474 23.8114H22.3215ZM20.7135 13.4069C20.323 13.7974 19.6899 13.7974 19.2993 13.4069L19.2812 13.3887C18.8907 12.9982 18.8907 12.3651 19.2812 11.9745C19.6717 11.584 20.3049 11.584 20.6954 11.9745L20.7135 11.9927C21.1041 12.3832 21.1041 13.0164 20.7135 13.4069ZM9.9884 12.6817C9.9884 12.1294 10.4361 11.6817 10.9884 11.6817H14.9884C15.5407 11.6817 15.9884 12.1294 15.9884 12.6817C15.9884 13.234 15.5407 13.6817 14.9884 13.6817H10.9884C10.4361 13.6817 9.9884 13.234 9.9884 12.6817Z" stroke="none"></path></svg>