<svg width="48" height="48" viewBox="0 0 28 28" fill="#e6007a" xmlns="http://www.w3.org/2000/svg" stroke-width="2" stroke-linecap="round" stroke-linejoin="round" stroke="#e6007a"><path fill-rule="evenodd" clip-rule="evenodd" d="M13.0708 2V10.7362H8.97079C6.39604 10.7362 4.36789 11.6266 2.99289 13.1567C1.63261 14.6704 1 16.7108 1 18.8681C1 21.1215 1.68656 22.9243 2.81034 24.2609C3.92626 25.5882 5.42506 26.399 6.96702 26.7655C8.42686 27.1125 9.85355 26.7097 11.0087 26.2149C12.9494 25.3837 15.146 25.3837 17.0868 26.2149C18.2419 26.7097 19.6686 27.1125 21.1284 26.7655C22.6704 26.399 24.1692 25.5882 25.2851 24.2609C26.4089 22.9243 27.0955 21.1215 27.0955 18.8681C27.0955 14.4232 23.8279 10.7362 19.1247 10.7362H15.0708V2C15.0708 1.44772 14.6231 1 14.0708 1C13.5185 1 13.0708 1.44772 13.0708 2ZM7.80167 21.4016C7.80167 21.9538 8.24938 22.4016 8.80167 22.4016C9.35395 22.4016 9.80167 21.9538 9.80167 21.4016V19.723H11.4803C12.0326 19.723 12.4803 19.2753 12.4803 18.723C12.4803 18.1707 12.0326 17.723 11.4803 17.723H9.80167V16.0449C9.80167 15.4926 9.35395 15.0449 8.80167 15.0449C8.24938 15.0449 7.80167 15.4926 7.80167 16.0449V17.723H6.12366C5.57137 17.723 5.12366 18.1707 5.12366 18.723C5.12366 19.2753 5.57137 19.723 6.12366 19.723H7.80167V21.4016ZM16.8574 17.1616C16.8574 16.6093 17.3051 16.1616 17.8574 16.1616H17.8682C18.4204 16.1616 18.8682 16.6093 18.8682 17.1616C18.8682 17.7139 18.4204 18.1616 17.8682 18.1616H17.8574C17.3051 18.1616 16.8574 17.7139 16.8574 17.1616ZM17.8574 19.2852C17.3051 19.2852 16.8574 19.7329 16.8574 20.2852C16.8574 20.8374 17.3051 21.2852 17.8574 21.2852H17.8682C18.4204 21.2852 18.8682 20.8374 18.8682 20.2852C18.8682 19.7329 18.4204 19.2852 17.8682 19.2852H17.8574ZM20.9302 19.2852C20.378 19.2852 19.9302 19.7329 19.9302 20.2852C19.9302 20.8374 20.378 21.2852 20.9302 21.2852H20.941C21.4933 21.2852 21.941 20.8374 21.941 20.2852C21.941 19.7329 21.4933 19.2852 20.941 19.2852H20.9302ZM20.9201 16.1616C20.3678 16.1616 19.9201 16.6093 19.9201 17.1616C19.9201 17.7139 20.3678 18.1616 20.9201 18.1616H20.9309C21.4832 18.1616 21.9309 17.7139 21.9309 17.1616C21.9309 16.6093 21.4832 16.1616 20.9309 16.1616H20.9201Z" stroke="none"></path></svg>