<svg width="48" height="48" viewBox="0 0 28 28" fill="#e6007a" xmlns="http://www.w3.org/2000/svg" stroke-width="2" stroke-linecap="round" stroke-linejoin="round" stroke="#e6007a"><path fill-rule="evenodd" clip-rule="evenodd" d="M10.8229 3C10.2486 3 9.69989 3.22586 9.29696 3.62457C8.89439 4.02294 8.67017 4.56098 8.67017 5.11977C8.67017 5.67856 8.89439 6.21661 9.29696 6.61497C9.69161 7.00549 10.2261 7.23019 10.7875 7.23926H12.9756V5.11977L12.9756 5.1084C12.9726 4.55369 12.7487 4.02023 12.3488 3.62457C11.9459 3.22586 11.3972 3 10.8229 3ZM6.67017 5.11977C6.67017 5.87346 6.87827 6.6049 7.26187 7.23926H2C1.44772 7.23926 1 7.68697 1 8.23926V13H27V8.23926C27 7.68697 26.5523 7.23926 26 7.23926H20.6893C21.073 6.6049 21.2811 5.87346 21.2811 5.11977C21.2811 4.02373 20.841 2.97473 20.061 2.20295C19.2814 1.43152 18.2263 1 17.1283 1C16.0303 1 14.9752 1.43152 14.1956 2.20295C14.119 2.2788 14.0456 2.35732 13.9756 2.43831C13.9056 2.35732 13.8323 2.2788 13.7556 2.20295C12.976 1.43152 11.9209 1 10.8229 1C9.7249 1 8.66978 1.43152 7.8902 2.20295C7.11027 2.97473 6.67017 4.02373 6.67017 5.11977ZM25.5 15H14.9756V26H24.5C25.0523 26 25.5 25.5523 25.5 25V15ZM12.9756 26V15H3V25C3 25.5523 3.44772 26 4 26H12.9756ZM18.6543 6.61497C18.2596 7.00549 17.7251 7.23019 17.1637 7.23926H14.9756V5.11977L14.9756 5.1084C14.9786 4.55369 15.2025 4.02023 15.6024 3.62457C16.0053 3.22586 16.554 3 17.1283 3C17.7026 3 18.2513 3.22586 18.6543 3.62457C19.0568 4.02294 19.2811 4.56098 19.2811 5.11977C19.2811 5.67856 19.0568 6.21661 18.6543 6.61497Z" stroke="none"></path></svg>