<svg width="48" height="48" viewBox="0 0 28 28" fill="#e6007a" xmlns="http://www.w3.org/2000/svg" stroke-width="2" stroke-linecap="round" stroke-linejoin="round" stroke="#e6007a"><path fill-rule="evenodd" clip-rule="evenodd" d="M1.46284 1.15652C1.75113 0.972929 2.11322 0.949289 2.42293 1.09384L13 6.03039V26.609L1.54111 20.6907C1.20876 20.519 1 20.1763 1 19.8022V2C1 1.65822 1.17456 1.34011 1.46284 1.15652ZM15 26.609L26.4589 20.6907C26.7912 20.519 27 20.1763 27 19.8022V2C27 1.65822 26.8254 1.34011 26.5372 1.15652C26.2489 0.972929 25.8868 0.949289 25.5771 1.09384L15 6.03039V26.609ZM23.4887 10.2139C23.4897 9.94797 23.3848 9.69262 23.1972 9.50425C23.0095 9.31587 22.7546 9.20998 22.4887 9.20998L17.5269 9.20996C16.9746 9.20996 16.5269 9.65767 16.5269 10.21C16.5269 10.7622 16.9746 11.21 17.5269 11.21L20.6093 11.21L16.6947 16.9212C16.5806 17.0877 16.5195 17.2848 16.5195 17.4866V17.5235C16.5195 18.0758 16.9672 18.5235 17.5195 18.5235H22.4815C23.0338 18.5235 23.4815 18.0758 23.4815 17.5235C23.4815 16.9713 23.0338 16.5235 22.4815 16.5235H19.3919L23.3134 10.8023C23.4268 10.6369 23.4878 10.4413 23.4886 10.2408L23.4887 10.2139ZM11.1462 18.5045C10.6309 18.7034 10.052 18.447 9.85314 17.9318L9.54695 17.1386H6.5752L6.3152 17.8962C6.13593 18.4186 5.56713 18.6967 5.04475 18.5175C4.52237 18.3382 4.24423 17.7694 4.4235 17.247L6.96809 9.83233C7.10452 9.4348 7.47497 9.16499 7.8952 9.15711L7.90483 9.15693C8.32493 9.14905 8.70515 9.40463 8.85647 9.79662L11.7189 17.2115C11.9178 17.7267 11.6614 18.3056 11.1462 18.5045ZM7.26157 15.1386H8.77486L7.97374 13.0634L7.26157 15.1386Z" stroke="none"></path></svg>