<svg width="48" height="48" viewBox="0 0 28 28" fill="#e6007a" xmlns="http://www.w3.org/2000/svg" stroke-width="2" stroke-linecap="round" stroke-linejoin="round" stroke="#e6007a"><path fill-rule="evenodd" clip-rule="evenodd" d="M7.5 2C5.01472 2 3 4.01472 3 6.5C3 8.98528 5.01472 11 7.5 11C9.98528 11 12 8.98528 12 6.5C12 4.01472 9.98528 2 7.5 2ZM5 17C5 14.7907 6.79072 13 9 13H10C10 10.7907 11.7907 9 14 9C16.2093 9 18 10.7907 18 13H19C21.2093 13 23 14.7907 23 17C23 19.2093 21.2093 21 19 21V23C19 24.6573 17.6573 26 16 26C15.2315 26 14.5307 25.7113 14 25.2364C13.4693 25.7113 12.7685 26 12 26C10.3427 26 9 24.6573 9 23V21C6.79072 21 5 19.2093 5 17ZM11 21V23C11 23.5527 11.4473 24 12 24C12.5527 24 13 23.5527 13 23V21H11ZM15 21V23C15 23.5527 15.4473 24 16 24C16.5527 24 17 23.5527 17 23V21H15ZM16 6.5C16 4.01472 18.0147 2 20.5 2C22.9853 2 25 4.01472 25 6.5C25 8.98528 22.9853 11 20.5 11C18.0147 11 16 8.98528 16 6.5ZM12 13C12 11.8953 12.8953 11 14 11C15.1047 11 16 11.8953 16 13C16 14.1047 15.1047 15 14 15C12.8953 15 12 14.1047 12 13Z" stroke="none"></path></svg>