<svg width="48" height="48" viewBox="0 0 28 28" fill="#e6007a" xmlns="http://www.w3.org/2000/svg" stroke-width="2" stroke-linecap="round" stroke-linejoin="round" stroke="#e6007a"><path fill-rule="evenodd" clip-rule="evenodd" d="M14.5737 1.17928C14.2318 0.941279 13.7782 0.940152 13.4351 1.17645L1.44948 9.43195C1.17854 9.61856 1.01672 9.92651 1.01672 10.2555V10.4411C1.01672 10.9934 1.46444 11.4411 2.01672 11.4411H4.59839L4.59839 24.749H2C1.44772 24.749 1 25.1967 1 25.749C1 26.3013 1.44772 26.749 2 26.749L25.9834 26.749C26.5357 26.749 26.9834 26.3013 26.9834 25.749C26.9834 25.1967 26.5357 24.749 25.9834 24.749H23.3994V11.4411H26.0002C26.5525 11.4411 27.0002 10.9934 27.0002 10.4411V10.3521C27.0002 10.0249 26.8401 9.71835 26.5715 9.53139L14.5737 1.17928ZM17.8198 11.4411H21.3994V24.749H17.8198V11.4411ZM12.3259 11.4411H15.8198V24.749H12.3259V11.4411ZM6.59839 11.4411H10.3259V24.749H6.59839L6.59839 11.4411Z" stroke="none"></path></svg>