<svg width="48" height="48" viewBox="0 0 28 28" fill="#e6007a" xmlns="http://www.w3.org/2000/svg" stroke-width="2" stroke-linecap="round" stroke-linejoin="round" stroke="#e6007a"><path fill-rule="evenodd" clip-rule="evenodd" d="M14.0001 1C12.4041 1 11.1103 2.29379 11.1103 3.88976C11.1103 5.48573 12.4041 6.77952 14.0001 6.77952C15.596 6.77952 16.8898 5.48573 16.8898 3.88976C16.8898 2.29379 15.596 1 14.0001 1ZM14.0001 9.56738C11.6213 9.56738 9.69299 11.4957 9.69299 13.8745C9.69299 16.2532 11.6213 18.1815 14.0001 18.1815C16.3788 18.1815 18.3072 16.2532 18.3072 13.8745C18.3072 11.4957 16.3788 9.56738 14.0001 9.56738ZM14.0001 21.2202C12.4041 21.2202 11.1103 22.514 11.1103 24.11C11.1103 25.7059 12.4041 26.9997 14.0001 26.9997C15.596 26.9997 16.8898 25.7059 16.8898 24.11C16.8898 22.514 15.596 21.2202 14.0001 21.2202ZM21.2205 13.9999C21.2205 15.5959 22.5142 16.8896 24.1102 16.8896C25.7062 16.8896 27 15.5959 27 13.9999C27 12.4039 25.7062 11.1101 24.1102 11.1101C22.5142 11.1101 21.2205 12.4039 21.2205 13.9999ZM1 13.9999C1 15.5959 2.29379 16.8896 3.88976 16.8896C5.48573 16.8896 6.77952 15.5959 6.77952 13.9999C6.77952 12.4039 5.48573 11.1101 3.88976 11.1101C2.29379 11.1101 1 12.4039 1 13.9999ZM19.1056 19.1056C17.9771 20.2341 17.9771 22.0638 19.1056 23.1923C20.2341 24.3208 22.0638 24.3208 23.1924 23.1923C24.3209 22.0638 24.3209 20.2341 23.1924 19.1056C22.0638 17.977 20.2341 17.977 19.1056 19.1056ZM4.80771 4.80722C3.67919 5.93574 3.67919 7.76543 4.80771 8.89396C5.93624 10.0225 7.76593 10.0225 8.89445 8.89396C10.023 7.76543 10.023 5.93574 8.89445 4.80722C7.76593 3.67869 5.93624 3.67869 4.80771 4.80722ZM19.1057 8.89413C20.2342 10.0227 22.0639 10.0227 23.1924 8.89413C24.3209 7.76561 24.3209 5.93591 23.1924 4.80739C22.0639 3.67887 20.2342 3.67887 19.1057 4.80739C17.9772 5.93591 17.9772 7.76561 19.1057 8.89413ZM4.8077 23.1925C5.93623 24.321 7.76592 24.321 8.89444 23.1925C10.023 22.0639 10.023 20.2343 8.89444 19.1057C7.76592 17.9772 5.93623 17.9772 4.8077 19.1057C3.67918 20.2343 3.67918 22.0639 4.8077 23.1925Z" stroke="none"></path></svg>