<svg width="48" height="48" viewBox="0 0 28 28" fill="#e6007a" xmlns="http://www.w3.org/2000/svg" stroke-width="2" stroke-linecap="round" stroke-linejoin="round" stroke="#e6007a"><path fill-rule="evenodd" clip-rule="evenodd" d="M26.045 3.33301L26.045 20.126H26.7378C27.2901 20.126 27.7378 20.5737 27.7378 21.126V25.0002C27.7378 25.5525 27.2901 26.0002 26.7378 26.0002H1.26221C0.709922 26.0002 0.262207 25.5525 0.262207 25.0002V21.126C0.262207 20.5737 0.709922 20.126 1.26221 20.126H1.96954V3.33301C1.96954 2.78073 2.41726 2.33301 2.96954 2.33301H25.045C25.5973 2.33301 26.045 2.78072 26.045 3.33301ZM2.26221 22.126V24.0002H25.7378V22.126H2.26221ZM16.0591 6.0915C16.5825 6.26754 16.8642 6.83461 16.6881 7.35809L13.1973 17.7384C13.0212 18.2619 12.4541 18.5436 11.9307 18.3675C11.4072 18.1915 11.1255 17.6244 11.3016 17.1009L14.7925 6.72058C14.9685 6.1971 15.5356 5.91545 16.0591 6.0915ZM18.9982 8.86109C18.5739 8.5076 17.9433 8.56503 17.5899 8.98936C17.2364 9.4137 17.2938 10.0443 17.7181 10.3977L19.9133 12.2264L17.7189 14.0508C17.2942 14.4039 17.2361 15.0344 17.5892 15.4591C17.9423 15.8837 18.5728 15.9418 18.9975 15.5887L22.1159 12.9962C22.3442 12.8063 22.4764 12.5247 22.4766 12.2277C22.4767 11.9307 22.3448 11.649 22.1166 11.4589L18.9982 8.86109ZM10.272 10.4076C10.6961 10.0538 10.7531 9.42321 10.3993 8.99911C10.0455 8.57501 9.41494 8.51799 8.99083 8.87177L5.88287 11.4643C5.65497 11.6544 5.52329 11.936 5.52344 12.2327C5.52358 12.5295 5.65555 12.8109 5.88363 13.0008L8.99159 15.5881C9.41604 15.9415 10.0466 15.8839 10.3999 15.4594C10.7533 15.035 10.6957 14.4044 10.2712 14.0511L8.08549 12.2315L10.272 10.4076Z" stroke="none"></path></svg>