<svg width="48" height="48" viewBox="0 0 28 28" fill="#e6007a" xmlns="http://www.w3.org/2000/svg" stroke-width="2" stroke-linecap="round" stroke-linejoin="round" stroke="#e6007a"><path fill-rule="evenodd" clip-rule="evenodd" d="M10.7739 2C10.7739 1.44772 10.3261 1 9.77386 1C9.22158 1 8.77386 1.44772 8.77386 2L8.77386 4.41076C8.77386 4.96304 9.22158 5.41076 9.77387 5.41076C10.3261 5.41076 10.7739 4.96304 10.7739 4.41076L10.7739 2ZM15.4824 2C15.4824 1.44772 15.0347 1 14.4824 1C13.9301 1 13.4824 1.44772 13.4824 2L13.4824 4.41076C13.4824 4.96304 13.9301 5.41076 14.4824 5.41076C15.0347 5.41076 15.4824 4.96304 15.4824 4.41076L15.4824 2ZM15.4824 23.5894C15.4824 23.0371 15.0347 22.5894 14.4824 22.5894C13.9301 22.5894 13.4824 23.0371 13.4824 23.5894L13.4824 26.0001C13.4824 26.5524 13.9301 27.0001 14.4824 27.0001C15.0347 27.0001 15.4824 26.5524 15.4824 26.0001L15.4824 23.5894ZM19.1909 1C19.7432 1 20.1909 1.44772 20.1909 2V4.41076C20.1909 4.96304 19.7432 5.41076 19.1909 5.41076C18.6386 5.41076 18.1909 4.96304 18.1909 4.41076L18.1909 2C18.1909 1.44772 18.6386 1 19.1909 1ZM16.5408 20.7754C16.806 20.7754 17.0604 20.67 17.2479 20.4825C17.4355 20.295 17.5408 20.0406 17.5408 19.7754V17.2372L24.2739 8.84241C24.5146 8.54236 24.5618 8.13089 24.3954 7.78411C24.229 7.43734 23.8785 7.21674 23.4938 7.21674L5 7.21674C4.60832 7.21674 4.2527 7.4454 4.09017 7.80176C3.92763 8.15813 3.98811 8.57657 4.24489 8.87233L11.5248 17.2573L11.5131 19.7708C11.5119 20.0368 11.6167 20.2923 11.8044 20.4809C11.992 20.6694 12.2471 20.7754 12.5131 20.7754L16.5408 20.7754Z" stroke="none"></path></svg>