<svg width="48" height="48" viewBox="0 0 29 29" fill="#e6007a" xmlns="http://www.w3.org/2000/svg" stroke-width="2" stroke-linecap="round" stroke-linejoin="round" stroke="#e6007a"><path fill-rule="evenodd" clip-rule="evenodd" d="M13.7947 2.061C14.0167 1.9797 14.2603 1.97966 14.4823 2.0609L24.6301 5.77442C25.0243 5.91868 25.2865 6.29376 25.2865 6.71352V14.9665C25.2865 18.7049 23.3877 22.1875 20.2453 24.2127L14.616 27.8406C14.2862 28.0531 13.8626 28.0531 13.5328 27.8407L8.04314 24.3045C4.89959 22.2795 3 18.7963 3 15.057V6.71352C3 6.29387 3.26202 5.91886 3.65607 5.77452L13.7947 2.061ZM13.9938 18.2998C14.546 18.3028 14.9962 17.8575 14.9991 17.3052L15.0118 14.9743L17.3407 14.9869C17.893 14.9899 18.3431 14.5446 18.3461 13.9923C18.3491 13.44 17.9038 12.9899 17.3515 12.9869L15.0226 12.9743L15.0352 10.6455C15.0381 10.0933 14.5929 9.64314 14.0406 9.64015C13.4883 9.63717 13.0382 10.0825 13.0352 10.6347L13.0226 12.9635L10.6918 12.9509C10.1395 12.9479 9.6894 13.3932 9.68642 13.9455C9.68343 14.4978 10.1287 14.9479 10.681 14.9509L13.0118 14.9635L12.9992 17.2944C12.9962 17.8467 13.4415 18.2968 13.9938 18.2998Z" stroke="none"></path></svg>