<svg width="48" height="48" viewBox="0 0 28 29" fill="#e6007a" xmlns="http://www.w3.org/2000/svg" stroke-width="2" stroke-linecap="round" stroke-linejoin="round" stroke="#e6007a"><path fill-rule="evenodd" clip-rule="evenodd" d="M3.72116 10.7501C4.83596 7.83291 7.15692 5.51189 10.0741 4.39703L12.1082 9.27897C10.4734 9.85341 9.17838 11.1497 8.60563 12.7853L3.72116 10.7501ZM3.72115 18.6014C4.83596 21.5187 7.15698 23.8397 10.0742 24.9546L12.1082 20.0731C10.4732 19.4986 9.17814 18.2021 8.60547 16.5663L3.72115 18.6014ZM17.9255 24.9547C20.8428 23.8399 23.1639 21.5189 24.2788 18.6016L19.4027 16.5699C18.8284 18.2068 17.5305 19.5034 15.8928 20.076L17.9255 24.9547ZM19.4025 12.7818L24.2788 10.75C23.1639 7.83268 20.8428 5.51161 17.9254 4.39684L15.8924 9.27592C17.5302 9.84841 18.8281 11.1449 19.4025 12.7818ZM14 1.67578C6.8203 1.67578 1 7.49608 1 14.6758C1 21.8555 6.8203 27.6758 14 27.6758C21.1797 27.6758 27 21.8555 27 14.6758C27 7.49608 21.1797 1.67578 14 1.67578ZM10.2857 14.676C10.2857 12.6221 11.9508 10.957 14.0047 10.957C16.0586 10.957 17.7237 12.6221 17.7237 14.676C17.7237 16.73 16.0586 18.395 14.0047 18.395C11.9508 18.395 10.2857 16.73 10.2857 14.676Z" stroke="none"></path></svg>