<svg width="48" height="48" viewBox="0 0 28 28" fill="#e6007a" xmlns="http://www.w3.org/2000/svg" stroke-width="2" stroke-linecap="round" stroke-linejoin="round" stroke="#e6007a"><path fill-rule="evenodd" clip-rule="evenodd" d="M6.24512 17.2608C5.96722 17.7381 6.12884 18.3503 6.60612 18.6282C7.08339 18.9061 7.69558 18.7444 7.97348 18.2672L11.1143 12.873C11.3922 12.3957 11.2306 11.7835 10.7533 11.5056C10.2761 11.2277 9.66389 11.3893 9.38598 11.8666L6.24512 17.2608ZM21.698 17.2608C21.9759 17.7381 21.8143 18.3503 21.337 18.6282C20.8597 18.9061 20.2475 18.7444 19.9696 18.2672L16.8288 12.873C16.5509 12.3957 16.7125 11.7835 17.1898 11.5056C17.667 11.2277 18.2792 11.3893 18.5571 11.8666L21.698 17.2608ZM4 19.9998C3.44772 19.9998 3 20.4475 3 20.9998V26.1427C3 26.695 3.44772 27.1427 4 27.1427H9.14286C9.69514 27.1427 10.1429 26.695 10.1429 26.1427V20.9998C10.1429 20.4475 9.69514 19.9998 9.14286 19.9998H4ZM23.4659 20.5526C23.2965 20.2138 22.9502 19.9998 22.5714 19.9998C22.1927 19.9998 21.8464 20.2138 21.677 20.5526L19.1056 25.6955C18.9506 26.0054 18.9671 26.3736 19.1493 26.6684C19.3316 26.9632 19.6534 27.1427 20 27.1427H25.1429C25.4894 27.1427 25.8113 26.9632 25.9935 26.6684C26.1757 26.3736 26.1923 26.0054 26.0373 25.6955L23.4659 20.5526Z" stroke="none"></path><path fill-rule="evenodd" clip-rule="evenodd" d="M17.0089 3.29624C16.4723 2.53054 15.3067 2 13.9553 2C12.6039 2 11.4384 2.53054 10.9017 3.29624C10.8027 3.26339 10.6968 3.24561 10.5867 3.24561C10.0344 3.24561 9.58669 3.69332 9.58669 4.24561V7.65023C9.58669 8.7281 10.2521 9.53421 11.0531 10.0222C11.8521 10.509 12.8841 10.7559 13.9553 10.7559C15.0266 10.7559 16.0585 10.509 16.8576 10.0222C17.6586 9.53421 18.324 8.7281 18.324 7.65023V4.24561C18.324 3.69332 17.8763 3.24561 17.324 3.24561C17.2139 3.24561 17.108 3.26339 17.0089 3.29624ZM11.5867 7.65023V6.98531C12.2824 7.31321 13.1011 7.49137 13.9553 7.49137C14.8096 7.49137 15.6283 7.31321 16.324 6.98531V7.65023C16.324 7.81264 16.2353 8.05936 15.8171 8.31415C15.3969 8.57012 14.7445 8.75588 13.9553 8.75588C13.1662 8.75588 12.5138 8.57012 12.0936 8.31415C11.6754 8.05936 11.5867 7.81264 11.5867 7.65023Z" stroke="none"></path><path fill-rule="evenodd" clip-rule="evenodd" d="M11.0186 1.82573C11.814 1.29547 12.8552 1 13.9553 1C15.0554 1 16.0966 1.29547 16.892 1.82573C17.6804 2.35131 18.324 3.18723 18.324 4.24577C18.324 5.3043 17.6804 6.14022 16.892 6.66581C16.0966 7.19606 15.0554 7.49153 13.9553 7.49153C12.8552 7.49153 11.814 7.19606 11.0186 6.66581C10.2303 6.14022 9.58669 5.3043 9.58669 4.24577C9.58669 3.18723 10.2303 2.35131 11.0186 1.82573ZM12.1281 3.48983C11.6972 3.77705 11.5867 4.06402 11.5867 4.24577C11.5867 4.42752 11.6972 4.71448 12.1281 5.00171C12.5519 5.28427 13.195 5.49153 13.9553 5.49153C14.7157 5.49153 15.3588 5.28427 15.7826 5.00171C16.2135 4.71448 16.324 4.42752 16.324 4.24577C16.324 4.06402 16.2135 3.77705 15.7826 3.48983C15.3588 3.20727 14.7157 3 13.9553 3C13.195 3 12.5519 3.20727 12.1281 3.48983Z" stroke="none"></path></svg>