<svg width="48" height="48" viewBox="0 0 28 28" fill="#e6007a" xmlns="http://www.w3.org/2000/svg" stroke-width="2" stroke-linecap="round" stroke-linejoin="round" stroke="#e6007a"><path d="M24.3,23.7L21,18.1c1.6-1.8,2.7-4.1,2.7-6.7c0-5.4-4.4-9.8-9.8-9.8S4,6,4,11.4s4.4,9.8,9.8,9.8c0.4,0,0.8,0,1.2-0.1l3.4,5.9 c0.1,0.2,0.4,0.4,0.6,0.5c0.1,0,0.2,0,0.3,0c0.2,0,0.3,0,0.5-0.1l4-2.3C24.4,24.8,24.5,24.2,24.3,23.7z M14.6,19.2 c0.1,0,0.2,0,0.3,0C14.8,19.2,14.7,19.2,14.6,19.2z M15.4,19.1c0.1,0,0.1,0,0.2,0C15.5,19.1,15.4,19.1,15.4,19.1 C15.4,19.1,15.4,19.1,15.4,19.1z M16.3,18.8c0.1,0,0.2-0.1,0.2-0.1C16.4,18.8,16.4,18.8,16.3,18.8C16.3,18.8,16.3,18.8,16.3,18.8z  M17.4,18.4c0,0,0.1,0,0.1-0.1C17.5,18.3,17.4,18.4,17.4,18.4C17.4,18.4,17.4,18.4,17.4,18.4z M18.1,17.9c0.1-0.1,0.2-0.1,0.2-0.2 C18.3,17.8,18.2,17.9,18.1,17.9z M6.3,13.6c0.2,0.7,0.5,1.3,0.9,1.9C6.8,14.9,6.5,14.3,6.3,13.6z M6,11.4c0,0.3,0,0.7,0.1,1 C6.1,12.1,6,11.7,6,11.4z M6.1,12.6c0,0.3,0.1,0.6,0.2,0.9C6.2,13.2,6.2,12.9,6.1,12.6z M7.2,15.5c0.5-1.8,1.9-3.3,3.9-3.8l0.2-0.1 l-0.2-0.2C9.9,10,10,7.9,11.4,6.6c1.4-1.4,3.8-1.4,5.3,0c1.4,1.3,1.5,3.4,0.2,4.8l-0.2,0.2l0.2,0.1c1.8,0.5,3.2,1.8,3.8,3.4 c0.1-0.3,0.3-0.5,0.4-0.8c-0.5,1.1-1.2,2.1-2,2.9c0,0,0,0-0.1,0v-0.5c0-1.4-1.1-2.7-2.6-3.1l-0.7-0.2c-0.6-0.2-1-0.6-1.2-1.1 c-0.2-0.6,0-1.1,0.4-1.6l0.5-0.6c0.5-0.6,0.5-1.5-0.1-2c-0.7-0.6-1.8-0.6-2.5,0c-0.6,0.6-0.6,1.4-0.1,2l0.5,0.6 c0.4,0.4,0.5,1,0.4,1.6c-0.2,0.6-0.6,1-1.2,1.1l-0.7,0.2C10.1,14,9,15.3,9,16.7v0.8c0.5,0.4,1,0.7,1.5,0.9C9.2,17.8,8,16.8,7.2,15.5 z M21.7,11.4c0,0.3,0,0.6-0.1,0.9C21.7,12,21.7,11.7,21.7,11.4z M21.6,12.6c0,0.2-0.1,0.4-0.1,0.6C21.5,13,21.6,12.8,21.6,12.6z  M21.4,13.5c-0.1,0.2-0.1,0.4-0.2,0.6C21.3,13.9,21.3,13.7,21.4,13.5z M13.1,19.2c-0.1,0-0.2,0-0.3,0C12.9,19.2,13,19.2,13.1,19.2z  M12.4,19.1c-0.1,0-0.2,0-0.3-0.1C12.2,19,12.3,19.1,12.4,19.1z M11.7,18.9c-0.1,0-0.2-0.1-0.4-0.1C11.5,18.9,11.6,18.9,11.7,18.9z  M11.1,18.7c-0.1-0.1-0.3-0.1-0.4-0.2C10.8,18.6,11,18.7,11.1,18.7z M19.7,25.2l-2.6-4.5c0.1,0,0.1,0,0.2-0.1c0.3-0.1,0.6-0.3,1-0.4 c0.1,0,0.1,0,0.2-0.1c0.4-0.2,0.7-0.4,1.1-0.7c0,0,0,0,0,0l2.5,4.4L19.7,25.2z" stroke="none"></path></svg>