<svg width="48" height="48" viewBox="0 0 28 28" fill="#e6007a" xmlns="http://www.w3.org/2000/svg" stroke-width="2" stroke-linecap="round" stroke-linejoin="round" stroke="#e6007a"><path fill-rule="evenodd" clip-rule="evenodd" d="M2.46045 0.478516C1.90816 0.478516 1.46045 0.926231 1.46045 1.47852V26.5207C1.46045 27.0729 1.90816 27.5207 2.46045 27.5207H26.5394C27.0917 27.5207 27.5394 27.0729 27.5394 26.5207V1.47852C27.5394 0.926231 27.0917 0.478516 26.5394 0.478516H2.46045ZM21.7605 22.668C21.7605 23.2203 21.3128 23.668 20.7605 23.668H8.23943C7.68714 23.668 7.23943 23.2203 7.23943 22.668C7.23943 22.1157 7.68714 21.668 8.23943 21.668H20.7605C21.3128 21.668 21.7605 22.1157 21.7605 22.668ZM15.8035 7.06218C15.0827 6.34906 13.9223 6.34906 13.2015 7.06218C12.5161 7.74033 12.4666 8.83123 13.0877 9.5687L13.6197 10.2003C14.4417 11.1763 13.9757 12.6755 12.7452 13.0135L11.9763 13.2246C10.3598 13.6686 9.23943 15.1381 9.23943 16.8145V17.8156H19.7605V16.8109C19.7605 15.1363 18.6415 13.6683 17.0268 13.2245L16.2594 13.0136C15.0291 12.6754 14.5632 11.1763 15.3852 10.2005L15.9173 9.5687C16.5384 8.83123 16.4889 7.74033 15.8035 7.06218ZM11.7948 5.64046C13.2949 4.15631 15.7101 4.15631 17.2102 5.64046C18.6366 7.05185 18.7397 9.32225 17.447 10.8571L17.1675 11.189L17.5568 11.296C20.0397 11.9784 21.7605 14.2359 21.7605 16.8109V18.8156C21.7605 19.3679 21.3128 19.8156 20.7605 19.8156H8.23943C7.68714 19.8156 7.23943 19.3679 7.23943 18.8156V16.8145C7.23943 14.2376 8.96171 11.9785 11.4466 11.2961L11.8373 11.1887L11.558 10.8571C10.2653 9.32225 10.3684 7.05185 11.7948 5.64046Z" stroke="none"></path></svg>