<svg width="48" height="48" viewBox="0 0 28 29" fill="#e6007a" xmlns="http://www.w3.org/2000/svg" stroke-width="2" stroke-linecap="round" stroke-linejoin="round" stroke="#e6007a"><path fill-rule="evenodd" clip-rule="evenodd" d="M3 14.9014C3 11.3748 5.6078 8.45738 9.00018 7.97223V21.8305C5.6078 21.3454 3 18.4279 3 14.9014ZM14.899 19.9014C13.8612 20.9183 12.5082 21.6147 11.0002 21.8305V19.9014H14.899ZM16.3264 17.9014H11.0002V15.9014H16.9291C16.8281 16.6075 16.6217 17.2797 16.3264 17.9014ZM16.9291 13.9014H11.0002V11.9014H16.3264C16.6217 12.5231 16.8281 13.1952 16.9291 13.9014ZM14.899 9.90137H11.0002V7.97228C12.5082 8.18803 13.8612 8.88445 14.899 9.90137ZM10 23.9014H10.0002H26.0002C26.5525 23.9014 27.0002 23.4537 27.0002 22.9014V6.90137C27.0002 6.34908 26.5525 5.90137 26.0002 5.90137H10.0002H10C5.02944 5.90137 1 9.9308 1 14.9014C1 19.8719 5.02944 23.9014 10 23.9014Z" stroke="none"></path></svg>