<svg width="48" height="48" viewBox="0 0 29 29" fill="#e6007a" xmlns="http://www.w3.org/2000/svg" stroke-width="2" stroke-linecap="round" stroke-linejoin="round" stroke="#e6007a"><path fill-rule="evenodd" clip-rule="evenodd" d="M14.9883 1.67578C7.80858 1.67578 1.98828 7.49608 1.98828 14.6758C1.98828 21.8555 7.80858 27.6758 14.9883 27.6758C22.168 27.6758 27.9883 21.8555 27.9883 14.6758C27.9883 7.49608 22.168 1.67578 14.9883 1.67578ZM15.0089 21.2124C14.4566 21.2131 14.0083 20.766 14.0075 20.2137L13.998 13.0835C13.9973 12.5312 14.4444 12.0829 14.9967 12.0822C15.549 12.0815 15.9973 12.5286 15.998 13.0809L16.0075 20.2111C16.0083 20.7634 15.5611 21.2117 15.0089 21.2124ZM14.2992 9.40118C14.6897 9.7917 15.3228 9.7917 15.7134 9.40118C16.1039 9.01065 16.1039 8.37749 15.7134 7.98696L15.6952 7.96883C15.3047 7.5783 14.6715 7.5783 14.281 7.96883C13.8905 8.35935 13.8905 8.99251 14.281 9.38304L14.2992 9.40118Z" stroke="none"></path></svg>