<svg width="48" height="48" viewBox="0 0 28 28" fill="#e6007a" xmlns="http://www.w3.org/2000/svg" stroke-width="2" stroke-linecap="round" stroke-linejoin="round" stroke="#e6007a"><path fill-rule="evenodd" clip-rule="evenodd" d="M14.0332 1C11.9375 1 10.2618 2.71839 10.2618 4.80939C10.2618 6.5469 11.4188 8.02714 13.0125 8.47795V11.1182H4.7714C4.50618 11.1182 4.25183 11.2235 4.06429 11.4111C3.87675 11.5986 3.7714 11.8529 3.7714 12.1182V15.2981C2.16711 15.7419 1 17.2274 1 18.9725C1 21.0635 2.67575 22.7819 4.77144 22.7819C6.86712 22.7819 8.54287 21.0635 8.54287 18.9725C8.54287 17.2274 7.37573 15.7419 5.7714 15.2981V13.1182H13.0125V19.4951C11.3668 19.9108 10.1605 21.4166 10.1605 23.1907C10.1605 25.2817 11.8363 27.0001 13.932 27.0001C16.0276 27.0001 17.7034 25.2817 17.7034 23.1907C17.7034 21.475 16.5752 20.0101 15.0125 19.5396V13.1182H22.2534V15.2913C20.6363 15.7266 19.4572 17.2184 19.4572 18.9725C19.4572 21.0635 21.1329 22.7819 23.2286 22.7819C25.3243 22.7819 27 21.0635 27 18.9725C27 17.2364 25.8449 15.7572 24.2534 15.3051V12.1182C24.2534 11.5659 23.8057 11.1182 23.2534 11.1182H15.0125V8.48944C16.6274 8.05277 17.8046 6.56196 17.8046 4.80939C17.8046 2.71839 16.1289 1 14.0332 1Z" stroke="none"></path></svg>