<svg width="48" height="48" viewBox="0 0 28 28" fill="#e6007a" xmlns="http://www.w3.org/2000/svg" stroke-width="2" stroke-linecap="round" stroke-linejoin="round" stroke="#e6007a"><path fill-rule="evenodd" clip-rule="evenodd" d="M22.1409 7.47407C21.7522 7.86639 21.7551 8.49955 22.1475 8.88827C22.5398 9.27698 23.1729 9.27405 23.5617 8.88172L26.707 5.70718C27.0928 5.31774 27.0932 4.69025 26.7078 4.30036L23.5625 1.1183C23.1742 0.725516 22.5411 0.721837 22.1483 1.11009C21.7555 1.49834 21.7518 2.13149 22.1401 2.52428L23.6021 4.00335L20.0093 4.00336C19.457 4.00336 19.0093 4.45107 19.0093 5.00336C19.0093 5.55564 19.457 6.00336 20.0093 6.00336L23.5981 6.00335L22.1409 7.47407ZM16.313 4.63328C14.0866 2.40284 10.4727 2.40284 8.24641 4.63327C6.16708 6.71645 6.01633 10.0404 7.89855 12.3033L8.80767 13.3962C8.92443 13.5366 8.85753 13.7507 8.68162 13.7996L7.44991 14.1421C3.64473 15.2003 1.01172 18.6655 1.01172 22.6151V25.9916C1.01172 26.5439 1.45943 26.9916 2.01172 26.9916H22.5393C23.0916 26.9916 23.5393 26.5439 23.5393 25.9916V22.6092C23.5393 18.6627 20.9087 15.2001 17.1067 14.142L15.8775 13.7999C15.7016 13.751 15.6347 13.5368 15.7515 13.3965L16.6608 12.3033C18.543 10.0404 18.3923 6.71645 16.313 4.63328Z" stroke="none"></path></svg>