<svg width="48" height="48" viewBox="0 0 28 28" fill="#e6007a" xmlns="http://www.w3.org/2000/svg" stroke-width="2" stroke-linecap="round" stroke-linejoin="round" stroke="#e6007a"><path fill-rule="evenodd" clip-rule="evenodd" d="M13.0001 10.8043C10.7633 10.3253 9.08618 8.33717 9.08618 5.95734C9.08618 3.21975 11.3054 1.00049 14.043 1.00049C16.7806 1.00049 18.9999 3.21975 18.9999 5.95734C18.9999 8.36753 17.2797 10.376 15.0001 10.8219V14.4713L19.3333 17.4906C20.2263 16.6216 21.4457 16.0864 22.7901 16.0864C25.5277 16.0864 27.747 18.3057 27.747 21.0433C27.747 23.7809 25.5277 26.0001 22.7901 26.0001C20.0525 26.0001 17.8333 23.7809 17.8333 21.0433C17.8333 20.3709 17.9671 19.7299 18.2096 19.1453L14.0048 16.2154L9.79226 19.1507C10.0334 19.7338 10.1664 20.373 10.1664 21.0433C10.1664 23.7809 7.94713 26.0001 5.20954 26.0001C2.47194 26.0001 0.252686 23.7809 0.252686 21.0433C0.252686 18.3057 2.47194 16.0864 5.20954 16.0864C6.55604 16.0864 7.77715 16.6233 8.67047 17.4947L13.0001 14.4779V10.8043Z" stroke="none"></path></svg>