<svg width="48" height="48" viewBox="0 0 28 28" fill="#e6007a" xmlns="http://www.w3.org/2000/svg" stroke-width="2" stroke-linecap="round" stroke-linejoin="round" stroke="#e6007a"><g><path fill-rule="evenodd" clip-rule="evenodd" d="M1.82641 9.00091C4.36855 2.49631 11.703 -0.715398 18.2082 1.82697C24.7134 4.36935 27.9264 11.7032 25.3843 18.2078C22.8421 24.7124 15.5077 27.9241 9.00248 25.3818C2.49728 22.8394 -0.715729 15.5055 1.82641 9.00091ZM14.3693 6.8616C13.4923 6.51844 12.4932 6.95327 12.1442 7.84744C11.7951 8.74162 12.2349 9.73948 13.1119 10.0827C13.9889 10.4258 14.988 9.99099 15.337 9.09681C15.6861 8.20264 15.2463 7.20477 14.3693 6.8616ZM10.2817 7.11865C11.0287 5.20494 13.1815 4.24917 15.0965 4.99851C17.0115 5.74785 17.9465 7.91188 17.1995 9.8256C17.0227 10.2786 16.7671 10.678 16.4545 11.0137L17.4809 12.8037C18.1971 12.6271 18.9727 12.6621 19.7127 12.9516C21.6277 13.701 22.5627 15.865 21.8157 17.7787C21.0687 19.6924 18.9159 20.6482 17.0009 19.8989C15.8758 19.4586 15.089 18.5301 14.7828 17.4509L12.3929 17.4414C12.3581 17.5692 12.3161 17.6965 12.2669 17.8227C11.5199 19.7364 9.36704 20.6921 7.45203 19.9428C5.53702 19.1935 4.602 17.0294 5.34902 15.1157C6.04808 13.3249 7.97824 12.3729 9.79255 12.8722L10.9935 10.9891C10.0712 9.97363 9.74927 8.48257 10.2817 7.11865ZM12.6893 12.0501C13.3816 12.2546 14.0932 12.246 14.749 12.0584L15.7387 13.7845C15.3824 14.1398 15.0924 14.5733 14.8978 15.0718C14.8489 15.197 14.8073 15.3234 14.7726 15.4503L12.3812 15.4408C12.2183 14.8685 11.9203 14.3387 11.5084 13.9018L12.6893 12.0501ZM18.9854 14.8147C18.1084 14.4716 17.1094 14.9064 16.7603 15.8006C16.4113 16.6947 16.8511 17.6926 17.7281 18.0358C18.6051 18.3789 19.6042 17.9441 19.9532 17.0499C20.3023 16.1558 19.8624 15.1579 18.9854 14.8147ZM7.21151 15.8445C7.56055 14.9503 8.55962 14.5155 9.43661 14.8587C10.3136 15.2018 10.7534 16.1997 10.4044 17.0939C10.0554 17.9881 9.05628 18.4229 8.17929 18.0797C7.30229 17.7366 6.86247 16.7387 7.21151 15.8445Z" stroke="none"></path></g></svg>