<svg width="48" height="48" viewBox="0 0 28 28" fill="#e6007a" xmlns="http://www.w3.org/2000/svg" stroke-width="2" stroke-linecap="round" stroke-linejoin="round" stroke="#e6007a"><path fill-rule="evenodd" clip-rule="evenodd" d="M8.79878 0.265625C4.06663 0.265625 0.230469 4.10179 0.230469 8.83393C0.230469 13.5661 4.06663 17.4022 8.79878 17.4022C13.5309 17.4022 17.3671 13.5661 17.3671 8.83393C17.3671 4.10179 13.5309 0.265625 8.79878 0.265625ZM8.79614 3.52441C9.34843 3.52441 9.79614 3.97213 9.79614 4.52441V4.7266H10.3476C10.8998 4.7266 11.3476 5.17432 11.3476 5.7266C11.3476 6.27888 10.8998 6.7266 10.3476 6.7266H8.25317C8.1807 6.7261 8.10884 6.73991 8.04174 6.7673C7.97464 6.79468 7.91362 6.83507 7.86219 6.88615C7.81076 6.93722 7.76995 6.99796 7.7421 7.06487C7.71469 7.13074 7.70037 7.20129 7.69992 7.27259C7.70184 7.41924 7.7612 7.55936 7.86533 7.66277C7.97028 7.76699 8.11219 7.82549 8.2601 7.82548H9.3361C10.012 7.82547 10.6606 8.09278 11.1402 8.56909C11.6157 9.04131 11.8869 9.68097 11.8961 10.3506C11.9082 10.6958 11.8503 11.0399 11.7258 11.3623C11.5993 11.69 11.4066 11.9883 11.1598 12.2383C10.9131 12.4884 10.6175 12.6851 10.2914 12.816C10.1311 12.8803 9.96517 12.9281 9.79614 12.9589V13.2191C9.79614 13.7714 9.34843 14.2191 8.79614 14.2191C8.24386 14.2191 7.79614 13.7714 7.79614 13.2191V12.9997H7.03348C6.48119 12.9997 6.03348 12.552 6.03348 11.9997C6.03348 11.4474 6.48119 10.9997 7.03348 10.9997H9.29308C9.30257 10.9997 9.31205 10.9998 9.32154 11.0001C9.39839 11.0023 9.47487 10.9886 9.54621 10.96C9.61754 10.9313 9.68222 10.8883 9.73623 10.8336C9.79024 10.7789 9.8324 10.7136 9.86008 10.6419C9.88777 10.5702 9.9004 10.4935 9.89719 10.4167C9.89671 10.4051 9.89642 10.3935 9.89634 10.3818C9.89532 10.2339 9.83585 10.0924 9.7309 9.98819C9.62595 9.88397 9.48405 9.82548 9.33614 9.82548H8.26014C7.58419 9.82549 6.93564 9.55818 6.45602 9.08187C5.97639 8.60555 5.7046 7.95888 5.69994 7.28294L5.69989 7.27606C5.69988 6.93976 5.76644 6.60679 5.89566 6.29633C6.02489 5.98585 6.21427 5.70402 6.45288 5.46705C6.69149 5.23008 6.97463 5.04266 7.28599 4.91558C7.45081 4.84832 7.62181 4.79866 7.79614 4.76717V4.52441C7.79614 3.97213 8.24386 3.52441 8.79614 3.52441ZM26.7751 9.23145C27.3274 9.22964 27.7766 9.67588 27.7784 10.2282L27.7974 15.9967C27.7992 16.549 27.3529 16.9982 26.8006 17C26.2484 17.0018 25.7992 16.5556 25.7974 16.0033L25.786 12.5473L17.2654 20.9526C16.8911 21.3218 16.3866 21.5288 15.8609 21.5288H9.65816L2.38845 26.8088C1.9416 27.1334 1.31624 27.0343 0.991685 26.5874C0.667128 26.1405 0.766272 25.5152 1.21313 25.1906L8.48284 19.9106C8.82449 19.6624 9.23591 19.5288 9.65816 19.5288H15.8609L24.2636 11.2397L21.0033 11.2504C20.451 11.2522 20.0018 10.806 20 10.2537C19.9982 9.70139 20.4444 9.25221 20.9967 9.2504L26.7751 9.23145Z" stroke="none"></path></svg>