<svg width="48" height="48" viewBox="0 0 29 29" fill="#e6007a" xmlns="http://www.w3.org/2000/svg" stroke-width="2" stroke-linecap="round" stroke-linejoin="round" stroke="#e6007a"><path fill-rule="evenodd" clip-rule="evenodd" d="M16.1031 7.80056C17.7842 6.30638 20.3582 6.45791 21.8524 8.13901C22.7477 9.14634 23.0522 10.4743 22.7907 11.6984C22.8838 11.768 22.9663 11.8551 23.0329 11.9587L27.6949 19.2047C27.9937 19.6692 27.8595 20.288 27.395 20.5868L24.4939 22.4533C24.2709 22.5968 24 22.6458 23.7408 22.5895C23.4816 22.5333 23.2554 22.3764 23.1119 22.1534L18.5358 15.0408C18.5069 14.9959 18.4821 14.9495 18.4612 14.9021C18.0577 14.8676 17.6591 14.7733 17.2797 14.62C17.2033 14.7152 17.108 14.7978 16.9956 14.862L14.268 16.4185C14.325 17.0826 14.2738 17.7683 14.0953 18.4496C13.2529 21.6655 9.96396 23.5892 6.74806 22.7468C5.79192 22.4964 4.95051 22.0231 4.26392 21.4151C4.02408 21.2027 3.90052 20.8883 3.93158 20.5695C3.96264 20.2506 4.14457 19.966 4.42088 19.8039L7.53555 17.9768L6.83237 16.7745L3.8131 18.5458C3.52695 18.7136 3.17616 18.7287 2.8767 18.5859C2.57724 18.4431 2.36809 18.1611 2.31838 17.8331C2.19988 17.0511 2.22544 16.2268 2.44269 15.3974C3.28504 12.1815 6.57402 10.2579 9.78993 11.1003C10.3896 11.2573 10.9476 11.5011 11.4508 11.8176L14.5116 10.1047C14.6123 10.0484 14.7184 10.0114 14.8259 9.99239C15.0006 9.17291 15.4288 8.39987 16.1031 7.80056ZM20.5755 14.5147L24.2528 20.2302L25.4719 19.4459L21.7501 13.6611C21.6751 13.7393 21.5963 13.8151 21.514 13.8883C21.2243 14.1458 20.9081 14.3544 20.5755 14.5147ZM15.6016 13.3548C15.3109 12.9841 15.0942 12.5766 14.9503 12.1511L11.8753 13.8719C11.5183 14.0717 11.0755 14.0338 10.7576 13.7764C10.3401 13.4382 9.84267 13.1815 9.28315 13.035C7.13903 12.4734 4.94655 13.7529 4.37999 15.8944L6.68403 14.5428C6.91299 14.4084 7.18596 14.3707 7.44278 14.4377C7.69961 14.5048 7.91923 14.6713 8.05324 14.9004L9.76615 17.8291C10.0447 18.3054 9.88486 18.9173 9.40893 19.1965L6.86561 20.6885C6.99209 20.7359 7.12192 20.7773 7.25483 20.8121C9.40221 21.3745 11.5981 20.0902 12.1606 17.9429C12.3233 17.3216 12.3278 16.6917 12.202 16.0937C12.1125 15.6687 12.3076 15.2345 12.6849 15.0192L15.6016 13.3548Z" stroke="none"></path></svg>