<svg width="48" height="48" viewBox="0 0 28 28" fill="#e6007a" xmlns="http://www.w3.org/2000/svg" stroke-width="2" stroke-linecap="round" stroke-linejoin="round" stroke="#e6007a"><path fill-rule="evenodd" clip-rule="evenodd" d="M11.6228 4.78913C11.6228 2.69645 13.3192 1 15.4119 1C17.5046 1 19.201 2.69645 19.201 4.78913C19.201 6.53644 18.0183 8.00751 16.4098 8.44549C16.4108 8.46353 16.4113 8.48171 16.4113 8.5V11.4271C18.0191 11.8656 19.201 13.3363 19.201 15.0831C19.201 15.9357 18.9194 16.7226 18.4441 17.3557L20.2889 19.7173C20.7408 19.527 21.2372 19.4219 21.7582 19.4219C23.8509 19.4219 25.5473 21.1183 25.5473 23.211C25.5473 25.3037 23.8509 27.0001 21.7582 27.0001C19.6655 27.0001 17.9691 25.3037 17.9691 23.211C17.9691 22.3645 18.2466 21.5829 18.7157 20.9521L16.8653 18.5835C16.4177 18.7695 15.9268 18.8722 15.4119 18.8722C14.135 18.8722 13.0056 18.2405 12.3191 17.2726L9.56179 18.3041C9.57269 18.4212 9.57826 18.5398 9.57826 18.6597C9.57826 20.7524 7.88181 22.4489 5.78913 22.4489C3.69645 22.4489 2 20.7524 2 18.6597C2 16.5671 3.69645 14.8706 5.78913 14.8706C7.04967 14.8706 8.16644 15.4861 8.85528 16.433L11.6353 15.3931C11.627 15.2908 11.6228 15.1875 11.6228 15.0831C11.6228 13.3368 12.8041 11.8664 14.4113 11.4275V8.5C14.4113 8.48159 14.4118 8.4633 14.4127 8.44514C12.8049 8.00673 11.6228 6.53598 11.6228 4.78913Z" stroke="none"></path></svg>