<svg width="48" height="48" viewBox="0 0 28 28" fill="#e6007a" xmlns="http://www.w3.org/2000/svg" stroke-width="2" stroke-linecap="round" stroke-linejoin="round" stroke="#e6007a"><path fill-rule="evenodd" clip-rule="evenodd" d="M24.4502 3.55015C22.813 1.91297 20.1586 1.91297 18.5215 3.55015C16.8843 5.18733 16.8843 7.84173 18.5215 9.47891C20.1586 11.1161 22.813 11.1161 24.4502 9.47891C26.0874 7.84173 26.0874 5.18733 24.4502 3.55015ZM9.47892 9.09214C7.84174 7.45496 5.18735 7.45496 3.55017 9.09214C1.91299 10.7293 1.91299 13.3837 3.55017 15.0209C5.18735 16.6581 7.84174 16.6581 9.47892 15.0209C11.1161 13.3837 11.1161 10.7293 9.47892 9.09214ZM9.47892 18.5209C7.84174 16.8837 5.18735 16.8837 3.55017 18.5209C1.91299 20.158 1.91299 22.8124 3.55017 24.4496C5.18735 26.0868 7.84174 26.0868 9.47892 24.4496C11.1161 22.8124 11.1161 20.158 9.47892 18.5209ZM18.9076 18.5209C17.2704 16.8837 14.6161 16.8837 12.9789 18.5209C11.3417 20.158 11.3417 22.8124 12.9789 24.4496C14.6161 26.0868 17.2704 26.0868 18.9076 24.4496C20.5448 22.8124 20.5448 20.158 18.9076 18.5209Z" stroke="none"></path></svg>