<svg width="48" height="48" viewBox="0 0 28 28" fill="#e6007a" xmlns="http://www.w3.org/2000/svg" stroke-width="2" stroke-linecap="round" stroke-linejoin="round" stroke="#e6007a"><path fill-rule="evenodd" clip-rule="evenodd" d="M26 24H2C1.73478 24 1.48043 23.8946 1.29289 23.7071C1.10536 23.5196 1 23.2652 1 23V15H8C8.33435 15 8.64658 14.8329 8.83205 14.5547L9.8762 12.9885L13.1056 19.4472C13.2765 19.7891 13.6274 20.0036 14.0096 20C14.3918 19.9963 14.7385 19.775 14.9029 19.4299L19.0604 10.6991L21.1221 14.4789C21.2973 14.8001 21.6341 15 22 15H27V23C27 23.5523 26.5523 24 26 24ZM27 13H22.5936L19.8779 8.02115C19.6979 7.69123 19.3482 7.49006 18.9725 7.50038C18.5969 7.5107 18.2587 7.73077 18.0971 8.07007L13.9781 16.7201L10.8944 10.5528C10.735 10.234 10.4179 10.0241 10.0621 10.0019C9.70636 9.97978 9.36568 10.1487 9.16795 10.4453L7.46482 13H1V5C1 4.44771 1.44772 4 2 4L26 4C26.5523 4 27 4.44772 27 5L27 13Z" stroke="none"></path></svg>