<svg width="48" height="48" viewBox="0 0 28 28" fill="#e6007a" xmlns="http://www.w3.org/2000/svg" stroke-width="2" stroke-linecap="round" stroke-linejoin="round" stroke="#e6007a"><path fill-rule="evenodd" clip-rule="evenodd" d="M5.36743 13.0723C5.62225 12.8383 5.92072 12.6567 6.24579 12.5381C6.57086 12.4194 6.9162 12.366 7.26209 12.3808C7.60799 12.3957 7.94766 12.4785 8.26172 12.6246C8.57394 12.7699 8.85473 12.9749 9.08826 13.228C9.55194 13.7479 9.79131 14.43 9.75412 15.1254C9.71683 15.8227 9.40446 16.4764 8.88573 16.9431L8.88569 16.9431L8.87818 16.95C8.62335 17.184 8.32489 17.3655 7.99981 17.4842C7.67474 17.6028 7.3294 17.6563 6.98351 17.6414C6.63762 17.6266 6.29794 17.5438 5.98388 17.3976C5.67161 17.2523 5.39076 17.0473 5.15721 16.7941C4.69325 16.2744 4.4537 15.5923 4.49089 14.8969C4.52818 14.1996 4.84069 13.5459 5.35958 13.0794L5.35962 13.0795L5.36743 13.0723ZM5.56009 10.6593C4.98981 10.8674 4.46604 11.1856 4.01849 11.5957C3.10751 12.4166 2.55924 13.5653 2.49374 14.7901C2.42815 16.0166 2.85204 17.2192 3.67214 18.1337L3.67209 18.1338L3.68007 18.1424C4.09194 18.591 4.58807 18.9541 5.14015 19.2109C5.69223 19.4678 6.28948 19.6135 6.8978 19.6396C7.50611 19.6657 8.11359 19.5717 8.68552 19.363C9.25586 19.1548 9.77971 18.8366 10.2273 18.4264C10.9983 17.7311 11.5094 16.801 11.6876 15.7887L17.1842 15.7845L17.1872 19.6333C17.1876 20.1851 17.635 20.6323 18.1869 20.6325L23.2288 20.6339C23.4942 20.6339 23.7488 20.5285 23.9364 20.3407C24.1241 20.1529 24.2293 19.8982 24.229 19.6328L24.2249 15.779L26.0008 15.7776C26.5531 15.7772 27.0004 15.3292 27 14.7769C26.9996 14.2246 26.5515 13.7772 25.9992 13.7776L11.6011 13.7888C11.4146 13.0899 11.0654 12.4376 10.5737 11.8888L10.5738 11.8888L10.5655 11.8798C10.1537 11.4313 9.65754 11.0682 9.10545 10.8113C8.55337 10.5544 7.95613 10.4088 7.34781 10.3827C6.73949 10.3566 6.13202 10.4506 5.56009 10.6593Z" stroke="none"></path></svg>