<svg width="48" height="48" viewBox="0 0 28 28" fill="#e6007a" xmlns="http://www.w3.org/2000/svg" stroke-width="2" stroke-linecap="round" stroke-linejoin="round" stroke="#e6007a"><path fill-rule="evenodd" clip-rule="evenodd" d="M14.2635 3.11114C13.9802 2.9651 13.6442 2.96287 13.359 3.10514L2.55365 8.49484C2.21652 8.663 2.00252 9.00635 2.00002 9.38307C1.99753 9.7598 2.20697 10.106 2.54183 10.2786L5.19551 11.6464L2.55365 12.9642C2.21652 13.1323 2.00252 13.4757 2.00002 13.8524C1.99753 14.2291 2.20697 14.5753 2.54183 14.7479L5.19524 16.1156L2.55365 17.4332C2.21652 17.6014 2.00252 17.9447 2.00002 18.3215C1.99753 18.6982 2.20697 19.0444 2.54183 19.217L13.7365 24.9873C14.0198 25.1334 14.3558 25.1356 14.641 24.9933L25.4464 19.6036C25.7835 19.4354 25.9975 19.0921 26 18.7154C26.0025 18.3386 25.793 17.9925 25.4582 17.8199L22.8048 16.4522L25.4464 15.1345C25.7835 14.9664 25.9975 14.623 26 14.2463C26.0025 13.8696 25.793 13.5234 25.4582 13.3508L22.8045 11.983L25.4464 10.6652C25.7835 10.4971 25.9975 10.1537 26 9.77697C26.0025 9.40025 25.793 9.05409 25.4582 8.88149L14.2635 3.11114ZM7.3991 12.7823L13.7365 16.0489C14.0198 16.195 14.3558 16.1972 14.641 16.0549L20.586 13.0895L22.789 14.225L14.2021 18.5082L5.21101 13.8737L7.3991 12.7823ZM20.5863 17.5587L14.641 20.5242C14.3558 20.6665 14.0198 20.6643 13.7365 20.5182L7.39882 17.2515L5.21101 18.3427L14.2021 22.9772L22.789 18.6941L20.5863 17.5587Z" stroke="none"></path></svg>