<svg width="48" height="48" viewBox="0 0 28 28" fill="#e6007a" xmlns="http://www.w3.org/2000/svg" stroke-width="2" stroke-linecap="round" stroke-linejoin="round" stroke="#e6007a"><path fill-rule="evenodd" clip-rule="evenodd" d="M14.2635 5.11114C13.9802 4.9651 13.6442 4.96287 13.359 5.10514L2.55365 10.4948C2.21652 10.663 2.00252 11.0063 2.00002 11.3831C1.99753 11.7598 2.20697 12.106 2.54183 12.2786L5.19519 13.6462L2.55365 14.9638C2.21652 15.132 2.00252 15.4754 2.00002 15.8521C1.99753 16.2288 2.20697 16.575 2.54183 16.7476L13.7365 22.5179C14.0198 22.664 14.3558 22.6662 14.641 22.5239L25.4464 17.1342C25.7835 16.9661 25.9975 16.6227 26 16.246C26.0025 15.8693 25.793 15.5231 25.4582 15.3505L22.8048 13.9828L25.4464 12.6652C25.7835 12.4971 25.9975 12.1537 26 11.777C26.0025 11.4003 25.793 11.0541 25.4582 10.8815L14.2635 5.11114ZM7.39877 14.7821L13.7365 18.0489C14.0198 18.195 14.3558 18.1972 14.641 18.0549L20.5864 15.0894L22.789 16.2247L14.2021 20.5078L5.21101 15.8734L7.39877 14.7821Z" stroke="none"></path></svg>