<svg width="48" height="48" viewBox="0 0 28 28" fill="#e6007a" xmlns="http://www.w3.org/2000/svg" stroke-width="2" stroke-linecap="round" stroke-linejoin="round" stroke="#e6007a"><path fill-rule="evenodd" clip-rule="evenodd" d="M12.2944 1.29288C12.6849 0.902458 13.3178 0.902359 13.7084 1.29267L21.7101 9.28924C21.8978 9.47675 22.0032 9.73113 22.0032 9.99639C22.0033 10.2617 21.8979 10.5161 21.7104 10.7037L18.4162 13.998L21.7153 17.2991C21.9028 17.4868 22.0081 17.7413 22.008 18.0066C22.0078 18.2719 21.9023 18.5262 21.7145 18.7137L13.7076 26.7078C13.317 27.0978 12.6843 27.0975 12.294 26.7072L4.29289 18.7062C3.90237 18.3156 3.90237 17.6825 4.29289 17.2919L7.58657 13.9982L4.29494 10.7063C3.90444 10.3158 3.90446 9.68265 4.29498 9.29214L12.2944 1.29288ZM9.00073 15.4125L6.41421 17.999L13.0016 24.5865L19.5934 18.0052L17.0021 15.4122L13.7084 18.7061C13.5208 18.8937 13.2665 18.9991 13.0012 18.9991C12.736 18.9991 12.4816 18.8937 12.2941 18.7061L9.00073 15.4125Z" stroke="none"></path></svg>