<svg width="48" height="48" viewBox="0 0 28 28" fill="#e6007a" xmlns="http://www.w3.org/2000/svg" stroke-width="2" stroke-linecap="round" stroke-linejoin="round" stroke="#e6007a"><path fill-rule="evenodd" clip-rule="evenodd" d="M14.2635 1.11114C13.9802 0.965096 13.6442 0.96287 13.359 1.10514L2.55365 6.49484C2.21652 6.663 2.00252 7.00635 2.00002 7.38307C1.99753 7.7598 2.20697 8.10595 2.54183 8.27856L5.19563 9.64648L2.55365 10.9643C2.21652 11.1325 2.00252 11.4758 2.00002 11.8525C1.99753 12.2293 2.20697 12.5754 2.54183 12.748L5.19496 14.1156L2.55365 15.4331C2.21652 15.6012 2.00252 15.9446 2.00002 16.3213C1.99753 16.698 2.20697 17.0442 2.54183 17.2168L5.20872 18.5915L2.55365 19.9158C2.21652 20.084 2.00252 20.4273 2.00002 20.804C1.99753 21.1808 2.20697 21.5269 2.54183 21.6995L13.7365 27.4699C14.0198 27.6159 14.3558 27.6181 14.641 27.4759L25.4464 22.0862C25.7835 21.918 25.9975 21.5747 26 21.1979C26.0025 20.8212 25.793 20.4751 25.4582 20.3025L22.7913 18.9278L25.4464 17.6034C25.7835 17.4353 25.9975 17.0919 26 16.7152C26.0025 16.3385 25.793 15.9923 25.4582 15.8197L22.805 14.4521L25.4464 13.1347C25.7835 12.9665 25.9975 12.6232 26 12.2464C26.0025 11.8697 25.793 11.5235 25.4582 11.3509L22.8044 9.98302L25.4464 8.66521C25.7835 8.49705 25.9975 8.1537 26 7.77697C26.0025 7.40025 25.793 7.05409 25.4582 6.88149L14.2635 1.11114ZM7.39921 10.7823L13.7365 14.0489C14.0198 14.195 14.3558 14.1972 14.641 14.0549L20.632 11.0666L20.613 11.1035L22.789 12.2252L14.2021 16.5083L5.21101 11.8738L7.39921 10.7823ZM7.39855 15.2514L5.21101 16.3426L14.2021 20.9771L22.789 16.6939L20.5866 15.5587L14.641 18.5244C14.3558 18.6666 14.0198 18.6644 13.7365 18.5184L7.39855 15.2514ZM14.641 22.9931L20.5728 20.0343L22.789 21.1767L14.2021 25.4598L5.21101 20.8253L7.4123 19.7273L13.7365 22.9871C14.0198 23.1332 14.3558 23.1354 14.641 22.9931Z" stroke="none"></path></svg>