<svg width="48" height="48" viewBox="0 0 29 29" fill="#e6007a" xmlns="http://www.w3.org/2000/svg" stroke-width="2" stroke-linecap="round" stroke-linejoin="round" stroke="#e6007a"><path fill-rule="evenodd" clip-rule="evenodd" d="M1.9707 14.6758C1.9707 7.49608 7.791 1.67578 14.9707 1.67578C22.1504 1.67578 27.9707 7.49608 27.9707 14.6758C27.9707 21.8555 22.1504 27.6758 14.9707 27.6758C7.791 27.6758 1.9707 21.8555 1.9707 14.6758ZM14.7468 18.3796C15.299 18.3796 15.7468 17.9319 15.7468 17.3796V16.094C17.3469 15.6557 18.5228 14.1911 18.5228 12.4518C18.5228 10.3664 16.8322 8.67578 14.7468 8.67578C12.6613 8.67578 10.9707 10.3664 10.9707 12.4518C10.9707 13.0041 11.4184 13.4518 11.9707 13.4518C12.523 13.4518 12.9707 13.0041 12.9707 12.4518C12.9707 11.4709 13.7659 10.6758 14.7468 10.6758C15.7276 10.6758 16.5228 11.4709 16.5228 12.4518C16.5228 13.4327 15.7276 14.2279 14.7468 14.2279C14.1945 14.2279 13.7468 14.6756 13.7468 15.2279V17.3796C13.7468 17.9319 14.1945 18.3796 14.7468 18.3796ZM14.7468 21.676C15.2991 21.676 15.7468 21.2283 15.7468 20.676V20.6566C15.7468 20.1043 15.2991 19.6566 14.7468 19.6566C14.1945 19.6566 13.7468 20.1043 13.7468 20.6566V20.676C13.7468 21.2283 14.1945 21.676 14.7468 21.676Z" stroke="none"></path></svg>