<svg width="48" height="48" viewBox="0 0 28 28" fill="#e6007a" xmlns="http://www.w3.org/2000/svg" stroke-width="2" stroke-linecap="round" stroke-linejoin="round" stroke="#e6007a"><path fill-rule="evenodd" clip-rule="evenodd" d="M23.5366 12.4642C23.7958 12.6523 23.9491 12.9532 23.9491 13.2734V16.4237C24.8156 16.6268 25.4608 17.4045 25.4608 18.3328C25.4608 19.2612 24.8156 20.0389 23.9491 20.2419V23.0255C23.9491 23.4471 23.6848 23.8234 23.2882 23.9663L13.869 27.361C13.6499 27.44 13.41 27.44 13.1908 27.361L3.77169 23.9653C3.37515 23.8224 3.11083 23.4461 3.11083 23.0246V20.2514C2.21439 20.0709 1.53931 19.2789 1.53931 18.3293C1.53931 17.3797 2.21439 16.5877 3.11083 16.4072V13.2734C3.11083 12.9532 3.2642 12.6523 3.52334 12.4642C3.78248 12.2761 4.11605 12.2234 4.42054 12.3226L13.53 15.2898L22.6394 12.3226C22.9439 12.2234 23.2775 12.2761 23.5366 12.4642Z" stroke="none"></path><path d="M10.47 11.8814L9.34212 12.1946C8.14887 12.526 7.10358 13.1515 6.26196 13.9734L13.5281 16.3403L20.7923 13.9743C19.9507 13.1515 18.9035 12.5251 17.7102 12.1946L16.5804 11.8814C15.7782 11.6592 15.4726 10.685 16.0049 10.0461L16.8388 9.0461C18.2626 7.33917 18.1483 4.83242 16.5756 3.26152C14.8914 1.57949 12.1581 1.57949 10.4729 3.26152C8.90017 4.83242 8.78584 7.34013 10.2097 9.0461L11.0436 10.0461C11.5768 10.685 11.2713 11.6582 10.4681 11.8814H10.47Z"></path></svg>