<svg width="48" height="48" viewBox="0 0 29 29" fill="#e6007a" xmlns="http://www.w3.org/2000/svg" stroke-width="2" stroke-linecap="round" stroke-linejoin="round" stroke="#e6007a"><path fill-rule="evenodd" clip-rule="evenodd" d="M10.4233 2C10.9756 2 11.4233 2.44772 11.4233 3V3.88477H18.5764V7.34177C18.5764 7.89405 19.0241 8.34177 19.5764 8.34177C20.1287 8.34177 20.5764 7.89405 20.5764 7.34177V3.88477H27C27.5523 3.88477 28 4.33248 28 4.88477V27.0002C28 27.5525 27.5523 28.0002 27 28.0002H3C2.44772 28.0002 2 27.5525 2 27.0002V4.88477C2 4.33248 2.44772 3.88477 3 3.88477H9.42334V3C9.42334 2.44772 9.87106 2 10.4233 2ZM20.5764 3V3.88184H18.5764V3C18.5764 2.44772 19.0241 2 19.5764 2C20.1287 2 20.5764 2.44772 20.5764 3ZM10.4233 8.34156C10.9756 8.34156 11.4233 7.89384 11.4233 7.34156V3.89014H9.42334V7.34156C9.42334 7.89384 9.87106 8.34156 10.4233 8.34156ZM14.9994 12C12.2383 12 10 14.2383 10 16.9994C10 19.7605 12.2383 21.9988 14.9994 21.9988C17.7605 21.9988 19.9988 19.7605 19.9988 16.9994C19.9988 14.2383 17.7605 12 14.9994 12ZM8 16.9994C8 13.1337 11.1337 10 14.9994 10C18.8651 10 21.9988 13.1337 21.9988 16.9994C21.9988 20.8651 18.8651 23.9988 14.9994 23.9988C11.1337 23.9988 8 20.8651 8 16.9994ZM15.1147 14.4438C14.5624 14.4438 14.1147 14.8916 14.1147 15.4438V17.6442L13.3392 18.5853C12.9879 19.0115 13.0487 19.6417 13.4749 19.993C13.9011 20.3442 14.5313 20.2834 14.8826 19.8572L15.8864 18.6392C16.034 18.4601 16.1147 18.2353 16.1147 18.0032V15.4438C16.1147 14.8916 15.667 14.4438 15.1147 14.4438Z" stroke="none"></path></svg>