<svg width="48" height="48" viewBox="0 0 28 28" fill="#e6007a" xmlns="http://www.w3.org/2000/svg" stroke-width="2" stroke-linecap="round" stroke-linejoin="round" stroke="#e6007a"><path fill-rule="evenodd" clip-rule="evenodd" d="M14.0096 1C18.9862 1 23.0205 5.03433 23.0205 10.0109C23.0205 12.7414 21.8061 15.1882 19.8879 16.8406L21.8612 19.7136C22.2891 19.5451 22.7551 19.4526 23.2428 19.4526C25.327 19.4526 27.0165 21.1422 27.0165 23.2264C27.0165 25.3105 25.327 27.0001 23.2428 27.0001C21.1586 27.0001 19.4691 25.3105 19.4691 23.2264C19.4691 22.3554 19.7642 21.5533 20.2598 20.9146L18.2375 17.9704C16.9767 18.6415 15.5376 19.0218 14.0096 19.0218C12.4872 19.0218 11.0531 18.6443 9.7956 17.9778L7.74749 20.9028C8.24869 21.5434 8.54742 22.35 8.54742 23.2264C8.54742 25.3105 6.85787 27.0001 4.7737 27.0001C2.68952 27.0001 0.999968 25.3105 0.999968 23.2264C0.999968 21.1422 2.68952 19.4526 4.7737 19.4526C5.25641 19.4526 5.71796 19.5433 6.14225 19.7084L8.14316 16.8509C6.21812 15.1983 4.99867 12.747 4.99867 10.0109C4.99867 5.03433 9.03299 1 14.0096 1ZM15.3097 7.7439C15.5181 7.86305 15.7152 8.01204 15.8949 8.19179C16.0755 8.37236 16.225 8.57039 16.3444 8.77984C16.618 9.25962 17.2287 9.42679 17.7085 9.15323C18.1883 8.87967 18.3554 8.26897 18.0819 7.7892C17.8749 7.42621 17.617 7.08545 17.3091 6.77757C17.0027 6.4711 16.6636 6.21417 16.3025 6.00768C15.823 5.73354 15.2121 5.89998 14.938 6.37942C14.6639 6.85886 14.8303 7.46976 15.3097 7.7439ZM12.6422 7.70032C13.1304 7.44215 13.3169 6.83707 13.0587 6.34884C12.8006 5.86061 12.1955 5.67412 11.7073 5.93229C11.2949 6.15036 10.9086 6.43252 10.5636 6.77757C10.2154 7.12572 9.9313 7.51579 9.71244 7.93234C9.45555 8.42124 9.64365 9.02582 10.1326 9.28271C10.6215 9.53959 11.226 9.35149 11.4829 8.86259C11.6092 8.62235 11.7737 8.39586 11.9778 8.19179C12.18 7.98952 12.4043 7.82609 12.6422 7.70032ZM18.1104 12.4608C18.378 11.9777 18.2034 11.3691 17.7203 11.1015C17.2372 10.8338 16.6286 11.0085 16.3609 11.4916C16.2388 11.7119 16.0839 11.92 15.8949 12.1089C15.7015 12.3024 15.4879 12.4603 15.2616 12.5837C14.7768 12.8481 14.5981 13.4556 14.8626 13.9404C15.127 14.4253 15.7344 14.604 16.2193 14.3395C16.6115 14.1256 16.9792 13.8531 17.3091 13.5232C17.6313 13.2009 17.8988 12.8428 18.1104 12.4608ZM11.6892 14.3588C12.1763 14.6191 12.7821 14.4352 13.0424 13.9481C13.3027 13.461 13.1188 12.8551 12.6317 12.5948C12.3978 12.4698 12.1771 12.3083 11.9778 12.1089C11.812 11.9432 11.6725 11.7628 11.5584 11.5725C11.2744 11.0988 10.6602 10.9449 10.1865 11.2289C9.71285 11.5128 9.55902 12.127 9.84297 12.6007C10.0406 12.9305 10.2811 13.2407 10.5636 13.5232C10.9035 13.8631 11.2835 14.1421 11.6892 14.3588Z" stroke="none"></path></svg>