<svg width="48" height="48" viewBox="0 0 29 29" fill="#e6007a" xmlns="http://www.w3.org/2000/svg" stroke-width="2" stroke-linecap="round" stroke-linejoin="round" stroke="#e6007a"><path fill-rule="evenodd" clip-rule="evenodd" d="M15.9883 4.12842C15.9883 3.57613 15.5406 3.12842 14.9883 3.12842C14.4361 3.12842 13.9883 3.57613 13.9883 4.12842V7.12842C13.9883 7.6807 14.4361 8.12842 14.9883 8.12842C15.5406 8.12842 15.9883 7.6807 15.9883 7.12842V4.12842ZM8.98842 16.1308C8.98842 12.8162 11.6743 10.1284 14.9884 10.1284C18.3026 10.1284 20.9884 12.8162 20.9884 16.1308C20.9884 18.3537 19.7806 20.2928 17.9884 21.3299L17.9883 25.7169C17.9883 26.2692 17.5406 26.7169 16.9883 26.7169H12.9883C12.7231 26.7169 12.4687 26.6115 12.2812 26.424C12.0936 26.2364 11.9883 25.9821 11.9883 25.7168L11.9884 21.3298C10.1962 20.2927 8.98842 18.3537 8.98842 16.1308ZM6.98834 16.1284C6.98834 16.6807 6.54063 17.1284 5.98834 17.1284H2.98834C2.43606 17.1284 1.98834 16.6807 1.98834 16.1284C1.98834 15.5761 2.43606 15.1284 2.98834 15.1284H5.98834C6.54063 15.1284 6.98834 15.5761 6.98834 16.1284ZM26.9883 17.1284C27.5406 17.1284 27.9883 16.6807 27.9883 16.1284C27.9883 15.5761 27.5406 15.1284 26.9883 15.1284H23.9883C23.4361 15.1284 22.9883 15.5761 22.9883 16.1284C22.9883 16.6807 23.4361 17.1284 23.9883 17.1284H26.9883ZM24.1808 6.93612C24.5713 7.32664 24.5713 7.95981 24.1808 8.35033L22.0594 10.4716C21.6689 10.8622 21.0358 10.8622 20.6452 10.4716C20.2547 10.0811 20.2547 9.44796 20.6452 9.05744L22.7665 6.93612C23.1571 6.54559 23.7902 6.54559 24.1808 6.93612ZM7.91702 10.4715C8.30754 10.8621 8.94071 10.8621 9.33123 10.4715C9.72176 10.081 9.72176 9.44785 9.33123 9.05733L7.20991 6.93601C6.81939 6.54548 6.18622 6.54548 5.7957 6.93601C5.40517 7.32653 5.40517 7.9597 5.7957 8.35022L7.91702 10.4715Z" stroke="none"></path></svg>