<svg width="48" height="48" viewBox="0 0 28 28" fill="#e6007a" xmlns="http://www.w3.org/2000/svg" stroke-width="2" stroke-linecap="round" stroke-linejoin="round" stroke="#e6007a"><path fill-rule="evenodd" clip-rule="evenodd" d="M1 3C1 2.44772 1.44772 2 2 2H26C26.5523 2 27 2.44772 27 3V7.51174C27 8.06402 26.5523 8.51174 26 8.51174H24.4045V24.453C24.4045 25.0052 23.9568 25.453 23.4045 25.453H4.56793C4.01565 25.453 3.56793 25.0052 3.56793 24.453V8.51174H2C1.44772 8.51174 1 8.06402 1 7.51174V3ZM3 4V6.51174H25V4H3ZM14.9635 18.8762L17.0218 18.883L13.7844 15.4531L12.7529 16.4847C12.3736 16.8639 11.7628 16.8764 11.3683 16.5131L7.44076 12.8957C7.03453 12.5216 7.00852 11.8889 7.38268 11.4827C7.75683 11.0765 8.38946 11.0505 8.7957 11.4246L12.0173 14.3918L13.098 13.3111C13.289 13.1201 13.5493 13.0144 13.8195 13.0183C14.0897 13.0222 14.3468 13.1353 14.5323 13.3318L18.3593 17.3862L18.3655 15.504C18.3673 14.9517 18.8165 14.5055 19.3687 14.5073C19.921 14.5091 20.3673 14.9583 20.3655 15.5106L20.351 19.8939C20.3492 20.4462 19.9 20.8924 19.3478 20.8906L14.957 20.8762C14.4047 20.8744 13.9585 20.4252 13.9603 19.8729C13.9621 19.3206 14.4113 18.8744 14.9635 18.8762Z" stroke="none"></path></svg>