<svg width="48" height="48" viewBox="0 0 28 28" fill="#e6007a" xmlns="http://www.w3.org/2000/svg" stroke-width="2" stroke-linecap="round" stroke-linejoin="round" stroke="#e6007a"><path fill-rule="evenodd" clip-rule="evenodd" d="M1 2C1 1.44772 1.44772 1 2 1H26C26.5523 1 27 1.44772 27 2V26C27 26.5523 26.5523 27 26 27H2C1.44772 27 1 26.5523 1 26V2ZM9.58548 7.87137C9.19495 8.26189 8.56179 8.26189 8.17127 7.87137L8.15007 7.85017C7.75955 7.45965 7.75955 6.82648 8.15007 6.43596C8.5406 6.04544 9.17376 6.04544 9.56428 6.43596L9.58548 6.45716C9.976 6.84768 9.976 7.48084 9.58548 7.87137ZM19.9888 21.1969C19.4365 21.1969 18.9888 20.7491 18.9888 20.1969V14.8652C18.9888 13.7606 18.0934 12.8652 16.9888 12.8652L15.6138 12.8652C14.9869 12.8652 14.4787 13.3734 14.4787 14.0003V20.1969C14.4787 20.7491 14.031 21.1969 13.4787 21.1969C12.9264 21.1969 12.4787 20.7491 12.4787 20.1969V10.8808C12.4787 10.3285 12.9264 9.88076 13.4787 9.88076C14.031 9.88076 14.4787 10.3285 14.4787 10.8808V11.077C14.8307 10.9402 15.2135 10.8652 15.6138 10.8652H16.9888C19.1979 10.8652 20.9888 12.656 20.9888 14.8652V20.1969C20.9888 20.7491 20.5411 21.1969 19.9888 21.1969ZM8.88055 21.1969C8.32826 21.1972 7.88029 20.7497 7.87997 20.1974L7.87454 10.8813C7.87422 10.3291 8.32168 9.88109 8.87396 9.88076C9.42625 9.88044 9.87422 10.3279 9.87454 10.8802L9.87997 20.1963C9.88029 20.7486 9.43283 21.1965 8.88055 21.1969Z" stroke="none"></path></svg>