<svg width="48" height="48" viewBox="0 0 28 28" fill="#e6007a" xmlns="http://www.w3.org/2000/svg" stroke-width="2" stroke-linecap="round" stroke-linejoin="round" stroke="#e6007a"><path fill-rule="evenodd" clip-rule="evenodd" d="M21.5923 12.2148C22.0419 13.906 21.9216 15.6982 21.2503 17.3143C20.6969 18.6463 19.7944 19.7975 18.6456 20.6509C18.2022 20.9802 18.1098 21.6066 18.4391 22.0499C18.7685 22.4933 19.3948 22.5857 19.8382 22.2564C21.2757 21.1886 22.4048 19.7483 23.0972 18.0816C23.9373 16.0596 24.0877 13.8171 23.5252 11.701C22.9627 9.58487 21.7186 7.71306 19.9854 6.37503C18.4597 5.1972 16.6299 4.49077 14.72 4.3327L16.3119 2.69755C16.6971 2.30182 16.6886 1.66871 16.2929 1.28347C15.8972 0.898219 15.2641 0.906717 14.8788 1.30245L11.5596 4.71195C11.1744 5.10768 11.1829 5.74079 11.5786 6.12604L14.9881 9.44522C15.3838 9.83047 16.0169 9.82197 16.4022 9.42624C16.7874 9.03051 16.7789 8.3974 16.3832 8.01215L14.6608 6.33535C16.1489 6.47852 17.5721 7.03857 18.7633 7.95816C20.1485 9.02754 21.1427 10.5235 21.5923 12.2148ZM16.3252 23.8042C16.7028 23.4115 16.6965 22.7888 16.3111 22.4037L12.9772 19.0733C12.5865 18.683 11.9533 18.6834 11.563 19.0741C11.1727 19.4648 11.173 20.098 11.5638 20.4883L13.268 22.1908C11.7497 22.0581 10.2961 21.4916 9.08403 20.5522C7.6951 19.4756 6.70139 17.9698 6.25781 16.2694C5.81423 14.569 5.94571 12.7696 6.63175 11.1518C7.18902 9.8376 8.08678 8.70318 9.22459 7.86095C9.66849 7.53236 9.76197 6.90614 9.43338 6.46223C9.1048 6.01833 8.47857 5.92485 8.03467 6.25344C6.61104 7.30724 5.48774 8.72663 4.79046 10.371C3.93207 12.3953 3.76756 14.6467 4.32258 16.7742C4.87759 18.9018 6.12094 20.7859 7.85879 22.1329C9.39815 23.3261 11.2489 24.0384 13.1797 24.1903L11.6163 25.8164C11.2335 26.2146 11.246 26.8476 11.6441 27.2304C12.0422 27.6132 12.6753 27.6007 13.058 27.2026L16.3252 23.8042Z" stroke="none"></path></svg>