<svg width="48" height="48" viewBox="0 0 28 29" fill="#e6007a" xmlns="http://www.w3.org/2000/svg" stroke-width="2" stroke-linecap="round" stroke-linejoin="round" stroke="#e6007a"><path fill-rule="evenodd" clip-rule="evenodd" d="M19.0607 5.12135C18.8731 5.30888 18.7678 5.56324 18.7678 5.82846V8.42479L18.5305 8.66207C16.6731 7.06838 14.2586 6.10547 11.6192 6.10547C5.75446 6.10547 1.00012 10.8598 1.00012 16.7246C1.00012 22.5894 5.75446 27.3437 11.6192 27.3437C17.484 27.3437 22.2384 22.5894 22.2384 16.7246C22.2384 14.3389 21.4516 12.1369 20.1235 10.364H23.3033C23.5685 10.364 23.8229 10.2586 24.0104 10.0711L26.8389 7.24267C27.1107 6.97085 27.2026 6.56729 27.0754 6.20456C26.9481 5.84182 26.6242 5.58413 26.2422 5.54168L23.8553 5.27647L23.5901 2.8896C23.5477 2.50754 23.29 2.18364 22.9272 2.0564C22.5645 1.92916 22.1609 2.02111 21.8891 2.29292L19.0607 5.12135ZM14.1283 13.0643L12.5312 14.6614C12.2524 14.5379 11.9438 14.4693 11.6192 14.4693C10.374 14.4693 9.3645 15.4787 9.3645 16.7239C9.3645 17.9692 10.374 18.9786 11.6192 18.9786C12.8644 18.9786 13.8738 17.9692 13.8738 16.7239C13.8738 16.546 13.8532 16.3728 13.8142 16.2068L15.4817 14.5393C15.8472 15.1842 16.0559 15.9298 16.0559 16.724C16.0559 19.1744 14.0694 21.1609 11.619 21.1609C9.16859 21.1609 7.18213 19.1744 7.18213 16.724C7.18213 14.2736 9.16859 12.2871 11.619 12.2871C12.5503 12.2871 13.4146 12.574 14.1283 13.0643ZM20.7678 8.36399V6.24267L21.8321 5.17836L21.9559 6.29244C22.0075 6.75729 22.3745 7.12424 22.8393 7.17589L23.9534 7.29968L22.8891 8.36399H20.7678Z" stroke="none"></path></svg>