<svg width="48" height="48" viewBox="0 0 29 29" fill="#e6007a" xmlns="http://www.w3.org/2000/svg" stroke-width="2" stroke-linecap="round" stroke-linejoin="round" stroke="#e6007a"><path fill-rule="evenodd" clip-rule="evenodd" d="M2.98242 6.66992C2.43014 6.66992 1.98242 7.11764 1.98242 7.66992C1.98242 8.22221 2.43014 8.66992 2.98242 8.66992H26.9824C27.5347 8.66992 27.9824 8.22221 27.9824 7.66992C27.9824 7.11764 27.5347 6.66992 26.9824 6.66992H2.98242ZM1.98242 14.9614C1.98242 14.4091 2.43014 13.9614 2.98242 13.9614H26.9824C27.5347 13.9614 27.9824 14.4091 27.9824 14.9614C27.9824 15.5137 27.5347 15.9614 26.9824 15.9614H2.98242C2.43014 15.9614 1.98242 15.5137 1.98242 14.9614ZM1.98242 22.2534C1.98242 21.7011 2.43014 21.2534 2.98242 21.2534H26.9824C27.5347 21.2534 27.9824 21.7011 27.9824 22.2534C27.9824 22.8057 27.5347 23.2534 26.9824 23.2534H2.98242C2.43014 23.2534 1.98242 22.8057 1.98242 22.2534Z" stroke="none"></path></svg>