<svg width="48" height="48" viewBox="0 0 28 28" fill="#e6007a" xmlns="http://www.w3.org/2000/svg" stroke-width="2" stroke-linecap="round" stroke-linejoin="round" stroke="#e6007a"><path fill-rule="evenodd" clip-rule="evenodd" d="M0.251953 2.24902C0.251953 1.69674 0.699668 1.24902 1.25195 1.24902H26.7523C27.3046 1.24902 27.7523 1.69674 27.7523 2.24902V19.8928C27.7523 20.4451 27.3046 20.8928 26.7523 20.8928H14.6947L7.62564 26.2774C7.32326 26.5077 6.91644 26.5467 6.57582 26.378C6.2352 26.2092 6.0197 25.862 6.0197 25.4819V20.8928H1.25195C0.699668 20.8928 0.251953 20.4451 0.251953 19.8928V2.24902ZM7 11.5C7 11.2239 7.22386 11 7.5 11C7.77614 11 8 11.2239 8 11.5C8 11.7761 7.77614 12 7.5 12C7.22386 12 7 11.7761 7 11.5ZM7.5 9C6.11929 9 5 10.1193 5 11.5C5 12.8807 6.11929 14 7.5 14C8.88071 14 10 12.8807 10 11.5C10 10.1193 8.88071 9 7.5 9ZM13 11.5C13 11.2239 13.2239 11 13.5 11C13.7761 11 14 11.2239 14 11.5C14 11.7761 13.7761 12 13.5 12C13.2239 12 13 11.7761 13 11.5ZM13.5 9C12.1193 9 11 10.1193 11 11.5C11 12.8807 12.1193 14 13.5 14C14.8807 14 16 12.8807 16 11.5C16 10.1193 14.8807 9 13.5 9ZM19.5 11C19.2239 11 19 11.2239 19 11.5C19 11.7761 19.2239 12 19.5 12C19.7761 12 20 11.7761 20 11.5C20 11.2239 19.7761 11 19.5 11ZM17 11.5C17 10.1193 18.1193 9 19.5 9C20.8807 9 22 10.1193 22 11.5C22 12.8807 20.8807 14 19.5 14C18.1193 14 17 12.8807 17 11.5Z" stroke="none"></path></svg>