<svg width="48" height="48" viewBox="0 0 28 28" fill="#e6007a" xmlns="http://www.w3.org/2000/svg" stroke-width="2" stroke-linecap="round" stroke-linejoin="round" stroke="#e6007a"><path fill-rule="evenodd" clip-rule="evenodd" d="M13.6297 1.10557C13.9112 0.964809 14.2426 0.964809 14.5241 1.10557L25.6011 6.64403C25.9398 6.81343 26.1538 7.15969 26.1538 7.53846V20.4615C26.1538 20.8403 25.9398 21.1866 25.6011 21.356L14.5241 26.8944C14.2426 27.0352 13.9112 27.0352 13.6297 26.8944L2.55279 21.356C2.214 21.1866 2 20.8403 2 20.4615V7.53846C2 7.15969 2.214 6.81343 2.55279 6.64403L13.6297 1.10557ZM10 11H18C19.6569 11 21 12.3431 21 14C21 15.251 20.234 16.3255 19.1416 16.7754C18.7234 16.9477 18.1049 16.8033 17.4054 16.2437C15.4145 14.651 12.5855 14.651 10.5946 16.2437C9.89511 16.8033 9.27663 16.9477 8.85841 16.7754C7.766 16.3255 7 15.251 7 14C7 12.3431 8.34315 11 10 11ZM18 9H10C7.23858 9 5 11.2386 5 14C5 16.0892 6.28107 17.8768 8.09667 18.6247C9.54763 19.2224 10.9649 18.5087 11.844 17.8054C13.1045 16.7971 14.8955 16.7971 16.156 17.8054C17.0351 18.5087 18.4524 19.2224 19.9033 18.6247C21.7189 17.8768 23 16.0892 23 14C23 11.2386 20.7614 9 18 9Z" stroke="none"></path></svg>