<svg width="48" height="48" viewBox="0 0 28 29" fill="#e6007a" xmlns="http://www.w3.org/2000/svg" stroke-width="2" stroke-linecap="round" stroke-linejoin="round" stroke="#e6007a"><path fill-rule="evenodd" clip-rule="evenodd" d="M14.0058 3.56836C13.464 3.56836 13.0247 4.00761 13.0247 4.54944C13.0247 5.09128 13.464 5.53053 14.0058 5.53053C14.5476 5.53053 14.9869 5.09128 14.9869 4.54944C14.9869 4.00761 14.5476 3.56836 14.0058 3.56836ZM11.0247 4.54944C11.0247 2.90304 12.3594 1.56836 14.0058 1.56836C15.6522 1.56836 16.9869 2.90304 16.9869 4.54944C16.9869 5.84505 16.1604 6.94761 15.0059 7.35864V10.8135H24.5716C25.1239 10.8135 25.5716 11.2612 25.5716 11.8135V23.0396C25.5716 23.5919 25.1239 24.0396 24.5716 24.0396H20.9496V26.5679C20.9496 27.1202 20.5018 27.5679 19.9496 27.5679H8.06305C7.51076 27.5679 7.06305 27.1202 7.06305 26.5679V24.0396H3.44006C2.88778 24.0396 2.44006 23.5919 2.44006 23.0396V11.8135C2.44006 11.2612 2.88778 10.8135 3.44006 10.8135H13.0059V7.35868C11.8513 6.94768 11.0247 5.84509 11.0247 4.54944ZM9.06305 25.5679V24.0396H18.9496V25.5679H9.06305ZM9.71367 16.1152C8.98948 16.1152 8.4024 16.7023 8.4024 17.4265C8.4024 18.1507 8.98948 18.7378 9.71367 18.7378C10.4379 18.7378 11.0249 18.1507 11.0249 17.4265C11.0249 16.7023 10.4379 16.1152 9.71367 16.1152ZM6.4024 17.4265C6.4024 15.5977 7.88491 14.1152 9.71367 14.1152C11.5424 14.1152 13.0249 15.5977 13.0249 17.4265C13.0249 19.2553 11.5424 20.7378 9.71367 20.7378C7.88491 20.7378 6.4024 19.2553 6.4024 17.4265ZM18.2983 16.1152C17.5741 16.1152 16.9871 16.7023 16.9871 17.4265C16.9871 18.1507 17.5741 18.7378 18.2983 18.7378C19.0225 18.7378 19.6096 18.1507 19.6096 17.4265C19.6096 16.7023 19.0225 16.1152 18.2983 16.1152ZM14.9871 17.4265C14.9871 15.5977 16.4696 14.1152 18.2983 14.1152C20.1271 14.1152 21.6096 15.5977 21.6096 17.4265C21.6096 19.2553 20.1271 20.7378 18.2983 20.7378C16.4696 20.7378 14.9871 19.2553 14.9871 17.4265Z" stroke="none"></path></svg>