<svg width="48" height="48" viewBox="0 0 28 29" fill="#e6007a" xmlns="http://www.w3.org/2000/svg" stroke-width="2" stroke-linecap="round" stroke-linejoin="round" stroke="#e6007a"><path fill-rule="evenodd" clip-rule="evenodd" d="M7.32047 3.06099C6.07985 1.82798 4.0684 1.82798 2.82777 3.06099C1.58715 4.29399 1.58715 6.29309 2.82777 7.5261C4.0684 8.75911 6.07985 8.75911 7.32047 7.5261C8.5611 6.29309 8.5611 4.29399 7.32047 3.06099ZM2.82777 12.0058C4.0684 10.7728 6.07985 10.7728 7.32047 12.0058C8.5611 13.2388 8.5611 15.2379 7.32047 16.4709C6.07985 17.7039 4.0684 17.7039 2.82777 16.4709C1.58715 15.2379 1.58715 13.2388 2.82777 12.0058ZM11.7539 12.0058C12.9945 10.7728 15.006 10.7728 16.2466 12.0058C17.4872 13.2388 17.4872 15.2379 16.2466 16.4709C15.006 17.7039 12.9945 17.7039 11.7539 16.4709C10.5133 15.2379 10.5133 13.2388 11.7539 12.0058ZM20.68 12.0058C21.9206 10.7728 23.9321 10.7728 25.1727 12.0058C26.4133 13.2388 26.4133 15.2379 25.1727 16.4709C23.9321 17.7039 21.9206 17.7039 20.68 16.4709C19.4394 15.2379 19.4394 13.2388 20.68 12.0058ZM2.82775 20.9504C4.06837 19.7174 6.07982 19.7174 7.32045 20.9504C8.56107 22.1835 8.56107 24.1826 7.32045 25.4156C6.07982 26.6486 4.06837 26.6486 2.82775 25.4156C1.58712 24.1826 1.58712 22.1835 2.82775 20.9504ZM11.7539 20.9504C12.9945 19.7174 15.006 19.7174 16.2466 20.9504C17.4872 22.1835 17.4872 24.1826 16.2466 25.4156C15.006 26.6486 12.9945 26.6486 11.7539 25.4156C10.5133 24.1826 10.5133 22.1835 11.7539 20.9504ZM20.68 20.9504C21.9207 19.7174 23.9321 19.7174 25.1727 20.9504C26.4134 22.1835 26.4134 24.1826 25.1727 25.4156C23.9321 26.6486 21.9207 26.6486 20.68 25.4156C19.4394 24.1826 19.4394 22.1835 20.68 20.9504ZM16.2466 3.06099C15.006 1.82798 12.9945 1.82798 11.7539 3.06099C10.5133 4.29399 10.5133 6.29309 11.7539 7.5261C12.9945 8.75911 15.006 8.75911 16.2466 7.5261C17.4872 6.29309 17.4872 4.29399 16.2466 3.06099ZM25.1727 3.06099C23.9321 1.82798 21.9206 1.82798 20.68 3.06099C19.4394 4.29399 19.4394 6.29309 20.68 7.5261C21.9206 8.75911 23.9321 8.75911 25.1727 7.5261C26.4133 6.29309 26.4133 4.29399 25.1727 3.06099Z" stroke="none"></path></svg>