<svg width="48" height="48" viewBox="0 0 29 29" fill="#e6007a" xmlns="http://www.w3.org/2000/svg" stroke-width="2" stroke-linecap="round" stroke-linejoin="round" stroke="#e6007a"><path fill-rule="evenodd" clip-rule="evenodd" d="M17.3664 7.2711C18.6765 5.96093 18.6765 3.83674 17.3664 2.52657C16.0562 1.2164 13.932 1.2164 12.6218 2.52657C11.3117 3.83673 11.3117 5.96093 12.6218 7.2711C13.932 8.58126 16.0562 8.58126 17.3664 7.2711ZM17.3664 16.9405C18.6765 15.6304 18.6765 13.5062 17.3664 12.196C16.0562 10.8858 13.932 10.8858 12.6218 12.196C11.3117 13.5062 11.3117 15.6304 12.6218 16.9405C13.932 18.2507 16.0562 18.2507 17.3664 16.9405ZM17.3664 26.6105C18.6765 25.3003 18.6765 23.1761 17.3664 21.8659C16.0562 20.5558 13.932 20.5558 12.6218 21.8659C11.3117 23.1761 11.3117 25.3003 12.6218 26.6105C13.932 27.9206 16.0562 27.9206 17.3664 26.6105Z" stroke="none"></path></svg>