<svg width="48" height="48" viewBox="0 0 28 28" fill="#e6007a" xmlns="http://www.w3.org/2000/svg" stroke-width="2" stroke-linecap="round" stroke-linejoin="round" stroke="#e6007a"><path fill-rule="evenodd" clip-rule="evenodd" d="M6.70262 11.9582C5.39245 10.648 3.26825 10.648 1.95809 11.9582C0.647922 13.2684 0.647922 15.3926 1.95809 16.7027C3.26825 18.0129 5.39245 18.0129 6.70262 16.7027C8.01278 15.3926 8.01278 13.2684 6.70262 11.9582ZM16.3721 11.9582C15.0619 10.648 12.9377 10.648 11.6276 11.9582C10.3174 13.2684 10.3174 15.3926 11.6276 16.7027C12.9377 18.0129 15.0619 18.0129 16.3721 16.7027C17.6823 15.3926 17.6823 13.2684 16.3721 11.9582ZM26.0419 11.9582C24.7317 10.648 22.6075 10.648 21.2973 11.9582C19.9872 13.2684 19.9872 15.3926 21.2973 16.7027C22.6075 18.0129 24.7317 18.0129 26.0419 16.7027C27.352 15.3926 27.352 13.2684 26.0419 11.9582Z" stroke="none"></path></svg>