<svg width="48" height="48" viewBox="0 0 28 28" fill="#e6007a" xmlns="http://www.w3.org/2000/svg" stroke-width="2" stroke-linecap="round" stroke-linejoin="round" stroke="#e6007a"><path fill-rule="evenodd" clip-rule="evenodd" d="M21.364 1.29289C21.7545 0.902369 22.3877 0.902369 22.7782 1.29289L25.9925 4.50722C26.3831 4.89774 26.3831 5.5309 25.9925 5.92143L17.6713 14.2426C17.5477 14.3662 17.3939 14.4553 17.2252 14.5009L12.8142 15.6934C12.4684 15.7869 12.0989 15.6883 11.8458 15.4348C11.5926 15.1813 11.4943 14.8118 11.5882 14.466L12.7848 10.0592C12.8306 9.89085 12.9195 9.73742 13.0428 9.6141L21.364 1.29289ZM13.0428 20.5419L21.364 12.2207C21.7545 11.8302 22.3877 11.8302 22.7782 12.2207L25.9925 15.435C26.3831 15.8255 26.3831 16.4587 25.9925 16.8492L17.6713 25.1704C17.5477 25.294 17.3939 25.3831 17.2252 25.4287L12.8142 26.6212C12.4684 26.7147 12.0989 26.6161 11.8458 26.3626C11.5926 26.1091 11.4943 25.7396 11.5882 25.3938L12.7848 20.987C12.8306 20.8186 12.9195 20.6652 13.0428 20.5419ZM1.28534 24.6559C0.733055 24.6559 0.285339 25.1036 0.285339 25.6559C0.285339 26.2082 0.733055 26.6559 1.28534 26.6559H9.3712C9.92349 26.6559 10.3712 26.2082 10.3712 25.6559C10.3712 25.1036 9.92349 24.6559 9.3712 24.6559H1.28534ZM1.28534 13.7279C0.733055 13.7279 0.285339 14.1756 0.285339 14.7279C0.285339 15.2802 0.733055 15.7279 1.28534 15.7279H9.3712C9.92349 15.7279 10.3712 15.2802 10.3712 14.7279C10.3712 14.1756 9.92349 13.7279 9.3712 13.7279H1.28534Z" stroke="none"></path></svg>