<svg width="48" height="48" viewBox="0 0 28 28" fill="#e6007a" xmlns="http://www.w3.org/2000/svg" stroke-width="2" stroke-linecap="round" stroke-linejoin="round" stroke="#e6007a"><path fill-rule="evenodd" clip-rule="evenodd" d="M13.4232 1.1789C13.7679 0.939323 14.2254 0.940464 14.5689 1.18176L23.7916 7.66145L23.807 7.67208L26.5749 9.61677C27.0268 9.93426 27.1358 10.558 26.8183 11.0099C26.5008 11.4618 25.8771 11.5707 25.4252 11.2532L24.2321 10.415V25H25.9999C26.5522 25 26.9999 25.4477 26.9999 26C26.9999 26.5523 26.5522 27 25.9999 27H23.2543L23.2321 27.0002L4.54816 27.0002L4.52622 27H2.00006C1.44778 27 1.00006 26.5523 1.00006 26C1.00006 25.4477 1.44778 25 2.00006 25H3.54816V10.4792L2.57094 11.1585C2.11746 11.4738 1.49429 11.3617 1.17905 10.9082C0.863815 10.4547 0.975881 9.83157 1.42936 9.51633L3.97739 7.74505L3.99138 7.7355L13.4232 1.1789ZM17.7118 11.5713C17.1002 11.5713 16.5886 12.0743 16.5886 12.7141C16.5886 13.354 17.1002 13.857 17.7118 13.857C18.3235 13.857 18.835 13.354 18.835 12.7141C18.835 12.0743 18.3235 11.5713 17.7118 11.5713ZM14.5886 12.7141C14.5886 10.9871 15.9783 9.57129 17.7118 9.57129C19.4454 9.57129 20.835 10.9871 20.835 12.7141C20.835 14.4412 19.4454 15.857 17.7118 15.857C15.9783 15.857 14.5886 14.4412 14.5886 12.7141ZM6.94519 18.2856C6.94519 17.7334 7.39291 17.2856 7.94519 17.2856H12.1916C12.7439 17.2856 13.1916 17.7334 13.1916 18.2856V22.5714C13.1916 23.1236 12.7439 23.5714 12.1916 23.5714H7.94519C7.39291 23.5714 6.94519 23.1236 6.94519 22.5714V18.2856ZM8.94519 19.2856V21.5714H11.1916V19.2856H8.94519ZM18.6079 17.8417C18.4392 17.5011 18.0919 17.2856 17.7118 17.2856C17.3317 17.2856 16.9845 17.5011 16.8158 17.8417L14.6926 22.1274C14.539 22.4374 14.5565 22.8047 14.7389 23.0987C14.9213 23.3926 15.2427 23.5714 15.5886 23.5714H19.835C20.181 23.5714 20.5023 23.3926 20.6847 23.0987C20.8671 22.8047 20.8847 22.4374 20.7311 22.1274L18.6079 17.8417ZM17.7118 20.5383L18.2236 21.5714H17.2L17.7118 20.5383ZM10.0684 9.57129C10.4485 9.57129 10.7957 9.78677 10.9645 10.1274L13.0877 14.4131C13.2412 14.7231 13.2237 15.0904 13.0413 15.3843C12.8589 15.6782 12.5375 15.857 12.1916 15.857H7.94519C7.59927 15.857 7.27791 15.6782 7.09551 15.3843C6.91311 15.0904 6.89556 14.7231 7.04913 14.4131L9.17233 10.1274C9.34107 9.78677 9.6883 9.57129 10.0684 9.57129ZM10.5802 13.857L10.0684 12.8239L9.5566 13.857H10.5802Z" stroke="none"></path></svg>