<svg width="48" height="48" viewBox="0 0 28 29" fill="#e6007a" xmlns="http://www.w3.org/2000/svg" stroke-width="2" stroke-linecap="round" stroke-linejoin="round" stroke="#e6007a"><path fill-rule="evenodd" clip-rule="evenodd" d="M13 1.56836H2C1.44772 1.56836 1 2.01607 1 2.56836V13.5684H13V1.56836ZM1 15.5684V26.5684C1 27.1206 1.44772 27.5684 2 27.5684H13V15.5684H1ZM15 27.5684H26C26.5523 27.5684 27 27.1206 27 26.5684V15.5684H15V27.5684ZM27 13.5684V2.56836C27 2.01607 26.5523 1.56836 26 1.56836H15V13.5684H27ZM18.4286 8.5685C18.4286 7.70062 19.1321 6.99707 20 6.99707C20.8679 6.99707 21.5714 7.70062 21.5714 8.5685C21.5714 9.43637 20.8679 10.1399 20 10.1399C19.1321 10.1399 18.4286 9.43637 18.4286 8.5685ZM20 4.99707C18.0276 4.99707 16.4286 6.59605 16.4286 8.5685C16.4286 10.5409 18.0276 12.1399 20 12.1399C21.9725 12.1399 23.5714 10.5409 23.5714 8.5685C23.5714 6.59605 21.9725 4.99707 20 4.99707ZM5.42859 16.9971C4.8763 16.9971 4.42859 17.4448 4.42859 17.9971V23.1399C4.42859 23.6922 4.8763 24.1399 5.42859 24.1399H10.5714C11.1237 24.1399 11.5714 23.6922 11.5714 23.1399V17.9971C11.5714 17.4448 11.1237 16.9971 10.5714 16.9971H5.42859ZM6.42859 22.1399V18.9971H9.57145V22.1399H6.42859ZM20 16.9971C20.3788 16.9971 20.7251 17.2111 20.8944 17.5499L23.4659 22.6927C23.6209 23.0027 23.6043 23.3708 23.4221 23.6657C23.2399 23.9605 22.918 24.1399 22.5714 24.1399H17.4286C17.082 24.1399 16.7601 23.9605 16.5779 23.6657C16.3957 23.3708 16.3792 23.0027 16.5342 22.6927L19.1056 17.5499C19.275 17.2111 19.6212 16.9971 20 16.9971ZM20.9534 22.1399L20 20.2331L19.0466 22.1399H20.9534ZM8.89445 5.54986C8.72505 5.21107 8.37879 4.99707 8.00002 4.99707C7.62125 4.99707 7.27498 5.21107 7.10559 5.54986L4.53416 10.6927C4.37917 11.0027 4.39573 11.3708 4.57794 11.6657C4.76015 11.9605 5.08201 12.1399 5.42859 12.1399H10.5714C10.918 12.1399 11.2399 11.9605 11.4221 11.6657C11.6043 11.3708 11.6209 11.0027 11.4659 10.6927L8.89445 5.54986ZM8.95341 10.1399H7.04662L8.00002 8.23314L8.95341 10.1399Z" stroke="none"></path></svg>