<svg width="48" height="48" viewBox="0 0 28 28" fill="#e6007a" xmlns="http://www.w3.org/2000/svg" stroke-width="2" stroke-linecap="round" stroke-linejoin="round" stroke="#e6007a"><path fill-rule="evenodd" clip-rule="evenodd" d="M10.8217 2.29289C11.2122 1.90237 11.8454 1.90237 12.2359 2.29289L15.2786 5.33552C15.6691 5.72605 15.6691 6.35921 15.2786 6.74974L7.40183 14.6265C7.27825 14.7501 7.12443 14.8391 6.95571 14.8847L2.78035 16.0135C2.4345 16.107 2.06505 16.0084 1.81186 15.7549C1.55867 15.5014 1.46042 15.1319 1.55431 14.7862L2.68704 10.6147C2.73274 10.4464 2.82167 10.293 2.94499 10.1696L10.8217 2.29289ZM22.2503 2.29289C22.6408 1.90237 23.2739 1.90237 23.6645 2.29289L26.7071 5.33552C27.0976 5.72605 27.0976 6.35921 26.7071 6.74974L18.8304 14.6265C18.7068 14.7501 18.553 14.8391 18.3842 14.8847L14.2089 16.0135C13.863 16.107 13.4936 16.0084 13.2404 15.7549C12.9872 15.5014 12.8889 15.1319 12.9828 14.7862L14.1156 10.6147C14.1613 10.4464 14.2502 10.293 14.3735 10.1696L22.2503 2.29289ZM25.1483 21.7072C25.336 21.5195 25.4414 21.2649 25.4412 20.9994C25.441 20.734 25.3353 20.4795 25.1474 20.2921L21.6279 16.7816C21.2369 16.3916 20.6037 16.3924 20.2137 16.7834C19.8236 17.1744 19.8245 17.8076 20.2155 18.1976L22.0225 20H2.16084C1.60856 20 1.16084 20.4477 1.16084 21C1.16084 21.5523 1.60856 22 2.16084 22H22.0271L20.2146 23.8125C19.8241 24.203 19.8241 24.8362 20.2146 25.2267C20.6051 25.6172 21.2383 25.6172 21.6288 25.2267L25.1483 21.7072Z" stroke="none"></path></svg>