<svg width="48" height="48" viewBox="0 0 28 28" fill="#e6007a" xmlns="http://www.w3.org/2000/svg" stroke-width="2" stroke-linecap="round" stroke-linejoin="round" stroke="#e6007a"><path fill-rule="evenodd" clip-rule="evenodd" d="M13.8778 1.49254C13.6558 1.4113 13.4122 1.41134 13.1902 1.49265L6.04023 4.11149C5.64617 4.25582 5.38416 4.63083 5.38416 5.05048V9.32685C5.38416 11.7398 6.17518 14.0462 7.58106 15.9229L6.38569 17.0972C6.19429 17.2852 6.08647 17.5422 6.08647 17.8105L6.08647 19.713C5.82458 19.8314 5.57927 19.9982 5.36413 20.2133C4.40915 21.1683 4.40627 22.7177 5.36249 23.6739C6.31871 24.6301 7.86805 24.6272 8.82303 23.6722C9.77802 22.7173 9.7809 21.1679 8.82468 20.2117C8.60509 19.9921 8.35423 19.8231 8.08647 19.7046V18.23L8.92212 17.4091C9.385 17.8364 9.88783 18.2268 10.4273 18.5743L12.5412 19.936L12.5412 22.1713C12.281 22.2894 12.0372 22.4554 11.8233 22.6692C10.8708 23.6217 10.868 25.167 11.8217 26.1208C12.7754 27.0745 14.3207 27.0716 15.2732 26.1191C16.2257 25.1666 16.2286 23.6213 15.2749 22.6676C15.0566 22.4493 14.8073 22.2811 14.5412 22.163V19.8683L16.6494 18.5096C17.1752 18.1707 17.6663 17.791 18.1194 17.3762L18.9885 18.23V19.7046C18.7208 19.8231 18.4699 19.9921 18.2503 20.2117C17.2941 21.1679 17.297 22.7173 18.252 23.6722C19.2069 24.6272 20.7563 24.6301 21.7125 23.6739C22.6687 22.7177 22.6658 21.1683 21.7109 20.2133C21.4957 19.9982 21.2504 19.8314 20.9885 19.713V17.8105C20.9885 17.5422 20.8807 17.2852 20.6893 17.0972L19.4663 15.8958C20.8893 14.0126 21.6905 11.692 21.6905 9.26342V5.05048C21.6905 4.63072 21.4284 4.25564 21.0342 4.11139L13.8778 1.49254ZM17.9014 9.11707C18.2546 8.69248 18.1967 8.06197 17.7721 7.70878C17.3475 7.35559 16.717 7.41347 16.3638 7.83806L13.1907 11.6527L11.8294 10.1414C11.4597 9.73107 10.8274 9.69807 10.4171 10.0677C10.0067 10.4373 9.97373 11.0696 10.3434 11.48L12.4778 13.8495C12.672 14.0651 12.9503 14.1857 13.2405 14.18C13.5306 14.1743 13.804 14.0428 13.9896 13.8197L17.9014 9.11707Z" stroke="none"></path></svg>