<svg width="48" height="48" viewBox="0 0 28 29" fill="#e6007a" xmlns="http://www.w3.org/2000/svg" stroke-width="2" stroke-linecap="round" stroke-linejoin="round" stroke="#e6007a"><path fill-rule="evenodd" clip-rule="evenodd" d="M13.7947 1.29928C14.0167 1.21798 14.2603 1.21795 14.4823 1.29919L24.6302 5.0127C25.0243 5.15696 25.2865 5.53204 25.2865 5.9518L25.2865 14.2048C25.2865 17.9432 23.3878 21.4258 20.2453 23.451L14.616 27.0788C14.2862 27.2914 13.8626 27.2914 13.5328 27.079L8.04316 23.5428C4.8996 21.5178 3.00002 18.0346 3.00002 14.2953L3.00002 5.9518C3.00002 5.53215 3.26204 5.15714 3.65609 5.01281L13.7947 1.29928ZM13.2935 19.0497C13.684 18.6591 14.3172 18.6591 14.7077 19.0497L14.7259 19.0678C15.1164 19.4583 15.1164 20.0915 14.7259 20.482C14.3353 20.8725 13.7022 20.8725 13.3116 20.482L13.2935 20.4639C12.903 20.0733 12.903 19.4402 13.2935 19.0497ZM13.9983 7.23834C14.5506 7.23761 14.9989 7.68473 14.9997 8.23701L15.0091 15.3672C15.0099 15.9195 14.5628 16.3678 14.0105 16.3686C13.4582 16.3693 13.0099 15.9222 13.0091 15.3699L12.9997 8.23967C12.9989 7.68739 13.446 7.23908 13.9983 7.23834Z" stroke="none"></path></svg>