<svg width="48" height="48" viewBox="0 0 28 29" fill="#e6007a" xmlns="http://www.w3.org/2000/svg" stroke-width="2" stroke-linecap="round" stroke-linejoin="round" stroke="#e6007a"><path fill-rule="evenodd" clip-rule="evenodd" d="M1 2.23828C1 1.686 1.44772 1.23828 2 1.23828H11.2908C11.8431 1.23828 12.2908 1.686 12.2908 2.23828C12.2908 2.79057 11.8431 3.23828 11.2908 3.23828H3V25.2383H25V16.9434C25 16.3912 25.4477 15.9434 26 15.9434C26.5523 15.9434 27 16.3912 27 16.9434V26.2383C27 26.7906 26.5523 27.2383 26 27.2383H2C1.44772 27.2383 1 26.7906 1 26.2383V2.23828ZM10.7216 17.5169C10.331 17.1265 10.3309 16.4933 10.7214 16.1027L23.5273 3.29297H16.3685C15.8162 3.29297 15.3685 2.84525 15.3685 2.29297C15.3685 1.74068 15.8162 1.29297 16.3685 1.29297H25.9474C26.4997 1.29297 26.9474 1.74068 26.9474 2.29297V11.8719C26.9474 12.4242 26.4997 12.8719 25.9474 12.8719C25.3951 12.8719 24.9474 12.4242 24.9474 11.8719V4.70129L12.1358 17.5167C11.7453 17.9073 11.1122 17.9074 10.7216 17.5169Z" stroke="none"></path></svg>