<svg width="48" height="48" viewBox="0 0 28 28" fill="#e6007a" xmlns="http://www.w3.org/2000/svg" stroke-width="2" stroke-linecap="round" stroke-linejoin="round" stroke="#e6007a"><path fill-rule="evenodd" clip-rule="evenodd" d="M0.9104 1.88281C0.9104 1.33053 1.35812 0.882812 1.9104 0.882812H19.9104C20.1756 0.882812 20.43 0.988175 20.6175 1.17572C20.8051 1.36327 20.9104 1.61763 20.9104 1.88285L20.9103 4.8388L25.9104 4.8388C26.4627 4.8388 26.9104 5.28651 26.9104 5.8388V22.567C26.9104 24.7871 25.311 26.7645 23.1117 26.8777C23.0782 26.8811 23.0442 26.8828 23.0099 26.8828H22.9122H1.9104C1.35812 26.8828 0.9104 26.4351 0.9104 25.8828V1.88281ZM21.7155 24.5644C21.9921 24.7461 22.3839 24.874 22.9502 24.8824C23.9487 24.8593 24.9104 23.9264 24.9104 22.567V6.8388L20.9104 6.8388V22.567C20.9104 23.5299 21.1856 24.0769 21.4946 24.3837C21.5611 24.4497 21.6347 24.5101 21.7155 24.5644ZM5.28784 5.88281C5.28784 5.33053 5.73556 4.88281 6.28784 4.88281H15.2878C15.8401 4.88281 16.2878 5.33053 16.2878 5.88281V10.8828C16.2878 11.4351 15.8401 11.8828 15.2878 11.8828H6.28784C5.73556 11.8828 5.28784 11.4351 5.28784 10.8828V5.88281ZM7.28784 6.88281V9.88281H14.2878V6.88281H7.28784ZM15.2878 16.8828C15.8401 16.8828 16.2878 16.4351 16.2878 15.8828C16.2878 15.3305 15.8401 14.8828 15.2878 14.8828H6.28784C5.73556 14.8828 5.28784 15.3305 5.28784 15.8828C5.28784 16.4351 5.73556 16.8828 6.28784 16.8828H15.2878ZM15.2878 21.8828C15.8401 21.8828 16.2878 21.4351 16.2878 20.8828C16.2878 20.3305 15.8401 19.8828 15.2878 19.8828H6.28784C5.73556 19.8828 5.28784 20.3305 5.28784 20.8828C5.28784 21.4351 5.73556 21.8828 6.28784 21.8828H15.2878Z" stroke="none"></path></svg>