<svg width="48" height="48" viewBox="0 0 28 29" fill="#e6007a" xmlns="http://www.w3.org/2000/svg" stroke-width="2" stroke-linecap="round" stroke-linejoin="round" stroke="#e6007a"><path fill-rule="evenodd" clip-rule="evenodd" d="M13.6297 1.67393C13.9112 1.53317 14.2426 1.53317 14.5241 1.67393L25.6011 7.21239C25.9398 7.38179 26.1538 7.72805 26.1538 8.10682V21.0299C26.1538 21.4087 25.9398 21.7549 25.6011 21.9243L14.5241 27.4628C14.2426 27.6035 13.9112 27.6035 13.6297 27.4628L2.55279 21.9243C2.214 21.7549 2 21.4087 2 21.0299V8.10682C2 7.72805 2.214 7.38179 2.55279 7.21239L13.6297 1.67393ZM13.4679 10.0202C13.827 9.74458 14.3265 9.74458 14.6856 10.0202L18.0568 12.6075C18.4949 12.9437 18.5775 13.5715 18.2413 14.0096C17.905 14.4477 17.2773 14.5303 16.8391 14.1941L15.0536 12.8237V18.2101C15.0536 18.7623 14.6059 19.2101 14.0536 19.2101C13.5013 19.2101 13.0536 18.7623 13.0536 18.2101V12.8593L11.3143 14.1941C10.8762 14.5303 10.2484 14.4477 9.91219 14.0096C9.57595 13.5715 9.65854 12.9437 10.0967 12.6075L13.4679 10.0202Z" stroke="none"></path></svg>