<svg width="48" height="48" viewBox="0 0 28 28" fill="#e6007a" xmlns="http://www.w3.org/2000/svg" stroke-width="2" stroke-linecap="round" stroke-linejoin="round" stroke="#e6007a"><path fill-rule="evenodd" clip-rule="evenodd" d="M13.2016 0.533307C13.4831 0.392543 13.8145 0.392543 14.096 0.533307L25.7114 6.34099C26.0502 6.51038 26.2642 6.85664 26.2642 7.23542V20.7867C26.2642 21.1654 26.0502 21.5117 25.7114 21.6811L14.096 27.4888C13.8145 27.6295 13.4831 27.6295 13.2016 27.4888L1.58623 21.6811C1.24745 21.5117 1.03345 21.1654 1.03345 20.7867V7.23542C1.03345 6.85664 1.24745 6.51038 1.58623 6.34099L13.2016 0.533307ZM13.3555 10C12.8032 10 12.3555 10.4477 12.3555 11V14.2842V16.9972C12.3555 17.5495 12.8032 17.9972 13.3555 17.9972C13.9078 17.9972 14.3555 17.5495 14.3555 16.9972V15.2842H15.1917C15.744 15.2842 16.1917 14.8365 16.1917 14.2842C16.1917 13.7319 15.744 13.2842 15.1917 13.2842H14.3555V12H15.1913C15.7436 12 16.1913 11.5523 16.1913 11C16.1913 10.4477 15.7436 10 15.1913 10H13.3555ZM17.8916 11.022C17.8916 10.4697 18.3393 10.022 18.8916 10.022H21.8601C22.4124 10.022 22.8601 10.4697 22.8601 11.022C22.8601 11.5743 22.4124 12.022 21.8601 12.022H21.376V16.9998C21.376 17.552 20.9283 17.9998 20.376 17.9998C19.8237 17.9998 19.376 17.552 19.376 16.9998V12.022H18.8916C18.3393 12.022 17.8916 11.5743 17.8916 11.022ZM10.6549 11.042C10.6549 10.4897 10.2072 10.042 9.65493 10.042C9.10265 10.042 8.65493 10.4897 8.65493 11.042V13.3229L7.03607 10.5393C6.85703 10.2315 6.52777 10.042 6.17163 10.042H6.14062C5.58834 10.042 5.14062 10.4898 5.14062 11.042V16.9797C5.14062 17.532 5.58834 17.9797 6.14062 17.9797C6.69291 17.9797 7.14062 17.532 7.14062 16.9797V14.6974L8.76031 17.4824C8.93935 17.7903 9.26862 17.9797 9.62476 17.9797H9.65493C10.2072 17.9797 10.6549 17.532 10.6549 16.9797V11.042Z" stroke="none"></path></svg>