<svg width="48" height="48" viewBox="0 0 28 29" fill="#e6007a" xmlns="http://www.w3.org/2000/svg" stroke-width="2" stroke-linecap="round" stroke-linejoin="round" stroke="#e6007a"><path fill-rule="evenodd" clip-rule="evenodd" d="M17.2844 2.19404C10.5728 0.439795 3.71 4.45846 1.95575 11.17C0.201514 17.8815 4.22018 24.7443 10.9317 26.4986C17.2211 28.1425 23.6421 24.7173 25.8697 18.7568C26.0291 18.3303 25.8803 17.85 25.5077 17.5884C25.1351 17.3267 24.6328 17.3498 24.2857 17.6445C22.5566 19.1126 20.1665 19.7399 17.8092 19.1237C13.968 18.1197 11.668 14.1919 12.672 10.3508C13.487 7.2327 16.2299 5.12801 19.2905 4.98565C19.7459 4.96446 20.1294 4.63789 20.2228 4.19164C20.3162 3.74538 20.0959 3.29242 19.6873 3.09033C18.9324 2.71707 18.1292 2.41487 17.2844 2.19404Z" stroke="none"></path></svg>