<svg width="48" height="48" viewBox="0 0 28 28" fill="#e6007a" xmlns="http://www.w3.org/2000/svg" stroke-width="2" stroke-linecap="round" stroke-linejoin="round" stroke="#e6007a"><path fill-rule="evenodd" clip-rule="evenodd" d="M23.0067 10.0054C23.0067 5.03185 18.9749 1 14.0013 1C9.02777 1 4.99592 5.03185 4.99592 10.0054C4.99592 12.7396 6.2144 15.1891 8.13798 16.8407L6.13909 19.6954C5.71518 19.5304 5.25407 19.4399 4.77181 19.4399C2.6887 19.4399 1 21.1286 1 23.2118C1 25.2949 2.6887 26.9836 4.77181 26.9836C6.85493 26.9836 8.54363 25.2949 8.54363 23.2118C8.54363 22.336 8.24515 21.5299 7.74436 20.8897L9.79041 17.9677C11.047 18.6336 12.4801 19.0108 14.0013 19.0108C15.5281 19.0108 16.9661 18.6308 18.226 17.9604L20.2463 20.9017C19.7511 21.5399 19.4564 22.3414 19.4564 23.2118C19.4564 25.2949 21.1451 26.9836 23.2282 26.9836C25.3113 26.9836 27 25.2949 27 23.2118C27 21.1286 25.3113 19.4399 23.2282 19.4399C22.7409 19.4399 22.2752 19.5323 21.8477 19.7006L19.8763 16.8306C21.7932 15.1792 23.0067 12.734 23.0067 10.0054Z" stroke="none"></path></svg>