<svg width="48" height="48" viewBox="0 0 28 23" fill="#e6007a" xmlns="http://www.w3.org/2000/svg" stroke-width="2" stroke-linecap="round" stroke-linejoin="round" stroke="#e6007a"><path fill-rule="evenodd" clip-rule="evenodd" d="M27.3854 9.53926C27.3854 11.3762 25.8962 12.8654 24.0593 12.8654L21.26 12.8654C21.4256 13.283 21.5149 13.7366 21.5149 14.1959C21.5149 15.3883 20.913 16.5427 19.9353 17.1284C20.2265 17.6571 20.387 18.2676 20.387 18.8812C20.387 20.5852 19.1579 22.2115 17.3597 22.2115L12.4614 22.2115C10.1009 22.2114 8.4694 20.9568 7.47054 19.7873C6.97032 19.2017 6.61213 18.6202 6.37862 18.186C6.35612 18.1441 6.33472 18.1036 6.31441 18.0644L1.38538 18.0644C1.12016 18.0644 0.865805 17.959 0.678268 17.7715C0.490732 17.5839 0.385376 17.3296 0.385376 17.0644L0.385378 8.38963C0.385378 8.12441 0.490734 7.87006 0.678272 7.68252C0.865809 7.49498 1.12016 7.38963 1.38538 7.38963L6.3169 7.38963C6.39582 7.23548 6.49268 7.05397 6.61022 6.84527C7.02697 6.10526 7.70362 5.02337 8.76191 3.60712C10.7751 0.913014 12.7186 0.412709 13.3104 0.325461C13.4254 0.308501 13.5246 0.307129 13.5849 0.307129C14.9295 0.307129 15.9099 1.1667 16.3198 2.19722C16.7268 3.22022 16.6158 4.5097 15.7294 5.46798C15.4697 5.74876 15.2409 6.00897 15.0495 6.24124C17.2804 6.23606 21.4382 6.22205 24.0509 6.21296C25.8945 6.20655 27.3854 7.69958 27.3854 9.53926Z" stroke="none"></path></svg>