<svg width="48" height="48" viewBox="0 0 28 28" fill="#e6007a" xmlns="http://www.w3.org/2000/svg" stroke-width="2" stroke-linecap="round" stroke-linejoin="round" stroke="#e6007a"><path fill-rule="evenodd" clip-rule="evenodd" d="M1.01681 1.99671C1.01863 1.44443 1.4678 0.998195 2.02008 1.00001L7.12629 1.01675C7.67857 1.01856 8.12481 1.46774 8.123 2.02002C8.12119 2.5723 7.67201 3.01855 7.11973 3.01674L4.26579 3.00738L8.31208 6.98879C9.86046 5.73439 11.8329 4.98291 13.9809 4.98291C16.1368 4.98291 18.1159 5.73993 19.6668 7.00265L23.7169 3.00737L20.8603 3.01674C20.308 3.01855 19.8588 2.5723 19.857 2.02002C19.8552 1.46774 20.3014 1.01856 20.8537 1.01675L25.9599 1.00001C26.5122 0.998195 26.9614 1.44443 26.9632 1.99671L26.98 7.09426C26.9818 7.64654 26.5356 8.09573 25.9833 8.09754C25.431 8.09936 24.9818 7.65312 24.98 7.10084L24.9717 4.57892L21.069 8.42878C22.2741 9.96124 22.9929 11.8941 22.9929 13.9949C22.9929 16.1512 22.2356 18.1306 20.9725 19.6816L24.9729 23.7369L24.9635 20.8802C24.9617 20.3279 25.4079 19.8788 25.9602 19.877C26.5125 19.8751 26.9617 20.3214 26.9635 20.8737L26.9802 25.9799C26.982 26.5322 26.5358 26.9813 25.9835 26.9832L20.886 26.9999C20.3337 27.0017 19.8845 26.5555 19.8827 26.0032C19.8809 25.4509 20.3271 25.0017 20.8794 24.9999L23.4013 24.9916L19.5462 21.0836C18.0139 22.2883 16.0813 23.0069 13.9809 23.0069C11.8852 23.0069 9.95656 22.2915 8.42586 21.0917L4.57866 24.9916L7.10084 24.9999C7.65312 25.0017 8.09936 25.4509 8.09755 26.0032C8.09573 26.5555 7.64654 27.0017 7.09426 26.9999L1.99671 26.9832C1.44443 26.9813 0.998195 26.5322 1.00001 25.9799L1.01675 20.8737C1.01856 20.3214 1.46774 19.8751 2.02002 19.877C2.5723 19.8788 3.01855 20.3279 3.01674 20.8802L3.00737 23.7366L6.99755 19.6917C5.72951 18.1391 4.96894 16.1558 4.96894 13.9949C4.96894 11.8862 5.69316 9.94672 6.90643 8.41152L3.00834 4.57593L3.00003 7.10084C2.99821 7.65312 2.54903 8.09936 1.99674 8.09754C1.44446 8.09573 0.998223 7.64654 1.00004 7.09426L1.01681 1.99671ZM12.7651 11.1182C12.3746 10.7276 11.7414 10.7276 11.3509 11.1182C10.9604 11.5087 10.9604 12.1419 11.3509 12.5324L12.6433 13.8247L11.3509 15.117C10.9604 15.5076 10.9604 16.1407 11.3509 16.5312C11.7414 16.9218 12.3746 16.9218 12.7651 16.5312L14.0575 15.2389L15.35 16.5314C15.7405 16.922 16.3737 16.922 16.7642 16.5314C17.1547 16.1409 17.1547 15.5077 16.7642 15.1172L15.4717 13.8247L16.7642 12.5322C17.1547 12.1417 17.1547 11.5085 16.7642 11.118C16.3737 10.7275 15.7405 10.7275 15.35 11.118L14.0575 12.4105L12.7651 11.1182Z" stroke="none"></path></svg>