<svg width="48" height="48" viewBox="0 0 28 28" fill="#e6007a" xmlns="http://www.w3.org/2000/svg" stroke-width="2" stroke-linecap="round" stroke-linejoin="round" stroke="#e6007a"><path fill-rule="evenodd" clip-rule="evenodd" d="M1 14C1 6.8203 6.8203 1 14 1C17.1279 1 19.9977 2.10467 22.2407 3.94515L21.3785 4.97302L17.8081 9.33679L14.7069 6.23563C14.5194 6.04809 14.2651 5.94273 13.9998 5.94273C13.7346 5.94273 13.4803 6.04809 13.2927 6.23563L10.0378 9.49054C9.64732 9.88106 9.64732 10.5142 10.0378 10.9048C10.4284 11.2953 11.0615 11.2953 11.4521 10.9047L12.9998 9.35696V15.2136L6.57992 23.0601C6.57092 23.0711 6.56216 23.0823 6.55364 23.0937L5.80522 24.0924C2.87324 21.7088 1 18.0732 1 14ZM7.45046 25.232C9.37374 26.3559 11.6117 27 14 27C21.1797 27 27 21.1797 27 14C27 10.6696 25.7477 7.63176 23.6882 5.33161L22.9148 6.25367L14.9998 15.9275V21.0571C14.9998 21.6094 14.5521 22.0571 13.9998 22.0571C13.4476 22.0571 12.9998 21.6094 12.9998 21.0571V18.3719L8.14133 24.3101L7.45046 25.232ZM16.5353 10.8924L14.9998 12.7691V9.35695L16.5353 10.8924Z" stroke="none"></path></svg>