<svg width="48" height="48" viewBox="0 0 28 29" fill="#e6007a" xmlns="http://www.w3.org/2000/svg" stroke-width="2" stroke-linecap="round" stroke-linejoin="round" stroke="#e6007a"><path fill-rule="evenodd" clip-rule="evenodd" d="M1 7.13965C1 6.58736 1.44772 6.13965 2 6.13965H5C5.55228 6.13965 6 6.58736 6 7.13965C6 7.69193 5.55228 8.13965 5 8.13965H2C1.44772 8.13965 1 7.69193 1 7.13965ZM10 7.13965C10 6.58736 10.4477 6.13965 11 6.13965H17.2523C17.8046 6.13965 18.2523 6.58736 18.2523 7.13965C18.2523 7.69193 17.8046 8.13965 17.2523 8.13965H11C10.4477 8.13965 10 7.69193 10 7.13965ZM22 7.13965C22 6.58736 22.4477 6.13965 23 6.13965H26C26.5523 6.13965 27 6.58736 27 7.13965C27 7.69193 26.5523 8.13965 26 8.13965H23C22.4477 8.13965 22 7.69193 22 7.13965Z" stroke="none"></path><path fill-rule="evenodd" clip-rule="evenodd" d="M1 14.8535C1 14.3012 1.44772 13.8535 2 13.8535H11C11.5523 13.8535 12 14.3012 12 14.8535C12 15.4058 11.5523 15.8535 11 15.8535H2C1.44772 15.8535 1 15.4058 1 14.8535ZM16 14.8535C16 14.3012 16.4477 13.8535 17 13.8535H26C26.5523 13.8535 27 14.3012 27 14.8535C27 15.4058 26.5523 15.8535 26 15.8535H17C16.4477 15.8535 16 15.4058 16 14.8535Z" stroke="none"></path><path fill-rule="evenodd" clip-rule="evenodd" d="M1 22.8535C1 22.3012 1.44772 21.8535 2 21.8535H5.42397C5.97626 21.8535 6.42397 22.3012 6.42397 22.8535C6.42397 23.4058 5.97626 23.8535 5.42397 23.8535H2C1.44772 23.8535 1 23.4058 1 22.8535ZM9.5 22.8535C9.5 22.3012 9.94772 21.8535 10.5 21.8535H17.3319C17.8841 21.8535 18.3319 22.3012 18.3319 22.8535C18.3319 23.4058 17.8841 23.8535 17.3319 23.8535H10.5C9.94772 23.8535 9.5 23.4058 9.5 22.8535ZM21.5 22.8535C21.5 22.3012 21.9477 21.8535 22.5 21.8535H26C26.5523 21.8535 27 22.3012 27 22.8535C27 23.4058 26.5523 23.8535 26 23.8535H22.5C21.9477 23.8535 21.5 23.4058 21.5 22.8535Z" stroke="none"></path><path d="M17.4287 7.09099C17.4287 8.4842 18.5581 9.61362 19.9513 9.61362C21.3445 9.61362 22.4739 8.4842 22.4739 7.09099C22.4739 5.69778 21.3445 4.56836 19.9513 4.56836C18.5581 4.56836 17.4287 5.69778 17.4287 7.09099Z" stroke="none"></path><path fill-rule="evenodd" clip-rule="evenodd" d="M21.4739 7.09099C21.4739 6.25006 20.7922 5.56836 19.9513 5.56836C19.1104 5.56836 18.4287 6.25006 18.4287 7.09099C18.4287 7.93192 19.1104 8.61362 19.9513 8.61362C20.7922 8.61362 21.4739 7.93192 21.4739 7.09099ZM19.9513 3.56836C21.8968 3.56836 23.4739 5.14549 23.4739 7.09099C23.4739 9.03649 21.8968 10.6136 19.9513 10.6136C18.0058 10.6136 16.4287 9.03648 16.4287 7.09099C16.4287 5.14549 18.0058 3.56836 19.9513 3.56836Z" stroke="none"></path><path d="M5.42868 7.09099C5.42868 8.4842 6.5581 9.61362 7.95131 9.61362C9.34452 9.61362 10.4739 8.4842 10.4739 7.09099C10.4739 5.69778 9.34452 4.56836 7.95131 4.56836C6.5581 4.56836 5.42868 5.69778 5.42868 7.09099Z" stroke="none"></path><path fill-rule="evenodd" clip-rule="evenodd" d="M9.47394 7.09099C9.47394 6.25006 8.79223 5.56836 7.95131 5.56836C7.11038 5.56836 6.42868 6.25006 6.42868 7.09099C6.42868 7.93192 7.11038 8.61362 7.95131 8.61362C8.79223 8.61362 9.47394 7.93192 9.47394 7.09099ZM7.95131 3.56836C9.8968 3.56836 11.4739 5.14549 11.4739 7.09099C11.4739 9.03649 9.8968 10.6136 7.95131 10.6136C6.00581 10.6136 4.42868 9.03648 4.42868 7.09099C4.42868 5.14549 6.00581 3.56836 7.95131 3.56836Z" stroke="none"></path><path d="M17.4287 22.5197C17.4287 23.9129 18.5581 25.0423 19.9513 25.0423C21.3445 25.0423 22.4739 23.9129 22.4739 22.5197C22.4739 21.1265 21.3445 19.9971 19.9513 19.9971C18.5581 19.9971 17.4287 21.1265 17.4287 22.5197Z" stroke="none"></path><path fill-rule="evenodd" clip-rule="evenodd" d="M21.4739 22.5197C21.4739 21.6788 20.7922 20.9971 19.9513 20.9971C19.1104 20.9971 18.4287 21.6788 18.4287 22.5197C18.4287 23.3606 19.1104 24.0423 19.9513 24.0423C20.7922 24.0423 21.4739 23.3606 21.4739 22.5197ZM19.9513 18.9971C21.8968 18.9971 23.4739 20.5742 23.4739 22.5197C23.4739 24.4652 21.8968 26.0423 19.9513 26.0423C18.0058 26.0423 16.4287 24.4652 16.4287 22.5197C16.4287 20.5742 18.0058 18.9971 19.9513 18.9971Z" stroke="none"></path><path d="M5.42868 22.5197C5.42868 23.9129 6.5581 25.0423 7.95131 25.0423C9.34452 25.0423 10.4739 23.9129 10.4739 22.5197C10.4739 21.1265 9.34452 19.9971 7.95131 19.9971C6.5581 19.9971 5.42868 21.1265 5.42868 22.5197Z" stroke="none"></path><path fill-rule="evenodd" clip-rule="evenodd" d="M9.47394 22.5197C9.47394 21.6788 8.79223 20.9971 7.95131 20.9971C7.11038 20.9971 6.42868 21.6788 6.42868 22.5197C6.42868 23.3606 7.11038 24.0423 7.95131 24.0423C8.79223 24.0423 9.47394 23.3606 9.47394 22.5197ZM7.95131 18.9971C9.8968 18.9971 11.4739 20.5742 11.4739 22.5197C11.4739 24.4652 9.8968 26.0423 7.95131 26.0423C6.00581 26.0423 4.42868 24.4652 4.42868 22.5197C4.42868 20.5742 6.00581 18.9971 7.95131 18.9971Z" stroke="none"></path><path d="M11.4287 14.8049C11.4287 16.1981 12.5581 17.3275 13.9513 17.3275C15.3445 17.3275 16.4739 16.1981 16.4739 14.8049C16.4739 13.4116 15.3445 12.2822 13.9513 12.2822C12.5581 12.2822 11.4287 13.4116 11.4287 14.8049Z" stroke="none"></path><path fill-rule="evenodd" clip-rule="evenodd" d="M15.4739 14.8049C15.4739 13.9639 14.7922 13.2822 13.9513 13.2822C13.1104 13.2822 12.4287 13.9639 12.4287 14.8049C12.4287 15.6458 13.1104 16.3275 13.9513 16.3275C14.7922 16.3275 15.4739 15.6458 15.4739 14.8049ZM13.9513 11.2822C15.8968 11.2822 17.4739 12.8594 17.4739 14.8049C17.4739 16.7504 15.8968 18.3275 13.9513 18.3275C12.0058 18.3275 10.4287 16.7504 10.4287 14.8049C10.4287 12.8594 12.0058 11.2822 13.9513 11.2822Z" stroke="none"></path></svg>