<svg width="48" height="48" viewBox="0 0 28 29" fill="#e6007a" xmlns="http://www.w3.org/2000/svg" stroke-width="2" stroke-linecap="round" stroke-linejoin="round" stroke="#e6007a"><g><path fill-rule="evenodd" clip-rule="evenodd" d="M3.05142 17.0012C2.63416 16.878 2.34458 16.4992 2.3352 16.0644L2.1801 8.87384C2.17067 8.43659 2.44664 8.04381 2.86135 7.90422C3.27606 7.76464 3.73325 7.91066 3.98996 8.26468L6.78748 12.1226L7.6171 12.3752L7.891 12.4568C8.06983 12.5102 8.32959 12.5879 8.65359 12.6852C9.01621 12.794 9.45936 12.9273 9.95966 13.0786L10.2165 2.53005L10.2166 2.5263C10.2276 2.04909 10.5745 1.64601 11.0449 1.56384C11.5153 1.48167 11.978 1.74334 12.1498 2.18864C12.1768 2.2588 12.2039 2.32896 12.2308 2.39911L17.0634 14.9292C17.0994 15.0227 17.1205 15.1183 17.1277 15.2134C17.1368 15.2353 17.1459 15.2573 17.155 15.2793L22.6196 16.9432C23.5295 17.2202 24.2129 17.7501 24.6042 18.4463C24.9911 19.1348 25.0519 19.9174 24.8394 20.6137C24.6269 21.31 24.1394 21.9256 23.4337 22.2814C22.7202 22.6412 21.857 22.7002 20.9472 22.4232L5.95188 17.8574L3.05142 17.0012ZM0.999939 26.1704C0.447654 26.1704 -6.10352e-05 26.6181 -6.10352e-05 27.1704C-6.10352e-05 27.7226 0.447654 28.1704 0.999939 28.1704H25.7123C26.2645 28.1704 26.7123 27.7226 26.7123 27.1704C26.7123 26.6181 26.2645 26.1704 25.7123 26.1704H0.999939Z" stroke="none"></path></g></svg>