<svg width="48" height="48" viewBox="0 0 28 29" fill="#e6007a" xmlns="http://www.w3.org/2000/svg" stroke-width="2" stroke-linecap="round" stroke-linejoin="round" stroke="#e6007a"><path fill-rule="evenodd" clip-rule="evenodd" d="M14.063 4.56836C11.3484 4.56836 9.14777 6.76899 9.14777 9.48362C9.14777 12.1982 11.3484 14.3989 14.063 14.3989C16.7776 14.3989 18.9783 12.1982 18.9783 9.48362C18.9783 6.76899 16.7776 4.56836 14.063 4.56836ZM7.2078 8.56836C7.65561 5.18179 10.5541 2.56836 14.063 2.56836C17.5719 2.56836 20.4704 5.18179 20.9182 8.56836H22.5712C23.1235 8.56836 23.5712 9.01607 23.5712 9.56836V16.833H21.5712V10.5684H20.8937C20.3732 13.8722 17.5132 16.3989 14.063 16.3989C10.6129 16.3989 7.75286 13.8722 7.23235 10.5684H6.42847V16.834H9.05891C9.61119 16.834 10.0589 17.2817 10.0589 17.834V24.8929C10.0589 25.4452 9.61119 25.8929 9.05891 25.8929H2C1.44772 25.8929 1 25.4452 1 24.8929V17.834C1 17.2817 1.44772 16.834 2 16.834H4.42847V9.56836C4.42847 9.01607 4.87618 8.56836 5.42847 8.56836H7.2078ZM14.1708 5.82262C14.7231 5.82262 15.1708 6.27033 15.1708 6.82261L15.1708 8.2804L15.3916 8.14792C15.8652 7.86379 16.4795 8.01737 16.7636 8.49096C17.0478 8.96455 16.8942 9.57881 16.4206 9.86294L14.6853 10.904C14.3764 11.0894 13.9916 11.0942 13.6781 10.9167C13.3646 10.7392 13.1709 10.4068 13.1708 10.0465L13.1708 6.82263C13.1708 6.27035 13.6185 5.82263 14.1708 5.82262ZM18.941 16.834H21.5712V20.7112C21.5712 21.2635 22.0189 21.7112 22.5712 21.7112C23.1235 21.7112 23.5712 21.2635 23.5712 20.7112V16.834H25.9999C26.5522 16.834 26.9999 17.2817 26.9999 17.834V24.8929C26.9999 25.4452 26.5522 25.8929 25.9999 25.8929H18.941C18.3887 25.8929 17.941 25.4452 17.941 24.8929V17.834C17.941 17.2817 18.3887 16.834 18.941 16.834ZM6.42847 20.7112C6.42847 21.2635 5.98075 21.7112 5.42847 21.7112C4.87618 21.7112 4.42847 21.2635 4.42847 20.7112V16.8399H6.42847V20.7112Z" stroke="none"></path></svg>