<svg width="48" height="48" viewBox="0 0 28 29" fill="#e6007a" xmlns="http://www.w3.org/2000/svg" stroke-width="2" stroke-linecap="round" stroke-linejoin="round" stroke="#e6007a"><path fill-rule="evenodd" clip-rule="evenodd" d="M6.91655 20.5554C6.50459 20.6953 6.04963 20.5527 5.79129 20.2027L1.7959 14.7905C1.53615 14.4387 1.53524 13.9586 1.79366 13.6055C2.05208 13.2524 2.50984 13.1082 2.92368 13.2495L7.12137 14.6828L7.87089 14.4355L8.1241 14.3503C8.2896 14.2946 8.53005 14.2139 8.83015 14.1136C9.14646 14.0078 9.5291 13.8801 9.96014 13.7368L4.56781 5.68328L4.51434 5.60366C4.24823 5.20739 4.29934 4.67805 4.63637 4.33975C4.84277 4.13258 5.12114 4.03243 5.39711 4.04676C5.57184 4.0558 5.74562 4.11072 5.89955 4.21342L16.5241 11.3018C16.6046 11.3555 16.6748 11.4189 16.7342 11.4894C16.7414 11.4939 16.7486 11.4985 16.7558 11.503L21.8006 9.83804C22.6589 9.55477 23.4844 9.59063 24.1759 9.91992C24.8595 10.2454 25.3396 10.8249 25.5579 11.4878C25.7762 12.1506 25.7345 12.9024 25.3783 13.571C25.018 14.2474 24.3757 14.7677 23.5174 15.051L9.5948 19.6461L6.91655 20.5554ZM1.9021 24.7823C1.34981 24.7823 0.9021 25.23 0.9021 25.7823C0.9021 26.3346 1.34981 26.7823 1.9021 26.7823H25.5969C26.1492 26.7823 26.5969 26.3346 26.5969 25.7823C26.5969 25.23 26.1492 24.7823 25.5969 24.7823H1.9021Z" stroke="none"></path></svg>