<svg width="48" height="48" viewBox="0 0 28 28" fill="#e6007a" xmlns="http://www.w3.org/2000/svg" stroke-width="2" stroke-linecap="round" stroke-linejoin="round" stroke="#e6007a"><path fill-rule="evenodd" clip-rule="evenodd" d="M2 12.7828C2 6.27565 7.27565 1 13.7828 1C20.29 1 25.5657 6.27565 25.5657 12.7828C25.5657 15.8776 24.3679 18.6895 22.4187 20.789L22.6785 21.3877L22.6785 21.3877L22.6785 21.3878L22.6785 21.3878C23.2889 22.7951 23.897 24.197 24.5192 25.593C24.6571 25.9024 24.629 26.2605 24.4446 26.5446C24.2602 26.8287 23.9446 27.0001 23.6059 27.0001H3.97095C3.63381 27.0001 3.31936 26.8303 3.13456 26.5483C2.94976 26.2663 2.91949 25.9102 3.05404 25.601L3.91526 23.622C4.34137 22.6427 4.83076 21.5176 5.14722 20.7891C3.198 18.6892 2 15.878 2 12.7828ZM22.0703 25.0001H5.49672L5.74919 24.42C6.10448 23.6034 6.50399 22.6849 6.8106 21.9795H20.7552L20.8427 22.1814L20.8432 22.1824C21.25 23.1204 21.6579 24.0609 22.0703 25.0001ZM11.8712 7.08798C13.2516 6.54684 14.783 6.54684 16.1634 7.08798L16.1686 7.09003C16.8512 7.36204 17.4745 7.76474 18.0044 8.2754L18.0051 8.27615L19.3067 9.52682C19.9644 10.1588 20.3362 11.0316 20.3362 11.9437C20.3362 12.8558 19.9645 13.7284 19.3069 14.3604L17.9906 15.6256C17.4598 16.1282 16.8393 16.5257 16.1616 16.7968L16.1568 16.7988C15.1289 17.2037 14.0086 17.3089 12.9239 17.1021C11.8392 16.8954 10.8351 16.3853 10.0256 15.6312L10.0153 15.6216L8.66741 14.2936C8.28106 13.913 7.99818 13.4471 7.83707 12.9397L7.68213 11.9397C7.68213 11.0269 8.05978 10.1546 8.72549 9.53L10.0646 8.27348C10.5813 7.77029 11.1884 7.3702 11.854 7.09492L11.8626 7.09137L11.8712 7.08798ZM9.68213 11.9397C9.68213 12.289 9.82223 12.6238 10.0711 12.8689L11.3985 14.1768C11.9317 14.6701 12.5898 15.0025 13.2983 15.1375C14.0103 15.2732 14.7457 15.2045 15.4213 14.9389C15.8618 14.7623 16.266 14.5036 16.6128 14.1758L17.9211 12.9184C18.1863 12.6635 18.3362 12.3116 18.3362 11.9437C18.3362 11.5758 18.1862 11.2238 17.921 10.9689L16.617 9.71597C16.2738 9.38506 15.8709 9.12477 15.4308 8.949C14.5233 8.59397 13.5178 8.59318 12.6098 8.94662C12.1811 9.12523 11.7892 9.38449 11.4551 9.71113L11.4477 9.7183L10.094 10.9885C9.83121 11.2351 9.68213 11.5794 9.68213 11.9397ZM13.3021 11.2367C13.6926 10.8462 14.3258 10.8462 14.7163 11.2367L14.7457 11.2661C15.1362 11.6567 15.1362 12.2898 14.7457 12.6804C14.3552 13.0709 13.722 13.0709 13.3315 12.6804L13.3021 12.651C12.9116 12.2604 12.9116 11.6273 13.3021 11.2367Z" stroke="none"></path></svg>