<svg width="48" height="48" viewBox="0 0 29 29" fill="#e6007a" xmlns="http://www.w3.org/2000/svg" stroke-width="2" stroke-linecap="round" stroke-linejoin="round" stroke="#e6007a"><path fill-rule="evenodd" clip-rule="evenodd" d="M9.57513 4.46856C11.4907 2.34048 14.27 1 17.3609 1C23.1445 1 27.8335 5.68902 27.8335 11.4726C27.8335 14.3818 26.6427 17.0096 24.7309 18.9044C24.9767 19.3639 25.2719 19.8399 25.5912 20.3511L25.6306 20.4141C26.0702 21.1176 26.5537 21.8915 26.9037 22.6767C27.0416 22.9861 27.0135 23.3442 26.8291 23.6283C26.6447 23.9124 26.329 24.0838 25.9903 24.0838H22.3493C22.57 24.5877 22.7917 25.0907 23.0155 25.5929C23.1534 25.9022 23.1253 26.2603 22.9409 26.5444C22.7565 26.8285 22.4408 27 22.1021 27H4.85297C4.51583 27 4.20138 26.8301 4.01658 26.5481C3.83178 26.2661 3.80151 25.91 3.93606 25.6009L4.69262 23.8623C5.05309 23.0339 5.46509 22.0867 5.74335 21.4462C4.04291 19.5865 3 17.1112 3 14.3887C3 10.0488 5.64021 6.32522 9.40196 4.73666C9.44381 4.64104 9.50146 4.55039 9.57513 4.46856ZM21.497 22.0838L21.4789 22.084L21.3991 21.9L21.399 21.8998L21.2022 21.4462C21.786 20.8078 22.2923 20.0967 22.7054 19.3279C23.0479 20.0546 23.4905 20.7631 23.8947 21.4102L23.8948 21.4103L23.895 21.4106L23.8954 21.4114L23.8956 21.4117L23.8959 21.4121L23.8965 21.4131L23.8971 21.4141C24.0408 21.6441 24.1799 21.8667 24.3121 22.0838H21.497ZM13.5245 3.91614C19.2842 3.94405 23.9453 8.62232 23.9453 14.3887C23.9453 15.3824 23.8063 16.3433 23.5471 17.2534C24.9653 15.7386 25.8335 13.7079 25.8335 11.4726C25.8335 6.79359 22.0399 3 17.3609 3C15.9799 3 14.6764 3.33006 13.5245 3.91614ZM6.37874 25H20.5672C20.23 24.2308 19.8961 23.4611 19.5632 22.6934L19.518 22.5894H7.42726C7.16244 23.1986 6.82655 23.9708 6.52656 24.6603L6.37874 25ZM11.749 9.27264C12.9901 8.78607 14.3672 8.78607 15.6083 9.27264L15.6135 9.27468C16.228 9.51953 16.789 9.88202 17.2658 10.3416L18.4096 11.4406C19.0112 12.0188 19.3513 12.8171 19.3513 13.6515C19.3513 14.4858 19.0113 15.284 18.4098 15.8622L17.2527 16.9742C16.7753 17.4263 16.2172 17.7838 15.6076 18.0277L15.6027 18.0297C14.6784 18.3938 13.6709 18.4884 12.6953 18.3025C11.7199 18.1166 10.8169 17.6578 10.0891 16.9798L10.0789 16.9703L8.89355 15.8024C8.56156 15.4753 8.31305 15.0795 8.16186 14.648H7.99176V13.648C7.99176 12.8125 8.33741 12.0142 8.94671 11.4425L10.1223 10.3394C10.5871 9.88696 11.1331 9.52718 11.7318 9.27958L11.7403 9.27603L11.749 9.27264ZM9.99176 13.648C9.99176 13.9223 10.1018 14.1852 10.2972 14.3777L11.462 15.5253C11.9135 15.9426 12.4704 16.2236 13.0698 16.3379C13.6725 16.4527 14.2952 16.3946 14.8672 16.1698C15.2397 16.0205 15.5816 15.8017 15.875 15.5244L17.0239 14.4202C17.233 14.2192 17.3513 13.9416 17.3513 13.6515C17.3513 13.3614 17.233 13.0838 17.0238 12.8828L15.8782 11.7819C15.588 11.5022 15.2476 11.2822 14.8757 11.1336C14.1074 10.8332 13.2564 10.8324 12.4876 11.1313C12.1258 11.2822 11.7949 11.5012 11.5127 11.7771L11.5054 11.7842L10.3152 12.9009C10.1088 13.0946 9.99176 13.365 9.99176 13.648ZM12.9644 12.9443C13.3549 12.5537 13.9881 12.5537 14.3786 12.9443L14.4044 12.9701C14.7949 13.3606 14.7949 13.9938 14.4044 14.3843C14.0139 14.7748 13.3807 14.7748 12.9902 14.3843L12.9644 14.3585C12.5738 13.9679 12.5738 13.3348 12.9644 12.9443Z" stroke="none"></path></svg>