<svg width="48" height="48" viewBox="0 0 28 29" fill="#e6007a" xmlns="http://www.w3.org/2000/svg" stroke-width="2" stroke-linecap="round" stroke-linejoin="round" stroke="#e6007a"><path fill-rule="evenodd" clip-rule="evenodd" d="M4.74127 5.80664H2C1.44772 5.80664 1 6.25436 1 6.80664V9.54793H2.24127C3.62198 9.54793 4.74127 8.42864 4.74127 7.04793V5.80664ZM1 11.5479H2.24127C4.72655 11.5479 6.74127 9.53321 6.74127 7.04793V5.80664H21.2588V7.04788C21.2588 9.53316 23.2735 11.5479 25.7588 11.5479H27V17.7891H25.7588C23.2735 17.7891 21.2588 19.8038 21.2588 22.2891V23.5308H6.74133V22.2894C6.74133 19.8041 4.72661 17.7894 2.24133 17.7894H1V11.5479ZM1 19.7894V22.5308C1 23.0831 1.44772 23.5308 2 23.5308H4.74133V22.2894C4.74133 20.9087 3.62204 19.7894 2.24133 19.7894H1ZM23.2588 23.5308H26C26.5523 23.5308 27 23.0831 27 22.5308V19.7891H25.7588C24.3781 19.7891 23.2588 20.9083 23.2588 22.2891V23.5308ZM27 9.54788V6.80664C27 6.25436 26.5523 5.80664 26 5.80664H23.2588V7.04788C23.2588 8.42859 24.3781 9.54788 25.7588 9.54788H27ZM13.9999 12.772C12.9524 12.772 12.1033 13.6211 12.1033 14.6685C12.1033 15.716 12.9524 16.5651 13.9999 16.5651C15.0473 16.5651 15.8964 15.716 15.8964 14.6685C15.8964 13.6211 15.0473 12.772 13.9999 12.772ZM10.1033 14.6685C10.1033 12.5165 11.8479 10.772 13.9999 10.772C16.1519 10.772 17.8964 12.5165 17.8964 14.6685C17.8964 16.8205 16.1519 18.5651 13.9999 18.5651C11.8479 18.5651 10.1033 16.8205 10.1033 14.6685Z" stroke="none"></path></svg>