<svg width="48" height="48" viewBox="0 0 28 28" fill="#e6007a" xmlns="http://www.w3.org/2000/svg" stroke-width="2" stroke-linecap="round" stroke-linejoin="round" stroke="#e6007a"><path fill-rule="evenodd" clip-rule="evenodd" d="M15 2C15 1.44772 14.5523 1 14 1C13.4477 1 13 1.44772 13 2L13 5H11L11 2C11 1.44772 10.5523 1 10 1C9.44772 1 9 1.44772 9 2L9 5H6C5.44772 5 5 5.44772 5 6V22C5 22.5523 5.44772 23 6 23H13L13 26C13 26.5523 13.4477 27 14 27C14.5523 27 15 26.5523 15 26L15 23H22C22.5523 23 23 22.5523 23 22V6C23 5.44772 22.5523 5 22 5H19L19 2C19 1.44772 18.5523 1 18 1C17.4477 1 17 1.44772 17 2L17 5H15L15 2ZM14 8.82617C11.2386 8.82617 9 11.0647 9 13.8262V14.174C9 16.9354 11.2386 19.174 14 19.174C16.7614 19.174 19 16.9354 19 14.174V13.8262C19 11.0647 16.7614 8.82617 14 8.82617ZM11 13.8262C11 12.1693 12.3431 10.8262 14 10.8262C15.6569 10.8262 17 12.1693 17 13.8262V14.174C17 15.8309 15.6569 17.174 14 17.174C12.3431 17.174 11 15.8309 11 14.174V13.8262Z" stroke="none"></path></svg>