<svg width="48" height="48" viewBox="0 0 28 29" fill="#e6007a" xmlns="http://www.w3.org/2000/svg" stroke-width="2" stroke-linecap="round" stroke-linejoin="round" stroke="#e6007a"><path fill-rule="evenodd" clip-rule="evenodd" d="M15 3C15 2.44772 14.5523 2 14 2C13.4477 2 13 2.44772 13 3V5.08691L12.8786 5.08691L12.876 5.08692C11.4327 5.09066 10.0442 5.65005 9.01598 6.65115C7.98681 7.65317 7.40258 9.0169 7.40062 10.4454V10.5005C7.40258 11.9291 7.98681 13.2928 9.01598 14.2948C10.0442 15.2959 11.4327 15.8553 12.876 15.859L12.8786 15.859H15.8719L15.8758 15.859C16.3383 15.8572 16.7961 15.9443 17.2225 16.1146C17.6489 16.2848 18.0347 16.5346 18.3585 16.8482C18.6822 17.1617 18.9375 17.5327 19.1112 17.9393C19.2848 18.3457 19.3738 18.7805 19.3738 19.2189L19.3738 19.2216C19.375 19.6604 19.2871 20.0958 19.1143 20.503C18.9414 20.9102 18.6867 21.2821 18.3634 21.5965C18.04 21.9109 17.6543 22.1616 17.2279 22.3327C16.8014 22.5038 16.3434 22.5916 15.8805 22.5904L15.8779 22.5904H12.8786C11.6905 22.5904 10.8036 22.289 10.071 21.6406C9.40472 21.051 8.96936 20.2498 8.83383 19.3789C8.7489 18.8332 8.23767 18.4597 7.69195 18.5446C7.14623 18.6295 6.77269 19.1408 6.85762 19.6865C7.06456 21.0162 7.72915 22.2389 8.74549 23.1383C9.91722 24.1753 11.31 24.5904 12.8786 24.5904H13V26.6956C13 27.2479 13.4477 27.6956 14 27.6956C14.5523 27.6956 15 27.2479 15 26.6956V24.5904H15.8768C16.5951 24.5921 17.3072 24.4558 17.9726 24.1889C18.6386 23.9217 19.2454 23.5284 19.7576 23.0304C20.2699 22.5323 20.6774 21.9392 20.9553 21.2843C21.2331 20.6298 21.3756 19.9273 21.3738 19.2175C21.3736 18.5084 21.2295 17.8069 20.9504 17.1536C20.6711 16.4999 20.2626 15.9081 19.7498 15.4115C19.2371 14.9149 18.63 14.5231 17.9642 14.2572C17.2991 13.9916 16.5875 13.8565 15.8701 13.859H12.88C11.9484 13.8563 11.0612 13.4947 10.4112 12.8618C9.76195 12.2297 9.402 11.3794 9.40062 10.4985V10.4475C9.402 9.56659 9.76195 8.71623 10.4112 8.08414C11.0612 7.45124 11.9484 7.08964 12.88 7.08692H15.4004C16.3352 7.08692 17.5782 7.43837 18.2809 8.07743C18.6583 8.42059 18.9588 8.8322 19.1699 9.28547C19.4031 9.78612 19.9979 10.003 20.4986 9.76979C20.9992 9.53662 21.2161 8.94175 20.9829 8.4411C20.6607 7.74935 20.2021 7.12119 19.6265 6.59775C18.4478 5.52589 16.6649 5.08692 15.4004 5.08692L15 5.08692V3Z" stroke="none"></path></svg>