<svg width="48" height="48" viewBox="0 0 28 28" fill="#e6007a" xmlns="http://www.w3.org/2000/svg" stroke-width="2" stroke-linecap="round" stroke-linejoin="round" stroke="#e6007a"><path fill-rule="evenodd" clip-rule="evenodd" d="M1 4C1 3.44772 1.44772 3 2 3H26C26.5523 3 27 3.44772 27 4V15.8452L25.2493 16.6087C25.2336 16.6155 25.2181 16.6227 25.2029 16.6304C22.3474 18.0541 20.3269 18.2412 18.7344 17.9147C17.1036 17.5803 15.7797 16.686 14.3095 15.6232C14.217 15.5563 14.1237 15.4886 14.0297 15.4204C12.6784 14.4397 11.1675 13.3432 9.30841 12.7942C7.25965 12.1892 4.88238 12.2647 1.85525 13.5416C1.84488 13.546 1.83457 13.5505 1.82435 13.5552L1 13.9362V4ZM1 16.1395V24.7746C1 25.3269 1.44772 25.7746 2 25.7746H26C26.5523 25.7746 27 25.3269 27 24.7746V18.0271L26.072 18.4318C22.9387 19.9896 20.4662 20.3113 18.3327 19.8739C16.2322 19.4433 14.5933 18.2961 13.1378 17.2441L12.9231 17.0887C11.5096 16.0653 10.2599 15.1605 8.74199 14.7123C7.21089 14.2602 5.31542 14.2558 2.64788 15.3779L1 16.1395ZM19.4855 10.6709C19.2548 10.6709 19.0677 10.8579 19.0677 11.0886C19.0677 11.3194 19.2548 11.5064 19.4855 11.5064C19.7162 11.5064 19.9032 11.3194 19.9032 11.0886C19.9032 10.8579 19.7162 10.6709 19.4855 10.6709ZM17.0677 11.0886C17.0677 9.75336 18.1502 8.6709 19.4855 8.6709C20.8208 8.6709 21.9032 9.75336 21.9032 11.0886C21.9032 12.4239 20.8208 13.5064 19.4855 13.5064C18.1502 13.5064 17.0677 12.4239 17.0677 11.0886Z" stroke="none"></path></svg>