<svg width="48" height="48" viewBox="0 0 29 29" fill="#e6007a" xmlns="http://www.w3.org/2000/svg" stroke-width="2" stroke-linecap="round" stroke-linejoin="round" stroke="#e6007a"><path fill-rule="evenodd" clip-rule="evenodd" d="M14.7947 2.061C15.0167 1.9797 15.2603 1.97966 15.4823 2.0609L25.6301 5.77442C26.0243 5.91868 26.2865 6.29376 26.2865 6.71352V14.9665C26.2865 18.7049 24.3877 22.1875 21.2453 24.2127L15.616 27.8406C15.2862 28.0531 14.8626 28.0531 14.5328 27.8407L9.04314 24.3045C5.89959 22.2795 4 18.7963 4 15.057V6.71352C4 6.29387 4.26202 5.91886 4.65607 5.77452L14.7947 2.061ZM21.0107 12.2133C21.3639 11.7887 21.306 11.1582 20.8815 10.805C20.4569 10.4518 19.8264 10.5097 19.4732 10.9343L14.6649 16.7145L12.4114 14.2129C12.0418 13.8025 11.4095 13.7695 10.9991 14.1392C10.5888 14.5088 10.5558 15.1411 10.9254 15.5514L13.952 18.9114C14.1462 19.127 14.4246 19.2476 14.7147 19.2419C15.0048 19.2362 15.2782 19.1047 15.4638 18.8816L21.0107 12.2133Z" stroke="none"></path></svg>