<svg width="48" height="48" viewBox="0 0 28 28" fill="#e6007a" xmlns="http://www.w3.org/2000/svg" stroke-width="2" stroke-linecap="round" stroke-linejoin="round" stroke="#e6007a"><path fill-rule="evenodd" clip-rule="evenodd" d="M24.4615 2C24.4615 1.44772 24.0138 1 23.4615 1H5C4.44772 1 4 1.44772 4 2V26C4 26.5523 4.44772 27 5 27H23.4615C24.0138 27 24.4615 26.5523 24.4615 26V2ZM15.8409 7.44025C15.9847 7.59763 16.096 7.78181 16.1685 7.98229C16.2411 8.18276 16.2734 8.39563 16.2637 8.60874C16.254 8.82185 16.2024 9.03104 16.1118 9.22435C16.022 9.41581 15.8958 9.58797 15.7402 9.73116C15.4192 10.0151 14.9992 10.1608 14.5715 10.1368C14.1419 10.1126 13.7397 9.91906 13.453 9.59872L13.4531 9.59868L13.4462 9.59115C13.3024 9.43376 13.1911 9.24958 13.1186 9.04911C13.046 8.84863 13.0137 8.63577 13.0234 8.42266C13.0331 8.20954 13.0847 8.00036 13.1753 7.80705C13.2651 7.61552 13.3913 7.44332 13.547 7.30011C13.8679 7.01602 14.2879 6.87012 14.7156 6.89417C15.1452 6.91832 15.5473 7.11196 15.8338 7.43238L15.8338 7.43242L15.8409 7.44025ZM18.0492 7.30173C17.8878 6.85581 17.6405 6.44594 17.3212 6.09536C16.6814 5.38189 15.7848 4.95113 14.8278 4.89732C13.8691 4.84342 12.9281 5.17223 12.2115 5.81137L12.2114 5.81132L12.2027 5.81927C11.8512 6.14027 11.5663 6.52733 11.3643 6.95836C11.1623 7.38939 11.0472 7.85597 11.0255 8.33147C11.0038 8.80698 11.0759 9.28209 11.2379 9.72967C11.3993 10.1756 11.6467 10.5856 11.966 10.9362C12.4549 11.481 13.0936 11.8609 13.7945 12.0339L13.7877 15.497L11.2881 15.4921C10.7362 15.491 10.2878 15.9372 10.2861 16.4891L10.2752 20.128C10.2744 20.3935 10.3791 20.6483 10.5664 20.8365C10.7536 21.0246 11.008 21.1306 11.2735 21.131L13.7767 21.1352L13.7747 22.1385C13.7736 22.6908 14.2205 23.1394 14.7727 23.1405C15.325 23.1415 15.7736 22.6947 15.7747 22.1424L15.7947 11.9581C16.2632 11.8042 16.7 11.5547 17.0753 11.2203L17.0754 11.2203L17.0844 11.2121C17.4359 10.8911 17.7208 10.5041 17.9228 10.073C18.1248 9.64201 18.2399 9.17543 18.2616 8.69992C18.2833 8.22442 18.2112 7.74931 18.0492 7.30173ZM12.2831 17.494L13.7838 17.497L13.7806 19.1352L12.2782 19.1327L12.2831 17.494Z" stroke="none"></path></svg>