<svg width="48" height="48" viewBox="0 0 28 28" fill="#e6007a" xmlns="http://www.w3.org/2000/svg" stroke-width="2" stroke-linecap="round" stroke-linejoin="round" stroke="#e6007a"><path fill-rule="evenodd" clip-rule="evenodd" d="M14.4268 1C11.1074 1 8.05692 1.89528 5.80705 3.3952C3.56419 4.89044 2.02087 7.0659 2.02087 9.60396C2.02087 9.75818 2.02657 9.91105 2.03778 10.0625C2.02668 10.1222 2.02087 10.1837 2.02087 10.2466V14.3402C2.00719 14.4061 2 14.4744 2 14.5444V18.8711C2 21.4285 3.5652 23.4904 5.82067 24.8642C8.07423 26.2369 11.1155 26.9998 14.4059 26.9998C17.6964 26.9998 20.7377 26.2369 22.9912 24.8642C25.2467 23.4904 26.8119 21.4285 26.8119 18.8711V15.0527C26.8257 14.8857 26.8328 14.7163 26.8328 14.5447V10.2466C26.8328 10.1837 26.827 10.1222 26.8159 10.0625C26.8271 9.91106 26.8328 9.75818 26.8328 9.60396C26.8328 7.0659 25.2894 4.89044 23.0466 3.3952C20.7967 1.89528 17.7462 1 14.4268 1ZM5.82067 20.5376C8.00968 21.8709 10.9419 22.6289 14.1238 22.6713C14.2246 22.6727 14.3256 22.6734 14.4268 22.6734C17.7173 22.6734 20.7585 21.9105 23.0121 20.5379C23.6761 20.1334 24.2802 19.6693 24.8023 19.1506C24.6963 20.6831 23.7168 22.0805 21.9508 23.1561C20.0761 24.298 17.4144 24.9998 14.4059 24.9998C11.3975 24.9998 8.73575 24.298 6.86107 23.1561C5.08642 22.0752 4.10598 20.6694 4.00812 19.128C4.53523 19.6558 5.14717 20.1273 5.82067 20.5376ZM24.8328 14.3141V14.3412C24.8191 14.4071 24.8119 14.4754 24.8119 14.5454C24.8119 16.1872 23.8236 17.6894 21.9509 18.8299C20.0762 19.9716 17.4145 20.6731 14.4059 20.6731C14.3206 20.6731 14.2355 20.6726 14.1508 20.6715C11.2557 20.6299 8.69908 19.9366 6.88195 18.8298C5.00918 17.6891 4.02087 16.1866 4.02087 14.5447V14.3141C4.54036 14.8678 5.14304 15.3701 5.80705 15.8127C7.49445 16.9377 9.63222 17.7225 11.996 18.0446C12.0683 18.0545 12.1409 18.0639 12.2136 18.0729C12.9331 18.1618 13.6729 18.208 14.4268 18.208C15.1791 18.208 15.9173 18.162 16.6354 18.0734C16.7097 18.0643 16.7838 18.0547 16.8576 18.0446C19.2214 17.7225 21.3592 16.9377 23.0466 15.8127C23.7106 15.3701 24.3133 14.8678 24.8328 14.3141ZM10.8109 7.2776C10.8109 5.71337 12.0789 4.44531 13.6432 4.44531H15.1631C16.7273 4.44531 17.9954 5.71338 17.9954 7.27761L17.9954 7.5H19.1556C19.7079 7.5 20.1556 7.94772 20.1556 8.5V12.8204C20.1556 13.3727 19.7079 13.8204 19.1556 13.8204H9.6507C9.09841 13.8204 8.6507 13.3727 8.6507 12.8204V8.5C8.6507 7.94772 9.09841 7.5 9.6507 7.5H10.8109L10.8109 7.2776ZM15.9954 7.27761L15.9954 7.5H12.8109L12.8109 7.27761C12.8109 6.81795 13.1835 6.44531 13.6432 6.44531H15.1631C15.6227 6.44531 15.9954 6.81795 15.9954 7.27761ZM10.6507 9.5V11.8204H18.1556V9.5H10.6507Z" stroke="none"></path></svg>