<svg width="48" height="48" viewBox="0 0 28 28" fill="#e6007a" xmlns="http://www.w3.org/2000/svg" stroke-width="2" stroke-linecap="round" stroke-linejoin="round" stroke="#e6007a"><path fill-rule="evenodd" clip-rule="evenodd" d="M14.4268 1C11.1074 1 8.05692 1.89528 5.80705 3.3952C3.56419 4.89044 2.02087 7.0659 2.02087 9.60396C2.02087 9.75818 2.02657 9.91105 2.03778 10.0625C2.02668 10.1222 2.02087 10.1837 2.02087 10.2466V14.3402C2.00719 14.4061 2 14.4744 2 14.5444V18.8711C2 21.4285 3.5652 23.4904 5.82067 24.8642C8.07423 26.2369 11.1155 26.9998 14.4059 26.9998C17.6964 26.9998 20.7377 26.2369 22.9912 24.8642C25.2467 23.4904 26.8119 21.4285 26.8119 18.8711V15.0527C26.8257 14.8857 26.8328 14.7163 26.8328 14.5447V10.2466C26.8328 10.1837 26.827 10.1222 26.8159 10.0625C26.8271 9.91106 26.8328 9.75818 26.8328 9.60396C26.8328 7.0659 25.2894 4.89044 23.0466 3.3952C20.7967 1.89528 17.7462 1 14.4268 1ZM5.82067 20.5376C8.00968 21.8709 10.9419 22.6289 14.1238 22.6713C14.2246 22.6727 14.3256 22.6734 14.4268 22.6734C17.7173 22.6734 20.7585 21.9105 23.0121 20.5379C23.6761 20.1334 24.2802 19.6693 24.8023 19.1506C24.6963 20.6831 23.7168 22.0805 21.9508 23.1561C20.0761 24.298 17.4144 24.9998 14.4059 24.9998C11.3975 24.9998 8.73575 24.298 6.86107 23.1561C5.08642 22.0752 4.10598 20.6694 4.00812 19.128C4.53523 19.6558 5.14717 20.1273 5.82067 20.5376ZM24.8328 14.3141V14.3412C24.8191 14.4071 24.8119 14.4754 24.8119 14.5454C24.8119 16.1872 23.8236 17.6894 21.9509 18.8299C20.0762 19.9716 17.4145 20.6731 14.4059 20.6731C14.3206 20.6731 14.2355 20.6726 14.1508 20.6715C11.2557 20.6299 8.69908 19.9366 6.88195 18.8298C5.00918 17.6891 4.02087 16.1866 4.02087 14.5447V14.3141C4.54036 14.8678 5.14304 15.3701 5.80705 15.8127C7.49445 16.9377 9.63222 17.7225 11.996 18.0446C12.0683 18.0545 12.1409 18.0639 12.2136 18.0729C12.9331 18.1618 13.6729 18.208 14.4268 18.208C15.1791 18.208 15.9173 18.162 16.6354 18.0734C16.7097 18.0643 16.7838 18.0547 16.8576 18.0446C19.2214 17.7225 21.3592 16.9377 23.0466 15.8127C23.7106 15.3701 24.3133 14.8678 24.8328 14.3141ZM12.639 5.83973C12.8636 5.50425 13.2679 5.33673 13.6639 5.41503L16.7304 6.02125C16.8446 6.04384 16.954 6.0862 17.0537 6.14644L19.6729 7.72946C19.9736 7.91124 20.1569 8.23755 20.1556 8.58898C20.1543 8.9404 19.9686 9.26536 19.6665 9.44491L18.5523 10.1071C18.2326 10.2972 17.8338 10.2941 17.5171 10.099L16.4185 9.4226L11.156 12.931C10.6965 13.2374 10.0756 13.1132 9.76926 12.6537C9.4629 12.1941 9.58707 11.5733 10.0466 11.2669L14.5442 8.26847L12.9283 7.27347C12.6969 7.13096 12.5334 6.90036 12.4756 6.63478C12.4177 6.3692 12.4705 6.09151 12.6217 5.86564L12.639 5.83973Z" stroke="none"></path></svg>