<svg width="48" height="48" viewBox="0 0 28 28" fill="#e6007a" xmlns="http://www.w3.org/2000/svg" stroke-width="2" stroke-linecap="round" stroke-linejoin="round" stroke="#e6007a"><path fill-rule="evenodd" clip-rule="evenodd" d="M24.4615 2C24.4615 1.44772 24.0138 1 23.4615 1H5.00001C4.44773 1 4.00001 1.44772 4.00001 2V26C4.00001 26.5523 4.44773 27 5.00001 27H23.4615C24.0138 27 24.4615 26.5523 24.4615 26V2ZM8.6922 6.69189C8.13991 6.69189 7.6922 6.24418 7.6922 5.69189C7.6922 5.13961 8.13991 4.69189 8.6922 4.69189H19.7691C20.3214 4.69189 20.7691 5.13961 20.7691 5.69189C20.7691 6.24418 20.3214 6.69189 19.7691 6.69189H8.6922ZM8.6922 8.38428C8.13991 8.38428 7.6922 8.83199 7.6922 9.38428C7.6922 9.93656 8.13991 10.3843 8.6922 10.3843H19.7692C20.3215 10.3843 20.7692 9.93656 20.7692 9.38428C20.7692 8.83199 20.3215 8.38428 19.7692 8.38428H8.6922ZM20.4764 17.1718C20.8669 17.5623 20.8669 18.1955 20.4764 18.586L16.9707 22.0917C16.5802 22.4822 15.947 22.4822 15.5565 22.0917L14.1024 20.6376C13.7119 20.247 13.7119 19.6139 14.1024 19.2234C14.4929 18.8328 15.1261 18.8328 15.5166 19.2234L16.2636 19.9703L19.0622 17.1718C19.4527 16.7813 20.0859 16.7813 20.4764 17.1718Z" stroke="none"></path></svg>