<svg width="48" height="48" viewBox="0 0 28 28" fill="#e6007a" xmlns="http://www.w3.org/2000/svg" stroke-width="2" stroke-linecap="round" stroke-linejoin="round" stroke="#e6007a"><path fill-rule="evenodd" clip-rule="evenodd" d="M16.4215 1.98677C15.0812 0.660645 12.9231 0.66067 11.5828 1.98678C10.3437 3.21278 10.2174 5.17187 11.289 6.54672L11.3644 6.64345L11.3005 6.66178C9.19066 7.26624 7.73661 9.19536 7.73661 11.3901V13.146C7.73661 13.6983 8.18433 14.146 8.73661 14.146H12.9999L12.9999 16.27H4.77592C4.5107 16.27 4.25635 16.3754 4.06881 16.5629C3.88127 16.7505 3.77592 17.0048 3.77592 17.27V19.6011C2.17585 20.0393 1 21.5038 1 23.2429C1 25.3282 2.69041 27.0186 4.77564 27.0186C6.86087 27.0186 8.55129 25.3282 8.55129 23.2429C8.55129 21.504 7.3757 20.0396 5.77592 19.6012V18.27L21.8386 18.27V19.7295C20.439 20.282 19.4487 21.6467 19.4487 23.2427C19.4487 25.3279 21.1391 27.0184 23.2244 27.0184C25.3096 27.0184 27 25.3279 27 23.2427C27 21.3666 25.6317 19.8102 23.8386 19.5168V17.27C23.8386 16.7177 23.3909 16.27 22.8386 16.27H14.9999L14.9999 14.146H19.2634C19.8157 14.146 20.2634 13.6983 20.2634 13.146V11.3871C20.2634 9.19399 18.8106 7.26617 16.7024 6.66174L16.6395 6.64371L16.7151 6.54673C17.7868 5.1719 17.6606 3.21279 16.4215 1.98677Z" stroke="none"></path></svg>