<svg width="48" height="48" viewBox="0 0 28 28" fill="#e6007a" xmlns="http://www.w3.org/2000/svg" stroke-width="2" stroke-linecap="round" stroke-linejoin="round" stroke="#e6007a"><path fill-rule="evenodd" clip-rule="evenodd" d="M24.4615 2C24.4615 1.44772 24.0138 1 23.4615 1H5.00001C4.44773 1 4.00001 1.44772 4.00001 2V26C4.00001 26.5523 4.44773 27 5.00001 27H23.4615C24.0138 27 24.4615 26.5523 24.4615 26V2ZM13.1377 9.28814C13.6976 8.73598 14.5972 8.73598 15.1572 9.28814C15.6922 9.81577 15.7308 10.6664 15.2458 11.2403L14.7951 11.7736C14.0224 12.688 14.4593 14.0954 15.614 14.4115L16.2769 14.5929C17.5979 14.9545 18.514 16.155 18.514 17.5246V18.226H9.78522V17.5216C9.78522 16.1534 10.7001 14.9542 12.0196 14.5928L12.6812 14.4115C13.8357 14.0953 14.2724 12.688 13.4998 11.7738L13.049 11.2403C12.564 10.6664 12.6026 9.81577 13.1377 9.28814ZM16.5614 7.86408C15.2228 6.54401 13.072 6.54401 11.7334 7.86408C10.4542 9.12549 10.3619 11.1591 11.5214 12.5312L11.6067 12.6322L11.4913 12.6638C9.30267 13.2633 7.78522 15.2523 7.78522 17.5216V19.226C7.78522 19.7783 8.23293 20.226 8.78522 20.226H19.514C20.0662 20.226 20.514 19.7783 20.514 19.226V17.5246C20.514 15.2538 18.9952 13.2634 16.8049 12.6639L16.6883 12.632L16.7734 12.5312C17.933 11.1591 17.8406 9.12549 16.5614 7.86408Z" stroke="none"></path></svg>