<svg width="48" height="48" viewBox="0 0 28 28" fill="#e6007a" xmlns="http://www.w3.org/2000/svg" stroke-width="2" stroke-linecap="round" stroke-linejoin="round" stroke="#e6007a"><path fill-rule="evenodd" clip-rule="evenodd" d="M22.0545 20L25.5 20C26.0523 20 26.5 20.4477 26.5 21C26.5 21.5523 26.0523 22 25.5 22L22.0545 22C18.9344 22 16.0369 20.384 14.3973 17.7295L10.4394 11.3215C9.16416 9.25686 6.91056 8 4.48384 8L1.25914 8C0.706859 8 0.259143 7.55228 0.259143 7C0.259143 6.44771 0.706859 6 1.25914 6L4.48384 6C7.60391 6 10.5014 7.61596 12.141 10.2705L16.0989 16.6785C17.3742 18.7431 19.6278 20 22.0545 20Z" stroke="none"></path><path fill-rule="evenodd" clip-rule="evenodd" d="M21.704 25.7211C21.3057 25.3385 21.293 24.7054 21.6757 24.3072L24.8532 20.9998L21.6757 17.6928C21.2931 17.2946 21.3057 16.6616 21.7039 16.2789C22.1022 15.8963 22.7352 15.9089 23.1179 16.3071L26.9611 20.3069C27.3329 20.694 27.333 21.3056 26.9611 21.6926L23.1179 25.6928C22.7353 26.0911 22.1022 26.1037 21.704 25.7211Z" stroke="none"></path><path fill-rule="evenodd" clip-rule="evenodd" d="M22.0545 8L25.5 8C26.0523 8 26.5 7.55229 26.5 7C26.5 6.44772 26.0523 6 25.5 6L22.0545 6C18.9344 6 16.0369 7.61597 14.3973 10.2705L10.4394 16.6785C9.16416 18.7431 6.91056 20 4.48384 20L1.25914 20C0.706859 20 0.259143 20.4477 0.259143 21C0.259143 21.5523 0.706859 22 1.25914 22L4.48384 22C7.60391 22 10.5014 20.384 12.141 17.7295L16.0989 11.3215C17.3742 9.25686 19.6278 8 22.0545 8Z" stroke="none"></path><path fill-rule="evenodd" clip-rule="evenodd" d="M21.704 2.27889C21.3057 2.66152 21.293 3.29455 21.6757 3.69282L24.8532 7.00017L21.6757 10.3072C21.2931 10.7054 21.3057 11.3384 21.7039 11.7211C22.1022 12.1037 22.7352 12.0911 23.1179 11.6929L26.9611 7.69305C27.3329 7.30602 27.333 6.69444 26.9611 6.30739L23.1179 2.30719C22.7353 1.90893 22.1022 1.89625 21.704 2.27889Z" stroke="none"></path></svg>