<svg width="48" height="48" viewBox="0 0 28 29" fill="#e6007a" xmlns="http://www.w3.org/2000/svg" stroke-width="2" stroke-linecap="round" stroke-linejoin="round" stroke="#e6007a"><path fill-rule="evenodd" clip-rule="evenodd" d="M4 2H13.4999V8.6538C13.4999 9.20609 13.9476 9.6538 14.4999 9.6538H21.1537V15.5646C23.4207 16.5797 25 18.8554 25 21.5C25 25.0899 22.0899 28 18.5 28C16.1988 28 14.1769 26.8042 13.0218 25L3.99998 24.9998C3.4477 24.9998 3 24.5521 3 23.9998V3C3 2.44772 3.44772 2 4 2ZM15.4999 2.58579L20.5679 7.6538H15.4999V2.58579ZM6.13043 15.9619C6.13043 16.5142 6.57815 16.9619 7.13043 16.9619H16C16.5523 16.9619 17 16.5142 17 15.9619C17 15.4096 16.5523 14.9619 16 14.9619H7.13043C6.57815 14.9619 6.13043 15.4096 6.13043 15.9619ZM6.13043 19.1895C6.13043 18.6372 6.57815 18.1895 7.13043 18.1895H12.7499C13.3022 18.1895 13.7499 18.6372 13.7499 19.1895C13.7499 19.7417 13.3022 20.1895 12.7499 20.1895H7.13043C6.57815 20.1895 6.13043 19.7417 6.13043 19.1895ZM14.7736 24.0236C15.583 25.2163 16.95 26 18.5 26C20.9853 26 23 23.9853 23 21.5C23 19.6329 21.863 18.0315 20.2436 17.3502C19.7073 17.1247 19.1182 17 18.5 17C16.0147 17 14 19.0147 14 21.5C14 22.4353 14.2853 23.3039 14.7736 24.0236ZM17.4153 19.1431C17.4153 18.5908 17.863 18.1431 18.4153 18.1431C18.9676 18.1431 19.4153 18.5908 19.4153 19.1431V21.5145C19.4153 21.7465 19.3346 21.9714 19.187 22.1504L18.2569 23.279C17.9056 23.7052 17.2754 23.766 16.8492 23.4147C16.423 23.0635 16.3622 22.4333 16.7135 22.007L17.4153 21.1555V19.1431Z" stroke="none"></path></svg>