<svg width="48" height="48" viewBox="0 0 28 28" fill="#e6007a" xmlns="http://www.w3.org/2000/svg" stroke-width="2" stroke-linecap="round" stroke-linejoin="round" stroke="#e6007a"><path fill-rule="evenodd" clip-rule="evenodd" d="M15.2025 6C11.0596 6 7.6294 9.01656 6.99589 12.9588L8.15774 11.7653C8.54299 11.3696 9.1761 11.3611 9.57183 11.7464C9.96756 12.1316 9.97606 12.7647 9.59081 13.1604L6.6931 16.137C6.30785 16.5327 5.67474 16.5412 5.27901 16.156L2.30245 13.2583C1.90672 12.873 1.89822 12.2399 2.28347 11.8442C2.66871 11.4485 3.30182 11.44 3.69755 11.8252L4.96291 13.057C5.56807 7.95358 9.92471 4 15.2025 4C20.8938 4 25.5139 8.5973 25.5139 14.2763C25.5139 19.9553 20.8938 24.5526 15.2025 24.5526C11.8036 24.5526 8.78779 22.9126 6.91051 20.3857C6.58115 19.9424 6.67354 19.316 7.11686 18.9866C7.56019 18.6573 8.18658 18.7496 8.51594 19.193C10.031 21.2323 12.4613 22.5526 15.2025 22.5526C19.7963 22.5526 23.5139 18.8436 23.5139 14.2763C23.5139 9.70898 19.7963 6 15.2025 6ZM14.8432 10.1934C14.8432 9.64107 15.2909 9.19336 15.8432 9.19336C16.3955 9.19336 16.8432 9.64107 16.8432 10.1934V16.1934C16.8432 16.4256 16.7623 16.6507 16.6145 16.8298L13.7713 20.2752C13.4197 20.7012 12.7895 20.7616 12.3635 20.41C11.9375 20.0585 11.8772 19.4282 12.2287 19.0023L14.8432 15.834V10.1934Z" stroke="none"></path></svg>