<svg width="48" height="48" viewBox="0 0 28 29" fill="#e6007a" xmlns="http://www.w3.org/2000/svg" stroke-width="2" stroke-linecap="round" stroke-linejoin="round" stroke="#e6007a"><path d="M14 2.37497C14.8573 2.37497 15.6936 2.46487 16.5 2.63576M14 26.375C14.8573 26.375 15.6936 26.2851 16.5 26.1142M20.8199 4.5C21.9947 5.31288 23.0174 6.32999 23.8366 7.5M25.765 12C25.9191 12.7677 26 13.5619 26 14.375C26 15.188 25.9191 15.9822 25.765 16.7499M20.8199 24.2499C21.9947 23.4371 23.0174 22.4199 23.8366 21.2499" fill="none"></path><path d="M14 2.37494C7.37258 2.37494 2 7.74752 2 14.3749C2 21.0024 7.37258 26.3749 14 26.3749" fill="none"></path><path d="M17 15.1404L14.0013 18.1404L11 15.1413" fill="none"></path><path d="M13.9999 17L13.9999 10" fill="none"></path></svg>