<svg width="48" height="48" viewBox="0 0 28 28" fill="#e6007a" xmlns="http://www.w3.org/2000/svg" stroke-width="2" stroke-linecap="round" stroke-linejoin="round" stroke="#e6007a"><path fill-rule="evenodd" clip-rule="evenodd" d="M15.0813 1.29289C15.4718 0.902369 16.105 0.902369 16.4955 1.29289L24.7005 9.49781C24.888 9.68535 24.9933 9.9397 24.9933 10.2049C24.9933 10.4701 24.888 10.7245 24.7005 10.912L17.2219 18.3906H26C26.5523 18.3906 27 18.8383 27 19.3906V25.5212C27 26.0735 26.5523 26.5212 26 26.5212C25.4477 26.5212 25 26.0735 25 25.5212V20.3906H14.8737C14.851 20.3922 14.8282 20.393 14.8053 20.393H10.5202C10.4973 20.393 10.4745 20.3922 10.4518 20.3906H3V25.5212C3 26.0735 2.55228 26.5212 2 26.5212C1.44772 26.5212 1 26.0735 1 25.5212V19.3906C1 18.8383 1.44772 18.3906 2 18.3906H8.10363L3.75072 14.0377C3.56318 13.8502 3.45782 13.5958 3.45782 13.3306C3.45782 13.0654 3.56318 12.811 3.75072 12.6235L15.0813 1.29289Z" stroke="none"></path></svg>