<svg width="48" height="48" viewBox="0 0 29 29" fill="#e6007a" xmlns="http://www.w3.org/2000/svg" stroke-width="2" stroke-linecap="round" stroke-linejoin="round" stroke="#e6007a"><g><path fill-rule="evenodd" clip-rule="evenodd" d="M24.3318 5.56919L24.5878 2.68303C24.6366 2.1329 25.1221 1.72649 25.6722 1.77528C26.2223 1.82406 26.6288 2.30958 26.58 2.8597L26.1053 8.21254C26.0565 8.76266 25.571 9.16908 25.0208 9.12029L19.668 8.64558C19.1179 8.59679 18.7115 8.11127 18.7602 7.56115C18.809 7.01102 19.2945 6.60461 19.8447 6.65339L22.8543 6.9203C18.8218 2.92134 12.3086 2.64075 7.90662 6.42722C3.27922 10.4075 2.74675 17.3664 6.7061 21.9694C10.6654 26.5724 17.6257 27.0862 22.2531 23.1059C25.0147 20.7305 26.3188 17.2939 26.078 13.9268C26.0386 13.3759 26.4532 12.8974 27.0041 12.858C27.555 12.8186 28.0335 13.2333 28.0729 13.7841C28.3571 17.757 26.8175 21.8179 23.5573 24.6222C18.0979 29.3181 9.87414 28.7194 5.18985 23.2736C0.505564 17.8278 1.143 9.60696 6.60239 4.91097C11.8217 0.421499 19.5676 0.7713 24.3318 5.56919Z" stroke="none"></path></g></svg>