<svg width="48" height="48" viewBox="0 0 28 28" fill="#e6007a" xmlns="http://www.w3.org/2000/svg" stroke-width="2" stroke-linecap="round" stroke-linejoin="round" stroke="#e6007a"><path fill-rule="evenodd" clip-rule="evenodd" d="M3 2C3 1.44772 3.44772 1 4 1H24C24.5523 1 25 1.44772 25 2V26C25 26.5523 24.5523 27 24 27H4C3.44772 27 3 26.5523 3 26V2ZM19.5184 9.23926C20.0706 9.23926 20.5184 8.79154 20.5184 8.23926C20.5184 7.68697 20.0707 7.23926 19.5184 7.23926H11.9806C11.4283 7.23926 10.9806 7.68697 10.9806 8.23926C10.9806 8.79154 11.4283 9.23926 11.9806 9.23926H19.5184ZM8.4925 9.23926C9.04478 9.23926 9.4925 8.79155 9.4925 8.23926C9.4925 7.68698 9.04478 7.23926 8.4925 7.23926H8.4817C7.92942 7.23926 7.4817 7.68698 7.4817 8.23926C7.4817 8.79155 7.92942 9.23926 8.4817 9.23926H8.4925ZM17.7071 18.7071C18.0976 18.3166 18.0976 17.6834 17.7071 17.2929C17.3166 16.9024 16.6834 16.9024 16.2929 17.2929L13 20.5858L11.7071 19.2929C11.3166 18.9024 10.6834 18.9024 10.2929 19.2929C9.90237 19.6834 9.90237 20.3166 10.2929 20.7071L12.2929 22.7071C12.6834 23.0976 13.3166 23.0976 13.7071 22.7071L17.7071 18.7071ZM20.5184 12.2612C20.5184 12.8135 20.0706 13.2612 19.5184 13.2612H11.9806C11.4283 13.2612 10.9806 12.8135 10.9806 12.2612C10.9806 11.7089 11.4283 11.2612 11.9806 11.2612H19.5184C20.0707 11.2612 20.5184 11.7089 20.5184 12.2612ZM9.4925 12.2612C9.4925 12.8135 9.04478 13.2612 8.4925 13.2612H8.4817C7.92942 13.2612 7.4817 12.8135 7.4817 12.2612C7.4817 11.7089 7.92942 11.2612 8.4817 11.2612H8.4925C9.04478 11.2612 9.4925 11.7089 9.4925 12.2612Z" stroke="none"></path></svg>