<svg width="48" height="48" viewBox="0 0 28 28" fill="#e6007a" xmlns="http://www.w3.org/2000/svg" stroke-width="2" stroke-linecap="round" stroke-linejoin="round" stroke="#e6007a"><path fill-rule="evenodd" clip-rule="evenodd" d="M7.57003 1H18.5321V1.5V8.46143C18.5321 9.01372 18.9798 9.46143 19.5321 9.46143H26.5H26.9718V26C26.9718 26.5523 26.5241 27 25.9718 27H16.075C16.0192 27 15.9646 26.9954 15.9113 26.9867H2C1.44772 26.9867 1 26.539 1 25.9867V22.0691C1 21.722 1.17999 21.3997 1.47552 21.2177L5.70433 18.6127L5.70452 18.6126C5.99215 18.4352 6.12206 18.0808 6.0162 17.7572L7.86568 16.9883L7.88851 17.0531C7.89151 17.061 7.89443 17.0689 7.89725 17.0769C8.32459 18.2904 7.84926 19.6401 6.75368 20.3153L6.75349 20.3154L5.78326 20.9131H12.2831L11.3125 20.3158C11.1016 20.1858 10.9137 20.0309 10.7508 19.8567C10.0672 19.1259 9.82326 18.057 10.1684 17.0771L10.1684 17.0769L10.1684 17.0769L10.6 15.8516L7.86568 16.9883L7.86566 16.9883L10.6 15.8515L11.1977 14.1544C11.4727 13.3742 11.311 12.5068 10.7744 11.8797C10.0718 11.0582 8.93182 10.8709 8.01665 11.3253C7.97926 11.3439 7.941 11.3599 7.9021 11.3736C7.67737 11.5011 7.46977 11.6698 7.29031 11.8795C6.75438 12.5059 6.59201 13.3741 6.86691 14.1541L6.86693 14.1541L7.86566 16.9883L6.0162 17.7572L6.01088 17.7424L4.98064 14.8189L4.98063 14.8189C4.46855 13.3659 4.77012 11.7487 5.77063 10.5793L5.77067 10.5792C6.01232 10.2968 6.28135 10.0542 6.57003 9.85142V2C6.57003 1.44772 7.01775 1 7.57003 1ZM20.5321 1.58682L26.387 7.46143H20.5321V1.58682ZM3 24.9867V22.9131H15.0713V24.9867H3Z" stroke="none"></path></svg>