<svg width="48" height="48" viewBox="0 0 28 28" fill="#e6007a" xmlns="http://www.w3.org/2000/svg" stroke-width="2" stroke-linecap="round" stroke-linejoin="round" stroke="#e6007a"><path fill-rule="evenodd" clip-rule="evenodd" d="M14 1C6.8203 1 1 6.8203 1 14C1 21.1797 6.82029 27 14 27C21.1797 27 27 21.1797 27 14C27 6.82029 21.1797 1 14 1ZM14.698 5.29309C14.3076 4.90246 13.6744 4.90228 13.2838 5.2927C12.8931 5.68311 12.893 6.31628 13.2834 6.70691L13.3005 6.72402C13.6909 7.11465 14.3241 7.11483 14.7147 6.72441C15.1053 6.334 15.1055 5.70083 14.7151 5.3102L14.698 5.29309ZM14.6978 21.2758C14.3072 20.8853 13.6741 20.8853 13.2836 21.2758C12.8931 21.6664 12.8931 22.2995 13.2836 22.69L13.3007 22.7071C13.6912 23.0976 14.3244 23.0976 14.7149 22.7071C15.1054 22.3166 15.1054 21.6834 14.7149 21.2929L14.6978 21.2758ZM22.7076 13.2846C23.0981 13.6751 23.0981 14.3083 22.7076 14.6988L22.6905 14.7159C22.3 15.1064 21.6668 15.1064 21.2763 14.7159C20.8858 14.3254 20.8858 13.6922 21.2763 13.3017L21.2934 13.2846C21.6839 12.8941 22.317 12.8941 22.7076 13.2846ZM6.72402 14.699C7.11465 14.3086 7.11483 13.6754 6.72441 13.2848C6.334 12.8942 5.70083 12.894 5.3102 13.2844L5.29309 13.3015C4.90246 13.6919 4.90228 14.3251 5.2927 14.7157C5.68311 15.1063 6.31628 15.1065 6.70691 14.7161L6.72402 14.699ZM19.6507 7.33691C20.203 7.33691 20.6507 7.78463 20.6507 8.33691V8.36254C20.6507 8.91483 20.203 9.36254 19.6507 9.36254C19.0984 9.36254 18.6507 8.91483 18.6507 8.36254V8.33691C18.6507 7.78463 19.0984 7.33691 19.6507 7.33691ZM9.34877 19.6387C9.34877 19.0864 8.90105 18.6387 8.34877 18.6387C7.79649 18.6387 7.34877 19.0864 7.34877 19.6387V19.6643C7.34877 20.2166 7.79649 20.6643 8.34877 20.6643C8.90105 20.6643 9.34877 20.2166 9.34877 19.6643V19.6387ZM18.6379 19.6514C18.6379 19.0991 19.0856 18.6514 19.6379 18.6514H19.6636C20.2159 18.6514 20.6636 19.0991 20.6636 19.6514C20.6636 20.2037 20.2159 20.6514 19.6636 20.6514H19.6379C19.0856 20.6514 18.6379 20.2037 18.6379 19.6514ZM8.33597 7.34961C7.78368 7.34961 7.33597 7.79732 7.33597 8.34961C7.33597 8.90189 7.78368 9.34961 8.33597 9.34961H8.3616C8.91388 9.34961 9.3616 8.90189 9.3616 8.34961C9.3616 7.79732 8.91388 7.34961 8.3616 7.34961H8.33597ZM14 11C12.3432 11 11 12.3432 11 14C11 15.6568 12.3432 17 14 17C15.6568 17 17 15.6568 17 14C17 12.3432 15.6568 11 14 11Z" stroke="none"></path></svg>