<svg width="48" height="48" viewBox="0 0 28 28" fill="#e6007a" xmlns="http://www.w3.org/2000/svg" stroke-width="2" stroke-linecap="round" stroke-linejoin="round" stroke="#e6007a"><path fill-rule="evenodd" clip-rule="evenodd" d="M8.24641 4.63328C10.4727 2.40284 14.0866 2.40284 16.313 4.63328C18.3923 6.71646 18.543 10.0404 16.6608 12.3033L15.7515 13.3965C15.6347 13.5369 15.7016 13.751 15.8775 13.7999L17.1067 14.142C20.9087 15.2001 23.5393 18.6627 23.5393 22.6092V25.9916C23.5393 26.5439 23.0916 26.9916 22.5393 26.9916H2.01172C1.45943 26.9916 1.01172 26.5439 1.01172 25.9916V22.6151C1.01172 18.6655 3.64473 15.2003 7.44991 14.1421L8.68162 13.7996C8.85753 13.7507 8.92443 13.5366 8.80767 13.3962L7.89855 12.3033C6.01633 10.0404 6.16708 6.71645 8.24641 4.63328ZM19.0029 5.00293C19.0029 4.45065 19.4506 4.00293 20.0029 4.00293L26.0029 4.00293C26.5552 4.00293 27.0029 4.45064 27.0029 5.00293C27.0029 5.55521 26.5552 6.00293 26.0029 6.00293L20.0029 6.00293C19.4506 6.00293 19.0029 5.55521 19.0029 5.00293Z" stroke="none"></path></svg>