<svg width="48" height="48" viewBox="0 0 28 28" fill="#e6007a" xmlns="http://www.w3.org/2000/svg" stroke-width="2" stroke-linecap="round" stroke-linejoin="round" stroke="#e6007a"><path fill-rule="evenodd" clip-rule="evenodd" d="M4 1C3.44772 1 3 1.44772 3 2V17.0016L7.86893 11.8937C8.23213 11.5126 8.82855 11.4784 9.23295 11.8154L11.6034 13.7908L15.5656 9.82854C15.9561 9.43801 16.5893 9.43801 16.9798 9.82854C17.3703 10.2191 17.3703 10.8522 16.9798 11.2428L12.3718 15.8507C12.0061 16.2164 11.4219 16.2429 11.0245 15.9118L8.67119 13.9507L3 19.9003V21.9994C3 22.5517 3.44772 22.9994 4 22.9994H6.99963V25.9998C6.99963 26.5521 7.44735 26.9998 7.99963 26.9998H23.9993C24.5516 26.9998 24.9993 26.5521 24.9993 25.9998V5.99951C24.9993 5.44723 24.5516 4.99951 23.9993 4.99951H20.9997V2C20.9997 1.44772 20.552 1 19.9997 1H4ZM8.99963 24.9998V22.9994H19.9997C20.552 22.9994 20.9997 22.5517 20.9997 21.9994V6.99951H22.9993V24.9998H8.99963Z" stroke="none"></path></svg>