<svg width="48" height="48" viewBox="0 0 28 29" fill="#e6007a" xmlns="http://www.w3.org/2000/svg" stroke-width="2" stroke-linecap="round" stroke-linejoin="round" stroke="#e6007a"><path fill-rule="evenodd" clip-rule="evenodd" d="M8.25345 7.10156C8.60427 7.10112 8.92966 7.28454 9.11091 7.5849L11.0468 10.793L11.7477 10.9445L13.1364 8.63004C13.3169 8.32922 13.6418 8.14498 13.9926 8.14453C14.3434 8.14409 14.6688 8.32751 14.85 8.62787L16.2522 10.9514L16.9502 10.7963L18.8757 7.58714C19.0562 7.28632 19.3812 7.10208 19.732 7.10163C20.0828 7.10119 20.4082 7.28461 20.5894 7.58497L22.5253 10.7931L26.2116 11.5901C26.5588 11.6652 26.8401 11.9188 26.9506 12.2563C27.0611 12.5939 26.9843 12.9647 26.7488 13.2306L24.2612 16.0388L24.6148 19.7514C24.6482 20.102 24.4946 20.4444 24.2105 20.6527C23.9264 20.861 23.5536 20.9044 23.2293 20.767L19.7477 19.2923L18.7721 19.7099L18.8754 20.7943C18.9088 21.1449 18.7552 21.4873 18.4711 21.6956C18.187 21.9038 17.8143 21.9473 17.4899 21.8099L14.0083 20.3352L10.5384 21.8207C10.2144 21.9594 9.84131 21.9173 9.55635 21.7099C9.2714 21.5025 9.11666 21.1605 9.14904 20.8095L9.25067 19.7079L8.26915 19.2922L4.79924 20.7777C4.47525 20.9164 4.10217 20.8744 3.81722 20.667C3.53227 20.4596 3.37752 20.1175 3.4099 19.7666L3.75235 16.0549L1.25424 13.2583C1.0178 12.9936 0.939366 12.6234 1.04815 12.2856C1.15693 11.9478 1.43663 11.6929 1.78309 11.6159L5.47173 10.7962L7.39723 7.58707C7.57772 7.28625 7.90264 7.10201 8.25345 7.10156ZM9.44353 17.6176L9.49148 17.0978L6.99337 14.3013C6.75693 14.0366 6.6785 13.6664 6.78728 13.3286C6.89607 12.9908 7.17576 12.7359 7.52222 12.6589L9.56324 12.2053C9.56129 12.2022 9.55937 12.199 9.55745 12.1959L8.25717 10.0411L6.96563 12.1937C6.82448 12.4289 6.59288 12.5959 6.32507 12.6554L3.88232 13.1982L5.53389 15.0471C5.71883 15.2541 5.80938 15.5287 5.78388 15.8052L5.55571 18.2783L7.87349 17.286C8.12361 17.1789 8.40655 17.1784 8.65708 17.2845L9.44353 17.6176ZM18.5731 17.6196L19.352 17.2861C19.6021 17.179 19.8851 17.1785 20.1356 17.2846L22.4648 18.2711L22.229 15.7958C22.2027 15.5199 22.2922 15.2454 22.476 15.038L24.1185 13.1837L21.6808 12.6567C21.4116 12.5985 21.1783 12.4318 21.036 12.1959L19.7357 10.0412L18.4441 12.1938C18.444 12.194 18.4439 12.1942 18.4438 12.1944L20.4722 12.633C20.8194 12.7081 21.1007 12.9617 21.2112 13.2992C21.3218 13.6368 21.245 14.0076 21.0094 14.2735L18.5218 17.0817L18.5731 17.6196Z" stroke="none"></path></svg>