<svg width="48" height="48" viewBox="0 0 28 28" fill="#e6007a" xmlns="http://www.w3.org/2000/svg" stroke-width="2" stroke-linecap="round" stroke-linejoin="round" stroke="#e6007a"><path fill-rule="evenodd" clip-rule="evenodd" d="M2.00051 1C1.44822 1 1.00051 1.44772 1.00051 2L1.00026 16.5868C1.00025 16.852 1.10561 17.1063 1.29314 17.2939C1.48068 17.4814 1.73504 17.5868 2.00026 17.5868L8.00014 17.5868C8.55242 17.5868 9.00014 17.1391 9.00014 16.5868L9.00014 9.03591L25.9999 9.03592C26.5522 9.03592 26.9999 8.5882 26.9999 8.03592L26.9999 2C26.9999 1.44772 26.5522 1 25.9999 1L2.00051 1ZM25.9993 27.0002C26.5516 27.0002 26.9993 26.5525 26.9993 26.0002L26.9996 11.4135C26.9996 11.1483 26.8942 10.8939 26.7067 10.7064C26.5191 10.5188 26.2648 10.4135 25.9996 10.4135H19.9997C19.4474 10.4135 18.9997 10.8612 18.9997 11.4135L18.9997 18.9643L1.99988 18.9643C1.44759 18.9643 0.999878 19.412 0.999878 19.9643V26.0002C0.999878 26.5525 1.44759 27.0002 1.99988 27.0002L25.9993 27.0002ZM14.0001 11.3475C12.4954 11.3475 11.2858 12.573 11.2858 14.0721C11.2858 15.5712 12.4954 16.7967 14.0001 16.7967C15.5048 16.7967 16.7144 15.5712 16.7144 14.0721C16.7144 12.573 15.5048 11.3475 14.0001 11.3475Z" stroke="none"></path></svg>