<svg width="48" height="48" viewBox="0 0 28 28" fill="#e6007a" xmlns="http://www.w3.org/2000/svg" stroke-width="2" stroke-linecap="round" stroke-linejoin="round" stroke="#e6007a"><path fill-rule="evenodd" clip-rule="evenodd" d="M13.621 0.999024V13.223C13.621 13.5963 13.8289 13.9386 14.1603 14.1106C14.4917 14.2826 14.8913 14.2556 15.1966 14.0407L17.7326 12.2557L20.27 14.036C20.5754 14.2503 20.9747 14.2768 21.3057 14.1047C21.6367 13.9326 21.8444 13.5905 21.8444 13.2175L21.8443 0.999024L24.772 0.999023C25.0372 0.999023 25.2916 1.10438 25.4791 1.29192C25.6667 1.47945 25.772 1.73381 25.772 1.99902V25.999C25.772 26.2642 25.6667 26.5186 25.4791 26.7061C25.2916 26.8937 25.0372 26.999 24.772 26.999L4 26.9989C3.44771 26.9989 3 26.5512 3 25.9989L3 1.99903C3 1.73381 3.10536 1.47946 3.29289 1.29192C3.48043 1.10438 3.73478 0.999025 4 0.999025L13.621 0.999024Z" stroke="none"></path></svg>