<svg width="48" height="48" viewBox="0 0 28 28" fill="#e6007a" xmlns="http://www.w3.org/2000/svg" stroke-width="2" stroke-linecap="round" stroke-linejoin="round" stroke="#e6007a"><path fill-rule="evenodd" clip-rule="evenodd" d="M6.99589 12.9588C7.6294 9.01656 11.0596 6 15.2025 6C19.7963 6 23.5139 9.70898 23.5139 14.2763C23.5139 18.5206 20.3036 22.0237 16.1631 22.498L16.1631 14.0239L17.4421 15.269C17.8378 15.6543 18.4709 15.6458 18.8562 15.25C19.2414 14.8543 19.2329 14.2212 18.8372 13.836L15.8606 10.9383C15.4649 10.553 14.8318 10.5615 14.4466 10.9572L11.5488 13.9338C11.1636 14.3295 11.1721 14.9626 11.5678 15.3479C11.9635 15.7331 12.5967 15.7246 12.9819 15.3289L14.1631 14.1156L14.1631 22.4886C11.8522 22.2016 9.83646 20.9704 8.51594 19.193C8.18658 18.7496 7.56019 18.6573 7.11686 18.9866C6.67354 19.316 6.58115 19.9424 6.91051 20.3857C8.78779 22.9126 11.8036 24.5526 15.2025 24.5526C20.8938 24.5526 25.5139 19.9553 25.5139 14.2763C25.5139 8.5973 20.8938 4 15.2025 4C9.92471 4 5.56807 7.95358 4.96291 13.057L3.69755 11.8252C3.30182 11.44 2.66871 11.4485 2.28347 11.8442C1.89822 12.2399 1.90672 12.873 2.30245 13.2583L5.27901 16.156C5.67474 16.5412 6.30785 16.5327 6.6931 16.137L9.59081 13.1604C9.97606 12.7647 9.96756 12.1316 9.57183 11.7464C9.1761 11.3611 8.54299 11.3696 8.15774 11.7653L6.99589 12.9588Z" stroke="none"></path></svg>