<svg width="48" height="48" viewBox="0 0 29 29" fill="#e6007a" xmlns="http://www.w3.org/2000/svg" stroke-width="2" stroke-linecap="round" stroke-linejoin="round" stroke="#e6007a"><path fill-rule="evenodd" clip-rule="evenodd" d="M23.7088 1.5625C23.2784 1.5625 22.8963 1.83793 22.7602 2.24627L21.8572 4.95508H3.98243C3.65726 4.95508 3.3524 5.11318 3.16507 5.37895C3.12917 5.42988 3.09845 5.48353 3.07301 5.53916L3.03906 5.54011L3.05522 5.5805C2.96445 5.80521 2.9574 6.05808 3.04062 6.29123L6.90453 17.1167C7.04662 17.5148 7.42365 17.7806 7.84633 17.7806H18.6669L19.5728 20.958H5.27404C4.72176 20.958 4.27404 21.4057 4.27404 21.958C4.27404 22.5103 4.72176 22.958 5.27404 22.958H6.50811C6.40344 23.036 6.30312 23.1225 6.20809 23.2175C5.14787 24.2777 5.14787 25.9967 6.20809 27.0569C7.26831 28.1171 8.98726 28.1171 10.0475 27.0569C11.1077 25.9967 11.1077 24.2777 10.0475 23.2175C9.95245 23.1225 9.85213 23.036 9.74746 22.958H16.7977C16.693 23.036 16.5927 23.1225 16.4976 23.2175C15.4374 24.2777 15.4374 25.9967 16.4976 27.0569C17.5579 28.1171 19.2768 28.1171 20.337 27.0569C21.3973 25.9967 21.3973 24.2777 20.337 23.2175C20.242 23.1225 20.1417 23.036 20.037 22.958H20.8978C21.2115 22.958 21.507 22.8108 21.6959 22.5604C21.8849 22.31 21.9454 21.9855 21.8594 21.6838L20.4636 16.788L23.6329 6.24291C23.6722 6.11202 23.6838 5.97643 23.669 5.84417L24.4296 3.5625H26.2811C26.8334 3.5625 27.2811 3.11478 27.2811 2.5625C27.2811 2.01022 26.8334 1.5625 26.2811 1.5625H23.7088ZM7.6223 24.6317C7.34313 24.9109 7.34313 25.3635 7.6223 25.6427C7.90147 25.9219 8.3541 25.9219 8.63327 25.6427C8.91244 25.3635 8.91244 24.9109 8.63327 24.6317C8.3541 24.3526 7.90147 24.3526 7.6223 24.6317ZM17.9119 25.6427C17.6327 25.3635 17.6327 24.9109 17.9119 24.6317C18.191 24.3526 18.6436 24.3526 18.9228 24.6317C19.202 24.9109 19.202 25.3635 18.9228 25.6427C18.6436 25.9219 18.191 25.9219 17.9119 25.6427Z" stroke="none"></path></svg>