<svg width="48" height="48" viewBox="0 0 28 29" fill="#e6007a" xmlns="http://www.w3.org/2000/svg" stroke-width="2" stroke-linecap="round" stroke-linejoin="round" stroke="#e6007a"><path fill-rule="evenodd" clip-rule="evenodd" d="M5.73417 10.9793C5.73086 10.7099 5.83644 10.4505 6.02699 10.2599L14.4257 1.86125C14.8162 1.47073 15.4494 1.47073 15.8399 1.86125L21.9217 7.94305C22.3122 8.33358 22.3122 8.96674 21.9217 9.35726L15.1071 16.1718L13.6601 17.6024C13.2757 17.9824 12.659 17.9882 12.2675 17.6156L6.04459 11.6913C5.84941 11.5055 5.73749 11.2488 5.73417 10.9793ZM4.9223 20.1604C4.37002 20.1604 3.9223 20.6081 3.9223 21.1604V25.7046C3.9223 26.2569 4.37002 26.7046 4.9223 26.7046H22.712C23.2643 26.7046 23.712 26.2569 23.712 25.7046V21.1604C23.712 20.6081 23.2643 20.1604 22.712 20.1604H4.9223ZM5.9223 24.7046V22.1604H21.712V24.7046H5.9223Z" stroke="none"></path></svg>