<svg width="48" height="48" viewBox="0 0 28 28" fill="#e6007a" xmlns="http://www.w3.org/2000/svg" stroke-width="2" stroke-linecap="round" stroke-linejoin="round" stroke="#e6007a"><g><path fill-rule="evenodd" clip-rule="evenodd" d="M10.0009 0.732987C10.4104 0.497256 10.929 0.58032 11.2444 0.932154L13.4443 3.38621H14.1846L16.4357 0.968039C16.753 0.62714 17.2637 0.550459 17.6672 0.783123L23.3796 4.07724C23.7882 4.31288 23.9766 4.80204 23.8316 5.25092L22.8236 8.37154L23.21 9.04198L26.3971 9.7707C26.8518 9.87466 27.1742 10.2791 27.1742 10.7455V17.8086C27.1742 18.2831 26.8407 18.6923 26.3759 18.788L22.7719 19.5303L22.7564 19.5762L23.7559 22.8107C23.8938 23.2571 23.7043 23.7395 23.2993 23.9726L17.5769 27.2667C17.1681 27.5021 16.6503 27.4197 16.3347 27.069L14.1248 24.6135H13.3855L11.1447 27.0389C10.8275 27.3821 10.3149 27.4599 9.91017 27.2263L4.18776 23.9222C3.77831 23.6858 3.59038 23.1949 3.73728 22.7455L4.77263 19.578L4.41929 18.9685L1.17171 18.2292C0.71659 18.1256 0.393677 17.7209 0.393677 17.2542V10.646C0.393677 10.1728 0.72534 9.76441 1.18846 9.66731L4.45108 8.98321L4.799 8.37546L3.8213 5.18692C3.68457 4.74101 3.87425 4.25979 4.27846 4.0271L10.0009 0.732987ZM10 8.46436C9.44771 8.46436 9 8.91207 9 9.46436V18.5357C9 19.088 9.44771 19.5357 10 19.5357C10.5523 19.5357 11 19.088 11 18.5357V15.1329H13.902C13.92 15.1548 13.939 15.1762 13.9591 15.1969L17.864 19.2157C18.2489 19.6118 18.882 19.6209 19.2781 19.236C19.6742 18.8511 19.6833 18.218 19.2984 17.8219L16.6536 15.1C17.5047 14.9943 18.215 14.6385 18.7342 14.0925C19.3484 13.4466 19.6299 12.6024 19.6188 11.7851C19.6077 10.9685 19.3046 10.1361 18.6953 9.50131C18.0734 8.8535 17.1832 8.46436 16.11 8.46436H10ZM16.11 13.1329H11V10.4644H16.11C16.6777 10.4644 17.034 10.6588 17.2524 10.8863C17.4834 11.1269 17.6142 11.4616 17.619 11.8122C17.6238 12.162 17.503 12.4849 17.2848 12.7144C17.0786 12.9313 16.7205 13.1329 16.11 13.1329Z" stroke="none"></path></g></svg>