<svg width="48" height="48" viewBox="0 0 28 28" fill="#e6007a" xmlns="http://www.w3.org/2000/svg" stroke-width="2" stroke-linecap="round" stroke-linejoin="round" stroke="#e6007a"><path fill-rule="evenodd" clip-rule="evenodd" d="M9.57141 1H2C1.44772 1 1 1.44771 1 2V9.57143H9.57141V1ZM1 11.5714H10.5714C11.1237 11.5714 11.5714 11.1237 11.5714 10.5714V1H18.3436C18.6023 1 18.8508 1.10021 19.0372 1.2796L26.6936 8.6507C26.8894 8.83921 27 9.0993 27 9.3711L27 26C27 26.5523 26.5523 27 26 27L2 27C1.44772 27 1 26.5523 1 26V11.5714ZM13.7143 19.1431C14.8189 19.1431 15.7143 18.2476 15.7143 17.1431C15.7143 16.0385 14.8189 15.1431 13.7143 15.1431C12.6097 15.1431 11.7143 16.0385 11.7143 17.1431C11.7143 18.2476 12.6097 19.1431 13.7143 19.1431ZM17.7143 17.1431C17.7143 19.3522 15.9234 21.1431 13.7143 21.1431C11.5052 21.1431 9.71429 19.3522 9.71429 17.1431C9.71429 14.9339 11.5052 13.1431 13.7143 13.1431C15.9234 13.1431 17.7143 14.9339 17.7143 17.1431Z" stroke="none"></path></svg>