<svg width="48" height="48" viewBox="0 0 28 28" fill="#e6007a" xmlns="http://www.w3.org/2000/svg" stroke-width="2" stroke-linecap="round" stroke-linejoin="round" stroke="#e6007a"><path fill-rule="evenodd" clip-rule="evenodd" d="M1.01667 1.99671C1.01848 1.44443 1.46766 0.998196 2.01994 1.00001L7.13035 1.01675C7.68263 1.01856 8.12888 1.46774 8.12707 2.02002C8.12526 2.5723 7.67608 3.01854 7.1238 3.01674L4.26721 3.00738L8.31759 6.98953C9.86725 5.73494 11.8414 4.9834 13.9909 4.9834C16.1482 4.9834 18.1289 5.74043 19.6811 7.00329L23.7352 3.00737L20.8757 3.01674C20.3234 3.01854 19.8742 2.5723 19.8724 2.02002C19.8706 1.46774 20.3168 1.01856 20.8691 1.01675L25.9795 1.00001C26.5318 0.998196 26.981 1.44443 26.9828 1.99671L26.9996 7.09426C27.0014 7.64654 26.5551 8.09573 26.0029 8.09754C25.4506 8.09936 25.0014 7.65312 24.9996 7.10084L24.9913 4.57751L21.0839 8.42887C22.29 9.96129 23.0094 11.8942 23.0094 13.9954C23.0094 16.1518 22.2516 18.131 20.9877 19.6819L24.9926 23.7384L24.9832 20.8802C24.9814 20.328 25.4276 19.8788 25.9799 19.877C26.5322 19.8751 26.9814 20.3214 26.9832 20.8737L26.9999 25.9799C27.0017 26.5322 26.5555 26.9813 26.0032 26.9832L20.9015 26.9999C20.3492 27.0017 19.9 26.5555 19.8982 26.0032C19.8964 25.4509 20.3426 25.0017 20.8949 24.9999L23.4194 24.9916L19.561 21.0835C18.0273 22.2886 16.093 23.0074 13.9909 23.0074C11.8934 23.0074 9.96301 22.2918 8.43096 21.0915L4.58045 24.9916L7.10503 24.9999C7.65732 25.0017 8.10356 25.4509 8.10174 26.0032C8.09993 26.5555 7.65074 27.0017 7.09846 26.9999L1.99671 26.9832C1.44443 26.9813 0.998191 26.5322 1 25.9799L1.01676 20.8737C1.01857 20.3214 1.46775 19.8751 2.02003 19.877C2.57232 19.8788 3.01856 20.328 3.01675 20.8802L3.00737 23.7383L7.00221 19.692C5.73339 18.1395 4.97229 16.1564 4.97229 13.9954C4.97229 11.8864 5.69716 9.94687 6.9114 8.41173L3.00819 4.57427L2.99987 7.10084C2.99805 7.65312 2.54887 8.09936 1.99659 8.09754C1.4443 8.09573 0.998065 7.64654 0.999883 7.09426L1.01667 1.99671ZM15.0679 10.9973C15.0679 10.4452 14.62 9.99772 14.0675 9.99772C13.515 9.99772 13.0671 10.4452 13.0671 10.9973V12.8257L11.2373 12.8257C10.6848 12.8257 10.2369 13.2732 10.2369 13.8253C10.2369 14.3773 10.6848 14.8249 11.2373 14.8249H13.0671V16.6528C13.0671 17.2049 13.515 17.6524 14.0675 17.6524C14.62 17.6524 15.0679 17.2049 15.0679 16.6528V14.8249H16.8975C17.45 14.8249 17.8979 14.3773 17.8979 13.8253C17.8979 13.2732 17.45 12.8257 16.8975 12.8257H15.0679V10.9973Z" stroke="none"></path></svg>