<svg width="48" height="48" viewBox="0 0 28 29" fill="#e6007a" xmlns="http://www.w3.org/2000/svg" stroke-width="2" stroke-linecap="round" stroke-linejoin="round" stroke="#e6007a"><path fill-rule="evenodd" clip-rule="evenodd" d="M16.4383 2.08008C15.886 2.08008 15.4383 2.52779 15.4383 3.08008C15.4383 3.63236 15.886 4.08008 16.4383 4.08008L23.0056 4.08008L3.52635 23.5593L3.52635 16.8527C3.52635 16.3004 3.07864 15.8527 2.52635 15.8527C1.97407 15.8527 1.52635 16.3004 1.52635 16.8527L1.52635 25.9058C1.52635 26.458 1.97407 26.9058 2.52635 26.9058L11.5734 26.9058C12.1256 26.9058 12.5734 26.4581 12.5734 25.9058C12.5734 25.3535 12.1257 24.9058 11.5734 24.9058L5.00833 24.9058L24.4853 5.42877V12.1331C24.4853 12.6854 24.933 13.1331 25.4853 13.1331C26.0376 13.1331 26.4853 12.6854 26.4853 12.1331V3.08009C26.4853 2.5278 26.0376 2.08009 25.4853 2.08009L16.4383 2.08008ZM25.3488 15.8558C25.9011 15.8558 26.3488 16.3035 26.3488 16.8558L26.3488 25.9028C26.3488 26.4551 25.9011 26.9028 25.3488 26.9028H16.2958C15.7435 26.9028 15.2958 26.4551 15.2958 25.9028C15.2958 25.3505 15.7435 24.9028 16.2958 24.9028H24.3488L24.3488 16.8558C24.3488 16.3035 24.7965 15.8558 25.3488 15.8558ZM1.52374 12.1301C1.52374 12.6824 1.97146 13.1301 2.52374 13.1301C3.07603 13.1301 3.52374 12.6824 3.52374 12.1301L3.52375 4.08306L11.5768 4.08306C12.1291 4.08306 12.5768 3.63535 12.5768 3.08306C12.5768 2.53078 12.1291 2.08306 11.5768 2.08306L2.52375 2.08306C1.97147 2.08306 1.52375 2.53078 1.52375 3.08306L1.52374 12.1301Z" stroke="none"></path></svg>