<svg width="48" height="48" viewBox="0 0 28 28" fill="#e6007a" xmlns="http://www.w3.org/2000/svg" stroke-width="2" stroke-linecap="round" stroke-linejoin="round" stroke="#e6007a"><path fill-rule="evenodd" clip-rule="evenodd" d="M1.01727 1.99671C1.01909 1.44443 1.46826 0.998195 2.02054 1.00001L7.12675 1.01675C7.67903 1.01856 8.12527 1.46774 8.12346 2.02002C8.12165 2.5723 7.67247 3.01855 7.12019 3.01674L4.26367 3.00737L10.5929 9.25091C10.986 9.63876 10.9904 10.2719 10.6025 10.6651C10.2146 11.0583 9.58149 11.0626 9.18832 10.6747L3.00879 4.57882L3.00049 7.10084C2.99867 7.65312 2.54949 8.09936 1.9972 8.09754C1.44492 8.09573 0.998682 7.64654 1.0005 7.09426L1.01727 1.99671ZM26.9634 1.99671C26.9616 1.44443 26.5124 0.998195 25.9602 1.00001L20.854 1.01675C20.3017 1.01856 19.8554 1.46774 19.8572 2.02002C19.8591 2.5723 20.3082 3.01855 20.8605 3.01674L23.7173 3.00737L17.3881 9.25091C16.9949 9.63876 16.9906 10.2719 17.3784 10.6651C17.7663 11.0583 18.3994 11.0626 18.7926 10.6747L24.9719 4.57905L24.9802 7.10084C24.982 7.65312 25.4312 8.09936 25.9835 8.09754C26.5358 8.09573 26.982 7.64654 26.9802 7.09426L26.9634 1.99671ZM1.00001 25.9799C0.998195 26.5322 1.44443 26.9813 1.99671 26.9832L7.09426 26.9999C7.64654 27.0017 8.09573 26.5555 8.09754 26.0032C8.09936 25.4509 7.65312 25.0017 7.10084 24.9999L4.57913 24.9916L10.6748 18.8124C11.0626 18.4192 11.0583 17.7861 10.6651 17.3982C10.2719 17.0103 9.6388 17.0147 9.25094 17.4078L3.00737 23.7371L3.01674 20.8802C3.01855 20.3279 2.5723 19.8788 2.02002 19.877C1.46774 19.8751 1.01856 20.3214 1.01675 20.8737L1.00001 25.9799ZM25.984 26.9832C26.5363 26.9813 26.9825 26.5322 26.9807 25.9799L26.964 20.8737C26.9621 20.3214 26.513 19.8751 25.9607 19.877C25.4084 19.8788 24.9622 20.3279 24.964 20.8802L24.9733 23.7368L18.73 17.4078C18.3421 17.0147 17.709 17.0103 17.3158 17.3982C16.9226 17.7861 16.9183 18.4192 17.3062 18.8124L23.4018 24.9916L20.8799 24.9999C20.3276 25.0017 19.8813 25.4509 19.8832 26.0032C19.885 26.5555 20.3342 27.0017 20.8864 26.9999L25.984 26.9832Z" stroke="none"></path></svg>