<svg width="48" height="48" viewBox="0 0 28 28" fill="#e6007a" xmlns="http://www.w3.org/2000/svg" stroke-width="2" stroke-linecap="round" stroke-linejoin="round" stroke="#e6007a"><g><path fill-rule="evenodd" clip-rule="evenodd" d="M13.0036 2.84863L1.3187 24.3952C1.15065 24.705 1.15817 25.0805 1.33848 25.3834C1.51878 25.6863 1.84525 25.8719 2.19775 25.8719H25.7818C26.1343 25.8719 26.4607 25.6863 26.641 25.3834C26.8214 25.0805 26.8289 24.705 26.6608 24.3952L15.0036 2.89963V13.5379C15.0064 13.546 15.0159 13.5653 15.0439 13.5965C15.1009 13.6601 15.203 13.733 15.335 13.7828C16.7619 14.3205 17.7796 15.6987 17.7796 17.3171C17.7796 19.4026 16.089 21.0932 14.0036 21.0932C11.9181 21.0932 10.2275 19.4026 10.2275 17.3171C10.2275 16.7648 10.6753 16.3171 11.2275 16.3171C11.7798 16.3171 12.2275 16.7648 12.2275 17.3171C12.2275 18.298 13.0227 19.0932 14.0036 19.0932C14.9845 19.0932 15.7796 18.298 15.7796 17.3171C15.7796 16.5582 15.3032 15.9081 14.6297 15.6543C13.9304 15.3908 13.0036 14.694 13.0036 13.5411V2.84863ZM15.0026 13.5335C15.0027 13.5335 15.0032 13.5348 15.0034 13.5374C15.0025 13.5348 15.0024 13.5335 15.0026 13.5335Z" stroke="none"></path></g></svg>