<svg width="48" height="48" viewBox="0 0 28 28" fill="#e6007a" xmlns="http://www.w3.org/2000/svg" stroke-width="2" stroke-linecap="round" stroke-linejoin="round" stroke="#e6007a"><path fill-rule="evenodd" clip-rule="evenodd" d="M24.4615 2C24.4615 1.44772 24.0138 1 23.4615 1H5C4.44772 1 4 1.44772 4 2V26C4 26.5523 4.44772 27 5 27H23.4615C24.0138 27 24.4615 26.5523 24.4615 26V2ZM7.69222 5.69189C7.69222 6.24418 8.13993 6.69189 8.69222 6.69189H19.7691C20.3214 6.69189 20.7691 6.24418 20.7691 5.69189C20.7691 5.13961 20.3214 4.69189 19.7691 4.69189H8.69222C8.13993 4.69189 7.69222 5.13961 7.69222 5.69189ZM7.69222 9.38428C7.69222 8.83199 8.13993 8.38428 8.69222 8.38428H19.7692C20.3215 8.38428 20.7692 8.83199 20.7692 9.38428C20.7692 9.93656 20.3215 10.3843 19.7692 10.3843H8.69222C8.13993 10.3843 7.69222 9.93656 7.69222 9.38428ZM20.9699 18.7916C21.3605 18.4011 21.3605 17.7679 20.9699 17.3774C20.5794 16.9868 19.9463 16.9868 19.5557 17.3774L16.963 19.9701L16.3013 19.3085C15.9108 18.9179 15.2777 18.9179 14.8871 19.3085C14.4966 19.699 14.4966 20.3322 14.8871 20.7227L16.2558 22.0914C16.6464 22.4819 17.2795 22.4819 17.6701 22.0914L20.9699 18.7916ZM13.7148 17.3774C14.1053 17.7679 14.1053 18.4011 13.7148 18.7916L10.4149 22.0914C10.0244 22.4819 9.39124 22.4819 9.00071 22.0914L7.632 20.7227C7.24147 20.3322 7.24147 19.699 7.632 19.3085C8.02252 18.9179 8.65568 18.9179 9.04621 19.3085L9.70783 19.9701L12.3006 17.3774C12.6911 16.9868 13.3243 16.9868 13.7148 17.3774Z" stroke="none"></path></svg>