<svg width="48" height="48" viewBox="0 0 28 28" fill="#e6007a" xmlns="http://www.w3.org/2000/svg" stroke-width="2" stroke-linecap="round" stroke-linejoin="round" stroke="#e6007a"><path fill-rule="evenodd" clip-rule="evenodd" d="M14 27C13.4477 27 13 26.5523 13 26L13.0001 23.679C8.45668 23.2064 4.85576 19.5627 4.44931 15L1.99998 14.9999C1.4477 14.9999 0.999986 14.5522 0.999992 13.9999C0.999999 13.4476 1.44772 12.9999 2 12.9999L4.47785 13C5.00169 8.56672 8.54851 5.05945 13.0001 4.59637L13.0001 1.99999C13.0001 1.4477 13.4478 0.999994 14.0001 1C14.5524 1.00001 15.0001 1.44773 15.0001 2.00001L15.0001 4.59548C19.4557 5.05497 23.0067 8.56389 23.5308 13L26 13C26.5523 13 27 13.4477 27 14C27 14.5523 26.5523 15 26 15L23.5594 15C23.1527 19.5656 19.5475 23.211 15.0001 23.6799L15 26C15 26.5523 14.5523 27 14 27ZM13.9986 10.6616C13.7307 10.6621 13.4738 10.7688 13.2843 10.9583C13.0943 11.1483 12.9876 11.4059 12.9876 11.6746V12.3081H15.0057V11.6746C15.0057 11.4066 14.8995 11.1495 14.7104 10.9597C14.5218 10.7703 14.2659 10.6632 13.9986 10.6616ZM10.9876 11.6746V12.3081H10.7906C10.2383 12.3081 9.7906 12.7558 9.7906 13.3081V17.6771C9.7906 18.2293 10.2383 18.6771 10.7906 18.6771H17.2103C17.7626 18.6771 18.2103 18.2293 18.2103 17.6771V13.3081C18.2103 12.7558 17.7626 12.3081 17.2103 12.3081H17.0057V11.6746C17.0057 10.8775 16.6899 10.1129 16.1274 9.54821C15.5648 8.9835 14.8015 8.66471 14.0044 8.66163V8.66162H14.0005C13.2015 8.66162 12.4351 8.97905 11.8701 9.5441C11.305 10.1091 10.9876 10.8755 10.9876 11.6746ZM11.7906 14.3081V16.6771H16.2103V14.3081H11.7906Z" stroke="none"></path></svg>