<svg width="48" height="48" viewBox="0 0 28 28" fill="#e6007a" xmlns="http://www.w3.org/2000/svg" stroke-width="2" stroke-linecap="round" stroke-linejoin="round" stroke="#e6007a"><path fill-rule="evenodd" clip-rule="evenodd" d="M13.6513 0.395965C13.8733 0.314661 14.1169 0.314625 14.3389 0.395865L24.9915 4.2941C25.3857 4.43835 25.6478 4.81343 25.6478 5.23319V14.1678C25.6478 17.9063 23.7491 21.3889 20.6067 23.414L14.4694 27.3693C14.1396 27.5818 13.716 27.5819 13.3862 27.3694L7.39544 23.5104C4.25188 21.4855 2.35229 18.0022 2.35229 14.2629V5.23319C2.35229 4.81354 2.61431 4.43853 3.00837 4.2942L13.6513 0.395965ZM13.998 9.42188C13.5385 9.42239 13.098 9.60513 12.7731 9.93006C12.4477 10.2554 12.2649 10.6967 12.2649 11.1569V11.498H15.7244V11.1569C15.7244 10.6979 15.5425 10.2576 15.2186 9.93241C14.8951 9.60767 14.4563 9.42415 13.998 9.42188ZM10.2649 11.1569V11.498H9.63867C9.08639 11.498 8.63867 11.9458 8.63867 12.498V17.9998C8.63867 18.5521 9.08639 18.9998 9.63867 18.9998H18.3612C18.9135 18.9998 19.3612 18.5521 19.3612 17.9998V12.498C19.3612 11.9458 18.9135 11.498 18.3612 11.498H17.7244V11.1569C17.7244 10.1688 17.3329 9.22098 16.6355 8.52093C15.9382 7.82089 14.9919 7.42569 14.0038 7.42188H13.9999C13.0093 7.42188 12.0593 7.81538 11.3589 8.51584C10.6584 9.2163 10.2649 10.1663 10.2649 11.1569ZM10.6387 13.498V16.9998H17.3612V13.498H10.6387Z" stroke="none"></path></svg>