<svg width="48" height="48" viewBox="0 0 28 28" fill="#e6007a" xmlns="http://www.w3.org/2000/svg" stroke-width="2" stroke-linecap="round" stroke-linejoin="round" stroke="#e6007a"><path fill-rule="evenodd" clip-rule="evenodd" d="M5 2C5 1.44772 5.44772 1 6 1H22.5109C23.0632 1 23.5109 1.44772 23.5109 2V26C23.5109 26.5523 23.0632 27 22.5109 27H6C5.44772 27 5 26.5523 5 26V2ZM13.3755 7.3776C13.6083 7.14473 13.924 7.0137 14.2533 7.01319C14.5818 7.01496 14.8962 7.14654 15.1281 7.37929C15.3603 7.61248 15.4908 7.92822 15.4908 8.25738V9.07715H13.011V8.25738C13.011 7.92739 13.1421 7.61093 13.3755 7.3776ZM17.4908 8.25738V9.18749C18.2727 9.45924 18.834 10.2027 18.834 11.0771V13.948C18.834 15.0525 17.9385 15.948 16.834 15.948H11.6768C10.5723 15.948 9.67682 15.0525 9.67682 13.948V11.0771C9.67682 10.206 10.2338 9.46494 11.011 9.19064V8.25738C11.011 7.39697 11.3528 6.57179 11.9612 5.96339C12.5697 5.35498 13.3948 5.01318 14.2552 5.01318H14.2591C15.1174 5.0165 15.9393 5.35977 16.545 5.96781C17.1507 6.57586 17.4908 7.39914 17.4908 8.25738ZM13.3055 21.7124C12.7532 21.7124 12.3055 22.1601 12.3055 22.7124C12.3055 23.2647 12.7532 23.7124 13.3055 23.7124H15.2053C15.7576 23.7124 16.2053 23.2647 16.2053 22.7124C16.2053 22.1601 15.7576 21.7124 15.2053 21.7124H13.3055ZM16.834 11.0771L11.6768 11.0771V13.948L16.834 13.948L16.834 11.0771Z" stroke="none"></path></svg>