<svg width="48" height="48" viewBox="0 0 28 28" fill="#e6007a" xmlns="http://www.w3.org/2000/svg" stroke-width="2" stroke-linecap="round" stroke-linejoin="round" stroke="#e6007a"><path fill-rule="evenodd" clip-rule="evenodd" d="M17.6897 11C18.242 11 18.6897 10.5523 18.6897 10C18.6897 9.44771 18.242 9 17.6897 9L7.68974 9.00002C7.13745 9.00002 6.68974 9.44774 6.68974 10C6.68974 10.5523 7.13746 11 7.68974 11L17.6897 11ZM3.68974 9.00001C4.24203 9.00001 4.68974 9.44773 4.68974 10C4.68974 10.5523 4.24203 11 3.68974 11L2 11C1.44771 11 1 10.5523 1 10C1 9.44773 1.44772 9.00001 2 9.00001L3.68974 9.00001ZM22 14.2622C22 13.7099 21.5522 13.2622 21 13.2622L12 13.2622C11.4477 13.2622 11 13.7099 11 14.2622C11 14.8145 11.4477 15.2622 12 15.2622L21 15.2622C21.5522 15.2622 22 14.8145 22 14.2622ZM8.99997 14.2622C8.99997 13.7099 8.55225 13.2622 7.99997 13.2622L2 13.2622C1.44771 13.2622 1 13.7099 1 14.2622C1 14.8145 1.44772 15.2622 2 15.2622L7.99997 15.2622C8.55225 15.2622 8.99997 14.8145 8.99997 14.2622ZM26 13.2622C26.5522 13.2622 27 13.7099 27 14.2622C27 14.8145 26.5523 15.2622 26 15.2622L25 15.2622C24.4477 15.2622 24 14.8145 24 14.2622C24 13.7099 24.4477 13.2622 25 13.2622L26 13.2622ZM7 18.5244C7 17.9721 6.55228 17.5244 6 17.5244L2 17.5244C1.44772 17.5244 1 17.9721 1 18.5244C1 19.0767 1.44771 19.5244 2 19.5244L6 19.5244C6.55228 19.5244 7 19.0767 7 18.5244ZM12 17.5244C12.5523 17.5244 13 17.9721 13 18.5244C13 19.0767 12.5523 19.5244 12 19.5244L10 19.5244C9.44771 19.5244 9 19.0767 9 18.5244C9 17.9721 9.44772 17.5244 10 17.5244L12 17.5244ZM27 18.5244C27 17.9721 26.5523 17.5244 26 17.5244L16 17.5244C15.4477 17.5244 15 17.9721 15 18.5244C15 19.0767 15.4477 19.5244 16 19.5244L26 19.5244C26.5523 19.5244 27 19.0767 27 18.5244ZM26.6897 10C26.6897 9.44774 26.242 9.00003 25.6897 9.00003L21.6897 9.00003C21.1374 9.00003 20.6897 9.44774 20.6897 10C20.6897 10.5523 21.1374 11 21.6897 11L25.6897 11C26.242 11 26.6897 10.5523 26.6897 10Z" stroke="none"></path></svg>