<svg width="48" height="48" viewBox="0 0 28 28" fill="#e6007a" xmlns="http://www.w3.org/2000/svg" stroke-width="2" stroke-linecap="round" stroke-linejoin="round" stroke="#e6007a"><path fill-rule="evenodd" clip-rule="evenodd" d="M15.2965 3.01212V5.57529C20.5288 6.07142 24.6219 10.4776 24.6219 15.8398C24.6219 21.5344 20.0056 26.1507 14.311 26.1507C8.61638 26.1507 4 21.5344 4 15.8398C4 10.4875 8.07805 6.08772 13.2965 5.57809V3.01212L11.2617 3.01212C10.7094 3.01212 10.2617 2.56441 10.2617 2.01212C10.2617 1.45984 10.7094 1.01212 11.2617 1.01212L14.1403 1.01212C14.1912 1.00414 14.2433 1 14.2965 1C14.3496 1 14.4017 1.00414 14.4526 1.01212L17.3588 1.01212C17.9111 1.01212 18.3588 1.45983 18.3588 2.01212C18.3588 2.5644 17.9111 3.01212 17.3588 3.01212L15.2965 3.01212ZM13.3101 10.9697C13.3101 10.4174 13.7578 9.96973 14.3101 9.96973C14.8624 9.96973 15.3101 10.4174 15.3101 10.9697V16.6253C15.3101 16.8574 15.2294 17.0822 15.0818 17.2613L12.8636 19.9528C12.5124 20.379 11.8821 20.4398 11.4559 20.0886C11.0297 19.7373 10.969 19.1071 11.3202 18.6809L13.3101 16.2663V10.9697Z" stroke="none"></path></svg>