<svg width="48" height="48" viewBox="0 0 28 28" fill="#e6007a" xmlns="http://www.w3.org/2000/svg" stroke-width="2" stroke-linecap="round" stroke-linejoin="round" stroke="#e6007a"><path fill-rule="evenodd" clip-rule="evenodd" d="M10.3426 1.19002C10.7521 0.954287 11.2707 1.03735 11.5861 1.38919L13.7054 3.75331H14.3933L16.5622 1.42346C16.8796 1.08257 17.3902 1.00588 17.7937 1.23855L23.3218 4.42635C23.7304 4.66199 23.9188 5.15115 23.7738 5.60003L22.8027 8.60631L23.1625 9.2305L26.2329 9.93256C26.6876 10.0365 27.01 10.441 27.01 10.9074V17.4987C27.01 17.9857 26.6593 18.4018 26.1794 18.4843L22.8687 19.0532L22.736 19.4518L23.7006 22.5737C23.8385 23.0201 23.649 23.5025 23.2441 23.7355L17.7064 26.9233C17.2975 27.1587 16.7798 27.0763 16.4642 26.7256L14.3351 24.3601H13.6482L11.4893 26.6968C11.1722 27.04 10.6595 27.1179 10.2548 26.8842L4.71707 23.6867C4.30762 23.4503 4.11969 22.9594 4.26659 22.51L5.26404 19.4585L4.93639 18.8933L1.80733 18.181C1.35221 18.0774 1.0293 17.6727 1.0293 17.206V10.8111C1.0293 10.3379 1.36096 9.92948 1.82408 9.83238L4.96722 9.17333L5.28976 8.60991L4.34771 5.53764C4.21098 5.09173 4.40066 4.61051 4.80488 4.37782L10.3426 1.19002ZM11.0293 14.0566C11.0293 12.3998 12.3724 11.0566 14.0293 11.0566C15.6862 11.0566 17.0293 12.3998 17.0293 14.0566C17.0293 15.7135 15.6862 17.0566 14.0293 17.0566C12.3724 17.0566 11.0293 15.7135 11.0293 14.0566ZM14.0293 9.05664C11.2679 9.05664 9.0293 11.2952 9.0293 14.0566C9.0293 16.8181 11.2679 19.0566 14.0293 19.0566C16.7907 19.0566 19.0293 16.8181 19.0293 14.0566C19.0293 11.2952 16.7907 9.05664 14.0293 9.05664Z" stroke="none"></path></svg>