<svg width="48" height="48" viewBox="0 0 28 28" fill="#e6007a" xmlns="http://www.w3.org/2000/svg" stroke-width="2" stroke-linecap="round" stroke-linejoin="round" stroke="#e6007a"><path fill-rule="evenodd" clip-rule="evenodd" d="M13.7848 1.061C14.0068 0.979705 14.2504 0.979664 14.4724 1.06089L21.0642 3.47281C21.736 2.69012 22.7326 2.19434 23.8451 2.19434C25.8684 2.19434 27.5083 3.83428 27.5083 5.85757C27.5083 7.53416 26.3822 8.94752 24.8451 9.38267V13.9445C24.8451 17.2352 23.1734 20.2998 20.408 22.0821L17.5513 23.9236C17.2704 25.6678 15.7583 26.9998 13.9349 26.9998C12.0471 26.9998 10.4931 25.5722 10.2933 23.7376L7.85956 22.1701C5.09294 20.3878 3.42113 17.323 3.42113 14.0313V9.30489C2.00927 8.79616 1 7.44482 1 5.85757C1 3.83428 2.63995 2.19434 4.66323 2.19434C5.74333 2.19434 6.71418 2.66168 7.38462 3.40521L13.7848 1.061ZM14.1289 3.0649L20.2247 5.29532C20.1965 5.4786 20.1818 5.66638 20.1818 5.85757L20.1819 5.87703C20.1823 5.96212 20.1857 6.04651 20.1918 6.13013C20.3062 7.68581 21.392 8.97132 22.8451 9.38267V13.9445C22.8451 16.5552 21.5187 18.9868 19.3243 20.4011L17.2363 21.7471C16.6445 20.52 15.3886 19.6733 13.9349 19.6733C12.5321 19.6733 11.3136 20.4616 10.6981 21.6194L8.94249 20.4887C6.74733 19.0744 5.42113 16.643 5.42113 14.0313V9.44232C7.01592 9.10688 8.22859 7.73422 8.32082 6.06267C8.32334 6.017 8.32503 5.97111 8.32586 5.92501C8.32627 5.90252 8.32647 5.87998 8.32647 5.8574L8.32636 5.83001C8.32481 5.61895 8.30541 5.41213 8.2696 5.211L14.1289 3.0649ZM13.0899 9.19713C13.3663 8.92082 13.7411 8.76523 14.1304 8.76465C14.5209 8.76696 14.8936 8.92299 15.168 9.19855C15.4435 9.47517 15.5981 9.84943 15.5981 10.2398V11.2471H12.6575V10.2398C12.6575 9.84876 12.8127 9.47375 13.0892 9.19786L13.0899 9.19713ZM10.6575 11.2471V10.2398C10.6575 9.31914 11.0229 8.43456 11.6761 7.78255C12.3272 7.13167 13.2111 6.76465 14.1326 6.76465H14.137V6.76466C15.0556 6.76872 15.936 7.13543 16.5852 7.78728C17.2338 8.43859 17.5981 9.32023 17.5981 10.2398V11.2471H18.0797C18.632 11.2471 19.0797 11.6948 19.0797 12.2471V17.2253C19.0797 17.7776 18.632 18.2253 18.0797 18.2253H10.1865C9.63419 18.2253 9.18648 17.7776 9.18648 17.2253V12.2471C9.18648 11.6948 9.63419 11.2471 10.1865 11.2471H10.6575Z" stroke="none"></path></svg>