<svg width="48" height="48" viewBox="0 0 23 27" fill="#e6007a" xmlns="http://www.w3.org/2000/svg" stroke-width="2" stroke-linecap="round" stroke-linejoin="round" stroke="#e6007a"><path fill-rule="evenodd" clip-rule="evenodd" d="M18.4764 0.511719C16.3933 0.511719 14.7046 2.20042 14.7046 4.28354C14.7046 4.70787 14.7747 5.11584 14.9039 5.49651L8.55526 9.94185C6.70529 8.15245 3.75494 8.17121 1.92803 9.99811C0.0821761 11.844 0.0821764 14.8367 1.92803 16.6826C3.74371 18.4982 6.66905 18.5279 8.52101 16.7716L14.989 21.3006C14.8057 21.7441 14.7046 22.2303 14.7046 22.7401C14.7046 24.8232 16.3933 26.5119 18.4764 26.5119C20.5595 26.5119 22.2482 24.8232 22.2482 22.7401C22.2482 20.657 20.5595 18.9683 18.4764 18.9683C17.6292 18.9683 16.8472 19.2476 16.2175 19.7192L9.65008 15.1206C10.1065 13.9965 10.1124 12.7322 9.66782 11.6044L16.0268 7.15176C16.6859 7.71514 17.5414 8.05535 18.4764 8.05535C20.5595 8.05535 22.2482 6.36665 22.2482 4.28354C22.2482 2.20042 20.5595 0.511719 18.4764 0.511719Z" stroke="none"></path></svg>