<svg width="48" height="48" viewBox="0 0 28 28" fill="#e6007a" xmlns="http://www.w3.org/2000/svg" stroke-width="2" stroke-linecap="round" stroke-linejoin="round" stroke="#e6007a"><path fill-rule="evenodd" clip-rule="evenodd" d="M11.0183 1.82573C11.8137 1.29547 12.8549 1 13.955 1C15.0551 1 16.0963 1.29547 16.8916 1.82573C17.6775 2.34965 18.3195 3.18194 18.3236 4.23572C18.3236 4.23908 18.3236 4.24244 18.3236 4.24581V7.65043C18.3236 8.7283 17.6582 9.5344 16.8572 10.0224C16.0582 10.5091 15.0262 10.7561 13.955 10.7561C12.8838 10.7561 11.8518 10.5091 11.0528 10.0224C10.2518 9.5344 9.58635 8.7283 9.58635 7.65043V4.25819C9.58633 4.25405 9.58632 4.24991 9.58632 4.24576C9.58632 3.18723 10.2299 2.35131 11.0183 1.82573ZM11.1144 12.8733C11.3923 12.396 11.2307 11.7838 10.7534 11.5059C10.2761 11.228 9.66394 11.3897 9.38605 11.867L6.24558 17.2608C5.96769 17.738 6.12933 18.3502 6.60661 18.6281C7.08389 18.906 7.69607 18.7444 7.97396 18.2671L11.1144 12.8733ZM17.1575 11.5059C17.6348 11.228 18.247 11.3897 18.5249 11.867L21.6654 17.2608C21.9432 17.738 21.7816 18.3502 21.3043 18.6281C20.827 18.906 20.2149 18.7444 19.937 18.2671L16.7965 12.8733C16.5186 12.396 16.6802 11.7838 17.1575 11.5059ZM2.56573 20.8154C3.44367 20.2302 4.59893 19.9006 5.82499 19.9006C7.05106 19.9006 8.20632 20.2302 9.08426 20.8154C9.95513 21.396 10.65 22.3078 10.65 23.4503C10.65 24.5928 9.95513 25.5046 9.08426 26.0852C8.20632 26.6704 7.05106 27 5.82499 27C4.59893 27 3.44367 26.6704 2.56573 26.0852C1.69485 25.5046 1 24.5928 1 23.4503C1 22.3078 1.69485 21.396 2.56573 20.8154ZM18.9422 20.8154C19.8201 20.2302 20.9754 19.9006 22.2015 19.9006C23.4275 19.9006 24.5828 20.2302 25.4607 20.8154C26.3316 21.396 27.0264 22.3078 27.0264 23.4503C27.0264 24.5928 26.3316 25.5046 25.4607 26.0852C24.5828 26.6704 23.4275 27 22.2015 27C20.9754 27 19.8201 26.6704 18.9422 26.0852C18.0713 25.5046 17.3765 24.5928 17.3765 23.4503C17.3765 22.3079 18.0713 21.396 18.9422 20.8154ZM11.5864 7.65043V6.98551C12.282 7.31341 13.1008 7.49157 13.955 7.49157C14.8092 7.49157 15.628 7.31341 16.3236 6.98551V7.65043C16.3236 7.81284 16.235 8.05956 15.8167 8.31435C15.3966 8.57031 14.7442 8.75607 13.955 8.75607C13.1658 8.75607 12.5134 8.57031 12.0933 8.31435C11.675 8.05956 11.5864 7.81284 11.5864 7.65043Z" stroke="none"></path></svg>