<svg width="48" height="48" viewBox="0 0 28 28" fill="#e6007a" xmlns="http://www.w3.org/2000/svg" stroke-width="2" stroke-linecap="round" stroke-linejoin="round" stroke="#e6007a"><path fill-rule="evenodd" clip-rule="evenodd" d="M22.0381 6.29289C22.4286 5.90237 23.0618 5.90237 23.4523 6.29289L26.7071 9.54772C27.0976 9.93824 27.0976 10.5714 26.7071 10.9619L18.281 19.388C18.1575 19.5116 18.0036 19.6006 17.8349 19.6462L13.3684 20.8538C13.0225 20.9473 12.6531 20.8486 12.3999 20.5952C12.1467 20.3417 12.0484 19.9721 12.1423 19.6264L13.3541 15.164C13.3998 14.9957 13.4887 14.8423 13.612 14.719L22.0381 6.29289ZM8.25182 18.2211C7.79088 17.1811 6.89499 16.5878 5.89568 16.5818H5.88361C4.89058 16.5878 3.98221 17.175 3.51858 18.2211L3.34562 18.6246C3.31641 18.6922 3.1357 18.8888 2.74895 18.8888H2C1.44772 18.8888 1 19.3365 1 19.8888C1 20.4411 1.44772 20.8888 2 20.8888H2.74895C3.7299 20.8888 4.76516 20.3871 5.1836 19.4131L5.34926 19.0267C5.43805 18.8284 5.54277 18.7226 5.62603 18.6661C5.70887 18.6098 5.79781 18.5834 5.88964 18.5818C5.98049 18.5834 6.06588 18.6093 6.14549 18.6638C6.22625 18.7191 6.33085 18.8249 6.4212 19.0267L6.58718 19.4139C7.00562 20.3879 8.04056 20.8888 9.02152 20.8888H9.77046C10.3227 20.8888 10.7705 20.4411 10.7705 19.8888C10.7705 19.3365 10.3227 18.8888 9.77046 18.8888H9.02152C8.63448 18.8888 8.45379 18.692 8.42478 18.6244L8.25677 18.2323L8.25182 18.2211Z" stroke="none"></path></svg>