<svg width="48" height="48" viewBox="0 0 28 28" fill="#e6007a" xmlns="http://www.w3.org/2000/svg" stroke-width="2" stroke-linecap="round" stroke-linejoin="round" stroke="#e6007a"><path fill-rule="evenodd" clip-rule="evenodd" d="M12.2232 1.29582C12.6138 0.905299 13.2469 0.905299 13.6375 1.29582L16.9168 4.57517C17.3071 4.96546 17.3074 5.59817 16.9174 5.98879L13.6381 9.27364C13.2479 9.6645 12.6147 9.66503 12.2238 9.27483C11.833 8.88463 11.8325 8.25147 12.2227 7.86062L13.7957 6.28494L1.95577 6.28495C1.40349 6.28495 0.955774 5.83723 0.955773 5.28495C0.955772 4.73266 1.40349 4.28495 1.95577 4.28495L13.7981 4.28494L12.2232 2.71004C11.8327 2.31951 11.8327 1.68635 12.2232 1.29582ZM23.3671 10.6733C22.9765 10.2828 22.3434 10.2828 21.9528 10.6733L13.5396 19.0866C13.4123 19.2139 13.3217 19.3732 13.2774 19.5477L12.1307 24.0666C12.0441 24.4081 12.1435 24.77 12.3925 25.0192C12.6415 25.2685 13.0033 25.3683 13.3449 25.2821L17.868 24.1397C18.043 24.0956 18.2027 24.0049 18.3303 23.8773L26.7436 15.464C27.1341 15.0735 27.1341 14.4403 26.7436 14.0498L23.3671 10.6733ZM0.289551 24.7506C0.289551 24.1984 0.737266 23.7506 1.28955 23.7506H9.31907C9.87135 23.7506 10.3191 24.1984 10.3191 24.7506C10.3191 25.3029 9.87135 25.7506 9.31907 25.7506H1.28955C0.737266 25.7506 0.289551 25.3029 0.289551 24.7506ZM5.94223 7.86006C6.33275 8.25058 6.33275 8.88375 5.94223 9.27427L4.36996 10.8465H16.2054C16.7577 10.8465 17.2054 11.2943 17.2054 11.8465C17.2054 12.3988 16.7577 12.8465 16.2054 12.8465H4.36715L5.94282 14.4249C6.33302 14.8157 6.33249 15.4489 5.94164 15.8391C5.55079 16.2293 4.91762 16.2287 4.52742 15.8379L1.24807 12.553C0.858108 12.1624 0.858373 11.5297 1.24867 11.1394L4.52802 7.86006C4.91854 7.46954 5.5517 7.46954 5.94223 7.86006Z" stroke="none"></path></svg>