<svg width="48" height="48" viewBox="0 0 28 28" fill="#e6007a" xmlns="http://www.w3.org/2000/svg" stroke-width="2" stroke-linecap="round" stroke-linejoin="round" stroke="#e6007a"><path fill-rule="evenodd" clip-rule="evenodd" d="M24.6667 2C24.6667 1.44772 24.219 1 23.6667 1C23.1144 1 22.6667 1.44772 22.6667 2L22.6667 26C22.6667 26.5523 23.1144 27 23.6667 27C24.219 27 24.6667 26.5523 24.6667 26L24.6667 2ZM17.4444 7.22217C17.9967 7.22217 18.4444 7.66988 18.4444 8.22217L18.4444 25.9999C18.4444 26.5522 17.9967 26.9999 17.4444 26.9999C16.8922 26.9999 16.4444 26.5522 16.4444 25.9999L16.4444 8.22217C16.4444 7.66988 16.8922 7.22217 17.4444 7.22217ZM12.2222 13.5557C12.2222 13.0034 11.7745 12.5557 11.2222 12.5557C10.6699 12.5557 10.2222 13.0034 10.2222 13.5557L10.2222 26.0001C10.2222 26.5524 10.6699 27.0001 11.2222 27.0001C11.7745 27.0001 12.2222 26.5524 12.2222 26.0001L12.2222 13.5557ZM6 19.7778C6 19.2255 5.55228 18.7778 5 18.7778C4.44772 18.7778 4 19.2255 4 19.7778V26.0001C4 26.5523 4.44772 27.0001 5 27.0001C5.55229 27.0001 6 26.5523 6 26.0001L6 19.7778Z" stroke="none"></path></svg>