<svg width="48" height="48" viewBox="0 0 28 28" fill="#e6007a" xmlns="http://www.w3.org/2000/svg" stroke-width="2" stroke-linecap="round" stroke-linejoin="round" stroke="#e6007a"><path fill-rule="evenodd" clip-rule="evenodd" d="M26.7098 3.61523C27.2621 3.61523 27.7098 4.06295 27.7098 4.61523V23.108C27.7098 23.6603 27.2621 24.108 26.7098 24.108H12.4846C11.9323 24.108 11.4846 23.6603 11.4846 23.108V15.1592H8.63774V23C8.63774 23.2652 8.53238 23.5196 8.34485 23.7071C8.15731 23.8946 7.90296 24 7.63774 24H4.45972C3.90743 24 3.45972 23.5523 3.45972 23C3.45972 22.4477 3.90743 22 4.45972 22H6.63774V15.1592H4.45977C3.90748 15.1592 3.45977 14.7115 3.45977 14.1592C3.45977 13.6069 3.90748 13.1592 4.45977 13.1592H6.63774V6.18872L4.45977 6.18872C3.90748 6.18872 3.45977 5.741 3.45977 5.18872C3.45977 4.63644 3.90748 4.18872 4.45977 4.18872L7.63774 4.18872C8.19002 4.18872 8.63774 4.63644 8.63774 5.18872V13.1592H11.4846V4.61523C11.4846 4.06295 11.9323 3.61523 12.4846 3.61523H26.7098ZM2.26074 5.18896C2.26074 5.74125 1.81303 6.18896 1.26074 6.18896H1.24995C0.697666 6.18896 0.249951 5.74125 0.249951 5.18896C0.249951 4.63668 0.697667 4.18896 1.24995 4.18896H1.26074C1.81303 4.18896 2.26074 4.63668 2.26074 5.18896ZM1.26074 15.1592C1.81303 15.1592 2.26074 14.7115 2.26074 14.1592C2.26074 13.6069 1.81303 13.1592 1.26074 13.1592H1.24995C0.697667 13.1592 0.249951 13.6069 0.249951 14.1592C0.249951 14.7115 0.697666 15.1592 1.24995 15.1592H1.26074ZM2.26074 23C2.26074 23.5523 1.81303 24 1.26074 24H1.24995C0.697666 24 0.249951 23.5523 0.249951 23C0.249951 22.4477 0.697667 22 1.24995 22H1.26074C1.81303 22 2.26074 22.4477 2.26074 23ZM16.3901 9.68066C15.8379 9.68066 15.3901 9.23295 15.3901 8.68066C15.3901 8.12838 15.8379 7.68066 16.3901 7.68066H22.9999C23.5522 7.68066 23.9999 8.12838 23.9999 8.68066C23.9999 9.23295 23.5522 9.68066 22.9999 9.68066H16.3901ZM16.3901 11.6602C15.8379 11.6602 15.3901 12.1079 15.3901 12.6602C15.3901 13.2124 15.8379 13.6602 16.3901 13.6602H20.2458C20.7981 13.6602 21.2458 13.2124 21.2458 12.6602C21.2458 12.1079 20.7981 11.6602 20.2458 11.6602H16.3901ZM15.3901 19.3154C15.3901 18.7631 15.8379 18.3154 16.3901 18.3154H22.9999C23.5522 18.3154 23.9999 18.7631 23.9999 19.3154C23.9999 19.8677 23.5522 20.3154 22.9999 20.3154H16.3901C15.8379 20.3154 15.3901 19.8677 15.3901 19.3154Z" stroke="none"></path></svg>