<svg width="48" height="48" viewBox="0 0 29 29" fill="#e6007a" xmlns="http://www.w3.org/2000/svg" stroke-width="2" stroke-linecap="round" stroke-linejoin="round" stroke="#e6007a"><path d="M18.5,18l-0.9-0.2l0.6-0.7c1.5-1.8,1.4-4.5-0.3-6.1c-1.7-1.7-4.6-1.7-6.3,0c-1.7,1.6-1.8,4.3-0.3,6.1l0.6,0.7L11,18 c-3,0.8-5,3.5-5,6.6V27c0,0.6,0.4,1,1,1h15.5c0.6,0,1-0.4,1-1v-2.5C23.5,21.5,21.4,18.8,18.5,18z" stroke="none"></path><path d="M11,7.4c1,0.5,2.3,0.8,3.7,0.8c1.4,0,2.7-0.3,3.7-0.8c1.3-0.6,1.4-1.3,1.4-1.7S19.7,4.6,18.5,4c-1-0.5-2.3-0.8-3.7-0.8 C13.3,3.2,12,3.5,11,4C9.8,4.6,9.6,5.3,9.6,5.7C9.6,6.1,9.8,6.8,11,7.4z M17.4,5.7c-1.4,0.6-3.8,0.6-5.2,0 C13.5,5.1,16,5.1,17.4,5.7z" stroke="none"></path></svg>