<svg width="48" height="48" viewBox="0 0 29 29" fill="#e6007a" xmlns="http://www.w3.org/2000/svg" stroke-width="2" stroke-linecap="round" stroke-linejoin="round" stroke="#e6007a"><path fill-rule="evenodd" clip-rule="evenodd" d="M17.4685 2.4599C16.1749 1.18002 14.0921 1.18004 12.7986 2.45991C11.6027 3.64314 11.4809 5.5339 12.5151 6.86079L12.542 6.89534C10.5198 7.47908 9.12696 9.33021 9.12696 11.4357V13.1054C9.12696 13.6577 9.57468 14.1054 10.127 14.1054H13.9223V16.7258L11.7217 18.2042C11.7047 17.3672 11.3725 16.5393 10.7374 15.911C9.44385 14.6311 7.36104 14.6311 6.06749 15.911C4.87159 17.0942 4.74978 18.985 5.784 20.3119L5.81093 20.3464C3.78874 20.9301 2.39587 22.7813 2.39587 24.8868V26.5564C2.39587 27.1087 2.84359 27.5564 3.39587 27.5564H13.405C13.9573 27.5564 14.405 27.1087 14.405 26.5564V24.884C14.405 23.0404 13.3366 21.392 11.7128 20.6195L14.9262 18.4608L18.3129 20.7359C16.8168 21.55 15.8469 23.1298 15.8469 24.8868V26.5564C15.8469 27.1087 16.2946 27.5564 16.8469 27.5564H26.856C27.4083 27.5564 27.856 27.1087 27.856 26.5564V24.884C27.856 22.7803 26.4649 20.9307 24.4448 20.3467L24.4719 20.3119C25.5062 18.985 25.3844 17.0942 24.1885 15.911C22.8949 14.6311 20.8121 14.6311 19.5185 15.911C18.8139 16.6081 18.4822 17.5509 18.5401 18.4792L15.9223 16.7207V14.1054H20.1361C20.6884 14.1054 21.1361 13.6577 21.1361 13.1054V11.4329C21.1361 9.32925 19.7449 7.47962 17.7248 6.89559L17.7519 6.86081C18.7862 5.53393 18.6644 3.64315 17.4685 2.4599Z" stroke="none"></path></svg>