<svg width="48" height="48" viewBox="0 0 28 28" fill="#e6007a" xmlns="http://www.w3.org/2000/svg" stroke-width="2" stroke-linecap="round" stroke-linejoin="round" stroke="#e6007a"><path fill-rule="evenodd" clip-rule="evenodd" d="M26.2441 27.4316C26.7964 27.4316 27.2441 26.9839 27.2441 26.4316L27.2441 2.43164C27.2441 1.87936 26.7964 1.43164 26.2441 1.43164L1.99997 1.43164C1.44769 1.43164 0.999971 1.87936 0.999971 2.43164L0.999973 26.4316C0.999973 26.9839 1.44769 27.4316 1.99997 27.4316L26.2441 27.4316ZM27.2371 10.0107L1.00026 10.0107L1.00026 8.01074L27.2371 8.01074L27.2371 10.0107ZM10.0148 5.17473C9.62429 4.7842 8.99113 4.7842 8.6006 5.17473C8.21008 5.56525 8.21008 6.19842 8.6006 6.58894L8.61794 6.60628C9.00846 6.99681 9.64163 6.99681 10.0322 6.60628C10.4227 6.21576 10.4227 5.58259 10.0322 5.19207L10.0148 5.17473ZM4.77675 5.17473C5.16727 4.7842 5.80044 4.7842 6.19096 5.17473L6.2083 5.19207C6.59883 5.58259 6.59883 6.21576 6.2083 6.60628C5.81778 6.99681 5.18461 6.99681 4.79409 6.60628L4.77675 6.58894C4.38622 6.19842 4.38622 5.56525 4.77675 5.17473ZM16.178 11.6262C16.7015 11.8022 16.9831 12.3693 16.8071 12.8928L13.6015 22.4247C13.4254 22.9482 12.8584 23.2298 12.3349 23.0538C11.8114 22.8778 11.5298 22.3107 11.7058 21.7872L14.9114 12.2552C15.0874 11.7318 15.6545 11.4501 16.178 11.6262ZM18.9034 14.1838C18.4791 13.8304 17.8485 13.8878 17.495 14.3121C17.1415 14.7365 17.1989 15.367 17.6233 15.7205L19.5636 17.3369L17.624 18.9494C17.1993 19.3024 17.1413 19.9329 17.4944 20.3576C17.8474 20.7823 18.4779 20.8403 18.9026 20.4873L21.7661 18.1066C21.9945 17.9167 22.1267 17.6351 22.1268 17.3381C22.127 17.0411 21.9951 16.7594 21.7669 16.5693L18.9034 14.1838ZM10.8903 15.7298C11.3144 15.3761 11.3714 14.7455 11.0177 14.3214C10.6639 13.8973 10.0333 13.8403 9.6092 14.194L6.75525 16.5747C6.52735 16.7648 6.39567 17.0463 6.39581 17.3431C6.39596 17.6399 6.52792 17.9213 6.75601 18.1112L9.60996 20.4871C10.0344 20.8404 10.6649 20.7828 11.0183 20.3583C11.3717 19.9339 11.314 19.3033 10.8896 18.95L8.95786 17.3418L10.8903 15.7298Z" stroke="none"></path></svg>