<svg width="48" height="48" viewBox="0 0 28 28" fill="#e6007a" xmlns="http://www.w3.org/2000/svg" stroke-width="2" stroke-linecap="round" stroke-linejoin="round" stroke="#e6007a"><g><path fill-rule="evenodd" clip-rule="evenodd" d="M0.137085 14.0344C0.137085 6.44901 6.28629 0.299805 13.8717 0.299805C21.4572 0.299805 27.6064 6.44901 27.6064 14.0344C27.6064 21.6199 21.4572 27.7691 13.8717 27.7691C6.28629 27.7691 0.137085 21.6199 0.137085 14.0344ZM14.7219 7.27093C14.5406 6.97057 14.2152 6.78715 13.8644 6.7876C13.5136 6.78804 13.1887 6.97228 13.0082 7.2731L11.1024 10.4495L7.45142 11.2608C7.10496 11.3378 6.82527 11.5926 6.71648 11.9305C6.6077 12.2683 6.68613 12.6385 6.92257 12.9032L9.39512 15.6711L9.05618 19.3448C9.0238 19.6957 9.17854 20.0378 9.4635 20.2452C9.74845 20.4526 10.1215 20.4947 10.4455 20.356L13.88 18.8856L17.3261 20.3452C17.6505 20.4826 18.0232 20.4392 18.3073 20.231C18.5914 20.0227 18.745 19.6803 18.7116 19.3296L18.3617 15.6551L20.8238 12.8756C21.0593 12.6097 21.1362 12.2389 21.0256 11.9013C20.9151 11.5638 20.6338 11.3102 20.2866 11.2351L16.638 10.4462L14.7219 7.27093ZM12.5963 11.8469L13.8682 9.72716L15.1486 11.8491C15.291 12.0849 15.5243 12.2516 15.7935 12.3098L18.1935 12.8288L16.5764 14.6542C16.3926 14.8617 16.3032 15.1362 16.3295 15.4121L16.5616 17.8494L14.2679 16.8779C14.0174 16.7718 13.7345 16.7723 13.4844 16.8794L11.202 17.8565L11.4266 15.4214C11.4522 15.145 11.3616 14.8704 11.1767 14.6633L9.55065 12.8431L11.9557 12.3086C12.2235 12.2491 12.4551 12.0822 12.5963 11.8469Z" stroke="none"></path></g></svg>