<svg width="48" height="48" viewBox="0 0 28 28" fill="#e6007a" xmlns="http://www.w3.org/2000/svg" stroke-width="2" stroke-linecap="round" stroke-linejoin="round" stroke="#e6007a"><path fill-rule="evenodd" clip-rule="evenodd" d="M5.66713 6.31583C7.84351 4.86491 10.7925 4 14 4C17.2075 4 20.1565 4.86491 22.3329 6.31583C24.5023 7.76209 26 9.86991 26 12.3333C26 12.4826 25.9945 12.6306 25.9837 12.7771C25.9944 12.8358 26 12.8963 26 12.958V16C26 18.4828 24.4804 20.4812 22.2984 21.8103C20.1183 23.1382 17.1785 23.875 14 23.875C10.8215 23.875 7.88169 23.1382 5.70162 21.8103C3.51961 20.4812 2 18.4828 2 16V12.958C2 12.8963 2.0056 12.8358 2.01631 12.7771C2.0055 12.6306 2 12.4826 2 12.3333C2 9.86991 3.49773 7.76209 5.66713 6.31583ZM5.66713 18.3508C5.12251 17.9878 4.62023 17.583 4.17334 17.1414C4.52147 18.2613 5.38993 19.2787 6.74203 20.1022C8.54318 21.1993 11.1034 21.875 14 21.875C16.8966 21.875 19.4568 21.1993 21.258 20.1022C22.6101 19.2787 23.4785 18.2613 23.8267 17.1414C23.3798 17.583 22.8775 17.9878 22.3329 18.3508C20.1565 19.8018 17.2075 20.6667 14 20.6667C10.7925 20.6667 7.84351 19.8018 5.66713 18.3508ZM13.1998 9L13.1998 13.9612L11.6088 12.7402C11.1707 12.404 10.5429 12.4866 10.2067 12.9247C9.87045 13.3628 9.95304 13.9906 10.3912 14.3268L13.5692 16.7658C13.9283 17.0414 14.4277 17.0414 14.7868 16.7658L17.9648 14.3268C18.403 13.9906 18.4855 13.3628 18.1493 12.9247C17.8131 12.4866 17.1853 12.404 16.7472 12.7402L15.1998 13.9278V9C15.1998 8.44772 14.752 8 14.1998 8C13.6475 8 13.1998 8.44772 13.1998 9Z" stroke="none"></path></svg>