<svg width="48" height="48" viewBox="0 0 28 28" fill="#e6007a" xmlns="http://www.w3.org/2000/svg" stroke-width="2" stroke-linecap="round" stroke-linejoin="round" stroke="#e6007a"><path fill-rule="evenodd" clip-rule="evenodd" d="M22.2532 9.34526C20.4201 8.12322 18.0109 7.34132 15.3678 7.18279L15.3678 13.9756L16.7202 12.6233C17.1107 12.2328 17.7439 12.2328 18.1344 12.6233C18.5249 13.0138 18.5249 13.647 18.1344 14.0375L15.0747 17.0972C14.6841 17.4878 14.051 17.4878 13.6605 17.0972L10.6007 14.0375C10.2102 13.647 10.2102 13.0138 10.6007 12.6233C10.9912 12.2328 11.6244 12.2328 12.0149 12.6233L13.3678 13.9762L13.3678 7.18275C10.7245 7.34119 8.31507 8.12312 6.48187 9.34526C4.42694 10.7152 3 12.7176 3 15.0646C3 15.2696 3.01089 15.472 3.03213 15.6715C3.01116 15.7521 3 15.8367 3 15.9239V18.5201C3 20.8865 4.44882 22.7861 6.51637 24.0454C8.58198 25.3036 11.3636 25.9998 14.3675 25.9998C17.3714 25.9998 20.153 25.3036 22.2187 24.0454C24.2862 22.7861 25.735 20.8865 25.735 18.5201V15.9239C25.735 15.8367 25.7239 15.7521 25.7029 15.6715C25.7241 15.472 25.735 15.2696 25.735 15.0646C25.735 12.7176 24.3081 10.7152 22.2532 9.34526ZM13.3678 7.18266C13.6976 7.16289 14.0311 7.15283 14.3675 7.15283C14.7042 7.15283 15.0378 7.16291 15.3678 7.1827L15.3678 3C15.3678 2.44771 14.9201 2 14.3678 2C13.8156 2 13.3678 2.44772 13.3678 3L13.3678 7.18266ZM5.23889 19.8037C5.60358 20.7549 6.3829 21.6223 7.55678 22.3374C9.24347 23.3647 11.6456 23.9998 14.3675 23.9998C17.0895 23.9998 19.4916 23.3647 21.1783 22.3374C22.3521 21.6223 23.1314 20.7549 23.4961 19.8037C23.117 20.1584 22.6999 20.4861 22.2532 20.7839C20.1912 22.1586 17.4003 22.9763 14.3675 22.9763C11.3347 22.9763 8.5438 22.1586 6.48187 20.7839C6.03513 20.4861 5.61807 20.1584 5.23889 19.8037Z" stroke="none"></path></svg>