<svg width="48" height="48" viewBox="0 0 28 28" fill="#e6007a" xmlns="http://www.w3.org/2000/svg" stroke-width="2" stroke-linecap="round" stroke-linejoin="round" stroke="#e6007a"><path fill-rule="evenodd" clip-rule="evenodd" d="M13.0696 27C10.436 27 8.30114 24.8651 8.30114 22.2316C8.30114 19.598 10.436 17.4631 13.0696 17.4631C15.3601 17.4631 17.2734 19.0781 17.733 21.2315L20.9132 21.2315V10.8843L19.3525 12.4925C18.9679 12.8888 18.3348 12.8983 17.9385 12.5137C17.5421 12.129 17.5326 11.4959 17.9173 11.0996L21.1955 7.72154C21.3803 7.53121 21.633 7.42205 21.8982 7.41808C22.1634 7.41411 22.4193 7.51565 22.6096 7.70037L25.998 10.989C26.3944 11.3736 26.4038 12.0067 26.0192 12.403C25.6345 12.7993 25.0014 12.8088 24.6051 12.4242L22.9132 10.782L22.9132 22.2315C22.9132 22.7838 22.4655 23.2315 21.9132 23.2315L17.733 23.2315C17.2735 25.385 15.3601 27 13.0696 27ZM5.4036 20.5819C5.13841 20.5859 4.8825 20.4843 4.69218 20.2996L1.30376 17.011C0.907442 16.6264 0.897976 15.9933 1.28262 15.597C1.66726 15.2007 2.30035 15.1912 2.69667 15.5758L4.38863 17.218V5.76851C4.38863 5.21623 4.83635 4.76851 5.38863 4.76851L9.56856 4.76851C10.0281 2.61505 11.9414 1 14.232 1C16.8655 1 19.0004 3.1349 19.0004 5.76844C19.0004 8.40197 16.8655 10.5369 14.232 10.5369C11.9415 10.5369 10.0282 8.9219 9.56859 6.76851L6.38863 6.76851V17.1157L7.94928 15.5075C8.33391 15.1112 8.967 15.1017 9.36334 15.4863C9.75967 15.871 9.76917 16.5041 9.38454 16.9004L6.10626 20.2785C5.92155 20.4688 5.6688 20.5779 5.4036 20.5819Z" stroke="none"></path></svg>