<svg width="48" height="48" viewBox="0 0 28 28" fill="#e6007a" xmlns="http://www.w3.org/2000/svg" stroke-width="2" stroke-linecap="round" stroke-linejoin="round" stroke="#e6007a"><path fill-rule="evenodd" clip-rule="evenodd" d="M7.85812 4.59999C9.98656 2.46672 13.4428 2.46667 15.5713 4.59983C17.5595 6.59175 17.7028 9.77008 15.9037 11.9343L15.043 12.9688C14.9563 13.0731 15.0069 13.2301 15.1353 13.2657L17.2984 13.867C18.0166 14.0665 18.6449 14.4194 19.1614 14.8774L19.659 14.0457C19.8393 13.7443 20.1646 13.5595 20.5158 13.5591C20.8671 13.5586 21.1928 13.7425 21.3739 14.0434L23.0372 16.8072L26.2161 17.5105C26.5622 17.5871 26.842 17.8412 26.9513 18.1785C27.0606 18.5157 26.9832 18.8857 26.7478 19.1508L24.6049 21.5643L24.9092 24.7596C24.9426 25.1105 24.7888 25.4531 24.5044 25.6613C24.22 25.8695 23.8469 25.9126 23.5225 25.7747L20.5283 24.502L17.5366 25.7817C17.3954 25.8421 17.2449 25.8682 17.0964 25.8612H2C1.44772 25.8612 1 25.4135 1 24.8612V21.6582C1 17.8975 3.50712 14.5977 7.12995 13.5896L8.29361 13.2659C8.42439 13.2293 8.47173 13.0711 8.38679 12.9691L7.52569 11.9342C5.72615 9.77062 5.87032 6.59263 7.85812 4.59999ZM19.4993 18.2084L20.5197 16.5027L21.5452 18.2067C21.692 18.4506 21.9338 18.6176 22.2072 18.6719L24.1223 19.0956L22.8203 20.5619C22.636 20.7695 22.5463 21.0443 22.5726 21.3206L22.759 23.277L20.9182 22.4945C20.6675 22.388 20.3842 22.3883 20.1337 22.4954L18.2956 23.2817L18.4786 21.3259C18.5045 21.0494 18.4142 20.7745 18.2293 20.5672L16.9241 19.1034L18.8593 18.6709C19.127 18.6111 19.3584 18.4438 19.4993 18.2084Z" stroke="none"></path></svg>