<svg width="48" height="48" viewBox="0 0 28 28" fill="#e6007a" xmlns="http://www.w3.org/2000/svg" stroke-width="2" stroke-linecap="round" stroke-linejoin="round" stroke="#e6007a"><path fill-rule="evenodd" clip-rule="evenodd" d="M17.6075 3.92667C15.7626 2.08173 12.7713 2.08173 10.9264 3.92667C9.96391 4.88917 9.50355 6.16365 9.54531 7.42459C6.29113 9.12712 4.06775 12.5365 4.06775 16.4671C4.06775 16.5835 4.0697 16.6994 4.07358 16.8149C3.66079 17.0314 3.27329 17.3131 2.92634 17.6601C1.0814 19.505 1.0814 22.4962 2.92634 24.3412C4.50088 25.9157 6.91033 26.1465 8.72961 25.0335C10.3246 26.0663 12.227 26.6662 14.2668 26.6662C16.3072 26.6662 18.2093 26.0662 19.8041 25.0334C21.6234 26.1465 24.0329 25.9157 25.6074 24.3412C27.4524 22.4962 27.4524 19.505 25.6074 17.6601C25.2605 17.3131 24.8729 17.0314 24.4601 16.8149C24.464 16.6994 24.4659 16.5835 24.4659 16.4671C24.4659 12.5366 22.2427 9.12728 18.9886 7.42472C19.0304 6.16373 18.57 4.8892 17.6075 3.92667ZM22.4639 16.2805C22.3988 13.3681 20.8151 10.8288 18.4706 9.42595C18.2518 9.85169 17.9641 10.2511 17.6075 10.6078C15.7626 12.4527 12.7713 12.4527 10.9264 10.6078C10.5698 10.2511 10.282 9.85162 10.0633 9.42584C7.71866 10.8287 6.13488 13.368 6.06983 16.2805C7.34368 16.2276 8.63485 16.6875 9.60744 17.6601C11.2208 19.2734 11.4233 21.7634 10.2149 23.5968C11.4096 24.2775 12.7918 24.6662 14.2668 24.6662C15.7416 24.6662 17.1239 24.2776 18.3188 23.5968C17.1105 21.7634 17.313 19.2734 18.9263 17.6601C19.8989 16.6875 21.19 16.2276 22.4639 16.2805Z" stroke="none"></path></svg>