<svg width="48" height="48" viewBox="0 0 28 28" fill="#e6007a" xmlns="http://www.w3.org/2000/svg" stroke-width="2" stroke-linecap="round" stroke-linejoin="round" stroke="#e6007a"><path fill-rule="evenodd" clip-rule="evenodd" d="M3.5206 19.8536C3.01053 20.2139 3 20.4247 3 20.4334L3 20.4336C2.99998 20.4352 2.99984 20.4488 3.01375 20.4803C3.02935 20.5156 3.06335 20.5745 3.13403 20.654C3.28078 20.8193 3.53998 21.023 3.94607 21.2427C4.75676 21.6815 5.97188 22.0882 7.48346 22.4023L8.46255 22.6058L8.05563 24.5639L7.07655 24.3605C5.46843 24.0263 4.04355 23.5696 2.99417 23.0017C2.47021 22.7181 1.99435 22.3827 1.63856 21.982C1.27805 21.5761 1 21.0533 1 20.4334C1 19.4514 1.66146 18.7182 2.36664 18.2201C3.09845 17.7031 4.09244 17.2784 5.2307 16.9383C7.52004 16.2543 10.623 15.8457 14.0079 15.8457C17.3928 15.8457 20.4958 16.2543 22.7851 16.9383C23.9234 17.2784 24.9174 17.7031 25.6492 18.2201C26.3543 18.7182 27.0158 19.4514 27.0158 20.4334C27.0158 21.0522 26.7391 21.5747 26.3793 21.981C26.0243 22.3819 25.5493 22.7176 25.026 23.0013C23.9782 23.5695 22.5548 24.0263 20.9466 24.3605L19.9675 24.5639L19.5606 22.6058L20.5397 22.4023C22.0511 22.0882 23.2641 21.6816 24.0727 21.2431C24.4777 21.0235 24.7359 20.8201 24.882 20.6551C24.9524 20.5756 24.9863 20.5168 25.0019 20.4813C25.0162 20.4488 25.0158 20.435 25.0158 20.4334C25.0158 20.4247 25.0053 20.2139 24.4952 19.8536C24.0118 19.5121 23.2473 19.1637 22.2126 18.8546C20.1559 18.2401 17.2549 17.8457 14.0079 17.8457C10.7609 17.8457 7.85987 18.2401 5.80324 18.8546C4.76852 19.1637 4.00403 19.5121 3.5206 19.8536Z" stroke="none"></path><path d="M11.0109 16.9655C8.97356 17.3684 7.50525 19.1548 7.50525 21.2317V26H20.521V21.2317C20.521 19.1548 19.0527 17.3684 17.0153 16.9655C16.1358 16.9042 14.9497 16.8447 14.007 16.8447C13.036 16.8447 11.9149 16.9004 11.0109 16.9655Z"></path><path fill-rule="evenodd" clip-rule="evenodd" d="M18.0427 3.94189L19.0339 4.07419C21.183 4.36103 23.0667 4.83308 24.4427 5.4548C25.1282 5.7645 25.7391 6.13407 26.1931 6.57818C26.6495 7.02466 27.0158 7.61877 27.0158 8.34268C27.0158 9.32474 26.3543 10.0579 25.6492 10.556C24.9174 11.073 23.9234 11.4977 22.7851 11.8378C20.4958 12.5218 17.3928 12.9304 14.0079 12.9304C10.623 12.9304 7.52004 12.5218 5.2307 11.8378C4.09244 11.4977 3.09845 11.073 2.36664 10.556C1.66146 10.0579 1 9.32474 1 8.34268C1 7.61974 1.36534 7.02619 1.8209 6.57991C2.27399 6.13605 2.88365 5.76666 3.56768 5.45707C4.94082 4.8356 6.82047 4.36348 8.96533 4.07614L9.95648 3.94336L10.222 5.92565L9.23089 6.05843C7.19162 6.33162 5.52222 6.76776 4.39233 7.27914C3.82485 7.53598 3.44451 7.78915 3.22048 8.00861C2.99992 8.22468 2.99999 8.33518 3 8.34259V8.34268C3 8.35146 3.01053 8.5622 3.5206 8.92252C4.00403 9.26403 4.76852 9.61238 5.80324 9.92153C7.85987 10.536 10.7609 10.9304 14.0079 10.9304C17.2549 10.9304 20.1559 10.536 22.2126 9.92153C23.2473 9.61238 24.0118 9.26403 24.4952 8.92252C25.0053 8.5622 25.0158 8.35146 25.0158 8.34268V8.34259C25.0158 8.3352 25.0159 8.22442 24.7945 8.0079C24.5697 7.78801 24.1882 7.53448 23.6192 7.2774C22.4864 6.76556 20.8129 6.32936 18.7694 6.05661L17.7781 5.92432L18.0427 3.94189Z" stroke="none"></path><path d="M12.7953 11.9123L10.6004 9.26915C9.13584 7.5083 9.25285 4.92271 10.8712 3.30152C12.6037 1.56616 15.4149 1.56616 17.1474 3.30152C18.7658 4.92271 18.8828 7.5083 17.4182 9.26915L15.2224 11.9123C14.8232 11.9246 14.4184 11.9302 14.0088 11.9302C13.5946 11.9302 13.1992 11.9246 12.7953 11.9123Z"></path></svg>