<svg width="48" height="48" viewBox="0 0 29 29" fill="#e6007a" xmlns="http://www.w3.org/2000/svg" stroke-width="2" stroke-linecap="round" stroke-linejoin="round" stroke="#e6007a"><path fill-rule="evenodd" clip-rule="evenodd" d="M24.5442 22.4902C26.0241 22.1414 26.9687 20.6376 26.9687 19.1057C26.9687 18.0968 26.559 17.1001 25.8564 16.4375C26.3757 15.8323 26.6894 15.0456 26.6894 14.1856C26.6894 12.2747 25.1403 10.7257 23.2294 10.7257L17.5748 10.7257L19.3855 5.89175C19.9798 4.30526 19.2972 2.5247 17.7947 1.74202C16.1218 0.870589 14.0531 1.54962 13.237 3.26004C12.2304 5.36964 11.1159 7.74637 10.2534 9.59467C9.82207 10.519 9.45357 11.3117 9.1929 11.8733C9.13915 11.9891 9.08999 12.0951 9.0458 12.1904L3.9614 12.2277C3.412 12.2318 2.96875 12.6783 2.96875 13.2277L2.96875 22.372C2.96875 22.9243 3.41647 23.372 3.96875 23.372L9.05661 23.372C9.079 23.4141 9.10269 23.4579 9.1277 23.5031C9.36792 23.9371 9.73602 24.5177 10.2496 25.102C11.2769 26.2708 12.9438 27.5116 15.3464 27.5117L21.3455 27.5117C22.2208 27.5117 23.0756 27.1053 23.7 26.5219C24.3323 25.9312 24.8266 25.066 24.8266 24.0517C24.8266 23.4895 24.7321 22.9607 24.5442 22.4902Z" stroke="none"></path></svg>