<svg width="48" height="48" viewBox="0 0 29 29" fill="#e6007a" xmlns="http://www.w3.org/2000/svg" stroke-width="2" stroke-linecap="round" stroke-linejoin="round" stroke="#e6007a"><path fill-rule="evenodd" clip-rule="evenodd" d="M24.5521 6.53324C26.0319 6.88205 26.9766 8.38583 26.9766 9.9177C26.9766 10.9266 26.5668 11.9234 25.8642 12.586C26.3835 13.1912 26.6972 13.9778 26.6972 14.8378C26.6972 16.7487 25.1481 18.2978 23.2372 18.2978L17.5826 18.2978L19.3933 23.1317C19.9876 24.7182 19.3051 26.4987 17.8025 27.2814C16.1296 28.1528 14.0609 27.4738 13.2448 25.7634C12.2382 23.6538 11.1237 21.2771 10.2612 19.4288C9.82988 18.5044 9.46139 17.7117 9.20071 17.1501C9.14697 17.0343 9.0978 16.9284 9.05361 16.8331L3.96921 16.7957C3.41981 16.7917 2.97656 16.3451 2.97656 15.7957L2.97656 6.65141C2.97656 6.09913 3.42428 5.65141 3.97656 5.65141L9.06443 5.65141C9.08682 5.6093 9.11051 5.56558 9.13552 5.52039C9.37573 5.08634 9.74383 4.50577 10.2574 3.92145C11.2847 2.75268 12.9517 1.51183 15.3542 1.51177L21.3533 1.51172C22.2286 1.51172 23.0834 1.91816 23.7078 2.5015C24.3401 3.0922 24.8344 3.95741 24.8344 4.97169C24.8344 5.53392 24.7399 6.06269 24.5521 6.53324Z" stroke="none"></path></svg>