<svg width="48" height="48" viewBox="0 0 28 28" fill="#e6007a" xmlns="http://www.w3.org/2000/svg" stroke-width="2" stroke-linecap="round" stroke-linejoin="round" stroke="#e6007a"><path fill-rule="evenodd" clip-rule="evenodd" d="M16.0441 2.5463C13.9868 0.484513 10.6463 0.484566 8.58905 2.54646C6.66777 4.47242 6.52841 7.54408 8.26774 9.63525L9.09357 10.6278C9.15597 10.7027 9.12153 10.8196 9.02468 10.8467L7.90874 11.1572C4.41665 12.1288 2 15.3096 2 18.9346V22.0063C2 22.5586 2.44772 23.0063 3 23.0063H12.8888C13.2656 23.8471 13.9342 24.5542 14.7338 25.0858C15.9877 25.9196 17.6622 26.4027 19.4619 26.4027C21.2616 26.4027 22.9361 25.9196 24.1901 25.0858C25.4368 24.2568 26.3653 23.0011 26.3653 21.4776C26.3653 21.4252 26.3679 21.2928 26.3714 21.1067L26.3714 21.1064L26.3715 21.1059C26.377 20.8147 26.3851 20.3924 26.3899 19.94C26.3937 19.5843 26.3952 19.2211 26.3906 18.9275C26.3883 18.7816 26.3844 18.6436 26.3778 18.5283L26.3773 18.5202C26.3747 18.4746 26.3697 18.386 26.3546 18.287C26.3129 16.811 25.3986 15.594 24.1808 14.7842C23.1492 14.0983 21.8328 13.6496 20.3964 13.5121C19.8246 12.5336 18.8831 11.7567 17.6825 11.4232L15.608 10.8465C15.5135 10.8203 15.4758 10.7046 15.54 10.6274L16.3655 9.63539C18.1044 7.54358 17.9659 4.47158 16.0441 2.5463ZM14.7245 22.0005C14.6902 21.9778 14.6562 21.9547 14.6225 21.9313C14.7662 22.4419 15.1566 22.9652 15.8411 23.4204C16.7237 24.0072 18.0009 24.4027 19.4619 24.4027C20.9229 24.4027 22.2001 24.0072 23.0827 23.4204C23.7744 22.9605 24.1657 22.431 24.3057 21.9154C24.2645 21.9443 24.2229 21.9727 24.1809 22.0006C22.927 22.8344 21.2524 23.3175 19.4527 23.3175C19.0711 23.3175 18.6953 23.2958 18.328 23.2536C16.962 23.0969 15.7126 22.6576 14.7245 22.0005ZM19.4526 21.3175C19.1586 21.3175 18.8721 21.3014 18.5947 21.2711C17.5194 21.1531 16.5823 20.8191 15.8833 20.3659C14.9958 19.7905 14.5851 19.0967 14.5576 18.4633C14.5562 18.4322 14.5535 18.4015 14.5494 18.3713C14.5578 17.7327 14.9517 17.0349 15.8319 16.4497C16.7144 15.8628 17.9916 15.4673 19.4526 15.4673C20.9136 15.4673 22.1908 15.8628 23.0734 16.4497C23.9632 17.0413 24.356 17.7481 24.356 18.3924C24.356 19.0365 23.9631 19.7433 23.0731 20.3351C22.1904 20.922 20.9132 21.3175 19.4526 21.3175Z" stroke="none"></path></svg>