<svg width="48" height="48" viewBox="0 0 28 29" fill="#e6007a" xmlns="http://www.w3.org/2000/svg" stroke-width="2" stroke-linecap="round" stroke-linejoin="round" stroke="#e6007a"><path fill-rule="evenodd" clip-rule="evenodd" d="M14 3.08008C10.5166 3.08008 7.31755 4.01969 4.96017 5.59128C2.60981 7.15819 1 9.43266 1 12.0801C1 12.2446 1.00621 12.4076 1.01843 12.5691C1.00634 12.6313 1 12.6955 1 12.7612V16.0662C1 18.7331 2.63154 20.8878 4.99452 22.3271C7.35555 23.7653 10.5453 24.5662 14 24.5662C17.4547 24.5662 20.6445 23.7653 23.0055 22.3271C25.3685 20.8878 27 18.7331 27 16.0662V12.7612C27 12.6955 26.9937 12.6313 26.9816 12.5691C26.9938 12.4076 27 12.2446 27 12.0801C27 9.43266 25.3902 7.15819 23.0398 5.59128C20.6824 4.01969 17.4834 3.08008 14 3.08008ZM3.10679 17.0177C3.64643 17.5899 4.27152 18.1098 4.96017 18.5689C7.31755 20.1405 10.5166 21.0801 14 21.0801C17.4834 21.0801 20.6824 20.1405 23.0398 18.5689C23.7285 18.1098 24.3536 17.5899 24.8932 17.0177C24.5795 18.3928 23.5801 19.6353 21.9651 20.6191C19.983 21.8264 17.1727 22.5662 14 22.5662C10.8273 22.5662 8.01704 21.8264 6.03492 20.6191C4.4199 19.6353 3.42047 18.3928 3.10679 17.0177Z" stroke="none"></path></svg>