<svg width="48" height="48" viewBox="0 0 28 28" fill="#e6007a" xmlns="http://www.w3.org/2000/svg" stroke-width="2" stroke-linecap="round" stroke-linejoin="round" stroke="#e6007a"><path fill-rule="evenodd" clip-rule="evenodd" d="M7.03071 1.74364C8.8158 1.00423 10.7801 0.81077 12.6751 1.18772C14.5702 1.56467 16.3109 2.49509 17.6771 3.86134C18.8069 4.99108 19.6386 6.37686 20.1058 7.89422C21.623 8.36148 23.0086 9.19316 24.1382 10.3228C25.5044 11.689 26.4349 13.4297 26.8118 15.3248C27.1887 17.2198 26.9953 19.1841 26.2559 20.9692C25.5165 22.7543 24.2643 24.28 22.6578 25.3535C21.0512 26.4269 19.1625 26.9999 17.2303 26.9999C14.6393 26.9999 12.1545 25.9706 10.3224 24.1385C9.18583 23.002 8.35823 21.6142 7.89368 20.1057C6.38538 19.6411 4.99778 18.8136 3.86134 17.6771C2.02925 15.845 1 13.3602 1 10.7692C1 8.83706 1.57295 6.94828 2.64641 5.34174C3.71987 3.7352 5.24561 2.48305 7.03071 1.74364ZM16.2629 5.27556C16.9052 5.91785 17.4264 6.66421 17.8071 7.47847C16.338 7.39157 14.8621 7.63746 13.4918 8.20507C11.7067 8.94448 10.1809 10.1966 9.10747 11.8032C8.03401 13.4097 7.46106 15.2985 7.46106 17.2307C7.46106 17.4234 7.46676 17.6156 7.47806 17.8069C6.6673 17.4278 5.92056 16.9079 5.27555 16.2629C3.81854 14.8059 3 12.8298 3 10.7692C3 9.23262 3.45566 7.73052 4.30935 6.45288C5.16304 5.17524 6.37643 4.17944 7.79607 3.5914C9.21571 3.00337 10.7778 2.84951 12.2849 3.14929C13.792 3.44907 15.1764 4.18901 16.2629 5.27556ZM9.46106 17.2307C9.46106 17.6393 9.49325 18.0446 9.55624 18.4432C9.95498 18.5062 10.3604 18.5385 10.7692 18.5385C11.4168 18.5385 12.0582 18.4575 12.6793 18.3L9.63994 15.5731C9.52162 16.1149 9.46106 16.6705 9.46106 17.2307ZM15.0856 17.2291C14.9689 17.3071 14.8504 17.3817 14.7301 17.453L10.3855 13.555C10.5031 13.3361 10.6315 13.1222 10.7704 12.9143C10.9287 12.6775 11.0993 12.4503 11.2813 12.2336L15.7661 16.7184C15.5494 16.9003 15.3223 17.0709 15.0856 17.2291ZM17.9233 13.799C17.7068 14.3104 17.4371 14.7945 17.1203 15.2442L12.7555 10.8795C13.2052 10.5627 13.6894 10.293 14.2007 10.0764L17.9233 13.799ZM16.4531 9.5004L18.4995 11.5467C18.5659 10.8864 18.5477 10.2175 18.4433 9.5567C17.7824 9.45223 17.1135 9.43401 16.4531 9.5004Z" stroke="none"></path></svg>