<svg width="48" height="48" viewBox="0 0 29 29" fill="#e6007a" xmlns="http://www.w3.org/2000/svg" stroke-width="2" stroke-linecap="round" stroke-linejoin="round" stroke="#e6007a"><g><path fill-rule="evenodd" clip-rule="evenodd" d="M15.9215 3.00378C14.9342 2.90001 13.9704 2.96629 13.0578 3.17813C12.5198 3.30302 11.9824 2.96814 11.8576 2.43016C11.7327 1.89218 12.0676 1.35482 12.6055 1.22994C13.7318 0.96848 14.9192 0.887408 16.1306 1.01474C21.9842 1.63002 26.2307 6.87413 25.6154 12.7278C25.3196 15.5421 23.9999 17.8328 22.015 19.5021L23.8411 19.826C24.3849 19.9224 24.7476 20.4415 24.6511 20.9853C24.5547 21.5291 24.0357 21.8917 23.4919 21.7953L19.0626 21.0097C18.5188 20.9133 18.1562 20.3943 18.2526 19.8505L19.0382 15.4212C19.1346 14.8774 19.6536 14.5148 20.1974 14.6112C20.7412 14.7077 21.1039 15.2267 21.0074 15.7705L20.598 18.0793C22.2961 16.704 23.3836 14.8287 23.6264 12.5187C24.1262 7.76357 20.6766 3.5036 15.9215 3.00378ZM5.01319 4.38315L7.31755 4.31076C5.81165 6.01103 4.68104 7.99257 4.41752 10.4996C4.1349 13.1884 4.87902 15.7501 6.33221 17.7915L3.87558 23.6789C3.70409 24.0898 3.82504 24.5647 4.17225 24.8436C4.51945 25.1225 5.00923 25.1381 5.37356 24.882L10.5074 21.2731C11.5523 21.7608 12.6939 22.0856 13.9024 22.2127C14.599 22.2859 15.2879 22.2902 15.9621 22.2308C16.5123 22.1824 16.919 21.6971 16.8705 21.147C16.8221 20.5968 16.3368 20.1901 15.7866 20.2386C15.2398 20.2867 14.6796 20.2833 14.1115 20.2236C12.9475 20.1013 11.864 19.7544 10.8978 19.2314C10.5641 19.0509 10.157 19.0746 9.84669 19.2928L7.05358 21.2563L8.39881 18.0324C8.53955 17.6951 8.48507 17.3079 8.25671 17.0225C6.882 15.3046 6.15852 13.0685 6.40656 10.7087C6.6003 8.86548 7.38245 7.33837 8.56188 5.93L8.61968 7.76994C8.63702 8.32196 9.09858 8.75539 9.65059 8.73805C10.2026 8.72071 10.636 8.25916 10.6187 7.70714L10.4774 3.211C10.4601 2.65899 9.99855 2.22555 9.44654 2.24289L4.95039 2.38414C4.39838 2.40148 3.96494 2.86303 3.98229 3.41505C3.99963 3.96706 4.46118 4.40049 5.01319 4.38315Z" stroke="none"></path></g></svg>