<svg width="48" height="48" viewBox="0 0 28 28" fill="#e6007a" xmlns="http://www.w3.org/2000/svg" stroke-width="2" stroke-linecap="round" stroke-linejoin="round" stroke="#e6007a"><path fill-rule="evenodd" clip-rule="evenodd" d="M27 25.7583C27 26.3106 26.5523 26.7583 26 26.7583L2 26.7584C1.44772 26.7584 1 26.3106 1 25.7584V9.51318H27L27 25.7583ZM27 7.51318H1V2C1 1.44772 1.44772 1 2 1L26 1C26.5523 1 27 1.44772 27 2V7.51318ZM9.94121 4.70842C9.55068 4.3179 8.91752 4.3179 8.52699 4.70842C8.13647 5.09894 8.13647 5.73211 8.52699 6.12263L8.54416 6.1398C8.93468 6.53032 9.56785 6.53032 9.95837 6.1398C10.3489 5.74928 10.3489 5.11611 9.95837 4.72559L9.94121 4.70842ZM15.3516 21.5034C15.3516 20.9511 15.7993 20.5034 16.3516 20.5034H21.9615C22.5138 20.5034 22.9615 20.9511 22.9615 21.5034C22.9615 22.0557 22.5138 22.5034 21.9615 22.5034H16.3516C15.7993 22.5034 15.3516 22.0557 15.3516 21.5034ZM16.3516 15.772C15.7993 15.772 15.3516 16.2197 15.3516 16.772C15.3516 17.3243 15.7993 17.772 16.3516 17.772H21.9615C22.5138 17.772 22.9615 17.3243 22.9615 16.772C22.9615 16.2197 22.5138 15.772 21.9615 15.772H16.3516ZM15.3516 12.3423C15.3516 11.79 15.7993 11.3423 16.3516 11.3423H21.9615C22.5138 11.3423 22.9615 11.79 22.9615 12.3423C22.9615 12.8946 22.5138 13.3423 21.9615 13.3423H16.3516C15.7993 13.3423 15.3516 12.8946 15.3516 12.3423ZM6.08917 20.5034C5.53689 20.5034 5.08917 20.9511 5.08917 21.5034C5.08917 22.0557 5.53689 22.5034 6.08917 22.5034H11.6991C12.2514 22.5034 12.6991 22.0557 12.6991 21.5034C12.6991 20.9511 12.2514 20.5034 11.6991 20.5034H6.08917ZM12.2535 11.6352C12.441 11.8227 12.5464 12.0771 12.5464 12.3423V16.7718C12.5464 17.3241 12.0987 17.7718 11.5464 17.7718H6.24264C5.69035 17.7718 5.24264 17.3241 5.24264 16.7718V12.3423C5.24264 11.79 5.69035 11.3423 6.24264 11.3423H11.5464C11.8116 11.3423 12.066 11.4476 12.2535 11.6352ZM10.5464 13.3423H7.24264V15.7718H10.5464V13.3423ZM4.74165 4.70842C5.13218 4.3179 5.76534 4.3179 6.15587 4.70842L6.17303 4.72559C6.56356 5.11611 6.56356 5.74928 6.17303 6.1398C5.78251 6.53032 5.14934 6.53032 4.75882 6.1398L4.74165 6.12263C4.35113 5.73211 4.35113 5.09894 4.74165 4.70842Z" stroke="none"></path></svg>