<svg width="48" height="48" viewBox="0 0 28 28" fill="#e6007a" xmlns="http://www.w3.org/2000/svg" stroke-width="2" stroke-linecap="round" stroke-linejoin="round" stroke="#e6007a"><path fill-rule="evenodd" clip-rule="evenodd" d="M8.41083 2.46786C9.80126 1.54085 11.6646 1 13.673 1C15.6813 1 17.5447 1.54085 18.9351 2.46786C20.3185 3.39021 21.33 4.7742 21.33 6.43805C21.33 6.48658 21.3292 6.53488 21.3275 6.58294L21.328 6.5916L21.3284 6.5988C21.3357 6.72646 21.3401 6.88036 21.3427 7.04451C21.3478 7.37474 21.3462 7.78399 21.3419 8.18582C21.3365 8.69419 21.3274 9.17257 21.3211 9.50319L21.3211 9.50357L21.3211 9.50377C21.317 9.7155 21.3141 9.86653 21.3141 9.92587C21.3141 11.5897 20.3027 12.9737 18.9192 13.8961C17.5288 14.8231 15.6655 15.3639 13.6571 15.3639C11.6487 15.3639 9.78538 14.8231 8.39494 13.8961C7.01148 12.9737 6 11.5897 6 9.92587V6.56669C6 6.50518 6.00556 6.44494 6.01621 6.38646C6.03687 4.7456 7.04169 3.38066 8.41083 2.46786ZM13.673 11.8761C13.5885 11.8761 13.5044 11.8751 13.4205 11.8732C11.534 11.8349 9.79019 11.3188 8.46309 10.456C8.30769 10.355 8.15681 10.2483 8.01132 10.1361C8.0891 10.8598 8.56944 11.6087 9.50438 12.232C10.5232 12.9113 11.9885 13.3639 13.6571 13.3639C15.3257 13.3639 16.7909 12.9113 17.8098 12.232C18.7405 11.6115 19.2207 10.8666 19.3018 10.1459C19.1828 10.237 19.0603 10.3246 18.9347 10.4083C17.5442 11.3352 15.6809 11.8761 13.673 11.8761ZM17.947 23.0794C18.3375 22.6888 18.3375 22.0557 17.947 21.6651C17.5565 21.2746 16.9233 21.2746 16.5328 21.6651L14.6119 23.586L14.6119 18.4734C14.6119 17.9211 14.1642 17.4734 13.6119 17.4734C13.0596 17.4734 12.6119 17.9211 12.6119 18.4734L12.6119 23.5859L10.6912 21.6651C10.3006 21.2746 9.66748 21.2746 9.27696 21.6651C8.88644 22.0557 8.88644 22.6888 9.27696 23.0794L12.9049 26.7073C13.0924 26.8948 13.3468 27.0002 13.612 27.0002C13.8772 27.0002 14.1315 26.8948 14.3191 26.7073L17.947 23.0794Z" stroke="none"></path></svg>