<svg width="48" height="48" viewBox="0 0 28 28" fill="#e6007a" xmlns="http://www.w3.org/2000/svg" stroke-width="2" stroke-linecap="round" stroke-linejoin="round" stroke="#e6007a"><path d="M23.2,9.9H9.7c0-1.3,0.1-2,0.3-2.5C10.4,6,11.7,5.1,13,5c1.4-0.1,2.3,0.2,3.1,1.1c0.2,0.3,0.5,0.6,0.7,1.1 c0.2,0.5,0.8,0.8,1.3,0.6c0.5-0.2,0.8-0.8,0.6-1.3c-0.3-0.8-0.8-1.3-1.1-1.7C16,3.1,14.2,2.9,12.9,3c-2.1,0.1-4.1,1.6-4.8,3.7 C7.8,7.5,7.7,8.3,7.7,9.9H4c-0.6,0-1,0.4-1,1v13.9c0,0.6,0.4,1,1,1h19.2c0.6,0,1-0.4,1-1V10.9C24.2,10.3,23.7,9.9,23.2,9.9z" stroke="none"></path></svg>