<svg width="48" height="48" viewBox="0 0 28 28" fill="#e6007a" xmlns="http://www.w3.org/2000/svg" stroke-width="2" stroke-linecap="round" stroke-linejoin="round" stroke="#e6007a"><path fill-rule="evenodd" clip-rule="evenodd" d="M18.1344 5.76683C17.7439 6.15736 17.1107 6.15736 16.7202 5.76684L15.3673 4.41392V8.18267C18.0106 8.34112 20.42 9.12304 22.2532 10.3452C24.3081 11.7151 25.735 13.7175 25.735 16.0645C25.735 16.2695 25.7241 16.4719 25.7029 16.6714C25.7239 16.7521 25.735 16.8366 25.735 16.9238V19.52C25.735 21.8864 24.2862 23.786 22.2187 25.0454C20.153 26.3035 17.3714 26.9997 14.3675 26.9997C11.3636 26.9997 8.58198 26.3035 6.51637 25.0454C4.44882 23.786 3 21.8864 3 19.52V16.9238C3 16.8366 3.01116 16.7521 3.03213 16.6714C3.01089 16.4719 3 16.2695 3 16.0645C3 13.7175 4.42694 11.7151 6.48187 10.3452C8.31494 9.12312 10.7242 8.34121 13.3673 8.1827L13.3673 15.3903C13.3673 15.9426 13.815 16.3903 14.3673 16.3903C14.9195 16.3903 15.3673 15.9426 15.3673 15.3903V8.18267C15.0374 8.1629 14.704 8.15283 14.3675 8.15283C14.0309 8.15283 13.6973 8.16291 13.3673 8.1827V4.41449L12.0149 5.76683C11.6244 6.15736 10.9912 6.15736 10.6007 5.76683C10.2102 5.37631 10.2102 4.74314 10.6007 4.35262L13.6604 1.29289C14.051 0.902371 14.6841 0.902369 15.0746 1.29289L18.1344 4.35262C18.5249 4.74314 18.5249 5.3763 18.1344 5.76683ZM5.2389 20.8037C5.60358 21.7548 6.38289 22.6222 7.55678 23.3373C9.24347 24.3646 11.6456 24.9997 14.3675 24.9997C17.0895 24.9997 19.4916 24.3646 21.1783 23.3373C22.3521 22.6222 23.1314 21.7548 23.4961 20.8037C23.117 21.1583 22.6999 21.486 22.2532 21.7839C20.1912 23.1585 17.4003 23.9762 14.3675 23.9762C11.3347 23.9762 8.5438 23.1585 6.48187 21.7839C6.03513 21.486 5.61807 21.1583 5.2389 20.8037Z" stroke="none"></path></svg>