<svg width="48" height="48" viewBox="0 0 28 28" fill="#e6007a" xmlns="http://www.w3.org/2000/svg" stroke-width="2" stroke-linecap="round" stroke-linejoin="round" stroke="#e6007a"><path fill-rule="evenodd" clip-rule="evenodd" d="M1 14C1 6.8203 6.8203 1 14 1C21.1797 1 27 6.8203 27 14C27 21.1797 21.1797 27 14 27C6.8203 27 1 21.1797 1 14ZM10.0378 9.49054C9.64727 9.88106 9.64727 10.5142 10.0378 10.9047C10.4283 11.2953 11.0615 11.2953 11.452 10.9047L12.9998 9.35695V21.0571C12.9998 21.6094 13.4475 22.0571 13.9998 22.0571C14.5521 22.0571 14.9998 21.6094 14.9998 21.0571V9.35694L16.5476 10.9048C16.9382 11.2953 17.5713 11.2953 17.9618 10.9047C18.3524 10.5142 18.3524 9.88106 17.9618 9.49053L14.7069 6.23563C14.3164 5.8451 13.6832 5.84511 13.2927 6.23563L10.0378 9.49054Z" stroke="none"></path></svg>