<svg width="48" height="48" viewBox="0 0 28 28" fill="#e6007a" xmlns="http://www.w3.org/2000/svg" stroke-width="2" stroke-linecap="round" stroke-linejoin="round" stroke="#e6007a"><path fill-rule="evenodd" clip-rule="evenodd" d="M6.87515 3C6.32287 3 5.87515 3.44772 5.87515 4V12.5625H18.5429L15.7305 9.75008C15.3399 9.35955 15.3399 8.72639 15.7305 8.33586C16.121 7.94534 16.7542 7.94534 17.1447 8.33586L21.6601 12.8513C22.0504 13.2416 22.0507 13.8743 21.6607 14.2649L17.1453 18.788C16.7551 19.1788 16.1219 19.1794 15.7311 18.7892C15.3402 18.399 15.3397 17.7658 15.7299 17.3749L18.5376 14.5625H5.87515V23.1248C5.87515 23.6771 6.32287 24.1248 6.87515 24.1248H26C26.5523 24.1248 27 23.6771 27 23.1248V4C27 3.44772 26.5523 3 26 3H6.87515ZM0.999939 13.5625C0.999939 14.1148 1.44765 14.5625 1.99994 14.5625H5.87346V12.5625H1.99994C1.44765 12.5625 0.999939 13.0102 0.999939 13.5625Z" stroke="none"></path></svg>