<svg width="48" height="48" viewBox="0 0 28 28" fill="#e6007a" xmlns="http://www.w3.org/2000/svg" stroke-width="2" stroke-linecap="round" stroke-linejoin="round" stroke="#e6007a"><g><path fill-rule="evenodd" clip-rule="evenodd" d="M11.459 0.944413C11.1436 0.592533 10.625 0.509448 10.2155 0.745202L4.49347 4.0392C4.08924 4.2719 3.89957 4.75315 4.03633 5.19907L5.01432 8.38795L4.66665 8.99527L1.40422 9.67913C0.941069 9.77621 0.609375 10.1846 0.609375 10.6579V17.2659C0.609375 17.7326 0.932275 18.1373 1.38739 18.2409L4.6347 18.9802L4.98791 19.5894L3.95283 22.7573C3.806 23.2066 3.99392 23.6975 4.40333 23.9339L10.1253 27.2379C10.5301 27.4716 11.0427 27.3938 11.3599 27.0505L13.6009 24.6249H14.34L16.55 27.0808C16.8656 27.4315 17.3834 27.5139 17.7923 27.2785L21.087 25.3818L22.698 26.9486C22.8894 27.1348 23.1474 27.2367 23.4144 27.2316C23.6814 27.2264 23.9353 27.1147 24.1195 26.9213L26.8559 24.0471C27.2337 23.6502 27.2218 23.0233 26.8292 22.6411L23.9168 19.8052L26.5957 19.2403C27.0583 19.1428 27.3894 18.7346 27.3894 18.2619V10.7579C27.3894 10.2914 27.0669 9.88696 26.6122 9.78301L23.4248 9.05429L23.0383 8.38388L24.046 5.26313C24.1909 4.81429 24.0025 4.3252 23.5939 4.08958L17.8819 0.795579C17.4785 0.562908 16.9678 0.639579 16.6504 0.980472L14.3991 3.39886H13.659L11.459 0.944413ZM11.5234 16.0878L8.77573 13.4787C8.73453 13.7526 8.71622 14.033 8.72321 14.3176C8.78927 17.007 11.0221 19.1327 13.7115 19.0667C14.4901 19.0476 15.2252 18.8412 15.8785 18.4942C16.2621 18.2905 16.7334 18.3577 17.0448 18.6605L23.3679 24.8102L24.7255 23.3842L18.315 17.142C18.0198 16.8546 17.9311 16.4156 18.0916 16.0361C18.3456 15.4352 18.4775 14.769 18.4603 14.0685C18.3942 11.3792 16.1614 9.25341 13.472 9.31946C13.3429 9.32264 13.2153 9.33095 13.0893 9.34418L15.637 11.7633C15.8295 11.946 15.9414 12.1979 15.9481 12.4632C15.9548 12.7286 15.8557 12.9857 15.6727 13.178L12.9363 16.0522C12.5558 16.4518 11.9235 16.4678 11.5234 16.0878Z" stroke="none"></path></g></svg>