<svg width="48" height="48" viewBox="0 0 28 28" fill="#e6007a" xmlns="http://www.w3.org/2000/svg" stroke-width="2" stroke-linecap="round" stroke-linejoin="round" stroke="#e6007a"><path fill-rule="evenodd" clip-rule="evenodd" d="M5.91705 2C5.91705 1.44772 6.36477 1 6.91705 1H21.5025C22.0548 1 22.5025 1.44772 22.5025 2V6.9637C22.5025 7.51598 22.0548 7.9637 21.5025 7.9637H14.9297V11.1343H23.3961C23.6613 11.1343 23.9156 11.2396 24.1032 11.4272C24.2907 11.6147 24.3961 11.8691 24.3961 12.1343V15.2046H25.9127C26.465 15.2046 26.9127 15.6523 26.9127 16.2046V21.1022C26.9127 21.6545 26.465 22.1022 25.9127 22.1022H20.9956C20.4433 22.1022 19.9956 21.6545 19.9956 21.1022V16.2046C19.9956 15.6523 20.4433 15.2046 20.9956 15.2046H22.3961V13.1343H14.9297V20.1025H16.3883C16.9405 20.1025 17.3883 20.5503 17.3883 21.1025V26.0002C17.3883 26.5525 16.9405 27.0002 16.3883 27.0002H11.4712C10.9189 27.0002 10.4712 26.5525 10.4712 26.0002V21.1025C10.4712 20.5503 10.9189 20.1025 11.4712 20.1025H12.9297V13.1343L5.46361 13.1343V15.2046H6.91706C7.46935 15.2046 7.91706 15.6523 7.91706 16.2046V21.1022C7.91706 21.6545 7.46935 22.1022 6.91706 22.1022H2C1.44772 22.1022 1 21.6545 1 21.1022V16.2046C1 15.6523 1.44772 15.2046 2 15.2046H3.46361V12.1343C3.46361 11.582 3.91133 11.1343 4.46361 11.1343L12.9297 11.1343V7.9637H6.91705C6.36477 7.9637 5.91705 7.51598 5.91705 6.9637V2Z" stroke="none"></path></svg>