<svg width="48" height="48" viewBox="0 0 28 28" fill="#e6007a" xmlns="http://www.w3.org/2000/svg" stroke-width="2" stroke-linecap="round" stroke-linejoin="round" stroke="#e6007a"><path fill-rule="evenodd" clip-rule="evenodd" d="M14 3.76367H14.0051L13.9995 3.76377L13.994 3.76367H14ZM9.92401 15.0148V4.21024C8.05101 4.63362 6.35769 5.34319 4.96017 6.27487C2.60981 7.84178 1 10.1162 1 12.7637C1 12.9282 1.00621 13.0912 1.01843 13.2527C1.00634 13.3149 1 13.3791 1 13.4448V16.7498C1 19.4167 2.63154 21.5714 4.99452 23.0107C7.35555 24.4488 10.5453 25.2498 14 25.2498C17.4547 25.2498 20.6445 24.4488 23.0055 23.0107C25.3685 21.5714 27 19.4167 27 16.7498V13.4448C27 13.3791 26.9937 13.3149 26.9816 13.2527C26.9938 13.0912 27 12.9282 27 12.7637C27 10.1162 25.3902 7.84178 23.0398 6.27487C21.6421 5.34303 19.9484 4.63337 18.075 4.21002V15.0078C18.075 15.3434 17.9067 15.6566 17.6267 15.8418C17.3468 16.027 16.9927 16.0594 16.6838 15.9281L13.9992 14.7869L11.3173 15.9342C11.0084 16.0663 10.6537 16.0345 10.3732 15.8494C10.0928 15.6644 9.92401 15.3508 9.92401 15.0148ZM24.8932 17.7013C24.3536 18.2735 23.7285 18.7934 23.0398 19.2525C20.6824 20.8241 17.4834 21.7637 14 21.7637C10.5166 21.7637 7.31755 20.8241 4.96017 19.2525C4.27152 18.7934 3.64643 18.2735 3.10679 17.7013C3.42047 19.0763 4.4199 20.3189 6.03492 21.3026C8.01704 22.51 10.8273 23.2498 14 23.2498C17.1727 23.2498 19.983 22.51 21.9651 21.3026C23.5801 20.3189 24.5795 19.0763 24.8932 17.7013Z" stroke="none"></path></svg>