<svg width="48" height="48" viewBox="0 0 28 28" fill="#e6007a" xmlns="http://www.w3.org/2000/svg" stroke-width="2" stroke-linecap="round" stroke-linejoin="round" stroke="#e6007a"><path fill-rule="evenodd" clip-rule="evenodd" d="M27.0206 2.37534C27.3656 2.8066 27.2957 3.4359 26.8644 3.78091L21.8644 7.7809C21.6531 7.94997 21.3823 8.02616 21.1138 7.99207C20.8453 7.95799 20.6021 7.81654 20.4397 7.60004L18.9397 5.60004C18.6084 5.15821 18.6979 4.53141 19.1397 4.20004C19.5816 3.86866 20.2084 3.95821 20.5397 4.40004L21.4207 5.57464L25.615 2.21917C26.0463 1.87416 26.6756 1.94408 27.0206 2.37534ZM8.92988 14.7633L8.66178 13.7999L7.43264 14.142C3.63059 15.2001 1 18.6627 1 22.6092V25.9916C1 26.5439 1.44772 26.9916 2 26.9916H22.5276C23.0799 26.9916 23.5276 26.5439 23.5276 25.9916V22.6151C23.5276 18.6655 20.8946 15.2003 17.0894 14.1421L15.8577 13.7996C15.6818 13.7507 15.6149 13.5366 15.7316 13.3962L16.6408 12.3033C18.523 10.0404 18.3722 6.71645 16.2929 4.63328C14.0666 2.40284 10.4527 2.40284 8.22636 4.63328C6.14704 6.71645 5.99629 10.0404 7.8785 12.3033L8.78781 13.3965C8.90459 13.5369 8.8377 13.751 8.66178 13.7999L8.92988 14.7633Z" stroke="none"></path></svg>