<svg width="48" height="48" viewBox="0 0 28 29" fill="#e6007a" xmlns="http://www.w3.org/2000/svg" stroke-width="2" stroke-linecap="round" stroke-linejoin="round" stroke="#e6007a"><path fill-rule="evenodd" clip-rule="evenodd" d="M17.4173 1.8427C17.9006 1.5996 18.4895 1.78484 18.7466 2.26078L20.7693 6.00553L24.8918 6.92536C25.4291 7.04523 25.7685 7.5768 25.6511 8.11463L24.7614 12.19L27.3443 15.4558C27.5117 15.6675 27.5865 15.9379 27.5515 16.2055C27.5166 16.4732 27.3749 16.7153 27.1588 16.877L23.7861 19.3988L23.6423 23.4719C23.6329 23.7394 23.5165 23.992 23.3193 24.1731C23.1221 24.3542 22.8606 24.4487 22.5932 24.4354L18.2876 24.2209L15.4806 27.2188C15.1092 27.6154 14.4891 27.643 14.0841 27.2808L10.8742 24.411L6.70055 24.9173C6.1609 24.9828 5.6678 24.6052 5.59033 24.0671L4.99104 19.9052L1.42326 17.6728C1.19627 17.5308 1.03572 17.3037 0.977558 17.0423C0.919393 16.781 0.968472 16.5072 1.11381 16.2823L3.38019 12.7754L2.08705 8.87497C2.00209 8.61872 2.02435 8.339 2.14877 8.09942C2.27319 7.85983 2.48919 7.68072 2.74767 7.60282L6.83059 6.37226L8.3978 2.61159C8.60936 2.10392 9.19118 1.86238 9.70009 2.07096L13.7026 3.7114L17.4173 1.8427ZM19.3081 12.124C19.6964 11.7312 19.6928 11.0981 19.3 10.7098C18.9073 10.3215 18.2741 10.3251 17.8858 10.7178L12.7373 15.9252L10.2656 13.6166C9.86198 13.2396 9.22919 13.2612 8.8522 13.6648C8.47522 14.0684 8.49681 14.7012 8.90043 15.0782L12.0825 18.0503C12.478 18.4197 13.0957 18.4075 13.4762 18.0226L19.3081 12.124Z" stroke="none"></path></svg>