<svg width="48" height="48" viewBox="0 0 28 28" fill="#e6007a" xmlns="http://www.w3.org/2000/svg" stroke-width="2" stroke-linecap="round" stroke-linejoin="round" stroke="#e6007a"><path fill-rule="evenodd" clip-rule="evenodd" d="M2 24.771H19.665L19.6456 24.7104C18.4852 24.5349 17.4025 23.9931 16.5631 23.1537C15.526 22.1166 14.9433 20.7108 14.9433 19.2447C14.9433 17.7785 15.526 16.3718 16.5631 15.3357C16.5835 15.3153 16.604 15.295 16.6247 15.275L16.4703 14.7928L14.7038 14.263C13.9109 13.9896 13.6365 13.0072 14.173 12.3623L15.0876 11.2629C16.5508 9.50359 16.433 6.92021 14.817 5.30041C13.0859 3.56653 10.2772 3.56653 8.54613 5.30041C6.92916 6.92021 6.81225 9.50359 8.27554 11.2629L9.13258 12.2934C9.68037 12.9516 9.3664 13.9557 8.54142 14.1848L7.37984 14.5072C4.20059 15.3916 2 18.288 2 21.588V24.771Z" stroke="none"></path><path fill-rule="evenodd" clip-rule="evenodd" d="M9.25386 6.00678C10.5942 4.66431 12.7686 4.66424 14.109 6.00657ZM14.109 6.00657C15.3606 7.26103 15.4516 9.26123 14.3188 10.6233C14.3188 10.6232 14.3188 10.6233 14.3188 10.6233L13.4042 11.7226C12.4206 12.9051 12.9234 14.7068 14.3778 15.2083C14.3907 15.2127 14.4036 15.2169 14.4166 15.2208L16.1831 15.7505C16.7121 15.9092 17.2695 15.6089 17.4282 15.0799C17.5868 14.5509 17.2866 13.9935 16.7576 13.8348L15.0187 13.3133C14.8959 13.2629 14.8551 13.1059 14.9418 13.0017L15.8563 11.9023C17.65 9.7457 17.5054 6.57912 15.5249 4.59401C13.4032 2.46883 9.96016 2.46858 7.83845 4.59376C5.85652 6.57916 5.71321 9.74586 7.50668 11.9022C7.50667 11.9022 7.50669 11.9022 7.50668 11.9022L8.36372 12.9327C8.44698 13.0328 8.3997 13.1862 8.27383 13.2211L7.11236 13.5435C3.50044 14.5483 1 17.8388 1 21.5878V24.7709C1 25.3231 1.44772 25.7709 2 25.7709H19.665C20.2173 25.7709 20.665 25.3231 20.665 24.7709C20.665 24.2186 20.2173 23.7709 19.665 23.7709H3V21.5878C3 18.7371 4.90101 16.2349 7.64732 15.4707C7.64715 15.4707 7.64749 15.4706 7.64732 15.4707L8.8089 15.1482C10.3329 14.725 10.9134 12.8701 9.90143 11.6539C9.90153 11.654 9.90134 11.6538 9.90143 11.6539L9.04439 10.6234C7.91134 9.26108 8.0019 7.26096 9.25386 6.00678" stroke="none"></path><path fill-rule="evenodd" clip-rule="evenodd" d="M17.2702 16.0428C18.1196 15.1933 19.271 14.7168 20.4721 14.7168C21.6731 14.7168 22.8254 15.1942 23.674 16.0428C24.5235 16.8922 25 18.0436 25 19.2447C25 20.4456 24.5226 21.598 23.674 22.4466C22.8246 23.296 21.6732 23.7725 20.4721 23.7725C19.2711 23.7725 18.1188 23.2952 17.2702 22.4466C16.4204 21.5968 15.9433 20.4453 15.9433 19.2447C15.9433 18.0437 16.4206 16.8916 17.2699 16.0431L17.2702 16.0428ZM20.4721 12.7168C18.7411 12.7168 17.0811 13.4036 15.8563 14.6282L15.856 14.6285C14.6312 15.8524 13.9433 17.5135 13.9433 19.2447C13.9433 20.9762 14.6315 22.6363 15.856 23.8608C17.0798 25.0845 18.7408 25.7725 20.4721 25.7725C22.2032 25.7725 23.8634 25.0856 25.0882 23.8608C26.312 22.637 27 20.9759 27 19.2447C27 17.5135 26.313 15.8533 25.0882 14.6285C23.8645 13.4048 22.2034 12.7168 20.4721 12.7168ZM22.9953 18.6532C23.369 18.2466 23.3423 17.614 22.9357 17.2403C22.529 16.8666 21.8964 16.8933 21.5227 17.2999L19.7532 19.2254L19.1702 18.642C18.7798 18.2513 18.1466 18.2511 17.756 18.6415C17.3653 19.0319 17.3651 19.665 17.7555 20.0557L19.0761 21.3772C19.2688 21.57 19.5318 21.6758 19.8044 21.6701C20.0769 21.6644 20.3353 21.5477 20.5197 21.347L22.9953 18.6532Z" stroke="none"></path></svg>