<svg width="48" height="48" viewBox="0 0 28 28" fill="#e6007a" xmlns="http://www.w3.org/2000/svg" stroke-width="2" stroke-linecap="round" stroke-linejoin="round" stroke="#e6007a"><path fill-rule="evenodd" clip-rule="evenodd" d="M10.4234 2C10.4234 1.44772 9.97566 1 9.42337 1C8.87109 1 8.42337 1.44772 8.42337 2V2.88477H2C1.44772 2.88477 1 3.33248 1 3.88477V26.0002C1 26.5525 1.44772 27.0002 2 27.0002H26C26.5523 27.0002 27 26.5525 27 26.0002V3.88477C27 3.33248 26.5523 2.88477 26 2.88477H19.5764V6.34177C19.5764 6.89405 19.1287 7.34177 18.5764 7.34177C18.0241 7.34177 17.5764 6.89405 17.5764 6.34177V2.88477H10.4234V2ZM17.5764 2.88184H19.5764V2C19.5764 1.44772 19.1287 1 18.5764 1C18.0241 1 17.5764 1.44772 17.5764 2V2.88184ZM10.4234 6.34156C10.4234 6.89384 9.97565 7.34156 9.42337 7.34156C8.87109 7.34156 8.42337 6.89384 8.42337 6.34156V2.89014H10.4234V6.34156ZM9.91542 12C9.91542 9.79086 11.7063 8 13.9154 8H14.0846C16.2938 8 18.0846 9.79086 18.0846 12L18.0846 12.3657H20C20.5523 12.3657 21 12.8134 21 13.3657V22.093C21 22.6453 20.5523 23.093 20 23.093H8C7.44772 23.093 7 22.6453 7 22.093V13.3657C7 12.8134 7.44772 12.3657 8 12.3657H9.91541L9.91542 12ZM16.0846 12L16.0846 12.3657H11.9154L11.9154 12C11.9154 10.8954 12.8108 10 13.9154 10H14.0846C15.1892 10 16.0846 10.8954 16.0846 12ZM9 14.3657V21.093H19V14.3657H9Z" stroke="none"></path></svg>