<svg width="48" height="48" viewBox="0 0 28 28" fill="#e6007a" xmlns="http://www.w3.org/2000/svg" stroke-width="2" stroke-linecap="round" stroke-linejoin="round" stroke="#e6007a"><path fill-rule="evenodd" clip-rule="evenodd" d="M10.1211 4.45859C10.1211 2.54846 11.6696 1 13.5797 1C15.4898 1 17.0383 2.54846 17.0383 4.45859V4.47998H18.3618C18.9141 4.47998 19.3618 4.9277 19.3618 5.47998V12.4361C19.3618 12.9884 18.9141 13.4361 18.3618 13.4361H8.79722C8.24493 13.4361 7.79722 12.9884 7.79722 12.4361V5.47998C7.79722 4.9277 8.24493 4.47998 8.79722 4.47998H10.1211L10.1211 4.45859ZM15.0383 4.47998V4.45859C15.0383 3.65304 14.3852 3 13.5797 3C12.7741 3 12.1211 3.65303 12.1211 4.45859V4.47998H15.0383ZM7.00859 19.5502C7.0029 19.4681 7 19.3851 7 19.3012C7 17.8271 7.89614 16.6149 9.09309 15.8169C10.297 15.0142 11.9027 14.5503 13.6264 14.5503C15.3501 14.5503 16.9558 15.0142 18.1597 15.8169C19.3288 16.5963 20.2109 17.7709 20.2513 19.1988C20.2655 19.2937 20.2703 19.3777 20.2727 19.4203L20.2731 19.4285C20.2795 19.5396 20.2833 19.6721 20.2855 19.8117C20.2899 20.0929 20.2884 20.4404 20.2848 20.7804C20.2802 21.2143 20.2725 21.618 20.2672 21.8959L20.2672 21.896C20.2638 22.0733 20.2614 22.1993 20.2614 22.2494C20.2614 23.7235 19.3652 24.9357 18.1683 25.7337C16.9644 26.5364 15.3587 27.0003 13.635 27.0003C11.9113 27.0003 10.3056 26.5364 9.10168 25.7337C7.90473 24.9357 7.00859 23.7235 7.00859 22.2494V19.5502ZM9.10792 22.7954C9.26672 23.2321 9.62139 23.6765 10.2111 24.0697C11.0435 24.6246 12.251 25.0003 13.635 25.0003C15.019 25.0003 16.2265 24.6246 17.0588 24.0697C17.6554 23.6719 18.0115 23.2218 18.1675 22.7801C18.1648 22.7819 18.1621 22.7838 18.1594 22.7856C16.9554 23.5882 15.3498 24.0521 13.6264 24.0521C11.9097 24.0521 10.3102 23.592 9.10792 22.7954Z" stroke="none"></path></svg>