<svg width="48" height="48" viewBox="0 0 29 29" fill="#e6007a" xmlns="http://www.w3.org/2000/svg" stroke-width="2" stroke-linecap="round" stroke-linejoin="round" stroke="#e6007a"><path fill-rule="evenodd" clip-rule="evenodd" d="M1.98242 14.0742C1.98242 6.89452 7.80272 1.07422 14.9824 1.07422C22.1621 1.07422 27.9824 6.89452 27.9824 14.0742C27.9824 21.2539 22.1621 27.0742 14.9824 27.0742C7.80272 27.0742 1.98242 21.2539 1.98242 14.0742ZM13.4978 9.21722C13.1889 9.03148 12.804 9.02634 12.4902 9.20378C12.1765 9.38122 11.9825 9.71377 11.9825 10.0742V18.3003C11.9825 18.6607 12.1764 18.9932 12.4901 19.1707C12.8038 19.3481 13.1887 19.3431 13.4976 19.1574L20.3393 15.0453C20.6401 14.8645 20.8241 14.5393 20.8242 14.1883C20.8242 13.8374 20.6403 13.5121 20.3395 13.3312L13.4978 9.21722ZM13.9825 16.5325V11.8424L17.8833 14.188L13.9825 16.5325Z" stroke="none"></path></svg>