<svg width="48" height="48" viewBox="0 0 28 28" fill="#e6007a" xmlns="http://www.w3.org/2000/svg" stroke-width="2" stroke-linecap="round" stroke-linejoin="round" stroke="#e6007a"><path fill-rule="evenodd" clip-rule="evenodd" d="M16.5622 2H12.284L16.7146 6.7998H20.9928L16.5622 2ZM9.56217 2H5.28399L9.71457 6.7998H13.9928L9.56217 2ZM2.56217 2H2C1.44772 2 1 2.44772 1 3V6.7998H6.99276L2.56217 2ZM1 8.7998V24.12C1 24.6723 1.44772 25.12 2 25.12H26C26.5523 25.12 27 24.6723 27 24.12V8.7998H1ZM27 6.7998V3C27 2.44772 26.5523 2 26 2H19.284L23.7146 6.7998H27ZM13.1148 10.8081C12.8079 10.6035 12.4134 10.5844 12.0882 10.7584C11.763 10.9324 11.56 11.2713 11.56 11.6401V19.3201C11.56 19.6889 11.763 20.0278 12.0881 20.2018C12.4132 20.3758 12.8077 20.3568 13.1146 20.1522L18.8746 16.3132C19.1528 16.1277 19.32 15.8155 19.32 15.4812C19.32 15.1468 19.153 14.8346 18.8748 14.6491L13.1148 10.8081ZM13.56 17.4519V13.5089L16.5172 15.4809L13.56 17.4519Z" stroke="none"></path></svg>