<svg width="48" height="48" viewBox="0 0 28 28" fill="#e6007a" xmlns="http://www.w3.org/2000/svg" stroke-width="2" stroke-linecap="round" stroke-linejoin="round" stroke="#e6007a"><path fill-rule="evenodd" clip-rule="evenodd" d="M5.13812 3C5.13812 2.44772 5.58584 2 6.13812 2H26.0002C26.5525 2 27.0002 2.44772 27.0002 3V20.4786C27.0002 21.0309 26.5525 21.4786 26.0002 21.4786H22.8621V24.6163C22.8621 25.1686 22.4144 25.6163 21.8621 25.6163H2C1.44772 25.6163 1 25.1686 1 24.6163V12.1104H22.8621V19.4786H25.0002V4H13.9996H7.13812V6.1377H7.67284L11.2 10.1104H7.8536C7.82313 10.0606 7.78786 10.0128 7.74777 9.96763L4.34736 6.1377H5.13812V3ZM1.71059 6.18021C1.29942 6.30433 1 6.68605 1 7.1377V10.1104H5.19995L1.71059 6.18021ZM10.3474 6.1377L13.7478 9.96763C13.7879 10.0128 13.8231 10.0606 13.8536 10.1104H17.2L13.6728 6.1377H10.3474ZM16.3474 6.1377L19.7478 9.96763C19.7879 10.0128 19.8231 10.0606 19.8536 10.1104H22.8621V7.1377C22.8621 6.58541 22.4144 6.1377 21.8621 6.1377H16.3474ZM11.2942 13.4561C10.9873 13.2515 10.5928 13.2324 10.2676 13.4064C9.94239 13.5804 9.73938 13.9193 9.73938 14.2881V20.6439C9.73938 21.0127 9.94234 21.3516 10.2675 21.5256C10.5926 21.6996 10.9871 21.6806 11.294 21.4761L16.0609 18.2989C16.3391 18.1135 16.5062 17.8012 16.5063 17.4669C16.5063 17.1325 16.3392 16.8203 16.0611 16.6348L11.2942 13.4561ZM11.7394 18.7757V16.1569L13.7035 17.4666L11.7394 18.7757Z" stroke="none"></path></svg>