<svg width="48" height="48" viewBox="0 0 29 29" fill="#e6007a" xmlns="http://www.w3.org/2000/svg" stroke-width="2" stroke-linecap="round" stroke-linejoin="round" stroke="#e6007a"><path fill-rule="evenodd" clip-rule="evenodd" d="M14.9883 1.07422C7.80858 1.07422 1.98828 6.89452 1.98828 14.0742C1.98828 21.2539 7.80858 27.0742 14.9883 27.0742C22.168 27.0742 27.9883 21.2539 27.9883 14.0742C27.9883 6.89452 22.168 1.07422 14.9883 1.07422ZM17.9443 19.3023C18.4966 19.3023 18.9443 18.8546 18.9443 18.3023L18.9443 10.1177C18.9443 9.56539 18.4966 9.11767 17.9443 9.11767C17.3921 9.11766 16.9443 9.56538 16.9443 10.1177L16.9443 18.3023C16.9443 18.8546 17.392 19.3023 17.9443 19.3023ZM12.9883 18.3023C12.9883 18.8546 12.5406 19.3023 11.9883 19.3023C11.436 19.3023 10.9883 18.8546 10.9883 18.3023V10.0742C10.9883 9.52193 11.436 9.07422 11.9883 9.07422C12.5406 9.07422 12.9883 9.52193 12.9883 10.0742V18.3023Z" stroke="none"></path></svg>