<svg width="48" height="48" viewBox="0 0 28 28" fill="#e6007a" xmlns="http://www.w3.org/2000/svg" stroke-width="2" stroke-linecap="round" stroke-linejoin="round" stroke="#e6007a"><path fill-rule="evenodd" clip-rule="evenodd" d="M3.78712 12.8541C3.3966 13.2447 3.3966 13.8778 3.78712 14.2684L8.26325 18.7445H2C1.44772 18.7445 1 19.1922 1 19.7445V25.9998C1 26.5521 1.44772 26.9998 2 26.9998C2.55228 26.9998 3 26.5521 3 25.9998V20.7445H10.6088C10.6324 20.7462 10.6562 20.747 10.68 20.747L15.0523 20.747C15.0762 20.747 15.0999 20.7462 15.1236 20.7445H25.4885V25.9998C25.4885 26.5521 25.9363 26.9998 26.4885 26.9998C27.0408 26.9998 27.4885 26.5521 27.4885 25.9998V19.7445C27.4885 19.1922 27.0408 18.7445 26.4885 18.7445H17.4691L25.1345 11.079C25.525 10.6885 25.525 10.0554 25.1345 9.66483L16.7626 1.29289C16.3721 0.902369 15.7389 0.902369 15.3484 1.29289L3.78712 12.8541ZM14.5448 7.9683C14.5842 7.41742 15.0628 7.00283 15.6137 7.04228C16.1645 7.08173 16.5791 7.56028 16.5397 8.11115L16.0893 14.4002C16.0505 14.9415 15.5872 15.3531 15.0452 15.3277L12.5897 15.213C12.038 15.1872 11.6117 14.7191 11.6375 14.1674C11.6633 13.6157 12.1314 13.1894 12.6831 13.2152L14.1641 13.2844L14.5448 7.9683Z" stroke="none"></path></svg>