<svg width="48" height="48" viewBox="0 0 28 28" fill="#e6007a" xmlns="http://www.w3.org/2000/svg" stroke-width="2" stroke-linecap="round" stroke-linejoin="round" stroke="#e6007a"><path fill-rule="evenodd" clip-rule="evenodd" d="M10.4234 2C10.4234 1.44772 9.97566 1 9.42337 1C8.87109 1 8.42337 1.44772 8.42337 2V2.88477H2C1.44772 2.88477 1 3.33248 1 3.88477V26.0002C1 26.5525 1.44772 27.0002 2 27.0002H26C26.5523 27.0002 27 26.5525 27 26.0002V3.88477C27 3.33248 26.5523 2.88477 26 2.88477H19.5764V6.34177C19.5764 6.89405 19.1287 7.34177 18.5764 7.34177C18.0241 7.34177 17.5764 6.89405 17.5764 6.34177V2.88477H10.4234V2ZM17.5764 2.88184H19.5764V2C19.5764 1.44772 19.1287 1 18.5764 1C18.0241 1 17.5764 1.44772 17.5764 2V2.88184ZM9.42337 7.34156C9.97565 7.34156 10.4234 6.89384 10.4234 6.34156V2.89014H8.42337V6.34156C8.42337 6.89384 8.87109 7.34156 9.42337 7.34156ZM5.93866 18.3521C5.54813 17.9616 5.54813 17.3284 5.93866 16.9379L14.5837 8.29291C14.9742 7.90238 15.6074 7.90238 15.9979 8.29291L22.2581 14.5531C22.6486 14.9436 22.6486 15.5768 22.2581 15.9673L17.0525 21.1729H21.5273C22.0796 21.1729 22.5273 21.6206 22.5273 22.1729C22.5273 22.7251 22.0796 23.1729 21.5273 23.1729H14.6898C14.6722 23.1738 14.6546 23.1742 14.6369 23.1742H11.175C11.1573 23.1742 11.1397 23.1738 11.1221 23.1729H6C5.44772 23.1729 5 22.7251 5 22.1729C5 21.6206 5.44772 21.1729 6 21.1729H8.75938L5.93866 18.3521ZM20.1367 15.2602L14.2241 21.1729L11.5878 21.1729L8.05998 17.645L15.2908 10.4142L20.1367 15.2602Z" stroke="none"></path></svg>