<svg width="48" height="48" viewBox="0 0 29 29" fill="#e6007a" xmlns="http://www.w3.org/2000/svg" stroke-width="2" stroke-linecap="round" stroke-linejoin="round" stroke="#e6007a"><path fill-rule="evenodd" clip-rule="evenodd" d="M6 2C5.44772 2 5 2.44772 5 3V6.63672H2C1.44772 6.63672 1 7.08443 1 7.63672V24.7827C1 25.335 1.44772 25.7827 2 25.7827H22.3523C22.9046 25.7827 23.3523 25.335 23.3523 24.7827V21.2129H15.1819C12.4188 21.2129 10.179 18.973 10.179 16.21C10.179 13.4469 12.4189 11.207 15.1819 11.207H23.3523V7.63672C23.3523 7.08443 22.9046 6.63672 22.3523 6.63672H7V4H25.3523V19.146H23.3523V13.207H15.1819C13.5234 13.207 12.179 14.5515 12.179 16.21C12.179 17.8685 13.5234 19.2129 15.1819 19.2129H23.3636V21.146H26.3523C26.9046 21.146 27.3523 20.6983 27.3523 20.146V3C27.3523 2.44772 26.9046 2 26.3523 2H6ZM14.1757 15.4296C14.5663 15.0391 15.1994 15.0391 15.5899 15.4296L15.6081 15.4478C15.9986 15.8383 15.9986 16.4714 15.6081 16.862C15.2176 17.2525 14.5844 17.2525 14.1939 16.862L14.1757 16.8438C13.7852 16.4533 13.7852 15.8201 14.1757 15.4296Z" stroke="none"></path></svg>