<svg width="48" height="48" viewBox="0 0 28 28" fill="#e6007a" xmlns="http://www.w3.org/2000/svg" stroke-width="2" stroke-linecap="round" stroke-linejoin="round" stroke="#e6007a"><path fill-rule="evenodd" clip-rule="evenodd" d="M1.23975 2.18164C0.687461 2.18164 0.239746 2.62936 0.239746 3.18164V24.6814C0.239746 25.2337 0.687461 25.6814 1.23975 25.6814H26.7599C27.3122 25.6814 27.7599 25.2337 27.7599 24.6814V19.9509L17.769 19.951C14.4445 19.9511 11.7495 17.2561 11.7495 13.9316C11.7495 10.6073 14.4444 7.9123 17.7688 7.91226L27.7599 7.91211V3.18164C27.7599 2.62936 27.3122 2.18164 26.7599 2.18164H1.23975ZM27.7599 9.91211V17.9509L17.769 17.951C15.5491 17.9511 13.7495 16.1515 13.7495 13.9316C13.7495 11.7118 15.549 9.91229 17.7688 9.91226L27.7599 9.91211ZM16 13.9316C16 12.8271 16.8954 11.9316 18 11.9316C19.1046 11.9316 20 12.8271 20 13.9316C20 15.0362 19.1046 15.9316 18 15.9316C16.8954 15.9316 16 15.0362 16 13.9316Z" stroke="none"></path></svg>