<svg width="48" height="48" viewBox="0 0 28 28" fill="#e6007a" xmlns="http://www.w3.org/2000/svg" stroke-width="2" stroke-linecap="round" stroke-linejoin="round" stroke="#e6007a"><path fill-rule="evenodd" clip-rule="evenodd" d="M4 2C4 1.44772 4.44772 1 5 1H23.9449C24.4972 1 24.9449 1.44772 24.9449 2V5.25391H17.2704C14.6602 5.25391 12.5443 7.36987 12.5443 9.98004C12.5443 12.5902 14.6602 14.7062 17.2704 14.7062H24.9449V17.9603C24.9449 18.5126 24.4972 18.9603 23.9449 18.9603H15.0732V23.5206L16.4928 22.0471C16.876 21.6494 17.509 21.6376 17.9068 22.0208C18.3045 22.404 18.3163 23.037 17.9331 23.4348L14.7933 26.6937C14.6048 26.8895 14.3446 27 14.0728 26.9999C13.8009 26.9998 13.5409 26.889 13.3524 26.6931L10.2181 23.4341C9.83524 23.0361 9.84758 22.403 10.2456 22.0202C10.6437 21.6374 11.2767 21.6497 11.6596 22.0478L13.0732 23.5176V18.9603H5C4.44772 18.9603 4 18.5126 4 17.9603V2ZM17.2704 7.25391H24.9449V12.7062H17.2704C15.7648 12.7062 14.5443 11.4856 14.5443 9.98004C14.5443 8.47444 15.7648 7.25391 17.2704 7.25391ZM17.7071 9.29289C17.3166 8.90237 16.6834 8.90237 16.2929 9.29289C15.9024 9.68342 15.9024 10.3166 16.2929 10.7071L16.311 10.7252C16.7016 11.1158 17.3347 11.1158 17.7252 10.7252C18.1158 10.3347 18.1158 9.70156 17.7252 9.31103L17.7071 9.29289Z" stroke="none"></path></svg>