<svg width="48" height="48" viewBox="0 0 28 28" fill="#e6007a" xmlns="http://www.w3.org/2000/svg" stroke-width="2" stroke-linecap="round" stroke-linejoin="round" stroke="#e6007a"><path fill-rule="evenodd" clip-rule="evenodd" d="M17.1667 5.93513C17.5495 6.33319 18.1826 6.34553 18.5806 5.96269C18.9787 5.57985 18.991 4.94681 18.6082 4.54875L15.4902 1.30681C15.3018 1.11089 15.0417 1.00012 14.7699 1C14.4981 0.999883 14.2379 1.11043 14.0493 1.30619L10.926 4.54812C10.5428 4.94585 10.5546 5.57891 10.9523 5.96209C11.35 6.34527 11.9831 6.33348 12.3663 5.93575L13.7695 4.47927V9.12305H4.99995C4.44767 9.12305 3.99995 9.57076 3.99995 10.123V25.9999C3.99995 26.5522 4.44767 26.9999 4.99995 26.9999H23.8458C24.3981 26.9999 24.8458 26.5522 24.8458 25.9999V22.7683H17.2061C14.6067 22.7683 12.4995 20.6611 12.4995 18.0616C12.4995 15.4622 14.6067 13.355 17.2061 13.355H24.8458V10.123C24.8458 9.57076 24.3981 9.12305 23.8458 9.12305H15.7695V4.48236L17.1667 5.93513ZM24.8458 15.355H17.2061C15.7113 15.355 14.4995 16.5668 14.4995 18.0616C14.4995 19.5565 15.7113 20.7683 17.2061 20.7683H24.8458V15.355ZM16.2929 17.2929C16.6834 16.9024 17.3166 16.9024 17.7071 17.2929L17.7252 17.311C18.1158 17.7016 18.1158 18.3347 17.7252 18.7252C17.3347 19.1158 16.7016 19.1158 16.311 18.7252L16.2929 18.7071C15.9024 18.3166 15.9024 17.6834 16.2929 17.2929Z" stroke="none"></path></svg>