<svg width="48" height="48" viewBox="0 0 28 28" fill="#e6007a" xmlns="http://www.w3.org/2000/svg" stroke-width="2" stroke-linecap="round" stroke-linejoin="round" stroke="#e6007a"><path fill-rule="evenodd" clip-rule="evenodd" d="M3 4C3 3.44772 3.44772 3 4 3H10.237C10.5084 3 10.7682 3.11032 10.9566 3.30563C11.1451 3.50094 11.246 3.76446 11.2364 4.03569C11.1827 5.53906 12.4736 6.856 14 6.856C15.5402 6.856 16.763 5.57319 16.763 4C16.763 3.44772 17.2107 3 17.763 3H24C24.5523 3 25 3.44772 25 4V24C25 24.5523 24.5523 25 24 25H4C3.44772 25 3 24.5523 3 24V4ZM10.9787 12.795C10.8654 12.2545 10.3354 11.9082 9.79484 12.0215C9.2543 12.1348 8.90797 12.6648 9.02128 13.2054L10.3546 19.5659C10.4517 20.0291 10.8601 20.3608 11.3333 20.3608H11.4172C11.8242 20.3608 12.1906 20.1141 12.3438 19.737L14.0358 15.57L15.7411 19.7393C15.8948 20.1152 16.2606 20.3608 16.6667 20.3608H16.7194C17.1956 20.3608 17.6057 20.025 17.6997 19.5581L18.9803 13.1976C19.0893 12.6562 18.7388 12.1289 18.1974 12.0199C17.656 11.9109 17.1287 12.2614 17.0197 12.8028L16.3748 16.0057L14.9907 12.6216C14.837 12.2458 14.4712 12.0002 14.0651 12.0002H14C13.593 12.0002 13.2266 12.2469 13.0735 12.624L11.6683 16.0845L10.9787 12.795Z" stroke="none"></path></svg>