<svg width="48" height="48" viewBox="0 0 28 28" fill="#e6007a" xmlns="http://www.w3.org/2000/svg" stroke-width="2" stroke-linecap="round" stroke-linejoin="round" stroke="#e6007a"><g><path fill-rule="evenodd" clip-rule="evenodd" d="M0.278809 14.0001C0.278809 21.578 6.42197 27.7212 13.9999 27.7212C21.5779 27.7212 27.7211 21.578 27.7211 14.0001C27.7211 6.42209 21.5779 0.278927 13.9999 0.278927C6.42197 0.278927 0.278809 6.42209 0.278809 14.0001ZM17.2402 11C17.2402 10.4477 17.688 10 18.2402 10H19.3003C20.7308 10 21.8905 11.1596 21.8905 12.5901C21.8905 13.1895 21.6869 13.7414 21.345 14.1803C21.6869 14.6192 21.8905 15.1711 21.8905 15.7705C21.8905 17.201 20.7308 18.3606 19.3003 18.3606H18.2402C17.688 18.3606 17.2402 17.9129 17.2402 17.3606C17.2402 16.8083 17.688 16.3606 18.2402 16.3606H19.3003C19.6263 16.3606 19.8905 16.0964 19.8905 15.7705C19.8905 15.4445 19.6263 15.1803 19.3003 15.1803H19.0984C18.5461 15.1803 18.0984 14.7326 18.0984 14.1803C18.0984 13.628 18.5461 13.1803 19.0984 13.1803H19.3003C19.6262 13.1803 19.8905 12.9161 19.8905 12.5901C19.8905 12.2642 19.6263 12 19.3003 12H18.2402C17.688 12 17.2402 11.5523 17.2402 11ZM5.78604 10.2031C6.32553 10.0849 6.85868 10.4264 6.97686 10.9659L7.72858 14.3973L9.25966 10.7893C9.41643 10.4198 9.77888 10.1799 10.1802 10.1799H10.2483C10.6486 10.1799 11.0104 10.4187 11.1678 10.7869L12.6778 14.3197L13.3818 10.974C13.4955 10.4335 14.0258 10.0876 14.5663 10.2013C15.1067 10.315 15.4527 10.8453 15.339 11.3858L14.0007 17.7464C13.9033 18.2092 13.495 18.5405 13.0221 18.5405H12.967C12.5666 18.5405 12.2048 18.3017 12.0475 17.9335L10.2174 13.6521L8.40164 17.9311C8.24487 18.3005 7.88242 18.5405 7.48109 18.5405H7.39342C6.92359 18.5405 6.51712 18.2134 6.41658 17.7545L5.02319 11.3939C4.90501 10.8544 5.24654 10.3212 5.78604 10.2031Z" stroke="none"></path></g></svg>