<svg width="48" height="48" viewBox="0 0 28 28" fill="#e6007a" xmlns="http://www.w3.org/2000/svg" stroke-width="2" stroke-linecap="round" stroke-linejoin="round" stroke="#e6007a"><path fill-rule="evenodd" clip-rule="evenodd" d="M16 1H5C4.44772 1 4 1.44772 4 2V26C4 26.5523 4.44772 27 5 27H23.4615C24.0138 27 24.4615 26.5523 24.4615 26V9.46176H17C16.4477 9.46176 16 9.01405 16 8.46176V1ZM23.876 7.46176L18 1.58576V7.46176H23.876ZM18.131 15.6109C18.5216 16.0015 18.5216 16.6346 18.131 17.0251L15.1691 19.9871C14.7786 20.3776 14.1454 20.3776 13.7549 19.9871L10.7929 17.0251C10.4024 16.6346 10.4024 16.0015 10.7929 15.6109C11.1834 15.2204 11.8166 15.2204 12.2071 15.6109L13.462 16.8658V12C13.462 11.4477 13.9097 11 14.462 11C15.0143 11 15.462 11.4477 15.462 12L15.462 16.8658L16.7168 15.6109C17.1074 15.2204 17.7405 15.2204 18.131 15.6109Z" stroke="none"></path></svg>