<svg width="48" height="48" viewBox="0 0 28 28" fill="#e6007a" xmlns="http://www.w3.org/2000/svg" stroke-width="2" stroke-linecap="round" stroke-linejoin="round" stroke="#e6007a"><path fill-rule="evenodd" clip-rule="evenodd" d="M16 1H5C4.44772 1 4 1.44772 4 2V26C4 26.5523 4.44772 27 5 27H23.4615C24.0138 27 24.4615 26.5523 24.4615 26V9.46176H17C16.4477 9.46176 16 9.01405 16 8.46176V1ZM23.876 7.46176L18 1.58576V7.46176H23.876ZM10.7929 15.6689C10.4024 15.2783 10.4024 14.6452 10.7929 14.2546L13.7549 11.2927C14.1454 10.9022 14.7785 10.9022 15.1691 11.2927L18.131 14.2546C18.5216 14.6452 18.5216 15.2783 18.1311 15.6689C17.7405 16.0594 17.1074 16.0594 16.7168 15.6689L15.462 14.414V19.2798C15.462 19.8321 15.0142 20.2798 14.462 20.2798C13.9097 20.2798 13.462 19.8321 13.462 19.2798V14.414L12.2071 15.6689C11.8166 16.0594 11.1834 16.0594 10.7929 15.6689Z" stroke="none"></path></svg>