<svg width="48" height="48" viewBox="0 0 29 29" fill="#e6007a" xmlns="http://www.w3.org/2000/svg" stroke-width="2" stroke-linecap="round" stroke-linejoin="round" stroke="#e6007a"><path fill-rule="evenodd" clip-rule="evenodd" d="M8.80209 6.43242C10.7431 5.53281 12.857 5.06731 14.9964 5.06836C17.1358 5.06942 19.2492 5.537 21.1894 6.43852C23.1295 7.34005 24.8498 8.65382 26.2302 10.2883C26.5865 10.7102 27.2175 10.7634 27.6394 10.407C28.0613 10.0507 28.1145 9.41976 27.7581 8.99782C26.1901 7.14119 24.2361 5.64883 22.0322 4.62477C19.8283 3.6007 17.4276 3.06956 14.9974 3.06836C12.5672 3.06716 10.166 3.59594 7.96109 4.61783C5.7562 5.63973 3.80068 7.13015 2.23081 8.98524C1.87404 9.40683 1.92659 10.0378 2.34818 10.3946C2.76976 10.7513 3.40075 10.6988 3.75751 10.2772C5.13952 8.64411 6.86104 7.33203 8.80209 6.43242ZM15.0075 10.8945C11.5179 10.8945 8.55053 12.3579 6.96793 14.4197C6.63165 14.8578 6.00389 14.9403 5.56579 14.6041C5.12768 14.2678 5.04514 13.64 5.38141 13.2019C7.39996 10.5721 10.997 8.89453 15.0075 8.89453C18.9986 8.89453 22.5794 10.5559 24.6035 13.1638C24.9421 13.6001 24.863 14.2283 24.4267 14.5669C23.9904 14.9055 23.3622 14.8264 23.0236 14.3901C21.435 12.3434 18.4796 10.8945 15.0075 10.8945ZM14.9918 16.5015C15.9143 16.5 16.8256 16.703 17.6603 17.0959C18.4949 17.4887 19.2321 18.0616 19.8189 18.7734C20.1702 19.1996 20.8005 19.2603 21.2266 18.909C21.6528 18.5577 21.7134 17.9274 21.3621 17.5013C20.5874 16.5614 19.614 15.805 18.512 15.2863C17.41 14.7676 16.2067 14.4996 14.9887 14.5015C13.7707 14.5034 12.5683 14.7752 11.4679 15.2973C10.3675 15.8194 9.39649 16.5789 8.62468 17.5212C8.27471 17.9484 8.33736 18.5785 8.76461 18.9284C9.19186 19.2784 9.82192 19.2157 10.1719 18.7885C10.7564 18.0749 11.4919 17.4997 12.3253 17.1042C13.1587 16.7088 14.0694 16.5029 14.9918 16.5015ZM12.1636 23.7473C12.1636 22.1839 13.4309 20.9165 14.9943 20.9165C16.5577 20.9165 17.8251 22.1839 17.8251 23.7473C17.8251 25.3106 16.5577 26.578 14.9943 26.578C13.4309 26.578 12.1636 25.3106 12.1636 23.7473Z" stroke="none"></path></svg>