<svg width="48" height="48" viewBox="0 0 28 28" fill="#e6007a" xmlns="http://www.w3.org/2000/svg" stroke-width="2" stroke-linecap="round" stroke-linejoin="round" stroke="#e6007a"><path fill-rule="evenodd" clip-rule="evenodd" d="M25.737 25.3243C26.1102 25.7314 26.0827 26.364 25.6755 26.7371C25.2684 27.1103 24.6359 27.0828 24.2627 26.6757L14.9375 16.5028C14.6272 16.456 14.3131 16.4326 13.9976 16.4331C13.0752 16.4345 12.1645 16.6404 11.3311 17.0358C10.4977 17.4313 9.76223 18.0065 9.17768 18.7201C8.82772 19.1474 8.19766 19.21 7.77041 18.86C7.34316 18.5101 7.28051 17.88 7.63048 17.4528C8.40229 16.5105 9.3733 15.751 10.4737 15.2289C11.2997 14.837 12.1831 14.5861 13.0875 14.4846L10.2804 11.4223C8.45315 12.0358 6.9503 13.0797 5.97422 14.3514C5.63794 14.7895 5.01018 14.8721 4.57207 14.5358C4.13397 14.1995 4.05142 13.5717 4.3877 13.1336C5.4715 11.7217 7.01036 10.5842 8.82393 9.83346L6.35437 7.1394C5.00293 7.96059 3.78956 8.99622 2.76337 10.2089C2.4066 10.6304 1.77562 10.683 1.35404 10.3262C0.93245 9.96945 0.879903 9.33847 1.23667 8.91688C2.31665 7.64069 3.57915 6.53707 4.9798 5.63986L2.26267 2.67572C1.88948 2.2686 1.91698 1.63603 2.3241 1.26284C2.73122 0.889647 3.36378 0.91715 3.73698 1.32427L6.77592 4.63948C6.83939 4.60909 6.90307 4.57908 6.96695 4.54947C9.17185 3.52758 11.5731 2.9988 14.0033 3C16.4334 3.0012 18.8341 3.53234 21.038 4.55641C23.2419 5.58047 25.196 7.07283 26.764 8.92946C27.1204 9.3514 27.0672 9.98233 26.6453 10.3387C26.2233 10.695 25.5924 10.6419 25.236 10.2199C23.8556 8.58546 22.1354 7.27169 20.1952 6.37016C18.2551 5.46864 16.1417 5.00106 14.0023 5C12.0052 4.99902 10.0303 5.40459 8.19752 6.19032L10.9269 9.16784C11.9121 8.94465 12.9484 8.82625 14.0138 8.82625C18.0049 8.82625 21.5857 10.4876 23.6098 13.0955C23.9484 13.5318 23.8692 14.16 23.433 14.4986C22.9967 14.8372 22.3685 14.7581 22.0298 14.3218C20.4413 12.2751 17.4858 10.8263 14.0138 10.8263C13.5072 10.8263 13.0115 10.8571 12.5295 10.9161L15.9709 14.6704C16.5019 14.8006 17.0201 14.9837 17.5178 15.2179C18.6198 15.7366 19.5932 16.4931 20.3679 17.4329C20.7192 17.859 20.6586 18.4893 20.2324 18.8406C20.1441 18.9134 20.047 18.9685 19.9455 19.0063L25.737 25.3243ZM14.0003 20.8479C12.4369 20.8479 11.1696 22.1153 11.1696 23.6787C11.1696 25.2421 12.4369 26.5094 14.0003 26.5094C15.5637 26.5094 16.8311 25.2421 16.8311 23.6787C16.8311 22.1153 15.5637 20.8479 14.0003 20.8479Z" stroke="none"></path></svg>