<svg width="48" height="48" viewBox="0 0 28 28" fill="#e6007a" xmlns="http://www.w3.org/2000/svg" stroke-width="2" stroke-linecap="round" stroke-linejoin="round" stroke="#e6007a"><path d="M9.29544 10.0457L9.80687 9.43083C10.6797 8.38145 10.6098 6.83997 9.64556 5.87391C8.61312 4.83956 6.93717 4.83956 5.90473 5.87391C4.94046 6.83997 4.87055 8.38145 5.74341 9.43083L6.25475 10.0456C6.58137 10.4382 6.39423 11.0371 5.90214 11.174L5.20937 11.3667C3.31252 11.8942 2 13.6215 2 15.5903V17.4894H13.5456V15.587C13.5456 13.6199 12.2344 11.8939 10.3393 11.3665L9.64794 11.1741C9.1559 11.0372 8.96883 10.4384 9.29544 10.0457Z" stroke="none"></path><path fill-rule="evenodd" clip-rule="evenodd" d="M6.6125 6.58036C7.25426 5.93741 8.29603 5.93741 8.93779 6.58036C9.53719 7.18087 9.58065 8.13905 9.03807 8.79135L8.52663 9.40621C7.7361 10.3566 8.18889 11.8061 9.37984 12.1375L10.0712 12.3299C11.5337 12.7369 12.5456 14.0689 12.5456 15.587V16.4894H3V15.5903C3 14.0706 4.01313 12.7373 5.47729 12.3301L6.17006 12.1374C7.36118 11.8062 7.81415 10.3566 7.02355 9.40608L6.51222 8.79135C5.96964 8.13905 6.0131 7.18087 6.6125 6.58036ZM10.3533 5.16746C8.93021 3.74171 6.62008 3.74171 5.19697 5.16746C3.86782 6.49908 3.77145 8.62384 4.97461 10.0703L5.19326 10.3332L4.94144 10.4032C2.61192 11.051 0.999998 13.1724 0.999998 15.5903V17.4894C0.999998 18.0417 1.44771 18.4894 2 18.4894H13.5456C14.0979 18.4894 14.5456 18.0417 14.5456 17.4894V15.587C14.5456 13.1709 12.9351 11.0509 10.6074 10.4031L10.3568 10.3334L10.5757 10.0703C11.7788 8.62384 11.6825 6.49908 10.3533 5.16746ZM5.63421 10.2106C5.63406 10.2106 5.63392 10.2106 5.63377 10.2107L5.63421 10.2106ZM5.48566 10.6847C5.48575 10.6848 5.48585 10.6849 5.48594 10.685L5.48566 10.6847Z" stroke="none"></path><path d="M18.7046 10.0457L18.1932 9.43083C17.3203 8.38145 17.3902 6.83997 18.3545 5.87391C19.387 4.83956 21.0629 4.83956 22.0953 5.87391C23.0596 6.83997 23.1295 8.38145 22.2567 9.43083L21.7453 10.0456C21.4187 10.4382 21.6058 11.0371 22.0979 11.174L22.7907 11.3667C24.6876 11.8942 26.0001 13.6215 26.0001 15.5903V17.4894H14.4545V15.587C14.4545 13.6199 15.7657 11.8939 17.6608 11.3665L18.3521 11.1741C18.8442 11.0372 19.0312 10.4384 18.7046 10.0457Z" stroke="none"></path><path fill-rule="evenodd" clip-rule="evenodd" d="M21.3876 6.58036C20.7458 5.93741 19.704 5.93741 19.0623 6.58036C18.4629 7.18087 18.4194 8.13905 18.962 8.79135L19.4734 9.40621C20.264 10.3566 19.8112 11.8061 18.6202 12.1375L17.9289 12.3299C16.4664 12.7369 15.4545 14.0689 15.4545 15.587V16.4894H25.0001V15.5903C25.0001 14.0706 23.9869 12.7373 22.5228 12.3301L21.83 12.1374C20.6389 11.8062 20.1859 10.3566 20.9765 9.40608L21.4879 8.79135C22.0304 8.13905 21.987 7.18087 21.3876 6.58036ZM17.6468 5.16746C19.0699 3.74171 21.38 3.74171 22.8031 5.16746C24.1323 6.49908 24.2286 8.62384 23.0255 10.0703L22.8068 10.3332L23.0586 10.4032C25.3882 11.051 27.0001 13.1724 27.0001 15.5903V17.4894C27.0001 18.0417 26.5524 18.4894 26.0001 18.4894H14.4545C13.9022 18.4894 13.4545 18.0417 13.4545 17.4894V15.587C13.4545 13.1709 15.065 11.0509 17.3927 10.4031L17.6432 10.3334L17.4244 10.0703C16.2212 8.62384 16.3176 6.49908 17.6468 5.16746ZM22.3659 10.2106C22.366 10.2106 22.3662 10.2106 22.3663 10.2107L22.3659 10.2106ZM22.5144 10.6847C22.5143 10.6848 22.5142 10.6849 22.5141 10.685L22.5144 10.6847Z" stroke="none"></path><path fill-rule="evenodd" clip-rule="evenodd" d="M1.00025 16.4897H26.9788V25.1182C26.9788 25.6705 26.5311 26.1182 25.9788 26.1182C25.4265 26.1182 24.9788 25.6705 24.9788 25.1182V18.4897H3.00025V25.1182C3.00025 25.6705 2.55254 26.1182 2.00025 26.1182C1.44797 26.1182 1.00025 25.6705 1.00025 25.1182V16.4897Z" stroke="none"></path></svg>