<svg version="1.1" viewBox="0.0 0.0 1191.5879265091864 563.3228346456693" fill="none" stroke="none" stroke-linecap="square" stroke-miterlimit="10" xmlns:xlink="http://www.w3.org/1999/xlink" xmlns="http://www.w3.org/2000/svg"><clipPath id="p.0"><path d="m0 0l1191.5879 0l0 563.3228l-1191.5879 0l0 -563.3228z" clip-rule="nonzero"/></clipPath><g clip-path="url(#p.0)"><path fill="#000000" fill-opacity="0.0" d="m0 0l1191.5879 0l0 563.3228l-1191.5879 0z" fill-rule="evenodd"/><path fill="#none" d="m0.17060368 0.6692913l1191.244 0l0 561.98425l-1191.244 0z" fill-rule="evenodd"/><path stroke="#none" stroke-width="1.0" stroke-linejoin="round" stroke-linecap="butt" d="m0.17060368 0.6692913l1191.244 0l0 561.98425l-1191.244 0z" fill-rule="evenodd"/><path fill="#000000" fill-opacity="0.0" d="m595.79266 0.6692913l0 561.98425" fill-rule="evenodd"/><path stroke="#ffffff" stroke-width="1.0" stroke-linejoin="round" stroke-linecap="butt" stroke-dasharray="1.0,3.0" d="m595.79266 0.6692913l0 561.98425" fill-rule="evenodd"/><path fill="#8d3aed" d="m19.401423 9.760971l554.48816 0l0 42.015747l-554.48816 0z" fill-rule="evenodd"/><path stroke="#8d3aed" stroke-width="1.0" stroke-linejoin="round" stroke-linecap="butt" d="m19.401423 9.760971l554.48816 0l0 42.015747l-554.48816 0z" fill-rule="evenodd"/><path fill="#ffffff" d="m240.39157 30.165344q0 -1.890625 0.859375 -3.40625q0.859375 -1.53125 2.34375 -2.390625q1.484375 -0.859375 3.296875 -0.859375q2.125 0 3.703125 1.03125q1.59375 1.015625 2.328125 2.90625l-2.046875 0q-0.53125 -1.171875 -1.546875 -1.796875q-1.015625 -0.640625 -2.4375 -0.640625q-1.359375 0 -2.453125 0.640625q-1.078125 0.625 -1.703125 1.796875q-0.609375 1.15625 -0.609375 2.71875q0 1.546875 0.609375 2.71875q0.625 1.171875 1.703125 1.8125q1.09375 0.625 2.453125 0.625q1.421875 0 2.4375 -0.625q1.015625 -0.625 1.546875 -1.796875l2.046875 0q-0.734375 1.859375 -2.328125 2.875q-1.578125 1.015625 -3.703125 1.015625q-1.8125 0 -3.296875 -0.84375q-1.484375 -0.84375 -2.34375 -2.359375q-0.859375 -1.515625 -0.859375 -3.421875zm16.746368 -7.296875l0 13.8125l-1.7031097 0l0 -13.8125l1.7031097 0zm3.761322 1.921875q-0.484375 0 -0.828125 -0.328125q-0.328125 -0.34375 -0.328125 -0.828125q0 -0.484375 0.328125 -0.8125q0.34375 -0.34375 0.828125 -0.34375q0.46875 0 0.796875 0.34375q0.328125 0.328125 0.328125 0.8125q0 0.484375 -0.328125 0.828125q-0.328125 0.328125 -0.796875 0.328125zm0.828125 1.671875l0 10.21875l-1.703125 0l0 -10.21875l1.703125 0zm12.2144165 4.71875q0 0.484375 -0.0625 1.015625l-8.171875 0q0.09375 1.515625 1.03125 2.375q0.953125 0.84375 2.296875 0.84375q1.09375 0 1.828125 -0.515625q0.75 -0.515625 1.046875 -1.375l1.828125 0q-0.40625 1.484375 -1.640625 2.40625q-1.234375 0.921875 -3.0625 0.921875q-1.453125 0 -2.609375 -0.65625q-1.140625 -0.65625 -1.796875 -1.859375q-0.65625 -1.203125 -0.65625 -2.78125q0 -1.59375 0.640625 -2.78125q0.640625 -1.203125 1.78125 -1.84375q1.140625 -0.640625 2.640625 -0.640625q1.453125 0 2.5625 0.640625q1.125 0.625 1.734375 1.734375q0.609375 1.109375 0.609375 2.515625zm-1.75 -0.359375q0 -0.96875 -0.4375 -1.671875q-0.421875 -0.703125 -1.171875 -1.0625q-0.734375 -0.359375 -1.625 -0.359375q-1.28125 0 -2.1875 0.828125q-0.90625 0.8125 -1.03125 2.265625l6.453125 0zm8.973145 -4.546875q1.859375 0 3.015625 1.125q1.15625 1.125 1.15625 3.25l0 6.03125l-1.671875 0l0 -5.78125q0 -1.53125 -0.765625 -2.34375q-0.765625 -0.8125 -2.09375 -0.8125q-1.34375 0 -2.140625 0.84375q-0.78125 0.84375 -0.78125 2.4375l0 5.65625l-1.703125 0l0 -10.21875l1.703125 0l0 1.453125q0.5 -0.78125 1.359375 -1.203125q0.875 -0.4375 1.921875 -0.4375zm9.018127 1.578125l0 6.03125q0 0.75 0.3125 1.0625q0.328125 0.296875 1.109375 0.296875l1.25 0l0 1.4375l-1.53125 0q-1.40625 0 -2.125 -0.65625q-0.703125 -0.65625 -0.703125 -2.140625l0 -6.03125l-1.328125 0l0 -1.390625l1.328125 0l0 -2.578125l1.6875 0l0 2.578125l2.671875 0l0 1.390625l-2.671875 0zm16.053345 -8.75l-5.109375 20.75l-1.6875 0l5.09375 -20.75l1.703125 0zm17.533478 4.578125l0 13.0l-1.703125 0l0 -5.890625l-6.609375 0l0 5.890625l-1.703125 0l0 -13.0l1.703125 0l0 5.703125l6.609375 0l0 -5.703125l1.703125 0zm7.347595 13.171875q-1.4375 0 -2.609375 -0.65625q-1.15625 -0.65625 -1.828125 -1.859375q-0.65625 -1.203125 -0.65625 -2.78125q0 -1.578125 0.6875 -2.78125q0.6875 -1.203125 1.859375 -1.84375q1.171875 -0.640625 2.625 -0.640625q1.453125 0 2.625 0.640625q1.1875 0.640625 1.859375 1.84375q0.6875 1.1875 0.6875 2.78125q0 1.578125 -0.703125 2.78125q-0.703125 1.203125 -1.90625 1.859375q-1.1875 0.65625 -2.640625 0.65625zm0 -1.5q0.921875 0 1.71875 -0.421875q0.796875 -0.4375 1.296875 -1.296875q0.5 -0.859375 0.5 -2.078125q0 -1.234375 -0.484375 -2.09375q-0.484375 -0.859375 -1.28125 -1.28125q-0.78125 -0.421875 -1.6875 -0.421875q-0.9375 0 -1.71875 0.421875q-0.765625 0.421875 -1.234375 1.28125q-0.46875 0.859375 -0.46875 2.09375q0 1.25 0.453125 2.109375q0.46875 0.84375 1.234375 1.265625q0.765625 0.421875 1.671875 0.421875zm11.111877 1.5q-1.1875 0 -2.125 -0.40625q-0.921875 -0.40625 -1.46875 -1.125q-0.53125 -0.71875 -0.59375 -1.640625l1.75 0q0.078125 0.765625 0.71875 1.25q0.65625 0.484375 1.6875 0.484375q0.96875 0 1.53125 -0.421875q0.5625 -0.4375 0.5625 -1.09375q0 -0.671875 -0.59375 -1.0q-0.59375 -0.328125 -1.84375 -0.640625q-1.140625 -0.296875 -1.859375 -0.59375q-0.71875 -0.3125 -1.234375 -0.921875q-0.515625 -0.609375 -0.515625 -1.59375q0 -0.796875 0.46875 -1.4375q0.46875 -0.65625 1.328125 -1.03125q0.859375 -0.390625 1.953125 -0.390625q1.703125 0 2.75 0.859375q1.046875 0.859375 1.109375 2.34375l-1.6875 0q-0.0625 -0.796875 -0.65625 -1.28125q-0.578125 -0.484375 -1.5625 -0.484375q-0.921875 0 -1.46875 0.390625q-0.53125 0.390625 -0.53125 1.03125q0 0.5 0.328125 0.828125q0.328125 0.328125 0.8125 0.53125q0.5 0.1875 1.375 0.421875q1.109375 0.296875 1.796875 0.59375q0.6875 0.28125 1.171875 0.859375q0.5 0.578125 0.515625 1.515625q0 0.84375 -0.46875 1.515625q-0.453125 0.671875 -1.3125 1.0625q-0.84375 0.375 -1.9375 0.375zm8.176086 -9.0l0 6.03125q0 0.75 0.3125 1.0625q0.328125 0.296875 1.109375 0.296875l1.25 0l0 1.4375l-1.53125 0q-1.40625 0 -2.125 -0.65625q-0.703125 -0.65625 -0.703125 -2.140625l0 -6.03125l-1.328125 0l0 -1.390625l1.328125 0l0 -2.578125l1.6875 0l0 2.578125l2.671875 0l0 1.390625l-2.671875 0z" fill-rule="nonzero"/><path fill="#bb8ba6" d="m616.32715 9.760971l554.48816 0l0 42.015747l-554.48816 0z" fill-rule="evenodd"/><path stroke="#bb8ba6" stroke-width="1.0" stroke-linejoin="round" stroke-linecap="butt" d="m616.32715 9.760971l554.48816 0l0 42.015747l-554.48816 0z" fill-rule="evenodd"/><path fill="#ffffff" d="m863.1594 36.68097l-3.09375 -5.3125l-2.046875 0l0 5.3125l-1.703125 0l0 -13.0l4.203125 0q1.46875 0 2.484375 0.5q1.015625 0.5 1.515625 1.359375q0.515625 0.859375 0.515625 1.96875q0 1.34375 -0.78125 2.375q-0.78125 1.015625 -2.328125 1.34375l3.265625 5.453125l-2.03125 0zm-5.140625 -6.671875l2.5 0q1.375 0 2.0625 -0.6875q0.6875 -0.6875 0.6875 -1.8125q0 -1.15625 -0.6875 -1.796875q-0.671875 -0.640625 -2.0625 -0.640625l-2.5 0l0 4.9375zm18.702393 -3.546875l0 10.21875l-1.6875 0l0 -1.515625q-0.484375 0.78125 -1.359375 1.234375q-0.875 0.4375 -1.90625 0.4375q-1.203125 0 -2.15625 -0.5q-0.953125 -0.5 -1.5 -1.484375q-0.546875 -0.984375 -0.546875 -2.40625l0 -5.984375l1.671875 0l0 5.765625q0 1.5 0.765625 2.3125q0.765625 0.8125 2.09375 0.8125q1.359375 0 2.140625 -0.828125q0.796875 -0.84375 0.796875 -2.453125l0 -5.609375l1.6875 0zm7.8618774 -0.1875q1.859375 0 3.015625 1.125q1.15625 1.125 1.15625 3.25l0 6.03125l-1.671875 0l0 -5.78125q0 -1.53125 -0.765625 -2.34375q-0.765625 -0.8125 -2.09375 -0.8125q-1.34375 0 -2.140625 0.84375q-0.78125 0.84375 -0.78125 2.4375l0 5.65625l-1.703125 0l0 -10.21875l1.703125 0l0 1.453125q0.5 -0.78125 1.359375 -1.203125q0.875 -0.4375 1.921875 -0.4375zm9.018127 1.578125l0 6.03125q0 0.75 0.3125 1.0625q0.328125 0.296875 1.109375 0.296875l1.25 0l0 1.4375l-1.53125 0q-1.40625 0 -2.125 -0.65625q-0.703125 -0.65625 -0.703125 -2.140625l0 -6.03125l-1.328125 0l0 -1.390625l1.328125 0l0 -2.578125l1.6875 0l0 2.578125l2.671875 0l0 1.390625l-2.671875 0zm5.6033325 -3.0625q-0.484375 0 -0.828125 -0.328125q-0.328125 -0.34375 -0.328125 -0.828125q0 -0.484375 0.328125 -0.8125q0.34375 -0.34375 0.828125 -0.34375q0.46875 0 0.796875 0.34375q0.328125 0.328125 0.328125 0.8125q0 0.484375 -0.328125 0.828125q-0.328125 0.328125 -0.796875 0.328125zm0.828125 1.671875l0 10.21875l-1.703125 0l0 -10.21875l1.703125 0zm15.183228 -0.1875q1.1875 0 2.125 0.5q0.9375 0.484375 1.46875 1.484375q0.546875 0.984375 0.546875 2.390625l0 6.03125l-1.6875 0l0 -5.78125q0 -1.53125 -0.75 -2.34375q-0.75 -0.8125 -2.046875 -0.8125q-1.3125 0 -2.109375 0.859375q-0.78125 0.84375 -0.78125 2.4375l0 5.640625l-1.671875 0l0 -5.78125q0 -1.53125 -0.765625 -2.34375q-0.75 -0.8125 -2.03125 -0.8125q-1.328125 0 -2.109375 0.859375q-0.78125 0.84375 -0.78125 2.4375l0 5.640625l-1.703125 0l0 -10.21875l1.703125 0l0 1.46875q0.5 -0.796875 1.34375 -1.21875q0.84375 -0.4375 1.875 -0.4375q1.296875 0 2.28125 0.578125q0.984375 0.578125 1.46875 1.6875q0.4375 -1.078125 1.421875 -1.671875q0.984375 -0.59375 2.203125 -0.59375zm16.247192 4.90625q0 0.484375 -0.0625 1.015625l-8.171875 0q0.09375 1.515625 1.03125 2.375q0.953125 0.84375 2.296875 0.84375q1.09375 0 1.828125 -0.515625q0.75 -0.515625 1.046875 -1.375l1.828125 0q-0.40625 1.484375 -1.640625 2.40625q-1.234375 0.921875 -3.0625 0.921875q-1.453125 0 -2.609375 -0.65625q-1.140625 -0.65625 -1.796875 -1.859375q-0.65625 -1.203125 -0.65625 -2.78125q0 -1.59375 0.640625 -2.78125q0.640625 -1.203125 1.78125 -1.84375q1.140625 -0.640625 2.640625 -0.640625q1.453125 0 2.5625 0.640625q1.125 0.625 1.734375 1.734375q0.609375 1.109375 0.609375 2.515625zm-1.75 -0.359375q0 -0.96875 -0.4375 -1.671875q-0.421875 -0.703125 -1.171875 -1.0625q-0.734375 -0.359375 -1.625 -0.359375q-1.28125 0 -2.1875 0.828125q-0.90625 0.8125 -1.03125 2.265625l6.453125 0z" fill-rule="nonzero"/><path fill="#000000" fill-opacity="0.0" d="m19.370173 97.147095l0 0c0 -16.667442 13.511637 -30.179077 30.179083 -30.179077l150.19302 0c8.003983 0 15.680145 3.1795654 21.339828 8.839241c5.659668 5.6596756 8.839249 13.335846 8.839249 21.339836l0 120.71271c0 16.66745 -13.511642 30.179077 -30.179077 30.179077l-150.19302 0c-16.667446 0 -30.179083 -13.511627 -30.179083 -30.179077z" fill-rule="evenodd"/><path stroke="#8d3aed" stroke-width="1.0" stroke-linejoin="round" stroke-linecap="butt" d="m19.370173 97.147095l0 0c0 -16.667442 13.511637 -30.179077 30.179083 -30.179077l150.19302 0c8.003983 0 15.680145 3.1795654 21.339828 8.839241c5.659668 5.6596756 8.839249 13.335846 8.839249 21.339836l0 120.71271c0 16.66745 -13.511642 30.179077 -30.179077 30.179077l-150.19302 0c-16.667446 0 -30.179083 -13.511627 -30.179083 -30.179077z" fill-rule="evenodd"/><path fill="#000000" fill-opacity="0.0" d="m20.880974 448.07248l0 0c0 -8.822235 7.1518364 -15.97406 15.9740715 -15.97406l160.61879 0c4.2365875 0 8.299652 1.6829529 11.29538 4.6786804c2.9957123 2.9957275 4.6786957 7.058777 4.6786957 11.29538l0 63.89438c0 8.822205 -7.15184 15.97406 -15.974075 15.97406l-160.61879 0l0 0c-8.822235 0 -15.9740715 -7.1518555 -15.9740715 -15.97406z" fill-rule="evenodd"/><path stroke="#8d3aed" stroke-width="1.0" stroke-linejoin="round" stroke-linecap="butt" d="m20.880974 448.07248l0 0c0 -8.822235 7.1518364 -15.97406 15.9740715 -15.97406l160.61879 0c4.2365875 0 8.299652 1.6829529 11.29538 4.6786804c2.9957123 2.9957275 4.6786957 7.058777 4.6786957 11.29538l0 63.89438c0 8.822205 -7.15184 15.97406 -15.974075 15.97406l-160.61879 0l0 0c-8.822235 0 -15.9740715 -7.1518555 -15.9740715 -15.97406z" fill-rule="evenodd"/><path fill="#000000" fill-opacity="0.0" d="m19.400515 292.14352l0 0c0 -13.234802 10.7289295 -23.963745 23.963736 -23.963745l147.6001 0c6.3555756 0 12.450851 2.5247498 16.944916 7.0188293c4.4940796 4.494049 7.018814 10.589325 7.018814 16.944916l0 95.85205c0 13.234802 -10.728928 23.963745 -23.96373 23.963745l-147.6001 0c-13.234806 0 -23.963736 -10.728943 -23.963736 -23.963745z" fill-rule="evenodd"/><path stroke="#8d3aed" stroke-width="1.0" stroke-linejoin="round" stroke-linecap="butt" d="m19.400515 292.14352l0 0c0 -13.234802 10.7289295 -23.963745 23.963736 -23.963745l147.6001 0c6.3555756 0 12.450851 2.5247498 16.944916 7.0188293c4.4940796 4.494049 7.018814 10.589325 7.018814 16.944916l0 95.85205c0 13.234802 -10.728928 23.963745 -23.96373 23.963745l-147.6001 0c-13.234806 0 -23.963736 -10.728943 -23.963736 -23.963745z" fill-rule="evenodd"/><path fill="#000000" fill-opacity="0.0" d="m908.6879 140.47911l0 0c0 -23.486351 19.039429 -42.525787 42.525818 -42.525787l170.09802 0l0 0c11.278564 0 22.095093 4.480377 30.070312 12.455513c7.9750977 7.975128 12.455444 18.791725 12.455444 30.070274l0 333.94055c0 23.486359 -19.039429 42.525787 -42.525757 42.525787l-170.09802 0c-23.48639 0 -42.525818 -19.039429 -42.525818 -42.525787z" fill-rule="evenodd"/><path stroke="#bb8ba6" stroke-width="1.0" stroke-linejoin="round" stroke-linecap="butt" d="m908.6879 140.47911l0 0c0 -23.486351 19.039429 -42.525787 42.525818 -42.525787l170.09802 0l0 0c11.278564 0 22.095093 4.480377 30.070312 12.455513c7.9750977 7.975128 12.455444 18.791725 12.455444 30.070274l0 333.94055c0 23.486359 -19.039429 42.525787 -42.525757 42.525787l-170.09802 0c-23.48639 0 -42.525818 -19.039429 -42.525818 -42.525787z" fill-rule="evenodd"/><path fill="#000000" fill-opacity="0.0" d="m240.99475 100.75916l0 0c0 -10.26313 8.319916 -18.583046 18.583038 -18.583046l295.77878 0c4.928528 0 9.655212 1.9578552 13.140198 5.442848c3.4850464 3.4850006 5.442871 8.21167 5.442871 13.140198l0 74.32996c0 10.263138 -8.319946 18.583054 -18.583069 18.583054l-295.77878 0c-10.263123 0 -18.583038 -8.319916 -18.583038 -18.583054z" fill-rule="evenodd"/><path stroke="#8d3aed" stroke-width="1.0" stroke-linejoin="round" stroke-linecap="butt" d="m240.99475 100.75916l0 0c0 -10.26313 8.319916 -18.583046 18.583038 -18.583046l295.77878 0c4.928528 0 9.655212 1.9578552 13.140198 5.442848c3.4850464 3.4850006 5.442871 8.21167 5.442871 13.140198l0 74.32996c0 10.263138 -8.319946 18.583054 -18.583069 18.583054l-295.77878 0c-10.263123 0 -18.583038 -8.319916 -18.583038 -18.583054z" fill-rule="evenodd"/><path fill="#000000" fill-opacity="0.0" d="m238.18898 224.12607l0 0c0 -10.761795 8.724152 -19.485947 19.485947 -19.485947l77.94147 0l0 0c5.1679993 0 10.124329 2.0529785 13.778656 5.707306c3.6543274 3.6543121 5.707306 8.6106415 5.707306 13.778641l0 284.33517c0 10.76178 -8.724152 19.485962 -19.485962 19.485962l-77.94147 0c-10.761795 0 -19.485947 -8.724182 -19.485947 -19.485962z" fill-rule="evenodd"/><path stroke="#8d3aed" stroke-width="1.0" stroke-linejoin="round" stroke-linecap="butt" d="m238.18898 224.12607l0 0c0 -10.761795 8.724152 -19.485947 19.485947 -19.485947l77.94147 0l0 0c5.1679993 0 10.124329 2.0529785 13.778656 5.707306c3.6543274 3.6543121 5.707306 8.6106415 5.707306 13.778641l0 284.33517c0 10.76178 -8.724152 19.485962 -19.485962 19.485962l-77.94147 0c-10.761795 0 -19.485947 -8.724182 -19.485947 -19.485962z" fill-rule="evenodd"/><path fill="#000000" fill-opacity="0.0" d="m626.2525 247.16415l0 0c0 -23.486343 19.03949 -42.525787 42.525818 -42.525787l170.09802 0l0 0c11.278564 0 22.095154 4.480377 30.070251 12.455521c7.9751587 7.975128 12.455566 18.791718 12.455566 30.070267l0 227.29489c0 23.486328 -19.03949 42.525757 -42.525818 42.525757l-170.09802 0c-23.486328 0 -42.525818 -19.039429 -42.525818 -42.525757z" fill-rule="evenodd"/><path stroke="#bb8ba6" stroke-width="1.0" stroke-linejoin="round" stroke-linecap="butt" d="m626.2525 247.16415l0 0c0 -23.486343 19.03949 -42.525787 42.525818 -42.525787l170.09802 0l0 0c11.278564 0 22.095154 4.480377 30.070251 12.455521c7.9751587 7.975128 12.455566 18.791718 12.455566 30.070267l0 227.29489c0 23.486328 -19.03949 42.525757 -42.525818 42.525757l-170.09802 0c-23.486328 0 -42.525818 -19.039429 -42.525818 -42.525757z" fill-rule="evenodd"/><path fill="#000000" fill-opacity="0.0" d="m370.40158 238.54945l0 0c0 -18.728775 15.182648 -33.911438 33.911438 -33.911438l135.6417 0l0 0c8.993835 0 17.619385 3.5727997 23.979004 9.932434c6.359619 6.359619 9.932434 14.985138 9.932434 23.979004l0 255.4842c0 18.72879 -15.182678 33.91147 -33.911438 33.91147l-135.6417 0c-18.72879 0 -33.911438 -15.182678 -33.911438 -33.91147z" fill-rule="evenodd"/><path stroke="#8d3aed" stroke-width="1.0" stroke-linejoin="round" stroke-linecap="butt" d="m370.40158 238.54945l0 0c0 -18.728775 15.182648 -33.911438 33.911438 -33.911438l135.6417 0l0 0c8.993835 0 17.619385 3.5727997 23.979004 9.932434c6.359619 6.359619 9.932434 14.985138 9.932434 23.979004l0 255.4842c0 18.72879 -15.182678 33.91147 -33.911438 33.91147l-135.6417 0c-18.72879 0 -33.911438 -15.182678 -33.911438 -33.91147z" fill-rule="evenodd"/><path fill="#000000" fill-opacity="0.0" d="m472.13385 266.23712l0 0l0 25.992035l0 0l0 -25.992035z" fill-rule="nonzero"/><path fill="#000000" fill-opacity="0.0" d="m472.13385 287.23712l0 0l0 25.992035l0 0l0 -25.992035z" fill-rule="nonzero"/><path fill="#000000" fill-opacity="0.0" d="m472.13385 308.23712l0 0l0 25.992035l0 0l0 -25.992035z" fill-rule="nonzero"/><path fill="#000000" fill-opacity="0.0" d="m472.13385 329.23712l0 0l0 25.992035l0 0l0 -25.992035z" fill-rule="nonzero"/><path fill="#000000" fill-opacity="0.0" d="m472.13385 350.23712l0 0l0 25.992035l0 0l0 -25.992035z" fill-rule="nonzero"/><path fill="#000000" fill-opacity="0.0" d="m472.13385 371.23712l0 0l0 25.992035l0 0l0 -25.992035z" fill-rule="nonzero"/><path fill="#000000" fill-opacity="0.0" d="m472.13385 392.23712l0 0l0 25.992035l0 0l0 -25.992035z" fill-rule="nonzero"/><path fill="#000000" fill-opacity="0.0" d="m472.13385 413.23712l0 0l0 25.992035l0 0l0 -25.992035z" fill-rule="nonzero"/><path fill="#000000" fill-opacity="0.0" d="m472.13385 433.63162l0 0l0 35.99991l0 0l0 -35.99991z" fill-rule="nonzero"/></g></svg>
