<svg width="158" height="153" viewBox="0 0 158 153" fill="none" xmlns="http://www.w3.org/2000/svg">
<path d="M6.54919 68.0738C6.54919 64.3996 26.6724 61.4242 51.4921 61.4242C63.4131 61.4242 74.8399 62.1229 83.2667 63.374C91.7047 64.625 96.4349 66.3156 96.4349 68.0738V144.939C96.4349 148.613 76.3117 151.588 51.4921 151.588C26.6724 151.588 6.54919 148.613 6.54919 144.939V68.0738Z" fill="#E6007A" stroke="white" stroke-miterlimit="10"/>
<path d="M51.4921 80.0205C76.3133 80.0205 96.4349 74.9745 96.4349 68.75C96.4349 62.5254 76.3133 57.4795 51.4921 57.4795C26.6708 57.4795 6.54919 62.5254 6.54919 68.75C6.54919 74.9745 26.6708 80.0205 51.4921 80.0205Z" fill="#800044" stroke="white"/>
<path d="M47.7183 47.7183C65.2696 30.167 75.9297 12.3709 71.5282 7.96946C67.1268 3.56805 49.3307 14.2281 31.7794 31.7794C14.2281 49.3307 3.56804 67.1269 7.96945 71.5283C12.3709 75.9297 30.167 65.2696 47.7183 47.7183Z" fill="#E6007A" stroke="white"/>
<path d="M16.7617 112.302V102.12H20.3214C21.0306 102.12 21.6156 102.243 22.0763 102.488C22.537 102.73 22.8801 103.057 23.1055 103.468C23.3308 103.875 23.4435 104.328 23.4435 104.825C23.4435 105.262 23.3656 105.624 23.2099 105.909C23.0574 106.194 22.8552 106.419 22.6033 106.585C22.3547 106.751 22.0846 106.873 21.793 106.953V107.052C22.1045 107.072 22.4177 107.182 22.7326 107.38C23.0475 107.579 23.3109 107.864 23.5231 108.235C23.7352 108.607 23.8412 109.061 23.8412 109.598C23.8412 110.108 23.7252 110.567 23.4932 110.975C23.2612 111.383 22.895 111.706 22.3945 111.944C21.894 112.183 21.2428 112.302 20.4407 112.302H16.7617ZM17.9947 111.208H20.4407C21.2461 111.208 21.8178 111.053 22.1559 110.741C22.4973 110.426 22.668 110.045 22.668 109.598C22.668 109.253 22.5801 108.935 22.4045 108.643C22.2288 108.348 21.9786 108.113 21.6537 107.937C21.3289 107.758 20.9445 107.669 20.5003 107.669H17.9947V111.208ZM17.9947 106.595H20.2816C20.6528 106.595 20.9876 106.522 21.2858 106.376C21.5875 106.23 21.8261 106.025 22.0018 105.76C22.1807 105.494 22.2702 105.183 22.2702 104.825C22.2702 104.378 22.1144 103.998 21.8029 103.686C21.4913 103.372 20.9975 103.214 20.3214 103.214H17.9947V106.595ZM26.8814 102.12V112.302H25.7081V102.12H26.8814ZM32.1326 112.461C31.4432 112.461 30.8383 112.297 30.318 111.969C29.8009 111.641 29.3966 111.182 29.1049 110.592C28.8166 110.002 28.6724 109.313 28.6724 108.524C28.6724 107.728 28.8166 107.034 29.1049 106.441C29.3966 105.847 29.8009 105.387 30.318 105.059C30.8383 104.731 31.4432 104.566 32.1326 104.566C32.822 104.566 33.4252 104.731 33.9423 105.059C34.4626 105.387 34.867 105.847 35.1553 106.441C35.447 107.034 35.5928 107.728 35.5928 108.524C35.5928 109.313 35.447 110.002 35.1553 110.592C34.867 111.182 34.4626 111.641 33.9423 111.969C33.4252 112.297 32.822 112.461 32.1326 112.461ZM32.1326 111.407C32.6563 111.407 33.0872 111.273 33.4252 111.005C33.7633 110.736 34.0135 110.383 34.1759 109.946C34.3383 109.508 34.4196 109.034 34.4196 108.524C34.4196 108.013 34.3383 107.538 34.1759 107.097C34.0135 106.656 33.7633 106.3 33.4252 106.028C33.0872 105.756 32.6563 105.62 32.1326 105.62C31.6089 105.62 31.1781 105.756 30.84 106.028C30.5019 106.3 30.2517 106.656 30.0893 107.097C29.9269 107.538 29.8457 108.013 29.8457 108.524C29.8457 109.034 29.9269 109.508 30.0893 109.946C30.2517 110.383 30.5019 110.736 30.84 111.005C31.1781 111.273 31.6089 111.407 32.1326 111.407ZM40.4861 112.461C39.7702 112.461 39.1537 112.292 38.6367 111.954C38.1197 111.616 37.7219 111.15 37.4435 110.557C37.1651 109.964 37.0259 109.286 37.0259 108.524C37.0259 107.748 37.1684 107.064 37.4535 106.471C37.7418 105.874 38.1429 105.408 38.6566 105.074C39.1736 104.735 39.7769 104.566 40.4662 104.566C41.0032 104.566 41.4871 104.666 41.918 104.865C42.3488 105.064 42.7018 105.342 42.9769 105.7C43.252 106.058 43.4227 106.476 43.489 106.953H42.3157C42.2262 106.605 42.0273 106.297 41.7191 106.028C41.4142 105.756 41.0032 105.62 40.4861 105.62C40.0287 105.62 39.6277 105.74 39.283 105.978C38.9416 106.214 38.6748 106.547 38.4826 106.978C38.2937 107.405 38.1992 107.907 38.1992 108.484C38.1992 109.074 38.292 109.588 38.4776 110.025C38.6665 110.463 38.9317 110.802 39.2731 111.044C39.6178 111.286 40.0221 111.407 40.4861 111.407C40.7911 111.407 41.0678 111.354 41.3164 111.248C41.565 111.142 41.7754 110.99 41.9478 110.791C42.1201 110.592 42.2428 110.353 42.3157 110.075H43.489C43.4227 110.526 43.2586 110.932 42.9968 111.293C42.7383 111.651 42.3952 111.936 41.9677 112.148C41.5434 112.357 41.0496 112.461 40.4861 112.461ZM46.2979 109.518L46.278 108.066H46.5167L49.8576 104.666H51.3093L47.7496 108.265H47.6502L46.2979 109.518ZM45.2042 112.302V102.12H46.3775V112.302H45.2042ZM50.0564 112.302L47.0735 108.524L47.9087 107.708L51.5479 112.302H50.0564ZM55.6072 112.461C54.8913 112.461 54.2748 112.292 53.7578 111.954C53.2408 111.616 52.843 111.15 52.5646 110.557C52.2862 109.964 52.147 109.286 52.147 108.524C52.147 107.748 52.2895 107.064 52.5746 106.471C52.8629 105.874 53.264 105.408 53.7777 105.074C54.2947 104.735 54.8979 104.566 55.5873 104.566C56.1243 104.566 56.6082 104.666 57.039 104.865C57.4699 105.064 57.8229 105.342 58.098 105.7C58.3731 106.058 58.5438 106.476 58.6101 106.953H57.4368C57.3473 106.605 57.1484 106.297 56.8402 106.028C56.5353 105.756 56.1243 105.62 55.6072 105.62C55.1498 105.62 54.7488 105.74 54.4041 105.978C54.0627 106.214 53.7959 106.547 53.6037 106.978C53.4148 107.405 53.3203 107.907 53.3203 108.484C53.3203 109.074 53.4131 109.588 53.5987 110.025C53.7876 110.463 54.0528 110.802 54.3942 111.044C54.7389 111.286 55.1432 111.407 55.6072 111.407C55.9122 111.407 56.1889 111.354 56.4375 111.248C56.6861 111.142 56.8965 110.99 57.0689 110.791C57.2412 110.592 57.3639 110.353 57.4368 110.075H58.6101C58.5438 110.526 58.3797 110.932 58.1179 111.293C57.8594 111.651 57.5163 111.936 57.0888 112.148C56.6645 112.357 56.1707 112.461 55.6072 112.461ZM61.4986 107.708V112.302H60.3253V102.12H61.4986V105.859H61.598C61.777 105.465 62.0454 105.151 62.4034 104.919C62.7647 104.684 63.2452 104.566 63.8452 104.566C64.3655 104.566 64.8212 104.671 65.2123 104.88C65.6034 105.085 65.9067 105.402 66.1221 105.829C66.3409 106.253 66.4503 106.794 66.4503 107.45V112.302H65.277V107.53C65.277 106.923 65.1195 106.454 64.8047 106.123C64.4931 105.788 64.0606 105.62 63.5071 105.62C63.1226 105.62 62.7779 105.702 62.473 105.864C62.1714 106.026 61.9327 106.263 61.7571 106.575C61.5847 106.887 61.4986 107.264 61.4986 107.708ZM70.8439 112.481C70.36 112.481 69.9209 112.39 69.5264 112.208C69.132 112.022 68.8188 111.755 68.5868 111.407C68.3548 111.056 68.2388 110.632 68.2388 110.135C68.2388 109.697 68.325 109.342 68.4973 109.071C68.6697 108.796 68.9 108.58 69.1884 108.424C69.4767 108.269 69.7949 108.153 70.1429 108.076C70.4942 107.997 70.8472 107.934 71.2019 107.887C71.6659 107.828 72.0421 107.783 72.3304 107.753C72.6221 107.72 72.8342 107.665 72.9668 107.589C73.1027 107.513 73.1706 107.38 73.1706 107.191V107.152C73.1706 106.661 73.0364 106.28 72.7679 106.008C72.5028 105.736 72.1001 105.601 71.5598 105.601C70.9997 105.601 70.5605 105.723 70.2423 105.968C69.9242 106.214 69.7004 106.476 69.5712 106.754L68.4575 106.356C68.6564 105.892 68.9216 105.531 69.253 105.272C69.5878 105.011 69.9523 104.828 70.3468 104.726C70.7445 104.619 71.1356 104.566 71.52 104.566C71.7653 104.566 72.047 104.596 72.3652 104.656C72.6867 104.712 72.9966 104.83 73.2949 105.009C73.5965 105.188 73.8468 105.458 74.0456 105.819C74.2445 106.181 74.3439 106.664 74.3439 107.271V112.302H73.1706V111.268H73.111C73.0314 111.434 72.8988 111.611 72.7132 111.8C72.5276 111.989 72.2807 112.15 71.9725 112.282C71.6642 112.415 71.288 112.481 70.8439 112.481ZM71.0229 111.427C71.4869 111.427 71.878 111.336 72.1962 111.154C72.5177 110.972 72.7596 110.736 72.922 110.448C73.0878 110.159 73.1706 109.856 73.1706 109.538V108.464C73.1209 108.524 73.0115 108.579 72.8425 108.628C72.6768 108.675 72.4845 108.716 72.2658 108.753C72.0504 108.786 71.8399 108.816 71.6344 108.842C71.4322 108.865 71.2682 108.885 71.1422 108.902C70.8373 108.941 70.5522 109.006 70.2871 109.096C70.0253 109.182 69.8131 109.313 69.6507 109.488C69.4916 109.661 69.4121 109.896 69.4121 110.194C69.4121 110.602 69.5629 110.91 69.8645 111.119C70.1694 111.324 70.5556 111.427 71.0229 111.427ZM76.4854 112.302V104.666H77.6587V112.302H76.4854ZM77.082 103.393C76.8533 103.393 76.6561 103.315 76.4904 103.159C76.328 103.004 76.2468 102.816 76.2468 102.598C76.2468 102.379 76.328 102.192 76.4904 102.036C76.6561 101.88 76.8533 101.802 77.082 101.802C77.3107 101.802 77.5063 101.88 77.6687 102.036C77.8344 102.192 77.9172 102.379 77.9172 102.598C77.9172 102.816 77.8344 103.004 77.6687 103.159C77.5063 103.315 77.3107 103.393 77.082 103.393ZM80.981 107.708V112.302H79.8077V104.666H80.9412V105.859H81.0406C81.2196 105.471 81.4914 105.16 81.856 104.924C82.2206 104.686 82.6912 104.566 83.2679 104.566C83.785 104.566 84.2374 104.673 84.6252 104.885C85.0129 105.093 85.3146 105.412 85.53 105.839C85.7454 106.263 85.8531 106.8 85.8531 107.45V112.302H84.6798V107.53C84.6798 106.93 84.5241 106.462 84.2125 106.128C83.901 105.789 83.4734 105.62 82.9298 105.62C82.5553 105.62 82.2206 105.702 81.9256 105.864C81.6339 106.026 81.4036 106.263 81.2345 106.575C81.0655 106.887 80.981 107.264 80.981 107.708Z" fill="white"/>
<path fill-rule="evenodd" clip-rule="evenodd" d="M60.7827 79.2792C61.1848 72.8474 62.6685 67.0147 65.3195 61.8248C67.8942 56.7843 72.0547 52.8262 78.4747 49.8004C97.0639 41.0394 133.283 46.0928 133.283 46.0928L131.628 53.4406L157.686 43.8701L136.745 30.7208L135.37 36.8291C135.37 36.8291 99.5093 32.6838 76.7961 44.6328C63.3382 51.7127 57.7512 63.4302 58.3588 79.0776C58.4538 79.1329 60.0484 79.2808 60.7827 79.2792Z" fill="#868686"/>
</svg>
