<svg width="96" height="96" viewBox="0 0 96 96" fill="none" xmlns="http://www.w3.org/2000/svg">
<path d="M2.95673 11.5943C2.95673 7.92011 23.0799 4.9447 47.8996 4.9447C59.8207 4.9447 71.2474 5.64347 79.6742 6.8945C88.1122 8.14552 92.8424 9.8361 92.8424 11.5943V88.4591C92.8424 92.1333 72.7193 95.1087 47.8996 95.1087C23.0799 95.1087 2.95673 92.1333 2.95673 88.4591V11.5943Z" fill="#E6007A" stroke="white" stroke-miterlimit="10"/>
<path d="M47.8996 23.541C72.7208 23.541 92.8424 18.495 92.8424 12.2705C92.8424 6.04598 72.7208 1 47.8996 1C23.0783 1 2.95673 6.04598 2.95673 12.2705C2.95673 18.495 23.0783 23.541 47.8996 23.541Z" fill="#E6007A" stroke="white"/>
<path d="M13.1692 55.8228V45.641H16.7289C17.4382 45.641 18.0232 45.7636 18.4839 46.0089C18.9446 46.2508 19.2876 46.5773 19.513 46.9883C19.7384 47.3959 19.8511 47.8484 19.8511 48.3455C19.8511 48.783 19.7732 49.1443 19.6174 49.4293C19.4649 49.7144 19.2627 49.9397 19.0109 50.1055C18.7623 50.2712 18.4922 50.3938 18.2005 50.4734V50.5728C18.512 50.5927 18.8252 50.702 19.1401 50.9009C19.455 51.0998 19.7185 51.3848 19.9306 51.756C20.1427 52.1272 20.2488 52.5813 20.2488 53.1182C20.2488 53.6287 20.1328 54.0877 19.9008 54.4954C19.6688 54.903 19.3025 55.2262 18.802 55.4648C18.3016 55.7035 17.6503 55.8228 16.8482 55.8228H13.1692ZM14.4022 54.729H16.8482C17.6536 54.729 18.2253 54.5733 18.5634 54.2617C18.9048 53.9468 19.0755 53.5657 19.0755 53.1182C19.0755 52.7735 18.9877 52.4554 18.812 52.1637C18.6363 51.8687 18.3861 51.6334 18.0613 51.4577C17.7365 51.2788 17.352 51.1893 16.9079 51.1893H14.4022V54.729ZM14.4022 50.1154H16.6891C17.0603 50.1154 17.3951 50.0425 17.6934 49.8966C17.995 49.7508 18.2336 49.5453 18.4093 49.2802C18.5883 49.015 18.6778 48.7035 18.6778 48.3455C18.6778 47.8981 18.522 47.5186 18.2104 47.207C17.8989 46.8921 17.405 46.7347 16.7289 46.7347H14.4022V50.1154ZM23.2889 45.641V55.8228H22.1156V45.641H23.2889ZM28.5402 55.9819C27.8508 55.9819 27.2459 55.8178 26.7255 55.4897C26.2085 55.1616 25.8041 54.7025 25.5125 54.1126C25.2241 53.5226 25.0799 52.8332 25.0799 52.0444C25.0799 51.2489 25.2241 50.5546 25.5125 49.9613C25.8041 49.368 26.2085 48.9073 26.7255 48.5792C27.2459 48.2511 27.8508 48.087 28.5402 48.087C29.2295 48.087 29.8328 48.2511 30.3498 48.5792C30.8702 48.9073 31.2745 49.368 31.5629 49.9613C31.8545 50.5546 32.0004 51.2489 32.0004 52.0444C32.0004 52.8332 31.8545 53.5226 31.5629 54.1126C31.2745 54.7025 30.8702 55.1616 30.3498 55.4897C29.8328 55.8178 29.2295 55.9819 28.5402 55.9819ZM28.5402 54.9279C29.0638 54.9279 29.4947 54.7937 29.8328 54.5252C30.1708 54.2567 30.4211 53.9038 30.5835 53.4663C30.7459 53.0288 30.8271 52.5548 30.8271 52.0444C30.8271 51.534 30.7459 51.0583 30.5835 50.6175C30.4211 50.1767 30.1708 49.8204 29.8328 49.5486C29.4947 49.2769 29.0638 49.141 28.5402 49.141C28.0165 49.141 27.5856 49.2769 27.2475 49.5486C26.9095 49.8204 26.6592 50.1767 26.4968 50.6175C26.3344 51.0583 26.2532 51.534 26.2532 52.0444C26.2532 52.5548 26.3344 53.0288 26.4968 53.4663C26.6592 53.9038 26.9095 54.2567 27.2475 54.5252C27.5856 54.7937 28.0165 54.9279 28.5402 54.9279ZM36.8937 55.9819C36.1778 55.9819 35.5613 55.8128 35.0442 55.4748C34.5272 55.1367 34.1295 54.671 33.8511 54.0778C33.5726 53.4845 33.4334 52.8067 33.4334 52.0444C33.4334 51.2688 33.576 50.5844 33.861 49.9911C34.1493 49.3945 34.5504 48.9288 35.0641 48.5941C35.5812 48.256 36.1844 48.087 36.8738 48.087C37.4107 48.087 37.8946 48.1864 38.3255 48.3853C38.7564 48.5841 39.1093 48.8626 39.3844 49.2205C39.6595 49.5785 39.8302 49.9961 39.8965 50.4734H38.7232C38.6337 50.1253 38.4349 49.8171 38.1266 49.5486C37.8217 49.2769 37.4107 49.141 36.8937 49.141C36.4363 49.141 36.0352 49.2603 35.6905 49.4989C35.3492 49.7342 35.0823 50.0673 34.8901 50.4982C34.7012 50.9258 34.6067 51.4279 34.6067 52.0046C34.6067 52.5946 34.6995 53.1083 34.8851 53.5458C35.0741 53.9833 35.3392 54.323 35.6806 54.565C36.0253 54.8069 36.4297 54.9279 36.8937 54.9279C37.1986 54.9279 37.4753 54.8749 37.7239 54.7688C37.9725 54.6627 38.183 54.5103 38.3553 54.3114C38.5277 54.1126 38.6503 53.8739 38.7232 53.5955H39.8965C39.8302 54.0463 39.6662 54.4523 39.4043 54.8136C39.1458 55.1715 38.8028 55.4565 38.3752 55.6687C37.951 55.8775 37.4571 55.9819 36.8937 55.9819ZM42.7055 53.0387L42.6856 51.587H42.9242L46.2651 48.1864H47.7168L44.1572 51.7859H44.0577L42.7055 53.0387ZM41.6117 55.8228V45.641H42.785V55.8228H41.6117ZM46.464 55.8228L43.481 52.0444L44.3163 51.229L47.9555 55.8228H46.464ZM52.0148 55.9819C51.2989 55.9819 50.6824 55.8128 50.1653 55.4748C49.6483 55.1367 49.2506 54.671 48.9721 54.0778C48.6937 53.4845 48.5545 52.8067 48.5545 52.0444C48.5545 51.2688 48.6971 50.5844 48.9821 49.9911C49.2704 49.3945 49.6715 48.9288 50.1852 48.5941C50.7023 48.256 51.3055 48.087 51.9949 48.087C52.5318 48.087 53.0157 48.1864 53.4466 48.3853C53.8774 48.5841 54.2304 48.8626 54.5055 49.2205C54.7806 49.5785 54.9513 49.9961 55.0176 50.4734H53.8443C53.7548 50.1253 53.556 49.8171 53.2477 49.5486C52.9428 49.2769 52.5318 49.141 52.0148 49.141C51.5574 49.141 51.1563 49.2603 50.8116 49.4989C50.4703 49.7342 50.2034 50.0673 50.0112 50.4982C49.8223 50.9258 49.7278 51.4279 49.7278 52.0046C49.7278 52.5946 49.8206 53.1083 50.0062 53.5458C50.1952 53.9833 50.4603 54.323 50.8017 54.565C51.1464 54.8069 51.5507 54.9279 52.0148 54.9279C52.3197 54.9279 52.5964 54.8749 52.845 54.7688C53.0936 54.6627 53.3041 54.5103 53.4764 54.3114C53.6488 54.1126 53.7714 53.8739 53.8443 53.5955H55.0176C54.9513 54.0463 54.7872 54.4523 54.5254 54.8136C54.2669 55.1715 53.9239 55.4565 53.4963 55.6687C53.0721 55.8775 52.5782 55.9819 52.0148 55.9819ZM57.9061 51.229V55.8228H56.7328V45.641H57.9061V49.3796H58.0055C58.1845 48.9852 58.453 48.672 58.8109 48.44C59.1722 48.2047 59.6528 48.087 60.2527 48.087C60.773 48.087 61.2288 48.1914 61.6199 48.4002C62.011 48.6057 62.3142 48.9222 62.5297 49.3498C62.7484 49.774 62.8578 50.3143 62.8578 50.9705V55.8228H61.6845V51.0501C61.6845 50.4435 61.5271 49.9745 61.2122 49.6431C60.9006 49.3083 60.4681 49.141 59.9146 49.141C59.5301 49.141 59.1855 49.2222 58.8805 49.3846C58.5789 49.547 58.3403 49.784 58.1646 50.0955C57.9923 50.4071 57.9061 50.7849 57.9061 51.229ZM67.2514 56.0018C66.7675 56.0018 66.3284 55.9106 65.934 55.7283C65.5396 55.5427 65.2263 55.2759 64.9943 54.9279C64.7623 54.5766 64.6463 54.1523 64.6463 53.6552C64.6463 53.2177 64.7325 52.863 64.9049 52.5913C65.0772 52.3162 65.3076 52.1007 65.5959 51.9449C65.8843 51.7892 66.2024 51.6732 66.5504 51.5969C66.9018 51.5174 67.2548 51.4544 67.6094 51.408C68.0734 51.3484 68.4496 51.3036 68.7379 51.2738C69.0296 51.2406 69.2417 51.1859 69.3743 51.1097C69.5102 51.0335 69.5781 50.9009 69.5781 50.712V50.6722C69.5781 50.1817 69.4439 49.8005 69.1754 49.5288C68.9103 49.257 68.5076 49.1211 67.9674 49.1211C67.4072 49.1211 66.9681 49.2437 66.6499 49.489C66.3317 49.7342 66.108 49.9961 65.9787 50.2745L64.8651 49.8768C65.0639 49.4127 65.3291 49.0515 65.6605 48.793C65.9953 48.5311 66.3599 48.3488 66.7543 48.2461C67.152 48.14 67.5431 48.087 67.9276 48.087C68.1728 48.087 68.4546 48.1168 68.7727 48.1765C69.0942 48.2328 69.4041 48.3505 69.7024 48.5295C70.004 48.7084 70.2543 48.9786 70.4531 49.3398C70.652 49.7011 70.7514 50.185 70.7514 50.7915V55.8228H69.5781V54.7887H69.5185C69.4389 54.9544 69.3064 55.1317 69.1208 55.3207C68.9352 55.5096 68.6882 55.6703 68.38 55.8029C68.0718 55.9355 67.6956 56.0018 67.2514 56.0018ZM67.4304 54.9478C67.8944 54.9478 68.2855 54.8566 68.6037 54.6743C68.9252 54.4921 69.1672 54.2567 69.3296 53.9684C69.4953 53.68 69.5781 53.3768 69.5781 53.0586V51.9847C69.5284 52.0444 69.4191 52.0991 69.25 52.1488C69.0843 52.1952 68.8921 52.2366 68.6733 52.2731C68.4579 52.3062 68.2474 52.336 68.0419 52.3626C67.8397 52.3858 67.6757 52.4056 67.5497 52.4222C67.2448 52.462 66.9598 52.5266 66.6946 52.6161C66.4328 52.7023 66.2207 52.8332 66.0583 53.0089C65.8992 53.1812 65.8196 53.4165 65.8196 53.7148C65.8196 54.1225 65.9704 54.4307 66.272 54.6395C66.577 54.845 66.9631 54.9478 67.4304 54.9478ZM72.893 55.8228V48.1864H74.0663V55.8228H72.893ZM73.4895 46.9137C73.2609 46.9137 73.0636 46.8358 72.8979 46.68C72.7355 46.5243 72.6543 46.337 72.6543 46.1182C72.6543 45.8995 72.7355 45.7122 72.8979 45.5564C73.0636 45.4007 73.2609 45.3228 73.4895 45.3228C73.7182 45.3228 73.9138 45.4007 74.0762 45.5564C74.2419 45.7122 74.3248 45.8995 74.3248 46.1182C74.3248 46.337 74.2419 46.5243 74.0762 46.68C73.9138 46.8358 73.7182 46.9137 73.4895 46.9137ZM77.3885 51.229V55.8228H76.2152V48.1864H77.3487V49.3796H77.4482C77.6272 48.9918 77.8989 48.6803 78.2635 48.4449C78.6281 48.2063 79.0987 48.087 79.6754 48.087C80.1925 48.087 80.6449 48.193 81.0327 48.4052C81.4205 48.614 81.7221 48.9322 81.9375 49.3597C82.153 49.784 82.2607 50.3209 82.2607 50.9705V55.8228H81.0874V51.0501C81.0874 50.4502 80.9316 49.9828 80.6201 49.6481C80.3085 49.31 79.8809 49.141 79.3374 49.141C78.9629 49.141 78.6281 49.2222 78.3331 49.3846C78.0415 49.547 77.8111 49.784 77.6421 50.0955C77.473 50.4071 77.3885 50.7849 77.3885 51.229Z" fill="white"/>
</svg>
