<svg width="158" height="153" viewBox="0 0 158 153" fill="none" xmlns="http://www.w3.org/2000/svg">
<path d="M6.54919 68.0738C6.54919 64.3996 26.6724 61.4242 51.4921 61.4242C63.4131 61.4242 74.8399 62.1229 83.2667 63.374C91.7047 64.625 96.4349 66.3156 96.4349 68.0738V144.939C96.4349 148.613 76.3117 151.588 51.4921 151.588C26.6724 151.588 6.54919 148.613 6.54919 144.939V68.0738Z" fill="#E6007A" stroke="white" stroke-miterlimit="10"/>
<path d="M51.4921 80.0205C76.3133 80.0205 96.4349 74.9745 96.4349 68.75C96.4349 62.5254 76.3133 57.4795 51.4921 57.4795C26.6708 57.4795 6.54919 62.5254 6.54919 68.75C6.54919 74.9745 26.6708 80.0205 51.4921 80.0205Z" fill="#800044" stroke="white"/>
<path d="M47.7183 47.7183C65.2696 30.167 75.9297 12.3709 71.5282 7.96946C67.1268 3.56805 49.3307 14.2281 31.7794 31.7794C14.2281 49.3307 3.56804 67.1269 7.96945 71.5283C12.3709 75.9297 30.167 65.2696 47.7183 47.7183Z" fill="#E6007A" stroke="white"/>
<path d="M21.6852 111.302V102.575H24.7363C25.3443 102.575 25.8457 102.68 26.2406 102.89C26.6355 103.098 26.9295 103.378 27.1227 103.73C27.3159 104.079 27.4124 104.467 27.4124 104.893C27.4124 105.268 27.3457 105.578 27.2122 105.822C27.0815 106.066 26.9082 106.26 26.6923 106.402C26.4792 106.544 26.2477 106.649 25.9977 106.717V106.802C26.2647 106.819 26.5332 106.913 26.8031 107.083C27.073 107.254 27.2988 107.498 27.4806 107.816C27.6624 108.135 27.7534 108.524 27.7534 108.984C27.7534 109.422 27.6539 109.815 27.4551 110.164C27.2562 110.514 26.9423 110.791 26.5133 110.995C26.0843 111.2 25.5261 111.302 24.8386 111.302H21.6852ZM22.742 110.365H24.8386C25.5289 110.365 26.019 110.231 26.3088 109.964C26.6014 109.694 26.7477 109.368 26.7477 108.984C26.7477 108.689 26.6724 108.416 26.5218 108.166C26.3713 107.913 26.1568 107.711 25.8784 107.561C25.5999 107.407 25.2704 107.331 24.8897 107.331H22.742V110.365ZM22.742 106.41H24.7022C25.0204 106.41 25.3073 106.348 25.563 106.223C25.8215 106.098 26.0261 105.922 26.1767 105.694C26.3301 105.467 26.4068 105.2 26.4068 104.893C26.4068 104.51 26.2732 104.184 26.0062 103.917C25.7392 103.647 25.3159 103.512 24.7363 103.512H22.742V106.41ZM30.3592 102.575V111.302H29.3535V102.575H30.3592ZM34.8602 111.439C34.2693 111.439 33.7509 111.298 33.3048 111.017C32.8617 110.735 32.5151 110.342 32.2651 109.836C32.0179 109.331 31.8943 108.74 31.8943 108.064C31.8943 107.382 32.0179 106.787 32.2651 106.278C32.5151 105.77 32.8617 105.375 33.3048 105.093C33.7509 104.812 34.2693 104.672 34.8602 104.672C35.4512 104.672 35.9682 104.812 36.4114 105.093C36.8574 105.375 37.204 105.77 37.4512 106.278C37.7012 106.787 37.8262 107.382 37.8262 108.064C37.8262 108.74 37.7012 109.331 37.4512 109.836C37.204 110.342 36.8574 110.735 36.4114 111.017C35.9682 111.298 35.4512 111.439 34.8602 111.439ZM34.8602 110.535C35.3091 110.535 35.6784 110.42 35.9682 110.19C36.258 109.96 36.4725 109.657 36.6117 109.282C36.7509 108.907 36.8205 108.501 36.8205 108.064C36.8205 107.626 36.7509 107.218 36.6117 106.841C36.4725 106.463 36.258 106.157 35.9682 105.924C35.6784 105.691 35.3091 105.575 34.8602 105.575C34.4114 105.575 34.0421 105.691 33.7523 105.924C33.4625 106.157 33.248 106.463 33.1088 106.841C32.9696 107.218 32.9 107.626 32.9 108.064C32.9 108.501 32.9696 108.907 33.1088 109.282C33.248 109.657 33.4625 109.96 33.7523 110.19C34.0421 110.42 34.4114 110.535 34.8602 110.535ZM42.0204 111.439C41.4068 111.439 40.8784 111.294 40.4352 111.004C39.992 110.714 39.6511 110.315 39.4124 109.807C39.1738 109.298 39.0545 108.717 39.0545 108.064C39.0545 107.399 39.1767 106.812 39.421 106.304C39.6681 105.792 40.0119 105.393 40.4522 105.106C40.8954 104.816 41.4124 104.672 42.0034 104.672C42.4636 104.672 42.8784 104.757 43.2477 104.927C43.617 105.098 43.9196 105.336 44.1553 105.643C44.3911 105.95 44.5374 106.308 44.5943 106.717H43.5886C43.5119 106.419 43.3414 106.155 43.0772 105.924C42.8159 105.691 42.4636 105.575 42.0204 105.575C41.6284 105.575 41.2846 105.677 40.9892 105.882C40.6965 106.083 40.4678 106.369 40.3031 106.738C40.1411 107.105 40.0602 107.535 40.0602 108.03C40.0602 108.535 40.1397 108.976 40.2988 109.351C40.4607 109.726 40.688 110.017 40.9806 110.224C41.2761 110.432 41.6227 110.535 42.0204 110.535C42.2818 110.535 42.519 110.49 42.7321 110.399C42.9451 110.308 43.1255 110.177 43.2732 110.007C43.421 109.836 43.5261 109.632 43.5886 109.393H44.5943C44.5374 109.78 44.3968 110.128 44.1724 110.437C43.9508 110.744 43.6568 110.988 43.2903 111.17C42.9267 111.349 42.5034 111.439 42.0204 111.439ZM47.0019 108.916L46.9849 107.672H47.1894L50.0531 104.757H51.2974L48.2463 107.842H48.161L47.0019 108.916ZM46.0644 111.302V102.575H47.0701V111.302H46.0644ZM50.2235 111.302L47.6667 108.064L48.3826 107.365L51.5019 111.302H50.2235ZM54.9813 111.439C54.3677 111.439 53.8393 111.294 53.3961 111.004C52.9529 110.714 52.612 110.315 52.3734 109.807C52.1347 109.298 52.0154 108.717 52.0154 108.064C52.0154 107.399 52.1376 106.812 52.3819 106.304C52.6291 105.792 52.9728 105.393 53.4132 105.106C53.8563 104.816 54.3734 104.672 54.9643 104.672C55.4245 104.672 55.8393 104.757 56.2086 104.927C56.5779 105.098 56.8805 105.336 57.1163 105.643C57.3521 105.95 57.4984 106.308 57.5552 106.717H56.5495C56.4728 106.419 56.3024 106.155 56.0382 105.924C55.7768 105.691 55.4245 105.575 54.9813 105.575C54.5893 105.575 54.2455 105.677 53.9501 105.882C53.6575 106.083 53.4288 106.369 53.264 106.738C53.1021 107.105 53.0211 107.535 53.0211 108.03C53.0211 108.535 53.1007 108.976 53.2597 109.351C53.4217 109.726 53.649 110.017 53.9416 110.224C54.237 110.432 54.5836 110.535 54.9813 110.535C55.2427 110.535 55.4799 110.49 55.693 110.399C55.9061 110.308 56.0865 110.177 56.2342 110.007C56.3819 109.836 56.487 109.632 56.5495 109.393H57.5552C57.4984 109.78 57.3578 110.128 57.1333 110.437C56.9117 110.744 56.6177 110.988 56.2512 111.17C55.8876 111.349 55.4643 111.439 54.9813 111.439ZM60.0311 107.365V111.302H59.0254V102.575H60.0311V105.78H60.1163C60.2697 105.441 60.4998 105.173 60.8066 104.974C61.1163 104.772 61.5282 104.672 62.0424 104.672C62.4884 104.672 62.8791 104.761 63.2143 104.94C63.5495 105.116 63.8095 105.387 63.9941 105.754C64.1816 106.118 64.2754 106.581 64.2754 107.143V111.302H63.2697V107.211C63.2697 106.691 63.1347 106.289 62.8649 106.005C62.5978 105.718 62.2271 105.575 61.7526 105.575C61.4231 105.575 61.1276 105.645 60.8663 105.784C60.6078 105.923 60.4032 106.126 60.2526 106.393C60.1049 106.66 60.0311 106.984 60.0311 107.365ZM68.0414 111.456C67.6266 111.456 67.2502 111.378 66.9121 111.221C66.574 111.062 66.3056 110.833 66.1067 110.535C65.9078 110.234 65.8084 109.87 65.8084 109.444C65.8084 109.069 65.8823 108.765 66.03 108.532C66.1777 108.297 66.3752 108.112 66.6223 107.978C66.8695 107.845 67.1422 107.745 67.4405 107.68C67.7416 107.612 68.0442 107.558 68.3482 107.518C68.7459 107.467 69.0683 107.429 69.3155 107.403C69.5655 107.375 69.7473 107.328 69.861 107.262C69.9774 107.197 70.0357 107.083 70.0357 106.922V106.887C70.0357 106.467 69.9206 106.14 69.6905 105.907C69.4632 105.674 69.1181 105.558 68.655 105.558C68.1749 105.558 67.7985 105.663 67.5257 105.873C67.253 106.083 67.0612 106.308 66.9504 106.547L65.9959 106.206C66.1664 105.808 66.3936 105.498 66.6777 105.277C66.9646 105.052 67.2771 104.896 67.6152 104.808C67.9561 104.717 68.2914 104.672 68.6209 104.672C68.8311 104.672 69.0726 104.697 69.3453 104.748C69.6209 104.797 69.8865 104.897 70.1422 105.051C70.4007 105.204 70.6152 105.436 70.7857 105.745C70.9561 106.055 71.0414 106.47 71.0414 106.99V111.302H70.0357V110.416H69.9845C69.9164 110.558 69.8027 110.71 69.6436 110.872C69.4845 111.034 69.2729 111.172 69.0087 111.285C68.7445 111.399 68.422 111.456 68.0414 111.456ZM68.1948 110.552C68.5925 110.552 68.9277 110.474 69.2004 110.318C69.476 110.162 69.6834 109.96 69.8226 109.713C69.9646 109.466 70.0357 109.206 70.0357 108.933V108.012C69.9931 108.064 69.8993 108.11 69.7544 108.153C69.6124 108.193 69.4476 108.228 69.2601 108.26C69.0754 108.288 68.895 108.314 68.7189 108.336C68.5456 108.356 68.405 108.373 68.297 108.387C68.0357 108.422 67.7914 108.477 67.5641 108.554C67.3396 108.628 67.1578 108.74 67.0186 108.89C66.8823 109.038 66.8141 109.24 66.8141 109.495C66.8141 109.845 66.9433 110.109 67.2019 110.288C67.4632 110.464 67.7942 110.552 68.1948 110.552ZM72.8769 111.302V104.757H73.8826V111.302H72.8769ZM73.3883 103.666C73.1923 103.666 73.0232 103.599 72.8812 103.466C72.742 103.332 72.6724 103.172 72.6724 102.984C72.6724 102.797 72.742 102.636 72.8812 102.503C73.0232 102.369 73.1923 102.302 73.3883 102.302C73.5843 102.302 73.7519 102.369 73.8911 102.503C74.0332 102.636 74.1042 102.797 74.1042 102.984C74.1042 103.172 74.0332 103.332 73.8911 103.466C73.7519 103.599 73.5843 103.666 73.3883 103.666ZM76.7303 107.365V111.302H75.7246V104.757H76.6962V105.78H76.7814C76.9348 105.447 77.1678 105.18 77.4803 104.978C77.7928 104.774 78.1962 104.672 78.6905 104.672C79.1337 104.672 79.5215 104.762 79.8539 104.944C80.1862 105.123 80.4448 105.396 80.6294 105.762C80.8141 106.126 80.9064 106.586 80.9064 107.143V111.302H79.9007V107.211C79.9007 106.697 79.7672 106.297 79.5002 106.01C79.2331 105.72 78.8666 105.575 78.4007 105.575C78.0797 105.575 77.7928 105.645 77.5399 105.784C77.2899 105.923 77.0925 106.126 76.9476 106.393C76.8027 106.66 76.7303 106.984 76.7303 107.365Z" fill="black"/>
<path fill-rule="evenodd" clip-rule="evenodd" d="M60.7827 79.2792C61.1848 72.8474 62.6685 67.0147 65.3195 61.8248C67.8942 56.7843 72.0547 52.8262 78.4747 49.8004C97.0639 41.0394 133.283 46.0928 133.283 46.0928L131.628 53.4406L157.686 43.8701L136.745 30.7208L135.37 36.8291C135.37 36.8291 99.5093 32.6838 76.7961 44.6328C63.3382 51.7127 57.7512 63.4302 58.3588 79.0776C58.4538 79.1329 60.0484 79.2808 60.7827 79.2792Z" fill="#868686"/>
</svg>
