<svg width="158" height="153" viewBox="0 0 158 153" fill="none" xmlns="http://www.w3.org/2000/svg">
<path d="M6.54919 68.0738C6.54919 64.3996 26.6724 61.4242 51.4921 61.4242C63.4131 61.4242 74.8399 62.1229 83.2667 63.374C91.7047 64.625 96.4349 66.3156 96.4349 68.0738V144.939C96.4349 148.613 76.3117 151.588 51.4921 151.588C26.6724 151.588 6.54919 148.613 6.54919 144.939V68.0738Z" fill="#E6007A" stroke="white" stroke-miterlimit="10"/>
<path d="M51.4921 80.0205C76.3133 80.0205 96.4349 74.9745 96.4349 68.75C96.4349 62.5254 76.3133 57.4795 51.4921 57.4795C26.6708 57.4795 6.54919 62.5254 6.54919 68.75C6.54919 74.9745 26.6708 80.0205 51.4921 80.0205Z" fill="#800044" stroke="white"/>
<path d="M47.7183 47.7183C65.2696 30.167 75.9297 12.3709 71.5282 7.96946C67.1268 3.56805 49.3307 14.2281 31.7794 31.7794C14.2281 49.3307 3.56804 67.1269 7.96945 71.5283C12.3709 75.9297 30.167 65.2696 47.7183 47.7183Z" fill="#E6007A" stroke="white"/>
<path d="M14.4957 104.302V95.575H19.7628V96.5125H15.5525V99.4613H19.49V100.399H15.5525V103.365H19.8309V104.302H14.4957ZM24.1903 104.439C23.5767 104.439 23.0483 104.294 22.6051 104.004C22.1619 103.714 21.821 103.315 21.5824 102.807C21.3437 102.298 21.2244 101.717 21.2244 101.064C21.2244 100.399 21.3466 99.8122 21.5909 99.3037C21.8381 98.7923 22.1818 98.3932 22.6221 98.1062C23.0653 97.8165 23.5824 97.6716 24.1733 97.6716C24.6335 97.6716 25.0483 97.7568 25.4176 97.9272C25.7869 98.0977 26.0895 98.3363 26.3253 98.6432C26.5611 98.95 26.7074 99.3079 26.7642 99.717H25.7585C25.6818 99.4187 25.5113 99.1545 25.2471 98.9244C24.9858 98.6915 24.6335 98.575 24.1903 98.575C23.7983 98.575 23.4545 98.6772 23.1591 98.8818C22.8665 99.0835 22.6378 99.369 22.473 99.7383C22.3111 100.105 22.2301 100.535 22.2301 101.03C22.2301 101.535 22.3096 101.976 22.4687 102.351C22.6307 102.726 22.8579 103.017 23.1506 103.224C23.446 103.432 23.7926 103.535 24.1903 103.535C24.4517 103.535 24.6889 103.49 24.902 103.399C25.115 103.308 25.2954 103.177 25.4432 103.007C25.5909 102.836 25.696 102.632 25.7585 102.393H26.7642C26.7074 102.78 26.5667 103.128 26.3423 103.437C26.1207 103.744 25.8267 103.988 25.4602 104.17C25.0966 104.349 24.6733 104.439 24.1903 104.439ZM30.8934 104.439C30.3025 104.439 29.7841 104.298 29.3381 104.017C28.8949 103.735 28.5483 103.342 28.2983 102.836C28.0511 102.331 27.9275 101.74 27.9275 101.064C27.9275 100.382 28.0511 99.7866 28.2983 99.2781C28.5483 98.7696 28.8949 98.3747 29.3381 98.0934C29.7841 97.8122 30.3025 97.6716 30.8934 97.6716C31.4844 97.6716 32.0014 97.8122 32.4446 98.0934C32.8906 98.3747 33.2372 98.7696 33.4844 99.2781C33.7344 99.7866 33.8594 100.382 33.8594 101.064C33.8594 101.74 33.7344 102.331 33.4844 102.836C33.2372 103.342 32.8906 103.735 32.4446 104.017C32.0014 104.298 31.4844 104.439 30.8934 104.439ZM30.8934 103.535C31.3423 103.535 31.7116 103.42 32.0014 103.19C32.2912 102.96 32.5057 102.657 32.6449 102.282C32.7841 101.907 32.8537 101.501 32.8537 101.064C32.8537 100.626 32.7841 100.218 32.6449 99.8406C32.5057 99.4628 32.2912 99.1574 32.0014 98.9244C31.7116 98.6915 31.3423 98.575 30.8934 98.575C30.4446 98.575 30.0753 98.6915 29.7855 98.9244C29.4957 99.1574 29.2812 99.4628 29.142 99.8406C29.0028 100.218 28.9332 100.626 28.9332 101.064C28.9332 101.501 29.0028 101.907 29.142 102.282C29.2812 102.657 29.4957 102.96 29.7855 103.19C30.0753 103.42 30.4446 103.535 30.8934 103.535ZM36.4002 100.365V104.302H35.3945V97.7568H36.3661V98.7795H36.4513C36.6047 98.4471 36.8377 98.1801 37.1502 97.9784C37.4627 97.7738 37.8661 97.6716 38.3604 97.6716C38.8036 97.6716 39.1914 97.7625 39.5238 97.9443C39.8562 98.1233 40.1147 98.396 40.2993 98.7625C40.484 99.1261 40.5763 99.5863 40.5763 100.143V104.302H39.5707V100.211C39.5707 99.6971 39.4371 99.2966 39.1701 99.0096C38.903 98.7199 38.5366 98.575 38.0707 98.575C37.7496 98.575 37.4627 98.6446 37.2099 98.7838C36.9599 98.923 36.7624 99.1261 36.6175 99.3932C36.4726 99.6602 36.4002 99.9841 36.4002 100.365ZM48.2606 104.422C47.6868 104.422 47.1925 104.316 46.7777 104.106C46.3629 103.896 46.0433 103.608 45.8189 103.241C45.5944 102.875 45.4822 102.456 45.4822 101.984C45.4822 101.62 45.5589 101.298 45.7123 101.017C45.8686 100.733 46.0831 100.47 46.3558 100.228C46.6314 99.9841 46.9481 99.7397 47.3061 99.4954L48.5675 98.5579C48.8146 98.396 49.0121 98.2227 49.1598 98.038C49.3104 97.8534 49.3856 97.6119 49.3856 97.3136C49.3856 97.092 49.2876 96.8775 49.0916 96.6701C48.8984 96.4628 48.6442 96.3591 48.3288 96.3591C48.1072 96.3591 47.9112 96.4159 47.7408 96.5295C47.5731 96.6403 47.441 96.7824 47.3444 96.9557C47.2507 97.1261 47.2038 97.3022 47.2038 97.4841C47.2038 97.6886 47.2592 97.896 47.37 98.1062C47.4836 98.3136 47.6271 98.5267 47.8004 98.7454C47.9765 98.9613 48.1584 99.1829 48.3459 99.4102L52.3515 104.302H51.1413L47.8345 100.314C47.5277 99.9443 47.2493 99.6091 46.9993 99.3079C46.7493 99.0068 46.5504 98.7099 46.4027 98.4173C46.255 98.1247 46.1811 97.8079 46.1811 97.467C46.1811 97.075 46.2677 96.7312 46.441 96.4358C46.6172 96.1375 46.8629 95.9059 47.1783 95.7412C47.4964 95.5736 47.8686 95.4897 48.2947 95.4897C48.7322 95.4897 49.1086 95.575 49.424 95.7454C49.7393 95.913 49.9822 96.1361 50.1527 96.4145C50.3231 96.69 50.4084 96.9897 50.4084 97.3136C50.4084 97.7312 50.3047 98.0934 50.0973 98.4003C49.8899 98.7071 49.6072 98.9926 49.2493 99.2568L47.5106 100.552C47.1186 100.842 46.853 101.123 46.7138 101.396C46.5746 101.669 46.505 101.865 46.505 101.984C46.505 102.257 46.576 102.511 46.718 102.747C46.8601 102.983 47.0604 103.173 47.3189 103.318C47.5774 103.463 47.88 103.535 48.2265 103.535C48.5561 103.535 48.8771 103.466 49.1896 103.326C49.5021 103.184 49.7848 102.98 50.0376 102.713C50.2933 102.446 50.495 102.125 50.6427 101.75C50.7933 101.375 50.8686 100.953 50.8686 100.484H51.8402C51.8402 101.064 51.7734 101.537 51.6399 101.903C51.5064 102.27 51.3558 102.557 51.1882 102.764C51.0206 102.971 50.8856 103.126 50.7834 103.228C50.7493 103.271 50.718 103.314 50.6896 103.356C50.6612 103.399 50.63 103.441 50.5959 103.484C50.3146 103.799 49.9595 104.035 49.5305 104.191C49.1015 104.345 48.6783 104.422 48.2606 104.422ZM62.9421 98.3022C62.8484 98.0153 62.7248 97.7582 62.5714 97.5309C62.4208 97.3008 62.2404 97.1048 62.0302 96.9429C61.8228 96.7809 61.587 96.6574 61.3228 96.5721C61.0586 96.4869 60.7688 96.4443 60.4535 96.4443C59.9364 96.4443 59.4662 96.5778 59.043 96.8449C58.6197 97.1119 58.283 97.5054 58.033 98.0253C57.783 98.5451 57.658 99.1829 57.658 99.9386C57.658 100.694 57.7844 101.332 58.0373 101.852C58.2901 102.372 58.6324 102.765 59.0643 103.032C59.4961 103.299 59.9819 103.433 60.5216 103.433C61.0216 103.433 61.462 103.326 61.8427 103.113C62.2262 102.897 62.5245 102.593 62.7376 102.201C62.9535 101.807 63.0614 101.342 63.0614 100.808L63.3853 100.876H60.7603V99.9386H64.0841V100.876C64.0841 101.595 63.9307 102.22 63.6239 102.751C63.3199 103.282 62.8995 103.694 62.3626 103.987C61.8285 104.277 61.2148 104.422 60.5216 104.422C59.7489 104.422 59.0699 104.24 58.4847 103.876C57.9023 103.512 57.4478 102.995 57.1211 102.325C56.7972 101.655 56.6353 100.859 56.6353 99.9386C56.6353 99.2483 56.7276 98.6275 56.9123 98.0764C57.0998 97.5224 57.364 97.0508 57.7049 96.6616C58.0458 96.2724 58.4492 95.9741 58.9151 95.7667C59.381 95.5593 59.8938 95.4557 60.4535 95.4557C60.9137 95.4557 61.3427 95.5253 61.7404 95.6645C62.141 95.8008 62.4975 95.9954 62.81 96.2483C63.1253 96.4983 63.3881 96.798 63.5984 97.1474C63.8086 97.494 63.9535 97.879 64.033 98.3022H62.9421ZM67.6839 104.456C67.2692 104.456 66.8927 104.378 66.5547 104.221C66.2166 104.062 65.9481 103.833 65.7493 103.535C65.5504 103.234 65.451 102.87 65.451 102.444C65.451 102.069 65.5248 101.765 65.6726 101.532C65.8203 101.297 66.0177 101.112 66.2649 100.978C66.5121 100.845 66.7848 100.745 67.0831 100.68C67.3842 100.612 67.6868 100.558 67.9908 100.518C68.3885 100.467 68.7109 100.429 68.9581 100.403C69.2081 100.375 69.3899 100.328 69.5035 100.262C69.62 100.197 69.6783 100.083 69.6783 99.9216V99.8875C69.6783 99.467 69.5632 99.1403 69.3331 98.9074C69.1058 98.6744 68.7606 98.5579 68.2976 98.5579C67.8175 98.5579 67.441 98.663 67.1683 98.8733C66.8956 99.0835 66.7038 99.3079 66.593 99.5466L65.6385 99.2057C65.8089 98.8079 66.0362 98.4983 66.3203 98.2767C66.6072 98.0522 66.9197 97.896 67.2578 97.8079C67.5987 97.717 67.9339 97.6716 68.2635 97.6716C68.4737 97.6716 68.7152 97.6971 68.9879 97.7483C69.2635 97.7966 69.5291 97.8974 69.7848 98.0508C70.0433 98.2042 70.2578 98.4358 70.4283 98.7454C70.5987 99.0551 70.6839 99.4699 70.6839 99.9897V104.302H69.6783V103.416H69.6271C69.5589 103.558 69.4453 103.71 69.2862 103.872C69.1271 104.034 68.9155 104.172 68.6513 104.285C68.3871 104.399 68.0646 104.456 67.6839 104.456ZM67.8373 103.552C68.2351 103.552 68.5703 103.474 68.843 103.318C69.1186 103.162 69.326 102.96 69.4652 102.713C69.6072 102.466 69.6783 102.206 69.6783 101.933V101.012C69.6356 101.064 69.5419 101.11 69.397 101.153C69.255 101.193 69.0902 101.228 68.9027 101.26C68.718 101.288 68.5376 101.314 68.3615 101.336C68.1882 101.356 68.0476 101.373 67.9396 101.387C67.6783 101.422 67.4339 101.477 67.2067 101.554C66.9822 101.628 66.8004 101.74 66.6612 101.89C66.5248 102.038 66.4567 102.24 66.4567 102.495C66.4567 102.845 66.5859 103.109 66.8444 103.288C67.1058 103.464 67.4368 103.552 67.8373 103.552ZM72.5195 104.302V97.7568H73.4911V98.7795H73.5763C73.7127 98.4301 73.9329 98.1588 74.2368 97.9656C74.5408 97.7696 74.9059 97.6716 75.332 97.6716C75.7638 97.6716 76.1232 97.7696 76.4101 97.9656C76.6999 98.1588 76.9258 98.4301 77.0877 98.7795H77.1559C77.3235 98.4415 77.5749 98.173 77.9101 97.9741C78.2454 97.7724 78.6474 97.6716 79.1161 97.6716C79.7013 97.6716 80.18 97.8548 80.5522 98.2213C80.9243 98.5849 81.1104 99.1517 81.1104 99.9216V104.302H80.1047V99.9216C80.1047 99.4386 79.9726 99.0934 79.7084 98.8861C79.4442 98.6787 79.1332 98.575 78.7752 98.575C78.315 98.575 77.9584 98.7142 77.7056 98.9926C77.4528 99.2682 77.3263 99.6176 77.3263 100.041V104.302H76.3036V99.8193C76.3036 99.4471 76.1829 99.1474 75.9414 98.9201C75.6999 98.69 75.3888 98.575 75.0082 98.575C74.7468 98.575 74.5025 98.6446 74.2752 98.7838C74.0508 98.923 73.8689 99.1162 73.7297 99.3633C73.5934 99.6076 73.5252 99.8903 73.5252 100.211V104.302H72.5195ZM85.6935 104.439C85.0628 104.439 84.5188 104.299 84.0614 104.021C83.6069 103.74 83.256 103.348 83.0089 102.845C82.7645 102.339 82.6424 101.751 82.6424 101.081C82.6424 100.41 82.7645 99.8193 83.0089 99.3079C83.256 98.7937 83.5998 98.3932 84.0401 98.1062C84.4833 97.8165 85.0003 97.6716 85.5912 97.6716C85.9322 97.6716 86.2688 97.7284 86.6012 97.842C86.9336 97.9557 87.2361 98.1403 87.5089 98.396C87.7816 98.6488 87.9989 98.9841 88.1609 99.4017C88.3228 99.8193 88.4037 100.333 88.4037 100.944V101.37H83.3583V100.501H87.381C87.381 100.132 87.3072 99.8022 87.1594 99.5125C87.0145 99.2227 86.8072 98.994 86.5373 98.8264C86.2702 98.6588 85.9549 98.575 85.5912 98.575C85.1907 98.575 84.8441 98.6744 84.5515 98.8733C84.2617 99.0693 84.0387 99.325 83.8824 99.6403C83.7262 99.9557 83.6481 100.294 83.6481 100.655V101.234C83.6481 101.728 83.7333 102.147 83.9037 102.491C84.077 102.832 84.3171 103.092 84.6239 103.271C84.9307 103.447 85.2873 103.535 85.6935 103.535C85.9577 103.535 86.1964 103.498 86.4094 103.424C86.6253 103.348 86.8114 103.234 86.9677 103.083C87.1239 102.93 87.2447 102.74 87.3299 102.512L88.3015 102.785C88.1992 103.115 88.0273 103.405 87.7858 103.655C87.5444 103.902 87.2461 104.095 86.891 104.234C86.5358 104.37 86.1367 104.439 85.6935 104.439ZM31.6669 111.512V110.575H38.2123V111.512H35.468V119.302H34.4112V111.512H31.6669ZM40.7127 115.365V119.302H39.707V110.575H40.7127V113.78H40.7979C40.9513 113.441 41.1814 113.173 41.4883 112.974C41.7979 112.772 42.2099 112.672 42.7241 112.672C43.1701 112.672 43.5607 112.761 43.8959 112.94C44.2312 113.116 44.4911 113.387 44.6758 113.754C44.8633 114.118 44.957 114.581 44.957 115.143V119.302H43.9513V115.211C43.9513 114.691 43.8164 114.289 43.5465 114.005C43.2795 113.718 42.9087 113.575 42.4343 113.575C42.1047 113.575 41.8093 113.645 41.5479 113.784C41.2894 113.923 41.0849 114.126 40.9343 114.393C40.7866 114.66 40.7127 114.984 40.7127 115.365ZM49.5412 119.439C48.9105 119.439 48.3665 119.299 47.9091 119.021C47.4545 118.74 47.1037 118.348 46.8565 117.845C46.6122 117.339 46.49 116.751 46.49 116.081C46.49 115.41 46.6122 114.819 46.8565 114.308C47.1037 113.794 47.4474 113.393 47.8878 113.106C48.3309 112.816 48.848 112.672 49.4389 112.672C49.7798 112.672 50.1165 112.728 50.4488 112.842C50.7812 112.956 51.0838 113.14 51.3565 113.396C51.6292 113.649 51.8466 113.984 52.0085 114.402C52.1704 114.819 52.2514 115.333 52.2514 115.944V116.37H47.2059V115.501H51.2287C51.2287 115.132 51.1548 114.802 51.0071 114.512C50.8622 114.223 50.6548 113.994 50.3849 113.826C50.1179 113.659 49.8025 113.575 49.4389 113.575C49.0383 113.575 48.6917 113.674 48.3991 113.873C48.1094 114.069 47.8863 114.325 47.7301 114.64C47.5738 114.956 47.4957 115.294 47.4957 115.655V116.234C47.4957 116.728 47.5809 117.147 47.7514 117.491C47.9247 117.832 48.1648 118.092 48.4716 118.271C48.7784 118.447 49.1349 118.535 49.5412 118.535C49.8054 118.535 50.044 118.498 50.2571 118.424C50.473 118.348 50.6591 118.234 50.8153 118.083C50.9716 117.93 51.0923 117.74 51.1775 117.512L52.1491 117.785C52.0469 118.115 51.875 118.405 51.6335 118.655C51.392 118.902 51.0937 119.095 50.7386 119.234C50.3835 119.37 49.9844 119.439 49.5412 119.439ZM56.4403 119.439C55.8494 119.439 55.3309 119.298 54.8849 119.017C54.4417 118.735 54.0952 118.342 53.8452 117.836C53.598 117.331 53.4744 116.74 53.4744 116.064C53.4744 115.382 53.598 114.787 53.8452 114.278C54.0952 113.77 54.4417 113.375 54.8849 113.093C55.3309 112.812 55.8494 112.672 56.4403 112.672C57.0312 112.672 57.5483 112.812 57.9915 113.093C58.4375 113.375 58.7841 113.77 59.0312 114.278C59.2812 114.787 59.4062 115.382 59.4062 116.064C59.4062 116.74 59.2812 117.331 59.0312 117.836C58.7841 118.342 58.4375 118.735 57.9915 119.017C57.5483 119.298 57.0312 119.439 56.4403 119.439ZM56.4403 118.535C56.8892 118.535 57.2585 118.42 57.5483 118.19C57.8381 117.96 58.0525 117.657 58.1917 117.282C58.3309 116.907 58.4006 116.501 58.4006 116.064C58.4006 115.626 58.3309 115.218 58.1917 114.841C58.0525 114.463 57.8381 114.157 57.5483 113.924C57.2585 113.691 56.8892 113.575 56.4403 113.575C55.9915 113.575 55.6221 113.691 55.3324 113.924C55.0426 114.157 54.8281 114.463 54.6889 114.841C54.5497 115.218 54.4801 115.626 54.4801 116.064C54.4801 116.501 54.5497 116.907 54.6889 117.282C54.8281 117.657 55.0426 117.96 55.3324 118.19C55.6221 118.42 55.9915 118.535 56.4403 118.535ZM60.9414 119.302V112.757H61.913V113.745H61.9812C62.1005 113.422 62.3164 113.159 62.6289 112.957C62.9414 112.755 63.2937 112.655 63.6857 112.655C63.7596 112.655 63.8519 112.656 63.9627 112.659C64.0735 112.662 64.1573 112.666 64.2141 112.672V113.694C64.18 113.686 64.1019 113.673 63.9797 113.656C63.8604 113.636 63.734 113.626 63.6005 113.626C63.2823 113.626 62.9982 113.693 62.7482 113.826C62.501 113.957 62.305 114.139 62.1601 114.372C62.0181 114.602 61.9471 114.865 61.9471 115.16V119.302H60.9414ZM66.2532 121.757C66.0827 121.757 65.9307 121.743 65.7972 121.714C65.6637 121.689 65.5714 121.663 65.5202 121.637L65.7759 120.751C66.0202 120.814 66.2361 120.836 66.4236 120.819C66.6111 120.802 66.7773 120.718 66.9222 120.568C67.0699 120.42 67.2049 120.18 67.327 119.848L67.5145 119.336L65.0941 112.757H66.185L67.9918 117.973H68.06L69.8668 112.757H70.9577L68.1793 120.257C68.0543 120.595 67.8995 120.875 67.7148 121.096C67.5302 121.321 67.3157 121.487 67.0714 121.595C66.8299 121.703 66.5572 121.757 66.2532 121.757Z" fill="white"/>
<path fill-rule="evenodd" clip-rule="evenodd" d="M60.7827 79.2792C61.1847 72.8474 62.6685 67.0147 65.3194 61.8248C67.8942 56.7843 72.0546 52.8262 78.4746 49.8004C97.0639 41.0394 133.283 46.0928 133.283 46.0928L131.628 53.4406L157.686 43.8701L136.745 30.7208L135.369 36.8291C135.369 36.8291 99.5093 32.6838 76.7961 44.6328C63.3382 51.7127 57.7512 63.4302 58.3587 79.0776C58.4538 79.1329 60.0483 79.2808 60.7827 79.2792Z" fill="#868686"/>
</svg>
