<svg width="96" height="96" viewBox="0 0 96 96" fill="none" xmlns="http://www.w3.org/2000/svg">
<path d="M2.95673 11.5943C2.95673 7.92011 23.0799 4.9447 47.8996 4.9447C59.8207 4.9447 71.2474 5.64347 79.6742 6.8945C88.1122 8.14552 92.8424 9.8361 92.8424 11.5943V88.4591C92.8424 92.1333 72.7193 95.1087 47.8996 95.1087C23.0799 95.1087 2.95673 92.1333 2.95673 88.4591V11.5943Z" fill="#E6007A" stroke="white" stroke-miterlimit="10"/>
<path d="M47.8996 23.541C72.7208 23.541 92.8424 18.495 92.8424 12.2705C92.8424 6.04598 72.7208 1 47.8996 1C23.0783 1 2.95673 6.04598 2.95673 12.2705C2.95673 18.495 23.0783 23.541 47.8996 23.541Z" fill="#E6007A" stroke="white"/>
<path d="M10.9033 47.8228V39.0955H16.1703V40.033H11.9601V42.9819H15.8976V43.9194H11.9601V46.8853H16.2385V47.8228H10.9033ZM20.5979 47.9591C19.9842 47.9591 19.4558 47.8143 19.0126 47.5245C18.5694 47.2347 18.2285 46.8356 17.9899 46.327C17.7513 45.8185 17.6319 45.2376 17.6319 44.5841C17.6319 43.9194 17.7541 43.3327 17.9984 42.8242C18.2456 42.3128 18.5893 41.9137 19.0297 41.6268C19.4729 41.337 19.9899 41.1921 20.5808 41.1921C21.041 41.1921 21.4558 41.2773 21.8251 41.4478C22.1944 41.6182 22.497 41.8569 22.7328 42.1637C22.9686 42.4705 23.1149 42.8285 23.1717 43.2376H22.166C22.0893 42.9393 21.9189 42.6751 21.6547 42.4449C21.3933 42.212 21.041 42.0955 20.5979 42.0955C20.2058 42.0955 19.8621 42.1978 19.5666 42.4023C19.274 42.604 19.0453 42.8895 18.8805 43.2589C18.7186 43.6253 18.6376 44.0557 18.6376 44.5501C18.6376 45.0557 18.7172 45.4961 18.8763 45.8711C19.0382 46.2461 19.2655 46.5373 19.5581 46.7447C19.8535 46.952 20.2001 47.0557 20.5979 47.0557C20.8592 47.0557 21.0964 47.0103 21.3095 46.9194C21.5226 46.8285 21.703 46.6978 21.8507 46.5273C21.9984 46.3569 22.1035 46.1523 22.166 45.9137H23.1717C23.1149 46.3001 22.9743 46.6481 22.7498 46.9577C22.5283 47.2645 22.2342 47.5089 21.8677 47.6907C21.5041 47.8697 21.0808 47.9591 20.5979 47.9591ZM27.301 47.9591C26.7101 47.9591 26.1916 47.8185 25.7456 47.5373C25.3024 47.256 24.9558 46.8626 24.7058 46.3569C24.4587 45.8512 24.3351 45.2603 24.3351 44.5841C24.3351 43.9023 24.4587 43.3072 24.7058 42.7986C24.9558 42.2901 25.3024 41.8952 25.7456 41.614C26.1916 41.3327 26.7101 41.1921 27.301 41.1921C27.8919 41.1921 28.4089 41.3327 28.8521 41.614C29.2981 41.8952 29.6447 42.2901 29.8919 42.7986C30.1419 43.3072 30.2669 43.9023 30.2669 44.5841C30.2669 45.2603 30.1419 45.8512 29.8919 46.3569C29.6447 46.8626 29.2981 47.256 28.8521 47.5373C28.4089 47.8185 27.8919 47.9591 27.301 47.9591ZM27.301 47.0557C27.7498 47.0557 28.1192 46.9407 28.4089 46.7106C28.6987 46.4805 28.9132 46.1779 29.0524 45.8029C29.1916 45.4279 29.2612 45.0216 29.2612 44.5841C29.2612 44.1466 29.1916 43.739 29.0524 43.3611C28.9132 42.9833 28.6987 42.6779 28.4089 42.4449C28.1192 42.212 27.7498 42.0955 27.301 42.0955C26.8521 42.0955 26.4828 42.212 26.193 42.4449C25.9033 42.6779 25.6888 42.9833 25.5496 43.3611C25.4104 43.739 25.3408 44.1466 25.3408 44.5841C25.3408 45.0216 25.4104 45.4279 25.5496 45.8029C25.6888 46.1779 25.9033 46.4805 26.193 46.7106C26.4828 46.9407 26.8521 47.0557 27.301 47.0557ZM32.8077 43.8853V47.8228H31.802V41.2773H32.7736V42.3001H32.8589C33.0123 41.9677 33.2452 41.7006 33.5577 41.4989C33.8702 41.2944 34.2736 41.1921 34.768 41.1921C35.2111 41.1921 35.5989 41.283 35.9313 41.4648C36.2637 41.6438 36.5222 41.9165 36.7069 42.283C36.8915 42.6466 36.9839 43.1069 36.9839 43.6637V47.8228H35.9782V43.7319C35.9782 43.2177 35.8447 42.8171 35.5776 42.5302C35.3106 42.2404 34.9441 42.0955 34.4782 42.0955C34.1572 42.0955 33.8702 42.1651 33.6174 42.3043C33.3674 42.4435 33.1699 42.6466 33.0251 42.9137C32.8802 43.1807 32.8077 43.5046 32.8077 43.8853ZM44.6682 47.9421C44.0943 47.9421 43.6 47.837 43.1852 47.6268C42.7704 47.4165 42.4508 47.1282 42.2264 46.7617C42.002 46.3952 41.8898 45.9762 41.8898 45.5046C41.8898 45.141 41.9665 44.8185 42.1199 44.5373C42.2761 44.2532 42.4906 43.9904 42.7633 43.7489C43.0389 43.5046 43.3557 43.2603 43.7136 43.016L44.975 42.0785C45.2221 41.9165 45.4196 41.7432 45.5673 41.5586C45.7179 41.3739 45.7932 41.1324 45.7932 40.8341C45.7932 40.6126 45.6952 40.3981 45.4991 40.1907C45.306 39.9833 45.0517 39.8796 44.7364 39.8796C44.5148 39.8796 44.3187 39.9364 44.1483 40.0501C43.9807 40.1609 43.8486 40.3029 43.752 40.4762C43.6582 40.6466 43.6114 40.8228 43.6114 41.0046C43.6114 41.2091 43.6667 41.4165 43.7775 41.6268C43.8912 41.8341 44.0346 42.0472 44.2079 42.266C44.3841 42.4819 44.5659 42.7035 44.7534 42.9307L48.7591 47.8228H47.5489L44.242 43.8341C43.9352 43.4648 43.6568 43.1296 43.4068 42.8285C43.1568 42.5273 42.9579 42.2305 42.8102 41.9378C42.6625 41.6452 42.5886 41.3285 42.5886 40.9876C42.5886 40.5955 42.6753 40.2518 42.8486 39.9563C43.0247 39.658 43.2704 39.4265 43.5858 39.2617C43.904 39.0941 44.2761 39.0103 44.7023 39.0103C45.1398 39.0103 45.5162 39.0955 45.8315 39.266C46.1469 39.4336 46.3898 39.6566 46.5602 39.935C46.7307 40.2106 46.8159 40.5103 46.8159 40.8341C46.8159 41.2518 46.7122 41.614 46.5048 41.9208C46.2974 42.2276 46.0148 42.5131 45.6568 42.7773L43.9182 44.0728C43.5261 44.3626 43.2605 44.6438 43.1213 44.9165C42.9821 45.1893 42.9125 45.3853 42.9125 45.5046C42.9125 45.7773 42.9835 46.0316 43.1256 46.2674C43.2676 46.5032 43.4679 46.6935 43.7264 46.8384C43.9849 46.9833 44.2875 47.0557 44.6341 47.0557C44.9636 47.0557 45.2846 46.9861 45.5971 46.8469C45.9096 46.7049 46.1923 46.5003 46.4452 46.2333C46.7008 45.9663 46.9025 45.6452 47.0503 45.2702C47.2008 44.8952 47.2761 44.4734 47.2761 44.0046H48.2477C48.2477 44.5841 48.181 45.0572 48.0474 45.4236C47.9139 45.7901 47.7633 46.077 47.5957 46.2844C47.4281 46.4918 47.2932 46.6466 47.1909 46.7489C47.1568 46.7915 47.1256 46.8341 47.0971 46.8768C47.0687 46.9194 47.0375 46.962 47.0034 47.0046C46.7221 47.3199 46.367 47.5557 45.9381 47.712C45.5091 47.8654 45.0858 47.9421 44.6682 47.9421ZM59.3496 41.8228C59.2559 41.5359 59.1323 41.2788 58.9789 41.0515C58.8283 40.8214 58.6479 40.6253 58.4377 40.4634C58.2303 40.3015 57.9945 40.1779 57.7303 40.0927C57.4661 40.0074 57.1763 39.9648 56.861 39.9648C56.3439 39.9648 55.8738 40.0984 55.4505 40.3654C55.0272 40.6324 54.6905 41.0259 54.4405 41.5458C54.1905 42.0657 54.0655 42.7035 54.0655 43.4591C54.0655 44.2148 54.192 44.8526 54.4448 45.3725C54.6976 45.8924 55.04 46.2859 55.4718 46.5529C55.9036 46.8199 56.3894 46.9535 56.9292 46.9535C57.4292 46.9535 57.8695 46.8469 58.2502 46.6339C58.6337 46.418 58.932 46.114 59.1451 45.7219C59.361 45.327 59.469 44.8626 59.469 44.3285L59.7928 44.3966H57.1678V43.4591H60.4917V44.3966C60.4917 45.1154 60.3383 45.7404 60.0315 46.2716C59.7275 46.8029 59.307 47.2148 58.7701 47.5074C58.236 47.7972 57.6224 47.9421 56.9292 47.9421C56.1564 47.9421 55.4775 47.7603 54.8922 47.3966C54.3099 47.033 53.8553 46.516 53.5286 45.8455C53.2047 45.1751 53.0428 44.3796 53.0428 43.4591C53.0428 42.7688 53.1351 42.1481 53.3198 41.5969C53.5073 41.043 53.7715 40.5714 54.1124 40.1822C54.4533 39.793 54.8567 39.4947 55.3226 39.2873C55.7886 39.0799 56.3013 38.9762 56.861 38.9762C57.3212 38.9762 57.7502 39.0458 58.1479 39.185C58.5485 39.3214 58.905 39.516 59.2175 39.7688C59.5329 40.0188 59.7957 40.3185 60.0059 40.668C60.2161 41.0145 60.361 41.3995 60.4405 41.8228H59.3496ZM64.0915 47.9762C63.6767 47.9762 63.3003 47.8981 62.9622 47.7418C62.6241 47.5827 62.3557 47.354 62.1568 47.0557C61.9579 46.7546 61.8585 46.391 61.8585 45.9648C61.8585 45.5898 61.9324 45.2859 62.0801 45.0529C62.2278 44.8171 62.4253 44.6324 62.6724 44.4989C62.9196 44.3654 63.1923 44.266 63.4906 44.2006C63.7917 44.1324 64.0943 44.0785 64.3983 44.0387C64.796 43.9876 65.1185 43.9492 65.3656 43.9236C65.6156 43.8952 65.7974 43.8484 65.9111 43.783C66.0275 43.7177 66.0858 43.604 66.0858 43.4421V43.408C66.0858 42.9876 65.9707 42.6609 65.7406 42.4279C65.5133 42.1949 65.1682 42.0785 64.7051 42.0785C64.225 42.0785 63.8486 42.1836 63.5758 42.3938C63.3031 42.604 63.1114 42.8285 63.0006 43.0671L62.046 42.7262C62.2165 42.3285 62.4437 42.0188 62.7278 41.7972C63.0148 41.5728 63.3273 41.4165 63.6653 41.3285C64.0062 41.2376 64.3415 41.1921 64.671 41.1921C64.8812 41.1921 65.1227 41.2177 65.3954 41.2688C65.671 41.3171 65.9366 41.418 66.1923 41.5714C66.4508 41.7248 66.6653 41.9563 66.8358 42.266C67.0062 42.5756 67.0915 42.9904 67.0915 43.5103V47.8228H66.0858V46.9364H66.0346C65.9665 47.0785 65.8528 47.2305 65.6937 47.3924C65.5346 47.5543 65.323 47.6921 65.0588 47.8057C64.7946 47.9194 64.4721 47.9762 64.0915 47.9762ZM64.2449 47.0728C64.6426 47.0728 64.9778 46.9947 65.2506 46.8384C65.5261 46.6822 65.7335 46.4805 65.8727 46.2333C66.0148 45.9861 66.0858 45.7262 66.0858 45.4535V44.533C66.0432 44.5841 65.9494 44.631 65.8045 44.6736C65.6625 44.7134 65.4977 44.7489 65.3102 44.7802C65.1256 44.8086 64.9452 44.8341 64.769 44.8569C64.5957 44.8768 64.4551 44.8938 64.3471 44.908C64.0858 44.9421 63.8415 44.9975 63.6142 45.0742C63.3898 45.1481 63.2079 45.2603 63.0687 45.4109C62.9324 45.5586 62.8642 45.7603 62.8642 46.016C62.8642 46.3654 62.9935 46.6296 63.252 46.8086C63.5133 46.9847 63.8443 47.0728 64.2449 47.0728ZM68.927 47.8228V41.2773H69.8986V42.3001H69.9839C70.1202 41.9506 70.3404 41.6793 70.6444 41.4861C70.9484 41.2901 71.3134 41.1921 71.7395 41.1921C72.1714 41.1921 72.5307 41.2901 72.8177 41.4861C73.1074 41.6793 73.3333 41.9506 73.4952 42.3001H73.5634C73.731 41.962 73.9824 41.6935 74.3177 41.4947C74.6529 41.293 75.0549 41.1921 75.5236 41.1921C76.1089 41.1921 76.5876 41.3753 76.9597 41.7418C77.3319 42.1055 77.518 42.6722 77.518 43.4421V47.8228H76.5123V43.4421C76.5123 42.9591 76.3802 42.614 76.116 42.4066C75.8518 42.1992 75.5407 42.0955 75.1827 42.0955C74.7225 42.0955 74.366 42.2347 74.1131 42.5131C73.8603 42.7887 73.7339 43.1381 73.7339 43.5614V47.8228H72.7111V43.3398C72.7111 42.9677 72.5904 42.668 72.3489 42.4407C72.1074 42.2106 71.7964 42.0955 71.4157 42.0955C71.1543 42.0955 70.91 42.1651 70.6827 42.3043C70.4583 42.4435 70.2765 42.6367 70.1373 42.8839C70.0009 43.1282 69.9327 43.4109 69.9327 43.7319V47.8228H68.927ZM82.1011 47.9591C81.4704 47.9591 80.9263 47.8199 80.4689 47.5415C80.0144 47.2603 79.6636 46.8682 79.4164 46.3654C79.1721 45.8597 79.0499 45.2716 79.0499 44.6012C79.0499 43.9307 79.1721 43.3398 79.4164 42.8285C79.6636 42.3143 80.0073 41.9137 80.4476 41.6268C80.8908 41.337 81.4079 41.1921 81.9988 41.1921C82.3397 41.1921 82.6763 41.2489 83.0087 41.3626C83.3411 41.4762 83.6437 41.6609 83.9164 41.9165C84.1891 42.1694 84.4065 42.5046 84.5684 42.9222C84.7303 43.3398 84.8113 43.854 84.8113 44.4648V44.891H79.7658V44.0216H83.7886C83.7886 43.6523 83.7147 43.3228 83.567 43.033C83.4221 42.7432 83.2147 42.5145 82.9448 42.3469C82.6778 42.1793 82.3624 42.0955 81.9988 42.0955C81.5982 42.0955 81.2516 42.1949 80.959 42.3938C80.6692 42.5898 80.4462 42.8455 80.29 43.1609C80.1337 43.4762 80.0556 43.8143 80.0556 44.1751V44.7546C80.0556 45.2489 80.1408 45.668 80.3113 46.0117C80.4846 46.3526 80.7246 46.6126 81.0314 46.7915C81.3383 46.9677 81.6948 47.0557 82.1011 47.0557C82.3653 47.0557 82.6039 47.0188 82.817 46.9449C83.0329 46.8682 83.2189 46.7546 83.3752 46.604C83.5314 46.4506 83.6522 46.2603 83.7374 46.033L84.709 46.3057C84.6067 46.6353 84.4349 46.9251 84.1934 47.1751C83.9519 47.4222 83.6536 47.6154 83.2985 47.7546C82.9434 47.891 82.5442 47.9591 82.1011 47.9591ZM28.0744 55.033V54.0955H34.6199V55.033H31.8756V62.8228H30.8187V55.033H28.0744ZM37.1202 58.8853V62.8228H36.1145V54.0955H37.1202V57.3001H37.2055C37.3589 56.962 37.589 56.6935 37.8958 56.4947C38.2055 56.293 38.6174 56.1921 39.1316 56.1921C39.5776 56.1921 39.9682 56.2816 40.3035 56.4606C40.6387 56.6367 40.8986 56.908 41.0833 57.2745C41.2708 57.6381 41.3645 58.1012 41.3645 58.6637V62.8228H40.3589V58.7319C40.3589 58.212 40.2239 57.81 39.954 57.5259C39.687 57.239 39.3163 57.0955 38.8418 57.0955C38.5123 57.0955 38.2168 57.1651 37.9555 57.3043C37.6969 57.4435 37.4924 57.6466 37.3418 57.9137C37.1941 58.1807 37.1202 58.5046 37.1202 58.8853ZM45.9487 62.9591C45.318 62.9591 44.774 62.8199 44.3166 62.5415C43.8621 62.2603 43.5112 61.8682 43.264 61.3654C43.0197 60.8597 42.8976 60.2716 42.8976 59.6012C42.8976 58.9307 43.0197 58.3398 43.264 57.8285C43.5112 57.3143 43.855 56.9137 44.2953 56.6268C44.7385 56.337 45.2555 56.1921 45.8464 56.1921C46.1873 56.1921 46.524 56.2489 46.8564 56.3626C47.1888 56.4762 47.4913 56.6609 47.764 56.9165C48.0368 57.1694 48.2541 57.5046 48.416 57.9222C48.578 58.3398 48.6589 58.854 48.6589 59.4648V59.891H43.6135V59.0216H47.6362C47.6362 58.6523 47.5623 58.3228 47.4146 58.033C47.2697 57.7432 47.0623 57.5145 46.7925 57.3469C46.5254 57.1793 46.2101 57.0955 45.8464 57.0955C45.4459 57.0955 45.0993 57.1949 44.8067 57.3938C44.5169 57.5898 44.2939 57.8455 44.1376 58.1609C43.9814 58.4762 43.9033 58.8143 43.9033 59.1751V59.7546C43.9033 60.2489 43.9885 60.668 44.1589 61.0117C44.3322 61.3526 44.5723 61.6126 44.8791 61.7915C45.1859 61.9677 45.5425 62.0557 45.9487 62.0557C46.2129 62.0557 46.4515 62.0188 46.6646 61.9449C46.8805 61.8682 47.0666 61.7546 47.2229 61.604C47.3791 61.4506 47.4998 61.2603 47.5851 61.033L48.5567 61.3057C48.4544 61.6353 48.2825 61.9251 48.041 62.1751C47.7996 62.4222 47.5013 62.6154 47.1462 62.7546C46.791 62.891 46.3919 62.9591 45.9487 62.9591ZM52.8479 62.9591C52.2569 62.9591 51.7385 62.8185 51.2925 62.5373C50.8493 62.256 50.5027 61.8626 50.2527 61.3569C50.0055 60.8512 49.8819 60.2603 49.8819 59.5841C49.8819 58.9023 50.0055 58.3072 50.2527 57.7986C50.5027 57.2901 50.8493 56.8952 51.2925 56.614C51.7385 56.3327 52.2569 56.1921 52.8479 56.1921C53.4388 56.1921 53.9558 56.3327 54.399 56.614C54.845 56.8952 55.1916 57.2901 55.4388 57.7986C55.6888 58.3072 55.8138 58.9023 55.8138 59.5841C55.8138 60.2603 55.6888 60.8512 55.4388 61.3569C55.1916 61.8626 54.845 62.256 54.399 62.5373C53.9558 62.8185 53.4388 62.9591 52.8479 62.9591ZM52.8479 62.0557C53.2967 62.0557 53.666 61.9407 53.9558 61.7106C54.2456 61.4805 54.4601 61.1779 54.5993 60.8029C54.7385 60.4279 54.8081 60.0216 54.8081 59.5841C54.8081 59.1466 54.7385 58.739 54.5993 58.3611C54.4601 57.9833 54.2456 57.6779 53.9558 57.4449C53.666 57.212 53.2967 57.0955 52.8479 57.0955C52.399 57.0955 52.0297 57.212 51.7399 57.4449C51.4501 57.6779 51.2356 57.9833 51.0964 58.3611C50.9572 58.739 50.8876 59.1466 50.8876 59.5841C50.8876 60.0216 50.9572 60.4279 51.0964 60.8029C51.2356 61.1779 51.4501 61.4805 51.7399 61.7106C52.0297 61.9407 52.399 62.0557 52.8479 62.0557ZM57.3489 62.8228V56.2773H58.3205V57.266H58.3887C58.508 56.9421 58.7239 56.6793 59.0364 56.4776C59.3489 56.2759 59.7012 56.1751 60.0932 56.1751C60.1671 56.1751 60.2594 56.1765 60.3702 56.1793C60.481 56.1822 60.5648 56.1864 60.6216 56.1921V57.2148C60.5876 57.2063 60.5094 57.1935 60.3873 57.1765C60.268 57.1566 60.1415 57.1466 60.008 57.1466C59.6898 57.1466 59.4057 57.2134 59.1557 57.3469C58.9086 57.4776 58.7126 57.6594 58.5677 57.8924C58.4256 58.1225 58.3546 58.3853 58.3546 58.6807V62.8228H57.3489ZM62.6607 65.2773C62.4903 65.2773 62.3383 65.2631 62.2047 65.2347C62.0712 65.2091 61.9789 65.1836 61.9278 65.158L62.1834 64.2716C62.4278 64.3341 62.6437 64.3569 62.8312 64.3398C63.0187 64.3228 63.1849 64.239 63.3297 64.0884C63.4775 63.9407 63.6124 63.7006 63.7346 63.3682L63.9221 62.8569L61.5016 56.2773H62.5925L64.3993 61.4932H64.4675L66.2743 56.2773H67.3653L64.5868 63.7773C64.4618 64.1154 64.307 64.3952 64.1224 64.6168C63.9377 64.8413 63.7232 65.0074 63.4789 65.1154C63.2374 65.2234 62.9647 65.2773 62.6607 65.2773Z" fill="white"/>
</svg>
