<svg width="646" height="504" viewBox="0 0 646 504" fill="none" xmlns="http://www.w3.org/2000/svg">
<path d="M0.994332 243.569L0 235.25C13.3294 229.936 15.6675 222.61 16.6618 207.957C17.6561 196.981 17.6561 182.328 17.6561 170.681V82.2003C17.6561 70.5532 17.6561 55.9004 16.6618 44.9242C15.6675 30.2714 13.3294 22.9719 0 17.6314L0.994332 9.31201C14.0013 10.305 22.9771 10.305 31.308 10.305H92.6073C106.259 10.305 116.606 10.305 129.586 9.31201C131.924 26.2728 133.241 38.5908 134.262 56.8934L124.587 58.5572C120.26 46.2392 116.579 39.2617 111.58 33.9212C106.582 28.5807 98.9226 25.9239 92.5804 24.9309C84.2495 23.5891 76.913 23.2671 63.9329 23.2671C48.2654 23.2671 46.2768 25.9239 45.2824 39.2348C44.2881 49.5401 44.2881 61.5361 44.2881 73.5052V116.095C55.6289 116.095 78.9554 115.424 89.5974 114.431C104.593 112.767 109.269 107.454 114.268 92.1298L122.276 93.7937C121.282 106.783 121.282 114.082 121.282 122.402C121.282 130.721 121.282 138.369 122.276 151.358L114.268 153.022C109.269 137.725 104.593 132.734 89.5974 130.721C78.9285 129.379 55.2795 129.057 44.2881 129.057V173.982C44.2881 185.629 44.9599 203.609 45.2824 210.265C45.9543 226.581 51.6247 229.56 66.6203 229.56C81.6159 229.56 92.9566 229.238 101.933 227.896C113.596 226.232 118.917 221.563 123.915 214.585C127.92 208.252 131.252 201.274 135.579 188.956L144.581 190.62C142.915 210.587 140.255 226.903 136.573 244.186C112.252 242.844 81.9384 242.522 39.2627 242.522C22.9234 242.522 13.9475 242.522 0.940585 243.515L0.994332 243.569Z" fill="#1A0C6D"/>
<path d="M184.499 139.416C189.175 126.776 190.169 120.443 190.169 117.115C190.169 115.129 189.175 114.109 187.509 114.109C184.176 114.109 177.512 119.423 162.193 137.404L155.851 131.741C174.851 104.126 188.503 91.4861 199.494 91.4861C206.482 91.4861 212.824 97.8195 212.824 107.803C212.824 118.457 207.503 133.083 202.504 146.743L180.844 207.957C177.189 217.94 176.517 220.597 176.517 221.939C176.517 223.603 177.861 225.267 179.85 225.267C183.504 225.267 190.169 221.617 206.508 198.323L213.173 202.992C195.517 237.263 180.172 246.575 168.509 246.575C160.85 246.575 154.185 239.92 154.185 231.278C154.185 223.63 156.523 216.303 164.505 194.673L184.499 139.443V139.416ZM210.163 0C220.16 0 227.819 7.64844 227.819 17.6317C227.819 27.6149 220.16 35.2633 210.163 35.2633C200.166 35.2633 192.507 27.6149 192.507 17.6317C192.507 7.64844 200.166 0 210.163 0Z" fill="#1A0C6D"/>
<path d="M336.541 32.4106C344.55 41.4009 347.533 52.6991 347.533 65.0171C347.533 97.6236 323.534 120.918 294.215 120.918C279.219 120.918 268.228 116.597 258.553 108.6C248.234 116.597 245.896 124.246 245.896 131.894C245.896 141.555 253.555 147.862 268.55 148.533L308.861 149.875C341.19 150.868 356.831 170.163 356.831 195.121C356.831 225.071 327.162 251.344 280.859 251.344C243.208 251.344 224.208 234.705 224.208 212.082C224.208 196.436 231.868 184.118 250.867 171.156C236.544 166.164 226.869 155.188 226.869 139.542C226.869 126.554 232.862 113.243 249.873 100.28C242.214 89.9752 238.532 79.3211 238.532 65.0171C238.532 33.7256 263.525 9.11646 292.844 9.11646C312.167 9.11646 317.165 15.7719 336.165 15.7719C344.496 15.7719 356.159 15.4499 367.822 14.4301L370.483 20.0926L367.822 32.4106H336.487H336.541ZM302.895 175.155C287.899 175.155 275.914 175.155 262.235 174.162C250.572 185.138 245.896 196.114 245.896 206.446C245.896 220.75 258.231 232.746 286.206 232.746C324.529 232.746 338.53 216.429 338.53 200.81C338.53 185.192 327.861 175.181 302.868 175.181L302.895 175.155ZM264.251 63.0044C264.251 92.2832 275.591 107.607 294.242 107.607C311.575 107.607 322.244 95.9598 322.244 66.681C322.244 39.0661 310.581 22.4274 292.253 22.4274C275.914 22.4274 264.251 35.0675 264.251 63.0312V63.0044Z" fill="#1A0C6D"/>
<path d="M434.793 94.4849C466.772 94.4849 491.12 118.101 491.12 150.064C491.12 152.72 491.12 155.055 490.448 157.712H387.817C387.145 161.711 387.145 165.36 387.145 170.352C387.145 204.622 407.811 227.917 434.47 227.917C455.808 227.917 468.788 220.59 482.44 200.973L490.448 205.964C480.451 230.922 460.78 251.56 431.138 251.56C389.483 251.56 361.83 216.296 361.83 175.693C361.83 129.426 393.487 94.5117 434.793 94.5117V94.4849ZM461.774 144.401C461.451 121.778 446.106 109.46 427.456 109.46C407.139 109.46 394.132 124.757 390.128 144.401H461.774Z" fill="#1A0C6D"/>
<path d="M629.029 94.0675C629.029 104.373 629.029 116.02 629.7 126.352C630.695 139.985 632.71 145.325 645.019 150.317L644.024 157.965C632.361 156.973 625.024 156.973 617.365 156.973C609.706 156.973 602.37 156.973 590.706 157.965L589.712 150.317C602.047 145.325 603.713 140.012 604.708 126.352C605.702 116.047 605.702 104.4 605.702 94.0675V58.8042C605.702 40.1796 594.361 27.5127 576.705 27.5127C553.701 27.5127 539.377 43.1584 539.377 64.4399V94.0675C539.377 104.373 539.377 116.02 540.049 126.352C541.044 139.985 543.059 145.325 555.367 150.317L554.373 157.965C542.71 156.973 535.373 156.973 527.714 156.973C520.055 156.973 512.719 156.973 501.055 157.965L500.061 150.317C512.396 145.325 514.062 140.012 515.057 126.352C516.051 116.047 516.051 104.4 516.051 94.0675V85.7481C516.051 75.4429 516.051 64.7887 515.057 54.4566C514.062 40.8236 510.73 37.8179 498.717 35.4831V28.5056C514.035 21.1792 522.366 15.8656 534.03 5.21143L541.017 7.86825C540.022 18.5224 539.351 27.5127 539.028 35.832L539.351 36.1541C548.353 19.1933 564.021 5.88234 584.015 5.88234C600.354 5.88234 614.006 13.5308 622.014 26.5197C626.341 34.1681 629.002 42.4875 629.002 55.7985V94.0675H629.029Z" fill="#1A0C6D"/>
<path d="M44.2881 429.125C44.2881 440.772 44.6106 458.753 45.2824 465.408C46.9486 481.725 51.6246 484.704 66.6202 484.704C81.6158 484.704 90.9411 484.704 100.616 483.04C112.601 480.705 118.944 475.391 123.942 467.743C128.269 461.41 131.951 453.761 136.277 440.799L145.952 442.463C144.286 463.771 141.276 480.732 137.621 499.357C111.285 498.015 81.9652 497.693 39.3164 497.693C22.9771 497.693 14.0013 497.693 0.994329 498.686L0 490.366C13.3294 485.053 15.6674 477.726 16.6618 463.073C17.6561 452.097 17.6561 437.444 17.6561 425.797V337.29C17.6561 325.643 17.6561 310.99 16.6618 300.014C15.6674 285.361 13.3294 278.062 0 272.721L0.994329 264.402C14.0013 265.395 22.9771 265.395 30.6631 265.395C38.9939 265.395 47.9967 265.395 60.9767 264.402L61.9711 272.721C48.6416 278.035 46.3036 285.361 45.3093 300.014C44.315 310.99 44.3149 325.643 44.3149 337.29V429.125H44.2881Z" fill="#1A0C6D"/>
<path d="M162.387 371.212C168.729 359.565 185.391 347.247 205.036 347.247C221.375 347.247 234.033 352.909 242.014 364.556C247.335 372.205 252.011 385.516 252.011 400.491V432.426C252.011 442.732 252.011 452.393 252.683 462.698C253.355 473.674 258.676 481.994 269.345 486.985L265.018 500.296C242.014 499.303 233.361 489.32 230.351 474.345H229.679C220.676 494.634 206.03 502.953 191.034 502.953C169.697 502.953 156.367 488.971 156.367 471.339C156.367 455.694 164.376 446.381 177.356 438.062C189.691 430.065 211.674 422.094 228.658 417.774V401.457C228.658 391.152 225.997 383.154 221.671 377.492C216.672 370.836 208.019 368.179 200.682 368.179C189.341 368.179 180.016 372.849 168.702 381.812L162.36 371.158L162.387 371.212ZM228.685 429.447C221.698 431.782 215.678 434.439 209.362 437.096C186.708 446.757 180.043 456.74 180.043 465.704C180.043 474.667 185.042 482.665 196.705 482.665C210.357 482.665 228.685 470.695 228.685 447.723V429.421V429.447Z" fill="#1A0C6D"/>
<path d="M363.766 378.81L385.749 327.23C394.752 306.271 396.069 298.623 396.069 292.289C396.069 285.312 394.402 279.971 384.405 274.657L385.749 267.009C395.424 268.002 401.067 268.002 408.404 268.002C415.74 268.002 420.389 268.002 430.064 267.009L431.058 274.657C425.065 279.971 421.384 285.983 415.068 298.623C410.07 308.606 406.066 318.589 402.062 327.579L343.073 460.689C336.731 474.993 330.416 485.325 323.751 492.303C318.081 497.965 309.078 502.957 298.436 502.957C289.433 502.957 282.769 496.972 282.769 488.975C282.769 481.648 287.767 475.342 295.426 475.342C301.768 475.342 304.079 477.006 310.099 477.006C317.086 477.006 322.085 471.692 327.083 461.038L351.082 409.136L318.081 327.606C314.426 318.294 310.072 305.976 304.751 294.007C299.753 283.031 297.415 280.025 289.433 274.711L290.777 267.063C300.452 267.734 310.449 268.056 317.758 268.056C325.068 268.056 331.088 267.734 340.762 267.063L341.757 274.711C334.42 278.039 331.76 282.708 331.76 288.022C331.76 295.671 333.103 302.004 343.1 326.962L363.766 378.864V378.81Z" fill="#1A0C6D"/>
<path d="M463.912 346.603C495.892 346.603 520.212 370.219 520.212 402.181C520.212 404.838 520.212 407.173 519.541 409.83H416.909C416.238 413.829 416.238 417.478 416.238 422.47C416.238 456.74 436.903 480.035 463.562 480.035C484.9 480.035 497.88 472.708 511.532 453.091L519.541 458.082C509.543 483.04 489.872 503.678 460.23 503.678C418.576 503.678 390.922 468.414 390.922 427.81C390.922 381.544 422.58 346.63 463.885 346.63L463.912 346.603ZM490.893 396.519C490.571 373.896 475.226 361.578 456.575 361.578C436.259 361.578 423.252 376.875 419.247 396.519H490.893Z" fill="#1A0C6D"/>
<path d="M613.348 369.43C597.681 369.43 584.701 387.733 584.701 419.668V435.314C584.701 445.619 584.701 457.266 585.373 467.599C586.367 481.232 589.377 487.243 604.023 491.564L603.029 499.212C591.366 498.219 580.697 498.219 573.038 498.219C565.379 498.219 558.042 498.219 546.379 499.212L545.384 491.564C557.72 486.572 559.386 481.258 560.38 467.599C561.374 457.293 561.374 445.646 561.374 435.314V426.995C561.374 416.689 561.374 406.035 560.38 395.703C559.386 382.07 556.053 379.065 544.041 376.73V369.752C559.359 362.426 567.69 357.112 579.353 346.458L586.34 349.115C585.346 359.769 584.674 373.08 584.352 381.399L584.674 381.721C593.677 359.769 608.995 347.102 624.662 347.102C638.314 347.102 646 354.751 646 363.741C646 372.731 641.002 375.388 634.014 375.388C625.361 375.388 621.357 369.403 613.348 369.403V369.43Z" fill="#1A0C6D"/>
</svg>
