<?xml version="1.0" encoding="utf-8"?>
<!-- Generator: Adobe Illustrator 18.0.0, SVG Export Plug-In . SVG Version: 6.00 Build 0)  -->
<!DOCTYPE svg PUBLIC "-//W3C//DTD SVG 1.1//EN" "http://www.w3.org/Graphics/SVG/1.1/DTD/svg11.dtd">
<svg version="1.1" id="ecommerce_1_" xmlns="http://www.w3.org/2000/svg" xmlns:xlink="http://www.w3.org/1999/xlink" x="0px"
	 y="0px" viewBox="0 0 115 115" style="enable-background:new 0 0 115 115;" xml:space="preserve">
<style type="text/css">
	.st0{fill:#FFEEAD;}
	.st1{fill:#C9B77D;}
	.st2{fill:#99734A;}
	.st3{fill:#FF6F69;}
	.st4{fill:#96CEB4;}
	.st5{fill:none;}
	.st6{fill:#AA9865;}
	.st7{fill:#71A58A;}
	.st8{fill:#FFCC5C;}
	.st9{fill:#825E3B;}
	.st10{fill:#639376;}
	.st11{fill:#E05858;}
	.st12{fill:#C1821E;}
	.st13{fill:#D6A041;}
	.st14{fill:#B28559;}
	.st15{fill:#BF4343;}
	.st16{fill:#D3C089;}
	.st17{fill:#7C5C3C;}
	.st18{fill:#FDCC5C;}
	.st19{fill:#FFFFFF;}
</style>
<g id="online_auction_1_">
	<g>
		<g>
			<path class="st9" d="M49.873,95.255v9.903c-0.027,0.104-0.042,0.209-0.042,0.315c0,3.436,14.588,6.222,32.584,6.222
				c17.586,0,31.909-2.661,32.553-5.989H115V95.255H49.873z"/>
		</g>
	</g>
	<g>
		<g>
			<ellipse class="st1" cx="82.416" cy="95.255" rx="32.584" ry="6.222"/>
		</g>
	</g>
	<g>
		<g>
			<path class="st2" d="M69.081,93.444H51.238c-0.911,0.573-1.406,1.181-1.406,1.81s0.494,1.237,1.406,1.811h17.843
				c0.996,0,1.81-0.815,1.81-1.811S70.077,93.444,69.081,93.444z"/>
		</g>
	</g>
	<g>
		<g>
			<path class="st10" d="M57.222,85.869v7.667c-0.021,0.081-0.032,0.162-0.032,0.243c0,2.66,11.294,4.817,25.226,4.817
				c13.615,0,24.704-2.06,25.202-4.636h0.024v-8.091H57.222z"/>
		</g>
	</g>
	<g>
		<g>
			<g>
				<path class="st3" d="M57.397,47.64L57.397,47.64c-1.901-2.612-5.592-3.194-8.204-1.293l-38.341,27.9
					c-2.612,1.9-3.194,5.592-1.293,8.204c1.901,2.612,5.592,3.194,8.204,1.293l38.341-27.9
					C58.715,53.944,59.297,50.252,57.397,47.64z"/>
			</g>
		</g>
		<g>
			<g>
				<path class="st11" d="M58.259,49.447c-0.349,1.212-1.063,2.326-2.155,3.122l-38.341,27.9c-2.612,1.901-6.304,1.319-8.204-1.293
					C9.15,78.615,8.879,78,8.696,77.368c-0.485,1.685-0.243,3.563,0.862,5.083c1.901,2.612,5.592,3.194,8.204,1.294l38.341-27.9
					C58.155,54.352,58.931,51.759,58.259,49.447z"/>
			</g>
		</g>
		<g>
			<g>
				<path class="st2" d="M18.91,81.994l-5.785-7.949c-0.947-1.302-2.77-1.589-4.072-0.642l-5.659,4.118
					c-3.148,2.291-4.346,6.556-2.567,10.019c2.242,4.365,7.779,5.557,11.59,2.784l5.851-4.257
					C19.569,85.119,19.857,83.296,18.91,81.994z"/>
			</g>
		</g>
		<g>
			<g>
				<path class="st9" d="M18.91,81.994l-0.11-0.151c-0.154,0.189-0.325,0.366-0.532,0.516l-5.851,4.257
					c-3.812,2.773-9.348,1.582-11.59-2.784c-0.269-0.524-0.449-1.069-0.585-1.621c-0.433,1.752-0.285,3.635,0.585,5.329
					c2.242,4.365,7.778,5.557,11.59,2.783l5.851-4.257C19.569,85.119,19.857,83.296,18.91,81.994z"/>
			</g>
		</g>
		<g>
			<g>
				<path class="st1" d="M66.177,44.299l-2.644-3.634c-1.807-2.483-5.317-3.036-7.8-1.229l-5.277,3.84
					c-2.483,1.807-3.036,5.317-1.229,7.8l2.644,3.634c1.807,2.483,5.317,3.036,7.8,1.229l5.277-3.84
					C67.43,50.292,67.984,46.782,66.177,44.299z"/>
			</g>
		</g>
		<g>
			<g>
				<path class="st0" d="M93.724,45.685l-24.828-34.12c-3.379-4.643-9.942-5.678-14.585-2.299l-9.146,6.655
					c-4.643,3.379-5.678,9.942-2.299,14.585l24.828,34.12c3.379,4.643,9.942,5.678,14.585,2.299l9.146-6.655
					C96.069,56.892,97.103,50.328,93.724,45.685z"/>
			</g>
		</g>
		<g>
			<g>
				<path class="st2" d="M99.483,50.641c-1.267-1.741-3.728-2.129-5.469-0.862L71.501,66.16c-1.741,1.267-2.129,3.728-0.862,5.47
					c1.267,1.741,3.728,2.129,5.469,0.862l22.512-16.382C100.362,54.844,100.75,52.382,99.483,50.641z"/>
			</g>
		</g>
		<g>
			<g>
				<path class="st9" d="M99.483,50.641c-0.091-0.125-0.2-0.227-0.303-0.338c0.032,1.247-0.524,2.491-1.603,3.276L75.064,69.96
					c-1.616,1.176-3.84,0.91-5.166-0.524c0.02,0.765,0.259,1.531,0.741,2.194c1.267,1.741,3.728,2.129,5.469,0.862l22.512-16.382
					C100.362,54.844,100.75,52.382,99.483,50.641z"/>
			</g>
		</g>
		<g>
			<g>
				<path class="st2" d="M66.208,4.913c-1.267-1.741-3.728-2.129-5.469-0.862L38.226,20.432c-1.741,1.267-2.129,3.728-0.862,5.47
					c1.267,1.741,3.728,2.129,5.469,0.862l22.512-16.382C67.087,9.115,67.475,6.654,66.208,4.913z"/>
			</g>
		</g>
		<g>
			<g>
				<path class="st11" d="M96.134,47.518c-0.61-0.838-1.795-1.025-2.633-0.415L69.112,64.85c-0.838,0.61-1.025,1.795-0.415,2.633
					c0.61,0.838,1.795,1.025,2.633,0.415l24.388-17.747C96.558,49.542,96.744,48.357,96.134,47.518z"/>
			</g>
		</g>
		<g>
			<g>
				<path class="st11" d="M68.49,9.529c-0.61-0.838-1.795-1.025-2.633-0.415L41.469,26.86c-0.838,0.61-1.025,1.795-0.415,2.633h0
					c0.61,0.838,1.795,1.025,2.633,0.415l24.388-17.747C68.914,11.552,69.1,10.367,68.49,9.529z"/>
			</g>
		</g>
	</g>
	<g>
		<g>
			<ellipse class="st4" cx="82.416" cy="85.869" rx="25.226" ry="4.817"/>
		</g>
	</g>
	<g>
		<g>
			<ellipse class="st4" cx="82.416" cy="85.869" rx="25.226" ry="4.817"/>
		</g>
	</g>
	<g>
		<g>
			<path class="st7" d="M83.066,82.904c-5.29,0-9.968,0.473-12.899,1.2H59.001c-1.076,0.43-1.812,1.14-1.812,1.765
				s0.559,1.242,1.784,1.765h11.194c2.93,0.727,7.609,1.2,12.899,1.2c8.88,0,16.079-1.327,16.079-2.965
				C99.146,84.231,91.947,82.904,83.066,82.904z"/>
		</g>
	</g>
</g>
</svg>
