<svg xmlns="http://www.w3.org/2000/svg" viewBox="0 0 60 60"><title>17-Goods</title><g id="_17-Goods" data-name="17-Goods"><rect x="13" y="30" width="8" height="4" rx="1" ry="1" style="fill:#f2f2f2"/><path d="M27,26V38a3,3,0,0,1-3,3H10a3,3,0,0,1-3-3V26H27Zm-6,7V31a1,1,0,0,0-1-1H14a1,1,0,0,0-1,1v2a1,1,0,0,0,1,1h6A1,1,0,0,0,21,33Z" style="fill:#e3a76f"/><path d="M29,22v3a1,1,0,0,1-1,1H22l5-5h1A1,1,0,0,1,29,22Z" style="fill:#f2f2f2"/><polygon points="27 21 22 26 17 26 22 21 27 21" style="fill:#c18f5f"/><polygon points="22 21 17 26 12 26 17 21 22 21" style="fill:#f2f2f2"/><polygon points="17 21 12 26 7 26 12 21 17 21" style="fill:#c18f5f"/><path d="M12,21,7,26H6a1,1,0,0,1-1-1V22a1,1,0,0,1,1-1Z" style="fill:#f2f2f2"/><rect x="7" y="26" width="20" height="3" style="fill:#c39160"/><rect x="37" y="30" width="8" height="4" rx="1" ry="1" style="fill:#f2f2f2"/><path d="M51,26V38a3,3,0,0,1-3,3H34a3,3,0,0,1-3-3V26H51Zm-6,7V31a1,1,0,0,0-1-1H38a1,1,0,0,0-1,1v2a1,1,0,0,0,1,1h6A1,1,0,0,0,45,33Z" style="fill:#e3a76f"/><path d="M53,22v3a1,1,0,0,1-1,1H46l5-5h1A1,1,0,0,1,53,22Z" style="fill:#f2f2f2"/><polygon points="51 21 46 26 41 26 46 21 51 21" style="fill:#c18f5f"/><polygon points="46 21 41 26 36 26 41 21 46 21" style="fill:#f2f2f2"/><polygon points="41 21 36 26 31 26 36 21 41 21" style="fill:#c18f5f"/><path d="M36,21l-5,5H30a1,1,0,0,1-1-1V22a1,1,0,0,1,1-1Z" style="fill:#f2f2f2"/><rect x="31" y="26" width="20" height="3" style="fill:#c39160"/><rect x="28" y="10" width="8" height="4" rx="1" ry="1" style="fill:#f2f2f2"/><path d="M42,6V18a3,3,0,0,1-3,3H25a3,3,0,0,1-3-3V6H42Zm-6,7V11a1,1,0,0,0-1-1H29a1,1,0,0,0-1,1v2a1,1,0,0,0,1,1h6A1,1,0,0,0,36,13Z" style="fill:#e3a76f"/><path d="M44,2V5a1,1,0,0,1-1,1H37l5-5h1A1,1,0,0,1,44,2Z" style="fill:#f2f2f2"/><polygon points="42 1 37 6 32 6 37 1 42 1" style="fill:#c18f5f"/><polygon points="37 1 32 6 27 6 32 1 37 1" style="fill:#f2f2f2"/><polygon points="32 1 27 6 22 6 27 1 32 1" style="fill:#c18f5f"/><path d="M27,1,22,6H21a1,1,0,0,1-1-1V2a1,1,0,0,1,1-1Z" style="fill:#f2f2f2"/><rect x="22" y="6" width="20" height="3" style="fill:#c39160"/><g id="_Group_" data-name="&lt;Group&gt;"><path d="M45,45a5,5,0,1,1-5,5A5,5,0,0,1,45,45Zm1,5a1,1,0,1,0-1,1A1,1,0,0,0,46,50Z" style="fill:#9196aa"/><path d="M29,45a5,5,0,1,1-5,5A5,5,0,0,1,29,45Zm1,5a1,1,0,1,0-1,1A1,1,0,0,0,30,50Z" style="fill:#9196aa"/><path d="M14,45a5,5,0,1,1-5,5A5,5,0,0,1,14,45Zm1,5a1,1,0,1,0-1,1A1,1,0,0,0,15,50Z" style="fill:#9196aa"/><path d="M45,55a5,5,0,0,0,0-10h5a5,5,0,0,1,0,10Z" style="fill:#e9edf5"/><path d="M29,45H45a5,5,0,0,0,0,10H29a5,5,0,0,0,0-10Z" style="fill:#e9edf5"/><path d="M14,45H29a5,5,0,0,0,0,10H14a5,5,0,0,0,0-10Z" style="fill:#e9edf5"/><path d="M10,45h4a5,5,0,0,0,0,10H10a5,5,0,0,1,0-10Z" style="fill:#e9edf5"/><path d="M59,48v4a7,7,0,0,1-7,7H8a7,7,0,0,1-7-7V48a7,7,0,0,1,7-7H52A7,7,0,0,1,59,48Zm-4,2a5,5,0,0,0-5-5H10a5,5,0,0,0,0,10H50A5,5,0,0,0,55,50Z" style="fill:#bec3d2"/><circle cx="45" cy="50" r="1" style="fill:#e9edf5"/><circle cx="29" cy="50" r="1" style="fill:#e9edf5"/><circle cx="14" cy="50" r="1" style="fill:#e9edf5"/><path d="M52,40h-.556A3.959,3.959,0,0,0,52,38V27a2,2,0,0,0,2-2V22a2,2,0,0,0-2-2H42.444A3.959,3.959,0,0,0,43,18V7a2,2,0,0,0,2-2V2a2,2,0,0,0-2-2H21a2,2,0,0,0-2,2V5a2,2,0,0,0,2,2V18a3.959,3.959,0,0,0,.556,2H6a2,2,0,0,0-2,2v3a2,2,0,0,0,2,2V38a3.972,3.972,0,0,0,.625,2.127A8.006,8.006,0,0,0,0,48v4a8.009,8.009,0,0,0,8,8H52a8.009,8.009,0,0,0,8-8V48A8.009,8.009,0,0,0,52,40Zm-2-2a2,2,0,0,1-2,2H34a2,2,0,0,1-2-2V27H50ZM10,40a2,2,0,0,1-2-2V27H26V38a2,2,0,0,1-2,2Zm4.586-18-3,3H9.414l3-3Zm5,0-3,3H14.414l3-3Zm14,0-3,3H30l0-3Zm5,0-3,3H33.414l3-3Zm10,0-3,3H43.414l3-3Zm-8,3H38.414l3-3h2.172ZM24.414,25l3-3h.572L28,22v3Zm.172-3-3,3H19.414l3-3ZM28,38V27a1.978,1.978,0,0,0,1-.278A1.978,1.978,0,0,0,30,27V38a3.959,3.959,0,0,0,.556,2H27.444A3.959,3.959,0,0,0,28,38ZM52,25H48.414l3-3H52ZM41,18a2,2,0,0,1-2,2H25a2,2,0,0,1-2-2V7H41ZM29.586,2l-3,3H24.414l3-3Zm5,0-3,3H29.414l3-3Zm5,0-3,3H34.414l3-3ZM43,5H39.414l3-3H43ZM21,2h3.586l-3,3H21ZM6,22H9.586l-3,3H6ZM58,52a6.006,6.006,0,0,1-6,6H8a6.006,6.006,0,0,1-6-6V48a6.006,6.006,0,0,1,6-6H52a6.006,6.006,0,0,1,6,6Z" style="fill:#2b1505"/><path d="M50,44H10a6,6,0,0,0,0,12H50a6,6,0,0,0,0-12Zm-1,6a4,4,0,1,1-4-4A4,4,0,0,1,49,50ZM10,50a4,4,0,1,1,4,4A4,4,0,0,1,10,50Zm8.46-4h6.08a5.965,5.965,0,0,0,0,8H18.46a5.965,5.965,0,0,0,0-8ZM25,50a4,4,0,1,1,4,4A4,4,0,0,1,25,50Zm8.46-4h7.08a5.965,5.965,0,0,0,0,8H33.46a5.965,5.965,0,0,0,0-8ZM6,50a3.993,3.993,0,0,1,3.494-3.949,5.966,5.966,0,0,0,0,7.9A3.993,3.993,0,0,1,6,50Zm44,4h-.54a5.965,5.965,0,0,0,0-8H50a4,4,0,0,1,0,8Z" style="fill:#2b1505"/><path d="M20,29H14a2,2,0,0,0-2,2v2a2,2,0,0,0,2,2h6a2,2,0,0,0,2-2V31A2,2,0,0,0,20,29Zm0,4-6,0V31h6Z" style="fill:#2b1505"/><path d="M44,29H38a2,2,0,0,0-2,2v2a2,2,0,0,0,2,2h6a2,2,0,0,0,2-2V31A2,2,0,0,0,44,29Zm0,4-6,0V31h6Z" style="fill:#2b1505"/><path d="M35,9H29a2,2,0,0,0-2,2v2a2,2,0,0,0,2,2h6a2,2,0,0,0,2-2V11A2,2,0,0,0,35,9Zm0,4-6,0V11h6Z" style="fill:#2b1505"/></g></g></svg>