<svg xmlns="http://www.w3.org/2000/svg" viewBox="0 0 64 64"><g id="_13-Magic_Ball" data-name="13-Magic Ball"><polygon points="57 59 57 63 7 63 7 59 42 59 44 59 46 59 48 59 57 59" style="fill:#7e8596"/><path d="M57,57v2H7V57a2.006,2.006,0,0,1,2-2H55A2.006,2.006,0,0,1,57,57Z" style="fill:#afb4c8"/><path d="M14.65,47.03A6.441,6.441,0,0,1,13,43a2.8,2.8,0,0,1,2.54-2.95,22.966,22.966,0,0,0,32.92,0A2.8,2.8,0,0,1,51,43a6.441,6.441,0,0,1-1.65,4.03A3.794,3.794,0,0,1,53,51c0,4-3,4-3,4H14s-3,0-3-4A3.794,3.794,0,0,1,14.65,47.03Z" style="fill:#9f72fc"/><path d="M36,47a22.87,22.87,0,0,0,14.736-5.352,2.894,2.894,0,0,0-2.276-1.6A22.886,22.886,0,0,1,34,46.907C34.66,46.964,35.326,47,36,47Z" style="fill:#8457e5"/><path d="M15,51a3.794,3.794,0,0,1,3.65-3.97A6.441,6.441,0,0,1,17,43a3.285,3.285,0,0,1,.264-1.352,23.06,23.06,0,0,1-1.724-1.6A2.8,2.8,0,0,0,13,43a6.441,6.441,0,0,0,1.65,4.03A3.794,3.794,0,0,0,11,51c0,4,3,4,3,4h4S15,55,15,51Z" style="fill:#8457e5"/><circle cx="37" cy="24" r="3" style="fill:#9f72fc"/><circle cx="27" cy="24" r="3" style="fill:#9f72fc"/><path d="M43,24a10.97,10.97,0,0,1-5,9.21V37H26V33.21A11,11,0,1,1,43,24Zm-3,0a3,3,0,1,0-3,3A3,3,0,0,0,40,24ZM30,24a3,3,0,1,0-3,3A3,3,0,0,0,30,24Z" style="fill:#f2f6fc"/><path d="M48.46,40.05A22.99,22.99,0,1,1,55,24,22.891,22.891,0,0,1,48.46,40.05ZM38,33.21a11,11,0,1,0-12,0V37H38Z" style="fill:#cdf55f"/><path d="M48.46,36.05A23,23,0,0,1,9.092,22C9.035,22.661,9,23.326,9,24a23,23,0,0,0,46,0c0-.674-.035-1.339-.092-2A22.912,22.912,0,0,1,48.46,36.05Z" style="fill:#a7e340"/><path d="M32,9A10.9,10.9,0,0,0,21.2,21.961a10.994,10.994,0,0,1,21.608,0A10.9,10.9,0,0,0,32,9Z" style="fill:#a7e340"/><path d="M50.529,19.779A18.893,18.893,0,0,0,32,5V7A16.9,16.9,0,0,1,48.579,20.221Z" style="fill:#ebffa4"/><path d="M48.9,22.11A17.211,17.211,0,0,1,49,24h2a19.211,19.211,0,0,0-.116-2.11Z" style="fill:#ebffa4"/><rect x="29" y="33" width="2" height="4" style="fill:#afb4c8"/><rect x="33" y="33" width="2" height="4" style="fill:#afb4c8"/><rect x="58" y="23" width="5" height="2" style="fill:#ffb13b"/><rect x="57.172" y="17" width="5.657" height="2" transform="translate(4.846 47.698) rotate(-45)" style="fill:#ffb13b"/><rect x="59" y="27.172" width="2" height="5.657" transform="translate(-3.64 51.213) rotate(-45)" style="fill:#ffb13b"/><rect x="1" y="23" width="5" height="2" style="fill:#ffb13b"/><rect x="3" y="15.172" width="2" height="5.657" transform="translate(-11.556 8.101) rotate(-45)" style="fill:#ffb13b"/><rect x="1.172" y="29" width="5.657" height="2" transform="translate(-20.042 11.615) rotate(-45)" style="fill:#ffb13b"/><polygon points="20 10 18 10 18 12 16 12 16 14 18 14 18 16 20 16 20 14 22 14 22 12 20 12 20 10" style="fill:#86c42b"/><polygon points="20 32 18 32 18 34 16 34 16 36 18 36 18 38 20 38 20 36 22 36 22 34 20 34 20 32" style="fill:#86c42b"/><polygon points="48 29 46 29 46 31 44 31 44 33 46 33 46 35 48 35 48 33 50 33 50 31 48 31 48 29" style="fill:#86c42b"/><polygon points="59 39 57 39 57 41 55 41 55 43 57 43 57 45 59 45 59 43 61 43 61 41 59 41 59 39" style="fill:#ffb13b"/><polygon points="8 35 6 35 6 37 4 37 4 39 6 39 6 41 8 41 8 39 10 39 10 37 8 37 8 35" style="fill:#ffb13b"/><polygon points="57 8 59 8 59 6 61 6 61 4 59 4 59 2 57 2 57 4 55 4 55 6 57 6 57 8" style="fill:#ffb13b"/><polygon points="9 2 7 2 7 4 5 4 5 6 7 6 7 8 9 8 9 6 11 6 11 4 9 4 9 2" style="fill:#ffb13b"/><path d="M48.579,20.221l1.95-.442A18.893,18.893,0,0,0,32,5V7A16.9,16.9,0,0,1,48.579,20.221Z"/><path d="M49,24h2a19.211,19.211,0,0,0-.116-2.11l-1.988.22A17.211,17.211,0,0,1,49,24Z"/><path d="M55,54H53.3a5.925,5.925,0,0,0,.7-3,4.592,4.592,0,0,0-2.972-4.594A7.955,7.955,0,0,0,52,43a3.713,3.713,0,0,0-1.812-3.368,24,24,0,1,0-36.376,0A3.713,3.713,0,0,0,12,43a7.955,7.955,0,0,0,.972,3.406A4.592,4.592,0,0,0,10,51a5.925,5.925,0,0,0,.7,3H9a3,3,0,0,0-3,3v6a1,1,0,0,0,1,1H57a1,1,0,0,0,1-1V57A3,3,0,0,0,55,54ZM10,24A22,22,0,1,1,48.067,39.005c-.021,0-.046-.005-.067-.005v.076a21.948,21.948,0,0,1-32,0V39c-.021,0-.046.005-.067.005A21.912,21.912,0,0,1,10,24Zm2,27a2.716,2.716,0,0,1,2.3-2.92A8.064,8.064,0,0,0,20,50V48c-5.782,0-5.995-4.492-6-5a1.771,1.771,0,0,1,1.222-1.862,23.943,23.943,0,0,0,33.556,0A1.767,1.767,0,0,1,50,43C50,43.508,49.782,48,44,48v2a8.064,8.064,0,0,0,5.7-1.92A2.716,2.716,0,0,1,52,51c0,2.8-1.678,2.99-2,3H14C13.918,54,12,53.966,12,51ZM8,62V60H42V58H8V57a1,1,0,0,1,1-1H55a1,1,0,0,1,1,1v1H48v2h8v2Z"/><path d="M25,33.739V37a1,1,0,0,0,1,1H38a1,1,0,0,0,1-1V33.739a12,12,0,1,0-14,0ZM32,14a10,10,0,0,1,5.454,18.375,1,1,0,0,0-.454.838V36H35V33H33v3H31V33H29v3H27V33.213a1,1,0,0,0-.454-.838A10,10,0,0,1,32,14Z"/><path d="M37,28a4,4,0,1,0-4-4A4,4,0,0,0,37,28Zm0-6a2,2,0,1,1-2,2A2,2,0,0,1,37,22Z"/><path d="M27,28a4,4,0,1,0-4-4A4,4,0,0,0,27,28Zm0-6a2,2,0,1,1-2,2A2,2,0,0,1,27,22Z"/><rect x="58" y="23" width="5" height="2"/><rect x="57.172" y="17" width="5.657" height="2" transform="translate(4.846 47.698) rotate(-45)"/><rect x="59" y="27.172" width="2" height="5.657" transform="translate(-3.64 51.213) rotate(-45)"/><rect x="1" y="23" width="5" height="2"/><rect x="3" y="15.172" width="2" height="5.657" transform="translate(-11.556 8.101) rotate(-45)"/><rect x="1.172" y="29" width="5.657" height="2" transform="translate(-20.042 11.615) rotate(-45)"/><polygon points="18 16 20 16 20 14 22 14 22 12 20 12 20 10 18 10 18 12 16 12 16 14 18 14 18 16"/><polygon points="18 38 20 38 20 36 22 36 22 34 20 34 20 32 18 32 18 34 16 34 16 36 18 36 18 38"/><polygon points="48 29 46 29 46 31 44 31 44 33 46 33 46 35 48 35 48 33 50 33 50 31 48 31 48 29"/><polygon points="59 39 57 39 57 41 55 41 55 43 57 43 57 45 59 45 59 43 61 43 61 41 59 41 59 39"/><polygon points="6 41 8 41 8 39 10 39 10 37 8 37 8 35 6 35 6 37 4 37 4 39 6 39 6 41"/><polygon points="57 8 59 8 59 6 61 6 61 4 59 4 59 2 57 2 57 4 55 4 55 6 57 6 57 8"/><polygon points="7 8 9 8 9 6 11 6 11 4 9 4 9 2 7 2 7 4 5 4 5 6 7 6 7 8"/><rect x="44" y="58" width="2" height="2"/></g></svg>