<?xml version="1.0" encoding="iso-8859-1"?>
<!-- Generator: Adobe Illustrator 19.0.0, SVG Export Plug-In . SVG Version: 6.00 Build 0)  -->
<svg xmlns="http://www.w3.org/2000/svg" xmlns:xlink="http://www.w3.org/1999/xlink" version="1.1" id="Layer_1" x="0px" y="0px" viewBox="0 0 512 512" style="enable-background:new 0 0 512 512;" xml:space="preserve">
<path style="fill:#029AE6;" d="M120.546,316.179c0-68.755,49.921-95.271,49.921-95.271h171.066c0,0,49.921,26.516,49.921,95.271  l-134.93,35.756L120.546,316.179z"/>
<path style="opacity:0.1;enable-background:new    ;" d="M160.458,316.179c0-68.755,49.921-95.271,49.921-95.271h-39.912  c0,0-49.921,26.516-49.921,95.271l135.978,35.756l19.879-5.268L160.458,316.179z"/>
<path style="fill:#85512D;" d="M134.626,152.67v-23.813C134.626,61.931,189.075,7.483,256,7.483  c66.926,0,121.374,54.448,121.374,121.373v23.813L134.626,152.67L134.626,152.67z"/>
<path style="opacity:0.1;enable-background:new    ;" d="M275.956,9.134c-6.495-1.08-13.159-1.65-19.956-1.65  c-66.925,0-121.374,54.448-121.374,121.374v23.813h39.912v-23.813C174.538,68.727,218.492,18.68,275.956,9.134z"/>
<g>
	<path style="fill:#F2A36D;" d="M162.264,194.706c-5.253-1.501-10.436-3.428-15.207-6.111   c-14.849-8.352-20.687-23.529-17.714-40.051c2.917-16.206,15.313-27.42,31.74-19.574l14.461,31.587L162.264,194.706z"/>
	<path style="fill:#F2A36D;" d="M349.734,194.706c5.253-1.501,10.436-3.428,15.207-6.111c14.849-8.352,20.687-23.529,17.714-40.051   c-2.917-16.206-15.313-27.42-31.74-19.574l-14.461,31.587L349.734,194.706z"/>
</g>
<path style="fill:#FFB480;" d="M331.908,84.308c-11.164,0-20.804-4.266-25.304-10.437v0.006c-4.502,6.168-14.139,10.432-25.3,10.432  c-11.164,0-20.804-4.266-25.304-10.437v0.006c-4.502,6.168-14.139,10.432-25.3,10.432c-11.164,0-20.804-4.266-25.304-10.437v0.006  c-4.502,6.168-14.139,10.432-25.3,10.432c-2.601,0-5.115-0.24-7.504-0.674c-7.338,13.471-11.508,28.916-11.508,45.336v50.752  c0,5.1,0.407,10.104,1.181,14.986L256,227.43l93.735-32.72c0.774-4.882,1.181-9.886,1.181-14.986v-50.752  c0-16.419-4.17-31.864-11.508-45.335C337.021,84.067,334.508,84.308,331.908,84.308z"/>
<path style="fill:#B8703F;" d="M256,180.216c-34.862,0-67.174,5.36-93.735,14.491c7.185,45.3,46.413,79.931,93.735,79.931l0,0  c47.321,0,86.55-34.631,93.735-79.931C323.174,185.576,290.862,180.216,256,180.216z"/>
<path style="fill:#333333;" d="M291.672,199.028c0,19.701-15.971,35.672-35.672,35.672s-35.672-15.971-35.672-35.672  L291.672,199.028L291.672,199.028z"/>
<polygon style="fill:#CCCCCC;" points="94.136,316.179 122.607,471.657 256.524,488.087 389.393,471.657 417.864,316.179 "/>
<polygon style="opacity:0.1;enable-background:new    ;" points="162.518,471.657 134.047,316.179 94.136,316.179 122.607,471.657   256.524,488.087 276.402,485.629 "/>
<circle style="fill:#FFFFFF;" cx="256.004" cy="390.008" r="19.227"/>
<path style="fill:#B3B3B3;" d="M390.441,471.657H122.607c-9.074,0-16.43,7.356-16.43,16.43l0,0c0,9.074,7.356,16.43,16.43,16.43  H390.44c9.074,0,16.43-7.356,16.43-16.43l0,0C406.87,479.013,399.514,471.657,390.441,471.657z"/>
<path style="opacity:0.1;enable-background:new    ;" d="M146.089,488.087L146.089,488.087c0-9.074,7.356-16.43,16.43-16.43h-39.912  c-9.074,0-16.43,7.356-16.43,16.43l0,0c0,9.074,7.356,16.43,16.43,16.43h39.912C153.445,504.517,146.089,497.161,146.089,488.087z"/>
<path d="M195.505,129.201c1.051,0,2.117-0.223,3.133-0.691c2.939-1.357,9.199-2.807,17.951-2.807c8.75,0,15.008,1.45,17.947,2.806  c3.752,1.732,8.199,0.094,9.93-3.659c1.732-3.753,0.094-8.199-3.659-9.93c-5.761-2.659-14.589-4.183-24.218-4.183  c-9.635,0-18.466,1.526-24.226,4.187c-3.753,1.732-5.389,6.179-3.656,9.931C189.971,127.59,192.677,129.201,195.505,129.201z"/>
<circle cx="216.581" cy="152.672" r="10.758"/>
<path d="M255.999,234.7c19.701,0,35.672-15.971,35.672-35.672h-71.344C220.328,218.728,236.298,234.7,255.999,234.7z"/>
<path d="M277.46,128.508c2.94-1.357,9.201-2.807,17.948-2.807c8.753,0,15.013,1.45,17.951,2.807c1.017,0.47,2.082,0.691,3.133,0.691  c2.828,0,5.535-1.611,6.798-4.347c1.733-3.752,0.097-8.199-3.656-9.931c-5.76-2.661-14.592-4.187-24.226-4.187  c-9.629,0-18.456,1.525-24.217,4.183c-3.754,1.731-5.391,6.177-3.661,9.93C269.262,128.601,273.708,130.24,277.46,128.508z"/>
<circle cx="295.417" cy="152.672" r="10.758"/>
<path d="M282.711,390.006c0-14.729-11.982-26.712-26.712-26.712c-14.729,0-26.712,11.983-26.712,26.712  c0,14.728,11.983,26.712,26.712,26.712C270.728,416.718,282.711,404.733,282.711,390.006z M244.255,390.006  c0-6.476,5.268-11.745,11.745-11.745c6.477,0,11.745,5.268,11.745,11.745c0,6.477-5.268,11.745-11.745,11.745  S244.255,396.481,244.255,390.006z"/>
<path d="M113.257,308.695H94.136c-2.221,0-4.326,0.987-5.748,2.692c-1.423,1.706-2.014,3.955-1.612,6.139l27.154,148.284  c-8.906,3.482-15.234,12.151-15.234,22.276c0,13.186,10.727,23.913,23.913,23.913h204.646c4.134,0,7.483-3.351,7.483-7.483  c0-4.133-3.35-7.483-7.483-7.483H122.607c-4.932,0-8.946-4.013-8.946-8.946c0-4.933,4.013-8.946,8.946-8.946h266.786h1.049  c4.932,0,8.946,4.013,8.946,8.946c0,4.933-4.013,8.946-8.946,8.946h-33.255c-4.134,0-7.483,3.351-7.483,7.483  c0,4.133,3.35,7.483,7.483,7.483h33.255c13.186,0,23.913-10.727,23.913-23.913c0-10.494-6.797-19.423-16.217-22.635l27.088-147.925  c0.4-2.184-0.19-4.433-1.612-6.139c-1.422-1.705-3.527-2.692-5.748-2.692h-19.127c-0.668-12.871-3.059-25.132-7.15-36.539  c-1.395-3.89-5.679-5.912-9.571-4.517c-3.889,1.395-5.913,5.679-4.517,9.571c3.514,9.798,5.611,20.36,6.256,31.485H183.91  c-4.134,0-7.483,3.351-7.483,7.483c0,4.133,3.35,7.483,7.483,7.483h224.976l-25.73,140.511H128.844l-25.73-140.511h50.864  c4.134,0,7.483-3.351,7.483-7.483c0-4.133-3.35-7.483-7.483-7.483h-25.738c1.325-23.333,8.921-43.715,22.632-60.671  c6.195-7.662,12.454-13.039,16.894-16.36c0.143,0.242,0.294,0.479,0.439,0.72c10.261,17.088,25.631,31.087,43.606,39.706  c0.136,0.065,0.272,0.13,0.408,0.195c13.627,6.43,28.66,9.828,43.73,9.833c0.018,0,0.035,0.001,0.052,0.001s0.035-0.001,0.052-0.001  c15.072-0.005,30.117-3.381,43.737-9.836c0.132-0.063,0.262-0.125,0.394-0.188c18.013-8.614,33.303-22.572,43.592-39.674  c0.152-0.251,0.309-0.5,0.459-0.753c5.082,3.804,12.542,10.298,19.579,19.834c2.455,3.326,7.14,4.032,10.465,1.579  c3.326-2.454,4.032-7.139,1.578-10.465c-9.137-12.382-18.868-20.334-24.901-24.57c2.287-5.656,4.077-11.522,5.32-17.539  c4.6-1.552,8.668-3.328,12.336-5.39c17.076-9.604,25.081-27.51,21.411-47.9c-0.952-5.288-2.734-10.036-5.166-14.062v-4.298  C384.857,57.804,327.051,0,255.999,0c-19.246,0-37.783,4.168-55.094,12.389c-3.734,1.773-5.323,6.236-3.551,9.97  c1.773,3.734,6.24,5.322,9.97,3.55c15.29-7.261,31.668-10.942,48.675-10.942c59.91,0,109.164,46.501,113.57,105.303  c-0.608-0.205-1.226-0.376-1.872-0.54c-3.193-0.807-6.505-0.999-9.772-0.597c-0.089-0.921-0.193-1.84-0.306-2.758  c-0.031-0.249-0.068-0.497-0.101-0.746c-1.196-9.102-3.609-18.043-7.175-26.502c-1.303-3.091-2.751-6.129-4.363-9.072  c-1.544-2.834-4.73-4.359-7.906-3.784c-2.026,0.367-4.1,0.553-6.166,0.553c-9.594,0-16.585-3.698-19.258-7.363  c-2.951-4.047-9.233-4.005-12.138,0.066c-1.016,1.366-2.629,2.734-4.754,3.909c-0.043,0.024-0.09,0.045-0.133,0.069  c-3.535,1.928-7.413,2.869-11.405,3.193c-7.494,0.61-17.402-0.691-22.176-7.237c-1.908-2.616-5.282-3.708-8.366-2.703  c-1.56,0.508-2.865,1.497-3.773,2.769c-2.473,3.463-7.105,5.337-11.073,6.339c-0.099,0.025-0.204,0.044-0.302,0.067  c-2.351,0.559-4.973,0.892-7.832,0.892c-9.594,0-16.585-3.698-19.258-7.363c-2.895-3.969-9.277-3.939-12.137,0.066  c-1.524,2.049-4.393,4.102-8.311,5.506c-1.386,0.497-2.811,0.88-4.255,1.163c-4.185,0.821-8.62,0.879-12.812,0.075  c-3.172-0.578-6.363,0.949-7.908,3.784c-4.944,9.079-8.469,18.938-10.475,29.076c-0.15,0.757-1.677,9.98-1.471,10.004  c-1.132-0.14-2.26-0.21-3.38-0.21c-2.791,0-5.616,0.456-8.262,1.345c2.305-30.595,16.859-58.979,40.728-78.889  c3.174-2.647,3.599-7.367,0.953-10.54c-2.65-3.175-7.368-3.6-10.541-0.953c-29.506,24.614-46.429,60.686-46.429,98.969v4.299  c-2.432,4.026-4.213,8.773-5.166,14.062c-3.67,20.39,4.334,38.295,21.411,47.9c3.666,2.061,7.733,3.839,12.335,5.389  c1.242,6.008,3.028,11.867,5.31,17.514C147.586,227.388,115.981,254.978,113.257,308.695z M173.344,198.779  c26.746-7.795,54.838-11.079,82.655-11.079c28.718,0,57.639,3.54,85.118,12.073c-1.676,7.131-4.28,14.05-7.687,20.534  c-0.051,0.097-0.103,0.194-0.154,0.29c-13.479,25.405-38.902,42.617-67.203,45.955c-3.248,0.383-6.681,0.6-10.016,0.603  c-0.019,0-0.038,0.001-0.058,0.001s-0.038-0.001-0.058-0.001c-3.346-0.003-6.69-0.21-10.014-0.602  c-28.303-3.339-53.728-20.552-67.208-45.959c-0.05-0.095-0.101-0.19-0.151-0.285c-3.397-6.497-6.01-13.397-7.688-20.536  C170.839,199.589,171.776,199.235,173.344,198.779z M361.275,182.071c-0.94,0.529-1.923,1.037-2.948,1.524  c0.049-1.293,0.073-2.585,0.073-3.874v-45.497c0.027-0.006,0.054-0.011,0.081-0.017c0.928-0.198,1.876-0.315,2.825-0.315  c8.318,0,12.719,8.942,13.986,15.978C377.817,163.904,372.709,175.642,361.275,182.071z M174.097,98.325  c0.839-2.25,1.772-4.465,2.796-6.637c1.066,0.069,2.135,0.104,3.202,0.104c9.719,0,18.77-2.782,25.302-7.549  c6.534,4.767,15.582,7.549,25.302,7.549c9.719,0,18.77-2.782,25.301-7.549c6.534,4.767,15.583,7.549,25.302,7.549  c9.718,0,18.77-2.782,25.302-7.549c6.534,4.767,15.582,7.549,25.302,7.549c1.065,0,2.132-0.035,3.197-0.104  c4.095,8.692,6.732,18.057,7.794,27.642c0.354,3.195,0.533,6.414,0.533,9.641v50.751c0,1.337-0.053,2.672-0.101,4.008  c-0.016,0.347-0.042,0.693-0.062,1.041c-0.346-0.104-0.699-0.2-1.047-0.302c-10.453-3.08-21.114-5.493-31.86-7.302  c-17.945-3.02-36.17-4.434-54.365-4.434c-22.681,0-45.447,2.173-67.621,6.991c-6.253,1.36-12.466,2.935-18.604,4.747  c-0.346,0.103-0.699,0.198-1.044,0.301c-0.02-0.347-0.046-0.693-0.062-1.041c-0.061-1.335-0.101-2.671-0.101-4.008V128.97  C168.566,118.483,170.459,108.075,174.097,98.325z M150.725,182.072c-11.435-6.431-16.543-18.168-14.017-32.203  c1.08-6.002,4.086-13.069,10.262-15.329c2.111-0.772,4.364-0.792,6.547-0.333c0.028,0.006,0.055,0.011,0.083,0.017v45.497  c0,1.289,0.024,2.581,0.073,3.874C152.646,183.108,151.665,182.6,150.725,182.072z"/>
<g>
</g>
<g>
</g>
<g>
</g>
<g>
</g>
<g>
</g>
<g>
</g>
<g>
</g>
<g>
</g>
<g>
</g>
<g>
</g>
<g>
</g>
<g>
</g>
<g>
</g>
<g>
</g>
<g>
</g>
</svg>
