<?xml version="1.0" encoding="iso-8859-1"?>
<!-- Generator: Adobe Illustrator 19.0.0, SVG Export Plug-In . SVG Version: 6.00 Build 0)  -->
<svg version="1.1" id="Layer_1" xmlns="http://www.w3.org/2000/svg" xmlns:xlink="http://www.w3.org/1999/xlink" x="0px" y="0px"
	 viewBox="0 0 512.001 512.001" style="enable-background:new 0 0 512.001 512.001;" xml:space="preserve">
<path style="fill:#E4EAF6;" d="M235.944,8.781C116.111,18.203,18.872,114.988,8.906,234.777
	C4.2,291.347,18.532,344.336,46.15,388.104c3.095,4.904,3.688,10.97,1.335,16.27L8.802,491.501
	c-3.289,7.408,4.278,14.974,11.685,11.685l87.127-38.683c5.301-2.354,11.366-1.76,16.27,1.335
	c43.766,27.619,96.752,41.948,153.32,37.245c119.788-9.961,216.574-107.194,226.003-227.024
	C515.227,123.294,388.707-3.231,235.944,8.781z"/>
<circle style="fill:#FF6464;" cx="256.005" cy="255.983" r="213.783"/>
<path style="fill:#D2555A;" d="M256.01,42.196c-118.069,0-213.783,95.714-213.783,213.783s95.714,213.783,213.783,213.783
	s213.783-95.714,213.783-213.783S374.079,42.196,256.01,42.196z M256.01,444.096c-103.894,0-188.117-84.223-188.117-188.117
	S152.116,67.861,256.01,67.861s188.117,84.223,188.117,188.118C444.128,359.873,359.905,444.096,256.01,444.096z"/>
<g>
	<path style="fill:#FFFFFF;" d="M256.01,341.513c-9.445,0-17.103-7.658-17.103-17.103v-3.014c0-19.733,13.762-36.886,33.471-41.705
		c31.023-7.607,52.903-36.376,52.018-68.393c-0.99-35.65-30.79-65.454-66.431-66.439c-18.831-0.418-36.297,6.355-49.65,19.341
		c-13.357,12.994-20.714,30.414-20.714,49.045c0,9.445-7.658,17.103-17.103,17.103s-17.103-7.658-17.103-17.103
		c0-27.95,11.035-54.072,31.069-73.563c20.029-19.483,46.46-29.779,74.444-29.011c53.483,1.478,98.198,46.197,99.676,99.676
		c1.328,48.018-31.504,91.149-78.068,102.565c-3.687,0.902-7.403,3.875-7.403,8.485v3.014
		C273.113,333.855,265.455,341.513,256.01,341.513z"/>
	<circle style="fill:#FFFFFF;" cx="256.005" cy="392.815" r="17.103"/>
</g>
<path d="M437.038,74.972C383.994,21.926,310.472-5.11,235.316,0.8C175.463,5.506,118.731,31.758,75.569,74.72
	C32.406,117.684,5.894,174.294,0.917,234.124c-4.68,56.259,8.618,110.989,38.454,158.27c1.715,2.718,2.01,5.985,0.787,8.738
	L1.475,488.259c-2.855,6.431-1.485,13.801,3.491,18.775c4.975,4.976,12.345,6.344,18.775,3.49l87.127-38.683
	c2.754-1.223,6.02-0.928,8.738,0.788c41.094,25.933,87.813,39.371,136.277,39.371c7.292,0,14.627-0.305,21.985-0.916
	c59.828-4.975,116.438-31.485,159.403-74.644c42.963-43.158,69.217-99.889,73.927-159.74
	C517.113,201.545,490.082,128.018,437.038,74.972z M495.215,275.441c-4.41,56.061-29.024,109.222-69.306,149.686
	c-40.282,40.466-93.329,65.317-149.368,69.978c-52.758,4.388-104.067-8.074-148.377-36.035c-7.253-4.576-16.149-5.278-23.801-1.882
	l-87.127,38.683c-0.21,0.093-0.526,0.234-0.932-0.173c-0.406-0.406-0.266-0.723-0.174-0.932l38.684-87.127
	c3.397-7.652,2.694-16.55-1.882-23.802c-27.963-44.313-40.424-95.623-36.035-148.384c4.662-56.04,29.517-109.087,69.985-149.368
	c40.467-40.281,93.629-64.892,149.693-69.3c6.388-0.502,12.75-0.75,19.098-0.75c63.699,0,124.814,25.056,170.029,70.276
	C475.423,136.034,500.76,204.97,495.215,275.441z"/>
<path d="M256.01,34.19c-122.301,0-221.8,99.499-221.8,221.8s99.499,221.8,221.8,221.8s221.8-99.499,221.8-221.8
	S378.311,34.19,256.01,34.19z M256.01,461.755c-113.46,0-205.766-92.306-205.766-205.766S142.55,50.224,256.01,50.224
	s205.766,92.306,205.766,205.766S369.47,461.755,256.01,461.755z"/>
<path d="M259.128,102.645c-30.178-0.846-58.666,10.28-80.255,31.279c-21.601,21.015-33.495,49.181-33.495,79.309
	c0,13.851,11.268,25.119,25.119,25.119c13.851,0,25.119-11.268,25.119-25.119c0-16.45,6.495-31.826,18.287-43.297
	c11.869-11.543,27.057-17.438,43.839-17.075c31.46,0.87,57.766,27.179,58.64,58.648c0.781,28.274-18.527,53.67-45.908,60.384
	c-23.306,5.698-39.583,26.05-39.583,49.492v3.014c0,13.851,11.268,25.119,25.119,25.119c13.851,0,25.119-11.268,25.119-25.119
	l-0.025-2.968c0.083-0.144,0.579-0.563,1.319-0.745c50.205-12.309,85.605-58.811,84.174-110.573
	C365.004,152.449,316.795,104.239,259.128,102.645z M278.611,305.113c-8.084,1.978-13.515,8.516-13.515,16.272v3.014
	c0,5.01-4.076,9.086-9.086,9.086c-5.01,0-9.086-4.076-9.086-9.086v-3.014c0-16.032,11.249-29.979,27.363-33.918
	c34.667-8.501,59.111-40.633,58.122-76.403c-1.105-39.83-34.402-73.131-74.268-74.232c-0.599-0.014-1.195-0.02-1.792-0.02
	c-20.259,0-39.243,7.642-53.626,21.628c-14.923,14.517-23.141,33.975-23.141,54.791c0,5.01-4.076,9.086-9.086,9.086
	s-9.086-4.076-9.086-9.086c0-25.762,10.173-49.847,28.643-67.816c18.459-17.955,42.835-27.439,68.633-26.744
	c49.303,1.363,90.521,42.581,91.884,91.884C351.794,254.824,321.53,294.591,278.611,305.113z"/>
<path d="M256.01,367.691c-13.851,0-25.119,11.268-25.119,25.119c0,13.851,11.268,25.119,25.119,25.119s25.119-11.268,25.119-25.119
	C281.13,378.959,269.861,367.691,256.01,367.691z M256.01,401.896c-5.01,0-9.086-4.076-9.086-9.086s4.076-9.086,9.086-9.086
	c5.01,0,9.086,4.076,9.086,9.086S261.02,401.896,256.01,401.896z"/>
<g>
</g>
<g>
</g>
<g>
</g>
<g>
</g>
<g>
</g>
<g>
</g>
<g>
</g>
<g>
</g>
<g>
</g>
<g>
</g>
<g>
</g>
<g>
</g>
<g>
</g>
<g>
</g>
<g>
</g>
</svg>
