<?xml version="1.0" encoding="utf-8"?>
<!-- Generator: Adobe Illustrator 24.3.0, SVG Export Plug-In . SVG Version: 6.00 Build 0)  -->
<svg version="1.1" id="Layer_1" xmlns="http://www.w3.org/2000/svg" xmlns:xlink="http://www.w3.org/1999/xlink" x="0px" y="0px"
	 viewBox="0 0 300 300" enable-background="new 0 0 300 300" xml:space="preserve">
<g>
	<g>
		<g>
			<circle fill="#9AD7D2" cx="152.69" cy="136.55" r="45.731"/>
		</g>
		<g>
			<path fill="#ABEDE6" d="M117.719,136.55c0-23.433,17.635-42.72,40.351-45.389c-1.768-0.205-3.557-0.342-5.38-0.342
				c-25.256,0-45.731,20.475-45.731,45.731c0,25.256,20.475,45.731,45.731,45.731c1.823,0,3.612-0.137,5.38-0.342
				C135.354,179.27,117.719,159.983,117.719,136.55z"/>
		</g>
		<g>
			<path fill="#FFDA88" d="M225.322,37.018c-29.712,0-53.801,24.089-53.801,53.801c0,1.413,0.105,2.806,0.213,4.193
				c15.736,7.229,26.688,23.086,26.688,41.538c0,0.268-0.034,0.526-0.039,0.788c7.928,4.603,17.112,7.282,26.94,7.282
				c29.712,0,53.801-24.09,53.801-53.801C279.123,61.107,255.033,37.018,225.322,37.018z"/>
		</g>
		<g>
			<path fill="#FFE2A9" d="M209.142,137.338c0.005-0.263,0.039-0.52,0.039-0.788c0-18.452-10.952-34.309-26.688-41.538
				c-0.108-1.387-0.213-2.779-0.213-4.193c0-27.894,21.237-50.828,48.421-53.528c-1.771-0.179-3.565-0.273-5.38-0.273
				c-29.712,0-53.801,24.089-53.801,53.801c0,1.413,0.105,2.806,0.213,4.193c15.736,7.229,26.688,23.086,26.688,41.538
				c0,0.268-0.034,0.526-0.039,0.788c7.928,4.603,17.112,7.282,26.94,7.282c1.981,0,3.933-0.126,5.858-0.331
				C223.209,143.553,215.728,141.163,209.142,137.338z"/>
		</g>
		<g>
			<path fill="#FFDA88" d="M117.719,198.421v37.661l53.801,26.901h26.9l48.421-21.52c0,0-5.38-10.76-26.9-5.38l-32.281,10.76H176.9
				l-21.52-26.9l26.9,10.76c0,0,16.14,0,5.38-10.76l-32.281-21.52H117.719z"/>
		</g>
		<g>
			<g>
				<path fill="#FFE2A9" d="M182.281,230.702l-14.244-5.695l-12.657-15.825l26.9,10.76c0,0,2.265,0,4.529-0.568l0.851,0.568
					C198.421,230.702,182.281,230.702,182.281,230.702z"/>
			</g>
			<g>
				<path fill="#FFE2A9" d="M198.421,252.222l38.354-17.049c7.707,1.66,10.067,6.289,10.067,6.289l-48.421,21.52h-26.9
					l-53.801-26.901v-10.76l53.801,26.9H198.421z"/>
			</g>
		</g>
		<g>
			<rect x="20.877" y="182.281" fill="#9AD7D2" width="75.322" height="69.941"/>
		</g>
		<g>
			<rect x="96.199" y="187.661" fill="#E5E5E4" width="21.52" height="59.181"/>
		</g>
		<g>
			<path fill="#7FD3B9" d="M244.788,95.695c-1.335-2.365-2.99-4.209-4.971-5.549c-1.98-1.334-4.902-2.832-8.768-4.471
				c-5.281-2.128-7.913-4.649-7.913-7.56c0-1.471,0.504-2.737,1.524-3.804c1.019-1.051,2.238-1.592,3.641-1.592
				c1.834,0,4.839,1.23,9,3.689l5.58-9.384c-3.678-3.179-6.799-5.117-12.179-5.685v-4.219c0-2.185-3.184-3.961-5.38-3.961
				c-2.185,0-5.38,1.776-5.38,3.961v4.865c0,0-3.131,1.366-6.126,4.482c-3.278,3.4-3.53,7.608-3.53,12.857
				c0,2.375,0.925,4.687,1.986,6.957c1.056,2.269,3.053,3.993,4.613,5.18c1.555,1.182,4.103,2.564,7.203,3.904
				c6.357,2.727,9.294,4.876,9.294,7.954c0,1.487-0.677,2.921-2.085,4.282c-1.413,1.361-2.864,1.934-4.398,2.049
				c-4.303,0.3-6.694-1.755-11.643-5.396l-6.904,8.338c4.54,5.369,11.59,7.797,11.59,7.923v3.962c0,2.185,3.195,3.961,5.38,3.961
				c2.196,0,5.38-1.776,5.38-3.961v-3.962c0-0.063,5.685-0.746,9.415-3.961c3.678-3.184,6.52-8.091,6.52-13.161
				C246.637,100.633,246.122,98.07,244.788,95.695z"/>
		</g>
		<g>
			<path fill="#FFDA88" d="M144.62,117.719c0,2.974-2.407,5.38-5.38,5.38c-2.974,0-5.38-2.407-5.38-5.38
				c0-2.974,2.406-5.38,5.38-5.38C142.213,112.339,144.62,114.746,144.62,117.719z"/>
		</g>
		<g>
			<circle fill="#FFDA88" cx="166.14" cy="155.38" r="5.38"/>
		</g>
		<g>
			<g>
				<path fill="#FFDA88" d="M133.86,160.76c-1.377,0-2.753-0.526-3.804-1.576c-2.102-2.101-2.102-5.506,0-7.607l37.661-37.661
					c2.101-2.102,5.506-2.102,7.607,0c2.102,2.101,2.102,5.506,0,7.607l-37.661,37.661
					C136.613,160.235,135.236,160.76,133.86,160.76z"/>
			</g>
		</g>
		<g>
			<rect x="20.877" y="182.281" fill="#ABEDE6" width="10.76" height="69.941"/>
		</g>
		<g>
			<rect x="96.199" y="187.661" fill="#EFEFEF" width="10.76" height="59.181"/>
		</g>
	</g>
	<g>
		<g>
			<path fill="#161616" d="M225.322,150c-10.366,0-20.614-2.769-29.641-8.007c-1.692-0.982-2.716-2.806-2.68-4.76
				c0.003-0.094,0.026-0.541,0.032-0.63c0.008-15.741-9.237-30.126-23.546-36.705c-1.773-0.814-2.966-2.522-3.118-4.471
				c-0.118-1.524-0.229-3.053-0.229-4.608c0-32.633,26.548-59.181,59.181-59.181s59.181,26.549,59.181,59.181
				S257.954,150,225.322,150z M203.743,134.122c6.709,3.357,14.11,5.117,21.578,5.117c26.698,0,48.421-21.72,48.421-48.421
				s-21.723-48.421-48.421-48.421S176.9,64.118,176.9,90.819c0,0.257,0.005,0.51,0.01,0.767
				C192.636,100.071,202.884,116.285,203.743,134.122z"/>
		</g>
		<g>
			<path fill="#161616" d="M198.421,268.362h-26.9c-0.835,0-1.66-0.194-2.406-0.568l-53.801-26.9
				c-1.823-0.914-2.974-2.774-2.974-4.813v-37.661c0-2.974,2.409-5.38,5.38-5.38h37.661c1.061,0,2.102,0.315,2.984,0.904
				l32.281,21.52c0.294,0.194,0.57,0.42,0.82,0.673c4.752,4.75,6.313,9.205,4.642,13.245c-2.577,6.215-11.233,6.699-13.826,6.699
				c-0.686,0-1.363-0.131-1.999-0.383l-7.952-3.184l7.156,8.948h7.303l31.451-10.482c25.818-6.489,33.113,7.476,33.415,8.075
				c0.657,1.314,0.749,2.842,0.252,4.224c-0.497,1.382-1.537,2.501-2.879,3.1l-48.421,21.52
				C199.918,268.205,199.175,268.362,198.421,268.362z M172.789,257.602h24.489l38.622-17.165c-3.192-0.73-7.886-0.825-14.653,0.862
				l-31.884,10.645c-0.549,0.184-1.124,0.278-1.702,0.278H176.9c-1.634,0-3.181-0.741-4.201-2.018l-21.52-26.9
				c-1.526-1.907-1.576-4.608-0.121-6.568c1.455-1.965,4.048-2.685,6.32-1.792l25.829,10.335c0.617-0.053,1.256-0.142,1.823-0.257
				c-0.223-0.268-0.494-0.573-0.822-0.914l-30.458-20.307h-30.652v28.955L172.789,257.602z"/>
		</g>
		<g>
			<path fill="#161616" d="M117.719,252.222h-21.52c-2.971,0-5.38-2.406-5.38-5.38v-59.181c0-2.974,2.409-5.38,5.38-5.38h21.52
				c2.971,0,5.38,2.406,5.38,5.38v59.181C123.099,249.816,120.69,252.222,117.719,252.222z M101.579,241.462h10.76v-48.421h-10.76
				V241.462z"/>
		</g>
		<g>
			<path fill="#161616" d="M244.788,95.695c-1.335-2.365-2.99-4.209-4.971-5.549c-1.98-1.334-4.902-2.832-8.768-4.471
				c-5.281-2.128-7.913-4.649-7.913-7.56c0-1.471,0.504-2.737,1.524-3.804c1.019-1.051,2.238-1.592,3.641-1.592
				c1.834,0,4.839,1.23,9,3.689l5.58-9.384c-3.678-3.179-6.799-5.117-12.179-5.685v-4.219c0-2.185-3.184-3.961-5.38-3.961
				c-2.185,0-5.38,1.776-5.38,3.961v4.865c0,0-3.131,1.366-6.126,4.482c-3.278,3.4-3.53,7.608-3.53,12.857
				c0,2.375,0.925,4.687,1.986,6.957c1.056,2.269,3.053,3.993,4.613,5.18c1.555,1.182,4.103,2.564,7.203,3.904
				c6.357,2.727,9.294,4.876,9.294,7.954c0,1.487-0.677,2.921-2.085,4.282c-1.413,1.361-2.864,1.934-4.398,2.049
				c-4.303,0.3-6.694-1.755-11.643-5.396l-6.904,8.338c4.54,5.369,11.59,7.797,11.59,7.923v3.962c0,2.185,3.195,3.961,5.38,3.961
				c2.196,0,5.38-1.776,5.38-3.961v-3.962c0-0.063,5.685-0.746,9.415-3.961c3.678-3.184,6.52-8.091,6.52-13.161
				C246.637,100.633,246.122,98.07,244.788,95.695z"/>
		</g>
		<g>
			<path fill="#161616" d="M144.62,117.719c0,2.974-2.407,5.38-5.38,5.38c-2.974,0-5.38-2.407-5.38-5.38
				c0-2.974,2.406-5.38,5.38-5.38C142.213,112.339,144.62,114.746,144.62,117.719z"/>
		</g>
		<g>
			<circle fill="#161616" cx="166.14" cy="155.38" r="5.38"/>
		</g>
		<g>
			<g>
				<path fill="#161616" d="M133.86,160.76c-1.377,0-2.753-0.526-3.804-1.576c-2.102-2.101-2.102-5.506,0-7.607l37.661-37.661
					c2.101-2.102,5.506-2.102,7.607,0c2.102,2.101,2.102,5.506,0,7.607l-37.661,37.661
					C136.613,160.235,135.236,160.76,133.86,160.76z"/>
			</g>
		</g>
		<g>
			<path fill="#161616" d="M96.199,257.602H20.877c-2.971,0-5.38-2.406-5.38-5.38v-69.941c0-2.974,2.409-5.38,5.38-5.38h16.14
				c2.971,0,5.38,2.406,5.38,5.38c0,2.974-2.409,5.38-5.38,5.38h-10.76v59.181h64.561v-59.181H58.538c-2.971,0-5.38-2.406-5.38-5.38
				c0-2.974,2.409-5.38,5.38-5.38h37.661c2.971,0,5.38,2.406,5.38,5.38v69.941C101.579,255.196,99.17,257.602,96.199,257.602z"/>
		</g>
		<g>
			<path fill="#161616" d="M152.69,187.661c-28.183,0-51.111-22.929-51.111-51.111c0-10.188,2.995-20.028,8.659-28.461
				c1.655-2.469,5.002-3.126,7.466-1.466c2.467,1.655,3.124,5.002,1.466,7.466c-4.469,6.652-6.83,14.417-6.83,22.461
				c0,22.251,18.1,40.351,40.351,40.351c22.251,0,40.351-18.1,40.351-40.351c0-22.251-18.1-40.351-40.351-40.351
				c-6.812,0-13.555,1.744-19.506,5.039c-2.601,1.445-5.874,0.499-7.314-2.102c-1.44-2.601-0.499-5.874,2.102-7.314
				c7.539-4.177,16.088-6.384,24.717-6.384c28.182,0,51.111,22.929,51.111,51.111S180.872,187.661,152.69,187.661z"/>
		</g>
	</g>
</g>
</svg>
