<?xml version="1.0" encoding="UTF-8"?>
<!DOCTYPE svg PUBLIC "-//W3C//DTD SVG 1.1//EN" "http://www.w3.org/Graphics/SVG/1.1/DTD/svg11.dtd">
<!-- Creator: CorelDRAW -->
<svg xmlns="http://www.w3.org/2000/svg" xml:space="preserve" width="2048px" height="2048px" style="shape-rendering:geometricPrecision; text-rendering:geometricPrecision; image-rendering:optimizeQuality; fill-rule:evenodd; clip-rule:evenodd"
viewBox="0 0 2048 2048"
 xmlns:xlink="http://www.w3.org/1999/xlink">
 <defs>
  <style type="text/css">
   <![CDATA[
    .fil2 {fill:none}
    .fil3 {fill:#3D5AFE}
    .fil1 {fill:#9CCC65}
    .fil0 {fill:#C5E1A5}
    .fil4 {fill:#FFECB3}
    .fil5 {fill:#FFECB3;fill-rule:nonzero}
   ]]>
  </style>
   <clipPath id="id0">
    <path d="M1024 0c565.539,0 1024,458.461 1024,1024 0,565.539 -458.461,1024 -1024,1024 -565.539,0 -1024,-458.461 -1024,-1024 0,-565.539 458.461,-1024 1024,-1024z"/>
   </clipPath>
 </defs>
 <g id="Layer_x0020_1">
  <metadata id="CorelCorpID_0Corel-Layer"/>
  <path class="fil0" d="M1024 0c565.539,0 1024,458.461 1024,1024 0,565.539 -458.461,1024 -1024,1024 -565.539,0 -1024,-458.461 -1024,-1024 0,-565.539 458.461,-1024 1024,-1024z"/>
  <g style="clip-path:url(#id0)">
   <g id="_432892840">
    <g>
     <polygon id="_4390720961" class="fil1" points="1516.82,637.091 2652.71,1772.97 2655.2,1960.9 1519.32,825.018 "/>
     <polygon id="_439072672" class="fil1" points="1519.32,825.018 2655.2,1960.9 2655.73,2000.72 1519.85,864.842 "/>
     <polygon id="_439073080" class="fil1" points="1519.85,864.842 2655.73,2000.72 2620.97,1981.26 1485.09,845.381 "/>
     <polygon id="_439073392" class="fil1" points="1485.09,845.381 2620.97,1981.26 2576.97,1956.63 1441.08,820.75 "/>
     <polygon id="_439072912" class="fil1" points="1369.55,780.71 2505.44,1916.59 2456.97,1889.46 1321.09,753.581 "/>
     <polygon id="_439073992" class="fil1" points="545.991,463.955 1681.87,1599.84 1681.87,2637.76 545.989,1501.88 "/>
     <polygon id="_439073872" class="fil1" points="891.383,1075.76 2027.26,2211.64 1816.75,2576.33 680.873,1440.45 "/>
     <polygon id="_439074136" class="fil1" points="680.873,1440.45 1816.75,2576.33 1745.69,2535.49 609.805,1399.61 "/>
     <polygon id="_439073560" class="fil1" points="1321.09,753.581 2456.97,1889.46 2422.26,1870.03 1286.38,734.15 "/>
     <polygon id="_439073944" class="fil1" points="1441.08,820.75 2576.97,1956.63 2313.28,2413.44 1177.4,1277.56 "/>
     <polygon id="_439073608" class="fil1" points="1516.3,597.298 2652.18,1733.18 2652.71,1772.97 1516.82,637.091 "/>
     <polygon id="_439073728" class="fil1" points="1584,1501.88 2719.88,2637.76 2719.88,2719.93 1584,1584.04 "/>
     <polygon id="_439074160" class="fil1" points="1177.4,1277.56 2313.28,2413.44 2027.26,2211.64 891.383,1075.76 "/>
     <polygon id="_439074256" class="fil1" points="1584,1584.04 2719.88,2719.93 1599.88,2719.93 463.999,1584.04 "/>
    </g>
    <path id="_432892648" class="fil1" d="M1516.82 637.091l2.49803 187.928 0.529134 39.8233 -34.7658 -19.461 -44.002 -24.6307 -263.685 456.807 -286.016 -201.797 -210.51 364.687 -71.0682 -40.8414 255.531 -442.68 36.6567 25.8638 249.358 175.935 218.204 -378.013 -48.4678 -27.1299 -34.7114 -19.4303 34.2603 -20.3929 161.503 -96.1288 34.1587 -20.3303 0.527953 39.7926zm-970.836 864.785l1038.01 0 0 82.1694 -1120 0 0 -41.0847 0.00354331 -1079.01 81.9886 0 -0.00236221 1037.92z"/>
   </g>
  </g>
  <path class="fil2" d="M1024 0c565.539,0 1024,458.461 1024,1024 0,565.539 -458.461,1024 -1024,1024 -565.539,0 -1024,-458.461 -1024,-1024 0,-565.539 458.461,-1024 1024,-1024z"/>
  <polygon class="fil3" points="545.989,1501.88 1584,1501.88 1584,1584.04 464,1584.04 464,1542.96 464.002,463.955 545.991,463.955 "/>
  <polygon class="fil4" points="1151.35,1158.72 1395.05,736.544 1466.12,777.386 1177.4,1277.56 891.383,1075.76 680.873,1440.45 609.805,1399.61 865.334,956.924 901.991,982.789 "/>
  <polygon class="fil5" points="1516.83,637.089 1519.32,825.018 1519.85,864.842 1485.09,845.381 1321.09,753.581 1286.37,734.15 1320.64,713.756 1482.14,617.628 1516.3,597.298 "/>
 </g>
</svg>
