<svg width="400" height="256" viewBox="0 0 400 256" fill="none" xmlns="http://www.w3.org/2000/svg">
<ellipse cx="384.663" cy="68.5705" rx="15.0722" ry="14.9905" fill="#8D3AED"/>
<ellipse cx="384.928" cy="12.3635" rx="15.0722" ry="14.9905" fill="#8D3AED"/>
<ellipse cx="363.45" cy="26.3752" rx="15.0722" ry="14.9905" fill="#8D3AED"/>
<ellipse cx="363.45" cy="68.5705" rx="15.0722" ry="14.9905" fill="#8D3AED"/>
<ellipse cx="363.45" cy="89.6682" rx="15.0722" ry="14.9905" fill="#8D3AED"/>
<ellipse cx="363.45" cy="110.766" rx="15.0722" ry="14.9905" fill="#8D3AED"/>
<ellipse cx="342.237" cy="5.27757" rx="15.0722" ry="14.9905" fill="#8D3AED"/>
<ellipse cx="342.237" cy="26.3752" rx="15.0722" ry="14.9905" fill="#8D3AED"/>
<ellipse cx="342.237" cy="47.4729" rx="15.0722" ry="14.9905" fill="#8D3AED"/>
<ellipse cx="342.237" cy="68.5705" rx="15.0722" ry="14.9905" fill="#8D3AED"/>
<ellipse cx="342.237" cy="110.766" rx="15.0722" ry="14.9905" fill="#8D3AED"/>
<ellipse cx="342.237" cy="131.864" rx="15.0722" ry="14.9905" fill="#8D3AED"/>
<ellipse cx="342.237" cy="174.059" rx="15.0722" ry="14.9905" fill="#8D3AED"/>
<ellipse cx="321.024" cy="5.27757" rx="15.0722" ry="14.9905" fill="#8D3AED"/>
<ellipse cx="321.024" cy="26.3752" rx="15.0722" ry="14.9905" fill="#8D3AED"/>
<ellipse cx="321.024" cy="47.4729" rx="15.0722" ry="14.9905" fill="#8D3AED"/>
<ellipse cx="321.024" cy="68.5705" rx="15.0722" ry="14.9905" fill="#8D3AED"/>
<ellipse cx="321.024" cy="89.6682" rx="15.0722" ry="14.9905" fill="#8D3AED"/>
<ellipse cx="321.024" cy="110.766" rx="15.0722" ry="14.9905" fill="#8D3AED"/>
<ellipse cx="321.024" cy="131.864" rx="15.0722" ry="14.9905" fill="#8D3AED"/>
<ellipse cx="321.024" cy="152.961" rx="15.0722" ry="14.9905" fill="#8D3AED"/>
<ellipse cx="321.024" cy="174.059" rx="15.0722" ry="14.9905" fill="#8D3AED"/>
<ellipse cx="299.812" cy="5.27757" rx="15.0722" ry="14.9905" fill="#8D3AED"/>
<ellipse cx="299.812" cy="26.3752" rx="15.0722" ry="14.9905" fill="#8D3AED"/>
<ellipse cx="299.812" cy="47.4729" rx="15.0722" ry="14.9905" fill="#8D3AED"/>
<ellipse cx="299.812" cy="68.5705" rx="15.0722" ry="14.9905" fill="#8D3AED"/>
<ellipse cx="299.812" cy="89.6682" rx="15.0722" ry="14.9905" fill="#8D3AED"/>
<ellipse cx="299.812" cy="110.766" rx="15.0722" ry="14.9905" fill="#8D3AED"/>
<ellipse cx="299.812" cy="131.864" rx="15.0722" ry="14.9905" fill="#8D3AED"/>
<ellipse cx="299.812" cy="152.961" rx="15.0722" ry="14.9905" fill="#8D3AED"/>
<ellipse cx="299.812" cy="195.156" rx="15.0722" ry="14.9905" fill="#8D3AED"/>
<ellipse cx="299.812" cy="216.255" rx="15.0722" ry="14.9905" fill="#8D3AED"/>
<ellipse cx="278.599" cy="5.27757" rx="15.0722" ry="14.9905" fill="#8D3AED"/>
<ellipse cx="278.599" cy="26.3752" rx="15.0722" ry="14.9905" fill="#8D3AED"/>
<ellipse cx="278.599" cy="47.4729" rx="15.0722" ry="14.9905" fill="#8D3AED"/>
<ellipse cx="278.599" cy="68.5705" rx="15.0722" ry="14.9905" fill="#8D3AED"/>
<ellipse cx="278.599" cy="89.6682" rx="15.0722" ry="14.9905" fill="#8D3AED"/>
<ellipse cx="278.599" cy="110.766" rx="15.0722" ry="14.9905" fill="#8D3AED"/>
<ellipse cx="278.599" cy="131.864" rx="15.0722" ry="14.9905" fill="#8D3AED"/>
<ellipse cx="278.599" cy="152.961" rx="15.0722" ry="14.9905" fill="#8D3AED"/>
<ellipse cx="278.599" cy="174.059" rx="15.0722" ry="14.9905" fill="#8D3AED"/>
<ellipse cx="278.599" cy="195.156" rx="15.0722" ry="14.9905" fill="#8D3AED"/>
<ellipse cx="257.386" cy="5.27757" rx="15.0722" ry="14.9905" fill="#8D3AED"/>
<ellipse cx="257.386" cy="26.3752" rx="15.0722" ry="14.9905" fill="#8D3AED"/>
<ellipse cx="257.386" cy="47.4729" rx="15.0722" ry="14.9905" fill="#8D3AED"/>
<ellipse cx="257.386" cy="68.5705" rx="15.0722" ry="14.9905" fill="#8D3AED"/>
<ellipse cx="257.386" cy="89.6682" rx="15.0722" ry="14.9905" fill="#8D3AED"/>
<ellipse cx="257.386" cy="110.766" rx="15.0722" ry="14.9905" fill="#8D3AED"/>
<ellipse cx="257.386" cy="131.864" rx="15.0722" ry="14.9905" fill="#8D3AED"/>
<ellipse cx="257.386" cy="152.961" rx="15.0722" ry="14.9905" fill="#8D3AED"/>
<ellipse cx="257.386" cy="174.059" rx="15.0722" ry="14.9905" fill="#8D3AED"/>
<ellipse cx="236.174" cy="5.27757" rx="15.0722" ry="14.9905" fill="#8D3AED"/>
<ellipse cx="236.174" cy="26.3752" rx="15.0722" ry="14.9905" fill="#8D3AED"/>
<ellipse cx="236.174" cy="47.4729" rx="15.0722" ry="14.9905" fill="#8D3AED"/>
<ellipse cx="236.174" cy="68.5705" rx="15.0722" ry="14.9905" fill="#8D3AED"/>
<ellipse cx="236.174" cy="89.6682" rx="15.0722" ry="14.9905" fill="#8D3AED"/>
<ellipse cx="236.174" cy="110.766" rx="15.0722" ry="14.9905" fill="#8D3AED"/>
<ellipse cx="236.174" cy="131.864" rx="15.0722" ry="14.9905" fill="#8D3AED"/>
<ellipse cx="236.174" cy="152.961" rx="15.0722" ry="14.9905" fill="#8D3AED"/>
<ellipse cx="236.174" cy="174.059" rx="15.0722" ry="14.9905" fill="#8D3AED"/>
<ellipse cx="236.174" cy="216.255" rx="15.0722" ry="14.9905" fill="#8D3AED"/>
<ellipse cx="214.961" cy="5.27757" rx="15.0722" ry="14.9905" fill="#8D3AED"/>
<ellipse cx="214.961" cy="26.3752" rx="15.0722" ry="14.9905" fill="#8D3AED"/>
<ellipse cx="214.961" cy="47.4729" rx="15.0722" ry="14.9905" fill="#8D3AED"/>
<ellipse cx="214.961" cy="68.5705" rx="15.0722" ry="14.9905" fill="#8D3AED"/>
<ellipse cx="214.961" cy="89.6682" rx="15.0722" ry="14.9905" fill="#8D3AED"/>
<ellipse cx="214.961" cy="110.766" rx="15.0722" ry="14.9905" fill="#8D3AED"/>
<ellipse cx="214.961" cy="131.864" rx="15.0722" ry="14.9905" fill="#8D3AED"/>
<ellipse cx="214.961" cy="152.961" rx="15.0722" ry="14.9905" fill="#8D3AED"/>
<ellipse cx="214.961" cy="174.059" rx="15.0722" ry="14.9905" fill="#8D3AED"/>
<ellipse cx="214.961" cy="195.156" rx="15.0722" ry="14.9905" fill="#8D3AED"/>
<ellipse cx="193.748" cy="5.27757" rx="15.0722" ry="14.9905" fill="#8D3AED"/>
<ellipse cx="193.748" cy="26.3752" rx="15.0722" ry="14.9905" fill="#8D3AED"/>
<ellipse cx="193.748" cy="47.4729" rx="15.0722" ry="14.9905" fill="#8D3AED"/>
<ellipse cx="193.748" cy="68.5705" rx="15.0722" ry="14.9905" fill="#8D3AED"/>
<ellipse cx="193.748" cy="89.6682" rx="15.0722" ry="14.9905" fill="#8D3AED"/>
<ellipse cx="193.748" cy="110.766" rx="15.0722" ry="14.9905" fill="#8D3AED"/>
<ellipse cx="193.748" cy="131.864" rx="15.0722" ry="14.9905" fill="#8D3AED"/>
<ellipse cx="193.748" cy="152.961" rx="15.0722" ry="14.9905" fill="#8D3AED"/>
<ellipse cx="193.748" cy="174.059" rx="15.0722" ry="14.9905" fill="#8D3AED"/>
<ellipse cx="193.748" cy="195.156" rx="15.0722" ry="14.9905" fill="#8D3AED"/>
<ellipse cx="172.536" cy="5.27757" rx="15.0722" ry="14.9905" fill="#8D3AED"/>
<ellipse cx="172.536" cy="26.3752" rx="15.0722" ry="14.9905" fill="#8D3AED"/>
<ellipse cx="172.536" cy="47.4729" rx="15.0722" ry="14.9905" fill="#8D3AED"/>
<ellipse cx="172.536" cy="68.5705" rx="15.0722" ry="14.9905" fill="#8D3AED"/>
<ellipse cx="172.536" cy="89.6682" rx="15.0722" ry="14.9905" fill="#8D3AED"/>
<ellipse cx="172.536" cy="110.766" rx="15.0722" ry="14.9905" fill="#8D3AED"/>
<ellipse cx="172.536" cy="131.864" rx="15.0722" ry="14.9905" fill="#8D3AED"/>
<ellipse cx="172.536" cy="152.961" rx="15.0722" ry="14.9905" fill="#8D3AED"/>
<ellipse cx="172.536" cy="174.059" rx="15.0722" ry="14.9905" fill="#8D3AED"/>
<ellipse cx="172.536" cy="195.156" rx="15.0722" ry="14.9905" fill="#8D3AED"/>
<ellipse cx="151.323" cy="5.27757" rx="15.0722" ry="14.9905" fill="#8D3AED"/>
<ellipse cx="151.323" cy="26.3752" rx="15.0722" ry="14.9905" fill="#8D3AED"/>
<ellipse cx="151.323" cy="47.4729" rx="15.0722" ry="14.9905" fill="#8D3AED"/>
<ellipse cx="151.323" cy="68.5705" rx="15.0722" ry="14.9905" fill="#8D3AED"/>
<ellipse cx="151.323" cy="89.6682" rx="15.0722" ry="14.9905" fill="#8D3AED"/>
<ellipse cx="151.323" cy="110.766" rx="15.0722" ry="14.9905" fill="#8D3AED"/>
<ellipse cx="151.323" cy="131.864" rx="15.0722" ry="14.9905" fill="#8D3AED"/>
<ellipse cx="151.323" cy="152.961" rx="15.0722" ry="14.9905" fill="#8D3AED"/>
<ellipse cx="151.323" cy="174.059" rx="15.0722" ry="14.9905" fill="#8D3AED"/>
<ellipse cx="151.323" cy="195.156" rx="15.0722" ry="14.9905" fill="#8D3AED"/>
<ellipse cx="151.323" cy="216.255" rx="15.0722" ry="14.9905" fill="#8D3AED"/>
<ellipse cx="130.11" cy="5.27757" rx="15.0722" ry="14.9905" fill="#8D3AED"/>
<ellipse cx="130.11" cy="26.3752" rx="15.0722" ry="14.9905" fill="#8D3AED"/>
<ellipse cx="130.11" cy="47.4729" rx="15.0722" ry="14.9905" fill="#8D3AED"/>
<ellipse cx="130.11" cy="68.5705" rx="15.0722" ry="14.9905" fill="#8D3AED"/>
<ellipse cx="130.11" cy="89.6682" rx="15.0722" ry="14.9905" fill="#8D3AED"/>
<ellipse cx="130.11" cy="110.766" rx="15.0722" ry="14.9905" fill="#8D3AED"/>
<ellipse cx="130.11" cy="131.864" rx="15.0722" ry="14.9905" fill="#8D3AED"/>
<ellipse cx="130.11" cy="152.961" rx="15.0722" ry="14.9905" fill="#8D3AED"/>
<ellipse cx="130.11" cy="174.059" rx="15.0722" ry="14.9905" fill="#8D3AED"/>
<ellipse cx="130.11" cy="195.156" rx="15.0722" ry="14.9905" fill="#8D3AED"/>
<ellipse cx="130.11" cy="216.255" rx="15.0722" ry="14.9905" fill="#8D3AED"/>
<ellipse cx="108.897" cy="5.27757" rx="15.0722" ry="14.9905" fill="#8D3AED"/>
<ellipse cx="108.897" cy="26.3752" rx="15.0722" ry="14.9905" fill="#8D3AED"/>
<ellipse cx="108.897" cy="47.4729" rx="15.0722" ry="14.9905" fill="#8D3AED"/>
<ellipse cx="108.897" cy="68.5705" rx="15.0722" ry="14.9905" fill="#8D3AED"/>
<ellipse cx="108.897" cy="89.6682" rx="15.0722" ry="14.9905" fill="#8D3AED"/>
<ellipse cx="108.897" cy="110.766" rx="15.0722" ry="14.9905" fill="#8D3AED"/>
<ellipse cx="108.897" cy="131.864" rx="15.0722" ry="14.9905" fill="#8D3AED"/>
<ellipse cx="108.897" cy="152.961" rx="15.0722" ry="14.9905" fill="#8D3AED"/>
<ellipse cx="108.897" cy="174.059" rx="15.0722" ry="14.9905" fill="#8D3AED"/>
<ellipse cx="108.897" cy="195.156" rx="15.0722" ry="14.9905" fill="#8D3AED"/>
<ellipse cx="108.897" cy="237.352" rx="15.0722" ry="14.9905" fill="#8D3AED"/>
<ellipse cx="87.6845" cy="5.27757" rx="15.0722" ry="14.9905" fill="#8D3AED"/>
<ellipse cx="87.6845" cy="26.3752" rx="15.0722" ry="14.9905" fill="#8D3AED"/>
<ellipse cx="87.6845" cy="47.4729" rx="15.0722" ry="14.9905" fill="#8D3AED"/>
<ellipse cx="87.6845" cy="68.5705" rx="15.0722" ry="14.9905" fill="#8D3AED"/>
<ellipse cx="87.6845" cy="89.6682" rx="15.0722" ry="14.9905" fill="#8D3AED"/>
<ellipse cx="87.6845" cy="110.766" rx="15.0722" ry="14.9905" fill="#8D3AED"/>
<ellipse cx="87.6845" cy="131.864" rx="15.0722" ry="14.9905" fill="#8D3AED"/>
<ellipse cx="87.6845" cy="152.961" rx="15.0722" ry="14.9905" fill="#8D3AED"/>
<ellipse cx="87.6845" cy="174.059" rx="15.0722" ry="14.9905" fill="#8D3AED"/>
<ellipse cx="87.6845" cy="195.156" rx="15.0722" ry="14.9905" fill="#8D3AED"/>
<ellipse cx="87.6845" cy="216.255" rx="15.0722" ry="14.9905" fill="#8D3AED"/>
<ellipse cx="66.4721" cy="5.27757" rx="15.0722" ry="14.9905" fill="#8D3AED"/>
<ellipse cx="66.4721" cy="26.3752" rx="15.0722" ry="14.9905" fill="#8D3AED"/>
<ellipse cx="66.4721" cy="47.4729" rx="15.0722" ry="14.9905" fill="#8D3AED"/>
<ellipse cx="66.4721" cy="68.5705" rx="15.0722" ry="14.9905" fill="#8D3AED"/>
<ellipse cx="66.4721" cy="89.6682" rx="15.0722" ry="14.9905" fill="#8D3AED"/>
<ellipse cx="66.4721" cy="110.766" rx="15.0722" ry="14.9905" fill="#8D3AED"/>
<ellipse cx="66.4721" cy="131.864" rx="15.0722" ry="14.9905" fill="#8D3AED"/>
<ellipse cx="66.4721" cy="152.961" rx="15.0722" ry="14.9905" fill="#8D3AED"/>
<ellipse cx="66.4721" cy="174.059" rx="15.0722" ry="14.9905" fill="#8D3AED"/>
<ellipse cx="66.4721" cy="195.156" rx="15.0722" ry="14.9905" fill="#8D3AED"/>
<ellipse cx="66.4721" cy="216.255" rx="15.0722" ry="14.9905" fill="#8D3AED"/>
<ellipse cx="45.2592" cy="5.27757" rx="15.0722" ry="14.9905" fill="#8D3AED"/>
<ellipse cx="45.2592" cy="26.3752" rx="15.0722" ry="14.9905" fill="#8D3AED"/>
<ellipse cx="45.2592" cy="47.4729" rx="15.0722" ry="14.9905" fill="#8D3AED"/>
<ellipse cx="45.2592" cy="68.5705" rx="15.0722" ry="14.9905" fill="#8D3AED"/>
<ellipse cx="45.2592" cy="89.6682" rx="15.0722" ry="14.9905" fill="#8D3AED"/>
<ellipse cx="45.2592" cy="110.766" rx="15.0722" ry="14.9905" fill="#8D3AED"/>
<ellipse cx="45.2592" cy="131.864" rx="15.0722" ry="14.9905" fill="#8D3AED"/>
<ellipse cx="45.2592" cy="152.961" rx="15.0722" ry="14.9905" fill="#8D3AED"/>
<ellipse cx="45.2592" cy="174.059" rx="15.0722" ry="14.9905" fill="#8D3AED"/>
<ellipse cx="45.2592" cy="195.156" rx="15.0722" ry="14.9905" fill="#8D3AED"/>
<ellipse cx="45.2592" cy="216.255" rx="15.0722" ry="14.9905" fill="#8D3AED"/>
<ellipse cx="45.2592" cy="237.352" rx="15.0722" ry="14.9905" fill="#8D3AED"/>
<ellipse cx="24.0463" cy="5.27757" rx="15.0722" ry="14.9905" fill="#8D3AED"/>
<ellipse cx="24.0463" cy="26.3752" rx="15.0722" ry="14.9905" fill="#8D3AED"/>
<ellipse cx="24.0463" cy="47.4729" rx="15.0722" ry="14.9905" fill="#8D3AED"/>
<ellipse cx="24.0463" cy="68.5705" rx="15.0722" ry="14.9905" fill="#8D3AED"/>
<ellipse cx="24.0463" cy="89.6682" rx="15.0722" ry="14.9905" fill="#8D3AED"/>
<ellipse cx="24.0463" cy="110.766" rx="15.0722" ry="14.9905" fill="#8D3AED"/>
<ellipse cx="24.0463" cy="131.864" rx="15.0722" ry="14.9905" fill="#8D3AED"/>
<ellipse cx="24.0463" cy="152.961" rx="15.0722" ry="14.9905" fill="#8D3AED"/>
<ellipse cx="24.0463" cy="174.059" rx="15.0722" ry="14.9905" fill="#8D3AED"/>
<ellipse cx="24.0463" cy="195.156" rx="15.0722" ry="14.9905" fill="#8D3AED"/>
<ellipse cx="2.83391" cy="5.27757" rx="15.0722" ry="14.9905" fill="#8D3AED"/>
<ellipse cx="2.83391" cy="26.3752" rx="15.0722" ry="14.9905" fill="#8D3AED"/>
<ellipse cx="2.83391" cy="47.4729" rx="15.0722" ry="14.9905" fill="#8D3AED"/>
<ellipse cx="2.83391" cy="68.5705" rx="15.0722" ry="14.9905" fill="#8D3AED"/>
<ellipse cx="2.83391" cy="89.6682" rx="15.0722" ry="14.9905" fill="#8D3AED"/>
<ellipse cx="2.83391" cy="110.766" rx="15.0722" ry="14.9905" fill="#8D3AED"/>
<ellipse cx="2.83391" cy="131.864" rx="15.0722" ry="14.9905" fill="#8D3AED"/>
<ellipse cx="2.83391" cy="152.961" rx="15.0722" ry="14.9905" fill="#8D3AED"/>
<ellipse cx="2.83391" cy="174.059" rx="15.0722" ry="14.9905" fill="#8D3AED"/>
<ellipse cx="2.83391" cy="195.156" rx="15.0722" ry="14.9905" fill="#8D3AED"/>
<ellipse cx="2.83391" cy="237.352" rx="15.0722" ry="14.9905" fill="#8D3AED"/>
</svg>
