<svg version="1.1" viewBox="0.0 0.0 542.1076115485564 368.9711286089239" fill="none" stroke="none" stroke-linecap="square" stroke-miterlimit="10" xmlns:xlink="http://www.w3.org/1999/xlink" xmlns="http://www.w3.org/2000/svg"><clipPath id="p.0"><path d="m0 0l542.1076 0l0 368.97113l-542.1076 0l0 -368.97113z" clip-rule="nonzero"/></clipPath><g clip-path="url(#p.0)"><path fill="#140526" d="m0 0l542.1076 0l0 368.97113l-542.1076 0z" fill-rule="evenodd"/><path fill="#cfe2f3" d="m130.66072 303.32022l140.39369 -237.66931l140.3937 237.66931z" fill-rule="evenodd"/><path stroke="#000000" stroke-width="1.0" stroke-linejoin="round" stroke-linecap="butt" d="m130.66072 303.32022l140.39369 -237.66931l140.3937 237.66931z" fill-rule="evenodd"/><path fill="#000000" fill-opacity="0.0" d="m225.46326 26.653543l91.18109 0l0 42.015747l-91.18109 0z" fill-rule="evenodd"/><path fill="#cfe2f3" d="m235.307 49.276665l1.65625 -0.140625q0.125 1.0 0.546875 1.640625q0.4375 0.640625 1.34375 1.046875q0.921875 0.390625 2.0625 0.390625q1.0 0 1.78125 -0.296875q0.78125 -0.296875 1.15625 -0.8125q0.375 -0.53125 0.375 -1.15625q0 -0.625 -0.375 -1.09375q-0.359375 -0.46875 -1.1875 -0.796875q-0.546875 -0.203125 -2.390625 -0.640625q-1.828125 -0.453125 -2.5625 -0.84375q-0.96875 -0.5 -1.4375 -1.234375q-0.46875 -0.75 -0.46875 -1.671875q0 -1.0 0.578125 -1.875q0.578125 -0.890625 1.671875 -1.34375q1.109375 -0.453125 2.453125 -0.453125q1.484375 0 2.609375 0.484375q1.140625 0.46875 1.75 1.40625q0.609375 0.921875 0.65625 2.09375l-1.6875 0.125q-0.140625 -1.265625 -0.9375 -1.90625q-0.78125 -0.65625 -2.3125 -0.65625q-1.609375 0 -2.34375 0.59375q-0.734375 0.59375 -0.734375 1.421875q0 0.71875 0.53125 1.171875q0.5 0.46875 2.65625 0.96875q2.15625 0.484375 2.953125 0.84375q1.171875 0.53125 1.71875 1.359375q0.5625 0.828125 0.5625 1.90625q0 1.0625 -0.609375 2.015625q-0.609375 0.9375 -1.75 1.46875q-1.140625 0.515625 -2.578125 0.515625q-1.8125 0 -3.046875 -0.53125q-1.21875 -0.53125 -1.921875 -1.59375q-0.6875 -1.0625 -0.71875 -2.40625zm19.146698 0.75l1.609375 0.21875q-0.265625 1.65625 -1.359375 2.609375q-1.078125 0.9375 -2.671875 0.9375q-1.984375 0 -3.1875 -1.296875q-1.203125 -1.296875 -1.203125 -3.71875q0 -1.578125 0.515625 -2.75q0.515625 -1.171875 1.578125 -1.75q1.0625 -0.59375 2.3125 -0.59375q1.578125 0 2.578125 0.796875q1.0 0.796875 1.28125 2.265625l-1.59375 0.234375q-0.234375 -0.96875 -0.8125 -1.453125q-0.578125 -0.5 -1.390625 -0.5q-1.234375 0 -2.015625 0.890625q-0.78125 0.890625 -0.78125 2.8125q0 1.953125 0.75 2.84375q0.75 0.875 1.953125 0.875q0.96875 0 1.609375 -0.59375q0.65625 -0.59375 0.828125 -1.828125zm9.328125 2.359375q-0.921875 0.765625 -1.765625 1.09375q-0.828125 0.3125 -1.796875 0.3125q-1.59375 0 -2.453125 -0.78125q-0.859375 -0.78125 -0.859375 -1.984375q0 -0.71875 0.328125 -1.296875q0.328125 -0.59375 0.84375 -0.9375q0.53125 -0.359375 1.1875 -0.546875q0.46875 -0.125 1.453125 -0.25q1.984375 -0.234375 2.921875 -0.5625q0.015625 -0.34375 0.015625 -0.421875q0 -1.0 -0.46875 -1.421875q-0.625 -0.546875 -1.875 -0.546875q-1.15625 0 -1.703125 0.40625q-0.546875 0.40625 -0.8125 1.421875l-1.609375 -0.21875q0.21875 -1.015625 0.71875 -1.640625q0.5 -0.640625 1.453125 -0.984375q0.953125 -0.34375 2.1875 -0.34375q1.25 0 2.015625 0.296875q0.78125 0.28125 1.140625 0.734375q0.375 0.4375 0.515625 1.109375q0.078125 0.421875 0.078125 1.515625l0 2.1875q0 2.28125 0.109375 2.890625q0.109375 0.59375 0.40625 1.15625l-1.703125 0q-0.265625 -0.515625 -0.328125 -1.1875zm-0.140625 -3.671875q-0.890625 0.375 -2.671875 0.625q-1.015625 0.140625 -1.4375 0.328125q-0.421875 0.1875 -0.65625 0.53125q-0.21875 0.34375 -0.21875 0.78125q0 0.65625 0.5 1.09375q0.5 0.4375 1.453125 0.4375q0.9375 0 1.671875 -0.40625q0.75 -0.421875 1.09375 -1.140625q0.265625 -0.5625 0.265625 -1.640625l0 -0.609375zm4.156952 4.859375l0 -13.359375l1.640625 0l0 13.359375l-1.640625 0zm10.504211 -1.1875q-0.921875 0.765625 -1.765625 1.09375q-0.828125 0.3125 -1.796875 0.3125q-1.59375 0 -2.453125 -0.78125q-0.859375 -0.78125 -0.859375 -1.984375q0 -0.71875 0.328125 -1.296875q0.328125 -0.59375 0.84375 -0.9375q0.53125 -0.359375 1.1875 -0.546875q0.46875 -0.125 1.453125 -0.25q1.984375 -0.234375 2.921875 -0.5625q0.015625 -0.34375 0.015625 -0.421875q0 -1.0 -0.46875 -1.421875q-0.625 -0.546875 -1.875 -0.546875q-1.15625 0 -1.703125 0.40625q-0.546875 0.40625 -0.8125 1.421875l-1.609375 -0.21875q0.21875 -1.015625 0.71875 -1.640625q0.5 -0.640625 1.453125 -0.984375q0.953125 -0.34375 2.1875 -0.34375q1.25 0 2.015625 0.296875q0.78125 0.28125 1.140625 0.734375q0.375 0.4375 0.515625 1.109375q0.078125 0.421875 0.078125 1.515625l0 2.1875q0 2.28125 0.109375 2.890625q0.109375 0.59375 0.40625 1.15625l-1.703125 0q-0.265625 -0.515625 -0.328125 -1.1875zm-0.140625 -3.671875q-0.890625 0.375 -2.671875 0.625q-1.015625 0.140625 -1.4375 0.328125q-0.421875 0.1875 -0.65625 0.53125q-0.21875 0.34375 -0.21875 0.78125q0 0.65625 0.5 1.09375q0.5 0.4375 1.453125 0.4375q0.9375 0 1.671875 -0.40625q0.75 -0.421875 1.09375 -1.140625q0.265625 -0.5625 0.265625 -1.640625l0 -0.609375zm5.703827 4.859375l-1.515625 0l0 -13.359375l1.640625 0l0 4.765625q1.046875 -1.296875 2.65625 -1.296875q0.890625 0 1.6875 0.359375q0.796875 0.359375 1.3125 1.015625q0.515625 0.640625 0.796875 1.5625q0.296875 0.921875 0.296875 1.96875q0 2.484375 -1.234375 3.84375q-1.21875 1.359375 -2.953125 1.359375q-1.703125 0 -2.6875 -1.4375l0 1.21875zm-0.015625 -4.90625q0 1.734375 0.484375 2.515625q0.765625 1.265625 2.09375 1.265625q1.078125 0 1.859375 -0.9375q0.78125 -0.9375 0.78125 -2.78125q0 -1.890625 -0.75 -2.796875q-0.75 -0.90625 -1.828125 -0.90625q-1.0625 0 -1.859375 0.9375q-0.78125 0.9375 -0.78125 2.703125zm8.844482 4.90625l0 -13.359375l1.640625 0l0 13.359375l-1.640625 0zm10.816681 -3.109375l1.6875 0.203125q-0.40625 1.484375 -1.484375 2.3125q-1.078125 0.8125 -2.765625 0.8125q-2.125 0 -3.375 -1.296875q-1.234375 -1.3125 -1.234375 -3.671875q0 -2.453125 1.25 -3.796875q1.265625 -1.34375 3.265625 -1.34375q1.9375 0 3.15625 1.328125q1.234375 1.3125 1.234375 3.703125q0 0.15625 0 0.4375l-7.21875 0q0.09375 1.59375 0.90625 2.453125q0.8125 0.84375 2.015625 0.84375q0.90625 0 1.546875 -0.46875q0.640625 -0.484375 1.015625 -1.515625zm-5.390625 -2.65625l5.40625 0q-0.109375 -1.21875 -0.625 -1.828125q-0.78125 -0.953125 -2.03125 -0.953125q-1.125 0 -1.90625 0.765625q-0.765625 0.75 -0.84375 2.015625z" fill-rule="nonzero"/><path fill="#000000" fill-opacity="0.0" d="m105.18769 270.06186l63.811028 89.35434l-34.204727 24.409454l-63.811028 -89.35434z" fill-rule="evenodd"/><path fill="#cfe2f3" d="m92.49353 291.21405l1.0770111 1.2661438q-0.74134064 0.6826172 -1.0176315 1.3980408q-0.26720428 0.72817993 -0.07121277 1.7016602q0.21779633 0.9771118 0.88067627 1.9053345q0.58115387 0.81381226 1.2768402 1.2771301q0.6956787 0.46331787 1.3333206 0.46896362q0.65036774 -0.0034179688 1.159111 -0.36645508q0.5087433 -0.36306763 0.6723633 -0.94052124q0.17269897 -0.5647278 -0.041481018 -1.4292603q-0.15248108 -0.5630493 -0.8678665 -2.3175964q-0.69358826 -1.750946 -0.80241394 -2.57547q-0.15599823 -1.0787964 0.16934967 -1.8868408q0.33807373 -0.8171387 1.0884705 -1.3526306q0.81398773 -0.5809021 1.8622055 -0.61868286q1.060936 -0.046875 2.0654144 0.5799866q1.0135574 0.6395874 1.794487 1.7331238q0.86265564 1.2079773 1.1221848 2.4048462q0.2813263 1.200531 -0.1276474 2.2409973q-0.39624786 1.0314026 -1.3228989 1.7502747l-1.0824509 -1.3006592q0.9484787 -0.8496094 1.0068283 -1.8702393q0.08015442 -1.0169678 -0.8097458 -2.263092q-0.9352951 -1.3096924 -1.8453903 -1.562439q-0.9100952 -0.25271606 -1.5841751 0.22833252q-0.5850525 0.417511 -0.64514923 1.1130371q-0.09098053 0.6791992 0.75514984 2.7243652q0.85884094 2.0361023 1.0294266 2.893341q0.24861145 1.2622681 -0.10765076 2.1883545q-0.34718323 0.93881226 -1.224762 1.5650635q-0.86486053 0.6171875 -1.9948349 0.6749573q-1.1172562 0.048675537 -2.2125702 -0.5709839q-1.0825882 -0.6286926 -1.9180069 -1.798523q-1.0533447 -1.4750061 -1.3382797 -2.7881165q-0.27585602 -1.300415 0.18038177 -2.4898071q0.46531677 -1.1766663 1.540947 -1.9826355zm10.342239 16.525513l0.815361 1.491272q-1.4443588 0.5316467 -2.7450027 0.13531494q-1.2879181 -0.4053955 -2.2686234 -1.778656q-1.2349548 -1.7293091 -0.9057617 -3.4999084q0.3509903 -1.7669067 2.271492 -3.1374512q1.9968109 -1.4249573 3.817047 -1.1882935q1.8293228 0.24938965 2.9916382 1.8769836q1.1259918 1.5767212 0.7531967 3.3399963q-0.3509903 1.7669373 -2.2969284 3.1556091q-0.127182 0.09075928 -0.35611725 0.2541504l-4.1952286 -5.8745728q-1.2428055 1.0020752 -1.4701385 2.1624756q-0.21460724 1.1513367 0.48459625 2.1304321q0.52667236 0.7374878 1.2805328 0.98654175q0.7665787 0.23995972 1.8239365 -0.053894043zm-0.9706497 -5.9298096l3.1418839 4.3995667q0.92848206 -0.79696655 1.1248398 -1.5705566q0.32180786 -1.1894226 -0.4046402 -2.206665q-0.65380096 -0.91552734 -1.731041 -1.1065674q-1.0554352 -0.18737793 -2.1310425 0.4842224zm7.1750717 13.865051l0.7572403 1.4367371q-1.502533 0.74594116 -2.9140015 0.40951538q-1.389679 -0.3327942 -2.315895 -1.6297913q-1.1532288 -1.6148682 -0.7967987 -3.34729q0.35643768 -1.7324219 2.3278122 -3.1392517q1.2845688 -0.916687 2.538124 -1.1778259q1.2535477 -0.2611084 2.3416138 0.2677307q1.1007843 0.5197449 1.8272247 1.5369873q0.91713715 1.2842712 0.8496475 2.5609436q-0.067481995 1.2767029 -1.0995789 2.3587341l-1.1169968 -1.1608276q0.65234375 -0.7534485 0.7106323 -1.50531q0.071014404 -0.7608948 -0.40117645 -1.4221191q-0.71736145 -1.0045166 -1.896347 -1.1229248q-1.1789856 -0.11843872 -2.74337 0.9979553q-1.5898132 1.1345215 -1.8789062 2.2622375q-0.2763672 1.1185913 0.4228363 2.0976868q0.5629959 0.7883606 1.418602 0.96481323q0.8646927 0.18914795 1.9693375 -0.3880005zm2.5430756 9.664185l1.1573868 -0.82595825q-1.9892426 0.037506104 -3.1152344 -1.5392151q-0.49943542 -0.69937134 -0.6682129 -1.5003052q-0.15969849 -0.7882385 0.03844452 -1.3711243q0.19813538 -0.58291626 0.7014694 -1.1148376q0.31798553 -0.3612976 1.1828461 -0.9784851l4.871208 -3.4762268l0.9534607 1.3351135l-4.362465 3.1131592q-1.0429153 0.7442627 -1.3481903 1.0964966q-0.43065643 0.49926758 -0.44532013 1.1239929q-0.014671326 0.62475586 0.412117 1.2223816q0.42678833 0.59762573 1.1043396 0.90112305q0.6993408 0.3071289 1.3751755 0.15118408q0.6885452 -0.16503906 1.6933136 -0.8820801l4.222557 -3.0133362l0.9534607 1.335144l-7.87278 5.618225l-0.85357666 -1.1952515zm2.3432083 3.2811584l7.872772 -5.618225l0.85357666 1.1952515l-1.1955414 0.85317993q1.1663208 -0.14126587 1.7058334 0.049591064q0.548584 0.20358276 0.88456726 0.67404175q0.48126984 0.6739197 0.5482712 1.6818848l-1.5606003 0.42263794q-0.06161499 -0.7046814 -0.40667725 -1.1878662q-0.3178177 -0.44503784 -0.83008575 -0.5977478q-0.51226807 -0.15270996 -1.0791016 0.021453857q-0.87568665 0.27938843 -1.727829 0.8875122l-4.120804 2.9407043l-0.9443817 -1.3224182zm10.000771 8.653748l0.815361 1.4912415q-1.4443512 0.5316467 -2.744995 0.13534546q-1.2879257 -0.40542603 -2.268631 -1.7786865q-1.2349548 -1.7293091 -0.9057617 -3.499878q0.3509903 -1.7669373 2.271492 -3.1374512q1.9968109 -1.4249878 3.817047 -1.188324q1.8293228 0.24942017 2.9916382 1.8769836q1.1259918 1.5767212 0.75320435 3.3400269q-0.35099792 1.7669373 -2.296936 3.1556091q-0.127182 0.09075928 -0.35611725 0.25411987l-4.195221 -5.874542q-1.2428131 1.0020752 -1.4701385 2.1624756q-0.21461487 1.1513367 0.48458862 2.1304321q0.52667236 0.7374878 1.2805328 0.98654175q0.7665787 0.23995972 1.8239365 -0.053894043zm-0.9706421 -5.92984l3.1418762 4.3995667q0.92848206 -0.79696655 1.1248474 -1.5705566q0.32180023 -1.1894226 -0.40464783 -2.206665q-0.65380096 -0.9154968 -1.7310333 -1.1065369q-1.0554428 -0.18740845 -2.1310425 0.4841919z" fill-rule="nonzero"/><path fill="#000000" fill-opacity="0.0" d="m361.92868 331.69806l123.40155 -81.7323l23.212616 35.02362l-123.40158 81.7323z" fill-rule="evenodd"/><path fill="#cfe2f3" d="m385.50253 348.3736l-7.3804016 -11.135651l3.842926 -2.5452576q1.2896423 -0.854187 2.0922852 -1.1421509q1.0890808 -0.42147827 2.1549072 -0.2840271q1.3778381 0.15567017 2.5759888 1.0300903q1.2111511 0.8657837 2.1951904 2.3505554q0.8373108 1.2633362 1.1937256 2.4516296q0.34780884 1.1752625 0.30178833 2.124054q-0.032958984 0.940155 -0.32974243 1.6802368q-0.30545044 0.7270508 -0.95758057 1.440094q-0.6607361 0.7000122 -1.6638184 1.3643799l-4.0252686 2.6660461zm0.6001892 -2.2904053l2.3839111 -1.5789185q1.0942383 -0.72476196 1.5900574 -1.334259q0.4871521 -0.6225281 0.614624 -1.2504578q0.17578125 -0.86608887 -0.12460327 -1.9415283q-0.28735352 -1.0841064 -1.1246643 -2.3474426q-1.1567078 -1.7452393 -2.3513794 -2.3033447q-1.1947021 -0.55810547 -2.2225342 -0.32711792q-0.74160767 0.1538086 -2.057312 1.025238l-2.344818 1.5530701l5.6367188 8.504761zm14.268646 -11.28717l1.5191345 -0.7625122q0.48132324 1.4616089 0.039978027 2.747223q-0.4499817 1.272583 -1.8568726 2.2044067q-1.7716675 1.1734314 -3.530243 0.7826538q-1.7542114 -0.41241455 -3.0576477 -2.3790588q-1.3552246 -2.0447998 -1.0554504 -3.8551025q0.3128357 -1.8189697 1.9802551 -2.9233398q1.6153259 -1.0698853 3.3651428 -0.6358032q1.7542114 0.41241455 3.0748901 2.4050903q0.08633423 0.13024902 0.24169922 0.36468506l-6.0183716 3.986145q0.95861816 1.2767029 2.1107788 1.5443726q1.1435242 0.25463867 2.146576 -0.4096985q0.7555542 -0.50042725 1.0307007 -1.2449036q0.26651 -0.7575073 0.009429932 -1.8241577zm-5.96167 0.7625427l4.507263 -2.9852905q-0.76449585 -0.9555054 -1.5310059 -1.1787109q-1.1779175 -0.36306763 -2.2200623 0.32717896q-0.93792725 0.6212158 -1.1662903 1.6907959q-0.2239685 1.0479431 0.4100952 2.1460266zm14.109863 -6.684082l1.4625854 -0.70632935q0.6935425 1.5272217 0.30822754 2.9256592q-0.3809204 1.3768005 -1.7096558 2.256836q-1.654419 1.0957642 -3.373932 0.67910767q-1.7195129 -0.41662598 -3.057495 -2.4353943q-0.8718262 -1.3154297 -1.0893555 -2.5769653q-0.21749878 -1.2615356 0.348938 -2.3301392q0.5578003 -1.0816345 1.5999451 -1.7718506q1.3157043 -0.87142944 2.5896606 -0.7593994q1.2739563 0.11203003 2.3198242 1.1809998l-1.1992493 1.0754089q-0.7305908 -0.67807007 -1.4801636 -0.76257324q-0.7582092 -0.09753418 -1.4356079 0.35110474q-1.0291138 0.6816406 -1.188446 1.8554077q-0.15930176 1.1737671 0.9024353 2.7757568q1.07901 1.6280212 2.1963196 1.9562378q1.1086731 0.31521606 2.1117249 -0.3491516q0.8076782 -0.5349426 1.0137634 -1.383606q0.21911621 -0.8572693 -0.31951904 -1.9811096zm8.279236 -4.9588013l1.519104 -0.7625122q0.48135376 1.4616089 0.039978027 2.747223q-0.4499817 1.2726135 -1.8568726 2.2044373q-1.771637 1.1734009 -3.530243 0.7826233q-1.7542114 -0.41241455 -3.0576477 -2.3790588q-1.3552246 -2.0447998 -1.0554199 -3.8551025q0.31280518 -1.8189392 1.9802246 -2.9233398q1.6153259 -1.0698853 3.3651428 -0.6358032q1.7542114 0.41241455 3.0749207 2.4051208q0.08630371 0.13024902 0.24169922 0.36468506l-6.018402 3.986145q0.9586487 1.2766724 2.1107788 1.544342q1.1435242 0.2546692 2.1466064 -0.4096985q0.7555542 -0.50042725 1.0307007 -1.2449036q0.2664795 -0.7575073 0.009429932 -1.8241577zm-5.9617004 0.7625427l4.507263 -2.9852905q-0.76446533 -0.95547485 -1.5310059 -1.1787109q-1.177887 -0.36306763 -2.2200317 0.32717896q-0.93792725 0.6212158 -1.1663208 1.6907959q-0.2239685 1.0479431 0.4100952 2.1460266zm10.806488 -0.2418518l-5.3432007 -8.061951l1.2245178 -0.81103516l0.75961304 1.1461182q0.005340576 -1.9151611 1.6858215 -3.0281982q0.7294922 -0.4831543 1.5144043 -0.62820435q0.7848816 -0.14501953 1.3693542 0.08633423q0.5888672 0.20968628 1.094574 0.71813965q0.3284912 0.32592773 0.95861816 1.2767029l3.2887878 4.9621887l-1.3677979 0.9059448l-3.2542725 -4.910095q-0.5524597 -0.8335571 -0.9894104 -1.1251526q-0.43252563 -0.31323242 -1.0003662 -0.2932129q-0.5678406 0.019989014 -1.1149902 0.38238525q-0.8727722 0.57806396 -1.1399231 1.5608826q-0.26272583 0.9611511 0.76446533 2.5110474l2.917633 4.4021606l-1.3678284 0.9059448zm10.822144 -8.929504l0.99816895 1.0818481q-0.4954834 0.49682617 -0.951416 0.7988281q-0.7425232 0.49179077 -1.3147583 0.53344727q-0.5592041 0.033050537 -0.97888184 -0.23251343q-0.4283142 -0.27853394 -1.2397156 -1.5028076l-3.0816345 -4.6496277l-1.0030823 0.66433716l-0.69918823 -1.0549622l1.0030518 -0.66433716l-1.3206787 -1.9927063l0.8109741 -1.7178345l1.864502 2.8132324l1.3808594 -0.9145813l0.69918823 1.0549622l-1.3808594 0.9145508l3.1334229 4.727783q0.37982178 0.5730591 0.5571594 0.69924927q0.19039917 0.11752319 0.41577148 0.11819458q0.22976685 -0.020996094 0.54241943 -0.22805786q0.22143555 -0.146698 0.56469727 -0.44900513zm2.1366577 0.3465271l-5.343231 -8.061951l1.2245178 -0.81103516l0.81140137 1.2242737q-0.100738525 -1.1701965 0.108795166 -1.7025452q0.2225647 -0.5409851 0.7045593 -0.8602295q0.69039917 -0.4572754 1.7003784 -0.48898315l0.36834717 1.5739441q-0.706604 0.03692627 -1.2015991 0.36480713q-0.45596313 0.30197144 -0.6264038 0.80844116q-0.17044067 0.5064697 -0.016021729 1.0788574q0.24890137 0.8846741 0.8272705 1.7572937l2.796753 4.219818l-1.3547668 0.89730835zm9.799438 -7.9147644q-0.3456421 1.1472168 -0.86779785 1.8866577q-0.51779175 0.71777344 -1.3254395 1.2526855q-1.3287354 0.8800659 -2.4768066 0.70339966q-1.1481018 -0.17666626 -1.8127441 -1.1795349q-0.39709473 -0.5990906 -0.4429016 -1.2621765q-0.05444336 -0.67611694 0.18551636 -1.2473755q0.24438477 -0.5928955 0.68792725 -1.1115723q0.32174683 -0.3630371 1.0733643 -1.0108032q1.5249329 -1.2911072 2.1252747 -2.082306q-0.17687988 -0.2951355 -0.22003174 -0.36026q-0.5524597 -0.8335571 -1.1763306 -0.9263611q-0.82318115 -0.11071777 -1.8653259 0.5794983q-0.96398926 0.63848877 -1.1954956 1.2790833q-0.23150635 0.640625 0.10812378 1.6338806l-1.462616 0.70632935q-0.37869263 -0.9673462 -0.3071289 -1.7644348q0.06295776 -0.8100586 0.6676636 -1.6229248q0.6047363 -0.8128357 1.6338501 -1.4944458q1.0421448 -0.6902466 1.8444824 -0.86553955q0.80670166 -0.19699097 1.3566589 -0.017730713q0.5543518 0.15762329 1.0427551 0.63998413q0.29821777 0.3085327 0.9024353 1.2202148l1.2084961 1.8233948q1.2602844 1.9015198 1.6881104 2.34906q0.41918945 0.4345398 0.977478 0.73947144l-1.4199219 0.9404602q-0.50631714 -0.2831421 -0.92959595 -0.8086548zm-2.1457825 -2.9830322q-0.5353699 0.8043823 -1.8822937 1.9963684q-0.7690735 0.67803955 -1.0172119 1.0672607q-0.24813843 0.3892517 -0.2536316 0.8052063q0.007537842 0.40731812 0.24923706 0.7720032q0.36254883 0.5470276 1.0210876 0.6355896q0.65856934 0.08859253 1.453186 -0.43771362q0.7816162 -0.5177002 1.1694336 -1.2618408q0.39224243 -0.7657776 0.28173828 -1.554718q-0.08929443 -0.61553955 -0.684906 -1.5142212l-0.3366394 -0.5079346zm6.150299 1.7550659l-7.3804016 -11.135651l1.3678284 -0.9059448l7.380371 11.135651l-1.3677979 0.9059448zm-2.841217 -11.874359l-1.0444946 -1.5759277l1.3678284 -0.9059448l1.0444641 1.5759277l-1.3677979 0.9059448zm6.335907 9.559723l-5.343231 -8.061951l1.3677979 -0.9059448l5.343231 8.061951l-1.3677979 0.9059448zm2.7261047 -1.8055725l-0.73373413 -1.1070557l1.2222595 -9.299377q-0.83825684 0.630188 -1.5026245 1.0701904l-3.2827759 2.174286l-0.7337036 -1.1070557l6.5915527 -4.3657837l0.5956116 0.8986511l-0.98461914 8.017517l-0.21221924 1.4899292q0.8687134 -0.6690674 1.6763916 -1.20401l3.725647 -2.4676208l0.776886 1.1721802l-7.138672 4.7281494zm12.312103 -11.884186l1.519104 -0.7625122q0.48135376 1.4616394 0.039978027 2.7472534q-0.4499817 1.272583 -1.8568726 2.2044067q-1.771637 1.1734009 -3.530243 0.7826538q-1.7542114 -0.41241455 -3.0576477 -2.3790588q-1.3552246 -2.0447998 -1.0554504 -3.855133q0.3128357 -1.8189392 1.9802551 -2.9233398q1.6153259 -1.0698547 3.3651428 -0.6358032q1.7542114 0.41241455 3.0749207 2.4051208q0.08630371 0.13024902 0.24169922 0.36468506l-6.018402 3.986145q0.95861816 1.2767029 2.1107788 1.5443726q1.1435242 0.25463867 2.1466064 -0.409729q0.7555542 -0.50042725 1.0306702 -1.2449036q0.26651 -0.7574768 0.009460449 -1.8241577zm-5.9617004 0.76257324l4.507263 -2.9852905q-0.76446533 -0.9555054 -1.5310059 -1.1787109q-1.177887 -0.36306763 -2.2200317 0.32714844q-0.93795776 0.62124634 -1.1663208 1.6908264q-0.2239685 1.0479126 0.4100952 2.1460266zm16.030243 -3.7017212l-0.6732788 -1.0158691q0.03857422 1.6986389 -1.4595032 2.690857q-0.96398926 0.63848877 -2.1255493 0.6394348q-1.1615906 9.460449E-4 -2.2346497 -0.6564636q-1.0730286 -0.65740967 -1.8930664 -1.8947144q-0.8027954 -1.2112427 -1.0463562 -2.455536q-0.25219727 -1.2572937 0.19714355 -2.3045654q0.46237183 -1.0559082 1.4654541 -1.7202759q0.7294922 -0.4831543 1.4968262 -0.54159546q0.771698 -0.080078125 1.4514465 0.18188477l-2.6500244 -3.998413l1.3677979 -0.9059448l7.3804016 11.135651l-1.2766418 0.84555054zm-6.9791565 -1.1685791q1.0271912 1.5498657 2.1878357 1.8869019q1.160614 0.33700562 2.0464478 -0.24969482q0.89886475 -0.5953369 1.040741 -1.7388306q0.13327026 -1.1565247 -0.8594055 -2.6542969q-1.096283 -1.6540527 -2.2438965 -1.9997253q-1.1562195 -0.3586731 -2.0941467 0.26254272q-0.89886475 0.5953369 -1.019104 1.7432251q-0.12020874 1.1478882 0.9415283 2.749878z" fill-rule="nonzero"/><path fill="#000000" fill-opacity="0.0" d="m272.16797 83.24147l-93.511795 193.13387" fill-rule="evenodd"/><path stroke="#000000" stroke-width="1.0" stroke-linejoin="round" stroke-linecap="butt" d="m272.16797 83.24147l-93.511795 193.13387" fill-rule="evenodd"/><path fill="#000000" fill-opacity="0.0" d="m178.17323 275.44357l209.5118 17.763763" fill-rule="evenodd"/><path stroke="#000000" stroke-width="1.0" stroke-linejoin="round" stroke-linecap="butt" d="m178.17323 275.44357l209.5118 17.763763" fill-rule="evenodd"/><path fill="#000000" fill-opacity="0.0" d="m272.63516 83.24147l115.52756 209.98424" fill-rule="evenodd"/><path stroke="#000000" stroke-width="1.0" stroke-linejoin="round" stroke-linecap="butt" d="m272.63516 83.24147l115.52756 209.98424" fill-rule="evenodd"/><path fill="#000000" fill-opacity="0.0" d="m130.66191 226.07336l83.65355 -139.55905l33.259842 19.968506l-83.65355 139.55905z" fill-rule="evenodd"/><path fill="#cfe2f3" d="m156.83281 229.79391l-9.819336 -5.8953247l0.7792206 -1.2999725l4.0322266 2.420868l3.0606537 -5.106079l-4.0322266 -2.420868l0.7792206 -1.2999725l9.819336 5.8953247l-0.7792206 1.2999725l-4.6350403 -2.7827911l-3.0606537 5.106079l4.6350403 2.7827911l-0.7792206 1.2999725zm-2.611435 -14.789917l-1.3798065 -0.82839966l0.72299194 -1.2061615l1.3797913 0.82839966l-0.7229767 1.2061615zm8.439529 5.06691l-7.113327 -4.2706757l0.72299194 -1.2061768l7.113327 4.270691l-0.72299194 1.2061615zm2.280426 -2.4671936l0.881073 -1.0747986q0.58940125 0.2627411 1.0313568 0.07246399q0.6080322 -0.2545929 1.0739594 -1.0318909q0.49806213 -0.83091736 0.4362793 -1.4876404q-0.061767578 -0.6567383 -0.5681915 -1.1794739q-0.3054657 -0.31097412 -1.4977112 -1.0267792q0.46376038 1.3536987 -0.24316406 2.5330658q-0.88365173 1.4741974 -2.423935 1.6429291q-1.5402832 0.16873169 -3.0272522 -0.7240143q-1.0180969 -0.61125183 -1.6585541 -1.4878387q-0.6324158 -0.88998413 -0.683548 -1.8683624q-0.04310608 -0.9917908 0.5192108 -1.9299164q0.75512695 -1.2597809 2.26326 -1.4660339l-0.8573456 -0.51474l0.66674805 -1.1123505l6.1488037 3.6916199q1.6611176 0.9972992 2.1568909 1.7505646q0.49575806 0.7532654 0.45581055 1.7316437q-0.03993225 0.9783783 -0.6826019 2.0505219q-0.7631531 1.2731781 -1.8131409 1.7180481q-1.0419617 0.43145752 -2.177948 -0.28701782zm-3.670868 -3.5707703q1.3931885 0.8364563 2.36557 0.67303467q0.9804077 -0.1768341 1.4784698 -1.0077362q0.49804688 -0.83091736 0.2058258 -1.7718048q-0.3056183 -0.94892883 -1.6720123 -1.7692871q-1.3128204 -0.7881775 -2.3146515 -0.6060028q-1.0152283 0.17414856 -1.5052643 0.99165344q-0.48199463 0.80410767 -0.16297913 1.7610779q0.3190155 0.9569702 1.6050415 1.729065zm7.7929077 -4.643265l-9.819336 -5.8953094l0.72299194 -1.2061615l3.523178 2.1152344q-0.47181702 -1.4314423 0.29936218 -2.7180023q0.4739685 -0.79071045 1.1275024 -1.1820068q0.6615753 -0.4046936 1.3554077 -0.31617737q0.7018738 0.07511902 1.7467651 0.7024536l4.5144806 2.7104034l-0.72299194 1.2061615l-4.5144806 -2.7104034q-0.89753723 -0.53886414 -1.5457764 -0.39953613q-0.64823914 0.139328 -1.0820312 0.86302185q-0.32133484 0.5360718 -0.32118225 1.1740265q1.5258789E-4 0.63797 0.36192322 1.1285248q0.34835815 0.4825287 1.1789246 0.9811859l3.8982544 2.3404236l-0.72299194 1.2061615zm8.302338 -13.850754l-8.667282 -5.203644l-1.9440308 3.2432404l-1.1520691 -0.6916809l4.6672974 -7.786438l1.1520691 0.69166565l-1.944046 3.2432404l8.667282 5.203644l-0.7792206 1.2999725zm3.5225525 -5.8766785l-9.819336 -5.8953247l2.2252045 -3.7122955q0.5864258 -0.9783325 0.9854584 -1.4313049q0.55436707 -0.65130615 1.1784668 -0.93270874q0.63212585 -0.2947998 1.4250793 -0.21966553q0.7875824 0.05368042 1.5243683 0.4960327q1.2458344 0.7479706 1.6345825 2.0748596q0.39678955 1.3134766 -0.8563843 3.4041595l-1.5102539 2.5195312l3.992035 2.3967285l-0.7792206 1.2999878zm-4.3782654 -4.3964386l1.5263062 -2.546341q0.75512695 -1.2597656 0.59954834 -2.0639343q-0.14752197 -0.8175659 -0.9914856 -1.3242493q-0.61621094 -0.3699646 -1.2510834 -0.31373596q-0.62683105 0.04283142 -1.0660553 0.4716797q-0.28657532 0.26533508 -0.8167572 1.1498566l-1.5102539 2.5195312l3.509781 2.107193zm6.438385 -6.2128143l0.6318817 -1.2973175q0.7849884 0.36193848 1.4600372 0.32983398q0.66166687 -0.040145874 1.3580475 -0.5332947q0.68296814 -0.5011902 1.1810303 -1.3320923q0.44985962 -0.75050354 0.57292175 -1.4420624q0.11769104 -0.7130127 -0.09674072 -1.2062378q-0.2197876 -0.51467896 -0.6752472 -0.7881317q-0.46887207 -0.28149414 -0.96443176 -0.21452332q-0.5089569 0.058914185 -1.1196289 0.53063965q-0.38031006 0.3001709 -1.5131683 1.4607391q-1.1462555 1.1525116 -1.7569427 1.533081q-0.79281616 0.47169495 -1.5375214 0.49842834q-0.7581024 0.018707275 -1.4412994 -0.3914795q-0.7367859 -0.4423523 -1.1307678 -1.2438507q-0.39935303 -0.8229523 -0.2522583 -1.828125q0.15512085 -1.0185852 0.74957275 -2.010315q0.6587219 -1.0989532 1.5184784 -1.7127075q0.84635925 -0.62179565 1.7946625 -0.6538849q0.95632935 -0.04547119 1.8377686 0.42904663l-0.65330505 1.3026733q-0.9886017 -0.44773865 -1.802887 -0.1529541q-0.82769775 0.28674316 -1.5105133 1.4258881q-0.70692444 1.1793671 -0.59957886 1.9728088q0.10734558 0.7934265 0.7235718 1.1633911q0.5224457 0.31367493 1.0956726 0.14753723q0.5598297 -0.17417908 1.8694458 -1.5384369q1.3176422 -1.3776703 1.9390259 -1.806488q0.9026184 -0.6244812 1.7598267 -0.65657043q0.8518524 -0.053527832 1.6422272 0.42099q0.77697754 0.46647644 1.2004395 1.3403625q0.4315033 0.86047363 0.3139038 1.938034q-0.117614746 1.0775452 -0.74420166 2.1228943q-0.80332947 1.3401794 -1.7300415 2.0048523q-0.94010925 0.6566467 -2.030365 0.7128296q-1.0822449 0.042800903 -2.0896149 -0.5255585zm5.596588 -8.850525l-1.2190399 -0.7318878l2.217163 -3.6988983l1.2190399 0.7318878l-2.217163 3.6988983zm6.1348877 -9.475021l0.8757019 -1.0962524q1.0985413 0.93292236 1.3131561 2.155243q0.22262573 1.2089233 -0.47625732 2.3748932q-0.8756256 1.4607849 -2.364975 1.787674q-1.4947052 0.30545044 -3.2763824 -0.76423645q-1.1520691 -0.6916809 -1.7844849 -1.581665q-0.63778687 -0.9114227 -0.6005249 -1.9460907q0.045272827 -1.0480804 0.5915375 -1.9593964q0.69888306 -1.1659698 1.7301483 -1.5491791q1.0178528 -0.39126587 2.2234344 0.059173584l-0.5247345 1.2705078q-0.8144226 -0.25204468 -1.4331818 -0.04034424q-0.61073303 0.19830322 -0.972229 0.8013916q-0.5462494 0.9113159 -0.23527527 1.8816986q0.3056183 0.9489136 1.7256012 1.8014526q1.4333801 0.8605652 2.419159 0.70518494q0.97236633 -0.16342163 1.5025635 -1.0479431q0.425766 -0.71029663 0.27824402 -1.4367218q-0.15287781 -0.747879 -0.99150085 -1.41539zm3.9457397 -0.6563721l-9.819336 -5.8953247l0.72299194 -1.2061615l3.523178 2.1152496q-0.47183228 -1.4314423 0.29936218 -2.7180176q0.47395325 -0.7906952 1.1275024 -1.1819916q0.6615753 -0.4046936 1.3554077 -0.31617737q0.7018738 0.07511902 1.7467651 0.7024536l4.5144806 2.7103882l-0.72299194 1.2061615l-4.5144806 -2.7103882q-0.89753723 -0.53886414 -1.5457764 -0.39953613q-0.64823914 0.139328 -1.0820312 0.86302185q-0.32133484 0.5360718 -0.32118225 1.1740265q1.5258789E-4 0.63797 0.36192322 1.1285248q0.34835815 0.4825287 1.1789246 0.98117065l3.8982544 2.3404388l-0.72299194 1.2061615zm6.470276 -12.800156q0.17436218 1.0159149 0.045959473 1.7771759q-0.14178467 0.75320435 -0.56755066 1.463501q-0.70692444 1.1793518 -1.6605072 1.4634094q-0.953598 0.28404236 -1.837738 -0.2467804q-0.5224457 -0.31365967 -0.8065338 -0.8122711q-0.2974701 -0.5066376 -0.32705688 -1.0346985q-0.034957886 -0.5494995 0.120269775 -1.1123962q0.12312317 -0.41815186 0.46850586 -1.1766968q0.70147705 -1.5653534 0.878067 -2.407013q-0.2545166 -0.15281677 -0.3215027 -0.19302368q-0.7367859 -0.4423523 -1.2323303 -0.28425598q-0.69644165 0.21974182 -1.242691 1.131073q-0.5061035 0.8442993 -0.44702148 1.4447479q0.053726196 0.57899475 0.69143677 1.2170105l-0.8676758 1.08284q-0.6537781 -0.61120605 -0.90574646 -1.2545624q-0.24394226 -0.6567383 -0.067337036 -1.4983978q0.16319275 -0.8497162 0.7094574 -1.7610321q0.54626465 -0.9113159 1.097992 -1.34552q0.5597687 -0.44758606 1.0419312 -0.52259827q0.48217773 -0.07501221 1.042099 0.115356445q0.3482666 0.11798096 1.1520386 0.60054016l1.6075287 0.96513367q1.687912 1.013382 2.1701508 1.2117767q0.4902649 0.18499756 1.0421143 0.20649719l-0.75512695 1.2597656q-0.48754883 -0.03756714 -1.0287323 -0.2895813zm-2.7488556 -1.5227814q-0.1257019 0.8175354 -0.7254181 2.243515q-0.34268188 0.81484985 -0.39349365 1.2035065q-0.05079651 0.38867188 0.11268616 0.7237549q0.15812683 0.31362915 0.46624756 0.49861145q0.48225403 0.28953552 1.0206604 0.12071228q0.5464325 -0.18222046 0.9641571 -0.8791199q0.4177246 -0.69688416 0.4443512 -1.4098969q0.021240234 -0.7344513 -0.361969 -1.3108063q-0.28138733 -0.44230652 -1.085144 -0.9248657l-0.44207764 -0.26541138zm-3.0111237 -6.008621l-1.3797913 -0.82839966l0.7229767 -1.2061615l1.3798065 0.82839966l-0.72299194 1.2061615zm8.439545 5.06691l-7.113327 -4.270691l0.72299194 -1.2061615l7.113312 4.270691l-0.7229767 1.2061615zm1.8275452 -3.0489044l-7.113327 -4.270691l0.6506958 -1.0855408l1.004715 0.60321045q-0.6995392 -1.4770355 0.19215393 -2.9646301q0.3855896 -0.64328 0.9346466 -1.042633q0.549057 -0.39933777 1.0848236 -0.44218445q0.53575134 -0.04283142 1.122467 0.16362q0.37506104 0.13404846 1.2056274 0.6327057l4.3805237 2.6299744l-0.72299194 1.2061615l-4.326935 -2.5978088q-0.7367859 -0.4423523 -1.1868591 -0.51208496q-0.45541382 -0.091171265 -0.88664246 0.14199829q-0.4232025 0.21975708 -0.71240234 0.70222473q-0.46592712 0.777298 -0.30766296 1.6377563q0.15289307 0.8390045 1.5192871 1.6593628l3.8848724 2.3323975l-0.72299194 1.2061615zm2.1557465 -8.42865l0.5274048 -1.3053589q0.77963257 0.34049988 1.4412384 0.11807251q0.65625 -0.24386597 1.146286 -1.0613708q0.49806213 -0.83091736 0.4041443 -1.4340363q-0.107299805 -0.6111603 -0.5627594 -0.88461304q-0.401886 -0.24128723 -0.85188293 -0.037612915q-0.313385 0.15812683 -1.1409302 0.99168396q-1.1302032 1.1257172 -1.6846161 1.5036163q-0.5597992 0.3564453 -1.1491241 0.36712646q-0.5813141 -0.0027313232 -1.1037598 -0.31640625q-0.48225403 -0.28953552 -0.75561523 -0.7452545q-0.27334595 -0.45570374 -0.3163452 -0.99180603q-0.045639038 -0.41012573 0.10960388 -0.97302246q0.14987183 -0.5843277 0.4792328 -1.1338043q0.50608826 -0.8443146 1.1247864 -1.3294296q0.61868286 -0.48511505 1.2106934 -0.5306244q0.58665466 -0.066963196 1.355545 0.23064423l-0.5461731 1.2758713q-0.5974426 -0.24934387 -1.138504 -0.045677185q-0.54107666 0.20367432 -0.95880127 0.9005661q-0.49806213 0.8309097 -0.43363953 1.3616562q0.059051514 0.50930786 0.42074585 0.7264557q0.24113464 0.14477539 0.51704407 0.109954834q0.27590942 -0.034835815 0.594635 -0.26264954q0.17944336 -0.1473999 0.9507599 -0.88716125q1.0980682 -1.0720978 1.6310577 -1.4446335q0.51960754 -0.38058472 1.1035767 -0.41270447q0.5920105 -0.04550934 1.2082367 0.32445526q0.6028137 0.36192322 0.9217682 1.0454865q0.31358337 0.6621094 0.20663452 1.50914q-0.09890747 0.83361816 -0.5969696 1.6645355q-0.8354645 1.3937836 -1.8452759 1.7716522q-1.0098267 0.3778534 -2.2689972 -0.10475159z" fill-rule="nonzero"/><path fill="#000000" fill-opacity="0.0" d="m232.41995 307.7979l115.52756 0l0 38.771637l-115.52756 0z" fill-rule="evenodd"/><path fill="#cfe2f3" d="m242.59183 332.1579l0 -11.453125l4.296875 0q1.3125 0 2.109375 0.34375q0.796875 0.34375 1.234375 1.078125q0.453125 0.71875 0.453125 1.5q0 0.734375 -0.40625 1.390625q-0.390625 0.640625 -1.1875 1.046875q1.03125 0.296875 1.59375 1.03125q0.5625 0.734375 0.5625 1.734375q0 0.8125 -0.34375 1.5q-0.34375 0.6875 -0.84375 1.0625q-0.5 0.375 -1.25 0.578125q-0.75 0.1875 -1.84375 0.1875l-4.375 0zm1.515625 -6.640625l2.484375 0q1.0 0 1.4375 -0.140625q0.578125 -0.171875 0.875 -0.5625q0.296875 -0.40625 0.296875 -1.0q0 -0.578125 -0.28125 -1.0q-0.265625 -0.4375 -0.78125 -0.59375q-0.5 -0.171875 -1.734375 -0.171875l-2.296875 0l0 3.46875zm0 5.28125l2.859375 0q0.734375 0 1.03125 -0.046875q0.515625 -0.09375 0.859375 -0.3125q0.359375 -0.21875 0.578125 -0.640625q0.234375 -0.421875 0.234375 -0.96875q0 -0.640625 -0.328125 -1.109375q-0.328125 -0.46875 -0.90625 -0.65625q-0.578125 -0.203125 -1.671875 -0.203125l-2.65625 0l0 3.9375zm12.140625 1.359375l0 -10.109375l-3.78125 0l0 -1.34375l9.078125 0l0 1.34375l-3.78125 0l0 10.109375l-1.515625 0zm15.0234375 -4.015625l1.515625 0.375q-0.46875 1.875 -1.71875 2.859375q-1.234375 0.984375 -3.015625 0.984375q-1.859375 0 -3.015625 -0.75q-1.15625 -0.765625 -1.765625 -2.1875q-0.609375 -1.4375 -0.609375 -3.078125q0 -1.796875 0.6875 -3.125q0.6875 -1.328125 1.9375 -2.015625q1.265625 -0.703125 2.78125 -0.703125q1.71875 0 2.890625 0.875q1.171875 0.875 1.640625 2.46875l-1.5 0.34375q-0.390625 -1.25 -1.15625 -1.8125q-0.75 -0.578125 -1.90625 -0.578125q-1.3125 0 -2.203125 0.640625q-0.890625 0.625 -1.25 1.703125q-0.359375 1.0625 -0.359375 2.1875q0 1.46875 0.421875 2.5625q0.4375 1.078125 1.328125 1.625q0.90625 0.53125 1.953125 0.53125q1.265625 0 2.140625 -0.734375q0.890625 -0.734375 1.203125 -2.171875zm3.5703125 4.015625l0 -1.609375l1.609375 0l0 1.609375q0 0.890625 -0.3125 1.421875q-0.3125 0.546875 -1.0 0.84375l-0.390625 -0.59375q0.453125 -0.203125 0.65625 -0.578125q0.21875 -0.375 0.234375 -1.09375l-0.796875 0zm8.734375 0l0 -11.453125l8.28125 0l0 1.34375l-6.765625 0l0 3.515625l6.34375 0l0 1.34375l-6.34375 0l0 3.890625l7.03125 0l0 1.359375l-8.546875 0zm13.5625 0l0 -10.109375l-3.78125 0l0 -1.34375l9.078125 0l0 1.34375l-3.78125 0l0 10.109375l-1.515625 0zm6.8984375 0l0 -11.453125l1.515625 0l0 4.703125l5.953125 0l0 -4.703125l1.515625 0l0 11.453125l-1.515625 0l0 -5.40625l-5.953125 0l0 5.40625l-1.515625 0z" fill-rule="nonzero"/><path fill="#000000" fill-opacity="0.0" d="m234.28871 201.08661l269.3543 0l0 42.015747l-269.3543 0z" fill-rule="evenodd"/><path fill="#000000" d="m244.13246 223.70973l1.65625 -0.140625q0.125 1.0 0.546875 1.640625q0.4375 0.640625 1.34375 1.046875q0.921875 0.390625 2.0625 0.390625q1.0 0 1.78125 -0.296875q0.78125 -0.296875 1.15625 -0.8125q0.375 -0.53125 0.375 -1.15625q0 -0.625 -0.375 -1.09375q-0.359375 -0.46875 -1.1875 -0.796875q-0.546875 -0.203125 -2.390625 -0.640625q-1.828125 -0.453125 -2.5625 -0.84375q-0.96875 -0.5 -1.4375 -1.234375q-0.46875 -0.75 -0.46875 -1.671875q0 -1.0 0.578125 -1.875q0.578125 -0.890625 1.671875 -1.34375q1.109375 -0.453125 2.453125 -0.453125q1.484375 0 2.609375 0.484375q1.140625 0.46875 1.75 1.40625q0.609375 0.921875 0.65625 2.09375l-1.6875 0.125q-0.140625 -1.265625 -0.9375 -1.90625q-0.78125 -0.65625 -2.3125 -0.65625q-1.609375 0 -2.34375 0.59375q-0.734375 0.59375 -0.734375 1.421875q0 0.71875 0.53125 1.171875q0.5 0.46875 2.65625 0.96875q2.15625 0.484375 2.953125 0.84375q1.171875 0.53125 1.71875 1.359375q0.5625 0.828125 0.5625 1.90625q0 1.0625 -0.609375 2.015625q-0.609375 0.9375 -1.75 1.46875q-1.140625 0.515625 -2.578125 0.515625q-1.8125 0 -3.046875 -0.53125q-1.21875 -0.53125 -1.921875 -1.59375q-0.6875 -1.0625 -0.71875 -2.40625zm12.834213 4.296875l0 -13.359375l1.640625 0l0 4.796875q1.140625 -1.328125 2.890625 -1.328125q1.078125 0 1.859375 0.421875q0.796875 0.421875 1.140625 1.171875q0.34375 0.75 0.34375 2.171875l0 6.125l-1.640625 0l0 -6.125q0 -1.234375 -0.53125 -1.796875q-0.53125 -0.5625 -1.515625 -0.5625q-0.71875 0 -1.359375 0.390625q-0.640625 0.375 -0.921875 1.015625q-0.265625 0.640625 -0.265625 1.78125l0 5.296875l-1.640625 0zm16.688202 -1.1875q-0.921875 0.765625 -1.765625 1.09375q-0.828125 0.3125 -1.796875 0.3125q-1.59375 0 -2.453125 -0.78125q-0.859375 -0.78125 -0.859375 -1.984375q0 -0.71875 0.328125 -1.296875q0.328125 -0.59375 0.84375 -0.9375q0.53125 -0.359375 1.1875 -0.546875q0.46875 -0.125 1.453125 -0.25q1.984375 -0.234375 2.921875 -0.5625q0.015625 -0.34375 0.015625 -0.421875q0 -1.0 -0.46875 -1.421875q-0.625 -0.546875 -1.875 -0.546875q-1.15625 0 -1.703125 0.40625q-0.546875 0.40625 -0.8125 1.421875l-1.609375 -0.21875q0.21875 -1.015625 0.71875 -1.640625q0.5 -0.640625 1.453125 -0.984375q0.953125 -0.34375 2.1875 -0.34375q1.25 0 2.015625 0.296875q0.78125 0.28125 1.140625 0.734375q0.375 0.4375 0.515625 1.109375q0.078125 0.421875 0.078125 1.515625l0 2.1875q0 2.28125 0.109375 2.890625q0.109375 0.59375 0.40625 1.15625l-1.703125 0q-0.265625 -0.515625 -0.328125 -1.1875zm-0.140625 -3.671875q-0.890625 0.375 -2.671875 0.625q-1.015625 0.140625 -1.4375 0.328125q-0.421875 0.1875 -0.65625 0.53125q-0.21875 0.34375 -0.21875 0.78125q0 0.65625 0.5 1.09375q0.5 0.4375 1.453125 0.4375q0.9375 0 1.671875 -0.40625q0.75 -0.421875 1.09375 -1.140625q0.265625 -0.5625 0.265625 -1.640625l0 -0.609375zm4.1882324 4.859375l0 -9.671875l1.46875 0l0 1.46875q0.5625 -1.03125 1.03125 -1.359375q0.484375 -0.328125 1.0625 -0.328125q0.828125 0 1.6875 0.53125l-0.5625 1.515625q-0.609375 -0.359375 -1.203125 -0.359375q-0.546875 0 -0.96875 0.328125q-0.421875 0.328125 -0.609375 0.890625q-0.28125 0.875 -0.28125 1.921875l0 5.0625l-1.625 0zm12.493927 0l0 -1.21875q-0.90625 1.4375 -2.703125 1.4375q-1.15625 0 -2.125 -0.640625q-0.96875 -0.640625 -1.5 -1.78125q-0.53125 -1.140625 -0.53125 -2.625q0 -1.453125 0.484375 -2.625q0.484375 -1.1875 1.4375 -1.8125q0.96875 -0.625 2.171875 -0.625q0.875 0 1.546875 0.375q0.6875 0.359375 1.109375 0.953125l0 -4.796875l1.640625 0l0 13.359375l-1.53125 0zm-5.171875 -4.828125q0 1.859375 0.78125 2.78125q0.78125 0.921875 1.84375 0.921875q1.078125 0 1.828125 -0.875q0.75 -0.890625 0.75 -2.6875q0 -1.984375 -0.765625 -2.90625q-0.765625 -0.9375 -1.890625 -0.9375q-1.078125 0 -1.8125 0.890625q-0.734375 0.890625 -0.734375 2.8125zm9.281952 -6.640625l0 -1.890625l1.640625 0l0 1.890625l-1.640625 0zm0 11.46875l0 -9.671875l1.640625 0l0 9.671875l-1.640625 0zm4.1448364 0l0 -9.671875l1.46875 0l0 1.375q1.0625 -1.59375 3.078125 -1.59375q0.875 0 1.609375 0.3125q0.734375 0.3125 1.09375 0.828125q0.375 0.5 0.515625 1.203125q0.09375 0.453125 0.09375 1.59375l0 5.953125l-1.640625 0l0 -5.890625q0 -1.0 -0.203125 -1.484375q-0.1875 -0.5 -0.671875 -0.796875q-0.484375 -0.296875 -1.140625 -0.296875q-1.046875 0 -1.8125 0.671875q-0.75 0.65625 -0.75 2.515625l0 5.28125l-1.640625 0zm10.063202 0.796875l1.59375 0.234375q0.109375 0.75 0.5625 1.078125q0.609375 0.453125 1.671875 0.453125q1.140625 0 1.75 -0.453125q0.625 -0.453125 0.84375 -1.265625q0.125 -0.5 0.109375 -2.109375q-1.0625 1.265625 -2.671875 1.265625q-2.0 0 -3.09375 -1.4375q-1.09375 -1.4375 -1.09375 -3.453125q0 -1.390625 0.5 -2.5625q0.515625 -1.171875 1.453125 -1.796875q0.953125 -0.640625 2.25 -0.640625q1.703125 0 2.8125 1.375l0 -1.15625l1.515625 0l0 8.359375q0 2.265625 -0.46875 3.203125q-0.453125 0.9375 -1.453125 1.484375q-0.984375 0.546875 -2.453125 0.546875q-1.71875 0 -2.796875 -0.78125q-1.0625 -0.765625 -1.03125 -2.34375zm1.359375 -5.8125q0 1.90625 0.75 2.78125q0.765625 0.875 1.90625 0.875q1.125 0 1.890625 -0.859375q0.765625 -0.875 0.765625 -2.734375q0 -1.78125 -0.796875 -2.671875q-0.78125 -0.90625 -1.890625 -0.90625q-1.09375 0 -1.859375 0.890625q-0.765625 0.875 -0.765625 2.625z" fill-rule="nonzero"/><path fill="#000000" fill-opacity="0.0" d="m353.5158 130.32549l64.25195 108.157486l-33.35431 19.811035l-64.25198 -108.157486z" fill-rule="evenodd"/><path fill="#cfe2f3" d="m337.77475 151.52399l9.847137 -5.848755l1.1651306 1.9612732l-5.5837097 6.4786224q-0.7757263 0.8969116 -1.1715698 1.3319244q0.6331482 -0.15795898 1.8830261 -0.40966797l8.247894 -1.7185516l1.0454102 1.7597809l-9.847137 5.84877l-0.7501526 -1.2627411l8.248505 -4.899246l-9.948273 2.037918l-0.6943054 -1.1687012l6.6910095 -7.8269196l-8.3828125 4.9790344l-0.7501526 -1.2627411zm9.520447 16.026062l1.0478516 -0.6223755q-1.7038574 -0.114746094 -2.5577393 -1.552124q-0.37506104 -0.6313629 -0.46044922 -1.3257599q-0.07739258 -0.68096924 0.12573242 -1.1650696q0.21655273 -0.49209595 0.67663574 -0.91075134q0.32281494 -0.28260803 1.088562 -0.7374115l4.4197693 -2.6251678l0.7182312 1.2089996l-3.9496155 2.3459015q-0.9537964 0.56651306 -1.2363281 0.8251953q-0.4118042 0.4081421 -0.46499634 0.9304352q-0.04525757 0.5357208 0.2739563 1.0730591q0.32720947 0.550766 0.8751831 0.8613434q0.569397 0.31604004 1.1647644 0.21685791q0.6033325 -0.085754395 1.5168457 -0.6283417l3.8152466 -2.266098l0.7182312 1.2090149l-7.133484 4.236969l-0.6383972 -1.0746765zm1.751648 2.9486237l9.847137 -5.848755l0.7182312 1.2089996l-9.847137 5.84877l-0.7182312 -1.2090149zm4.4837646 5.0696106l-0.9709778 0.81295776q-0.41073608 -0.44662476 -0.6501465 -0.84962463q-0.39102173 -0.6582489 -0.40496826 -1.1406403q-5.493164E-4 -0.49035645 0.24752808 -0.83761597q0.26150513 -0.3552246 1.3496704 -1.0015411l4.097351 -2.4336548l-0.52667236 -0.88661194l0.94036865 -0.558548l0.5267029 0.88661194l1.7732849 -1.0532532l1.4436646 0.77812195l-2.4987183 1.4841309l0.7182007 1.2090149l-0.94036865 0.558548l-0.7182312 -1.2090149l-4.164551 2.4735565q-0.5239258 0.31118774 -0.6397705 0.45269775q-0.10787964 0.15493774 -0.11413574 0.35856628q0.0072021484 0.19563293 0.16677856 0.4643097q0.11972046 0.20149231 0.36499023 0.49198914zm8.081512 -3.191742l1.3836975 -0.82185364l0.7182312 1.2089996l-1.3836975 0.82185364l-0.7182312 -1.2089996zm-8.46344 5.0269012l7.133484 -4.2369537l0.7182007 1.2089996l-7.1334534 4.236969l-0.7182312 -1.2090149zm4.491699 0.8305054l1.2224731 -0.72610474l2.2025757 3.7076263l-1.2225037 0.72610474l-2.2025452 -3.7076263zm5.425873 9.898407l0.54904175 1.2913208q-1.3421936 0.5246124 -2.5195923 0.1335144q-1.1694031 -0.37763977 -1.863678 -1.5463562q-0.8698425 -1.4642334 -0.4507141 -2.9308014q0.44055176 -1.4611053 2.227295 -2.5223389q1.155304 -0.68621826 2.2385254 -0.820755q1.1046448 -0.1290741 1.997406 0.3947296q0.9006958 0.53723145 1.4433594 1.4506989q0.6942749 1.1687164 0.54211426 2.2586365q-0.13876343 1.0819397 -1.1072083 1.9297638l-0.868927 -1.0649872q0.60824585 -0.5975189 0.7156067 -1.2428284q0.11532593 -0.6318817 -0.24377441 -1.2363892q-0.5426636 -0.9134674 -1.5440674 -1.1001282q-0.980011 -0.18119812 -2.4040222 0.6646118q-1.437439 0.853775 -1.7685242 1.795517q-0.31762695 0.93377686 0.20907593 1.8203735q0.42294312 0.7119751 1.1321411 0.92681885q0.73062134 0.22027588 1.7159424 -0.20140076zm-1.2949219 3.7858887l9.847137 -5.84877l0.7182312 1.2090149l-3.533142 2.098526q1.483429 0.26382446 2.2495422 1.5534363q0.4708252 0.792572 0.5050049 1.5537262q0.042144775 0.77459717 -0.36502075 1.3435364q-0.39916992 0.5823822 -1.4470215 1.2047577l-4.527252 2.6890106l-0.7182312 -1.2090149l4.5272827 -2.6889954q0.90005493 -0.53460693 1.085083 -1.1715393q0.18502808 -0.6369171 -0.24588013 -1.36232q-0.31921387 -0.53733826 -0.88064575 -0.83995056q-0.5614319 -0.30259705 -1.1647644 -0.21684265q-0.58987427 0.07777405 -1.4227905 0.57247925l-3.9093018 2.3219452l-0.7182312 -1.2089996zm8.192566 11.771652q-0.9766846 -0.3285675 -1.5855713 -0.8028717q-0.595459 -0.48228455 -1.0184326 -1.1942596q-0.70224 -1.1821442 -0.4996643 -2.1566162q0.2026062 -0.97447205 1.0892334 -1.5011139q0.5239258 -0.31118774 1.0974731 -0.3247223q0.5869446 -0.021499634 1.0656433 0.20301819q0.5001221 0.22999573 0.9217529 0.6338043q0.30947876 0.306839 0.8130493 0.970932q1.0444946 1.3605194 1.7012634 1.9154358q0.25524902 -0.15161133 0.3224182 -0.19151306q0.7388916 -0.43885803 0.8349304 -0.95022583q0.137146 -0.7175293 -0.40551758 -1.6309967q-0.5027466 -0.8463135 -1.0591125 -1.0792236q-0.53497314 -0.22746277 -1.3989868 0.031311035l-0.54107666 -1.2778931q0.8480835 -0.28562927 1.5337524 -0.20220947q0.69363403 0.09686279 1.3504028 0.6517792q0.67022705 0.54693604 1.2128906 1.4604034q0.54263306 0.9134674 0.6628723 1.6053467q0.12820435 0.705307 -0.034606934 1.1654663q-0.16281128 0.46017456 -0.5960388 0.86286926q-0.2690735 0.25068665 -1.0751038 0.7294464l-1.6120911 0.9575043q-1.692688 1.0053864 -2.0960999 1.3358612q-0.39544678 0.34391785 -0.676239 0.8196411l-0.7501526 -1.2627411q0.2644348 -0.41148376 0.7430115 -0.7684326zm2.6443787 -1.6978607q-0.6596985 -0.49864197 -1.6298523 -1.7034149q-0.5543518 -0.6884308 -0.8722534 -0.91760254q-0.3178711 -0.22918701 -0.6903076 -0.24423218q-0.35101318 -0.009597778 -0.66000366 0.17391968q-0.48361206 0.28726196 -0.5905762 0.8414612q-0.098968506 0.5676422 0.31600952 1.2661743q0.41497803 0.6985321 1.0297241 1.0603333q0.63619995 0.36724854 1.3251648 0.3033142q0.5227356 -0.037887573 1.3287659 -0.5166321l0.44332886 -0.26332092zm6.7160034 0.19995117l1.3836975 -0.8218689l0.7182007 1.2090149l-1.3836975 0.82185364l-0.7182007 -1.2089996zm-8.46344 5.0269012l7.1334534 -4.2369537l0.7182312 1.2089996l-7.1334534 4.236969l-0.7182312 -1.2090149zm1.8154907 3.0561066l7.133484 -4.236969l0.6463928 1.0881042l-1.0075684 0.5984497q1.6316223 0.08494568 2.5174255 1.5760498q0.38305664 0.6448059 0.47387695 1.3177795q0.09085083 0.6729889 -0.1257019 1.1650696q-0.21655273 0.49209595 -0.67663574 0.91075134q-0.29595947 0.26664734 -1.1288452 0.76135254l-4.3929443 2.6092072l-0.7182007 -1.2089996l4.3391724 -2.577301q0.7388916 -0.43884277 1.0138245 -0.802063q0.29632568 -0.3577423 0.29580688 -0.848114q0.0074768066 -0.47694397 -0.27981567 -0.9605408q-0.4628601 -0.779129 -1.2950745 -1.048111q-0.81082153 -0.2635193 -2.1810913 0.55036926l-3.895874 2.3139648l-0.7182312 -1.2089996z" fill-rule="nonzero"/></g></svg>