<?xml version="1.0" encoding="utf-8"?>
<!-- Generator: Adobe Illustrator 24.0.3, SVG Export Plug-In . SVG Version: 6.00 Build 0)  -->
<svg version="1.1" id="Layer_1" xmlns="http://www.w3.org/2000/svg" xmlns:xlink="http://www.w3.org/1999/xlink" x="0px" y="0px"
	 viewBox="0 0 500 500" style="enable-background:new 0 0 500 500;" xml:space="preserve">
<style type="text/css">
	.st0{fill:none;stroke:#B7B8BB;stroke-width:2;stroke-miterlimit:10;}
	.st1{fill:#B7B8BB;}
	.st2{fill:#E6007A;}
</style>
<title>hiress_Artboard 1 copy 7</title>
<g>
	<g>
		<polyline class="st0" points="78.1,173.9 99.8,273.2 192.7,173.9 		"/>
		<polyline class="st0" points="135.4,173.9 188.1,273.2 364.6,173.9 		"/>
		<line class="st0" x1="276.5" y1="273.2" x2="250" y2="173.9"/>
		<polyline class="st0" points="307.3,173.9 364.6,273.2 422.6,173.9 		"/>
		<path class="st1" d="M174.3,99.1c0-10.2,8.2-18.4,18.4-18.4c10.2,0,18.4,8.2,18.4,18.4c0,0,0,0,0,0v76.4
			c0,10.2-8.2,18.4-18.4,18.4c-10.1,0-18.4-8.2-18.4-18.4V99.1z"/>
		<path class="st1" d="M231.6,99.1c0-10.2,8.2-18.4,18.4-18.4c10.2,0,18.4,8.2,18.4,18.4c0,0,0,0,0,0v76.4
			c0,10.2-8.2,18.4-18.4,18.4c-10.1,0-18.4-8.2-18.4-18.4V99.1z"/>
		<path class="st1" d="M288.9,99.1c-0.2-10.1,7.8-18.6,17.9-18.8s18.6,7.8,18.8,17.9c0,0.3,0,0.6,0,0.9v76.4
			c0.2,10.1-7.8,18.6-17.9,18.8s-18.6-7.8-18.8-17.9c0-0.3,0-0.6,0-0.9V99.1z"/>
		<path class="st1" d="M59.7,99.1c0-10.2,8.2-18.4,18.4-18.4c10.1,0,18.4,8.2,18.4,18.4v76.4c0,10.2-8.2,18.4-18.4,18.4
			c-10.1,0-18.4-8.2-18.4-18.4L59.7,99.1z"/>
		<path class="st1" d="M117,99.1c0-10.2,8.2-18.4,18.4-18.4c10.2,0,18.4,8.2,18.4,18.4c0,0,0,0,0,0v76.4c0,10.2-8.2,18.4-18.4,18.4
			s-18.4-8.2-18.4-18.4c0,0,0,0,0,0V99.1z"/>
		<path class="st1" d="M403.5,99.1c0-10.2,8.2-18.4,18.4-18.4s18.4,8.2,18.4,18.4v76.4c0,10.2-8.2,18.4-18.4,18.4
			s-18.4-8.2-18.4-18.4V99.1z"/>
		<path class="st1" d="M346.2,99.1c0-10.2,8.2-18.4,18.4-18.4S383,89,383,99.1v76.4c0,10.2-8.2,18.4-18.4,18.4s-18.4-8.2-18.4-18.4
			V99.1z"/>
		
			<ellipse transform="matrix(3.327798e-02 -0.9994 0.9994 3.327798e-02 -210.7525 328.4734)" class="st2" cx="64.4" cy="273.2" rx="4.7" ry="4.7"/>
		<circle class="st2" cx="82.1" cy="273.2" r="4.7"/>
		<circle class="st2" cx="99.8" cy="273.2" r="4.7"/>
		<circle class="st2" cx="117.4" cy="273.2" r="4.7"/>
		<circle class="st2" cx="135.1" cy="273.2" r="4.7"/>
		<circle class="st2" cx="170.5" cy="273.2" r="4.7"/>
		<circle class="st2" cx="188.1" cy="273.2" r="4.7"/>
		<circle class="st2" cx="205.8" cy="273.2" r="4.7"/>
		<circle class="st2" cx="241.1" cy="273.2" r="4.7"/>
		<circle class="st2" cx="258.8" cy="273.2" r="4.7"/>
		<circle class="st2" cx="276.5" cy="273.2" r="4.7"/>
		<circle class="st2" cx="294.2" cy="273.2" r="4.7"/>
		<circle class="st2" cx="311.9" cy="273.2" r="4.7"/>
		<circle class="st2" cx="347.2" cy="273.2" r="4.7"/>
		<circle class="st2" cx="364.9" cy="273.2" r="4.7"/>
		<circle class="st2" cx="400.2" cy="273.2" r="4.7"/>
		<circle class="st2" cx="417.9" cy="273.2" r="4.7"/>
		<circle class="st2" cx="435.6" cy="273.2" r="4.7"/>
		
			<ellipse transform="matrix(3.327798e-02 -0.9994 0.9994 3.327798e-02 -228.4127 345.5554)" class="st2" cx="64.4" cy="290.9" rx="4.7" ry="4.7"/>
		<circle class="st2" cx="82.1" cy="290.9" r="4.7"/>
		<circle class="st2" cx="99.8" cy="290.9" r="4.7"/>
		<circle class="st2" cx="117.4" cy="290.9" r="4.7"/>
		<circle class="st2" cx="135.1" cy="290.9" r="4.7"/>
		<circle class="st2" cx="170.5" cy="290.9" r="4.7"/>
		<circle class="st2" cx="188.1" cy="290.9" r="4.7"/>
		<circle class="st2" cx="205.8" cy="290.9" r="4.7"/>
		<circle class="st2" cx="241.1" cy="290.9" r="4.7"/>
		<circle class="st2" cx="258.8" cy="290.9" r="4.7"/>
		<circle class="st2" cx="276.5" cy="290.9" r="4.7"/>
		<circle class="st2" cx="294.2" cy="290.9" r="4.7"/>
		<circle class="st2" cx="311.9" cy="290.9" r="4.7"/>
		<circle class="st2" cx="347.2" cy="290.9" r="4.7"/>
		<circle class="st2" cx="364.9" cy="290.9" r="4.7"/>
		<circle class="st2" cx="400.2" cy="290.9" r="4.7"/>
		<circle class="st2" cx="417.9" cy="290.9" r="4.7"/>
		<circle class="st2" cx="435.6" cy="290.9" r="4.7"/>
		
			<ellipse transform="matrix(3.327798e-02 -0.9994 0.9994 3.327798e-02 -246.0729 362.6374)" class="st2" cx="64.4" cy="308.5" rx="4.7" ry="4.7"/>
		<circle class="st2" cx="82.1" cy="308.5" r="4.7"/>
		<circle class="st2" cx="99.8" cy="308.5" r="4.7"/>
		<circle class="st2" cx="117.4" cy="308.5" r="4.7"/>
		<circle class="st2" cx="135.1" cy="308.5" r="4.7"/>
		<circle class="st2" cx="170.5" cy="308.5" r="4.7"/>
		<circle class="st2" cx="188.1" cy="308.5" r="4.7"/>
		<circle class="st2" cx="205.8" cy="308.5" r="4.7"/>
		<circle class="st2" cx="241.1" cy="308.5" r="4.7"/>
		<circle class="st2" cx="258.8" cy="308.5" r="4.7"/>
		<circle class="st2" cx="276.5" cy="308.5" r="4.7"/>
		<circle class="st2" cx="294.2" cy="308.5" r="4.7"/>
		<circle class="st2" cx="311.9" cy="308.5" r="4.7"/>
		<circle class="st2" cx="347.2" cy="308.5" r="4.7"/>
		<circle class="st2" cx="364.9" cy="308.5" r="4.7"/>
		<circle class="st2" cx="400.2" cy="308.5" r="4.7"/>
		<circle class="st2" cx="417.9" cy="308.5" r="4.7"/>
		<circle class="st2" cx="435.6" cy="308.5" r="4.7"/>
		
			<ellipse transform="matrix(3.327798e-02 -0.9994 0.9994 3.327798e-02 -263.7431 379.7291)" class="st2" cx="64.4" cy="326.2" rx="4.7" ry="4.7"/>
		<circle class="st2" cx="82.1" cy="326.2" r="4.7"/>
		<circle class="st2" cx="99.8" cy="326.2" r="4.7"/>
		<circle class="st2" cx="117.4" cy="326.2" r="4.7"/>
		<circle class="st2" cx="135.1" cy="326.2" r="4.7"/>
		<circle class="st2" cx="170.5" cy="326.2" r="4.7"/>
		<circle class="st2" cx="188.1" cy="326.2" r="4.7"/>
		<circle class="st2" cx="205.8" cy="326.2" r="4.7"/>
		<circle class="st2" cx="241.1" cy="326.2" r="4.7"/>
		<circle class="st2" cx="258.8" cy="326.2" r="4.7"/>
		<circle class="st2" cx="276.5" cy="326.2" r="4.7"/>
		<circle class="st2" cx="294.2" cy="326.2" r="4.7"/>
		<circle class="st2" cx="311.9" cy="326.2" r="4.7"/>
		<circle class="st2" cx="347.2" cy="326.2" r="4.7"/>
		<circle class="st2" cx="364.9" cy="326.2" r="4.7"/>
		<circle class="st2" cx="400.2" cy="326.2" r="4.7"/>
		<circle class="st2" cx="417.9" cy="326.2" r="4.7"/>
		<circle class="st2" cx="435.6" cy="326.2" r="4.7"/>
		
			<ellipse transform="matrix(3.327798e-02 -0.9994 0.9994 3.327798e-02 -281.4033 396.811)" class="st2" cx="64.4" cy="343.9" rx="4.7" ry="4.7"/>
		<circle class="st2" cx="82.1" cy="343.9" r="4.7"/>
		<circle class="st2" cx="99.8" cy="343.9" r="4.7"/>
		<circle class="st2" cx="117.4" cy="343.9" r="4.7"/>
		<circle class="st2" cx="135.1" cy="343.9" r="4.7"/>
		<circle class="st2" cx="170.5" cy="343.9" r="4.7"/>
		<circle class="st2" cx="188.1" cy="343.9" r="4.7"/>
		<circle class="st2" cx="205.8" cy="343.9" r="4.7"/>
		<circle class="st2" cx="241.1" cy="343.9" r="4.7"/>
		<circle class="st2" cx="258.8" cy="343.9" r="4.7"/>
		<circle class="st2" cx="276.5" cy="343.9" r="4.7"/>
		<circle class="st2" cx="294.2" cy="343.9" r="4.7"/>
		<circle class="st2" cx="311.9" cy="343.9" r="4.7"/>
		<circle class="st2" cx="347.2" cy="343.9" r="4.7"/>
		<circle class="st2" cx="364.9" cy="343.9" r="4.7"/>
		<circle class="st2" cx="400.2" cy="343.9" r="4.7"/>
		<circle class="st2" cx="417.9" cy="343.9" r="4.7"/>
		<circle class="st2" cx="435.6" cy="343.9" r="4.7"/>
		
			<ellipse transform="matrix(3.327798e-02 -0.9994 0.9994 3.327798e-02 -299.0735 413.9026)" class="st2" cx="64.4" cy="361.5" rx="4.7" ry="4.7"/>
		<circle class="st2" cx="82.1" cy="361.5" r="4.7"/>
		<circle class="st2" cx="99.8" cy="361.5" r="4.7"/>
		<circle class="st2" cx="117.4" cy="361.5" r="4.7"/>
		<circle class="st2" cx="135.1" cy="361.5" r="4.7"/>
		<circle class="st2" cx="170.5" cy="361.5" r="4.7"/>
		<circle class="st2" cx="188.1" cy="361.5" r="4.7"/>
		<circle class="st2" cx="205.8" cy="361.5" r="4.7"/>
		<circle class="st2" cx="241.1" cy="361.5" r="4.7"/>
		<circle class="st2" cx="258.8" cy="361.5" r="4.7"/>
		<circle class="st2" cx="276.5" cy="361.5" r="4.7"/>
		<circle class="st2" cx="294.2" cy="361.5" r="4.7"/>
		<circle class="st2" cx="311.9" cy="361.5" r="4.7"/>
		<circle class="st2" cx="347.2" cy="361.5" r="4.7"/>
		<circle class="st2" cx="364.9" cy="361.5" r="4.7"/>
		<circle class="st2" cx="400.2" cy="361.5" r="4.7"/>
		<circle class="st2" cx="417.9" cy="361.5" r="4.7"/>
		<circle class="st2" cx="435.6" cy="361.5" r="4.7"/>
		
			<ellipse transform="matrix(3.327798e-02 -0.9994 0.9994 3.327798e-02 -316.7337 430.9846)" class="st2" cx="64.4" cy="379.2" rx="4.7" ry="4.7"/>
		<circle class="st2" cx="82.1" cy="379.2" r="4.7"/>
		<circle class="st2" cx="99.8" cy="379.2" r="4.7"/>
		<circle class="st2" cx="117.4" cy="379.2" r="4.7"/>
		<circle class="st2" cx="135.1" cy="379.2" r="4.7"/>
		<circle class="st2" cx="170.5" cy="379.2" r="4.7"/>
		<circle class="st2" cx="188.1" cy="379.2" r="4.7"/>
		<circle class="st2" cx="205.8" cy="379.2" r="4.7"/>
		<circle class="st2" cx="241.1" cy="379.2" r="4.7"/>
		<circle class="st2" cx="258.8" cy="379.2" r="4.7"/>
		<circle class="st2" cx="276.5" cy="379.2" r="4.7"/>
		<circle class="st2" cx="294.2" cy="379.2" r="4.7"/>
		<circle class="st2" cx="311.9" cy="379.2" r="4.7"/>
		<circle class="st2" cx="347.2" cy="379.2" r="4.7"/>
		<circle class="st2" cx="364.9" cy="379.2" r="4.7"/>
		<circle class="st2" cx="400.2" cy="379.2" r="4.7"/>
		<circle class="st2" cx="417.9" cy="379.2" r="4.7"/>
		<circle class="st2" cx="435.6" cy="379.2" r="4.7"/>
		
			<ellipse transform="matrix(3.327798e-02 -0.9994 0.9994 3.327798e-02 -334.394 448.0666)" class="st2" cx="64.4" cy="396.9" rx="4.7" ry="4.7"/>
		<circle class="st2" cx="82.1" cy="396.9" r="4.7"/>
		<circle class="st2" cx="99.8" cy="396.9" r="4.7"/>
		<circle class="st2" cx="117.4" cy="396.9" r="4.7"/>
		<circle class="st2" cx="135.1" cy="396.9" r="4.7"/>
		<circle class="st2" cx="170.5" cy="396.9" r="4.7"/>
		<circle class="st2" cx="188.1" cy="396.9" r="4.7"/>
		<circle class="st2" cx="205.8" cy="396.9" r="4.7"/>
		<circle class="st2" cx="241.1" cy="396.9" r="4.7"/>
		<circle class="st2" cx="258.8" cy="396.9" r="4.7"/>
		<circle class="st2" cx="276.5" cy="396.9" r="4.7"/>
		<circle class="st2" cx="294.2" cy="396.9" r="4.7"/>
		<circle class="st2" cx="311.9" cy="396.9" r="4.7"/>
		<circle class="st2" cx="347.2" cy="396.9" r="4.7"/>
		<circle class="st2" cx="364.9" cy="396.9" r="4.7"/>
		<circle class="st2" cx="400.2" cy="396.9" r="4.7"/>
		<circle class="st2" cx="417.9" cy="396.9" r="4.7"/>
		<circle class="st2" cx="435.6" cy="396.9" r="4.7"/>
		
			<ellipse transform="matrix(3.327798e-02 -0.9994 0.9994 3.327798e-02 -352.0641 465.1583)" class="st2" cx="64.4" cy="414.6" rx="4.7" ry="4.7"/>
		<circle class="st2" cx="82.1" cy="414.6" r="4.7"/>
		<circle class="st2" cx="99.8" cy="414.6" r="4.7"/>
		<circle class="st2" cx="117.4" cy="414.6" r="4.7"/>
		<circle class="st2" cx="135.1" cy="414.6" r="4.7"/>
		<circle class="st2" cx="170.5" cy="414.6" r="4.7"/>
		<circle class="st2" cx="188.1" cy="414.6" r="4.7"/>
		<circle class="st2" cx="205.8" cy="414.6" r="4.7"/>
		<circle class="st2" cx="241.1" cy="414.6" r="4.7"/>
		<circle class="st2" cx="258.8" cy="414.6" r="4.7"/>
		<circle class="st2" cx="276.5" cy="414.6" r="4.7"/>
		<circle class="st2" cx="294.2" cy="414.6" r="4.7"/>
		<circle class="st2" cx="311.9" cy="414.6" r="4.7"/>
		<circle class="st2" cx="347.2" cy="414.6" r="4.7"/>
		<circle class="st2" cx="364.9" cy="414.6" r="4.7"/>
		<circle class="st2" cx="400.2" cy="414.6" r="4.7"/>
		<circle class="st2" cx="417.9" cy="414.6" r="4.7"/>
		<circle class="st2" cx="435.6" cy="414.6" r="4.7"/>
	</g>
</g>
</svg>
