<svg version="1.1" xmlns="http://www.w3.org/2000/svg" viewBox="0 0 642.0876469977654 463.1127428000842" width="642.0876469977654" height="463.1127428000842">
  <!-- svg-source:excalidraw -->
  
  <defs>
    <style class="style-fonts">
      @font-face {
        font-family: "Virgil";
        src: url("https://excalidraw.com/Virgil.woff2");
      }
      @font-face {
        font-family: "Cascadia";
        src: url("https://excalidraw.com/Cascadia.woff2");
      }
    </style>
    
  </defs>
  <g stroke-linecap="round" transform="translate(58.67723162227435 42.44426260159072) rotate(0 46.129684070365784 38.567440780141894)"><path d="M19.28 0 M19.28 0 C37.68 -1.56, 51.86 0.64, 72.98 0 M19.28 0 C36.88 0.17, 53.17 -1.08, 72.98 0 M72.98 0 C84.48 -0.5, 91.99 5.98, 92.26 19.28 M72.98 0 C85.79 0.89, 93.91 8.13, 92.26 19.28 M92.26 19.28 C91.52 33.54, 90.16 45.6, 92.26 57.85 M92.26 19.28 C91.24 26.94, 92.29 35.25, 92.26 57.85 M92.26 57.85 C93.04 71.39, 86.54 77, 72.98 77.13 M92.26 57.85 C93.65 69.52, 86.4 77.77, 72.98 77.13 M72.98 77.13 C57.85 77.48, 39.31 75.6, 19.28 77.13 M72.98 77.13 C57.08 77.6, 42 78.37, 19.28 77.13 M19.28 77.13 C7.86 78.7, -0.52 69.17, 0 57.85 M19.28 77.13 C5.65 78.31, -2.09 70.83, 0 57.85 M0 57.85 C0.25 45.77, -0.55 38.54, 0 19.28 M0 57.85 C0.15 49.11, 0.29 38.9, 0 19.28 M0 19.28 C1.41 8.1, 4.46 1.27, 19.28 0 M0 19.28 C-0.28 8.69, 6.18 1.13, 19.28 0" stroke="#ffffff" stroke-width="1" fill="none"></path></g><g stroke-linecap="round" transform="translate(206.3100595043494 44.88201931136682) rotate(0 46.129684070365784 38.56744078014191)"><path d="M19.28 0 M19.28 0 C33.73 1.02, 50.56 0.81, 72.98 0 M19.28 0 C37.71 -1.08, 54.74 -0.44, 72.98 0 M72.98 0 C85.56 -0.45, 92.22 7.2, 92.26 19.28 M72.98 0 C87.48 1.71, 93.18 4.66, 92.26 19.28 M92.26 19.28 C90.37 30.33, 90.19 40.95, 92.26 57.85 M92.26 19.28 C91.97 30.07, 92.28 40.23, 92.26 57.85 M92.26 57.85 C92.97 70.57, 87.04 76.11, 72.98 77.13 M92.26 57.85 C92.82 71.34, 85.95 79.24, 72.98 77.13 M72.98 77.13 C52.2 75.22, 33.19 76.26, 19.28 77.13 M72.98 77.13 C54.21 78.08, 34.48 77.98, 19.28 77.13 M19.28 77.13 C5.91 75.59, -0.68 71.73, 0 57.85 M19.28 77.13 C4.34 77.26, -0.6 70.05, 0 57.85 M0 57.85 C-0.68 49.59, -1.32 39.4, 0 19.28 M0 57.85 C0.43 47.4, 0.52 39.36, 0 19.28 M0 19.28 C-1.97 7.7, 6.18 1.96, 19.28 0 M0 19.28 C-0.25 7.56, 4.5 0.68, 19.28 0" stroke="#ffffff" stroke-width="1" fill="none"></path></g><g stroke-linecap="round" transform="translate(353.18666305740203 42.78243004700856) rotate(0 46.129684070365784 38.56744078014191)"><path d="M19.28 0 M19.28 0 C31.3 0.22, 43.55 1.51, 72.98 0 M72.98 0 C86.56 0.73, 90.5 5.08, 92.26 19.28 M92.26 19.28 C92.17 30.67, 93.64 41.99, 92.26 57.85 M92.26 57.85 C93.06 69.17, 85.51 76.69, 72.98 77.13 M72.98 77.13 C51.82 76.91, 33.98 75.22, 19.28 77.13 M19.28 77.13 C6.26 77.3, 0.97 71.49, 0 57.85 M0 57.85 C1.08 43.94, 0.35 32.64, 0 19.28 M0 19.28 C0.1 8.25, 7.82 1.25, 19.28 0" stroke="#ffffff" stroke-width="1.5" fill="none" stroke-dasharray="8 9"></path></g><g stroke-linecap="round"><g transform="translate(194.04138651728215 85.54904935586698) rotate(0 -16.23744010615053 0.2320809957963732)"><path d="M0.22 0.44 C-5.21 0.61, -26.77 1.31, -32.28 1.19 M-1.12 -0.38 C-6.66 -0.58, -27.32 -0.84, -32.7 -0.7" stroke="#ffffff" stroke-width="1" fill="none"></path></g><g transform="translate(194.04138651728215 85.54904935586698) rotate(0 -16.23744010615053 0.2320809957963732)"><path d="M-16.48 -5.07 C-21.61 -3.92, -28.83 -3.76, -33.11 -0.92 M-16.49 -5.84 C-21.09 -5.43, -25.89 -3.38, -32.22 -1.45" stroke="#ffffff" stroke-width="1" fill="none"></path></g><g transform="translate(194.04138651728215 85.54904935586698) rotate(0 -16.23744010615053 0.2320809957963732)"><path d="M-16.43 6.31 C-21.6 3.71, -28.83 0.13, -33.11 -0.92 M-16.44 5.55 C-21.05 2.79, -25.87 1.68, -32.22 -1.45" stroke="#ffffff" stroke-width="1" fill="none"></path></g></g><mask></mask><g stroke-linecap="round"><g transform="translate(49.6025396740057 84.03660069782218) rotate(0 -19.302058762032175 -0.31057540588080457)"><path d="M1 0.44 C-5.52 0.19, -32.03 -0.93, -38.88 -1.06 M0.06 -0.38 C-6.59 -0.56, -33.31 -0.28, -39.6 -0.07" stroke="#ffffff" stroke-width="1" fill="none"></path></g><g transform="translate(49.6025396740057 84.03660069782218) rotate(0 -19.302058762032175 -0.31057540588080457)"><path d="M-20.54 -6.43 C-28.81 -6.07, -33.41 -2.75, -40.04 -0.11 M-20.86 -7.9 C-27.58 -4.83, -33.08 -3.1, -39.56 -1.05" stroke="#ffffff" stroke-width="1" fill="none"></path></g><g transform="translate(49.6025396740057 84.03660069782218) rotate(0 -19.302058762032175 -0.31057540588080457)"><path d="M-20.29 7.02 C-28.69 3.1, -33.37 2.13, -40.04 -0.11 M-20.61 5.54 C-27.51 4.06, -33.09 1.23, -39.56 -1.05" stroke="#ffffff" stroke-width="1" fill="none"></path></g></g><mask></mask><g stroke-linecap="round"><g transform="translate(339.23645768958113 84.03660069782218) rotate(0 -16.444240346504444 -0.2990497954200606)"><path d="M0.44 -1.06 C-5.28 -1.05, -27.81 0.2, -33.33 0.46" stroke="#ffffff" stroke-width="1.5" fill="none" stroke-dasharray="8 9"></path></g><g transform="translate(339.23645768958113 84.03660069782218) rotate(0 -16.444240346504444 -0.2990497954200606)"><path d="M-19.78 -6.97 C-24.47 -3.61, -30.17 -1, -32.7 1.63" stroke="#ffffff" stroke-width="1.5" fill="none"></path></g><g transform="translate(339.23645768958113 84.03660069782218) rotate(0 -16.444240346504444 -0.2990497954200606)"><path d="M-19.21 4.14 C-24.16 3.25, -30.08 1.6, -32.7 1.63" stroke="#ffffff" stroke-width="1.5" fill="none"></path></g></g><mask></mask><g stroke-linecap="round"><g transform="translate(214.6110945306217 248.05048559169614) rotate(0 14.950259813073217 -56.74318397433211)"><path d="M-0.81 -0.3 C4.24 -18.99, 25.43 -94.5, 30.71 -113.19" stroke="transparent" stroke-width="1.5" fill="none" stroke-dasharray="8 9"></path></g><g transform="translate(214.6110945306217 248.05048559169614) rotate(0 14.950259813073217 -56.74318397433211)"><path d="M32.46 -83.54 C32.02 -93.39, 32.48 -101.99, 32.19 -112.39" stroke="transparent" stroke-width="1.5" fill="none"></path></g><g transform="translate(214.6110945306217 248.05048559169614) rotate(0 14.950259813073217 -56.74318397433211)"><path d="M12.71 -89.1 C18.86 -96.95, 25.98 -103.67, 32.19 -112.39" stroke="transparent" stroke-width="1.5" fill="none"></path></g></g><mask></mask><g stroke-linecap="round" transform="translate(138.8474508545031 175.22388992946316) rotate(0 36 17.5)"><path d="M8.75 0 M8.75 0 C20.98 0.04, 34.87 1.51, 63.25 0 M8.75 0 C28.98 0.2, 50.1 -0.48, 63.25 0 M63.25 0 C69.17 -1.99, 71.75 2.26, 72 8.75 M63.25 0 C66.85 -0.2, 72.19 4.03, 72 8.75 M72 8.75 C71.94 15.74, 71.16 21.05, 72 26.25 M72 8.75 C72.62 15.03, 72 19.81, 72 26.25 M72 26.25 C70.09 32.01, 68.22 36.3, 63.25 35 M72 26.25 C72.03 32.35, 71.02 37.03, 63.25 35 M63.25 35 C41.45 34.18, 23.76 33.04, 8.75 35 M63.25 35 C46.22 34.91, 29.21 34.52, 8.75 35 M8.75 35 C4.73 33.71, 1.69 31.1, 0 26.25 M8.75 35 C4.01 35.8, 1.42 30.27, 0 26.25 M0 26.25 C0.97 19.55, 1.57 13.09, 0 8.75 M0 26.25 C-0.3 19.57, -0.19 14.61, 0 8.75 M0 8.75 C-1.14 4.16, 1.29 -1.43, 8.75 0 M0 8.75 C-0.6 2.02, 2.29 -0.5, 8.75 0" stroke="transparent" stroke-width="1" fill="none"></path></g><g transform="translate(159.93911707612176 183.52388992946317) rotate(0 14.908333778381348 9.200000000000003)"><text x="14.908333778381348" y="0" font-family="Helvetica, Segoe UI Emoji" font-size="16px" fill="transparent" text-anchor="middle" style="white-space: pre;" direction="ltr" dominant-baseline="text-before-edge">PoV</text></g><g stroke-linecap="round" transform="translate(543.0876469977654 387.1127428000842) rotate(0 44.5 33)"><path d="M16.5 0 M16.5 0 C33.33 1.45, 50.09 0.81, 72.5 0 M16.5 0 C29.57 -0.78, 41.54 -0.87, 72.5 0 M72.5 0 C83.25 -0.66, 87.06 5.33, 89 16.5 M72.5 0 C83.69 1.11, 89.9 6.28, 89 16.5 M89 16.5 C87.95 28.06, 89.53 38.74, 89 49.5 M89 16.5 C89.22 28.96, 88.28 42.29, 89 49.5 M89 49.5 C88.14 61.8, 83.53 66.23, 72.5 66 M89 49.5 C90.94 62.53, 85.15 67.8, 72.5 66 M72.5 66 C58.17 63.99, 41.91 65.29, 16.5 66 M72.5 66 C56.53 65.71, 42.98 65.39, 16.5 66 M16.5 66 C7.19 65.01, 0.95 61.19, 0 49.5 M16.5 66 C6.92 64.19, 1.62 62.42, 0 49.5 M0 49.5 C1.75 42.63, 0.77 34.51, 0 16.5 M0 49.5 C-0.22 39.27, -0.4 28.36, 0 16.5 M0 16.5 C-1.62 4.07, 4.98 -0.78, 16.5 0 M0 16.5 C-0.63 5, 5.11 1.06, 16.5 0" stroke="#ffffff" stroke-width="1" fill="none"></path></g><g transform="translate(552.8793149359979 401.71274280008424) rotate(0 34.70833206176758 18.400000000000006)"><text x="34.70833206176758" y="0" font-family="Helvetica, Segoe UI Emoji" font-size="16px" fill="#ffffff" text-anchor="middle" style="white-space: pre;" direction="ltr" dominant-baseline="text-before-edge">new </text><text x="34.70833206176758" y="18.4" font-family="Helvetica, Segoe UI Emoji" font-size="16px" fill="#ffffff" text-anchor="middle" style="white-space: pre;" direction="ltr" dominant-baseline="text-before-edge">parablock</text></g><g stroke-linecap="round" transform="translate(141.72090980979817 256.63856032948837) rotate(0 57 44.5)"><path d="M68.09 1.46 C77.08 2.26, 86.84 6.4, 93.83 11.19 C100.82 15.98, 106.93 23.35, 110.05 30.22 C113.16 37.08, 114.27 45.06, 112.54 52.36 C110.8 59.67, 105.79 68.25, 99.64 74.04 C93.48 79.82, 84.55 84.67, 75.62 87.08 C66.68 89.48, 55.43 89.9, 46.02 88.47 C36.62 87.03, 26.46 83.39, 19.2 78.46 C11.94 73.53, 5.41 66.03, 2.45 58.9 C-0.52 51.78, -0.71 42.91, 1.41 35.72 C3.53 28.52, 8.84 21.31, 15.19 15.74 C21.54 10.17, 28.8 4.46, 39.49 2.3 C50.19 0.14, 71.01 1.71, 79.36 2.77 C87.71 3.83, 89.8 7.84, 89.6 8.68 M61.37 1.25 C70.16 0.6, 80.25 2.15, 87.92 6.16 C95.59 10.16, 103.32 18.45, 107.42 25.28 C111.52 32.12, 113.07 39.95, 112.54 47.16 C112.01 54.36, 109.33 62.32, 104.24 68.52 C99.15 74.72, 90.62 81.05, 82.01 84.37 C73.4 87.68, 61.72 89.04, 52.56 88.43 C43.4 87.82, 34.59 84.83, 27.05 80.72 C19.51 76.6, 11.71 70.12, 7.34 63.74 C2.96 57.36, 0.32 49.92, 0.81 42.44 C1.3 34.96, 5.02 24.95, 10.29 18.87 C15.57 12.8, 24.38 8.97, 32.46 5.99 C40.55 3.02, 54.23 1.62, 58.82 1.03 C63.42 0.44, 59.89 1.73, 60.05 2.44" stroke="transparent" stroke-width="1" fill="none"></path></g><g transform="translate(167.79915648834174 282.772308566687) rotate(0 31.116666793823242 18.400000000000006)"><text x="31.116666793823242" y="0" font-family="Helvetica, Segoe UI Emoji" font-size="16px" fill="transparent" text-anchor="middle" style="white-space: pre;" direction="ltr" dominant-baseline="text-before-edge">Malicius </text><text x="31.116666793823242" y="18.4" font-family="Helvetica, Segoe UI Emoji" font-size="16px" fill="transparent" text-anchor="middle" style="white-space: pre;" direction="ltr" dominant-baseline="text-before-edge">Collator</text></g><g stroke-linecap="round" transform="translate(366.27251180515907 250.83453607536586) rotate(0 57.00000000000006 44.5)"><path d="M51.58 0.19 C60.38 -1.13, 71.83 1.17, 80.5 4.19 C89.17 7.21, 98.08 12.15, 103.62 18.29 C109.16 24.44, 112.84 33.43, 113.73 41.05 C114.62 48.67, 112.96 57.27, 108.95 64.01 C104.94 70.75, 97.58 77.26, 89.67 81.5 C81.75 85.75, 71.07 88.9, 61.46 89.47 C51.84 90.04, 40.51 88.21, 31.99 84.93 C23.47 81.65, 15.48 75.82, 10.33 69.79 C5.18 63.76, 1.79 56.13, 1.09 48.73 C0.4 41.33, 2.3 32.34, 6.16 25.36 C10.01 18.39, 16.05 11.19, 24.21 6.9 C32.38 2.6, 49.44 0.59, 55.17 -0.41 C60.9 -1.41, 58.52 -0.04, 58.58 0.91 M80.93 3.1 C89.18 5.46, 98.08 13.6, 103.33 19.9 C108.58 26.2, 111.64 33.71, 112.44 40.9 C113.25 48.09, 112.08 56.35, 108.16 63.06 C104.24 69.77, 96.83 76.95, 88.9 81.17 C80.97 85.39, 69.72 87.92, 60.58 88.35 C51.43 88.79, 42.23 86.98, 34.04 83.78 C25.85 80.57, 16.95 74.97, 11.43 69.12 C5.91 63.27, 1.75 56.16, 0.91 48.7 C0.07 41.23, 2.26 30.91, 6.37 24.33 C10.48 17.74, 18.17 13.06, 25.57 9.19 C32.98 5.32, 41.55 1.68, 50.81 1.11 C60.07 0.53, 76.16 4.95, 81.14 5.73 C86.11 6.51, 81.26 5.29, 80.67 5.79" stroke="#ffffff" stroke-width="1" fill="none"></path></g><g transform="translate(396.1090916898794 286.1682843125645) rotate(0 27.35833358764654 9.199999999999989)"><text x="27.358333587646484" y="0" font-family="Helvetica, Segoe UI Emoji" font-size="16px" fill="#ffffff" text-anchor="middle" style="white-space: pre;" direction="ltr" dominant-baseline="text-before-edge">Collator</text></g><g stroke-linecap="round" transform="translate(510.3672630522592 273.7651013741934) rotate(0 57 44.5)"><path d="M72.04 1.67 C81.02 2.87, 91.19 7.41, 97.9 12.81 C104.61 18.2, 109.92 26.63, 112.3 34.07 C114.68 41.5, 114.78 50.24, 112.18 57.41 C109.58 64.57, 103.66 71.89, 96.7 77.04 C89.73 82.2, 79.77 86.61, 70.4 88.35 C61.03 90.08, 49.52 89.63, 40.46 87.45 C31.4 85.27, 22.37 80.57, 16.04 75.28 C9.72 69.99, 4.71 62.93, 2.53 55.71 C0.34 48.5, 0.48 39.36, 2.93 31.97 C5.37 24.58, 10.42 16.55, 17.19 11.36 C23.95 6.17, 33.34 2.22, 43.49 0.83 C53.65 -0.57, 71.81 2.11, 78.13 2.98 C84.44 3.86, 81.7 5.26, 81.4 6.07 M78.18 4.11 C86.68 6.41, 94.96 11.73, 100.78 17.41 C106.6 23.08, 111.71 30.81, 113.1 38.16 C114.49 45.52, 112.87 54.69, 109.13 61.54 C105.39 68.38, 97.87 74.9, 90.67 79.25 C83.47 83.6, 74.95 86.69, 65.93 87.64 C56.92 88.58, 45.47 87.49, 36.58 84.91 C27.68 82.34, 18.43 78.14, 12.57 72.19 C6.72 66.24, 2.63 56.46, 1.43 49.23 C0.23 42, 2.13 35.32, 5.35 28.82 C8.56 22.32, 13.4 14.71, 20.72 10.21 C28.04 5.72, 39.61 2.89, 49.24 1.87 C58.88 0.85, 73.9 3.62, 78.53 4.08 C83.15 4.54, 77.46 4.22, 77 4.62" stroke="#ffffff" stroke-width="1" fill="none"></path></g><g transform="translate(540.2038429369795 309.09884961139204) rotate(0 27.358333587646484 9.199999999999989)"><text x="27.358333587646484" y="0" font-family="Helvetica, Segoe UI Emoji" font-size="16px" fill="#ffffff" text-anchor="middle" style="white-space: pre;" direction="ltr" dominant-baseline="text-before-edge">Collator</text></g><g stroke-linecap="round" transform="translate(475.3497394193041 164.03764490356798) rotate(0 57 44.5)"><path d="M57.95 -0.96 C67.15 -1.41, 78.26 2.47, 86.52 6.55 C94.77 10.63, 102.84 16.96, 107.48 23.51 C112.11 30.06, 114.63 38.4, 114.33 45.86 C114.02 53.31, 110.72 61.9, 105.64 68.22 C100.57 74.54, 92.14 80.3, 83.87 83.77 C75.59 87.24, 65.25 89.13, 55.99 89.04 C46.73 88.95, 36.37 87.09, 28.31 83.23 C20.25 79.36, 12.43 72.64, 7.63 65.86 C2.84 59.08, -0.55 50.03, -0.44 42.55 C-0.34 35.06, 3.13 27.13, 8.25 20.96 C13.37 14.78, 21.57 8.83, 30.27 5.49 C38.97 2.15, 54.98 1.53, 60.46 0.92 C65.95 0.3, 63.13 1.25, 63.18 1.8 M34.21 3.34 C42.29 -0.1, 54.93 -1.03, 64.47 0 C74 1.03, 84.08 4.95, 91.45 9.5 C98.82 14.05, 104.79 20.59, 108.68 27.28 C112.58 33.98, 115.72 42.36, 114.82 49.67 C113.91 56.97, 109.18 65.01, 103.23 71.11 C97.28 77.21, 88 83.54, 79.14 86.26 C70.28 88.97, 59.42 88.29, 50.07 87.39 C40.72 86.49, 30.92 85.06, 23.03 80.86 C15.13 76.66, 6.48 69.02, 2.7 62.18 C-1.07 55.34, -1.17 47.22, 0.36 39.84 C1.89 32.46, 6.22 23.91, 11.88 17.89 C17.54 11.86, 30.42 6.17, 34.32 3.71 C38.21 1.24, 34.77 2.32, 35.24 3.1" stroke="#ffffff" stroke-width="1" fill="none"></path></g><g transform="translate(505.18631930402444 199.3713931407666) rotate(0 27.358333587646484 9.200000000000003)"><text x="27.358333587646484" y="0" font-family="Helvetica, Segoe UI Emoji" font-size="16px" fill="#ffffff" text-anchor="middle" style="white-space: pre;" direction="ltr" dominant-baseline="text-before-edge">Collator</text></g><g stroke-linecap="round"><g transform="translate(455.88575558871935 255.6807406777234) rotate(0 10.250571854017494 -11.532044463658423)"><path d="M0.05 -1.19 C3.59 -4.99, 18.41 -20.13, 21.88 -23.86 M-1.38 0.8 C1.92 -2.74, 16.76 -18.68, 20.85 -22.53" stroke="#ffffff" stroke-width="1" fill="none"></path></g></g><mask></mask><g stroke-linecap="round"><g transform="translate(544.9629832028647 256.6385603294884) rotate(0 2.7368343624796125 8.24709958105862)"><path d="M-0.15 -0.39 C0.68 2.58, 3.98 13.7, 5.06 16.66 M-1.69 -1.65 C-0.51 1.63, 5.95 15.32, 7.16 18.14" stroke="#ffffff" stroke-width="1" fill="none"></path></g></g><mask></mask><g stroke-linecap="round"><g transform="translate(481.26797636049196 306.92409204715113) rotate(0 11.43973490015128 3.280072210663434)"><path d="M-1.16 -0.1 C2.87 1.26, 19.78 6.48, 24.04 7.76 M0.43 -1.2 C4.32 -0.16, 19.23 4.83, 23.15 5.95" stroke="#ffffff" stroke-width="1" fill="none"></path></g></g><mask></mask><g stroke-linecap="round" transform="translate(210.68392473687845 57.52112669371667) rotate(0 41.5 24.499999999999993)"><path d="M12.25 0 M12.25 0 C25.1 0.73, 36.69 0.66, 70.75 0 M12.25 0 C29.65 0.58, 46.61 1.21, 70.75 0 M70.75 0 C80.31 1.25, 82.97 3.17, 83 12.25 M70.75 0 C76.72 -0.09, 82.01 5.58, 83 12.25 M83 12.25 C84.79 21.07, 84.59 26.5, 83 36.75 M83 12.25 C82.01 17.76, 82.66 22.89, 83 36.75 M83 36.75 C82.22 45.06, 77.4 48.34, 70.75 49 M83 36.75 C85.08 43.43, 80.86 47.86, 70.75 49 M70.75 49 C48.84 50.77, 31.77 47.39, 12.25 49 M70.75 49 C49.37 50.06, 27.37 49.87, 12.25 49 M12.25 49 C3.06 47.68, -0.77 46.22, 0 36.75 M12.25 49 C2.77 50.43, -1.87 43.27, 0 36.75 M0 36.75 C-0.34 29.7, 1.02 23.25, 0 12.25 M0 36.75 C0.64 32.15, 0.08 27.1, 0 12.25 M0 12.25 C1.8 5.65, 5.61 -0.93, 12.25 0 M0 12.25 C1.2 6.05, 6.18 -1.2, 12.25 0" stroke="#ffffff" stroke-width="1" fill="none"></path></g><g transform="translate(217.66725832452494 63.621126693716676) rotate(0 34.516666412353516 18.400000000000006)"><text x="34.516666412353516" y="0" font-family="Helvetica, Segoe UI Emoji" font-size="16px" fill="#ffffff" text-anchor="middle" style="white-space: pre;" direction="ltr" dominant-baseline="text-before-edge">candidate</text><text x="34.516666412353516" y="18.4" font-family="Helvetica, Segoe UI Emoji" font-size="16px" fill="#ffffff" text-anchor="middle" style="white-space: pre;" direction="ltr" dominant-baseline="text-before-edge">recepeit</text></g><g stroke-linecap="round" transform="translate(370.10379041221904 383.61650125186617) rotate(0 41.5 34)"><path d="M17 0 M17 0 C32.77 0.52, 47.06 1.02, 66 0 M17 0 C29.23 0.78, 42.06 0.49, 66 0 M66 0 C77.31 -0.92, 81.09 5.59, 83 17 M66 0 C76.34 1.5, 83.03 5.93, 83 17 M83 17 C84.86 29.54, 81.76 42.44, 83 51 M83 17 C82.43 28.65, 82.3 40.94, 83 51 M83 51 C81.48 61.68, 79.15 66.71, 66 68 M83 51 C84.94 61.2, 78.43 68.8, 66 68 M66 68 C49.95 66.38, 31.83 68.1, 17 68 M66 68 C45.65 68.54, 26.46 67.58, 17 68 M17 68 C4.89 69.31, -1.14 63.57, 0 51 M17 68 C3.8 66.35, -0.6 61.44, 0 51 M0 51 C1 41.65, -1.73 31.46, 0 17 M0 51 C-0.22 44.22, 0.73 36.96, 0 17 M0 17 C1.53 4.73, 6.71 1.71, 17 0 M0 17 C2.1 4.47, 4.91 -1.96, 17 0" stroke="#ffffff" stroke-width="1" fill="none"></path></g><g transform="translate(377.0871239998655 399.2165012518662) rotate(0 34.516666412353516 18.400000000000006)"><text x="34.516666412353516" y="0" font-family="Helvetica, Segoe UI Emoji" font-size="16px" fill="#ffffff" text-anchor="middle" style="white-space: pre;" direction="ltr" dominant-baseline="text-before-edge">candidate</text><text x="34.516666412353516" y="18.4" font-family="Helvetica, Segoe UI Emoji" font-size="16px" fill="#ffffff" text-anchor="middle" style="white-space: pre;" direction="ltr" dominant-baseline="text-before-edge">recepeit</text></g><g transform="translate(207.53373929237898 10) rotate(0 43.724998474121094 9.199999999999996)"><text x="43.724998474121094" y="0" font-family="Helvetica, Segoe UI Emoji" font-size="16px" fill="#ffffff" text-anchor="middle" style="white-space: pre;" direction="ltr" dominant-baseline="text-before-edge">Relay-Chain</text></g><g stroke-linecap="round"><g transform="translate(249.95453045924353 100.99286691767533) rotate(0 93.96082987786167 62.73721698306994)"><path d="M0.73 -0.62 C10.44 13.15, 27.46 61.39, 58.72 82.51 C89.98 103.63, 166.55 118.89, 188.27 126.09 M-0.35 1.67 C9.2 15.07, 26.61 60.12, 57.93 80.56 C89.24 101, 165.57 117.15, 187.54 124.32" stroke="#ffffff" stroke-width="1" fill="none"></path></g><g transform="translate(249.95453045924353 100.99286691767533) rotate(0 93.96082987786167 62.73721698306994)"><path d="M156.61 127.22 C168.22 125.84, 179.52 126.33, 188.79 124.3 M157.2 127.38 C165.27 126.24, 173.7 126.4, 188.25 125.11" stroke="#ffffff" stroke-width="1" fill="none"></path></g><g transform="translate(249.95453045924353 100.99286691767533) rotate(0 93.96082987786167 62.73721698306994)"><path d="M162.06 107.44 C171.82 112.73, 181.3 119.85, 188.79 124.3 M162.65 107.6 C169.15 111.49, 176.19 116.67, 188.25 125.11" stroke="#ffffff" stroke-width="1" fill="none"></path></g></g><mask></mask><g stroke-linecap="round"><g transform="translate(468.3374110616644 410.18913242885316) rotate(0 32.03681087330199 0.08360294053807138)"><path d="M0.84 0.75 C11.54 0.47, 53.87 -0.45, 64.25 -0.59 M-0.18 0.1 C10.35 0.49, 52.36 0.48, 63.3 0.66" stroke="#ffffff" stroke-width="1" fill="none"></path></g><g transform="translate(468.3374110616644 410.18913242885316) rotate(0 32.03681087330199 0.08360294053807138)"><path d="M36.28 10.68 C42.64 5.54, 52.11 3.52, 64.6 0.69 M35.74 11.48 C43.49 6.56, 52.22 4.71, 62.39 0.72" stroke="#ffffff" stroke-width="1" fill="none"></path></g><g transform="translate(468.3374110616644 410.18913242885316) rotate(0 32.03681087330199 0.08360294053807138)"><path d="M36.44 -9.84 C42.94 -8.72, 52.36 -4.48, 64.6 0.69 M35.91 -9.04 C43.78 -7.57, 52.45 -3.02, 62.39 0.72" stroke="#ffffff" stroke-width="1" fill="none"></path></g></g><mask></mask><g stroke-linecap="round"><g transform="translate(477.4366977534319 383.7412281187044) rotate(0 27.51821285237247 29.912663230595996)"><path d="M-0.02 -0.55 C8.91 9.14, 45.23 48.82, 54.41 58.86 M-1.48 1.78 C7.72 11.6, 47.27 51.04, 56.52 60.37" stroke="#e03131" stroke-width="1" fill="none"></path></g></g><mask></mask><g stroke-linecap="round"><g transform="translate(517.1862133016796 385.6568674222344) rotate(0 -20.515625828230668 29.28702629640503)"><path d="M-1.14 -0.05 C-7.85 9.99, -33.84 49.84, -40.27 59.69 M0.46 -1.11 C-6.45 8.64, -34.66 47.72, -41.49 57.98" stroke="#e03131" stroke-width="1" fill="none"></path></g></g><mask></mask></svg>