<svg version="1.1" xmlns="http://www.w3.org/2000/svg" viewBox="0 0 822.9305150312512 275.0252720793489" width="822.9305150312512" height="275.0252720793489">
  <!-- svg-source:excalidraw -->
  
  <defs>
    <style class="style-fonts">
      @font-face {
        font-family: "Virgil";
        src: url("https://excalidraw.com/Virgil.woff2");
      }
      @font-face {
        font-family: "Cascadia";
        src: url("https://excalidraw.com/Cascadia.woff2");
      }
    </style>
    
  </defs>
  <g stroke-linecap="round" transform="translate(10 45) rotate(0 199 108)"><path d="M32 0 M32 0 C101.81 -2.41, 176.32 -2.34, 366 0 M32 0 C119.36 0.17, 206.96 -1.63, 366 0 M366 0 C383.99 0.95, 396.43 10, 398 32 M366 0 C389.89 -0.95, 396.28 11.78, 398 32 M398 32 C393.33 85.15, 398.27 134.97, 398 184 M398 32 C397.29 78.44, 396.48 124.78, 398 184 M398 184 C399.13 204.49, 384.9 218.66, 366 216 M398 184 C395.74 207.34, 390.39 214.15, 366 216 M366 216 C273.48 212.04, 178.6 212.15, 32 216 M366 216 C233.38 215.47, 100.57 216.15, 32 216 M32 216 C7.87 219.24, -0.86 203.89, 0 184 M32 216 C9.92 213.41, 0.97 204.21, 0 184 M0 184 C1.34 143.45, -2.38 106.77, 0 32 M0 184 C0.9 129.45, -0.36 77.2, 0 32 M0 32 C2.09 14.32, 14.12 -3.48, 32 0 M0 32 C3.79 8.35, 11.52 -3.18, 32 0" stroke="#ffffff" stroke-width="1" fill="none"></path></g><g stroke-linecap="round" transform="translate(638.41473313188 49.025272079348895) rotate(0 87.25789094968559 108)"><path d="M32 0 M32 0 C67.17 -2.8, 106.86 4.17, 142.52 0 M32 0 C64.52 -1.46, 92.73 -0.85, 142.52 0 M142.52 0 C165.85 0.4, 178.02 13.32, 174.52 32 M142.52 0 C165.49 3.42, 175.99 14.69, 174.52 32 M174.52 32 C174.41 88, 176.43 141.15, 174.52 184 M174.52 32 C176.15 87.32, 176.18 140.97, 174.52 184 M174.52 184 C172.74 206.07, 161.74 218.55, 142.52 216 M174.52 184 C178 204.49, 163.41 216.08, 142.52 216 M142.52 216 C109.35 211.05, 74.16 214.46, 32 216 M142.52 216 C109.12 216.21, 73.9 218.43, 32 216 M32 216 C13.9 212.71, -0.62 206.4, 0 184 M32 216 C13.18 220.04, -3.31 206.8, 0 184 M0 184 C-2.94 151.95, 3.96 112.68, 0 32 M0 184 C1.74 127.8, 0.1 71.46, 0 32 M0 32 C-1.99 13.78, 14.32 -2.21, 32 0 M0 32 C2.67 9.62, 8.3 -3.16, 32 0" stroke="#ffffff" stroke-width="1" fill="none"></path></g><g stroke-linecap="round" transform="translate(212.13693490804303 84.37990311005177) rotate(0 84.51745812888953 69.53968073895973)"><path d="M106.25 17.5 M106.25 17.5 C118.68 27.62, 131.14 37.45, 147.78 52.5 M106.25 17.5 C120.78 26.1, 130.39 39.22, 147.78 52.5 M147.78 52.5 C167.47 69.33, 171.26 69.18, 147.78 87.5 M147.78 52.5 C167.32 71.11, 170.96 68.43, 147.78 87.5 M147.78 87.5 C138.86 94.68, 128.26 100.84, 106.25 121.58 M147.78 87.5 C135.48 97.36, 122.27 108.69, 106.25 121.58 M106.25 121.58 C82.57 141.73, 83.04 140.82, 63.75 121.58 M106.25 121.58 C88.06 137.23, 84.09 134.8, 63.75 121.58 M63.75 121.58 C52.16 109.17, 45.44 105.01, 21.25 87.5 M63.75 121.58 C51.56 109.7, 35.56 101.27, 21.25 87.5 M21.25 87.5 C-0.86 68.55, -0.65 67.74, 21.25 52.5 M21.25 87.5 C0.97 68.88, -2.29 72.96, 21.25 52.5 M21.25 52.5 C37.15 37.94, 56.5 25.65, 63.75 17.5 M21.25 52.5 C35.92 40.39, 52.11 29.94, 63.75 17.5 M63.75 17.5 C88.45 -3.48, 88.29 -2.01, 106.25 17.5 M63.75 17.5 C85.85 -3.18, 82.8 1.94, 106.25 17.5" stroke="#ffffff" stroke-width="1" fill="none"></path></g><g transform="translate(265.73960854685913 165.16695369627962) rotate(0 30.641666412353516 16.07802430858993)"><text x="30.641666412353516" y="0" font-family="Helvetica, Segoe UI Emoji" font-size="13.98089070312169px" fill="#ffffff" text-anchor="middle" style="white-space: pre;" direction="ltr" dominant-baseline="text-before-edge">parachain</text><text x="30.641666412353516" y="16.078024308589942" font-family="Helvetica, Segoe UI Emoji" font-size="13.98089070312169px" fill="#ffffff" text-anchor="middle" style="white-space: pre;" direction="ltr" dominant-baseline="text-before-edge">runtime</text></g><g transform="translate(249.25276342373002 134.12752086946153) rotate(0 46.843540703021915 8.558729937102754)"><text x="0" y="0" font-family="Helvetica, Segoe UI Emoji" font-size="14.884747716700431px" fill="#ffffff" text-anchor="start" style="white-space: pre;" direction="ltr" dominant-baseline="text-before-edge">validate_block</text></g><g transform="translate(28 10) rotate(0 82.34529113769531 14.5)"><text x="0" y="0" font-family="Helvetica, Segoe UI Emoji" font-size="25.21739130434783px" fill="#ffffff" text-anchor="start" style="white-space: pre;" direction="ltr" dominant-baseline="text-before-edge">Validator Node</text></g><g transform="translate(646.5855661320836 17.646544131905387) rotate(0 76.79166412353516 14.5)"><text x="0" y="0" font-family="Helvetica, Segoe UI Emoji" font-size="25.21739130434783px" fill="#ffffff" text-anchor="start" style="white-space: pre;" direction="ltr" dominant-baseline="text-before-edge">Collator Node</text></g><g stroke-linecap="round" transform="translate(20.298644028156104 170.26265188529908) rotate(0 74.5 38)"><path d="M19 0 M19 0 C45.26 -2.07, 68.13 2.43, 130 0 M19 0 C46.6 3.9, 78.61 0.92, 130 0 M130 0 C143.16 -2.38, 151.74 7.84, 149 19 M130 0 C145.71 3.74, 148.63 7.72, 149 19 M149 19 C146.87 29.87, 147.61 42.74, 149 57 M149 19 C150.08 32.42, 150.25 42.14, 149 57 M149 57 C149.65 71.86, 140.09 77.83, 130 76 M149 57 C151.92 70.15, 147.11 74.91, 130 76 M130 76 C90.47 74.37, 53.83 73.85, 19 76 M130 76 C99.07 75.1, 65.53 75.16, 19 76 M19 76 C7.57 78.8, 1.94 71.88, 0 57 M19 76 C1.9 73.21, 1.53 73.66, 0 57 M0 57 C-1.43 43.09, 0.62 30.98, 0 19 M0 57 C-0.27 43.79, -0.3 31.85, 0 19 M0 19 C3.34 6.99, 3.54 -1.83, 19 0 M0 19 C-2.39 4.95, 3.89 1.58, 19 0" stroke="#ffffff" stroke-width="1" fill="none"></path></g><g transform="translate(38.49864479109556 189.0626518852991) rotate(0 56.29999923706055 19.19999999999999)"><text x="56.29999923706055" y="0" font-family="Cascadia, Segoe UI Emoji" font-size="16px" fill="#ffffff" text-anchor="middle" style="white-space: pre;" direction="ltr" dominant-baseline="text-before-edge">Relay Chain </text><text x="56.29999923706055" y="19.2" font-family="Cascadia, Segoe UI Emoji" font-size="16px" fill="#ffffff" text-anchor="middle" style="white-space: pre;" direction="ltr" dominant-baseline="text-before-edge">Runtime</text></g><g stroke-linecap="round" transform="translate(648.7133771600361 174.28792396464792) rotate(0 74.5 38)"><path d="M19 0 M19 0 C60.13 0.31, 106.64 -2.63, 130 0 M19 0 C46.39 0.64, 74.72 -0.4, 130 0 M130 0 C145.64 1.28, 152.5 8.34, 149 19 M130 0 C142.08 -1.24, 149.32 9.52, 149 19 M149 19 C150.75 33.86, 150.88 49.72, 149 57 M149 19 C150.08 30.71, 150.98 46.05, 149 57 M149 57 C148.26 69.28, 142.73 76.05, 130 76 M149 57 C146.97 67.53, 142.83 71.49, 130 76 M130 76 C97.94 77.47, 73.3 74.93, 19 76 M130 76 C104.17 77.48, 82.16 78.89, 19 76 M19 76 C9.85 73.13, 1.27 66.72, 0 57 M19 76 C4.77 72.83, -4.57 72.38, 0 57 M0 57 C-0.39 41.55, 2.64 29.73, 0 19 M0 57 C1.2 48.48, -1.47 37.48, 0 19 M0 19 C-0.91 4.28, 3.58 -1.14, 19 0 M0 19 C-3.89 2.65, 2.46 2.19, 19 0" stroke="#ffffff" stroke-width="1" fill="none"></path></g><g transform="translate(676.2967092218037 193.08792396464787) rotate(0 46.91666793823242 19.19999999999999)"><text x="46.91666793823242" y="0" font-family="Cascadia, Segoe UI Emoji" font-size="16px" fill="#ffffff" text-anchor="middle" style="white-space: pre;" direction="ltr" dominant-baseline="text-before-edge">Parachain </text><text x="46.91666793823242" y="19.2" font-family="Cascadia, Segoe UI Emoji" font-size="16px" fill="#ffffff" text-anchor="middle" style="white-space: pre;" direction="ltr" dominant-baseline="text-before-edge">Runtime</text></g><g transform="translate(193.02078825930732 72.44801069402578) rotate(0 21.91666603088379 11.500000000000014)"><text x="0" y="0" font-family="Helvetica, Segoe UI Emoji" font-size="20px" fill="#ffffff" text-anchor="start" style="white-space: pre;" direction="ltr" dominant-baseline="text-before-edge">PVF:</text></g><g stroke-linecap="round" transform="translate(23.31440767329707 58.53634123828789) rotate(0 72.5 37)"><path d="M18.5 0 M18.5 0 C53.12 2.45, 89.29 -0.84, 126.5 0 M18.5 0 C42.98 0.96, 65.4 1.24, 126.5 0 M126.5 0 C139.84 -1.79, 145.48 7.69, 145 18.5 M126.5 0 C139.07 0.9, 146.15 7.84, 145 18.5 M145 18.5 C143.73 31.53, 146.04 43.57, 145 55.5 M145 18.5 C145.01 28.44, 143.97 37.61, 145 55.5 M145 55.5 C144.59 65.98, 139.06 72.08, 126.5 74 M145 55.5 C145.14 67.12, 140.09 74.88, 126.5 74 M126.5 74 C84.98 73.36, 43.75 73.38, 18.5 74 M126.5 74 C83.56 73.53, 41 73.51, 18.5 74 M18.5 74 C4.73 74.2, -1.28 66.71, 0 55.5 M18.5 74 C7.09 75.63, -2.12 69.32, 0 55.5 M0 55.5 C2.06 43.05, 1.11 33.92, 0 18.5 M0 55.5 C-0.53 41.92, -0.14 29.74, 0 18.5 M0 18.5 C-1.73 4.68, 4.36 0.4, 18.5 0 M0 18.5 C2.17 4.16, 6.98 2.02, 18.5 0" stroke="#ffffff" stroke-width="1" fill="none"></path></g><g transform="translate(67.6644080547668 85.9363412382879) rotate(0 28.149999618530273 9.600000000000009)"><text x="28.149999618530273" y="0" font-family="Cascadia, Segoe UI Emoji" font-size="16px" fill="#ffffff" text-anchor="middle" style="white-space: pre;" direction="ltr" dominant-baseline="text-before-edge">Client</text></g><g stroke-linecap="round" transform="translate(651.7291408051769 62.561613317636784) rotate(0 72.5 37)"><path d="M18.5 0 M18.5 0 C46.42 -1.97, 76.48 0.13, 126.5 0 M18.5 0 C52.34 0.03, 85.79 0.16, 126.5 0 M126.5 0 C139.84 -0.26, 144.46 6.31, 145 18.5 M126.5 0 C140.43 1.32, 146.55 7.37, 145 18.5 M145 18.5 C146.89 31.47, 146.98 42.11, 145 55.5 M145 18.5 C145.56 30.09, 144.71 42.07, 145 55.5 M145 55.5 C145.03 66.95, 137.9 74.07, 126.5 74 M145 55.5 C142.75 66.83, 138.54 74.07, 126.5 74 M126.5 74 C103.32 72.41, 82.93 75.67, 18.5 74 M126.5 74 C103.54 75.17, 78.76 74.61, 18.5 74 M18.5 74 C4.69 73.32, -1.38 65.85, 0 55.5 M18.5 74 C7.52 75.68, -1.44 69.52, 0 55.5 M0 55.5 C0.67 44.65, 1.07 33.91, 0 18.5 M0 55.5 C0.24 41.29, -0.85 26.85, 0 18.5 M0 18.5 C-0.57 4.48, 4.57 -1.68, 18.5 0 M0 18.5 C1.1 4.34, 4.86 1.03, 18.5 0" stroke="#ffffff" stroke-width="1" fill="none"></path></g><g transform="translate(696.0791411866469 89.96161331763679) rotate(0 28.149999618530273 9.600000000000009)"><text x="28.149999618530273" y="0" font-family="Cascadia, Segoe UI Emoji" font-size="16px" fill="#ffffff" text-anchor="middle" style="white-space: pre;" direction="ltr" dominant-baseline="text-before-edge">Client</text></g><g stroke-linecap="round" transform="translate(177.49343065722303 60.79644681404912) rotate(0 105.41401375075532 88.70914384862776)"><path d="M32 0 M32 0 C82.67 -0.91, 133.43 -0.75, 178.83 0 M32 0 C90.38 -0.62, 148.08 -0.47, 178.83 0 M178.83 0 C199.15 -0.42, 209.63 9.92, 210.83 32 M178.83 0 C199.93 -0.02, 211.2 11.18, 210.83 32 M210.83 32 C210.82 55.27, 210.11 82.33, 210.83 145.42 M210.83 32 C210 71.38, 210.12 110.41, 210.83 145.42 M210.83 145.42 C211.07 165.21, 201.09 178.15, 178.83 177.42 M210.83 145.42 C211.19 168.15, 201.61 177.8, 178.83 177.42 M178.83 177.42 C122.56 177.13, 64.18 179.51, 32 177.42 M178.83 177.42 C130.2 178.97, 81.4 177.61, 32 177.42 M32 177.42 C9.15 178.51, -1.44 167.41, 0 145.42 M32 177.42 C11.85 175.32, -0.28 168.26, 0 145.42 M0 145.42 C0.45 117.64, -0.14 87.35, 0 32 M0 145.42 C-1.3 102.87, -0.08 59.17, 0 32 M0 32 C1.43 9.15, 11.49 0.9, 32 0 M0 32 C-0.05 10.77, 8.63 0.53, 32 0" stroke="#ffffff" stroke-width="1" fill="none"></path></g><g stroke-linecap="round" transform="translate(428.93959403274437 57.09716275926357) rotate(0 83.50000000000006 33.000000000000014)"><path d="M60.75 1.96 C72.51 0, 89.13 -1.2, 101.65 -0.22 C114.17 0.75, 126.1 4.42, 135.85 7.81 C145.6 11.2, 154.96 15.55, 160.16 20.11 C165.35 24.66, 167.96 29.87, 167.03 35.14 C166.1 40.41, 161.49 47.41, 154.59 51.75 C147.69 56.1, 137.1 58.96, 125.64 61.2 C114.18 63.45, 98.96 65.12, 85.81 65.22 C72.65 65.32, 58.22 63.89, 46.71 61.81 C35.19 59.72, 24.22 56.6, 16.71 52.72 C9.19 48.84, 3.76 43.76, 1.62 38.55 C-0.53 33.34, -0.28 26.28, 3.82 21.45 C7.93 16.62, 15.93 12.97, 26.23 9.59 C36.54 6.21, 58.41 2.51, 65.66 1.18 C72.9 -0.16, 69.35 1.06, 69.73 1.57 M99.96 -0.17 C112.43 0.42, 127.74 4.42, 137.64 7.6 C147.53 10.79, 154.74 14.26, 159.35 18.93 C163.95 23.59, 165.97 30.37, 165.29 35.59 C164.6 40.81, 162 46.12, 155.24 50.24 C148.49 54.36, 136.08 57.53, 124.76 60.32 C113.45 63.12, 100.18 66.75, 87.38 67.01 C74.58 67.26, 59.59 64.32, 47.94 61.86 C36.29 59.4, 25.29 56.17, 17.47 52.22 C9.65 48.26, 3.28 43.17, 1.01 38.12 C-1.26 33.07, -0.42 26.83, 3.85 21.91 C8.12 16.99, 17.04 12.23, 26.63 8.62 C36.21 5, 49.05 1.3, 61.35 0.22 C73.65 -0.87, 93.81 1.71, 100.42 2.09 C107.04 2.48, 101.07 2.28, 101.04 2.51" stroke="transparent" stroke-width="1" fill="none"></path></g><g transform="translate(459.6711793295465 78.26263898010751) rotate(0 52.724998474121094 12)"><text x="52.724998474121094" y="0" font-family="Cascadia, Segoe UI Emoji" font-size="20px" fill="transparent" text-anchor="middle" style="white-space: pre;" direction="ltr" dominant-baseline="text-before-edge">Collation</text></g><g stroke-linecap="round"><g transform="translate(774.1243904908165 190.06139280141372) rotate(0 6.933061805881948 -36.05634467567421)"><path d="M0.03 -0.92 C3.27 -6.33, 19.74 -21.13, 18.89 -32.89 C18.04 -44.64, -1.28 -64.91, -5.05 -71.44 M-1.41 1.21 C1.67 -4.51, 17.88 -22.26, 17.67 -34.68 C17.46 -47.1, 0.85 -67.3, -2.65 -73.33" stroke="#f08c00" stroke-width="1" fill="none"></path></g><g transform="translate(774.1243904908165 190.06139280141372) rotate(0 6.933061805881948 -36.05634467567421)"><path d="M14.23 -60.93 C12.17 -65, 7.91 -66.25, -2.28 -74.16 M15.15 -60.4 C12.27 -63.05, 7.31 -66.05, -3.46 -73.68" stroke="#f08c00" stroke-width="1" fill="none"></path></g><g transform="translate(774.1243904908165 190.06139280141372) rotate(0 6.933061805881948 -36.05634467567421)"><path d="M1.4 -52.19 C2.64 -58.49, 1.63 -61.96, -2.28 -74.16 M2.32 -51.67 C2.04 -56.16, -0.25 -60.97, -3.46 -73.68" stroke="#f08c00" stroke-width="1" fill="none"></path></g></g><mask></mask><g stroke-linecap="round"><g transform="translate(260.8483940239412 181.24221760438843) rotate(0 -82.18281623119293 -33.98671862938218)"><path d="M0.44 0.86 C-9.48 -3.21, -34.25 -18.82, -59.99 -23.37 C-85.73 -27.93, -136.78 -18.91, -154.01 -26.49 C-171.24 -34.07, -161.99 -62.06, -163.38 -68.83 M-0.79 0.27 C-10.83 -3.13, -35.28 -17.77, -60.95 -22.07 C-86.61 -26.36, -137.74 -17.83, -154.76 -25.5 C-171.79 -33.16, -161.69 -60.67, -163.1 -68.06" stroke="#f08c00" stroke-width="1" fill="none"></path></g><g transform="translate(260.8483940239412 181.24221760438843) rotate(0 -82.18281623119293 -33.98671862938218)"><path d="M-155.74 -47.24 C-159.65 -52.6, -161.5 -58, -164.15 -66.23 M-156.79 -46.91 C-159.2 -55.23, -161.67 -62.88, -163.23 -67.24" stroke="#f08c00" stroke-width="1" fill="none"></path></g><g transform="translate(260.8483940239412 181.24221760438843) rotate(0 -82.18281623119293 -33.98671862938218)"><path d="M-170.53 -48.3 C-170.56 -53.44, -168.53 -58.56, -164.15 -66.23 M-171.58 -47.97 C-168.22 -55.87, -164.91 -63.11, -163.23 -67.24" stroke="#f08c00" stroke-width="1" fill="none"></path></g></g><mask></mask></svg>