<svg version="1.1" viewBox="0.0 0.0 542.1076115485564 368.9711286089239" fill="none" stroke="none" stroke-linecap="square" stroke-miterlimit="10" xmlns:xlink="http://www.w3.org/1999/xlink" xmlns="http://www.w3.org/2000/svg"><clipPath id="p.0"><path d="m0 0l542.1076 0l0 368.97113l-542.1076 0l0 -368.97113z" clip-rule="nonzero"/></clipPath><g clip-path="url(#p.0)"><path fill="#140526" d="m0 0l542.1076 0l0 368.97113l-542.1076 0z" fill-rule="evenodd"/><path fill="#000000" fill-opacity="0.0" d="m86.514435 288.53543l361.95276 -199.68503" fill-rule="evenodd"/><path stroke="#ffffff" stroke-width="1.0" stroke-linejoin="round" stroke-linecap="butt" d="m86.514435 288.53543l361.95276 -199.68503" fill-rule="evenodd"/><path fill="#6aa84f" d="m202.95801 216.52231l0 0c0 -6.201248 5.1328583 -11.228348 11.464569 -11.228348l0 0c3.0405884 0 5.95665 1.1829834 8.106674 3.2887115c2.1500244 2.1057281 3.357895 4.9617004 3.357895 7.939636l0 0c0 6.201248 -5.1328735 11.228348 -11.464569 11.228348l0 0c-6.331711 0 -11.464569 -5.0270996 -11.464569 -11.228348z" fill-rule="evenodd"/><path stroke="#000000" stroke-width="1.0" stroke-linejoin="round" stroke-linecap="butt" d="m202.95801 216.52231l0 0c0 -6.201248 5.1328583 -11.228348 11.464569 -11.228348l0 0c3.0405884 0 5.95665 1.1829834 8.106674 3.2887115c2.1500244 2.1057281 3.357895 4.9617004 3.357895 7.939636l0 0c0 6.201248 -5.1328735 11.228348 -11.464569 11.228348l0 0c-6.331711 0 -11.464569 -5.0270996 -11.464569 -11.228348z" fill-rule="evenodd"/><path fill="#6aa84f" d="m341.48032 139.93176l0 0c0 -6.201248 5.1328735 -11.228348 11.464569 -11.228348l0 0c3.0405884 0 5.9566345 1.1829834 8.106659 3.2886963c2.1500244 2.1057281 3.3579102 4.9617004 3.3579102 7.9396515l0 0c0 6.201233 -5.1328735 11.228348 -11.464569 11.228348l0 0c-6.3316956 0 -11.464569 -5.027115 -11.464569 -11.228348z" fill-rule="evenodd"/><path stroke="#000000" stroke-width="1.0" stroke-linejoin="round" stroke-linecap="butt" d="m341.48032 139.93176l0 0c0 -6.201248 5.1328735 -11.228348 11.464569 -11.228348l0 0c3.0405884 0 5.9566345 1.1829834 8.106659 3.2886963c2.1500244 2.1057281 3.3579102 4.9617004 3.3579102 7.9396515l0 0c0 6.201233 -5.1328735 11.228348 -11.464569 11.228348l0 0c-6.3316956 0 -11.464569 -5.027115 -11.464569 -11.228348z" fill-rule="evenodd"/><path fill="#d9d9d9" d="m251.69292 188.69292l0 0c0 -6.201248 5.1328583 -11.228348 11.464554 -11.228348l0 0c3.0405884 0 5.956665 1.1829834 8.106689 3.2887115c2.1500244 2.105713 3.3578796 4.961685 3.3578796 7.939636l0 0c0 6.201248 -5.132843 11.228348 -11.464569 11.228348l0 0c-6.3316956 0 -11.464554 -5.0270996 -11.464554 -11.228348z" fill-rule="evenodd"/><path stroke="#000000" stroke-width="1.0" stroke-linejoin="round" stroke-linecap="butt" d="m251.69292 188.69292l0 0c0 -6.201248 5.1328583 -11.228348 11.464554 -11.228348l0 0c3.0405884 0 5.956665 1.1829834 8.106689 3.2887115c2.1500244 2.105713 3.3578796 4.961685 3.3578796 7.939636l0 0c0 6.201248 -5.132843 11.228348 -11.464569 11.228348l0 0c-6.3316956 0 -11.464554 -5.0270996 -11.464554 -11.228348z" fill-rule="evenodd"/><path fill="#efefef" d="m138.62466 254.13387l0 0c0 -6.201248 5.1328735 -11.228348 11.464569 -11.228348l0 0c3.0406036 0 5.95665 1.1829834 8.106674 3.2886963c2.1500244 2.1057281 3.357895 4.9617004 3.357895 7.9396515l0 0c0 6.201248 -5.1328583 11.228348 -11.464569 11.228348l0 0c-6.3316956 0 -11.464569 -5.0270996 -11.464569 -11.228348z" fill-rule="evenodd"/><path stroke="#000000" stroke-width="1.0" stroke-linejoin="round" stroke-linecap="butt" d="m138.62466 254.13387l0 0c0 -6.201248 5.1328735 -11.228348 11.464569 -11.228348l0 0c3.0406036 0 5.95665 1.1829834 8.106674 3.2886963c2.1500244 2.1057281 3.357895 4.9617004 3.357895 7.9396515l0 0c0 6.201248 -5.1328583 11.228348 -11.464569 11.228348l0 0c-6.3316956 0 -11.464569 -5.0270996 -11.464569 -11.228348z" fill-rule="evenodd"/></g></svg>