<?xml version="1.0" encoding="UTF-8" standalone="no"?>
<svg
   id="Design"
   viewBox="0 0 86 52"
   version="1.1"
   sodipodi:docname="ink-logo-with-squink-white.svg"
   inkscape:version="1.2 (dc2aedaf03, 2022-05-15)"
   inkscape:export-xdpi="192.45"
   inkscape:export-ydpi="192.45"
   width="86"
   height="52"
   xmlns:inkscape="http://www.inkscape.org/namespaces/inkscape"
   xmlns:sodipodi="http://sodipodi.sourceforge.net/DTD/sodipodi-0.dtd"
   xmlns="http://www.w3.org/2000/svg"
   xmlns:svg="http://www.w3.org/2000/svg"
   xmlns:rdf="http://www.w3.org/1999/02/22-rdf-syntax-ns#"
   xmlns:cc="http://creativecommons.org/ns#"
   xmlns:dc="http://purl.org/dc/elements/1.1/"
   xmlns:serif="http://www.serif.com/">
  <sodipodi:namedview
     id="namedview1158"
     pagecolor="#ffffff"
     bordercolor="#666666"
     borderopacity="1.0"
     inkscape:pageshadow="2"
     inkscape:pageopacity="0.0"
     inkscape:pagecheckerboard="0"
     showgrid="false"
     inkscape:zoom="5.25"
     inkscape:cx="-16.666667"
     inkscape:cy="51.619048"
     inkscape:window-width="1918"
     inkscape:window-height="1055"
     inkscape:window-x="0"
     inkscape:window-y="23"
     inkscape:window-maximized="1"
     inkscape:current-layer="g7"
     inkscape:showpageshadow="2"
     inkscape:deskcolor="#d1d1d1" />
  <defs
     id="defs1017">
    <style
       id="style1015">.cls-1{fill:#ec2072;}.cls-2{fill:#00ae87;}.cls-3{fill:#d9eeeb;}.cls-4{opacity:0.3;}.cls-5{fill:#fff;}.cls-6{opacity:0.7;}.cls-7,.cls-8,.cls-9{fill:none;stroke-miterlimit:10;stroke-width:0.5px;}.cls-7{stroke:#e9ebee;}.cls-8{stroke:#c6cbd0;}.cls-9{stroke:#f7fafb;}</style>
  </defs>
  <title
     id="title1019">ink! Logo</title>
  <metadata
     id="metadata1240">
    <rdf:RDF>
      <cc:Work
         rdf:about="">
        <dc:title>StickerHexagon4</dc:title>
      </cc:Work>
    </rdf:RDF>
  </metadata>
  <g
     id="g35489"
     transform="matrix(0.91116784,0,0,0.91116784,-44.013498,-47.201129)">
    <g
       id="g35561"
       transform="translate(-3.0000002)">
      <g
         id="g35634"
         transform="translate(-2.9999997)">
        <g
           id="ink-_just-squid"
           serif:id="ink!_just-squid"
           style="clip-rule:evenodd;fill-rule:evenodd;stroke-linecap:round;stroke-linejoin:round;stroke-miterlimit:1.5"
           transform="matrix(0.03175817,0,0,0.03175817,53.627797,51.802955)">
          <g
             id="head">
            <path
               d="m 61.588,492.612 c 0,0 -7.787,-35.339 -17.042,-77.338 -15.38,-69.798 16.47,-141.479 78.578,-176.847 40.366,-23.045 83.92,-59.209 115.553,-115.363"
               style="fill:#bc83fb;stroke:#000000;stroke-width:38.83px"
               id="path1662" />
            <path
               d="m 544.14,492.612 c 0,0 4.848,-21.725 11.014,-49.353 C 568.14,385.057 540.427,325.387 487.579,297.76 434.584,269.945 377.819,218.037 372.831,123.064 l -0.854,319.551 z"
               style="fill:#bc83fb;stroke:#000000;stroke-width:38.83px"
               id="path1664" />
            <path
               d="m 271.404,61.098 c 10e-4,-0.002 8.026,-36.942 49.417,-37.199 22.92,-0.142 43.073,15.169 49.416,37.194 10e-4,10e-4 18.468,136.346 28.237,208.471 3.615,26.687 15.518,51.566 34.03,71.125 64.995,68.641 209.497,254.328 67.775,427.883 0,0 -11.16,-146.803 -188.333,-146.803 -31.161,0 25.086,0 -6.074,0 -177.173,0 -200.355,146.803 -200.355,146.803 C -72.61,550.435 217.063,185.869 271.404,61.098 Z"
               style="fill:#bc83fb;stroke:#000000;stroke-width:47.8px"
               id="path1666" />
          </g>
          <path
             id="body_bg"
             d="m 485.165,826.25 c 59.883,25.856 80.376,99.619 64.177,160.974 -0.006,0.022 -0.011,0.044 -0.015,0.066 -76.121,391.969 -273.048,737.581 -353.108,764.548 0,0 14.566,-96.568 21.806,-144.572 3.182,-21.093 2.061,-42.611 -3.296,-63.259 C 193.54,1463.214 143.543,1395.114 123.471,1317.31 93.303,1200.369 85.144,1073.41 45.809,930.748 34.156,888.783 53.273,844.362 91.761,823.975 c -0.039,-0.076 -0.039,-0.076 -0.039,-0.076 54.691,-10.513 8.172,-71.692 5.561,-116.782 C 139.685,579.656 173.974,535.918 286.428,534.402 408.362,523.344 476.975,618.07 508.507,704.908 498.127,814.614 479.07,805.1 485.165,826.25 Z"
             style="fill:#bc83fb" />
          <g
             id="flippers">
            <path
               d="m 505.519,1167.22 c -111.845,446.167 -51.515,489.313 -51.515,489.313 l -80.526,-75.666"
               style="fill:#5a007e;stroke:#000000;stroke-width:47.8px"
               id="path1670" />
            <path
               d="m 114.632,1280.12 c 7.085,192.97 44.58,303.81 -22.91,337.857 0,0 71.031,-2.088 107.259,-60.746"
               style="fill:#5a007e;stroke:#000000;stroke-width:47.8px"
               id="path1672" />
          </g>
          <g
             id="light">
            <path
               d="m 455.392,845.552 53.236,32.453 c 15.547,9.478 23.268,27.853 19.155,45.59 -23.426,100.128 -101.538,423.999 -152.836,516.733 l -1.498,5.541 -5.115,19.169 c -4.31,20.485 -9.004,45.187 -8.722,32.685 l 8.722,-32.685 c 2.245,-10.959 4.41,-20.72 5.615,-22.841 l 0.998,-1.869 c 67.527,-250.121 123.383,-436.843 -7.457,-539.047 45.508,-7.88 74.756,-25.832 87.902,-55.729 z"
               style="fill:#d8b6ff"
               id="path1675" />
            <path
               d="m 298.366,80.959 c 0.859,-19.666 -33.441,70.938 -35.595,77.779 -60.307,191.603 -222.861,305.457 -155.678,529.851 0.599,2.001 7.039,-11.202 19.882,-33.997 C 163.433,589.878 262.22,571.714 262.22,571.714 74.263,425.275 291.882,229.442 298.366,80.959 Z"
               style="fill:#5a007e"
               id="path1677" />
            <path
               d="m 334.482,92.912 c 4.751,-19.103 13.025,40.858 11.696,47.906 -34.982,185.571 247.214,345.882 149.704,559.724 -0.425,0.933 -7.418,-32.56 -26.602,-57.787 C 449.372,616.574 417.254,598.604 417.254,598.604 521.771,481.364 272.71,341.285 334.482,92.912 Z"
               style="fill:#d8b6ff"
               id="path1679" />
            <path
               d="m 213.77,895.126 c -125.926,104.11 17.82,544.184 32.353,724.18 0.159,1.97 -0.512,3.869 -0.819,5.72 -3.224,19.418 -3.006,-33.561 -3.849,-40.684 -7.219,-60.975 -39.367,-151.175 -74.873,-226.186 C 129.734,1280.31 123.916,1159.191 115.4,1075.943 101.566,940.698 54.923,906.284 143.276,838.315 c 0.248,-0.191 2.731,0.897 6.684,2.883 9.77,26.173 30.992,43.776 63.81,53.928 z"
               style="fill:#5a007e"
               id="path1681" />
            <path
               d="m 221.199,897.32 3.017,0.727 c -27.171,39.278 -62.221,177.976 1.925,557.989 -15.66,-92.769 -101.049,-443.859 -6.891,-559.278 z"
               style="fill:#d8b6ff"
               id="path1683" />
            <path
               d="m 229.538,899.33 c 19.853,4.357 43.194,6.542 70.031,6.689 -73.29,35.322 -111.4,86.451 -42.925,437.052 19.978,102.293 -11.207,202.261 -10.521,276.235 0.019,1.977 -0.512,3.869 -0.819,5.72 -3.224,19.418 -3.006,-33.561 -3.849,-40.684 C 218.017,1306.204 180.058,1061.47 229.538,899.33 Z"
               style="fill:#5a007e"
               id="path1685" />
          </g>
          <path
             id="body_line"
             d="m 485.165,826.25 c 59.883,25.856 80.376,99.619 64.177,160.974 -0.006,0.022 -0.011,0.044 -0.015,0.066 -76.121,391.969 -273.048,737.581 -353.108,764.548 0,0 14.566,-96.568 21.806,-144.572 3.182,-21.093 2.061,-42.611 -3.296,-63.259 C 193.54,1463.214 143.543,1395.114 123.471,1317.31 94.61,1205.434 85.892,1084.39 50.749,949.198 37.136,896.89 63.417,842.42 112.834,820.523 c -0.039,-0.089 -0.039,-0.089 -0.039,-0.089"
             style="fill:none;stroke:#000000;stroke-width:47.8px" />
          <g
             id="tenticles">
            <path
               d="m 330.94,1487.71 c -7.247,28.951 4.705,57.396 26.674,63.481 21.969,6.085 45.689,-12.478 52.936,-41.429 7.247,-28.951 -4.706,-57.395 -26.675,-63.481 -21.969,-6.085 -45.688,12.479 -52.935,41.429 z"
               style="fill:#d8b6ff;stroke:#000000;stroke-width:47.8px"
               id="path1689" />
            <path
               d="m 375.149,1349.05 c -9.986,36.514 4.39,72.917 32.083,81.243 27.693,8.325 58.284,-14.56 68.27,-51.074 9.986,-36.514 -4.39,-72.918 -32.083,-81.243 -27.693,-8.326 -58.284,14.56 -68.27,51.074 z"
               style="fill:#d8b6ff;stroke:#000000;stroke-width:47.8px"
               id="path1691" />
            <path
               d="m 294.861,1587.31 c -13.531,22.432 -10.45,48.869 6.875,58.999 17.326,10.13 42.378,0.142 55.909,-22.29 13.531,-22.433 10.451,-48.869 -6.875,-58.999 -17.326,-10.13 -42.377,-0.142 -55.909,22.29 z"
               style="fill:#d8b6ff;stroke:#000000;stroke-width:47.8px"
               id="path1693" />
            <path
               d="m 236.999,1669.42 c -17.263,15.764 -21.137,38.383 -8.646,50.48 12.491,12.097 36.648,9.12 53.91,-6.644 17.263,-15.764 21.137,-38.383 8.646,-50.48 -12.491,-12.097 -36.648,-9.12 -53.91,6.644 z"
               style="fill:#d8b6ff;stroke:#000000;stroke-width:47.8px"
               id="path1695" />
          </g>
          <g
             id="face">
            <path
               d="m 289.677,785.548 c 0,0 0,0.002 10e-4,0.004 3.201,8.634 11.431,14.367 20.638,14.376 9.208,0.01 17.45,-5.706 20.668,-14.333 0.063,-0.168 0.095,-0.255 0.095,-0.255"
               style="fill:none;stroke:#000000;stroke-width:17.41px"
               id="path1698" />
            <path
               d="m 369.563,730.226 c 0,0 1.993,-1.381 5.108,-3.539 20.62,-14.29 48.782,-10.196 64.48,9.374 1.325,1.652 2.116,2.638 2.116,2.638"
               style="fill:none;stroke:#000000;stroke-width:29.87px"
               id="path1700" />
            <path
               d="m 253.404,731.668 c 0,0 -6.294,-3.257 -14.187,-7.343 -18.502,-9.576 -41.076,-6.06 -55.789,8.691 -4.511,4.523 -7.824,7.845 -7.824,7.845"
               style="fill:none;stroke:#000000;stroke-width:29.87px"
               id="path1702" />
          </g>
        </g>
        <g
           id="g7"
           transform="matrix(0.03390665,0,0,0.03390665,80.424105,64.280257)"
           style="clip-rule:evenodd;fill-rule:evenodd;stroke-linejoin:round;stroke-miterlimit:1.41421">
          <path
             id="inc"
             d="m 1811.78,748.385 c -50.595,18.311 -78.758,71.865 -62.852,119.517 15.906,47.653 69.897,71.474 120.492,53.164 50.595,-18.311 78.758,-71.865 62.852,-119.518 -15.906,-47.652 -69.897,-71.474 -120.492,-53.163 z M 160.58,264.179 c 13.209,0.001 19.813,6.605 19.813,19.814 v 620.821 c 0,13.209 -6.604,19.813 -19.813,19.814 H 29.811 c -13.209,0 -19.814,-6.605 -19.814,-19.814 V 283.993 c 0,-13.209 6.605,-19.813 19.814,-19.814 z m 537.605,-5.283 c 143.978,0 194.171,97.746 194.171,232.478 v 413.44 c 0,13.209 -6.604,19.813 -19.813,19.814 H 741.774 c -13.209,0 -19.813,-6.605 -19.813,-19.814 V 471.56 c 0,-44.91 -33.022,-60.761 -71.329,-60.761 h -15.85 c -56.799,0 -97.747,23.776 -112.277,47.552 v 446.463 c 0,13.209 -6.604,19.813 -19.813,19.814 H 371.923 c -13.209,0 -19.813,-6.605 -19.813,-19.814 V 283.993 c 0,-13.209 6.604,-19.813 19.813,-19.814 h 130.769 c 13.209,0.001 19.813,6.605 19.813,19.814 v 58.119 c 19.814,-33.022 70.008,-83.216 167.754,-83.216 z M 1201.446,0 c 13.21,0 19.814,6.605 19.814,19.813 V 478.165 L 1408.827,280.03 c 7.925,-9.246 19.813,-15.85 30.381,-15.851 h 136.052 c 17.173,0.001 33.022,19.814 9.246,44.911 l -196.813,211.343 229.836,368.53 c 7.925,14.53 6.604,35.664 -15.851,35.665 h -124.164 c -17.172,0 -33.023,-5.284 -43.59,-23.776 L 1272.775,634.03 1221.26,685.545 v 219.269 c 0,13.209 -6.604,19.813 -19.814,19.814 h -130.768 c -13.209,0 -19.814,-6.605 -19.814,-19.814 V 19.813 C 1050.864,6.605 1057.468,0 1070.678,0 Z M 69.566,31.383 C 19.982,46.375 -9.857,96.406 2.975,143.038 15.808,189.669 66.482,215.357 116.067,200.364 165.652,185.372 195.49,135.341 182.658,88.71 169.826,42.078 119.151,16.391 69.566,31.383 Z"
             style="fill:#ffffff;fill-opacity:1" />
          <path
             d="m 1795.61,594.617 -28.783,-0.213 c -13.209,0 -19.813,-6.605 -19.813,-19.814 V 19.813 C 1747.014,6.605 1753.618,0 1766.827,0 h 134.732 c 13.209,0 19.813,6.605 19.813,19.813 l -0.081,18.721 c -51.238,12.482 -91.137,64.695 -94.329,129.8 -2.564,52.29 19.2,99.658 53.607,126.46 -25.633,17.438 -44.472,46.887 -49.193,82.159 -5.141,38.403 7.648,74.783 31.364,98.837 -23.939,10.508 -45.741,31.983 -58.147,60.301 -8.77,20.019 -11.509,40.408 -8.983,58.526 z"
             style="fill:#ffffff;fill-opacity:1"
             id="path3" />
          <path
             d="m 1837.23,549.753 c -9.822,22.417 -2.309,46.088 16.766,52.827 19.074,6.738 42.534,-5.992 52.356,-28.41 9.821,-22.418 2.308,-46.089 -16.766,-52.827 -19.075,-6.739 -42.535,5.992 -52.356,28.41 z m 35.572,-164.125 c -6.558,34.707 11.744,67.29 40.844,72.716 29.1,5.426 58.05,-18.347 64.607,-53.054 6.558,-34.707 -11.744,-67.29 -40.844,-72.716 -29.1,-5.425 -58.05,18.347 -64.607,53.054 z m -7.312,-204.559 c -2.328,47.49 28.18,88.336 68.085,91.158 39.905,2.821 74.194,-33.443 76.522,-80.933 2.329,-47.49 -28.179,-88.336 -68.084,-91.158 -39.906,-2.821 -74.194,33.444 -76.523,80.933 z"
             style="fill:#ffffff;fill-opacity:1"
             id="path5" />
        </g>
      </g>
    </g>
  </g>
</svg>
