<svg enable-background="new 0 0 1628.3 800.9" version="1.1" viewBox="0 0 1628 800.9" xmlns="http://www.w3.org/2000/svg">
 <style type="text/css">.st0{fill:#242526;}
	.st1{fill:#FFFFFF;}
	.st2{fill:#BC83FB;}</style>
 <rect class="st0" width="1628" height="800.9"/>
 <path class="st1" d="m386 240.4c-2.4 0-4.2-1-5.6-2.9s-2-4.7-2-8.2c0-3.6 0.7-6.3 2-8.2 1.4-1.9 3.2-2.8 5.6-2.8s4.2 0.9 5.6 2.8 2 4.6 2 8.2c0 3.5-0.7 6.3-2 8.2s-3.2 2.9-5.6 2.9zm0-2.2c1.5 0 2.7-0.7 3.6-2.2 0.9-1.4 1.4-3.7 1.4-6.7 0-3.1-0.5-5.3-1.4-6.7s-2.2-2.1-3.6-2.1c-1.5 0-2.7 0.7-3.6 2.1s-1.4 3.6-1.4 6.7c0 3 0.5 5.3 1.4 6.7s2.1 2.2 3.6 2.2zm0-6.9c-0.6 0-1-0.2-1.4-0.6s-0.6-0.9-0.6-1.6 0.2-1.2 0.6-1.6 0.9-0.6 1.4-0.6c0.6 0 1 0.2 1.4 0.6s0.6 0.9 0.6 1.6-0.2 1.2-0.6 1.6c-0.3 0.4-0.8 0.6-1.4 0.6z"/>
 <path class="st1" d="m398.1 240 6.2-8.4-5.7-7.8h3l2.6 3.6c0.3 0.4 0.6 0.9 0.9 1.3 0.3 0.5 0.6 0.9 1 1.4h0.1c0.3-0.4 0.6-0.9 0.9-1.4s0.6-1 0.9-1.4l2.4-3.5h2.9l-5.8 8 6.2 8.2h-3l-2.8-3.7c-0.3-0.5-0.7-1-1-1.5-0.4-0.5-0.7-1-1.1-1.5h-0.1c-0.3 0.5-0.7 1-1 1.4-0.3 0.5-0.7 1-1 1.5l-2.6 3.8h-3z"/>
 <path class="st1" d="m425.9 240.4c-2.4 0-4.2-1-5.6-2.9s-2-4.7-2-8.2c0-3.6 0.7-6.3 2-8.2 1.4-1.9 3.2-2.8 5.6-2.8s4.2 0.9 5.6 2.8 2 4.6 2 8.2c0 3.5-0.7 6.3-2 8.2s-3.2 2.9-5.6 2.9zm0-2.2c1.5 0 2.7-0.7 3.6-2.2 0.9-1.4 1.4-3.7 1.4-6.7 0-3.1-0.5-5.3-1.4-6.7s-2.2-2.1-3.6-2.1c-1.5 0-2.7 0.7-3.6 2.1s-1.4 3.6-1.4 6.7c0 3 0.5 5.3 1.4 6.7s2.2 2.2 3.6 2.2zm0-6.9c-0.6 0-1-0.2-1.4-0.6s-0.6-0.9-0.6-1.6 0.2-1.2 0.6-1.6 0.9-0.6 1.4-0.6c0.6 0 1 0.2 1.4 0.6s0.6 0.9 0.6 1.6-0.2 1.2-0.6 1.6c-0.3 0.4-0.8 0.6-1.4 0.6z"/>
 <path class="st1" d="m445.9 240.4c-2.4 0-4.2-1-5.6-2.9s-2-4.7-2-8.2c0-3.6 0.7-6.3 2-8.2 1.4-1.9 3.2-2.8 5.6-2.8s4.2 0.9 5.6 2.8 2 4.6 2 8.2c0 3.5-0.7 6.3-2 8.2s-3.2 2.9-5.6 2.9zm0-2.2c1.5 0 2.7-0.7 3.6-2.2 0.9-1.4 1.4-3.7 1.4-6.7 0-3.1-0.5-5.3-1.4-6.7s-2.2-2.1-3.6-2.1c-1.5 0-2.7 0.7-3.6 2.1s-1.4 3.6-1.4 6.7c0 3 0.5 5.3 1.4 6.7s2.1 2.2 3.6 2.2zm0-6.9c-0.6 0-1-0.2-1.4-0.6s-0.6-0.9-0.6-1.6 0.2-1.2 0.6-1.6 0.9-0.6 1.4-0.6c0.6 0 1 0.2 1.4 0.6s0.6 0.9 0.6 1.6-0.2 1.2-0.6 1.6c-0.3 0.4-0.8 0.6-1.4 0.6z"/>
 <path class="st1" d="m465.9 240.4c-2.4 0-4.2-1-5.6-2.9s-2-4.7-2-8.2c0-3.6 0.7-6.3 2-8.2 1.4-1.9 3.2-2.8 5.6-2.8s4.2 0.9 5.6 2.8 2 4.6 2 8.2c0 3.5-0.7 6.3-2 8.2-1.4 1.9-3.2 2.9-5.6 2.9zm0-2.2c1.5 0 2.7-0.7 3.6-2.2 0.9-1.4 1.4-3.7 1.4-6.7 0-3.1-0.5-5.3-1.4-6.7s-2.2-2.1-3.6-2.1c-1.5 0-2.7 0.7-3.6 2.1s-1.4 3.6-1.4 6.7c0 3 0.5 5.3 1.4 6.7s2.1 2.2 3.6 2.2zm0-6.9c-0.6 0-1-0.2-1.4-0.6s-0.6-0.9-0.6-1.6 0.2-1.2 0.6-1.6 0.9-0.6 1.4-0.6c0.6 0 1 0.2 1.4 0.6s0.6 0.9 0.6 1.6-0.2 1.2-0.6 1.6-0.9 0.6-1.4 0.6z"/>
 <path class="st1" d="m485.9 240.4c-2.4 0-4.2-1-5.6-2.9s-2-4.7-2-8.2c0-3.6 0.7-6.3 2-8.2 1.4-1.9 3.2-2.8 5.6-2.8s4.2 0.9 5.6 2.8 2 4.6 2 8.2c0 3.5-0.7 6.3-2 8.2-1.4 1.9-3.3 2.9-5.6 2.9zm0-2.2c1.5 0 2.7-0.7 3.6-2.2 0.9-1.4 1.4-3.7 1.4-6.7 0-3.1-0.5-5.3-1.4-6.7s-2.2-2.1-3.6-2.1c-1.5 0-2.7 0.7-3.6 2.1s-1.4 3.6-1.4 6.7c0 3 0.5 5.3 1.4 6.7s2.1 2.2 3.6 2.2zm0-6.9c-0.6 0-1-0.2-1.4-0.6s-0.6-0.9-0.6-1.6 0.2-1.2 0.6-1.6 0.9-0.6 1.4-0.6c0.6 0 1 0.2 1.4 0.6s0.6 0.9 0.6 1.6-0.2 1.2-0.6 1.6-0.9 0.6-1.4 0.6z"/>
 <path class="st1" d="m505.8 240.4c-2.4 0-4.2-1-5.6-2.9s-2-4.7-2-8.2c0-3.6 0.7-6.3 2-8.2 1.4-1.9 3.2-2.8 5.6-2.8s4.2 0.9 5.6 2.8 2 4.6 2 8.2c0 3.5-0.7 6.3-2 8.2s-3.2 2.9-5.6 2.9zm0-2.2c1.5 0 2.7-0.7 3.6-2.2 0.9-1.4 1.4-3.7 1.4-6.7 0-3.1-0.5-5.3-1.4-6.7s-2.2-2.1-3.6-2.1c-1.5 0-2.7 0.7-3.6 2.1s-1.4 3.6-1.4 6.7c0 3 0.5 5.3 1.4 6.7s2.1 2.2 3.6 2.2zm0-6.9c-0.6 0-1-0.2-1.4-0.6s-0.6-0.9-0.6-1.6 0.2-1.2 0.6-1.6 0.9-0.6 1.4-0.6c0.6 0 1 0.2 1.4 0.6s0.6 0.9 0.6 1.6-0.2 1.2-0.6 1.6c-0.3 0.4-0.8 0.6-1.4 0.6z"/>
 <path class="st1" d="m525.8 240.4c-2.4 0-4.2-1-5.6-2.9s-2-4.7-2-8.2c0-3.6 0.7-6.3 2-8.2 1.4-1.9 3.2-2.8 5.6-2.8s4.2 0.9 5.6 2.8 2 4.6 2 8.2c0 3.5-0.7 6.3-2 8.2-1.4 1.9-3.2 2.9-5.6 2.9zm0-2.2c1.5 0 2.7-0.7 3.6-2.2 0.9-1.4 1.4-3.7 1.4-6.7 0-3.1-0.5-5.3-1.4-6.7s-2.2-2.1-3.6-2.1c-1.5 0-2.7 0.7-3.6 2.1s-1.4 3.6-1.4 6.7c0 3 0.5 5.3 1.4 6.7s2.1 2.2 3.6 2.2zm0-6.9c-0.6 0-1-0.2-1.4-0.6s-0.6-0.9-0.6-1.6 0.2-1.2 0.6-1.6 0.9-0.6 1.4-0.6c0.6 0 1 0.2 1.4 0.6s0.6 0.9 0.6 1.6-0.2 1.2-0.6 1.6-0.9 0.6-1.4 0.6z"/>
 <path class="st1" d="m545.8 240.4c-2.4 0-4.2-1-5.6-2.9s-2-4.7-2-8.2c0-3.6 0.7-6.3 2-8.2 1.4-1.9 3.2-2.8 5.6-2.8s4.2 0.9 5.6 2.8 2 4.6 2 8.2c0 3.5-0.7 6.3-2 8.2-1.4 1.9-3.3 2.9-5.6 2.9zm0-2.2c1.5 0 2.7-0.7 3.6-2.2 0.9-1.4 1.4-3.7 1.4-6.7 0-3.1-0.5-5.3-1.4-6.7s-2.2-2.1-3.6-2.1c-1.5 0-2.7 0.7-3.6 2.1s-1.4 3.6-1.4 6.7c0 3 0.5 5.3 1.4 6.7s2.1 2.2 3.6 2.2zm0-6.9c-0.6 0-1-0.2-1.4-0.6s-0.6-0.9-0.6-1.6 0.2-1.2 0.6-1.6 0.9-0.6 1.4-0.6c0.6 0 1 0.2 1.4 0.6s0.6 0.9 0.6 1.6-0.2 1.2-0.6 1.6-0.9 0.6-1.4 0.6z"/>
 <path class="st1" d="m565.7 240.4c-2.4 0-4.2-1-5.6-2.9s-2-4.7-2-8.2c0-3.6 0.7-6.3 2-8.2 1.4-1.9 3.2-2.8 5.6-2.8s4.2 0.9 5.6 2.8 2 4.6 2 8.2c0 3.5-0.7 6.3-2 8.2s-3.2 2.9-5.6 2.9zm0-2.2c1.5 0 2.7-0.7 3.6-2.2 0.9-1.4 1.4-3.7 1.4-6.7 0-3.1-0.5-5.3-1.4-6.7s-2.2-2.1-3.6-2.1c-1.5 0-2.7 0.7-3.6 2.1s-1.4 3.6-1.4 6.7c0 3 0.5 5.3 1.4 6.7s2.1 2.2 3.6 2.2zm0-6.9c-0.6 0-1-0.2-1.4-0.6s-0.6-0.9-0.6-1.6 0.2-1.2 0.6-1.6 0.9-0.6 1.4-0.6c0.6 0 1 0.2 1.4 0.6s0.6 0.9 0.6 1.6-0.2 1.2-0.6 1.6c-0.3 0.4-0.8 0.6-1.4 0.6z"/>
 <path class="st1" d="m386 586.4c-2.4 0-4.2-1-5.6-2.9s-2-4.7-2-8.2c0-3.6 0.7-6.3 2-8.2 1.4-1.9 3.2-2.8 5.6-2.8s4.2 0.9 5.6 2.8 2 4.6 2 8.2c0 3.5-0.7 6.3-2 8.2s-3.2 2.9-5.6 2.9zm0-2.2c1.5 0 2.7-0.7 3.6-2.2s1.4-3.7 1.4-6.7c0-3.1-0.5-5.3-1.4-6.7s-2.2-2.1-3.6-2.1c-1.5 0-2.7 0.7-3.6 2.1s-1.4 3.6-1.4 6.7c0 3 0.5 5.3 1.4 6.7s2.1 2.2 3.6 2.2zm0-6.9c-0.6 0-1-0.2-1.4-0.6s-0.6-0.9-0.6-1.6 0.2-1.2 0.6-1.6 0.9-0.6 1.4-0.6c0.6 0 1 0.2 1.4 0.6s0.6 0.9 0.6 1.6-0.2 1.2-0.6 1.6c-0.3 0.4-0.8 0.6-1.4 0.6z"/>
 <path class="st1" d="m398.1 586 6.2-8.4-5.7-7.8h3l2.6 3.6c0.3 0.4 0.6 0.9 0.9 1.3 0.3 0.5 0.6 0.9 1 1.4h0.1c0.3-0.4 0.6-0.9 0.9-1.4s0.6-1 0.9-1.4l2.4-3.5h2.9l-5.8 8 6.2 8.2h-3l-2.8-3.7c-0.3-0.5-0.7-1-1-1.5-0.4-0.5-0.7-1-1.1-1.5h-0.1c-0.3 0.5-0.7 1-1 1.4-0.3 0.5-0.7 1-1 1.5l-2.6 3.8h-3z"/>
 <path class="st1" d="m419.2 586v-2.3h6.1v-15.6h-4.8v-1.8c1.2-0.2 2.3-0.4 3.1-0.6 0.9-0.3 1.6-0.6 2.3-0.9h2v19h5.6v2.3h-14.3v-0.1z"/>
 <path class="st1" d="m438.4 586v-1.6c2.4-2.1 4.4-4 6.1-5.6s2.9-3 3.8-4.3 1.3-2.5 1.3-3.7-0.4-2.2-1.1-3c-0.8-0.8-1.9-1.2-3.5-1.2-1 0-1.9 0.2-2.8 0.7s-1.6 1.1-2.3 1.8l-1.6-1.6c1-1 2-1.8 3.1-2.3 1.1-0.6 2.4-0.9 3.9-0.9 2.1 0 3.8 0.6 5.1 1.7 1.2 1.1 1.9 2.7 1.9 4.5 0 1.3-0.4 2.7-1.2 4-0.8 1.4-2 2.8-3.4 4.3-1.5 1.5-3.2 3.1-5.1 4.9 0.7 0 1.3-0.1 2-0.1s1.3-0.1 1.9-0.1h7v2.4l-15.1 0.1z"/>
 <path class="st1" d="m465.5 586.4c-1.8 0-3.4-0.3-4.6-0.9-1.3-0.6-2.3-1.3-3-2.1l1.4-1.8c0.7 0.7 1.6 1.3 2.6 1.8s2.2 0.8 3.5 0.8c1.4 0 2.7-0.4 3.6-1.1 1-0.7 1.5-1.7 1.5-2.8 0-1.3-0.6-2.3-1.8-3.1s-3.2-1.2-6-1.2v-2.1c2.5 0 4.3-0.4 5.4-1.1 1.1-0.8 1.6-1.7 1.6-2.8 0-1-0.4-1.9-1.2-2.5s-1.8-0.9-3.1-0.9c-1 0-1.9 0.2-2.8 0.6s-1.7 0.9-2.4 1.6l-1.5-1.7c0.9-0.8 1.9-1.4 3-1.9s2.4-0.7 3.7-0.7 2.5 0.2 3.6 0.6 1.9 1 2.5 1.8 0.9 1.8 0.9 2.9c0 1.3-0.4 2.3-1.3 3.2-0.9 0.8-1.9 1.5-3.2 1.9v0.1c1 0.2 1.8 0.5 2.6 1s1.4 1.1 1.9 1.8 0.7 1.6 0.7 2.6c0 1.2-0.3 2.3-1 3.2s-1.6 1.6-2.8 2.1c-1.1 0.4-2.4 0.7-3.8 0.7z"/>
 <path class="st1" d="m488.1 586v-5.9h-10.9v-1.8l10.6-13.5h2.9v13.2h3.3v2.2h-3.3v5.9h-2.6v-0.1zm-7.9-8.1h7.9v-6.6c0-0.6 0-1.2 0.1-1.9 0-0.7 0.1-1.3 0.1-1.9h-0.2c-0.3 0.5-0.7 1-1.1 1.5s-0.7 1-1.1 1.5l-5.7 7.4z"/>
 <path class="st1" d="m505.4 586.4c-1.9 0-3.4-0.3-4.6-0.9s-2.2-1.3-3-2l1.4-1.8c0.7 0.6 1.5 1.2 2.5 1.7 0.9 0.5 2.1 0.7 3.5 0.7 1 0 1.9-0.2 2.7-0.6s1.5-1 1.9-1.7c0.5-0.7 0.7-1.6 0.7-2.6 0-1.5-0.5-2.6-1.4-3.4-1-0.8-2.2-1.2-3.8-1.2-0.9 0-1.6 0.1-2.3 0.3-0.6 0.2-1.3 0.5-2.1 1l-1.5-0.9 0.7-10.2h12v2.4h-9.6l-0.6 6.3c0.6-0.3 1.2-0.5 1.8-0.6s1.3-0.2 2.1-0.2c1.4 0 2.6 0.2 3.7 0.7s2 1.2 2.6 2.2c0.7 1 1 2.2 1 3.8 0 1.5-0.4 2.8-1.1 3.9s-1.7 1.9-2.9 2.4c-1.1 0.4-2.4 0.7-3.7 0.7z"/>
 <path class="st1" d="m526.5 586.4c-1.5 0-2.9-0.4-4.1-1.1-1.2-0.8-2.2-1.9-2.9-3.4s-1.1-3.4-1.1-5.7c0-2.1 0.2-3.9 0.7-5.4s1.1-2.7 2-3.7 1.8-1.6 2.8-2.1c1.1-0.4 2.2-0.6 3.3-0.6 1.3 0 2.5 0.2 3.4 0.6s1.8 1 2.5 1.6l-1.5 1.7c-0.6-0.5-1.2-0.9-1.9-1.2s-1.5-0.4-2.3-0.4c-1.1 0-2.2 0.3-3.1 0.9s-1.8 1.5-2.4 2.8-0.9 3.1-1 5.4c0.9-0.8 1.8-1.5 2.9-2 1-0.5 2.1-0.7 3.2-0.7 2 0 3.6 0.5 4.8 1.6s1.8 2.7 1.8 4.9c0 1.4-0.3 2.5-1 3.6-0.7 1-1.5 1.8-2.6 2.4-1.1 0.5-2.2 0.8-3.5 0.8zm0-11.4c-0.8 0-1.7 0.2-2.7 0.7-1 0.4-1.9 1.2-2.7 2.2 0.2 2 0.8 3.6 1.7 4.7s2.2 1.6 3.7 1.6c1.3 0 2.3-0.4 3.2-1.3s1.3-2 1.3-3.4-0.4-2.6-1.2-3.3c-0.8-0.8-1.9-1.2-3.3-1.2z"/>
 <path class="st1" d="m543.3 586c0.1-2 0.3-3.9 0.6-5.5s0.7-3.2 1.3-4.7c0.5-1.5 1.2-2.9 2.1-4.3s1.9-2.9 3.1-4.3h-12.3v-2.4h15.4v1.7c-1.4 1.6-2.6 3.1-3.5 4.6s-1.6 3-2.2 4.5c-0.5 1.5-0.9 3.1-1.2 4.8s-0.4 3.6-0.5 5.7l-2.8-0.1z"/>
 <path class="st1" d="m565.8 586.4c-1.6 0-3-0.2-4.1-0.7-1.2-0.5-2.1-1.2-2.7-2.1s-0.9-1.9-0.9-3c0-1 0.2-1.8 0.7-2.5 0.4-0.7 1-1.3 1.7-1.8s1.4-0.9 2.2-1.3v-0.1c-0.9-0.6-1.6-1.2-2.3-2.1-0.6-0.8-0.9-1.8-0.9-2.9s0.3-2 0.8-2.9c0.6-0.8 1.3-1.5 2.3-1.9s2.1-0.7 3.4-0.7c2.1 0 3.7 0.5 4.9 1.6s1.7 2.4 1.7 4.1c0 1-0.3 1.9-0.9 2.8s-1.4 1.6-2.3 2.2v0.1c0.8 0.4 1.5 0.8 2.1 1.3s1.1 1 1.5 1.7 0.5 1.5 0.5 2.5-0.3 2-0.9 2.9-1.5 1.5-2.6 2c-1.2 0.5-2.6 0.8-4.2 0.8zm0.1-2.1c1.6 0 2.8-0.3 3.6-1 0.9-0.7 1.3-1.6 1.3-2.7 0-1-0.3-1.8-0.9-2.3s-1.4-1-2.4-1.4-2.1-0.8-3.4-1.2c-1 0.6-1.9 1.2-2.6 1.9s-1 1.6-1 2.7c0 1.2 0.5 2.1 1.5 2.9 0.9 0.8 2.2 1.1 3.9 1.1zm1.6-9.9c1.8-1.3 2.7-2.7 2.7-4.3 0-1-0.4-1.9-1.1-2.7-0.7-0.7-1.8-1.1-3.2-1.1-1.2 0-2.1 0.3-2.9 0.9s-1.1 1.5-1.1 2.5c0 0.8 0.2 1.5 0.7 2.1s1.2 1 2 1.4c0.9 0.5 1.8 0.9 2.9 1.2z"/>
 <path class="st1" d="m802.7 245c-2.1 0-3.6-0.3-4.6-0.9s-1.5-1.8-1.5-3.5c0-1.2 0-2.3 0.1-3.3s0.2-2 0.2-3.1c0-0.4-0.1-0.9-0.4-1.2-0.3-0.4-0.7-0.7-1.4-1s-1.7-0.4-3-0.4v-1.7c1.3 0 2.3-0.2 3-0.4s1.2-0.6 1.4-1c0.3-0.4 0.4-0.8 0.4-1.2 0-1 0-2.1-0.2-3.1-0.1-1-0.1-2.1-0.1-3.3 0-1.7 0.5-2.9 1.5-3.5s2.6-0.9 4.6-0.9h2v1.6h-1.7c-1.1 0-2 0.1-2.6 0.3s-1 0.5-1.2 1c-0.2 0.4-0.3 1-0.3 1.8 0 1 0 1.9 0.1 2.9s0.1 2 0.1 3.1-0.2 1.9-0.6 2.5-1.2 0.9-2.4 1.1v0.1c1.2 0.2 1.9 0.6 2.4 1.1s0.6 1.4 0.6 2.5 0 2.2-0.1 3.1-0.1 1.9-0.1 2.9c0 0.7 0.1 1.3 0.3 1.7s0.6 0.8 1.2 1 1.5 0.3 2.6 0.3h1.7v1.6h-2v-0.1z"/>
 <path class="st1" d="m876.1 280.3c-1 0-1.9-0.2-2.7-0.5-0.8-0.4-1.5-0.9-2-1.6s-0.7-1.5-0.7-2.5c0-1.2 0.4-2.2 1.2-3s2-1.5 3.8-1.9c1.7-0.5 4-0.8 6.8-1.1 0-0.7-0.2-1.4-0.4-2-0.3-0.6-0.7-1.1-1.3-1.5s-1.5-0.6-2.5-0.6-2.1 0.2-3 0.6c-1 0.4-1.9 0.8-2.6 1.3l-1.1-1.9c0.8-0.5 1.9-1.1 3.1-1.6 1.3-0.5 2.6-0.8 4-0.8 2.2 0 3.9 0.6 4.9 1.8 1.1 1.2 1.6 2.8 1.6 4.8v9.9h-2.2l-0.2-2.2h-0.1c-0.9 0.7-1.9 1.3-3 1.8s-2.5 1-3.6 1zm0.7-2.2c0.9 0 1.8-0.2 2.7-0.6s1.8-1 2.7-1.8v-4.3c-2.3 0.2-4.1 0.4-5.4 0.8s-2.3 0.8-2.8 1.4c-0.5 0.5-0.8 1.2-0.8 1.9 0 0.9 0.4 1.6 1.1 2s1.6 0.6 2.5 0.6z"/>
 <path class="st1" d="m897.9 268.4c-0.8 0-1.4-0.3-1.9-0.8s-0.8-1.2-0.8-2 0.3-1.5 0.8-2 1.2-0.8 1.9-0.8c0.8 0 1.4 0.3 1.9 0.8s0.8 1.2 0.8 2-0.3 1.5-0.8 2c-0.6 0.5-1.2 0.8-1.9 0.8zm0 11.9c-0.8 0-1.4-0.3-1.9-0.8s-0.8-1.2-0.8-2 0.3-1.5 0.8-2 1.2-0.8 1.9-0.8c0.8 0 1.4 0.3 1.9 0.8s0.8 1.2 0.8 2-0.3 1.5-0.8 2-1.2 0.8-1.9 0.8z"/>
 <path class="st1" d="m938.5 280.3c-0.8 0-1.6-0.2-2.5-0.6s-1.7-0.9-2.5-1.6h-0.1l-0.2 1.8h-2.2v-23.7h2.7v6.5l-0.1 3.1h0.1c0.7-0.8 1.6-1.4 2.5-1.8 1-0.4 1.9-0.7 2.9-0.7 2.2 0 3.8 0.7 5 2.2s1.7 3.5 1.7 6c0 1.8-0.3 3.4-1 4.7s-1.6 2.3-2.7 3c-1.2 0.8-2.4 1.1-3.6 1.1zm-0.5-2.3c1.4 0 2.6-0.6 3.5-1.7s1.4-2.7 1.4-4.7c0-1.8-0.4-3.2-1.1-4.3s-1.9-1.6-3.5-1.6c-0.7 0-1.5 0.2-2.3 0.6s-1.6 1-2.5 1.8v8.1c0.8 0.7 1.6 1.2 2.3 1.5 1 0.2 1.6 0.3 2.2 0.3z"/>
 <path class="st1" d="m957.8 280.3c-1.4 0-2.7-0.3-3.9-1s-2.2-1.6-2.9-2.9-1.1-2.8-1.1-4.6 0.4-3.4 1.1-4.6 1.7-2.2 2.9-2.9 2.5-1 3.9-1 2.7 0.3 3.9 1 2.2 1.6 2.9 2.9 1.1 2.8 1.1 4.6-0.4 3.3-1.1 4.6-1.7 2.2-2.9 2.9-2.5 1-3.9 1zm0-2.3c1.6 0 2.8-0.6 3.7-1.7s1.4-2.6 1.4-4.5-0.5-3.4-1.4-4.5c-0.9-1.2-2.2-1.7-3.7-1.7-1.6 0-2.8 0.6-3.7 1.7-0.9 1.2-1.4 2.7-1.4 4.5s0.5 3.3 1.4 4.5 2.1 1.7 3.7 1.7z"/>
 <path class="st1" d="m977.7 280.3c-1.4 0-2.7-0.3-3.9-1s-2.2-1.6-2.9-2.9-1.1-2.8-1.1-4.6 0.4-3.4 1.1-4.6 1.7-2.2 2.9-2.9 2.5-1 3.9-1 2.7 0.3 3.9 1 2.2 1.6 2.9 2.9 1.1 2.8 1.1 4.6-0.4 3.3-1.1 4.6-1.7 2.2-2.9 2.9c-1.1 0.7-2.5 1-3.9 1zm0-2.3c1.6 0 2.8-0.6 3.7-1.7s1.4-2.6 1.4-4.5-0.5-3.4-1.4-4.5c-0.9-1.2-2.2-1.7-3.7-1.7-1.6 0-2.8 0.6-3.7 1.7-0.9 1.2-1.4 2.7-1.4 4.5s0.5 3.3 1.4 4.5 2.2 1.7 3.7 1.7z"/>
 <path class="st1" d="m1001 280.3c-1.7 0-3-0.5-3.9-1.5s-1.4-2.4-1.4-4.3v-16h-5.8v-2.2h8.5v18.5c0 1.2 0.3 2 0.9 2.6 0.6 0.5 1.4 0.8 2.3 0.8s2-0.2 3-0.7l0.7 2c-0.8 0.3-1.4 0.5-2.1 0.7-0.6 0-1.4 0.1-2.2 0.1z"/>
 <path class="st1" d="m1015 287-0.8-1.7c1.4-0.6 2.4-1.4 3.1-2.3s1.1-2 1.1-3.3h-0.3s-0.2 0-0.3 0c-0.7 0-1.3-0.2-1.8-0.6s-0.8-1-0.8-1.9 0.3-1.4 0.8-1.9c0.5-0.4 1.2-0.6 1.9-0.6 1 0 1.7 0.4 2.2 1.1s0.8 1.8 0.8 3.1c0 2-0.5 3.6-1.5 4.9-1.1 1.5-2.6 2.5-4.4 3.2z"/>
 <path class="st1" d="m878.6 320.2c-0.8 0-1.6-0.2-2.5-0.6s-1.7-0.9-2.5-1.6h-0.1l-0.2 1.8h-2.2v-23.7h2.7v6.5l-0.1 3.1h0.1c0.7-0.8 1.6-1.4 2.5-1.8 1-0.4 1.9-0.7 2.9-0.7 2.2 0 3.8 0.7 5 2.2s1.7 3.5 1.7 6c0 1.8-0.3 3.4-1 4.7s-1.6 2.3-2.7 3c-1.2 0.8-2.4 1.1-3.6 1.1zm-0.5-2.3c1.4 0 2.6-0.6 3.5-1.7s1.4-2.7 1.4-4.7c0-1.8-0.4-3.2-1.1-4.3s-1.9-1.6-3.5-1.6c-0.7 0-1.5 0.2-2.3 0.6s-1.6 1-2.5 1.8v8.1c0.8 0.7 1.6 1.2 2.3 1.5 1 0.2 1.6 0.3 2.2 0.3z"/>
 <path class="st1" d="m897.9 308.3c-0.8 0-1.4-0.3-1.9-0.8s-0.8-1.2-0.8-2 0.3-1.5 0.8-2 1.2-0.8 1.9-0.8c0.8 0 1.4 0.3 1.9 0.8s0.8 1.2 0.8 2-0.3 1.5-0.8 2c-0.6 0.6-1.2 0.8-1.9 0.8zm0 11.9c-0.8 0-1.4-0.3-1.9-0.8s-0.8-1.2-0.8-2 0.3-1.5 0.8-2 1.2-0.8 1.9-0.8c0.8 0 1.4 0.3 1.9 0.8s0.8 1.2 0.8 2-0.3 1.5-0.8 2-1.2 0.8-1.9 0.8z"/>
 <path class="st1" d="m936 320.2c-1.9 0-3.3-0.6-4.3-1.7-0.9-1.1-1.4-2.7-1.4-4.9v-10.1h2.8v9.7c0 1.5 0.3 2.7 0.8 3.4 0.6 0.7 1.5 1.1 2.9 1.1 0.9 0 1.8-0.2 2.5-0.7 0.8-0.5 1.6-1.2 2.5-2.3v-11.2h2.7v16.2h-2.2l-0.2-2.7h-0.1c-0.8 1-1.7 1.7-2.7 2.3s-2.1 0.9-3.3 0.9z"/>
 <path class="st1" d="m957.3 320.2c-1.8 0-3.4-0.3-4.6-0.9-1.3-0.6-2.3-1.3-3-2.1l1.4-1.8c0.7 0.7 1.6 1.3 2.6 1.8s2.2 0.8 3.5 0.8c1.4 0 2.7-0.4 3.6-1.1 1-0.7 1.5-1.7 1.5-2.8 0-1.3-0.6-2.3-1.8-3.1s-3.2-1.2-6-1.2v-2.1c2.5 0 4.3-0.4 5.4-1.1 1.1-0.8 1.6-1.7 1.6-2.8 0-1-0.4-1.9-1.2-2.5s-1.8-0.9-3.1-0.9c-1 0-1.9 0.2-2.8 0.6s-1.7 0.9-2.4 1.6l-1.5-1.7c0.9-0.8 1.9-1.4 3-1.9s2.4-0.7 3.7-0.7 2.5 0.2 3.6 0.6 1.9 1 2.5 1.8 0.9 1.8 0.9 2.9c0 1.3-0.4 2.3-1.3 3.2-0.9 0.8-1.9 1.5-3.2 1.9v0.1c1 0.2 1.8 0.5 2.6 1s1.4 1.1 1.9 1.8 0.7 1.6 0.7 2.6c0 1.2-0.3 2.3-1 3.2s-1.6 1.6-2.8 2.1c-1.1 0.5-2.4 0.7-3.8 0.7z"/>
 <path class="st1" d="m970.2 319.8v-1.6c2.4-2.1 4.4-4 6.1-5.6s2.9-3 3.8-4.3 1.3-2.5 1.3-3.7-0.4-2.2-1.1-3c-0.8-0.8-1.9-1.2-3.5-1.2-1 0-1.9 0.2-2.8 0.7s-1.6 1.1-2.3 1.8l-1.6-1.6c1-1 2-1.8 3.1-2.3 1.1-0.6 2.4-0.9 3.9-0.9 2.1 0 3.8 0.6 5.1 1.7 1.2 1.1 1.9 2.7 1.9 4.5 0 1.3-0.4 2.7-1.2 4-0.8 1.4-2 2.8-3.4 4.3s-3.2 3.1-5.1 4.9c0.7 0 1.3-0.1 2-0.1s1.3-0.1 1.9-0.1h7v2.4h-15.1v0.1z"/>
 <path class="st1" d="m995 326.9-0.8-1.7c1.4-0.6 2.4-1.4 3.1-2.3s1.1-2 1.1-3.3h-0.3s-0.2 0-0.3 0c-0.7 0-1.3-0.2-1.8-0.6s-0.8-1-0.8-1.9 0.3-1.4 0.8-1.9c0.5-0.4 1.2-0.6 1.9-0.6 1 0 1.7 0.4 2.2 1.1s0.8 1.8 0.8 3.1c0 2-0.5 3.6-1.5 4.9-1.1 1.5-2.5 2.5-4.4 3.2z"/>
 <path class="st1" d="m879.4 360.2c-1.7 0-3.2-0.3-4.5-1s-2.4-1.6-3.2-2.9-1.2-2.8-1.2-4.6 0.4-3.4 1.2-4.6c0.8-1.3 1.9-2.2 3.3-2.9s2.9-1 4.5-1c1.3 0 2.5 0.2 3.4 0.7 1 0.5 1.8 1 2.5 1.7l-1.4 1.8c-0.7-0.6-1.4-1-2.1-1.4-0.7-0.3-1.5-0.5-2.3-0.5-1.2 0-2.3 0.3-3.3 0.8-0.9 0.5-1.7 1.3-2.2 2.2s-0.8 2-0.8 3.3c0 1.2 0.3 2.3 0.8 3.2s1.2 1.7 2.2 2.2 2 0.8 3.3 0.8c1 0 1.9-0.2 2.7-0.6s1.6-0.9 2.2-1.4l1.2 1.8c-0.9 0.8-1.9 1.4-3 1.9-0.9 0.2-2.1 0.5-3.3 0.5z"/>
 <path class="st1" d="m897.9 348.3c-0.8 0-1.4-0.3-1.9-0.8s-0.8-1.2-0.8-2 0.3-1.5 0.8-2 1.2-0.8 1.9-0.8c0.8 0 1.4 0.3 1.9 0.8s0.8 1.2 0.8 2-0.3 1.5-0.8 2c-0.6 0.5-1.2 0.8-1.9 0.8zm0 11.9c-0.8 0-1.4-0.3-1.9-0.8s-0.8-1.2-0.8-2 0.3-1.5 0.8-2 1.2-0.8 1.9-0.8c0.8 0 1.4 0.3 1.9 0.8s0.8 1.2 0.8 2-0.3 1.5-0.8 2-1.2 0.8-1.9 0.8z"/>
 <path class="st1" d="m936.2 359.8-7-21.8h2.9l3.5 11.8c0.4 1.3 0.7 2.5 1 3.6s0.7 2.3 1.1 3.6h0.1c0.4-1.3 0.8-2.5 1.1-3.6s0.7-2.3 1-3.6l3.5-11.8h2.8l-6.9 21.8h-3.1z"/>
 <path class="st1" d="m958.8 360.2c-1.6 0-3.1-0.3-4.4-1s-2.4-1.6-3.1-2.9c-0.8-1.3-1.2-2.8-1.2-4.6s0.4-3.3 1.2-4.5 1.8-2.2 3-2.9 2.6-1 4-1c2.3 0 4.1 0.7 5.4 2.1s1.9 3.2 1.9 5.5v0.9s-0.1 0.5-0.1 0.8h-12.7c0.2 1.8 0.8 3.2 2 4.1s2.6 1.4 4.3 1.4c1 0 1.9-0.1 2.6-0.4 0.8-0.3 1.5-0.6 2.3-1.1l1 1.8c-0.8 0.5-1.7 1-2.7 1.4-1.1 0.2-2.2 0.4-3.5 0.4zm-0.4-14.8c-1.3 0-2.5 0.4-3.6 1.3-1 0.9-1.7 2.1-1.9 3.7h10.3c-0.1-1.7-0.6-2.9-1.5-3.7s-2-1.3-3.3-1.3z"/>
 <path class="st1" d="m979.3 360.2c-1.7 0-3.2-0.3-4.5-1s-2.4-1.6-3.2-2.9-1.2-2.8-1.2-4.6 0.4-3.4 1.2-4.6c0.8-1.3 1.9-2.2 3.3-2.9s2.9-1 4.5-1c1.3 0 2.5 0.2 3.4 0.7 1 0.5 1.8 1 2.5 1.7l-1.4 1.8c-0.7-0.6-1.4-1-2.1-1.4-0.7-0.3-1.5-0.5-2.3-0.5-1.2 0-2.3 0.3-3.3 0.8-0.9 0.5-1.7 1.3-2.2 2.2s-0.8 2-0.8 3.3c0 1.2 0.3 2.3 0.8 3.2s1.2 1.7 2.2 2.2 2 0.8 3.3 0.8c1 0 1.9-0.2 2.7-0.6s1.6-0.9 2.2-1.4l1.2 1.8c-0.9 0.8-1.9 1.4-3 1.9-1 0.2-2.1 0.5-3.3 0.5z"/>
 <path class="st1" d="m1004 358.2-12.4-8.4v-2.1l12.4-8.4v2.6l-10 6.8v0.1l10 6.8v2.6z"/>
 <path class="st1" d="m1016 360.2c-1.9 0-3.3-0.6-4.3-1.7-0.9-1.1-1.4-2.7-1.4-4.9v-10.1h2.8v9.7c0 1.5 0.3 2.7 0.8 3.4 0.6 0.7 1.5 1.1 2.9 1.1 0.9 0 1.8-0.2 2.5-0.7 0.8-0.5 1.6-1.2 2.5-2.3v-11.2h2.7v16.2h-2.2l-0.2-2.8h-0.1c-0.8 1-1.7 1.7-2.7 2.3-1 0.7-2.1 1-3.3 1z"/>
 <path class="st1" d="m1037 360.2c-1.8 0-3.4-0.3-4.6-0.9-1.3-0.6-2.3-1.3-3-2.1l1.4-1.8c0.7 0.7 1.6 1.3 2.6 1.8s2.2 0.8 3.5 0.8c1.4 0 2.7-0.4 3.6-1.1 1-0.7 1.5-1.7 1.5-2.8 0-1.3-0.6-2.3-1.8-3.1s-3.2-1.2-6-1.2v-2.1c2.5 0 4.3-0.4 5.4-1.1 1.1-0.8 1.6-1.7 1.6-2.8 0-1-0.4-1.9-1.2-2.5s-1.8-0.9-3.1-0.9c-1 0-1.9 0.2-2.8 0.6s-1.7 0.9-2.4 1.6l-1.5-1.7c0.9-0.8 1.9-1.4 3-1.9s2.4-0.7 3.7-0.7 2.5 0.2 3.6 0.6 1.9 1 2.5 1.8 0.9 1.8 0.9 2.9c0 1.3-0.4 2.3-1.3 3.2-0.9 0.8-1.9 1.5-3.2 1.9v0.1c1 0.2 1.8 0.5 2.6 1s1.4 1.1 1.9 1.8 0.7 1.6 0.7 2.6c0 1.2-0.3 2.3-1 3.2s-1.6 1.6-2.8 2.1c-1.1 0.4-2.4 0.7-3.8 0.7z"/>
 <path class="st1" d="m1050 359.8v-1.6c2.4-2.1 4.4-4 6.1-5.6s2.9-3 3.8-4.3 1.3-2.5 1.3-3.7-0.4-2.2-1.1-3c-0.8-0.8-1.9-1.2-3.5-1.2-1 0-1.9 0.2-2.8 0.7s-1.6 1.1-2.3 1.8l-1.6-1.6c1-1 2-1.8 3.1-2.3 1.1-0.6 2.4-0.9 3.9-0.9 2.1 0 3.8 0.6 5.1 1.7 1.2 1.1 1.9 2.7 1.9 4.5 0 1.3-0.4 2.7-1.2 4-0.8 1.4-2 2.8-3.4 4.3s-3.2 3.1-5.1 4.9c0.7 0 1.3-0.1 2-0.1s1.3-0.1 1.9-0.1h7v2.4h-15.1v0.1z"/>
 <path class="st1" d="m1071 358.2v-2.6l10-6.8v-0.1l-10-6.8v-2.6l12.4 8.4v2.1l-12.4 8.4z"/>
 <path class="st1" d="m1095 366.9-0.8-1.7c1.4-0.6 2.4-1.4 3.1-2.3s1.1-2 1.1-3.3h-0.3s-0.2 0-0.3 0c-0.7 0-1.3-0.2-1.8-0.6s-0.8-1-0.8-1.9 0.3-1.4 0.8-1.9c0.5-0.4 1.2-0.6 1.9-0.6 1 0 1.7 0.4 2.2 1.1s0.8 1.8 0.8 3.1c0 2-0.5 3.6-1.5 4.9-1.2 1.5-2.6 2.5-4.4 3.2z"/>
 <path class="st1" d="m876.9 400.1c-2.1 0-3.8-0.7-5.1-2.2s-1.9-3.6-1.9-6.2c0-1.8 0.3-3.3 1-4.5 0.7-1.3 1.6-2.3 2.7-2.9 1.1-0.7 2.3-1 3.6-1 1 0 1.9 0.2 2.6 0.5 0.8 0.4 1.5 0.9 2.2 1.5h0.1l-0.1-3v-6.3h2.7v23.7h-2.3l-0.2-2.1h-0.1c-0.7 0.7-1.5 1.3-2.4 1.8-0.8 0.5-1.8 0.7-2.8 0.7zm0.6-2.3c1.6 0 3.1-0.8 4.6-2.4v-8.1c-0.7-0.7-1.4-1.2-2.1-1.5s-1.4-0.4-2.1-0.4c-0.9 0-1.8 0.3-2.5 0.8-0.8 0.5-1.4 1.2-1.8 2.2-0.5 0.9-0.7 2-0.7 3.2 0 1.9 0.4 3.4 1.3 4.5 0.6 1.2 1.8 1.7 3.3 1.7z"/>
 <path class="st1" d="m897.9 388.2c-0.8 0-1.4-0.3-1.9-0.8s-0.8-1.2-0.8-2 0.3-1.5 0.8-2 1.2-0.8 1.9-0.8c0.8 0 1.4 0.3 1.9 0.8s0.8 1.2 0.8 2-0.3 1.5-0.8 2c-0.6 0.5-1.2 0.8-1.9 0.8zm0 11.9c-0.8 0-1.4-0.3-1.9-0.8s-0.8-1.2-0.8-2 0.3-1.5 0.8-2 1.2-0.8 1.9-0.8c0.8 0 1.4 0.3 1.9 0.8s0.8 1.2 0.8 2-0.3 1.5-0.8 2-1.2 0.8-1.9 0.8z"/>
 <path class="st1" d="m932.3 399.7v-21.8h2.7v19.5h10.8v2.4h-13.5v-0.1z"/>
 <path class="st1" d="m956 400.1c-1 0-1.9-0.2-2.7-0.5-0.8-0.4-1.5-0.9-2-1.6s-0.7-1.5-0.7-2.5c0-1.2 0.4-2.2 1.2-3s2-1.5 3.8-1.9c1.7-0.5 4-0.8 6.8-1.1 0-0.7-0.2-1.4-0.4-2-0.3-0.6-0.7-1.1-1.3-1.5s-1.5-0.6-2.5-0.6-2.1 0.2-3 0.6c-1 0.4-1.9 0.8-2.6 1.3l-1.1-1.9c0.8-0.5 1.9-1.1 3.1-1.6 1.3-0.5 2.6-0.8 4-0.8 2.2 0 3.9 0.6 4.9 1.8 1.1 1.2 1.6 2.8 1.6 4.8v9.9h-2.2l-0.2-2.2h-0.1c-0.9 0.7-1.9 1.3-3 1.8s-2.5 1-3.6 1zm0.7-2.2c0.9 0 1.8-0.2 2.7-0.6s1.8-1 2.7-1.8v-4.3c-2.3 0.2-4.1 0.4-5.4 0.8s-2.3 0.8-2.8 1.4c-0.5 0.5-0.8 1.2-0.8 1.9 0 0.9 0.4 1.6 1.1 2s1.6 0.6 2.5 0.6z"/>
 <path class="st1" d="M970.1,399.7v-1.5l11.1-12.5h-9.9v-2.2h13.8v1.5L974,397.5h11.4v2.2H970.1z"/>
 <path class="st1" d="m992.1 406.7c-0.8 0-1.5-0.1-2.1-0.3l0.6-2.2c0.2 0.1 0.5 0.1 0.7 0.2 0.3 0 0.5 0.1 0.7 0.1 1.1 0 2.1-0.3 2.8-1s1.3-1.5 1.7-2.5l0.5-1.2-7.6-16.2h2.8l4 9c0.3 0.7 0.6 1.5 1 2.3s0.7 1.6 1 2.4h0.1c0.3-0.8 0.6-1.6 0.9-2.4s0.6-1.6 0.8-2.3l3.5-9h2.6l-7.1 17.5c-0.4 1.1-0.9 2-1.5 2.9-0.6 0.8-1.3 1.5-2.2 2-1 0.4-2 0.7-3.2 0.7z"/>
 <path class="st1" d="m1024 398.1-12.4-8.4v-2.1l12.4-8.4v2.6l-10 6.8v0.1l10 6.8v2.6z"/>
 <path class="st1" d="m1030 399.7v-21.8h3.4l3.1 9.3 1.1 3.5h0.1l1-3.5 3.1-9.3h3.4v21.8h-2.7v-10.9c0-0.7 0-1.5 0.1-2.5s0.1-1.9 0.2-2.9c0.1-0.9 0.1-1.7 0.2-2.3h-0.1l-1.2 4.3-3.1 8.6h-2l-3.1-8.6-1.3-4.3h-0.1c0.1 0.6 0.1 1.4 0.2 2.3s0.1 1.9 0.2 2.9 0.1 1.8 0.1 2.5v10.9h-2.6z"/>
 <path class="st1" d="m1052 406.7c-0.8 0-1.5-0.1-2.1-0.3l0.6-2.2c0.2 0.1 0.5 0.1 0.7 0.2 0.3 0 0.5 0.1 0.7 0.1 1.1 0 2.1-0.3 2.8-1s1.3-1.5 1.7-2.5l0.5-1.2-7.6-16.2h2.8l4 9c0.3 0.7 0.6 1.5 1 2.3s0.7 1.6 1 2.4h0.1c0.3-0.8 0.6-1.6 0.9-2.4s0.6-1.6 0.8-2.3l3.5-9h2.6l-7.1 17.5c-0.4 1.1-0.9 2-1.5 2.9-0.6 0.8-1.3 1.5-2.2 2-1 0.4-2 0.7-3.2 0.7z"/>
 <path class="st1" d="m1076 399.7v-19.5h-7.2v-2.3h17.1v2.3h-7.2v19.5h-2.7z"/>
 <path class="st1" d="m1092 406.7c-0.8 0-1.5-0.1-2.1-0.3l0.6-2.2c0.2 0.1 0.5 0.1 0.7 0.2 0.3 0 0.5 0.1 0.7 0.1 1.1 0 2.1-0.3 2.8-1s1.3-1.5 1.7-2.5l0.5-1.2-7.6-16.2h2.8l4 9c0.3 0.7 0.6 1.5 1 2.3s0.7 1.6 1 2.4h0.1c0.3-0.8 0.6-1.6 0.9-2.4s0.6-1.6 0.8-2.3l3.5-9h2.6l-7.1 17.5c-0.4 1.1-0.9 2-1.5 2.9-0.6 0.8-1.3 1.5-2.2 2-0.9 0.4-2 0.7-3.2 0.7z"/>
 <path class="st1" d="m1111 406.5v-23h2.3l0.2 2.1h0.1c0.8-0.7 1.6-1.3 2.6-1.8s2-0.7 3-0.7c2.2 0 3.8 0.7 5 2.2s1.7 3.5 1.7 6c0 1.8-0.3 3.4-1 4.7s-1.6 2.3-2.7 3-2.3 1-3.6 1c-0.8 0-1.6-0.2-2.4-0.5-0.9-0.4-1.7-0.9-2.4-1.5h-0.1l0.1 3.1v5.5h-2.8v-0.1zm7.1-8.7c1.4 0 2.6-0.6 3.6-1.7 0.9-1.1 1.4-2.7 1.4-4.7 0-1.8-0.4-3.2-1.1-4.3s-1.9-1.6-3.5-1.6c-0.7 0-1.5 0.2-2.3 0.6s-1.6 1-2.5 1.8v8.1c0.8 0.7 1.6 1.2 2.3 1.5 0.8 0.2 1.5 0.3 2.1 0.3z"/>
 <path class="st1" d="m1138 400.1c-1.6 0-3.1-0.3-4.4-1s-2.4-1.6-3.1-2.9c-0.8-1.3-1.2-2.8-1.2-4.6s0.4-3.3 1.2-4.5 1.8-2.2 3-2.9 2.6-1 4-1c2.3 0 4.1 0.7 5.4 2.1s1.9 3.2 1.9 5.5v0.9s-0.1 0.5-0.1 0.8h-12.7c0.2 1.8 0.8 3.2 2 4.1s2.6 1.4 4.3 1.4c1 0 1.9-0.1 2.6-0.4 0.8-0.3 1.5-0.6 2.3-1.1l1 1.8c-0.8 0.5-1.7 1-2.7 1.4-1.1 0.2-2.2 0.4-3.5 0.4zm-0.4-14.8c-1.3 0-2.5 0.4-3.6 1.3-1 0.9-1.7 2.1-1.9 3.7h10.3c-0.1-1.7-0.6-2.9-1.5-3.7s-2-1.3-3.3-1.3z"/>
 <path class="st1" d="m1151 398.1v-2.6l10-6.8v-0.1l-10-6.8v-2.6l12.4 8.4v2.1l-12.4 8.4z"/>
 <path class="st1" d="m791.3 444.7v-1.6h1.7c1.1 0 2-0.1 2.6-0.3s1-0.5 1.2-1 0.3-1 0.3-1.7c0-1 0-2-0.1-2.9s-0.1-2-0.1-3.1 0.2-1.9 0.6-2.5 1.2-0.9 2.4-1.1v-0.1c-1.2-0.2-1.9-0.6-2.4-1.1-0.4-0.6-0.6-1.4-0.6-2.5 0-1 0-2.1 0.1-3.1s0.1-2 0.1-2.9c0-0.7-0.1-1.3-0.3-1.8-0.2-0.4-0.6-0.8-1.2-1s-1.5-0.3-2.6-0.3h-1.7v-1.6h2c2.1 0 3.6 0.3 4.6 0.9s1.5 1.8 1.5 3.5c0 1.2 0 2.3-0.1 3.3s-0.2 2.1-0.2 3.1c0 0.4 0.1 0.8 0.4 1.2s0.7 0.7 1.4 1c0.7 0.2 1.7 0.4 3 0.4v1.7c-1.3 0-2.3 0.1-3 0.4s-1.2 0.6-1.4 1c-0.3 0.4-0.4 0.8-0.4 1.2 0 1.1 0 2.2 0.2 3.1 0.1 1 0.1 2.1 0.1 3.3 0 1.7-0.5 2.9-1.5 3.5s-2.5 0.9-4.6 0.9h-2v0.1z"/>
 <path class="st1" d="m790.4 586v-21.8h3.4l3.1 9.3 1.1 3.5h0.1l1-3.5 3.1-9.3h3.4v21.8h-2.7v-11c0-0.7 0-1.5 0.1-2.5s0.1-1.9 0.2-2.9c0.1-0.9 0.1-1.7 0.2-2.3h-0.1l-1.2 4.3-3.1 8.6h-2l-3.1-8.6-1.3-4.3h-0.1c0.1 0.6 0.1 1.4 0.2 2.3s0.1 1.9 0.2 2.9 0.1 1.8 0.1 2.5v11h-2.6z"/>
 <path class="st1" d="m812.4 592.9c-0.8 0-1.5-0.1-2.1-0.3l0.6-2.2c0.2 0.1 0.5 0.1 0.7 0.2 0.3 0 0.5 0.1 0.7 0.1 1.1 0 2.1-0.3 2.8-1s1.3-1.5 1.7-2.5l0.5-1.2-7.6-16.2h2.8l4 9c0.3 0.7 0.6 1.5 1 2.3 0.3 0.8 0.7 1.6 1 2.4h0.1c0.3-0.8 0.6-1.6 0.9-2.4s0.6-1.6 0.8-2.3l3.5-9h2.6l-7.1 17.5c-0.4 1.1-0.9 2-1.5 2.9-0.6 0.8-1.3 1.5-2.2 2-1 0.5-2 0.7-3.2 0.7z"/>
 <path class="st1" d="m836.6 586v-19.5h-7.2v-2.3h17.2v2.3h-7.2v19.5h-2.8z"/>
 <path class="st1" d="m852.3 592.9c-0.8 0-1.5-0.1-2.1-0.3l0.6-2.2c0.2 0.1 0.5 0.1 0.7 0.2 0.3 0 0.5 0.1 0.7 0.1 1.1 0 2.1-0.3 2.8-1s1.3-1.5 1.7-2.5l0.5-1.2-7.6-16.2h2.8l4 9c0.3 0.7 0.6 1.5 1 2.3 0.3 0.8 0.7 1.6 1 2.4h0.1c0.3-0.8 0.6-1.6 0.9-2.4s0.6-1.6 0.8-2.3l3.5-9h2.6l-7.1 17.5c-0.4 1.1-0.9 2-1.5 2.9-0.6 0.8-1.3 1.5-2.2 2s-2 0.7-3.2 0.7z"/>
 <path class="st1" d="m871 592.8v-23h2.3l0.2 2.1h0.1c0.8-0.7 1.6-1.3 2.6-1.8s2-0.7 3-0.7c2.2 0 3.8 0.7 5 2.2 1.1 1.5 1.7 3.5 1.7 6 0 1.8-0.3 3.4-1 4.7s-1.6 2.3-2.7 3-2.3 1-3.6 1c-0.8 0-1.6-0.2-2.4-0.5-0.9-0.4-1.7-0.9-2.4-1.5h-0.1l0.1 3.1v5.5l-2.8-0.1zm7.1-8.7c1.4 0 2.6-0.6 3.6-1.7s1.4-2.7 1.4-4.7c0-1.8-0.4-3.2-1.1-4.3s-1.9-1.6-3.5-1.6c-0.7 0-1.5 0.2-2.3 0.6s-1.6 1-2.5 1.8v8.1c0.8 0.7 1.6 1.2 2.3 1.5s1.5 0.3 2.1 0.3z"/>
 <path class="st1" d="m898.9 586.4c-1.6 0-3.1-0.3-4.4-1s-2.4-1.6-3.1-2.9c-0.8-1.3-1.2-2.8-1.2-4.6s0.4-3.3 1.2-4.5 1.8-2.2 3-2.9 2.6-1 4-1c2.3 0 4.1 0.7 5.4 2.1s1.9 3.2 1.9 5.5v0.9c0 0.3-0.1 0.5-0.1 0.8h-12.7c0.2 1.8 0.8 3.2 2 4.1s2.6 1.4 4.3 1.4c1 0 1.9-0.1 2.6-0.4 0.8-0.3 1.5-0.6 2.3-1.1l1 1.8c-0.8 0.5-1.7 1-2.7 1.4-1.1 0.2-2.2 0.4-3.5 0.4zm-0.4-14.8c-1.3 0-2.5 0.4-3.6 1.3-1 0.9-1.7 2.1-1.9 3.7h10.3c-0.1-1.7-0.6-2.9-1.5-3.7-0.9-0.9-2-1.3-3.3-1.3z"/>
 <path class="st2" d="m743.2 705.7c-1.1 0-2-0.9-2-2v-617c0-1.1 0.9-2 2-2s2 0.9 2 2v617c0 1.1-0.9 2-2 2z"/>
 <path class="st2" d="m1218 176.7h-858c-1.1 0-2-0.9-2-2s0.9-2 2-2h858c1.1 0 2 0.9 2 2s-0.9 2-2 2z"/>
 <path class="st2" d="m991.7 522.7h-632c-1.1 0-2-0.9-2-2s0.9-2 2-2h632c1.1 0 2 0.9 2 2s-0.9 2-2 2z"/>
 <path class="st1" d="m392.8 143.5c-2.5 0-5-0.4-7.3-1.1s-4.2-1.7-5.5-2.8l2.1-4.7c1.3 1 2.9 1.9 4.8 2.6s3.9 1 5.9 1c1.7 0 3.1-0.2 4.1-0.6 1.1-0.4 1.8-0.9 2.3-1.5s0.7-1.4 0.7-2.2c0-1-0.4-1.8-1.1-2.4s-1.6-1.1-2.8-1.4c-1.1-0.4-2.4-0.7-3.8-1s-2.8-0.7-4.1-1.1c-1.4-0.4-2.6-1-3.8-1.6-1.1-0.7-2.1-1.6-2.8-2.7s-1.1-2.5-1.1-4.3 0.5-3.4 1.4-4.9 2.4-2.7 4.3-3.5c1.9-0.9 4.4-1.3 7.4-1.3 2 0 3.9 0.2 5.8 0.7s3.6 1.2 5 2.1l-1.9 4.7c-1.5-0.9-3-1.5-4.5-1.9-1.6-0.4-3-0.6-4.5-0.6-1.7 0-3 0.2-4.1 0.6-1 0.4-1.8 0.9-2.3 1.6s-0.7 1.4-0.7 2.2c0 1 0.3 1.8 1 2.4s1.6 1.1 2.8 1.4c1.1 0.3 2.4 0.7 3.8 1s2.8 0.7 4.2 1.1 2.6 0.9 3.8 1.6 2.1 1.5 2.8 2.7c0.7 1.1 1 2.5 1 4.2s-0.5 3.3-1.4 4.8-2.4 2.7-4.4 3.5c-1.6 1-4.1 1.4-7.1 1.4z"/>
 <path class="st1" d="m408.2 123v-4.7h16.6v4.7h-16.6zm12.6 20.4c-2.7 0-4.8-0.7-6.3-2.1s-2.2-3.5-2.2-6.3v-22.3h5.8v22.2c0 1.2 0.3 2.1 0.9 2.8s1.5 1 2.5 1c1.3 0 2.4-0.3 3.3-1l1.6 4.1c-0.7 0.6-1.5 1-2.5 1.3-1 0.1-2 0.3-3.1 0.3z"/>
 <path class="st1" d="m441.6 143.4c-2.5 0-4.8-0.6-6.8-1.7s-3.6-2.6-4.7-4.5c-1.2-1.9-1.7-4.1-1.7-6.6s0.6-4.7 1.7-6.6 2.7-3.4 4.7-4.5 4.3-1.6 6.8-1.6c2.6 0 4.9 0.5 6.9 1.6s3.6 2.6 4.7 4.5 1.7 4.1 1.7 6.6-0.6 4.6-1.7 6.6c-1.1 1.9-2.7 3.4-4.7 4.5s-4.3 1.7-6.9 1.7zm0-5c1.4 0 2.7-0.3 3.8-0.9s2-1.5 2.6-2.7 1-2.6 1-4.1c0-1.6-0.3-3-1-4.2-0.6-1.2-1.5-2.1-2.6-2.7s-2.4-0.9-3.8-0.9-2.7 0.3-3.8 0.9-2 1.5-2.6 2.7c-0.7 1.2-1 2.6-1 4.2s0.3 3 1 4.1c0.7 1.2 1.5 2.1 2.6 2.7s2.4 0.9 3.8 0.9z"/>
 <path class="st1" d="m460.5 143.1v-24.9h5.5v6.9l-0.7-2c0.7-1.7 1.9-3 3.5-3.8 1.6-0.9 3.6-1.3 6-1.3v5.5c-0.2-0.1-0.5-0.1-0.7-0.1h-0.7c-2.2 0-4 0.6-5.3 1.9s-2 3.2-2 5.8v12.1h-5.6v-0.1z"/>
 <path class="st1" d="m485.6 143.4c-1.9 0-3.5-0.3-4.9-1s-2.5-1.5-3.2-2.7c-0.8-1.1-1.1-2.4-1.1-3.8s0.3-2.7 1-3.8 1.8-2 3.3-2.7 3.5-1 6.1-1h7.2v3.9h-6.8c-2 0-3.3 0.3-4 1-0.7 0.6-1 1.4-1 2.4 0 1.1 0.4 1.9 1.3 2.5 0.8 0.6 2 0.9 3.5 0.9 1.4 0 2.7-0.3 3.8-1s2-1.6 2.4-2.9l1 3.5c-0.6 1.5-1.6 2.6-3 3.4-1.6 0.9-3.4 1.3-5.6 1.3zm7.8-0.3v-5l-0.3-1.1v-8.8c0-1.7-0.5-3-1.5-4-1-0.9-2.6-1.4-4.7-1.4-1.4 0-2.8 0.2-4.1 0.7-1.4 0.4-2.5 1-3.4 1.8l-2.3-4.2c1.3-1 2.9-1.8 4.8-2.3 1.8-0.5 3.8-0.8 5.8-0.8 3.6 0 6.4 0.9 8.4 2.6s3 4.4 3 8v14.6l-5.7-0.1z"/>
 <path class="st1" d="m516.9 141.9c-2.4 0-4.5-0.5-6.4-1.5s-3.4-2.4-4.5-4.2-1.7-3.9-1.7-6.3 0.6-4.5 1.7-6.3 2.6-3.2 4.5-4.2 4-1.5 6.4-1.5c2.1 0 4 0.4 5.7 1.3 1.7 0.8 3 2.1 4 3.9s1.5 4 1.5 6.8-0.5 5-1.5 6.8-2.4 3.1-4 4c-1.7 0.8-3.6 1.2-5.7 1.2zm0.8 10.5c-2.3 0-4.5-0.3-6.7-0.9s-4-1.5-5.4-2.6l2.6-4.4c1.1 0.9 2.5 1.6 4.1 2.2 1.7 0.5 3.3 0.8 5.1 0.8 2.7 0 4.7-0.6 6-1.9s1.9-3.1 1.9-5.7v-4.4l0.5-5.6-0.2-5.6v-6.1h5.5v21.1c0 4.5-1.2 7.8-3.5 10-2.2 2.1-5.6 3.1-9.9 3.1zm0.1-15.4c1.5 0 2.8-0.3 3.9-0.9s2-1.4 2.7-2.5c0.6-1.1 1-2.3 1-3.7s-0.3-2.6-1-3.7c-0.6-1.1-1.5-1.9-2.7-2.5s-2.5-0.9-3.9-0.9c-1.5 0-2.8 0.3-3.9 0.9-1.2 0.6-2.1 1.4-2.7 2.5s-1 2.3-1 3.7 0.3 2.6 1 3.7c0.6 1.1 1.5 1.9 2.7 2.5 1.1 0.6 2.5 0.9 3.9 0.9z"/>
 <path class="st1" d="m550.5 143.4c-2.8 0-5.2-0.6-7.3-1.7s-3.7-2.6-4.8-4.5-1.7-4.1-1.7-6.6 0.6-4.7 1.7-6.6 2.6-3.4 4.6-4.5c1.9-1.1 4.2-1.6 6.6-1.6s4.6 0.5 6.5 1.6 3.4 2.5 4.5 4.5c1.1 1.9 1.6 4.2 1.6 6.8v0.8s0 0.6-0.1 0.9h-20.7v-3.9h17.7l-2.3 1.2c0-1.4-0.3-2.7-0.9-3.8s-1.5-1.9-2.5-2.6c-1.1-0.6-2.3-0.9-3.7-0.9s-2.7 0.3-3.8 0.9-1.9 1.5-2.5 2.6-0.9 2.4-0.9 3.9v0.9c0 1.5 0.3 2.8 1 4s1.6 2 2.9 2.7c1.2 0.6 2.7 0.9 4.3 0.9 1.4 0 2.7-0.2 3.8-0.7 1.1-0.4 2.1-1.1 3-2.1l3.1 3.6c-1.1 1.3-2.5 2.3-4.2 3-1.8 0.8-3.8 1.2-5.9 1.2z"/>
 <path class="st1" d="m596.3 143.5c-2.5 0-4.8-0.4-6.9-1.2s-4-2-5.5-3.5c-1.6-1.5-2.8-3.3-3.7-5.3-0.9-2.1-1.3-4.3-1.3-6.7s0.4-4.7 1.3-6.7c0.9-2.1 2.1-3.8 3.7-5.3s3.4-2.7 5.5-3.5 4.4-1.2 6.9-1.2c2.7 0 5.1 0.5 7.3 1.4s4.1 2.3 5.6 4.1l-3.9 3.7c-1.2-1.3-2.5-2.2-4-2.9-1.5-0.6-3-1-4.8-1-1.7 0-3.3 0.3-4.7 0.8-1.4 0.6-2.6 1.4-3.7 2.4-1 1-1.8 2.2-2.4 3.6s-0.9 2.9-0.9 4.6 0.3 3.2 0.9 4.6 1.4 2.6 2.4 3.6 2.3 1.8 3.7 2.4 3 0.8 4.7 0.8 3.3-0.3 4.8-1c1.5-0.6 2.8-1.6 4-2.9l3.9 3.7c-1.5 1.8-3.4 3.1-5.6 4.1-2.1 1-4.6 1.4-7.3 1.4z"/>
 <path class="st1" d="m625.3 143.4c-2.8 0-5.2-0.6-7.3-1.7s-3.7-2.6-4.8-4.5-1.7-4.1-1.7-6.6 0.6-4.7 1.7-6.6 2.6-3.4 4.6-4.5c1.9-1.1 4.2-1.6 6.6-1.6s4.6 0.5 6.5 1.6 3.4 2.5 4.5 4.5c1.1 1.9 1.6 4.2 1.6 6.8v0.8s0 0.6-0.1 0.9h-20.7v-3.9h17.7l-2.3 1.2c0-1.4-0.3-2.7-0.9-3.8s-1.5-1.9-2.5-2.6c-1.1-0.6-2.3-0.9-3.7-0.9s-2.7 0.3-3.8 0.9-1.9 1.5-2.5 2.6-0.9 2.4-0.9 3.9v0.9c0 1.5 0.3 2.8 1 4s1.6 2 2.9 2.7c1.2 0.6 2.7 0.9 4.3 0.9 1.4 0 2.7-0.2 3.8-0.7 1.1-0.4 2.1-1.1 3-2.1l3.1 3.6c-1.1 1.3-2.5 2.3-4.2 3-1.8 0.8-3.7 1.2-5.9 1.2z"/>
 <path class="st1" d="m642.6 143.1v-34.6h5.8v34.6h-5.8z"/>
 <path class="st1" d="m656.1 143.1v-34.6h5.8v34.6h-5.8z"/>
 <path class="st2" d="m1095 547.5v-24.3h4v4.2l-0.1 4.7 0.3 4.7v10.6l-4.2 0.1zm9.9-6.2c-1.4 0-2.8-0.3-4-1s-2.1-1.7-2.8-3-1.1-3.1-1.1-5.1c0-2.1 0.3-3.8 1-5.1s1.6-2.3 2.8-3 2.5-1 4-1c1.8 0 3.3 0.4 4.7 1.1 1.3 0.8 2.4 1.8 3.2 3.2s1.2 3 1.2 4.8-0.4 3.5-1.2 4.8c-0.8 1.4-1.9 2.4-3.2 3.2-1.3 0.7-2.8 1.1-4.6 1.1zm-0.5-3.6c1 0 1.9-0.2 2.7-0.7 0.8-0.4 1.4-1.1 1.9-1.9s0.7-1.8 0.7-3-0.2-2.2-0.7-3-1.1-1.5-1.9-1.9-1.7-0.7-2.7-0.7-1.9 0.2-2.7 0.7c-0.8 0.4-1.4 1.1-1.9 1.9s-0.7 1.8-0.7 3c0 1.1 0.2 2.1 0.7 3 0.5 0.8 1.1 1.5 1.9 1.9 0.8 0.5 1.7 0.7 2.7 0.7z"/>
 <path class="st2" d="m1126 541.3c-1.8 0-3.4-0.4-4.9-1.2s-2.5-1.9-3.4-3.3c-0.8-1.4-1.2-2.9-1.2-4.7s0.4-3.4 1.2-4.7c0.8-1.4 1.9-2.4 3.4-3.2 1.4-0.8 3-1.2 4.9-1.2 1.8 0 3.5 0.4 4.9 1.2s2.6 1.8 3.4 3.2 1.2 2.9 1.2 4.7-0.4 3.3-1.2 4.7-1.9 2.5-3.4 3.3c-1.4 0.8-3.1 1.2-4.9 1.2zm0-3.6c1 0 1.9-0.2 2.7-0.7 0.8-0.4 1.4-1.1 1.9-1.9s0.7-1.8 0.7-3-0.2-2.2-0.7-3-1.1-1.5-1.9-1.9-1.7-0.7-2.7-0.7-1.9 0.2-2.7 0.7c-0.8 0.4-1.4 1.1-1.9 1.9s-0.7 1.8-0.7 3c0 1.1 0.2 2.1 0.7 3s1.1 1.5 1.9 1.9c0.8 0.5 1.7 0.7 2.7 0.7z"/>
 <path class="st2" d="m1141 520.3c-0.8 0-1.4-0.2-1.9-0.7s-0.8-1.1-0.8-1.8 0.2-1.3 0.8-1.8c0.5-0.5 1.1-0.7 1.9-0.7s1.4 0.2 1.9 0.7 0.8 1 0.8 1.7-0.2 1.4-0.7 1.9-1.2 0.7-2 0.7zm-2.1 20.8v-17.8h4.2v17.8h-4.2z"/>
 <path class="st2" d="m1159 523c1.4 0 2.7 0.3 3.8 0.8 1.1 0.6 2 1.4 2.7 2.6 0.6 1.1 1 2.6 1 4.4v10.2h-4.2v-9.7c0-1.6-0.4-2.8-1.1-3.5-0.7-0.8-1.8-1.2-3.1-1.2-1 0-1.8 0.2-2.6 0.6s-1.3 1-1.8 1.8-0.6 1.8-0.6 3v9h-4.2v-17.8h4v4.8l-0.7-1.5c0.6-1.1 1.5-2 2.7-2.6 1.2-0.5 2.6-0.9 4.1-0.9z"/>
 <path class="st2" d="m1169 526.7v-3.3h11.9v3.3h-11.9zm9.1 14.6c-2 0-3.5-0.5-4.5-1.5-1.1-1-1.6-2.5-1.6-4.5v-16h4.2v15.9c0 0.8 0.2 1.5 0.7 2s1 0.7 1.8 0.7c0.9 0 1.7-0.2 2.3-0.7l1.2 3c-0.5 0.4-1.1 0.7-1.8 0.9-0.8 0.1-1.6 0.2-2.3 0.2z"/>
 <path class="st2" d="m1193 541.3c-2 0-3.7-0.4-5.2-1.2s-2.6-1.9-3.4-3.3-1.2-2.9-1.2-4.7 0.4-3.4 1.2-4.7c0.8-1.4 1.9-2.4 3.3-3.2s3-1.2 4.8-1.2c1.7 0 3.3 0.4 4.6 1.1 1.4 0.8 2.4 1.8 3.2 3.2s1.2 3 1.2 4.9v0.6 0.6h-14.8v-2.8h12.6l-1.6 0.9c0-1-0.2-1.9-0.6-2.7s-1-1.4-1.8-1.8-1.7-0.7-2.7-0.7-1.9 0.2-2.7 0.7c-0.8 0.4-1.4 1.1-1.8 1.9s-0.7 1.7-0.7 2.8v0.7c0 1.1 0.2 2 0.7 2.8s1.2 1.5 2.1 1.9 1.9 0.7 3.1 0.7c1 0 1.9-0.2 2.7-0.5s1.5-0.8 2.1-1.5l2.2 2.6c-0.8 0.9-1.8 1.7-3 2.2-1.4 0.4-2.7 0.7-4.3 0.7z"/>
 <path class="st2" d="m1206 541.1v-17.8h4v4.9l-0.5-1.4c0.5-1.2 1.4-2.1 2.5-2.7s2.6-0.9 4.3-0.9v4c-0.2 0-0.3-0.1-0.5-0.1h-0.5c-1.6 0-2.8 0.5-3.8 1.4-0.9 0.9-1.4 2.3-1.4 4.1v8.6l-4.1-0.1z"/>
 <path class="st2" d="m1092 566.7v-3.3h11.8v3.3h-11.8zm9 14.6c-2 0-3.5-0.5-4.5-1.5-1.1-1-1.6-2.5-1.6-4.5v-16h4.2v15.9c0 0.8 0.2 1.5 0.7 2s1 0.7 1.8 0.7c0.9 0 1.7-0.2 2.3-0.7l1.2 3c-0.5 0.4-1.1 0.7-1.8 0.9-0.8 0.1-1.5 0.2-2.3 0.2z"/>
 <path class="st2" d="m1116 581.3c-1.8 0-3.4-0.4-4.9-1.2s-2.5-1.9-3.4-3.3c-0.8-1.4-1.2-2.9-1.2-4.7s0.4-3.4 1.2-4.7c0.8-1.4 1.9-2.4 3.4-3.2 1.4-0.8 3-1.2 4.9-1.2 1.8 0 3.5 0.4 4.9 1.2s2.6 1.8 3.4 3.2 1.2 2.9 1.2 4.7-0.4 3.3-1.2 4.7-1.9 2.5-3.4 3.3c-1.4 0.8-3.1 1.2-4.9 1.2zm0-3.6c1 0 1.9-0.2 2.7-0.7 0.8-0.4 1.4-1.1 1.9-1.9s0.7-1.8 0.7-3-0.2-2.2-0.7-3-1.1-1.5-1.9-1.9-1.7-0.7-2.7-0.7-1.9 0.2-2.7 0.7c-0.8 0.4-1.4 1.1-1.9 1.9s-0.7 1.8-0.7 3c0 1.1 0.2 2.1 0.7 3s1.1 1.5 1.9 1.9c0.8 0.5 1.7 0.7 2.7 0.7z"/>
 <path class="st2" d="m1149 563.1c1.4 0 2.7 0.3 3.8 0.8 1.1 0.6 2 1.4 2.7 2.6 0.6 1.1 1 2.6 1 4.4v10.2h-4.2v-9.7c0-1.6-0.4-2.8-1.1-3.5-0.7-0.8-1.8-1.2-3.1-1.2-1 0-1.8 0.2-2.6 0.6s-1.3 1-1.8 1.8-0.6 1.8-0.6 3v9h-4.2v-24.7h4.2v11.7l-0.9-1.5c0.6-1.1 1.5-2 2.7-2.6s2.5-0.9 4.1-0.9z"/>
 <path class="st2" d="m1170 581.3c-2 0-3.7-0.4-5.2-1.2s-2.6-1.9-3.4-3.3-1.2-2.9-1.2-4.7 0.4-3.4 1.2-4.7c0.8-1.4 1.9-2.4 3.3-3.2s3-1.2 4.8-1.2c1.7 0 3.3 0.4 4.6 1.1 1.4 0.8 2.4 1.8 3.2 3.2s1.2 3 1.2 4.9v0.6 0.6h-14.8v-2.8h12.6l-1.6 0.9c0-1-0.2-1.9-0.6-2.7s-1-1.4-1.8-1.8-1.7-0.7-2.7-0.7-1.9 0.2-2.7 0.7c-0.8 0.4-1.4 1.1-1.8 1.9s-0.7 1.7-0.7 2.8v0.7c0 1.1 0.2 2 0.7 2.8s1.2 1.5 2.1 1.9 1.9 0.7 3.1 0.7c1 0 1.9-0.2 2.7-0.5s1.5-0.8 2.1-1.5l2.2 2.6c-0.8 0.9-1.8 1.7-3 2.2-1.3 0.5-2.7 0.7-4.3 0.7z"/>
 <path class="st2" d="m1182 581.1v-17.8h4v4.9l-0.5-1.4c0.5-1.2 1.4-2.1 2.5-2.7s2.6-0.9 4.3-0.9v4c-0.2 0-0.3-0.1-0.5-0.1h-0.5c-1.6 0-2.8 0.5-3.8 1.4-0.9 0.9-1.4 2.3-1.4 4.1v8.6l-4.1-0.1z"/>
 <path class="st2" d="m1204 581.3c-2 0-3.7-0.4-5.2-1.2s-2.6-1.9-3.4-3.3-1.2-2.9-1.2-4.7 0.4-3.4 1.2-4.7c0.8-1.4 1.9-2.4 3.3-3.2s3-1.2 4.8-1.2c1.7 0 3.3 0.4 4.6 1.1 1.4 0.8 2.4 1.8 3.2 3.2s1.2 3 1.2 4.9v0.6 0.6h-14.8v-2.8h12.6l-1.6 0.9c0-1-0.2-1.9-0.6-2.7s-1-1.4-1.8-1.8-1.7-0.7-2.7-0.7-1.9 0.2-2.7 0.7c-0.8 0.4-1.4 1.1-1.8 1.9s-0.7 1.7-0.7 2.8v0.7c0 1.1 0.2 2 0.7 2.8s1.2 1.5 2.1 1.9 1.9 0.7 3.1 0.7c1 0 1.9-0.2 2.7-0.5s1.5-0.8 2.1-1.5l2.2 2.6c-0.8 0.9-1.8 1.7-3 2.2-1.3 0.5-2.7 0.7-4.3 0.7z"/>
 <path class="st1" d="m801.2 143.5c-2.5 0-5-0.4-7.3-1.1s-4.2-1.7-5.5-2.8l2.1-4.7c1.3 1 2.9 1.9 4.8 2.6s3.9 1 5.9 1c1.7 0 3.1-0.2 4.1-0.6s1.8-0.9 2.3-1.5 0.7-1.4 0.7-2.2c0-1-0.4-1.8-1.1-2.4s-1.6-1.1-2.8-1.4c-1.1-0.4-2.4-0.7-3.8-1s-2.8-0.7-4.1-1.1c-1.4-0.4-2.6-1-3.8-1.6s-2.1-1.6-2.8-2.7-1.1-2.5-1.1-4.3 0.5-3.4 1.4-4.9 2.4-2.7 4.3-3.5c1.9-0.9 4.4-1.3 7.4-1.3 2 0 3.9 0.2 5.8 0.7s3.6 1.2 5 2.1l-1.9 4.7c-1.5-0.9-3-1.5-4.5-1.9-1.6-0.4-3-0.6-4.5-0.6-1.7 0-3 0.2-4.1 0.6-1 0.4-1.8 0.9-2.3 1.6s-0.7 1.4-0.7 2.2c0 1 0.3 1.8 1 2.4s1.6 1.1 2.8 1.4c1.1 0.3 2.4 0.7 3.8 1s2.8 0.7 4.2 1.1 2.6 0.9 3.8 1.6 2.1 1.5 2.8 2.7c0.7 1.1 1 2.5 1 4.2s-0.5 3.3-1.4 4.8-2.4 2.7-4.4 3.5c-1.7 1-4.1 1.4-7.1 1.4z"/>
 <path class="st1" d="m816.5 123v-4.7h16.6v4.7h-16.6zm12.7 20.4c-2.7 0-4.8-0.7-6.3-2.1s-2.2-3.5-2.2-6.3v-22.3h5.8v22.2c0 1.2 0.3 2.1 0.9 2.8s1.5 1 2.5 1c1.3 0 2.4-0.3 3.3-1l1.6 4.1c-0.7 0.6-1.5 1-2.5 1.3-1 0.1-2 0.3-3.1 0.3z"/>
 <path class="st1" d="m850 143.4c-2.5 0-4.8-0.6-6.8-1.7s-3.6-2.6-4.7-4.5c-1.2-1.9-1.7-4.1-1.7-6.6s0.6-4.7 1.7-6.6 2.7-3.4 4.7-4.5 4.3-1.6 6.8-1.6c2.6 0 4.9 0.5 6.9 1.6s3.6 2.6 4.7 4.5 1.7 4.1 1.7 6.6-0.6 4.6-1.7 6.6c-1.1 1.9-2.7 3.4-4.7 4.5-2.1 1.1-4.4 1.7-6.9 1.7zm0-5c1.4 0 2.7-0.3 3.8-0.9s2-1.5 2.6-2.7 1-2.6 1-4.1c0-1.6-0.3-3-1-4.2-0.6-1.2-1.5-2.1-2.6-2.7s-2.4-0.9-3.8-0.9-2.7 0.3-3.8 0.9-2 1.5-2.6 2.7c-0.7 1.2-1 2.6-1 4.2s0.3 3 1 4.1c0.7 1.2 1.5 2.1 2.6 2.7s2.4 0.9 3.8 0.9z"/>
 <path class="st1" d="m868.8 143.1v-24.9h5.5v6.9l-0.7-2c0.7-1.7 1.9-3 3.5-3.8 1.6-0.9 3.6-1.3 6-1.3v5.5c-0.2-0.1-0.5-0.1-0.7-0.1s-0.4 0-0.7 0c-2.2 0-4 0.6-5.3 1.9s-2 3.2-2 5.8v12.1h-5.6v-0.1z"/>
 <path class="st1" d="m893.9 143.4c-1.9 0-3.5-0.3-4.9-1-1.4-0.6-2.5-1.5-3.2-2.7-0.8-1.1-1.1-2.4-1.1-3.8s0.3-2.7 1-3.8 1.8-2 3.3-2.7 3.5-1 6.1-1h7.2v3.9h-6.8c-2 0-3.3 0.3-4 1-0.7 0.6-1 1.4-1 2.4 0 1.1 0.4 1.9 1.3 2.5 0.8 0.6 2 0.9 3.5 0.9 1.4 0 2.7-0.3 3.8-1s2-1.6 2.4-2.9l1 3.5c-0.6 1.5-1.6 2.6-3 3.4-1.5 0.9-3.4 1.3-5.6 1.3zm7.9-0.3v-5l-0.3-1.1v-8.8c0-1.7-0.5-3-1.5-4-1-0.9-2.6-1.4-4.7-1.4-1.4 0-2.8 0.2-4.1 0.7-1.4 0.4-2.5 1-3.4 1.8l-2.3-4.2c1.3-1 2.9-1.8 4.8-2.3 1.8-0.5 3.8-0.8 5.8-0.8 3.6 0 6.4 0.9 8.4 2.6s3 4.4 3 8v14.6l-5.7-0.1z"/>
 <path class="st1" d="m925.3 141.9c-2.4 0-4.5-0.5-6.4-1.5s-3.4-2.4-4.5-4.2-1.7-3.9-1.7-6.3 0.6-4.5 1.7-6.3 2.6-3.2 4.5-4.2 4-1.5 6.4-1.5c2.1 0 4 0.4 5.7 1.3 1.7 0.8 3 2.1 4 3.9s1.5 4 1.5 6.8-0.5 5-1.5 6.8-2.4 3.1-4 4c-1.7 0.8-3.6 1.2-5.7 1.2zm0.8 10.5c-2.3 0-4.5-0.3-6.7-0.9s-4-1.5-5.4-2.6l2.6-4.4c1.1 0.9 2.5 1.6 4.1 2.2 1.7 0.5 3.3 0.8 5.1 0.8 2.7 0 4.7-0.6 6-1.9s1.9-3.1 1.9-5.7v-4.4l0.5-5.6-0.2-5.6v-6.1h5.5v21.1c0 4.5-1.2 7.8-3.5 10-2.3 2.1-5.6 3.1-9.9 3.1zm0.1-15.4c1.5 0 2.8-0.3 3.9-0.9s2-1.4 2.7-2.5c0.6-1.1 1-2.3 1-3.7s-0.3-2.6-1-3.7c-0.6-1.1-1.5-1.9-2.7-2.5s-2.5-0.9-3.9-0.9-2.8 0.3-3.9 0.9c-1.2 0.6-2.1 1.4-2.7 2.5s-1 2.3-1 3.7 0.3 2.6 1 3.7c0.6 1.1 1.5 1.9 2.7 2.5s2.4 0.9 3.9 0.9z"/>
 <path class="st1" d="m958.8 143.4c-2.8 0-5.2-0.6-7.2-1.7-2.1-1.1-3.7-2.6-4.8-4.5s-1.7-4.1-1.7-6.6 0.6-4.7 1.7-6.6 2.6-3.4 4.6-4.5c1.9-1.1 4.2-1.6 6.6-1.6s4.6 0.5 6.5 1.6 3.4 2.5 4.5 4.5c1.1 1.9 1.6 4.2 1.6 6.8v0.8s0 0.6-0.1 0.9h-20.7v-3.9h17.7l-2.3 1.2c0-1.4-0.3-2.7-0.9-3.8s-1.5-1.9-2.5-2.6c-1.1-0.6-2.3-0.9-3.7-0.9s-2.7 0.3-3.8 0.9-1.9 1.5-2.5 2.6-0.9 2.4-0.9 3.9v0.9c0 1.5 0.3 2.8 1 4s1.6 2 2.9 2.7c1.2 0.6 2.7 0.9 4.3 0.9 1.4 0 2.7-0.2 3.8-0.7 1.1-0.4 2.1-1.1 3-2.1l3.1 3.6c-1.1 1.3-2.5 2.3-4.2 3-1.9 0.8-3.8 1.2-6 1.2z"/>
 <path class="st1" d="m999.2 143.1-14.3-32.6h6.6l12.7 29.5h-3.8l12.9-29.5h6.1l-14.2 32.6h-6z"/>
 <path class="st1" d="m1028 143.4c-1.9 0-3.5-0.3-4.9-1s-2.5-1.5-3.2-2.7c-0.8-1.1-1.1-2.4-1.1-3.8s0.3-2.7 1-3.8 1.8-2 3.3-2.7 3.5-1 6.1-1h7.2v3.9h-6.8c-2 0-3.3 0.3-4 1-0.7 0.6-1 1.4-1 2.4 0 1.1 0.4 1.9 1.3 2.5 0.8 0.6 2 0.9 3.5 0.9 1.4 0 2.7-0.3 3.8-1s2-1.6 2.4-2.9l1 3.5c-0.6 1.5-1.6 2.6-3 3.4-1.5 0.9-3.4 1.3-5.6 1.3zm7.9-0.3v-5l-0.3-1.1v-8.8c0-1.7-0.5-3-1.5-4-1-0.9-2.6-1.4-4.7-1.4-1.4 0-2.8 0.2-4.1 0.7-1.4 0.4-2.5 1-3.4 1.8l-2.3-4.2c1.3-1 2.9-1.8 4.8-2.3 1.8-0.5 3.8-0.8 5.8-0.8 3.6 0 6.4 0.9 8.4 2.6s3 4.4 3 8v14.6l-5.7-0.1z"/>
 <path class="st1" d="m1049 143.1v-34.6h5.8v34.6h-5.8z"/>
 <path class="st1" d="m1073 143.4c-2.1 0-4-0.4-5.6-1.2s-2.9-2-3.8-3.6-1.4-3.7-1.4-6.2v-14.2h5.8v13.4c0 2.2 0.5 3.9 1.5 5s2.4 1.7 4.3 1.7c1.4 0 2.6-0.3 3.6-0.8 1-0.6 1.8-1.4 2.4-2.5s0.9-2.5 0.9-4.1v-12.6h5.8v24.9h-5.5v-6.7l1 2.1c-0.8 1.6-2.1 2.9-3.7 3.7-1.6 0.7-3.3 1.1-5.3 1.1z"/>
 <path class="st1" d="m1106 143.4c-2.8 0-5.2-0.6-7.3-1.7s-3.7-2.6-4.8-4.5-1.7-4.1-1.7-6.6 0.6-4.7 1.7-6.6 2.6-3.4 4.6-4.5c1.9-1.1 4.2-1.6 6.6-1.6s4.6 0.5 6.5 1.6 3.4 2.5 4.5 4.5c1.1 1.9 1.6 4.2 1.6 6.8v0.8s0 0.6-0.1 0.9h-20.8v-3.9h17.7l-2.3 1.2c0-1.4-0.3-2.7-0.9-3.8s-1.5-1.9-2.5-2.6c-1.1-0.6-2.3-0.9-3.7-0.9s-2.7 0.3-3.8 0.9-1.9 1.5-2.5 2.6-0.9 2.4-0.9 3.9v0.9c0 1.5 0.3 2.8 1 4s1.6 2 2.9 2.7c1.2 0.6 2.7 0.9 4.3 0.9 1.4 0 2.7-0.2 3.8-0.7 1.1-0.4 2.1-1.1 3-2.1l3.1 3.6c-1.1 1.3-2.5 2.3-4.2 3s-3.7 1.2-5.8 1.2z"/>
 <path class="st2" d="m1099 457.7c-7.1 2.8-12 15-8.7 21.9s12.1 3.4 16-6.3c3.8-9.8-0.2-18.5-7.3-15.6z"/>
 <path class="st2" d="m1082 491.2c-9.6 1.4-18.9 14.8-16.7 24.3s14.1 7.7 21.6-3c7.3-10.9 4.7-22.7-4.9-21.3z"/>
 <path class="st2" d="m1055 528.7c-10.7 0.1-23.2 13.7-22.5 24.4s14.1 10.5 24.1-0.3c10-10.9 9.1-24.3-1.6-24.1z"/>
 <path class="st2" d="m1001 566.1-13.9-18.7c-0.9-1.2-0.7-2.9 0.5-3.8 10.2-7.6 53.5-42.5 72-99.8 1.4-4.5 6.3-6.8 10.7-5.1l24.9 9.8c2.3 0.9 2.3 4.1 0 5.1-11.2 4.7-14.3 19.1-11.2 28.2 0.6 1.7-0.6 3.5-2.4 3.6-11.9 1-26.5 17.3-20.9 34 0.6 2-1.1 3.9-3.1 3.5-17.2-3.6-32.7 16.6-32.2 29.1 0.1 2-0.9 3.8-2.6 4.8-6.5 4.1-12.9 7.7-18.5 10.2-1.2 0.5-2.5 0.1-3.3-0.9z"/>
 <path class="st2" d="m969.3 573.8 5.1-35.4c0.5-3.3 4.7-4.5 6.8-1.8l30.5 38.4c2.1 2.6 0 6.5-3.3 6.2l-35.6-3c-2.2-0.2-3.8-2.2-3.5-4.4z"/>
</svg>
