<svg width="1628" height="800.8" data-name="Layer 1" version="1.1" viewBox="0 0 1628 800.8" xmlns="http://www.w3.org/2000/svg">
 <defs>
  <style>.cls-1, .cls-2, .cls-3 {
        fill: none;
      }

      .cls-4 {
        clip-path: url(#a);
      }

      .cls-5 {
        fill: #fff;
      }

      .cls-6 {
        fill: #bc83fb;
      }

      .cls-7 {
        fill: #d8b7fb;
      }

      .cls-8 {
        fill: #242526;
      }

      .cls-2 {
        stroke: #bc83fb;
      }

      .cls-2, .cls-3 {
        stroke-linecap: round;
        stroke-miterlimit: 10;
        stroke-width: 4px;
      }

      .cls-3 {
        stroke: #8747cc;
      }</style>
  <clipPath id="a">
   <path class="cls-1" d="m324.3 296.8v197.3c0 42.56-221.7 42.56-221.7 0v-197.3c0-36.79 221.7-36.79 221.7 0z"/>
  </clipPath>
 </defs>
 <rect class="cls-8" width="1628" height="800.8" stroke-width="1.008"/>
 <path d="m324.3 484.5-110.8 41.52c130.6 6.23 203.3-29.21 110.8-41.52z"/>
 <path class="cls-6" d="m324.3 296.8v197.3c0 42.56-221.7 42.56-221.7 0v-197.3c0-36.79 221.7-36.79 221.7 0z"/>
 <path class="cls-7" d="m324.3 296.8c0 33.22-221.7 33.22-221.7 0 0-36.79 221.7-36.79 221.7 0z"/>
 <g class="cls-4" clip-path="url(#a)">
  <path class="cls-3" d="m326.3 364.7c0 33.23-225.7 33.23-225.7 0"/>
  <path class="cls-3" d="m326.3 432.6c0 33.23-225.7 33.23-225.7 0"/>
 </g>
 <path class="cls-5" d="m120.3 424.5v-26.96c4.85 1 7.28 1.47 12.14 2.34 2.91 0.52 5.47 1.51 7.7 2.99 2.22 1.48 3.96 3.3 5.22 5.49 1.25 2.19 1.88 4.66 1.88 7.4s-0.63 5-1.88 6.83-2.99 3.13-5.22 3.89c-2.22 0.76-4.79 0.88-7.7 0.36-4.87-0.87-7.3-1.34-12.14-2.34zm6.18-3.89c2.26 0.44 3.39 0.65 5.66 1.05 1.79 0.32 3.34 0.25 4.65-0.21 1.32-0.46 2.34-1.26 3.07-2.4s1.09-2.56 1.09-4.25-0.36-3.26-1.09-4.62-1.75-2.49-3.07-3.4c-1.32-0.9-2.87-1.51-4.65-1.83-2.26-0.41-3.4-0.62-5.66-1.05v16.71z"/>
 <path class="cls-5" d="m157.9 431c-1.62-0.2-3-0.65-4.16-1.35-1.15-0.7-2.04-1.57-2.65-2.61-0.62-1.03-0.92-2.14-0.92-3.32s0.3-2.27 0.9-3.11 1.56-1.44 2.87-1.79c1.31-0.36 3.01-0.4 5.12-0.15 2.2 0.26 3.31 0.39 5.51 0.62v3.5c-1.94-0.21-2.91-0.32-4.86-0.55-1.41-0.17-2.38-0.06-2.91 0.34s-0.79 0.94-0.79 1.63c0 0.77 0.3 1.42 0.9 1.94s1.43 0.85 2.48 0.98c1 0.12 1.9-0.01 2.7-0.4s1.37-1.02 1.73-1.91c0.37 1.15 0.56 1.72 0.93 2.87-0.44 1.29-1.23 2.22-2.39 2.78s-2.65 0.74-4.47 0.52zm6.32 0.42v-4.04c-0.15-0.37-0.23-0.56-0.39-0.93v-7.24c0-1.28-0.39-2.33-1.18-3.13-0.78-0.81-1.98-1.3-3.6-1.49-1.1-0.13-2.19-0.09-3.25 0.12s-1.97 0.56-2.71 1.05c-0.86-1.79-1.29-2.69-2.15-4.49 1.13-0.64 2.49-1.07 4.08-1.31 1.59-0.23 3.21-0.25 4.85-0.06 3.16 0.37 5.61 1.37 7.36 3.04s2.62 4.07 2.62 7.23v11.82c-2.25-0.22-3.38-0.33-5.63-0.57z"/>
 <path class="cls-5" d="m172.8 416.6v-4.62c5.76 0.51 8.64 0.72 14.41 1.05v4.62c-5.77-0.33-8.65-0.54-14.41-1.05zm10.97 16.79c-2.45-0.16-4.35-0.92-5.72-2.27-1.36-1.35-2.05-3.26-2.05-5.73v-18.18c2.41 0.2 3.62 0.29 6.03 0.45v18.1c0 0.87 0.23 1.56 0.7 2.07 0.46 0.51 1.09 0.79 1.89 0.84 0.95 0.06 1.77-0.15 2.44-0.62 0.65 1.73 0.97 2.6 1.62 4.33-0.62 0.4-1.36 0.69-2.22 0.86s-1.76 0.22-2.69 0.16z"/>
 <path class="cls-5" d="m198.6 434.2c-1.63-0.05-3.02-0.38-4.18-0.98s-2.05-1.39-2.67-2.37-0.93-2.06-0.93-3.24 0.3-2.3 0.91-3.19c0.61-0.9 1.57-1.58 2.88-2.05 1.32-0.47 3.03-0.67 5.15-0.61 2.21 0.07 3.32 0.09 5.54 0.13v3.5c-1.95-0.04-2.93-0.06-4.88-0.11-1.42-0.04-2.39 0.16-2.92 0.6s-0.79 1.01-0.79 1.7c0 0.77 0.3 1.39 0.91 1.86s1.44 0.72 2.5 0.75c1.01 0.03 1.91-0.18 2.71-0.64s1.38-1.14 1.74-2.06c0.37 1.12 0.56 1.67 0.93 2.79-0.44 1.33-1.24 2.33-2.4 2.99-1.16 0.67-2.66 0.98-4.49 0.92zm6.35-0.15v-4.04c-0.15-0.36-0.23-0.54-0.39-0.89v-7.24c0-1.28-0.39-2.29-1.18-3.03s-1.99-1.12-3.62-1.17c-1.11-0.03-2.2 0.1-3.27 0.41s-1.98 0.74-2.73 1.3c-0.87-1.72-1.3-2.58-2.17-4.3 1.13-0.74 2.5-1.3 4.1-1.67s3.22-0.54 4.88-0.49c3.17 0.09 5.64 0.87 7.39 2.38s2.63 3.84 2.63 7v11.82c-2.26-0.01-3.39-0.03-5.65-0.07z"/>
 <path class="cls-5" d="m216 434.1v-28.58c2.42-0.01 3.62-0.03 6.04-0.07v12.06c-0.15 2.45-0.23 3.68-0.39 6.13 0.05 2.46 0.07 3.7 0.12 6.16v4.24c-2.31 0.04-3.46 0.05-5.77 0.07zm12.31 0.08c-1.83 0.06-3.41-0.29-4.72-1.03-1.32-0.74-2.32-1.9-3.02-3.47s-1.05-3.56-1.05-5.97 0.37-4.45 1.1-6.02c0.74-1.58 1.76-2.76 3.08-3.56s2.85-1.22 4.61-1.28c1.96-0.06 3.72 0.3 5.28 1.11s2.8 1.98 3.71 3.52c0.92 1.54 1.37 3.41 1.37 5.59 0 2.16-0.46 4.06-1.37 5.7-0.92 1.64-2.15 2.94-3.71 3.89s-3.32 1.47-5.28 1.53zm-1.05-4.9c1.01-0.03 1.9-0.29 2.69-0.78s1.42-1.18 1.9-2.06 0.72-1.91 0.72-3.09-0.24-2.22-0.72-3.05-1.11-1.46-1.9-1.89-1.68-0.63-2.69-0.6-1.91 0.28-2.71 0.77-1.43 1.15-1.9 2.01c-0.46 0.86-0.7 1.89-0.7 3.09s0.23 2.2 0.7 3.05c0.46 0.85 1.1 1.5 1.9 1.94s1.7 0.65 2.71 0.62z"/>
 <path class="cls-5" d="m248.8 433c-1.62 0.12-3.01-0.05-4.17-0.53-1.16-0.47-2.05-1.17-2.67-2.08s-0.93-1.96-0.93-3.14c0-1.23 0.3-2.33 0.91-3.29s1.57-1.75 2.88-2.36c1.31-0.62 3.03-1 5.14-1.17 2.21-0.18 3.31-0.27 5.52-0.47v3.5c-1.95 0.18-2.92 0.26-4.86 0.42-1.42 0.11-2.39 0.42-2.92 0.92s-0.79 1.1-0.79 1.79c0 0.77 0.3 1.36 0.91 1.76 0.6 0.4 1.44 0.57 2.49 0.48 1-0.08 1.91-0.39 2.7-0.94 0.8-0.54 1.38-1.3 1.74-2.25 0.37 1.08 0.56 1.61 0.93 2.69-0.44 1.38-1.23 2.46-2.39 3.26-1.16 0.79-2.65 1.27-4.48 1.41zm6.33-0.84v-4.04c-0.15-0.34-0.23-0.51-0.39-0.85v-7.24c0-1.28-0.39-2.25-1.18-2.9s-1.99-0.91-3.61-0.78c-1.11 0.09-2.2 0.34-3.26 0.77-1.07 0.42-1.98 0.95-2.72 1.59-0.87-1.62-1.3-2.43-2.16-4.06 1.13-0.87 2.5-1.57 4.1-2.12s3.22-0.89 4.87-1.02c3.17-0.26 5.62 0.26 7.37 1.58s2.62 3.55 2.62 6.71v11.82c-2.25 0.23-3.38 0.34-5.63 0.55z"/>
 <path class="cls-5" d="m273.2 430.5c-1.77 0.23-3.47 0.23-5.1 0s-2.92-0.62-3.87-1.15c0.8-1.81 1.2-2.72 2-4.54 0.95 0.48 2.07 0.83 3.37 1.04s2.57 0.24 3.83 0.07c1.38-0.18 2.36-0.48 2.94-0.9 0.58-0.41 0.87-0.92 0.87-1.51 0-0.49-0.23-0.82-0.67-1-0.45-0.18-1.04-0.29-1.79-0.31-0.74-0.03-1.56-0.05-2.44-0.06-0.89-0.01-1.78-0.08-2.67-0.18-0.9-0.11-1.72-0.34-2.46-0.69-0.75-0.35-1.34-0.87-1.79-1.56s-0.67-1.63-0.67-2.81c0-1.31 0.38-2.51 1.14-3.59 0.76-1.09 1.86-2.01 3.29-2.76 1.44-0.75 3.16-1.26 5.16-1.52 1.41-0.19 2.85-0.23 4.31-0.13s2.68 0.37 3.65 0.81c-0.8 1.83-1.2 2.75-2 4.57-1-0.44-2-0.7-3.02-0.78-1.01-0.08-1.99-0.05-2.94 0.07-1.33 0.18-2.31 0.48-2.92 0.92-0.62 0.44-0.92 0.94-0.92 1.5 0 0.51 0.22 0.87 0.67 1.07s1.05 0.33 1.79 0.39 1.56 0.08 2.44 0.08 1.77 0.05 2.67 0.15 1.71 0.31 2.44 0.63 1.33 0.8 1.79 1.47c0.46 0.66 0.69 1.58 0.69 2.76 0 1.28-0.38 2.48-1.15 3.58s-1.88 2.05-3.32 2.82c-1.45 0.77-3.21 1.3-5.29 1.57z"/>
 <path class="cls-5" d="m296.8 426.8c-2.35 0.43-4.41 0.33-6.18-0.29-1.78-0.62-3.15-1.66-4.12-3.11s-1.46-3.2-1.46-5.26 0.48-4 1.44-5.76 2.27-3.23 3.93-4.42 3.54-1.98 5.63-2.36c2.01-0.37 3.83-0.28 5.44 0.26 1.62 0.55 2.89 1.52 3.83 2.93s1.41 3.23 1.41 5.47c0 0.23-0.01 0.5-0.04 0.8s-0.05 0.58-0.08 0.84c-6.66 1.38-10 2-16.7 3.13v-3.51c5.44-0.92 8.16-1.42 13.57-2.5-0.92 0.6-1.37 0.9-2.29 1.49 0-1.08-0.22-1.97-0.65-2.69-0.43-0.71-1.03-1.22-1.8-1.53-0.76-0.3-1.66-0.36-2.68-0.18-1.02 0.19-1.92 0.57-2.7 1.16s-1.38 1.32-1.82 2.2c-0.43 0.88-0.65 1.88-0.65 2.98v0.92c0 1.13 0.25 2.08 0.75 2.86 0.5 0.77 1.2 1.31 2.11 1.6 0.9 0.29 1.97 0.32 3.19 0.1 1.1-0.2 2.06-0.55 2.88-1.04 0.83-0.49 1.58-1.14 2.27-1.94 1.27 1.14 1.9 1.7 3.17 2.83-0.94 1.27-2.12 2.34-3.55 3.19-1.43 0.86-3.07 1.46-4.93 1.8z"/>
 <path class="cls-2" d="m926.6 75.31h-403.7c-8.87 0-16.06 7.19-16.06 16.06v618.1c0 8.87 7.19 16.06 16.06 16.06h403.7"/>
 <line class="cls-2" x1="523" x2="926.6" y1="156.6" y2="156.6"/>
 <line class="cls-2" x1="523" x2="926.6" y1="237.9" y2="237.9"/>
 <line class="cls-2" x1="523" x2="926.6" y1="319.1" y2="319.1"/>
 <line class="cls-2" x1="523" x2="926.6" y1="400.4" y2="400.4"/>
 <line class="cls-2" x1="523" x2="926.6" y1="481.7" y2="481.7"/>
 <line class="cls-2" x1="523" x2="926.6" y1="563" y2="563"/>
 <line class="cls-2" x1="523" x2="926.6" y1="644.3" y2="644.3"/>
 <path class="cls-6" d="m413.5 400.4c0.01 5.77 3.73 10.88 9.22 12.67 9.09 2.96 9.09 7.69 9.09 9.96v290.3c0 7.24 5.7 13.46 12.94 13.49 1.16 0 2.28-0.14 3.35-0.42 0.42-0.11 0.77-0.41 0.94-0.81s0.15-0.86-0.07-1.24c-0.08-0.14-0.15-0.27-0.22-0.41-6.44-12-2.07-25.39 7.72-30.69 0.82-0.44 1.31-1.31 1.31-2.24v-267.9c0-8.09-2.4-15.26-6.87-21.13-0.34-0.44-0.51-0.97-0.52-1.5 0-0.53 0.18-1.05 0.52-1.5 4.47-5.86 6.87-13.03 6.87-21.13v-267.9c0-0.93-0.49-1.8-1.31-2.24-9.79-5.3-14.16-18.7-7.72-30.69 0.07-0.14 0.15-0.27 0.22-0.41 0.21-0.38 0.24-0.84 0.07-1.24s-0.52-0.7-0.94-0.81c-1.07-0.28-2.19-0.43-3.35-0.42-7.24 0.02-12.94 6.25-12.94 13.49v290.3c0 2.27 0 7-9.09 9.96-5.49 1.79-9.21 6.9-9.22 12.67z"/>
 <path class="cls-6" d="m476.9 719.6c5.16-8.48-0.73-20.36-10.6-21.39-9.88-1.02-16.33 9.58-11.62 19.08s17.06 10.78 22.22 2.3z"/>
 <path class="cls-6" d="m454.7 83.57c4.71-9.5 17.06-10.78 22.22-2.3s-0.73 20.36-10.6 21.39-16.33-9.58-11.62-19.08z"/>
 <path class="cls-5" d="m550 127.4c-2.35 0-4.21-0.97-5.58-2.9-1.36-1.93-2.05-4.66-2.05-8.19s0.68-6.29 2.05-8.15 3.22-2.8 5.58-2.8 4.24 0.93 5.59 2.8c1.35 1.86 2.03 4.58 2.03 8.15s-0.68 6.26-2.03 8.19-3.22 2.9-5.59 2.9zm0-2.2c1.49 0 2.7-0.72 3.64-2.16s1.41-3.68 1.41-6.72-0.47-5.29-1.41-6.67c-0.94-1.39-2.16-2.08-3.64-2.08s-2.7 0.69-3.64 2.08-1.41 3.61-1.41 6.67 0.47 5.28 1.41 6.72 2.16 2.16 3.64 2.16zm0-6.89c-0.56 0-1.04-0.2-1.45-0.6s-0.62-0.94-0.62-1.63 0.2-1.23 0.62-1.61c0.41-0.39 0.89-0.58 1.45-0.58s1.04 0.19 1.45 0.58 0.62 0.93 0.62 1.61-0.21 1.23-0.62 1.63-0.89 0.6-1.45 0.6z"/>
 <path class="cls-5" d="m562.1 127 6.16-8.39-5.69-7.79h3.03l2.56 3.56c0.29 0.42 0.59 0.87 0.92 1.35 0.32 0.48 0.65 0.94 0.98 1.38h0.13c0.31-0.44 0.62-0.91 0.93-1.4s0.61-0.95 0.9-1.4l2.43-3.49h2.9l-5.76 8.02 6.19 8.15h-3l-2.83-3.73c-0.33-0.47-0.68-0.95-1.05-1.46s-0.73-1-1.08-1.46h-0.13c-0.33 0.49-0.67 0.97-1 1.45s-0.67 0.97-1 1.48l-2.66 3.73z"/>
 <path class="cls-5" d="m589.9 127.4c-2.35 0-4.21-0.97-5.58-2.9-1.36-1.93-2.05-4.66-2.05-8.19s0.68-6.29 2.05-8.15 3.22-2.8 5.58-2.8 4.24 0.93 5.59 2.8c1.35 1.86 2.03 4.58 2.03 8.15s-0.68 6.26-2.03 8.19-3.22 2.9-5.59 2.9zm0-2.2c1.49 0 2.7-0.72 3.64-2.16s1.41-3.68 1.41-6.72-0.47-5.29-1.41-6.67c-0.94-1.39-2.16-2.08-3.64-2.08s-2.7 0.69-3.64 2.08-1.41 3.61-1.41 6.67 0.47 5.28 1.41 6.72 2.16 2.16 3.64 2.16zm0-6.89c-0.56 0-1.04-0.2-1.45-0.6s-0.62-0.94-0.62-1.63 0.2-1.23 0.62-1.61c0.41-0.39 0.89-0.58 1.45-0.58s1.04 0.19 1.45 0.58 0.62 0.93 0.62 1.61-0.21 1.23-0.62 1.63-0.89 0.6-1.45 0.6z"/>
 <path class="cls-5" d="m603.1 127v-2.26h6.12v-15.64h-4.76v-1.76c1.24-0.18 2.29-0.39 3.14-0.65 0.85-0.25 1.62-0.56 2.31-0.92h2.03v18.97h5.56v2.26h-14.41z"/>
 <path class="cls-5" d="m629.8 127.4c-2.35 0-4.21-0.97-5.58-2.9-1.36-1.93-2.05-4.66-2.05-8.19s0.68-6.29 2.05-8.15 3.22-2.8 5.58-2.8 4.24 0.93 5.59 2.8c1.35 1.86 2.03 4.58 2.03 8.15s-0.68 6.26-2.03 8.19-3.22 2.9-5.59 2.9zm0-2.2c1.49 0 2.7-0.72 3.64-2.16s1.41-3.68 1.41-6.72-0.47-5.29-1.41-6.67c-0.94-1.39-2.16-2.08-3.64-2.08s-2.7 0.69-3.64 2.08-1.41 3.61-1.41 6.67 0.47 5.28 1.41 6.72 2.16 2.16 3.64 2.16zm0-6.89c-0.56 0-1.04-0.2-1.45-0.6s-0.62-0.94-0.62-1.63 0.2-1.23 0.62-1.61c0.41-0.39 0.89-0.58 1.45-0.58s1.04 0.19 1.45 0.58 0.62 0.93 0.62 1.61-0.21 1.23-0.62 1.63-0.89 0.6-1.45 0.6z"/>
 <path class="cls-5" d="m643 127v-2.26h6.12v-15.64h-4.76v-1.76c1.24-0.18 2.29-0.39 3.14-0.65 0.85-0.25 1.62-0.56 2.31-0.92h2.03v18.97h5.56v2.26h-14.41z"/>
 <path class="cls-5" d="m669.8 127.4c-0.75 0-1.39-0.26-1.91-0.78s-0.78-1.19-0.78-2.01 0.26-1.53 0.78-2.05 1.16-0.78 1.91-0.78 1.39 0.26 1.91 0.78 0.78 1.2 0.78 2.05-0.26 1.49-0.78 2.01-1.16 0.78-1.91 0.78z"/>
 <path class="cls-5" d="m689.7 127.4c-0.75 0-1.39-0.26-1.91-0.78s-0.78-1.19-0.78-2.01 0.26-1.53 0.78-2.05 1.16-0.78 1.91-0.78 1.39 0.26 1.91 0.78 0.78 1.2 0.78 2.05-0.26 1.49-0.78 2.01-1.16 0.78-1.91 0.78z"/>
 <path class="cls-5" d="m709.7 127.4c-0.75 0-1.39-0.26-1.91-0.78s-0.78-1.19-0.78-2.01 0.26-1.53 0.78-2.05 1.16-0.78 1.91-0.78 1.39 0.26 1.91 0.78 0.78 1.2 0.78 2.05-0.26 1.49-0.78 2.01-1.16 0.78-1.91 0.78z"/>
 <path class="cls-5" d="m550 208.1c-2.35 0-4.21-0.97-5.58-2.9-1.36-1.93-2.05-4.66-2.05-8.19s0.68-6.29 2.05-8.15 3.22-2.8 5.58-2.8 4.24 0.93 5.59 2.8c1.35 1.86 2.03 4.58 2.03 8.15s-0.68 6.26-2.03 8.19-3.22 2.9-5.59 2.9zm0-2.2c1.49 0 2.7-0.72 3.64-2.16s1.41-3.68 1.41-6.72-0.47-5.29-1.41-6.67c-0.94-1.39-2.16-2.08-3.64-2.08s-2.7 0.69-3.64 2.08-1.41 3.61-1.41 6.67 0.47 5.28 1.41 6.72 2.16 2.16 3.64 2.16zm0-6.89c-0.56 0-1.04-0.2-1.45-0.6s-0.62-0.94-0.62-1.63 0.2-1.23 0.62-1.61c0.41-0.39 0.89-0.58 1.45-0.58s1.04 0.19 1.45 0.58 0.62 0.93 0.62 1.61-0.21 1.23-0.62 1.63-0.89 0.6-1.45 0.6z"/>
 <path class="cls-5" d="m562.1 207.7 6.16-8.39-5.69-7.79h3.03l2.56 3.56c0.29 0.42 0.59 0.87 0.92 1.35 0.32 0.48 0.65 0.94 0.98 1.38h0.13c0.31-0.44 0.62-0.91 0.93-1.4s0.61-0.95 0.9-1.4l2.43-3.49h2.9l-5.76 8.02 6.19 8.15h-3l-2.83-3.73c-0.33-0.47-0.68-0.95-1.05-1.46s-0.73-1-1.08-1.46h-0.13c-0.33 0.49-0.67 0.97-1 1.45s-0.67 0.97-1 1.48l-2.66 3.73z"/>
 <path class="cls-5" d="m591.6 208.1c-1.8 0-3.41-0.45-4.84-1.35s-2.57-2.19-3.41-3.88-1.26-3.72-1.26-6.09 0.42-4.37 1.26-6.06 2-2.98 3.48-3.89 3.16-1.36 5.04-1.36c1.31 0 2.47 0.27 3.49 0.8s1.84 1.15 2.46 1.86l-1.56 1.76c-0.56-0.6-1.2-1.08-1.93-1.45s-1.55-0.55-2.46-0.55c-1.4 0-2.61 0.36-3.64 1.08s-1.84 1.74-2.41 3.04c-0.58 1.31-0.87 2.87-0.87 4.69s0.29 3.4 0.87 4.74 1.38 2.38 2.41 3.11 2.25 1.1 3.64 1.1c1 0 1.9-0.21 2.7-0.63s1.54-1.02 2.23-1.8l1.56 1.7c-0.87 1-1.85 1.78-2.95 2.33s-2.37 0.83-3.81 0.83z"/>
 <path class="cls-5" d="m609.9 208.1c-1.64 0-3.1-0.45-4.36-1.36s-2.25-2.21-2.96-3.91-1.06-3.74-1.06-6.14 0.35-4.36 1.06-6.04 1.7-2.96 2.96-3.84c1.26-0.89 2.72-1.33 4.36-1.33s3.09 0.44 4.36 1.33c1.26 0.89 2.25 2.17 2.96 3.84 0.71 1.68 1.06 3.69 1.06 6.04s-0.35 4.44-1.06 6.14-1.7 3-2.96 3.91-2.72 1.36-4.36 1.36zm0-2.43c1.66 0 3-0.8 4.01-2.4s1.51-3.79 1.51-6.59-0.5-4.9-1.51-6.46c-1.01-1.55-2.35-2.33-4.01-2.33s-3 0.78-4.01 2.33-1.51 3.71-1.51 6.46 0.5 4.99 1.51 6.59 2.35 2.4 4.01 2.4z"/>
 <path class="cls-5" d="m624.3 207.7v-21.83h13.41v2.33h-10.62v7.39h8.99v2.33h-8.99v9.78h-2.8z"/>
 <path class="cls-5" d="m643.6 207.7v-21.83h13.51v2.33h-10.72v6.86h9.05v2.36h-9.05v7.92h11.05v2.36z"/>
 <path class="cls-5" d="m669.8 208.1c-0.75 0-1.39-0.26-1.91-0.78s-0.78-1.19-0.78-2.01 0.26-1.53 0.78-2.05 1.16-0.78 1.91-0.78 1.39 0.26 1.91 0.78 0.78 1.2 0.78 2.05-0.26 1.49-0.78 2.01-1.16 0.78-1.91 0.78z"/>
 <path class="cls-5" d="m689.7 208.1c-0.75 0-1.39-0.26-1.91-0.78s-0.78-1.19-0.78-2.01 0.26-1.53 0.78-2.05 1.16-0.78 1.91-0.78 1.39 0.26 1.91 0.78 0.78 1.2 0.78 2.05-0.26 1.49-0.78 2.01-1.16 0.78-1.91 0.78z"/>
 <path class="cls-5" d="m709.7 208.1c-0.75 0-1.39-0.26-1.91-0.78s-0.78-1.19-0.78-2.01 0.26-1.53 0.78-2.05 1.16-0.78 1.91-0.78 1.39 0.26 1.91 0.78 0.78 1.2 0.78 2.05-0.26 1.49-0.78 2.01-1.16 0.78-1.91 0.78z"/>
 <path class="cls-5" d="m550 289.6c-2.35 0-4.21-0.97-5.58-2.9-1.36-1.93-2.05-4.66-2.05-8.19s0.68-6.29 2.05-8.15 3.22-2.8 5.58-2.8 4.24 0.93 5.59 2.8c1.35 1.86 2.03 4.58 2.03 8.15s-0.68 6.26-2.03 8.19-3.22 2.9-5.59 2.9zm0-2.2c1.49 0 2.7-0.72 3.64-2.16s1.41-3.68 1.41-6.72-0.47-5.29-1.41-6.67c-0.94-1.39-2.16-2.08-3.64-2.08s-2.7 0.69-3.64 2.08-1.41 3.61-1.41 6.67 0.47 5.28 1.41 6.72 2.16 2.16 3.64 2.16zm0-6.89c-0.56 0-1.04-0.2-1.45-0.6s-0.62-0.94-0.62-1.63 0.2-1.23 0.62-1.61c0.41-0.39 0.89-0.58 1.45-0.58s1.04 0.19 1.45 0.58 0.62 0.93 0.62 1.61-0.21 1.23-0.62 1.63-0.89 0.6-1.45 0.6z"/>
 <path class="cls-5" d="m562.1 289.2 6.16-8.39-5.69-7.79h3.03l2.56 3.56c0.29 0.42 0.59 0.87 0.92 1.35 0.32 0.48 0.65 0.94 0.98 1.38h0.13c0.31-0.44 0.62-0.91 0.93-1.4s0.61-0.95 0.9-1.4l2.43-3.49h2.9l-5.76 8.02 6.19 8.15h-3l-2.83-3.73c-0.33-0.47-0.68-0.95-1.05-1.46s-0.73-1-1.08-1.46h-0.13c-0.33 0.49-0.67 0.97-1 1.45s-0.67 0.97-1 1.48l-2.66 3.73z"/>
 <path class="cls-5" d="m583.1 289.2v-2.26h6.12v-15.64h-4.76v-1.76c1.24-0.18 2.29-0.39 3.14-0.65 0.85-0.25 1.62-0.56 2.31-0.92h2.03v18.97h5.56v2.26h-14.41z"/>
 <path class="cls-5" d="m600.9 289.2 7.35-21.83h3.13l7.36 21.83h-2.93l-2.06-6.66h-7.92l-2.1 6.66zm6.66-12.21-1.03 3.33h6.52l-1.03-3.33c-0.38-1.22-0.75-2.43-1.12-3.64s-0.72-2.45-1.05-3.71h-0.13c-0.35 1.26-0.71 2.5-1.06 3.71-0.36 1.21-0.72 2.42-1.1 3.64z"/>
 <path class="cls-5" d="m629.8 289.6c-2.35 0-4.21-0.97-5.58-2.9-1.36-1.93-2.05-4.66-2.05-8.19s0.68-6.29 2.05-8.15 3.22-2.8 5.58-2.8 4.24 0.93 5.59 2.8c1.35 1.86 2.03 4.58 2.03 8.15s-0.68 6.26-2.03 8.19-3.22 2.9-5.59 2.9zm0-2.2c1.49 0 2.7-0.72 3.64-2.16s1.41-3.68 1.41-6.72-0.47-5.29-1.41-6.67c-0.94-1.39-2.16-2.08-3.64-2.08s-2.7 0.69-3.64 2.08-1.41 3.61-1.41 6.67 0.47 5.28 1.41 6.72 2.16 2.16 3.64 2.16zm0-6.89c-0.56 0-1.04-0.2-1.45-0.6s-0.62-0.94-0.62-1.63 0.2-1.23 0.62-1.61c0.41-0.39 0.89-0.58 1.45-0.58s1.04 0.19 1.45 0.58 0.62 0.93 0.62 1.61-0.21 1.23-0.62 1.63-0.89 0.6-1.45 0.6z"/>
 <path class="cls-5" d="m644.2 289.2v-21.83h13.41v2.33h-10.62v7.39h8.99v2.33h-8.99v9.78h-2.8z"/>
 <path class="cls-5" d="m669.8 289.6c-0.75 0-1.39-0.26-1.91-0.78s-0.78-1.19-0.78-2.01 0.26-1.53 0.78-2.05 1.16-0.78 1.91-0.78 1.39 0.26 1.91 0.78 0.78 1.2 0.78 2.05-0.26 1.49-0.78 2.01-1.16 0.78-1.91 0.78z"/>
 <path class="cls-5" d="m689.7 289.6c-0.75 0-1.39-0.26-1.91-0.78s-0.78-1.19-0.78-2.01 0.26-1.53 0.78-2.05 1.16-0.78 1.91-0.78 1.39 0.26 1.91 0.78 0.78 1.2 0.78 2.05-0.26 1.49-0.78 2.01-1.16 0.78-1.91 0.78z"/>
 <path class="cls-5" d="m709.7 289.6c-0.75 0-1.39-0.26-1.91-0.78s-0.78-1.19-0.78-2.01 0.26-1.53 0.78-2.05 1.16-0.78 1.91-0.78 1.39 0.26 1.91 0.78 0.78 1.2 0.78 2.05-0.26 1.49-0.78 2.01-1.16 0.78-1.91 0.78z"/>
 <path class="cls-5" d="m550 694.8c-2.35 0-4.21-0.96-5.58-2.9-1.36-1.93-2.05-4.66-2.05-8.19s0.68-6.29 2.05-8.15 3.22-2.8 5.58-2.8 4.24 0.93 5.59 2.8c1.35 1.86 2.03 4.58 2.03 8.15s-0.68 6.26-2.03 8.19-3.22 2.9-5.59 2.9zm0-2.2c1.49 0 2.7-0.72 3.64-2.16s1.41-3.68 1.41-6.72-0.47-5.29-1.41-6.67-2.16-2.08-3.64-2.08-2.7 0.69-3.64 2.08-1.41 3.61-1.41 6.67 0.47 5.28 1.41 6.72 2.16 2.16 3.64 2.16zm0-6.89c-0.56 0-1.04-0.2-1.45-0.6s-0.62-0.94-0.62-1.63 0.2-1.23 0.62-1.61c0.41-0.39 0.89-0.58 1.45-0.58s1.04 0.19 1.45 0.58 0.62 0.93 0.62 1.61-0.21 1.23-0.62 1.63-0.89 0.6-1.45 0.6z"/>
 <path class="cls-5" d="m562.1 694.4 6.16-8.39-5.69-7.79h3.03l2.56 3.56c0.29 0.42 0.59 0.87 0.92 1.35 0.32 0.48 0.65 0.94 0.98 1.38h0.13c0.31-0.44 0.62-0.91 0.93-1.4s0.61-0.95 0.9-1.4l2.43-3.49h2.9l-5.76 8.02 6.19 8.15h-3l-2.83-3.73c-0.33-0.47-0.68-0.95-1.05-1.46s-0.73-1-1.08-1.46h-0.13c-0.33 0.49-0.67 0.97-1 1.45s-0.67 0.97-1 1.48l-2.66 3.73z"/>
 <path class="cls-5" d="m589.4 694.8c-1.89 0-3.43-0.3-4.62-0.9-1.2-0.6-2.21-1.26-3.03-2l1.37-1.8c0.71 0.62 1.53 1.18 2.46 1.68s2.11 0.75 3.53 0.75c1 0 1.91-0.2 2.73-0.6s1.47-0.96 1.95-1.7c0.48-0.73 0.71-1.59 0.71-2.56 0-1.46-0.48-2.61-1.43-3.43s-2.22-1.23-3.79-1.23c-0.89 0-1.64 0.11-2.26 0.33s-1.31 0.54-2.06 0.96l-1.46-0.93 0.7-10.22h12.01v2.36h-9.58l-0.57 6.29c0.62-0.27 1.23-0.48 1.81-0.63s1.29-0.23 2.11-0.23c1.35 0 2.58 0.24 3.68 0.72s1.97 1.2 2.63 2.18c0.65 0.98 0.98 2.23 0.98 3.76s-0.37 2.83-1.12 3.91c-0.74 1.08-1.71 1.89-2.91 2.45-1.2 0.55-2.47 0.83-3.83 0.83z"/>
 <path class="cls-5" d="m612.1 694.4v-5.86h-10.95v-1.83l10.62-13.54h2.93v13.18h3.29v2.2h-3.29v5.86h-2.6zm-7.92-8.05h7.92v-6.59c0.02-0.58 0.05-1.2 0.08-1.88s0.06-1.3 0.08-1.88h-0.17c-0.33 0.51-0.69 1.03-1.07 1.55s-0.74 1.04-1.1 1.55l-5.76 7.25z"/>
 <path class="cls-5" d="m628.4 694.8c-1.29 0-2.42-0.22-3.39-0.65s-1.82-0.96-2.53-1.58l1.53-1.73c0.53 0.51 1.17 0.92 1.9 1.23s1.51 0.47 2.33 0.47c1.13 0 2.17-0.29 3.13-0.87s1.74-1.53 2.35-2.86 0.94-3.13 0.98-5.39c-0.87 0.84-1.81 1.51-2.85 2-1.03 0.49-2.09 0.73-3.18 0.73-1.95 0-3.54-0.55-4.76-1.65s-1.83-2.73-1.83-4.91c0-1.35 0.33-2.54 0.98-3.56s1.52-1.82 2.6-2.4 2.23-0.87 3.48-0.87c1.55 0 2.94 0.38 4.16 1.13s2.19 1.89 2.91 3.39c0.72 1.51 1.08 3.41 1.08 5.69 0 2.13-0.24 3.94-0.73 5.44s-1.15 2.72-1.98 3.66-1.78 1.63-2.85 2.06c-1.06 0.43-2.17 0.65-3.33 0.65zm-3.73-15.21c0 1.44 0.38 2.55 1.15 3.33s1.89 1.17 3.38 1.17c0.84 0 1.74-0.22 2.7-0.67 0.95-0.44 1.86-1.17 2.73-2.16-0.22-2.06-0.79-3.63-1.71-4.71s-2.17-1.61-3.74-1.61c-1.26 0-2.33 0.43-3.2 1.28s-1.3 1.98-1.3 3.38z"/>
 <path class="cls-5" d="m642.7 694.4v-21.83h5.39c3.28 0 5.79 0.94 7.52 2.81 1.73 1.88 2.6 4.54 2.6 8s-0.86 6.19-2.58 8.12-4.19 2.9-7.4 2.9h-5.52zm2.76-2.26h2.43c2.51 0 4.38-0.77 5.61-2.31s1.85-3.69 1.85-6.44-0.62-4.86-1.85-6.34-3.1-2.21-5.61-2.21h-2.43v17.31z"/>
 <path class="cls-5" d="m669.8 694.8c-0.75 0-1.39-0.26-1.91-0.78s-0.78-1.19-0.78-2.01 0.26-1.52 0.78-2.05 1.16-0.78 1.91-0.78 1.39 0.26 1.91 0.78 0.78 1.2 0.78 2.05-0.26 1.49-0.78 2.01-1.16 0.78-1.91 0.78z"/>
 <path class="cls-5" d="m689.7 694.8c-0.75 0-1.39-0.26-1.91-0.78s-0.78-1.19-0.78-2.01 0.26-1.52 0.78-2.05 1.16-0.78 1.91-0.78 1.39 0.26 1.91 0.78 0.78 1.2 0.78 2.05-0.26 1.49-0.78 2.01-1.16 0.78-1.91 0.78z"/>
 <path class="cls-5" d="m709.7 694.8c-0.75 0-1.39-0.26-1.91-0.78s-0.78-1.19-0.78-2.01 0.26-1.52 0.78-2.05 1.16-0.78 1.91-0.78 1.39 0.26 1.91 0.78 0.78 1.2 0.78 2.05-0.26 1.49-0.78 2.01-1.16 0.78-1.91 0.78z"/>
 <path class="cls-5" d="m550 534.6c-2.35 0-4.21-0.96-5.58-2.9-1.36-1.93-2.05-4.66-2.05-8.19s0.68-6.29 2.05-8.15 3.22-2.8 5.58-2.8 4.24 0.93 5.59 2.8c1.35 1.86 2.03 4.58 2.03 8.15s-0.68 6.26-2.03 8.19-3.22 2.9-5.59 2.9zm0-2.2c1.49 0 2.7-0.72 3.64-2.16s1.41-3.68 1.41-6.72-0.47-5.29-1.41-6.67-2.16-2.08-3.64-2.08-2.7 0.69-3.64 2.08-1.41 3.61-1.41 6.67 0.47 5.28 1.41 6.72 2.16 2.16 3.64 2.16zm0-6.89c-0.56 0-1.04-0.2-1.45-0.6s-0.62-0.94-0.62-1.63 0.2-1.23 0.62-1.61c0.41-0.39 0.89-0.58 1.45-0.58s1.04 0.19 1.45 0.58 0.62 0.93 0.62 1.61-0.21 1.23-0.62 1.63-0.89 0.6-1.45 0.6z"/>
 <path class="cls-5" d="m562.1 534.2 6.16-8.39-5.69-7.79h3.03l2.56 3.56c0.29 0.42 0.59 0.87 0.92 1.35 0.32 0.48 0.65 0.94 0.98 1.38h0.13c0.31-0.44 0.62-0.91 0.93-1.4s0.61-0.95 0.9-1.4l2.43-3.49h2.9l-5.76 8.02 6.19 8.15h-3l-2.83-3.73c-0.33-0.47-0.68-0.95-1.05-1.46s-0.73-1-1.08-1.46h-0.13c-0.33 0.49-0.67 0.97-1 1.45s-0.67 0.97-1 1.48l-2.66 3.73z"/>
 <path class="cls-5" d="m589.9 534.6c-2.35 0-4.21-0.96-5.58-2.9-1.36-1.93-2.05-4.66-2.05-8.19s0.68-6.29 2.05-8.15 3.22-2.8 5.58-2.8 4.24 0.93 5.59 2.8c1.35 1.86 2.03 4.58 2.03 8.15s-0.68 6.26-2.03 8.19-3.22 2.9-5.59 2.9zm0-2.2c1.49 0 2.7-0.72 3.64-2.16s1.41-3.68 1.41-6.72-0.47-5.29-1.41-6.67-2.16-2.08-3.64-2.08-2.7 0.69-3.64 2.08-1.41 3.61-1.41 6.67 0.47 5.28 1.41 6.72 2.16 2.16 3.64 2.16zm0-6.89c-0.56 0-1.04-0.2-1.45-0.6s-0.62-0.94-0.62-1.63 0.2-1.23 0.62-1.61c0.41-0.39 0.89-0.58 1.45-0.58s1.04 0.19 1.45 0.58 0.62 0.93 0.62 1.61-0.21 1.23-0.62 1.63-0.89 0.6-1.45 0.6z"/>
 <path class="cls-5" d="m603.1 534.2v-2.26h6.12v-15.64h-4.76v-1.76c1.24-0.18 2.29-0.39 3.14-0.65s1.62-0.56 2.31-0.92h2.03v18.97h5.56v2.26h-14.41z"/>
 <text font-family="'Fira Sans'" font-size="40px" style="line-height:1.25;shape-inside:url(#rect487);white-space:pre" xml:space="preserve"/>
 <text x="1044.3011" y="239.82375" font-family="'Fira Sans'" font-size="40px" style="line-height:1.25" xml:space="preserve"><tspan x="1044.3011" y="239.82375"/></text>
 <text x="1073.0889" y="184.76218" fill="#ffffff" font-family="'Fira Sans'" font-size="85.33px" style="line-height:1.25" xml:space="preserve"><tspan x="1073.0889" y="184.76218"/></text>
 <g fill="#fff" aria-label="Key / Value Database  - Arbitrary key length - SCALE encoded values  ">
  <path d="m1037 311.4-0.336-7.392 17.62-18.29h7.008l-14.64 15.55-3.456 3.792zm-5.568 7.92v-33.6h6.24v33.6zm23.42 0-12.86-15.31 4.128-4.56 16.03 19.87z"/>
  <path d="m1077 319.7q-4.272 0-7.488-1.68-3.168-1.728-4.944-4.704-1.728-2.976-1.728-6.768 0-3.84 1.68-6.768 1.728-2.976 4.704-4.656 3.024-1.68 6.864-1.68 3.744 0 6.672 1.632t4.608 4.608 1.68 7.008q0 0.384-0.048 0.864 0 0.48-0.048 0.912h-21.36v-3.984h18.19l-2.352 1.248q0.048-2.208-0.912-3.888t-2.64-2.64q-1.632-0.96-3.792-0.96-2.208 0-3.888 0.96-1.632 0.96-2.592 2.688-0.912 1.68-0.912 3.984v0.96q0 2.304 1.056 4.08t2.976 2.736 4.416 0.96q2.16 0 3.888-0.672t3.072-2.112l3.216 3.696q-1.728 2.016-4.368 3.12-2.592 1.056-5.952 1.056z"/>
  <path d="m1097 329q-1.872 0-3.744-0.624t-3.12-1.728l2.4-4.416q0.912 0.816 2.064 1.296t2.352 0.48q1.632 0 2.64-0.816t1.872-2.736l1.488-3.36 0.48-0.72 9.696-22.66h5.76l-12 27.7q-1.2 2.88-2.688 4.56-1.44 1.68-3.264 2.352-1.776 0.672-3.936 0.672zm5.28-8.736-11.57-26.54h6.24l9.408 22.13z"/>
  <path d="m1130 324.2 15.84-45.22h5.376l-15.84 45.22z"/>
  <path d="m1177 319.4-14.69-33.6h6.768l13.1 30.38h-3.888l13.25-30.38h6.24l-14.64 33.6z"/>
  <path d="m1215 319.4v-5.184l-0.336-1.104v-9.072q0-2.64-1.584-4.08-1.584-1.488-4.8-1.488-2.16 0-4.272 0.672-2.064 0.672-3.504 1.872l-2.352-4.368q2.064-1.584 4.896-2.352 2.88-0.816 5.952-0.816 5.568 0 8.592 2.688 3.072 2.64 3.072 8.208v15.02zm-8.064 0.336q-2.88 0-5.04-0.96-2.16-1.008-3.36-2.736-1.152-1.776-1.152-3.984 0-2.16 1.008-3.888 1.056-1.728 3.408-2.736t6.24-1.008h7.44v3.984h-7.008q-3.072 0-4.128 1.008-1.056 0.96-1.056 2.4 0 1.632 1.296 2.592t3.6 0.96q2.208 0 3.936-1.008 1.776-1.008 2.544-2.976l1.008 3.6q-0.864 2.256-3.12 3.504-2.208 1.248-5.616 1.248z"/>
  <path d="m1228 319.4v-35.62h6v35.62z"/>
  <path d="m1253 319.7q-3.264 0-5.76-1.2-2.496-1.248-3.888-3.744-1.392-2.544-1.392-6.384v-14.64h6v13.82q0 3.456 1.536 5.184 1.584 1.68 4.464 1.68 2.112 0 3.648-0.864 1.584-0.864 2.448-2.592 0.912-1.728 0.912-4.272v-12.96h6v25.63h-5.712v-6.912l1.008 2.112q-1.296 2.496-3.792 3.84-2.496 1.296-5.472 1.296z"/>
  <path d="m1287 319.7q-4.272 0-7.488-1.68-3.168-1.728-4.944-4.704-1.728-2.976-1.728-6.768 0-3.84 1.68-6.768 1.728-2.976 4.704-4.656 3.024-1.68 6.864-1.68 3.744 0 6.672 1.632t4.608 4.608 1.68 7.008q0 0.384-0.048 0.864 0 0.48-0.048 0.912h-21.36v-3.984h18.19l-2.352 1.248q0.048-2.208-0.912-3.888t-2.64-2.64q-1.632-0.96-3.792-0.96-2.208 0-3.888 0.96-1.632 0.96-2.592 2.688-0.912 1.68-0.912 3.984v0.96q0 2.304 1.056 4.08t2.976 2.736 4.416 0.96q2.16 0 3.888-0.672t3.072-2.112l3.216 3.696q-1.728 2.016-4.368 3.12-2.592 1.056-5.952 1.056z"/>
  <path d="m1318 319.4v-33.6h14.69q5.472 0 9.6 2.112t6.432 5.856 2.304 8.832q0 5.04-2.304 8.832-2.304 3.744-6.432 5.856t-9.6 2.112zm6.24-5.28h8.16q3.792 0 6.528-1.44 2.784-1.44 4.272-4.032 1.536-2.592 1.536-6.048 0-3.504-1.536-6.048-1.488-2.592-4.272-4.032-2.736-1.44-6.528-1.44h-8.16z"/>
  <path d="m1373 319.4v-5.184l-0.336-1.104v-9.072q0-2.64-1.584-4.08-1.584-1.488-4.8-1.488-2.16 0-4.272 0.672-2.064 0.672-3.504 1.872l-2.352-4.368q2.064-1.584 4.896-2.352 2.88-0.816 5.952-0.816 5.568 0 8.592 2.688 3.072 2.64 3.072 8.208v15.02zm-8.064 0.336q-2.88 0-5.04-0.96-2.16-1.008-3.36-2.736-1.152-1.776-1.152-3.984 0-2.16 1.008-3.888 1.056-1.728 3.408-2.736t6.24-1.008h7.44v3.984h-7.008q-3.072 0-4.128 1.008-1.056 0.96-1.056 2.4 0 1.632 1.296 2.592t3.6 0.96q2.208 0 3.936-1.008 1.776-1.008 2.544-2.976l1.008 3.6q-0.864 2.256-3.12 3.504-2.208 1.248-5.616 1.248z"/>
  <path d="m1396 319.7q-4.224 0-6.528-2.16-2.304-2.208-2.304-6.48v-22.99h6v22.85q0 1.824 0.912 2.832 0.96 1.008 2.64 1.008 2.016 0 3.36-1.056l1.68 4.272q-1.056 0.864-2.592 1.296t-3.168 0.432zm-13.06-20.98v-4.8h17.09v4.8z"/>
  <path d="m1423 319.4v-5.184l-0.336-1.104v-9.072q0-2.64-1.584-4.08-1.584-1.488-4.8-1.488-2.16 0-4.272 0.672-2.064 0.672-3.504 1.872l-2.352-4.368q2.064-1.584 4.896-2.352 2.88-0.816 5.952-0.816 5.568 0 8.592 2.688 3.072 2.64 3.072 8.208v15.02zm-8.064 0.336q-2.88 0-5.04-0.96-2.16-1.008-3.36-2.736-1.152-1.776-1.152-3.984 0-2.16 1.008-3.888 1.056-1.728 3.408-2.736t6.24-1.008h7.44v3.984h-7.008q-3.072 0-4.128 1.008-1.056 0.96-1.056 2.4 0 1.632 1.296 2.592t3.6 0.96q2.208 0 3.936-1.008 1.776-1.008 2.544-2.976l1.008 3.6q-0.864 2.256-3.12 3.504-2.208 1.248-5.616 1.248z"/>
  <path d="m1450 319.7q-3.264 0-5.808-1.44t-4.032-4.32q-1.44-2.928-1.44-7.392 0-4.512 1.488-7.392 1.536-2.88 4.08-4.272 2.592-1.44 5.712-1.44 3.792 0 6.672 1.632 2.928 1.632 4.608 4.56 1.728 2.928 1.728 6.912t-1.728 6.912q-1.68 2.928-4.608 4.608-2.88 1.632-6.672 1.632zm-14.21-0.336v-35.62h6v15.94l-0.48 6.816 0.192 6.816v6.048zm13.54-4.8q2.16 0 3.84-0.96 1.728-0.96 2.736-2.784t1.008-4.272q0-2.496-1.008-4.272-1.008-1.824-2.736-2.784-1.68-0.96-3.84-0.96t-3.888 0.96-2.736 2.784q-1.008 1.776-1.008 4.272 0 2.448 1.008 4.272t2.736 2.784 3.888 0.96z"/>
  <path d="m1484 319.4v-5.184l-0.336-1.104v-9.072q0-2.64-1.584-4.08-1.584-1.488-4.8-1.488-2.16 0-4.272 0.672-2.064 0.672-3.504 1.872l-2.352-4.368q2.064-1.584 4.896-2.352 2.88-0.816 5.952-0.816 5.568 0 8.592 2.688 3.072 2.64 3.072 8.208v15.02zm-8.064 0.336q-2.88 0-5.04-0.96-2.16-1.008-3.36-2.736-1.152-1.776-1.152-3.984 0-2.16 1.008-3.888 1.056-1.728 3.408-2.736t6.24-1.008h7.44v3.984h-7.008q-3.072 0-4.128 1.008-1.056 0.96-1.056 2.4 0 1.632 1.296 2.592t3.6 0.96q2.208 0 3.936-1.008 1.776-1.008 2.544-2.976l1.008 3.6q-0.864 2.256-3.12 3.504-2.208 1.248-5.616 1.248z"/>
  <path d="m1506 319.7q-3.216 0-6.192-0.816-2.928-0.864-4.656-2.064l2.304-4.56q1.728 1.104 4.128 1.824t4.8 0.72q2.832 0 4.08-0.768 1.296-0.768 1.296-2.064 0-1.056-0.864-1.584-0.864-0.576-2.256-0.864t-3.12-0.528q-1.68-0.24-3.408-0.624-1.68-0.432-3.072-1.2-1.392-0.816-2.256-2.16t-0.864-3.552q0-2.448 1.392-4.224 1.392-1.824 3.888-2.784 2.544-1.008 6-1.008 2.592 0 5.232 0.576t4.368 1.632l-2.304 4.56q-1.824-1.104-3.696-1.488-1.824-0.432-3.648-0.432-2.736 0-4.08 0.816-1.296 0.816-1.296 2.064 0 1.152 0.864 1.728t2.256 0.912 3.072 0.576q1.728 0.192 3.408 0.624t3.072 1.2q1.44 0.72 2.304 2.064t0.864 3.504q0 2.4-1.44 4.176-1.392 1.776-3.984 2.784-2.592 0.96-6.192 0.96z"/>
  <path d="m1534 319.7q-4.272 0-7.488-1.68-3.168-1.728-4.944-4.704-1.728-2.976-1.728-6.768 0-3.84 1.68-6.768 1.728-2.976 4.704-4.656 3.024-1.68 6.864-1.68 3.744 0 6.672 1.632t4.608 4.608 1.68 7.008q0 0.384-0.048 0.864 0 0.48-0.048 0.912h-21.36v-3.984h18.19l-2.352 1.248q0.048-2.208-0.912-3.888t-2.64-2.64q-1.632-0.96-3.792-0.96-2.208 0-3.888 0.96-1.632 0.96-2.592 2.688-0.912 1.68-0.912 3.984v0.96q0 2.304 1.056 4.08t2.976 2.736 4.416 0.96q2.16 0 3.888-0.672t3.072-2.112l3.216 3.696q-1.728 2.016-4.368 3.12-2.592 1.056-5.952 1.056z"/>
  <path d="m1030 429.9v-4.992h13.2v4.992z"/>
  <path d="m1059 440.8 15.12-33.6h6.144l15.17 33.6h-6.528l-13.01-30.29h2.496l-12.96 30.29zm6.96-7.776 1.68-4.896h18.14l1.68 4.896z"/>
  <path d="m1099 440.8v-25.63h5.712v7.056l-0.672-2.064q1.152-2.592 3.6-3.936 2.496-1.344 6.192-1.344v5.712q-0.384-0.096-0.72-0.096-0.336-0.048-0.672-0.048-3.408 0-5.424 2.016-2.016 1.968-2.016 5.904v12.43z"/>
  <path d="m1133 441.1q-3.264 0-5.808-1.44t-4.032-4.32q-1.44-2.928-1.44-7.392 0-4.512 1.488-7.392 1.536-2.88 4.08-4.272 2.592-1.44 5.712-1.44 3.792 0 6.672 1.632 2.928 1.632 4.608 4.56 1.728 2.928 1.728 6.912t-1.728 6.912q-1.68 2.928-4.608 4.608-2.88 1.632-6.672 1.632zm-14.21-0.336v-35.62h6v15.94l-0.48 6.816 0.192 6.816v6.048zm13.54-4.8q2.16 0 3.84-0.96 1.728-0.96 2.736-2.784t1.008-4.272q0-2.496-1.008-4.272-1.008-1.824-2.736-2.784-1.68-0.96-3.84-0.96t-3.888 0.96-2.736 2.784q-1.008 1.776-1.008 4.272 0 2.448 1.008 4.272t2.736 2.784 3.888 0.96z"/>
  <path d="m1152 440.8v-25.63h6v25.63zm3.024-29.86q-1.68 0-2.784-1.056-1.056-1.056-1.056-2.544 0-1.536 1.056-2.544 1.104-1.056 2.784-1.056t2.736 1.008q1.104 0.96 1.104 2.448 0 1.584-1.056 2.688-1.056 1.056-2.784 1.056z"/>
  <path d="m1175 441.1q-4.224 0-6.528-2.16-2.304-2.208-2.304-6.48v-22.99h6v22.85q0 1.824 0.912 2.832 0.96 1.008 2.64 1.008 2.016 0 3.36-1.056l1.68 4.272q-1.056 0.864-2.592 1.296t-3.168 0.432zm-13.06-20.98v-4.8h17.09v4.8z"/>
  <path d="m1186 440.8v-25.63h5.712v7.056l-0.672-2.064q1.152-2.592 3.6-3.936 2.496-1.344 6.192-1.344v5.712q-0.384-0.096-0.72-0.096-0.336-0.048-0.672-0.048-3.408 0-5.424 2.016-2.016 1.968-2.016 5.904v12.43z"/>
  <path d="m1220 440.8v-5.184l-0.336-1.104v-9.072q0-2.64-1.584-4.08-1.584-1.488-4.8-1.488-2.16 0-4.272 0.672-2.064 0.672-3.504 1.872l-2.352-4.368q2.064-1.584 4.896-2.352 2.88-0.816 5.952-0.816 5.568 0 8.592 2.688 3.072 2.64 3.072 8.208v15.02zm-8.064 0.336q-2.88 0-5.04-0.96-2.16-1.008-3.36-2.736-1.152-1.776-1.152-3.984 0-2.16 1.008-3.888 1.056-1.728 3.408-2.736t6.24-1.008h7.44v3.984h-7.008q-3.072 0-4.128 1.008-1.056 0.96-1.056 2.4 0 1.632 1.296 2.592t3.6 0.96q2.208 0 3.936-1.008 1.776-1.008 2.544-2.976l1.008 3.6q-0.864 2.256-3.12 3.504-2.208 1.248-5.616 1.248z"/>
  <path d="m1233 440.8v-25.63h5.712v7.056l-0.672-2.064q1.152-2.592 3.6-3.936 2.496-1.344 6.192-1.344v5.712q-0.384-0.096-0.72-0.096-0.336-0.048-0.672-0.048-3.408 0-5.424 2.016-2.016 1.968-2.016 5.904v12.43z"/>
  <path d="m1256 450.4q-1.872 0-3.744-0.624t-3.12-1.728l2.4-4.416q0.912 0.816 2.064 1.296t2.352 0.48q1.632 0 2.64-0.816t1.872-2.736l1.488-3.36 0.48-0.72 9.696-22.66h5.76l-12 27.7q-1.2 2.88-2.688 4.56-1.44 1.68-3.264 2.352-1.776 0.672-3.936 0.672zm5.28-8.736-11.57-26.54h6.24l9.408 22.13z"/>
  <path d="m1300 435.1 0.144-7.536 13.39-12.38h7.2l-11.38 11.42-3.168 2.64zm-4.896 5.712v-35.62h6v35.62zm19.34 0-9.36-11.57 3.792-4.8 12.86 16.37z"/>
  <path d="m1337 441.1q-4.272 0-7.488-1.68-3.168-1.728-4.944-4.704-1.728-2.976-1.728-6.768 0-3.84 1.68-6.768 1.728-2.976 4.704-4.656 3.024-1.68 6.864-1.68 3.744 0 6.672 1.632t4.608 4.608 1.68 7.008q0 0.384-0.048 0.864 0 0.48-0.048 0.912h-21.36v-3.984h18.19l-2.352 1.248q0.048-2.208-0.912-3.888t-2.64-2.64q-1.632-0.96-3.792-0.96-2.208 0-3.888 0.96-1.632 0.96-2.592 2.688-0.912 1.68-0.912 3.984v0.96q0 2.304 1.056 4.08t2.976 2.736 4.416 0.96q2.16 0 3.888-0.672t3.072-2.112l3.216 3.696q-1.728 2.016-4.368 3.12-2.592 1.056-5.952 1.056z"/>
  <path d="m1356 450.4q-1.872 0-3.744-0.624t-3.12-1.728l2.4-4.416q0.912 0.816 2.064 1.296t2.352 0.48q1.632 0 2.64-0.816t1.872-2.736l1.488-3.36 0.48-0.72 9.696-22.66h5.76l-12 27.7q-1.2 2.88-2.688 4.56-1.44 1.68-3.264 2.352-1.776 0.672-3.936 0.672zm5.28-8.736-11.57-26.54h6.24l9.408 22.13z"/>
  <path d="m1395 440.8v-35.62h6v35.62z"/>
  <path d="m1421 441.1q-4.272 0-7.488-1.68-3.168-1.728-4.944-4.704-1.728-2.976-1.728-6.768 0-3.84 1.68-6.768 1.728-2.976 4.704-4.656 3.024-1.68 6.864-1.68 3.744 0 6.672 1.632t4.608 4.608 1.68 7.008q0 0.384-0.048 0.864 0 0.48-0.048 0.912h-21.36v-3.984h18.19l-2.352 1.248q0.048-2.208-0.912-3.888t-2.64-2.64q-1.632-0.96-3.792-0.96-2.208 0-3.888 0.96-1.632 0.96-2.592 2.688-0.912 1.68-0.912 3.984v0.96q0 2.304 1.056 4.08t2.976 2.736 4.416 0.96q2.16 0 3.888-0.672t3.072-2.112l3.216 3.696q-1.728 2.016-4.368 3.12-2.592 1.056-5.952 1.056z"/>
  <path d="m1453 414.9q3.072 0 5.472 1.2 2.448 1.2 3.84 3.696 1.392 2.448 1.392 6.336v14.69h-6v-13.92q0-3.408-1.632-5.088-1.584-1.68-4.464-1.68-2.112 0-3.744 0.864t-2.544 2.592q-0.864 1.68-0.864 4.272v12.96h-6v-25.63h5.712v6.912l-1.008-2.112q1.344-2.448 3.888-3.744 2.592-1.344 5.952-1.344z"/>
  <path d="m1483 450.4q-3.552 0-6.96-0.96-3.36-0.912-5.52-2.688l2.688-4.512q1.68 1.392 4.224 2.208 2.592 0.864 5.232 0.864 4.224 0 6.192-1.968 1.968-1.92 1.968-5.808v-4.56l0.48-5.808-0.192-5.808v-6.24h5.712v21.74q0 6.96-3.552 10.22-3.552 3.312-10.27 3.312zm-0.768-10.8q-3.648 0-6.624-1.536-2.928-1.584-4.656-4.368-1.68-2.784-1.68-6.528 0-3.696 1.68-6.48 1.728-2.784 4.656-4.32 2.976-1.536 6.624-1.536 3.264 0 5.856 1.296t4.128 4.032q1.584 2.736 1.584 7.008t-1.584 7.056q-1.536 2.736-4.128 4.08-2.592 1.296-5.856 1.296zm0.912-5.088q2.256 0 4.032-0.912 1.776-0.96 2.736-2.592 1.008-1.68 1.008-3.84t-1.008-3.792q-0.96-1.68-2.736-2.544-1.776-0.912-4.032-0.912t-4.08 0.912q-1.776 0.864-2.784 2.544-0.96 1.632-0.96 3.792t0.96 3.84q1.008 1.632 2.784 2.592 1.824 0.912 4.08 0.912z"/>
  <path d="m1515 441.1q-4.224 0-6.528-2.16-2.304-2.208-2.304-6.48v-22.99h6v22.85q0 1.824 0.912 2.832 0.96 1.008 2.64 1.008 2.016 0 3.36-1.056l1.68 4.272q-1.056 0.864-2.592 1.296t-3.168 0.432zm-13.06-20.98v-4.8h17.09v4.8z"/>
  <path d="m1540 414.9q3.072 0 5.472 1.2 2.448 1.2 3.84 3.696 1.392 2.448 1.392 6.336v14.69h-6v-13.92q0-3.408-1.632-5.088-1.584-1.68-4.464-1.68-2.112 0-3.744 0.864t-2.544 2.592q-0.864 1.68-0.864 4.272v12.96h-6v-35.62h6v16.9l-1.296-2.112q1.344-2.448 3.888-3.744 2.592-1.344 5.952-1.344z"/>
  <path d="m1030 490.7v-4.992h13.2v4.992z"/>
  <path d="m1074 502q-3.936 0-7.536-1.104-3.6-1.152-5.712-2.928l2.16-4.848q2.016 1.584 4.992 2.64t6.096 1.056q2.64 0 4.272-0.576t2.4-1.536q0.768-1.008 0.768-2.256 0-1.536-1.104-2.448-1.104-0.96-2.88-1.488-1.728-0.576-3.888-1.056-2.112-0.48-4.272-1.104-2.112-0.672-3.888-1.68-1.728-1.056-2.832-2.784t-1.104-4.416q0-2.736 1.44-4.992 1.488-2.304 4.464-3.648 3.024-1.392 7.632-1.392 3.024 0 6 0.768t5.184 2.208l-1.968 4.848q-2.256-1.344-4.656-1.968-2.4-0.672-4.608-0.672-2.592 0-4.224 0.624-1.584 0.624-2.352 1.632-0.72 1.008-0.72 2.304 0 1.536 1.056 2.496 1.104 0.912 2.832 1.44 1.776 0.528 3.936 1.056 2.16 0.48 4.272 1.104 2.16 0.624 3.888 1.632 1.776 1.008 2.832 2.736 1.104 1.728 1.104 4.368 0 2.688-1.488 4.992-1.44 2.256-4.464 3.648-3.024 1.344-7.632 1.344z"/>
  <path d="m1109 502q-3.84 0-7.152-1.248-3.264-1.296-5.712-3.6-2.4-2.352-3.744-5.52t-1.344-6.912 1.344-6.912 3.792-5.472q2.448-2.352 5.712-3.6 3.264-1.296 7.152-1.296 4.128 0 7.536 1.44 3.408 1.392 5.76 4.176l-4.032 3.792q-1.824-1.968-4.08-2.928-2.256-1.008-4.896-1.008t-4.848 0.864q-2.16 0.864-3.792 2.448-1.584 1.584-2.496 3.744-0.864 2.16-0.864 4.752t0.864 4.752q0.912 2.16 2.496 3.744 1.632 1.584 3.792 2.448 2.208 0.864 4.848 0.864t4.896-0.96q2.256-1.008 4.08-3.024l4.032 3.84q-2.352 2.736-5.76 4.176t-7.584 1.44z"/>
  <path d="m1123 501.5 15.12-33.6h6.144l15.17 33.6h-6.528l-13.01-30.29h2.496l-12.96 30.29zm6.96-7.776 1.68-4.896h18.14l1.68 4.896z"/>
  <path d="m1164 501.5v-33.6h6.24v28.32h17.57v5.28z"/>
  <path d="m1198 481.9h16.7v5.136h-16.7zm0.48 14.4h18.96v5.232h-25.2v-33.6h24.53v5.232h-18.29z"/>
  <path d="m1249 501.8q-4.272 0-7.488-1.68-3.168-1.728-4.944-4.704-1.728-2.976-1.728-6.768 0-3.84 1.68-6.768 1.728-2.976 4.704-4.656 3.024-1.68 6.864-1.68 3.744 0 6.672 1.632t4.608 4.608 1.68 7.008q0 0.384-0.048 0.864 0 0.48-0.048 0.912h-21.36v-3.984h18.19l-2.352 1.248q0.048-2.208-0.912-3.888t-2.64-2.64q-1.632-0.96-3.792-0.96-2.208 0-3.888 0.96-1.632 0.96-2.592 2.688-0.912 1.68-0.912 3.984v0.96q0 2.304 1.056 4.08t2.976 2.736 4.416 0.96q2.16 0 3.888-0.672t3.072-2.112l3.216 3.696q-1.728 2.016-4.368 3.12-2.592 1.056-5.952 1.056z"/>
  <path d="m1282 475.6q3.072 0 5.472 1.2 2.448 1.2 3.84 3.696 1.392 2.448 1.392 6.336v14.69h-6v-13.92q0-3.408-1.632-5.088-1.584-1.68-4.464-1.68-2.112 0-3.744 0.864t-2.544 2.592q-0.864 1.68-0.864 4.272v12.96h-6v-25.63h5.712v6.912l-1.008-2.112q1.344-2.448 3.888-3.744 2.592-1.344 5.952-1.344z"/>
  <path d="m1312 501.8q-4.032 0-7.2-1.68-3.12-1.728-4.896-4.704t-1.776-6.768q0-3.84 1.776-6.768 1.776-2.976 4.896-4.656 3.168-1.68 7.2-1.68 3.744 0 6.576 1.536 2.88 1.488 4.368 4.416l-4.608 2.688q-1.152-1.824-2.832-2.688-1.632-0.864-3.552-0.864-2.208 0-3.984 0.96t-2.784 2.784q-1.008 1.776-1.008 4.272t1.008 4.32q1.008 1.776 2.784 2.736t3.984 0.96q1.92 0 3.552-0.864 1.68-0.864 2.832-2.688l4.608 2.688q-1.488 2.88-4.368 4.464-2.832 1.536-6.576 1.536z"/>
  <path d="m1339 501.8q-3.936 0-7.008-1.68-3.072-1.728-4.848-4.704t-1.776-6.768q0-3.84 1.776-6.768 1.776-2.976 4.848-4.656t7.008-1.68q3.984 0 7.056 1.68 3.12 1.68 4.848 4.608 1.776 2.928 1.776 6.816 0 3.792-1.776 6.768-1.728 2.976-4.848 4.704-3.072 1.68-7.056 1.68zm0-5.136q2.208 0 3.936-0.96t2.688-2.784q1.008-1.824 1.008-4.272 0-2.496-1.008-4.272-0.96-1.824-2.688-2.784t-3.888-0.96q-2.208 0-3.936 0.96-1.68 0.96-2.688 2.784-1.008 1.776-1.008 4.272 0 2.448 1.008 4.272t2.688 2.784q1.728 0.96 3.888 0.96z"/>
  <path d="m1370 501.8q-3.696 0-6.672-1.632-2.928-1.68-4.608-4.608t-1.68-6.912 1.68-6.912 4.608-4.56q2.976-1.632 6.672-1.632 3.216 0 5.76 1.44 2.544 1.392 4.032 4.272t1.488 7.392q0 4.464-1.44 7.392-1.44 2.88-3.984 4.32t-5.856 1.44zm0.72-5.136q2.16 0 3.84-0.96 1.728-0.96 2.736-2.784 1.056-1.824 1.056-4.272 0-2.496-1.056-4.272-1.008-1.824-2.736-2.784-1.68-0.96-3.84-0.96t-3.888 0.96q-1.68 0.96-2.736 2.784-1.008 1.776-1.008 4.272 0 2.448 1.008 4.272 1.056 1.824 2.736 2.784 1.728 0.96 3.888 0.96zm7.776 4.8v-6.048l0.24-6.816-0.48-6.816v-15.94h5.952v35.62z"/>
  <path d="m1404 501.8q-4.272 0-7.488-1.68-3.168-1.728-4.944-4.704-1.728-2.976-1.728-6.768 0-3.84 1.68-6.768 1.728-2.976 4.704-4.656 3.024-1.68 6.864-1.68 3.744 0 6.672 1.632t4.608 4.608 1.68 7.008q0 0.384-0.048 0.864 0 0.48-0.048 0.912h-21.36v-3.984h18.19l-2.352 1.248q0.048-2.208-0.912-3.888t-2.64-2.64q-1.632-0.96-3.792-0.96-2.208 0-3.888 0.96-1.632 0.96-2.592 2.688-0.912 1.68-0.912 3.984v0.96q0 2.304 1.056 4.08t2.976 2.736 4.416 0.96q2.16 0 3.888-0.672t3.072-2.112l3.216 3.696q-1.728 2.016-4.368 3.12-2.592 1.056-5.952 1.056z"/>
  <path d="m1432 501.8q-3.696 0-6.672-1.632-2.928-1.68-4.608-4.608t-1.68-6.912 1.68-6.912 4.608-4.56q2.976-1.632 6.672-1.632 3.216 0 5.76 1.44 2.544 1.392 4.032 4.272t1.488 7.392q0 4.464-1.44 7.392-1.44 2.88-3.984 4.32t-5.856 1.44zm0.72-5.136q2.16 0 3.84-0.96 1.728-0.96 2.736-2.784 1.056-1.824 1.056-4.272 0-2.496-1.056-4.272-1.008-1.824-2.736-2.784-1.68-0.96-3.84-0.96t-3.888 0.96q-1.68 0.96-2.736 2.784-1.008 1.776-1.008 4.272 0 2.448 1.008 4.272 1.056 1.824 2.736 2.784 1.728 0.96 3.888 0.96zm7.776 4.8v-6.048l0.24-6.816-0.48-6.816v-15.94h5.952v35.62z"/>
  <path d="m1475 501.5-10.99-25.63h6.24l9.456 22.61h-3.072l9.792-22.61h5.76l-10.99 25.63z"/>
  <path d="m1510 501.5v-5.184l-0.336-1.104v-9.072q0-2.64-1.584-4.08-1.584-1.488-4.8-1.488-2.16 0-4.272 0.672-2.064 0.672-3.504 1.872l-2.352-4.368q2.064-1.584 4.896-2.352 2.88-0.816 5.952-0.816 5.568 0 8.592 2.688 3.072 2.64 3.072 8.208v15.02zm-8.064 0.336q-2.88 0-5.04-0.96-2.16-1.008-3.36-2.736-1.152-1.776-1.152-3.984 0-2.16 1.008-3.888 1.056-1.728 3.408-2.736t6.24-1.008h7.44v3.984h-7.008q-3.072 0-4.128 1.008-1.056 0.96-1.056 2.4 0 1.632 1.296 2.592t3.6 0.96q2.208 0 3.936-1.008 1.776-1.008 2.544-2.976l1.008 3.6q-0.864 2.256-3.12 3.504-2.208 1.248-5.616 1.248z"/>
  <path d="m1524 501.5v-35.62h6v35.62z"/>
  <path d="m1548 501.8q-3.264 0-5.76-1.2-2.496-1.248-3.888-3.744-1.392-2.544-1.392-6.384v-14.64h6v13.82q0 3.456 1.536 5.184 1.584 1.68 4.464 1.68 2.112 0 3.648-0.864 1.584-0.864 2.448-2.592 0.912-1.728 0.912-4.272v-12.96h6v25.63h-5.712v-6.912l1.008 2.112q-1.296 2.496-3.792 3.84-2.496 1.296-5.472 1.296z"/>
  <path d="m1582 501.8q-4.272 0-7.488-1.68-3.168-1.728-4.944-4.704-1.728-2.976-1.728-6.768 0-3.84 1.68-6.768 1.728-2.976 4.704-4.656 3.024-1.68 6.864-1.68 3.744 0 6.672 1.632t4.608 4.608 1.68 7.008q0 0.384-0.048 0.864 0 0.48-0.048 0.912h-21.36v-3.984h18.19l-2.352 1.248q0.048-2.208-0.912-3.888t-2.64-2.64q-1.632-0.96-3.792-0.96-2.208 0-3.888 0.96-1.632 0.96-2.592 2.688-0.912 1.68-0.912 3.984v0.96q0 2.304 1.056 4.08t2.976 2.736 4.416 0.96q2.16 0 3.888-0.672t3.072-2.112l3.216 3.696q-1.728 2.016-4.368 3.12-2.592 1.056-5.952 1.056z"/>
  <path d="m1608 501.8q-3.216 0-6.192-0.816-2.928-0.864-4.656-2.064l2.304-4.56q1.728 1.104 4.128 1.824t4.8 0.72q2.832 0 4.08-0.768 1.296-0.768 1.296-2.064 0-1.056-0.864-1.584-0.864-0.576-2.256-0.864t-3.12-0.528q-1.68-0.24-3.408-0.624-1.68-0.432-3.072-1.2-1.392-0.816-2.256-2.16t-0.864-3.552q0-2.448 1.392-4.224 1.392-1.824 3.888-2.784 2.544-1.008 6-1.008 2.592 0 5.232 0.576t4.368 1.632l-2.304 4.56q-1.824-1.104-3.696-1.488-1.824-0.432-3.648-0.432-2.736 0-4.08 0.816-1.296 0.816-1.296 2.064 0 1.152 0.864 1.728t2.256 0.912 3.072 0.576q1.728 0.192 3.408 0.624t3.072 1.2q1.44 0.72 2.304 2.064t0.864 3.504q0 2.4-1.44 4.176-1.392 1.776-3.984 2.784-2.592 0.96-6.192 0.96z"/>
 </g>
 <text font-family="'Fira Sans'" font-size="85.33px" style="line-height:1.25;shape-inside:url(#rect617);white-space:pre" xml:space="preserve"/>
 <text fill="#000000" style="shape-inside:url(#rect364);white-space:pre" xml:space="preserve"/>
</svg>
