<svg version="1.1" xmlns="http://www.w3.org/2000/svg" viewBox="0 0 639.7942768554822 304.5426052087957" width="639.7942768554822" height="304.5426052087957">
  <!-- svg-source:excalidraw -->
  
  <defs>
    <style class="style-fonts">
      @font-face {
        font-family: "Virgil";
        src: url("https://excalidraw.com/Virgil.woff2");
      }
      @font-face {
        font-family: "Cascadia";
        src: url("https://excalidraw.com/Cascadia.woff2");
      }
    </style>
    
  </defs>
  <g stroke-linecap="round" transform="translate(231.79427685548217 45) rotate(0 199 108)"><path d="M32 0 M32 0 C101.81 -2.41, 176.32 -2.34, 366 0 M32 0 C119.36 0.17, 206.96 -1.63, 366 0 M366 0 C383.99 0.95, 396.43 10, 398 32 M366 0 C389.89 -0.95, 396.28 11.78, 398 32 M398 32 C393.33 85.15, 398.27 134.97, 398 184 M398 32 C397.29 78.44, 396.48 124.78, 398 184 M398 184 C399.13 204.49, 384.9 218.66, 366 216 M398 184 C395.74 207.34, 390.39 214.15, 366 216 M366 216 C273.48 212.04, 178.6 212.15, 32 216 M366 216 C233.38 215.47, 100.57 216.15, 32 216 M32 216 C7.87 219.24, -0.86 203.89, 0 184 M32 216 C9.92 213.41, 0.97 204.21, 0 184 M0 184 C1.34 143.45, -2.38 106.77, 0 32 M0 184 C0.9 129.45, -0.36 77.2, 0 32 M0 32 C2.09 14.32, 14.12 -3.48, 32 0 M0 32 C3.79 8.35, 11.52 -3.18, 32 0" stroke="#ffffff" stroke-width="1" fill="none"></path></g><g stroke-linecap="round" transform="translate(436.86993510603145 88.99789693399015) rotate(0 84.51745812888953 69.53968073895973)"><path d="M106.25 17.5 M106.25 17.5 C118.68 27.62, 131.14 37.45, 147.78 52.5 M106.25 17.5 C120.78 26.1, 130.39 39.22, 147.78 52.5 M147.78 52.5 C167.47 69.33, 171.26 69.18, 147.78 87.5 M147.78 52.5 C167.32 71.11, 170.96 68.43, 147.78 87.5 M147.78 87.5 C138.86 94.68, 128.26 100.84, 106.25 121.58 M147.78 87.5 C135.48 97.36, 122.27 108.69, 106.25 121.58 M106.25 121.58 C82.57 141.73, 83.04 140.82, 63.75 121.58 M106.25 121.58 C88.06 137.23, 84.09 134.8, 63.75 121.58 M63.75 121.58 C52.16 109.17, 45.44 105.01, 21.25 87.5 M63.75 121.58 C51.56 109.7, 35.56 101.27, 21.25 87.5 M21.25 87.5 C-0.86 68.55, -0.65 67.74, 21.25 52.5 M21.25 87.5 C0.97 68.88, -2.29 72.96, 21.25 52.5 M21.25 52.5 C37.15 37.94, 56.5 25.65, 63.75 17.5 M21.25 52.5 C35.92 40.39, 52.11 29.94, 63.75 17.5 M63.75 17.5 C88.45 -3.48, 88.29 -2.01, 106.25 17.5 M63.75 17.5 C85.85 -3.18, 82.8 1.94, 106.25 17.5" stroke="#ffffff" stroke-width="1" fill="none"></path></g><g stroke-linecap="round" transform="translate(10 23.656671950168004) rotate(0 84.5 33)"><path d="M23.53 12.01 C30.77 7.75, 42.45 2.25, 54.75 0.18 C67.05 -1.89, 84.13 -1.64, 97.34 -0.43 C110.54 0.78, 123.53 4.43, 133.96 7.45 C144.39 10.47, 153.99 13.14, 159.91 17.68 C165.82 22.22, 169.84 29.69, 169.45 34.69 C169.07 39.7, 164.36 43.3, 157.59 47.72 C150.83 52.14, 139.6 58.29, 128.86 61.23 C118.12 64.17, 105.86 65.22, 93.15 65.38 C80.45 65.54, 64.81 63.84, 52.65 62.2 C40.5 60.57, 28.72 59.16, 20.2 55.55 C11.69 51.95, 4.59 45.69, 1.58 40.57 C-1.43 35.45, -3.44 30.79, 2.15 24.84 C7.73 18.89, 26.73 8.63, 35.08 4.9 C43.43 1.17, 51.22 1.58, 52.26 2.45 M50.18 3.82 C60.85 1.89, 76.13 -0.84, 89.02 -0.13 C101.9 0.58, 115.84 5.24, 127.5 8.08 C139.16 10.91, 151.89 13.33, 158.99 16.87 C166.1 20.41, 169.51 24.42, 170.15 29.32 C170.79 34.22, 169.01 40.87, 162.84 46.29 C156.67 51.71, 144.04 58.79, 133.13 61.82 C122.22 64.86, 110.02 64.36, 97.37 64.49 C84.72 64.62, 69.42 64.17, 57.22 62.6 C45.01 61.04, 33.39 58.2, 24.16 55.12 C14.93 52.03, 5.08 48.47, 1.83 44.1 C-1.42 39.72, 2.09 34.24, 4.64 28.86 C7.2 23.47, 9.53 15.92, 17.18 11.8 C24.83 7.68, 44.66 5.3, 50.54 4.16 C56.41 3.01, 51.4 4.98, 52.41 4.92" stroke="#ffffff" stroke-width="1" fill="none"></path></g><g transform="translate(490.47260874484755 169.784947520218) rotate(0 30.641666412353516 16.07802430858993)"><text x="30.641666412353516" y="0" font-family="Helvetica, Segoe UI Emoji" font-size="13.98089070312169px" fill="#ffffff" text-anchor="middle" style="white-space: pre;" direction="ltr" dominant-baseline="text-before-edge">parachain</text><text x="30.641666412353516" y="16.078024308589942" font-family="Helvetica, Segoe UI Emoji" font-size="13.98089070312169px" fill="#ffffff" text-anchor="middle" style="white-space: pre;" direction="ltr" dominant-baseline="text-before-edge">runtime</text></g><g transform="translate(473.98576362171843 138.7455146933999) rotate(0 46.84354070302186 8.558729937102754)"><text x="0" y="0" font-family="Helvetica, Segoe UI Emoji" font-size="14.884747716700431px" fill="#ffffff" text-anchor="start" style="white-space: pre;" direction="ltr" dominant-baseline="text-before-edge">validate_block</text></g><g transform="translate(54 44.656671950168004) rotate(0 38.70833206176758 11.5)"><text x="0" y="0" font-family="Helvetica, Segoe UI Emoji" font-size="20px" fill="#ffffff" text-anchor="start" style="white-space: pre;" direction="ltr" dominant-baseline="text-before-edge">Collation</text></g><g transform="translate(249.79427685548217 10) rotate(0 82.34529113769531 14.5)"><text x="0" y="0" font-family="Helvetica, Segoe UI Emoji" font-size="25.21739130434783px" fill="#ffffff" text-anchor="start" style="white-space: pre;" direction="ltr" dominant-baseline="text-before-edge">Validator Node</text></g><g stroke-linecap="round" transform="translate(242.09292088363827 160.26265188529908) rotate(0 56.5 43)"><path d="M21.5 0 M21.5 0 C39.28 -2.39, 53.67 2.11, 91.5 0 M21.5 0 C38.22 3.14, 59.33 0.16, 91.5 0 M91.5 0 C106.32 -2.38, 115.74 8.67, 113 21.5 M91.5 0 C108.88 3.74, 112.63 8.56, 113 21.5 M113 21.5 C110.84 34.06, 111.58 48.61, 113 64.5 M113 21.5 C114.18 36.54, 114.35 47.87, 113 64.5 M113 64.5 C113.65 81.03, 103.26 87.83, 91.5 86 M113 64.5 C115.92 79.32, 110.28 84.91, 91.5 86 M91.5 86 C65.45 84.11, 42.28 83.58, 21.5 86 M91.5 86 C72.19 84.99, 50.28 85.05, 21.5 86 M21.5 86 C8.4 88.8, 1.94 81.05, 0 64.5 M21.5 86 C2.73 83.21, 1.53 82.83, 0 64.5 M0 64.5 C-1.43 48.75, 0.61 34.82, 0 21.5 M0 64.5 C-0.31 49.74, -0.34 36.27, 0 21.5 M0 21.5 C3.34 7.83, 4.37 -1.83, 21.5 0 M0 21.5 C-2.39 5.79, 4.73 1.58, 21.5 0" stroke="#ffffff" stroke-width="1" fill="none"></path></g><g transform="translate(265.7512537083453 174.46265188529907) rotate(0 32.84166717529297 28.799999999999983)"><text x="32.84166717529297" y="0" font-family="Cascadia, Segoe UI Emoji" font-size="16px" fill="#ffffff" text-anchor="middle" style="white-space: pre;" direction="ltr" dominant-baseline="text-before-edge">Relay </text><text x="32.84166717529297" y="19.2" font-family="Cascadia, Segoe UI Emoji" font-size="16px" fill="#ffffff" text-anchor="middle" style="white-space: pre;" direction="ltr" dominant-baseline="text-before-edge">Chain </text><text x="32.84166717529297" y="38.4" font-family="Cascadia, Segoe UI Emoji" font-size="16px" fill="#ffffff" text-anchor="middle" style="white-space: pre;" direction="ltr" dominant-baseline="text-before-edge">Runtime</text></g><g transform="translate(376.6116616622081 74.12728117545794) rotate(0 26.816667556762695 11.5)"><text x="0" y="0" font-family="Helvetica, Segoe UI Emoji" font-size="20px" fill="#ffffff" text-anchor="start" style="white-space: pre;" direction="ltr" dominant-baseline="text-before-edge">PVFs:</text></g><g stroke-linecap="round" transform="translate(369.71265942967807 95.46920969696316) rotate(0 32 33)"><path d="M41.25 8.5 M41.25 8.5 C46.97 18.57, 51.69 24.52, 55.75 25.5 M41.25 8.5 C45.49 13.36, 48.46 18.29, 55.75 25.5 M55.75 25.5 C64.11 36.47, 66.09 34.86, 55.75 42.5 M55.75 25.5 C62.7 30.55, 68.37 32.26, 55.75 42.5 M55.75 42.5 C54.78 47.11, 43.24 54.31, 41.25 57.5 M55.75 42.5 C49.93 48.2, 47.74 52.15, 41.25 57.5 M41.25 57.5 C33.37 69.72, 36.77 68.16, 24.75 57.5 M41.25 57.5 C37.15 69.26, 36.33 69.28, 24.75 57.5 M24.75 57.5 C24.18 55.75, 14.33 49.37, 8.25 42.5 M24.75 57.5 C19.02 52.94, 14.78 48.28, 8.25 42.5 M8.25 42.5 C1.97 35.65, 1.51 34.95, 8.25 25.5 M8.25 42.5 C3.86 35.34, 1.6 33.56, 8.25 25.5 M8.25 25.5 C16.79 18.08, 22.76 10.89, 24.75 8.5 M8.25 25.5 C13.12 20.95, 22.89 12.37, 24.75 8.5 M24.75 8.5 C33.77 2.09, 35.25 2.14, 41.25 8.5 M24.75 8.5 C30.54 2.49, 30.26 2.89, 41.25 8.5" stroke="#ffffff" stroke-width="1" fill="none"></path></g><g transform="translate(393.36265904820834 116.96920969696316) rotate(0 8.350000381469727 11.5)"><text x="8.350000381469727" y="0" font-family="Helvetica, Segoe UI Emoji" font-size="20px" fill="#ffffff" text-anchor="middle" style="white-space: pre;" direction="ltr" dominant-baseline="text-before-edge">...</text></g><g stroke-linecap="round" transform="translate(373.4021658456368 168.9747706786011) rotate(0 30.734715473573033 33)"><path d="M38.75 8.5 M38.75 8.5 C44.69 13.74, 46.5 22.9, 53.72 25.5 M38.75 8.5 C44.44 10.99, 44.64 15.39, 53.72 25.5 M53.72 25.5 C64.79 37.31, 60.66 34.77, 53.72 42.5 M53.72 25.5 C63.88 36.59, 63.92 31.54, 53.72 42.5 M53.72 42.5 C50.92 49.71, 43.54 50.61, 38.75 57.5 M53.72 42.5 C48.74 48.64, 45.47 52.69, 38.75 57.5 M38.75 57.5 C27.11 67.04, 32.15 64.65, 23.25 57.5 M38.75 57.5 C31.25 68.52, 27.19 65.3, 23.25 57.5 M23.25 57.5 C18.19 56.38, 11.39 46.73, 7.75 42.5 M23.25 57.5 C17.95 53.62, 13.82 48.07, 7.75 42.5 M7.75 42.5 C2.63 34.01, 3.49 37.26, 7.75 25.5 M7.75 42.5 C0.93 36.93, -2.37 34.57, 7.75 25.5 M7.75 25.5 C12.61 19.54, 22.55 14.64, 23.25 8.5 M7.75 25.5 C12.02 19.6, 17.31 11.93, 23.25 8.5 M23.25 8.5 C32.65 2.35, 32.8 3.78, 38.75 8.5 M23.25 8.5 C29.27 1.53, 28.5 -2.6, 38.75 8.5" stroke="#ffffff" stroke-width="1" fill="none"></path></g><g transform="translate(395.91952320095356 190.4747706786011) rotate(0 8.350000381469727 11.5)"><text x="8.350000381469727" y="0" font-family="Helvetica, Segoe UI Emoji" font-size="20px" fill="#ffffff" text-anchor="middle" style="white-space: pre;" direction="ltr" dominant-baseline="text-before-edge">...</text></g><g stroke-linecap="round" transform="translate(19.825677946279654 143.9507273737966) rotate(0 67.93698841612164 63.63328779247598)"><path d="M31.82 0 M31.82 0 C50.06 -1.31, 64.66 1.76, 104.06 0 M31.82 0 C55.64 -2.87, 81.69 -1.07, 104.06 0 M104.06 0 C127.02 -3.02, 133.1 13.34, 135.87 31.82 M104.06 0 C122.51 -4.57, 136.69 13.24, 135.87 31.82 M135.87 31.82 C136.29 53.53, 137.24 79.29, 135.87 95.45 M135.87 31.82 C134.69 51.54, 136.79 71.88, 135.87 95.45 M135.87 95.45 C138.12 118.83, 125.7 126.26, 104.06 127.27 M135.87 95.45 C137.13 116.33, 122.15 124.23, 104.06 127.27 M104.06 127.27 C90.94 125.98, 70.16 129.55, 31.82 127.27 M104.06 127.27 C89.17 129.76, 75.26 126.67, 31.82 127.27 M31.82 127.27 C7.02 128.09, -1.85 115.69, 0 95.45 M31.82 127.27 C12.17 131.48, -3.37 117.43, 0 95.45 M0 95.45 C-2.63 79.61, -2.63 61.14, 0 31.82 M0 95.45 C-1.84 80.49, -0.88 69.54, 0 31.82 M0 31.82 C-2.93 12.62, 12.63 0.94, 31.82 0 M0 31.82 C-1.05 11.55, 6.06 -2.63, 31.82 0" stroke="transparent" stroke-width="1" fill="none"></path></g><g transform="translate(29.17933430063374 183.5840151662726) rotate(0 58.58333206176758 24)"><text x="58.58333206176758" y="0" font-family="Cascadia, Segoe UI Emoji" font-size="20px" fill="transparent" text-anchor="middle" style="white-space: pre;" direction="ltr" dominant-baseline="text-before-edge">Candidate </text><text x="58.58333206176758" y="24" font-family="Cascadia, Segoe UI Emoji" font-size="20px" fill="transparent" text-anchor="middle" style="white-space: pre;" direction="ltr" dominant-baseline="text-before-edge">Recepeit</text></g><g stroke-linecap="round" transform="translate(245.10868452877924 58.53634123828789) rotate(0 53.39499422735872 45.48462471219452)"><path d="M22.74 0 M22.74 0 C41.88 2, 62.57 -1.29, 84.05 0 M22.74 0 C37.03 0.76, 49.26 1.04, 84.05 0 M84.05 0 C100.22 -1.79, 107.27 9.11, 106.79 22.74 M84.05 0 C99.44 0.9, 107.94 9.25, 106.79 22.74 M106.79 22.74 C105.46 38.62, 107.78 53.52, 106.79 68.23 M106.79 22.74 C106.74 34.78, 105.7 46.05, 106.79 68.23 M106.79 68.23 C106.38 81.54, 99.44 89.05, 84.05 90.97 M106.79 68.23 C106.93 82.68, 100.47 91.85, 84.05 90.97 M84.05 90.97 C60.1 90.6, 36.45 90.62, 22.74 90.97 M84.05 90.97 C59.65 90.97, 35.63 90.94, 22.74 90.97 M22.74 90.97 C6.14 91.17, -1.28 82.26, 0 68.23 M22.74 90.97 C8.51 92.6, -2.12 84.87, 0 68.23 M0 68.23 C2.11 53.16, 1.16 41.41, 0 22.74 M0 68.23 C-0.54 51.66, -0.15 36.49, 0 22.74 M0 22.74 C-1.73 6.09, 5.77 0.4, 22.74 0 M0 22.74 C2.17 5.58, 8.39 2.02, 22.74 0" stroke="#ffffff" stroke-width="1" fill="none"></path></g><g transform="translate(270.35367913760774 94.42096595048241) rotate(0 28.149999618530273 9.599999999999994)"><text x="28.149999618530273" y="0" font-family="Cascadia, Segoe UI Emoji" font-size="16px" fill="#ffffff" text-anchor="middle" style="white-space: pre;" direction="ltr" dominant-baseline="text-before-edge">Client</text></g><g stroke-linecap="round" transform="translate(361.50412168048183 60.79644681404912) rotate(0 124.305806666867 88.70914384862776)"><path d="M32 0 M32 0 C95.92 -1.23, 159.93 -1.07, 216.61 0 M32 0 C105.37 -0.74, 178.08 -0.59, 216.61 0 M216.61 0 C236.93 -0.42, 247.42 9.92, 248.61 32 M216.61 0 C237.71 -0.02, 248.99 11.18, 248.61 32 M248.61 32 C248.6 55.27, 247.9 82.33, 248.61 145.42 M248.61 32 C247.78 71.38, 247.9 110.41, 248.61 145.42 M248.61 145.42 C248.86 165.21, 238.88 178.15, 216.61 177.42 M248.61 145.42 C248.97 168.15, 239.39 177.8, 216.61 177.42 M216.61 177.42 C145.82 177.33, 72.92 179.71, 32 177.42 M216.61 177.42 C155.51 179.21, 94.25 177.84, 32 177.42 M32 177.42 C9.15 178.51, -1.44 167.41, 0 145.42 M32 177.42 C11.85 175.32, -0.28 168.26, 0 145.42 M0 145.42 C0.45 117.64, -0.14 87.35, 0 32 M0 145.42 C-1.3 102.87, -0.08 59.17, 0 32 M0 32 C1.43 9.15, 11.49 0.9, 32 0 M0 32 C-0.05 10.77, 8.63 0.53, 32 0" stroke="#ffffff" stroke-width="1" fill="none"></path></g><g stroke-linecap="round"><g transform="translate(351.77708438701393 82.66413786568208) rotate(0 58.58664626703148 18.49054925287797)"><path d="M-0.26 -1.15 C5.18 -5.98, 14.52 -25.75, 32.06 -28.51 C49.61 -31.26, 96.2 -32.19, 105.01 -17.66 C113.81 -3.12, 83.09 44.91, 84.89 58.71 C86.68 72.51, 110.6 63.99, 115.77 65.15 M1.8 0.87 C7.69 -3.87, 17.3 -24.39, 34.45 -27.32 C51.61 -30.25, 96.28 -31.13, 104.74 -16.71 C113.2 -2.3, 83.12 45.49, 85.23 59.19 C87.35 72.88, 112.17 64.51, 117.44 65.43" stroke="transparent" stroke-width="1" fill="none"></path></g><g transform="translate(351.77708438701393 82.66413786568208) rotate(0 58.58664626703148 18.49054925287797)"><path d="M101.19 71.57 C105.5 71.95, 109.16 69.16, 115.82 64.09 M103.14 72.9 C107.14 70.89, 111.09 68.74, 117.44 65.41" stroke="transparent" stroke-width="1" fill="none"></path></g><g transform="translate(351.77708438701393 82.66413786568208) rotate(0 58.58664626703148 18.49054925287797)"><path d="M100.15 60.49 C104.78 63.68, 108.7 63.69, 115.82 64.09 M102.1 61.83 C106.32 62.95, 110.56 63.95, 117.44 65.41" stroke="transparent" stroke-width="1" fill="none"></path></g></g><mask></mask><g stroke-linecap="round"><g transform="translate(574.4130094288286 144.9779973203204) rotate(0 16.871772728785345 20.154704585497996)"><path d="M-0.72 0.05 C6.52 0.49, 35.97 -4.79, 43.39 2.14 C50.82 9.07, 53.79 35.88, 43.82 41.63 C33.85 47.38, -6.42 37.55, -16.45 36.63 M1.1 -0.98 C8.23 -0.86, 35.66 -6.56, 42.67 0.19 C49.69 6.94, 52.99 33.27, 43.19 39.55 C33.39 45.83, -5.99 38.4, -16.14 37.87" stroke="transparent" stroke-width="1" fill="none"></path></g><g transform="translate(574.4130094288286 144.9779973203204) rotate(0 16.871772728785345 20.154704585497996)"><path d="M13.12 31.64 C4.94 33.23, -3.4 35.04, -15.72 38.2 M13.19 31.8 C5.75 32.09, -3.68 35, -15.92 38.8" stroke="transparent" stroke-width="1" fill="none"></path></g><g transform="translate(574.4130094288286 144.9779973203204) rotate(0 16.871772728785345 20.154704585497996)"><path d="M10.76 52.03 C3.37 47.6, -4.28 43.4, -15.72 38.2 M10.83 52.19 C3.87 46.81, -4.9 44.06, -15.92 38.8" stroke="transparent" stroke-width="1" fill="none"></path></g></g><mask></mask><g stroke-linecap="round"><g transform="translate(483.6646704172193 184.90726648542847) rotate(0 -161.18433812700613 51.62360700031064)"><path d="M0.36 -0.93 C-5.17 -0.49, -27.81 -13.76, -33.53 2.38 C-39.25 18.52, 4.47 79.67, -33.94 95.9 C-72.35 112.13, -221.04 110.95, -263.99 99.75 C-306.93 88.55, -281.83 41.11, -291.62 28.69 C-301.41 16.28, -317.8 25.7, -322.73 25.27 M-0.91 1.19 C-6.59 1.3, -28.92 -15.48, -34.61 0.55 C-40.3 16.58, 3.2 80.67, -35.06 97.38 C-73.32 114.09, -221.72 112.18, -264.17 100.82 C-306.62 89.46, -280.16 42, -289.76 29.22 C-299.36 16.44, -316.71 24.83, -321.78 24.15" stroke="transparent" stroke-width="1" fill="none"></path></g><g transform="translate(483.6646704172193 184.90726648542847) rotate(0 -161.18433812700613 51.62360700031064)"><path d="M-309.29 16.56 C-311.09 18.04, -315.13 19.82, -321.87 23.35 M-307.65 17.35 C-311.78 18.91, -317.56 21.96, -321.65 24.2" stroke="transparent" stroke-width="1" fill="none"></path></g><g transform="translate(483.6646704172193 184.90726648542847) rotate(0 -161.18433812700613 51.62360700031064)"><path d="M-307.82 27.07 C-310 25.7, -314.43 24.63, -321.87 23.35 M-306.19 27.86 C-310.71 26.03, -316.96 25.7, -321.65 24.2" stroke="transparent" stroke-width="1" fill="none"></path></g></g><mask></mask><g stroke-linecap="round"><g transform="translate(184.19515167890881 59.67455864940774) rotate(0 29.420621262726 27.586053636303177)"><path d="M1.02 0.72 C4.72 1.02, 19.85 -6.03, 23.04 2.25 C26.23 10.53, 14.19 41.53, 20.14 50.41 C26.09 59.29, 52.14 54.74, 58.75 55.52 M0.09 0.05 C3.57 0.45, 18.89 -5.14, 22.12 3.38 C25.35 11.91, 13.42 42.33, 19.47 51.2 C25.51 60.06, 51.93 55.89, 58.39 56.55" stroke="transparent" stroke-width="1" fill="none"></path></g><g transform="translate(184.19515167890881 59.67455864940774) rotate(0 29.420621262726 27.586053636303177)"><path d="M40.88 63.92 C45.3 61.27, 51.84 56.37, 58.16 56.33 M39.6 64.39 C43.42 60.97, 49.57 60.62, 58.81 57.33" stroke="transparent" stroke-width="1" fill="none"></path></g><g transform="translate(184.19515167890881 59.67455864940774) rotate(0 29.420621262726 27.586053636303177)"><path d="M40.57 50.19 C45.16 52.63, 51.81 52.81, 58.16 56.33 M39.29 50.66 C43.24 50.71, 49.47 53.84, 58.81 57.33" stroke="transparent" stroke-width="1" fill="none"></path></g></g><mask></mask></svg>