<svg version="1.1" xmlns="http://www.w3.org/2000/svg" viewBox="0 0 418 236" width="418" height="236">
  <!-- svg-source:excalidraw -->
  
  <defs>
    <style class="style-fonts">
      @font-face {
        font-family: "Virgil";
        src: url("https://excalidraw.com/Virgil.woff2");
      }
      @font-face {
        font-family: "Cascadia";
        src: url("https://excalidraw.com/Cascadia.woff2");
      }
    </style>
    
  </defs>
  <g stroke-linecap="round" transform="translate(10 10) rotate(0 199 108)"><path d="M32 0 M32 0 C101.81 -2.41, 176.32 -2.34, 366 0 M32 0 C119.36 0.17, 206.96 -1.63, 366 0 M366 0 C383.99 0.95, 396.43 10, 398 32 M366 0 C389.89 -0.95, 396.28 11.78, 398 32 M398 32 C393.33 85.15, 398.27 134.97, 398 184 M398 32 C397.29 78.44, 396.48 124.78, 398 184 M398 184 C399.13 204.49, 384.9 218.66, 366 216 M398 184 C395.74 207.34, 390.39 214.15, 366 216 M366 216 C273.48 212.04, 178.6 212.15, 32 216 M366 216 C233.38 215.47, 100.57 216.15, 32 216 M32 216 C7.87 219.24, -0.86 203.89, 0 184 M32 216 C9.92 213.41, 0.97 204.21, 0 184 M0 184 C1.34 143.45, -2.38 106.77, 0 32 M0 184 C0.9 129.45, -0.36 77.2, 0 32 M0 32 C2.09 14.32, 14.12 -3.48, 32 0 M0 32 C3.79 8.35, 11.52 -3.18, 32 0" stroke="#ffffff" stroke-width="1" fill="none"></path></g><g stroke-linecap="round" transform="translate(107.26250227001992 21.8794709501947) rotate(0 98.5 25.999999999999986)"><path d="M13 0 M13 0 C68.51 3.06, 125.57 -0.23, 184 0 M13 0 C51.23 1.22, 87.39 1.5, 184 0 M184 0 C193.67 -1.79, 197.48 5.86, 197 13 M184 0 C192.9 0.9, 198.15 6, 197 13 M197 13 C195.8 22.34, 198.11 30.68, 197 39 M197 13 C197.08 20.21, 196.04 26.66, 197 39 M197 39 C196.59 45.82, 192.89 50.08, 184 52 M197 39 C197.14 46.96, 193.93 52.88, 184 52 M184 52 C118.76 51, 53.82 51.01, 13 52 M184 52 C116.05 50.91, 48.46 50.88, 13 52 M13 52 C2.89 52.2, -1.28 46.54, 0 39 M13 52 C5.26 53.63, -2.12 49.15, 0 39 M0 39 C1.98 29.95, 1.03 24.22, 0 13 M0 39 C-0.51 29.29, -0.13 20.99, 0 13 M0 13 C-1.73 2.84, 2.52 0.4, 13 0 M0 13 C2.17 2.33, 5.15 2.02, 13 0" stroke="#ffffff" stroke-width="1" fill="none"></path></g><g transform="translate(116.62083204296914 38.27947095019471) rotate(0 89.14167022705078 9.599999999999994)"><text x="89.14167022705078" y="0" font-family="Cascadia, Segoe UI Emoji" font-size="16px" fill="#ffffff" text-anchor="middle" style="white-space: pre;" direction="ltr" dominant-baseline="text-before-edge">Header of new Block</text></g><g stroke-linecap="round" transform="translate(112.29189140574033 157.24932274924777) rotate(0 98.5 26)"><path d="M13 0 M13 0 C52.67 2.04, 93.58 2.01, 184 0 M13 0 C72.66 0.79, 130.42 -1.13, 184 0 M184 0 C191.34 -0.08, 195.45 3.78, 197 13 M184 0 C193.21 -1.37, 198.05 4.18, 197 13 M197 13 C195.29 23.38, 196.19 33.36, 197 39 M197 13 C198.08 20.47, 197.61 28.04, 197 39 M197 39 C198.34 47.46, 192.09 53.75, 184 52 M197 39 C196.1 49.7, 191.96 53.67, 184 52 M184 52 C135.71 51.22, 88.02 50.23, 13 52 M184 52 C133.94 51.27, 81.48 50.4, 13 52 M13 52 C5.72 50.1, -0.38 46.56, 0 39 M13 52 C3.39 52.62, -0.27 49.84, 0 39 M0 39 C-0.44 28.97, -1.44 17.21, 0 13 M0 39 C-0.26 29.65, -0.09 20.08, 0 13 M0 13 C0.98 2.77, 4.92 -0.71, 13 0 M0 13 C0.94 5.36, 5.35 0.94, 13 0" stroke="#ffffff" stroke-width="1" fill="none"></path></g><g transform="translate(131.0335601069122 173.64932274924774) rotate(0 79.75833129882812 9.599999999999994)"><text x="79.75833129882812" y="0" font-family="Cascadia, Segoe UI Emoji" font-size="16px" fill="#ffffff" text-anchor="middle" style="white-space: pre;" direction="ltr" dominant-baseline="text-before-edge">Outgoing Messages</text></g><g stroke-linecap="round" transform="translate(18.954865176489307 90.97451122551934) rotate(0 84 26)"><path d="M13 0 M13 0 C66.13 1.14, 120.5 -0.28, 155 0 M13 0 C48.22 -0.79, 81.63 -0.45, 155 0 M155 0 C163.32 -0.97, 168.65 3.62, 168 13 M155 0 C164.05 -0.95, 167.43 4.01, 168 13 M168 13 C167.62 21.42, 166.7 29.79, 168 39 M168 13 C167.78 21.02, 167.91 30.39, 168 39 M168 39 C169.99 49.21, 161.93 52.36, 155 52 M168 39 C166.71 47.77, 164.41 51.97, 155 52 M155 52 C99.61 51.71, 42.87 54.46, 13 52 M155 52 C116.45 52.04, 75.52 50.97, 13 52 M13 52 C5.3 51.95, 1.08 48.4, 0 39 M13 52 C4.18 51.74, 0.75 47.73, 0 39 M0 39 C-1.49 30.23, 0.92 23.01, 0 13 M0 39 C-0.22 29.93, 0.96 21.97, 0 13 M0 13 C0.32 3.82, 6.08 0.98, 13 0 M0 13 C0.39 2.82, 4.85 0.9, 13 0" stroke="#ffffff" stroke-width="1" fill="none"></path></g><g transform="translate(46.65486593942876 107.37451122551931) rotate(0 56.29999923706055 9.599999999999994)"><text x="56.29999923706055" y="0" font-family="Cascadia, Segoe UI Emoji" font-size="16px" fill="#ffffff" text-anchor="middle" style="white-space: pre;" direction="ltr" dominant-baseline="text-before-edge">Transactions</text></g><g stroke-linecap="round" transform="translate(227.2270096516437 91.03328949696004) rotate(0 84 26)"><path d="M13 0 M13 0 C48.91 0.5, 82.67 0.9, 155 0 M13 0 C45.76 0.74, 79.5 0.76, 155 0 M155 0 C163.37 -0.08, 169.42 3.43, 168 13 M155 0 C161.75 -2.07, 168.65 2.84, 168 13 M168 13 C168.22 19.48, 166.66 25.8, 168 39 M168 13 C168.68 19.29, 169.09 23.72, 168 39 M168 39 C166.12 46.96, 164.73 51.07, 155 52 M168 39 C168.21 49.96, 165.19 51.47, 155 52 M155 52 C112.66 49.4, 67.93 49.75, 13 52 M155 52 C123.76 53.03, 95.08 52.22, 13 52 M13 52 C5.25 53.83, -0.28 49.63, 0 39 M13 52 C4.63 51, 1.85 49.2, 0 39 M0 39 C-1.4 29.31, -1.15 22.17, 0 13 M0 39 C-0.66 31.29, 1.14 24.23, 0 13 M0 13 C0.41 4.66, 2.91 -0.52, 13 0 M0 13 C1.27 4.01, 6.43 0.07, 13 0" stroke="#ffffff" stroke-width="1" fill="none"></path></g><g transform="translate(254.92701041458315 107.43328949696001) rotate(0 56.29999923706055 9.599999999999994)"><text x="56.29999923706055" y="0" font-family="Cascadia, Segoe UI Emoji" font-size="16px" fill="#ffffff" text-anchor="middle" style="white-space: pre;" direction="ltr" dominant-baseline="text-before-edge">Witness Data</text></g><g stroke-linecap="round" transform="translate(226.701222254164 38.04712237972015) rotate(0 39.76488691423708 52.467559122951755)"><path d="M19.88 0 M19.88 0 C29.44 -0.49, 39.75 -1.25, 59.65 0 M19.88 0 C36.03 -0.17, 52.14 0.52, 59.65 0 M59.65 0 C73.5 -0.66, 81.46 7.58, 79.53 19.88 M59.65 0 C70.94 2.1, 78.04 7.16, 79.53 19.88 M79.53 19.88 C79.09 34.85, 79.73 49.44, 79.53 85.05 M79.53 19.88 C78.71 46.31, 79.74 71.88, 79.53 85.05 M79.53 85.05 C80.36 98.76, 73.43 106.13, 59.65 104.94 M79.53 85.05 C78.37 97.88, 71.47 103.79, 59.65 104.94 M59.65 104.94 C45.65 105.94, 33.29 106.61, 19.88 104.94 M59.65 104.94 C48.51 104.96, 39.13 105.65, 19.88 104.94 M19.88 104.94 C8.13 105.48, 1.49 96.5, 0 85.05 M19.88 104.94 C7.96 104.42, -1.1 96.16, 0 85.05 M0 85.05 C0.21 69.65, -1.09 49.25, 0 19.88 M0 85.05 C0.97 65.02, -0.23 44.81, 0 19.88 M0 19.88 C0.81 6.26, 8.05 1.84, 19.88 0 M0 19.88 C-0.83 8.79, 6 1.1, 19.88 0" stroke="transparent" stroke-width="1" fill="none"></path></g><g stroke-linecap="round" transform="translate(205.16190850895214 71.73681823761547) rotate(0 75.93988820427222 67.93168181182173)"><path d="M32 0 M32 0 C51.34 -0.7, 69.36 -0.47, 119.88 0 M32 0 C56.35 0.79, 81.59 -0.71, 119.88 0 M119.88 0 C140.06 1.54, 152.8 12.02, 151.88 32 M119.88 0 C142.17 0.52, 152.49 12.04, 151.88 32 M151.88 32 C150.75 50.32, 151.05 68.89, 151.88 103.86 M151.88 32 C152.91 48.53, 152.57 66.45, 151.88 103.86 M151.88 103.86 C150.96 124.64, 142.89 136.69, 119.88 135.86 M151.88 103.86 C153.61 125.82, 142.93 133.78, 119.88 135.86 M119.88 135.86 C86.56 134.67, 57.59 137.31, 32 135.86 M119.88 135.86 C90.85 135.49, 63.07 136.32, 32 135.86 M32 135.86 C11.99 135.14, -1.06 123.41, 0 103.86 M32 135.86 C11.6 135.44, 1.63 127.32, 0 103.86 M0 103.86 C0.28 84.93, -2.66 64.61, 0 32 M0 103.86 C1.11 84.94, 1 66.73, 0 32 M0 32 C-0.7 10.47, 10.96 -1.33, 32 0 M0 32 C-0.27 12.64, 8.6 -0.57, 32 0" stroke="transparent" stroke-width="1" fill="none"></path></g></svg>