<svg version="1.1" xmlns="http://www.w3.org/2000/svg" viewBox="0 0 919.4582661905429 545.3250324917558" width="919.4582661905429" height="545.3250324917558">
  <!-- svg-source:excalidraw -->
  
  <defs>
    <style class="style-fonts">
      @font-face {
        font-family: "Virgil";
        src: url("https://excalidraw.com/Virgil.woff2");
      }
      @font-face {
        font-family: "Cascadia";
        src: url("https://excalidraw.com/Cascadia.woff2");
      }
    </style>
    
  </defs>
  <g stroke-linecap="round" transform="translate(661.4309089917663 9.999999999999986) rotate(0 96.1470218618864 92.66343411326727)"><path d="M51.57 8.65 C60.75 2.03, 75.37 0.6, 87.68 -0.34 C99.99 -1.27, 113.49 -0.55, 125.4 3.05 C137.32 6.64, 149.98 13.27, 159.17 21.24 C168.37 29.21, 174.98 39.82, 180.58 50.88 C186.18 61.94, 191.43 75.57, 192.75 87.6 C194.07 99.63, 192.59 111.97, 188.5 123.05 C184.4 134.14, 176.73 145.27, 168.19 154.11 C159.64 162.94, 148.05 171.11, 137.25 176.04 C126.44 180.97, 115.33 182.98, 103.36 183.67 C91.39 184.36, 76.93 183.83, 65.41 180.2 C53.89 176.56, 43.58 169.53, 34.26 161.85 C24.94 154.17, 15.16 144.48, 9.52 134.12 C3.87 123.77, 0.85 111.7, 0.4 99.75 C-0.04 87.79, 2.76 73.98, 6.84 62.4 C10.92 50.82, 12.74 40.16, 24.88 30.28 C37.01 20.39, 65.37 7.99, 79.66 3.1 C93.95 -1.8, 110.5 -0.57, 110.62 0.89 M67.05 6.51 C77.82 1.19, 93.74 -2.89, 105.79 -1.71 C117.83 -0.52, 128.14 7.15, 139.33 13.6 C150.52 20.04, 164.73 28.07, 172.93 36.94 C181.14 45.82, 185.04 56.21, 188.55 66.85 C192.06 77.49, 195.09 88.86, 194.01 100.78 C192.92 112.69, 188.56 127.37, 182.03 138.32 C175.49 149.27, 164.42 159.38, 154.82 166.47 C145.23 173.57, 135.46 178.14, 124.44 180.88 C113.43 183.62, 101.28 183.64, 88.73 182.9 C76.18 182.16, 60.2 181.51, 49.16 176.43 C38.12 171.36, 29.93 161.66, 22.49 152.45 C15.05 143.24, 8.28 132.58, 4.54 121.16 C0.8 109.74, -1 96.29, 0.06 83.92 C1.11 71.55, 4.81 57.12, 10.87 46.94 C16.93 36.76, 26.81 30.27, 36.41 22.85 C46.02 15.42, 63.29 5.66, 68.5 2.38 C73.7 -0.91, 67.05 1.54, 67.64 3.14" stroke="#ffffff" stroke-width="1" fill="none"></path></g><g stroke-linecap="round" transform="translate(153.62876438074858 326.8524840631172) rotate(0 172.9796567859094 88.63129801104742)"><path d="M32 0 M32 0 C140.03 0.88, 250.66 1.65, 313.96 0 M32 0 C91.34 2.79, 153.6 4.2, 313.96 0 M313.96 0 C337.56 2.19, 344.76 12.14, 345.96 32 M313.96 0 C330.91 1.15, 346.85 7.39, 345.96 32 M345.96 32 C343.9 62.77, 345.56 96.42, 345.96 145.26 M345.96 32 C349.49 67.17, 347.35 107.54, 345.96 145.26 M345.96 145.26 C349.42 163.01, 332.03 180.19, 313.96 177.26 M345.96 145.26 C344.65 165.57, 339.08 174.19, 313.96 177.26 M313.96 177.26 C200.56 176.36, 95.02 176.52, 32 177.26 M313.96 177.26 C227.07 181.27, 142.64 179.67, 32 177.26 M32 177.26 C12.88 178.87, -0.92 170.41, 0 145.26 M32 177.26 C7.76 175.86, 3.74 168.45, 0 145.26 M0 145.26 C-1.15 106.64, -1.67 63.15, 0 32 M0 145.26 C-2.68 107.72, -3.36 72.99, 0 32 M0 32 C-0.92 10.82, 13.6 0.07, 32 0 M0 32 C-0.6 10.38, 10.88 4.35, 32 0" stroke="#ffffff" stroke-width="1" fill="none"></path></g><g transform="translate(210.90754318737703 295.2953853835549) rotate(0 123.0250015258789 12)"><text x="0" y="0" font-family="Cascadia, Segoe UI Emoji" font-size="20px" fill="#ffffff" text-anchor="start" style="white-space: pre;" direction="ltr" dominant-baseline="text-before-edge">Substrate Based Chain</text></g><g stroke-linecap="round" transform="translate(279.629691743116 400.1618278453356) rotate(0 96.49538063674822 44.24156440746225)"><path d="M22.12 0 M22.12 0 C72.99 -3.6, 121.62 -1.5, 170.87 0 M22.12 0 C74.95 1.11, 128.26 2.86, 170.87 0 M170.87 0 C183.68 2.74, 189.63 5.81, 192.99 22.12 M170.87 0 C189.88 3.98, 188.87 3.63, 192.99 22.12 M192.99 22.12 C196.03 35.95, 196.41 54.28, 192.99 66.36 M192.99 22.12 C193.42 33.71, 192.23 42.26, 192.99 66.36 M192.99 66.36 C196.01 78.72, 187.61 90.15, 170.87 88.48 M192.99 66.36 C190.46 83.65, 187.47 87.42, 170.87 88.48 M170.87 88.48 C115.31 89.19, 55.43 88.44, 22.12 88.48 M170.87 88.48 C113.81 88.76, 58.33 91.19, 22.12 88.48 M22.12 88.48 C6.62 86.65, -2.61 77.92, 0 66.36 M22.12 88.48 C7.82 87.43, 0.18 84.49, 0 66.36 M0 66.36 C0.3 56.8, 0.34 38.14, 0 22.12 M0 66.36 C0.98 57.05, 1.52 46.15, 0 22.12 M0 22.12 C-3.43 4.48, 7.58 0.88, 22.12 0 M0 22.12 C3.03 8.69, 11.13 3.71, 22.12 0" stroke="#ffffff" stroke-width="1" fill="none"></path></g><g transform="translate(299.9667395551572 432.4033922527978) rotate(0 76.15833282470703 12)"><text x="76.15833282470703" y="0" font-family="Cascadia, Segoe UI Emoji" font-size="20px" fill="#ffffff" text-anchor="middle" style="white-space: pre;" direction="ltr" dominant-baseline="text-before-edge">Runtime(=STF)</text></g><g transform="translate(176.51549438399155 362.53908016024985) rotate(0 35.150001525878906 12)"><text x="0" y="0" font-family="Cascadia, Segoe UI Emoji" font-size="20px" fill="#ffffff" text-anchor="start" style="white-space: pre;" direction="ltr" dominant-baseline="text-before-edge">Client</text></g><g transform="translate(714.381442770776 90.12251821823858) rotate(0 46.86666488647461 12)"><text x="0" y="0" font-family="Cascadia, Segoe UI Emoji" font-size="20px" fill="#ffffff" text-anchor="start" style="white-space: pre;" direction="ltr" dominant-baseline="text-before-edge">Polkadot</text></g><g stroke-linecap="round" transform="translate(598.3961800749576 163.5824138287083) rotate(0 155.53104305779271 84.95016605361434)"><path d="M195 21.25 M195 21.25 C218.26 37.29, 241.99 47.39, 272.06 63.75 M195 21.25 C220.15 32.67, 242.78 44.74, 272.06 63.75 M272.06 63.75 C309.5 88.7, 314.52 81.41, 272.06 106.25 M272.06 63.75 C307.31 88.36, 309.75 83.98, 272.06 106.25 M272.06 106.25 C241.19 120.89, 208.71 143.09, 195 148.65 M272.06 106.25 C244.88 123.27, 215.43 138.2, 195 148.65 M195 148.65 C157.66 167.7, 158.21 171.51, 117 148.65 M195 148.65 C154.94 174.29, 153.09 168.5, 117 148.65 M117 148.65 C87.78 136.52, 56.51 118.72, 39 106.25 M117 148.65 C97.83 137.12, 74.27 124.72, 39 106.25 M39 106.25 C-3.19 85.39, -0.92 85.15, 39 63.75 M39 106.25 C3.38 85.08, -0.6 84.72, 39 63.75 M39 63.75 C60.44 48.33, 86.36 34.33, 117 21.25 M39 63.75 C67.26 45.61, 92.52 32.3, 117 21.25 M117 21.25 C156.88 2.64, 157.15 3.27, 195 21.25 M117 21.25 C159.71 -3.19, 157.55 0.12, 195 21.25" stroke="#ffffff" stroke-width="1" fill="none"></path></g><g transform="translate(713.4029552900045 259.0851626943748) rotate(0 41.00833511352539 12)"><text x="0" y="0" font-family="Cascadia, Segoe UI Emoji" font-size="20px" fill="#ffffff" text-anchor="start" style="white-space: pre;" direction="ltr" dominant-baseline="text-before-edge">Runtime</text></g><g stroke-linecap="round" transform="translate(37.86870198895264 276.8428215442207) rotate(0 298.89182883151625 129.2411054737675)"><path d="M50.57 58.14 C59.55 48.98, 82.22 42.1, 100.48 34.5 C118.73 26.9, 138.54 18.02, 160.1 12.55 C181.67 7.09, 205.8 4, 229.85 1.71 C253.91 -0.59, 279.62 -1.65, 304.42 -1.21 C329.22 -0.76, 354.47 0.99, 378.65 4.38 C402.84 7.77, 427.64 13.83, 449.54 19.14 C471.45 24.45, 492.47 29.14, 510.08 36.25 C527.68 43.36, 542.93 52.63, 555.16 61.79 C567.39 70.96, 576.12 80.55, 583.48 91.24 C590.84 101.93, 598.19 114.88, 599.32 125.91 C600.45 136.95, 596 147.05, 590.27 157.47 C584.54 167.88, 576.22 179.22, 564.93 188.41 C553.65 197.59, 538.29 204.7, 522.53 212.59 C506.78 220.47, 490.58 229.16, 470.4 235.69 C450.22 242.22, 425.25 247.76, 401.46 251.74 C377.67 255.71, 352.35 258.97, 327.64 259.52 C302.93 260.08, 277.13 256.98, 253.22 255.06 C229.31 253.14, 206.79 252.18, 184.17 247.99 C161.55 243.8, 137.76 236.13, 117.49 229.94 C97.21 223.75, 77.71 218.63, 62.53 210.87 C47.35 203.11, 36.27 193.35, 26.4 183.38 C16.53 173.4, 7.7 162.16, 3.32 151.01 C-1.05 139.86, -2.27 127.32, 0.17 116.48 C2.61 105.65, 0.68 100.24, 17.96 85.98 C35.24 71.73, 77.24 42.98, 103.85 30.94 C130.46 18.9, 174.12 12.33, 177.63 13.77 M192.15 6.59 C212.36 1.4, 239.53 1.86, 264.47 1.37 C289.41 0.87, 316.82 2.66, 341.77 3.62 C366.71 4.59, 391.78 2.99, 414.15 7.14 C436.53 11.3, 456.23 21.44, 476.02 28.56 C495.81 35.68, 516.86 42.14, 532.89 49.85 C548.92 57.55, 562 65.18, 572.21 74.8 C582.43 84.42, 590.47 97.17, 594.17 107.57 C597.86 117.97, 596.31 126.77, 594.36 137.21 C592.41 147.66, 590.39 159.25, 582.48 170.25 C574.57 181.25, 561.12 194.05, 546.89 203.22 C532.66 212.39, 514.88 218.35, 497.1 225.26 C479.32 232.17, 461.51 239.64, 440.2 244.65 C418.9 249.67, 393.7 253.21, 369.27 255.35 C344.85 257.49, 318.32 257.74, 293.65 257.5 C268.98 257.26, 244.73 256.74, 221.26 253.91 C197.79 251.08, 175.01 246.03, 152.85 240.51 C130.68 234.99, 106.28 228.18, 88.27 220.79 C70.26 213.39, 56.94 204.89, 44.79 196.14 C32.64 187.38, 22.98 178.37, 15.36 168.26 C7.75 158.15, 0.38 146.67, -0.92 135.47 C-2.23 124.26, 2.48 112.03, 7.54 101.04 C12.6 90.04, 18.51 79.18, 29.43 69.49 C40.35 59.81, 57.12 50.62, 73.04 42.93 C88.97 35.23, 105.02 29, 125 23.33 C144.97 17.66, 181.51 10.73, 192.92 8.89 C204.33 7.05, 191.31 10.35, 193.45 12.29" stroke="#ffffff" stroke-width="1" fill="none"></path></g><g transform="translate(10 297.0476304862114) rotate(0 41.00833511352539 12)"><text x="0" y="0" font-family="Cascadia, Segoe UI Emoji" font-size="20px" fill="#ffffff" text-anchor="start" style="white-space: pre;" direction="ltr" dominant-baseline="text-before-edge">Cumulus</text></g><g stroke-linecap="round"><g transform="translate(410.32087784560275 272.34739831143736) rotate(0 120.90712289926091 -91.52805889009761)"><path d="M0.42 0.68 C40.42 -30.37, 198.71 -153.05, 239.28 -183.74 M-2.79 -1.41 C38.16 -30.79, 203.58 -150.37, 244.61 -180.19" stroke="#ffffff" stroke-width="1" fill="none"></path></g><g transform="translate(410.32087784560275 272.34739831143736) rotate(0 120.90712289926091 -91.52805889009761)"><path d="M228.77 -158.16 C231.75 -158.58, 236.74 -170.92, 244.14 -177.42 M229.46 -153.5 C230.69 -158.57, 236.17 -165.13, 243.16 -181.96" stroke="#ffffff" stroke-width="1" fill="none"></path></g><g transform="translate(410.32087784560275 272.34739831143736) rotate(0 120.90712289926091 -91.52805889009761)"><path d="M216.74 -174.78 C223.32 -170.67, 231.62 -178.44, 244.14 -177.42 M217.43 -170.12 C220.78 -171.82, 228.68 -175.03, 243.16 -181.96" stroke="#ffffff" stroke-width="1" fill="none"></path></g></g><mask></mask><g stroke-linecap="round"><g transform="translate(647.9810736906095 120.40336973948885) rotate(0 -99.03842184367693 75.64132344417929)"><path d="M-0.8 1.77 C-34.61 26.31, -166.65 123.38, -200.47 148.74 M3.96 0.27 C-30.33 24.92, -168.37 126.09, -202.04 151.02" stroke="#ffffff" stroke-width="1" fill="none"></path></g><g transform="translate(647.9810736906095 120.40336973948885) rotate(0 -99.03842184367693 75.64132344417929)"><path d="M-182.88 127.82 C-195.11 132.66, -194.14 149.06, -202.22 149.57 M-185.37 125.6 C-192.05 135.57, -200.14 147.12, -200.74 149.19" stroke="#ffffff" stroke-width="1" fill="none"></path></g><g transform="translate(647.9810736906095 120.40336973948885) rotate(0 -99.03842184367693 75.64132344417929)"><path d="M-170.72 144.34 C-187.82 142.75, -191.54 152.78, -202.22 149.57 M-173.21 142.13 C-184.48 145.6, -197.3 150.71, -200.74 149.19" stroke="#ffffff" stroke-width="1" fill="none"></path></g></g><mask></mask><g stroke-linecap="round"><g transform="translate(484.8288601141381 435.8894829368324) rotate(0 89.44588588803441 -66.38338798598198)"><path d="M-1.78 -0.14 C28.35 -21.82, 150.03 -111.26, 180.67 -132.63" stroke="#ffffff" stroke-width="1.5" fill="none" stroke-dasharray="8 9"></path></g><g transform="translate(484.8288601141381 435.8894829368324) rotate(0 89.44588588803441 -66.38338798598198)"><path d="M163.57 -109.96 C166.16 -115.05, 177.28 -120.97, 179.81 -133.03" stroke="#ffffff" stroke-width="1.5" fill="none"></path></g><g transform="translate(484.8288601141381 435.8894829368324) rotate(0 89.44588588803441 -66.38338798598198)"><path d="M151.59 -126.62 C157.42 -126.63, 172.09 -127.63, 179.81 -133.03" stroke="#ffffff" stroke-width="1.5" fill="none"></path></g></g><mask></mask><g transform="translate(672.7938152231279 211.55162966944704) rotate(0 82.01667022705072 12)"><text x="0" y="0" font-family="Cascadia, Segoe UI Emoji" font-size="20px" fill="#ffffff" text-anchor="start" style="white-space: pre;" direction="ltr" dominant-baseline="text-before-edge">validate_block</text></g><g stroke-linecap="round" transform="translate(673.8541815855704 257.6775664357006) rotate(0 80.5878435456383 15.507858050723172)"><path d="M7.75 0 M7.75 0 C40.72 -1.66, 67.18 -0.87, 153.42 0 M153.42 0 C157.33 -1.35, 161.56 1.16, 161.18 7.75 M161.18 7.75 C158.3 12.72, 159.83 20.91, 161.18 23.26 M161.18 23.26 C163.53 25.88, 157.76 29.29, 153.42 31.02 M153.42 31.02 C121.5 30.62, 87.52 34.44, 7.75 31.02 M7.75 31.02 C6.04 34.32, 3.41 25.34, 0 23.26 M0 23.26 C-1.89 18.37, 0.11 17.25, 0 7.75 M0 7.75 C-3.8 3.84, -0.98 -3.58, 7.75 0" stroke="#ffffff" stroke-width="1.5" fill="none" stroke-dasharray="8 9"></path></g><g stroke-linecap="round" transform="translate(669.0825329545787 211.81672126005776) rotate(0 86.02222115315669 17.230953389692388)"><path d="M8.62 0 M8.62 0 C59.31 0.58, 107.21 -0.1, 163.43 0 M163.43 0 C169.96 -3.69, 171.8 5.7, 172.04 8.62 M172.04 8.62 C172.05 14.3, 173.6 16.69, 172.04 25.85 M172.04 25.85 C175.46 31.73, 165.86 33.12, 163.43 34.46 M163.43 34.46 C109.53 33.75, 53.61 39.57, 8.62 34.46 M8.62 34.46 C5.93 32.48, 2.63 28.88, 0 25.85 M0 25.85 C-2.19 21.95, -2.04 19.51, 0 8.62 M0 8.62 C-0.79 2.49, 0.06 2.88, 8.62 0" stroke="#ffffff" stroke-width="1.5" fill="none" stroke-dasharray="8 9"></path></g><g transform="translate(459.6989168503182 147.49378648232846) rotate(322.31150885979105 58.58333206176758 12)"><text x="0" y="0" font-family="Cascadia, Segoe UI Emoji" font-size="20px" fill="#ffffff" text-anchor="start" style="white-space: pre;" direction="ltr" dominant-baseline="text-before-edge">Collations</text></g><g transform="translate(474.4874446167724 197.1784245016093) rotate(323.1346389726385 93.73332977294922 12)"><text x="0" y="0" font-family="Cascadia, Segoe UI Emoji" font-size="20px" fill="#ffffff" text-anchor="start" style="white-space: pre;" direction="ltr" dominant-baseline="text-before-edge">Relay Chain info</text></g><g transform="translate(793.7304587708672 305.56157926552197) rotate(330.2798992177715 17.575000762939453 12)"><text x="0" y="0" font-family="Cascadia, Segoe UI Emoji" font-size="20px" fill="#ffffff" text-anchor="start" style="white-space: pre;" direction="ltr" dominant-baseline="text-before-edge">PVF</text></g></svg>