<svg xmlns="http://www.w3.org/2000/svg" xmlns:xlink="http://www.w3.org/1999/xlink" preserveAspectRatio="xMidYMid" width="470" height="470" viewBox="0 0 470 470">
  <defs>
    <style>
      .cls-1 {
        fill: #000;
        fill-rule: evenodd;
      }
    </style>
  </defs>
  <path d="M437.500,267.500 C422.161,267.500 409.279,256.815 405.883,242.500 L377.500,242.500 C373.358,242.500 370.000,239.143 370.000,235.000 C370.000,230.857 373.358,227.500 377.500,227.500 L405.883,227.500 C409.279,213.185 422.161,202.500 437.500,202.500 C455.420,202.500 470.000,217.079 470.000,235.000 C470.000,252.921 455.420,267.500 437.500,267.500 ZM437.500,217.500 C427.851,217.500 420.000,225.351 420.000,235.000 C420.000,244.649 427.851,252.500 437.500,252.500 C447.149,252.500 455.000,244.649 455.000,235.000 C455.000,225.351 447.149,217.500 437.500,217.500 ZM378.189,124.311 C372.067,124.311 366.207,122.623 361.129,119.478 L341.066,139.541 C339.602,141.005 337.682,141.737 335.763,141.737 C333.843,141.737 331.924,141.005 330.460,139.541 C327.531,136.612 327.531,131.864 330.460,128.934 L350.530,108.864 C342.809,96.341 344.363,79.677 355.208,68.831 C361.347,62.692 369.508,59.311 378.189,59.311 C386.870,59.311 395.031,62.692 401.170,68.830 C407.309,74.969 410.689,83.130 410.689,91.811 C410.689,100.492 407.309,108.653 401.170,114.792 C395.032,120.931 386.870,124.311 378.189,124.311 ZM390.564,79.436 C387.258,76.131 382.864,74.311 378.189,74.311 C373.514,74.311 369.119,76.131 365.814,79.437 C358.992,86.260 358.992,97.362 365.814,104.185 C369.120,107.491 373.514,109.311 378.189,109.311 C382.864,109.311 387.258,107.491 390.564,104.186 C393.869,100.880 395.689,96.486 395.689,91.811 C395.689,87.137 393.869,82.742 390.564,79.436 ZM315.025,324.338 C314.620,324.797 314.169,325.189 313.688,325.524 C292.606,343.874 265.079,355.000 235.000,355.000 C204.916,355.000 177.384,343.870 156.300,325.514 C155.824,325.180 155.376,324.793 154.972,324.335 C130.453,302.348 115.000,270.447 115.000,235.000 C115.000,199.553 130.453,167.652 154.974,145.662 C155.376,145.206 155.825,144.818 156.302,144.484 C177.386,126.129 204.917,115.000 235.000,115.000 C265.085,115.000 292.617,126.131 313.701,144.487 C314.176,144.820 314.624,145.207 315.028,145.665 C339.547,167.652 355.000,199.553 355.000,235.000 C355.000,270.447 339.547,302.348 315.025,324.338 ZM197.933,333.237 C193.230,327.005 189.017,319.590 185.402,311.209 C180.943,313.601 176.648,316.322 172.551,319.357 C180.270,325.086 188.800,329.779 197.933,333.237 ZM160.932,309.351 C166.963,304.613 173.398,300.486 180.149,297.015 C175.108,281.006 171.998,262.484 171.372,242.500 L130.271,242.500 C132.117,268.536 143.495,291.980 160.932,309.351 ZM130.270,227.500 L171.371,227.500 C171.997,207.516 175.107,188.995 180.148,172.985 C173.398,169.514 166.963,165.386 160.931,160.649 C143.495,178.020 132.117,201.464 130.270,227.500 ZM172.550,150.643 C176.647,153.678 180.942,156.400 185.401,158.791 C189.017,150.410 193.230,142.995 197.932,136.763 C188.799,140.221 180.269,144.914 172.550,150.643 ZM227.500,131.381 C218.185,134.781 209.157,144.360 201.934,158.805 C200.950,160.772 200.023,162.823 199.126,164.914 C208.209,168.217 217.751,170.259 227.500,170.956 L227.500,131.381 ZM227.500,186.010 C215.987,185.291 204.713,182.922 194.000,179.028 C189.584,193.590 186.977,210.122 186.391,227.500 L227.500,227.500 L227.500,186.010 ZM227.500,242.500 L186.392,242.500 C186.977,259.878 189.585,276.409 194.001,290.972 C204.713,287.078 215.987,284.709 227.500,283.990 L227.500,242.500 ZM227.500,299.044 C217.751,299.741 208.209,301.783 199.126,305.085 C200.023,307.177 200.950,309.228 201.934,311.195 C209.156,325.640 218.185,335.219 227.500,338.619 L227.500,299.044 ZM339.730,242.500 L298.629,242.500 C298.003,262.484 294.893,281.005 289.852,297.015 C296.602,300.486 303.037,304.614 309.069,309.351 C326.505,291.980 337.883,268.536 339.730,242.500 ZM297.450,319.357 C293.353,316.322 289.058,313.600 284.599,311.209 C280.983,319.590 276.770,327.005 272.068,333.237 C281.201,329.780 289.731,325.086 297.450,319.357 ZM242.500,338.620 C251.815,335.220 260.843,325.641 268.066,311.196 C269.050,309.229 269.977,307.178 270.874,305.086 C261.791,301.783 252.249,299.741 242.500,299.044 L242.500,338.620 ZM242.500,283.990 C254.013,284.709 265.287,287.078 276.000,290.972 C280.416,276.410 283.023,259.878 283.609,242.500 L242.500,242.500 L242.500,283.990 ZM242.500,227.500 L283.608,227.500 C283.023,210.122 280.415,193.591 275.999,179.028 C265.287,182.922 254.013,185.291 242.500,186.010 L242.500,227.500 ZM268.066,158.805 C260.844,144.360 251.815,134.781 242.500,131.381 L242.500,170.956 C252.249,170.259 261.791,168.217 270.874,164.915 C269.977,162.823 269.050,160.772 268.066,158.805 ZM272.067,136.763 C276.770,142.995 280.983,150.410 284.598,158.791 C289.057,156.400 293.352,153.678 297.449,150.643 C289.730,144.914 281.200,140.221 272.067,136.763 ZM309.068,160.649 C303.037,165.387 296.602,169.514 289.851,172.985 C294.892,188.994 298.002,207.516 298.628,227.500 L339.729,227.500 C337.883,201.464 326.505,178.020 309.068,160.649 ZM242.500,64.117 L242.500,92.500 C242.500,96.643 239.142,100.000 235.000,100.000 C230.858,100.000 227.500,96.643 227.500,92.500 L227.500,64.117 C213.185,60.721 202.500,47.839 202.500,32.500 C202.500,14.579 217.080,0.000 235.000,0.000 C252.920,0.000 267.500,14.579 267.500,32.500 C267.500,47.839 256.815,60.721 242.500,64.117 ZM235.000,15.000 C225.351,15.000 217.500,22.851 217.500,32.500 C217.500,42.149 225.351,50.000 235.000,50.000 C244.649,50.000 252.500,42.149 252.500,32.500 C252.500,22.851 244.649,15.000 235.000,15.000 ZM134.237,141.737 C132.318,141.737 130.398,141.005 128.934,139.541 L108.872,119.478 C103.794,122.623 97.933,124.311 91.811,124.311 C83.130,124.311 74.968,120.931 68.829,114.790 C62.690,108.653 59.310,100.492 59.310,91.810 C59.310,83.130 62.690,74.969 68.829,68.830 C74.968,62.691 83.129,59.310 91.810,59.310 C100.491,59.310 108.652,62.691 114.791,68.829 C125.637,79.676 127.191,96.340 119.470,108.864 L139.540,128.934 C142.469,131.863 142.469,136.611 139.540,139.541 C138.076,141.005 136.156,141.737 134.237,141.737 ZM104.186,79.436 C100.881,76.131 96.487,74.311 91.812,74.311 C87.137,74.311 82.742,76.131 79.437,79.437 C76.131,82.741 74.311,87.137 74.312,91.811 C74.312,96.486 76.132,100.880 79.437,104.185 C82.743,107.491 87.138,109.311 91.812,109.311 C96.484,109.311 100.876,107.493 104.191,104.181 C111.009,97.357 111.008,86.259 104.186,79.436 ZM92.500,227.500 C96.642,227.500 100.000,230.857 100.000,235.000 C100.000,239.143 96.642,242.500 92.500,242.500 L64.117,242.500 C60.721,256.815 47.839,267.500 32.500,267.500 C14.580,267.500 0.000,252.921 0.000,235.000 C0.000,217.079 14.580,202.500 32.500,202.500 C47.839,202.500 60.721,213.185 64.117,227.500 L92.500,227.500 ZM32.500,217.500 C22.851,217.500 15.000,225.351 15.000,235.000 C15.000,244.649 22.851,252.500 32.500,252.500 C42.149,252.500 50.000,244.649 50.000,235.000 C50.000,225.351 42.149,217.500 32.500,217.500 ZM91.811,345.689 C97.933,345.689 103.793,347.377 108.871,350.522 L128.934,330.459 C131.863,327.531 136.612,327.531 139.540,330.459 C142.469,333.388 142.469,338.136 139.540,341.066 L119.470,361.136 C127.191,373.659 125.637,390.323 114.792,401.169 C108.653,407.308 100.492,410.689 91.811,410.689 C83.130,410.689 74.969,407.308 68.830,401.170 C62.691,395.031 59.311,386.870 59.311,378.189 C59.311,369.508 62.691,361.347 68.830,355.208 C74.968,349.069 83.130,345.689 91.811,345.689 ZM79.436,390.564 C82.742,393.869 87.136,395.689 91.811,395.689 C96.486,395.689 100.881,393.869 104.186,390.563 C111.008,383.740 111.008,372.638 104.186,365.815 C100.880,362.509 96.486,360.689 91.811,360.689 C87.136,360.689 82.742,362.509 79.436,365.814 C76.131,369.120 74.311,373.514 74.311,378.189 C74.311,382.863 76.131,387.258 79.436,390.564 ZM227.500,405.883 L227.500,377.500 C227.500,373.357 230.858,370.000 235.000,370.000 C239.142,370.000 242.500,373.357 242.500,377.500 L242.500,405.883 C256.815,409.279 267.500,422.161 267.500,437.500 C267.500,455.421 252.920,470.000 235.000,470.000 C217.080,470.000 202.500,455.421 202.500,437.500 C202.500,422.161 213.185,409.279 227.500,405.883 ZM235.000,455.000 C244.649,455.000 252.500,447.149 252.500,437.500 C252.500,427.851 244.649,420.000 235.000,420.000 C225.351,420.000 217.500,427.851 217.500,437.500 C217.500,447.149 225.351,455.000 235.000,455.000 ZM341.066,330.459 L361.128,350.522 C366.206,347.377 372.067,345.689 378.189,345.689 C386.870,345.689 395.032,349.069 401.171,355.210 C407.310,361.347 410.690,369.508 410.690,378.190 C410.690,386.870 407.310,395.031 401.171,401.170 C395.032,407.309 386.871,410.690 378.190,410.690 C369.509,410.690 361.348,407.309 355.209,401.171 C344.363,390.324 342.809,373.660 350.530,361.136 L330.460,341.066 C327.531,338.137 327.531,333.389 330.460,330.459 C333.389,327.530 338.138,327.532 341.066,330.459 ZM365.814,390.564 C369.119,393.869 373.513,395.689 378.188,395.689 C382.863,395.689 387.258,393.869 390.563,390.563 C393.869,387.259 395.689,382.863 395.688,378.189 C395.688,373.514 393.868,369.120 390.563,365.815 C387.257,362.509 382.862,360.689 378.188,360.689 C373.516,360.689 369.124,362.507 365.809,365.819 C358.991,372.643 358.992,383.741 365.814,390.564 Z" class="cls-1"/>
</svg>
