<svg version="1.1" viewBox="0.0 0.0 960.0 540.0" fill="none" stroke="none" stroke-linecap="square" stroke-miterlimit="10" xmlns:xlink="http://www.w3.org/1999/xlink" xmlns="http://www.w3.org/2000/svg"><clipPath id="g28d739317d7_0_131.0"><path d="m0 0l960.0 0l0 540.0l-960.0 0l0 -540.0z" clip-rule="nonzero"/></clipPath><g clip-path="url(#g28d739317d7_0_131.0)"><path fill="#000000" fill-opacity="0.0" d="m0 0l960.0 0l0 540.0l-960.0 0z" fill-rule="evenodd"/><path fill="#000000" fill-opacity="0.0" d="m275.5748 270.0l0 0c0 -109.88292 91.52429 -198.96063 204.4252 -198.96063l0 0c54.21692 0 106.21326 20.961868 144.55042 58.274216c38.33722 37.312363 59.874756 87.91878 59.874756 140.68642l0 0c0 109.882935 -91.52423 198.96063 -204.42517 198.96063l0 0c-112.90091 0 -204.4252 -89.0777 -204.4252 -198.96063z" fill-rule="evenodd"/><path stroke="#ff00ff" stroke-width="3.0" stroke-linejoin="round" stroke-linecap="butt" d="m275.5748 270.0l0 0c0 -109.88292 91.52429 -198.96063 204.4252 -198.96063l0 0c54.21692 0 106.21326 20.961868 144.55042 58.274216c38.33722 37.312363 59.874756 87.91878 59.874756 140.68642l0 0c0 109.882935 -91.52423 198.96063 -204.42517 198.96063l0 0c-112.90091 0 -204.4252 -89.0777 -204.4252 -198.96063z" fill-rule="evenodd"/><path fill="#ff00ff" d="m367.3622 191.50919l0 0c0 -14.20285 12.521912 -25.716537 27.968506 -25.716537l0 0c15.446564 0 27.968506 11.513687 27.968506 25.716537l0 0c0 14.20285 -12.521942 25.716537 -27.968506 25.716537l0 0c-15.446594 0 -27.968506 -11.513687 -27.968506 -25.716537z" fill-rule="evenodd"/><path stroke="#ff00ff" stroke-width="3.0" stroke-linejoin="round" stroke-linecap="butt" d="m367.3622 191.50919l0 0c0 -14.20285 12.521912 -25.716537 27.968506 -25.716537l0 0c15.446564 0 27.968506 11.513687 27.968506 25.716537l0 0c0 14.20285 -12.521942 25.716537 -27.968506 25.716537l0 0c-15.446594 0 -27.968506 -11.513687 -27.968506 -25.716537z" fill-rule="evenodd"/><path fill="#ff00ff" d="m544.0761 157.76115l0 0c0 -4.435669 4.17395 -8.031494 9.322815 -8.031494l0 0c5.1488647 0 9.322876 3.5958252 9.322876 8.031494l0 0c0 4.435669 -4.174011 8.031494 -9.322876 8.031494l0 0c-5.1488647 0 -9.322815 -3.5958252 -9.322815 -8.031494z" fill-rule="evenodd"/><path stroke="#ff00ff" stroke-width="3.0" stroke-linejoin="round" stroke-linecap="butt" d="m544.0761 157.76115l0 0c0 -4.435669 4.17395 -8.031494 9.322815 -8.031494l0 0c5.1488647 0 9.322876 3.5958252 9.322876 8.031494l0 0c0 4.435669 -4.174011 8.031494 -9.322876 8.031494l0 0c-5.1488647 0 -9.322815 -3.5958252 -9.322815 -8.031494z" fill-rule="evenodd"/><path fill="#ff00ff" d="m445.00525 333.83466l0 0c0 -4.435669 4.1739807 -8.031494 9.322845 -8.031494l0 0c5.148834 0 9.322815 3.5958252 9.322815 8.031494l0 0c0 4.435669 -4.1739807 8.031494 -9.322815 8.031494l0 0c-5.1488647 0 -9.322845 -3.5958252 -9.322845 -8.031494z" fill-rule="evenodd"/><path stroke="#ff00ff" stroke-width="3.0" stroke-linejoin="round" stroke-linecap="butt" d="m445.00525 333.83466l0 0c0 -4.435669 4.1739807 -8.031494 9.322845 -8.031494l0 0c5.148834 0 9.322815 3.5958252 9.322815 8.031494l0 0c0 4.435669 -4.1739807 8.031494 -9.322815 8.031494l0 0c-5.1488647 0 -9.322845 -3.5958252 -9.322845 -8.031494z" fill-rule="evenodd"/><path fill="#ff00ff" d="m519.7192 293.65353l0 0c0 -10.332489 8.728638 -18.708649 19.496033 -18.708649l0 0c5.1707153 0 10.129578 1.9710693 13.785828 5.479645c3.656189 3.508545 5.710266 8.267181 5.710266 13.229004l0 0c0 10.33252 -8.728699 18.70868 -19.496094 18.70868l0 0c-10.767395 0 -19.496033 -8.37616 -19.496033 -18.70868z" fill-rule="evenodd"/><path stroke="#ff00ff" stroke-width="3.0" stroke-linejoin="round" stroke-linecap="butt" d="m519.7192 293.65353l0 0c0 -10.332489 8.728638 -18.708649 19.496033 -18.708649l0 0c5.1707153 0 10.129578 1.9710693 13.785828 5.479645c3.656189 3.508545 5.710266 8.267181 5.710266 13.229004l0 0c0 10.33252 -8.728699 18.70868 -19.496094 18.70868l0 0c-10.767395 0 -19.496033 -8.37616 -19.496033 -18.70868z" fill-rule="evenodd"/><path fill="#ff00ff" d="m364.14697 300.07874l0 0c0 -2.8005676 2.1081543 -5.070862 4.708679 -5.070862l0 0c1.2488098 0 2.4464722 0.5342407 3.3295288 1.4852295c0.8830261 0.95095825 1.3791199 2.2407532 1.3791199 3.5856323l0 0c0 2.8005676 -2.1081238 5.070862 -4.7086487 5.070862l0 0c-2.600525 0 -4.708679 -2.2702942 -4.708679 -5.070862z" fill-rule="evenodd"/><path stroke="#ff00ff" stroke-width="3.0" stroke-linejoin="round" stroke-linecap="butt" d="m364.14697 300.07874l0 0c0 -2.8005676 2.1081543 -5.070862 4.708679 -5.070862l0 0c1.2488098 0 2.4464722 0.5342407 3.3295288 1.4852295c0.8830261 0.95095825 1.3791199 2.2407532 1.3791199 3.5856323l0 0c0 2.8005676 -2.1081238 5.070862 -4.7086487 5.070862l0 0c-2.600525 0 -4.708679 -2.2702942 -4.708679 -5.070862z" fill-rule="evenodd"/><path fill="#000000" fill-opacity="0.0" d="m423.29922 191.50919l79.055115 10.29921" fill-rule="evenodd"/><path stroke="#ff00ff" stroke-width="1.0" stroke-linejoin="round" stroke-linecap="butt" d="m423.29922 191.50919l73.10538 9.524094" fill-rule="evenodd"/><path fill="#ff00ff" stroke="#ff00ff" stroke-width="1.0" stroke-linecap="butt" d="m496.19122 202.67117l4.7134705 -1.0516357l-4.2867126 -2.2241516z" fill-rule="evenodd"/><path fill="#000000" fill-opacity="0.0" d="m538.94226 312.3622l9.700806 87.811005" fill-rule="evenodd"/><path stroke="#ff00ff" stroke-width="1.0" stroke-linejoin="round" stroke-linecap="butt" d="m538.94226 312.3622l9.041931 81.84732" fill-rule="evenodd"/><path fill="#ff00ff" stroke="#ff00ff" stroke-width="1.0" stroke-linecap="butt" d="m546.34247 394.39087l2.1400757 4.3292847l1.1434326 -4.6920166z" fill-rule="evenodd"/><path fill="#000000" fill-opacity="0.0" d="m451.93307 325.80316l-6.929138 -81.88977" fill-rule="evenodd"/><path stroke="#ff00ff" stroke-width="1.0" stroke-linejoin="round" stroke-linecap="butt" d="m451.93307 325.80316l-6.423279 -75.91115" fill-rule="evenodd"/><path fill="#ff00ff" stroke="#ff00ff" stroke-width="1.0" stroke-linecap="butt" d="m447.15567 249.75276l-2.028473 -4.382675l-1.2632141 4.661194z" fill-rule="evenodd"/><path fill="#000000" fill-opacity="0.0" d="m544.0761 157.76115l-49.417328 -18.330704" fill-rule="evenodd"/><path stroke="#ff00ff" stroke-width="1.0" stroke-linejoin="round" stroke-linecap="butt" d="m544.0761 157.76115l-43.79187 -16.244019" fill-rule="evenodd"/><path fill="#ff00ff" stroke="#ff00ff" stroke-width="1.0" stroke-linecap="butt" d="m500.85867 139.9685l-4.8292236 -0.029632568l3.680359 3.126892z" fill-rule="evenodd"/><path fill="#ff00ff" d="m596.79266 270.0l0 0c0 -17.516556 15.638306 -31.716537 34.92914 -31.716537l0 0c19.290833 0 34.92914 14.199982 34.92914 31.716537l0 0c0 17.516571 -15.638306 31.716522 -34.92914 31.716522l0 0c-19.290833 0 -34.92914 -14.199951 -34.92914 -31.716522z" fill-rule="evenodd"/><path stroke="#ff00ff" stroke-width="3.0" stroke-linejoin="round" stroke-linecap="butt" d="m596.79266 270.0l0 0c0 -17.516556 15.638306 -31.716537 34.92914 -31.716537l0 0c19.290833 0 34.92914 14.199982 34.92914 31.716537l0 0c0 17.516571 -15.638306 31.716522 -34.92914 31.716522l0 0c-19.290833 0 -34.92914 -14.199951 -34.92914 -31.716522z" fill-rule="evenodd"/><path fill="#ff00ff" d="m390.62204 415.72177l0 0c0 -2.800537 2.1081543 -5.070862 4.708679 -5.070862l0 0c1.2488098 0 2.4464722 0.53427124 3.3295288 1.4852295c0.8830261 0.95098877 1.3791199 2.2407837 1.3791199 3.5856323l0 0c0 2.8005676 -2.1081238 5.0708923 -4.7086487 5.0708923l0 0c-2.600525 0 -4.708679 -2.2703247 -4.708679 -5.0708923z" fill-rule="evenodd"/><path stroke="#ff00ff" stroke-width="3.0" stroke-linejoin="round" stroke-linecap="butt" d="m390.62204 415.72177l0 0c0 -2.800537 2.1081543 -5.070862 4.708679 -5.070862l0 0c1.2488098 0 2.4464722 0.53427124 3.3295288 1.4852295c0.8830261 0.95098877 1.3791199 2.2407837 1.3791199 3.5856323l0 0c0 2.8005676 -2.1081238 5.0708923 -4.7086487 5.0708923l0 0c-2.600525 0 -4.708679 -2.2703247 -4.708679 -5.0708923z" fill-rule="evenodd"/><path fill="#ff00ff" d="m341.0525 356.26773l0 0c0 -2.8005676 2.1081543 -5.0708923 4.708679 -5.0708923l0 0c1.2488098 0 2.4464722 0.53427124 3.3294983 1.4852295c0.88305664 0.95098877 1.3791504 2.2407837 1.3791504 3.5856628l0 0c0 2.800537 -2.1081543 5.070862 -4.7086487 5.070862l0 0c-2.600525 0 -4.708679 -2.2703247 -4.708679 -5.070862z" fill-rule="evenodd"/><path stroke="#ff00ff" stroke-width="3.0" stroke-linejoin="round" stroke-linecap="butt" d="m341.0525 356.26773l0 0c0 -2.8005676 2.1081543 -5.0708923 4.708679 -5.0708923l0 0c1.2488098 0 2.4464722 0.53427124 3.3294983 1.4852295c0.88305664 0.95098877 1.3791504 2.2407837 1.3791504 3.5856628l0 0c0 2.800537 -2.1081543 5.070862 -4.7086487 5.070862l0 0c-2.600525 0 -4.708679 -2.2703247 -4.708679 -5.070862z" fill-rule="evenodd"/><path fill="#ff00ff" d="m310.76642 239.97638l0 0c0 -10.332504 8.728668 -18.708664 19.496063 -18.708664l0 0c5.1706543 0 10.129578 1.9710846 13.785797 5.479645c3.6562195 3.508545 5.710266 8.267166 5.710266 13.229019l0 0c0 10.332504 -8.728699 18.708649 -19.496063 18.708649l0 0c-10.767395 0 -19.496063 -8.376144 -19.496063 -18.708649z" fill-rule="evenodd"/><path stroke="#ff00ff" stroke-width="3.0" stroke-linejoin="round" stroke-linecap="butt" d="m310.76642 239.97638l0 0c0 -10.332504 8.728668 -18.708664 19.496063 -18.708664l0 0c5.1706543 0 10.129578 1.9710846 13.785797 5.479645c3.6562195 3.508545 5.710266 8.267166 5.710266 13.229019l0 0c0 10.332504 -8.728699 18.708649 -19.496063 18.708649l0 0c-10.767395 0 -19.496063 -8.376144 -19.496063 -18.708649z" fill-rule="evenodd"/><path fill="#ff00ff" d="m467.5538 418.8819l0 0c0 -10.33252 8.728699 -18.70868 19.496063 -18.70868l0 0c5.170685 0 10.129578 1.9710999 13.785797 5.479645c3.6562195 3.5085754 5.710266 8.267181 5.710266 13.229034l0 0c0 10.332489 -8.728668 18.708649 -19.496063 18.708649l0 0c-10.7673645 0 -19.496063 -8.37616 -19.496063 -18.708649z" fill-rule="evenodd"/><path stroke="#ff00ff" stroke-width="3.0" stroke-linejoin="round" stroke-linecap="butt" d="m467.5538 418.8819l0 0c0 -10.33252 8.728699 -18.70868 19.496063 -18.70868l0 0c5.170685 0 10.129578 1.9710999 13.785797 5.479645c3.6562195 3.5085754 5.710266 8.267181 5.710266 13.229034l0 0c0 10.332489 -8.728668 18.708649 -19.496063 18.708649l0 0c-10.7673645 0 -19.496063 -8.37616 -19.496063 -18.708649z" fill-rule="evenodd"/><path fill="#ff00ff" d="m432.93176 135.26247l0 0c0 -11.541443 9.398499 -20.897636 20.992126 -20.897636l0 0c5.567444 0 10.906891 2.201706 14.843658 6.1207733c3.936798 3.9190674 6.148468 9.234459 6.148468 14.776863l0 0c0 11.541443 -9.398499 20.897644 -20.992126 20.897644l0 0c-11.593628 0 -20.992126 -9.356201 -20.992126 -20.897644z" fill-rule="evenodd"/><path stroke="#ff00ff" stroke-width="3.0" stroke-linejoin="round" stroke-linecap="butt" d="m432.93176 135.26247l0 0c0 -11.541443 9.398499 -20.897636 20.992126 -20.897636l0 0c5.567444 0 10.906891 2.201706 14.843658 6.1207733c3.936798 3.9190674 6.148468 9.234459 6.148468 14.776863l0 0c0 11.541443 -9.398499 20.897644 -20.992126 20.897644l0 0c-11.593628 0 -20.992126 -9.356201 -20.992126 -20.897644z" fill-rule="evenodd"/><path fill="#000000" fill-opacity="0.0" d="m474.91602 135.26247l58.299194 -24.755905" fill-rule="evenodd"/><path stroke="#ff00ff" stroke-width="1.0" stroke-linejoin="round" stroke-linecap="butt" d="m474.91602 135.26247l52.77649 -22.410774" fill-rule="evenodd"/><path fill="#ff00ff" stroke="#ff00ff" stroke-width="1.0" stroke-linecap="butt" d="m528.3381 114.37204l3.5315552 -3.2940826l-4.822693 0.2534027z" fill-rule="evenodd"/><path fill="#000000" fill-opacity="0.0" d="m373.5643 297.2362l58.299225 -24.75589" fill-rule="evenodd"/><path stroke="#ff00ff" stroke-width="1.0" stroke-linejoin="round" stroke-linecap="butt" d="m373.5643 297.2362l52.77649 -22.410736" fill-rule="evenodd"/><path fill="#ff00ff" stroke="#ff00ff" stroke-width="1.0" stroke-linecap="butt" d="m426.9864 276.3458l3.5315247 -3.294098l-4.822693 0.25341797z" fill-rule="evenodd"/><path fill="#000000" fill-opacity="0.0" d="m342.43164 352.68207l-37.417328 -37.102356" fill-rule="evenodd"/><path stroke="#ff00ff" stroke-width="1.0" stroke-linejoin="round" stroke-linecap="butt" d="m342.43164 352.6821l-33.1568 -32.877716" fill-rule="evenodd"/><path fill="#ff00ff" stroke="#ff00ff" stroke-width="1.0" stroke-linecap="butt" d="m310.43784 318.6315l-4.385437 -2.022461l2.0594482 4.368225z" fill-rule="evenodd"/><path fill="#000000" fill-opacity="0.0" d="m607.02313 247.57303l-52.59839 -39.370087" fill-rule="evenodd"/><path stroke="#ff00ff" stroke-width="1.0" stroke-linejoin="round" stroke-linecap="butt" d="m607.0232 247.57301l-47.794983 -35.77469" fill-rule="evenodd"/><path fill="#ff00ff" stroke="#ff00ff" stroke-width="1.0" stroke-linecap="butt" d="m560.21796 210.476l-4.622864 -1.3970337l2.6433105 4.0417023z" fill-rule="evenodd"/></g></svg>