<svg version="1.1" viewBox="0.0 0.0 960.0 540.0" fill="none" stroke="none" stroke-linecap="square" stroke-miterlimit="10" xmlns:xlink="http://www.w3.org/1999/xlink" xmlns="http://www.w3.org/2000/svg"><clipPath id="g28d739317d7_0_94.0"><path d="m0 0l960.0 0l0 540.0l-960.0 0l0 -540.0z" clip-rule="nonzero"/></clipPath><g clip-path="url(#g28d739317d7_0_94.0)"><path fill="#000000" fill-opacity="0.0" d="m0 0l960.0 0l0 540.0l-960.0 0z" fill-rule="evenodd"/><path fill="#000000" fill-opacity="0.0" d="m275.5748 270.0l0 0c0 -109.88292 91.52429 -198.96063 204.4252 -198.96063l0 0c54.21692 0 106.21326 20.961868 144.55042 58.274216c38.33722 37.312363 59.874756 87.91878 59.874756 140.68642l0 0c0 109.882935 -91.52423 198.96063 -204.42517 198.96063l0 0c-112.90091 0 -204.4252 -89.0777 -204.4252 -198.96063z" fill-rule="evenodd"/><path stroke="#ff00ff" stroke-width="3.0" stroke-linejoin="round" stroke-linecap="butt" d="m275.5748 270.0l0 0c0 -109.88292 91.52429 -198.96063 204.4252 -198.96063l0 0c54.21692 0 106.21326 20.961868 144.55042 58.274216c38.33722 37.312363 59.874756 87.91878 59.874756 140.68642l0 0c0 109.882935 -91.52423 198.96063 -204.42517 198.96063l0 0c-112.90091 0 -204.4252 -89.0777 -204.4252 -198.96063z" fill-rule="evenodd"/><path fill="#ff00ff" d="m367.3622 191.50919l0 0c0 -14.20285 12.521912 -25.716537 27.968506 -25.716537l0 0c15.446564 0 27.968506 11.513687 27.968506 25.716537l0 0c0 14.20285 -12.521942 25.716537 -27.968506 25.716537l0 0c-15.446594 0 -27.968506 -11.513687 -27.968506 -25.716537z" fill-rule="evenodd"/><path stroke="#ff00ff" stroke-width="3.0" stroke-linejoin="round" stroke-linecap="butt" d="m367.3622 191.50919l0 0c0 -14.20285 12.521912 -25.716537 27.968506 -25.716537l0 0c15.446564 0 27.968506 11.513687 27.968506 25.716537l0 0c0 14.20285 -12.521942 25.716537 -27.968506 25.716537l0 0c-15.446594 0 -27.968506 -11.513687 -27.968506 -25.716537z" fill-rule="evenodd"/><path fill="#ff00ff" d="m544.0761 157.76115l0 0c0 -4.435669 4.17395 -8.031494 9.322815 -8.031494l0 0c5.1488647 0 9.322876 3.5958252 9.322876 8.031494l0 0c0 4.435669 -4.174011 8.031494 -9.322876 8.031494l0 0c-5.1488647 0 -9.322815 -3.5958252 -9.322815 -8.031494z" fill-rule="evenodd"/><path stroke="#ff00ff" stroke-width="3.0" stroke-linejoin="round" stroke-linecap="butt" d="m544.0761 157.76115l0 0c0 -4.435669 4.17395 -8.031494 9.322815 -8.031494l0 0c5.1488647 0 9.322876 3.5958252 9.322876 8.031494l0 0c0 4.435669 -4.174011 8.031494 -9.322876 8.031494l0 0c-5.1488647 0 -9.322815 -3.5958252 -9.322815 -8.031494z" fill-rule="evenodd"/><path fill="#ff00ff" d="m445.00525 333.83466l0 0c0 -4.435669 4.1739807 -8.031494 9.322845 -8.031494l0 0c5.148834 0 9.322815 3.5958252 9.322815 8.031494l0 0c0 4.435669 -4.1739807 8.031494 -9.322815 8.031494l0 0c-5.1488647 0 -9.322845 -3.5958252 -9.322845 -8.031494z" fill-rule="evenodd"/><path stroke="#ff00ff" stroke-width="3.0" stroke-linejoin="round" stroke-linecap="butt" d="m445.00525 333.83466l0 0c0 -4.435669 4.1739807 -8.031494 9.322845 -8.031494l0 0c5.148834 0 9.322815 3.5958252 9.322815 8.031494l0 0c0 4.435669 -4.1739807 8.031494 -9.322815 8.031494l0 0c-5.1488647 0 -9.322845 -3.5958252 -9.322845 -8.031494z" fill-rule="evenodd"/><path fill="#ff00ff" d="m519.7192 293.65353l0 0c0 -10.332489 8.728638 -18.708649 19.496033 -18.708649l0 0c5.1707153 0 10.129578 1.9710693 13.785828 5.479645c3.656189 3.508545 5.710266 8.267181 5.710266 13.229004l0 0c0 10.33252 -8.728699 18.70868 -19.496094 18.70868l0 0c-10.767395 0 -19.496033 -8.37616 -19.496033 -18.70868z" fill-rule="evenodd"/><path stroke="#ff00ff" stroke-width="3.0" stroke-linejoin="round" stroke-linecap="butt" d="m519.7192 293.65353l0 0c0 -10.332489 8.728638 -18.708649 19.496033 -18.708649l0 0c5.1707153 0 10.129578 1.9710693 13.785828 5.479645c3.656189 3.508545 5.710266 8.267181 5.710266 13.229004l0 0c0 10.33252 -8.728699 18.70868 -19.496094 18.70868l0 0c-10.767395 0 -19.496033 -8.37616 -19.496033 -18.70868z" fill-rule="evenodd"/><path fill="#ff00ff" d="m364.14697 300.07874l0 0c0 -2.8005676 2.1081543 -5.070862 4.708679 -5.070862l0 0c1.2488098 0 2.4464722 0.5342407 3.3295288 1.4852295c0.8830261 0.95095825 1.3791199 2.2407532 1.3791199 3.5856323l0 0c0 2.8005676 -2.1081238 5.070862 -4.7086487 5.070862l0 0c-2.600525 0 -4.708679 -2.2702942 -4.708679 -5.070862z" fill-rule="evenodd"/><path stroke="#ff00ff" stroke-width="3.0" stroke-linejoin="round" stroke-linecap="butt" d="m364.14697 300.07874l0 0c0 -2.8005676 2.1081543 -5.070862 4.708679 -5.070862l0 0c1.2488098 0 2.4464722 0.5342407 3.3295288 1.4852295c0.8830261 0.95095825 1.3791199 2.2407532 1.3791199 3.5856323l0 0c0 2.8005676 -2.1081238 5.070862 -4.7086487 5.070862l0 0c-2.600525 0 -4.708679 -2.2702942 -4.708679 -5.070862z" fill-rule="evenodd"/></g></svg>