<svg version="1.1" xmlns="http://www.w3.org/2000/svg" viewBox="0 0 680.1630277568543 372.7651013741934" width="680.1630277568543" height="372.7651013741934">
  <!-- svg-source:excalidraw -->
  
  <defs>
    <style class="style-fonts">
      @font-face {
        font-family: "Virgil";
        src: url("https://excalidraw.com/Virgil.woff2");
      }
      @font-face {
        font-family: "Cascadia";
        src: url("https://excalidraw.com/Cascadia.woff2");
      }
    </style>
    
  </defs>
  <g stroke-linecap="round" transform="translate(104.4729963268694 42.44426260159072) rotate(0 46.129684070365784 38.567440780141894)"><path d="M19.28 0 M19.28 0 C37.68 -1.56, 51.86 0.64, 72.98 0 M19.28 0 C36.88 0.17, 53.17 -1.08, 72.98 0 M72.98 0 C84.48 -0.5, 91.99 5.98, 92.26 19.28 M72.98 0 C85.79 0.89, 93.91 8.13, 92.26 19.28 M92.26 19.28 C91.52 33.54, 90.16 45.6, 92.26 57.85 M92.26 19.28 C91.24 26.94, 92.29 35.25, 92.26 57.85 M92.26 57.85 C93.04 71.39, 86.54 77, 72.98 77.13 M92.26 57.85 C93.65 69.52, 86.4 77.77, 72.98 77.13 M72.98 77.13 C57.85 77.48, 39.31 75.6, 19.28 77.13 M72.98 77.13 C57.08 77.6, 42 78.37, 19.28 77.13 M19.28 77.13 C7.86 78.7, -0.52 69.17, 0 57.85 M19.28 77.13 C5.65 78.31, -2.09 70.83, 0 57.85 M0 57.85 C0.25 45.77, -0.55 38.54, 0 19.28 M0 57.85 C0.15 49.11, 0.29 38.9, 0 19.28 M0 19.28 C1.41 8.1, 4.46 1.27, 19.28 0 M0 19.28 C-0.28 8.69, 6.18 1.13, 19.28 0" stroke="#ffffff" stroke-width="1" fill="none"></path></g><g stroke-linecap="round" transform="translate(252.10582420894445 44.88201931136682) rotate(0 46.129684070365784 38.56744078014191)"><path d="M19.28 0 M19.28 0 C33.73 1.02, 50.56 0.81, 72.98 0 M19.28 0 C37.71 -1.08, 54.74 -0.44, 72.98 0 M72.98 0 C85.56 -0.45, 92.22 7.2, 92.26 19.28 M72.98 0 C87.48 1.71, 93.18 4.66, 92.26 19.28 M92.26 19.28 C90.37 30.33, 90.19 40.95, 92.26 57.85 M92.26 19.28 C91.97 30.07, 92.28 40.23, 92.26 57.85 M92.26 57.85 C92.97 70.57, 87.04 76.11, 72.98 77.13 M92.26 57.85 C92.82 71.34, 85.95 79.24, 72.98 77.13 M72.98 77.13 C52.2 75.22, 33.19 76.26, 19.28 77.13 M72.98 77.13 C54.21 78.08, 34.48 77.98, 19.28 77.13 M19.28 77.13 C5.91 75.59, -0.68 71.73, 0 57.85 M19.28 77.13 C4.34 77.26, -0.6 70.05, 0 57.85 M0 57.85 C-0.68 49.59, -1.32 39.4, 0 19.28 M0 57.85 C0.43 47.4, 0.52 39.36, 0 19.28 M0 19.28 C-1.97 7.7, 6.18 1.96, 19.28 0 M0 19.28 C-0.25 7.56, 4.5 0.68, 19.28 0" stroke="#ffffff" stroke-width="1" fill="none"></path></g><g stroke-linecap="round" transform="translate(398.9824277619971 42.78243004700856) rotate(0 46.129684070365784 38.56744078014191)"><path d="M19.28 0 M19.28 0 C31.3 0.22, 43.55 1.51, 72.98 0 M72.98 0 C86.56 0.73, 90.5 5.08, 92.26 19.28 M92.26 19.28 C92.17 30.67, 93.64 41.99, 92.26 57.85 M92.26 57.85 C93.06 69.17, 85.51 76.69, 72.98 77.13 M72.98 77.13 C51.82 76.91, 33.98 75.22, 19.28 77.13 M19.28 77.13 C6.26 77.3, 0.97 71.49, 0 57.85 M0 57.85 C1.08 43.94, 0.35 32.64, 0 19.28 M0 19.28 C0.1 8.25, 7.82 1.25, 19.28 0" stroke="#ffffff" stroke-width="1.5" fill="none" stroke-dasharray="8 9"></path></g><g stroke-linecap="round"><g transform="translate(239.8371512218772 85.54904935586698) rotate(0 -16.23744010615053 0.2320809957963732)"><path d="M0.22 0.44 C-5.21 0.61, -26.77 1.31, -32.28 1.19 M-1.12 -0.38 C-6.66 -0.58, -27.32 -0.84, -32.7 -0.7" stroke="#ffffff" stroke-width="1" fill="none"></path></g><g transform="translate(239.8371512218772 85.54904935586698) rotate(0 -16.23744010615053 0.2320809957963732)"><path d="M-16.48 -5.07 C-21.61 -3.92, -28.83 -3.76, -33.11 -0.92 M-16.49 -5.84 C-21.09 -5.43, -25.89 -3.38, -32.22 -1.45" stroke="#ffffff" stroke-width="1" fill="none"></path></g><g transform="translate(239.8371512218772 85.54904935586698) rotate(0 -16.23744010615053 0.2320809957963732)"><path d="M-16.43 6.31 C-21.6 3.71, -28.83 0.13, -33.11 -0.92 M-16.44 5.55 C-21.05 2.79, -25.87 1.68, -32.22 -1.45" stroke="#ffffff" stroke-width="1" fill="none"></path></g></g><mask></mask><g stroke-linecap="round"><g transform="translate(95.39830437860076 84.03660069782218) rotate(0 -19.302058762032175 -0.31057540588080457)"><path d="M1 0.44 C-5.52 0.19, -32.03 -0.93, -38.88 -1.06 M0.06 -0.38 C-6.59 -0.56, -33.31 -0.28, -39.6 -0.07" stroke="#ffffff" stroke-width="1" fill="none"></path></g><g transform="translate(95.39830437860076 84.03660069782218) rotate(0 -19.302058762032175 -0.31057540588080457)"><path d="M-20.54 -6.43 C-28.81 -6.07, -33.41 -2.75, -40.04 -0.11 M-20.86 -7.9 C-27.58 -4.83, -33.08 -3.1, -39.56 -1.05" stroke="#ffffff" stroke-width="1" fill="none"></path></g><g transform="translate(95.39830437860076 84.03660069782218) rotate(0 -19.302058762032175 -0.31057540588080457)"><path d="M-20.29 7.02 C-28.69 3.1, -33.37 2.13, -40.04 -0.11 M-20.61 5.54 C-27.51 4.06, -33.09 1.23, -39.56 -1.05" stroke="#ffffff" stroke-width="1" fill="none"></path></g></g><mask></mask><g stroke-linecap="round"><g transform="translate(385.0322223941762 84.03660069782218) rotate(0 -16.444240346504444 -0.2990497954200606)"><path d="M0.44 -1.06 C-5.28 -1.05, -27.81 0.2, -33.33 0.46" stroke="#ffffff" stroke-width="1.5" fill="none" stroke-dasharray="8 9"></path></g><g transform="translate(385.0322223941762 84.03660069782218) rotate(0 -16.444240346504444 -0.2990497954200606)"><path d="M-19.78 -6.97 C-24.47 -3.61, -30.17 -1, -32.7 1.63" stroke="#ffffff" stroke-width="1.5" fill="none"></path></g><g transform="translate(385.0322223941762 84.03660069782218) rotate(0 -16.444240346504444 -0.2990497954200606)"><path d="M-19.21 4.14 C-24.16 3.25, -30.08 1.6, -32.7 1.63" stroke="#ffffff" stroke-width="1.5" fill="none"></path></g></g><mask></mask><g stroke-linecap="round"><g transform="translate(260.40685923521676 248.05048559169614) rotate(0 14.950259813073217 -56.74318397433211)"><path d="M-0.81 -0.3 C4.24 -18.99, 25.43 -94.5, 30.71 -113.19" stroke="transparent" stroke-width="1.5" fill="none" stroke-dasharray="8 9"></path></g><g transform="translate(260.40685923521676 248.05048559169614) rotate(0 14.950259813073217 -56.74318397433211)"><path d="M32.46 -83.54 C32.02 -93.39, 32.48 -101.99, 32.19 -112.39" stroke="transparent" stroke-width="1.5" fill="none"></path></g><g transform="translate(260.40685923521676 248.05048559169614) rotate(0 14.950259813073217 -56.74318397433211)"><path d="M12.71 -89.1 C18.86 -96.95, 25.98 -103.67, 32.19 -112.39" stroke="transparent" stroke-width="1.5" fill="none"></path></g></g><mask></mask><g stroke-linecap="round" transform="translate(184.64321555909817 175.22388992946316) rotate(0 36 17.5)"><path d="M8.75 0 M8.75 0 C20.98 0.04, 34.87 1.51, 63.25 0 M8.75 0 C28.98 0.2, 50.1 -0.48, 63.25 0 M63.25 0 C69.17 -1.99, 71.75 2.26, 72 8.75 M63.25 0 C66.85 -0.2, 72.19 4.03, 72 8.75 M72 8.75 C71.94 15.74, 71.16 21.05, 72 26.25 M72 8.75 C72.62 15.03, 72 19.81, 72 26.25 M72 26.25 C70.09 32.01, 68.22 36.3, 63.25 35 M72 26.25 C72.03 32.35, 71.02 37.03, 63.25 35 M63.25 35 C41.45 34.18, 23.76 33.04, 8.75 35 M63.25 35 C46.22 34.91, 29.21 34.52, 8.75 35 M8.75 35 C4.73 33.71, 1.69 31.1, 0 26.25 M8.75 35 C4.01 35.8, 1.42 30.27, 0 26.25 M0 26.25 C0.97 19.55, 1.57 13.09, 0 8.75 M0 26.25 C-0.3 19.57, -0.19 14.61, 0 8.75 M0 8.75 C-1.14 4.16, 1.29 -1.43, 8.75 0 M0 8.75 C-0.6 2.02, 2.29 -0.5, 8.75 0" stroke="transparent" stroke-width="1" fill="none"></path></g><g transform="translate(205.73488178071682 183.52388992946317) rotate(0 14.908333778381348 9.200000000000003)"><text x="14.908333778381348" y="0" font-family="Helvetica, Segoe UI Emoji" font-size="16px" fill="transparent" text-anchor="middle" style="white-space: pre;" direction="ltr" dominant-baseline="text-before-edge">PoV</text></g><g stroke-linecap="round" transform="translate(308.4185007080723 243.99585416080834) rotate(0 36 18.5)"><path d="M9.25 0 M9.25 0 C24.16 0.46, 37.51 0.65, 62.75 0 M9.25 0 C24.8 0.76, 41.55 -0.4, 62.75 0 M62.75 0 C67.13 1.26, 70.6 4.52, 72 9.25 M62.75 0 C69.24 -0.73, 73.6 4.71, 72 9.25 M72 9.25 C70.58 13.77, 70.7 20.31, 72 27.75 M72 9.25 C72.26 14.7, 72.8 21.09, 72 27.75 M72 27.75 C71.99 32.49, 69.58 37.13, 62.75 37 M72 27.75 C72.65 33.49, 68.8 36.45, 62.75 37 M62.75 37 C43.63 38.6, 26.55 36.19, 9.25 37 M62.75 37 C44.31 35.88, 26.6 36.18, 9.25 37 M9.25 37 C3.87 38.6, 1.13 31.98, 0 27.75 M9.25 37 C2.6 37.5, 0.52 31.85, 0 27.75 M0 27.75 C-0.7 24.23, 0.01 18.39, 0 9.25 M0 27.75 C-0.85 23.99, 0.21 20.54, 0 9.25 M0 9.25 C1.63 2.95, 1.85 1.95, 9.25 0 M0 9.25 C-1.72 3.08, 4.63 -0.61, 9.25 0" stroke="#ffffff" stroke-width="1" fill="none"></path></g><g transform="translate(329.51016692969097 253.29585416080835) rotate(0 14.908333778381348 9.199999999999989)"><text x="14.908333778381348" y="0" font-family="Helvetica, Segoe UI Emoji" font-size="16px" fill="#ffffff" text-anchor="middle" style="white-space: pre;" direction="ltr" dominant-baseline="text-before-edge">PoV</text></g><g stroke-linecap="round" transform="translate(187.51667451439323 256.63856032948837) rotate(0 57 44.5)"><path d="M68.09 1.46 C77.08 2.26, 86.84 6.4, 93.83 11.19 C100.82 15.98, 106.93 23.35, 110.05 30.22 C113.16 37.08, 114.27 45.06, 112.54 52.36 C110.8 59.67, 105.79 68.25, 99.64 74.04 C93.48 79.82, 84.55 84.67, 75.62 87.08 C66.68 89.48, 55.43 89.9, 46.02 88.47 C36.62 87.03, 26.46 83.39, 19.2 78.46 C11.94 73.53, 5.41 66.03, 2.45 58.9 C-0.52 51.78, -0.71 42.91, 1.41 35.72 C3.53 28.52, 8.84 21.31, 15.19 15.74 C21.54 10.17, 28.8 4.46, 39.49 2.3 C50.19 0.14, 71.01 1.71, 79.36 2.77 C87.71 3.83, 89.8 7.84, 89.6 8.68 M61.37 1.25 C70.16 0.6, 80.25 2.15, 87.92 6.16 C95.59 10.16, 103.32 18.45, 107.42 25.28 C111.52 32.12, 113.07 39.95, 112.54 47.16 C112.01 54.36, 109.33 62.32, 104.24 68.52 C99.15 74.72, 90.62 81.05, 82.01 84.37 C73.4 87.68, 61.72 89.04, 52.56 88.43 C43.4 87.82, 34.59 84.83, 27.05 80.72 C19.51 76.6, 11.71 70.12, 7.34 63.74 C2.96 57.36, 0.32 49.92, 0.81 42.44 C1.3 34.96, 5.02 24.95, 10.29 18.87 C15.57 12.8, 24.38 8.97, 32.46 5.99 C40.55 3.02, 54.23 1.62, 58.82 1.03 C63.42 0.44, 59.89 1.73, 60.05 2.44" stroke="transparent" stroke-width="1" fill="none"></path></g><g transform="translate(213.5949211929368 282.772308566687) rotate(0 31.116666793823242 18.400000000000006)"><text x="31.116666793823242" y="0" font-family="Helvetica, Segoe UI Emoji" font-size="16px" fill="transparent" text-anchor="middle" style="white-space: pre;" direction="ltr" dominant-baseline="text-before-edge">Malicius </text><text x="31.116666793823242" y="18.4" font-family="Helvetica, Segoe UI Emoji" font-size="16px" fill="transparent" text-anchor="middle" style="white-space: pre;" direction="ltr" dominant-baseline="text-before-edge">Collator</text></g><g stroke-linecap="round" transform="translate(412.0682765097541 250.83453607536586) rotate(0 57.00000000000006 44.5)"><path d="M51.58 0.19 C60.38 -1.13, 71.83 1.17, 80.5 4.19 C89.17 7.21, 98.08 12.15, 103.62 18.29 C109.16 24.44, 112.84 33.43, 113.73 41.05 C114.62 48.67, 112.96 57.27, 108.95 64.01 C104.94 70.75, 97.58 77.26, 89.67 81.5 C81.75 85.75, 71.07 88.9, 61.46 89.47 C51.84 90.04, 40.51 88.21, 31.99 84.93 C23.47 81.65, 15.48 75.82, 10.33 69.79 C5.18 63.76, 1.79 56.13, 1.09 48.73 C0.4 41.33, 2.3 32.34, 6.16 25.36 C10.01 18.39, 16.05 11.19, 24.21 6.9 C32.38 2.6, 49.44 0.59, 55.17 -0.41 C60.9 -1.41, 58.52 -0.04, 58.58 0.91 M80.93 3.1 C89.18 5.46, 98.08 13.6, 103.33 19.9 C108.58 26.2, 111.64 33.71, 112.44 40.9 C113.25 48.09, 112.08 56.35, 108.16 63.06 C104.24 69.77, 96.83 76.95, 88.9 81.17 C80.97 85.39, 69.72 87.92, 60.58 88.35 C51.43 88.79, 42.23 86.98, 34.04 83.78 C25.85 80.57, 16.95 74.97, 11.43 69.12 C5.91 63.27, 1.75 56.16, 0.91 48.7 C0.07 41.23, 2.26 30.91, 6.37 24.33 C10.48 17.74, 18.17 13.06, 25.57 9.19 C32.98 5.32, 41.55 1.68, 50.81 1.11 C60.07 0.53, 76.16 4.95, 81.14 5.73 C86.11 6.51, 81.26 5.29, 80.67 5.79" stroke="#ffffff" stroke-width="1" fill="none"></path></g><g transform="translate(441.90485639447445 286.1682843125645) rotate(0 27.35833358764654 9.199999999999989)"><text x="27.358333587646484" y="0" font-family="Helvetica, Segoe UI Emoji" font-size="16px" fill="#ffffff" text-anchor="middle" style="white-space: pre;" direction="ltr" dominant-baseline="text-before-edge">Collator</text></g><g stroke-linecap="round" transform="translate(10 200.89733221940168) rotate(0 57 44.5)"><path d="M33.4 3.7 C41.07 0.33, 51.45 0.38, 60.92 1.04 C70.38 1.69, 82.18 3.6, 90.19 7.63 C98.2 11.65, 105.09 18.44, 108.99 25.18 C112.88 31.92, 114.51 40.79, 113.58 48.08 C112.64 55.37, 108.72 62.7, 103.38 68.92 C98.04 75.15, 89.86 82.2, 81.54 85.43 C73.21 88.65, 62.8 88.93, 53.42 88.26 C44.04 87.6, 33.29 85.67, 25.27 81.42 C17.24 77.18, 9.51 69.55, 5.28 62.78 C1.05 56.02, -0.83 48.02, -0.12 40.85 C0.59 33.68, 2.14 26.28, 9.53 19.77 C16.91 13.27, 36.44 5, 44.18 1.83 C51.93 -1.33, 55.83 0.06, 55.99 0.78 M75.62 3.68 C84.71 5.69, 94.41 10.95, 100.82 16.17 C107.22 21.39, 112.61 27.96, 114.05 35 C115.49 42.04, 112.82 51, 109.47 58.42 C106.13 65.84, 101.15 74.56, 93.97 79.52 C86.8 84.48, 75.52 87.05, 66.43 88.16 C57.34 89.28, 48.2 88.64, 39.43 86.19 C30.65 83.74, 19.97 79.07, 13.79 73.46 C7.61 67.86, 3.88 59.61, 2.37 52.56 C0.85 45.51, 1.76 38.2, 4.72 31.18 C7.68 24.17, 13.39 15.39, 20.13 10.49 C26.87 5.59, 35.72 3.03, 45.17 1.77 C54.62 0.5, 71.84 2.56, 76.83 2.9 C81.82 3.25, 75.8 3.02, 75.11 3.83" stroke="#ffffff" stroke-width="1" fill="none"></path></g><g transform="translate(36.30324706001329 236.23108045660052) rotate(0 30.891666412353516 9.199999999999989)"><text x="30.891666412353516" y="0" font-family="Helvetica, Segoe UI Emoji" font-size="16px" fill="#ffffff" text-anchor="middle" style="white-space: pre;" direction="ltr" dominant-baseline="text-before-edge">Validator</text></g><g stroke-linecap="round" transform="translate(556.1630277568543 273.7651013741934) rotate(0 57 44.5)"><path d="M72.04 1.67 C81.02 2.87, 91.19 7.41, 97.9 12.81 C104.61 18.2, 109.92 26.63, 112.3 34.07 C114.68 41.5, 114.78 50.24, 112.18 57.41 C109.58 64.57, 103.66 71.89, 96.7 77.04 C89.73 82.2, 79.77 86.61, 70.4 88.35 C61.03 90.08, 49.52 89.63, 40.46 87.45 C31.4 85.27, 22.37 80.57, 16.04 75.28 C9.72 69.99, 4.71 62.93, 2.53 55.71 C0.34 48.5, 0.48 39.36, 2.93 31.97 C5.37 24.58, 10.42 16.55, 17.19 11.36 C23.95 6.17, 33.34 2.22, 43.49 0.83 C53.65 -0.57, 71.81 2.11, 78.13 2.98 C84.44 3.86, 81.7 5.26, 81.4 6.07 M78.18 4.11 C86.68 6.41, 94.96 11.73, 100.78 17.41 C106.6 23.08, 111.71 30.81, 113.1 38.16 C114.49 45.52, 112.87 54.69, 109.13 61.54 C105.39 68.38, 97.87 74.9, 90.67 79.25 C83.47 83.6, 74.95 86.69, 65.93 87.64 C56.92 88.58, 45.47 87.49, 36.58 84.91 C27.68 82.34, 18.43 78.14, 12.57 72.19 C6.72 66.24, 2.63 56.46, 1.43 49.23 C0.23 42, 2.13 35.32, 5.35 28.82 C8.56 22.32, 13.4 14.71, 20.72 10.21 C28.04 5.72, 39.61 2.89, 49.24 1.87 C58.88 0.85, 73.9 3.62, 78.53 4.08 C83.15 4.54, 77.46 4.22, 77 4.62" stroke="#ffffff" stroke-width="1" fill="none"></path></g><g transform="translate(585.9996076415746 309.09884961139204) rotate(0 27.358333587646484 9.199999999999989)"><text x="27.358333587646484" y="0" font-family="Helvetica, Segoe UI Emoji" font-size="16px" fill="#ffffff" text-anchor="middle" style="white-space: pre;" direction="ltr" dominant-baseline="text-before-edge">Collator</text></g><g stroke-linecap="round" transform="translate(124.12614931911833 271.0860774815856) rotate(0 57 44.5)"><path d="M40.8 2.6 C49.25 0.13, 62.38 -0.49, 71.77 1.13 C81.17 2.76, 90.56 7.15, 97.19 12.36 C103.83 17.57, 109.16 25.34, 111.57 32.37 C113.99 39.4, 113.97 47.23, 111.7 54.54 C109.43 61.85, 104.31 70.86, 97.95 76.22 C91.59 81.58, 82.58 84.75, 73.53 86.7 C64.49 88.65, 53.1 89.77, 43.69 87.92 C34.28 86.07, 24.04 80.83, 17.07 75.6 C10.11 70.37, 4.53 63.46, 1.88 56.55 C-0.76 49.64, -1.17 41.21, 1.21 34.15 C3.59 27.1, 8.8 19.77, 16.16 14.21 C23.51 8.65, 39.69 2.83, 45.31 0.78 C50.94 -1.26, 49.56 1.34, 49.91 1.94 M38.17 3.31 C46.59 -0.1, 58.99 -1.65, 68.03 -0.6 C77.07 0.45, 85.34 4.43, 92.41 9.63 C99.48 14.83, 107.18 23.51, 110.45 30.61 C113.71 37.71, 113.44 45.19, 112.02 52.24 C110.6 59.28, 107.85 67.19, 101.92 72.87 C95.99 78.56, 85.36 83.78, 76.44 86.32 C67.52 88.87, 57.5 89.21, 48.39 88.15 C39.27 87.1, 29.23 84.77, 21.78 79.97 C14.32 75.18, 7.35 66.45, 3.65 59.4 C-0.05 52.36, -2.2 44.89, -0.42 37.7 C1.36 30.5, 8.06 21.98, 14.33 16.22 C20.61 10.46, 33.47 5.08, 37.2 3.13 C40.93 1.17, 36.46 4, 36.72 4.49" stroke="#ffffff" stroke-width="1" fill="none"></path></g><g transform="translate(150.42939637913162 306.41982571878424) rotate(0 30.891666412353516 9.199999999999989)"><text x="30.891666412353516" y="0" font-family="Helvetica, Segoe UI Emoji" font-size="16px" fill="#ffffff" text-anchor="middle" style="white-space: pre;" direction="ltr" dominant-baseline="text-before-edge">Validator</text></g><g stroke-linecap="round" transform="translate(521.1455041238992 164.03764490356798) rotate(0 57 44.5)"><path d="M57.95 -0.96 C67.15 -1.41, 78.26 2.47, 86.52 6.55 C94.77 10.63, 102.84 16.96, 107.48 23.51 C112.11 30.06, 114.63 38.4, 114.33 45.86 C114.02 53.31, 110.72 61.9, 105.64 68.22 C100.57 74.54, 92.14 80.3, 83.87 83.77 C75.59 87.24, 65.25 89.13, 55.99 89.04 C46.73 88.95, 36.37 87.09, 28.31 83.23 C20.25 79.36, 12.43 72.64, 7.63 65.86 C2.84 59.08, -0.55 50.03, -0.44 42.55 C-0.34 35.06, 3.13 27.13, 8.25 20.96 C13.37 14.78, 21.57 8.83, 30.27 5.49 C38.97 2.15, 54.98 1.53, 60.46 0.92 C65.95 0.3, 63.13 1.25, 63.18 1.8 M34.21 3.34 C42.29 -0.1, 54.93 -1.03, 64.47 0 C74 1.03, 84.08 4.95, 91.45 9.5 C98.82 14.05, 104.79 20.59, 108.68 27.28 C112.58 33.98, 115.72 42.36, 114.82 49.67 C113.91 56.97, 109.18 65.01, 103.23 71.11 C97.28 77.21, 88 83.54, 79.14 86.26 C70.28 88.97, 59.42 88.29, 50.07 87.39 C40.72 86.49, 30.92 85.06, 23.03 80.86 C15.13 76.66, 6.48 69.02, 2.7 62.18 C-1.07 55.34, -1.17 47.22, 0.36 39.84 C1.89 32.46, 6.22 23.91, 11.88 17.89 C17.54 11.86, 30.42 6.17, 34.32 3.71 C38.21 1.24, 34.77 2.32, 35.24 3.1" stroke="#ffffff" stroke-width="1" fill="none"></path></g><g transform="translate(550.9820840086195 199.3713931407666) rotate(0 27.358333587646484 9.200000000000003)"><text x="27.358333587646484" y="0" font-family="Helvetica, Segoe UI Emoji" font-size="16px" fill="#ffffff" text-anchor="middle" style="white-space: pre;" direction="ltr" dominant-baseline="text-before-edge">Collator</text></g><g stroke-linecap="round" transform="translate(130.0272937032155 145.7980007791233) rotate(0 57 44.5)"><path d="M40.24 1.98 C48.75 -0.99, 60.24 -0.8, 69.34 0.79 C78.45 2.37, 87.99 6.62, 94.87 11.48 C101.75 16.33, 107.63 22.76, 110.62 29.92 C113.6 37.09, 114.5 47.19, 112.78 54.48 C111.06 61.76, 106.56 68.22, 100.3 73.66 C94.04 79.09, 84.45 84.82, 75.22 87.07 C65.99 89.32, 54.36 88.78, 44.92 87.17 C35.49 85.57, 25.7 82.18, 18.59 77.45 C11.49 72.71, 5.17 65.69, 2.29 58.77 C-0.58 51.86, -0.67 43.31, 1.33 35.96 C3.33 28.6, 6.74 20.39, 14.29 14.64 C21.84 8.88, 39.8 3.86, 46.61 1.43 C53.42 -1, 55.08 -0.51, 55.17 0.07 M79.56 2.01 C87.92 3.83, 95.11 10.11, 100.73 16.39 C106.36 22.67, 112 32.24, 113.32 39.71 C114.65 47.19, 112.02 54.63, 108.68 61.24 C105.34 67.85, 100.58 74.82, 93.26 79.37 C85.94 83.92, 74.18 87.54, 64.78 88.57 C55.38 89.6, 45.4 88.11, 36.85 85.55 C28.3 82.99, 19.47 79.09, 13.46 73.21 C7.45 67.34, 2.54 57.72, 0.78 50.3 C-0.98 42.88, -0.79 35.45, 2.92 28.69 C6.62 21.93, 15.34 14.36, 23 9.72 C30.65 5.09, 39.81 1.79, 48.86 0.88 C57.9 -0.02, 72.52 3.88, 77.26 4.29 C82.01 4.7, 77.35 2.7, 77.32 3.33" stroke="#ffffff" stroke-width="1" fill="none"></path></g><g transform="translate(156.33054076322878 181.13174901632192) rotate(0 30.891666412353516 9.200000000000003)"><text x="30.891666412353516" y="0" font-family="Helvetica, Segoe UI Emoji" font-size="16px" fill="#ffffff" text-anchor="middle" style="white-space: pre;" direction="ltr" dominant-baseline="text-before-edge">Validator</text></g><g stroke-linecap="round"><g transform="translate(501.6815202933144 255.6807406777234) rotate(0 10.250571854017494 -11.532044463658423)"><path d="M0.05 -1.19 C3.59 -4.99, 18.41 -20.13, 21.88 -23.86 M-1.38 0.8 C1.92 -2.74, 16.76 -18.68, 20.85 -22.53" stroke="#ffffff" stroke-width="1" fill="none"></path></g></g><mask></mask><g stroke-linecap="round"><g transform="translate(114.59754474755141 212.65936803590887) rotate(0 5.990738010637301 -1.9792726932726907)"><path d="M-0.76 -0.69 C1.48 -1.54, 10.71 -3.34, 12.74 -3.96 M1.05 1.56 C3.28 0.92, 10.78 -4.19, 12.36 -5.52" stroke="#ffffff" stroke-width="1" fill="none"></path></g></g><mask></mask><g stroke-linecap="round"><g transform="translate(590.7587479074598 256.6385603294884) rotate(0 2.7368343624796125 8.24709958105862)"><path d="M-0.15 -0.39 C0.68 2.58, 3.98 13.7, 5.06 16.66 M-1.69 -1.65 C-0.51 1.63, 5.95 15.32, 7.16 18.14" stroke="#ffffff" stroke-width="1" fill="none"></path></g></g><mask></mask><g stroke-linecap="round"><g transform="translate(192.72470627262624 239.55155474073536) rotate(0 0.22110243243469085 13.294738202166968)"><path d="M-0.69 1.08 C-0.81 5.3, 0.27 20.66, 0.38 24.58 M1.14 0.6 C0.86 5.07, 0.26 21.78, -0.01 25.99" stroke="#ffffff" stroke-width="1" fill="none"></path></g></g><mask></mask><g stroke-linecap="round"><g transform="translate(527.063741065087 306.92409204715113) rotate(0 11.43973490015128 3.280072210663434)"><path d="M-1.16 -0.1 C2.87 1.26, 19.78 6.48, 24.04 7.76 M0.43 -1.2 C4.32 -0.16, 19.23 4.83, 23.15 5.95" stroke="#ffffff" stroke-width="1" fill="none"></path></g></g><mask></mask><g stroke-linecap="round"><g transform="translate(114.6217177341083 277.73438183363606) rotate(0 7.043751783462824 5.64254661412653)"><path d="M1.08 1.07 C3.52 2.97, 11.76 9.25, 13.9 10.7 M0.19 0.58 C2.52 2.19, 10.67 7.19, 12.82 8.91" stroke="#ffffff" stroke-width="1" fill="none"></path></g></g><mask></mask><g stroke-linecap="round" transform="translate(256.4796894414735 57.52112669371667) rotate(0 41.5 24.499999999999993)"><path d="M12.25 0 M12.25 0 C25.1 0.73, 36.69 0.66, 70.75 0 M12.25 0 C29.65 0.58, 46.61 1.21, 70.75 0 M70.75 0 C80.31 1.25, 82.97 3.17, 83 12.25 M70.75 0 C76.72 -0.09, 82.01 5.58, 83 12.25 M83 12.25 C84.79 21.07, 84.59 26.5, 83 36.75 M83 12.25 C82.01 17.76, 82.66 22.89, 83 36.75 M83 36.75 C82.22 45.06, 77.4 48.34, 70.75 49 M83 36.75 C85.08 43.43, 80.86 47.86, 70.75 49 M70.75 49 C48.84 50.77, 31.77 47.39, 12.25 49 M70.75 49 C49.37 50.06, 27.37 49.87, 12.25 49 M12.25 49 C3.06 47.68, -0.77 46.22, 0 36.75 M12.25 49 C2.77 50.43, -1.87 43.27, 0 36.75 M0 36.75 C-0.34 29.7, 1.02 23.25, 0 12.25 M0 36.75 C0.64 32.15, 0.08 27.1, 0 12.25 M0 12.25 C1.8 5.65, 5.61 -0.93, 12.25 0 M0 12.25 C1.2 6.05, 6.18 -1.2, 12.25 0" stroke="#ffffff" stroke-width="1" fill="none"></path></g><g transform="translate(263.46302302912 63.621126693716676) rotate(0 34.516666412353516 18.400000000000006)"><text x="34.516666412353516" y="0" font-family="Helvetica, Segoe UI Emoji" font-size="16px" fill="#ffffff" text-anchor="middle" style="white-space: pre;" direction="ltr" dominant-baseline="text-before-edge">candidate</text><text x="34.516666412353516" y="18.4" font-family="Helvetica, Segoe UI Emoji" font-size="16px" fill="#ffffff" text-anchor="middle" style="white-space: pre;" direction="ltr" dominant-baseline="text-before-edge">recepeit</text></g><g transform="translate(253.32950399697404 10) rotate(0 43.724998474121094 9.199999999999996)"><text x="43.724998474121094" y="0" font-family="Helvetica, Segoe UI Emoji" font-size="16px" fill="#ffffff" text-anchor="middle" style="white-space: pre;" direction="ltr" dominant-baseline="text-before-edge">Relay-Chain</text></g><g stroke-linecap="round"><g transform="translate(295.7502951638386 100.99286691767533) rotate(0 93.96082987786167 62.73721698306994)"><path d="M0.73 -0.62 C10.44 13.15, 27.46 61.39, 58.72 82.51 C89.98 103.63, 166.55 118.89, 188.27 126.09 M-0.35 1.67 C9.2 15.07, 26.61 60.12, 57.93 80.56 C89.24 101, 165.57 117.15, 187.54 124.32" stroke="#ffffff" stroke-width="1" fill="none"></path></g><g transform="translate(295.7502951638386 100.99286691767533) rotate(0 93.96082987786167 62.73721698306994)"><path d="M156.61 127.22 C168.22 125.84, 179.52 126.33, 188.79 124.3 M157.2 127.38 C165.27 126.24, 173.7 126.4, 188.25 125.11" stroke="#ffffff" stroke-width="1" fill="none"></path></g><g transform="translate(295.7502951638386 100.99286691767533) rotate(0 93.96082987786167 62.73721698306994)"><path d="M162.06 107.44 C171.82 112.73, 181.3 119.85, 188.79 124.3 M162.65 107.6 C169.15 111.49, 176.19 116.67, 188.25 125.11" stroke="#ffffff" stroke-width="1" fill="none"></path></g></g><mask></mask><g stroke-linecap="round"><g transform="translate(218.02649394777723 249.37354680407412) rotate(0 121.49270910562791 -8.282644886210022)"><path d="M-0.78 -1.08 C15.18 -3.66, 55.27 -13.31, 96.03 -15.03 C136.79 -16.76, 219.12 -11.89, 243.76 -11.43 M1.02 0.96 C16.75 -2.01, 54.63 -14.48, 94.91 -16.88 C135.19 -19.27, 217.85 -14.35, 242.68 -13.41" stroke="#ffffff" stroke-width="1" fill="none"></path></g><g transform="translate(218.02649394777723 249.37354680407412) rotate(0 121.49270910562791 -8.282644886210022)"><path d="M212.25 -5.01 C224.24 -8.19, 233.82 -10.88, 242.42 -13.37 M215.02 -4.58 C223.74 -7.26, 232.28 -9.97, 242.82 -13.42" stroke="#ffffff" stroke-width="1" fill="none"></path></g><g transform="translate(218.02649394777723 249.37354680407412) rotate(0 121.49270910562791 -8.282644886210022)"><path d="M213.19 -25.5 C224.94 -22.01, 234.22 -18.01, 242.42 -13.37 M215.96 -25.08 C224.56 -21.13, 232.8 -17.21, 242.82 -13.42" stroke="#ffffff" stroke-width="1" fill="none"></path></g></g><mask></mask></svg>