<svg version="1.1" viewBox="0.0 0.0 648.0892388451443 566.6745406824147" fill="none" stroke="none" stroke-linecap="square" stroke-miterlimit="10" xmlns:xlink="http://www.w3.org/1999/xlink" xmlns="http://www.w3.org/2000/svg"><clipPath id="p.0"><path d="m0 0l648.08923 0l0 566.67456l-648.08923 0l0 -566.67456z" clip-rule="nonzero"/></clipPath><g clip-path="url(#p.0)"><path fill="#140526" d="m0 0l648.08923 0l0 566.67456l-648.08923 0z" fill-rule="evenodd"/><path stroke="#8d3aed" stroke-width="4.0" stroke-linecap="butt" d="m445.1496 261.79004l0 129.89761" fill-rule="nonzero"/><path stroke="#8d3aed" stroke-width="4.0" stroke-linecap="butt" d="m597.53546 261.79004l0 129.89761" fill-rule="nonzero"/><path stroke="#8d3aed" stroke-width="4.0" stroke-linecap="butt" d="m443.1496 263.79004l156.38586 0" fill-rule="nonzero"/><path stroke="#8d3aed" stroke-width="4.0" stroke-linecap="butt" d="m443.1496 305.75592l156.38586 0" fill-rule="nonzero"/><path stroke="#8d3aed" stroke-width="4.0" stroke-linecap="butt" d="m443.1496 347.72177l156.38586 0" fill-rule="nonzero"/><path stroke="#8d3aed" stroke-width="4.0" stroke-linecap="butt" d="m443.1496 389.68765l156.38586 0" fill-rule="nonzero"/><path fill="#efefef" d="m455.88397 294.6319l0 -13.25l1.3125 0l0.125 2.28125l-0.203125 -0.265625q0.234375 -0.65625 0.71875 -1.140625q0.484375 -0.5 1.171875 -0.78125q0.703125 -0.28125 1.5 -0.28125q1.140625 0 2.09375 0.578125q0.96875 0.578125 1.546875 1.671875q0.578125 1.078125 0.578125 2.59375q0 1.515625 -0.59375 2.609375q-0.578125 1.09375 -1.546875 1.671875q-0.96875 0.578125 -2.125 0.578125q-1.15625 0 -2.03125 -0.5625q-0.859375 -0.578125 -1.234375 -1.453125l0.1875 -0.28125l0 6.03125l-1.5 0zm4.421875 -5.046875q1.375 0 2.140625 -0.96875q0.78125 -0.96875 0.78125 -2.578125q0 -1.59375 -0.75 -2.5625q-0.75 -0.96875 -2.109375 -0.96875q-0.90625 0 -1.578125 0.4375q-0.671875 0.4375 -1.046875 1.234375q-0.359375 0.78125 -0.359375 1.859375q0 1.078125 0.359375 1.875q0.359375 0.796875 1.015625 1.234375q0.671875 0.4375 1.546875 0.4375zm12.728729 -4.90625q0 -1.046875 -0.5625 -1.609375q-0.5625 -0.5625 -1.59375 -0.5625q-0.96875 0 -1.640625 0.421875q-0.671875 0.40625 -0.984375 1.34375l-1.21875 -0.75q0.375 -1.046875 1.375 -1.6875q1.015625 -0.640625 2.515625 -0.640625q1.0 0 1.8125 0.34375q0.828125 0.34375 1.296875 1.046875q0.484375 0.703125 0.484375 1.796875l0 4.515625q0 0.671875 0.71875 0.671875q0.34375 0 0.6875 -0.09375l-0.078125 1.171875q-0.375 0.1875 -0.96875 0.1875q-0.546875 0 -0.984375 -0.203125q-0.421875 -0.203125 -0.671875 -0.625q-0.234375 -0.421875 -0.234375 -1.046875l0 -0.1875l0.375 0.046875q-0.21875 0.734375 -0.765625 1.1875q-0.53125 0.453125 -1.203125 0.671875q-0.671875 0.21875 -1.328125 0.21875q-0.828125 0 -1.53125 -0.28125q-0.703125 -0.28125 -1.125 -0.84375q-0.421875 -0.578125 -0.421875 -1.40625q0 -1.046875 0.6875 -1.71875q0.703125 -0.6875 1.953125 -0.9375l3.703125 -0.734375l0 1.234375l-3.0 0.625q-0.921875 0.1875 -1.375 0.53125q-0.4375 0.328125 -0.4375 0.921875q0 0.578125 0.453125 0.9375q0.453125 0.359375 1.296875 0.359375q0.546875 0 1.03125 -0.140625q0.5 -0.140625 0.890625 -0.421875q0.390625 -0.296875 0.609375 -0.734375q0.234375 -0.4375 0.234375 -1.03125l0 -2.578125zm5.1062927 6.03125l0 -9.328125l1.21875 0l0.203125 1.53125q0.390625 -0.859375 1.140625 -1.28125q0.765625 -0.4375 1.84375 -0.4375q0.234375 0 0.515625 0.046875q0.296875 0.03125 0.5 0.140625l-0.25 1.359375q-0.203125 -0.078125 -0.453125 -0.109375q-0.234375 -0.03125 -0.6875 -0.03125q-0.578125 0 -1.171875 0.34375q-0.578125 0.328125 -0.96875 1.015625q-0.390625 0.671875 -0.390625 1.71875l0 5.03125l-1.5 0zm11.21936 0.1875q-1.328125 0 -2.375 -0.578125q-1.03125 -0.578125 -1.609375 -1.671875q-0.578125 -1.09375 -0.578125 -2.609375q0 -1.5 0.578125 -2.59375q0.578125 -1.09375 1.578125 -1.671875q1.015625 -0.578125 2.3125 -0.578125q1.296875 0 2.21875 0.5625q0.921875 0.5625 1.40625 1.53125q0.484375 0.953125 0.484375 2.140625q0 0.3125 -0.015625 0.578125q-0.015625 0.265625 -0.046875 0.46875l-7.546875 0l0 -1.328125l6.890625 0l-0.765625 0.15625q0 -1.34375 -0.734375 -2.0625q-0.734375 -0.734375 -1.9375 -0.734375q-0.90625 0 -1.578125 0.421875q-0.65625 0.40625 -1.03125 1.203125q-0.359375 0.796875 -0.359375 1.90625q0 1.109375 0.375 1.921875q0.375 0.796875 1.046875 1.21875q0.6875 0.40625 1.640625 0.40625q1.03125 0 1.671875 -0.390625q0.640625 -0.390625 1.03125 -1.0625l1.1875 0.6875q-0.359375 0.640625 -0.921875 1.109375q-0.546875 0.46875 -1.28125 0.71875q-0.734375 0.25 -1.640625 0.25zm6.8583984 -0.1875l0 -9.328125l1.3125 0l0.125 2.09375l-0.25 -0.203125q0.3125 -0.75 0.8125 -1.203125q0.5 -0.46875 1.15625 -0.671875q0.671875 -0.203125 1.375 -0.203125q1.015625 0 1.828125 0.390625q0.828125 0.375 1.3125 1.15625q0.5 0.78125 0.5 2.0l0 5.96875l-1.5 0l0 -5.453125q0 -1.546875 -0.65625 -2.140625q-0.65625 -0.609375 -1.625 -0.609375q-0.671875 0 -1.34375 0.3125q-0.671875 0.3125 -1.109375 1.03125q-0.4375 0.703125 -0.4375 1.890625l0 4.96875l-1.5 0zm13.620697 -11.984375l0 9.40625q0 0.6875 0.390625 1.03125q0.390625 0.328125 1.0 0.328125q0.546875 0 0.9374695 -0.171875q0.390625 -0.1875 0.71875 -0.515625l0.515625 1.25q-0.421875 0.390625 -1.015625 0.625q-0.5937195 0.21875 -1.3593445 0.21875q-0.703125 0 -1.328125 -0.25q-0.609375 -0.25 -0.96875 -0.796875q-0.359375 -0.5625 -0.390625 -1.453125l0 -9.25l1.5 -0.421875zm3.3905945 2.65625l0 1.28125l-6.7499695 0l0 -1.28125l6.7499695 0zm10.327393 11.140625l0 1.390625l-10.0625 0l0 -1.390625l10.0625 0zm1.7276001 -1.8125l0 -13.625l1.5 0l0 5.703125q0.484375 -0.84375 1.28125 -1.21875q0.796875 -0.375 1.75 -0.375q1.015625 0 1.828125 0.390625q0.828125 0.375 1.3125 1.15625q0.5 0.78125 0.5 2.0l0 5.96875l-1.5 0l0 -5.453125q0 -1.546875 -0.65625 -2.140625q-0.65625 -0.609375 -1.625 -0.609375q-0.671875 0 -1.34375 0.3125q-0.671875 0.3125 -1.109375 1.03125q-0.4375 0.71875 -0.4375 1.921875l0 4.9375l-1.5 0zm17.001343 -6.03125q0 -1.046875 -0.5625 -1.609375q-0.5625 -0.5625 -1.59375 -0.5625q-0.96875 0 -1.640625 0.421875q-0.671875 0.40625 -0.984375 1.34375l-1.21875 -0.75q0.375 -1.046875 1.375 -1.6875q1.015625 -0.640625 2.515625 -0.640625q1.0 0 1.8125 0.34375q0.828125 0.34375 1.296875 1.046875q0.484375 0.703125 0.484375 1.796875l0 4.515625q0 0.671875 0.71875 0.671875q0.34375 0 0.6875 -0.09375l-0.078125 1.171875q-0.375 0.1875 -0.96875 0.1875q-0.546875 0 -0.984375 -0.203125q-0.421875 -0.203125 -0.671875 -0.625q-0.234375 -0.421875 -0.234375 -1.046875l0 -0.1875l0.375 0.046875q-0.21875 0.734375 -0.765625 1.1875q-0.53125 0.453125 -1.203125 0.671875q-0.671875 0.21875 -1.328125 0.21875q-0.828125 0 -1.53125 -0.28125q-0.703125 -0.28125 -1.125 -0.84375q-0.421875 -0.578125 -0.421875 -1.40625q0 -1.046875 0.6875 -1.71875q0.703125 -0.6875 1.953125 -0.9375l3.703125 -0.734375l0 1.234375l-3.0 0.625q-0.921875 0.1875 -1.375 0.53125q-0.4375 0.328125 -0.4375 0.921875q0 0.578125 0.453125 0.9375q0.453125 0.359375 1.296875 0.359375q0.546875 0 1.03125 -0.140625q0.5 -0.140625 0.890625 -0.421875q0.390625 -0.296875 0.609375 -0.734375q0.234375 -0.4375 0.234375 -1.03125l0 -2.578125zm8.465637 6.21875q-1.359375 0 -2.515625 -0.578125q-1.140625 -0.578125 -1.75 -1.640625l1.265625 -0.921875q0.40625 0.859375 1.1875 1.34375q0.796875 0.484375 1.921875 0.484375q0.984375 0 1.546875 -0.375q0.5625 -0.390625 0.5625 -1.0q0 -0.390625 -0.25 -0.71875q-0.25 -0.328125 -0.96875 -0.46875l-2.234375 -0.46875q-1.359375 -0.28125 -1.953125 -0.9375q-0.578125 -0.65625 -0.578125 -1.625q0 -0.765625 0.4375 -1.390625q0.4375 -0.640625 1.25 -1.015625q0.8125 -0.390625 1.90625 -0.390625q1.390625 0 2.328125 0.546875q0.953125 0.53125 1.421875 1.53125l-1.25 0.8125q-0.3125 -0.8125 -1.03125 -1.1875q-0.703125 -0.390625 -1.46875 -0.390625q-0.671875 0 -1.15625 0.1875q-0.46875 0.1875 -0.71875 0.515625q-0.25 0.3125 -0.25 0.734375q0 0.40625 0.28125 0.75q0.28125 0.34375 1.046875 0.5l2.328125 0.484375q1.3125 0.25 1.828125 0.859375q0.53125 0.59375 0.53125 1.453125q0 0.875 -0.46875 1.546875q-0.46875 0.65625 -1.3125 1.015625q-0.84375 0.34375 -1.9375 0.34375zm6.472473 -0.1875l0 -13.625l1.5 0l0 5.703125q0.484375 -0.84375 1.28125 -1.21875q0.796875 -0.375 1.75 -0.375q1.015625 0 1.828125 0.390625q0.828125 0.375 1.3125 1.15625q0.5 0.78125 0.5 2.0l0 5.96875l-1.5 0l0 -5.453125q0 -1.546875 -0.65625 -2.140625q-0.65625 -0.609375 -1.625 -0.609375q-0.671875 0 -1.34375 0.3125q-0.671875 0.3125 -1.109375 1.03125q-0.4375 0.71875 -0.4375 1.921875l0 4.9375l-1.5 0z" fill-rule="nonzero"/><path fill="#f3f3f3" d="m462.61835 336.59778l0 -6.484375l0.265625 0.1875q-0.140625 0.828125 -0.640625 1.40625q-0.484375 0.5625 -1.203125 0.859375q-0.71875 0.296875 -1.515625 0.296875q-1.15625 0 -2.125 -0.578125q-0.96875 -0.578125 -1.546875 -1.671875q-0.578125 -1.09375 -0.578125 -2.609375q0 -1.546875 0.609375 -2.625q0.609375 -1.078125 1.609375 -1.640625q1.015625 -0.578125 2.171875 -0.578125q0.796875 0 1.46875 0.296875q0.671875 0.28125 1.140625 0.8125q0.46875 0.53125 0.625 1.265625l-0.21875 0l0.125 -2.1875l1.3125 0l0 13.25l-1.5 0zm-2.953125 -5.046875q0.890625 0 1.546875 -0.4375q0.65625 -0.4375 1.03125 -1.25q0.375 -0.8125 0.375 -1.90625q0 -1.125 -0.359375 -1.890625q-0.359375 -0.78125 -1.015625 -1.1875q-0.65625 -0.40625 -1.53125 -0.40625q-1.390625 0 -2.171875 0.96875q-0.78125 0.96875 -0.78125 2.5625q0 1.609375 0.765625 2.578125q0.765625 0.96875 2.140625 0.96875zm11.291229 1.3125q-0.890625 0 -1.6875 -0.328125q-0.796875 -0.34375 -1.296875 -1.09375q-0.484375 -0.765625 -0.484375 -1.96875l0 -6.125l1.5 0l0 5.734375q0 1.40625 0.609375 1.9375q0.609375 0.53125 1.734375 0.53125q0.515625 0 1.015625 -0.171875q0.515625 -0.171875 0.90625 -0.546875q0.40625 -0.390625 0.640625 -0.984375q0.234375 -0.609375 0.234375 -1.421875l0 -5.078125l1.5 0l0 9.328125l-1.3125 0l-0.09375 -1.421875q-0.484375 0.84375 -1.3125 1.234375q-0.828125 0.375 -1.953125 0.375zm12.042145 0q-1.328125 0 -2.375 -0.578125q-1.03125 -0.578125 -1.609375 -1.671875q-0.578125 -1.09375 -0.578125 -2.609375q0 -1.5 0.578125 -2.59375q0.578125 -1.09375 1.578125 -1.671875q1.015625 -0.578125 2.3125 -0.578125q1.296875 0 2.21875 0.5625q0.921875 0.5625 1.40625 1.53125q0.484375 0.953125 0.484375 2.140625q0 0.3125 -0.015625 0.578125q-0.015625 0.265625 -0.046875 0.46875l-7.546875 0l0 -1.328125l6.890625 0l-0.765625 0.15625q0 -1.34375 -0.734375 -2.0625q-0.734375 -0.734375 -1.9375 -0.734375q-0.90625 0 -1.578125 0.421875q-0.65625 0.40625 -1.03125 1.203125q-0.359375 0.796875 -0.359375 1.90625q0 1.109375 0.375 1.921875q0.375 0.796875 1.046875 1.21875q0.6875 0.40625 1.640625 0.40625q1.03125 0 1.671875 -0.390625q0.640625 -0.390625 1.03125 -1.0625l1.1875 0.6875q-0.359375 0.640625 -0.921875 1.109375q-0.546875 0.46875 -1.28125 0.71875q-0.734375 0.25 -1.640625 0.25zm10.233429 0q-0.890625 0 -1.6875 -0.328125q-0.796875 -0.34375 -1.296875 -1.09375q-0.484375 -0.765625 -0.484375 -1.96875l0 -6.125l1.5 0l0 5.734375q0 1.40625 0.609375 1.9375q0.609375 0.53125 1.734375 0.53125q0.515625 0 1.015625 -0.171875q0.515625 -0.171875 0.90625 -0.546875q0.40625 -0.390625 0.640625 -0.984375q0.234375 -0.609375 0.234375 -1.421875l0 -5.078125l1.5 0l0 9.328125l-1.3125 0l-0.09375 -1.421875q-0.484375 0.84375 -1.3125 1.234375q-0.828125 0.375 -1.953125 0.375zm12.042145 0q-1.328125 0 -2.375 -0.578125q-1.03125 -0.578125 -1.609375 -1.671875q-0.578125 -1.09375 -0.578125 -2.609375q0 -1.5 0.578125 -2.59375q0.578125 -1.09375 1.578125 -1.671875q1.015625 -0.578125 2.3125 -0.578125q1.296875 0 2.21875 0.5625q0.921875 0.5625 1.40625 1.53125q0.484375 0.953125 0.484375 2.140625q0 0.3125 -0.015625 0.578125q-0.015625 0.265625 -0.046875 0.46875l-7.546875 0l0 -1.328125l6.890625 0l-0.765625 0.15625q0 -1.34375 -0.734375 -2.0625q-0.734375 -0.734375 -1.9375 -0.734375q-0.90625 0 -1.578125 0.421875q-0.65625 0.40625 -1.03125 1.203125q-0.359375 0.796875 -0.359375 1.90625q0 1.109375 0.375 1.921875q0.375 0.796875 1.046875 1.21875q0.6875 0.40625 1.640625 0.40625q1.03125 0 1.671875 -0.390625q0.640625 -0.390625 1.03125 -1.0625l1.1875 0.6875q-0.359375 0.640625 -0.921875 1.109375q-0.546875 0.46875 -1.28125 0.71875q-0.734375 0.25 -1.640625 0.25zm10.499023 0q-1.15625 0 -2.125 -0.578125q-0.96875 -0.578125 -1.546875 -1.671875q-0.5780945 -1.09375 -0.5780945 -2.609375q0 -1.546875 0.6093445 -2.625q0.609375 -1.078125 1.609375 -1.640625q1.015625 -0.578125 2.171875 -0.578125q1.15625 0 2.0 0.59375q0.859375 0.59375 1.140625 1.59375l-0.1875 0.125l0 -6.421875l1.5 0l0 13.625l-1.3125 0l-0.125 -2.25l0.203125 -0.125q-0.140625 0.828125 -0.640625 1.40625q-0.484375 0.5625 -1.203125 0.859375q-0.71875 0.296875 -1.515625 0.296875zm0.140625 -1.3125q0.90625 0 1.5625 -0.4375q0.671875 -0.453125 1.03125 -1.28125q0.359375 -0.828125 0.359375 -1.953125q0 -1.0625 -0.359375 -1.828125q-0.359375 -0.765625 -1.015625 -1.171875q-0.640625 -0.40625 -1.5 -0.40625q-1.421875 0 -2.203125 0.96875q-0.78125 0.96875 -0.78125 2.5625q0 1.609375 0.765625 2.578125q0.765625 0.96875 2.140625 0.96875zm16.244385 2.9375l0 1.390625l-10.0625 0l0 -1.390625l10.0625 0zm7.0126953 -7.84375q0 -1.046875 -0.5625 -1.609375q-0.5625 -0.5625 -1.59375 -0.5625q-0.96875 0 -1.640625 0.421875q-0.671875 0.40625 -0.984375 1.34375l-1.21875 -0.75q0.375 -1.046875 1.375 -1.6875q1.015625 -0.640625 2.515625 -0.640625q1.0 0 1.8125 0.34375q0.828125 0.34375 1.296875 1.046875q0.484375 0.703125 0.484375 1.796875l0 4.515625q0 0.671875 0.71875 0.671875q0.34375 0 0.6875 -0.09375l-0.078125 1.171875q-0.375 0.1875 -0.96875 0.1875q-0.546875 0 -0.984375 -0.203125q-0.421875 -0.203125 -0.671875 -0.625q-0.234375 -0.421875 -0.234375 -1.046875l0 -0.1875l0.375 0.046875q-0.21875 0.734375 -0.765625 1.1875q-0.53125 0.453125 -1.203125 0.671875q-0.671875 0.21875 -1.328125 0.21875q-0.828125 0 -1.53125 -0.28125q-0.703125 -0.28125 -1.125 -0.84375q-0.421875 -0.578125 -0.421875 -1.40625q0 -1.046875 0.6875 -1.71875q0.703125 -0.6875 1.953125 -0.9375l3.703125 -0.734375l0 1.234375l-3.0 0.625q-0.921875 0.1875 -1.375 0.53125q-0.4375 0.328125 -0.4375 0.921875q0 0.578125 0.453125 0.9375q0.453125 0.359375 1.296875 0.359375q0.546875 0 1.03125 -0.140625q0.5 -0.140625 0.890625 -0.421875q0.390625 -0.296875 0.609375 -0.734375q0.234375 -0.4375 0.234375 -1.03125l0 -2.578125zm6.936096 -5.953125l0 9.40625q0 0.6875 0.390625 1.03125q0.390625 0.328125 1.0 0.328125q0.546875 0 0.9375 -0.171875q0.390625 -0.1875 0.71875 -0.515625l0.515625 1.25q-0.421875 0.390625 -1.015625 0.625q-0.59375 0.21875 -1.359375 0.21875q-0.703125 0 -1.328125 -0.25q-0.609375 -0.25 -0.96875 -0.796875q-0.359375 -0.5625 -0.390625 -1.453125l0 -9.25l1.5 -0.421875zm3.390625 2.65625l0 1.28125l-6.75 0l0 -1.28125l6.75 0z" fill-rule="nonzero"/><path fill="#f3f3f3" d="m455.88397 374.64178l0 -9.328125l1.3125 0l0.09375 1.453125q0.5 -0.859375 1.3125 -1.25q0.8125 -0.390625 1.671875 -0.390625q0.984375 0 1.859375 0.453125q0.875 0.4375 1.34375 1.375q0.296875 -0.640625 0.828125 -1.03125q0.546875 -0.40625 1.1875 -0.59375q0.65625 -0.203125 1.234375 -0.203125q0.890625 0 1.703125 0.375q0.8125 0.375 1.328125 1.15625q0.53125 0.78125 0.53125 2.015625l0 5.96875l-1.5 0l0 -5.828125q0 -1.265625 -0.640625 -1.8125q-0.625 -0.5625 -1.5625 -0.5625q-0.71875 0 -1.359375 0.359375q-0.625 0.34375 -1.015625 1.03125q-0.375 0.6875 -0.375 1.703125l0 5.109375l-1.5 0l0 -5.828125q0 -1.265625 -0.640625 -1.8125q-0.625 -0.5625 -1.5625 -0.5625q-0.609375 0 -1.265625 0.328125q-0.640625 0.3125 -1.0625 1.03125q-0.421875 0.703125 -0.421875 1.859375l0 4.984375l-1.5 0zm21.685669 0.1875q-1.328125 0 -2.375 -0.578125q-1.03125 -0.578125 -1.609375 -1.671875q-0.578125 -1.09375 -0.578125 -2.609375q0 -1.5 0.578125 -2.59375q0.578125 -1.09375 1.578125 -1.671875q1.015625 -0.578125 2.3125 -0.578125q1.296875 0 2.21875 0.5625q0.921875 0.5625 1.40625 1.53125q0.484375 0.953125 0.484375 2.140625q0 0.3125 -0.015625 0.578125q-0.015625 0.265625 -0.046875 0.46875l-7.546875 0l0 -1.328125l6.890625 0l-0.765625 0.15625q0 -1.34375 -0.734375 -2.0625q-0.734375 -0.734375 -1.9375 -0.734375q-0.90625 0 -1.578125 0.421875q-0.65625 0.40625 -1.03125 1.203125q-0.359375 0.796875 -0.359375 1.90625q0 1.109375 0.375 1.921875q0.375 0.796875 1.046875 1.21875q0.6875 0.40625 1.640625 0.40625q1.03125 0 1.671875 -0.390625q0.640625 -0.390625 1.03125 -1.0625l1.1875 0.6875q-0.359375 0.640625 -0.921875 1.109375q-0.546875 0.46875 -1.28125 0.71875q-0.734375 0.25 -1.640625 0.25zm10.217773 0q-1.359375 0 -2.515625 -0.578125q-1.140625 -0.578125 -1.75 -1.640625l1.265625 -0.921875q0.40625 0.859375 1.1875 1.34375q0.796875 0.484375 1.921875 0.484375q0.984375 0 1.546875 -0.375q0.5625 -0.390625 0.5625 -1.0q0 -0.390625 -0.25 -0.71875q-0.25 -0.328125 -0.96875 -0.46875l-2.234375 -0.46875q-1.359375 -0.28125 -1.953125 -0.9375q-0.578125 -0.65625 -0.578125 -1.625q0 -0.765625 0.4375 -1.390625q0.4375 -0.640625 1.25 -1.015625q0.8125 -0.390625 1.90625 -0.390625q1.390625 0 2.328125 0.546875q0.953125 0.53125 1.421875 1.53125l-1.25 0.8125q-0.3125 -0.8125 -1.03125 -1.1875q-0.703125 -0.390625 -1.46875 -0.390625q-0.671875 0 -1.15625 0.1875q-0.46875 0.1875 -0.71875 0.515625q-0.25 0.3125 -0.25 0.734375q0 0.40625 0.28125 0.75q0.28125 0.34375 1.046875 0.5l2.328125 0.484375q1.3125 0.25 1.828125 0.859375q0.53125 0.59375 0.53125 1.453125q0 0.875 -0.46875 1.546875q-0.46875 0.65625 -1.3125 1.015625q-0.84375 0.34375 -1.9375 0.34375zm9.831848 0q-1.359375 0 -2.515625 -0.578125q-1.140625 -0.578125 -1.75 -1.640625l1.265625 -0.921875q0.40625 0.859375 1.1875 1.34375q0.796875 0.484375 1.921875 0.484375q0.984375 0 1.546875 -0.375q0.5625 -0.390625 0.5625 -1.0q0 -0.390625 -0.25 -0.71875q-0.25 -0.328125 -0.96875 -0.46875l-2.234375 -0.46875q-1.359375 -0.28125 -1.953125 -0.9375q-0.578125 -0.65625 -0.578125 -1.625q0 -0.765625 0.4375 -1.390625q0.4375 -0.640625 1.25 -1.015625q0.8125 -0.390625 1.90625 -0.390625q1.390625 0 2.328125 0.546875q0.953125 0.53125 1.421875 1.53125l-1.25 0.8125q-0.3125 -0.8125 -1.03125 -1.1875q-0.703125 -0.390625 -1.46875 -0.390625q-0.671875 0 -1.15625 0.1875q-0.46875 0.1875 -0.71875 0.515625q-0.25 0.3125 -0.25 0.734375q0 0.40625 0.28125 0.75q0.28125 0.34375 1.046875 0.5l2.328125 0.484375q1.3125 0.25 1.828125 0.859375q0.53125 0.59375 0.53125 1.453125q0 0.875 -0.46875 1.546875q-0.46875 0.65625 -1.3125 1.015625q-0.84375 0.34375 -1.9375 0.34375zm11.925598 -6.21875q0 -1.046875 -0.5625 -1.609375q-0.5625 -0.5625 -1.59375 -0.5625q-0.96875 0 -1.640625 0.421875q-0.671875 0.40625 -0.984375 1.34375l-1.21875 -0.75q0.375 -1.046875 1.375 -1.6875q1.015625 -0.640625 2.515625 -0.640625q1.0 0 1.8125 0.34375q0.828125 0.34375 1.296875 1.046875q0.484375 0.703125 0.484375 1.796875l0 4.515625q0 0.671875 0.71875 0.671875q0.34375 0 0.6875 -0.09375l-0.078125 1.171875q-0.375 0.1875 -0.96875 0.1875q-0.546875 0 -0.984375 -0.203125q-0.421875 -0.203125 -0.671875 -0.625q-0.234375 -0.421875 -0.234375 -1.046875l0 -0.1875l0.375 0.046875q-0.21875 0.734375 -0.765625 1.1875q-0.53125 0.453125 -1.203125 0.671875q-0.671875 0.21875 -1.328125 0.21875q-0.828125 0 -1.53125 -0.28125q-0.703125 -0.28125 -1.125 -0.84375q-0.421875 -0.578125 -0.421875 -1.40625q0 -1.046875 0.6875 -1.71875q0.703125 -0.6875 1.953125 -0.9375l3.703125 -0.734375l0 1.234375l-3.0 0.625q-0.921875 0.1875 -1.375 0.53125q-0.4375 0.328125 -0.4375 0.921875q0 0.578125 0.453125 0.9375q0.453125 0.359375 1.296875 0.359375q0.546875 0 1.03125 -0.140625q0.5 -0.140625 0.890625 -0.421875q0.390625 -0.296875 0.609375 -0.734375q0.234375 -0.4375 0.234375 -1.03125l0 -2.578125zm12.965698 -5.015625l0.328125 1.328125q-0.015625 0 -0.0625 0q-0.03125 0 -0.0625 0q-0.921875 0 -1.421875 0.359375q-0.484375 0.359375 -0.484375 1.171875l-0.90625 -0.46875q0 -0.734375 0.328125 -1.265625q0.34375 -0.546875 0.921875 -0.828125q0.578125 -0.296875 1.265625 -0.296875q0.015625 0 0.046875 0q0.03125 0 0.046875 0zm-2.84375 9.859375q1.328125 0 2.078125 0.609375q0.75 0.59375 0.75 1.609375q0 0.90625 -0.609375 1.578125q-0.609375 0.671875 -1.625 1.03125q-1.015625 0.375 -2.28125 0.375q-2.203125 0 -3.296875 -0.75q-1.09375 -0.75 -1.09375 -1.796875q0 -0.734375 0.484375 -1.328125q0.5 -0.59375 1.671875 -0.65625l-0.125 0.265625q-0.625 -0.15625 -1.078125 -0.5625q-0.4375 -0.40625 -0.4375 -1.171875q0 -0.765625 0.5625 -1.3125q0.578125 -0.546875 1.703125 -0.671875l0.984375 0.5l-0.1875 0q-0.90625 0.09375 -1.296875 0.453125q-0.375 0.359375 -0.375 0.796875q0 0.515625 0.375 0.78125q0.390625 0.25 1.078125 0.25l2.71875 0zm-1.71875 3.953125q1.09375 0 1.78125 -0.234375q0.703125 -0.21875 1.03125 -0.578125q0.34375 -0.34375 0.34375 -0.765625q0 -0.5 -0.40625 -0.796875q-0.390625 -0.296875 -1.4375 -0.296875l-2.875 0q-0.59375 0 -1.015625 0.296875q-0.40625 0.3125 -0.40625 0.859375q0 0.6875 0.796875 1.09375q0.796875 0.421875 2.1875 0.421875zm-0.125 -12.28125q1.125 0 1.984375 0.40625q0.875 0.390625 1.359375 1.109375q0.484375 0.703125 0.484375 1.640625q0 0.90625 -0.484375 1.625q-0.484375 0.71875 -1.359375 1.125q-0.859375 0.40625 -1.984375 0.40625q-1.84375 0 -2.84375 -0.890625q-0.984375 -0.890625 -0.984375 -2.265625q0 -0.9375 0.5 -1.640625q0.5 -0.71875 1.34375 -1.109375q0.859375 -0.40625 1.984375 -0.40625zm0 1.21875q-0.96875 0 -1.625 0.53125q-0.65625 0.53125 -0.65625 1.40625q0 0.859375 0.65625 1.40625q0.65625 0.53125 1.625 0.53125q0.96875 0 1.625 -0.53125q0.65625 -0.546875 0.65625 -1.40625q0 -0.875 -0.65625 -1.40625q-0.65625 -0.53125 -1.625 -0.53125zm10.659485 8.484375q-1.328125 0 -2.375 -0.578125q-1.03125 -0.578125 -1.609375 -1.671875q-0.578125 -1.09375 -0.578125 -2.609375q0 -1.5 0.578125 -2.59375q0.578125 -1.09375 1.578125 -1.671875q1.015625 -0.578125 2.3125 -0.578125q1.296875 0 2.21875 0.5625q0.921875 0.5625 1.40625 1.53125q0.484375 0.953125 0.484375 2.140625q0 0.3125 -0.015625 0.578125q-0.015625 0.265625 -0.046875 0.46875l-7.546875 0l0 -1.328125l6.890625 0l-0.765625 0.15625q0 -1.34375 -0.734375 -2.0625q-0.734375 -0.734375 -1.9375 -0.734375q-0.90625 0 -1.578125 0.421875q-0.65625 0.40625 -1.03125 1.203125q-0.359375 0.796875 -0.359375 1.90625q0 1.109375 0.375 1.921875q0.375 0.796875 1.046875 1.21875q0.6875 0.40625 1.640625 0.40625q1.03125 0 1.671875 -0.390625q0.640625 -0.390625 1.03125 -1.0625l1.1875 0.6875q-0.359375 0.640625 -0.921875 1.109375q-0.546875 0.46875 -1.28125 0.71875q-0.734375 0.25 -1.640625 0.25zm15.186523 1.625l0 1.390625l-10.0625 0l0 -1.390625l10.0625 0zm1.7276001 -1.8125l0 -13.625l1.5 0l0 5.703125q0.484375 -0.84375 1.28125 -1.21875q0.796875 -0.375 1.75 -0.375q1.015625 0 1.828125 0.390625q0.828125 0.375 1.3125 1.15625q0.5 0.78125 0.5 2.0l0 5.96875l-1.5 0l0 -5.453125q0 -1.546875 -0.65625 -2.140625q-0.65625 -0.609375 -1.625 -0.609375q-0.671875 0 -1.34375 0.3125q-0.671875 0.3125 -1.109375 1.03125q-0.4375 0.71875 -0.4375 1.921875l0 4.9375l-1.5 0zm17.001343 -6.03125q0 -1.046875 -0.5625 -1.609375q-0.5625 -0.5625 -1.59375 -0.5625q-0.96875 0 -1.640625 0.421875q-0.671875 0.40625 -0.984375 1.34375l-1.21875 -0.75q0.375 -1.046875 1.375 -1.6875q1.015625 -0.640625 2.515625 -0.640625q1.0 0 1.8125 0.34375q0.828125 0.34375 1.296875 1.046875q0.484375 0.703125 0.484375 1.796875l0 4.515625q0 0.671875 0.71875 0.671875q0.34375 0 0.6875 -0.09375l-0.078125 1.171875q-0.375 0.1875 -0.96875 0.1875q-0.546875 0 -0.984375 -0.203125q-0.421875 -0.203125 -0.671875 -0.625q-0.234375 -0.421875 -0.234375 -1.046875l0 -0.1875l0.375 0.046875q-0.21875 0.734375 -0.765625 1.1875q-0.53125 0.453125 -1.203125 0.671875q-0.671875 0.21875 -1.328125 0.21875q-0.828125 0 -1.53125 -0.28125q-0.703125 -0.28125 -1.125 -0.84375q-0.421875 -0.578125 -0.421875 -1.40625q0 -1.046875 0.6875 -1.71875q0.703125 -0.6875 1.953125 -0.9375l3.703125 -0.734375l0 1.234375l-3.0 0.625q-0.921875 0.1875 -1.375 0.53125q-0.4375 0.328125 -0.4375 0.921875q0 0.578125 0.453125 0.9375q0.453125 0.359375 1.296875 0.359375q0.546875 0 1.03125 -0.140625q0.5 -0.140625 0.890625 -0.421875q0.390625 -0.296875 0.609375 -0.734375q0.234375 -0.4375 0.234375 -1.03125l0 -2.578125zm8.465698 6.21875q-1.359375 0 -2.515625 -0.578125q-1.140625 -0.578125 -1.75 -1.640625l1.265625 -0.921875q0.40625 0.859375 1.1875 1.34375q0.796875 0.484375 1.921875 0.484375q0.984375 0 1.546875 -0.375q0.5625 -0.390625 0.5625 -1.0q0 -0.390625 -0.25 -0.71875q-0.25 -0.328125 -0.96875 -0.46875l-2.234375 -0.46875q-1.359375 -0.28125 -1.953125 -0.9375q-0.578125 -0.65625 -0.578125 -1.625q0 -0.765625 0.4375 -1.390625q0.4375 -0.640625 1.25 -1.015625q0.8125 -0.390625 1.90625 -0.390625q1.390625 0 2.328125 0.546875q0.953125 0.53125 1.421875 1.53125l-1.25 0.8125q-0.3125 -0.8125 -1.03125 -1.1875q-0.703125 -0.390625 -1.46875 -0.390625q-0.671875 0 -1.15625 0.1875q-0.46875 0.1875 -0.71875 0.515625q-0.25 0.3125 -0.25 0.734375q0 0.40625 0.28125 0.75q0.28125 0.34375 1.046875 0.5l2.328125 0.484375q1.3125 0.25 1.828125 0.859375q0.53125 0.59375 0.53125 1.453125q0 0.875 -0.46875 1.546875q-0.46875 0.65625 -1.3125 1.015625q-0.84375 0.34375 -1.9375 0.34375zm6.472473 -0.1875l0 -13.625l1.5 0l0 5.703125q0.484375 -0.84375 1.28125 -1.21875q0.796875 -0.375 1.75 -0.375q1.015625 0 1.828125 0.390625q0.828125 0.375 1.3125 1.15625q0.5 0.78125 0.5 2.0l0 5.96875l-1.5 0l0 -5.453125q0 -1.546875 -0.65625 -2.140625q-0.65625 -0.609375 -1.625 -0.609375q-0.671875 0 -1.34375 0.3125q-0.671875 0.3125 -1.109375 1.03125q-0.4375 0.71875 -0.4375 1.921875l0 4.9375l-1.5 0z" fill-rule="nonzero"/><path fill="#000000" fill-opacity="0.0" d="m263.36746 177.33333l168.40945 91.18111" fill-rule="evenodd"/><path stroke="#8d3aed" stroke-width="4.0" stroke-linejoin="round" stroke-linecap="butt" d="m263.36746 177.33333l147.30429 79.75426" fill-rule="evenodd"/><path fill="#8d3aed" stroke="#8d3aed" stroke-width="4.0" stroke-linecap="butt" d="m407.5261 262.89758l19.10852 2.8327026l-12.817169 -14.452713z" fill-rule="evenodd"/><path fill="#000000" fill-opacity="0.0" d="m15.014436 77.884514l290.70865 0l0 87.2756l-290.70865 0z" fill-rule="evenodd"/><path fill="#93c47d" d="m61.483185 103.69139l0 36.953125l-9.640625 0l0 -36.953125l9.640625 0zm-23.75 0l0 36.953125l-9.625 0l0 -36.953125l9.625 0zm19.265625 14.609375l0 7.453125l-24.1875 0l0 -7.453125l24.1875 0zm25.427002 -18.875l4.484375 4.375q-3.140625 2.859375 -5.15625 6.046875q-2.015625 3.1875 -2.953125 6.96875q-0.921875 3.78125 -0.921875 8.546875q0 4.75 0.921875 8.59375q0.9375 3.828125 2.953125 6.984375q2.015625 3.171875 5.15625 6.03125l-4.484375 4.375q-6.4375 -4.3125 -9.78125 -10.78125q-3.328125 -6.46875 -3.328125 -15.203125q0 -8.625 3.328125 -15.125q3.34375 -6.5 9.78125 -10.8125zm154.22742 51.921875l-4.484375 -4.375q3.1875 -2.859375 5.171875 -6.03125q2.0 -3.15625 2.890625 -6.984375q0.890625 -3.84375 0.890625 -8.546875q0 -4.75 -0.890625 -8.5625q-0.890625 -3.8125 -2.890625 -7.0q-1.984375 -3.1875 -5.171875 -6.046875l4.484375 -4.375q6.375 4.3125 9.734375 10.8125q3.359375 6.5 3.359375 15.171875q0 8.6875 -3.359375 15.15625q-3.359375 6.46875 -9.734375 10.78125z" fill-rule="nonzero"/><path stroke="#8d3aed" stroke-width="3.0" stroke-linecap="butt" d="m106.002625 63.228348l0 116.5853" fill-rule="nonzero"/><path stroke="#8d3aed" stroke-width="3.0" stroke-linecap="butt" d="m214.73491 63.228348l0 116.5853" fill-rule="nonzero"/><path stroke="#8d3aed" stroke-width="3.0" stroke-linecap="butt" d="m104.50394 64.727036l111.72966 0" fill-rule="nonzero"/><path stroke="#8d3aed" stroke-width="3.0" stroke-linecap="butt" d="m104.50394 106.32284l111.72966 0" fill-rule="nonzero"/><path stroke="#8d3aed" stroke-width="3.0" stroke-linecap="butt" d="m104.50394 136.71916l111.72966 0" fill-rule="nonzero"/><path stroke="#8d3aed" stroke-width="3.0" stroke-linecap="butt" d="m104.50394 178.31496l111.72966 0" fill-rule="nonzero"/><path fill="#efefef" d="m115.877625 84.64016l0 -6.625l0.640625 0l0.0625 1.140625l-0.09375 -0.125q0.125 -0.328125 0.359375 -0.578125q0.25 -0.25 0.59375 -0.375q0.34375 -0.140625 0.75 -0.140625q0.5625 0 1.03125 0.296875q0.484375 0.28125 0.765625 0.828125q0.296875 0.53125 0.296875 1.296875q0 0.75 -0.296875 1.296875q-0.28125 0.546875 -0.765625 0.84375q-0.484375 0.28125 -1.0625 0.28125q-0.578125 0 -1.015625 -0.28125q-0.4375 -0.28125 -0.625 -0.734375l0.09375 -0.125l0 3.0l-0.734375 0zm2.203125 -2.515625q0.6875 0 1.078125 -0.484375q0.390625 -0.484375 0.390625 -1.28125q0 -0.8125 -0.390625 -1.296875q-0.375 -0.484375 -1.046875 -0.484375q-0.453125 0 -0.796875 0.21875q-0.328125 0.21875 -0.515625 0.625q-0.1875 0.390625 -0.1875 0.9375q0 0.53125 0.1875 0.9375q0.1875 0.390625 0.515625 0.609375q0.328125 0.21875 0.765625 0.21875zm6.3643646 -2.453125q0 -0.515625 -0.28125 -0.796875q-0.28125 -0.296875 -0.796875 -0.296875q-0.484375 0 -0.828125 0.21875q-0.328125 0.203125 -0.484375 0.671875l-0.609375 -0.375q0.1875 -0.515625 0.6875 -0.828125q0.515625 -0.328125 1.25 -0.328125q0.515625 0 0.921875 0.171875q0.40625 0.171875 0.640625 0.515625q0.25 0.34375 0.25 0.90625l0 2.25q0 0.34375 0.34375 0.34375q0.1875 0 0.34375 -0.046875l-0.03125 0.578125q-0.1875 0.09375 -0.484375 0.09375q-0.265625 0 -0.484375 -0.09375q-0.21875 -0.109375 -0.34375 -0.3125q-0.109375 -0.21875 -0.109375 -0.53125l0 -0.09375l0.1875 0.03125q-0.125 0.359375 -0.390625 0.59375q-0.265625 0.21875 -0.609375 0.328125q-0.328125 0.109375 -0.65625 0.109375q-0.40625 0 -0.765625 -0.140625q-0.359375 -0.140625 -0.578125 -0.421875q-0.203125 -0.28125 -0.203125 -0.703125q0 -0.53125 0.34375 -0.859375q0.359375 -0.34375 0.984375 -0.46875l1.84375 -0.359375l0 0.609375l-1.5 0.3125q-0.453125 0.09375 -0.6875 0.265625q-0.21875 0.15625 -0.21875 0.453125q0 0.296875 0.234375 0.484375q0.234375 0.171875 0.640625 0.171875q0.28125 0 0.515625 -0.0625q0.25 -0.078125 0.453125 -0.21875q0.203125 -0.140625 0.3125 -0.359375q0.109375 -0.21875 0.109375 -0.515625l0 -1.296875zm2.5609741 3.015625l0 -4.671875l0.59375 0l0.109375 0.765625q0.1875 -0.421875 0.5625 -0.625q0.390625 -0.21875 0.921875 -0.21875q0.125 0 0.265625 0.015625q0.15625 0.015625 0.25 0.0625l-0.125 0.6875q-0.109375 -0.03125 -0.234375 -0.046875q-0.109375 -0.03125 -0.34375 -0.03125q-0.28125 0 -0.578125 0.171875q-0.296875 0.171875 -0.5 0.515625q-0.1875 0.328125 -0.1875 0.859375l0 2.515625l-0.734375 0zm5.59404 0.09375q-0.65625 0 -1.171875 -0.28125q-0.515625 -0.296875 -0.8125 -0.84375q-0.28125 -0.546875 -0.28125 -1.296875q0 -0.765625 0.28125 -1.296875q0.296875 -0.546875 0.796875 -0.828125q0.5 -0.296875 1.140625 -0.296875q0.65625 0 1.109375 0.28125q0.46875 0.265625 0.703125 0.75q0.25 0.484375 0.25 1.078125q0 0.15625 -0.015625 0.296875q0 0.125 -0.015625 0.21875l-3.765625 0l0 -0.65625l3.4375 0l-0.390625 0.078125q0 -0.671875 -0.375 -1.03125q-0.359375 -0.375 -0.953125 -0.375q-0.453125 0 -0.796875 0.21875q-0.328125 0.203125 -0.515625 0.609375q-0.171875 0.390625 -0.171875 0.953125q0 0.546875 0.1875 0.953125q0.1875 0.390625 0.53125 0.609375q0.34375 0.203125 0.8125 0.203125q0.515625 0 0.828125 -0.1875q0.328125 -0.203125 0.53125 -0.53125l0.578125 0.34375q-0.171875 0.3125 -0.453125 0.546875q-0.265625 0.234375 -0.640625 0.359375q-0.359375 0.125 -0.828125 0.125zm3.4448242 -0.09375l0 -4.671875l0.640625 0l0.0625 1.046875l-0.109375 -0.09375q0.140625 -0.375 0.390625 -0.59375q0.265625 -0.234375 0.59375 -0.328125q0.328125 -0.109375 0.6875 -0.109375q0.5 0 0.90625 0.1875q0.40625 0.1875 0.65625 0.578125q0.25 0.390625 0.25 1.0l0 2.984375l-0.75 0l0 -2.71875q0 -0.78125 -0.328125 -1.078125q-0.328125 -0.3125 -0.8125 -0.3125q-0.34375 0 -0.6875 0.171875q-0.328125 0.15625 -0.546875 0.515625q-0.21875 0.34375 -0.21875 0.9375l0 2.484375l-0.734375 0zm6.8025208 -5.984375l0 4.703125q0 0.34375 0.1875 0.515625q0.203125 0.15625 0.515625 0.15625q0.265625 0 0.453125 -0.09375q0.203125 -0.09375 0.359375 -0.25l0.265625 0.625q-0.21875 0.203125 -0.515625 0.3125q-0.28125 0.109375 -0.671875 0.109375q-0.359375 0 -0.671875 -0.125q-0.296875 -0.125 -0.484375 -0.390625q-0.171875 -0.28125 -0.1875 -0.734375l0 -4.625l0.75 -0.203125zm1.703125 1.3125l0 0.65625l-3.375 0l0 -0.65625l3.375 0zm5.1558533 5.578125l0 0.703125l-5.03125 0l0 -0.703125l5.03125 0zm0.87161255 -0.90625l0 -6.8125l0.734375 0l0 2.84375q0.25 -0.421875 0.640625 -0.59375q0.40625 -0.1875 0.890625 -0.1875q0.5 0 0.90625 0.1875q0.40625 0.1875 0.65625 0.578125q0.25 0.390625 0.25 1.0l0 2.984375l-0.75 0l0 -2.71875q0 -0.78125 -0.328125 -1.078125q-0.328125 -0.3125 -0.8125 -0.3125q-0.34375 0 -0.6875 0.171875q-0.328125 0.15625 -0.546875 0.515625q-0.21875 0.359375 -0.21875 0.953125l0 2.46875l-0.734375 0zm8.492859 -3.015625q0 -0.515625 -0.28125 -0.796875q-0.28125 -0.296875 -0.796875 -0.296875q-0.484375 0 -0.828125 0.21875q-0.328125 0.203125 -0.484375 0.671875l-0.609375 -0.375q0.1875 -0.515625 0.6875 -0.828125q0.515625 -0.328125 1.25 -0.328125q0.515625 0 0.921875 0.171875q0.40625 0.171875 0.640625 0.515625q0.25 0.34375 0.25 0.90625l0 2.25q0 0.34375 0.34375 0.34375q0.1875 0 0.34375 -0.046875l-0.03125 0.578125q-0.1875 0.09375 -0.484375 0.09375q-0.265625 0 -0.484375 -0.09375q-0.21875 -0.109375 -0.34375 -0.3125q-0.109375 -0.21875 -0.109375 -0.53125l0 -0.09375l0.1875 0.03125q-0.125 0.359375 -0.390625 0.59375q-0.265625 0.21875 -0.609375 0.328125q-0.328125 0.109375 -0.65625 0.109375q-0.40625 0 -0.765625 -0.140625q-0.359375 -0.140625 -0.578125 -0.421875q-0.203125 -0.28125 -0.203125 -0.703125q0 -0.53125 0.34375 -0.859375q0.359375 -0.34375 0.984375 -0.46875l1.84375 -0.359375l0 0.609375l-1.5 0.3125q-0.453125 0.09375 -0.6875 0.265625q-0.21875 0.15625 -0.21875 0.453125q0 0.296875 0.234375 0.484375q0.234375 0.171875 0.640625 0.171875q0.28125 0 0.515625 -0.0625q0.25 -0.078125 0.453125 -0.21875q0.203125 -0.140625 0.3125 -0.359375q0.109375 -0.21875 0.109375 -0.515625l0 -1.296875zm4.232849 3.109375q-0.6875 0 -1.265625 -0.28125q-0.5625 -0.296875 -0.875 -0.828125l0.640625 -0.453125q0.203125 0.421875 0.59375 0.671875q0.40625 0.234375 0.96875 0.234375q0.484375 0 0.765625 -0.1875q0.28125 -0.1875 0.28125 -0.5q0 -0.203125 -0.125 -0.359375q-0.125 -0.15625 -0.484375 -0.234375l-1.109375 -0.234375q-0.6875 -0.140625 -0.984375 -0.46875q-0.296875 -0.328125 -0.296875 -0.8125q0 -0.375 0.21875 -0.6875q0.21875 -0.328125 0.625 -0.515625q0.40625 -0.1875 0.96875 -0.1875q0.6875 0 1.15625 0.265625q0.484375 0.265625 0.71875 0.765625l-0.625 0.40625q-0.171875 -0.40625 -0.53125 -0.59375q-0.34375 -0.203125 -0.71875 -0.203125q-0.34375 0 -0.578125 0.09375q-0.234375 0.09375 -0.359375 0.265625q-0.125 0.15625 -0.125 0.359375q0 0.203125 0.125 0.390625q0.140625 0.171875 0.53125 0.234375l1.171875 0.25q0.640625 0.125 0.90625 0.421875q0.265625 0.296875 0.265625 0.734375q0 0.4375 -0.234375 0.765625q-0.234375 0.328125 -0.65625 0.515625q-0.421875 0.171875 -0.96875 0.171875zm3.244049 -0.09375l0 -6.8125l0.734375 0l0 2.84375q0.25 -0.421875 0.640625 -0.59375q0.40625 -0.1875 0.890625 -0.1875q0.5 0 0.90625 0.1875q0.40625 0.1875 0.65625 0.578125q0.25 0.390625 0.25 1.0l0 2.984375l-0.75 0l0 -2.71875q0 -0.78125 -0.328125 -1.078125q-0.328125 -0.3125 -0.8125 -0.3125q-0.34375 0 -0.6875 0.171875q-0.328125 0.15625 -0.546875 0.515625q-0.21875 0.359375 -0.21875 0.953125l0 2.46875l-0.734375 0z" fill-rule="nonzero"/><path fill="#f3f3f3" d="m119.237 126.23596l0 -3.234375l0.125 0.09375q-0.0625 0.40625 -0.3125 0.703125q-0.234375 0.28125 -0.59375 0.4375q-0.359375 0.140625 -0.765625 0.140625q-0.578125 0 -1.0625 -0.28125q-0.484375 -0.296875 -0.78125 -0.84375q-0.28125 -0.546875 -0.28125 -1.296875q0 -0.78125 0.296875 -1.3125q0.3125 -0.546875 0.8125 -0.828125q0.515625 -0.28125 1.09375 -0.28125q0.390625 0 0.71875 0.140625q0.34375 0.140625 0.578125 0.40625q0.234375 0.265625 0.3125 0.625l-0.109375 0l0.0625 -1.09375l0.65625 0l0 6.625l-0.75 0zm-1.46875 -2.515625q0.4375 0 0.765625 -0.21875q0.328125 -0.21875 0.515625 -0.625q0.1875 -0.40625 0.1875 -0.953125q0 -0.5625 -0.1875 -0.9375q-0.171875 -0.390625 -0.5 -0.59375q-0.328125 -0.21875 -0.765625 -0.21875q-0.6875 0 -1.078125 0.484375q-0.390625 0.484375 -0.390625 1.296875q0 0.796875 0.375 1.28125q0.390625 0.484375 1.078125 0.484375zm5.6456146 0.65625q-0.453125 0 -0.859375 -0.171875q-0.390625 -0.171875 -0.640625 -0.546875q-0.234375 -0.375 -0.234375 -0.984375l0 -3.0625l0.734375 0l0 2.875q0 0.703125 0.3125 0.96875q0.3125 0.265625 0.875 0.265625q0.25 0 0.5 -0.078125q0.25 -0.09375 0.453125 -0.28125q0.203125 -0.203125 0.3125 -0.5q0.125 -0.296875 0.125 -0.703125l0 -2.546875l0.75 0l0 4.671875l-0.65625 0l-0.046875 -0.703125q-0.234375 0.40625 -0.65625 0.609375q-0.421875 0.1875 -0.96875 0.1875zm6.0054474 0q-0.65625 0 -1.171875 -0.28125q-0.515625 -0.296875 -0.8125 -0.84375q-0.28125 -0.546875 -0.28125 -1.296875q0 -0.765625 0.28125 -1.296875q0.296875 -0.546875 0.796875 -0.828125q0.5 -0.296875 1.140625 -0.296875q0.65625 0 1.109375 0.28125q0.46875 0.265625 0.703125 0.75q0.25 0.484375 0.25 1.078125q0 0.15625 -0.015625 0.296875q0 0.125 -0.015625 0.21875l-3.765625 0l0 -0.65625l3.4375 0l-0.390625 0.078125q0 -0.671875 -0.375 -1.03125q-0.359375 -0.375 -0.953125 -0.375q-0.453125 0 -0.796875 0.21875q-0.328125 0.203125 -0.515625 0.609375q-0.171875 0.390625 -0.171875 0.953125q0 0.546875 0.1875 0.953125q0.1875 0.390625 0.53125 0.609375q0.34375 0.203125 0.8125 0.203125q0.515625 0 0.828125 -0.1875q0.328125 -0.203125 0.53125 -0.53125l0.578125 0.34375q-0.171875 0.3125 -0.453125 0.546875q-0.265625 0.234375 -0.640625 0.359375q-0.359375 0.125 -0.828125 0.125zm5.132324 0q-0.453125 0 -0.859375 -0.171875q-0.390625 -0.171875 -0.640625 -0.546875q-0.234375 -0.375 -0.234375 -0.984375l0 -3.0625l0.734375 0l0 2.875q0 0.703125 0.3125 0.96875q0.3125 0.265625 0.875 0.265625q0.25 0 0.5 -0.078125q0.25 -0.09375 0.453125 -0.28125q0.203125 -0.203125 0.3125 -0.5q0.125 -0.296875 0.125 -0.703125l0 -2.546875l0.75 0l0 4.671875l-0.65625 0l-0.046875 -0.703125q-0.234375 0.40625 -0.65625 0.609375q-0.421875 0.1875 -0.96875 0.1875zm6.0054474 0q-0.65625 0 -1.171875 -0.28125q-0.515625 -0.296875 -0.8125 -0.84375q-0.28125 -0.546875 -0.28125 -1.296875q0 -0.765625 0.28125 -1.296875q0.296875 -0.546875 0.796875 -0.828125q0.5 -0.296875 1.140625 -0.296875q0.65625 0 1.109375 0.28125q0.46875 0.265625 0.703125 0.75q0.25 0.484375 0.25 1.078125q0 0.15625 -0.015625 0.296875q0 0.125 -0.015625 0.21875l-3.765625 0l0 -0.65625l3.4375 0l-0.390625 0.078125q0 -0.671875 -0.375 -1.03125q-0.359375 -0.375 -0.953125 -0.375q-0.453125 0 -0.796875 0.21875q-0.328125 0.203125 -0.515625 0.609375q-0.171875 0.390625 -0.171875 0.953125q0 0.546875 0.1875 0.953125q0.1875 0.390625 0.53125 0.609375q0.34375 0.203125 0.8125 0.203125q0.515625 0 0.828125 -0.1875q0.328125 -0.203125 0.53125 -0.53125l0.578125 0.34375q-0.171875 0.3125 -0.453125 0.546875q-0.265625 0.234375 -0.640625 0.359375q-0.359375 0.125 -0.828125 0.125zm5.257324 0q-0.578125 0 -1.0625 -0.28125q-0.484375 -0.296875 -0.78125 -0.84375q-0.28125 -0.546875 -0.28125 -1.296875q0 -0.78125 0.296875 -1.3125q0.3125 -0.546875 0.8125 -0.828125q0.515625 -0.28125 1.09375 -0.28125q0.578125 0 1.0 0.296875q0.421875 0.296875 0.5625 0.78125l-0.09375 0.078125l0 -3.21875l0.75 0l0 6.8125l-0.65625 0l-0.0625 -1.125l0.09375 -0.0625q-0.0625 0.40625 -0.3125 0.703125q-0.234375 0.28125 -0.59375 0.4375q-0.359375 0.140625 -0.765625 0.140625zm0.078125 -0.65625q0.4375 0 0.765625 -0.21875q0.34375 -0.21875 0.515625 -0.640625q0.1875 -0.421875 0.1875 -0.96875q0 -0.53125 -0.1875 -0.90625q-0.171875 -0.390625 -0.5 -0.59375q-0.3125 -0.21875 -0.75 -0.21875q-0.703125 0 -1.09375 0.484375q-0.390625 0.484375 -0.390625 1.296875q0 0.796875 0.375 1.28125q0.390625 0.484375 1.078125 0.484375zm8.114365 1.46875l0 0.703125l-5.03125 0l0 -0.703125l5.03125 0zm3.506363 -3.921875q0 -0.515625 -0.28125 -0.796875q-0.28125 -0.296875 -0.796875 -0.296875q-0.484375 0 -0.828125 0.21875q-0.328125 0.203125 -0.484375 0.671875l-0.609375 -0.375q0.1875 -0.515625 0.6875 -0.828125q0.515625 -0.328125 1.25 -0.328125q0.515625 0 0.921875 0.171875q0.40625 0.171875 0.640625 0.515625q0.25 0.34375 0.25 0.90625l0 2.25q0 0.34375 0.34375 0.34375q0.1875 0 0.34375 -0.046875l-0.03125 0.578125q-0.1875 0.09375 -0.484375 0.09375q-0.265625 0 -0.484375 -0.09375q-0.21875 -0.109375 -0.34375 -0.3125q-0.109375 -0.21875 -0.109375 -0.53125l0 -0.09375l0.1875 0.03125q-0.125 0.359375 -0.390625 0.59375q-0.265625 0.21875 -0.609375 0.328125q-0.328125 0.109375 -0.65625 0.109375q-0.40625 0 -0.765625 -0.140625q-0.359375 -0.140625 -0.578125 -0.421875q-0.203125 -0.28125 -0.203125 -0.703125q0 -0.53125 0.34375 -0.859375q0.359375 -0.34375 0.984375 -0.46875l1.84375 -0.359375l0 0.609375l-1.5 0.3125q-0.453125 0.09375 -0.6875 0.265625q-0.21875 0.15625 -0.21875 0.453125q0 0.296875 0.234375 0.484375q0.234375 0.171875 0.640625 0.171875q0.28125 0 0.515625 -0.0625q0.25 -0.078125 0.453125 -0.21875q0.203125 -0.140625 0.3125 -0.359375q0.109375 -0.21875 0.109375 -0.515625l0 -1.296875zm3.4680634 -2.96875l0 4.703125q0 0.34375 0.1875 0.515625q0.203125 0.15625 0.515625 0.15625q0.265625 0 0.453125 -0.09375q0.203125 -0.09375 0.359375 -0.25l0.265625 0.625q-0.21875 0.203125 -0.515625 0.3125q-0.28125 0.109375 -0.671875 0.109375q-0.359375 0 -0.671875 -0.125q-0.296875 -0.125 -0.484375 -0.390625q-0.171875 -0.28125 -0.1875 -0.734375l0 -4.625l0.75 -0.203125zm1.703125 1.3125l0 0.65625l-3.375 0l0 -0.65625l3.375 0z" fill-rule="nonzero"/><path fill="#f3f3f3" d="m115.877625 154.67915l0 -4.671875l0.640625 0l0.046875 0.734375q0.25 -0.421875 0.65625 -0.609375q0.40625 -0.203125 0.84375 -0.203125q0.484375 0 0.921875 0.21875q0.453125 0.21875 0.6875 0.6875q0.140625 -0.3125 0.40625 -0.515625q0.28125 -0.203125 0.59375 -0.296875q0.328125 -0.09375 0.609375 -0.09375q0.453125 0 0.859375 0.1875q0.40625 0.171875 0.65625 0.578125q0.265625 0.390625 0.265625 1.0l0 2.984375l-0.734375 0l0 -2.90625q0 -0.640625 -0.328125 -0.921875q-0.3125 -0.28125 -0.78125 -0.28125q-0.359375 0 -0.6875 0.1875q-0.3125 0.171875 -0.5 0.515625q-0.1875 0.34375 -0.1875 0.84375l0 2.5625l-0.75 0l0 -2.90625q0 -0.640625 -0.328125 -0.921875q-0.3125 -0.28125 -0.765625 -0.28125q-0.3125 0 -0.640625 0.171875q-0.3125 0.15625 -0.53125 0.515625q-0.21875 0.359375 -0.21875 0.9375l0 2.484375l-0.734375 0zm10.827209 0.09375q-0.65625 0 -1.171875 -0.28125q-0.515625 -0.296875 -0.8125 -0.84375q-0.28125 -0.546875 -0.28125 -1.296875q0 -0.765625 0.28125 -1.296875q0.296875 -0.546875 0.796875 -0.828125q0.5 -0.296875 1.140625 -0.296875q0.65625 0 1.109375 0.28125q0.46875 0.265625 0.703125 0.75q0.25 0.484375 0.25 1.078125q0 0.15625 -0.015625 0.296875q0 0.125 -0.015625 0.21875l-3.765625 0l0 -0.65625l3.4375 0l-0.390625 0.078125q0 -0.671875 -0.375 -1.03125q-0.359375 -0.375 -0.953125 -0.375q-0.453125 0 -0.796875 0.21875q-0.328125 0.203125 -0.515625 0.609375q-0.171875 0.390625 -0.171875 0.953125q0 0.546875 0.1875 0.953125q0.1875 0.390625 0.53125 0.609375q0.34375 0.203125 0.8125 0.203125q0.515625 0 0.828125 -0.1875q0.328125 -0.203125 0.53125 -0.53125l0.578125 0.34375q-0.171875 0.3125 -0.453125 0.546875q-0.265625 0.234375 -0.640625 0.359375q-0.359375 0.125 -0.828125 0.125zm5.116699 0q-0.6875 0 -1.265625 -0.28125q-0.5625 -0.296875 -0.875 -0.828125l0.640625 -0.453125q0.203125 0.421875 0.59375 0.671875q0.40625 0.234375 0.96875 0.234375q0.484375 0 0.765625 -0.1875q0.28125 -0.1875 0.28125 -0.5q0 -0.203125 -0.125 -0.359375q-0.125 -0.15625 -0.484375 -0.234375l-1.109375 -0.234375q-0.6875 -0.140625 -0.984375 -0.46875q-0.296875 -0.328125 -0.296875 -0.8125q0 -0.375 0.21875 -0.6875q0.21875 -0.328125 0.625 -0.515625q0.40625 -0.1875 0.96875 -0.1875q0.6875 0 1.15625 0.265625q0.484375 0.265625 0.71875 0.765625l-0.625 0.40625q-0.171875 -0.40625 -0.53125 -0.59375q-0.34375 -0.203125 -0.71875 -0.203125q-0.34375 0 -0.578125 0.09375q-0.234375 0.09375 -0.359375 0.265625q-0.125 0.15625 -0.125 0.359375q0 0.203125 0.125 0.390625q0.140625 0.171875 0.53125 0.234375l1.171875 0.25q0.640625 0.125 0.90625 0.421875q0.265625 0.296875 0.265625 0.734375q0 0.4375 -0.234375 0.765625q-0.234375 0.328125 -0.65625 0.515625q-0.421875 0.171875 -0.96875 0.171875zm4.915924 0q-0.6875 0 -1.265625 -0.28125q-0.5625 -0.296875 -0.875 -0.828125l0.640625 -0.453125q0.203125 0.421875 0.59375 0.671875q0.40625 0.234375 0.96875 0.234375q0.484375 0 0.765625 -0.1875q0.28125 -0.1875 0.28125 -0.5q0 -0.203125 -0.125 -0.359375q-0.125 -0.15625 -0.484375 -0.234375l-1.109375 -0.234375q-0.6875 -0.140625 -0.984375 -0.46875q-0.296875 -0.328125 -0.296875 -0.8125q0 -0.375 0.21875 -0.6875q0.21875 -0.328125 0.625 -0.515625q0.40625 -0.1875 0.96875 -0.1875q0.6875 0 1.15625 0.265625q0.484375 0.265625 0.71875 0.765625l-0.625 0.40625q-0.171875 -0.40625 -0.53125 -0.59375q-0.34375 -0.203125 -0.71875 -0.203125q-0.34375 0 -0.578125 0.09375q-0.234375 0.09375 -0.359375 0.265625q-0.125 0.15625 -0.125 0.359375q0 0.203125 0.125 0.390625q0.140625 0.171875 0.53125 0.234375l1.171875 0.25q0.640625 0.125 0.90625 0.421875q0.265625 0.296875 0.265625 0.734375q0 0.4375 -0.234375 0.765625q-0.234375 0.328125 -0.65625 0.515625q-0.421875 0.171875 -0.96875 0.171875zm5.962799 -3.109375q0 -0.515625 -0.28125 -0.796875q-0.28125 -0.296875 -0.796875 -0.296875q-0.484375 0 -0.828125 0.21875q-0.328125 0.203125 -0.484375 0.671875l-0.609375 -0.375q0.1875 -0.515625 0.6875 -0.828125q0.515625 -0.328125 1.25 -0.328125q0.515625 0 0.921875 0.171875q0.40625 0.171875 0.640625 0.515625q0.25 0.34375 0.25 0.90625l0 2.25q0 0.34375 0.34375 0.34375q0.1875 0 0.34375 -0.046875l-0.03125 0.578125q-0.1875 0.09375 -0.484375 0.09375q-0.265625 0 -0.484375 -0.09375q-0.21875 -0.109375 -0.34375 -0.3125q-0.109375 -0.21875 -0.109375 -0.53125l0 -0.09375l0.1875 0.03125q-0.125 0.359375 -0.390625 0.59375q-0.265625 0.21875 -0.609375 0.328125q-0.328125 0.109375 -0.65625 0.109375q-0.40625 0 -0.765625 -0.140625q-0.359375 -0.140625 -0.578125 -0.421875q-0.203125 -0.28125 -0.203125 -0.703125q0 -0.53125 0.34375 -0.859375q0.359375 -0.34375 0.984375 -0.46875l1.84375 -0.359375l0 0.609375l-1.5 0.3125q-0.453125 0.09375 -0.6875 0.265625q-0.21875 0.15625 -0.21875 0.453125q0 0.296875 0.234375 0.484375q0.234375 0.171875 0.640625 0.171875q0.28125 0 0.515625 -0.0625q0.25 -0.078125 0.453125 -0.21875q0.203125 -0.140625 0.3125 -0.359375q0.109375 -0.21875 0.109375 -0.515625l0 -1.296875zm6.482849 -2.5l0.171875 0.65625q-0.015625 0 -0.03125 0q-0.015625 0 -0.046875 0q-0.453125 0 -0.703125 0.1875q-0.234375 0.171875 -0.234375 0.578125l-0.46875 -0.234375q0 -0.359375 0.171875 -0.625q0.171875 -0.28125 0.453125 -0.421875q0.296875 -0.140625 0.640625 -0.140625q0 0 0.015625 0q0.015625 0 0.03125 0zm-1.421875 4.921875q0.671875 0 1.03125 0.3125q0.375 0.296875 0.375 0.796875q0 0.453125 -0.3125 0.78125q-0.296875 0.34375 -0.8125 0.515625q-0.5 0.1875 -1.125 0.1875q-1.109375 0 -1.65625 -0.375q-0.546875 -0.359375 -0.546875 -0.890625q0 -0.375 0.25 -0.671875q0.25 -0.28125 0.84375 -0.328125l-0.0625 0.140625q-0.328125 -0.078125 -0.546875 -0.28125q-0.21875 -0.203125 -0.21875 -0.578125q0 -0.390625 0.28125 -0.65625q0.296875 -0.28125 0.84375 -0.34375l0.5 0.25l-0.09375 0q-0.453125 0.046875 -0.65625 0.234375q-0.1875 0.171875 -0.1875 0.390625q0 0.265625 0.1875 0.390625q0.203125 0.125 0.546875 0.125l1.359375 0zm-0.859375 1.96875q0.546875 0 0.890625 -0.109375q0.359375 -0.109375 0.515625 -0.296875q0.171875 -0.171875 0.171875 -0.375q0 -0.25 -0.203125 -0.40625q-0.203125 -0.140625 -0.71875 -0.140625l-1.4375 0q-0.296875 0 -0.5 0.15625q-0.203125 0.15625 -0.203125 0.421875q0 0.34375 0.390625 0.546875q0.390625 0.203125 1.09375 0.203125zm-0.0625 -6.125q0.5625 0 0.984375 0.203125q0.4375 0.1875 0.671875 0.546875q0.25 0.359375 0.25 0.8125q0 0.46875 -0.25 0.828125q-0.234375 0.359375 -0.671875 0.5625q-0.421875 0.1875 -0.984375 0.1875q-0.921875 0 -1.421875 -0.4375q-0.484375 -0.4375 -0.484375 -1.140625q0 -0.453125 0.234375 -0.8125q0.25 -0.359375 0.671875 -0.546875q0.4375 -0.203125 1.0 -0.203125zm0 0.59375q-0.484375 0 -0.8125 0.265625q-0.328125 0.265625 -0.328125 0.703125q0 0.4375 0.328125 0.71875q0.328125 0.265625 0.8125 0.265625q0.484375 0 0.8125 -0.265625q0.328125 -0.28125 0.328125 -0.71875q0 -0.4375 -0.328125 -0.703125q-0.328125 -0.265625 -0.8125 -0.265625zm5.321945 4.25q-0.65625 0 -1.171875 -0.28125q-0.515625 -0.296875 -0.8125 -0.84375q-0.28125 -0.546875 -0.28125 -1.296875q0 -0.765625 0.28125 -1.296875q0.296875 -0.546875 0.796875 -0.828125q0.5 -0.296875 1.140625 -0.296875q0.65625 0 1.109375 0.28125q0.46875 0.265625 0.703125 0.75q0.25 0.484375 0.25 1.078125q0 0.15625 -0.015625 0.296875q0 0.125 -0.015625 0.21875l-3.765625 0l0 -0.65625l3.4375 0l-0.390625 0.078125q0 -0.671875 -0.375 -1.03125q-0.359375 -0.375 -0.953125 -0.375q-0.453125 0 -0.796875 0.21875q-0.328125 0.203125 -0.515625 0.609375q-0.171875 0.390625 -0.171875 0.953125q0 0.546875 0.1875 0.953125q0.1875 0.390625 0.53125 0.609375q0.34375 0.203125 0.8125 0.203125q0.515625 0 0.828125 -0.1875q0.328125 -0.203125 0.53125 -0.53125l0.578125 0.34375q-0.171875 0.3125 -0.453125 0.546875q-0.265625 0.234375 -0.640625 0.359375q-0.359375 0.125 -0.828125 0.125zm7.601074 0.8125l0 0.703125l-5.03125 0l0 -0.703125l5.03125 0zm0.87161255 -0.90625l0 -6.8125l0.734375 0l0 2.84375q0.25 -0.421875 0.640625 -0.59375q0.40625 -0.1875 0.890625 -0.1875q0.5 0 0.90625 0.1875q0.40625 0.1875 0.65625 0.578125q0.25 0.390625 0.25 1.0l0 2.984375l-0.75 0l0 -2.71875q0 -0.78125 -0.328125 -1.078125q-0.328125 -0.3125 -0.8125 -0.3125q-0.34375 0 -0.6875 0.171875q-0.328125 0.15625 -0.546875 0.515625q-0.21875 0.359375 -0.21875 0.953125l0 2.46875l-0.734375 0zm8.492859 -3.015625q0 -0.515625 -0.28125 -0.796875q-0.28125 -0.296875 -0.796875 -0.296875q-0.484375 0 -0.828125 0.21875q-0.328125 0.203125 -0.484375 0.671875l-0.609375 -0.375q0.1875 -0.515625 0.6875 -0.828125q0.515625 -0.328125 1.25 -0.328125q0.515625 0 0.921875 0.171875q0.40625 0.171875 0.640625 0.515625q0.25 0.34375 0.25 0.90625l0 2.25q0 0.34375 0.34375 0.34375q0.1875 0 0.34375 -0.046875l-0.03125 0.578125q-0.1875 0.09375 -0.484375 0.09375q-0.265625 0 -0.484375 -0.09375q-0.21875 -0.109375 -0.34375 -0.3125q-0.109375 -0.21875 -0.109375 -0.53125l0 -0.09375l0.1875 0.03125q-0.125 0.359375 -0.390625 0.59375q-0.265625 0.21875 -0.609375 0.328125q-0.328125 0.109375 -0.65625 0.109375q-0.40625 0 -0.765625 -0.140625q-0.359375 -0.140625 -0.578125 -0.421875q-0.203125 -0.28125 -0.203125 -0.703125q0 -0.53125 0.34375 -0.859375q0.359375 -0.34375 0.984375 -0.46875l1.84375 -0.359375l0 0.609375l-1.5 0.3125q-0.453125 0.09375 -0.6875 0.265625q-0.21875 0.15625 -0.21875 0.453125q0 0.296875 0.234375 0.484375q0.234375 0.171875 0.640625 0.171875q0.28125 0 0.515625 -0.0625q0.25 -0.078125 0.453125 -0.21875q0.203125 -0.140625 0.3125 -0.359375q0.109375 -0.21875 0.109375 -0.515625l0 -1.296875zm4.232849 3.109375q-0.6875 0 -1.265625 -0.28125q-0.5625 -0.296875 -0.875 -0.828125l0.640625 -0.453125q0.203125 0.421875 0.59375 0.671875q0.40625 0.234375 0.96875 0.234375q0.484375 0 0.765625 -0.1875q0.28125 -0.1875 0.28125 -0.5q0 -0.203125 -0.125 -0.359375q-0.125 -0.15625 -0.484375 -0.234375l-1.109375 -0.234375q-0.6875 -0.140625 -0.984375 -0.46875q-0.296875 -0.328125 -0.296875 -0.8125q0 -0.375 0.21875 -0.6875q0.21875 -0.328125 0.625 -0.515625q0.40625 -0.1875 0.96875 -0.1875q0.6875 0 1.15625 0.265625q0.484375 0.265625 0.71875 0.765625l-0.625 0.40625q-0.171875 -0.40625 -0.53125 -0.59375q-0.34375 -0.203125 -0.71875 -0.203125q-0.34375 0 -0.578125 0.09375q-0.234375 0.09375 -0.359375 0.265625q-0.125 0.15625 -0.125 0.359375q0 0.203125 0.125 0.390625q0.140625 0.171875 0.53125 0.234375l1.171875 0.25q0.640625 0.125 0.90625 0.421875q0.265625 0.296875 0.265625 0.734375q0 0.4375 -0.234375 0.765625q-0.234375 0.328125 -0.65625 0.515625q-0.421875 0.171875 -0.96875 0.171875zm3.244049 -0.09375l0 -6.8125l0.734375 0l0 2.84375q0.25 -0.421875 0.640625 -0.59375q0.40625 -0.1875 0.890625 -0.1875q0.5 0 0.90625 0.1875q0.40625 0.1875 0.65625 0.578125q0.25 0.390625 0.25 1.0l0 2.984375l-0.75 0l0 -2.71875q0 -0.78125 -0.328125 -1.078125q-0.328125 -0.3125 -0.8125 -0.3125q-0.34375 0 -0.6875 0.171875q-0.328125 0.15625 -0.546875 0.515625q-0.21875 0.359375 -0.21875 0.953125l0 2.46875l-0.734375 0z" fill-rule="nonzero"/><path fill="#000000" fill-opacity="0.0" d="m15.014436 436.08136l290.70865 0l0 87.27557l-290.70865 0z" fill-rule="evenodd"/><path fill="#93c47d" d="m61.483185 461.88824l0 36.953125l-9.640625 0l0 -36.953125l9.640625 0zm-23.75 0l0 36.953125l-9.625 0l0 -36.953125l9.625 0zm19.265625 14.609375l0 7.453125l-24.1875 0l0 -7.453125l24.1875 0zm25.427002 -18.875l4.484375 4.375q-3.140625 2.859375 -5.15625 6.046875q-2.015625 3.1875 -2.953125 6.96875q-0.921875 3.78125 -0.921875 8.546875q0 4.75 0.921875 8.59375q0.9375 3.828125 2.953125 6.984375q2.015625 3.171875 5.15625 6.03125l-4.484375 4.375q-6.4375 -4.3125 -9.78125 -10.78125q-3.328125 -6.46875 -3.328125 -15.203125q0 -8.625 3.328125 -15.125q3.34375 -6.5 9.78125 -10.8125z" fill-rule="nonzero"/><path fill="#f3f3f3" d="m89.08743 498.84137l0 -13.328125l4.046875 0l0.140625 2.578125q0.640625 -1.40625 1.796875 -2.125q1.15625 -0.71875 2.6875 -0.71875q1.484375 0 2.578125 0.671875q1.09375 0.65625 1.625 1.96875q0.421875 -0.875 1.09375 -1.46875q0.6875 -0.59375 1.5625 -0.875q0.890625 -0.296875 1.828125 -0.296875q1.328125 0 2.34375 0.515625q1.015625 0.515625 1.609375 1.578125q0.59375 1.046875 0.59375 2.625l0 8.875l-4.53125 0l0 -7.84375q0 -1.265625 -0.5 -1.765625q-0.484375 -0.515625 -1.3125 -0.515625q-0.65625 0 -1.203125 0.328125q-0.546875 0.328125 -0.84375 1.0q-0.296875 0.671875 -0.296875 1.671875l0 7.125l-4.53125 0l0 -7.84375q0 -1.265625 -0.515625 -1.765625q-0.5 -0.515625 -1.296875 -0.515625q-0.609375 0 -1.15625 0.328125q-0.546875 0.3125 -0.875 1.0q-0.3125 0.671875 -0.3125 1.765625l0 7.03125l-4.53125 0zm31.583435 0.265625q-2.203125 0 -3.828125 -0.828125q-1.609375 -0.828125 -2.484375 -2.375q-0.875 -1.546875 -0.875 -3.71875q0 -2.1875 0.875 -3.734375q0.875 -1.546875 2.453125 -2.375q1.59375 -0.828125 3.65625 -0.828125q2.09375 0 3.578125 0.8125q1.484375 0.8125 2.25 2.25q0.78125 1.421875 0.78125 3.25q0 0.484375 -0.03125 0.96875q-0.03125 0.46875 -0.078125 0.796875l-10.5625 0l0 -2.421875l8.5625 0l-2.15625 0.8125q0 -1.59375 -0.578125 -2.4375q-0.578125 -0.859375 -1.765625 -0.859375q-0.859375 0 -1.46875 0.40625q-0.59375 0.390625 -0.90625 1.25q-0.296875 0.84375 -0.296875 2.1875q0 1.296875 0.34375 2.109375q0.34375 0.8125 0.984375 1.171875q0.640625 0.359375 1.546875 0.359375q1.015625 0 1.609375 -0.390625q0.609375 -0.40625 0.90625 -1.125l3.625 1.203125q-0.375 1.140625 -1.296875 1.9375q-0.921875 0.78125 -2.1875 1.1875q-1.265625 0.390625 -2.65625 0.390625zm14.527664 0q-2.0 0 -3.71875 -0.65625q-1.71875 -0.65625 -2.828125 -1.875l2.125 -2.5q0.671875 0.84375 1.765625 1.421875q1.109375 0.578125 2.46875 0.578125q0.828125 0 1.359375 -0.234375q0.546875 -0.25 0.546875 -0.765625q0 -0.359375 -0.28125 -0.578125q-0.265625 -0.234375 -1.0625 -0.40625l-1.859375 -0.375q-2.515625 -0.5 -3.5625 -1.5q-1.046875 -1.0 -1.046875 -2.625q0 -1.09375 0.65625 -2.09375q0.671875 -1.0 2.046875 -1.625q1.390625 -0.625 3.5625 -0.625q2.015625 0 3.5625 0.59375q1.546875 0.578125 2.453125 1.703125l-2.15625 2.453125q-0.640625 -0.8125 -1.65625 -1.265625q-1.015625 -0.453125 -2.015625 -0.453125q-0.640625 0 -1.09375 0.125q-0.4375 0.125 -0.65625 0.34375q-0.203125 0.203125 -0.203125 0.53125q0 0.34375 0.328125 0.59375q0.34375 0.25 1.25 0.4375l2.421875 0.484375q2.046875 0.375 2.953125 1.359375q0.90625 0.984375 0.90625 2.375q0 1.296875 -0.6875 2.34375q-0.6875 1.03125 -2.078125 1.640625q-1.390625 0.59375 -3.5 0.59375zm14.207733 0q-2.0 0 -3.71875 -0.65625q-1.71875 -0.65625 -2.828125 -1.875l2.125 -2.5q0.671875 0.84375 1.765625 1.421875q1.109375 0.578125 2.46875 0.578125q0.828125 0 1.359375 -0.234375q0.546875 -0.25 0.546875 -0.765625q0 -0.359375 -0.28125 -0.578125q-0.265625 -0.234375 -1.0625 -0.40625l-1.859375 -0.375q-2.515625 -0.5 -3.5625 -1.5q-1.046875 -1.0 -1.046875 -2.625q0 -1.09375 0.65625 -2.09375q0.671875 -1.0 2.046875 -1.625q1.390625 -0.625 3.5625 -0.625q2.015625 0 3.5625 0.59375q1.546875 0.578125 2.453125 1.703125l-2.15625 2.453125q-0.640625 -0.8125 -1.65625 -1.265625q-1.015625 -0.453125 -2.015625 -0.453125q-0.640625 0 -1.09375 0.125q-0.4375 0.125 -0.65625 0.34375q-0.203125 0.203125 -0.203125 0.53125q0 0.34375 0.328125 0.59375q0.34375 0.25 1.25 0.4375l2.421875 0.484375q2.046875 0.375 2.953125 1.359375q0.90625 0.984375 0.90625 2.375q0 1.296875 -0.6875 2.34375q-0.6875 1.03125 -2.078125 1.640625q-1.390625 0.59375 -3.5 0.59375zm16.051483 -8.71875q0 -0.9375 -0.515625 -1.46875q-0.515625 -0.546875 -1.40625 -0.546875q-0.875 0 -1.5 0.4375q-0.625 0.4375 -0.875 1.546875l-3.828125 -0.90625q0.375 -1.90625 1.96875 -3.046875q1.59375 -1.15625 4.5 -1.15625q1.953125 0 3.328125 0.578125q1.375 0.5625 2.09375 1.703125q0.734375 1.125 0.734375 2.78125l0 4.875q0 1.046875 0.9375 1.046875q0.484375 0 0.78125 -0.109375l-0.28125 2.578125q-0.796875 0.375 -1.9375 0.375q-1.046875 0 -1.84375 -0.328125q-0.796875 -0.328125 -1.25 -1.0q-0.453125 -0.6875 -0.453125 -1.734375l0 -0.15625l0.5 -0.1875q0 1.140625 -0.6875 1.921875q-0.671875 0.765625 -1.75 1.140625q-1.078125 0.375 -2.25 0.375q-1.359375 0 -2.375 -0.421875q-1.0 -0.4375 -1.546875 -1.25q-0.546875 -0.8125 -0.546875 -2.0q0 -1.4375 0.859375 -2.390625q0.859375 -0.953125 2.734375 -1.328125l5.03125 -1.03125l-0.015625 2.40625l-2.5625 0.53125q-0.796875 0.15625 -1.1875 0.46875q-0.390625 0.296875 -0.390625 0.90625q0 0.59375 0.421875 0.890625q0.4375 0.28125 1.015625 0.28125q0.453125 0 0.859375 -0.125q0.421875 -0.140625 0.734375 -0.40625q0.328125 -0.28125 0.515625 -0.703125q0.1875 -0.4375 0.1875 -1.03125l0 -3.515625zm21.035995 -8.453125l0.375 3.046875q-0.171875 -0.0625 -0.328125 -0.0625q-0.15625 -0.015625 -0.3125 -0.015625q-1.171875 0 -1.75 0.578125q-0.578125 0.5625 -0.578125 1.421875l-1.59375 -0.59375q0 -1.09375 0.390625 -2.09375q0.40625 -1.015625 1.25 -1.65625q0.84375 -0.640625 2.109375 -0.640625q0.09375 0 0.203125 0q0.125 0 0.234375 0.015625zm-4.59375 13.953125q2.328125 0 3.5625 0.96875q1.234375 0.96875 1.234375 2.78125q0 1.65625 -0.90625 2.75q-0.90625 1.09375 -2.546875 1.640625q-1.625 0.546875 -3.875 0.546875q-3.625 0 -5.21875 -0.90625q-1.59375 -0.90625 -1.59375 -2.453125q0 -1.125 0.90625 -1.828125q0.90625 -0.6875 3.0 -0.734375l-0.109375 0.421875q-1.625 -0.203125 -2.421875 -0.953125q-0.796875 -0.75 -0.796875 -2.03125q0 -1.28125 1.015625 -2.078125q1.015625 -0.796875 2.6875 -0.875l1.65625 0.765625l-0.421875 0q-1.046875 0.0625 -1.46875 0.359375q-0.421875 0.28125 -0.421875 0.71875q0 0.453125 0.359375 0.6875q0.375 0.21875 1.125 0.21875l4.234375 0zm-2.5 5.75q1.28125 0 2.109375 -0.171875q0.84375 -0.171875 1.265625 -0.484375q0.4375 -0.296875 0.4375 -0.703125q0 -0.390625 -0.296875 -0.625q-0.296875 -0.21875 -1.0625 -0.21875l-4.765625 0q-0.515625 0 -0.828125 0.265625q-0.296875 0.265625 -0.296875 0.65625q0 0.609375 0.90625 0.9375q0.90625 0.34375 2.53125 0.34375zm0.15625 -16.390625q2.03125 0 3.46875 0.53125q1.4375 0.53125 2.1875 1.53125q0.765625 1.0 0.765625 2.46875q0 1.4375 -0.765625 2.453125q-0.75 1.015625 -2.1875 1.53125q-1.4375 0.515625 -3.46875 0.515625q-3.171875 0 -4.8125 -1.171875q-1.640625 -1.171875 -1.640625 -3.328125q0 -1.46875 0.765625 -2.46875q0.765625 -1.0 2.203125 -1.53125q1.4375 -0.53125 3.484375 -0.53125zm0 2.578125q-0.875 0 -1.421875 0.515625q-0.546875 0.5 -0.546875 1.4375q0 0.90625 0.546875 1.421875q0.546875 0.5 1.421875 0.5q0.859375 0 1.40625 -0.5q0.5625 -0.515625 0.5625 -1.421875q0 -0.9375 -0.5625 -1.4375q-0.546875 -0.515625 -1.40625 -0.515625zm15.458694 11.28125q-2.203125 0 -3.828125 -0.828125q-1.609375 -0.828125 -2.484375 -2.375q-0.875 -1.546875 -0.875 -3.71875q0 -2.1875 0.875 -3.734375q0.875 -1.546875 2.453125 -2.375q1.59375 -0.828125 3.65625 -0.828125q2.09375 0 3.578125 0.8125q1.484375 0.8125 2.25 2.25q0.78125 1.421875 0.78125 3.25q0 0.484375 -0.03125 0.96875q-0.03125 0.46875 -0.078125 0.796875l-10.5625 0l0 -2.421875l8.5625 0l-2.15625 0.8125q0 -1.59375 -0.578125 -2.4375q-0.578125 -0.859375 -1.765625 -0.859375q-0.859375 0 -1.46875 0.40625q-0.59375 0.390625 -0.90625 1.25q-0.296875 0.84375 -0.296875 2.1875q0 1.296875 0.34375 2.109375q0.34375 0.8125 0.984375 1.171875q0.640625 0.359375 1.546875 0.359375q1.015625 0 1.609375 -0.390625q0.609375 -0.40625 0.90625 -1.125l3.625 1.203125q-0.375 1.140625 -1.296875 1.9375q-0.921875 0.78125 -2.1875 1.1875q-1.265625 0.390625 -2.65625 0.390625zm11.324539 -13.859375q1.265625 0 1.96875 0.640625q0.703125 0.625 0.703125 1.78125q0 1.109375 -0.703125 1.75q-0.703125 0.640625 -1.96875 0.640625q-1.21875 0 -1.9375 -0.640625q-0.71875 -0.640625 -0.71875 -1.75q0 -1.15625 0.71875 -1.78125q0.71875 -0.640625 1.9375 -0.640625zm0 9.015625q1.265625 0 1.96875 0.640625q0.703125 0.625 0.703125 1.78125q0 1.109375 -0.703125 1.75q-0.703125 0.640625 -1.96875 0.640625q-1.21875 0 -1.9375 -0.640625q-0.71875 -0.640625 -0.71875 -1.75q0 -1.15625 0.71875 -1.78125q0.71875 -0.640625 1.9375 -0.640625zm21.71257 -11.25l-3.546875 0l0 17.140625l3.546875 0l0 3.171875l-7.46875 0l0 -23.484375l7.46875 0l0 3.171875zm6.359848 16.09375q-1.359375 0 -2.390625 -0.46875q-1.015625 -0.46875 -1.609375 -1.5q-0.578125 -1.046875 -0.578125 -2.71875l0 -8.90625l4.53125 0l0 7.84375q0 1.265625 0.5 1.78125q0.515625 0.5 1.453125 0.5q0.46875 0 0.890625 -0.171875q0.4375 -0.171875 0.75 -0.53125q0.328125 -0.359375 0.5 -0.921875q0.171875 -0.578125 0.171875 -1.359375l0 -7.140625l4.53125 0l0 13.328125l-4.046875 0l-0.140625 -2.5q-0.640625 1.40625 -1.796875 2.09375q-1.140625 0.671875 -2.765625 0.671875zm18.718903 -18.078125q2.0 0 3.46875 0.59375q1.46875 0.578125 2.28125 1.671875q0.8125 1.078125 0.8125 2.5625q0 1.421875 -0.703125 2.4375q-0.6875 1.0 -2.046875 1.53125l0 0.03125q1.59375 0.53125 2.46875 1.5625q0.890625 1.03125 0.890625 2.625q0 1.546875 -0.875 2.6875q-0.859375 1.125 -2.46875 1.75q-1.59375 0.625 -3.828125 0.625q-2.21875 0 -3.8125 -0.625q-1.59375 -0.625 -2.46875 -1.75q-0.859375 -1.140625 -0.859375 -2.6875q0 -1.59375 0.875 -2.625q0.875 -1.03125 2.484375 -1.5625l0 -0.03125q-1.34375 -0.5 -2.0625 -1.515625q-0.71875 -1.03125 -0.71875 -2.453125q0 -1.484375 0.8125 -2.5625q0.8125 -1.09375 2.296875 -1.671875q1.5 -0.59375 3.453125 -0.59375zm0.03125 3.34375q-1.078125 0 -1.71875 0.53125q-0.625 0.53125 -0.625 1.484375q0 0.9375 0.625 1.484375q0.640625 0.546875 1.71875 0.546875q1.0625 0 1.6875 -0.546875q0.625 -0.546875 0.625 -1.484375q0 -0.953125 -0.625 -1.484375q-0.625 -0.53125 -1.6875 -0.53125zm0 11.40625q0.84375 0 1.4375 -0.25q0.609375 -0.265625 0.921875 -0.765625q0.328125 -0.5 0.328125 -1.171875q0 -0.6875 -0.328125 -1.1875q-0.3125 -0.5 -0.921875 -0.75q-0.609375 -0.25 -1.4375 -0.25q-0.828125 0 -1.453125 0.25q-0.625 0.25 -0.953125 0.75q-0.3125 0.5 -0.3125 1.1875q0 0.671875 0.3125 1.171875q0.328125 0.5 0.9375 0.765625q0.609375 0.25 1.46875 0.25zm8.759247 4.375l3.546875 0l0 -17.140625l-3.546875 0l0 -3.171875l7.46875 0l0 23.484375l-7.46875 0l0 -3.171875z" fill-rule="nonzero"/><path fill="#93c47d" d="m276.70322 509.5445l-4.484375 -4.375q3.1875 -2.859375 5.171875 -6.03125q2.0 -3.15625 2.890625 -6.984375q0.890625 -3.84375 0.890625 -8.546875q0 -4.75 -0.890625 -8.5625q-0.890625 -3.8125 -2.890625 -7.0q-1.984375 -3.1875 -5.171875 -6.046875l4.484375 -4.375q6.375 4.3125 9.734375 10.8125q3.359375 6.5 3.359375 15.171875q0 8.6875 -3.359375 15.15625q-3.359375 6.46875 -9.734375 10.78125z" fill-rule="nonzero"/><path fill="#000000" fill-opacity="0.0" d="m269.34515 449.80316l173.16534 -61.13388" fill-rule="evenodd"/><path stroke="#8d3aed" stroke-width="4.0" stroke-linejoin="round" stroke-linecap="butt" d="m269.34515 449.80316l150.53427 -53.144257" fill-rule="evenodd"/><path fill="#8d3aed" stroke="#8d3aed" stroke-width="4.0" stroke-linecap="butt" d="m422.07886 402.889l14.917572 -12.273041l-19.316467 -0.18713379z" fill-rule="evenodd"/><path fill="#000000" fill-opacity="0.0" d="m0 286.18896l277.82678 0l0 77.57483l-277.82678 0z" fill-rule="evenodd"/><path fill="#93c47d" d="m18.3125 302.38522q2.828125 0 4.390625 1.34375q1.578125 1.328125 1.578125 3.53125q0 2.421875 -1.5625 3.703125q-1.546875 1.265625 -4.375 1.265625l-0.390625 0.21875l-3.140625 0l0 5.78125l-4.0625 0l0 -15.84375l7.5625 0zm-0.578125 7.125q1.203125 0 1.796875 -0.46875q0.609375 -0.484375 0.609375 -1.546875q0 -1.03125 -0.609375 -1.5q-0.59375 -0.484375 -1.796875 -0.484375l-2.921875 0l0 4.0l2.921875 0zm2.421875 0.875l5.0625 7.84375l-4.5625 0l-4.046875 -6.9375l3.546875 -0.90625zm12.5242 8.078125q-1.984375 0 -3.4375 -0.734375q-1.453125 -0.75 -2.25 -2.140625q-0.78125 -1.390625 -0.78125 -3.359375q0 -1.96875 0.78125 -3.359375q0.796875 -1.390625 2.21875 -2.125q1.4375 -0.75 3.28125 -0.75q1.90625 0 3.234375 0.734375q1.328125 0.71875 2.015625 2.015625q0.703125 1.28125 0.703125 2.9375q0 0.421875 -0.03125 0.859375q-0.015625 0.4375 -0.0625 0.71875l-9.5 0l0 -2.1875l7.703125 0l-1.953125 0.75q0 -1.4375 -0.515625 -2.203125q-0.515625 -0.78125 -1.59375 -0.78125q-0.765625 0 -1.3125 0.375q-0.53125 0.359375 -0.8125 1.125q-0.265625 0.765625 -0.265625 1.96875q0 1.171875 0.3125 1.90625q0.3125 0.734375 0.875 1.0625q0.578125 0.3125 1.390625 0.3125q0.921875 0 1.453125 -0.359375q0.546875 -0.359375 0.8125 -1.015625l3.265625 1.09375q-0.34375 1.03125 -1.171875 1.734375q-0.828125 0.703125 -1.96875 1.0625q-1.140625 0.359375 -2.390625 0.359375zm12.083466 -17.328125l0 13.015625q0 0.796875 0.265625 1.140625q0.265625 0.328125 0.875 0.328125q0.375 0 0.609375 -0.046875q0.234375 -0.0625 0.578125 -0.15625l-0.265625 2.453125q-0.4375 0.265625 -1.140625 0.421875q-0.6875 0.171875 -1.359375 0.171875q-1.921875 0 -2.78125 -0.875q-0.859375 -0.890625 -0.859375 -2.90625l0 -13.546875l4.078125 0zm10.696228 9.484375q0 -0.84375 -0.46875 -1.328125q-0.46875 -0.5 -1.25 -0.5q-0.796875 0 -1.359375 0.40625q-0.5625 0.390625 -0.78125 1.40625l-3.453125 -0.828125q0.328125 -1.71875 1.765625 -2.75q1.453125 -1.03125 4.0625 -1.03125q1.75 0 2.984375 0.515625q1.234375 0.515625 1.890625 1.53125q0.671875 1.015625 0.671875 2.5l0 4.40625q0 0.921875 0.84375 0.921875q0.421875 0 0.6875 -0.09375l-0.234375 2.328125q-0.71875 0.34375 -1.75 0.34375q-0.9375 0 -1.65625 -0.296875q-0.71875 -0.3125 -1.140625 -0.921875q-0.40625 -0.609375 -0.40625 -1.546875l0 -0.140625l0.46875 -0.171875q0 1.03125 -0.625 1.734375q-0.609375 0.6875 -1.578125 1.03125q-0.96875 0.328125 -2.03125 0.328125q-1.21875 0 -2.140625 -0.375q-0.90625 -0.390625 -1.40625 -1.109375q-0.484375 -0.734375 -0.484375 -1.828125q0 -1.296875 0.78125 -2.140625q0.78125 -0.859375 2.46875 -1.1875l4.53125 -0.9375l-0.03125 2.15625l-2.296875 0.484375q-0.71875 0.140625 -1.078125 0.421875q-0.34375 0.265625 -0.34375 0.828125q0 0.53125 0.375 0.796875q0.390625 0.25 0.921875 0.25q0.40625 0 0.78125 -0.109375q0.375 -0.125 0.65625 -0.375q0.296875 -0.25 0.453125 -0.625q0.171875 -0.390625 0.171875 -0.921875l0 -3.171875zm18.50296 -4.390625l-4.359375 12.0q-0.671875 1.890625 -1.46875 3.015625q-0.796875 1.140625 -1.875 1.640625q-1.078125 0.5 -2.59375 0.5q-1.0 0 -1.84375 -0.21875q-0.84375 -0.203125 -1.46875 -0.59375l0.828125 -2.765625q0.421875 0.3125 0.90625 0.4375q0.484375 0.140625 1.21875 0.140625q0.703125 0 1.140625 -0.234375q0.453125 -0.234375 0.71875 -0.90625l0.3125 -0.75l-1.40625 -3.265625l-3.59375 -9.0l4.484375 0l1.859375 6.84375l0.5625 2.546875l0.671875 -2.640625l1.859375 -6.75l4.046875 0zm22.113571 7.46875q-0.453125 1.65625 -1.46875 2.71875q-1.015625 1.0625 -2.40625 1.5625q-1.390625 0.484375 -3.0625 0.484375q-2.40625 0 -4.15625 -0.96875q-1.75 -0.96875 -2.6875 -2.796875q-0.9375 -1.828125 -0.9375 -4.390625q0 -2.5625 0.9375 -4.390625q0.9375 -1.828125 2.6875 -2.796875q1.75 -0.96875 4.125 -0.96875q1.65625 0 3.046875 0.46875q1.390625 0.46875 2.34375 1.4375q0.96875 0.953125 1.375 2.453125l-3.625 1.46875q-0.328125 -1.484375 -1.09375 -2.03125q-0.75 -0.5625 -1.90625 -0.5625q-1.125 0 -1.953125 0.5625q-0.828125 0.546875 -1.28125 1.640625q-0.4375 1.09375 -0.4375 2.71875q0 1.609375 0.40625 2.71875q0.421875 1.09375 1.25 1.65625q0.828125 0.546875 2.046875 0.546875q1.15625 0 1.953125 -0.625q0.8125 -0.640625 1.09375 -1.96875l3.75 1.0625zm2.0158234 4.53125l0 -17.09375l4.078125 0l0 7.28125q0.53125 -1.203125 1.515625 -1.8125q0.984375 -0.609375 2.28125 -0.609375q1.234375 0 2.15625 0.484375q0.9375 0.46875 1.453125 1.40625q0.53125 0.9375 0.53125 2.359375l0 7.984375l-4.078125 0l0 -6.859375q0 -1.296875 -0.46875 -1.78125q-0.46875 -0.5 -1.234375 -0.5q-0.578125 0 -1.078125 0.296875q-0.5 0.28125 -0.796875 0.90625q-0.28125 0.625 -0.28125 1.625l0 6.3125l-4.078125 0zm21.56746 -7.609375q0 -0.84375 -0.46875 -1.328125q-0.46875 -0.5 -1.25 -0.5q-0.796875 0 -1.359375 0.40625q-0.5625 0.390625 -0.78125 1.40625l-3.453125 -0.828125q0.328125 -1.71875 1.765625 -2.75q1.453125 -1.03125 4.0625 -1.03125q1.75 0 2.984375 0.515625q1.234375 0.515625 1.890625 1.53125q0.671875 1.015625 0.671875 2.5l0 4.40625q0 0.921875 0.84375 0.921875q0.421875 0 0.6875 -0.09375l-0.234375 2.328125q-0.71875 0.34375 -1.75 0.34375q-0.9375 0 -1.65625 -0.296875q-0.71875 -0.3125 -1.140625 -0.921875q-0.40625 -0.609375 -0.40625 -1.546875l0 -0.140625l0.46875 -0.171875q0 1.03125 -0.625 1.734375q-0.609375 0.6875 -1.578125 1.03125q-0.96875 0.328125 -2.03125 0.328125q-1.21875 0 -2.140625 -0.375q-0.90625 -0.390625 -1.40625 -1.109375q-0.484375 -0.734375 -0.484375 -1.828125q0 -1.296875 0.78125 -2.140625q0.78125 -0.859375 2.46875 -1.1875l4.53125 -0.9375l-0.03125 2.15625l-2.296875 0.484375q-0.71875 0.140625 -1.078125 0.421875q-0.34375 0.265625 -0.34375 0.828125q0 0.53125 0.375 0.796875q0.390625 0.25 0.921875 0.25q0.40625 0 0.78125 -0.109375q0.375 -0.125 0.65625 -0.375q0.296875 -0.25 0.453125 -0.625q0.171875 -0.390625 0.171875 -0.921875l0 -3.171875zm9.239716 -5.78125q-1.25 0 -1.8125 -0.46875q-0.5625 -0.46875 -0.5625 -1.484375q0 -1.03125 0.5625 -1.484375q0.5625 -0.46875 1.8125 -0.46875q1.234375 0 1.796875 0.46875q0.578125 0.453125 0.578125 1.484375q0 1.015625 -0.578125 1.484375q-0.5625 0.46875 -1.796875 0.46875zm2.046875 1.390625l0 12.0l-4.078125 0l0 -12.0l4.078125 0zm2.9058533 12.0l0 -12.0l3.640625 0l0.21875 4.125l-0.453125 -0.453125q0.234375 -1.296875 0.84375 -2.15625q0.625 -0.875 1.546875 -1.3125q0.921875 -0.4375 2.078125 -0.4375q1.234375 0 2.15625 0.484375q0.9375 0.46875 1.453125 1.40625q0.53125 0.9375 0.53125 2.359375l0 7.984375l-4.078125 0l0 -6.90625q0 -1.25 -0.484375 -1.734375q-0.46875 -0.484375 -1.21875 -0.484375q-0.578125 0 -1.078125 0.28125q-0.5 0.28125 -0.796875 0.875q-0.28125 0.59375 -0.28125 1.609375l0 6.359375l-4.078125 0zm22.025192 0l0 -15.84375l7.703125 0q2.9375 0.03125 4.328125 1.125q1.390625 1.09375 1.390625 3.15625q0 1.34375 -0.796875 2.3125q-0.796875 0.96875 -2.421875 1.234375l0 0.03125q1.828125 0.234375 2.71875 1.25q0.90625 1.015625 0.90625 2.46875q0 2.03125 -1.4375 3.15625q-1.4375 1.109375 -4.328125 1.109375l-8.0625 0zm3.984375 -2.90625l3.390625 0q1.125 0 1.671875 -0.453125q0.5625 -0.453125 0.5625 -1.328125q0 -0.828125 -0.5625 -1.265625q-0.546875 -0.453125 -1.671875 -0.453125l-3.390625 0l0 3.5zm0 -6.453125l3.0 0q2.203125 0 2.203125 -1.734375q0 -1.71875 -2.203125 -1.71875l-3.0 0l0 3.453125zm16.18158 -7.734375l0 13.015625q0 0.796875 0.265625 1.140625q0.265625 0.328125 0.875 0.328125q0.375 0 0.609375 -0.046875q0.234375 -0.0625 0.578125 -0.15625l-0.265625 2.453125q-0.4375 0.265625 -1.140625 0.421875q-0.6875 0.171875 -1.359375 0.171875q-1.921875 0 -2.78125 -0.875q-0.859375 -0.890625 -0.859375 -2.90625l0 -13.546875l4.078125 0zm9.519852 4.859375q1.90625 0 3.328125 0.734375q1.421875 0.71875 2.21875 2.125q0.8125 1.40625 0.8125 3.375q0 1.96875 -0.8125 3.375q-0.796875 1.40625 -2.21875 2.140625q-1.421875 0.71875 -3.328125 0.71875q-1.84375 0 -3.28125 -0.71875q-1.4375 -0.734375 -2.25 -2.140625q-0.796875 -1.40625 -0.796875 -3.375q0 -1.96875 0.796875 -3.375q0.8125 -1.40625 2.25 -2.125q1.4375 -0.734375 3.28125 -0.734375zm0 2.890625q-0.6875 0 -1.203125 0.34375q-0.5 0.34375 -0.765625 1.09375q-0.265625 0.734375 -0.265625 1.90625q0 1.171875 0.265625 1.90625q0.265625 0.734375 0.765625 1.09375q0.515625 0.34375 1.203125 0.34375q0.71875 0 1.21875 -0.34375q0.515625 -0.359375 0.78125 -1.09375q0.265625 -0.734375 0.265625 -1.90625q0 -1.171875 -0.265625 -1.90625q-0.265625 -0.75 -0.78125 -1.09375q-0.5 -0.34375 -1.21875 -0.34375zm14.360336 -2.890625q1.8125 0 3.03125 0.515625q1.21875 0.515625 1.890625 1.375q0.6875 0.84375 0.859375 1.828125l-3.765625 1.25q-0.171875 -1.03125 -0.625 -1.546875q-0.4375 -0.53125 -1.28125 -0.53125q-0.765625 0 -1.28125 0.359375q-0.515625 0.34375 -0.78125 1.109375q-0.265625 0.75 -0.265625 1.921875q0 1.171875 0.28125 1.90625q0.296875 0.734375 0.828125 1.0625q0.53125 0.328125 1.25 0.328125q0.59375 0 0.984375 -0.234375q0.40625 -0.234375 0.671875 -0.65625q0.265625 -0.4375 0.328125 -1.0625l3.671875 1.171875q-0.15625 1.0625 -0.890625 1.890625q-0.734375 0.828125 -1.9375 1.3125q-1.203125 0.46875 -2.8125 0.46875q-1.953125 0 -3.421875 -0.71875q-1.46875 -0.734375 -2.265625 -2.140625q-0.78125 -1.40625 -0.78125 -3.375q0 -1.96875 0.78125 -3.375q0.796875 -1.40625 2.21875 -2.125q1.4375 -0.734375 3.3125 -0.734375zm21.09233 0.234375l-5.765625 6.140625l-0.765625 0.21875l-3.421875 3.84375l-0.03125 -4.171875l5.453125 -6.03125l4.53125 0zm-9.09375 -5.09375l0 17.09375l-4.078125 0l0 -17.09375l4.078125 0zm3.953125 8.6875l5.40625 8.40625l-4.515625 0l-3.546875 -6.0l2.65625 -2.40625z" fill-rule="nonzero"/><path fill="#93c47d" d="m25.03125 331.18524l0 15.84375l-4.578125 0l-4.921875 -8.5625l-1.203125 -2.359375l-0.03125 0l0.109375 2.9375l0 7.984375l-3.65625 0l0 -15.84375l4.59375 0l4.90625 8.578125l1.203125 2.34375l0.03125 0l-0.09375 -2.921875l0 -8.0l3.640625 0zm7.1963196 16.078125q-1.21875 0 -2.140625 -0.40625q-0.921875 -0.421875 -1.453125 -1.359375q-0.53125 -0.9375 -0.53125 -2.453125l0 -8.015625l4.078125 0l0 7.0625q0 1.140625 0.453125 1.609375q0.46875 0.453125 1.296875 0.453125q0.4375 0 0.8125 -0.15625q0.390625 -0.15625 0.671875 -0.484375q0.296875 -0.328125 0.453125 -0.84375q0.15625 -0.515625 0.15625 -1.203125l0 -6.4375l4.078125 0l0 12.0l-3.640625 0l-0.125 -2.25q-0.578125 1.265625 -1.609375 1.875q-1.03125 0.609375 -2.5 0.609375zm10.809082 -0.234375l0 -12.0l3.640625 0l0.125 2.328125q0.578125 -1.265625 1.609375 -1.90625q1.046875 -0.65625 2.421875 -0.65625q1.34375 0 2.328125 0.59375q0.984375 0.59375 1.46875 1.78125q0.375 -0.796875 0.984375 -1.328125q0.609375 -0.53125 1.40625 -0.78125q0.796875 -0.265625 1.640625 -0.265625q1.1875 0 2.09375 0.46875q0.921875 0.46875 1.453125 1.421875q0.546875 0.9375 0.546875 2.359375l0 7.984375l-4.078125 0l0 -7.0625q0 -1.140625 -0.453125 -1.59375q-0.4375 -0.46875 -1.171875 -0.46875q-0.609375 0 -1.109375 0.3125q-0.484375 0.296875 -0.75 0.90625q-0.25 0.59375 -0.25 1.5l0 6.40625l-4.09375 0l0 -7.0625q0 -1.140625 -0.453125 -1.59375q-0.453125 -0.46875 -1.171875 -0.46875q-0.546875 0 -1.046875 0.296875q-0.484375 0.28125 -0.78125 0.90625q-0.28125 0.609375 -0.28125 1.578125l0 6.34375l-4.078125 0zm30.287064 0.234375q-1.1875 0 -2.09375 -0.515625q-0.890625 -0.53125 -1.46875 -1.453125q-0.5625 -0.921875 -0.734375 -2.109375l0.375 -0.5l-0.203125 4.34375l-3.578125 0l0 -17.09375l4.078125 0l0 8.859375l-0.390625 -0.578125q0.34375 -1.484375 1.375 -2.453125q1.03125 -0.96875 2.78125 -0.96875q1.390625 0 2.484375 0.75q1.09375 0.734375 1.703125 2.140625q0.609375 1.40625 0.609375 3.390625q0 1.9375 -0.625 3.34375q-0.625 1.390625 -1.734375 2.125q-1.09375 0.71875 -2.578125 0.71875zm-1.421875 -3.0q1.0625 0 1.65625 -0.765625q0.609375 -0.78125 0.609375 -2.46875q0 -1.6875 -0.609375 -2.453125q-0.59375 -0.78125 -1.65625 -0.78125q-0.6875 0 -1.1875 0.390625q-0.484375 0.390625 -0.75 1.109375q-0.265625 0.71875 -0.265625 1.765625q0 1.03125 0.265625 1.75q0.265625 0.71875 0.765625 1.09375q0.5 0.359375 1.171875 0.359375zm14.610458 3.0q-1.984375 0 -3.4375 -0.734375q-1.453125 -0.75 -2.25 -2.140625q-0.78125 -1.390625 -0.78125 -3.359375q0 -1.96875 0.78125 -3.359375q0.796875 -1.390625 2.21875 -2.125q1.4375 -0.75 3.28125 -0.75q1.90625 0 3.234375 0.734375q1.328125 0.71875 2.015625 2.015625q0.703125 1.28125 0.703125 2.9375q0 0.421875 -0.03125 0.859375q-0.015625 0.4375 -0.0625 0.71875l-9.5 0l0 -2.1875l7.703125 0l-1.953125 0.75q0 -1.4375 -0.515625 -2.203125q-0.515625 -0.78125 -1.59375 -0.78125q-0.765625 0 -1.3125 0.375q-0.53125 0.359375 -0.8125 1.125q-0.265625 0.765625 -0.265625 1.96875q0 1.171875 0.3125 1.90625q0.3125 0.734375 0.875 1.0625q0.578125 0.3125 1.390625 0.3125q0.921875 0 1.453125 -0.359375q0.546875 -0.359375 0.8125 -1.015625l3.265625 1.09375q-0.34375 1.03125 -1.171875 1.734375q-0.828125 0.703125 -1.96875 1.0625q-1.140625 0.359375 -2.390625 0.359375zm8.052216 -0.234375l0 -12.0l3.59375 0l0.171875 2.59375q0.453125 -1.34375 1.34375 -2.078125q0.90625 -0.75 2.296875 -0.75q0.46875 0 0.78125 0.078125q0.328125 0.0625 0.515625 0.1875l-0.40625 3.359375q-0.234375 -0.109375 -0.609375 -0.15625q-0.375 -0.0625 -0.90625 -0.0625q-0.71875 0 -1.34375 0.3125q-0.625 0.3125 -1.0 0.921875q-0.359375 0.609375 -0.359375 1.546875l0 6.046875l-4.078125 0z" fill-rule="nonzero"/><path fill="#000000" fill-opacity="0.0" d="m277.82678 324.97638l166.83463 3.6220398" fill-rule="evenodd"/><path stroke="#8d3aed" stroke-width="4.0" stroke-linejoin="round" stroke-linecap="butt" d="m277.82678 324.97638l142.8403 3.1011047" fill-rule="evenodd"/><path fill="#8d3aed" stroke="#8d3aed" stroke-width="4.0" stroke-linecap="butt" d="m420.52368 334.68286l18.291504 -6.2113647l-18.0047 -6.999359z" fill-rule="evenodd"/><path fill="#000000" fill-opacity="0.0" d="m48.162945 4.461942l247.9055 0l0 45.259846l-247.9055 0z" fill-rule="evenodd"/><path fill="#93c47d" d="m65.17857 19.863817q1.734375 0 2.9375 0.5625q1.21875 0.546875 1.859375 1.59375q0.640625 1.046875 0.640625 2.53125q0 1.5 -0.640625 2.546875q-0.640625 1.046875 -1.859375 1.609375q-1.203125 0.546875 -2.9375 0.546875l-2.7968788 0l0 4.687498l-3.65625 0l0 -14.078123l6.453129 0zm-0.578125 6.640625q1.15625 0 1.734375 -0.484375q0.59375 -0.484375 0.59375 -1.46875q0 -0.96875 -0.59375 -1.453125q-0.578125 -0.484375 -1.734375 -0.484375l-2.2187538 0l0 3.890625l2.2187538 0zm8.106613 7.437498l0 -10.671873l3.203125 0l0.15625 2.3125q0.40625 -1.203125 1.203125 -1.859375q0.796875 -0.65625 2.03125 -0.65625q0.40625 0 0.6875 0.0625q0.296875 0.0625 0.46875 0.171875l-0.359375 2.984375q-0.21875 -0.078125 -0.546875 -0.125q-0.328125 -0.0625 -0.796875 -0.0625q-0.640625 0 -1.203125 0.28125q-0.546875 0.265625 -0.890625 0.8125q-0.328125 0.546875 -0.328125 1.375l0 5.374998l-3.625 0zm14.246246 0.21875q-1.765625 0 -3.0625 -0.65625q-1.28125 -0.671875 -1.984375 -1.9062481q-0.703125 -1.234375 -0.703125 -2.984375q0 -1.75 0.703125 -2.984375q0.703125 -1.25 1.96875 -1.90625q1.265625 -0.65625 2.90625 -0.65625q1.6875 0 2.875 0.65625q1.1875 0.640625 1.796875 1.78125q0.625 1.140625 0.625 2.609375q0 0.390625 -0.03125 0.78125q-0.015625 0.375 -0.0625 0.625l-8.4375 0l0 -1.9375l6.84375 0l-1.71875 0.671875q0 -1.28125 -0.46875 -1.96875q-0.453125 -0.6875 -1.421875 -0.6875q-0.671875 0 -1.15625 0.328125q-0.484375 0.3125 -0.734375 1.0q-0.234375 0.6875 -0.234375 1.75q0 1.046875 0.265625 1.703125q0.28125 0.640625 0.796875 0.9375q0.515625 0.28125 1.234375 0.28125q0.8125 0 1.296875 -0.3125q0.484375 -0.328125 0.71875 -0.90625l2.890625 0.953125q-0.296875 0.9218731 -1.03125 1.5624981q-0.734375 0.625 -1.75 0.953125q-1.015625 0.3125 -2.125 0.3125zm13.742065 -10.890623l3.75 0l-3.84375 10.671873l-4.328125 0l-3.828125 -10.671873l3.8125 0l2.203125 8.140625l2.234375 -8.140625zm6.8401337 -1.234375q-1.109375 0 -1.609375 -0.40625q-0.5 -0.421875 -0.5 -1.3125q0 -0.921875 0.5 -1.328125q0.5 -0.421875 1.609375 -0.421875q1.09375 0 1.59375 0.421875q0.515625 0.40625 0.515625 1.328125q0 0.890625 -0.515625 1.3125q-0.5 0.40625 -1.59375 0.40625zm1.8125 1.234375l0 10.671873l-3.625 0l0 -10.671873l3.625 0zm7.6596375 -0.203125q1.6875 0 2.953125 0.65625q1.265625 0.640625 1.984375 1.890625q0.71875 1.25 0.71875 3.0q0 1.75 -0.71875 3.0q-0.71875 1.2343731 -1.984375 1.8906231q-1.265625 0.65625 -2.953125 0.65625q-1.640625 0 -2.921875 -0.65625q-1.28125 -0.65625 -2.0 -1.8906231q-0.703125 -1.25 -0.703125 -3.0q0 -1.75 0.703125 -3.0q0.71875 -1.25 2.0 -1.890625q1.28125 -0.65625 2.921875 -0.65625zm0 2.578125q-0.609375 0 -1.0625 0.296875q-0.453125 0.296875 -0.6875 0.96875q-0.234375 0.65625 -0.234375 1.703125q0 1.046875 0.234375 1.703125q0.234375 0.640625 0.6875 0.953125q0.453125 0.296875 1.0625 0.296875q0.640625 0 1.078125 -0.296875q0.453125 -0.3125 0.6875 -0.953125q0.234375 -0.65625 0.234375 -1.703125q0 -1.046875 -0.234375 -1.703125q-0.234375 -0.671875 -0.6875 -0.96875q-0.4375 -0.296875 -1.078125 -0.296875zm11.306854 8.515623q-1.09375 0 -1.921875 -0.375q-0.8125 -0.375 -1.28125 -1.203125q-0.46875 -0.8437481 -0.46875 -2.187498l0 -7.125l3.625 0l0 6.28125q0 1.015625 0.40625 1.421875q0.40625 0.40625 1.15625 0.40625q0.375 0 0.71875 -0.140625q0.34375 -0.140625 0.59375 -0.421875q0.265625 -0.28125 0.40625 -0.734375q0.140625 -0.46875 0.140625 -1.09375l0 -5.71875l3.625 0l0 10.671873l-3.25 0l-0.109375 -1.9999981q-0.5 1.1249981 -1.421875 1.6718731q-0.921875 0.546875 -2.21875 0.546875zm14.077164 0q-1.59375 0 -2.984375 -0.515625q-1.375 -0.53125 -2.265625 -1.515625l1.703125 -1.9999981q0.53125 0.671875 1.421875 1.140625q0.890625 0.453125 1.96875 0.453125q0.671875 0 1.09375 -0.1875q0.421875 -0.203125 0.421875 -0.59375q0 -0.3125 -0.21875 -0.484375q-0.203125 -0.1875 -0.84375 -0.3125l-1.5 -0.296875q-2.0 -0.40625 -2.84375 -1.203125q-0.84375 -0.796875 -0.84375 -2.109375q0 -0.875 0.53125 -1.671875q0.546875 -0.796875 1.65625 -1.296875q1.109375 -0.5 2.828125 -0.5q1.625 0 2.859375 0.46875q1.234375 0.46875 1.96875 1.359375l-1.734375 1.96875q-0.515625 -0.640625 -1.328125 -1.0q-0.796875 -0.375 -1.609375 -0.375q-0.515625 0 -0.875 0.109375q-0.34375 0.09375 -0.515625 0.265625q-0.171875 0.171875 -0.171875 0.421875q0 0.28125 0.265625 0.484375q0.265625 0.203125 1.0 0.34375l1.9375 0.390625q1.640625 0.296875 2.359375 1.09375q0.734375 0.78125 0.734375 1.890625q0 1.046875 -0.5625 1.8749981q-0.546875 0.828125 -1.65625 1.3125q-1.109375 0.484375 -2.796875 0.484375zm29.545929 -14.296873l0 14.078123l-3.25 0l0 -6.468748l0.109375 -4.328125l-0.046875 0l-3.46875 10.796873l-2.96875 0l-3.484375 -10.796873l-0.03125 0l0.09375 4.328125l0 6.468748l-3.25 0l0 -14.078123l5.21875 0l2.21875 7.171875l0.796875 2.984375l0.03125 0l0.8125 -2.96875l2.203125 -7.1875l5.015625 0zm12.986801 18.406248q-1.40625 0 -2.484375 -0.46875q-1.0625 -0.46875 -1.65625 -1.375q-0.59375 -0.890625 -0.59375 -2.203125q0 -0.4375 0.109375 -0.90625q0.125 -0.46875 0.375 -0.90625l2.140625 -0.4999981q-0.21875 0.4687481 -0.328125 0.8593731q-0.109375 0.375 -0.109375 0.703125q0 0.828125 0.34375 1.28125q0.34375 0.46875 0.921875 0.640625q0.578125 0.1875 1.296875 0.1875q0.921875 0 1.546875 -0.1875q0.625 -0.1875 1.03125 -0.53125l0.5625 2.53125q-0.5625 0.421875 -1.4375 0.640625q-0.875 0.234375 -1.71875 0.234375zm-3.5625 -18.624998q2.125 0 3.671875 0.875q1.546875 0.859375 2.375 2.484375q0.84375 1.609375 0.84375 3.90625q0 2.28125 -0.84375 3.90625q-0.828125 1.6093731 -2.375 2.484373q-1.546875 0.859375 -3.671875 0.859375q-2.140625 0 -3.703125 -0.859375q-1.546875 -0.875 -2.390625 -2.484373q-0.828125 -1.625 -0.828125 -3.90625q0 -2.296875 0.828125 -3.90625q0.84375 -1.625 2.390625 -2.484375q1.5625 -0.875 3.703125 -0.875zm0 2.890625q-1.03125 0 -1.734375 0.5q-0.703125 0.484375 -1.0625 1.453125q-0.359375 0.96875 -0.359375 2.421875q0 1.421875 0.359375 2.40625q0.359375 0.984375 1.0625 1.46875q0.703125 0.484375 1.734375 0.484375q1.015625 0 1.703125 -0.484375q0.703125 -0.484375 1.0625 -1.46875q0.359375 -0.984375 0.359375 -2.40625q0 -1.453125 -0.359375 -2.421875q-0.359375 -0.96875 -1.0625 -1.453125q-0.6875 -0.5 -1.703125 -0.5zm21.875137 7.375q-0.40625 1.46875 -1.296875 2.421873q-0.890625 0.953125 -2.140625 1.390625q-1.234375 0.4375 -2.71875 0.4375q-2.140625 0 -3.703125 -0.859375q-1.546875 -0.875 -2.390625 -2.484373q-0.828125 -1.625 -0.828125 -3.90625q0 -2.296875 0.828125 -3.90625q0.84375 -1.625 2.390625 -2.484375q1.5625 -0.875 3.671875 -0.875q1.484375 0 2.71875 0.421875q1.234375 0.421875 2.078125 1.28125q0.859375 0.84375 1.21875 2.1875l-3.21875 1.296875q-0.296875 -1.3125 -0.96875 -1.796875q-0.671875 -0.5 -1.6875 -0.5q-1.015625 0 -1.75 0.5q-0.734375 0.484375 -1.125 1.453125q-0.390625 0.96875 -0.390625 2.421875q0 1.421875 0.359375 2.40625q0.359375 0.984375 1.09375 1.46875q0.734375 0.484375 1.828125 0.484375q1.015625 0 1.734375 -0.5625q0.71875 -0.5625 0.96875 -1.734375l3.328125 0.9375zm13.093124 4.249998q-1.765625 0 -3.0625 -0.65625q-1.28125 -0.671875 -1.984375 -1.9062481q-0.703125 -1.234375 -0.703125 -2.984375q0 -1.75 0.703125 -2.984375q0.703125 -1.25 1.96875 -1.90625q1.265625 -0.65625 2.90625 -0.65625q1.6875 0 2.875 0.65625q1.1875 0.640625 1.796875 1.78125q0.625 1.140625 0.625 2.609375q0 0.390625 -0.03125 0.78125q-0.015625 0.375 -0.0625 0.625l-8.4375 0l0 -1.9375l6.84375 0l-1.71875 0.671875q0 -1.28125 -0.46875 -1.96875q-0.453125 -0.6875 -1.421875 -0.6875q-0.671875 0 -1.15625 0.328125q-0.484375 0.3125 -0.734375 1.0q-0.234375 0.6875 -0.234375 1.75q0 1.046875 0.265625 1.703125q0.28125 0.640625 0.796875 0.9375q0.515625 0.28125 1.234375 0.28125q0.8125 0 1.296875 -0.3125q0.484375 -0.328125 0.71875 -0.90625l2.890625 0.953125q-0.296875 0.9218731 -1.03125 1.5624981q-0.734375 0.625 -1.75 0.953125q-1.015625 0.3125 -2.125 0.3125zm7.1459045 -0.21875l0 -10.671873l3.25 0l0.1875 3.671875l-0.40625 -0.40625q0.21875 -1.140625 0.75 -1.90625q0.546875 -0.78125 1.359375 -1.171875q0.828125 -0.390625 1.859375 -0.390625q1.109375 0 1.921875 0.421875q0.828125 0.421875 1.296875 1.265625q0.46875 0.828125 0.46875 2.078125l0 7.109373l-3.625 0l0 -6.140623q0 -1.109375 -0.4375 -1.53125q-0.421875 -0.4375 -1.078125 -0.4375q-0.515625 0 -0.96875 0.25q-0.4375 0.25 -0.703125 0.78125q-0.25 0.53125 -0.25 1.421875l0 5.656248l-3.625 0zm17.62825 -14.062498l0 10.265625q0 0.765625 0.359375 1.09375q0.375 0.328125 1.046875 0.328125q0.5 0 0.875 -0.109375q0.375 -0.125 0.671875 -0.359375l0.390625 2.249998q-0.53125 0.375 -1.34375 0.59375q-0.8125 0.21875 -1.671875 0.21875q-1.203125 0 -2.09375 -0.34375q-0.890625 -0.34375 -1.375 -1.09375q-0.46875 -0.7499981 -0.484375 -1.9843731l0 -9.84375l3.625 -1.015625zm3.171875 3.390625l0 2.59375l-8.640625 0l0 -2.59375l8.640625 0zm1.6798096 10.671873l0 -10.671873l3.203125 0l0.15625 2.3125q0.40625 -1.203125 1.203125 -1.859375q0.796875 -0.65625 2.03125 -0.65625q0.40625 0 0.6875 0.0625q0.296875 0.0625 0.46875 0.171875l-0.359375 2.984375q-0.21875 -0.078125 -0.546875 -0.125q-0.328125 -0.0625 -0.796875 -0.0625q-0.640625 0 -1.203125 0.28125q-0.546875 0.265625 -0.890625 0.8125q-0.328125 0.546875 -0.328125 1.375l0 5.374998l-3.625 0zm19.905487 -10.671873l-3.890625 10.671873q-0.59375 1.6875 -1.296875 2.6875q-0.703125 1.0 -1.671875 1.4375q-0.953125 0.453125 -2.296875 0.453125q-0.89060974 0 -1.6406097 -0.1875q-0.75 -0.1875 -1.296875 -0.53125l0.71875 -2.453125q0.390625 0.28125 0.8125 0.390625q0.421875 0.125 1.0937347 0.125q0.609375 0 1.0 -0.21875q0.40625 -0.203125 0.640625 -0.8125l0.28125 -0.65625l-1.25 -2.906248l-3.1874847 -8.0l3.9843597 0l1.640625 6.09375l0.515625 2.25l0.59375 -2.34375l1.640625 -6.0l3.609375 0z" fill-rule="nonzero"/></g></svg>