<svg version="1.1" xmlns="http://www.w3.org/2000/svg" viewBox="0 0 360.6166870880089 225.65775056769178" width="360.6166870880089" height="225.65775056769178">
  <!-- svg-source:excalidraw -->
  
  <defs>
    <style class="style-fonts">
      @font-face {
        font-family: "Virgil";
        src: url("https://excalidraw.com/Virgil.woff2");
      }
      @font-face {
        font-family: "Cascadia";
        src: url("https://excalidraw.com/Cascadia.woff2");
      }
    </style>
  </defs>
  <g stroke-linecap="round" transform="translate(10 10) rotate(0 170.30834354400446 102.82887528384589)"><path d="M213.75 25.75 M213.75 25.75 C234.44 38.97, 255.4 52.1, 297.87 77.25 M213.75 25.75 C238.67 44.55, 263.81 57.23, 297.87 77.25 M297.87 77.25 C343.65 102.83, 338.9 103.6, 297.87 128.75 M297.87 77.25 C344.07 99.6, 337.13 102.3, 297.87 128.75 M297.87 128.75 C270.48 142.68, 243.26 161.34, 213.75 179.91 M297.87 128.75 C272.72 146.1, 246.13 160.32, 213.75 179.91 M213.75 179.91 C172.93 206.81, 171.01 209.11, 128.25 179.91 M213.75 179.91 C168.54 206.19, 175.42 209.47, 128.25 179.91 M128.25 179.91 C100.73 166.02, 70.12 143.9, 42.75 128.75 M128.25 179.91 C99.09 161.56, 73.51 145.9, 42.75 128.75 M42.75 128.75 C2.16 104.7, -2.04 106.74, 42.75 77.25 M42.75 128.75 C-3.03 101.28, -4.23 101.87, 42.75 77.25 M42.75 77.25 C72.14 58.05, 107.43 40.52, 128.25 25.75 M42.75 77.25 C70.82 57.57, 100.67 40.27, 128.25 25.75 M128.25 25.75 C169.73 2.16, 171.99 -2.17, 213.75 25.75 M128.25 25.75 C167.8 2.52, 173.22 -0.95, 213.75 25.75" stroke="#ffffff" stroke-width="1" fill="none"></path></g><g transform="translate(129.38523461836883 106.2324920995535) rotate(0 52.724998474121094 24)"><text x="52.724998474121094" y="0" font-family="Cascadia, Segoe UI Emoji" font-size="20px" fill="#ffffff" text-anchor="middle" style="white-space: pre;" direction="ltr" dominant-baseline="text-before-edge">substrate</text><text x="52.724998474121094" y="24" font-family="Cascadia, Segoe UI Emoji" font-size="20px" fill="#ffffff" text-anchor="middle" style="white-space: pre;" direction="ltr" dominant-baseline="text-before-edge">runtime</text></g><g transform="translate(98.26275659202327 62.34767524406084) rotate(0 82.01667022705078 12)"><text x="0" y="0" font-family="Cascadia, Segoe UI Emoji" font-size="20px" fill="#ffffff" text-anchor="start" style="white-space: pre;" direction="ltr" dominant-baseline="text-before-edge">validate_block</text></g><g stroke-linecap="round" transform="translate(99.68799457140915 103.36540937310531) rotate(0 80.5878435456383 27.731057218330534)"><path d="M13.87 0 M13.87 0 C47.92 1.8, 78.14 -1.22, 147.31 0 M147.31 0 C157.43 3.99, 161.47 2.84, 161.18 13.87 M161.18 13.87 C161.75 27.3, 158.2 31.68, 161.18 41.6 M161.18 41.6 C160.57 52.55, 157.15 55.01, 147.31 55.46 M147.31 55.46 C100.63 57.92, 56.11 57.35, 13.87 55.46 M13.87 55.46 C8.22 58.2, 3.05 49.98, 0 41.6 M0 41.6 C3.29 29.8, 0.3 26.13, 0 13.87 M0 13.87 C3.31 5.71, 5.48 2.5, 13.87 0" stroke="#ffffff" stroke-width="1.5" fill="none" stroke-dasharray="8 9"></path></g><g stroke-linecap="round" transform="translate(94.55147432347428 62.61276683467145) rotate(0 86.02222115315669 17.230953389692388)"><path d="M8.62 0 M8.62 0 C56.12 -3.72, 100.5 0.8, 163.43 0 M163.43 0 C173.16 0.3, 170.27 5.91, 172.04 8.62 M172.04 8.62 C174.49 11.16, 169.29 18.28, 172.04 25.85 M172.04 25.85 C173.76 32.18, 168.72 35.76, 163.43 34.46 M163.43 34.46 C130.71 30.24, 96.91 36.28, 8.62 34.46 M8.62 34.46 C5.61 37.52, -0.86 33.52, 0 25.85 M0 25.85 C-1.84 20.58, 3.31 17.37, 0 8.62 M0 8.62 C1.09 3.73, 5.37 0.67, 8.62 0" stroke="#ffffff" stroke-width="1.5" fill="none" stroke-dasharray="8 9"></path></g></svg>