<svg version="1.1" xmlns="http://www.w3.org/2000/svg" viewBox="0 0 395.82912548083846 255.78765175616024" width="395.82912548083846" height="255.78765175616024">
  <!-- svg-source:excalidraw -->
  
  <defs>
    <style class="style-fonts">
      @font-face {
        font-family: "Virgil";
        src: url("https://excalidraw.com/Virgil.woff2");
      }
      @font-face {
        font-family: "Cascadia";
        src: url("https://excalidraw.com/Cascadia.woff2");
      }
    </style>
  </defs>
  <g stroke-linecap="round" transform="translate(10 35.11387616507932) rotate(0 187.91456274041923 105.33688779554046)"><path d="M32 0 M32 0 C120.5 0.84, 211.37 1.33, 343.83 0 M32 0 C119.67 -2.07, 206.34 -1.76, 343.83 0 M343.83 0 C364.54 0.36, 374.38 11.72, 375.83 32 M343.83 0 C365.61 0.1, 374.16 8.85, 375.83 32 M375.83 32 C376.88 78.57, 375.37 127.41, 375.83 178.67 M375.83 32 C375.04 75.13, 374.1 118.77, 375.83 178.67 M375.83 178.67 C375.23 201.62, 364.18 211.06, 343.83 210.67 M375.83 178.67 C376.2 201.93, 366.24 210.36, 343.83 210.67 M343.83 210.67 C222.19 210.63, 99.63 211.12, 32 210.67 M343.83 210.67 C244.81 211.84, 146.98 210.72, 32 210.67 M32 210.67 C8.95 209.14, 0.61 201.11, 0 178.67 M32 210.67 C12.57 208.59, -0.61 200.93, 0 178.67 M0 178.67 C1.61 125.51, 1.58 76.47, 0 32 M0 178.67 C0.33 146.87, -1.49 113.88, 0 32 M0 32 C0.76 9.87, 12.08 1.41, 32 0 M0 32 C1.48 10.99, 9.96 -0.95, 32 0" stroke="#ffffff" stroke-width="1" fill="none"></path></g><g transform="translate(89.40200302587118 62.85759041965912) rotate(0 107.90833282470703 9.600000000000023)"><text x="107.90833282470703" y="0" font-family="Cascadia, Segoe UI Emoji" font-size="16px" fill="#ffffff" text-anchor="middle" style="white-space: pre;" direction="ltr" dominant-baseline="text-before-edge">Header of the new Block</text></g><g transform="translate(43.12558045934475 131.38736061301108) rotate(0 56.29999923706055 9.600000000000023)"><text x="56.29999923706055" y="0" font-family="Cascadia, Segoe UI Emoji" font-size="16px" fill="#ffffff" text-anchor="middle" style="white-space: pre;" direction="ltr" dominant-baseline="text-before-edge">Transactions</text></g><g transform="translate(234.06127764896678 131.79017853957157) rotate(0 56.29999923706055 9.600000000000023)"><text x="56.29999923706055" y="0" font-family="Cascadia, Segoe UI Emoji" font-size="16px" fill="#ffffff" text-anchor="middle" style="white-space: pre;" direction="ltr" dominant-baseline="text-before-edge">Witness data</text></g><g transform="translate(113.92664321270718 195.03259300955187) rotate(0 79.75833129882812 9.600000000000023)"><text x="79.75833129882812" y="0" font-family="Cascadia, Segoe UI Emoji" font-size="16px" fill="#ffffff" text-anchor="middle" style="white-space: pre;" direction="ltr" dominant-baseline="text-before-edge">Outgoing messages</text></g><g stroke-linecap="round" transform="translate(77.27059373558404 53.64350078685709) rotate(0 120.24115107827481 18.126806695217283)"><path d="M9.06 0 M9.06 0 C81.32 -2, 156.89 -2.48, 231.42 0 M9.06 0 C90.86 -1.28, 173.57 -1.86, 231.42 0 M231.42 0 C236.52 0.85, 241.73 2.52, 240.48 9.06 M231.42 0 C237.72 0.75, 238.37 4.93, 240.48 9.06 M240.48 9.06 C239.46 14.29, 241.87 22.25, 240.48 27.19 M240.48 9.06 C240.49 16.01, 239.99 24.31, 240.48 27.19 M240.48 27.19 C240.58 35.07, 236.22 38.02, 231.42 36.25 M240.48 27.19 C242.17 34.53, 239.37 37.08, 231.42 36.25 M231.42 36.25 C175.02 34.87, 115.64 35.77, 9.06 36.25 M231.42 36.25 C158.4 36.13, 83.34 35.42, 9.06 36.25 M9.06 36.25 C4.64 36.74, -1.76 34.5, 0 27.19 M9.06 36.25 C2.9 34.99, -1.32 31.08, 0 27.19 M0 27.19 C1.52 21.88, -1.64 17.11, 0 9.06 M0 27.19 C-0.38 19.47, -0.87 12.55, 0 9.06 M0 9.06 C-1.54 4.32, 1.45 -0.65, 9.06 0 M0 9.06 C0.83 4.91, 2.87 1.57, 9.06 0" stroke="#ffffff" stroke-width="1" fill="none"></path></g><g stroke-linecap="round" transform="translate(29.73807840145878 118.90000488963926) rotate(0 69.68750129494651 24.773302483463624)"><path d="M12.39 0 M12.39 0 C52.9 -0.56, 96.45 1.28, 126.99 0 M12.39 0 C41.13 0.13, 69.85 -0.16, 126.99 0 M126.99 0 C133.48 -1.77, 139.62 5.72, 139.38 12.39 M126.99 0 C136.26 -2.29, 140.76 3.6, 139.38 12.39 M139.38 12.39 C139.66 17.62, 139.34 26.42, 139.38 37.16 M139.38 12.39 C139.13 21.28, 138.73 29.16, 139.38 37.16 M139.38 37.16 C138.52 44.08, 134.71 50.68, 126.99 49.55 M139.38 37.16 C139.25 47.56, 133.49 50.94, 126.99 49.55 M126.99 49.55 C94.77 50.28, 63.67 48.31, 12.39 49.55 M126.99 49.55 C102.93 49.56, 78.37 48.39, 12.39 49.55 M12.39 49.55 C4.29 51.29, -0.79 46.87, 0 37.16 M12.39 49.55 C5.12 51.15, 0.69 47.4, 0 37.16 M0 37.16 C-0.66 27.47, -1.79 17.35, 0 12.39 M0 37.16 C-0.54 29.99, 0.82 22.45, 0 12.39 M0 12.39 C-1.26 2.67, 3.41 -1.46, 12.39 0 M0 12.39 C-0.68 4.14, 4.75 -1.83, 12.39 0" stroke="#ffffff" stroke-width="1" fill="none"></path></g><g stroke-linecap="round" transform="translate(221.88222937076216 119.30282281619964) rotate(0 70.09031922150689 24.97471144674381)"><path d="M12.49 0 M12.49 0 C56.97 0.02, 101.36 -1.11, 127.69 0 M12.49 0 C43.07 0.28, 74.51 1.64, 127.69 0 M127.69 0 C135.47 -1.26, 138.72 3.45, 140.18 12.49 M127.69 0 C134.34 -0.68, 140.19 4.78, 140.18 12.49 M140.18 12.49 C139.17 17.26, 139.96 22.1, 140.18 37.46 M140.18 12.49 C140.47 21.35, 140.18 31.59, 140.18 37.46 M140.18 37.46 C139.79 46.23, 135.77 50.03, 127.69 49.95 M140.18 37.46 C139.63 46.08, 135.74 50.91, 127.69 49.95 M127.69 49.95 C101.97 51.56, 74.88 50.66, 12.49 49.95 M127.69 49.95 C96.18 51.78, 65.53 51.42, 12.49 49.95 M12.49 49.95 C2.56 50.4, -1.77 45.89, 0 37.46 M12.49 49.95 C5.5 48.49, -0.19 44.83, 0 37.46 M0 37.46 C-1.01 31.78, -0.08 24.36, 0 12.49 M0 37.46 C-0.69 30.91, -1.08 25.88, 0 12.49 M0 12.49 C0.38 5.21, 3.62 1.47, 12.49 0 M0 12.49 C0.43 2.19, 3.09 2.05, 12.49 0" stroke="#ffffff" stroke-width="1" fill="none"></path></g><g stroke-linecap="round" transform="translate(104.66221274169027 187.78187033146492) rotate(0 91.43966932920722 19.738078401458836)"><path d="M9.87 0 M9.87 0 C65.7 1.4, 119.1 -0.3, 173.01 0 M9.87 0 C53.11 0.57, 98.37 0.19, 173.01 0 M173.01 0 C179.72 -0.82, 182.95 2.73, 182.88 9.87 M173.01 0 C179.6 -0.23, 180.78 3.6, 182.88 9.87 M182.88 9.87 C182.31 15.85, 184.44 18.38, 182.88 29.61 M182.88 9.87 C182.53 16.04, 183.17 20.47, 182.88 29.61 M182.88 29.61 C180.92 37.66, 180.51 39.96, 173.01 39.48 M182.88 29.61 C184.11 37.03, 179 37.43, 173.01 39.48 M173.01 39.48 C137.94 39.52, 105.93 39.37, 9.87 39.48 M173.01 39.48 C120.4 38.03, 69.34 39.54, 9.87 39.48 M9.87 39.48 C3.24 40.36, 1.92 36.48, 0 29.61 M9.87 39.48 C1.77 39.58, 1.77 37.01, 0 29.61 M0 29.61 C-0.9 22.04, -0.05 15.49, 0 9.87 M0 29.61 C-0.2 23.71, -0.34 15.86, 0 9.87 M0 9.87 C-0.43 2.58, 3.5 -1.91, 9.87 0 M0 9.87 C-0.09 3.17, 3.08 -2.17, 9.87 0" stroke="#ffffff" stroke-width="1" fill="none"></path></g><g transform="translate(30.001110922549287 10) rotate(0 46.86666488647461 12)"><text x="46.86666488647461" y="0" font-family="Cascadia, Segoe UI Emoji" font-size="20px" fill="#ffffff" text-anchor="middle" style="white-space: pre;" direction="ltr" dominant-baseline="text-before-edge">PoVBlock</text></g></svg>