<svg version="1.1" xmlns="http://www.w3.org/2000/svg" viewBox="0 0 672.1462039644443 415.77828253155" width="672.1462039644443" height="415.77828253155">
  <!-- svg-source:excalidraw -->
  
  <defs>
    <style class="style-fonts">
      @font-face {
        font-family: "Virgil";
        src: url("https://excalidraw.com/Virgil.woff2");
      }
      @font-face {
        font-family: "Cascadia";
        src: url("https://excalidraw.com/Cascadia.woff2");
      }
    </style>
  </defs>
  <g stroke-linecap="round" transform="translate(264.1462039644443 76.21765152296945) rotate(0 199 108)"><path d="M32 0 M32 0 C101.81 -2.41, 176.32 -2.34, 366 0 M32 0 C119.36 0.17, 206.96 -1.63, 366 0 M366 0 C383.99 0.95, 396.43 10, 398 32 M366 0 C389.89 -0.95, 396.28 11.78, 398 32 M398 32 C393.33 85.15, 398.27 134.97, 398 184 M398 32 C397.29 78.44, 396.48 124.78, 398 184 M398 184 C399.13 204.49, 384.9 218.66, 366 216 M398 184 C395.74 207.34, 390.39 214.15, 366 216 M366 216 C273.48 212.04, 178.6 212.15, 32 216 M366 216 C233.38 215.47, 100.57 216.15, 32 216 M32 216 C7.87 219.24, -0.86 203.89, 0 184 M32 216 C9.92 213.41, 0.97 204.21, 0 184 M0 184 C1.34 143.45, -2.38 106.77, 0 32 M0 184 C0.9 129.45, -0.36 77.2, 0 32 M0 32 C2.09 14.32, 14.12 -3.48, 32 0 M0 32 C3.79 8.35, 11.52 -3.18, 32 0" stroke="#ffffff" stroke-width="1" fill="none"></path></g><g stroke-linecap="round" transform="translate(497.70788518333796 162.64259363232514) rotate(0 55.30124720529932 45.501026181575384)"><path d="M70 11.5 M70 11.5 C77.78 17.57, 85.36 23.48, 96.6 34.5 M70 11.5 C79.86 16.53, 84.86 25.94, 96.6 34.5 M96.6 34.5 C109.04 45.33, 112.82 45.18, 96.6 57.5 M96.6 34.5 C108.89 47.11, 112.53 44.43, 96.6 57.5 M96.6 57.5 C91.35 61.8, 84.21 65.17, 70 79.5 M96.6 57.5 C88.91 63.56, 80.47 71.03, 70 79.5 M70 79.5 C53.57 93.66, 54.04 92.75, 42 79.5 M70 79.5 C59.06 89.15, 55.09 86.73, 42 79.5 M42 79.5 C34.26 70.44, 31.28 69.41, 14 57.5 M42 79.5 C34.43 71.62, 22.95 66.95, 14 57.5 M14 57.5 C-0.86 44.55, -0.65 43.74, 14 34.5 M14 57.5 C0.97 44.88, -2.29 48.96, 14 34.5 M14 34.5 C24.33 24.53, 37.91 17, 42 11.5 M14 34.5 C23.66 26.48, 34.69 20.3, 42 11.5 M42 11.5 C59.45 -3.48, 59.29 -2.01, 70 11.5 M42 11.5 C56.85 -3.18, 53.8 1.94, 70 11.5" stroke="#ffffff" stroke-width="1" fill="none"></path></g><g stroke-linecap="round" transform="translate(13.146203964444283 158.21765152296945) rotate(0 84.5 33)"><path d="M23.53 12.01 C30.77 7.75, 42.45 2.25, 54.75 0.18 C67.05 -1.89, 84.13 -1.64, 97.34 -0.43 C110.54 0.78, 123.53 4.43, 133.96 7.45 C144.39 10.47, 153.99 13.14, 159.91 17.68 C165.82 22.22, 169.84 29.69, 169.45 34.69 C169.07 39.7, 164.36 43.3, 157.59 47.72 C150.83 52.14, 139.6 58.29, 128.86 61.23 C118.12 64.17, 105.86 65.22, 93.15 65.38 C80.45 65.54, 64.81 63.84, 52.65 62.2 C40.5 60.57, 28.72 59.16, 20.2 55.55 C11.69 51.95, 4.59 45.69, 1.58 40.57 C-1.43 35.45, -3.44 30.79, 2.15 24.84 C7.73 18.89, 26.73 8.63, 35.08 4.9 C43.43 1.17, 51.22 1.58, 52.26 2.45 M50.18 3.82 C60.85 1.89, 76.13 -0.84, 89.02 -0.13 C101.9 0.58, 115.84 5.24, 127.5 8.08 C139.16 10.91, 151.89 13.33, 158.99 16.87 C166.1 20.41, 169.51 24.42, 170.15 29.32 C170.79 34.22, 169.01 40.87, 162.84 46.29 C156.67 51.71, 144.04 58.79, 133.13 61.82 C122.22 64.86, 110.02 64.36, 97.37 64.49 C84.72 64.62, 69.42 64.17, 57.22 62.6 C45.01 61.04, 33.39 58.2, 24.16 55.12 C14.93 52.03, 5.08 48.47, 1.83 44.1 C-1.42 39.72, 2.09 34.24, 4.64 28.86 C7.2 23.47, 9.53 15.92, 17.18 11.8 C24.83 7.68, 44.66 5.3, 50.54 4.16 C56.41 3.01, 51.4 4.98, 52.41 4.92" stroke="transparent" stroke-width="1" fill="none"></path></g><g transform="translate(536.9087692782336 218.27395376677333) rotate(0 16.965618541915546 5.260065887844206)"><text x="0" y="0" font-family="Helvetica, Segoe UI Emoji" font-size="9.147940674511647px" fill="#ffffff" text-anchor="start" style="white-space: pre;" direction="ltr" dominant-baseline="text-before-edge">Runtime</text></g><g transform="translate(522.5584456363522 195.19332774683676) rotate(0 30.65054583679955 5.600126299270812)"><text x="0" y="0" font-family="Helvetica, Segoe UI Emoji" font-size="9.739350085688391px" fill="#ffffff" text-anchor="start" style="white-space: pre;" direction="ltr" dominant-baseline="text-before-edge">validate_block</text></g><g transform="translate(57.14620396444428 179.21765152296945) rotate(0 43.13333511352539 11.5)"><text x="0" y="0" font-family="Helvetica, Segoe UI Emoji" font-size="20px" fill="transparent" text-anchor="start" style="white-space: pre;" direction="ltr" dominant-baseline="text-before-edge">PoVBlock</text></g><g transform="translate(282.1462039644443 41.21765152296945) rotate(0 82.34529113769531 14.5)"><text x="0" y="0" font-family="Helvetica, Segoe UI Emoji" font-size="25.21739130434783px" fill="#ffffff" text-anchor="start" style="white-space: pre;" direction="ltr" dominant-baseline="text-before-edge">Validator Node</text></g><g stroke-linecap="round" transform="translate(327.5831015650884 111.97691389995623) rotate(0 154.8460091431823 81.15205518490424)"><path d="M32 0 M32 0 C84.61 3.42, 137.65 0.35, 277.69 0 M32 0 C110.51 -0.12, 191.76 1.92, 277.69 0 M277.69 0 C298.08 0.32, 307.02 11.44, 309.69 32 M277.69 0 C302.06 -0.87, 310.86 8.68, 309.69 32 M309.69 32 C311.94 62.32, 311.02 99.22, 309.69 130.3 M309.69 32 C308.48 58.33, 307.75 82.91, 309.69 130.3 M309.69 130.3 C306.76 155.59, 300.75 162.78, 277.69 162.3 M309.69 130.3 C311.56 148.01, 302.11 160.97, 277.69 162.3 M277.69 162.3 C219.98 160.9, 162.79 162.13, 32 162.3 M277.69 162.3 C211.58 166.27, 141.22 164.73, 32 162.3 M32 162.3 C9.49 164.33, 0.44 153.87, 0 130.3 M32 162.3 C13.51 159.44, -0.05 151.23, 0 130.3 M0 130.3 C-5.27 98.98, -3.81 61.8, 0 32 M0 130.3 C-1.06 106.48, -0.64 84.69, 0 32 M0 32 C-0.21 12.31, 6.93 3.93, 32 0 M0 32 C-3.41 6.27, 14.72 -1.23, 32 0" stroke="#ffffff" stroke-width="1" fill="none"></path></g><g transform="translate(294.36528402612026 87.65143660852704) rotate(0 25.549999237060547 11.5)"><text x="0" y="0" font-family="Helvetica, Segoe UI Emoji" font-size="20px" fill="#ffffff" text-anchor="start" style="white-space: pre;" direction="ltr" dominant-baseline="text-before-edge">Client</text></g><g transform="translate(348.50637394850304 128.74648076648032) rotate(0 37.09166717529297 11.5)"><text x="0" y="0" font-family="Helvetica, Segoe UI Emoji" font-size="20px" fill="#ffffff" text-anchor="start" style="white-space: pre;" direction="ltr" dominant-baseline="text-before-edge">Runtime</text></g><g stroke-linecap="round" transform="translate(350.15838478060124 154.90209819620912) rotate(0 134.0481202295142 51.99997209100047)"><path d="M26 0 M26 0 C73.58 -1.1, 118.21 2.84, 242.1 0 M26 0 C81.75 5.11, 141.34 2.51, 242.1 0 M242.1 0 C259.92 -2.38, 270.84 10.17, 268.1 26 M242.1 0 C262.47 3.74, 267.73 10.06, 268.1 26 M268.1 26 C265.89 41.59, 266.63 59.17, 268.1 78 M268.1 26 C269.46 43.95, 269.63 58.19, 268.1 78 M268.1 78 C268.75 97.53, 256.86 105.83, 242.1 104 M268.1 78 C271.02 95.82, 263.87 102.91, 242.1 104 M242.1 104 C168.4 103.18, 97.23 102.72, 26 104 M242.1 104 C181.3 103.46, 118.24 103.51, 26 104 M26 104 C9.9 106.8, 1.94 97.55, 0 78 M26 104 C4.23 101.21, 1.53 99.33, 0 78 M0 78 C-1.44 58.96, 0.6 41.72, 0 26 M0 78 C-0.4 60.46, -0.42 44.21, 0 26 M0 26 C3.34 9.33, 5.87 -1.83, 26 0 M0 26 C-2.39 7.29, 6.23 1.58, 26 0" stroke="#ffffff" stroke-width="1" fill="none"></path></g><g transform="translate(361.5013716801846 164.67270406215926) rotate(0 26.816667556762695 11.5)"><text x="0" y="0" font-family="Helvetica, Segoe UI Emoji" font-size="20px" fill="#ffffff" text-anchor="start" style="white-space: pre;" direction="ltr" dominant-baseline="text-before-edge">PVFs:</text></g><g stroke-linecap="round" transform="translate(360.25263338705764 184.31955340184362) rotate(0 32 33)"><path d="M41.25 8.5 M41.25 8.5 C46.97 18.57, 51.69 24.52, 55.75 25.5 M41.25 8.5 C45.49 13.36, 48.46 18.29, 55.75 25.5 M55.75 25.5 C64.11 36.47, 66.09 34.86, 55.75 42.5 M55.75 25.5 C62.7 30.55, 68.37 32.26, 55.75 42.5 M55.75 42.5 C54.78 47.11, 43.24 54.31, 41.25 57.5 M55.75 42.5 C49.93 48.2, 47.74 52.15, 41.25 57.5 M41.25 57.5 C33.37 69.72, 36.77 68.16, 24.75 57.5 M41.25 57.5 C37.15 69.26, 36.33 69.28, 24.75 57.5 M24.75 57.5 C24.18 55.75, 14.33 49.37, 8.25 42.5 M24.75 57.5 C19.02 52.94, 14.78 48.28, 8.25 42.5 M8.25 42.5 C1.97 35.65, 1.51 34.95, 8.25 25.5 M8.25 42.5 C3.86 35.34, 1.6 33.56, 8.25 25.5 M8.25 25.5 C16.79 18.08, 22.76 10.89, 24.75 8.5 M8.25 25.5 C13.12 20.95, 22.89 12.37, 24.75 8.5 M24.75 8.5 C33.77 2.09, 35.25 2.14, 41.25 8.5 M24.75 8.5 C30.54 2.49, 30.26 2.89, 41.25 8.5" stroke="#ffffff" stroke-width="1" fill="none"></path></g><g transform="translate(383.9026330055879 205.81955340184362) rotate(0 8.350000381469727 11.5)"><text x="8.350000381469727" y="0" font-family="Helvetica, Segoe UI Emoji" font-size="20px" fill="#ffffff" text-anchor="middle" style="white-space: pre;" direction="ltr" dominant-baseline="text-before-edge">...</text></g><g stroke-linecap="round" transform="translate(432.87535986373354 187.76184153488379) rotate(0 30.734715473573033 33)"><path d="M38.75 8.5 M38.75 8.5 C44.69 13.74, 46.5 22.9, 53.72 25.5 M38.75 8.5 C44.44 10.99, 44.64 15.39, 53.72 25.5 M53.72 25.5 C64.79 37.31, 60.66 34.77, 53.72 42.5 M53.72 25.5 C63.88 36.59, 63.92 31.54, 53.72 42.5 M53.72 42.5 C50.92 49.71, 43.54 50.61, 38.75 57.5 M53.72 42.5 C48.74 48.64, 45.47 52.69, 38.75 57.5 M38.75 57.5 C27.11 67.04, 32.15 64.65, 23.25 57.5 M38.75 57.5 C31.25 68.52, 27.19 65.3, 23.25 57.5 M23.25 57.5 C18.19 56.38, 11.39 46.73, 7.75 42.5 M23.25 57.5 C17.95 53.62, 13.82 48.07, 7.75 42.5 M7.75 42.5 C2.63 34.01, 3.49 37.26, 7.75 25.5 M7.75 42.5 C0.93 36.93, -2.37 34.57, 7.75 25.5 M7.75 25.5 C12.61 19.54, 22.55 14.64, 23.25 8.5 M7.75 25.5 C12.02 19.6, 17.31 11.93, 23.25 8.5 M23.25 8.5 C32.65 2.35, 32.8 3.78, 38.75 8.5 M23.25 8.5 C29.27 1.53, 28.5 -2.6, 38.75 8.5" stroke="#ffffff" stroke-width="1" fill="none"></path></g><g transform="translate(455.3927172190503 209.26184153488379) rotate(0 8.350000381469727 11.5)"><text x="8.350000381469727" y="0" font-family="Helvetica, Segoe UI Emoji" font-size="20px" fill="#ffffff" text-anchor="middle" style="white-space: pre;" direction="ltr" dominant-baseline="text-before-edge">...</text></g><g stroke-linecap="round"><g transform="translate(187.43388976401155 190.34509313541162) rotate(0 163.69703783393737 -83.42123819308652)"><path d="M0.01 1 C9.87 1.1, 48.53 26.69, 59.42 1.16 C70.3 -24.36, 24.56 -124.22, 65.33 -152.13 C106.09 -180.05, 265.68 -191.46, 303.99 -166.33 C342.3 -141.19, 291.29 -30.13, 295.17 -1.31 C299.05 27.5, 322.39 5.16, 327.25 6.56 M-3.43 -0.93 C6.22 -1.66, 47.27 23.08, 58.32 -2.86 C69.36 -28.79, 21.85 -129.6, 62.86 -156.56 C103.87 -183.51, 266.22 -189.42, 304.36 -164.6 C342.5 -139.77, 287.29 -36.91, 291.7 -7.6 C296.11 21.72, 325.37 8.13, 330.83 11.3" stroke="transparent" stroke-width="1" fill="none"></path></g><g transform="translate(187.43388976401155 190.34509313541162) rotate(0 163.69703783393737 -83.42123819308652)"><path d="M315.99 19.82 C321.93 13.92, 327.16 13.08, 328.85 11.3 M313.23 15.96 C319.38 16.87, 327.87 12.49, 331.38 10.52" stroke="transparent" stroke-width="1" fill="none"></path></g><g transform="translate(187.43388976401155 190.34509313541162) rotate(0 163.69703783393737 -83.42123819308652)"><path d="M315.91 8.1 C321.93 5.83, 327.17 8.6, 328.85 11.3 M313.16 4.24 C319.37 9.78, 327.89 10.01, 331.38 10.52" stroke="transparent" stroke-width="1" fill="none"></path></g></g><mask></mask><g stroke-linecap="round" transform="translate(22.971881910723937 278.51170694659805) rotate(0 67.93698841612166 63.63328779247598)"><path d="M31.82 0 M31.82 0 C50.06 -1.31, 64.66 1.76, 104.06 0 M31.82 0 C55.64 -2.87, 81.69 -1.07, 104.06 0 M104.06 0 C127.02 -3.02, 133.1 13.34, 135.87 31.82 M104.06 0 C122.51 -4.57, 136.69 13.24, 135.87 31.82 M135.87 31.82 C136.29 53.53, 137.24 79.29, 135.87 95.45 M135.87 31.82 C134.69 51.54, 136.79 71.88, 135.87 95.45 M135.87 95.45 C138.12 118.83, 125.7 126.26, 104.06 127.27 M135.87 95.45 C137.13 116.33, 122.15 124.23, 104.06 127.27 M104.06 127.27 C90.94 125.98, 70.16 129.55, 31.82 127.27 M104.06 127.27 C89.17 129.76, 75.26 126.67, 31.82 127.27 M31.82 127.27 C7.02 128.09, -1.85 115.69, 0 95.45 M31.82 127.27 C12.17 131.48, -3.37 117.43, 0 95.45 M0 95.45 C-2.63 79.61, -2.63 61.14, 0 31.82 M0 95.45 C-1.84 80.49, -0.88 69.54, 0 31.82 M0 31.82 C-2.93 12.62, 12.63 0.94, 31.82 0 M0 31.82 C-1.05 11.55, 6.06 -2.63, 31.82 0" stroke="transparent" stroke-width="1" fill="none"></path></g><g transform="translate(10 254.61311397111024) rotate(0 87.31666564941403 11.5)"><text x="0" y="0" font-family="Helvetica, Segoe UI Emoji" font-size="20px" fill="transparent" text-anchor="start" style="white-space: pre;" direction="ltr" dominant-baseline="text-before-edge">Candidate Recepeit</text></g><g transform="translate(40.859541029641605 294.92961112273883) rotate(0 8.350000381469727 11.5)"><text x="0" y="0" font-family="Helvetica, Segoe UI Emoji" font-size="20px" fill="transparent" text-anchor="start" style="white-space: pre;" direction="ltr" dominant-baseline="text-before-edge">...</text></g><g transform="translate(40.40711584218241 320.8571161702958) rotate(0 8.350000381469727 11.5)"><text x="0" y="0" font-family="Helvetica, Segoe UI Emoji" font-size="20px" fill="transparent" text-anchor="start" style="white-space: pre;" direction="ltr" dominant-baseline="text-before-edge">...</text></g><g transform="translate(39.45695612198699 347.2823557505888) rotate(0 8.350000381469727 11.5)"><text x="0" y="0" font-family="Helvetica, Segoe UI Emoji" font-size="20px" fill="transparent" text-anchor="start" style="white-space: pre;" direction="ltr" dominant-baseline="text-before-edge">...</text></g><g stroke-linecap="round"><g transform="translate(590.9960943415842 198.98480204725786) rotate(0 13.440779097894335 13.81368828036679)"><path d="M0.48 -1.54 C6.23 -1.27, 30.88 -4.11, 37.17 0.93 C43.46 5.96, 47.17 24.82, 38.23 28.69 C29.29 32.56, -7.19 24.34, -16.47 24.17 M-2.7 3.79 C2.62 4.49, 29.71 0.33, 36.1 3.8 C42.49 7.27, 44.45 20.83, 35.65 24.6 C26.86 28.36, -8.45 26.91, -16.66 26.39" stroke="transparent" stroke-width="1" fill="none"></path></g><g transform="translate(590.9960943415842 198.98480204725786) rotate(0 13.440779097894335 13.81368828036679)"><path d="M7.2 21.2 C-2.97 19.47, -7.54 22.74, -17.68 22.9 M9.02 17.88 C-2.81 22.91, -11.54 23.91, -14.69 26.23" stroke="transparent" stroke-width="1" fill="none"></path></g><g transform="translate(590.9960943415842 198.98480204725786) rotate(0 13.440779097894335 13.81368828036679)"><path d="M6.42 39.9 C-3.35 30.74, -7.61 26.59, -17.68 22.9 M8.23 36.57 C-3.59 34.17, -12 27.7, -14.69 26.23" stroke="transparent" stroke-width="1" fill="none"></path></g></g><mask></mask><g stroke-linecap="round"><g transform="translate(533.9950232550987 221.84309958955407) rotate(0 -181.78451448987136 62.98462906609262)"><path d="M-0.94 -1.5 C-6.56 -1.57, -25.39 -20.03, -32.74 1.12 C-40.1 22.27, 10.67 106.51, -45.09 125.41 C-100.86 144.31, -313.99 116.69, -367.31 114.53 M3.74 3.86 C-2.27 4, -27.36 -16.82, -34.54 3.94 C-41.72 24.7, 15.99 109.57, -39.34 128.43 C-94.66 147.29, -311.89 119.81, -366.51 117.11" stroke="transparent" stroke-width="1" fill="none"></path></g><g transform="translate(533.9950232550987 221.84309958955407) rotate(0 -181.78451448987136 62.98462906609262)"><path d="M-339.68 110.45 C-349.3 108.88, -357.12 114.93, -366.57 120.96 M-339.32 108.33 C-345.07 111.09, -350.29 112.26, -368.44 115.4" stroke="transparent" stroke-width="1" fill="none"></path></g><g transform="translate(533.9950232550987 221.84309958955407) rotate(0 -181.78451448987136 62.98462906609262)"><path d="M-341.43 130.9 C-350.68 122.48, -357.92 121.67, -366.57 120.96 M-341.07 128.77 C-346.69 126.93, -351.52 123.51, -368.44 115.4" stroke="transparent" stroke-width="1" fill="none"></path></g></g><mask></mask></svg>