<svg version="1.1" xmlns="http://www.w3.org/2000/svg" viewBox="0 0 490.74883967632354 234.2527980680038" width="490.74883967632354" height="234.2527980680038">
  <!-- svg-source:excalidraw -->
  
  <defs>
    <style class="style-fonts">
      @font-face {
        font-family: "Virgil";
        src: url("https://excalidraw.com/Virgil.woff2");
      }
      @font-face {
        font-family: "Cascadia";
        src: url("https://excalidraw.com/Cascadia.woff2");
      }
    </style>
  </defs>
  <g stroke-linecap="round" transform="translate(312.70471199520966 174.1784304169296) rotate(0 24.394125393640024 23.76051174705202)"><path d="M35.22 2.6 C39.86 4.26, 43.5 9.57, 45.73 14.02 C47.95 18.48, 49.94 24.59, 48.58 29.33 C47.22 34.07, 41.98 39.41, 37.58 42.46 C33.17 45.52, 27.14 47.81, 22.14 47.67 C17.15 47.52, 11.13 45.14, 7.61 41.57 C4.1 38, 1.61 31.36, 1.04 26.25 C0.47 21.14, 1.48 15.16, 4.22 10.92 C6.96 6.68, 11.41 1.56, 17.48 0.81 C23.54 0.07, 36.03 4.71, 40.61 6.47 C45.18 8.23, 45.19 11.05, 44.93 11.37 M33.3 1.18 C37.89 2.25, 41.81 6.29, 44.22 10.93 C46.64 15.58, 48.49 23.71, 47.81 29.04 C47.13 34.37, 43.86 39.86, 40.15 42.91 C36.44 45.96, 30.75 47.47, 25.55 47.34 C20.35 47.21, 13.17 45.64, 8.95 42.13 C4.72 38.63, 0.87 31.27, 0.18 26.28 C-0.51 21.3, 2.33 16.48, 4.8 12.22 C7.28 7.97, 10.56 2.45, 15.04 0.75 C19.51 -0.95, 28.88 1.95, 31.66 2.03 C34.45 2.12, 31.61 1.02, 31.76 1.26" stroke="#ffffff" stroke-width="1" fill="none"></path></g><g transform="translate(331.5162524096129 188.9377231831785) rotate(0 5.333333492279053 9.199999999999989)"><text x="5.333333492279053" y="0" font-family="Helvetica, Segoe UI Emoji" font-size="16px" fill="#ffffff" text-anchor="middle" style="white-space: pre;" direction="ltr" dominant-baseline="text-before-edge">B</text></g><g stroke-linecap="round" transform="translate(73.53171383477957 175.26842185139003) rotate(0 24.394125393640024 23.76051174705202)"><path d="M16.2 0.9 C20.6 -1.3, 27.06 -1.33, 32.02 0.39 C36.99 2.11, 43.31 6.85, 45.98 11.2 C48.65 15.55, 48.79 21.44, 48.04 26.5 C47.29 31.57, 45.46 38.12, 41.5 41.56 C37.54 45, 29.74 47.13, 24.28 47.16 C18.81 47.19, 12.64 44.82, 8.7 41.73 C4.76 38.63, 1.49 33.57, 0.64 28.6 C-0.22 23.63, 0.96 16.5, 3.58 11.91 C6.19 7.32, 14.04 2.98, 16.31 1.08 C18.58 -0.82, 17.22 -0.06, 17.21 0.48 M33.15 0.62 C37.95 1.93, 41.33 8.04, 44.04 12.34 C46.74 16.64, 49.75 21.67, 49.37 26.4 C49 31.12, 45.72 37.29, 41.77 40.69 C37.83 44.09, 31.31 46.43, 25.72 46.81 C20.13 47.18, 12.28 46, 8.23 42.93 C4.18 39.86, 2.38 33.49, 1.42 28.38 C0.46 23.27, 0.07 16.89, 2.45 12.27 C4.83 7.65, 10.48 2.72, 15.69 0.66 C20.9 -1.39, 30.83 -0.09, 33.72 -0.06 C36.6 -0.02, 33.53 0.09, 32.99 0.88" stroke="#ffffff" stroke-width="1" fill="none"></path></g><g transform="translate(92.34325424918268 190.02771461763894) rotate(0 5.333333492279053 9.199999999999989)"><text x="5.333333492279053" y="0" font-family="Helvetica, Segoe UI Emoji" font-size="16px" fill="#ffffff" text-anchor="middle" style="white-space: pre;" direction="ltr" dominant-baseline="text-before-edge">A</text></g><g stroke-linecap="round" transform="translate(393.38711314438274 114.96774305948816) rotate(0 24.394125393640024 23.76051174705202)"><path d="M30.78 0.45 C35.64 1.52, 41.6 6.64, 44.47 10.78 C47.35 14.92, 48.59 20.42, 48.02 25.31 C47.45 30.2, 44.69 36.46, 41.06 40.09 C37.42 43.73, 31.13 46.62, 26.19 47.11 C21.25 47.59, 15.49 45.99, 11.43 43.01 C7.37 40.02, 3.41 33.96, 1.85 29.21 C0.29 24.46, 0.19 18.93, 2.05 14.53 C3.91 10.13, 7.8 4.92, 12.99 2.81 C18.18 0.7, 29.49 1.63, 33.2 1.87 C36.91 2.11, 35.46 3.76, 35.25 4.22 M19 1.22 C23.91 -0.53, 31.62 -1.34, 36.23 1.05 C40.83 3.43, 44.57 10.75, 46.62 15.52 C48.67 20.29, 49.91 24.81, 48.51 29.68 C47.11 34.54, 42.44 41.57, 38.21 44.7 C33.98 47.82, 28.35 49.1, 23.12 48.43 C17.9 47.76, 10.46 44.58, 6.86 40.7 C3.26 36.83, 1.71 30.42, 1.51 25.17 C1.32 19.92, 2.81 13.3, 5.68 9.21 C8.55 5.11, 16.57 1.9, 18.73 0.61 C20.89 -0.68, 18.84 0.89, 18.65 1.45" stroke="#ffffff" stroke-width="1" fill="none"></path></g><g stroke-linecap="round" transform="translate(154.21411498395253 116.0577344939486) rotate(0 24.394125393640024 23.76051174705202)"><path d="M23.82 -0.81 C28.77 -1.1, 36.48 1.94, 40.48 5.15 C44.49 8.35, 46.79 13.41, 47.82 18.43 C48.85 23.44, 49.24 30.72, 46.67 35.24 C44.1 39.76, 37.52 43.83, 32.41 45.55 C27.3 47.27, 20.78 47.15, 15.99 45.58 C11.2 44.01, 6.18 40.46, 3.68 36.12 C1.17 31.79, 0.2 24.64, 0.94 19.57 C1.69 14.5, 3.86 9.08, 8.15 5.69 C12.45 2.3, 23.18 -0.16, 26.72 -0.77 C30.26 -1.38, 29.23 1.62, 29.37 2.01 M28.98 1.4 C33.92 2.19, 41.53 4.77, 45.07 8.59 C48.61 12.42, 50.57 19.19, 50.23 24.35 C49.88 29.52, 46.98 35.61, 42.98 39.58 C38.97 43.56, 31.43 47.51, 26.22 48.2 C21.01 48.88, 16.05 46.64, 11.72 43.68 C7.39 40.72, 1.87 35.51, 0.25 30.43 C-1.37 25.35, -0.44 18.11, 2.02 13.2 C4.47 8.29, 10.13 3.22, 14.97 0.99 C19.8 -1.25, 28.66 -0.41, 31 -0.2 C33.34 0.01, 29.32 1.5, 29.03 2.25" stroke="#ffffff" stroke-width="1" fill="none"></path></g><g stroke-linecap="round" transform="translate(431.9605888890435 174.43365268196555) rotate(0 24.394125393640024 23.76051174705202)"><path d="M16.07 1.63 C20.34 -0.32, 26.72 0.6, 31.69 2.2 C36.66 3.8, 43.21 6.85, 45.87 11.25 C48.53 15.64, 48.49 23.65, 47.66 28.58 C46.83 33.51, 44.86 37.68, 40.88 40.84 C36.89 43.99, 29.04 47.39, 23.73 47.52 C18.42 47.65, 13.03 44.98, 9.01 41.63 C4.99 38.28, 0.6 32.23, -0.39 27.43 C-1.38 22.63, -0.96 17.51, 3.09 12.83 C7.14 8.15, 19.45 1.27, 23.91 -0.64 C28.37 -2.55, 30.03 0.73, 29.86 1.39 M29.73 0.12 C34.77 0.97, 41.8 5.58, 45.12 9.84 C48.44 14.1, 49.98 20.74, 49.63 25.7 C49.29 30.67, 46.64 35.93, 43.04 39.62 C39.44 43.31, 33.35 47.16, 28.02 47.85 C22.68 48.55, 15.72 46.52, 11.02 43.77 C6.33 41.02, 1.29 36.34, -0.16 31.37 C-1.62 26.4, 0.12 18.65, 2.3 13.97 C4.47 9.28, 8.23 5.71, 12.89 3.26 C17.55 0.81, 27.68 -0.23, 30.28 -0.74 C32.87 -1.24, 28.71 -0.34, 28.47 0.22" stroke="#ffffff" stroke-width="1" fill="none"></path></g><g stroke-linecap="round" transform="translate(192.78759072861328 175.523644116426) rotate(0 24.394125393640024 23.76051174705202)"><path d="M33.37 2.83 C38.17 4.42, 43.84 8.16, 46.18 12.73 C48.52 17.3, 48.62 25.36, 47.41 30.25 C46.2 35.14, 43.06 39.29, 38.91 42.06 C34.75 44.83, 27.82 47.06, 22.48 46.89 C17.15 46.73, 10.59 44.39, 6.87 41.08 C3.15 37.77, 0.73 32.15, 0.17 27.04 C-0.39 21.94, 0.65 14.87, 3.5 10.44 C6.36 6.02, 11.77 1.75, 17.32 0.48 C22.86 -0.78, 32.77 1.72, 36.77 2.85 C40.77 3.98, 41.55 6.67, 41.32 7.25 M30.42 1.49 C35.25 2.73, 39.68 6.78, 42.56 10.85 C45.43 14.92, 47.81 21.21, 47.66 25.93 C47.5 30.65, 44.84 35.45, 41.62 39.18 C38.39 42.91, 33.33 47.68, 28.31 48.33 C23.29 48.98, 15.98 46.01, 11.47 43.08 C6.97 40.15, 3.01 35.27, 1.27 30.73 C-0.47 26.19, -0.73 20.4, 1.03 15.83 C2.78 11.26, 7.16 6.06, 11.79 3.32 C16.42 0.58, 25.67 -0.15, 28.83 -0.61 C31.98 -1.06, 30.43 0.1, 30.71 0.58" stroke="#ffffff" stroke-width="1" fill="none"></path></g><g stroke-linecap="round" transform="translate(285.53965328880565 114.18296026014855) rotate(0 24.39412539364008 23.76051174705202)"><path d="M30.82 -0.09 C35.87 0.57, 40.88 5.29, 44.02 9.38 C47.15 13.46, 49.98 19.21, 49.64 24.41 C49.31 29.61, 45.64 36.7, 42.02 40.58 C38.4 44.47, 33.15 47.13, 27.94 47.73 C22.73 48.33, 15.13 47.08, 10.76 44.19 C6.38 41.29, 3.18 35.24, 1.66 30.35 C0.15 25.46, -0.38 19.62, 1.67 14.85 C3.71 10.07, 8.73 3.71, 13.93 1.67 C19.13 -0.37, 29.09 2.29, 32.88 2.59 C36.67 2.89, 36.82 3.3, 36.69 3.47 M18.03 2.5 C22.83 0.8, 29.89 0.88, 34.61 2.54 C39.33 4.2, 44.2 7.9, 46.36 12.48 C48.52 17.05, 48.94 24.78, 47.57 29.98 C46.2 35.18, 42.06 40.68, 38.12 43.69 C34.18 46.7, 29.05 48.48, 23.92 48.05 C18.79 47.62, 11.53 44.47, 7.33 41.11 C3.13 37.74, -0.47 32.93, -1.28 27.85 C-2.1 22.77, -0.81 15.22, 2.44 10.65 C5.68 6.07, 15.64 1.92, 18.18 0.39 C20.73 -1.13, 17.89 0.88, 17.7 1.49" stroke="#ffffff" stroke-width="1" fill="none"></path></g><g transform="translate(303.9095271001204 128.94225302639745) rotate(0 5.775000095367432 9.199999999999989)"><text x="5.775000095367432" y="0" font-family="Helvetica, Segoe UI Emoji" font-size="16px" fill="#ffffff" text-anchor="middle" style="white-space: pre;" direction="ltr" dominant-baseline="text-before-edge">C</text></g><g stroke-linecap="round" transform="translate(46.366655128375555 115.27295169460899) rotate(0 24.394125393640024 23.76051174705202)"><path d="M14.28 1.24 C18.72 -0.92, 27.36 -0.45, 32.31 1.07 C37.25 2.59, 41.33 6.25, 43.96 10.39 C46.58 14.52, 48.49 20.76, 48.04 25.88 C47.59 30.99, 44.84 37.59, 41.23 41.09 C37.63 44.6, 31.7 46.65, 26.43 46.9 C21.17 47.14, 14.03 45.69, 9.65 42.58 C5.27 39.48, 1.51 33.06, 0.17 28.28 C-1.17 23.49, -1.29 18.55, 1.62 13.86 C4.53 9.18, 14.61 2.25, 17.65 0.18 C20.69 -1.89, 19.91 1.06, 19.84 1.44 M31.37 -0.5 C36.31 0.38, 42.15 4.36, 44.93 8.74 C47.72 13.12, 48.36 20.55, 48.07 25.8 C47.79 31.04, 46.81 36.59, 43.24 40.2 C39.68 43.82, 32.06 47.07, 26.69 47.51 C21.32 47.94, 15.07 45.87, 11.01 42.83 C6.94 39.8, 3.7 34.19, 2.3 29.31 C0.9 24.44, 0.96 17.84, 2.6 13.57 C4.24 9.29, 7.66 5.62, 12.13 3.67 C16.59 1.72, 26.57 2.41, 29.41 1.88 C32.24 1.35, 29.22 0.22, 29.12 0.48" stroke="#ffffff" stroke-width="1" fill="none"></path></g><g stroke-linecap="round" transform="translate(336.9265376802075 65.26509978054423) rotate(0 24.394125393640024 23.76051174705202)"><path d="M14.52 1.84 C18.86 -0.26, 26.79 0.52, 31.77 2.05 C36.75 3.57, 41.51 6.71, 44.41 10.99 C47.3 15.26, 49.67 22.67, 49.12 27.69 C48.57 32.71, 45 37.7, 41.12 41.11 C37.23 44.52, 31.14 47.94, 25.81 48.12 C20.47 48.31, 13.24 45.34, 9.1 42.2 C4.96 39.06, 2.16 34.28, 0.97 29.27 C-0.22 24.27, -1.4 16.92, 1.95 12.17 C5.31 7.42, 17.23 2.76, 21.1 0.77 C24.96 -1.23, 25.28 -0.03, 25.16 0.19 M25.07 0.82 C30.05 0.27, 36.39 2.48, 40.19 5.39 C44 8.3, 46.78 13.53, 47.9 18.29 C49.01 23.05, 49.13 29.24, 46.89 33.94 C44.65 38.64, 39.4 44.51, 34.47 46.49 C29.55 48.47, 22.48 47.76, 17.32 45.8 C12.16 43.85, 6.2 39.27, 3.53 34.79 C0.86 30.31, 0.59 23.55, 1.31 18.93 C2.03 14.32, 4.25 10.18, 7.86 7.09 C11.47 4.01, 20.33 1.67, 22.95 0.43 C25.58 -0.81, 23.37 -0.72, 23.62 -0.36" stroke="#ffffff" stroke-width="1" fill="none"></path></g><g stroke-linecap="round" transform="translate(97.7535395197774 66.35509121500468) rotate(0 24.394125393640024 23.76051174705202)"><path d="M24.36 0.08 C29.26 -0.35, 34.64 1.65, 38.53 4.65 C42.41 7.65, 46.41 13.04, 47.67 18.08 C48.93 23.12, 48.32 30.37, 46.09 34.89 C43.85 39.41, 39.13 43.3, 34.25 45.18 C29.36 47.06, 21.93 47.78, 16.76 46.16 C11.6 44.54, 6.18 39.62, 3.26 35.47 C0.34 31.33, -1.67 26.36, -0.76 21.31 C0.14 16.26, 3.98 8.64, 8.71 5.19 C13.43 1.74, 24.05 1.4, 27.61 0.59 C31.17 -0.21, 30.13 -0.06, 30.07 0.36 M15.7 1.27 C19.76 -0.62, 25.6 0.17, 30.61 1.77 C35.61 3.37, 42.83 6.73, 45.72 10.86 C48.61 15, 48.72 21.7, 47.95 26.58 C47.18 31.45, 44.57 36.86, 41.1 40.11 C37.63 43.36, 32.24 45.76, 27.15 46.07 C22.06 46.38, 15.19 44.57, 10.58 41.96 C5.97 39.36, 0.91 35, -0.5 30.42 C-1.92 25.83, -0.34 19.3, 2.08 14.47 C4.5 9.63, 11.96 3.32, 13.99 1.4 C16.03 -0.52, 13.84 2.36, 14.31 2.95" stroke="#ffffff" stroke-width="1" fill="none"></path></g><g stroke-linecap="round" transform="translate(368.8289848727625 175.6417831394392) rotate(0 24.394125393640024 23.76051174705202)"><path d="M15.22 1.13 C19.57 -1.03, 26.98 0.18, 31.82 1.66 C36.66 3.13, 41.6 5.84, 44.27 9.98 C46.94 14.12, 48.35 21.23, 47.85 26.5 C47.35 31.77, 44.81 37.93, 41.28 41.59 C37.75 45.24, 31.88 48.27, 26.69 48.43 C21.5 48.6, 14.35 45.88, 10.14 42.56 C5.93 39.24, 2.66 33.41, 1.41 28.53 C0.16 23.65, -0.88 17.93, 2.65 13.29 C6.19 8.66, 18.14 2.73, 22.63 0.73 C27.11 -1.28, 29.5 0.84, 29.57 1.26 M20.68 -1.2 C25.2 -2.31, 31.53 0.08, 36.17 3.07 C40.81 6.05, 46.57 11.55, 48.5 16.72 C50.44 21.89, 49.93 29.36, 47.78 34.1 C45.64 38.85, 40.33 43.06, 35.64 45.18 C30.95 47.31, 24.95 47.75, 19.64 46.85 C14.33 45.95, 6.99 43.97, 3.81 39.77 C0.64 35.57, 0.27 27.19, 0.58 21.64 C0.89 16.1, 2.19 10.27, 5.68 6.52 C9.17 2.77, 19.08 0.08, 21.53 -0.83 C23.98 -1.74, 20.46 0.56, 20.38 1.08" stroke="#ffffff" stroke-width="1" fill="none"></path></g><g stroke-linecap="round" transform="translate(129.65598671233238 176.73177457389966) rotate(0 24.394125393640024 23.76051174705202)"><path d="M18.51 -0.12 C23.3 -1.84, 30.11 -0.58, 34.69 1.81 C39.27 4.19, 43.78 9.33, 45.98 14.18 C48.18 19.03, 49.3 26.07, 47.88 30.92 C46.47 35.78, 41.86 40.62, 37.49 43.29 C33.12 45.95, 26.94 47.58, 21.68 46.92 C16.42 46.26, 9.42 42.77, 5.95 39.31 C2.49 35.84, 1.24 30.97, 0.86 26.14 C0.48 21.31, -0.02 14.75, 3.68 10.33 C7.37 5.9, 19.34 1.13, 23.03 -0.42 C26.72 -1.97, 25.77 0.7, 25.83 1.04 M35.37 2.23 C40.2 4.27, 45.85 11.37, 47.91 16.11 C49.98 20.85, 49.53 26.03, 47.75 30.67 C45.98 35.31, 41.9 40.97, 37.25 43.94 C32.61 46.91, 25.3 49.12, 19.87 48.48 C14.44 47.84, 8.15 44.35, 4.68 40.13 C1.22 35.9, -1.2 28.42, -0.91 23.14 C-0.62 17.86, 2.79 12.34, 6.42 8.46 C10.04 4.57, 16.02 0.84, 20.87 -0.17 C25.71 -1.19, 32.91 1.61, 35.5 2.39 C38.09 3.16, 36.35 4.1, 36.38 4.49" stroke="#ffffff" stroke-width="1" fill="none"></path></g><g stroke-linecap="round" transform="translate(249.1729981604301 173.3521161524883) rotate(0 24.394125393640024 23.76051174705202)"><path d="M34.74 3.19 C39.66 4.88, 45.22 9.01, 47.41 13.6 C49.6 18.19, 49.48 25.62, 47.86 30.71 C46.23 35.81, 41.93 41.22, 37.67 44.14 C33.4 47.07, 27.49 48.94, 22.28 48.27 C17.06 47.6, 9.94 43.8, 6.39 40.14 C2.85 36.48, 1.47 31.28, 0.99 26.32 C0.52 21.35, 0.54 14.48, 3.54 10.34 C6.55 6.2, 13.17 2.4, 19.02 1.45 C24.87 0.5, 34.82 3.44, 38.65 4.63 C42.48 5.83, 42.21 8.37, 42 8.6 M20.25 0.24 C24.81 -1.18, 29.57 -1.19, 34.18 1.13 C38.78 3.44, 45.48 9.36, 47.88 14.15 C50.29 18.93, 50.33 24.79, 48.59 29.84 C46.85 34.88, 42.1 41.45, 37.44 44.4 C32.78 47.36, 25.93 48.1, 20.64 47.56 C15.35 47.03, 8.99 45.05, 5.7 41.2 C2.41 37.35, 1.11 29.51, 0.89 24.46 C0.67 19.42, 1.56 14.9, 4.37 10.95 C7.17 6.99, 15.11 2.5, 17.73 0.72 C20.35 -1.06, 19.73 -0.23, 20.08 0.26" stroke="#ffffff" stroke-width="1" fill="none"></path></g><g stroke-linecap="round" transform="translate(10 174.44210758694874) rotate(0 24.394125393640024 23.76051174705202)"><path d="M15.36 1.03 C19.69 -1, 27.25 -1.03, 32.31 0.8 C37.37 2.64, 42.94 7.6, 45.73 12.04 C48.52 16.48, 50.04 22.48, 49.05 27.45 C48.06 32.42, 44.02 38.66, 39.81 41.85 C35.59 45.04, 29.13 46.46, 23.76 46.59 C18.39 46.73, 11.39 45.96, 7.6 42.66 C3.81 39.36, 1.65 31.86, 1.02 26.79 C0.39 21.71, 1.06 16.68, 3.84 12.19 C6.62 7.71, 14.89 1.67, 17.72 -0.12 C20.54 -1.92, 20.74 0.72, 20.79 1.42 M14.94 2.39 C19.45 0.53, 28.36 -0.02, 33.3 1.53 C38.25 3.07, 42.09 7.48, 44.6 11.66 C47.11 15.83, 48.87 21.82, 48.38 26.58 C47.89 31.35, 45.46 36.93, 41.65 40.27 C37.84 43.6, 31.15 46.09, 25.52 46.6 C19.89 47.11, 12.14 46.15, 7.89 43.32 C3.63 40.49, 0.9 34.88, -0.01 29.6 C-0.93 24.33, -0.12 16.27, 2.4 11.69 C4.92 7.11, 12.67 3.6, 15.1 2.12 C17.52 0.64, 16.77 2.75, 16.96 2.82" stroke="#ffffff" stroke-width="1" fill="none"></path></g><g stroke-linecap="round" transform="translate(219.01834800499364 10) rotate(0 22.81009127716993 24.71093221693411)"><path d="M33.59 3.28 C37.68 5.24, 41.4 9.49, 43.18 14.22 C44.97 18.95, 45.7 26.48, 44.29 31.67 C42.88 36.86, 38.73 42.34, 34.72 45.37 C30.71 48.41, 24.88 50.32, 20.25 49.87 C15.62 49.42, 10.45 46.43, 6.93 42.64 C3.41 38.86, -0.51 32.54, -0.87 27.15 C-1.23 21.76, 1.74 14.62, 4.79 10.3 C7.84 5.99, 11.88 1.92, 17.44 1.27 C23 0.63, 34.13 4.89, 38.17 6.44 C42.22 7.99, 42.1 10.22, 41.71 10.57 M31.21 3.05 C35.49 4.73, 39.25 8.72, 41.81 13.03 C44.37 17.34, 47.55 23.93, 46.57 28.9 C45.6 33.88, 39.76 39.42, 35.97 42.89 C32.17 46.35, 28.67 49.47, 23.8 49.7 C18.94 49.93, 10.92 47.89, 6.76 44.26 C2.61 40.63, -0.76 33.52, -1.13 27.92 C-1.51 22.32, 1.73 15.16, 4.53 10.64 C7.33 6.11, 11.33 2.22, 15.65 0.78 C19.98 -0.65, 27.91 1.75, 30.46 2.01 C33.02 2.27, 30.83 1.8, 30.97 2.35" stroke="#ffffff" stroke-width="1" fill="none"></path></g><g stroke-linecap="round"><g transform="translate(46.56150719389984 175.18974649410848) rotate(0 5.571435594051195 -6.683195319914887)"><path d="M0.84 1.05 C2.72 -1.15, 9.89 -10.06, 11.32 -12.51 M-0.18 0.56 C1.65 -2.07, 8.97 -12.21, 10.99 -14.42" stroke="#ffffff" stroke-width="1" fill="none"></path></g><g transform="translate(46.56150719389984 175.18974649410848) rotate(0 5.571435594051195 -6.683195319914887)"><path d="M9.1 -5.83 C9.4 -9.49, 9.41 -11.02, 10.8 -14.24 M8.15 -6.59 C9.29 -8.62, 9.9 -11.69, 11.08 -14.79" stroke="#ffffff" stroke-width="1" fill="none"></path></g><g transform="translate(46.56150719389984 175.18974649410848) rotate(0 5.571435594051195 -6.683195319914887)"><path d="M4.71 -9.33 C6.35 -11.96, 7.68 -12.44, 10.8 -14.24 M3.76 -10.09 C6.21 -11.07, 8.13 -13.09, 11.08 -14.79" stroke="#ffffff" stroke-width="1" fill="none"></path></g></g><mask></mask><g stroke-linecap="round"><g transform="translate(89.88258332290184 175.18974649410848) rotate(0 -3.1524132135355103 -5.472960814381622)"><path d="M-0.38 -0.02 C-1.41 -1.88, -5.68 -9.09, -6.9 -10.93 M1.62 -1.07 C0.49 -2.74, -6.77 -7.88, -7.93 -9.32" stroke="#ffffff" stroke-width="1" fill="none"></path></g><g transform="translate(89.88258332290184 175.18974649410848) rotate(0 -3.1524132135355103 -5.472960814381622)"><path d="M-1.91 -7.01 C-3.28 -8.05, -4.79 -8.45, -8.19 -9.92 M-1.91 -6.7 C-3.97 -8.08, -6.87 -8.94, -7.72 -9.51" stroke="#ffffff" stroke-width="1" fill="none"></path></g><g transform="translate(89.88258332290184 175.18974649410848) rotate(0 -3.1524132135355103 -5.472960814381622)"><path d="M-4.86 -3.7 C-5.53 -5.52, -6.34 -6.72, -8.19 -9.92 M-4.86 -3.39 C-5.78 -6.05, -7.54 -8.2, -7.72 -9.51" stroke="#ffffff" stroke-width="1" fill="none"></path></g></g><mask></mask><g stroke-linecap="round"><g transform="translate(86.81016657616419 119.57900337815545) rotate(0 7.03442794424825 -6.687699663378453)"><path d="M0.85 0.97 C2.78 -1.42, 10.1 -12.11, 12 -14.35 M-0.16 0.44 C2.1 -1.85, 12.36 -10.94, 14.23 -13.41" stroke="#ffffff" stroke-width="1" fill="none"></path></g><g transform="translate(86.81016657616419 119.57900337815545) rotate(0 7.03442794424825 -6.687699663378453)"><path d="M11.24 -5.66 C10.87 -8.35, 13.6 -11.18, 15.1 -13.75 M10.34 -5.03 C11.21 -7.51, 12.84 -9.3, 13.94 -13.47" stroke="#ffffff" stroke-width="1" fill="none"></path></g><g transform="translate(86.81016657616419 119.57900337815545) rotate(0 7.03442794424825 -6.687699663378453)"><path d="M6.69 -10.04 C7.84 -11.29, 12.09 -12.66, 15.1 -13.75 M5.79 -9.41 C7.83 -10.77, 10.66 -11.4, 13.94 -13.47" stroke="#ffffff" stroke-width="1" fill="none"></path></g></g><mask></mask><g stroke-linecap="round"><g transform="translate(163.00610189525992 170.5811213740019) rotate(0 3.5197473151263807 -2.9356760542373195)"><path d="M-0.49 -0.94 C0.58 -1.99, 6.06 -5.99, 7.53 -7.06 M1.45 1.18 C2.25 0.4, 5.42 -4.3, 6.5 -5.51" stroke="#ffffff" stroke-width="1" fill="none"></path></g><g transform="translate(163.00610189525992 170.5811213740019) rotate(0 3.5197473151263807 -2.9356760542373195)"><path d="M4.51 -0.61 C5.58 -2.2, 6.1 -4.76, 6.11 -5.38 M4.88 -0.77 C5.61 -2.28, 5.73 -3.88, 6.76 -5.28" stroke="#ffffff" stroke-width="1" fill="none"></path></g><g transform="translate(163.00610189525992 170.5811213740019) rotate(0 3.5197473151263807 -2.9356760542373195)"><path d="M1.69 -2.79 C3.85 -3.51, 5.48 -5.21, 6.11 -5.38 M2.06 -2.95 C3.68 -3.8, 4.68 -4.73, 6.76 -5.28" stroke="#ffffff" stroke-width="1" fill="none"></path></g></g><mask></mask><g stroke-linecap="round"><g transform="translate(204.48372797621926 176.11147151812975) rotate(0 -4.330092234340043 -7.760154779347431)"><path d="M-1.1 1.16 C-2.43 -1.52, -7.42 -13.78, -8.78 -16.68 M0.52 0.72 C-0.8 -1.77, -7.47 -12.88, -9.18 -15.51" stroke="#ffffff" stroke-width="1" fill="none"></path></g><g transform="translate(204.48372797621926 176.11147151812975) rotate(0 -4.330092234340043 -7.760154779347431)"><path d="M-0.9 -8.89 C-4.03 -10.68, -5.39 -12, -8.47 -14.6 M-1.56 -9.42 C-4.89 -11.98, -7.19 -13.58, -9.52 -15.66" stroke="#ffffff" stroke-width="1" fill="none"></path></g><g transform="translate(204.48372797621926 176.11147151812975) rotate(0 -4.330092234340043 -7.760154779347431)"><path d="M-6.36 -5.51 C-8.21 -8.03, -8.3 -10.13, -8.47 -14.6 M-7.01 -6.04 C-8.34 -9.9, -8.61 -12.76, -9.52 -15.66" stroke="#ffffff" stroke-width="1" fill="none"></path></g></g><mask></mask><g stroke-linecap="round"><g transform="translate(164.84955194330257 119.88624505282928) rotate(0 -10.05724289352969 -5.970876957356495)"><path d="M-0.62 0.3 C-4.15 -1.43, -17.33 -8.39, -20.69 -10.23 M1.26 -0.59 C-2.43 -2.71, -17.61 -10.74, -21.38 -12.24" stroke="#ffffff" stroke-width="1" fill="none"></path></g><g transform="translate(164.84955194330257 119.88624505282928) rotate(0 -10.05724289352969 -5.970876957356495)"><path d="M-9.32 -10.64 C-13.42 -11.15, -17.94 -12.34, -21.1 -11.66 M-9.47 -10.83 C-13.95 -11.13, -17.64 -11.69, -21.05 -12.63" stroke="#ffffff" stroke-width="1" fill="none"></path></g><g transform="translate(164.84955194330257 119.88624505282928) rotate(0 -10.05724289352969 -5.970876957356495)"><path d="M-12.78 -3.33 C-15.71 -6.32, -19.04 -10.01, -21.1 -11.66 M-12.94 -3.53 C-16.32 -6.19, -18.9 -9.08, -21.05 -12.63" stroke="#ffffff" stroke-width="1" fill="none"></path></g></g><mask></mask><g stroke-linecap="round"><g transform="translate(148.87298486026634 76.872410598501) rotate(0 34.47013052497624 -14.16414499383609)"><path d="M0.17 -0.6 C11.68 -5.62, 56.36 -25.02, 68.02 -30.03 M-1.2 1.7 C10.76 -3.15, 58.3 -23.37, 70.14 -28.61" stroke="#ffffff" stroke-width="1" fill="none"></path></g><g transform="translate(148.87298486026634 76.872410598501) rotate(0 34.47013052497624 -14.16414499383609)"><path d="M47.34 -9.86 C52.51 -10.72, 56.09 -15.92, 70.8 -27.88 M48.62 -8.51 C54.64 -15.04, 63.13 -21.24, 69.73 -28.21" stroke="#ffffff" stroke-width="1" fill="none"></path></g><g transform="translate(148.87298486026634 76.872410598501) rotate(0 34.47013052497624 -14.16414499383609)"><path d="M39.19 -28.7 C46.1 -25.62, 51.38 -26.87, 70.8 -27.88 M40.48 -27.35 C48.99 -27.82, 60.08 -28.03, 69.73 -28.21" stroke="#ffffff" stroke-width="1" fill="none"></path></g></g><mask></mask><g stroke-linecap="round"><g transform="translate(282.52311334335764 172.73181309671827) rotate(0 6.404630216025851 -6.392921998184761)"><path d="M-0.38 -0.04 C1.53 -2.02, 8.88 -9.25, 10.79 -11.2 M1.62 -1.1 C3.98 -3.45, 11.78 -10.64, 13.19 -12.75" stroke="#ffffff" stroke-width="1" fill="none"></path></g><g transform="translate(282.52311334335764 172.73181309671827) rotate(0 6.404630216025851 -6.392921998184761)"><path d="M10.06 -5.38 C11.57 -7.09, 11.97 -9.22, 13.29 -13.49 M9.84 -5.05 C11.07 -7.69, 12 -9.86, 13.16 -12.61" stroke="#ffffff" stroke-width="1" fill="none"></path></g><g transform="translate(282.52311334335764 172.73181309671827) rotate(0 6.404630216025851 -6.392921998184761)"><path d="M5.79 -9.19 C8.36 -9.96, 9.81 -11.16, 13.29 -13.49 M5.57 -8.86 C8.09 -10.39, 10.3 -11.41, 13.16 -12.61" stroke="#ffffff" stroke-width="1" fill="none"></path></g></g><mask></mask><g stroke-linecap="round"><g transform="translate(328.30212286974984 175.80422984345591) rotate(0 -3.714057375400671 -6.870362340982183)"><path d="M0.08 -0.11 C-1.16 -2.45, -6.3 -11.55, -7.51 -13.63 M-1.34 -1.21 C-2.18 -3.47, -4.06 -10.96, -5.19 -12.64" stroke="#ffffff" stroke-width="1" fill="none"></path></g><g transform="translate(328.30212286974984 175.80422984345591) rotate(0 -3.714057375400671 -6.870362340982183)"><path d="M-0.39 -7.84 C-2.38 -9.16, -3.19 -10.59, -5.86 -12.18 M-0.11 -7.19 C-1.8 -9.01, -3.26 -10.87, -5.47 -12.34" stroke="#ffffff" stroke-width="1" fill="none"></path></g><g transform="translate(328.30212286974984 175.80422984345591) rotate(0 -3.714057375400671 -6.870362340982183)"><path d="M-4.9 -5.94 C-5.58 -7.82, -5.07 -9.81, -5.86 -12.18 M-4.62 -5.29 C-4.95 -7.67, -5.03 -10.1, -5.47 -12.34" stroke="#ffffff" stroke-width="1" fill="none"></path></g></g><mask></mask><g stroke-linecap="round"><g transform="translate(397.4314996713488 177.9549215661724) rotate(0 5.122121457266303 -6.829948351563587)"><path d="M0.22 0.05 C1.99 -2.35, 9.72 -11.72, 11.37 -13.71 M-1.12 -0.97 C0.45 -3.3, 8.31 -10.47, 10.58 -12.6" stroke="#ffffff" stroke-width="1" fill="none"></path></g><g transform="translate(397.4314996713488 177.9549215661724) rotate(0 5.122121457266303 -6.829948351563587)"><path d="M6.76 -4.81 C7.5 -8.43, 10.16 -10.27, 10.79 -13.11 M6.95 -4.92 C7.99 -7.59, 9.15 -9.82, 10.81 -12.49" stroke="#ffffff" stroke-width="1" fill="none"></path></g><g transform="translate(397.4314996713488 177.9549215661724) rotate(0 5.122121457266303 -6.829948351563587)"><path d="M2.79 -9.07 C4.99 -11.16, 9.08 -11.46, 10.79 -13.11 M2.99 -9.17 C5.3 -10.52, 7.71 -11.4, 10.81 -12.49" stroke="#ffffff" stroke-width="1" fill="none"></path></g></g><mask></mask><g stroke-linecap="round"><g transform="translate(446.59016761915245 178.26216324084612) rotate(0 -7.277697520265065 -7.844887657555546)"><path d="M0.05 0.64 C-2.18 -2.09, -11.49 -13.59, -13.82 -16.33 M-1.38 -0.07 C-3.71 -2.63, -12.41 -12.59, -14.61 -14.98" stroke="#ffffff" stroke-width="1" fill="none"></path></g><g transform="translate(446.59016761915245 178.26216324084612) rotate(0 -7.277697520265065 -7.844887657555546)"><path d="M-4.64 -9.66 C-8.02 -11.08, -10.06 -13.4, -13.6 -14.91 M-4.77 -9.85 C-9.17 -12.28, -12.11 -14.21, -14.49 -15.2" stroke="#ffffff" stroke-width="1" fill="none"></path></g><g transform="translate(446.59016761915245 178.26216324084612) rotate(0 -7.277697520265065 -7.844887657555546)"><path d="M-10.08 -4.8 C-12.02 -7.51, -12.61 -11.12, -13.6 -14.91 M-10.21 -4.99 C-12.61 -9.22, -13.51 -12.97, -14.49 -15.2" stroke="#ffffff" stroke-width="1" fill="none"></path></g></g><mask></mask><g stroke-linecap="round"><g transform="translate(398.6604663700439 119.57900337815545) rotate(0 -7.531189279816431 -6.65873051388769)"><path d="M0.61 -0.53 C-1.78 -2.82, -12.25 -11.25, -14.84 -13.5 M-0.53 1.81 C-3.01 -0.83, -13.15 -12.13, -15.67 -15.13" stroke="#ffffff" stroke-width="1" fill="none"></path></g><g transform="translate(398.6604663700439 119.57900337815545) rotate(0 -7.531189279816431 -6.65873051388769)"><path d="M-7 -9.9 C-8.08 -11.24, -10.9 -11.62, -15.56 -15.4 M-6.39 -9.71 C-9.37 -11.47, -11.45 -13.08, -15.23 -14.95" stroke="#ffffff" stroke-width="1" fill="none"></path></g><g transform="translate(398.6604663700439 119.57900337815545) rotate(0 -7.531189279816431 -6.65873051388769)"><path d="M-12.37 -5.21 C-12.08 -7.78, -13.51 -9.37, -15.56 -15.4 M-11.76 -5.02 C-13.17 -8.18, -13.7 -11.15, -15.23 -14.95" stroke="#ffffff" stroke-width="1" fill="none"></path></g></g><mask></mask><g stroke-linecap="round"><g transform="translate(321.5428060269269 119.57900337815545) rotate(0 8.101281422790976 -8.352194771303175)"><path d="M-1.1 0.22 C1.65 -2.15, 14.26 -12.5, 17.3 -15.1 M0.53 -0.71 C3.05 -3.37, 13.76 -14.73, 16.4 -16.93" stroke="#ffffff" stroke-width="1" fill="none"></path></g><g transform="translate(321.5428060269269 119.57900337815545) rotate(0 8.101281422790976 -8.352194771303175)"><path d="M11.51 -6.38 C13.8 -10.33, 15.42 -14.96, 16.87 -16.41 M11.73 -6.15 C12.3 -9.72, 14.52 -11.75, 16.6 -16.91" stroke="#ffffff" stroke-width="1" fill="none"></path></g><g transform="translate(321.5428060269269 119.57900337815545) rotate(0 8.101281422790976 -8.352194771303175)"><path d="M5.99 -12.11 C10.28 -13.89, 13.93 -16.41, 16.87 -16.41 M6.2 -11.88 C8.28 -13.93, 11.99 -14.41, 16.6 -16.91" stroke="#ffffff" stroke-width="1" fill="none"></path></g></g><mask></mask><g stroke-linecap="round"><g transform="translate(343.6642066034385 72.87826882774198) rotate(0 -37.58487947004147 -13.187198932257843)"><path d="M-0.95 -0.66 C-13.54 -4.9, -62.71 -21.73, -75.5 -26.26 M0.76 1.6 C-11.9 -2.9, -63.23 -23.22, -75.93 -27.98" stroke="#ffffff" stroke-width="1" fill="none"></path></g><g transform="translate(343.6642066034385 72.87826882774198) rotate(0 -37.58487947004147 -13.187198932257843)"><path d="M-47.04 -25.72 C-53.71 -29.79, -65.44 -29.2, -75.92 -27.73 M-45.34 -28.19 C-54.68 -26.48, -63.68 -26.96, -76.35 -28.37" stroke="#ffffff" stroke-width="1" fill="none"></path></g><g transform="translate(343.6642066034385 72.87826882774198) rotate(0 -37.58487947004147 -13.187198932257843)"><path d="M-54.44 -6.58 C-58.74 -16.38, -68.23 -21.59, -75.92 -27.73 M-52.74 -9.05 C-59.93 -12.85, -66.8 -18.81, -76.35 -28.37" stroke="#ffffff" stroke-width="1" fill="none"></path></g></g><mask></mask></svg>