<svg version="1.1" viewBox="0.0 0.0 1310.8556430446195 704.2992125984252" fill="none" stroke="none" stroke-linecap="square" stroke-miterlimit="10" xmlns:xlink="http://www.w3.org/1999/xlink" xmlns="http://www.w3.org/2000/svg"><clipPath id="p.0"><path d="m0 0l1310.8556 0l0 704.2992l-1310.8556 0l0 -704.2992z" clip-rule="nonzero"/></clipPath><g clip-path="url(#p.0)"><path fill="#140526" d="m0 0l1310.8556 0l0 704.2992l-1310.8556 0z" fill-rule="evenodd"/><path fill="#000000" fill-opacity="0.0" d="m101.90157 276.75934l0 0c0 -22.546997 18.277962 -40.82495 40.82496 -40.82495l218.28708 0c10.827454 0 21.211456 4.301178 28.867615 11.957352c7.6561584 7.6561584 11.957367 18.040146 11.957367 28.8676l0 163.29495c0 22.547028 -18.277954 40.82498 -40.82498 40.82498l-218.28708 0l0 0c-22.546997 0 -40.82496 -18.277954 -40.82496 -40.82498z" fill-rule="evenodd"/><path stroke="#8d3aed" stroke-width="8.0" stroke-linejoin="round" stroke-linecap="butt" d="m101.90157 276.75934l0 0c0 -22.546997 18.277962 -40.82495 40.82496 -40.82495l218.28708 0c10.827454 0 21.211456 4.301178 28.867615 11.957352c7.6561584 7.6561584 11.957367 18.040146 11.957367 28.8676l0 163.29495c0 22.547028 -18.277954 40.82498 -40.82498 40.82498l-218.28708 0l0 0c-22.546997 0 -40.82496 -18.277954 -40.82496 -40.82498z" fill-rule="evenodd"/><path fill="#f3f3f3" d="m196.80489 349.11246l-7.65625 20.234375l-2.796875 0l-7.6875 -20.234375l2.640625 0l5.140625 13.984375l1.296875 4.015625l1.28125 -3.984375l5.15625 -14.015625l2.625 0zm10.822189 10.328125q0 -1.71875 -0.921875 -2.640625q-0.90625 -0.9375 -2.59375 -0.9375q-1.59375 0 -2.703125 0.6875q-1.109375 0.6875 -1.625 2.21875l-1.984375 -1.21875q0.609375 -1.71875 2.265625 -2.78125q1.65625 -1.0625 4.109375 -1.0625q1.65625 0 3.0 0.578125q1.34375 0.5625 2.125 1.71875q0.78125 1.140625 0.78125 2.953125l0 7.421875q0 1.09375 1.171875 1.09375q0.578125 0 1.125 -0.140625l-0.109375 1.921875q-0.625 0.3125 -1.59375 0.3125q-0.890625 0 -1.609375 -0.328125q-0.703125 -0.34375 -1.109375 -1.03125q-0.390625 -0.703125 -0.390625 -1.734375l0 -0.3125l0.625 0.09375q-0.375 1.1875 -1.265625 1.9375q-0.890625 0.75 -2.0 1.109375q-1.09375 0.359375 -2.171875 0.359375q-1.34375 0 -2.515625 -0.453125q-1.15625 -0.46875 -1.84375 -1.40625q-0.6875 -0.9375 -0.6875 -2.3125q0 -1.71875 1.140625 -2.828125q1.15625 -1.125 3.203125 -1.53125l6.078125 -1.1875l0 2.015625l-4.9375 1.015625q-1.5 0.3125 -2.234375 0.859375q-0.734375 0.546875 -0.734375 1.53125q0 0.953125 0.75 1.546875q0.75 0.59375 2.125 0.59375q0.890625 0 1.703125 -0.21875q0.8125 -0.234375 1.453125 -0.703125q0.640625 -0.484375 1.0 -1.203125q0.375 -0.71875 0.375 -1.703125l0 -4.234375zm10.742111 -12.46875l0 18.484375q0 1.15625 0.421875 1.609375q0.4375 0.4375 1.375 0.4375q0.625 0 1.015625 -0.078125q0.40625 -0.09375 1.078125 -0.34375l-0.40625 2.140625q-0.484375 0.21875 -1.078125 0.328125q-0.578125 0.109375 -1.1875 0.109375q-1.875 0 -2.78125 -1.015625q-0.890625 -1.015625 -0.890625 -3.09375l0 -18.578125l2.453125 0zm8.271469 4.109375q-0.828125 0 -1.34375 -0.5q-0.5 -0.515625 -0.5 -1.34375q0 -0.828125 0.5 -1.328125q0.515625 -0.515625 1.34375 -0.515625q0.828125 0 1.328125 0.515625q0.515625 0.5 0.515625 1.328125q0 0.828125 -0.515625 1.34375q-0.5 0.5 -1.328125 0.5zm1.21875 2.9375l0 15.328125l-2.453125 0l0 -15.328125l2.453125 0zm11.685837 15.640625q-1.90625 0 -3.5 -0.953125q-1.59375 -0.953125 -2.546875 -2.75q-0.9375 -1.796875 -0.9375 -4.28125q0 -2.53125 1.0 -4.3125q1.015625 -1.78125 2.671875 -2.71875q1.65625 -0.9375 3.5625 -0.9375q1.890625 0 3.2812347 0.984375q1.40625 0.984375 1.859375 2.609375l-0.296875 0.21875l0 -10.546875l2.453125 0l0 22.375l-2.15625 0l-0.203125 -3.703125l0.328125 -0.1875q-0.21875 1.34375 -1.03125 2.28125q-0.8125 0.9375 -2.0 1.4375q-1.1718597 0.484375 -2.4843597 0.484375zm0.25 -2.15625q1.46875 0 2.5468597 -0.734375q1.09375 -0.734375 1.6875 -2.09375q0.609375 -1.375 0.609375 -3.203125q0 -1.75 -0.609375 -3.0q-0.59375 -1.265625 -1.65625 -1.9375q-1.0468597 -0.671875 -2.4531097 -0.671875q-2.34375 0 -3.625 1.59375q-1.28125 1.59375 -1.28125 4.21875q0 2.640625 1.25 4.234375q1.265625 1.59375 3.53125 1.59375zm21.940262 -8.0625q0 -1.71875 -0.921875 -2.640625q-0.90625 -0.9375 -2.59375 -0.9375q-1.59375 0 -2.703125 0.6875q-1.109375 0.6875 -1.625 2.21875l-1.984375 -1.21875q0.609375 -1.71875 2.265625 -2.78125q1.65625 -1.0625 4.109375 -1.0625q1.65625 0 3.0 0.578125q1.34375 0.5625 2.125 1.71875q0.78125 1.140625 0.78125 2.953125l0 7.421875q0 1.09375 1.171875 1.09375q0.578125 0 1.125 -0.140625l-0.109375 1.921875q-0.625 0.3125 -1.59375 0.3125q-0.890625 0 -1.609375 -0.328125q-0.703125 -0.34375 -1.109375 -1.03125q-0.390625 -0.703125 -0.390625 -1.734375l0 -0.3125l0.625 0.09375q-0.375 1.1875 -1.265625 1.9375q-0.890625 0.75 -2.0 1.109375q-1.09375 0.359375 -2.171875 0.359375q-1.34375 0 -2.515625 -0.453125q-1.15625 -0.46875 -1.84375 -1.40625q-0.6875 -0.9375 -0.6875 -2.3125q0 -1.71875 1.140625 -2.828125q1.15625 -1.125 3.203125 -1.53125l6.078125 -1.1875l0 2.015625l-4.9375 1.015625q-1.5 0.3125 -2.234375 0.859375q-0.734375 0.546875 -0.734375 1.53125q0 0.953125 0.75 1.546875q0.75 0.59375 2.125 0.59375q0.890625 0 1.703125 -0.21875q0.8125 -0.234375 1.453125 -0.703125q0.640625 -0.484375 1.0 -1.203125q0.375 -0.71875 0.375 -1.703125l0 -4.234375zm11.410034 -9.78125l0 15.453125q0 1.140625 0.640625 1.6875q0.640625 0.546875 1.65625 0.546875q0.890625 0 1.53125 -0.296875q0.640625 -0.3125 1.171875 -0.828125l0.859375 2.046875q-0.703125 0.65625 -1.671875 1.03125q-0.96875 0.359375 -2.21875 0.359375q-1.171875 0 -2.1875 -0.40625q-1.0 -0.421875 -1.609375 -1.328125q-0.59375 -0.90625 -0.625 -2.375l0 -15.203125l2.453125 -0.6875zm5.578125 4.359375l0 2.109375l-11.09375 0l0 -2.109375l11.09375 0zm10.001251 -0.3125q2.171875 0 3.84375 0.953125q1.671875 0.953125 2.609375 2.75q0.953125 1.796875 0.953125 4.265625q0 2.484375 -0.953125 4.28125q-0.9375 1.796875 -2.609375 2.75q-1.671875 0.953125 -3.84375 0.953125q-2.15625 0 -3.84375 -0.953125q-1.6875 -0.953125 -2.640625 -2.75q-0.9375 -1.796875 -0.9375 -4.28125q0 -2.46875 0.9375 -4.265625q0.953125 -1.796875 2.640625 -2.75q1.6875 -0.953125 3.84375 -0.953125zm0 2.125q-1.5625 0 -2.671875 0.703125q-1.109375 0.703125 -1.703125 2.015625q-0.59375 1.296875 -0.59375 3.125q0 1.8125 0.59375 3.140625q0.59375 1.3125 1.703125 2.015625q1.109375 0.703125 2.671875 0.703125q1.5625 0 2.65625 -0.703125q1.109375 -0.703125 1.703125 -2.015625q0.59375 -1.328125 0.59375 -3.140625q0 -1.828125 -0.59375 -3.125q-0.59375 -1.3125 -1.703125 -2.015625q-1.09375 -0.703125 -2.65625 -0.703125zm12.034424 13.515625l0 -15.328125l2.0 0l0.34375 2.515625q0.640625 -1.40625 1.875 -2.109375q1.25 -0.71875 3.015625 -0.71875q0.40625 0 0.875 0.0625q0.484375 0.0625 0.8125 0.25l-0.421875 2.234375q-0.34375 -0.125 -0.75 -0.171875q-0.390625 -0.0625 -1.125 -0.0625q-0.953125 0 -1.921875 0.546875q-0.953125 0.546875 -1.609375 1.671875q-0.640625 1.109375 -0.640625 2.828125l0 8.28125l-2.453125 0zm17.39505 0.3125q-2.25 0 -4.140625 -0.953125q-1.875 -0.953125 -2.890625 -2.703125l2.09375 -1.5q0.671875 1.40625 1.96875 2.203125q1.3125 0.796875 3.140625 0.796875q1.625 0 2.546875 -0.625q0.921875 -0.625 0.921875 -1.640625q0 -0.640625 -0.421875 -1.171875q-0.40625 -0.546875 -1.5625 -0.78125l-3.6875 -0.78125q-2.234375 -0.453125 -3.203125 -1.515625q-0.96875 -1.078125 -0.96875 -2.671875q0 -1.265625 0.71875 -2.296875q0.734375 -1.046875 2.0625 -1.671875q1.328125 -0.640625 3.140625 -0.640625q2.265625 0 3.828125 0.890625q1.5625 0.890625 2.328125 2.515625l-2.046875 1.34375q-0.515625 -1.34375 -1.6875 -1.96875q-1.171875 -0.625 -2.421875 -0.625q-1.109375 0 -1.890625 0.3125q-0.78125 0.296875 -1.203125 0.84375q-0.40625 0.53125 -0.40625 1.203125q0 0.671875 0.453125 1.25q0.46875 0.5625 1.734375 0.796875l3.828125 0.796875q2.140625 0.4375 3.0 1.421875q0.859375 0.96875 0.859375 2.390625q0 1.4375 -0.765625 2.53125q-0.765625 1.078125 -2.15625 1.671875q-1.375 0.578125 -3.171875 0.578125z" fill-rule="nonzero"/><path fill="#000000" fill-opacity="0.0" d="m909.0184 290.07578l0 0c0 -22.546997 18.277954 -40.824966 40.82495 -40.824966l218.28705 0c10.827515 0 21.211426 4.301193 28.867676 11.957352c7.656128 7.6561584 11.957275 18.040161 11.957275 28.867615l0 163.29495c0 22.546997 -18.277954 40.82495 -40.82495 40.82495l-218.28705 0l0 0c-22.546997 0 -40.82495 -18.277954 -40.82495 -40.82495z" fill-rule="evenodd"/><path stroke="#8d3aed" stroke-width="8.0" stroke-linejoin="round" stroke-linecap="butt" d="m909.0184 290.07578l0 0c0 -22.546997 18.277954 -40.824966 40.82495 -40.824966l218.28705 0c10.827515 0 21.211426 4.301193 28.867676 11.957352c7.656128 7.6561584 11.957275 18.040161 11.957275 28.867615l0 163.29495c0 22.546997 -18.277954 40.82495 -40.82495 40.82495l-218.28705 0l0 0c-22.546997 0 -40.82495 -18.277954 -40.82495 -40.82495z" fill-rule="evenodd"/><path fill="#f3f3f3" d="m981.0908 382.66324l0 -20.234375l7.203125 0q3.59375 0 5.234375 1.5q1.65625 1.5 1.65625 4.078125q0 1.53125 -0.890625 2.78125q-0.875 1.234375 -2.5 1.578125l0 0.03125q1.796875 0.328125 2.859375 1.640625q1.0625 1.296875 1.0625 2.953125q0 2.578125 -1.9375 4.125q-1.921875 1.546875 -5.515625 1.546875l-7.171875 0zm2.453125 -2.296875l5.296875 0q2.1875 0 3.234375 -0.890625q1.0625 -0.890625 1.0625 -2.484375q0 -1.625 -1.0625 -2.5q-1.046875 -0.875 -3.234375 -0.875l-5.296875 0l0 6.75zm0 -9.046875l4.78125 0q4.296875 0 4.296875 -3.3125q0 -3.28125 -4.296875 -3.28125l-4.78125 0l0 6.59375zm19.44043 -11.03125l0 18.484375q0 1.15625 0.421875 1.609375q0.4375 0.4375 1.375 0.4375q0.625 0 1.015625 -0.078125q0.40625 -0.09375 1.078125 -0.34375l-0.40625 2.140625q-0.484375 0.21875 -1.078125 0.328125q-0.578125 0.109375 -1.1875 0.109375q-1.875 0 -2.78125 -1.015625q-0.890625 -1.015625 -0.890625 -3.09375l0 -18.578125l2.453125 0zm13.396484 6.734375q2.171875 0 3.84375 0.953125q1.671875 0.953125 2.609375 2.75q0.953125 1.796875 0.953125 4.265625q0 2.484375 -0.953125 4.28125q-0.9375 1.796875 -2.609375 2.75q-1.671875 0.953125 -3.84375 0.953125q-2.15625 0 -3.84375 -0.953125q-1.6875 -0.953125 -2.640625 -2.75q-0.9375 -1.796875 -0.9375 -4.28125q0 -2.46875 0.9375 -4.265625q0.953125 -1.796875 2.640625 -2.75q1.6875 -0.953125 3.84375 -0.953125zm0 2.125q-1.5625 0 -2.671875 0.703125q-1.109375 0.703125 -1.703125 2.015625q-0.59375 1.296875 -0.59375 3.125q0 1.8125 0.59375 3.140625q0.59375 1.3125 1.703125 2.015625q1.109375 0.703125 2.671875 0.703125q1.5625 0 2.65625 -0.703125q1.109375 -0.703125 1.703125 -2.015625q0.59375 -1.328125 0.59375 -3.140625q0 -1.828125 -0.59375 -3.125q-0.59375 -1.3125 -1.703125 -2.015625q-1.09375 -0.703125 -2.65625 -0.703125zm18.393799 -2.125q1.59375 0 2.796875 0.5q1.21875 0.484375 2.09375 1.40625q0.890625 0.921875 1.453125 2.171875l-2.328125 1.109375q-0.5 -1.46875 -1.5 -2.25q-0.984375 -0.78125 -2.578125 -0.78125q-1.53125 0 -2.640625 0.6875q-1.109375 0.6875 -1.6875 2.0q-0.578125 1.296875 -0.578125 3.125q0 1.8125 0.578125 3.140625q0.578125 1.3125 1.6875 2.0q1.109375 0.6875 2.640625 0.6875q1.1875 0 2.0625 -0.359375q0.875 -0.375 1.4375 -1.078125q0.578125 -0.703125 0.78125 -1.71875l2.28125 0.796875q-0.53125 1.40625 -1.4375 2.421875q-0.90625 1.015625 -2.171875 1.5625q-1.265625 0.53125 -2.890625 0.53125q-2.15625 0 -3.84375 -0.953125q-1.6875 -0.953125 -2.640625 -2.75q-0.9375 -1.796875 -0.9375 -4.28125q0 -2.46875 0.9375 -4.265625q0.953125 -1.796875 2.640625 -2.75q1.6875 -0.953125 3.84375 -0.953125zm24.276978 0.3125l-6.625 6.625l-0.578125 0.578125l-5.03125 5.03125l0 -3.0625l9.140625 -9.171875l3.09375 0zm-11.015625 -7.046875l0 22.375l-2.453125 0l0 -22.375l2.453125 0zm4.609375 12.40625l6.765625 9.96875l-2.96875 0l-5.859375 -8.578125l2.0625 -1.390625zm16.126953 -5.671875q1.59375 0 2.796875 0.5q1.21875 0.484375 2.09375 1.40625q0.890625 0.921875 1.453125 2.171875l-2.328125 1.109375q-0.5 -1.46875 -1.5 -2.25q-0.984375 -0.78125 -2.578125 -0.78125q-1.53125 0 -2.640625 0.6875q-1.109375 0.6875 -1.6875 2.0q-0.578125 1.296875 -0.578125 3.125q0 1.8125 0.578125 3.140625q0.578125 1.3125 1.6875 2.0q1.109375 0.6875 2.640625 0.6875q1.1875 0 2.0625 -0.359375q0.875 -0.375 1.4375 -1.078125q0.578125 -0.703125 0.78125 -1.71875l2.28125 0.796875q-0.53125 1.40625 -1.4375 2.421875q-0.90625 1.015625 -2.171875 1.5625q-1.265625 0.53125 -2.890625 0.53125q-2.15625 0 -3.84375 -0.953125q-1.6875 -0.953125 -2.640625 -2.75q-0.9375 -1.796875 -0.9375 -4.28125q0 -2.46875 0.9375 -4.265625q0.953125 -1.796875 2.640625 -2.75q1.6875 -0.953125 3.84375 -0.953125zm10.808228 15.640625l0 -22.375l2.453125 0l0 9.34375q0.796875 -1.375 2.109375 -1.984375q1.328125 -0.625 2.890625 -0.625q1.65625 0 3.0 0.640625q1.359375 0.625 2.171875 1.921875q0.8125 1.28125 0.8125 3.265625l0 9.8125l-2.453125 0l0 -8.953125q0 -2.546875 -1.09375 -3.53125q-1.078125 -1.0 -2.671875 -1.0q-1.109375 0 -2.21875 0.515625q-1.09375 0.515625 -1.828125 1.703125q-0.71875 1.1875 -0.71875 3.140625l0 8.125l-2.453125 0zm27.929321 -9.90625q0 -1.71875 -0.921875 -2.640625q-0.90625 -0.9375 -2.59375 -0.9375q-1.59375 0 -2.703125 0.6875q-1.109375 0.6875 -1.625 2.21875l-1.984375 -1.21875q0.609375 -1.71875 2.265625 -2.78125q1.65625 -1.0625 4.109375 -1.0625q1.65625 0 3.0 0.578125q1.34375 0.5625 2.125 1.71875q0.78125 1.140625 0.78125 2.953125l0 7.421875q0 1.09375 1.171875 1.09375q0.578125 0 1.125 -0.140625l-0.109375 1.921875q-0.625 0.3125 -1.59375 0.3125q-0.890625 0 -1.609375 -0.328125q-0.703125 -0.34375 -1.109375 -1.03125q-0.390625 -0.703125 -0.390625 -1.734375l0 -0.3125l0.625 0.09375q-0.375 1.1875 -1.265625 1.9375q-0.890625 0.75 -2.0 1.109375q-1.09375 0.359375 -2.171875 0.359375q-1.34375 0 -2.515625 -0.453125q-1.15625 -0.46875 -1.84375 -1.40625q-0.6875 -0.9375 -0.6875 -2.3125q0 -1.71875 1.140625 -2.828125q1.15625 -1.125 3.203125 -1.53125l6.078125 -1.1875l0 2.015625l-4.9375 1.015625q-1.5 0.3125 -2.234375 0.859375q-0.734375 0.546875 -0.734375 1.53125q0 0.953125 0.75 1.546875q0.75 0.59375 2.125 0.59375q0.890625 0 1.703125 -0.21875q0.8125 -0.234375 1.453125 -0.703125q0.640625 -0.484375 1.0 -1.203125q0.375 -0.71875 0.375 -1.703125l0 -4.234375zm9.6328125 -8.359375q-0.828125 0 -1.34375 -0.5q-0.5 -0.515625 -0.5 -1.34375q0 -0.828125 0.5 -1.328125q0.515625 -0.515625 1.34375 -0.515625q0.828125 0 1.328125 0.515625q0.515625 0.5 0.515625 1.328125q0 0.828125 -0.515625 1.34375q-0.5 0.5 -1.328125 0.5zm1.21875 2.9375l0 15.328125l-2.453125 0l0 -15.328125l2.453125 0zm5.701416 15.328125l0 -15.328125l2.15625 0l0.21875 3.4375l-0.40625 -0.34375q0.484375 -1.21875 1.3125 -1.96875q0.828125 -0.75 1.921875 -1.09375q1.09375 -0.34375 2.25 -0.34375q1.65625 0 3.0 0.640625q1.359375 0.625 2.171875 1.921875q0.8125 1.28125 0.8125 3.265625l0 9.8125l-2.453125 0l0 -8.953125q0 -2.546875 -1.09375 -3.53125q-1.078125 -1.0 -2.671875 -1.0q-1.109375 0 -2.21875 0.515625q-1.09375 0.515625 -1.828125 1.6875q-0.71875 1.171875 -0.71875 3.125l0 8.15625l-2.453125 0z" fill-rule="nonzero"/><path fill="#000000" fill-opacity="0.0" d="m400.3253 270.56332l516.25195 -1.8267517" fill-rule="evenodd"/><path stroke="#8d3aed" stroke-width="4.0" stroke-linejoin="round" stroke-linecap="butt" d="m400.3253 270.56335l492.25217 -1.7418518" fill-rule="evenodd"/><path fill="#8d3aed" stroke="#8d3aed" stroke-width="4.0" stroke-linecap="butt" d="m892.60077 275.42838l18.128906 -6.671112l-18.17566 -6.5426636z" fill-rule="evenodd"/><path fill="#000000" fill-opacity="0.0" d="m909.14246 454.3443l-501.3543 -1.8267517" fill-rule="evenodd"/><path stroke="#8d3aed" stroke-width="4.0" stroke-linejoin="round" stroke-linecap="butt" d="m909.14246 454.34433l-477.3545 -1.7393494" fill-rule="evenodd"/><path fill="#8d3aed" stroke="#8d3aed" stroke-width="4.0" stroke-linecap="butt" d="m431.81204 445.9981l-18.17633 6.540741l18.128204 6.6730347z" fill-rule="evenodd"/><path fill="#000000" fill-opacity="0.0" d="m534.5612 199.29527l299.937 0l0 48.472443l-299.937 0z" fill-rule="evenodd"/><path fill="#f3f3f3" d="m558.77997 231.33528l-2.046875 0l-1.671875 -4.390625l-7.1875 0l-1.671875 4.390625l-2.015625 0l6.171875 -15.84375l2.28125 0l6.140625 15.84375zm-10.203125 -6.1875l5.78125 0l-2.90625 -7.796875l-2.875 7.796875zm17.186462 6.421875q-1.15625 0 -2.171875 -0.421875q-1.015625 -0.4375 -1.65625 -1.40625q-0.640625 -0.96875 -0.640625 -2.53125l0 -7.875l1.921875 0l0 7.375q0 1.8125 0.78125 2.5q0.796875 0.6875 2.25 0.6875q0.671875 0 1.3125 -0.21875q0.65625 -0.234375 1.171875 -0.71875q0.515625 -0.5 0.8125 -1.265625q0.296875 -0.78125 0.296875 -1.828125l0 -6.53125l1.921875 0l0 12.0l-1.6875 0l-0.109375 -1.828125q-0.625 1.078125 -1.703125 1.578125q-1.0625 0.484375 -2.5 0.484375zm13.292297 -15.640625l0 12.09375q0 0.890625 0.5 1.328125q0.515625 0.421875 1.296875 0.421875q0.703125 0 1.203125 -0.234375q0.5 -0.25 0.90625 -0.65625l0.671875 1.609375q-0.546875 0.5 -1.3125 0.796875q-0.75 0.28125 -1.734375 0.28125q-0.90625 0 -1.703125 -0.3125q-0.78125 -0.328125 -1.25 -1.03125q-0.46875 -0.71875 -0.5 -1.859375l0 -11.90625l1.921875 -0.53125zm4.375 3.40625l0 1.65625l-8.6875 0l0 -1.65625l8.6875 0zm2.8528442 12.0l0 -17.515625l1.921875 0l0 7.3125q0.625 -1.078125 1.65625 -1.546875q1.03125 -0.484375 2.25 -0.484375q1.296875 0 2.34375 0.5q1.0625 0.484375 1.703125 1.5q0.640625 1.0 0.640625 2.546875l0 7.6875l-1.921875 0l0 -7.015625q0 -1.984375 -0.859375 -2.765625q-0.84375 -0.78125 -2.09375 -0.78125q-0.859375 0 -1.734375 0.40625q-0.859375 0.40625 -1.421875 1.34375q-0.5625 0.921875 -0.5625 2.453125l0 6.359375l-1.921875 0zm19.824707 -12.234375q1.703125 0 3.0 0.75q1.3125 0.734375 2.0625 2.140625q0.75 1.40625 0.75 3.34375q0 1.9375 -0.75 3.34375q-0.75 1.40625 -2.0625 2.15625q-1.296875 0.734375 -3.0 0.734375q-1.6875 0 -3.015625 -0.734375q-1.3125 -0.75 -2.0625 -2.15625q-0.734375 -1.40625 -0.734375 -3.34375q0 -1.9375 0.734375 -3.34375q0.75 -1.40625 2.0625 -2.140625q1.328125 -0.75 3.015625 -0.75zm0 1.65625q-1.234375 0 -2.09375 0.546875q-0.859375 0.546875 -1.328125 1.578125q-0.46875 1.015625 -0.46875 2.453125q0 1.421875 0.46875 2.453125q0.46875 1.03125 1.328125 1.578125q0.859375 0.546875 2.09375 0.546875q1.21875 0 2.078125 -0.546875q0.875 -0.546875 1.34375 -1.578125q0.46875 -1.03125 0.46875 -2.453125q0 -1.4375 -0.46875 -2.453125q-0.46875 -1.03125 -1.34375 -1.578125q-0.859375 -0.546875 -2.078125 -0.546875zm9.431213 10.578125l0 -12.0l1.5625 0l0.265625 1.96875q0.5 -1.109375 1.46875 -1.65625q0.96875 -0.546875 2.359375 -0.546875q0.3125 0 0.6875 0.046875q0.375 0.046875 0.640625 0.1875l-0.34375 1.75q-0.265625 -0.09375 -0.578125 -0.140625q-0.3125 -0.046875 -0.875 -0.046875q-0.75 0 -1.515625 0.4375q-0.75 0.421875 -1.25 1.296875q-0.5 0.875 -0.5 2.21875l0 6.484375l-1.921875 0zm17.783325 0l0 -15.84375l5.640625 0q2.8125 0 4.09375 1.1875q1.296875 1.171875 1.296875 3.1875q0 1.203125 -0.703125 2.171875q-0.6875 0.96875 -1.953125 1.234375l0 0.015625q1.421875 0.265625 2.25 1.296875q0.828125 1.015625 0.828125 2.3125q0 2.015625 -1.515625 3.234375q-1.515625 1.203125 -4.328125 1.203125l-5.609375 0zm1.921875 -1.796875l4.140625 0q1.71875 0 2.546875 -0.6875q0.828125 -0.703125 0.828125 -1.953125q0 -1.28125 -0.828125 -1.953125q-0.828125 -0.6875 -2.546875 -0.6875l-4.140625 0l0 5.28125zm0 -7.078125l3.734375 0q3.359375 0 3.359375 -2.59375q0 -2.578125 -3.359375 -2.578125l-3.734375 0l0 5.171875zm15.218811 -8.640625l0 14.46875q0 0.90625 0.328125 1.265625q0.34375 0.34375 1.078125 0.34375q0.484375 0 0.796875 -0.0625q0.3125 -0.078125 0.84375 -0.28125l-0.3125 1.6875q-0.390625 0.171875 -0.84375 0.25q-0.453125 0.078125 -0.9375 0.078125q-1.46875 0 -2.171875 -0.78125q-0.703125 -0.796875 -0.703125 -2.421875l0 -14.546875l1.921875 0zm10.484619 5.28125q1.703125 0 3.0 0.75q1.3125 0.734375 2.0625 2.140625q0.75 1.40625 0.75 3.34375q0 1.9375 -0.75 3.34375q-0.75 1.40625 -2.0625 2.15625q-1.296875 0.734375 -3.0 0.734375q-1.6875 0 -3.015625 -0.734375q-1.3125 -0.75 -2.0625 -2.15625q-0.734375 -1.40625 -0.734375 -3.34375q0 -1.9375 0.734375 -3.34375q0.75 -1.40625 2.0625 -2.140625q1.328125 -0.75 3.015625 -0.75zm0 1.65625q-1.234375 0 -2.09375 0.546875q-0.859375 0.546875 -1.328125 1.578125q-0.46875 1.015625 -0.46875 2.453125q0 1.421875 0.46875 2.453125q0.46875 1.03125 1.328125 1.578125q0.859375 0.546875 2.09375 0.546875q1.21875 0 2.078125 -0.546875q0.875 -0.546875 1.34375 -1.578125q0.46875 -1.03125 0.46875 -2.453125q0 -1.4375 -0.46875 -2.453125q-0.46875 -1.03125 -1.34375 -1.578125q-0.859375 -0.546875 -2.078125 -0.546875zm14.399963 -1.65625q1.25 0 2.1875 0.390625q0.953125 0.375 1.640625 1.09375q0.703125 0.71875 1.140625 1.703125l-1.828125 0.859375q-0.390625 -1.15625 -1.171875 -1.765625q-0.765625 -0.609375 -2.015625 -0.609375q-1.203125 0 -2.078125 0.546875q-0.859375 0.53125 -1.3125 1.5625q-0.453125 1.015625 -0.453125 2.453125q0 1.421875 0.453125 2.453125q0.453125 1.03125 1.3125 1.578125q0.875 0.53125 2.078125 0.53125q0.9375 0 1.609375 -0.28125q0.6875 -0.296875 1.125 -0.84375q0.453125 -0.5625 0.625 -1.34375l1.765625 0.625q-0.40625 1.09375 -1.109375 1.890625q-0.703125 0.796875 -1.703125 1.21875q-1.0 0.40625 -2.265625 0.40625q-1.6875 0 -3.015625 -0.734375q-1.3125 -0.75 -2.0625 -2.15625q-0.734375 -1.40625 -0.734375 -3.34375q0 -1.9375 0.734375 -3.34375q0.75 -1.40625 2.0625 -2.140625q1.328125 -0.75 3.015625 -0.75zm19.002441 0.234375l-5.1875 5.1875l-0.453125 0.453125l-3.9375 3.9375l0 -2.40625l7.15625 -7.171875l2.421875 0zm-8.609375 -5.515625l0 17.515625l-1.921875 0l0 -17.515625l1.921875 0zm3.59375 9.71875l5.3125 7.796875l-2.328125 0l-4.59375 -6.71875l1.609375 -1.078125zm12.140869 8.03125q-1.75 0 -3.234375 -0.734375q-1.46875 -0.75 -2.25 -2.109375l1.625 -1.1875q0.53125 1.109375 1.546875 1.734375q1.015625 0.625 2.46875 0.625q1.265625 0 1.984375 -0.484375q0.71875 -0.5 0.71875 -1.296875q0 -0.5 -0.328125 -0.921875q-0.3125 -0.421875 -1.234375 -0.609375l-2.875 -0.609375q-1.75 -0.359375 -2.515625 -1.1875q-0.75 -0.84375 -0.75 -2.09375q0 -0.984375 0.5625 -1.796875q0.5625 -0.8125 1.609375 -1.296875q1.046875 -0.5 2.46875 -0.5q1.765625 0 2.984375 0.703125q1.234375 0.6875 1.828125 1.953125l-1.609375 1.0625q-0.40625 -1.0625 -1.328125 -1.546875q-0.90625 -0.5 -1.875 -0.5q-0.875 0 -1.484375 0.25q-0.609375 0.234375 -0.9375 0.65625q-0.328125 0.421875 -0.328125 0.9375q0 0.53125 0.359375 0.984375q0.359375 0.4375 1.34375 0.625l3.0 0.625q1.6875 0.34375 2.359375 1.109375q0.671875 0.765625 0.671875 1.875q0 1.125 -0.609375 1.984375q-0.59375 0.84375 -1.671875 1.296875q-1.078125 0.453125 -2.5 0.453125z" fill-rule="nonzero"/><path fill="#000000" fill-opacity="0.0" d="m534.5612 462.9882l299.937 0l0 48.472443l-299.937 0z" fill-rule="evenodd"/><path fill="#f3f3f3" d="m552.15497 479.18445q2.421875 0 3.875 1.25q1.46875 1.25 1.46875 3.390625q0 2.125 -1.484375 3.3125q-1.46875 1.1875 -3.890625 1.1875l-0.15625 0.125l-3.890625 0l0 6.578125l-1.921875 0l0 -15.84375l6.0 0zm-0.03125 7.46875q1.703125 0 2.53125 -0.703125q0.828125 -0.71875 0.828125 -2.125q0 -1.421875 -0.828125 -2.125q-0.828125 -0.71875 -2.53125 -0.71875l-4.046875 0l0 5.671875l4.046875 0zm1.109375 0.390625l5.234375 7.984375l-2.28125 0l-4.5625 -6.9375l1.609375 -1.046875zm13.130066 8.21875q-1.703125 0 -3.046875 -0.734375q-1.328125 -0.75 -2.078125 -2.15625q-0.734375 -1.40625 -0.734375 -3.34375q0 -1.9375 0.734375 -3.34375q0.75 -1.40625 2.046875 -2.140625q1.296875 -0.75 2.953125 -0.75q1.6875 0 2.875 0.71875q1.1875 0.71875 1.8125 1.953125q0.625 1.234375 0.625 2.765625q0 0.40625 -0.03125 0.75q-0.015625 0.328125 -0.0625 0.59375l-9.703125 0l0 -1.703125l8.859375 0l-0.984375 0.203125q0 -1.734375 -0.953125 -2.671875q-0.953125 -0.9375 -2.484375 -0.9375q-1.171875 0 -2.03125 0.546875q-0.84375 0.53125 -1.3125 1.5625q-0.46875 1.015625 -0.46875 2.453125q0 1.421875 0.46875 2.453125q0.484375 1.03125 1.359375 1.578125q0.875 0.53125 2.109375 0.53125q1.3125 0 2.140625 -0.5q0.828125 -0.515625 1.34375 -1.375l1.5 0.890625q-0.453125 0.8125 -1.171875 1.421875q-0.703125 0.59375 -1.65625 0.921875q-0.9375 0.3125 -2.109375 0.3125zm13.801086 -12.46875q1.25 0 2.1875 0.390625q0.953125 0.375 1.640625 1.09375q0.703125 0.71875 1.140625 1.703125l-1.828125 0.859375q-0.390625 -1.15625 -1.171875 -1.765625q-0.765625 -0.609375 -2.015625 -0.609375q-1.203125 0 -2.078125 0.546875q-0.859375 0.53125 -1.3125 1.5625q-0.453125 1.015625 -0.453125 2.453125q0 1.421875 0.453125 2.453125q0.453125 1.03125 1.3125 1.578125q0.875 0.53125 2.078125 0.53125q0.9375 0 1.609375 -0.28125q0.6875 -0.296875 1.125 -0.84375q0.453125 -0.5625 0.625 -1.34375l1.765625 0.625q-0.40625 1.09375 -1.109375 1.890625q-0.703125 0.796875 -1.703125 1.21875q-1.0 0.40625 -2.265625 0.40625q-1.6875 0 -3.015625 -0.734375q-1.3125 -0.75 -2.0625 -2.15625q-0.734375 -1.40625 -0.734375 -3.34375q0 -1.9375 0.734375 -3.34375q0.75 -1.40625 2.0625 -2.140625q1.328125 -0.75 3.015625 -0.75zm13.486816 12.46875q-1.703125 0 -3.046875 -0.734375q-1.328125 -0.75 -2.078125 -2.15625q-0.734375 -1.40625 -0.734375 -3.34375q0 -1.9375 0.734375 -3.34375q0.75 -1.40625 2.046875 -2.140625q1.296875 -0.75 2.953125 -0.75q1.6875 0 2.875 0.71875q1.1875 0.71875 1.8125 1.953125q0.625 1.234375 0.625 2.765625q0 0.40625 -0.03125 0.75q-0.015625 0.328125 -0.0625 0.59375l-9.703125 0l0 -1.703125l8.859375 0l-0.984375 0.203125q0 -1.734375 -0.953125 -2.671875q-0.953125 -0.9375 -2.484375 -0.9375q-1.171875 0 -2.03125 0.546875q-0.84375 0.53125 -1.3125 1.5625q-0.46875 1.015625 -0.46875 2.453125q0 1.421875 0.46875 2.453125q0.484375 1.03125 1.359375 1.578125q0.875 0.53125 2.109375 0.53125q1.3125 0 2.140625 -0.5q0.828125 -0.515625 1.34375 -1.375l1.5 0.890625q-0.453125 0.8125 -1.171875 1.421875q-0.703125 0.59375 -1.65625 0.921875q-0.9375 0.3125 -2.109375 0.3125zm9.785461 -14.53125q-0.640625 0 -1.046875 -0.390625q-0.390625 -0.40625 -0.390625 -1.0625q0 -0.640625 0.390625 -1.03125q0.40625 -0.40625 1.046875 -0.40625q0.65625 0 1.046875 0.40625q0.390625 0.390625 0.390625 1.03125q0 0.65625 -0.390625 1.0625q-0.390625 0.390625 -1.046875 0.390625zm0.96875 2.296875l0 12.0l-1.921875 0l0 -12.0l1.921875 0zm12.399597 0l2.015625 0l-4.984375 12.0l-1.921875 0l-5.0 -12.0l2.1875 0l3.796875 10.0625l3.90625 -10.0625zm9.558105 12.234375q-1.703125 0 -3.046875 -0.734375q-1.328125 -0.75 -2.078125 -2.15625q-0.734375 -1.40625 -0.734375 -3.34375q0 -1.9375 0.734375 -3.34375q0.75 -1.40625 2.046875 -2.140625q1.296875 -0.75 2.953125 -0.75q1.6875 0 2.875 0.71875q1.1875 0.71875 1.8125 1.953125q0.625 1.234375 0.625 2.765625q0 0.40625 -0.03125 0.75q-0.015625 0.328125 -0.0625 0.59375l-9.703125 0l0 -1.703125l8.859375 0l-0.984375 0.203125q0 -1.734375 -0.953125 -2.671875q-0.953125 -0.9375 -2.484375 -0.9375q-1.171875 0 -2.03125 0.546875q-0.84375 0.53125 -1.3125 1.5625q-0.46875 1.015625 -0.46875 2.453125q0 1.421875 0.46875 2.453125q0.484375 1.03125 1.359375 1.578125q0.875 0.53125 2.109375 0.53125q1.3125 0 2.140625 -0.5q0.828125 -0.515625 1.34375 -1.375l1.5 0.890625q-0.453125 0.8125 -1.171875 1.421875q-0.703125 0.59375 -1.65625 0.921875q-0.9375 0.3125 -2.109375 0.3125zm27.868347 -16.078125l0 1.796875l-5.53125 0l0 14.046875l-1.921875 0l0 -14.046875l-5.515625 0l0 -1.796875l12.96875 0zm5.324707 3.609375q1.703125 0 3.0 0.75q1.3125 0.734375 2.0625 2.140625q0.75 1.40625 0.75 3.34375q0 1.9375 -0.75 3.34375q-0.75 1.40625 -2.0625 2.15625q-1.296875 0.734375 -3.0 0.734375q-1.6875 0 -3.015625 -0.734375q-1.3125 -0.75 -2.0625 -2.15625q-0.734375 -1.40625 -0.734375 -3.34375q0 -1.9375 0.734375 -3.34375q0.75 -1.40625 2.0625 -2.140625q1.328125 -0.75 3.015625 -0.75zm0 1.65625q-1.234375 0 -2.09375 0.546875q-0.859375 0.546875 -1.328125 1.578125q-0.46875 1.015625 -0.46875 2.453125q0 1.421875 0.46875 2.453125q0.46875 1.03125 1.328125 1.578125q0.859375 0.546875 2.09375 0.546875q1.21875 0 2.078125 -0.546875q0.875 -0.546875 1.34375 -1.578125q0.46875 -1.03125 0.46875 -2.453125q0 -1.4375 -0.46875 -2.453125q-0.46875 -1.03125 -1.34375 -1.578125q-0.859375 -0.546875 -2.078125 -0.546875zm19.962463 -1.421875l-5.1875 5.1875l-0.453125 0.453125l-3.9375 3.9375l0 -2.40625l7.15625 -7.171875l2.421875 0zm-8.609375 -5.515625l0 17.515625l-1.921875 0l0 -17.515625l1.921875 0zm3.59375 9.71875l5.3125 7.796875l-2.328125 0l-4.59375 -6.71875l1.609375 -1.078125zm12.675903 8.03125q-1.703125 0 -3.046875 -0.734375q-1.328125 -0.75 -2.078125 -2.15625q-0.734375 -1.40625 -0.734375 -3.34375q0 -1.9375 0.734375 -3.34375q0.75 -1.40625 2.046875 -2.140625q1.296875 -0.75 2.953125 -0.75q1.6875 0 2.875 0.71875q1.1875 0.71875 1.8125 1.953125q0.625 1.234375 0.625 2.765625q0 0.40625 -0.03125 0.75q-0.015625 0.328125 -0.0625 0.59375l-9.703125 0l0 -1.703125l8.859375 0l-0.984375 0.203125q0 -1.734375 -0.953125 -2.671875q-0.953125 -0.9375 -2.484375 -0.9375q-1.171875 0 -2.03125 0.546875q-0.84375 0.53125 -1.3125 1.5625q-0.46875 1.015625 -0.46875 2.453125q0 1.421875 0.46875 2.453125q0.484375 1.03125 1.359375 1.578125q0.875 0.53125 2.109375 0.53125q1.3125 0 2.140625 -0.5q0.828125 -0.515625 1.34375 -1.375l1.5 0.890625q-0.453125 0.8125 -1.171875 1.421875q-0.703125 0.59375 -1.65625 0.921875q-0.9375 0.3125 -2.109375 0.3125zm8.832336 -0.234375l0 -12.0l1.671875 0l0.171875 2.6875l-0.3125 -0.265625q0.390625 -0.953125 1.03125 -1.546875q0.65625 -0.59375 1.5 -0.84375q0.859375 -0.265625 1.765625 -0.265625q1.296875 0 2.34375 0.5q1.0625 0.484375 1.703125 1.5q0.640625 1.0 0.640625 2.546875l0 7.6875l-1.921875 0l0 -7.015625q0 -1.984375 -0.859375 -2.765625q-0.84375 -0.78125 -2.09375 -0.78125q-0.859375 0 -1.734375 0.40625q-0.859375 0.40625 -1.421875 1.328125q-0.5625 0.90625 -0.5625 2.4375l0 6.390625l-1.921875 0zm19.168457 0.234375q-1.75 0 -3.234375 -0.734375q-1.46875 -0.75 -2.25 -2.109375l1.625 -1.1875q0.53125 1.109375 1.546875 1.734375q1.015625 0.625 2.46875 0.625q1.265625 0 1.984375 -0.484375q0.71875 -0.5 0.71875 -1.296875q0 -0.5 -0.328125 -0.921875q-0.3125 -0.421875 -1.234375 -0.609375l-2.875 -0.609375q-1.75 -0.359375 -2.515625 -1.1875q-0.75 -0.84375 -0.75 -2.09375q0 -0.984375 0.5625 -1.796875q0.5625 -0.8125 1.609375 -1.296875q1.046875 -0.5 2.46875 -0.5q1.765625 0 2.984375 0.703125q1.234375 0.6875 1.828125 1.953125l-1.609375 1.0625q-0.40625 -1.0625 -1.328125 -1.546875q-0.90625 -0.5 -1.875 -0.5q-0.875 0 -1.484375 0.25q-0.609375 0.234375 -0.9375 0.65625q-0.328125 0.421875 -0.328125 0.9375q0 0.53125 0.359375 0.984375q0.359375 0.4375 1.34375 0.625l3.0 0.625q1.6875 0.34375 2.359375 1.109375q0.671875 0.765625 0.671875 1.875q0 1.125 -0.609375 1.984375q-0.59375 0.84375 -1.671875 1.296875q-1.078125 0.453125 -2.5 0.453125z" fill-rule="nonzero"/></g></svg>