<svg version="1.1" viewBox="0.0 0.0 960.0 540.0" fill="none" stroke="none" stroke-linecap="square" stroke-miterlimit="10" xmlns:xlink="http://www.w3.org/1999/xlink" xmlns="http://www.w3.org/2000/svg"><clipPath id="g28d739317d7_0_97.0"><path d="m0 0l960.0 0l0 540.0l-960.0 0l0 -540.0z" clip-rule="nonzero"/></clipPath><g clip-path="url(#g28d739317d7_0_97.0)"><path fill="#000000" fill-opacity="0.0" d="m0 0l960.0 0l0 540.0l-960.0 0z" fill-rule="evenodd"/><path fill="#000000" fill-opacity="0.0" d="m401.6063 270.0l0 0c0 -39.52968 35.098053 -71.5748 78.39371 -71.5748l0 0c43.295654 0 78.39368 32.04512 78.39368 71.5748l0 0c0 39.529663 -35.098022 71.5748 -78.39368 71.5748l0 0c-43.295654 0 -78.39371 -32.045135 -78.39371 -71.5748z" fill-rule="evenodd"/><path stroke="#ff00ff" stroke-width="3.0" stroke-linejoin="round" stroke-linecap="butt" d="m401.6063 270.0l0 0c0 -39.52968 35.098053 -71.5748 78.39371 -71.5748l0 0c43.295654 0 78.39368 32.04512 78.39368 71.5748l0 0c0 39.529663 -35.098022 71.5748 -78.39368 71.5748l0 0c-43.295654 0 -78.39371 -32.045135 -78.39371 -71.5748z" fill-rule="evenodd"/><path fill="#ff00ff" d="m419.4357 261.06824l0 0c0 -10.149857 8.919037 -18.377945 19.921265 -18.377945l0 0c11.002197 0 19.921265 8.228088 19.921265 18.377945l0 0c0 10.149872 -8.919067 18.37796 -19.921265 18.37796l0 0c-11.002228 0 -19.921265 -8.228088 -19.921265 -18.37796z" fill-rule="evenodd"/><path stroke="#ff00ff" stroke-width="3.0" stroke-linejoin="round" stroke-linecap="butt" d="m419.4357 261.06824l0 0c0 -10.149857 8.919037 -18.377945 19.921265 -18.377945l0 0c11.002197 0 19.921265 8.228088 19.921265 18.377945l0 0c0 10.149872 -8.919067 18.37796 -19.921265 18.37796l0 0c-11.002228 0 -19.921265 -8.228088 -19.921265 -18.37796z" fill-rule="evenodd"/><path fill="#ff00ff" d="m501.0761 219.34908l0 0c0 -2.2352295 1.7133179 -4.047241 3.8267822 -4.047241l0 0c1.0149231 0 1.9882812 0.42640686 2.7059326 1.1854095c0.71765137 0.7590027 1.1208191 1.7884369 1.1208191 2.8618317l0 0c0 2.2352448 -1.7132874 4.0472565 -3.8267517 4.0472565l0 0c-2.1134644 0 -3.8267822 -1.8120117 -3.8267822 -4.0472565z" fill-rule="evenodd"/><path stroke="#ff00ff" stroke-width="3.0" stroke-linejoin="round" stroke-linecap="butt" d="m501.0761 219.34908l0 0c0 -2.2352295 1.7133179 -4.047241 3.8267822 -4.047241l0 0c1.0149231 0 1.9882812 0.42640686 2.7059326 1.1854095c0.71765137 0.7590027 1.1208191 1.7884369 1.1208191 2.8618317l0 0c0 2.2352448 -1.7132874 4.0472565 -3.8267517 4.0472565l0 0c-2.1134644 0 -3.8267822 -1.8120117 -3.8267822 -4.0472565z" fill-rule="evenodd"/><path fill="#ff00ff" d="m497.00787 298.81628l0 0c0 -7.0448914 6.796814 -12.75592 15.181091 -12.75592l0 0c8.384277 0 15.181091 5.711029 15.181091 12.75592l0 0c0 7.0448914 -6.796814 12.75589 -15.181091 12.75589l0 0c-8.384277 0 -15.181091 -5.7109985 -15.181091 -12.75589z" fill-rule="evenodd"/><path stroke="#ff00ff" stroke-width="3.0" stroke-linejoin="round" stroke-linecap="butt" d="m497.00787 298.81628l0 0c0 -7.0448914 6.796814 -12.75592 15.181091 -12.75592l0 0c8.384277 0 15.181091 5.711029 15.181091 12.75592l0 0c0 7.0448914 -6.796814 12.75589 -15.181091 12.75589l0 0c-8.384277 0 -15.181091 -5.7109985 -15.181091 -12.75589z" fill-rule="evenodd"/><path fill="#ff00ff" d="m508.7244 254.72835l0 0c0 -8.384293 6.7968445 -15.181107 15.181122 -15.181107l0 0c4.026245 0 7.8876343 1.5994415 10.73468 4.4464417c2.8469849 2.8470154 4.446411 6.7083893 4.446411 10.734665l0 0c0 8.384293 -6.796814 15.181107 -15.181091 15.181107l0 0c-8.384277 0 -15.181122 -6.796814 -15.181122 -15.181107z" fill-rule="evenodd"/><path stroke="#ff00ff" stroke-width="3.0" stroke-linejoin="round" stroke-linecap="butt" d="m508.7244 254.72835l0 0c0 -8.384293 6.7968445 -15.181107 15.181122 -15.181107l0 0c4.026245 0 7.8876343 1.5994415 10.73468 4.4464417c2.8469849 2.8470154 4.446411 6.7083893 4.446411 10.734665l0 0c0 8.384293 -6.796814 15.181107 -15.181091 15.181107l0 0c-8.384277 0 -15.181122 -6.796814 -15.181122 -15.181107z" fill-rule="evenodd"/></g></svg>