<svg version="1.1" viewBox="0.0 0.0 1310.8556430446195 704.2992125984252" fill="none" stroke="none" stroke-linecap="square" stroke-miterlimit="10" xmlns:xlink="http://www.w3.org/1999/xlink" xmlns="http://www.w3.org/2000/svg"><clipPath id="p.0"><path d="m0 0l1310.8556 0l0 704.2992l-1310.8556 0l0 -704.2992z" clip-rule="nonzero"/></clipPath><g clip-path="url(#p.0)"><path fill="#140526" d="m0 0l1310.8556 0l0 704.2992l-1310.8556 0z" fill-rule="evenodd"/><path stroke="#8d3aed" stroke-width="4.0" stroke-linecap="butt" d="m100.002625 87.71654l0 85.29921" fill-rule="nonzero"/><path stroke="#8d3aed" stroke-width="4.0" stroke-linecap="butt" d="m223.43045 87.71654l0 85.29921" fill-rule="nonzero"/><path stroke="#8d3aed" stroke-width="4.0" stroke-linecap="butt" d="m346.85828 87.71654l0 85.29921" fill-rule="nonzero"/><path stroke="#8d3aed" stroke-width="4.0" stroke-linecap="butt" d="m470.2861 87.71654l0 85.29921" fill-rule="nonzero"/><path stroke="#8d3aed" stroke-width="4.0" stroke-linecap="butt" d="m593.7139 87.71654l0 85.29921" fill-rule="nonzero"/><path stroke="#8d3aed" stroke-width="4.0" stroke-linecap="butt" d="m717.1417 87.71654l0 85.29921" fill-rule="nonzero"/><path stroke="#8d3aed" stroke-width="4.0" stroke-linecap="butt" d="m840.5696 87.71654l0 85.29921" fill-rule="nonzero"/><path stroke="#8d3aed" stroke-width="4.0" stroke-linecap="butt" d="m963.9974 87.71654l0 85.29921" fill-rule="nonzero"/><path stroke="#8d3aed" stroke-width="4.0" stroke-linecap="butt" d="m1087.4252 87.71654l0 85.29921" fill-rule="nonzero"/><path stroke="#8d3aed" stroke-width="4.0" stroke-linecap="butt" d="m1210.853 87.71654l0 85.29921" fill-rule="nonzero"/><path stroke="#8d3aed" stroke-width="4.0" stroke-linecap="butt" d="m98.002625 89.71654l1114.8503 0" fill-rule="nonzero"/><path stroke="#8d3aed" stroke-width="4.0" stroke-linecap="butt" d="m98.002625 171.01575l1114.8503 0" fill-rule="nonzero"/><path fill="#000000" fill-opacity="0.0" d="m500.95538 395.22382l0 0c0 -19.453583 15.770203 -35.223816 35.223816 -35.223816l238.49725 0c9.341919 0 18.30127 3.7110596 24.906982 10.316803c6.605774 6.6057434 10.3168335 15.565063 10.3168335 24.907013l0 140.89099c0 19.453552 -15.770264 35.223755 -35.223816 35.223755l-238.49725 0c-19.453613 0 -35.223816 -15.770203 -35.223816 -35.223755z" fill-rule="evenodd"/><path stroke="#8d3aed" stroke-width="3.0" stroke-linejoin="round" stroke-linecap="butt" d="m500.95538 395.22382l0 0c0 -19.453583 15.770203 -35.223816 35.223816 -35.223816l238.49725 0c9.341919 0 18.30127 3.7110596 24.906982 10.316803c6.605774 6.6057434 10.3168335 15.565063 10.3168335 24.907013l0 140.89099c0 19.453552 -15.770264 35.223755 -35.223816 35.223755l-238.49725 0c-19.453613 0 -35.223816 -15.770203 -35.223816 -35.223755z" fill-rule="evenodd"/><path fill="#f3f3f3" d="m541.9724 452.9293l-1.921875 0l-1.578125 -4.140625l-6.78125 0l-1.59375 4.140625l-1.890625 0l5.8125 -14.953125l2.15625 0l5.796875 14.953125zm-9.625 -5.84375l5.453125 0l-2.734375 -7.359375l-2.71875 7.359375zm14.046814 -10.6875l0 13.65625q0 0.859375 0.3125 1.1875q0.328125 0.328125 1.03125 0.328125q0.453125 0 0.734375 -0.0625q0.296875 -0.078125 0.796875 -0.25l-0.296875 1.578125q-0.359375 0.15625 -0.796875 0.234375q-0.421875 0.078125 -0.875 0.078125q-1.375 0 -2.046875 -0.734375q-0.671875 -0.75 -0.671875 -2.296875l0 -13.71875l1.8125 0zm6.9328003 0l0 13.65625q0 0.859375 0.3125 1.1875q0.328125 0.328125 1.03125 0.328125q0.453125 0 0.734375 -0.0625q0.296875 -0.078125 0.796875 -0.25l-0.296875 1.578125q-0.359375 0.15625 -0.796875 0.234375q-0.421875 0.078125 -0.875 0.078125q-1.375 0 -2.046875 -0.734375q-0.671875 -0.75 -0.671875 -2.296875l0 -13.71875l1.8125 0zm9.90155 4.984375q1.609375 0 2.84375 0.703125q1.234375 0.6875 1.9375 2.015625q0.703125 1.328125 0.703125 3.171875q0 1.828125 -0.703125 3.15625q-0.703125 1.328125 -1.9375 2.03125q-1.234375 0.6875 -2.84375 0.6875q-1.59375 0 -2.84375 -0.6875q-1.234375 -0.703125 -1.9375 -2.03125q-0.703125 -1.328125 -0.703125 -3.15625q0 -1.84375 0.703125 -3.171875q0.703125 -1.328125 1.9375 -2.015625q1.25 -0.703125 2.84375 -0.703125zm0 1.5625q-1.15625 0 -1.96875 0.515625q-0.8125 0.515625 -1.265625 1.484375q-0.4375 0.96875 -0.4375 2.328125q0 1.328125 0.4375 2.3125q0.453125 0.96875 1.265625 1.484375q0.8125 0.515625 1.96875 0.515625q1.15625 0 1.96875 -0.515625q0.8125 -0.515625 1.25 -1.484375q0.453125 -0.984375 0.453125 -2.3125q0 -1.359375 -0.453125 -2.328125q-0.4375 -0.96875 -1.25 -1.484375q-0.8125 -0.515625 -1.96875 -0.515625zm13.59375 -1.5625q1.171875 0 2.0625 0.359375q0.90625 0.359375 1.5625 1.046875q0.65625 0.671875 1.0625 1.59375l-1.71875 0.828125q-0.359375 -1.09375 -1.109375 -1.671875q-0.734375 -0.578125 -1.90625 -0.578125q-1.125 0 -1.953125 0.515625q-0.8125 0.5 -1.25 1.46875q-0.421875 0.96875 -0.421875 2.328125q0 1.328125 0.421875 2.3125q0.4375 0.96875 1.25 1.484375q0.828125 0.5 1.953125 0.5q0.890625 0 1.53125 -0.265625q0.640625 -0.28125 1.0625 -0.796875q0.421875 -0.515625 0.578125 -1.265625l1.671875 0.578125q-0.375 1.046875 -1.046875 1.796875q-0.671875 0.75 -1.609375 1.140625q-0.9375 0.390625 -2.140625 0.390625q-1.59375 0 -2.84375 -0.6875q-1.234375 -0.703125 -1.9375 -2.03125q-0.703125 -1.328125 -0.703125 -3.15625q0 -1.84375 0.703125 -3.171875q0.703125 -1.328125 1.9375 -2.015625q1.25 -0.703125 2.84375 -0.703125zm14.609314 4.234375q0 -1.28125 -0.6875 -1.96875q-0.671875 -0.6875 -1.921875 -0.6875q-1.171875 0 -1.984375 0.515625q-0.8125 0.5 -1.203125 1.640625l-1.46875 -0.90625q0.453125 -1.265625 1.671875 -2.046875q1.21875 -0.78125 3.03125 -0.78125q1.234375 0 2.21875 0.421875q1.0 0.40625 1.578125 1.265625q0.578125 0.84375 0.578125 2.171875l0 5.484375q0 0.828125 0.859375 0.828125q0.4375 0 0.84375 -0.125l-0.09375 1.4375q-0.453125 0.21875 -1.171875 0.21875q-0.65625 0 -1.1875 -0.25q-0.515625 -0.25 -0.8125 -0.75q-0.296875 -0.515625 -0.296875 -1.28125l0 -0.234375l0.453125 0.078125q-0.265625 0.875 -0.921875 1.4375q-0.65625 0.546875 -1.484375 0.8125q-0.8125 0.25 -1.59375 0.25q-1.0 0 -1.859375 -0.328125q-0.859375 -0.34375 -1.375 -1.03125q-0.515625 -0.6875 -0.515625 -1.71875q0 -1.265625 0.84375 -2.09375q0.859375 -0.828125 2.375 -1.125l4.484375 -0.875l0 1.5l-3.640625 0.734375q-1.109375 0.234375 -1.65625 0.640625q-0.546875 0.40625 -0.546875 1.140625q0 0.6875 0.546875 1.140625q0.5625 0.4375 1.59375 0.4375q0.65625 0 1.25 -0.171875q0.609375 -0.171875 1.078125 -0.515625q0.46875 -0.359375 0.734375 -0.890625q0.28125 -0.53125 0.28125 -1.25l0 -3.125zm8.432556 -7.234375l0 11.421875q0 0.84375 0.46875 1.25q0.484375 0.40625 1.234375 0.40625q0.65625 0 1.125 -0.21875q0.484375 -0.234375 0.859375 -0.625l0.640625 1.515625q-0.515625 0.484375 -1.234375 0.75q-0.71875 0.265625 -1.640625 0.265625q-0.859375 0 -1.609375 -0.296875q-0.75 -0.3125 -1.203125 -0.96875q-0.4375 -0.671875 -0.453125 -1.765625l0 -11.234375l1.8125 -0.5zm4.125 3.21875l0 1.5625l-8.203125 0l0 -1.5625l8.203125 0zm3.602356 -2.171875q-0.609375 0 -0.984375 -0.375q-0.375 -0.375 -0.375 -0.984375q0 -0.609375 0.375 -0.984375q0.375 -0.375 0.984375 -0.375q0.609375 0 0.984375 0.375q0.375 0.375 0.375 0.984375q0 0.609375 -0.375 0.984375q-0.375 0.375 -0.984375 0.375zm0.90625 2.171875l0 11.328125l-1.8125 0l0 -11.328125l1.8125 0zm8.90155 -0.21875q1.609375 0 2.84375 0.703125q1.234375 0.6875 1.9375 2.015625q0.703125 1.328125 0.703125 3.171875q0 1.828125 -0.703125 3.15625q-0.703125 1.328125 -1.9375 2.03125q-1.234375 0.6875 -2.84375 0.6875q-1.59375 0 -2.84375 -0.6875q-1.234375 -0.703125 -1.9375 -2.03125q-0.703125 -1.328125 -0.703125 -3.15625q0 -1.84375 0.703125 -3.171875q0.703125 -1.328125 1.9375 -2.015625q1.25 -0.703125 2.84375 -0.703125zm0 1.5625q-1.15625 0 -1.96875 0.515625q-0.8125 0.515625 -1.265625 1.484375q-0.4375 0.96875 -0.4375 2.328125q0 1.328125 0.4375 2.3125q0.453125 0.96875 1.265625 1.484375q0.8125 0.515625 1.96875 0.515625q1.15625 0 1.96875 -0.515625q0.8125 -0.515625 1.25 -1.484375q0.453125 -0.984375 0.453125 -2.3125q0 -1.359375 -0.453125 -2.328125q-0.4375 -0.96875 -1.25 -1.484375q-0.8125 -0.515625 -1.96875 -0.515625zm8.906189 9.984375l0 -11.328125l1.578125 0l0.15625 2.53125l-0.28125 -0.25q0.359375 -0.90625 0.96875 -1.453125q0.609375 -0.5625 1.40625 -0.796875q0.8125 -0.25 1.671875 -0.25q1.21875 0 2.21875 0.46875q1.0 0.453125 1.59375 1.40625q0.609375 0.953125 0.609375 2.421875l0 7.25l-1.8125 0l0 -6.609375q0 -1.890625 -0.8125 -2.625q-0.796875 -0.734375 -1.96875 -0.734375q-0.828125 0 -1.640625 0.390625q-0.8125 0.375 -1.34375 1.25q-0.53125 0.859375 -0.53125 2.296875l0 6.03125l-1.8125 0zm36.546875 -14.953125l0 14.953125l-1.734375 0l0 -9.40625l0.21875 -3.9375l-0.03125 0l-4.921875 13.34375l-1.53125 0l-4.921875 -13.34375l-0.015625 0l0.203125 3.9375l0 9.40625l-1.71875 0l0 -14.953125l2.78125 0l3.28125 9.078125l1.140625 3.75l0.046875 0l1.15625 -3.71875l3.25 -9.109375l2.796875 0zm9.104553 15.171875q-1.609375 0 -2.875 -0.6875q-1.25 -0.703125 -1.953125 -2.03125q-0.703125 -1.328125 -0.703125 -3.15625q0 -1.84375 0.703125 -3.171875q0.703125 -1.328125 1.921875 -2.015625q1.234375 -0.703125 2.796875 -0.703125q1.578125 0 2.703125 0.6875q1.125 0.671875 1.703125 1.84375q0.59375 1.15625 0.59375 2.609375q0 0.375 -0.03125 0.703125q-0.015625 0.3125 -0.0625 0.5625l-9.15625 0l0 -1.609375l8.375 0l-0.9375 0.1875q0 -1.640625 -0.890625 -2.515625q-0.890625 -0.890625 -2.34375 -0.890625q-1.109375 0 -1.921875 0.515625q-0.796875 0.5 -1.25 1.46875q-0.4375 0.96875 -0.4375 2.328125q0 1.328125 0.453125 2.3125q0.453125 0.96875 1.28125 1.484375q0.828125 0.5 1.984375 0.5q1.25 0 2.03125 -0.46875q0.78125 -0.484375 1.25 -1.296875l1.4375 0.84375q-0.4375 0.765625 -1.109375 1.328125q-0.671875 0.5625 -1.5625 0.875q-0.890625 0.296875 -2.0 0.296875zm13.025757 -11.765625q1.171875 0 2.0625 0.359375q0.90625 0.359375 1.5625 1.046875q0.65625 0.671875 1.0625 1.59375l-1.71875 0.828125q-0.359375 -1.09375 -1.109375 -1.671875q-0.734375 -0.578125 -1.90625 -0.578125q-1.125 0 -1.953125 0.515625q-0.8125 0.5 -1.25 1.46875q-0.421875 0.96875 -0.421875 2.328125q0 1.328125 0.421875 2.3125q0.4375 0.96875 1.25 1.484375q0.828125 0.5 1.953125 0.5q0.890625 0 1.53125 -0.265625q0.640625 -0.28125 1.0625 -0.796875q0.421875 -0.515625 0.578125 -1.265625l1.671875 0.578125q-0.375 1.046875 -1.046875 1.796875q-0.671875 0.75 -1.609375 1.140625q-0.9375 0.390625 -2.140625 0.390625q-1.59375 0 -2.84375 -0.6875q-1.234375 -0.703125 -1.9375 -2.03125q-0.703125 -1.328125 -0.703125 -3.15625q0 -1.84375 0.703125 -3.171875q0.703125 -1.328125 1.9375 -2.015625q1.25 -0.703125 2.84375 -0.703125zm7.999939 11.546875l0 -16.53125l1.8125 0l0 6.90625q0.59375 -1.015625 1.5625 -1.46875q0.96875 -0.453125 2.125 -0.453125q1.21875 0 2.21875 0.46875q1.0 0.453125 1.59375 1.40625q0.609375 0.953125 0.609375 2.421875l0 7.25l-1.8125 0l0 -6.609375q0 -1.890625 -0.8125 -2.625q-0.796875 -0.734375 -1.96875 -0.734375q-0.828125 0 -1.640625 0.390625q-0.8125 0.375 -1.34375 1.25q-0.53125 0.875 -0.53125 2.328125l0 6.0l-1.8125 0zm20.633606 -7.3125q0 -1.28125 -0.6875 -1.96875q-0.671875 -0.6875 -1.921875 -0.6875q-1.171875 0 -1.984375 0.515625q-0.8125 0.5 -1.203125 1.640625l-1.46875 -0.90625q0.453125 -1.265625 1.671875 -2.046875q1.21875 -0.78125 3.03125 -0.78125q1.234375 0 2.21875 0.421875q1.0 0.40625 1.578125 1.265625q0.578125 0.84375 0.578125 2.171875l0 5.484375q0 0.828125 0.859375 0.828125q0.4375 0 0.84375 -0.125l-0.09375 1.4375q-0.453125 0.21875 -1.171875 0.21875q-0.65625 0 -1.1875 -0.25q-0.515625 -0.25 -0.8125 -0.75q-0.296875 -0.515625 -0.296875 -1.28125l0 -0.234375l0.453125 0.078125q-0.265625 0.875 -0.921875 1.4375q-0.65625 0.546875 -1.484375 0.8125q-0.8125 0.25 -1.59375 0.25q-1.0 0 -1.859375 -0.328125q-0.859375 -0.34375 -1.375 -1.03125q-0.515625 -0.6875 -0.515625 -1.71875q0 -1.265625 0.84375 -2.09375q0.859375 -0.828125 2.375 -1.125l4.484375 -0.875l0 1.5l-3.640625 0.734375q-1.109375 0.234375 -1.65625 0.640625q-0.546875 0.40625 -0.546875 1.140625q0 0.6875 0.546875 1.140625q0.5625 0.4375 1.59375 0.4375q0.65625 0 1.25 -0.171875q0.609375 -0.171875 1.078125 -0.515625q0.46875 -0.359375 0.734375 -0.890625q0.28125 -0.53125 0.28125 -1.25l0 -3.125zm6.2139893 7.3125l0 -11.328125l1.578125 0l0.15625 2.53125l-0.28125 -0.25q0.359375 -0.90625 0.96875 -1.453125q0.609375 -0.5625 1.40625 -0.796875q0.8125 -0.25 1.671875 -0.25q1.21875 0 2.21875 0.46875q1.0 0.453125 1.59375 1.40625q0.609375 0.953125 0.609375 2.421875l0 7.25l-1.8125 0l0 -6.609375q0 -1.890625 -0.8125 -2.625q-0.796875 -0.734375 -1.96875 -0.734375q-0.828125 0 -1.640625 0.390625q-0.8125 0.375 -1.34375 1.25q-0.53125 0.859375 -0.53125 2.296875l0 6.03125l-1.8125 0zm14.930481 -13.5q-0.609375 0 -0.984375 -0.375q-0.375 -0.375 -0.375 -0.984375q0 -0.609375 0.375 -0.984375q0.375 -0.375 0.984375 -0.375q0.609375 0 0.984375 0.375q0.375 0.375 0.375 0.984375q0 0.609375 -0.375 0.984375q-0.375 0.375 -0.984375 0.375zm0.90625 2.171875l0 11.328125l-1.8125 0l0 -11.328125l1.8125 0zm8.292175 11.546875q-1.65625 0 -3.046875 -0.6875q-1.390625 -0.703125 -2.140625 -2.0l1.53125 -1.109375q0.5 1.046875 1.46875 1.640625q0.96875 0.578125 2.328125 0.578125q1.1875 0 1.859375 -0.453125q0.6875 -0.46875 0.6875 -1.21875q0 -0.484375 -0.3125 -0.875q-0.296875 -0.390625 -1.15625 -0.578125l-2.71875 -0.5625q-1.65625 -0.34375 -2.375 -1.140625q-0.703125 -0.796875 -0.703125 -1.96875q0 -0.921875 0.53125 -1.6875q0.53125 -0.78125 1.515625 -1.234375q0.984375 -0.46875 2.328125 -0.46875q1.671875 0 2.828125 0.65625q1.15625 0.65625 1.71875 1.84375l-1.515625 1.0q-0.390625 -1.0 -1.25 -1.453125q-0.859375 -0.46875 -1.78125 -0.46875q-0.8125 0 -1.390625 0.234375q-0.578125 0.21875 -0.890625 0.625q-0.3125 0.390625 -0.3125 0.890625q0 0.5 0.34375 0.921875q0.34375 0.40625 1.265625 0.59375l2.84375 0.59375q1.578125 0.3125 2.203125 1.046875q0.640625 0.71875 0.640625 1.75q0 1.0625 -0.5625 1.875q-0.5625 0.796875 -1.59375 1.234375q-1.015625 0.421875 -2.34375 0.421875zm7.8616943 -0.21875l0 -11.328125l1.578125 0l0.125 1.765625q0.609375 -1.046875 1.59375 -1.515625q0.984375 -0.46875 2.03125 -0.46875q1.1875 0 2.25 0.546875q1.078125 0.53125 1.640625 1.671875q0.359375 -0.78125 1.015625 -1.265625q0.65625 -0.484375 1.4375 -0.71875q0.78125 -0.234375 1.484375 -0.234375q1.09375 0 2.078125 0.453125q0.984375 0.453125 1.609375 1.40625q0.640625 0.9375 0.640625 2.4375l0 7.25l-1.8125 0l0 -7.0625q0 -1.546875 -0.765625 -2.21875q-0.765625 -0.6875 -1.90625 -0.6875q-0.875 0 -1.65625 0.4375q-0.765625 0.421875 -1.234375 1.265625q-0.453125 0.828125 -0.453125 2.0625l0 6.203125l-1.8125 0l0 -7.0625q0 -1.546875 -0.78125 -2.21875q-0.765625 -0.6875 -1.90625 -0.6875q-0.734375 0 -1.515625 0.40625q-0.78125 0.390625 -1.3125 1.25q-0.515625 0.859375 -0.515625 2.265625l0 6.046875l-1.8125 0zm25.669434 0.21875q-1.65625 0 -3.046875 -0.6875q-1.390625 -0.703125 -2.140625 -2.0l1.53125 -1.109375q0.5 1.046875 1.46875 1.640625q0.96875 0.578125 2.328125 0.578125q1.1875 0 1.859375 -0.453125q0.6875 -0.46875 0.6875 -1.21875q0 -0.484375 -0.3125 -0.875q-0.296875 -0.390625 -1.15625 -0.578125l-2.71875 -0.5625q-1.65625 -0.34375 -2.375 -1.140625q-0.703125 -0.796875 -0.703125 -1.96875q0 -0.921875 0.53125 -1.6875q0.53125 -0.78125 1.515625 -1.234375q0.984375 -0.46875 2.328125 -0.46875q1.671875 0 2.828125 0.65625q1.15625 0.65625 1.71875 1.84375l-1.515625 1.0q-0.390625 -1.0 -1.25 -1.453125q-0.859375 -0.46875 -1.78125 -0.46875q-0.8125 0 -1.390625 0.234375q-0.578125 0.21875 -0.890625 0.625q-0.3125 0.390625 -0.3125 0.890625q0 0.5 0.34375 0.921875q0.34375 0.40625 1.265625 0.59375l2.84375 0.59375q1.578125 0.3125 2.203125 1.046875q0.640625 0.71875 0.640625 1.75q0 1.0625 -0.5625 1.875q-0.5625 0.796875 -1.59375 1.234375q-1.015625 0.421875 -2.34375 0.421875z" fill-rule="nonzero"/><path fill="#f3f3f3" d="m545.94434 474.8093l0 -11.4375l8.015625 0l0 1.296875l-6.640625 0l0 3.6875l5.171875 0l0 1.3125l-5.171875 0l0 3.84375l6.90625 0l0 1.296875l-8.28125 0zm11.477173 -2.078125q0.515625 0 0.828125 0.3125q0.3125 0.3125 0.3125 0.8125q0 0.5 -0.3125 0.8125q-0.3125 0.3125 -0.828125 0.3125q-0.5 0 -0.8125 -0.3125q-0.3125 -0.3125 -0.3125 -0.8125q0 -0.5 0.3125 -0.8125q0.3125 -0.3125 0.8125 -0.3125zm11.565308 -8.1875l0.3125 1.234375q-0.015625 0 -0.0625 0q-0.03125 0 -0.0625 0q-0.84375 0 -1.3125 0.34375q-0.453125 0.328125 -0.453125 1.078125l-0.84375 -0.4375q0 -0.671875 0.3125 -1.171875q0.3125 -0.5 0.84375 -0.765625q0.53125 -0.28125 1.171875 -0.28125q0.03125 0 0.046875 0q0.03125 0 0.046875 0zm-2.640625 9.15625q1.234375 0 1.921875 0.5625q0.703125 0.5625 0.703125 1.5q0 0.84375 -0.5625 1.46875q-0.5625 0.625 -1.515625 0.953125q-0.9375 0.34375 -2.109375 0.34375q-2.046875 0 -3.0625 -0.6875q-1.015625 -0.6875 -1.015625 -1.65625q0 -0.703125 0.453125 -1.25q0.46875 -0.546875 1.5625 -0.609375l-0.125 0.265625q-0.59375 -0.15625 -1.0 -0.53125q-0.40625 -0.375 -0.40625 -1.09375q0 -0.703125 0.53125 -1.203125q0.53125 -0.515625 1.5625 -0.640625l0.921875 0.46875l-0.171875 0q-0.84375 0.078125 -1.203125 0.421875q-0.359375 0.34375 -0.359375 0.734375q0 0.484375 0.359375 0.71875q0.359375 0.234375 1.0 0.234375l2.515625 0zm-1.59375 3.671875q1.015625 0 1.65625 -0.203125q0.65625 -0.203125 0.96875 -0.546875q0.3125 -0.328125 0.3125 -0.703125q0 -0.46875 -0.375 -0.75q-0.375 -0.265625 -1.34375 -0.265625l-2.671875 0q-0.546875 0 -0.9375 0.28125q-0.375 0.28125 -0.375 0.78125q0 0.640625 0.734375 1.015625q0.734375 0.390625 2.03125 0.390625zm-0.109375 -11.40625q1.03125 0 1.828125 0.375q0.8125 0.375 1.265625 1.03125q0.453125 0.65625 0.453125 1.53125q0 0.84375 -0.453125 1.515625q-0.453125 0.671875 -1.265625 1.046875q-0.796875 0.359375 -1.828125 0.359375q-1.71875 0 -2.640625 -0.8125q-0.921875 -0.828125 -0.921875 -2.109375q0 -0.875 0.453125 -1.53125q0.46875 -0.65625 1.265625 -1.03125q0.796875 -0.375 1.84375 -0.375zm0 1.125q-0.90625 0 -1.515625 0.5q-0.609375 0.5 -0.609375 1.3125q0 0.796875 0.609375 1.296875q0.609375 0.5 1.515625 0.5q0.890625 0 1.5 -0.5q0.609375 -0.5 0.609375 -1.296875q0 -0.8125 -0.609375 -1.3125q-0.609375 -0.5 -1.5 -0.5zm6.952881 5.640625q0.515625 0 0.828125 0.3125q0.3125 0.3125 0.3125 0.8125q0 0.5 -0.3125 0.8125q-0.3125 0.3125 -0.828125 0.3125q-0.5 0 -0.8125 -0.3125q-0.3125 -0.3125 -0.3125 -0.8125q0 -0.5 0.3125 -0.8125q0.3125 -0.3125 0.8125 -0.3125zm18.512268 2.078125l-1.46875 0l-1.21875 -3.171875l-5.171875 0l-1.21875 3.171875l-1.453125 0l4.453125 -11.4375l1.640625 0l4.4375 11.4375zm-7.359375 -4.46875l4.171875 0l-2.09375 -5.640625l-2.078125 5.640625zm12.405518 4.640625q-0.828125 0 -1.578125 -0.3125q-0.734375 -0.3125 -1.1875 -1.015625q-0.453125 -0.703125 -0.453125 -1.828125l0 -5.671875l1.375 0l0 5.3125q0 1.3125 0.578125 1.8125q0.578125 0.484375 1.609375 0.484375q0.484375 0 0.953125 -0.15625q0.46875 -0.171875 0.84375 -0.515625q0.375 -0.359375 0.578125 -0.90625q0.21875 -0.5625 0.21875 -1.328125l0 -4.703125l1.390625 0l0 8.65625l-1.21875 0l-0.078125 -1.3125q-0.453125 0.78125 -1.234375 1.140625q-0.765625 0.34375 -1.796875 0.34375zm11.14447 -9.015625q0.890625 0 1.578125 0.28125q0.6875 0.28125 1.1875 0.796875q0.5 0.515625 0.8125 1.234375l-1.3125 0.625q-0.28125 -0.828125 -0.84375 -1.265625q-0.5625 -0.453125 -1.46875 -0.453125q-0.859375 0 -1.484375 0.390625q-0.625 0.390625 -0.953125 1.125q-0.328125 0.734375 -0.328125 1.78125q0 1.015625 0.328125 1.765625q0.328125 0.75 0.953125 1.140625q0.625 0.375 1.484375 0.375q0.6875 0 1.171875 -0.203125q0.5 -0.203125 0.8125 -0.59375q0.328125 -0.40625 0.453125 -0.984375l1.28125 0.453125q-0.296875 0.796875 -0.8125 1.375q-0.5 0.5625 -1.234375 0.875q-0.71875 0.296875 -1.625 0.296875q-1.21875 0 -2.171875 -0.53125q-0.953125 -0.546875 -1.5 -1.546875q-0.53125 -1.015625 -0.53125 -2.421875q0 -1.40625 0.53125 -2.421875q0.546875 -1.015625 1.5 -1.546875q0.953125 -0.546875 2.171875 -0.546875zm8.15686 -2.28125l0 8.734375q0 0.640625 0.359375 0.953125q0.375 0.3125 0.9375 0.3125q0.5 0 0.859375 -0.171875q0.375 -0.171875 0.671875 -0.46875l0.484375 1.15625q-0.40625 0.359375 -0.953125 0.578125q-0.546875 0.203125 -1.25 0.203125q-0.65625 0 -1.234375 -0.234375q-0.5625 -0.234375 -0.90625 -0.734375q-0.34375 -0.515625 -0.359375 -1.359375l0 -8.59375l1.390625 -0.375zm3.15625 2.46875l0 1.1875l-6.28125 0l0 -1.1875l6.28125 0zm2.744812 -1.671875q-0.453125 0 -0.75 -0.28125q-0.28125 -0.296875 -0.28125 -0.75q0 -0.46875 0.28125 -0.75q0.296875 -0.296875 0.75 -0.296875q0.46875 0 0.75 0.296875q0.296875 0.28125 0.296875 0.75q0 0.453125 -0.296875 0.75q-0.28125 0.28125 -0.75 0.28125zm0.703125 1.671875l0 8.65625l-1.390625 0l0 -8.65625l1.390625 0zm6.812378 -0.1875q1.21875 0 2.15625 0.546875q0.953125 0.53125 1.484375 1.546875q0.546875 1.015625 0.546875 2.421875q0 1.40625 -0.546875 2.421875q-0.53125 1.0 -1.484375 1.546875q-0.9375 0.53125 -2.15625 0.53125q-1.21875 0 -2.171875 -0.53125q-0.953125 -0.546875 -1.5 -1.546875q-0.53125 -1.015625 -0.53125 -2.421875q0 -1.40625 0.53125 -2.421875q0.546875 -1.015625 1.5 -1.546875q0.953125 -0.546875 2.171875 -0.546875zm0 1.203125q-0.890625 0 -1.515625 0.40625q-0.625 0.390625 -0.96875 1.125q-0.328125 0.734375 -0.328125 1.78125q0 1.015625 0.328125 1.765625q0.34375 0.75 0.96875 1.15625q0.625 0.390625 1.515625 0.390625q0.875 0 1.5 -0.390625q0.625 -0.40625 0.953125 -1.15625q0.34375 -0.75 0.34375 -1.765625q0 -1.046875 -0.34375 -1.78125q-0.328125 -0.734375 -0.953125 -1.125q-0.625 -0.40625 -1.5 -0.40625zm6.8030396 7.640625l0 -8.65625l1.21875 0l0.125 1.9375l-0.234375 -0.1875q0.28125 -0.703125 0.75 -1.125q0.46875 -0.421875 1.078125 -0.609375q0.609375 -0.203125 1.28125 -0.203125q0.9375 0 1.6875 0.359375q0.765625 0.359375 1.21875 1.09375q0.46875 0.71875 0.46875 1.84375l0 5.546875l-1.390625 0l0 -5.0625q0 -1.4375 -0.625 -2.0q-0.609375 -0.5625 -1.5 -0.5625q-0.625 0 -1.25 0.296875q-0.625 0.296875 -1.03125 0.953125q-0.40625 0.65625 -0.40625 1.765625l0 4.609375l-1.390625 0zm13.851074 0.171875q-1.265625 0 -2.34375 -0.53125q-1.0625 -0.546875 -1.625 -1.53125l1.171875 -0.84375q0.390625 0.796875 1.125 1.25q0.734375 0.4375 1.765625 0.4375q0.921875 0 1.4375 -0.34375q0.53125 -0.359375 0.53125 -0.9375q0 -0.359375 -0.234375 -0.65625q-0.234375 -0.3125 -0.890625 -0.453125l-2.078125 -0.421875q-1.265625 -0.265625 -1.8125 -0.875q-0.546875 -0.609375 -0.546875 -1.5q0 -0.71875 0.40625 -1.296875q0.40625 -0.59375 1.15625 -0.953125q0.75 -0.359375 1.78125 -0.359375q1.28125 0 2.15625 0.515625q0.890625 0.5 1.328125 1.421875l-1.171875 0.75q-0.28125 -0.75 -0.953125 -1.109375q-0.65625 -0.359375 -1.359375 -0.359375q-0.625 0 -1.078125 0.171875q-0.4375 0.171875 -0.671875 0.484375q-0.234375 0.296875 -0.234375 0.671875q0 0.390625 0.265625 0.71875q0.265625 0.3125 0.96875 0.453125l2.171875 0.453125q1.203125 0.234375 1.6875 0.796875q0.484375 0.546875 0.484375 1.34375q0 0.8125 -0.4375 1.4375q-0.421875 0.609375 -1.203125 0.9375q-0.78125 0.328125 -1.796875 0.328125zm6.694336 -2.25q0.421875 0 0.703125 0.21875q0.296875 0.21875 0.453125 0.59375q0.15625 0.359375 0.15625 0.859375q0 0.578125 -0.203125 1.125q-0.203125 0.5625 -0.625 1.03125q-0.40625 0.46875 -1.0625 0.78125l-0.734375 -0.671875q0.46875 -0.15625 0.828125 -0.4375q0.359375 -0.28125 0.578125 -0.625q0.21875 -0.34375 0.296875 -0.703125l-0.078125 -0.046875q-0.0625 0.0625 -0.171875 0.09375q-0.09375 0.03125 -0.3125 0.03125q-0.203125 0 -0.421875 -0.125q-0.21875 -0.109375 -0.375 -0.34375q-0.15625 -0.234375 -0.15625 -0.625q0 -0.3125 0.15625 -0.578125q0.15625 -0.265625 0.40625 -0.421875q0.265625 -0.15625 0.5625 -0.15625zm13.424377 -6.765625q1.21875 0 2.15625 0.546875q0.953125 0.53125 1.484375 1.546875q0.546875 1.015625 0.546875 2.421875q0 1.40625 -0.546875 2.421875q-0.53125 1.0 -1.484375 1.546875q-0.9375 0.53125 -2.15625 0.53125q-1.21875 0 -2.171875 -0.53125q-0.953125 -0.546875 -1.5 -1.546875q-0.53125 -1.015625 -0.53125 -2.421875q0 -1.40625 0.53125 -2.421875q0.546875 -1.015625 1.5 -1.546875q0.953125 -0.546875 2.171875 -0.546875zm0 1.203125q-0.890625 0 -1.515625 0.40625q-0.625 0.390625 -0.96875 1.125q-0.328125 0.734375 -0.328125 1.78125q0 1.015625 0.328125 1.765625q0.34375 0.75 0.96875 1.15625q0.625 0.390625 1.515625 0.390625q0.875 0 1.5 -0.390625q0.625 -0.40625 0.953125 -1.15625q0.34375 -0.75 0.34375 -1.765625q0 -1.046875 -0.34375 -1.78125q-0.328125 -0.734375 -0.953125 -1.125q-0.625 -0.40625 -1.5 -0.40625zm6.8030396 7.640625l0 -8.65625l1.21875 0l0.125 1.9375l-0.234375 -0.1875q0.28125 -0.703125 0.75 -1.125q0.46875 -0.421875 1.078125 -0.609375q0.609375 -0.203125 1.28125 -0.203125q0.9375 0 1.6875 0.359375q0.765625 0.359375 1.21875 1.09375q0.46875 0.71875 0.46875 1.84375l0 5.546875l-1.390625 0l0 -5.0625q0 -1.4375 -0.625 -2.0q-0.609375 -0.5625 -1.5 -0.5625q-0.625 0 -1.25 0.296875q-0.625 0.296875 -1.03125 0.953125q-0.40625 0.65625 -0.40625 1.765625l0 4.609375l-1.390625 0zm16.39795 -5.25l0 1.4375l-5.71875 0l0 -1.4375l5.71875 0zm6.5404053 5.421875q-1.0625 0 -1.96875 -0.53125q-0.90625 -0.546875 -1.4375 -1.546875q-0.53125 -1.015625 -0.53125 -2.421875q0 -1.4375 0.5625 -2.4375q0.578125 -1.015625 1.515625 -1.546875q0.9375 -0.53125 2.0 -0.53125q1.078125 0 1.859375 0.5625q0.796875 0.546875 1.0625 1.46875l-0.1875 0.125l0 -5.96875l1.390625 0l0 12.65625l-1.203125 0l-0.125 -2.09375l0.1875 -0.109375q-0.125 0.765625 -0.59375 1.296875q-0.453125 0.53125 -1.125 0.8125q-0.65625 0.265625 -1.40625 0.265625zm0.140625 -1.21875q0.828125 0 1.4375 -0.40625q0.625 -0.421875 0.953125 -1.1875q0.34375 -0.765625 0.34375 -1.8125q0 -0.984375 -0.34375 -1.6875q-0.328125 -0.71875 -0.921875 -1.09375q-0.59375 -0.390625 -1.390625 -0.390625q-1.328125 0 -2.0625 0.90625q-0.71875 0.890625 -0.71875 2.390625q0 1.484375 0.703125 2.390625q0.71875 0.890625 2.0 0.890625zm10.97406 1.21875q-1.234375 0 -2.203125 -0.53125q-0.953125 -0.546875 -1.5 -1.546875q-0.53125 -1.015625 -0.53125 -2.421875q0 -1.40625 0.53125 -2.421875q0.546875 -1.015625 1.484375 -1.546875q0.9375 -0.546875 2.125 -0.546875q1.21875 0 2.078125 0.53125q0.859375 0.515625 1.296875 1.40625q0.453125 0.890625 0.453125 2.0q0 0.296875 -0.015625 0.546875q-0.015625 0.234375 -0.046875 0.421875l-7.0 0l0 -1.21875l6.390625 0l-0.703125 0.125q0 -1.234375 -0.6875 -1.90625q-0.6875 -0.6875 -1.796875 -0.6875q-0.84375 0 -1.46875 0.390625q-0.609375 0.390625 -0.953125 1.125q-0.328125 0.734375 -0.328125 1.78125q0 1.015625 0.34375 1.765625q0.34375 0.75 0.96875 1.140625q0.640625 0.375 1.53125 0.375q0.953125 0 1.546875 -0.359375q0.59375 -0.359375 0.96875 -0.984375l1.078125 0.640625q-0.328125 0.59375 -0.84375 1.03125q-0.5 0.421875 -1.1875 0.65625q-0.6875 0.234375 -1.53125 0.234375zm6.373291 -0.171875l0 -8.65625l1.21875 0l0.078125 1.34375q0.46875 -0.796875 1.21875 -1.15625q0.765625 -0.375 1.5625 -0.375q0.921875 0 1.734375 0.421875q0.8125 0.421875 1.234375 1.28125q0.28125 -0.59375 0.78125 -0.953125q0.515625 -0.375 1.109375 -0.5625q0.59375 -0.1875 1.125 -0.1875q0.84375 0 1.59375 0.359375q0.75 0.34375 1.234375 1.078125q0.484375 0.71875 0.484375 1.859375l0 5.546875l-1.375 0l0 -5.40625q0 -1.171875 -0.59375 -1.6875q-0.59375 -0.53125 -1.453125 -0.53125q-0.6875 0 -1.28125 0.328125q-0.578125 0.328125 -0.9375 0.96875q-0.34375 0.640625 -0.34375 1.578125l0 4.75l-1.390625 0l0 -5.40625q0 -1.171875 -0.59375 -1.6875q-0.59375 -0.53125 -1.453125 -0.53125q-0.578125 0 -1.171875 0.3125q-0.59375 0.296875 -1.0 0.953125q-0.390625 0.65625 -0.390625 1.734375l0 4.625l-1.390625 0zm21.57611 -5.59375q0 -0.96875 -0.53125 -1.5q-0.515625 -0.53125 -1.46875 -0.53125q-0.890625 0 -1.515625 0.390625q-0.625 0.390625 -0.921875 1.25l-1.125 -0.6875q0.34375 -0.96875 1.28125 -1.5625q0.9375 -0.609375 2.328125 -0.609375q0.9375 0 1.6875 0.328125q0.765625 0.3125 1.203125 0.96875q0.453125 0.65625 0.453125 1.671875l0 4.1875q0 0.625 0.65625 0.625q0.328125 0 0.640625 -0.078125l-0.078125 1.09375q-0.34375 0.171875 -0.890625 0.171875q-0.5 0 -0.90625 -0.1875q-0.390625 -0.203125 -0.625 -0.59375q-0.21875 -0.390625 -0.21875 -0.96875l0 -0.171875l0.34375 0.046875q-0.203125 0.671875 -0.71875 1.109375q-0.5 0.421875 -1.125 0.625q-0.625 0.1875 -1.21875 0.1875q-0.765625 0 -1.421875 -0.25q-0.65625 -0.265625 -1.046875 -0.796875q-0.390625 -0.53125 -0.390625 -1.3125q0 -0.96875 0.640625 -1.59375q0.65625 -0.640625 1.8125 -0.859375l3.4375 -0.671875l0 1.140625l-2.796875 0.5625q-0.84375 0.171875 -1.265625 0.484375q-0.40625 0.3125 -0.40625 0.875q0 0.53125 0.421875 0.875q0.421875 0.328125 1.203125 0.328125q0.5 0 0.953125 -0.125q0.46875 -0.125 0.828125 -0.390625q0.359375 -0.28125 0.5625 -0.6875q0.21875 -0.40625 0.21875 -0.953125l0 -2.390625zm4.745117 5.59375l0 -8.65625l1.21875 0l0.125 1.9375l-0.234375 -0.1875q0.28125 -0.703125 0.75 -1.125q0.46875 -0.421875 1.078125 -0.609375q0.609375 -0.203125 1.28125 -0.203125q0.9375 0 1.6875 0.359375q0.765625 0.359375 1.21875 1.09375q0.46875 0.71875 0.46875 1.84375l0 5.546875l-1.390625 0l0 -5.0625q0 -1.4375 -0.625 -2.0q-0.609375 -0.5625 -1.5 -0.5625q-0.625 0 -1.25 0.296875q-0.625 0.296875 -1.03125 0.953125q-0.40625 0.65625 -0.40625 1.765625l0 4.609375l-1.390625 0zm14.101074 0.171875q-1.0625 0 -1.96875 -0.53125q-0.90625 -0.546875 -1.4375 -1.546875q-0.53125 -1.015625 -0.53125 -2.421875q0 -1.4375 0.5625 -2.4375q0.578125 -1.015625 1.515625 -1.546875q0.9375 -0.53125 2.0 -0.53125q1.078125 0 1.859375 0.5625q0.796875 0.546875 1.0625 1.46875l-0.1875 0.125l0 -5.96875l1.390625 0l0 12.65625l-1.203125 0l-0.125 -2.09375l0.1875 -0.109375q-0.125 0.765625 -0.59375 1.296875q-0.453125 0.53125 -1.125 0.8125q-0.65625 0.265625 -1.40625 0.265625zm0.140625 -1.21875q0.828125 0 1.4375 -0.40625q0.625 -0.421875 0.953125 -1.1875q0.34375 -0.765625 0.34375 -1.8125q0 -0.984375 -0.34375 -1.6875q-0.328125 -0.71875 -0.921875 -1.09375q-0.59375 -0.390625 -1.390625 -0.390625q-1.328125 0 -2.0625 0.90625q-0.71875 0.890625 -0.71875 2.390625q0 1.484375 0.703125 2.390625q0.71875 0.890625 2.0 0.890625zm8.03656 -1.03125q0.421875 0 0.703125 0.21875q0.296875 0.21875 0.453125 0.59375q0.15625 0.359375 0.15625 0.859375q0 0.578125 -0.203125 1.125q-0.203125 0.5625 -0.625 1.03125q-0.40625 0.46875 -1.0625 0.78125l-0.734375 -0.671875q0.46875 -0.15625 0.828125 -0.4375q0.359375 -0.28125 0.578125 -0.625q0.21875 -0.34375 0.296875 -0.703125l-0.078125 -0.046875q-0.0625 0.0625 -0.171875 0.09375q-0.09375 0.03125 -0.3125 0.03125q-0.203125 0 -0.421875 -0.125q-0.21875 -0.109375 -0.375 -0.34375q-0.15625 -0.234375 -0.15625 -0.625q0 -0.3125 0.15625 -0.578125q0.15625 -0.265625 0.40625 -0.421875q0.265625 -0.15625 0.5625 -0.15625z" fill-rule="nonzero"/><path fill="#f3f3f3" d="m616.0062 485.54367l0.3125 1.234375q-0.015625 0 -0.0625 0q-0.03125 0 -0.0625 0q-0.84375 0 -1.3125 0.34375q-0.453125 0.328125 -0.453125 1.078125l-0.84375 -0.4375q0 -0.671875 0.3125 -1.171875q0.3125 -0.5 0.84375 -0.765625q0.53125 -0.28125 1.171875 -0.28125q0.03125 0 0.046875 0q0.03125 0 0.046875 0zm-2.640625 9.15625q1.234375 0 1.921875 0.5625q0.703125 0.5625 0.703125 1.5q0 0.84375 -0.5625 1.46875q-0.5625 0.625 -1.515625 0.953125q-0.9375 0.34375 -2.109375 0.34375q-2.046875 0 -3.0625 -0.6875q-1.015625 -0.6875 -1.015625 -1.65625q0 -0.703125 0.453125 -1.25q0.46875 -0.546875 1.5625 -0.609375l-0.125 0.265625q-0.59375 -0.15625 -1.0 -0.53125q-0.40625 -0.375 -0.40625 -1.09375q0 -0.703125 0.53125 -1.203125q0.53125 -0.515625 1.5625 -0.640625l0.921875 0.46875l-0.171875 0q-0.84375 0.078125 -1.203125 0.421875q-0.359375 0.34375 -0.359375 0.734375q0 0.484375 0.359375 0.71875q0.359375 0.234375 1.0 0.234375l2.515625 0zm-1.59375 3.671875q1.015625 0 1.65625 -0.203125q0.65625 -0.203125 0.96875 -0.546875q0.3125 -0.328125 0.3125 -0.703125q0 -0.46875 -0.375 -0.75q-0.375 -0.265625 -1.34375 -0.265625l-2.671875 0q-0.546875 0 -0.9375 0.28125q-0.375 0.28125 -0.375 0.78125q0 0.640625 0.734375 1.015625q0.734375 0.390625 2.03125 0.390625zm-0.109375 -11.40625q1.03125 0 1.828125 0.375q0.8125 0.375 1.265625 1.03125q0.453125 0.65625 0.453125 1.53125q0 0.84375 -0.453125 1.515625q-0.453125 0.671875 -1.265625 1.046875q-0.796875 0.359375 -1.828125 0.359375q-1.71875 0 -2.640625 -0.8125q-0.921875 -0.828125 -0.921875 -2.109375q0 -0.875 0.453125 -1.53125q0.46875 -0.65625 1.265625 -1.03125q0.796875 -0.375 1.84375 -0.375zm0 1.125q-0.90625 0 -1.515625 0.5q-0.609375 0.5 -0.609375 1.3125q0 0.796875 0.609375 1.296875q0.609375 0.5 1.515625 0.5q0.890625 0 1.5 -0.5q0.609375 -0.5 0.609375 -1.296875q0 -0.8125 -0.609375 -1.3125q-0.609375 -0.5 -1.5 -0.5zm9.859131 -1.125q1.21875 0 2.15625 0.546875q0.953125 0.53125 1.484375 1.546875q0.546875 1.015625 0.546875 2.421875q0 1.40625 -0.546875 2.421875q-0.53125 1.0 -1.484375 1.546875q-0.9375 0.53125 -2.15625 0.53125q-1.21875 0 -2.171875 -0.53125q-0.953125 -0.546875 -1.5 -1.546875q-0.53125 -1.015625 -0.53125 -2.421875q0 -1.40625 0.53125 -2.421875q0.546875 -1.015625 1.5 -1.546875q0.953125 -0.546875 2.171875 -0.546875zm0 1.203125q-0.890625 0 -1.515625 0.40625q-0.625 0.390625 -0.96875 1.125q-0.328125 0.734375 -0.328125 1.78125q0 1.015625 0.328125 1.765625q0.34375 0.75 0.96875 1.15625q0.625 0.390625 1.515625 0.390625q0.875 0 1.5 -0.390625q0.625 -0.40625 0.953125 -1.15625q0.34375 -0.75 0.34375 -1.765625q0 -1.046875 -0.34375 -1.78125q-0.328125 -0.734375 -0.953125 -1.125q-0.625 -0.40625 -1.5 -0.40625zm12.537415 -1.015625l1.453125 0l-3.59375 8.65625l-1.390625 0l-3.609375 -8.65625l1.578125 0l2.734375 7.25l2.828125 -7.25zm6.901245 8.828125q-1.234375 0 -2.203125 -0.53125q-0.953125 -0.546875 -1.5 -1.546875q-0.53125 -1.015625 -0.53125 -2.421875q0 -1.40625 0.53125 -2.421875q0.546875 -1.015625 1.484375 -1.546875q0.9375 -0.546875 2.125 -0.546875q1.21875 0 2.078125 0.53125q0.859375 0.515625 1.296875 1.40625q0.453125 0.890625 0.453125 2.0q0 0.296875 -0.015625 0.546875q-0.015625 0.234375 -0.046875 0.421875l-7.0 0l0 -1.21875l6.390625 0l-0.703125 0.125q0 -1.234375 -0.6875 -1.90625q-0.6875 -0.6875 -1.796875 -0.6875q-0.84375 0 -1.46875 0.390625q-0.609375 0.390625 -0.953125 1.125q-0.328125 0.734375 -0.328125 1.78125q0 1.015625 0.34375 1.765625q0.34375 0.75 0.96875 1.140625q0.640625 0.375 1.53125 0.375q0.953125 0 1.546875 -0.359375q0.59375 -0.359375 0.96875 -0.984375l1.078125 0.640625q-0.328125 0.59375 -0.84375 1.03125q-0.5 0.421875 -1.1875 0.65625q-0.6875 0.234375 -1.53125 0.234375zm6.37323 -0.171875l0 -8.65625l1.125 0l0.1875 1.40625q0.375 -0.796875 1.078125 -1.1875q0.703125 -0.40625 1.703125 -0.40625q0.21875 0 0.484375 0.046875q0.28125 0.03125 0.46875 0.140625l-0.25 1.25q-0.1875 -0.0625 -0.421875 -0.09375q-0.21875 -0.03125 -0.625 -0.03125q-0.546875 0 -1.09375 0.3125q-0.546875 0.3125 -0.90625 0.9375q-0.359375 0.625 -0.359375 1.609375l0 4.671875l-1.390625 0zm7.0698853 0l0 -8.65625l1.21875 0l0.125 1.9375l-0.234375 -0.1875q0.28125 -0.703125 0.75 -1.125q0.46875 -0.421875 1.078125 -0.609375q0.609375 -0.203125 1.28125 -0.203125q0.9375 0 1.6875 0.359375q0.765625 0.359375 1.21875 1.09375q0.46875 0.71875 0.46875 1.84375l0 5.546875l-1.390625 0l0 -5.0625q0 -1.4375 -0.625 -2.0q-0.609375 -0.5625 -1.5 -0.5625q-0.625 0 -1.25 0.296875q-0.625 0.296875 -1.03125 0.953125q-0.40625 0.65625 -0.40625 1.765625l0 4.609375l-1.390625 0zm15.788513 -5.59375q0 -0.96875 -0.53125 -1.5q-0.515625 -0.53125 -1.46875 -0.53125q-0.890625 0 -1.515625 0.390625q-0.625 0.390625 -0.921875 1.25l-1.125 -0.6875q0.34375 -0.96875 1.28125 -1.5625q0.9375 -0.609375 2.328125 -0.609375q0.9375 0 1.6875 0.328125q0.765625 0.3125 1.203125 0.96875q0.453125 0.65625 0.453125 1.671875l0 4.1875q0 0.625 0.65625 0.625q0.328125 0 0.640625 -0.078125l-0.078125 1.09375q-0.34375 0.171875 -0.890625 0.171875q-0.5 0 -0.90625 -0.1875q-0.390625 -0.203125 -0.625 -0.59375q-0.21875 -0.390625 -0.21875 -0.96875l0 -0.171875l0.34375 0.046875q-0.203125 0.671875 -0.71875 1.109375q-0.5 0.421875 -1.125 0.625q-0.625 0.1875 -1.21875 0.1875q-0.765625 0 -1.421875 -0.25q-0.65625 -0.265625 -1.046875 -0.796875q-0.390625 -0.53125 -0.390625 -1.3125q0 -0.96875 0.640625 -1.59375q0.65625 -0.640625 1.8125 -0.859375l3.4375 -0.671875l0 1.140625l-2.796875 0.5625q-0.84375 0.171875 -1.265625 0.484375q-0.40625 0.3125 -0.40625 0.875q0 0.53125 0.421875 0.875q0.421875 0.328125 1.203125 0.328125q0.5 0 0.953125 -0.125q0.46875 -0.125 0.828125 -0.390625q0.359375 -0.28125 0.5625 -0.6875q0.21875 -0.40625 0.21875 -0.953125l0 -2.390625zm4.745178 5.59375l0 -8.65625l1.21875 0l0.125 1.9375l-0.234375 -0.1875q0.28125 -0.703125 0.75 -1.125q0.46875 -0.421875 1.078125 -0.609375q0.609375 -0.203125 1.28125 -0.203125q0.9375 0 1.6875 0.359375q0.765625 0.359375 1.21875 1.09375q0.46875 0.71875 0.46875 1.84375l0 5.546875l-1.390625 0l0 -5.0625q0 -1.4375 -0.625 -2.0q-0.609375 -0.5625 -1.5 -0.5625q-0.625 0 -1.25 0.296875q-0.625 0.296875 -1.03125 0.953125q-0.40625 0.65625 -0.40625 1.765625l0 4.609375l-1.390625 0zm14.319763 -8.84375q0.890625 0 1.578125 0.28125q0.6875 0.28125 1.1875 0.796875q0.5 0.515625 0.8125 1.234375l-1.3125 0.625q-0.28125 -0.828125 -0.84375 -1.265625q-0.5625 -0.453125 -1.46875 -0.453125q-0.859375 0 -1.484375 0.390625q-0.625 0.390625 -0.953125 1.125q-0.328125 0.734375 -0.328125 1.78125q0 1.015625 0.328125 1.765625q0.328125 0.75 0.953125 1.140625q0.625 0.375 1.484375 0.375q0.6875 0 1.171875 -0.203125q0.5 -0.203125 0.8125 -0.59375q0.328125 -0.40625 0.453125 -0.984375l1.28125 0.453125q-0.296875 0.796875 -0.8125 1.375q-0.5 0.5625 -1.234375 0.875q-0.71875 0.296875 -1.625 0.296875q-1.21875 0 -2.171875 -0.53125q-0.953125 -0.546875 -1.5 -1.546875q-0.53125 -1.015625 -0.53125 -2.421875q0 -1.40625 0.53125 -2.421875q0.546875 -1.015625 1.5 -1.546875q0.953125 -0.546875 2.171875 -0.546875zm9.734985 9.015625q-1.234375 0 -2.203125 -0.53125q-0.953125 -0.546875 -1.5 -1.546875q-0.53125 -1.015625 -0.53125 -2.421875q0 -1.40625 0.53125 -2.421875q0.546875 -1.015625 1.484375 -1.546875q0.9375 -0.546875 2.125 -0.546875q1.21875 0 2.078125 0.53125q0.859375 0.515625 1.296875 1.40625q0.453125 0.890625 0.453125 2.0q0 0.296875 -0.015625 0.546875q-0.015625 0.234375 -0.046875 0.421875l-7.0 0l0 -1.21875l6.390625 0l-0.703125 0.125q0 -1.234375 -0.6875 -1.90625q-0.6875 -0.6875 -1.796875 -0.6875q-0.84375 0 -1.46875 0.390625q-0.609375 0.390625 -0.953125 1.125q-0.328125 0.734375 -0.328125 1.78125q0 1.015625 0.34375 1.765625q0.34375 0.75 0.96875 1.140625q0.640625 0.375 1.53125 0.375q0.953125 0 1.546875 -0.359375q0.59375 -0.359375 0.96875 -0.984375l1.078125 0.640625q-0.328125 0.59375 -0.84375 1.03125q-0.5 0.421875 -1.1875 0.65625q-0.6875 0.234375 -1.53125 0.234375z" fill-rule="nonzero"/><path fill="#000000" fill-opacity="0.0" d="m655.4278 360.0l-1.0708618 -189.44882" fill-rule="evenodd"/><path stroke="#8d3aed" stroke-width="4.0" stroke-linejoin="round" stroke-linecap="butt" d="m655.4278 360.0l-0.93518066 -165.4492" fill-rule="evenodd"/><path fill="#8d3aed" stroke="#8d3aed" stroke-width="4.0" stroke-linecap="butt" d="m661.0994 194.51346l-6.7094116 -18.114761l-6.5042114 18.189438z" fill-rule="evenodd"/><path fill="#000000" fill-opacity="0.0" d="m575.5932 39.687664l264.97638 0l0 42.01575l-264.97638 0z" fill-rule="evenodd"/><path fill="#f3f3f3" d="m586.6088 66.607666l0 -12.312504l8.640625 0l0 1.40625l-7.15625 0l0 3.96875l5.5625 0l0 1.390625l-5.5625 0l0 4.140629l7.4375 0l0 1.40625l-8.921875 0zm12.512024 -9.328129l2.78125 3.90625l0.09375 0.125l3.828125 5.296879l-1.828125 0l-2.890625 -4.046879l-0.171875 -0.203125l-3.671875 -5.078125l1.859375 0zm6.640625 0l-3.6875 4.984375l-0.09375 0l-3.203125 4.343754l-1.734375 0l4.0625 -5.359379l0.109375 0l2.796875 -3.96875l1.75 0zm5.9454956 9.515629q-1.328125 0 -2.375 -0.578125q-1.03125 -0.578125 -1.609375 -1.671875q-0.578125 -1.0937538 -0.578125 -2.6093788q0 -1.5 0.578125 -2.59375q0.578125 -1.09375 1.578125 -1.671875q1.015625 -0.578125 2.3125 -0.578125q1.296875 0 2.21875 0.5625q0.921875 0.5625 1.40625 1.53125q0.484375 0.953125 0.484375 2.140625q0 0.3125 -0.015625 0.578125q-0.015625 0.265625 -0.046875 0.46875l-7.546875 0l0 -1.328125l6.890625 0l-0.765625 0.15625q0 -1.34375 -0.734375 -2.0625q-0.734375 -0.734375 -1.9375 -0.734375q-0.90625 0 -1.578125 0.421875q-0.65625 0.40625 -1.03125 1.203125q-0.359375 0.796875 -0.359375 1.90625q0 1.109375 0.375 1.921875q0.375 0.7968788 1.046875 1.2187538q0.6875 0.40625 1.640625 0.40625q1.03125 0 1.671875 -0.390625q0.640625 -0.390625 1.03125 -1.0625l1.1875 0.6875q-0.359375 0.640625 -0.921875 1.109375q-0.546875 0.46875 -1.28125 0.71875q-0.734375 0.25 -1.640625 0.25zm10.717773 -9.703129q0.96875 0 1.703125 0.296875q0.75 0.296875 1.28125 0.859375q0.546875 0.5625 0.875 1.328125l-1.40625 0.671875q-0.296875 -0.890625 -0.90625 -1.359375q-0.609375 -0.484375 -1.578125 -0.484375q-0.9375 0 -1.609375 0.421875q-0.671875 0.40625 -1.03125 1.203125q-0.34375 0.796875 -0.34375 1.90625q0 1.109375 0.34375 1.921875q0.359375 0.7968788 1.03125 1.2187538q0.671875 0.40625 1.609375 0.40625q0.71875 0 1.25 -0.21875q0.53125 -0.21875 0.875 -0.640625q0.359375 -0.4375 0.484375 -1.0625038l1.375 0.4843788q-0.3125 0.859375 -0.859375 1.484375q-0.546875 0.609375 -1.328125 0.9375q-0.78125 0.328125 -1.765625 0.328125q-1.296875 0 -2.328125 -0.578125q-1.03125 -0.578125 -1.609375 -1.671875q-0.578125 -1.0937538 -0.578125 -2.6093788q0 -1.5 0.578125 -2.59375q0.578125 -1.09375 1.609375 -1.671875q1.03125 -0.578125 2.328125 -0.578125zm9.963135 9.703129q-0.890625 0 -1.6875 -0.328125q-0.796875 -0.34375 -1.296875 -1.09375q-0.484375 -0.765625 -0.484375 -1.9687538l0 -6.125l1.5 0l0 5.734375q0 1.4062538 0.609375 1.9375038q0.609375 0.53125 1.734375 0.53125q0.515625 0 1.015625 -0.171875q0.515625 -0.171875 0.90625 -0.546875q0.40625 -0.390625 0.640625 -0.9843788q0.234375 -0.609375 0.234375 -1.421875l0 -5.078125l1.5 0l0 9.328129l-1.3125 0l-0.09375 -1.421875q-0.484375 0.84375 -1.3125 1.234375q-0.828125 0.375 -1.953125 0.375zm10.33905 -12.171879l0 9.406254q0 0.6875 0.390625 1.03125q0.390625 0.328125 1.0 0.328125q0.546875 0 0.9375 -0.171875q0.390625 -0.1875 0.71875 -0.515625l0.515625 1.25q-0.421875 0.390625 -1.015625 0.625q-0.59375 0.21875 -1.359375 0.21875q-0.703125 0 -1.328125 -0.25q-0.609375 -0.25 -0.96875 -0.796875q-0.359375 -0.5625 -0.390625 -1.453125l0 -9.250004l1.5 -0.421875zm3.390625 2.65625l0 1.28125l-6.75 0l0 -1.28125l6.75 0zm2.9732056 -1.796875q-0.5 0 -0.8125 -0.296875q-0.3125 -0.3125 -0.3125 -0.8125q0 -0.515625 0.3125 -0.8125q0.3125 -0.3125 0.8125 -0.3125q0.5 0 0.796875 0.3125q0.3125 0.296875 0.3125 0.8125q0 0.5 -0.3125 0.8125q-0.296875 0.296875 -0.796875 0.296875zm0.75 1.796875l0 9.328129l-1.5 0l0 -9.328129l1.5 0zm7.3219604 -0.1875q1.328125 0 2.34375 0.578125q1.015625 0.578125 1.59375 1.671875q0.578125 1.09375 0.578125 2.59375q0 1.515625 -0.578125 2.6093788q-0.578125 1.09375 -1.59375 1.671875q-1.015625 0.578125 -2.34375 0.578125q-1.296875 0 -2.328125 -0.578125q-1.03125 -0.578125 -1.609375 -1.671875q-0.578125 -1.0937538 -0.578125 -2.6093788q0 -1.5 0.578125 -2.59375q0.578125 -1.09375 1.609375 -1.671875q1.03125 -0.578125 2.328125 -0.578125zm0 1.28125q-0.953125 0 -1.625 0.4375q-0.671875 0.421875 -1.03125 1.21875q-0.359375 0.796875 -0.359375 1.90625q0 1.109375 0.359375 1.921875q0.359375 0.7968788 1.03125 1.2343788q0.671875 0.421875 1.625 0.421875q0.953125 0 1.625 -0.421875q0.671875 -0.4375 1.03125 -1.2343788q0.375 -0.8125 0.375 -1.921875q0 -1.109375 -0.375 -1.90625q-0.359375 -0.796875 -1.03125 -1.21875q-0.671875 -0.4375 -1.625 -0.4375zm7.3343506 8.234379l0 -9.328129l1.3125 0l0.125 2.09375l-0.25 -0.203125q0.3125 -0.75 0.8125 -1.203125q0.5 -0.46875 1.15625 -0.671875q0.671875 -0.203125 1.375 -0.203125q1.015625 0 1.828125 0.390625q0.828125 0.375 1.3125 1.15625q0.5 0.78125 0.5 2.0l0 5.968754l-1.5 0l0 -5.453129q0 -1.546875 -0.65625 -2.140625q-0.65625 -0.609375 -1.625 -0.609375q-0.671875 0 -1.34375 0.3125q-0.671875 0.3125 -1.109375 1.03125q-0.4375 0.703125 -0.4375 1.890625l0 4.968754l-1.5 0zm28.11316 -3.1562538q-0.390625 1.0468788 -1.125 1.8125038q-0.71875 0.75 -1.703125 1.140625q-0.96875 0.390625 -2.125 0.390625q-1.765625 0 -3.046875 -0.765625q-1.265625 -0.78125 -1.96875 -2.2031288q-0.703125 -1.421875 -0.703125 -3.375q0 -1.953125 0.703125 -3.375q0.703125 -1.421875 1.96875 -2.1875q1.28125 -0.78125 3.0 -0.78125q1.203125 0 2.125 0.328125q0.9375 0.328125 1.59375 0.96875q0.671875 0.640625 1.0625 1.578125l-1.46875 0.6875q-0.421875 -1.0625 -1.203125 -1.609375q-0.765625 -0.546875 -2.0 -0.546875q-1.25 0 -2.203125 0.59375q-0.9375 0.578125 -1.484375 1.6875q-0.53125 1.09375 -0.53125 2.65625q0 1.546875 0.5 2.65625q0.515625 1.1093788 1.4375 1.7031288q0.9375 0.578125 2.21875 0.578125q1.21875 0 2.125 -0.625q0.921875 -0.625 1.34375 -1.8750038l1.484375 0.5625zm6.4544067 -6.359375q1.328125 0 2.34375 0.578125q1.015625 0.578125 1.59375 1.671875q0.578125 1.09375 0.578125 2.59375q0 1.515625 -0.578125 2.6093788q-0.578125 1.09375 -1.59375 1.671875q-1.015625 0.578125 -2.34375 0.578125q-1.296875 0 -2.328125 -0.578125q-1.03125 -0.578125 -1.609375 -1.671875q-0.578125 -1.0937538 -0.578125 -2.6093788q0 -1.5 0.578125 -2.59375q0.578125 -1.09375 1.609375 -1.671875q1.03125 -0.578125 2.328125 -0.578125zm0 1.28125q-0.953125 0 -1.625 0.4375q-0.671875 0.421875 -1.03125 1.21875q-0.359375 0.796875 -0.359375 1.90625q0 1.109375 0.359375 1.921875q0.359375 0.7968788 1.03125 1.2343788q0.671875 0.421875 1.625 0.421875q0.953125 0 1.625 -0.421875q0.671875 -0.4375 1.03125 -1.2343788q0.375 -0.8125 0.375 -1.921875q0 -1.109375 -0.375 -1.90625q-0.359375 -0.796875 -1.03125 -1.21875q-0.671875 -0.4375 -1.625 -0.4375zm7.3344116 8.234379l0 -9.328129l1.21875 0l0.203125 1.53125q0.390625 -0.859375 1.140625 -1.28125q0.765625 -0.4375 1.84375 -0.4375q0.234375 0 0.515625 0.046875q0.296875 0.03125 0.5 0.140625l-0.25 1.359375q-0.203125 -0.078125 -0.453125 -0.109375q-0.234375 -0.03125 -0.6875 -0.03125q-0.578125 0 -1.171875 0.34375q-0.578125 0.328125 -0.96875 1.015625q-0.390625 0.671875 -0.390625 1.71875l0 5.031254l-1.5 0zm11.219299 0.1875q-1.328125 0 -2.375 -0.578125q-1.03125 -0.578125 -1.609375 -1.671875q-0.578125 -1.0937538 -0.578125 -2.6093788q0 -1.5 0.578125 -2.59375q0.578125 -1.09375 1.578125 -1.671875q1.015625 -0.578125 2.3125 -0.578125q1.296875 0 2.21875 0.5625q0.921875 0.5625 1.40625 1.53125q0.484375 0.953125 0.484375 2.140625q0 0.3125 -0.015625 0.578125q-0.015625 0.265625 -0.046875 0.46875l-7.546875 0l0 -1.328125l6.890625 0l-0.765625 0.15625q0 -1.34375 -0.734375 -2.0625q-0.734375 -0.734375 -1.9375 -0.734375q-0.90625 0 -1.578125 0.421875q-0.65625 0.40625 -1.03125 1.203125q-0.359375 0.796875 -0.359375 1.90625q0 1.109375 0.375 1.921875q0.375 0.7968788 1.046875 1.2187538q0.6875 0.40625 1.640625 0.40625q1.03125 0 1.671875 -0.390625q0.640625 -0.390625 1.03125 -1.0625l1.1875 0.6875q-0.359375 0.640625 -0.921875 1.109375q-0.546875 0.46875 -1.28125 0.71875q-0.734375 0.25 -1.640625 0.25zm10.217834 0q-1.359375 0 -2.515625 -0.578125q-1.140625 -0.578125 -1.75 -1.640625l1.265625 -0.9218788q0.40625 0.8593788 1.1875 1.3437538q0.796875 0.484375 1.921875 0.484375q0.984375 0 1.546875 -0.375q0.5625 -0.390625 0.5625 -1.0q0 -0.3906288 -0.25 -0.7187538q-0.25 -0.328125 -0.96875 -0.46875l-2.234375 -0.46875q-1.359375 -0.28125 -1.953125 -0.9375q-0.578125 -0.65625 -0.578125 -1.625q0 -0.765625 0.4375 -1.390625q0.4375 -0.640625 1.25 -1.015625q0.8125 -0.390625 1.90625 -0.390625q1.390625 0 2.328125 0.546875q0.953125 0.53125 1.421875 1.53125l-1.25 0.8125q-0.3125 -0.8125 -1.03125 -1.1875q-0.703125 -0.390625 -1.46875 -0.390625q-0.671875 0 -1.15625 0.1875q-0.46875 0.1875 -0.71875 0.515625q-0.25 0.3125 -0.25 0.734375q0 0.40625 0.28125 0.75q0.28125 0.34375 1.046875 0.5l2.328125 0.484375q1.3125 0.25 1.828125 0.859375q0.53125 0.59375 0.53125 1.453125q0 0.8750038 -0.46875 1.5468788q-0.46875 0.65625 -1.3125 1.015625q-0.84375 0.34375 -1.9375 0.34375z" fill-rule="nonzero"/><path fill="#000000" fill-opacity="0.0" d="m666.68243 244.5l264.97638 0l0 64.62991l-264.97638 0z" fill-rule="evenodd"/><path fill="#f3f3f3" d="m681.6512 258.91998q1.625 0 2.796875 0.671875q1.171875 0.65625 1.96875 1.9375l-1.25 0.96875q-0.703125 -1.1875 -1.578125 -1.671875q-0.859375 -0.5 -2.078125 -0.5q-1.0 0 -1.640625 0.28125q-0.640625 0.265625 -0.9375 0.734375q-0.296875 0.453125 -0.296875 1.03125q0 0.65625 0.40625 1.15625q0.40625 0.484375 1.640625 0.765625l2.671875 0.59375q1.765625 0.390625 2.46875 1.1875q0.703125 0.796875 0.703125 1.96875q0 1.046875 -0.59375 1.859375q-0.59375 0.8125 -1.65625 1.265625q-1.0625 0.4375 -2.5 0.4375q-1.34375 0 -2.359375 -0.359375q-1.015625 -0.375 -1.75 -0.984375q-0.71875 -0.609375 -1.1875 -1.375l1.3125 -1.0625q0.359375 0.703125 0.90625 1.25q0.5625 0.53125 1.359375 0.828125q0.796875 0.296875 1.8125 0.296875q0.953125 0 1.65625 -0.21875q0.703125 -0.234375 1.078125 -0.6875q0.375 -0.46875 0.375 -1.125q0 -0.59375 -0.40625 -1.0625q-0.390625 -0.484375 -1.46875 -0.71875l-2.890625 -0.65625q-1.140625 -0.265625 -1.84375 -0.71875q-0.6875 -0.453125 -1.0 -1.078125q-0.3125 -0.625 -0.3125 -1.359375q0 -0.984375 0.546875 -1.8125q0.5625 -0.84375 1.59375 -1.34375q1.03125 -0.5 2.453125 -0.5zm11.583618 2.984375q0.96875 0 1.703125 0.296875q0.75 0.296875 1.28125 0.859375q0.546875 0.5625 0.875 1.328125l-1.40625 0.671875q-0.296875 -0.890625 -0.90625 -1.359375q-0.609375 -0.484375 -1.578125 -0.484375q-0.9375 0 -1.609375 0.421875q-0.671875 0.40625 -1.03125 1.203125q-0.34375 0.796875 -0.34375 1.90625q0 1.109375 0.34375 1.921875q0.359375 0.796875 1.03125 1.21875q0.671875 0.40625 1.609375 0.40625q0.71875 0 1.25 -0.21875q0.53125 -0.21875 0.875 -0.640625q0.359375 -0.4375 0.484375 -1.0625l1.375 0.484375q-0.3125 0.859375 -0.859375 1.484375q-0.546875 0.609375 -1.328125 0.9375q-0.78125 0.328125 -1.765625 0.328125q-1.296875 0 -2.328125 -0.578125q-1.03125 -0.578125 -1.609375 -1.671875q-0.578125 -1.09375 -0.578125 -2.609375q0 -1.5 0.578125 -2.59375q0.578125 -1.09375 1.609375 -1.671875q1.03125 -0.578125 2.328125 -0.578125zm6.588135 9.515625l0 -13.625l1.5 0l0 5.703125q0.484375 -0.84375 1.28125 -1.21875q0.796875 -0.375 1.75 -0.375q1.015625 0 1.828125 0.390625q0.828125 0.375 1.3125 1.15625q0.5 0.78125 0.5 2.0l0 5.96875l-1.5 0l0 -5.453125q0 -1.546875 -0.65625 -2.140625q-0.65625 -0.609375 -1.625 -0.609375q-0.671875 0 -1.34375 0.3125q-0.671875 0.3125 -1.109375 1.03125q-0.4375 0.71875 -0.4375 1.921875l0 4.9375l-1.5 0zm15.454468 0.1875q-1.328125 0 -2.375 -0.578125q-1.03125 -0.578125 -1.609375 -1.671875q-0.578125 -1.09375 -0.578125 -2.609375q0 -1.5 0.578125 -2.59375q0.578125 -1.09375 1.578125 -1.671875q1.015625 -0.578125 2.3125 -0.578125q1.296875 0 2.21875 0.5625q0.921875 0.5625 1.40625 1.53125q0.484375 0.953125 0.484375 2.140625q0 0.3125 -0.015625 0.578125q-0.015625 0.265625 -0.046875 0.46875l-7.546875 0l0 -1.328125l6.890625 0l-0.765625 0.15625q0 -1.34375 -0.734375 -2.0625q-0.734375 -0.734375 -1.9375 -0.734375q-0.90625 0 -1.578125 0.421875q-0.65625 0.40625 -1.03125 1.203125q-0.359375 0.796875 -0.359375 1.90625q0 1.109375 0.375 1.921875q0.375 0.796875 1.046875 1.21875q0.6875 0.40625 1.640625 0.40625q1.03125 0 1.671875 -0.390625q0.640625 -0.390625 1.03125 -1.0625l1.1875 0.6875q-0.359375 0.640625 -0.921875 1.109375q-0.546875 0.46875 -1.28125 0.71875q-0.734375 0.25 -1.640625 0.25zm10.499084 0q-1.15625 0 -2.125 -0.578125q-0.96875 -0.578125 -1.546875 -1.671875q-0.578125 -1.09375 -0.578125 -2.609375q0 -1.546875 0.609375 -2.625q0.609375 -1.078125 1.609375 -1.640625q1.015625 -0.578125 2.171875 -0.578125q1.15625 0 2.0 0.59375q0.859375 0.59375 1.140625 1.59375l-0.1875 0.125l0 -6.421875l1.5 0l0 13.625l-1.3125 0l-0.125 -2.25l0.203125 -0.125q-0.140625 0.828125 -0.640625 1.40625q-0.484375 0.5625 -1.203125 0.859375q-0.71875 0.296875 -1.515625 0.296875zm0.140625 -1.3125q0.90625 0 1.5625 -0.4375q0.671875 -0.453125 1.03125 -1.28125q0.359375 -0.828125 0.359375 -1.953125q0 -1.0625 -0.359375 -1.828125q-0.359375 -0.765625 -1.015625 -1.171875q-0.640625 -0.40625 -1.5 -0.40625q-1.421875 0 -2.203125 0.96875q-0.78125 0.96875 -0.78125 2.5625q0 1.609375 0.765625 2.578125q0.765625 0.96875 2.140625 0.96875zm11.291199 1.3125q-0.890625 0 -1.6875 -0.328125q-0.796875 -0.34375 -1.296875 -1.09375q-0.484375 -0.765625 -0.484375 -1.96875l0 -6.125l1.5 0l0 5.734375q0 1.40625 0.609375 1.9375q0.609375 0.53125 1.734375 0.53125q0.515625 0 1.015625 -0.171875q0.515625 -0.171875 0.90625 -0.546875q0.40625 -0.390625 0.640625 -0.984375q0.234375 -0.609375 0.234375 -1.421875l0 -5.078125l1.5 0l0 9.328125l-1.3125 0l-0.09375 -1.421875q-0.484375 0.84375 -1.3125 1.234375q-0.828125 0.375 -1.953125 0.375zm9.5578 -13.8125l0 11.25q0 0.71875 0.25 0.984375q0.265625 0.265625 0.84375 0.265625q0.375 0 0.609375 -0.046875q0.25 -0.0625 0.65625 -0.203125l-0.234375 1.296875q-0.296875 0.140625 -0.65625 0.203125q-0.359375 0.0625 -0.71875 0.0625q-1.140625 0 -1.703125 -0.609375q-0.546875 -0.625 -0.546875 -1.890625l0 -11.3125l1.5 0zm8.193176 13.8125q-1.328125 0 -2.375 -0.578125q-1.03125 -0.578125 -1.609375 -1.671875q-0.578125 -1.09375 -0.578125 -2.609375q0 -1.5 0.578125 -2.59375q0.578125 -1.09375 1.578125 -1.671875q1.015625 -0.578125 2.3125 -0.578125q1.296875 0 2.21875 0.5625q0.921875 0.5625 1.40625 1.53125q0.484375 0.953125 0.484375 2.140625q0 0.3125 -0.015625 0.578125q-0.015625 0.265625 -0.046875 0.46875l-7.546875 0l0 -1.328125l6.890625 0l-0.765625 0.15625q0 -1.34375 -0.734375 -2.0625q-0.734375 -0.734375 -1.9375 -0.734375q-0.90625 0 -1.578125 0.421875q-0.65625 0.40625 -1.03125 1.203125q-0.359375 0.796875 -0.359375 1.90625q0 1.109375 0.375 1.921875q0.375 0.796875 1.046875 1.21875q0.6875 0.40625 1.640625 0.40625q1.03125 0 1.671875 -0.390625q0.640625 -0.390625 1.03125 -1.0625l1.1875 0.6875q-0.359375 0.640625 -0.921875 1.109375q-0.546875 0.46875 -1.28125 0.71875q-0.734375 0.25 -1.640625 0.25zm17.845215 -12.5q1.25 0 2.171875 0.453125q0.921875 0.453125 1.4375 1.296875q0.53125 0.84375 0.53125 2.0q0 1.15625 -0.53125 2.0q-0.515625 0.828125 -1.4375 1.296875q-0.921875 0.453125 -2.171875 0.453125l-2.859375 0l0 4.8125l-1.484375 0l0 -12.3125l4.34375 0zm-0.21875 6.09375q1.453125 0 2.125 -0.59375q0.671875 -0.609375 0.671875 -1.75q0 -1.15625 -0.671875 -1.75q-0.671875 -0.59375 -2.125 -0.59375l-2.640625 0l0 4.6875l2.640625 0zm12.427185 0.1875q0 -1.046875 -0.5625 -1.609375q-0.5625 -0.5625 -1.59375 -0.5625q-0.96875 0 -1.640625 0.421875q-0.671875 0.40625 -0.984375 1.34375l-1.21875 -0.75q0.375 -1.046875 1.375 -1.6875q1.015625 -0.640625 2.515625 -0.640625q1.0 0 1.8125 0.34375q0.828125 0.34375 1.296875 1.046875q0.484375 0.703125 0.484375 1.796875l0 4.515625q0 0.671875 0.71875 0.671875q0.34375 0 0.6875 -0.09375l-0.078125 1.171875q-0.375 0.1875 -0.96875 0.1875q-0.546875 0 -0.984375 -0.203125q-0.421875 -0.203125 -0.671875 -0.625q-0.234375 -0.421875 -0.234375 -1.046875l0 -0.1875l0.375 0.046875q-0.21875 0.734375 -0.765625 1.1875q-0.53125 0.453125 -1.203125 0.671875q-0.671875 0.21875 -1.328125 0.21875q-0.828125 0 -1.53125 -0.28125q-0.703125 -0.28125 -1.125 -0.84375q-0.421875 -0.578125 -0.421875 -1.40625q0 -1.046875 0.6875 -1.71875q0.703125 -0.6875 1.953125 -0.9375l3.703125 -0.734375l0 1.234375l-3.0 0.625q-0.921875 0.1875 -1.375 0.53125q-0.4375 0.328125 -0.4375 0.921875q0 0.578125 0.453125 0.9375q0.453125 0.359375 1.296875 0.359375q0.546875 0 1.03125 -0.140625q0.5 -0.140625 0.890625 -0.421875q0.390625 -0.296875 0.609375 -0.734375q0.234375 -0.4375 0.234375 -1.03125l0 -2.578125zm5.106262 6.03125l0 -9.328125l1.21875 0l0.203125 1.53125q0.390625 -0.859375 1.140625 -1.28125q0.765625 -0.4375 1.84375 -0.4375q0.234375 0 0.515625 0.046875q0.296875 0.03125 0.5 0.140625l-0.25 1.359375q-0.203125 -0.078125 -0.453125 -0.109375q-0.234375 -0.03125 -0.6875 -0.03125q-0.578125 0 -1.171875 0.34375q-0.578125 0.328125 -0.96875 1.015625q-0.390625 0.671875 -0.390625 1.71875l0 5.03125l-1.5 0zm12.803589 -6.03125q0 -1.046875 -0.5625 -1.609375q-0.5625 -0.5625 -1.59375 -0.5625q-0.96875 0 -1.640625 0.421875q-0.671875 0.40625 -0.984375 1.34375l-1.21875 -0.75q0.375 -1.046875 1.375 -1.6875q1.015625 -0.640625 2.515625 -0.640625q1.0 0 1.8125 0.34375q0.828125 0.34375 1.296875 1.046875q0.484375 0.703125 0.484375 1.796875l0 4.515625q0 0.671875 0.71875 0.671875q0.34375 0 0.6875 -0.09375l-0.078125 1.171875q-0.375 0.1875 -0.96875 0.1875q-0.546875 0 -0.984375 -0.203125q-0.421875 -0.203125 -0.671875 -0.625q-0.234375 -0.421875 -0.234375 -1.046875l0 -0.1875l0.375 0.046875q-0.21875 0.734375 -0.765625 1.1875q-0.53125 0.453125 -1.203125 0.671875q-0.671875 0.21875 -1.328125 0.21875q-0.828125 0 -1.53125 -0.28125q-0.703125 -0.28125 -1.125 -0.84375q-0.421875 -0.578125 -0.421875 -1.40625q0 -1.046875 0.6875 -1.71875q0.703125 -0.6875 1.953125 -0.9375l3.703125 -0.734375l0 1.234375l-3.0 0.625q-0.921875 0.1875 -1.375 0.53125q-0.4375 0.328125 -0.4375 0.921875q0 0.578125 0.453125 0.9375q0.453125 0.359375 1.296875 0.359375q0.546875 0 1.03125 -0.140625q0.5 -0.140625 0.890625 -0.421875q0.390625 -0.296875 0.609375 -0.734375q0.234375 -0.4375 0.234375 -1.03125l0 -2.578125zm8.965637 -3.484375q0.96875 0 1.703125 0.296875q0.75 0.296875 1.28125 0.859375q0.546875 0.5625 0.875 1.328125l-1.40625 0.671875q-0.296875 -0.890625 -0.90625 -1.359375q-0.609375 -0.484375 -1.578125 -0.484375q-0.9375 0 -1.609375 0.421875q-0.671875 0.40625 -1.03125 1.203125q-0.34375 0.796875 -0.34375 1.90625q0 1.109375 0.34375 1.921875q0.359375 0.796875 1.03125 1.21875q0.671875 0.40625 1.609375 0.40625q0.71875 0 1.25 -0.21875q0.53125 -0.21875 0.875 -0.640625q0.359375 -0.4375 0.484375 -1.0625l1.375 0.484375q-0.3125 0.859375 -0.859375 1.484375q-0.546875 0.609375 -1.328125 0.9375q-0.78125 0.328125 -1.765625 0.328125q-1.296875 0 -2.328125 -0.578125q-1.03125 -0.578125 -1.609375 -1.671875q-0.578125 -1.09375 -0.578125 -2.609375q0 -1.5 0.578125 -2.59375q0.578125 -1.09375 1.609375 -1.671875q1.03125 -0.578125 2.328125 -0.578125zm6.588135 9.515625l0 -13.625l1.5 0l0 5.703125q0.484375 -0.84375 1.28125 -1.21875q0.796875 -0.375 1.75 -0.375q1.015625 0 1.828125 0.390625q0.828125 0.375 1.3125 1.15625q0.5 0.78125 0.5 2.0l0 5.96875l-1.5 0l0 -5.453125q0 -1.546875 -0.65625 -2.140625q-0.65625 -0.609375 -1.625 -0.609375q-0.671875 0 -1.34375 0.3125q-0.671875 0.3125 -1.109375 1.03125q-0.4375 0.71875 -0.4375 1.921875l0 4.9375l-1.5 0zm17.001343 -6.03125q0 -1.046875 -0.5625 -1.609375q-0.5625 -0.5625 -1.59375 -0.5625q-0.96875 0 -1.640625 0.421875q-0.671875 0.40625 -0.984375 1.34375l-1.21875 -0.75q0.375 -1.046875 1.375 -1.6875q1.015625 -0.640625 2.515625 -0.640625q1.0 0 1.8125 0.34375q0.828125 0.34375 1.296875 1.046875q0.484375 0.703125 0.484375 1.796875l0 4.515625q0 0.671875 0.71875 0.671875q0.34375 0 0.6875 -0.09375l-0.078125 1.171875q-0.375 0.1875 -0.96875 0.1875q-0.546875 0 -0.984375 -0.203125q-0.421875 -0.203125 -0.671875 -0.625q-0.234375 -0.421875 -0.234375 -1.046875l0 -0.1875l0.375 0.046875q-0.21875 0.734375 -0.765625 1.1875q-0.53125 0.453125 -1.203125 0.671875q-0.671875 0.21875 -1.328125 0.21875q-0.828125 0 -1.53125 -0.28125q-0.703125 -0.28125 -1.125 -0.84375q-0.421875 -0.578125 -0.421875 -1.40625q0 -1.046875 0.6875 -1.71875q0.703125 -0.6875 1.953125 -0.9375l3.703125 -0.734375l0 1.234375l-3.0 0.625q-0.921875 0.1875 -1.375 0.53125q-0.4375 0.328125 -0.4375 0.921875q0 0.578125 0.453125 0.9375q0.453125 0.359375 1.296875 0.359375q0.546875 0 1.03125 -0.140625q0.5 -0.140625 0.890625 -0.421875q0.390625 -0.296875 0.609375 -0.734375q0.234375 -0.4375 0.234375 -1.03125l0 -2.578125zm5.8563232 -5.09375q-0.5 0 -0.8125 -0.296875q-0.3125 -0.3125 -0.3125 -0.8125q0 -0.515625 0.3125 -0.8125q0.3125 -0.3125 0.8125 -0.3125q0.5 0 0.796875 0.3125q0.3125 0.296875 0.3125 0.8125q0 0.5 -0.3125 0.8125q-0.296875 0.296875 -0.796875 0.296875zm0.75 1.796875l0 9.328125l-1.5 0l0 -9.328125l1.5 0zm3.4625854 9.328125l0 -9.328125l1.3125 0l0.125 2.09375l-0.25 -0.203125q0.3125 -0.75 0.8125 -1.203125q0.5 -0.46875 1.15625 -0.671875q0.671875 -0.203125 1.375 -0.203125q1.015625 0 1.828125 0.390625q0.828125 0.375 1.3125 1.15625q0.5 0.78125 0.5 2.0l0 5.96875l-1.5 0l0 -5.453125q0 -1.546875 -0.65625 -2.140625q-0.65625 -0.609375 -1.625 -0.609375q-0.671875 0 -1.34375 0.3125q-0.671875 0.3125 -1.109375 1.03125q-0.4375 0.703125 -0.4375 1.890625l0 4.96875l-1.5 0zm14.907593 0.1875q-1.359375 0 -2.515625 -0.578125q-1.140625 -0.578125 -1.75 -1.640625l1.265625 -0.921875q0.40625 0.859375 1.1875 1.34375q0.796875 0.484375 1.921875 0.484375q0.984375 0 1.546875 -0.375q0.5625 -0.390625 0.5625 -1.0q0 -0.390625 -0.25 -0.71875q-0.25 -0.328125 -0.96875 -0.46875l-2.234375 -0.46875q-1.359375 -0.28125 -1.953125 -0.9375q-0.578125 -0.65625 -0.578125 -1.625q0 -0.765625 0.4375 -1.390625q0.4375 -0.640625 1.25 -1.015625q0.8125 -0.390625 1.90625 -0.390625q1.390625 0 2.328125 0.546875q0.953125 0.53125 1.421875 1.53125l-1.25 0.8125q-0.3125 -0.8125 -1.03125 -1.1875q-0.703125 -0.390625 -1.46875 -0.390625q-0.671875 0 -1.15625 0.1875q-0.46875 0.1875 -0.71875 0.515625q-0.25 0.3125 -0.25 0.734375q0 0.40625 0.28125 0.75q0.28125 0.34375 1.046875 0.5l2.328125 0.484375q1.3125 0.25 1.828125 0.859375q0.53125 0.59375 0.53125 1.453125q0 0.875 -0.46875 1.546875q-0.46875 0.65625 -1.3125 1.015625q-0.84375 0.34375 -1.9375 0.34375z" fill-rule="nonzero"/><path fill="#f3f3f3" d="m680.80743 279.80438l0.859375 0.859375q-1.234375 1.125 -1.96875 2.375q-0.71875 1.234375 -1.03125 2.609375q-0.3125 1.359375 -0.3125 2.921875q0 1.5625 0.3125 2.9375q0.3125 1.375 1.03125 2.609375q0.734375 1.234375 1.96875 2.375l-0.859375 0.859375q-1.96875 -1.71875 -2.984375 -3.921875q-1.0 -2.21875 -1.0 -4.859375q0 -2.625 1.0 -4.84375q1.015625 -2.21875 2.984375 -3.921875zm6.0933228 14.203125q-1.328125 0 -2.375 -0.578125q-1.03125 -0.578125 -1.609375 -1.671875q-0.578125 -1.09375 -0.578125 -2.609375q0 -1.5 0.578125 -2.59375q0.578125 -1.09375 1.578125 -1.671875q1.015625 -0.578125 2.3125 -0.578125q1.296875 0 2.21875 0.5625q0.921875 0.5625 1.40625 1.53125q0.484375 0.953125 0.484375 2.140625q0 0.3125 -0.015625 0.578125q-0.015625 0.265625 -0.046875 0.46875l-7.546875 0l0 -1.328125l6.890625 0l-0.765625 0.15625q0 -1.34375 -0.734375 -2.0625q-0.734375 -0.734375 -1.9375 -0.734375q-0.90625 0 -1.578125 0.421875q-0.65625 0.40625 -1.03125 1.203125q-0.359375 0.796875 -0.359375 1.90625q0 1.109375 0.375 1.921875q0.375 0.796875 1.046875 1.21875q0.6875 0.40625 1.640625 0.40625q1.03125 0 1.671875 -0.390625q0.640625 -0.390625 1.03125 -1.0625l1.1875 0.6875q-0.359375 0.640625 -0.921875 1.109375q-0.546875 0.46875 -1.28125 0.71875q-0.734375 0.25 -1.640625 0.25zm12.768921 -9.515625l1.578125 0l-3.890625 9.328125l-1.484375 0l-3.890625 -9.328125l1.703125 0l2.953125 7.8125l3.03125 -7.8125zm7.435608 9.515625q-1.328125 0 -2.375 -0.578125q-1.03125 -0.578125 -1.609375 -1.671875q-0.578125 -1.09375 -0.578125 -2.609375q0 -1.5 0.578125 -2.59375q0.578125 -1.09375 1.578125 -1.671875q1.015625 -0.578125 2.3125 -0.578125q1.296875 0 2.21875 0.5625q0.921875 0.5625 1.40625 1.53125q0.484375 0.953125 0.484375 2.140625q0 0.3125 -0.015625 0.578125q-0.015625 0.265625 -0.046875 0.46875l-7.546875 0l0 -1.328125l6.890625 0l-0.765625 0.15625q0 -1.34375 -0.734375 -2.0625q-0.734375 -0.734375 -1.9375 -0.734375q-0.90625 0 -1.578125 0.421875q-0.65625 0.40625 -1.03125 1.203125q-0.359375 0.796875 -0.359375 1.90625q0 1.109375 0.375 1.921875q0.375 0.796875 1.046875 1.21875q0.6875 0.40625 1.640625 0.40625q1.03125 0 1.671875 -0.390625q0.640625 -0.390625 1.03125 -1.0625l1.1875 0.6875q-0.359375 0.640625 -0.921875 1.109375q-0.546875 0.46875 -1.28125 0.71875q-0.734375 0.25 -1.640625 0.25zm6.8584595 -0.1875l0 -9.328125l1.21875 0l0.203125 1.53125q0.390625 -0.859375 1.140625 -1.28125q0.765625 -0.4375 1.84375 -0.4375q0.234375 0 0.515625 0.046875q0.296875 0.03125 0.5 0.140625l-0.25 1.359375q-0.203125 -0.078125 -0.453125 -0.109375q-0.234375 -0.03125 -0.6875 -0.03125q-0.578125 0 -1.171875 0.34375q-0.578125 0.328125 -0.96875 1.015625q-0.390625 0.671875 -0.390625 1.71875l0 5.03125l-1.5 0zm15.28363 -9.328125l-4.390625 10.890625q-0.34375 0.921875 -0.765625 1.453125q-0.421875 0.53125 -0.9375 0.765625q-0.515625 0.234375 -1.1875 0.234375q-0.625 0 -1.171875 -0.1875q-0.53125 -0.171875 -0.9375 -0.46875l0.40625 -1.3125q0.375 0.34375 0.796875 0.5q0.421875 0.15625 0.828125 0.15625q0.484375 0 0.90625 -0.296875q0.4375 -0.296875 0.796875 -1.21875l0.484375 -1.203125l-0.9375 -2.21875l-2.96875 -7.09375l1.703125 0l2.328125 6.078125l0.578125 1.671875l0.671875 -1.859375l2.1875 -5.890625l1.609375 0zm7.8498535 9.328125l0 -9.328125l1.21875 0l0.203125 1.53125q0.390625 -0.859375 1.140625 -1.28125q0.765625 -0.4375 1.84375 -0.4375q0.234375 0 0.515625 0.046875q0.296875 0.03125 0.5 0.140625l-0.25 1.359375q-0.203125 -0.078125 -0.453125 -0.109375q-0.234375 -0.03125 -0.6875 -0.03125q-0.578125 0 -1.171875 0.34375q-0.578125 0.328125 -0.96875 1.015625q-0.390625 0.671875 -0.390625 1.71875l0 5.03125l-1.5 0zm11.21936 0.1875q-1.328125 0 -2.375 -0.578125q-1.03125 -0.578125 -1.609375 -1.671875q-0.578125 -1.09375 -0.578125 -2.609375q0 -1.5 0.578125 -2.59375q0.578125 -1.09375 1.578125 -1.671875q1.015625 -0.578125 2.3125 -0.578125q1.296875 0 2.21875 0.5625q0.921875 0.5625 1.40625 1.53125q0.484375 0.953125 0.484375 2.140625q0 0.3125 -0.015625 0.578125q-0.015625 0.265625 -0.046875 0.46875l-7.546875 0l0 -1.328125l6.890625 0l-0.765625 0.15625q0 -1.34375 -0.734375 -2.0625q-0.734375 -0.734375 -1.9375 -0.734375q-0.90625 0 -1.578125 0.421875q-0.65625 0.40625 -1.03125 1.203125q-0.359375 0.796875 -0.359375 1.90625q0 1.109375 0.375 1.921875q0.375 0.796875 1.046875 1.21875q0.6875 0.40625 1.640625 0.40625q1.03125 0 1.671875 -0.390625q0.640625 -0.390625 1.03125 -1.0625l1.1875 0.6875q-0.359375 0.640625 -0.921875 1.109375q-0.546875 0.46875 -1.28125 0.71875q-0.734375 0.25 -1.640625 0.25zm8.280273 -13.8125l0 11.25q0 0.71875 0.25 0.984375q0.265625 0.265625 0.84375 0.265625q0.375 0 0.609375 -0.046875q0.25 -0.0625 0.65625 -0.203125l-0.234375 1.296875q-0.296875 0.140625 -0.65625 0.203125q-0.359375 0.0625 -0.71875 0.0625q-1.140625 0 -1.703125 -0.609375q-0.546875 -0.625 -0.546875 -1.890625l0 -11.3125l1.5 0zm9.740051 7.59375q0 -1.046875 -0.5625 -1.609375q-0.5625 -0.5625 -1.59375 -0.5625q-0.96875 0 -1.640625 0.421875q-0.671875 0.40625 -0.984375 1.34375l-1.21875 -0.75q0.375 -1.046875 1.375 -1.6875q1.015625 -0.640625 2.515625 -0.640625q1.0 0 1.8125 0.34375q0.828125 0.34375 1.296875 1.046875q0.484375 0.703125 0.484375 1.796875l0 4.515625q0 0.671875 0.71875 0.671875q0.34375 0 0.6875 -0.09375l-0.078125 1.171875q-0.375 0.1875 -0.96875 0.1875q-0.546875 0 -0.984375 -0.203125q-0.421875 -0.203125 -0.671875 -0.625q-0.234375 -0.421875 -0.234375 -1.046875l0 -0.1875l0.375 0.046875q-0.21875 0.734375 -0.765625 1.1875q-0.53125 0.453125 -1.203125 0.671875q-0.671875 0.21875 -1.328125 0.21875q-0.828125 0 -1.53125 -0.28125q-0.703125 -0.28125 -1.125 -0.84375q-0.421875 -0.578125 -0.421875 -1.40625q0 -1.046875 0.6875 -1.71875q0.703125 -0.6875 1.953125 -0.9375l3.703125 -0.734375l0 1.234375l-3.0 0.625q-0.921875 0.1875 -1.375 0.53125q-0.4375 0.328125 -0.4375 0.921875q0 0.578125 0.453125 0.9375q0.453125 0.359375 1.296875 0.359375q0.546875 0 1.03125 -0.140625q0.5 -0.140625 0.890625 -0.421875q0.390625 -0.296875 0.609375 -0.734375q0.234375 -0.4375 0.234375 -1.03125l0 -2.578125zm12.236877 -3.296875l-4.390625 10.890625q-0.34375 0.921875 -0.765625 1.453125q-0.421875 0.53125 -0.9375 0.765625q-0.515625 0.234375 -1.1875 0.234375q-0.625 0 -1.171875 -0.1875q-0.53125 -0.171875 -0.9375 -0.46875l0.40625 -1.3125q0.375 0.34375 0.796875 0.5q0.421875 0.15625 0.828125 0.15625q0.484375 0 0.90625 -0.296875q0.4375 -0.296875 0.796875 -1.21875l0.484375 -1.203125l-0.9375 -2.21875l-2.96875 -7.09375l1.703125 0l2.328125 6.078125l0.578125 1.671875l0.671875 -1.859375l2.1875 -5.890625l1.609375 0zm11.7092285 -0.1875q0.96875 0 1.703125 0.296875q0.75 0.296875 1.28125 0.859375q0.546875 0.5625 0.875 1.328125l-1.40625 0.671875q-0.296875 -0.890625 -0.90625 -1.359375q-0.609375 -0.484375 -1.578125 -0.484375q-0.9375 0 -1.609375 0.421875q-0.671875 0.40625 -1.03125 1.203125q-0.34375 0.796875 -0.34375 1.90625q0 1.109375 0.34375 1.921875q0.359375 0.796875 1.03125 1.21875q0.671875 0.40625 1.609375 0.40625q0.71875 0 1.25 -0.21875q0.53125 -0.21875 0.875 -0.640625q0.359375 -0.4375 0.484375 -1.0625l1.375 0.484375q-0.3125 0.859375 -0.859375 1.484375q-0.546875 0.609375 -1.328125 0.9375q-0.78125 0.328125 -1.765625 0.328125q-1.296875 0 -2.328125 -0.578125q-1.03125 -0.578125 -1.609375 -1.671875q-0.578125 -1.09375 -0.578125 -2.609375q0 -1.5 0.578125 -2.59375q0.578125 -1.09375 1.609375 -1.671875q1.03125 -0.578125 2.328125 -0.578125zm6.588135 9.515625l0 -13.625l1.5 0l0 5.703125q0.484375 -0.84375 1.28125 -1.21875q0.796875 -0.375 1.75 -0.375q1.015625 0 1.828125 0.390625q0.828125 0.375 1.3125 1.15625q0.5 0.78125 0.5 2.0l0 5.96875l-1.5 0l0 -5.453125q0 -1.546875 -0.65625 -2.140625q-0.65625 -0.609375 -1.625 -0.609375q-0.671875 0 -1.34375 0.3125q-0.671875 0.3125 -1.109375 1.03125q-0.4375 0.71875 -0.4375 1.921875l0 4.9375l-1.5 0zm17.001343 -6.03125q0 -1.046875 -0.5625 -1.609375q-0.5625 -0.5625 -1.59375 -0.5625q-0.96875 0 -1.640625 0.421875q-0.671875 0.40625 -0.984375 1.34375l-1.21875 -0.75q0.375 -1.046875 1.375 -1.6875q1.015625 -0.640625 2.515625 -0.640625q1.0 0 1.8125 0.34375q0.828125 0.34375 1.296875 1.046875q0.484375 0.703125 0.484375 1.796875l0 4.515625q0 0.671875 0.71875 0.671875q0.34375 0 0.6875 -0.09375l-0.078125 1.171875q-0.375 0.1875 -0.96875 0.1875q-0.546875 0 -0.984375 -0.203125q-0.421875 -0.203125 -0.671875 -0.625q-0.234375 -0.421875 -0.234375 -1.046875l0 -0.1875l0.375 0.046875q-0.21875 0.734375 -0.765625 1.1875q-0.53125 0.453125 -1.203125 0.671875q-0.671875 0.21875 -1.328125 0.21875q-0.828125 0 -1.53125 -0.28125q-0.703125 -0.28125 -1.125 -0.84375q-0.421875 -0.578125 -0.421875 -1.40625q0 -1.046875 0.6875 -1.71875q0.703125 -0.6875 1.953125 -0.9375l3.703125 -0.734375l0 1.234375l-3.0 0.625q-0.921875 0.1875 -1.375 0.53125q-0.4375 0.328125 -0.4375 0.921875q0 0.578125 0.453125 0.9375q0.453125 0.359375 1.296875 0.359375q0.546875 0 1.03125 -0.140625q0.5 -0.140625 0.890625 -0.421875q0.390625 -0.296875 0.609375 -0.734375q0.234375 -0.4375 0.234375 -1.03125l0 -2.578125zm5.8563232 -5.09375q-0.5 0 -0.8125 -0.296875q-0.3125 -0.3125 -0.3125 -0.8125q0 -0.515625 0.3125 -0.8125q0.3125 -0.3125 0.8125 -0.3125q0.5 0 0.796875 0.3125q0.3125 0.296875 0.3125 0.8125q0 0.5 -0.3125 0.8125q-0.296875 0.296875 -0.796875 0.296875zm0.75 1.796875l0 9.328125l-1.5 0l0 -9.328125l1.5 0zm3.4625854 9.328125l0 -9.328125l1.3125 0l0.125 2.09375l-0.25 -0.203125q0.3125 -0.75 0.8125 -1.203125q0.5 -0.46875 1.15625 -0.671875q0.671875 -0.203125 1.375 -0.203125q1.015625 0 1.828125 0.390625q0.828125 0.375 1.3125 1.15625q0.5 0.78125 0.5 2.0l0 5.96875l-1.5 0l0 -5.453125q0 -1.546875 -0.65625 -2.140625q-0.65625 -0.609375 -1.625 -0.609375q-0.671875 0 -1.34375 0.3125q-0.671875 0.3125 -1.109375 1.03125q-0.4375 0.703125 -0.4375 1.890625l0 4.96875l-1.5 0zm22.488098 0.1875q-0.796875 0 -1.46875 -0.28125q-0.671875 -0.28125 -1.15625 -0.78125q-0.484375 -0.5 -0.71875 -1.140625l0.203125 -0.265625l-0.125 2.28125l-1.3125 0l0 -13.625l1.5 0l0 6.40625l-0.1875 -0.28125q0.375 -0.875 1.25 -1.4375q0.890625 -0.578125 2.03125 -0.578125q1.15625 0 2.125 0.578125q0.96875 0.578125 1.546875 1.671875q0.578125 1.078125 0.578125 2.59375q0 1.515625 -0.59375 2.609375q-0.578125 1.09375 -1.546875 1.671875q-0.96875 0.578125 -2.125 0.578125zm-0.15625 -1.3125q1.375 0 2.140625 -0.96875q0.78125 -0.96875 0.78125 -2.578125q0 -1.59375 -0.765625 -2.5625q-0.75 -0.96875 -2.140625 -0.96875q-0.875 0 -1.546875 0.453125q-0.65625 0.4375 -1.03125 1.25q-0.359375 0.796875 -0.359375 1.875q0 1.0625 0.359375 1.859375q0.359375 0.78125 1.015625 1.21875q0.671875 0.421875 1.546875 0.421875zm8.69751 -12.5l0 11.25q0 0.71875 0.25 0.984375q0.265625 0.265625 0.84375 0.265625q0.375 0 0.609375 -0.046875q0.25 -0.0625 0.65625 -0.203125l-0.234375 1.296875q-0.296875 0.140625 -0.65625 0.203125q-0.359375 0.0625 -0.71875 0.0625q-1.140625 0 -1.703125 -0.609375q-0.546875 -0.625 -0.546875 -1.890625l0 -11.3125l1.5 0zm8.146301 4.109375q1.328125 0 2.34375 0.578125q1.015625 0.578125 1.59375 1.671875q0.578125 1.09375 0.578125 2.59375q0 1.515625 -0.578125 2.609375q-0.578125 1.09375 -1.59375 1.671875q-1.015625 0.578125 -2.34375 0.578125q-1.296875 0 -2.328125 -0.578125q-1.03125 -0.578125 -1.609375 -1.671875q-0.578125 -1.09375 -0.578125 -2.609375q0 -1.5 0.578125 -2.59375q0.578125 -1.09375 1.609375 -1.671875q1.03125 -0.578125 2.328125 -0.578125zm0 1.28125q-0.953125 0 -1.625 0.4375q-0.671875 0.421875 -1.03125 1.21875q-0.359375 0.796875 -0.359375 1.90625q0 1.109375 0.359375 1.921875q0.359375 0.796875 1.03125 1.234375q0.671875 0.421875 1.625 0.421875q0.953125 0 1.625 -0.421875q0.671875 -0.4375 1.03125 -1.234375q0.375 -0.8125 0.375 -1.921875q0 -1.109375 -0.375 -1.90625q-0.359375 -0.796875 -1.03125 -1.21875q-0.671875 -0.4375 -1.625 -0.4375zm11.193726 -1.28125q0.96875 0 1.703125 0.296875q0.75 0.296875 1.28125 0.859375q0.546875 0.5625 0.875 1.328125l-1.40625 0.671875q-0.296875 -0.890625 -0.90625 -1.359375q-0.609375 -0.484375 -1.578125 -0.484375q-0.9375 0 -1.609375 0.421875q-0.671875 0.40625 -1.03125 1.203125q-0.34375 0.796875 -0.34375 1.90625q0 1.109375 0.34375 1.921875q0.359375 0.796875 1.03125 1.21875q0.671875 0.40625 1.609375 0.40625q0.71875 0 1.25 -0.21875q0.53125 -0.21875 0.875 -0.640625q0.359375 -0.4375 0.484375 -1.0625l1.375 0.484375q-0.3125 0.859375 -0.859375 1.484375q-0.546875 0.609375 -1.328125 0.9375q-0.78125 0.328125 -1.765625 0.328125q-1.296875 0 -2.328125 -0.578125q-1.03125 -0.578125 -1.609375 -1.671875q-0.578125 -1.09375 -0.578125 -2.609375q0 -1.5 0.578125 -2.59375q0.578125 -1.09375 1.609375 -1.671875q1.03125 -0.578125 2.328125 -0.578125zm14.775635 0.1875l-4.03125 4.03125l-0.34375 0.359375l-3.0625 3.046875l0 -1.859375l5.5625 -5.578125l1.875 0zm-6.6875 -4.296875l0 13.625l-1.5 0l0 -13.625l1.5 0zm2.796875 7.5625l4.125 6.0625l-1.8125 0l-3.5625 -5.21875l1.25 -0.84375zm5.5424805 9.59375l-0.859375 -0.859375q1.21875 -1.140625 1.953125 -2.375q0.734375 -1.234375 1.046875 -2.609375q0.3125 -1.375 0.3125 -2.9375q0 -1.5625 -0.3125 -2.921875q-0.3125 -1.375 -1.046875 -2.609375q-0.734375 -1.25 -1.953125 -2.375l0.859375 -0.859375q1.96875 1.703125 2.96875 3.921875q1.015625 2.21875 1.015625 4.84375q0 2.640625 -1.015625 4.859375q-1.0 2.203125 -2.96875 3.921875z" fill-rule="nonzero"/></g></svg>