<svg version="1.1" viewBox="0.0 0.0 960.0 540.0" fill="none" stroke="none" stroke-linecap="square" stroke-miterlimit="10" xmlns:xlink="http://www.w3.org/1999/xlink" xmlns="http://www.w3.org/2000/svg"><clipPath id="g23bd0dc7c06_0_14.0"><path d="m0 0l960.0 0l0 540.0l-960.0 0l0 -540.0z" clip-rule="nonzero"/></clipPath><g clip-path="url(#g23bd0dc7c06_0_14.0)"><path fill="#000000" fill-opacity="0.0" d="m0 0l960.0 0l0 540.0l-960.0 0z" fill-rule="evenodd"/><path fill="#000000" fill-opacity="0.0" d="m4.4934325 249.7807l0 0c0 -91.28789 69.76602 -165.29135 155.82677 -165.29135l0 0c41.327835 0 80.96298 17.414574 110.18617 48.412712c29.223175 30.998138 45.640594 73.040634 45.640594 116.87863l0 0c0 91.28787 -69.76602 165.29132 -155.82677 165.29132l0 0c-86.06075 0 -155.82677 -74.00345 -155.82677 -165.29132z" fill-rule="evenodd"/><path stroke="#502089" stroke-width="4.0" stroke-linejoin="round" stroke-linecap="butt" d="m4.4934325 249.7807l0 0c0 -91.28789 69.76602 -165.29135 155.82677 -165.29135l0 0c41.327835 0 80.96298 17.414574 110.18617 48.412712c29.223175 30.998138 45.640594 73.040634 45.640594 116.87863l0 0c0 91.28787 -69.76602 165.29132 -155.82677 165.29132l0 0c-86.06075 0 -155.82677 -74.00345 -155.82677 -165.29132z" fill-rule="evenodd"/><path fill="#ffffff" d="m115.07216 213.42133l3.15625 0.796875q-1.0 3.890625 -3.578125 5.9375q-2.578125 2.03125 -6.296875 2.03125q-3.859375 0 -6.28125 -1.5625q-2.40625 -1.578125 -3.671875 -4.546875q-1.265625 -2.984375 -1.265625 -6.40625q0 -3.71875 1.421875 -6.5q1.421875 -2.78125 4.046875 -4.21875q2.640625 -1.4375 5.796875 -1.4375q3.578125 0 6.015625 1.828125q2.453125 1.8125 3.40625 5.125l-3.109375 0.734375q-0.828125 -2.609375 -2.40625 -3.796875q-1.578125 -1.1875 -3.96875 -1.1875q-2.75 0 -4.609375 1.328125q-1.84375 1.3125 -2.59375 3.53125q-0.734375 2.21875 -0.734375 4.578125q0 3.046875 0.875 5.3125q0.890625 2.265625 2.765625 3.390625q1.875 1.125 4.046875 1.125q2.65625 0 4.484375 -1.53125q1.84375 -1.53125 2.5 -4.53125zm5.584137 -0.28125q0 -4.796875 2.671875 -7.109375q2.21875 -1.921875 5.421875 -1.921875q3.578125 0 5.828125 2.34375q2.265625 2.328125 2.265625 6.4375q0 3.34375 -1.0 5.265625q-1.0 1.90625 -2.921875 2.96875q-1.90625 1.046875 -4.171875 1.046875q-3.625 0 -5.859375 -2.328125q-2.234375 -2.328125 -2.234375 -6.703125zm3.015625 0q0 3.3125 1.4375 4.96875q1.453125 1.65625 3.640625 1.65625q2.1875 0 3.625 -1.65625q1.453125 -1.671875 1.453125 -5.0625q0 -3.203125 -1.453125 -4.859375q-1.453125 -1.65625 -3.625 -1.65625q-2.1875 0 -3.640625 1.640625q-1.4375 1.640625 -1.4375 4.96875zm16.535522 8.640625l0 -23.859375l2.9375 0l0 23.859375l-2.9375 0zm7.4044495 0l0 -23.859375l2.9375 0l0 23.859375l-2.9375 0zm18.7482 -2.125q-1.625 1.375 -3.125 1.953125q-1.5 0.5625 -3.234375 0.5625q-2.84375 0 -4.375 -1.390625q-1.53125 -1.390625 -1.53125 -3.5625q0 -1.265625 0.578125 -2.3125q0.578125 -1.046875 1.515625 -1.671875q0.9375 -0.640625 2.109375 -0.96875q0.859375 -0.234375 2.59375 -0.4375q3.546875 -0.421875 5.234375 -1.015625q0.015625 -0.609375 0.015625 -0.765625q0 -1.78125 -0.828125 -2.515625q-1.125 -1.0 -3.34375 -1.0q-2.0625 0 -3.046875 0.734375q-0.984375 0.71875 -1.453125 2.546875l-2.875 -0.390625q0.390625 -1.828125 1.28125 -2.953125q0.90625 -1.140625 2.59375 -1.75q1.703125 -0.609375 3.921875 -0.609375q2.21875 0 3.59375 0.53125q1.390625 0.515625 2.03125 1.3125q0.65625 0.78125 0.921875 1.984375q0.140625 0.75 0.140625 2.703125l0 3.90625q0 4.078125 0.1875 5.15625q0.1875 1.078125 0.75 2.078125l-3.0625 0q-0.453125 -0.90625 -0.59375 -2.125zm-0.234375 -6.546875q-1.59375 0.65625 -4.78125 1.109375q-1.8125 0.25 -2.5625 0.578125q-0.75 0.328125 -1.15625 0.953125q-0.40625 0.625 -0.40625 1.390625q0 1.171875 0.890625 1.953125q0.890625 0.78125 2.59375 0.78125q1.6875 0 3.0 -0.734375q1.328125 -0.75 1.953125 -2.03125q0.46875 -0.984375 0.46875 -2.921875l0 -1.078125zm13.894897 6.046875l0.421875 2.59375q-1.234375 0.265625 -2.21875 0.265625q-1.59375 0 -2.46875 -0.5q-0.875 -0.515625 -1.234375 -1.328125q-0.359375 -0.828125 -0.359375 -3.46875l0 -9.9375l-2.15625 0l0 -2.28125l2.15625 0l0 -4.28125l2.90625 -1.75l0 6.03125l2.953125 0l0 2.28125l-2.953125 0l0 10.109375q0 1.25 0.15625 1.609375q0.15625 0.359375 0.5 0.578125q0.359375 0.203125 1.015625 0.203125q0.484375 0 1.28125 -0.125zm2.8846283 -17.859375l0 -3.375l2.921875 0l0 3.375l-2.921875 0zm0 20.484375l0 -17.28125l2.921875 0l0 17.28125l-2.921875 0zm6.2950745 -8.640625q0 -4.796875 2.671875 -7.109375q2.21875 -1.921875 5.421875 -1.921875q3.578125 0 5.828125 2.34375q2.265625 2.328125 2.265625 6.4375q0 3.34375 -1.0 5.265625q-1.0 1.90625 -2.921875 2.96875q-1.90625 1.046875 -4.171875 1.046875q-3.625 0 -5.859375 -2.328125q-2.234375 -2.328125 -2.234375 -6.703125zm3.015625 0q0 3.3125 1.4375 4.96875q1.453125 1.65625 3.640625 1.65625q2.1875 0 3.625 -1.65625q1.453125 -1.671875 1.453125 -5.0625q0 -3.203125 -1.453125 -4.859375q-1.453125 -1.65625 -3.625 -1.65625q-2.1875 0 -3.640625 1.640625q-1.4375 1.640625 -1.4375 4.96875zm16.613647 8.640625l0 -17.28125l2.625 0l0 2.453125q1.90625 -2.84375 5.5 -2.84375q1.5625 0 2.875 0.5625q1.3125 0.5625 1.953125 1.46875q0.65625 0.90625 0.921875 2.171875q0.15625 0.8125 0.15625 2.84375l0 10.625l-2.921875 0l0 -10.515625q0 -1.78125 -0.34375 -2.671875q-0.34375 -0.890625 -1.21875 -1.421875q-0.859375 -0.53125 -2.03125 -0.53125q-1.875 0 -3.234375 1.1875q-1.359375 1.1875 -1.359375 4.515625l0 9.4375l-2.921875 0z" fill-rule="nonzero"/><path fill="#ffffff" d="m91.60486 252.42131l0 -2.796875l10.109375 -0.015625l0 8.85939q-2.328125 1.84375 -4.8125 2.78125q-2.46875 0.9375 -5.0625 0.9375q-3.515625 0 -6.390625 -1.5q-2.875 -1.515625 -4.34375 -4.359375q-1.453125 -2.8437653 -1.453125 -6.3593903q0 -3.484375 1.453125 -6.5q1.453125 -3.015625 4.1875 -4.484375q2.734375 -1.46875 6.296875 -1.46875q2.59375 0 4.671875 0.84375q2.09375 0.828125 3.28125 2.328125q1.1875 1.5 1.8125 3.90625l-2.84375 0.78125q-0.546875 -1.8125 -1.34375 -2.859375q-0.796875 -1.046875 -2.28125 -1.671875q-1.46875 -0.625 -3.28125 -0.625q-2.15625 0 -3.75 0.65625q-1.578125 0.65625 -2.546875 1.734375q-0.953125 1.078125 -1.5 2.359375q-0.90625 2.21875 -0.90625 4.796875q0 3.203125 1.09375 5.34375q1.09375 2.1406403 3.1875 3.1875153q2.109375 1.046875 4.46875 1.046875q2.046875 0 4.0 -0.78125q1.953125 -0.796875 2.96875 -1.703125l0 -4.4375153l-7.015625 0zm26.220566 3.7968903l3.015625 0.375q-0.703125 2.65625 -2.640625 4.125q-1.9375 1.453125 -4.953125 1.453125q-3.796875 0 -6.015625 -2.328125q-2.21875 -2.34375 -2.21875 -6.5625153q0 -4.359375 2.25 -6.765625q2.25 -2.40625 5.828125 -2.40625q3.46875 0 5.65625 2.359375q2.203125 2.359375 2.203125 6.640625q0 0.265625 -0.015625 0.78125l-12.890625 0q0.15625 2.8437653 1.609375 4.3593903q1.453125 1.515625 3.609375 1.515625q1.609375 0 2.75 -0.84375q1.140625 -0.84375 1.8125 -2.703125zm-9.625 -4.7343903l9.65625 0q-0.203125 -2.1875 -1.109375 -3.28125q-1.40625 -1.6875 -3.625 -1.6875q-2.015625 0 -3.390625 1.359375q-1.375 1.34375 -1.53125 3.609375zm16.332397 10.29689l0 -17.281265l2.625 0l0 2.453125q1.90625 -2.84375 5.5 -2.84375q1.5625 0 2.875 0.5625q1.3125 0.5625 1.953125 1.46875q0.65625 0.90625 0.921875 2.171875q0.15625 0.8125 0.15625 2.84375l0 10.625015l-2.921875 0l0 -10.51564q0 -1.78125 -0.34375 -2.671875q-0.34375 -0.890625 -1.21875 -1.421875q-0.859375 -0.53125 -2.03125 -0.53125q-1.875 0 -3.234375 1.1875q-1.359375 1.1875 -1.359375 4.515625l0 9.437515l-2.921875 0zm30.363647 -5.5625l3.015625 0.375q-0.703125 2.65625 -2.640625 4.125q-1.9375 1.453125 -4.953125 1.453125q-3.796875 0 -6.015625 -2.328125q-2.21875 -2.34375 -2.21875 -6.5625153q0 -4.359375 2.25 -6.765625q2.25 -2.40625 5.828125 -2.40625q3.46875 0 5.65625 2.359375q2.203125 2.359375 2.203125 6.640625q0 0.265625 -0.015625 0.78125l-12.890625 0q0.15625 2.8437653 1.609375 4.3593903q1.453125 1.515625 3.609375 1.515625q1.609375 0 2.75 -0.84375q1.140625 -0.84375 1.8125 -2.703125zm-9.625 -4.7343903l9.65625 0q-0.203125 -2.1875 -1.109375 -3.28125q-1.40625 -1.6875 -3.625 -1.6875q-2.015625 0 -3.390625 1.359375q-1.375 1.34375 -1.53125 3.609375zm16.301147 10.29689l0 -17.281265l2.625 0l0 2.625q1.015625 -1.84375 1.859375 -2.421875q0.859375 -0.59375 1.890625 -0.59375q1.484375 0 3.0 0.9375l-1.0 2.71875q-1.078125 -0.625 -2.15625 -0.625q-0.953125 0 -1.71875 0.578125q-0.765625 0.578125 -1.09375 1.59375q-0.484375 1.5625 -0.484375 3.421875l0 9.04689l-2.921875 0zm22.395401 -2.125q-1.625 1.375 -3.125 1.953125q-1.5 0.5625 -3.234375 0.5625q-2.84375 0 -4.375 -1.390625q-1.53125 -1.390625 -1.53125 -3.5625q0 -1.2656403 0.578125 -2.3125153q0.578125 -1.046875 1.515625 -1.671875q0.9375 -0.640625 2.109375 -0.96875q0.859375 -0.234375 2.59375 -0.4375q3.546875 -0.421875 5.234375 -1.015625q0.015625 -0.609375 0.015625 -0.765625q0 -1.78125 -0.828125 -2.515625q-1.125 -1.0 -3.34375 -1.0q-2.0625 0 -3.046875 0.734375q-0.984375 0.71875 -1.453125 2.546875l-2.875 -0.390625q0.390625 -1.828125 1.28125 -2.953125q0.90625 -1.140625 2.59375 -1.75q1.703125 -0.609375 3.921875 -0.609375q2.21875 0 3.59375 0.53125q1.390625 0.515625 2.03125 1.3125q0.65625 0.78125 0.921875 1.984375q0.140625 0.75 0.140625 2.703125l0 3.90625q0 4.0781403 0.1875 5.1562653q0.1875 1.078125 0.75 2.078125l-3.0625 0q-0.453125 -0.90625 -0.59375 -2.125zm-0.234375 -6.5468903q-1.59375 0.65625 -4.78125 1.109375q-1.8125 0.25 -2.5625 0.578125q-0.75 0.328125 -1.15625 0.953125q-0.40625 0.62501526 -0.40625 1.3906403q0 1.171875 0.890625 1.953125q0.890625 0.78125 2.59375 0.78125q1.6875 0 3.0 -0.734375q1.328125 -0.75 1.953125 -2.03125q0.46875 -0.984375 0.46875 -2.9218903l0 -1.078125zm13.894897 6.0468903l0.421875 2.59375q-1.234375 0.265625 -2.21875 0.265625q-1.59375 0 -2.46875 -0.5q-0.875 -0.515625 -1.234375 -1.328125q-0.359375 -0.828125 -0.359375 -3.46875l0 -9.937515l-2.15625 0l0 -2.28125l2.15625 0l0 -4.28125l2.90625 -1.75l0 6.03125l2.953125 0l0 2.28125l-2.953125 0l0 10.10939q0 1.25 0.15625 1.609375q0.15625 0.359375 0.5 0.578125q0.359375 0.203125 1.015625 0.203125q0.484375 0 1.28125 -0.125zm2.8846283 -17.85939l0 -3.375l2.921875 0l0 3.375l-2.921875 0zm0 20.48439l0 -17.281265l2.921875 0l0 17.281265l-2.921875 0zm6.2950745 -8.64064q0 -4.796875 2.671875 -7.109375q2.21875 -1.921875 5.421875 -1.921875q3.578125 0 5.828125 2.34375q2.265625 2.328125 2.265625 6.4375q0 3.3437653 -1.0 5.2656403q-1.0 1.90625 -2.921875 2.96875q-1.90625 1.046875 -4.171875 1.046875q-3.625 0 -5.859375 -2.328125q-2.234375 -2.328125 -2.234375 -6.7031403zm3.015625 0q0 3.3125153 1.4375 4.9687653q1.453125 1.65625 3.640625 1.65625q2.1875 0 3.625 -1.65625q1.453125 -1.671875 1.453125 -5.0625153q0 -3.203125 -1.453125 -4.859375q-1.453125 -1.65625 -3.625 -1.65625q-2.1875 0 -3.640625 1.640625q-1.4375 1.640625 -1.4375 4.96875zm16.613647 8.64064l0 -17.281265l2.625 0l0 2.453125q1.90625 -2.84375 5.5 -2.84375q1.5625 0 2.875 0.5625q1.3125 0.5625 1.953125 1.46875q0.65625 0.90625 0.921875 2.171875q0.15625 0.8125 0.15625 2.84375l0 10.625015l-2.921875 0l0 -10.51564q0 -1.78125 -0.34375 -2.671875q-0.34375 -0.890625 -1.21875 -1.421875q-0.859375 -0.53125 -2.03125 -0.53125q-1.875 0 -3.234375 1.1875q-1.359375 1.1875 -1.359375 4.515625l0 9.437515l-2.921875 0z" fill-rule="nonzero"/><path fill="#ffffff" d="m82.07148 299.6557q-1.625 1.375 -3.125 1.953125q-1.5 0.5625 -3.234375 0.5625q-2.84375 0 -4.375 -1.390625q-1.53125 -1.390625 -1.53125 -3.5625q0 -1.265625 0.578125 -2.3125q0.578125 -1.046875 1.515625 -1.671875q0.9375 -0.640625 2.109375 -0.96875q0.859375 -0.234375 2.59375 -0.4375q3.546875 -0.421875 5.234375 -1.015625q0.015625 -0.609375 0.015625 -0.765625q0 -1.78125 -0.828125 -2.515625q-1.125 -1.0 -3.34375 -1.0q-2.0625 0 -3.046875 0.734375q-0.984375 0.71875 -1.453125 2.546875l-2.875 -0.390625q0.390625 -1.828125 1.28125 -2.953125q0.90625 -1.140625 2.59375 -1.75q1.703125 -0.609375 3.921875 -0.609375q2.21875 0 3.59375 0.53125q1.390625 0.515625 2.03125 1.3125q0.65625 0.78125 0.921875 1.984375q0.140625 0.75 0.140625 2.703125l0 3.90625q0 4.078125 0.1875 5.15625q0.1875 1.078125 0.75 2.078125l-3.0625 0q-0.453125 -0.90625 -0.59375 -2.125zm-0.234375 -6.546875q-1.59375 0.65625 -4.78125 1.109375q-1.8125 0.25 -2.5625 0.578125q-0.75 0.328125 -1.15625 0.953125q-0.40625 0.625 -0.40625 1.390625q0 1.171875 0.890625 1.953125q0.890625 0.78125 2.59375 0.78125q1.6875 0 3.0 -0.734375q1.328125 -0.75 1.953125 -2.03125q0.46875 -0.984375 0.46875 -2.921875l0 -1.078125zm7.5042725 8.671875l0 -17.28125l2.625 0l0 2.453125q1.90625 -2.84375 5.5 -2.84375q1.5625 0 2.875 0.5625q1.3125 0.5625 1.953125 1.46875q0.65625 0.90625 0.921875 2.171875q0.15625 0.8125 0.15625 2.84375l0 10.625l-2.921875 0l0 -10.515625q0 -1.78125 -0.34375 -2.671875q-0.34375 -0.890625 -1.21875 -1.421875q-0.859375 -0.53125 -2.03125 -0.53125q-1.875 0 -3.234375 1.1875q-1.359375 1.1875 -1.359375 4.515625l0 9.4375l-2.921875 0zm29.738647 0l0 -2.1875q-1.640625 2.578125 -4.828125 2.578125q-2.0625 0 -3.796875 -1.140625q-1.734375 -1.140625 -2.6875 -3.171875q-0.953125 -2.046875 -0.953125 -4.703125q0 -2.59375 0.859375 -4.6875q0.859375 -2.109375 2.578125 -3.234375q1.734375 -1.125 3.875 -1.125q1.5625 0 2.78125 0.65625q1.21875 0.65625 1.984375 1.71875l0 -8.5625l2.90625 0l0 23.859375l-2.71875 0zm-9.25 -8.625q0 3.3125 1.390625 4.96875q1.40625 1.640625 3.3125 1.640625q1.90625 0 3.25 -1.5625q1.34375 -1.578125 1.34375 -4.796875q0 -3.546875 -1.375 -5.203125q-1.359375 -1.671875 -3.359375 -1.671875q-1.953125 0 -3.265625 1.59375q-1.296875 1.59375 -1.296875 5.03125zm26.076408 8.625l0 -23.859375l8.953125 0q2.734375 0 4.375 0.734375q1.65625 0.71875 2.59375 2.234375q0.9375 1.5 0.9375 3.140625q0 1.53125 -0.828125 2.890625q-0.828125 1.34375 -2.5 2.171875q2.15625 0.625 3.3125 2.15625q1.171875 1.53125 1.171875 3.609375q0 1.6875 -0.703125 3.125q-0.703125 1.4375 -1.75 2.21875q-1.046875 0.78125 -2.625 1.1875q-1.5625 0.390625 -3.84375 0.390625l-9.09375 0zm3.15625 -13.828125l5.15625 0q2.109375 0 3.015625 -0.28125q1.203125 -0.359375 1.8125 -1.1875q0.609375 -0.828125 0.609375 -2.078125q0 -1.1875 -0.578125 -2.09375q-0.5625 -0.90625 -1.625 -1.234375q-1.046875 -0.34375 -3.625 -0.34375l-4.765625 0l0 7.21875zm0 11.015625l5.9375 0q1.53125 0 2.15625 -0.109375q1.09375 -0.203125 1.8125 -0.65625q0.734375 -0.453125 1.203125 -1.328125q0.484375 -0.875 0.484375 -2.015625q0 -1.328125 -0.6875 -2.3125q-0.6875 -0.984375 -1.90625 -1.375q-1.203125 -0.40625 -3.484375 -0.40625l-5.515625 0l0 8.203125zm30.104599 0.6875q-1.625 1.375 -3.125 1.953125q-1.5 0.5625 -3.234375 0.5625q-2.84375 0 -4.375 -1.390625q-1.53125 -1.390625 -1.53125 -3.5625q0 -1.265625 0.578125 -2.3125q0.578125 -1.046875 1.515625 -1.671875q0.9375 -0.640625 2.109375 -0.96875q0.859375 -0.234375 2.59375 -0.4375q3.546875 -0.421875 5.234375 -1.015625q0.015625 -0.609375 0.015625 -0.765625q0 -1.78125 -0.828125 -2.515625q-1.125 -1.0 -3.34375 -1.0q-2.0625 0 -3.046875 0.734375q-0.984375 0.71875 -1.453125 2.546875l-2.875 -0.390625q0.390625 -1.828125 1.28125 -2.953125q0.90625 -1.140625 2.59375 -1.75q1.703125 -0.609375 3.921875 -0.609375q2.21875 0 3.59375 0.53125q1.390625 0.515625 2.03125 1.3125q0.65625 0.78125 0.921875 1.984375q0.140625 0.75 0.140625 2.703125l0 3.90625q0 4.078125 0.1875 5.15625q0.1875 1.078125 0.75 2.078125l-3.0625 0q-0.453125 -0.90625 -0.59375 -2.125zm-0.234375 -6.546875q-1.59375 0.65625 -4.78125 1.109375q-1.8125 0.25 -2.5625 0.578125q-0.75 0.328125 -1.15625 0.953125q-0.40625 0.625 -0.40625 1.390625q0 1.171875 0.890625 1.953125q0.890625 0.78125 2.59375 0.78125q1.6875 0 3.0 -0.734375q1.328125 -0.75 1.953125 -2.03125q0.46875 -0.984375 0.46875 -2.921875l0 -1.078125zm18.769882 2.34375l2.890625 0.375q-0.46875 2.96875 -2.421875 4.65625q-1.9375 1.6875 -4.78125 1.6875q-3.546875 0 -5.7031097 -2.3125q-2.15625 -2.328125 -2.15625 -6.65625q0 -2.796875 0.921875 -4.890625q0.9375 -2.109375 2.8281097 -3.15625q1.90625 -1.046875 4.125 -1.046875q2.828125 0 4.609375 1.421875q1.796875 1.421875 2.296875 4.046875l-2.84375 0.4375q-0.40625 -1.734375 -1.453125 -2.609375q-1.03125 -0.890625 -2.484375 -0.890625q-2.21875 0 -3.609375 1.59375q-1.375 1.578125 -1.375 5.015625q0 3.484375 1.328125 5.0625q1.34375 1.578125 3.484375 1.578125q1.734375 0 2.890625 -1.0625q1.15625 -1.0625 1.453125 -3.25zm5.4140625 6.328125l0 -23.859375l2.921875 0l0 13.609375l6.9375 -7.03125l3.78125 0l-6.59375 6.40625l7.265625 10.875l-3.609375 0l-5.71875 -8.84375l-2.0625 2.0l0 6.84375l-2.921875 0zm16.664062 -20.484375l0 -3.375l2.921875 0l0 3.375l-2.921875 0zm0 20.484375l0 -17.28125l2.921875 0l0 17.28125l-2.921875 0zm7.3888245 0l0 -17.28125l2.625 0l0 2.453125q1.90625 -2.84375 5.5 -2.84375q1.5625 0 2.875 0.5625q1.3125 0.5625 1.953125 1.46875q0.65625 0.90625 0.921875 2.171875q0.15625 0.8125 0.15625 2.84375l0 10.625l-2.921875 0l0 -10.515625q0 -1.78125 -0.34375 -2.671875q-0.34375 -0.890625 -1.21875 -1.421875q-0.859375 -0.53125 -2.03125 -0.53125q-1.875 0 -3.234375 1.1875q-1.359375 1.1875 -1.359375 4.515625l0 9.4375l-2.921875 0zm17.988647 1.4375l2.84375 0.421875q0.1875 1.3125 1.0 1.921875q1.09375 0.8125 2.984375 0.8125q2.03125 0 3.125 -0.8125q1.109375 -0.8125 1.5 -2.28125q0.234375 -0.890625 0.21875 -3.765625q-1.921875 2.265625 -4.78125 2.265625q-3.5625 0 -5.515625 -2.5625q-1.953125 -2.578125 -1.953125 -6.171875q0 -2.484375 0.890625 -4.5625q0.890625 -2.09375 2.59375 -3.234375q1.703125 -1.140625 4.0 -1.140625q3.0625 0 5.046875 2.46875l0 -2.078125l2.703125 0l0 14.9375q0 4.03125 -0.828125 5.71875q-0.828125 1.6875 -2.609375 2.65625q-1.78125 0.984375 -4.375 0.984375q-3.09375 0 -5.0 -1.390625q-1.90625 -1.390625 -1.84375 -4.1875zm2.421875 -10.390625q0 3.40625 1.34375 4.96875q1.359375 1.5625 3.390625 1.5625q2.03125 0 3.390625 -1.546875q1.375 -1.5625 1.375 -4.890625q0 -3.171875 -1.421875 -4.78125q-1.40625 -1.609375 -3.390625 -1.609375q-1.953125 0 -3.328125 1.59375q-1.359375 1.578125 -1.359375 4.703125z" fill-rule="nonzero"/><path fill="#000000" fill-opacity="0.0" d="m644.3611 249.7807l0 0c0 -91.28789 69.76605 -165.29135 155.82678 -165.29135l0 0c41.32782 0 80.96301 17.414574 110.18616 48.412712c29.223206 30.998138 45.640625 73.040634 45.640625 116.87863l0 0c0 91.28787 -69.76599 165.29132 -155.82678 165.29132l0 0c-86.06073 0 -155.82678 -74.00345 -155.82678 -165.29132z" fill-rule="evenodd"/><path stroke="#502089" stroke-width="4.0" stroke-linejoin="round" stroke-linecap="butt" d="m644.3611 249.7807l0 0c0 -91.28789 69.76605 -165.29135 155.82678 -165.29135l0 0c41.32782 0 80.96301 17.414574 110.18616 48.412712c29.223206 30.998138 45.640625 73.040634 45.640625 116.87863l0 0c0 91.28787 -69.76599 165.29132 -155.82678 165.29132l0 0c-86.06073 0 -155.82678 -74.00345 -155.82678 -165.29132z" fill-rule="evenodd"/><path fill="#ffffff" d="m721.71906 241.7807l9.15625 -23.859375l3.40625 0l9.765625 23.859375l-3.59375 0l-2.78125 -7.21875l-9.984375 0l-2.625 7.21875l-3.34375 0zm6.875 -9.796875l8.09375 0l-2.484375 -6.609375q-1.140625 -3.015625 -1.703125 -4.9375q-0.453125 2.28125 -1.28125 4.546875l-2.625 7.0zm21.799255 9.796875l-6.578125 -17.28125l3.09375 0l3.703125 10.34375q0.609375 1.6875 1.109375 3.484375q0.390625 -1.359375 1.09375 -3.28125l3.84375 -10.546875l3.015625 0l-6.546875 17.28125l-2.734375 0zm23.132812 -2.125q-1.625 1.375 -3.125 1.953125q-1.5 0.5625 -3.234375 0.5625q-2.84375 0 -4.375 -1.390625q-1.53125 -1.390625 -1.53125 -3.5625q0 -1.265625 0.578125 -2.3125q0.578125 -1.046875 1.515625 -1.671875q0.9375 -0.640625 2.109375 -0.96875q0.859375 -0.234375 2.59375 -0.4375q3.546875 -0.421875 5.234375 -1.015625q0.015625 -0.609375 0.015625 -0.765625q0 -1.78125 -0.828125 -2.515625q-1.125 -1.0 -3.34375 -1.0q-2.0625 0 -3.046875 0.734375q-0.984375 0.71875 -1.453125 2.546875l-2.875 -0.390625q0.390625 -1.828125 1.28125 -2.953125q0.90625 -1.140625 2.59375 -1.75q1.703125 -0.609375 3.921875 -0.609375q2.21875 0 3.59375 0.53125q1.390625 0.515625 2.03125 1.3125q0.65625 0.78125 0.921875 1.984375q0.140625 0.75 0.140625 2.703125l0 3.90625q0 4.078125 0.1875 5.15625q0.1875 1.078125 0.75 2.078125l-3.0625 0q-0.453125 -0.90625 -0.59375 -2.125zm-0.234375 -6.546875q-1.59375 0.65625 -4.78125 1.109375q-1.8125 0.25 -2.5625 0.578125q-0.75 0.328125 -1.15625 0.953125q-0.40625 0.625 -0.40625 1.390625q0 1.171875 0.890625 1.953125q0.890625 0.78125 2.59375 0.78125q1.6875 0 3.0 -0.734375q1.328125 -0.75 1.953125 -2.03125q0.46875 -0.984375 0.46875 -2.921875l0 -1.078125zm7.5198975 -11.8125l0 -3.375l2.921875 0l0 3.375l-2.921875 0zm0 20.484375l0 -17.28125l2.921875 0l0 17.28125l-2.921875 0zm7.310669 0l0 -23.859375l2.9375 0l0 23.859375l-2.9375 0zm18.74823 -2.125q-1.625 1.375 -3.125 1.953125q-1.5 0.5625 -3.234375 0.5625q-2.84375 0 -4.375 -1.390625q-1.53125 -1.390625 -1.53125 -3.5625q0 -1.265625 0.578125 -2.3125q0.578125 -1.046875 1.515625 -1.671875q0.9375 -0.640625 2.109375 -0.96875q0.859375 -0.234375 2.59375 -0.4375q3.546875 -0.421875 5.234375 -1.015625q0.015625 -0.609375 0.015625 -0.765625q0 -1.78125 -0.828125 -2.515625q-1.125 -1.0 -3.34375 -1.0q-2.0625 0 -3.046875 0.734375q-0.984375 0.71875 -1.453125 2.546875l-2.875 -0.390625q0.390625 -1.828125 1.28125 -2.953125q0.90625 -1.140625 2.59375 -1.75q1.703125 -0.609375 3.921875 -0.609375q2.21875 0 3.59375 0.53125q1.390625 0.515625 2.03125 1.3125q0.65625 0.78125 0.921875 1.984375q0.140625 0.75 0.140625 2.703125l0 3.90625q0 4.078125 0.1875 5.15625q0.1875 1.078125 0.75 2.078125l-3.0625 0q-0.453125 -0.90625 -0.59375 -2.125zm-0.234375 -6.546875q-1.59375 0.65625 -4.78125 1.109375q-1.8125 0.25 -2.5625 0.578125q-0.75 0.328125 -1.15625 0.953125q-0.40625 0.625 -0.40625 1.390625q0 1.171875 0.890625 1.953125q0.890625 0.78125 2.59375 0.78125q1.6875 0 3.0 -0.734375q1.328125 -0.75 1.953125 -2.03125q0.46875 -0.984375 0.46875 -2.921875l0 -1.078125zm10.191772 8.671875l-2.703125 0l0 -23.859375l2.921875 0l0 8.515625q1.859375 -2.328125 4.734375 -2.328125q1.59375 0 3.015625 0.640625q1.421875 0.640625 2.34375 1.8125q0.921875 1.15625 1.4375 2.8125q0.53125 1.640625 0.53125 3.5q0 4.453125 -2.203125 6.875q-2.1875 2.421875 -5.265625 2.421875q-3.0625 0 -4.8125 -2.5625l0 2.171875zm-0.03125 -8.765625q0 3.109375 0.859375 4.484375q1.375 2.265625 3.734375 2.265625q1.921875 0 3.3125 -1.671875q1.40625 -1.671875 1.40625 -4.96875q0 -3.390625 -1.34375 -5.0q-1.34375 -1.609375 -3.25 -1.609375q-1.90625 0 -3.3125 1.671875q-1.40625 1.671875 -1.40625 4.828125zm15.894897 -11.71875l0 -3.375l2.921875 0l0 3.375l-2.921875 0zm0 20.484375l0 -17.28125l2.921875 0l0 17.28125l-2.921875 0zm7.310669 0l0 -23.859375l2.9375 0l0 23.859375l-2.9375 0zm7.49823 -20.484375l0 -3.375l2.921875 0l0 3.375l-2.921875 0zm0 20.484375l0 -17.28125l2.921875 0l0 17.28125l-2.921875 0zm13.779419 -2.625l0.421875 2.59375q-1.234375 0.265625 -2.21875 0.265625q-1.59375 0 -2.46875 -0.5q-0.875 -0.515625 -1.234375 -1.328125q-0.359375 -0.828125 -0.359375 -3.46875l0 -9.9375l-2.15625 0l0 -2.28125l2.15625 0l0 -4.28125l2.90625 -1.75l0 6.03125l2.953125 0l0 2.28125l-2.953125 0l0 10.109375q0 1.25 0.15625 1.609375q0.15625 0.359375 0.5 0.578125q0.359375 0.203125 1.015625 0.203125q0.484375 0 1.28125 -0.125zm2.7283936 9.28125l-0.328125 -2.75q0.96875 0.265625 1.6875 0.265625q0.96875 0 1.546875 -0.328125q0.59375 -0.328125 0.96875 -0.921875q0.28125 -0.4375 0.890625 -2.171875q0.09375 -0.25 0.265625 -0.71875l-6.5625 -17.3125l3.15625 0l3.609375 10.0q0.6875 1.90625 1.25 4.015625q0.5 -2.015625 1.203125 -3.9375l3.6875 -10.078125l2.9375 0l-6.578125 17.578125q-1.0625 2.84375 -1.640625 3.921875q-0.78125 1.4375 -1.796875 2.109375q-1.0 0.6875 -2.40625 0.6875q-0.84375 0 -1.890625 -0.359375z" fill-rule="nonzero"/><path fill="#ffffff" d="m715.45416 279.6557q-1.625 1.375 -3.125 1.953125q-1.5 0.5625 -3.234375 0.5625q-2.84375 0 -4.375 -1.390625q-1.53125 -1.390625 -1.53125 -3.5625q0 -1.265625 0.578125 -2.3125q0.578125 -1.046875 1.515625 -1.671875q0.9375 -0.640625 2.109375 -0.96875q0.859375 -0.234375 2.59375 -0.4375q3.546875 -0.421875 5.234375 -1.015625q0.015625 -0.609375 0.015625 -0.765625q0 -1.78125 -0.828125 -2.515625q-1.125 -1.0 -3.34375 -1.0q-2.0625 0 -3.046875 0.734375q-0.984375 0.71875 -1.453125 2.546875l-2.875 -0.390625q0.390625 -1.828125 1.28125 -2.953125q0.90625 -1.140625 2.59375 -1.75q1.703125 -0.609375 3.921875 -0.609375q2.21875 0 3.59375 0.53125q1.390625 0.515625 2.03125 1.3125q0.65625 0.78125 0.921875 1.984375q0.140625 0.75 0.140625 2.703125l0 3.90625q0 4.078125 0.1875 5.15625q0.1875 1.078125 0.75 2.078125l-3.0625 0q-0.453125 -0.90625 -0.59375 -2.125zm-0.234375 -6.546875q-1.59375 0.65625 -4.78125 1.109375q-1.8125 0.25 -2.5625 0.578125q-0.75 0.328125 -1.15625 0.953125q-0.40625 0.625 -0.40625 1.390625q0 1.171875 0.890625 1.953125q0.890625 0.78125 2.59375 0.78125q1.6875 0 3.0 -0.734375q1.328125 -0.75 1.953125 -2.03125q0.46875 -0.984375 0.46875 -2.921875l0 -1.078125zm7.5042725 8.671875l0 -17.28125l2.625 0l0 2.453125q1.90625 -2.84375 5.5 -2.84375q1.5625 0 2.875 0.5625q1.3125 0.5625 1.953125 1.46875q0.65625 0.90625 0.921875 2.171875q0.15625 0.8125 0.15625 2.84375l0 10.625l-2.921875 0l0 -10.515625q0 -1.78125 -0.34375 -2.671875q-0.34375 -0.890625 -1.21875 -1.421875q-0.859375 -0.53125 -2.03125 -0.53125q-1.875 0 -3.234375 1.1875q-1.359375 1.1875 -1.359375 4.515625l0 9.4375l-2.921875 0zm29.738647 0l0 -2.1875q-1.640625 2.578125 -4.828125 2.578125q-2.0625 0 -3.796875 -1.140625q-1.734375 -1.140625 -2.6875 -3.171875q-0.953125 -2.046875 -0.953125 -4.703125q0 -2.59375 0.859375 -4.6875q0.859375 -2.109375 2.578125 -3.234375q1.734375 -1.125 3.875 -1.125q1.5625 0 2.78125 0.65625q1.21875 0.65625 1.984375 1.71875l0 -8.5625l2.90625 0l0 23.859375l-2.71875 0zm-9.25 -8.625q0 3.3125 1.390625 4.96875q1.40625 1.640625 3.3125 1.640625q1.90625 0 3.25 -1.5625q1.34375 -1.578125 1.34375 -4.796875q0 -3.546875 -1.375 -5.203125q-1.359375 -1.671875 -3.359375 -1.671875q-1.953125 0 -3.265625 1.59375q-1.296875 1.59375 -1.296875 5.03125zm26.748291 8.625l0 -23.859375l3.15625 0l0 23.859375l-3.15625 0zm8.353394 0l0 -17.28125l2.625 0l0 2.453125q1.90625 -2.84375 5.5 -2.84375q1.5625 0 2.875 0.5625q1.3125 0.5625 1.953125 1.46875q0.65625 0.90625 0.921875 2.171875q0.15625 0.8125 0.15625 2.84375l0 10.625l-2.921875 0l0 -10.515625q0 -1.78125 -0.34375 -2.671875q-0.34375 -0.890625 -1.21875 -1.421875q-0.859375 -0.53125 -2.03125 -0.53125q-1.875 0 -3.234375 1.1875q-1.359375 1.1875 -1.359375 4.515625l0 9.4375l-2.921875 0zm29.801147 -6.328125l2.890625 0.375q-0.46875 2.96875 -2.421875 4.65625q-1.9375 1.6875 -4.78125 1.6875q-3.546875 0 -5.703125 -2.3125q-2.15625 -2.328125 -2.15625 -6.65625q0 -2.796875 0.921875 -4.890625q0.9375 -2.109375 2.828125 -3.15625q1.90625 -1.046875 4.125 -1.046875q2.828125 0 4.609375 1.421875q1.796875 1.421875 2.296875 4.046875l-2.84375 0.4375q-0.40625 -1.734375 -1.453125 -2.609375q-1.03125 -0.890625 -2.484375 -0.890625q-2.21875 0 -3.609375 1.59375q-1.375 1.578125 -1.375 5.015625q0 3.484375 1.328125 5.0625q1.34375 1.578125 3.484375 1.578125q1.734375 0 2.890625 -1.0625q1.15625 -1.0625 1.453125 -3.25zm5.3203125 6.328125l0 -23.859375l2.9375 0l0 23.859375l-2.9375 0zm18.795044 0l0 -2.53125q-2.015625 2.921875 -5.46875 2.921875q-1.53125 0 -2.859375 -0.578125q-1.328125 -0.59375 -1.96875 -1.484375q-0.640625 -0.890625 -0.90625 -2.171875q-0.1875 -0.859375 -0.1875 -2.734375l0 -10.703125l2.9375 0l0 9.578125q0 2.296875 0.171875 3.09375q0.28125 1.15625 1.171875 1.828125q0.90625 0.65625 2.21875 0.65625q1.3125 0 2.46875 -0.671875q1.15625 -0.6875 1.640625 -1.84375q0.484375 -1.171875 0.484375 -3.375l0 -9.265625l2.921875 0l0 17.28125l-2.625 0zm6.0511475 -5.15625l2.890625 -0.453125q0.25 1.734375 1.359375 2.671875q1.109375 0.921875 3.109375 0.921875q2.03125 0 3.0 -0.8125q0.984375 -0.828125 0.984375 -1.9375q0 -1.0 -0.875 -1.5625q-0.59375 -0.390625 -2.984375 -1.0q-3.234375 -0.8125 -4.484375 -1.40625q-1.234375 -0.59375 -1.875 -1.640625q-0.640625 -1.046875 -0.640625 -2.3125q0 -1.15625 0.53125 -2.140625q0.53125 -0.984375 1.4375 -1.640625q0.6875 -0.5 1.859375 -0.84375q1.1875 -0.359375 2.53125 -0.359375q2.03125 0 3.5625 0.59375q1.546875 0.578125 2.28125 1.578125q0.734375 1.0 1.015625 2.671875l-2.875 0.390625q-0.1875 -1.328125 -1.125 -2.078125q-0.9375 -0.75 -2.640625 -0.75q-2.03125 0 -2.890625 0.671875q-0.859375 0.65625 -0.859375 1.5625q0 0.5625 0.359375 1.015625q0.359375 0.484375 1.125 0.78125q0.4375 0.171875 2.578125 0.75q3.109375 0.828125 4.34375 1.359375q1.234375 0.53125 1.921875 1.546875q0.703125 1.0 0.703125 2.5q0 1.46875 -0.859375 2.765625q-0.84375 1.28125 -2.453125 2.0q-1.609375 0.703125 -3.65625 0.703125q-3.359375 0 -5.125 -1.390625q-1.765625 -1.40625 -2.25 -4.15625zm17.851562 -15.328125l0 -3.375l2.921875 0l0 3.375l-2.921875 0zm0 20.484375l0 -17.28125l2.921875 0l0 17.28125l-2.921875 0zm6.295105 -8.640625q0 -4.796875 2.671875 -7.109375q2.21875 -1.921875 5.421875 -1.921875q3.578125 0 5.828125 2.34375q2.265625 2.328125 2.265625 6.4375q0 3.34375 -1.0 5.265625q-1.0 1.90625 -2.921875 2.96875q-1.90625 1.046875 -4.171875 1.046875q-3.625 0 -5.859375 -2.328125q-2.234375 -2.328125 -2.234375 -6.703125zm3.015625 0q0 3.3125 1.4375 4.96875q1.453125 1.65625 3.640625 1.65625q2.1875 0 3.625 -1.65625q1.453125 -1.671875 1.453125 -5.0625q0 -3.203125 -1.453125 -4.859375q-1.453125 -1.65625 -3.625 -1.65625q-2.1875 0 -3.640625 1.640625q-1.4375 1.640625 -1.4375 4.96875zm16.613647 8.640625l0 -17.28125l2.625 0l0 2.453125q1.90625 -2.84375 5.5 -2.84375q1.5625 0 2.875 0.5625q1.3125 0.5625 1.953125 1.46875q0.65625 0.90625 0.921875 2.171875q0.15625 0.8125 0.15625 2.84375l0 10.625l-2.921875 0l0 -10.515625q0 -1.78125 -0.34375 -2.671875q-0.34375 -0.890625 -1.21875 -1.421875q-0.859375 -0.53125 -2.03125 -0.53125q-1.875 0 -3.234375 1.1875q-1.359375 1.1875 -1.359375 4.515625l0 9.4375l-2.921875 0z" fill-rule="nonzero"/><path fill="#eeeeee" d="m262.02197 392.8904l411.4173 0l0 -10.070862l20.141724 20.141724l-20.141724 20.141724l0 -10.070862l-411.4173 0z" fill-rule="evenodd"/><path stroke="#595959" stroke-width="1.0" stroke-linejoin="round" stroke-linecap="butt" d="m262.02197 392.8904l411.4173 0l0 -10.070862l20.141724 20.141724l-20.141724 20.141724l0 -10.070862l-411.4173 0z" fill-rule="evenodd"/><path fill="#eeeeee" d="m693.58905 94.56023l-411.41733 0l0 -10.070869l-20.141754 20.141731l20.141754 20.141739l0 -10.070869l411.41733 0z" fill-rule="evenodd"/><path stroke="#595959" stroke-width="1.0" stroke-linejoin="round" stroke-linecap="butt" d="m693.58905 94.56023l-411.41733 0l0 -10.070869l-20.141754 20.141731l20.141754 20.141739l0 -10.070869l411.41733 0z" fill-rule="evenodd"/><path fill="#000000" fill-opacity="0.0" d="m262.02197 406.99738l431.55902 0l0 87.275604l-431.55902 0z" fill-rule="evenodd"/><path fill="#ffffff" d="m288.4216 442.87738l0 -20.046875l7.53125 0q2.296875 0 3.671875 0.609375q1.390625 0.609375 2.171875 1.875q0.796875 1.265625 0.796875 2.640625q0 1.296875 -0.703125 2.4375q-0.6875 1.125 -2.109375 1.8125q1.828125 0.546875 2.796875 1.828125q0.984375 1.28125 0.984375 3.03125q0 1.40625 -0.59375 2.625q-0.59375 1.203125 -1.46875 1.859375q-0.875 0.65625 -2.203125 1.0q-1.3125 0.328125 -3.234375 0.328125l-7.640625 0zm2.65625 -11.625l4.328125 0q1.765625 0 2.53125 -0.234375q1.015625 -0.296875 1.53125 -0.984375q0.515625 -0.703125 0.515625 -1.765625q0 -0.984375 -0.484375 -1.75q-0.484375 -0.765625 -1.375 -1.03125q-0.875 -0.28125 -3.046875 -0.28125l-4.0 0l0 6.046875zm0 9.265625l4.984375 0q1.296875 0 1.8125 -0.109375q0.921875 -0.15625 1.53125 -0.53125q0.609375 -0.390625 1.0 -1.125q0.40625 -0.734375 0.40625 -1.6875q0 -1.125 -0.578125 -1.953125q-0.5625 -0.828125 -1.59375 -1.15625q-1.015625 -0.328125 -2.921875 -0.328125l-4.640625 0l0 6.890625zm25.300781 0.5625q-1.375 1.171875 -2.640625 1.65625q-1.265625 0.46875 -2.71875 0.46875q-2.390625 0 -3.671875 -1.171875q-1.28125 -1.171875 -1.28125 -2.984375q0 -1.0625 0.484375 -1.9375q0.484375 -0.890625 1.265625 -1.421875q0.796875 -0.53125 1.78125 -0.8125q0.71875 -0.1875 2.1875 -0.375q2.96875 -0.34375 4.375 -0.84375q0.015625 -0.5 0.015625 -0.640625q0 -1.5 -0.6875 -2.125q-0.953125 -0.828125 -2.8125 -0.828125q-1.734375 0 -2.5625 0.609375q-0.828125 0.609375 -1.21875 2.15625l-2.40625 -0.328125q0.328125 -1.546875 1.078125 -2.5q0.75 -0.953125 2.171875 -1.453125q1.421875 -0.515625 3.296875 -0.515625q1.859375 0 3.015625 0.4375q1.171875 0.4375 1.71875 1.109375q0.546875 0.65625 0.765625 1.65625q0.125 0.640625 0.125 2.28125l0 3.28125q0 3.421875 0.15625 4.34375q0.15625 0.90625 0.625 1.734375l-2.578125 0q-0.375 -0.765625 -0.484375 -1.796875zm-0.21875 -5.484375q-1.328125 0.546875 -4.015625 0.921875q-1.515625 0.21875 -2.140625 0.5q-0.625 0.265625 -0.96875 0.796875q-0.34375 0.515625 -0.34375 1.171875q0 0.984375 0.734375 1.640625q0.75 0.65625 2.1875 0.65625q1.421875 0 2.53125 -0.625q1.109375 -0.625 1.625 -1.703125q0.390625 -0.84375 0.390625 -2.46875l0 -0.890625zm15.791016 1.96875l2.40625 0.3125q-0.390625 2.5 -2.03125 3.921875q-1.625 1.40625 -4.0 1.40625q-2.984375 0 -4.796875 -1.9375q-1.8125 -1.953125 -1.8125 -5.59375q0 -2.359375 0.78125 -4.109375q0.78125 -1.765625 2.375 -2.640625q1.59375 -0.890625 3.46875 -0.890625q2.359375 0 3.859375 1.203125q1.5 1.1875 1.9375 3.390625l-2.40625 0.359375q-0.328125 -1.453125 -1.203125 -2.1875q-0.875 -0.75 -2.09375 -0.75q-1.859375 0 -3.03125 1.34375q-1.15625 1.328125 -1.15625 4.203125q0 2.9375 1.109375 4.265625q1.125 1.3125 2.9375 1.3125q1.453125 0 2.421875 -0.875q0.96875 -0.890625 1.234375 -2.734375zm4.53125 5.3125l0 -20.046875l2.46875 0l0 11.4375l5.8125 -5.90625l3.1875 0l-5.546875 5.375l6.109375 9.140625l-3.03125 0l-4.796875 -7.421875l-1.734375 1.671875l0 5.75l-2.46875 0zm23.921875 -4.671875l2.546875 0.3125q-0.59375 2.21875 -2.234375 3.453125q-1.625 1.234375 -4.15625 1.234375q-3.171875 0 -5.046875 -1.953125q-1.859375 -1.96875 -1.859375 -5.515625q0 -3.65625 1.875 -5.671875q1.890625 -2.03125 4.90625 -2.03125q2.90625 0 4.75 1.984375q1.84375 1.96875 1.84375 5.578125q0 0.21875 -0.015625 0.65625l-10.828125 0q0.140625 2.390625 1.359375 3.65625q1.21875 1.265625 3.03125 1.265625q1.359375 0 2.3125 -0.703125q0.953125 -0.71875 1.515625 -2.265625zm-8.078125 -3.984375l8.109375 0q-0.15625 -1.828125 -0.921875 -2.75q-1.1875 -1.421875 -3.0625 -1.421875q-1.6875 0 -2.84375 1.140625q-1.15625 1.125 -1.28125 3.03125zm23.134766 8.65625l0 -1.828125q-1.375 2.15625 -4.0625 2.15625q-1.734375 0 -3.1875 -0.953125q-1.453125 -0.96875 -2.265625 -2.671875q-0.796875 -1.71875 -0.796875 -3.953125q0 -2.171875 0.71875 -3.9375q0.734375 -1.78125 2.1875 -2.71875q1.453125 -0.9375 3.234375 -0.9375q1.3125 0 2.328125 0.5625q1.03125 0.546875 1.6875 1.421875l0 -7.1875l2.4375 0l0 20.046875l-2.28125 0zm-7.78125 -7.25q0 2.796875 1.171875 4.171875q1.1875 1.375 2.78125 1.375q1.609375 0 2.734375 -1.3125q1.140625 -1.3125 1.140625 -4.03125q0 -2.96875 -1.15625 -4.359375q-1.140625 -1.40625 -2.828125 -1.40625q-1.640625 0 -2.75 1.34375q-1.09375 1.34375 -1.09375 4.21875zm22.023438 7.25l0 -20.046875l7.5625 0q2.0 0 3.046875 0.1875q1.484375 0.25 2.484375 0.953125q1.0 0.6875 1.59375 1.9375q0.609375 1.234375 0.609375 2.71875q0 2.5625 -1.625 4.328125q-1.625 1.765625 -5.875 1.765625l-5.140625 0l0 8.15625l-2.65625 0zm2.65625 -10.515625l5.1875 0q2.5625 0 3.640625 -0.953125q1.078125 -0.953125 1.078125 -2.703125q0 -1.25 -0.640625 -2.140625q-0.625 -0.90625 -1.65625 -1.1875q-0.671875 -0.171875 -2.484375 -0.171875l-5.125 0l0 7.15625zm25.191406 8.71875q-1.375 1.171875 -2.640625 1.65625q-1.265625 0.46875 -2.71875 0.46875q-2.390625 0 -3.671875 -1.171875q-1.28125 -1.171875 -1.28125 -2.984375q0 -1.0625 0.484375 -1.9375q0.484375 -0.890625 1.265625 -1.421875q0.796875 -0.53125 1.78125 -0.8125q0.71875 -0.1875 2.1875 -0.375q2.96875 -0.34375 4.375 -0.84375q0.015625 -0.5 0.015625 -0.640625q0 -1.5 -0.6875 -2.125q-0.953125 -0.828125 -2.8125 -0.828125q-1.734375 0 -2.5625 0.609375q-0.828125 0.609375 -1.21875 2.15625l-2.40625 -0.328125q0.328125 -1.546875 1.078125 -2.5q0.75 -0.953125 2.171875 -1.453125q1.421875 -0.515625 3.296875 -0.515625q1.859375 0 3.015625 0.4375q1.171875 0.4375 1.71875 1.109375q0.546875 0.65625 0.765625 1.65625q0.125 0.640625 0.125 2.28125l0 3.28125q0 3.421875 0.15625 4.34375q0.15625 0.90625 0.625 1.734375l-2.578125 0q-0.375 -0.765625 -0.484375 -1.796875zm-0.21875 -5.484375q-1.328125 0.546875 -4.015625 0.921875q-1.515625 0.21875 -2.140625 0.5q-0.625 0.265625 -0.96875 0.796875q-0.34375 0.515625 -0.34375 1.171875q0 0.984375 0.734375 1.640625q0.75 0.65625 2.1875 0.65625q1.421875 0 2.53125 -0.625q1.109375 -0.625 1.625 -1.703125q0.390625 -0.84375 0.390625 -2.46875l0 -0.890625zm6.2753906 7.28125l0 -14.515625l2.21875 0l0 2.203125q0.84375 -1.546875 1.5625 -2.03125q0.71875 -0.5 1.578125 -0.5q1.25 0 2.53125 0.78125l-0.84375 2.296875q-0.90625 -0.546875 -1.796875 -0.546875q-0.8125 0 -1.453125 0.5q-0.640625 0.484375 -0.921875 1.34375q-0.40625 1.3125 -0.40625 2.859375l0 7.609375l-2.46875 0zm18.839844 -1.796875q-1.375 1.171875 -2.640625 1.65625q-1.265625 0.46875 -2.71875 0.46875q-2.390625 0 -3.671875 -1.171875q-1.28125 -1.171875 -1.28125 -2.984375q0 -1.0625 0.484375 -1.9375q0.484375 -0.890625 1.265625 -1.421875q0.796875 -0.53125 1.78125 -0.8125q0.71875 -0.1875 2.1875 -0.375q2.96875 -0.34375 4.375 -0.84375q0.015625 -0.5 0.015625 -0.640625q0 -1.5 -0.6875 -2.125q-0.953125 -0.828125 -2.8125 -0.828125q-1.734375 0 -2.5625 0.609375q-0.828125 0.609375 -1.21875 2.15625l-2.40625 -0.328125q0.328125 -1.546875 1.078125 -2.5q0.75 -0.953125 2.171875 -1.453125q1.421875 -0.515625 3.296875 -0.515625q1.859375 0 3.015625 0.4375q1.171875 0.4375 1.71875 1.109375q0.546875 0.65625 0.765625 1.65625q0.125 0.640625 0.125 2.28125l0 3.28125q0 3.421875 0.15625 4.34375q0.15625 0.90625 0.625 1.734375l-2.578125 0q-0.375 -0.765625 -0.484375 -1.796875zm-0.21875 -5.484375q-1.328125 0.546875 -4.015625 0.921875q-1.515625 0.21875 -2.140625 0.5q-0.625 0.265625 -0.96875 0.796875q-0.34375 0.515625 -0.34375 1.171875q0 0.984375 0.734375 1.640625q0.75 0.65625 2.1875 0.65625q1.421875 0 2.53125 -0.625q1.109375 -0.625 1.625 -1.703125q0.390625 -0.84375 0.390625 -2.46875l0 -0.890625zm8.572266 7.28125l-2.28125 0l0 -20.046875l2.46875 0l0 7.15625q1.5625 -1.953125 3.96875 -1.953125q1.34375 0 2.53125 0.546875q1.203125 0.53125 1.96875 1.515625q0.78125 0.96875 1.21875 2.359375q0.4375 1.375 0.4375 2.9375q0 3.734375 -1.84375 5.78125q-1.84375 2.03125 -4.421875 2.03125q-2.578125 0 -4.046875 -2.140625l0 1.8125zm-0.015625 -7.375q0 2.609375 0.703125 3.78125q1.171875 1.890625 3.140625 1.890625q1.625 0 2.796875 -1.390625q1.171875 -1.40625 1.171875 -4.1875q0 -2.84375 -1.125 -4.1875q-1.125 -1.359375 -2.734375 -1.359375q-1.609375 0 -2.78125 1.40625q-1.171875 1.40625 -1.171875 4.046875zm13.275391 7.375l0 -20.046875l2.453125 0l0 20.046875l-2.453125 0zm5.361328 -7.265625q0 -4.03125 2.234375 -5.96875q1.875 -1.609375 4.5625 -1.609375q3.0 0 4.890625 1.96875q1.90625 1.953125 1.90625 5.40625q0 2.8125 -0.84375 4.421875q-0.828125 1.59375 -2.4375 2.484375q-1.609375 0.890625 -3.515625 0.890625q-3.046875 0 -4.921875 -1.953125q-1.875 -1.953125 -1.875 -5.640625zm2.515625 0q0 2.796875 1.21875 4.1875q1.21875 1.375 3.0625 1.375q1.84375 0 3.046875 -1.390625q1.21875 -1.390625 1.21875 -4.25q0 -2.6875 -1.21875 -4.078125q-1.21875 -1.390625 -3.046875 -1.390625q-1.84375 0 -3.0625 1.390625q-1.21875 1.375 -1.21875 4.15625zm23.447266 1.953125l2.40625 0.3125q-0.390625 2.5 -2.03125 3.921875q-1.625 1.40625 -4.0 1.40625q-2.984375 0 -4.796875 -1.9375q-1.8125 -1.953125 -1.8125 -5.59375q0 -2.359375 0.78125 -4.109375q0.78125 -1.765625 2.375 -2.640625q1.59375 -0.890625 3.46875 -0.890625q2.359375 0 3.859375 1.203125q1.5 1.1875 1.9375 3.390625l-2.40625 0.359375q-0.328125 -1.453125 -1.203125 -2.1875q-0.875 -0.75 -2.09375 -0.75q-1.859375 0 -3.03125 1.34375q-1.15625 1.328125 -1.15625 4.203125q0 2.9375 1.109375 4.265625q1.125 1.3125 2.9375 1.3125q1.453125 0 2.421875 -0.875q0.96875 -0.890625 1.234375 -2.734375zm4.53125 5.3125l0 -20.046875l2.46875 0l0 11.4375l5.8125 -5.90625l3.1875 0l-5.546875 5.375l6.109375 9.140625l-3.03125 0l-4.796875 -7.421875l-1.734375 1.671875l0 5.75l-2.46875 0z" fill-rule="nonzero"/><path fill="#ffffff" d="m537.00757 442.87738l-3.84375 0l-5.40625 -13.46875l-2.828125 13.46875l-3.828125 0l4.171875 -20.046875l3.859375 0l5.421875 13.421875l2.8125 -13.421875l3.828125 0l-4.1875 20.046875z" fill-rule="nonzero"/><path fill="#ffffff" d="m550.0388 442.87738l0 -20.046875l8.890625 0q2.671875 0 4.0625 0.546875q1.40625 0.53125 2.234375 1.90625q0.828125 1.359375 0.828125 3.015625q0 2.140625 -1.375 3.609375q-1.375 1.453125 -4.265625 1.84375q1.046875 0.515625 1.59375 1.0q1.171875 1.0625 2.203125 2.671875l3.484375 5.453125l-3.328125 0l-2.65625 -4.171875q-1.15625 -1.796875 -1.90625 -2.75q-0.75 -0.96875 -1.359375 -1.34375q-0.59375 -0.390625 -1.203125 -0.546875q-0.453125 -0.09375 -1.46875 -0.09375l-3.078125 0l0 8.90625l-2.65625 0zm2.65625 -11.203125l5.703125 0q1.8125 0 2.828125 -0.375q1.03125 -0.375 1.5625 -1.203125q0.53125 -0.828125 0.53125 -1.796875q0 -1.421875 -1.03125 -2.328125q-1.03125 -0.921875 -3.25 -0.921875l-6.34375 0l0 6.625zm27.142578 6.53125l2.546875 0.3125q-0.59375 2.21875 -2.234375 3.453125q-1.625 1.234375 -4.15625 1.234375q-3.171875 0 -5.046875 -1.953125q-1.859375 -1.96875 -1.859375 -5.515625q0 -3.65625 1.875 -5.671875q1.890625 -2.03125 4.90625 -2.03125q2.90625 0 4.75 1.984375q1.84375 1.96875 1.84375 5.578125q0 0.21875 -0.015625 0.65625l-10.828125 0q0.140625 2.390625 1.359375 3.65625q1.21875 1.265625 3.03125 1.265625q1.359375 0 2.3125 -0.703125q0.953125 -0.71875 1.515625 -2.265625zm-8.078125 -3.984375l8.109375 0q-0.15625 -1.828125 -0.921875 -2.75q-1.1875 -1.421875 -3.0625 -1.421875q-1.6875 0 -2.84375 1.140625q-1.15625 1.125 -1.28125 3.03125zm23.197266 6.859375q-1.375 1.171875 -2.640625 1.65625q-1.265625 0.46875 -2.71875 0.46875q-2.390625 0 -3.671875 -1.171875q-1.28125 -1.171875 -1.28125 -2.984375q0 -1.0625 0.484375 -1.9375q0.484375 -0.890625 1.265625 -1.421875q0.796875 -0.53125 1.78125 -0.8125q0.71875 -0.1875 2.1875 -0.375q2.96875 -0.34375 4.375 -0.84375q0.015625 -0.5 0.015625 -0.640625q0 -1.5 -0.6875 -2.125q-0.953125 -0.828125 -2.8125 -0.828125q-1.734375 0 -2.5625 0.609375q-0.828125 0.609375 -1.21875 2.15625l-2.40625 -0.328125q0.328125 -1.546875 1.078125 -2.5q0.75 -0.953125 2.171875 -1.453125q1.421875 -0.515625 3.296875 -0.515625q1.859375 0 3.015625 0.4375q1.171875 0.4375 1.71875 1.109375q0.546875 0.65625 0.765625 1.65625q0.125 0.640625 0.125 2.28125l0 3.28125q0 3.421875 0.15625 4.34375q0.15625 0.90625 0.625 1.734375l-2.578125 0q-0.375 -0.765625 -0.484375 -1.796875zm-0.21875 -5.484375q-1.328125 0.546875 -4.015625 0.921875q-1.515625 0.21875 -2.140625 0.5q-0.625 0.265625 -0.96875 0.796875q-0.34375 0.515625 -0.34375 1.171875q0 0.984375 0.734375 1.640625q0.75 0.65625 2.1875 0.65625q1.421875 0 2.53125 -0.625q1.109375 -0.625 1.625 -1.703125q0.390625 -0.84375 0.390625 -2.46875l0 -0.890625zm15.728516 7.28125l0 -1.828125q-1.375 2.15625 -4.0625 2.15625q-1.734375 0 -3.1875 -0.953125q-1.453125 -0.96875 -2.265625 -2.671875q-0.796875 -1.71875 -0.796875 -3.953125q0 -2.171875 0.71875 -3.9375q0.734375 -1.78125 2.1875 -2.71875q1.453125 -0.9375 3.234375 -0.9375q1.3125 0 2.328125 0.5625q1.03125 0.546875 1.6875 1.421875l0 -7.1875l2.4375 0l0 20.046875l-2.28125 0zm-7.78125 -7.25q0 2.796875 1.171875 4.171875q1.1875 1.375 2.78125 1.375q1.609375 0 2.734375 -1.3125q1.140625 -1.3125 1.140625 -4.03125q0 -2.96875 -1.15625 -4.359375q-1.140625 -1.40625 -2.828125 -1.40625q-1.640625 0 -2.75 1.34375q-1.09375 1.34375 -1.09375 4.21875zm13.822266 12.84375l-0.265625 -2.3125q0.796875 0.21875 1.40625 0.21875q0.8125 0 1.296875 -0.28125q0.5 -0.265625 0.8125 -0.75q0.234375 -0.375 0.765625 -1.84375q0.0625 -0.203125 0.21875 -0.59375l-5.515625 -14.546875l2.65625 0l3.015625 8.40625q0.59375 1.59375 1.046875 3.359375q0.4375 -1.6875 1.015625 -3.3125l3.109375 -8.453125l2.453125 0l-5.515625 14.765625q-0.890625 2.390625 -1.390625 3.296875q-0.65625 1.21875 -1.5 1.78125q-0.84375 0.5625 -2.015625 0.5625q-0.71875 0 -1.59375 -0.296875zm22.482422 -5.59375l0 -12.609375l-2.171875 0l0 -1.90625l2.171875 0l0 -1.546875q0 -1.46875 0.25 -2.171875q0.359375 -0.96875 1.25 -1.5625q0.90625 -0.59375 2.515625 -0.59375q1.046875 0 2.296875 0.25l-0.375 2.140625q-0.765625 -0.125 -1.4375 -0.125q-1.125 0 -1.59375 0.484375q-0.46875 0.46875 -0.46875 1.78125l0 1.34375l2.84375 0l0 1.90625l-2.84375 0l0 12.609375l-2.4375 0zm6.279297 -7.265625q0 -4.03125 2.234375 -5.96875q1.875 -1.609375 4.5625 -1.609375q3.0 0 4.890625 1.96875q1.90625 1.953125 1.90625 5.40625q0 2.8125 -0.84375 4.421875q-0.828125 1.59375 -2.4375 2.484375q-1.609375 0.890625 -3.515625 0.890625q-3.046875 0 -4.921875 -1.953125q-1.875 -1.953125 -1.875 -5.640625zm2.515625 0q0 2.796875 1.21875 4.1875q1.21875 1.375 3.0625 1.375q1.84375 0 3.046875 -1.390625q1.21875 -1.390625 1.21875 -4.25q0 -2.6875 -1.21875 -4.078125q-1.21875 -1.390625 -3.046875 -1.390625q-1.84375 0 -3.0625 1.390625q-1.21875 1.375 -1.21875 4.15625zm13.931641 7.265625l0 -14.515625l2.21875 0l0 2.203125q0.84375 -1.546875 1.5625 -2.03125q0.71875 -0.5 1.578125 -0.5q1.25 0 2.53125 0.78125l-0.84375 2.296875q-0.90625 -0.546875 -1.796875 -0.546875q-0.8125 0 -1.453125 0.5q-0.640625 0.484375 -0.921875 1.34375q-0.40625 1.3125 -0.40625 2.859375l0 7.609375l-2.46875 0z" fill-rule="nonzero"/><path fill="#ffffff" d="m411.86984 476.4774l7.703125 -20.046875l2.859375 0l8.203125 20.046875l-3.015625 0l-2.34375 -6.078125l-8.375 0l-2.203125 6.078125l-2.828125 0zm5.796875 -8.234375l6.78125 0l-2.078125 -5.546875q-0.96875 -2.53125 -1.421875 -4.15625q-0.390625 1.921875 -1.09375 3.828125l-2.1875 5.875zm18.294922 8.234375l-5.515625 -14.515625l2.59375 0l3.125 8.6875q0.5 1.40625 0.921875 2.921875q0.328125 -1.140625 0.921875 -2.75l3.21875 -8.859375l2.53125 0l-5.5 14.515625l-2.296875 0zm19.453125 -1.796875q-1.375 1.171875 -2.640625 1.65625q-1.265625 0.46875 -2.71875 0.46875q-2.390625 0 -3.671875 -1.171875q-1.28125 -1.171875 -1.28125 -2.984375q0 -1.0625 0.484375 -1.9375q0.484375 -0.890625 1.265625 -1.421875q0.796875 -0.53125 1.78125 -0.8125q0.71875 -0.1875 2.1875 -0.375q2.96875 -0.34375 4.375 -0.84375q0.015625 -0.5 0.015625 -0.640625q0 -1.5 -0.6875 -2.125q-0.953125 -0.828125 -2.8125 -0.828125q-1.734375 0 -2.5625 0.609375q-0.828125 0.609375 -1.21875 2.15625l-2.40625 -0.328125q0.328125 -1.546875 1.078125 -2.5q0.75 -0.953125 2.171875 -1.453125q1.421875 -0.515625 3.296875 -0.515625q1.859375 0 3.015625 0.4375q1.171875 0.4375 1.71875 1.109375q0.546875 0.65625 0.765625 1.65625q0.125 0.640625 0.125 2.28125l0 3.28125q0 3.421875 0.15625 4.34375q0.15625 0.90625 0.625 1.734375l-2.578125 0q-0.375 -0.765625 -0.484375 -1.796875zm-0.21875 -5.484375q-1.328125 0.546875 -4.015625 0.921875q-1.515625 0.21875 -2.140625 0.5q-0.625 0.265625 -0.96875 0.796875q-0.34375 0.515625 -0.34375 1.171875q0 0.984375 0.734375 1.640625q0.75 0.65625 2.1875 0.65625q1.421875 0 2.53125 -0.625q1.109375 -0.625 1.625 -1.703125q0.390625 -0.84375 0.390625 -2.46875l0 -0.890625zm6.3222656 -9.9375l0 -2.828125l2.46875 0l0 2.828125l-2.46875 0zm0 17.21875l0 -14.515625l2.46875 0l0 14.515625l-2.46875 0zm6.158203 0l0 -20.046875l2.453125 0l0 20.046875l-2.453125 0zm15.751953 -1.796875q-1.375 1.171875 -2.640625 1.65625q-1.265625 0.46875 -2.71875 0.46875q-2.390625 0 -3.671875 -1.171875q-1.28125 -1.171875 -1.28125 -2.984375q0 -1.0625 0.484375 -1.9375q0.484375 -0.890625 1.265625 -1.421875q0.796875 -0.53125 1.78125 -0.8125q0.71875 -0.1875 2.1875 -0.375q2.96875 -0.34375 4.375 -0.84375q0.015625 -0.5 0.015625 -0.640625q0 -1.5 -0.6875 -2.125q-0.953125 -0.828125 -2.8125 -0.828125q-1.734375 0 -2.5625 0.609375q-0.828125 0.609375 -1.21875 2.15625l-2.40625 -0.328125q0.328125 -1.546875 1.078125 -2.5q0.75 -0.953125 2.171875 -1.453125q1.421875 -0.515625 3.296875 -0.515625q1.859375 0 3.015625 0.4375q1.171875 0.4375 1.71875 1.109375q0.546875 0.65625 0.765625 1.65625q0.125 0.640625 0.125 2.28125l0 3.28125q0 3.421875 0.15625 4.34375q0.15625 0.90625 0.625 1.734375l-2.578125 0q-0.375 -0.765625 -0.484375 -1.796875zm-0.21875 -5.484375q-1.328125 0.546875 -4.015625 0.921875q-1.515625 0.21875 -2.140625 0.5q-0.625 0.265625 -0.96875 0.796875q-0.34375 0.515625 -0.34375 1.171875q0 0.984375 0.734375 1.640625q0.75 0.65625 2.1875 0.65625q1.421875 0 2.53125 -0.625q1.109375 -0.625 1.625 -1.703125q0.390625 -0.84375 0.390625 -2.46875l0 -0.890625zm8.572266 7.28125l-2.28125 0l0 -20.046875l2.46875 0l0 7.15625q1.5625 -1.953125 3.96875 -1.953125q1.34375 0 2.53125 0.546875q1.203125 0.53125 1.96875 1.515625q0.78125 0.96875 1.21875 2.359375q0.4375 1.375 0.4375 2.9375q0 3.734375 -1.84375 5.78125q-1.84375 2.03125 -4.421875 2.03125q-2.578125 0 -4.046875 -2.140625l0 1.8125zm-0.015625 -7.375q0 2.609375 0.703125 3.78125q1.171875 1.890625 3.140625 1.890625q1.625 0 2.796875 -1.390625q1.171875 -1.40625 1.171875 -4.1875q0 -2.84375 -1.125 -4.1875q-1.125 -1.359375 -2.734375 -1.359375q-1.609375 0 -2.78125 1.40625q-1.171875 1.40625 -1.171875 4.046875zm13.337891 -9.84375l0 -2.828125l2.46875 0l0 2.828125l-2.46875 0zm0 17.21875l0 -14.515625l2.46875 0l0 14.515625l-2.46875 0zm6.158203 0l0 -20.046875l2.4531555 0l0 20.046875l-2.4531555 0zm6.2832336 -17.21875l0 -2.828125l2.46875 0l0 2.828125l-2.46875 0zm0 17.21875l0 -14.515625l2.46875 0l0 14.515625l-2.46875 0zm11.580078 -2.203125l0.359375 2.171875q-1.046875 0.21875 -1.859375 0.21875q-1.34375 0 -2.078125 -0.421875q-0.734375 -0.421875 -1.046875 -1.109375q-0.296875 -0.6875 -0.296875 -2.90625l0 -8.359375l-1.796875 0l0 -1.90625l1.796875 0l0 -3.59375l2.453125 -1.484375l0 5.078125l2.46875 0l0 1.90625l-2.46875 0l0 8.5q0 1.046875 0.125 1.34375q0.125 0.296875 0.421875 0.484375q0.296875 0.171875 0.84375 0.171875q0.40625 0 1.078125 -0.09375zm2.2949219 7.796875l-0.265625 -2.3125q0.796875 0.21875 1.40625 0.21875q0.8125 0 1.296875 -0.28125q0.5 -0.265625 0.8125 -0.75q0.234375 -0.375 0.765625 -1.84375q0.0625 -0.203125 0.21875 -0.59375l-5.515625 -14.546875l2.65625 0l3.015625 8.40625q0.59375 1.59375 1.046875 3.359375q0.4375 -1.6875 1.015625 -3.3125l3.109375 -8.453125l2.453125 0l-5.515625 14.765625q-0.890625 2.390625 -1.390625 3.296875q-0.65625 1.21875 -1.5 1.78125q-0.84375 0.5625 -2.015625 0.5625q-0.71875 0 -1.59375 -0.296875z" fill-rule="nonzero"/><path fill="#000000" fill-opacity="0.0" d="m234.22806 0l487.14963 0l0 87.27559l-487.14963 0z" fill-rule="evenodd"/><path fill="#ffffff" d="m276.4806 35.879997l0 -20.046875l7.5625 0q2.0 0 3.046875 0.1875q1.484375 0.25 2.484375 0.953125q1.0 0.6875 1.59375 1.9375q0.609375 1.234375 0.609375 2.71875q0 2.5625 -1.625 4.328125q-1.625 1.765625 -5.875 1.765625l-5.140625 0l0 8.15625l-2.65625 0zm2.65625 -10.515625l5.1875 0q2.5625 0 3.640625 -0.953125q1.078125 -0.953125 1.078125 -2.703125q0 -1.25 -0.640625 -2.140625q-0.625 -0.90625 -1.65625 -1.1875q-0.671875 -0.171875 -2.484375 -0.171875l-5.125 0l0 7.15625zm25.191406 8.71875q-1.375 1.171875 -2.640625 1.65625q-1.265625 0.46875 -2.71875 0.46875q-2.390625 0 -3.671875 -1.171875q-1.28125 -1.171875 -1.28125 -2.984375q0 -1.0625 0.484375 -1.9375q0.484375 -0.890625 1.265625 -1.421875q0.796875 -0.53125 1.78125 -0.8125q0.71875 -0.1875 2.1875 -0.375q2.96875 -0.34375 4.375 -0.84375q0.015625 -0.5 0.015625 -0.640625q0 -1.5 -0.6875 -2.125q-0.953125 -0.828125 -2.8125 -0.828125q-1.734375 0 -2.5625 0.609375q-0.828125 0.609375 -1.21875 2.15625l-2.40625 -0.328125q0.328125 -1.546875 1.078125 -2.5q0.75 -0.953125 2.171875 -1.453125q1.421875 -0.515625 3.296875 -0.515625q1.859375 0 3.015625 0.4375q1.171875 0.4375 1.71875 1.109375q0.546875 0.65625 0.765625 1.65625q0.125 0.640625 0.125 2.28125l0 3.28125q0 3.421875 0.15625 4.34375q0.15625 0.90625 0.625 1.734375l-2.578125 0q-0.375 -0.765625 -0.484375 -1.796875zm-0.21875 -5.484375q-1.328125 0.546875 -4.015625 0.921875q-1.515625 0.21875 -2.140625 0.5q-0.625 0.265625 -0.96875 0.796875q-0.34375 0.515625 -0.34375 1.171875q0 0.984375 0.734375 1.640625q0.75 0.65625 2.1875 0.65625q1.421875 0 2.53125 -0.625q1.109375 -0.625 1.625 -1.703125q0.390625 -0.84375 0.390625 -2.46875l0 -0.890625zm6.2753906 7.28125l0 -14.515625l2.21875 0l0 2.203125q0.84375 -1.546875 1.5625 -2.03125q0.71875 -0.5 1.578125 -0.5q1.25 0 2.53125 0.78125l-0.84375 2.296875q-0.90625 -0.546875 -1.796875 -0.546875q-0.8125 0 -1.453125 0.5q-0.640625 0.484375 -0.921875 1.34375q-0.40625 1.3125 -0.40625 2.859375l0 7.609375l-2.46875 0zm18.839844 -1.796875q-1.375 1.171875 -2.640625 1.65625q-1.265625 0.46875 -2.71875 0.46875q-2.390625 0 -3.671875 -1.171875q-1.28125 -1.171875 -1.28125 -2.984375q0 -1.0625 0.484375 -1.9375q0.484375 -0.890625 1.265625 -1.421875q0.796875 -0.53125 1.78125 -0.8125q0.71875 -0.1875 2.1875 -0.375q2.96875 -0.34375 4.375 -0.84375q0.015625 -0.5 0.015625 -0.640625q0 -1.5 -0.6875 -2.125q-0.953125 -0.828125 -2.8125 -0.828125q-1.734375 0 -2.5625 0.609375q-0.828125 0.609375 -1.21875 2.15625l-2.40625 -0.328125q0.328125 -1.546875 1.078125 -2.5q0.75 -0.953125 2.171875 -1.453125q1.421875 -0.515625 3.296875 -0.515625q1.859375 0 3.015625 0.4375q1.171875 0.4375 1.71875 1.109375q0.546875 0.65625 0.765625 1.65625q0.125 0.640625 0.125 2.28125l0 3.28125q0 3.421875 0.15625 4.34375q0.15625 0.90625 0.625 1.734375l-2.578125 0q-0.375 -0.765625 -0.484375 -1.796875zm-0.21875 -5.484375q-1.328125 0.546875 -4.015625 0.921875q-1.515625 0.21875 -2.140625 0.5q-0.625 0.265625 -0.96875 0.796875q-0.34375 0.515625 -0.34375 1.171875q0 0.984375 0.734375 1.640625q0.75 0.65625 2.1875 0.65625q1.421875 0 2.53125 -0.625q1.109375 -0.625 1.625 -1.703125q0.390625 -0.84375 0.390625 -2.46875l0 -0.890625zm8.572266 7.28125l-2.28125 0l0 -20.046875l2.46875 0l0 7.15625q1.5625 -1.953125 3.96875 -1.953125q1.34375 0 2.53125 0.546875q1.203125 0.53125 1.96875 1.515625q0.78125 0.96875 1.21875 2.359375q0.4375 1.375 0.4375 2.9375q0 3.734375 -1.84375 5.78125q-1.84375 2.03125 -4.421875 2.03125q-2.578125 0 -4.046875 -2.140625l0 1.8125zm-0.015625 -7.375q0 2.609375 0.703125 3.78125q1.171875 1.890625 3.140625 1.890625q1.625 0 2.796875 -1.390625q1.171875 -1.40625 1.171875 -4.1875q0 -2.84375 -1.125 -4.1875q-1.125 -1.359375 -2.734375 -1.359375q-1.609375 0 -2.78125 1.40625q-1.171875 1.40625 -1.171875 4.046875zm13.275391 7.375l0 -20.046875l2.453125 0l0 20.046875l-2.453125 0zm5.361328 -7.265625q0 -4.03125 2.234375 -5.96875q1.875 -1.609375 4.5625 -1.609375q3.0 0 4.890625 1.96875q1.90625 1.953125 1.90625 5.40625q0 2.8125 -0.84375 4.421875q-0.828125 1.59375 -2.4375 2.484375q-1.609375 0.890625 -3.515625 0.890625q-3.046875 0 -4.921875 -1.953125q-1.875 -1.953125 -1.875 -5.640625zm2.515625 0q0 2.796875 1.21875 4.1875q1.21875 1.375 3.0625 1.375q1.84375 0 3.046875 -1.390625q1.21875 -1.390625 1.21875 -4.25q0 -2.6875 -1.21875 -4.078125q-1.21875 -1.390625 -3.046875 -1.390625q-1.84375 0 -3.0625 1.390625q-1.21875 1.375 -1.21875 4.15625zm23.447266 1.953125l2.40625 0.3125q-0.390625 2.5 -2.03125 3.921875q-1.625 1.40625 -4.0 1.40625q-2.984375 0 -4.796875 -1.9375q-1.8125 -1.953125 -1.8125 -5.59375q0 -2.359375 0.78125 -4.109375q0.78125 -1.765625 2.375 -2.640625q1.59375 -0.890625 3.46875 -0.890625q2.359375 0 3.859375 1.203125q1.5 1.1875 1.9375 3.390625l-2.40625 0.359375q-0.328125 -1.453125 -1.203125 -2.1875q-0.875 -0.75 -2.09375 -0.75q-1.859375 0 -3.03125 1.34375q-1.15625 1.328125 -1.15625 4.203125q0 2.9375 1.109375 4.265625q1.125 1.3125 2.9375 1.3125q1.453125 0 2.421875 -0.875q0.96875 -0.890625 1.234375 -2.734375zm4.53125 5.3125l0 -20.046875l2.46875 0l0 11.4375l5.8125 -5.90625l3.1875 0l-5.546875 5.375l6.109375 9.140625l-3.03125 0l-4.796875 -7.421875l-1.734375 1.671875l0 5.75l-2.46875 0z" fill-rule="nonzero"/><path fill="#ffffff" d="m423.78528 35.879997l-3.84375 0l-5.40625 -13.46875l-2.828125 13.46875l-3.828125 0l4.171875 -20.046875l3.859375 0l5.421875 13.421875l2.8125 -13.421875l3.828125 0l-4.1875 20.046875z" fill-rule="nonzero"/><path fill="#ffffff" d="m441.62903 32.645622l0 -5.5l-5.453125 0l0 -2.296875l5.453125 0l0 -5.453125l2.328125 0l0 5.453125l5.453125 0l0 2.296875l-5.453125 0l0 5.5l-2.328125 0zm27.552734 3.234375l-2.46875 0l0 -15.6875q-0.890625 0.859375 -2.328125 1.703125q-1.4375 0.84375 -2.59375 1.265625l0 -2.375q2.0625 -0.96875 3.609375 -2.34375q1.546875 -1.390625 2.1875 -2.6875l1.59375 0l0 20.125zm14.9609375 0l0 -20.046875l7.53125 0q2.296875 0 3.671875 0.609375q1.390625 0.609375 2.171875 1.875q0.796875 1.265625 0.796875 2.640625q0 1.296875 -0.703125 2.4375q-0.6875 1.125 -2.109375 1.8125q1.828125 0.546875 2.796875 1.828125q0.984375 1.28125 0.984375 3.03125q0 1.40625 -0.59375 2.625q-0.59375 1.203125 -1.46875 1.859375q-0.875 0.65625 -2.203125 1.0q-1.3125 0.328125 -3.234375 0.328125l-7.640625 0zm2.65625 -11.625l4.328125 0q1.765625 0 2.53125 -0.234375q1.015625 -0.296875 1.53125 -0.984375q0.515625 -0.703125 0.515625 -1.765625q0 -0.984375 -0.484375 -1.75q-0.484375 -0.765625 -1.375 -1.03125q-0.875 -0.28125 -3.046875 -0.28125l-4.0 0l0 6.046875zm0 9.265625l4.984375 0q1.296875 0 1.8125 -0.109375q0.921875 -0.15625 1.53125 -0.53125q0.609375 -0.390625 1.0 -1.125q0.40625 -0.734375 0.40625 -1.6875q0 -1.125 -0.578125 -1.953125q-0.5625 -0.828125 -1.59375 -1.15625q-1.015625 -0.328125 -2.921875 -0.328125l-4.640625 0l0 6.890625zm25.332031 2.359375l0 -2.140625q-1.6875 2.46875 -4.609375 2.46875q-1.28125 0 -2.40625 -0.484375q-1.109375 -0.5 -1.65625 -1.234375q-0.53125 -0.75 -0.75 -1.84375q-0.140625 -0.71875 -0.140625 -2.296875l0 -8.984375l2.453125 0l0 8.046875q0 1.921875 0.15625 2.59375q0.234375 0.96875 0.984375 1.53125q0.75 0.546875 1.859375 0.546875q1.109375 0 2.078125 -0.5625q0.96875 -0.5625 1.375 -1.53125q0.40625 -0.984375 0.40625 -2.84375l0 -7.78125l2.453125 0l0 14.515625l-2.203125 0zm6.0722656 -17.21875l0 -2.828125l2.46875 0l0 2.828125l-2.46875 0zm0 17.21875l0 -14.515625l2.46875 0l0 14.515625l-2.46875 0zm6.158203 0l0 -20.046875l2.453125 0l0 20.046875l-2.453125 0zm11.642578 -2.203125l0.359375 2.171875q-1.046875 0.21875 -1.859375 0.21875q-1.34375 0 -2.078125 -0.421875q-0.734375 -0.421875 -1.046875 -1.109375q-0.296875 -0.6875 -0.296875 -2.90625l0 -8.359375l-1.796875 0l0 -1.90625l1.796875 0l0 -3.59375l2.453125 -1.484375l0 5.078125l2.46875 0l0 1.90625l-2.46875 0l0 8.5q0 1.046875 0.125 1.34375q0.125 0.296875 0.421875 0.484375q0.296875 0.171875 0.84375 0.171875q0.40625 0 1.078125 -0.09375zm23.652344 -17.84375l2.65625 0l0 11.578125q0 3.03125 -0.6875 4.8125q-0.6875 1.765625 -2.46875 2.890625q-1.78125 1.109375 -4.6875 1.109375q-2.8125 0 -4.609375 -0.96875q-1.78125 -0.96875 -2.546875 -2.8125q-0.765625 -1.84375 -0.765625 -5.03125l0 -11.578125l2.65625 0l0 11.5625q0 2.625 0.484375 3.859375q0.484375 1.234375 1.65625 1.90625q1.1875 0.671875 2.90625 0.671875q2.921875 0 4.15625 -1.328125q1.25 -1.328125 1.25 -5.109375l0 -11.5625zm5.767578 15.71875l2.4375 -0.390625q0.203125 1.46875 1.140625 2.25q0.9375 0.765625 2.625 0.765625q1.6875 0 2.5 -0.6875q0.828125 -0.6875 0.828125 -1.609375q0 -0.84375 -0.71875 -1.3125q-0.515625 -0.328125 -2.515625 -0.84375q-2.71875 -0.6875 -3.765625 -1.171875q-1.03125 -0.5 -1.578125 -1.375q-0.546875 -0.890625 -0.546875 -1.96875q0 -0.96875 0.4375 -1.796875q0.453125 -0.828125 1.21875 -1.375q0.578125 -0.421875 1.5625 -0.703125q1.0 -0.296875 2.140625 -0.296875q1.703125 0 2.984375 0.5q1.296875 0.484375 1.90625 1.328125q0.625 0.828125 0.859375 2.234375l-2.40625 0.328125q-0.171875 -1.109375 -0.953125 -1.734375q-0.78125 -0.640625 -2.21875 -0.640625q-1.703125 0 -2.421875 0.5625q-0.71875 0.5625 -0.71875 1.3125q0 0.484375 0.296875 0.859375q0.296875 0.40625 0.9375 0.65625q0.375 0.140625 2.171875 0.625q2.625 0.703125 3.65625 1.15625q1.03125 0.4375 1.609375 1.28125q0.59375 0.84375 0.59375 2.109375q0 1.234375 -0.71875 2.328125q-0.71875 1.078125 -2.078125 1.671875q-1.34375 0.59375 -3.0625 0.59375q-2.828125 0 -4.3125 -1.171875q-1.484375 -1.1875 -1.890625 -3.484375zm15.0 -12.890625l0 -2.828125l2.46875 0l0 2.828125l-2.46875 0zm0 17.21875l0 -14.515625l2.46875 0l0 14.515625l-2.46875 0zm6.205078 0l0 -14.515625l2.21875 0l0 2.0625q1.59375 -2.390625 4.625 -2.390625q1.3125 0 2.40625 0.46875q1.109375 0.46875 1.65625 1.234375q0.546875 0.765625 0.765625 1.8125q0.125 0.6875 0.125 2.40625l0 8.921875l-2.453125 0l0 -8.828125q0 -1.515625 -0.296875 -2.25q-0.28125 -0.75 -1.015625 -1.1875q-0.734375 -0.453125 -1.71875 -0.453125q-1.5625 0 -2.703125 1.0q-1.140625 1.0 -1.140625 3.78125l0 7.9375l-2.46875 0zm15.119141 1.203125l2.390625 0.359375q0.15625 1.109375 0.84375 1.609375q0.90625 0.6875 2.5 0.6875q1.703125 0 2.625 -0.6875q0.9375 -0.6875 1.265625 -1.90625q0.203125 -0.765625 0.1875 -3.171875q-1.625 1.90625 -4.03125 1.90625q-2.984375 0 -4.625 -2.15625q-1.640625 -2.171875 -1.640625 -5.1875q0 -2.078125 0.75 -3.828125q0.75 -1.765625 2.171875 -2.71875q1.4375 -0.953125 3.359375 -0.953125q2.578125 0 4.25 2.078125l0 -1.75l2.265625 0l0 12.546875q0 3.390625 -0.703125 4.796875q-0.6875 1.421875 -2.1875 2.234375q-1.484375 0.828125 -3.671875 0.828125q-2.59375 0 -4.203125 -1.171875q-1.59375 -1.15625 -1.546875 -3.515625zm2.046875 -8.71875q0 2.859375 1.125 4.171875q1.140625 1.3125 2.84375 1.3125q1.703125 0 2.84375 -1.3125q1.15625 -1.3125 1.15625 -4.09375q0 -2.671875 -1.1875 -4.015625q-1.1875 -1.359375 -2.84375 -1.359375q-1.640625 0 -2.796875 1.34375q-1.140625 1.328125 -1.140625 3.953125z" fill-rule="nonzero"/><path fill="#ffffff" d="m640.881 35.879997l-3.84375 0l-5.40625 -13.46875l-2.828125 13.46875l-3.828125 0l4.171875 -20.046875l3.859375 0l5.421875 13.421875l2.8125 -13.421875l3.828125 0l-4.1875 20.046875z" fill-rule="nonzero"/><path fill="#ffffff" d="m663.03723 34.083122q-1.375 1.171875 -2.640625 1.65625q-1.265625 0.46875 -2.71875 0.46875q-2.390625 0 -3.671875 -1.171875q-1.28125 -1.171875 -1.28125 -2.984375q0 -1.0625 0.484375 -1.9375q0.484375 -0.890625 1.265625 -1.421875q0.796875 -0.53125 1.78125 -0.8125q0.71875 -0.1875 2.1875 -0.375q2.96875 -0.34375 4.375 -0.84375q0.015625 -0.5 0.015625 -0.640625q0 -1.5 -0.6875 -2.125q-0.953125 -0.828125 -2.8125 -0.828125q-1.734375 0 -2.5625 0.609375q-0.828125 0.609375 -1.21875 2.15625l-2.40625 -0.328125q0.328125 -1.546875 1.078125 -2.5q0.75 -0.953125 2.171875 -1.453125q1.421875 -0.515625 3.296875 -0.515625q1.859375 0 3.015625 0.4375q1.171875 0.4375 1.71875 1.109375q0.546875 0.65625 0.765625 1.65625q0.125 0.640625 0.125 2.28125l0 3.28125q0 3.421875 0.15625 4.34375q0.15625 0.90625 0.625 1.734375l-2.578125 0q-0.375 -0.765625 -0.484375 -1.796875zm-0.21875 -5.484375q-1.328125 0.546875 -4.015625 0.921875q-1.515625 0.21875 -2.140625 0.5q-0.625 0.265625 -0.96875 0.796875q-0.34375 0.515625 -0.34375 1.171875q0 0.984375 0.734375 1.640625q0.75 0.65625 2.1875 0.65625q1.421875 0 2.53125 -0.625q1.109375 -0.625 1.625 -1.703125q0.390625 -0.84375 0.390625 -2.46875l0 -0.890625zm5.3222656 2.953125l2.4375 -0.390625q0.203125 1.46875 1.140625 2.25q0.9375 0.765625 2.625 0.765625q1.6875 0 2.5 -0.6875q0.828125 -0.6875 0.828125 -1.609375q0 -0.84375 -0.71875 -1.3125q-0.515625 -0.328125 -2.515625 -0.84375q-2.71875 -0.6875 -3.765625 -1.171875q-1.03125 -0.5 -1.578125 -1.375q-0.546875 -0.890625 -0.546875 -1.96875q0 -0.96875 0.4375 -1.796875q0.453125 -0.828125 1.21875 -1.375q0.578125 -0.421875 1.5625 -0.703125q1.0 -0.296875 2.140625 -0.296875q1.703125 0 2.984375 0.5q1.296875 0.484375 1.90625 1.328125q0.625 0.828125 0.859375 2.234375l-2.40625 0.328125q-0.171875 -1.109375 -0.953125 -1.734375q-0.78125 -0.640625 -2.21875 -0.640625q-1.703125 0 -2.421875 0.5625q-0.71875 0.5625 -0.71875 1.3125q0 0.484375 0.296875 0.859375q0.296875 0.40625 0.9375 0.65625q0.375 0.140625 2.171875 0.625q2.625 0.703125 3.65625 1.15625q1.03125 0.4375 1.609375 1.28125q0.59375 0.84375 0.59375 2.109375q0 1.234375 -0.71875 2.328125q-0.71875 1.078125 -2.078125 1.671875q-1.34375 0.59375 -3.0625 0.59375q-2.828125 0 -4.3125 -1.171875q-1.484375 -1.1875 -1.890625 -3.484375z" fill-rule="nonzero"/><path fill="#ffffff" d="m265.06262 63.042496l2.5 -0.21875q0.171875 1.5 0.8125 2.46875q0.65625 0.953125 2.015625 1.5625q1.375 0.59375 3.09375 0.59375q1.515625 0 2.671875 -0.453125q1.15625 -0.453125 1.71875 -1.234375q0.578125 -0.796875 0.578125 -1.71875q0 -0.953125 -0.546875 -1.65625q-0.546875 -0.703125 -1.796875 -1.171875q-0.8125 -0.328125 -3.578125 -0.984375q-2.765625 -0.65625 -3.859375 -1.25q-1.4375 -0.75 -2.140625 -1.859375q-0.703125 -1.125 -0.703125 -2.5q0 -1.515625 0.859375 -2.828125q0.859375 -1.328125 2.515625 -2.015625q1.65625 -0.6875 3.671875 -0.6875q2.234375 0 3.9375 0.71875q1.703125 0.71875 2.609375 2.125q0.921875 1.390625 0.984375 3.15625l-2.546875 0.1875q-0.203125 -1.90625 -1.390625 -2.875q-1.171875 -0.96875 -3.484375 -0.96875q-2.40625 0 -3.515625 0.890625q-1.09375 0.875 -1.09375 2.109375q0 1.09375 0.78125 1.78125q0.765625 0.703125 4.0 1.4375q3.234375 0.71875 4.4375 1.265625q1.75 0.8125 2.578125 2.046875q0.84375 1.234375 0.84375 2.859375q0 1.59375 -0.921875 3.015625q-0.921875 1.40625 -2.640625 2.203125q-1.703125 0.78125 -3.859375 0.78125q-2.71875 0 -4.5625 -0.796875q-1.828125 -0.796875 -2.875 -2.390625q-1.046875 -1.59375 -1.09375 -3.59375zm29.191406 1.765625l2.546875 0.3125q-0.59375 2.21875 -2.234375 3.453125q-1.625 1.234375 -4.15625 1.234375q-3.171875 0 -5.046875 -1.953125q-1.859375 -1.96875 -1.859375 -5.515625q0 -3.65625 1.875 -5.671875q1.890625 -2.03125 4.90625 -2.03125q2.90625 0 4.75 1.984375q1.84375 1.96875 1.84375 5.578125q0 0.21875 -0.015625 0.65625l-10.828125 0q0.140625 2.390625 1.359375 3.65625q1.21875 1.265625 3.03125 1.265625q1.359375 0 2.3125 -0.703125q0.953125 -0.71875 1.515625 -2.265625zm-8.078125 -3.984375l8.109375 0q-0.15625 -1.828125 -0.921875 -2.75q-1.1875 -1.421875 -3.0625 -1.421875q-1.6875 0 -2.84375 1.140625q-1.15625 1.125 -1.28125 3.03125zm23.65039 3.984375l2.546875 0.3125q-0.59375 2.21875 -2.234375 3.453125q-1.625 1.234375 -4.15625 1.234375q-3.171875 0 -5.046875 -1.953125q-1.859375 -1.96875 -1.859375 -5.515625q0 -3.65625 1.875 -5.671875q1.890625 -2.03125 4.90625 -2.03125q2.90625 0 4.75 1.984375q1.84375 1.96875 1.84375 5.578125q0 0.21875 -0.015625 0.65625l-10.828125 0q0.140625 2.390625 1.359375 3.65625q1.21875 1.265625 3.03125 1.265625q1.359375 0 2.3125 -0.703125q0.953125 -0.71875 1.515625 -2.265625zm-8.078125 -3.984375l8.109375 0q-0.15625 -1.828125 -0.921875 -2.75q-1.1875 -1.421875 -3.0625 -1.421875q-1.6875 0 -2.84375 1.140625q-1.15625 1.125 -1.28125 3.03125zm13.712891 8.65625l0 -14.515625l2.21875 0l0 2.0625q1.59375 -2.390625 4.625 -2.390625q1.3125 0 2.40625 0.46875q1.109375 0.46875 1.65625 1.234375q0.546875 0.765625 0.765625 1.8125q0.125 0.6875 0.125 2.40625l0 8.921875l-2.453125 0l0 -8.828125q0 -1.515625 -0.296875 -2.25q-0.28125 -0.75 -1.015625 -1.1875q-0.734375 -0.453125 -1.71875 -0.453125q-1.5625 0 -2.703125 1.0q-1.140625 1.0 -1.140625 3.78125l0 7.9375l-2.46875 0zm24.117188 0l0 -20.046875l2.65625 0l0 20.046875l-2.65625 0zm7.013672 0l0 -14.515625l2.21875 0l0 2.0625q1.59375 -2.390625 4.625 -2.390625q1.3125 0 2.40625 0.46875q1.109375 0.46875 1.65625 1.234375q0.546875 0.765625 0.765625 1.8125q0.125 0.6875 0.125 2.40625l0 8.921875l-2.453125 0l0 -8.828125q0 -1.515625 -0.296875 -2.25q-0.28125 -0.75 -1.015625 -1.1875q-0.734375 -0.453125 -1.71875 -0.453125q-1.5625 0 -2.703125 1.0q-1.140625 1.0 -1.140625 3.78125l0 7.9375l-2.46875 0zm25.05664 -5.3125l2.40625 0.3125q-0.390625 2.5 -2.03125 3.921875q-1.625 1.40625 -4.0 1.40625q-2.984375 0 -4.796875 -1.9375q-1.8125 -1.953125 -1.8125 -5.59375q0 -2.359375 0.78125 -4.109375q0.78125 -1.765625 2.375 -2.640625q1.59375 -0.890625 3.46875 -0.890625q2.359375 0 3.859375 1.203125q1.5 1.1875 1.9375 3.390625l-2.40625 0.359375q-0.328125 -1.453125 -1.203125 -2.1875q-0.875 -0.75 -2.09375 -0.75q-1.859375 0 -3.03125 1.34375q-1.15625 1.328125 -1.15625 4.203125q0 2.9375 1.109375 4.265625q1.125 1.3125 2.9375 1.3125q1.453125 0 2.421875 -0.875q0.96875 -0.890625 1.234375 -2.734375zm4.46875 5.3125l0 -20.046875l2.453125 0l0 20.046875l-2.453125 0zm15.783203 0l0 -2.140625q-1.6875 2.46875 -4.609375 2.46875q-1.28125 0 -2.40625 -0.484375q-1.109375 -0.5 -1.65625 -1.234375q-0.53125 -0.75 -0.75 -1.84375q-0.140625 -0.71875 -0.140625 -2.296875l0 -8.984375l2.453125 0l0 8.046875q0 1.921875 0.15625 2.59375q0.234375 0.96875 0.984375 1.53125q0.75 0.546875 1.859375 0.546875q1.109375 0 2.078125 -0.5625q0.96875 -0.5625 1.375 -1.53125q0.40625 -0.984375 0.40625 -2.84375l0 -7.78125l2.453125 0l0 14.515625l-2.203125 0zm15.478516 0l0 -1.828125q-1.375 2.15625 -4.0625 2.15625q-1.734375 0 -3.1875 -0.953125q-1.453125 -0.96875 -2.265625 -2.671875q-0.796875 -1.71875 -0.796875 -3.953125q0 -2.171875 0.71875 -3.9375q0.734375 -1.78125 2.1875 -2.71875q1.453125 -0.9375 3.234375 -0.9375q1.3125 0 2.328125 0.5625q1.03125 0.546875 1.6875 1.421875l0 -7.1875l2.4375 0l0 20.046875l-2.28125 0zm-7.78125 -7.25q0 2.796875 1.171875 4.171875q1.1875 1.375 2.78125 1.375q1.609375 0 2.734375 -1.3125q1.140625 -1.3125 1.140625 -4.03125q0 -2.96875 -1.15625 -4.359375q-1.140625 -1.40625 -2.828125 -1.40625q-1.640625 0 -2.75 1.34375q-1.09375 1.34375 -1.09375 4.21875zm23.86914 2.578125l2.546875 0.3125q-0.59375 2.21875 -2.234375 3.453125q-1.625 1.234375 -4.15625 1.234375q-3.171875 0 -5.046875 -1.953125q-1.859375 -1.96875 -1.859375 -5.515625q0 -3.65625 1.875 -5.671875q1.890625 -2.03125 4.90625 -2.03125q2.90625 0 4.75 1.984375q1.84375 1.96875 1.84375 5.578125q0 0.21875 -0.015625 0.65625l-10.828125 0q0.140625 2.390625 1.359375 3.65625q1.21875 1.265625 3.03125 1.265625q1.359375 0 2.3125 -0.703125q0.953125 -0.71875 1.515625 -2.265625zm-8.078125 -3.984375l8.109375 0q-0.15625 -1.828125 -0.921875 -2.75q-1.1875 -1.421875 -3.0625 -1.421875q-1.6875 0 -2.84375 1.140625q-1.15625 1.125 -1.28125 3.03125zm23.134766 8.65625l0 -1.828125q-1.375 2.15625 -4.0625 2.15625q-1.734375 0 -3.1875 -0.953125q-1.453125 -0.96875 -2.265625 -2.671875q-0.796875 -1.71875 -0.796875 -3.953125q0 -2.171875 0.71875 -3.9375q0.734375 -1.78125 2.1875 -2.71875q1.453125 -0.9375 3.234375 -0.9375q1.3125 0 2.328125 0.5625q1.03125 0.546875 1.6875 1.421875l0 -7.1875l2.4375 0l0 20.046875l-2.28125 0zm-7.78125 -7.25q0 2.796875 1.171875 4.171875q1.1875 1.375 2.78125 1.375q1.609375 0 2.734375 -1.3125q1.140625 -1.3125 1.140625 -4.03125q0 -2.96875 -1.15625 -4.359375q-1.140625 -1.40625 -2.828125 -1.40625q-1.640625 0 -2.75 1.34375q-1.09375 1.34375 -1.09375 4.21875zm21.726562 -9.96875l0 -2.828125l2.46875 0l0 2.828125l-2.46875 0zm0 17.21875l0 -14.515625l2.46875 0l0 14.515625l-2.46875 0zm6.205078 0l0 -14.515625l2.21875 0l0 2.0625q1.59375 -2.390625 4.625 -2.390625q1.3125 0 2.40625 0.46875q1.109375 0.46875 1.65625 1.234375q0.546875 0.765625 0.765625 1.8125q0.125 0.6875 0.125 2.40625l0 8.921875l-2.453125 0l0 -8.828125q0 -1.515625 -0.296875 -2.25q-0.28125 -0.75 -1.015625 -1.1875q-0.734375 -0.453125 -1.71875 -0.453125q-1.5625 0 -2.703125 1.0q-1.140625 1.0 -1.140625 3.78125l0 7.9375l-2.46875 0zm23.648438 0l0 -20.046875l2.71875 0l10.515625 15.734375l0 -15.734375l2.546875 0l0 20.046875l-2.71875 0l-10.53125 -15.75l0 15.75l-2.53125 0zm29.861328 -4.671875l2.546875 0.3125q-0.59375 2.21875 -2.234375 3.453125q-1.625 1.234375 -4.15625 1.234375q-3.171875 0 -5.046875 -1.953125q-1.859375 -1.96875 -1.859375 -5.515625q0 -3.65625 1.875 -5.671875q1.890625 -2.03125 4.90625 -2.03125q2.90625 0 4.75 1.984375q1.84375 1.96875 1.84375 5.578125q0 0.21875 -0.015625 0.65625l-10.828125 0q0.140625 2.390625 1.359375 3.65625q1.21875 1.265625 3.03125 1.265625q1.359375 0 2.3125 -0.703125q0.953125 -0.71875 1.515625 -2.265625zm-8.078125 -3.984375l8.109375 0q-0.15625 -1.828125 -0.921875 -2.75q-1.1875 -1.421875 -3.0625 -1.421875q-1.6875 0 -2.84375 1.140625q-1.15625 1.125 -1.28125 3.03125zm16.40039 8.65625l-4.453125 -14.515625l2.546875 0l2.3125 8.375l0.859375 3.125q0.0625 -0.234375 0.75 -3.0l2.3125 -8.5l2.53125 0l2.171875 8.421875l0.71875 2.765625l0.84375 -2.796875l2.484375 -8.390625l2.390625 0l-4.53125 14.515625l-2.5625 0l-2.3125 -8.703125l-0.5625 -2.46875l-2.9375 11.171875l-2.5625 0zm25.671875 0l0 -20.046875l8.890625 0q2.671875 0 4.0625 0.546875q1.40625 0.53125 2.234375 1.90625q0.828125 1.359375 0.828125 3.015625q0 2.140625 -1.375 3.609375q-1.375 1.453125 -4.265625 1.84375q1.046875 0.515625 1.59375 1.0q1.171875 1.0625 2.203125 2.671875l3.484375 5.453125l-3.328125 0l-2.65625 -4.171875q-1.15625 -1.796875 -1.90625 -2.75q-0.75 -0.96875 -1.359375 -1.34375q-0.59375 -0.390625 -1.203125 -0.546875q-0.453125 -0.09375 -1.46875 -0.09375l-3.078125 0l0 8.90625l-2.65625 0zm2.65625 -11.203125l5.703125 0q1.8125 0 2.828125 -0.375q1.03125 -0.375 1.5625 -1.203125q0.53125 -0.828125 0.53125 -1.796875q0 -1.421875 -1.03125 -2.328125q-1.03125 -0.921875 -3.25 -0.921875l-6.34375 0l0 6.625zm27.142578 6.53125l2.546875 0.3125q-0.59375 2.21875 -2.234375 3.453125q-1.625 1.234375 -4.15625 1.234375q-3.171875 0 -5.046875 -1.953125q-1.859375 -1.96875 -1.859375 -5.515625q0 -3.65625 1.875 -5.671875q1.890625 -2.03125 4.90625 -2.03125q2.90625 0 4.75 1.984375q1.84375 1.96875 1.84375 5.578125q0 0.21875 -0.015625 0.65625l-10.828125 0q0.140625 2.390625 1.359375 3.65625q1.21875 1.265625 3.03125 1.265625q1.359375 0 2.3125 -0.703125q0.953125 -0.71875 1.515625 -2.265625zm-8.078125 -3.984375l8.109375 0q-0.15625 -1.828125 -0.921875 -2.75q-1.1875 -1.421875 -3.0625 -1.421875q-1.6875 0 -2.84375 1.140625q-1.15625 1.125 -1.28125 3.03125zm13.666016 8.65625l0 -20.046875l2.453125 0l0 20.046875l-2.453125 0zm15.751953 -1.796875q-1.375 1.171875 -2.640625 1.65625q-1.265625 0.46875 -2.71875 0.46875q-2.390625 0 -3.671875 -1.171875q-1.28125 -1.171875 -1.28125 -2.984375q0 -1.0625 0.484375 -1.9375q0.484375 -0.890625 1.265625 -1.421875q0.796875 -0.53125 1.78125 -0.8125q0.71875 -0.1875 2.1875 -0.375q2.96875 -0.34375 4.375 -0.84375q0.015625 -0.5 0.015625 -0.640625q0 -1.5 -0.6875 -2.125q-0.953125 -0.828125 -2.8125 -0.828125q-1.734375 0 -2.5625 0.609375q-0.828125 0.609375 -1.21875 2.15625l-2.40625 -0.328125q0.328125 -1.546875 1.078125 -2.5q0.75 -0.953125 2.171875 -1.453125q1.421875 -0.515625 3.296875 -0.515625q1.859375 0 3.015625 0.4375q1.171875 0.4375 1.71875 1.109375q0.546875 0.65625 0.765625 1.65625q0.125 0.640625 0.125 2.28125l0 3.28125q0 3.421875 0.15625 4.34375q0.15625 0.90625 0.625 1.734375l-2.578125 0q-0.375 -0.765625 -0.484375 -1.796875zm-0.21875 -5.484375q-1.328125 0.546875 -4.015625 0.921875q-1.515625 0.21875 -2.140625 0.5q-0.625 0.265625 -0.96875 0.796875q-0.34375 0.515625 -0.34375 1.171875q0 0.984375 0.734375 1.640625q0.75 0.65625 2.1875 0.65625q1.421875 0 2.53125 -0.625q1.109375 -0.625 1.625 -1.703125q0.390625 -0.84375 0.390625 -2.46875l0 -0.890625zm6.1972656 12.875l-0.265625 -2.3125q0.796875 0.21875 1.40625 0.21875q0.8125 0 1.296875 -0.28125q0.5 -0.265625 0.8125 -0.75q0.234375 -0.375 0.765625 -1.84375q0.0625 -0.203125 0.21875 -0.59375l-5.515625 -14.546875l2.65625 0l3.015625 8.40625q0.59375 1.59375 1.046875 3.359375q0.4375 -1.6875 1.015625 -3.3125l3.109375 -8.453125l2.453125 0l-5.515625 14.765625q-0.890625 2.390625 -1.390625 3.296875q-0.65625 1.21875 -1.5 1.78125q-0.84375 0.5625 -2.015625 0.5625q-0.71875 0 -1.59375 -0.296875zm22.091797 -5.59375l0 -20.046875l7.53125 0q2.296875 0 3.671875 0.609375q1.390625 0.609375 2.171875 1.875q0.796875 1.265625 0.796875 2.640625q0 1.296875 -0.703125 2.4375q-0.6875 1.125 -2.109375 1.8125q1.828125 0.546875 2.796875 1.828125q0.984375 1.28125 0.984375 3.03125q0 1.40625 -0.59375 2.625q-0.59375 1.203125 -1.46875 1.859375q-0.875 0.65625 -2.203125 1.0q-1.3125 0.328125 -3.234375 0.328125l-7.640625 0zm2.65625 -11.625l4.328125 0q1.765625 0 2.53125 -0.234375q1.015625 -0.296875 1.53125 -0.984375q0.515625 -0.703125 0.515625 -1.765625q0 -0.984375 -0.484375 -1.75q-0.484375 -0.765625 -1.375 -1.03125q-0.875 -0.28125 -3.046875 -0.28125l-4.0 0l0 6.046875zm0 9.265625l4.984375 0q1.296875 0 1.8125 -0.109375q0.921875 -0.15625 1.53125 -0.53125q0.609375 -0.390625 1.0 -1.125q0.40625 -0.734375 0.40625 -1.6875q0 -1.125 -0.578125 -1.953125q-0.5625 -0.828125 -1.59375 -1.15625q-1.015625 -0.328125 -2.921875 -0.328125l-4.640625 0l0 6.890625zm15.769531 2.359375l0 -20.046875l2.453125 0l0 20.046875l-2.453125 0zm5.361328 -7.265625q0 -4.03125 2.234375 -5.96875q1.875 -1.609375 4.5625 -1.609375q3.0 0 4.890625 1.96875q1.90625 1.953125 1.90625 5.40625q0 2.8125 -0.84375 4.421875q-0.828125 1.59375 -2.4375 2.484375q-1.609375 0.890625 -3.515625 0.890625q-3.046875 0 -4.921875 -1.953125q-1.875 -1.953125 -1.875 -5.640625zm2.515625 0q0 2.796875 1.21875 4.1875q1.21875 1.375 3.0625 1.375q1.84375 0 3.046875 -1.390625q1.21875 -1.390625 1.21875 -4.25q0 -2.6875 -1.21875 -4.078125q-1.21875 -1.390625 -3.046875 -1.390625q-1.84375 0 -3.0625 1.390625q-1.21875 1.375 -1.21875 4.15625zm23.447266 1.953125l2.40625 0.3125q-0.390625 2.5 -2.03125 3.921875q-1.625 1.40625 -4.0 1.40625q-2.984375 0 -4.796875 -1.9375q-1.8125 -1.953125 -1.8125 -5.59375q0 -2.359375 0.78125 -4.109375q0.78125 -1.765625 2.375 -2.640625q1.59375 -0.890625 3.46875 -0.890625q2.359375 0 3.859375 1.203125q1.5 1.1875 1.9375 3.390625l-2.40625 0.359375q-0.328125 -1.453125 -1.203125 -2.1875q-0.875 -0.75 -2.09375 -0.75q-1.859375 0 -3.03125 1.34375q-1.15625 1.328125 -1.15625 4.203125q0 2.9375 1.109375 4.265625q1.125 1.3125 2.9375 1.3125q1.453125 0 2.421875 -0.875q0.96875 -0.890625 1.234375 -2.734375zm4.53125 5.3125l0 -20.046875l2.46875 0l0 11.4375l5.8125 -5.90625l3.1875 0l-5.546875 5.375l6.109375 9.140625l-3.03125 0l-4.796875 -7.421875l-1.734375 1.671875l0 5.75l-2.46875 0z" fill-rule="nonzero"/></g></svg>