<?xml version="1.0" encoding="UTF-8"?>
<svg id="Layer_1" data-name="Layer 1" xmlns="http://www.w3.org/2000/svg" viewBox="0 0 16 13.87">
  <defs>
    <style>
      .cls-1 {
        fill: #e6007a;
      }

      .cls-2 {
        fill: #321d47;
      }
    </style>
  </defs>
  <path class="cls-2" d="m12.67,11.21v.05c-.04,1.52-2.17,2.68-4.74,2.6-2.58-.09-4.63-1.38-4.59-2.91l-.02-3.96h9.33l.02,4.22h0Z"/>
  <path class="cls-1" d="m7.26,10.23L.55,6.19c-.74-.44-.74-1.51,0-1.95L7.26.2c.45-.27,1.02-.27,1.47,0l6.71,4.03c.74.44.74,1.51,0,1.95l-6.71,4.03c-.45.27-1.02.27-1.47,0Z"/>
  <path class="cls-2" d="m14.51,9.27c-.32,0-.58-.26-.58-.58v-1.6l-1.73-.98c-.28-.16-.37-.51-.22-.79.16-.28.51-.37.79-.22l2.02,1.14c.18.1.29.29.29.5v1.93c0,.32-.26.58-.58.58h0Z"/>
  <circle class="cls-1" cx="14.51" cy="10.86" r="1"/>
</svg>