<svg version="1.1" viewBox="0.0 0.0 575.1181102362204 403.4514435695538" fill="none" stroke="none" stroke-linecap="square" stroke-miterlimit="10" xmlns:xlink="http://www.w3.org/1999/xlink" xmlns="http://www.w3.org/2000/svg"><clipPath id="p.0"><path d="m0 0l575.1181 0l0 403.45145l-575.1181 0l0 -403.45145z" clip-rule="nonzero"/></clipPath><g clip-path="url(#p.0)"><path fill="#000000" fill-opacity="0.0" d="m0 0l575.1181 0l0 403.45145l-575.1181 0z" fill-rule="evenodd"/><path fill="#999999" d="m225.29388 262.41064l24.913376 0l0 24.91336l-24.913376 0z" fill-rule="evenodd"/><path stroke="#ffffff" stroke-width="1.0" stroke-linejoin="round" stroke-linecap="butt" d="m225.29388 262.41064l24.913376 0l0 24.91336l-24.913376 0z" fill-rule="evenodd"/><path fill="#999999" d="m273.22806 262.41064l24.913391 0l0 24.91336l-24.913391 0z" fill-rule="evenodd"/><path stroke="#ffffff" stroke-width="1.0" stroke-linejoin="round" stroke-linecap="butt" d="m273.22806 262.41064l24.913391 0l0 24.91336l-24.913391 0z" fill-rule="evenodd"/><path fill="#999999" d="m321.16223 262.41064l24.913391 0l0 24.91336l-24.913391 0z" fill-rule="evenodd"/><path stroke="#ffffff" stroke-width="1.0" stroke-linejoin="round" stroke-linecap="butt" d="m321.16223 262.41064l24.913391 0l0 24.91336l-24.913391 0z" fill-rule="evenodd"/><path fill="#999999" d="m369.0964 262.41064l24.91336 0l0 24.91336l-24.91336 0z" fill-rule="evenodd"/><path stroke="#ffffff" stroke-width="1.0" stroke-linejoin="round" stroke-linecap="butt" d="m369.0964 262.41064l24.91336 0l0 24.91336l-24.91336 0z" fill-rule="evenodd"/><path fill="#434343" d="m2.011431 213.1193l24.913385 0l0 24.913391l-24.913385 0z" fill-rule="evenodd"/><path stroke="#999999" stroke-width="1.0" stroke-linejoin="round" stroke-linecap="butt" d="m2.011431 213.1193l24.913385 0l0 24.913391l-24.913385 0z" fill-rule="evenodd"/><path fill="#434343" d="m65.879776 213.1193l24.913383 0l0 24.913391l-24.913383 0z" fill-rule="evenodd"/><path stroke="#999999" stroke-width="1.0" stroke-linejoin="round" stroke-linecap="butt" d="m65.879776 213.1193l24.913383 0l0 24.913391l-24.913383 0z" fill-rule="evenodd"/><path fill="#434343" d="m129.74812 213.1193l24.913376 0l0 24.913391l-24.913376 0z" fill-rule="evenodd"/><path stroke="#999999" stroke-width="1.0" stroke-linejoin="round" stroke-linecap="butt" d="m129.74812 213.1193l24.913376 0l0 24.913391l-24.913376 0z" fill-rule="evenodd"/><path fill="#434343" d="m193.61646 213.1193l24.913391 0l0 24.913391l-24.913391 0z" fill-rule="evenodd"/><path stroke="#999999" stroke-width="1.0" stroke-linejoin="round" stroke-linecap="butt" d="m193.61646 213.1193l24.913391 0l0 24.913391l-24.913391 0z" fill-rule="evenodd"/><path fill="#999999" d="m249.4848 213.1193l24.913391 0l0 24.913391l-24.913391 0z" fill-rule="evenodd"/><path stroke="#ffffff" stroke-width="1.0" stroke-linejoin="round" stroke-linecap="butt" d="m249.4848 213.1193l24.913391 0l0 24.913391l-24.913391 0z" fill-rule="evenodd"/><path fill="#999999" d="m337.35315 213.1193l24.913391 0l0 24.913391l-24.913391 0z" fill-rule="evenodd"/><path stroke="#ffffff" stroke-width="1.0" stroke-linejoin="round" stroke-linecap="butt" d="m337.35315 213.1193l24.913391 0l0 24.913391l-24.913391 0z" fill-rule="evenodd"/><path fill="#434343" d="m34.92308 152.01956l24.913387 0l0 24.913376l-24.913387 0z" fill-rule="evenodd"/><path stroke="#999999" stroke-width="1.0" stroke-linejoin="round" stroke-linecap="butt" d="m34.92308 152.01956l24.913387 0l0 24.913376l-24.913387 0z" fill-rule="evenodd"/><path fill="#434343" d="m162.65977 152.01956l24.913376 0l0 24.913376l-24.913376 0z" fill-rule="evenodd"/><path stroke="#999999" stroke-width="1.0" stroke-linejoin="round" stroke-linecap="butt" d="m162.65977 152.01956l24.913376 0l0 24.913376l-24.913376 0z" fill-rule="evenodd"/><path fill="#ffffff" d="m290.39645 168.01956l24.913391 0l0 24.913376l-24.913391 0z" fill-rule="evenodd"/><path stroke="#ffffff" stroke-width="1.0" stroke-linejoin="round" stroke-linecap="butt" d="m290.39645 168.01956l24.913391 0l0 24.913376l-24.913391 0z" fill-rule="evenodd"/><path fill="#ffffff" d="m418.13315 168.01956l24.913391 0l0 24.913376l-24.913391 0z" fill-rule="evenodd"/><path stroke="#ffffff" stroke-width="1.0" stroke-linejoin="round" stroke-linecap="butt" d="m418.13315 168.01956l24.913391 0l0 24.913376l-24.913391 0z" fill-rule="evenodd"/><path fill="#434343" d="m98.79316 109.2794l24.913383 0l0 24.913376l-24.913383 0z" fill-rule="evenodd"/><path stroke="#999999" stroke-width="1.0" stroke-linejoin="round" stroke-linecap="butt" d="m98.79316 109.2794l24.913383 0l0 24.913376l-24.913383 0z" fill-rule="evenodd"/><path fill="#000000" fill-opacity="0.0" d="m111.249855 109.2794l130.04724 -42.67717" fill-rule="evenodd"/><path stroke="#999999" stroke-width="1.0" stroke-linejoin="round" stroke-linecap="butt" d="m111.249855 109.2794l130.04724 -42.67717" fill-rule="evenodd"/><path fill="#000000" fill-opacity="0.0" d="m47.379776 152.01956l63.874016 -17.826782" fill-rule="evenodd"/><path stroke="#999999" stroke-width="1.0" stroke-linejoin="round" stroke-linecap="butt" d="m47.379776 152.01956l63.874016 -17.826782" fill-rule="evenodd"/><path fill="#000000" fill-opacity="0.0" d="m175.11646 152.01956l-63.87401 -17.826782" fill-rule="evenodd"/><path stroke="#999999" stroke-width="1.0" stroke-linejoin="round" stroke-linecap="butt" d="m175.11646 152.01956l-63.87401 -17.826782" fill-rule="evenodd"/><path fill="#000000" fill-opacity="0.0" d="m14.468123 213.1193l32.913383 -36.18898" fill-rule="evenodd"/><path stroke="#999999" stroke-width="1.0" stroke-linejoin="round" stroke-linecap="butt" d="m14.468123 213.1193l32.913383 -36.18898" fill-rule="evenodd"/><path fill="#000000" fill-opacity="0.0" d="m78.336464 213.1193l-30.960629 -36.18898" fill-rule="evenodd"/><path stroke="#999999" stroke-width="1.0" stroke-linejoin="round" stroke-linecap="butt" d="m78.336464 213.1193l-30.960629 -36.18898" fill-rule="evenodd"/><path fill="#000000" fill-opacity="0.0" d="m142.2048 213.1193l32.91339 -36.18898" fill-rule="evenodd"/><path stroke="#999999" stroke-width="1.0" stroke-linejoin="round" stroke-linecap="butt" d="m142.2048 213.1193l32.91339 -36.18898" fill-rule="evenodd"/><path fill="#000000" fill-opacity="0.0" d="m206.07315 213.1193l-30.960632 -36.18898" fill-rule="evenodd"/><path stroke="#999999" stroke-width="1.0" stroke-linejoin="round" stroke-linecap="butt" d="m206.07315 213.1193l-30.960632 -36.18898" fill-rule="evenodd"/><path fill="#000000" fill-opacity="0.0" d="m261.9415 213.1193l40.91339 -20.18898" fill-rule="evenodd"/><path stroke="#ffffff" stroke-width="1.0" stroke-linejoin="round" stroke-linecap="butt" d="m261.9415 213.1193l40.91339 -20.18898" fill-rule="evenodd"/><path fill="#000000" fill-opacity="0.0" d="m349.80984 213.1193l-46.960632 -20.18898" fill-rule="evenodd"/><path stroke="#ffffff" stroke-width="1.0" stroke-linejoin="round" stroke-linecap="butt" d="m349.80984 213.1193l-46.960632 -20.18898" fill-rule="evenodd"/><path fill="#000000" fill-opacity="0.0" d="m302.85315 168.01956l63.874023 -33.826782" fill-rule="evenodd"/><path stroke="#ffffff" stroke-width="1.0" stroke-linejoin="round" stroke-linecap="butt" d="m302.85315 168.01956l63.874023 -33.826782" fill-rule="evenodd"/><path fill="#000000" fill-opacity="0.0" d="m237.75056 262.41064l24.18898 -24.37796" fill-rule="evenodd"/><path stroke="#ffffff" stroke-width="1.0" stroke-linejoin="round" stroke-linecap="butt" d="m237.75056 262.41064l24.18898 -24.37796" fill-rule="evenodd"/><path fill="#000000" fill-opacity="0.0" d="m285.68475 262.41064l-23.748047 -24.37796" fill-rule="evenodd"/><path stroke="#ffffff" stroke-width="1.0" stroke-linejoin="round" stroke-linecap="butt" d="m285.68475 262.41064l-23.748047 -24.37796" fill-rule="evenodd"/><path fill="#000000" fill-opacity="0.0" d="m333.61893 262.41064l16.188965 -24.37796" fill-rule="evenodd"/><path stroke="#ffffff" stroke-width="1.0" stroke-linejoin="round" stroke-linecap="butt" d="m333.61893 262.41064l16.188965 -24.37796" fill-rule="evenodd"/><path fill="#000000" fill-opacity="0.0" d="m381.5531 262.41064l-31.748047 -24.37796" fill-rule="evenodd"/><path stroke="#ffffff" stroke-width="1.0" stroke-linejoin="round" stroke-linecap="butt" d="m381.5531 262.41064l-31.748047 -24.37796" fill-rule="evenodd"/><path fill="#999999" d="m178.27325 320.98807l24.913391 0l0 24.913391l-24.913391 0z" fill-rule="evenodd"/><path stroke="#ffffff" stroke-width="1.0" stroke-linejoin="round" stroke-linecap="butt" d="m178.27325 320.98807l24.913391 0l0 24.913391l-24.913391 0z" fill-rule="evenodd"/><path fill="#999999" d="m212.49315 320.98807l24.913391 0l0 24.913391l-24.913391 0z" fill-rule="evenodd"/><path stroke="#ffffff" stroke-width="1.0" stroke-linejoin="round" stroke-linecap="butt" d="m212.49315 320.98807l24.913391 0l0 24.913391l-24.913391 0z" fill-rule="evenodd"/><path fill="#999999" d="m246.71303 320.98807l24.913406 0l0 24.913391l-24.913406 0z" fill-rule="evenodd"/><path stroke="#ffffff" stroke-width="1.0" stroke-linejoin="round" stroke-linecap="butt" d="m246.71303 320.98807l24.913406 0l0 24.913391l-24.913406 0z" fill-rule="evenodd"/><path fill="#999999" d="m280.93292 320.98807l24.913391 0l0 24.913391l-24.913391 0z" fill-rule="evenodd"/><path stroke="#ffffff" stroke-width="1.0" stroke-linejoin="round" stroke-linecap="butt" d="m280.93292 320.98807l24.913391 0l0 24.913391l-24.913391 0z" fill-rule="evenodd"/><path fill="#999999" d="m315.1528 320.98807l24.913391 0l0 24.913391l-24.913391 0z" fill-rule="evenodd"/><path stroke="#ffffff" stroke-width="1.0" stroke-linejoin="round" stroke-linecap="butt" d="m315.1528 320.98807l24.913391 0l0 24.913391l-24.913391 0z" fill-rule="evenodd"/><path fill="#999999" d="m349.37268 320.98807l24.913391 0l0 24.913391l-24.913391 0z" fill-rule="evenodd"/><path stroke="#ffffff" stroke-width="1.0" stroke-linejoin="round" stroke-linecap="butt" d="m349.37268 320.98807l24.913391 0l0 24.913391l-24.913391 0z" fill-rule="evenodd"/><path fill="#999999" d="m383.5926 320.98807l24.91336 0l0 24.913391l-24.91336 0z" fill-rule="evenodd"/><path stroke="#ffffff" stroke-width="1.0" stroke-linejoin="round" stroke-linecap="butt" d="m383.5926 320.98807l24.91336 0l0 24.913391l-24.91336 0z" fill-rule="evenodd"/><path fill="#999999" d="m417.81247 320.98807l24.913391 0l0 24.913391l-24.913391 0z" fill-rule="evenodd"/><path stroke="#ffffff" stroke-width="1.0" stroke-linejoin="round" stroke-linecap="butt" d="m417.81247 320.98807l24.913391 0l0 24.913391l-24.913391 0z" fill-rule="evenodd"/><path fill="#000000" fill-opacity="0.0" d="m430.26917 320.98807l-48.724426 -33.66931" fill-rule="evenodd"/><path stroke="#ffffff" stroke-width="1.0" stroke-linejoin="round" stroke-linecap="butt" d="m430.26917 320.98807l-48.724426 -33.66931" fill-rule="evenodd"/><path fill="#000000" fill-opacity="0.0" d="m396.04926 320.98807l-14.488159 -33.66931" fill-rule="evenodd"/><path stroke="#ffffff" stroke-width="1.0" stroke-linejoin="round" stroke-linecap="butt" d="m396.04926 320.98807l-14.488159 -33.66931" fill-rule="evenodd"/><path fill="#000000" fill-opacity="0.0" d="m361.82938 320.98807l-28.220459 -33.66931" fill-rule="evenodd"/><path stroke="#ffffff" stroke-width="1.0" stroke-linejoin="round" stroke-linecap="butt" d="m361.82938 320.98807l-28.220459 -33.66931" fill-rule="evenodd"/><path fill="#000000" fill-opacity="0.0" d="m327.6095 320.98807l6.015747 -33.66931" fill-rule="evenodd"/><path stroke="#ffffff" stroke-width="1.0" stroke-linejoin="round" stroke-linecap="butt" d="m327.6095 320.98807l6.015747 -33.66931" fill-rule="evenodd"/><path fill="#000000" fill-opacity="0.0" d="m293.38962 320.98807l-7.7165527 -33.66931" fill-rule="evenodd"/><path stroke="#ffffff" stroke-width="1.0" stroke-linejoin="round" stroke-linecap="butt" d="m293.38962 320.98807l-7.7165527 -33.66931" fill-rule="evenodd"/><path fill="#000000" fill-opacity="0.0" d="m259.16974 320.98807l26.519684 -33.66931" fill-rule="evenodd"/><path stroke="#ffffff" stroke-width="1.0" stroke-linejoin="round" stroke-linecap="butt" d="m259.16974 320.98807l26.519684 -33.66931" fill-rule="evenodd"/><path fill="#000000" fill-opacity="0.0" d="m224.94984 320.98807l12.787399 -33.66931" fill-rule="evenodd"/><path stroke="#ffffff" stroke-width="1.0" stroke-linejoin="round" stroke-linecap="butt" d="m224.94984 320.98807l12.787399 -33.66931" fill-rule="evenodd"/><path fill="#000000" fill-opacity="0.0" d="m190.72995 320.98807l47.02362 -33.66931" fill-rule="evenodd"/><path stroke="#999999" stroke-width="1.0" stroke-linejoin="round" stroke-linecap="butt" d="m190.72995 320.98807l47.02362 -33.66931" fill-rule="evenodd"/><path fill="#000000" fill-opacity="0.0" d="m241.29396 66.60105l125.41731 42.677162" fill-rule="evenodd"/><path stroke="#999999" stroke-width="1.0" stroke-linejoin="round" stroke-linecap="butt" d="m241.29396 66.60105l125.41731 42.677162" fill-rule="evenodd"/><path fill="#000000" fill-opacity="0.0" d="m366.72324 134.19278l63.873993 33.826782" fill-rule="evenodd"/><path stroke="#ffffff" stroke-width="1.0" stroke-linejoin="round" stroke-linecap="butt" d="m366.72324 134.19278l63.873993 33.826782" fill-rule="evenodd"/><path fill="#434343" d="m228.83727 41.687664l24.913391 0l0 24.913387l-24.913391 0z" fill-rule="evenodd"/><path stroke="#999999" stroke-width="1.0" stroke-linejoin="round" stroke-linecap="butt" d="m228.83727 41.687664l24.913391 0l0 24.913387l-24.913391 0z" fill-rule="evenodd"/><path fill="#ffffff" d="m34.89662 374.13504l24.913383 0l0 24.913391l-24.913383 0z" fill-rule="evenodd"/><path stroke="#ffffff" stroke-width="1.0" stroke-linejoin="round" stroke-linecap="butt" d="m34.89662 374.13504l24.913383 0l0 24.913391l-24.913383 0z" fill-rule="evenodd"/><path fill="#000000" d="m45.75494 390.33173l0 -0.8125q-0.65625 0.9375 -1.75 0.9375q-0.5 0 -0.921875 -0.1875q-0.421875 -0.1875 -0.625 -0.46875q-0.203125 -0.28125 -0.296875 -0.703125q-0.046875 -0.265625 -0.046875 -0.875l0 -3.421875l0.9375 0l0 3.0625q0 0.734375 0.046875 1.0q0.09375 0.359375 0.375 0.578125q0.296875 0.203125 0.703125 0.203125q0.421875 0 0.796875 -0.203125q0.375 -0.21875 0.515625 -0.59375q0.15625 -0.375 0.15625 -1.078125l0 -2.96875l0.9375 0l0 5.53125l-0.828125 0zm5.5671234 0l-0.9375 0l0 -5.96875q-0.34375 0.328125 -0.890625 0.65625q-0.546875 0.3125 -0.984375 0.46875l0 -0.90625q0.796875 -0.359375 1.375 -0.890625q0.59375 -0.53125 0.828125 -1.015625l0.609375 0l0 7.65625z" fill-rule="nonzero"/><path fill="#ffffff" d="m69.11651 374.13504l24.913383 0l0 24.913391l-24.913383 0z" fill-rule="evenodd"/><path stroke="#ffffff" stroke-width="1.0" stroke-linejoin="round" stroke-linecap="butt" d="m69.11651 374.13504l24.913383 0l0 24.913391l-24.913383 0z" fill-rule="evenodd"/><path fill="#000000" d="m79.97482 390.33173l0 -0.8125q-0.65625 0.9375 -1.75 0.9375q-0.5 0 -0.921875 -0.1875q-0.421875 -0.1875 -0.625 -0.46875q-0.203125 -0.28125 -0.296875 -0.703125q-0.046875 -0.265625 -0.046875 -0.875l0 -3.421875l0.9375 0l0 3.0625q0 0.734375 0.046875 1.0q0.09375 0.359375 0.375 0.578125q0.296875 0.203125 0.703125 0.203125q0.421875 0 0.796875 -0.203125q0.375 -0.21875 0.515625 -0.59375q0.15625 -0.375 0.15625 -1.078125l0 -2.96875l0.9375 0l0 5.53125l-0.828125 0zm6.9577484 -0.90625l0 0.90625l-5.03125 0q-0.015625 -0.34375 0.109375 -0.65625q0.1875 -0.515625 0.609375 -1.015625q0.421875 -0.5 1.234375 -1.140625q1.234375 -1.03125 1.671875 -1.625q0.4375 -0.59375 0.4375 -1.125q0 -0.5625 -0.40625 -0.9375q-0.390625 -0.390625 -1.03125 -0.390625q-0.671875 0 -1.078125 0.40625q-0.40625 0.40625 -0.40625 1.125l-0.96875 -0.09375q0.09375 -1.078125 0.734375 -1.640625q0.65625 -0.5625 1.734375 -0.5625q1.109375 0 1.75 0.609375q0.640625 0.609375 0.640625 1.5q0 0.46875 -0.1875 0.90625q-0.1875 0.4375 -0.625 0.9375q-0.4375 0.484375 -1.453125 1.328125q-0.828125 0.71875 -1.078125 0.96875q-0.234375 0.25 -0.390625 0.5l3.734375 0z" fill-rule="nonzero"/><path fill="#ffffff" d="m103.336395 374.13504l24.913391 0l0 24.913391l-24.913391 0z" fill-rule="evenodd"/><path stroke="#ffffff" stroke-width="1.0" stroke-linejoin="round" stroke-linecap="butt" d="m103.336395 374.13504l24.913391 0l0 24.913391l-24.913391 0z" fill-rule="evenodd"/><path fill="#000000" d="m114.19471 390.33173l0 -0.8125q-0.65625 0.9375 -1.75 0.9375q-0.5 0 -0.921875 -0.1875q-0.421875 -0.1875 -0.625 -0.46875q-0.203125 -0.28125 -0.296875 -0.703125q-0.046875 -0.265625 -0.046875 -0.875l0 -3.421875l0.9375 0l0 3.0625q0 0.734375 0.046875 1.0q0.09375 0.359375 0.375 0.578125q0.296875 0.203125 0.703125 0.203125q0.421875 0 0.796875 -0.203125q0.375 -0.21875 0.515625 -0.59375q0.15625 -0.375 0.15625 -1.078125l0 -2.96875l0.9375 0l0 5.53125l-0.828125 0zm2.0514984 -2.015625l0.9375 -0.125q0.15625 0.796875 0.546875 1.15625q0.390625 0.34375 0.9375 0.34375q0.65625 0 1.109375 -0.453125q0.46875 -0.46875 0.46875 -1.140625q0 -0.640625 -0.421875 -1.0625q-0.421875 -0.421875 -1.078125 -0.421875q-0.265625 0 -0.65625 0.109375l0.109375 -0.828125q0.09375 0.015625 0.140625 0.015625q0.59375 0 1.078125 -0.3125q0.484375 -0.3125 0.484375 -0.96875q0 -0.515625 -0.359375 -0.84375q-0.34375 -0.34375 -0.890625 -0.34375q-0.546875 0 -0.921875 0.34375q-0.359375 0.34375 -0.453125 1.03125l-0.9375 -0.171875q0.171875 -0.9375 0.78125 -1.453125q0.609375 -0.515625 1.5 -0.515625q0.625 0 1.15625 0.265625q0.53125 0.265625 0.796875 0.734375q0.28125 0.453125 0.28125 0.984375q0 0.484375 -0.265625 0.890625q-0.265625 0.40625 -0.78125 0.65625q0.671875 0.15625 1.046875 0.65625q0.375 0.484375 0.375 1.21875q0 1.0 -0.734375 1.703125q-0.71875 0.6875 -1.828125 0.6875q-1.0 0 -1.671875 -0.59375q-0.65625 -0.609375 -0.75 -1.5625z" fill-rule="nonzero"/><path fill="#ffffff" d="m137.55627 374.13504l24.913391 0l0 24.913391l-24.913391 0z" fill-rule="evenodd"/><path stroke="#ffffff" stroke-width="1.0" stroke-linejoin="round" stroke-linecap="butt" d="m137.55627 374.13504l24.913391 0l0 24.913391l-24.913391 0z" fill-rule="evenodd"/><path fill="#000000" d="m148.4146 390.33173l0 -0.8125q-0.65625 0.9375 -1.75 0.9375q-0.5 0 -0.921875 -0.1875q-0.421875 -0.1875 -0.625 -0.46875q-0.203125 -0.28125 -0.296875 -0.703125q-0.046875 -0.265625 -0.046875 -0.875l0 -3.421875l0.9375 0l0 3.0625q0 0.734375 0.046875 1.0q0.09375 0.359375 0.375 0.578125q0.296875 0.203125 0.703125 0.203125q0.421875 0 0.796875 -0.203125q0.375 -0.21875 0.515625 -0.59375q0.15625 -0.375 0.15625 -1.078125l0 -2.96875l0.9375 0l0 5.53125l-0.828125 0zm5.0358734 0l0 -1.828125l-3.296875 0l0 -0.859375l3.46875 -4.9375l0.765625 0l0 4.9375l1.03125 0l0 0.859375l-1.03125 0l0 1.828125l-0.9375 0zm0 -2.6875l0 -3.4375l-2.375 3.4375l2.375 0z" fill-rule="nonzero"/><path fill="#ffffff" d="m171.77617 374.13504l24.913376 0l0 24.913391l-24.913376 0z" fill-rule="evenodd"/><path stroke="#ffffff" stroke-width="1.0" stroke-linejoin="round" stroke-linecap="butt" d="m171.77617 374.13504l24.913376 0l0 24.913391l-24.913376 0z" fill-rule="evenodd"/><path fill="#000000" d="m182.63449 390.33173l0 -0.8125q-0.65625 0.9375 -1.75 0.9375q-0.5 0 -0.921875 -0.1875q-0.421875 -0.1875 -0.625 -0.46875q-0.203125 -0.28125 -0.296875 -0.703125q-0.046875 -0.265625 -0.046875 -0.875l0 -3.421875l0.9375 0l0 3.0625q0 0.734375 0.046875 1.0q0.09375 0.359375 0.375 0.578125q0.296875 0.203125 0.703125 0.203125q0.421875 0 0.796875 -0.203125q0.375 -0.21875 0.515625 -0.59375q0.15625 -0.375 0.15625 -1.078125l0 -2.96875l0.9375 0l0 5.53125l-0.828125 0zm2.0358734 -2.0l0.984375 -0.078125q0.109375 0.71875 0.5 1.078125q0.40625 0.359375 0.96875 0.359375q0.671875 0 1.140625 -0.5q0.46875 -0.515625 0.46875 -1.359375q0 -0.796875 -0.453125 -1.265625q-0.4375 -0.46875 -1.171875 -0.46875q-0.453125 0 -0.8125 0.21875q-0.359375 0.203125 -0.578125 0.53125l-0.875 -0.125l0.734375 -3.921875l3.796875 0l0 0.90625l-3.046875 0l-0.40625 2.046875q0.6875 -0.484375 1.4375 -0.484375q1.0 0 1.6875 0.703125q0.6875 0.6875 0.6875 1.765625q0 1.046875 -0.609375 1.796875q-0.734375 0.921875 -2.0 0.921875q-1.03125 0 -1.703125 -0.578125q-0.65625 -0.578125 -0.75 -1.546875z" fill-rule="nonzero"/><path fill="#ffffff" d="m205.99605 374.13504l24.913391 0l0 24.913391l-24.913391 0z" fill-rule="evenodd"/><path stroke="#ffffff" stroke-width="1.0" stroke-linejoin="round" stroke-linecap="butt" d="m205.99605 374.13504l24.913391 0l0 24.913391l-24.913391 0z" fill-rule="evenodd"/><path fill="#000000" d="m216.85437 390.33173l0 -0.8125q-0.65625 0.9375 -1.75 0.9375q-0.5 0 -0.921875 -0.1875q-0.421875 -0.1875 -0.625 -0.46875q-0.203125 -0.28125 -0.296875 -0.703125q-0.046875 -0.265625 -0.046875 -0.875l0 -3.421875l0.9375 0l0 3.0625q0 0.734375 0.046875 1.0q0.09375 0.359375 0.375 0.578125q0.296875 0.203125 0.703125 0.203125q0.421875 0 0.796875 -0.203125q0.375 -0.21875 0.515625 -0.59375q0.15625 -0.375 0.15625 -1.078125l0 -2.96875l0.9375 0l0 5.53125l-0.828125 0zm6.8952484 -5.765625l-0.921875 0.078125q-0.125 -0.546875 -0.359375 -0.796875q-0.375 -0.40625 -0.9375 -0.40625q-0.4375 0 -0.78125 0.25q-0.4375 0.328125 -0.703125 0.953125q-0.25 0.609375 -0.265625 1.75q0.34375 -0.515625 0.828125 -0.765625q0.5 -0.25 1.03125 -0.25q0.9375 0 1.59375 0.703125q0.65625 0.6875 0.65625 1.765625q0 0.71875 -0.3125 1.34375q-0.3125 0.609375 -0.859375 0.9375q-0.53125 0.328125 -1.21875 0.328125q-1.171875 0 -1.90625 -0.859375q-0.734375 -0.859375 -0.734375 -2.828125q0 -2.21875 0.8125 -3.21875q0.71875 -0.875 1.921875 -0.875q0.890625 0 1.46875 0.5q0.578125 0.5 0.6875 1.390625zm-3.8125 3.296875q0 0.484375 0.203125 0.921875q0.203125 0.4375 0.5625 0.671875q0.375 0.234375 0.78125 0.234375q0.59375 0 1.015625 -0.46875q0.4375 -0.484375 0.4375 -1.3125q0 -0.78125 -0.421875 -1.234375q-0.421875 -0.46875 -1.0625 -0.46875q-0.640625 0 -1.078125 0.46875q-0.4375 0.453125 -0.4375 1.1875z" fill-rule="nonzero"/><path fill="#ffffff" d="m240.21594 374.13504l24.913391 0l0 24.913391l-24.913391 0z" fill-rule="evenodd"/><path stroke="#ffffff" stroke-width="1.0" stroke-linejoin="round" stroke-linecap="butt" d="m240.21594 374.13504l24.913391 0l0 24.913391l-24.913391 0z" fill-rule="evenodd"/><path fill="#000000" d="m251.07425 390.33173l0 -0.8125q-0.65625 0.9375 -1.75 0.9375q-0.5 0 -0.921875 -0.1875q-0.421875 -0.1875 -0.625 -0.46875q-0.203125 -0.28125 -0.296875 -0.703125q-0.046875 -0.265625 -0.046875 -0.875l0 -3.421875l0.9375 0l0 3.0625q0 0.734375 0.046875 1.0q0.09375 0.359375 0.375 0.578125q0.296875 0.203125 0.703125 0.203125q0.421875 0 0.796875 -0.203125q0.375 -0.21875 0.515625 -0.59375q0.15625 -0.375 0.15625 -1.078125l0 -2.96875l0.9375 0l0 5.53125l-0.828125 0zm2.0983734 -6.625l0 -0.90625l4.9375153 0l0 0.734375q-0.71875 0.765625 -1.4375 2.0625q-0.71876526 1.28125 -1.1093903 2.640625q-0.28125 0.953125 -0.359375 2.09375l-0.953125 0q0.015625 -0.90625 0.34375 -2.171875q0.34375 -1.28125 0.96875 -2.453125q0.64064026 -1.1875 1.3437653 -2.0l-3.7343903 0z" fill-rule="nonzero"/><path fill="#ffffff" d="m274.43582 374.13504l24.913391 0l0 24.913391l-24.913391 0z" fill-rule="evenodd"/><path stroke="#ffffff" stroke-width="1.0" stroke-linejoin="round" stroke-linecap="butt" d="m274.43582 374.13504l24.913391 0l0 24.913391l-24.913391 0z" fill-rule="evenodd"/><path fill="#000000" d="m285.29413 390.33173l0 -0.8125q-0.65625 0.9375 -1.75 0.9375q-0.5 0 -0.921875 -0.1875q-0.421875 -0.1875 -0.625 -0.46875q-0.203125 -0.28125 -0.296875 -0.703125q-0.046875 -0.265625 -0.046875 -0.875l0 -3.421875l0.9375 0l0 3.0625q0 0.734375 0.046875 1.0q0.09375 0.359375 0.375 0.578125q0.296875 0.203125 0.703125 0.203125q0.421875 0 0.796875 -0.203125q0.375 -0.21875 0.515625 -0.59375q0.15625 -0.375 0.15625 -1.078125l0 -2.96875l0.9375 0l0 5.53125l-0.828125 0zm3.4890137 -4.140625q-0.59375 -0.203125 -0.875 -0.59375q-0.28125 -0.40625 -0.28125 -0.953125q0 -0.84375 0.59375 -1.40625q0.609375 -0.5625 1.59375 -0.5625q1.0 0 1.609375 0.578125q0.609375 0.578125 0.609375 1.40625q0 0.53125 -0.28125 0.9375q-0.265625 0.390625 -0.84375 0.59375q0.703125 0.234375 1.0625 0.75q0.375 0.5 0.375 1.203125q0 0.984375 -0.6875 1.65625q-0.6875 0.65625 -1.828125 0.65625q-1.125 0 -1.8125 -0.65625q-0.6875 -0.671875 -0.6875 -1.671875q0 -0.75 0.375 -1.25q0.375 -0.5 1.078125 -0.6875zm-0.1875 -1.578125q0 0.53125 0.34375 0.875q0.34375 0.34375 0.90625 0.34375q0.53125 0 0.875 -0.328125q0.359375 -0.34375 0.359375 -0.84375q0 -0.515625 -0.359375 -0.859375q-0.359375 -0.359375 -0.890625 -0.359375q-0.53125 0 -0.890625 0.34375q-0.34375 0.34375 -0.34375 0.828125zm-0.3125 3.515625q0 0.40625 0.1875 0.78125q0.203125 0.375 0.578125 0.578125q0.375 0.203125 0.796875 0.203125q0.671875 0 1.109375 -0.421875q0.4375 -0.4375 0.4375 -1.109375q0 -0.671875 -0.453125 -1.109375q-0.453125 -0.453125 -1.125 -0.453125q-0.65625 0 -1.09375 0.4375q-0.4375 0.4375 -0.4375 1.09375z" fill-rule="nonzero"/><path fill="#ffffff" d="m308.65515 374.13504l24.913391 0l0 24.913391l-24.913391 0z" fill-rule="evenodd"/><path stroke="#ffffff" stroke-width="1.0" stroke-linejoin="round" stroke-linecap="butt" d="m308.65515 374.13504l24.913391 0l0 24.913391l-24.913391 0z" fill-rule="evenodd"/><path fill="#000000" d="m319.51346 390.33173l0 -0.8125q-0.65625 0.9375 -1.75 0.9375q-0.5 0 -0.921875 -0.1875q-0.421875 -0.1875 -0.625 -0.46875q-0.203125 -0.28125 -0.296875 -0.703125q-0.046875 -0.265625 -0.046875 -0.875l0 -3.421875l0.9375 0l0 3.0625q0 0.734375 0.046875 1.0q0.09375 0.359375 0.375 0.578125q0.296875 0.203125 0.703125 0.203125q0.421875 0 0.796875 -0.203125q0.375 -0.21875 0.515625 -0.59375q0.15625 -0.375 0.15625 -1.078125l0 -2.96875l0.9375 0l0 5.53125l-0.828125 0zm2.1765137 -1.765625l0.90625 -0.078125q0.109375 0.625 0.4375 0.921875q0.328125 0.28125 0.828125 0.28125q0.421875 0 0.75 -0.1875q0.328125 -0.203125 0.53125 -0.53125q0.21875 -0.34375 0.359375 -0.890625q0.140625 -0.5625 0.140625 -1.15625q0 -0.0625 -0.015625 -0.1875q-0.28125 0.453125 -0.765625 0.734375q-0.484375 0.265625 -1.046875 0.265625q-0.953125 0 -1.609375 -0.671875q-0.65625 -0.6875 -0.65625 -1.8125q0 -1.171875 0.6875 -1.875q0.6875 -0.703125 1.71875 -0.703125q0.734375 0 1.34375 0.40625q0.625 0.390625 0.9375 1.140625q0.328125 0.734375 0.328125 2.140625q0 1.453125 -0.3125 2.328125q-0.3125 0.859375 -0.953125 1.3125q-0.625 0.453125 -1.46875 0.453125q-0.890625 0 -1.453125 -0.484375q-0.5625 -0.5 -0.6875 -1.40625zm3.84375 -3.359375q0 -0.8125 -0.4375 -1.28125q-0.421875 -0.484375 -1.03125 -0.484375q-0.625 0 -1.09375 0.515625q-0.453125 0.515625 -0.453125 1.328125q0 0.71875 0.4375 1.1875q0.4375 0.453125 1.078125 0.453125q0.65625 0 1.078125 -0.453125q0.421875 -0.46875 0.421875 -1.265625z" fill-rule="nonzero"/><path fill="#ffffff" d="m342.87503 374.13504l24.913391 0l0 24.913391l-24.913391 0z" fill-rule="evenodd"/><path stroke="#ffffff" stroke-width="1.0" stroke-linejoin="round" stroke-linecap="butt" d="m342.87503 374.13504l24.913391 0l0 24.913391l-24.913391 0z" fill-rule="evenodd"/><path fill="#000000" d="m350.7701 390.33173l0 -0.8125q-0.65625 0.9375 -1.75 0.9375q-0.5 0 -0.921875 -0.1875q-0.421875 -0.1875 -0.625 -0.46875q-0.203125 -0.28125 -0.296875 -0.703125q-0.046875 -0.265625 -0.046875 -0.875l0 -3.421875l0.9375 0l0 3.0625q0 0.734375 0.046875 1.0q0.09375 0.359375 0.375 0.578125q0.296875 0.203125 0.703125 0.203125q0.421875 0 0.796875 -0.203125q0.375 -0.21875 0.515625 -0.59375q0.15625 -0.375 0.15625 -1.078125l0 -2.96875l0.9375 0l0 5.53125l-0.828125 0zm5.567108 0l-0.9375 0l0 -5.96875q-0.34375 0.328125 -0.890625 0.65625q-0.546875 0.3125 -0.984375 0.46875l0 -0.90625q0.796875 -0.359375 1.375 -0.890625q0.59375 -0.53125 0.828125 -1.015625l0.609375 0l0 7.65625zm2.3952637 -3.765625q0 -1.34375 0.28125 -2.171875q0.28125 -0.828125 0.828125 -1.265625q0.546875 -0.453125 1.375 -0.453125q0.625 0 1.078125 0.25q0.46875 0.234375 0.765625 0.703125q0.3125 0.46875 0.484375 1.140625q0.171875 0.671875 0.171875 1.796875q0 1.34375 -0.28125 2.171875q-0.28125 0.828125 -0.828125 1.28125q-0.546875 0.4375 -1.390625 0.4375q-1.09375 0 -1.71875 -0.78125q-0.765625 -0.953125 -0.765625 -3.109375zm0.96875 0q0 1.875 0.4375 2.5q0.4375 0.625 1.078125 0.625q0.65625 0 1.09375 -0.625q0.4375 -0.625 0.4375 -2.5q0 -1.875 -0.4375 -2.5q-0.4375 -0.625 -1.09375 -0.625q-0.640625 0 -1.03125 0.546875q-0.484375 0.703125 -0.484375 2.578125z" fill-rule="nonzero"/><path fill="#ffffff" d="m377.0949 374.13504l24.913391 0l0 24.913391l-24.913391 0z" fill-rule="evenodd"/><path stroke="#ffffff" stroke-width="1.0" stroke-linejoin="round" stroke-linecap="butt" d="m377.0949 374.13504l24.913391 0l0 24.913391l-24.913391 0z" fill-rule="evenodd"/><path fill="#000000" d="m385.38583 390.33173l0 -0.8125q-0.65625 0.9375 -1.75 0.9375q-0.5 0 -0.921875 -0.1875q-0.421875 -0.1875 -0.625 -0.46875q-0.203125 -0.28125 -0.296875 -0.703125q-0.046875 -0.265625 -0.046875 -0.875l0 -3.421875l0.9375 0l0 3.0625q0 0.734375 0.046875 1.0q0.09375 0.359375 0.375 0.578125q0.296875 0.203125 0.703125 0.203125q0.421875 0 0.796875 -0.203125q0.375 -0.21875 0.515625 -0.59375q0.15625 -0.375 0.15625 -1.078125l0 -2.96875l0.9375 0l0 5.53125l-0.828125 0zm5.567108 0l-0.9375 0l0 -5.96875q-0.34375 0.328125 -0.890625 0.65625q-0.546875 0.3125 -0.984375 0.46875l0 -0.90625q0.796875 -0.359375 1.375 -0.890625q0.59375 -0.53125 0.828125 -1.015625l0.609375 0l0 7.65625zm5.1348267 0l-0.9375 0l0 -5.96875q-0.34375 0.328125 -0.890625 0.65625q-0.546875 0.3125 -0.984375 0.46875l0 -0.90625q0.796875 -0.359375 1.375 -0.890625q0.59375 -0.53125 0.828125 -1.015625l0.609375 0l0 7.65625z" fill-rule="nonzero"/><path fill="#ffffff" d="m411.31482 374.13504l24.91336 0l0 24.913391l-24.91336 0z" fill-rule="evenodd"/><path stroke="#ffffff" stroke-width="1.0" stroke-linejoin="round" stroke-linecap="butt" d="m411.31482 374.13504l24.91336 0l0 24.913391l-24.91336 0z" fill-rule="evenodd"/><path fill="#000000" d="m419.20987 390.33173l0 -0.8125q-0.65625 0.9375 -1.75 0.9375q-0.5 0 -0.921875 -0.1875q-0.421875 -0.1875 -0.625 -0.46875q-0.203125 -0.28125 -0.296875 -0.703125q-0.046875 -0.265625 -0.046875 -0.875l0 -3.421875l0.9375 0l0 3.0625q0 0.734375 0.046875 1.0q0.09375 0.359375 0.375 0.578125q0.296875 0.203125 0.703125 0.203125q0.421875 0 0.796875 -0.203125q0.375 -0.21875 0.515625 -0.59375q0.15625 -0.375 0.15625 -1.078125l0 -2.96875l0.9375 0l0 5.53125l-0.828125 0zm5.5671387 0l-0.9375 0l0 -5.96875q-0.34375 0.328125 -0.890625 0.65625q-0.546875 0.3125 -0.984375 0.46875l0 -0.90625q0.796875 -0.359375 1.375 -0.890625q0.59375 -0.53125 0.828125 -1.015625l0.609375 0l0 7.65625zm7.317108 -0.90625l0 0.90625l-5.03125 0q-0.015625 -0.34375 0.109375 -0.65625q0.1875 -0.515625 0.609375 -1.015625q0.421875 -0.5 1.234375 -1.140625q1.234375 -1.03125 1.671875 -1.625q0.4375 -0.59375 0.4375 -1.125q0 -0.5625 -0.40625 -0.9375q-0.390625 -0.390625 -1.03125 -0.390625q-0.671875 0 -1.078125 0.40625q-0.40625 0.40625 -0.40625 1.125l-0.96875 -0.09375q0.09375 -1.078125 0.734375 -1.640625q0.65625 -0.5625 1.734375 -0.5625q1.109375 0 1.75 0.609375q0.640625 0.609375 0.640625 1.5q0 0.46875 -0.1875 0.90625q-0.1875 0.4375 -0.625 0.9375q-0.4375 0.484375 -1.453125 1.328125q-0.828125 0.71875 -1.078125 0.96875q-0.234375 0.25 -0.390625 0.5l3.734375 0z" fill-rule="nonzero"/><path fill="#ffffff" d="m445.5347 374.13504l24.913391 0l0 24.913391l-24.913391 0z" fill-rule="evenodd"/><path stroke="#ffffff" stroke-width="1.0" stroke-linejoin="round" stroke-linecap="butt" d="m445.5347 374.13504l24.913391 0l0 24.913391l-24.913391 0z" fill-rule="evenodd"/><path fill="#000000" d="m453.42978 390.33173l0 -0.8125q-0.65625 0.9375 -1.75 0.9375q-0.5 0 -0.921875 -0.1875q-0.421875 -0.1875 -0.625 -0.46875q-0.203125 -0.28125 -0.296875 -0.703125q-0.046875 -0.265625 -0.046875 -0.875l0 -3.421875l0.9375 0l0 3.0625q0 0.734375 0.046875 1.0q0.09375 0.359375 0.375 0.578125q0.296875 0.203125 0.703125 0.203125q0.421875 0 0.796875 -0.203125q0.375 -0.21875 0.515625 -0.59375q0.15625 -0.375 0.15625 -1.078125l0 -2.96875l0.9375 0l0 5.53125l-0.828125 0zm5.567108 0l-0.9375 0l0 -5.96875q-0.34375 0.328125 -0.890625 0.65625q-0.546875 0.3125 -0.984375 0.46875l0 -0.90625q0.796875 -0.359375 1.375 -0.890625q0.59375 -0.53125 0.828125 -1.015625l0.609375 0l0 7.65625zm2.4108887 -2.015625l0.9375 -0.125q0.15625 0.796875 0.546875 1.15625q0.390625 0.34375 0.9375 0.34375q0.65625 0 1.109375 -0.453125q0.46875 -0.46875 0.46875 -1.140625q0 -0.640625 -0.421875 -1.0625q-0.421875 -0.421875 -1.078125 -0.421875q-0.265625 0 -0.65625 0.109375l0.109375 -0.828125q0.09375 0.015625 0.140625 0.015625q0.59375 0 1.078125 -0.3125q0.484375 -0.3125 0.484375 -0.96875q0 -0.515625 -0.359375 -0.84375q-0.34375 -0.34375 -0.890625 -0.34375q-0.546875 0 -0.921875 0.34375q-0.359375 0.34375 -0.453125 1.03125l-0.9375 -0.171875q0.171875 -0.9375 0.78125 -1.453125q0.609375 -0.515625 1.5 -0.515625q0.625 0 1.15625 0.265625q0.53125 0.265625 0.796875 0.734375q0.28125 0.453125 0.28125 0.984375q0 0.484375 -0.265625 0.890625q-0.265625 0.40625 -0.78125 0.65625q0.671875 0.15625 1.046875 0.65625q0.375 0.484375 0.375 1.21875q0 1.0 -0.734375 1.703125q-0.71875 0.6875 -1.828125 0.6875q-1.0 0 -1.671875 -0.59375q-0.65625 -0.609375 -0.75 -1.5625z" fill-rule="nonzero"/><path fill="#ffffff" d="m479.75458 374.13504l24.913391 0l0 24.913391l-24.913391 0z" fill-rule="evenodd"/><path stroke="#ffffff" stroke-width="1.0" stroke-linejoin="round" stroke-linecap="butt" d="m479.75458 374.13504l24.913391 0l0 24.913391l-24.913391 0z" fill-rule="evenodd"/><path fill="#000000" d="m487.64966 390.33173l0 -0.8125q-0.65625 0.9375 -1.75 0.9375q-0.5 0 -0.921875 -0.1875q-0.421875 -0.1875 -0.625 -0.46875q-0.203125 -0.28125 -0.296875 -0.703125q-0.046875 -0.265625 -0.046875 -0.875l0 -3.421875l0.9375 0l0 3.0625q0 0.734375 0.046875 1.0q0.09375 0.359375 0.375 0.578125q0.296875 0.203125 0.703125 0.203125q0.421875 0 0.796875 -0.203125q0.375 -0.21875 0.515625 -0.59375q0.15625 -0.375 0.15625 -1.078125l0 -2.96875l0.9375 0l0 5.53125l-0.828125 0zm5.567108 0l-0.9375 0l0 -5.96875q-0.34375 0.328125 -0.890625 0.65625q-0.546875 0.3125 -0.984375 0.46875l0 -0.90625q0.796875 -0.359375 1.375 -0.890625q0.59375 -0.53125 0.828125 -1.015625l0.609375 0l0 7.65625zm5.3952637 0l0 -1.828125l-3.296875 0l0 -0.859375l3.46875 -4.9375l0.765625 0l0 4.9375l1.03125 0l0 0.859375l-1.03125 0l0 1.828125l-0.9375 0zm0 -2.6875l0 -3.4375l-2.375 3.4375l2.375 0z" fill-rule="nonzero"/><path fill="#ffffff" d="m513.9745 374.13504l24.913391 0l0 24.913391l-24.913391 0z" fill-rule="evenodd"/><path stroke="#ffffff" stroke-width="1.0" stroke-linejoin="round" stroke-linecap="butt" d="m513.9745 374.13504l24.913391 0l0 24.913391l-24.913391 0z" fill-rule="evenodd"/><path fill="#000000" d="m521.8695 390.33173l0 -0.8125q-0.65625 0.9375 -1.75 0.9375q-0.5 0 -0.921875 -0.1875q-0.421875 -0.1875 -0.625 -0.46875q-0.203125 -0.28125 -0.296875 -0.703125q-0.046875 -0.265625 -0.046875 -0.875l0 -3.421875l0.9375 0l0 3.0625q0 0.734375 0.046875 1.0q0.09375 0.359375 0.375 0.578125q0.296875 0.203125 0.703125 0.203125q0.421875 0 0.796875 -0.203125q0.375 -0.21875 0.515625 -0.59375q0.15625 -0.375 0.15625 -1.078125l0 -2.96875l0.9375 0l0 5.53125l-0.828125 0zm5.5671387 0l-0.9375 0l0 -5.96875q-0.34375 0.328125 -0.890625 0.65625q-0.546875 0.3125 -0.984375 0.46875l0 -0.90625q0.796875 -0.359375 1.375 -0.890625q0.59375 -0.53125 0.828125 -1.015625l0.609375 0l0 7.65625zm2.3952637 -2.0l0.984375 -0.078125q0.109375 0.71875 0.5 1.078125q0.40625 0.359375 0.96875 0.359375q0.671875 0 1.140625 -0.5q0.46875 -0.515625 0.46875 -1.359375q0 -0.796875 -0.453125 -1.265625q-0.4375 -0.46875 -1.171875 -0.46875q-0.453125 0 -0.8125 0.21875q-0.359375 0.203125 -0.578125 0.53125l-0.875 -0.125l0.734375 -3.921875l3.796875 0l0 0.90625l-3.046875 0l-0.40625 2.046875q0.6875 -0.484375 1.4375 -0.484375q1.0 0 1.6875 0.703125q0.6875 0.6875 0.6875 1.765625q0 1.046875 -0.609375 1.796875q-0.734375 0.921875 -2.0 0.921875q-1.03125 0 -1.703125 -0.578125q-0.65625 -0.578125 -0.75 -1.546875z" fill-rule="nonzero"/><path fill="#ffffff" d="m548.19434 374.13504l24.913391 0l0 24.913391l-24.913391 0z" fill-rule="evenodd"/><path stroke="#ffffff" stroke-width="1.0" stroke-linejoin="round" stroke-linecap="butt" d="m548.19434 374.13504l24.913391 0l0 24.913391l-24.913391 0z" fill-rule="evenodd"/><path fill="#000000" d="m556.57294 390.33173l0 -1.0625l1.0625 0l0 1.0625l-1.0625 0zm3.546875 0l0 -1.0625l1.0625 0l0 1.0625l-1.0625 0zm3.546875 0l0 -1.0625l1.078125 0l0 1.0625l-1.078125 0z" fill-rule="nonzero"/><path fill="#000000" fill-opacity="0.0" d="m47.353313 374.13504l143.37007 -28.220459" fill-rule="evenodd"/><path stroke="#ffffff" stroke-width="1.0" stroke-linejoin="round" stroke-linecap="butt" d="m47.353313 374.13504l143.37007 -28.220459" fill-rule="evenodd"/><path fill="#000000" fill-opacity="0.0" d="m81.5732 374.13504l109.16536 -28.220459" fill-rule="evenodd"/><path stroke="#ffffff" stroke-width="1.0" stroke-linejoin="round" stroke-linecap="butt" d="m81.5732 374.13504l109.16536 -28.220459" fill-rule="evenodd"/><path fill="#000000" fill-opacity="0.0" d="m115.79308 374.13504l109.16535 -28.220459" fill-rule="evenodd"/><path stroke="#ffffff" stroke-width="1.0" stroke-linejoin="round" stroke-linecap="butt" d="m115.79308 374.13504l109.16535 -28.220459" fill-rule="evenodd"/><path fill="#000000" fill-opacity="0.0" d="m150.01297 374.13504l74.92914 -28.220459" fill-rule="evenodd"/><path stroke="#ffffff" stroke-width="1.0" stroke-linejoin="round" stroke-linecap="butt" d="m150.01297 374.13504l74.92914 -28.220459" fill-rule="evenodd"/><path fill="#000000" fill-opacity="0.0" d="m184.23286 374.13504l74.92912 -28.220459" fill-rule="evenodd"/><path stroke="#ffffff" stroke-width="1.0" stroke-linejoin="round" stroke-linecap="butt" d="m184.23286 374.13504l74.92912 -28.220459" fill-rule="evenodd"/><path fill="#000000" fill-opacity="0.0" d="m218.45274 374.13504l40.72441 -28.220459" fill-rule="evenodd"/><path stroke="#ffffff" stroke-width="1.0" stroke-linejoin="round" stroke-linecap="butt" d="m218.45274 374.13504l40.72441 -28.220459" fill-rule="evenodd"/><path fill="#000000" fill-opacity="0.0" d="m252.67262 374.13504l40.72441 -28.220459" fill-rule="evenodd"/><path stroke="#ffffff" stroke-width="1.0" stroke-linejoin="round" stroke-linecap="butt" d="m252.67262 374.13504l40.72441 -28.220459" fill-rule="evenodd"/><path fill="#000000" fill-opacity="0.0" d="m286.89252 374.13504l6.4881897 -28.220459" fill-rule="evenodd"/><path stroke="#ffffff" stroke-width="1.0" stroke-linejoin="round" stroke-linecap="butt" d="m286.89252 374.13504l6.4881897 -28.220459" fill-rule="evenodd"/><path fill="#000000" fill-opacity="0.0" d="m321.11185 374.13504l6.4881897 -28.220459" fill-rule="evenodd"/><path stroke="#ffffff" stroke-width="1.0" stroke-linejoin="round" stroke-linecap="butt" d="m321.11185 374.13504l6.4881897 -28.220459" fill-rule="evenodd"/><path fill="#000000" fill-opacity="0.0" d="m355.33173 374.13504l-27.716522 -28.220459" fill-rule="evenodd"/><path stroke="#ffffff" stroke-width="1.0" stroke-linejoin="round" stroke-linecap="butt" d="m355.33173 374.13504l-27.716522 -28.220459" fill-rule="evenodd"/><path fill="#000000" fill-opacity="0.0" d="m389.5516 374.13504l-27.716522 -28.220459" fill-rule="evenodd"/><path stroke="#ffffff" stroke-width="1.0" stroke-linejoin="round" stroke-linecap="butt" d="m389.5516 374.13504l-27.716522 -28.220459" fill-rule="evenodd"/><path fill="#000000" fill-opacity="0.0" d="m423.7715 374.13504l-61.95276 -28.220459" fill-rule="evenodd"/><path stroke="#ffffff" stroke-width="1.0" stroke-linejoin="round" stroke-linecap="butt" d="m423.7715 374.13504l-61.95276 -28.220459" fill-rule="evenodd"/><path fill="#000000" fill-opacity="0.0" d="m457.9914 374.13504l-61.95276 -28.220459" fill-rule="evenodd"/><path stroke="#ffffff" stroke-width="1.0" stroke-linejoin="round" stroke-linecap="butt" d="m457.9914 374.13504l-61.95276 -28.220459" fill-rule="evenodd"/><path fill="#000000" fill-opacity="0.0" d="m492.21127 374.13504l-96.15747 -28.220459" fill-rule="evenodd"/><path stroke="#ffffff" stroke-width="1.0" stroke-linejoin="round" stroke-linecap="butt" d="m492.21127 374.13504l-96.15747 -28.220459" fill-rule="evenodd"/><path fill="#000000" fill-opacity="0.0" d="m526.43115 374.13504l-96.15747 -28.220459" fill-rule="evenodd"/><path stroke="#ffffff" stroke-width="1.0" stroke-linejoin="round" stroke-linecap="butt" d="m526.43115 374.13504l-96.15747 -28.220459" fill-rule="evenodd"/><path fill="#000000" fill-opacity="0.0" d="m560.65106 374.13504l-130.3937 -28.220459" fill-rule="evenodd"/><path stroke="#ffffff" stroke-width="1.0" stroke-linejoin="round" stroke-linecap="butt" d="m560.65106 374.13504l-130.3937 -28.220459" fill-rule="evenodd"/><path fill="#ffffff" d="m354.26654 109.2794l24.913391 0l0 24.913376l-24.913391 0z" fill-rule="evenodd"/><path stroke="#ffffff" stroke-width="1.0" stroke-linejoin="round" stroke-linecap="butt" d="m354.26654 109.2794l24.913391 0l0 24.913376l-24.913391 0z" fill-rule="evenodd"/><path fill="#000000" fill-opacity="0.0" d="m443.04724 162.69554l105.13385 0l0 35.55905l-105.13385 0z" fill-rule="evenodd"/><path fill="#ffffff" d="m459.67224 175.69867l-3.25 0l0 8.796875l-0.796875 0l0 -8.796875l-3.234375 0l0 -0.671875l7.28125 0l0 0.671875zm0.2677307 5.171875q0 -1.015625 0.390625 -1.828125q0.40625 -0.8125 1.125 -1.265625q0.71875 -0.453125 1.625 -0.453125q1.40625 0 2.28125 0.984375q0.875 0.984375 0.875 2.609375l0 0.171875q0 1.015625 -0.40625 1.84375q-0.390625 0.8125 -1.109375 1.25q-0.703125 0.4375 -1.625 0.4375q-1.390625 0 -2.28125 -0.984375q-0.875 -0.984375 -0.875 -2.609375l0 -0.15625zm0.78125 0.21875q0 1.265625 0.65625 2.078125q0.65625 0.796875 1.71875 0.796875q1.0625 0 1.703125 -0.796875q0.65625 -0.8125 0.65625 -2.140625l0 -0.15625q0 -0.8125 -0.296875 -1.46875q-0.296875 -0.671875 -0.84375 -1.046875q-0.53125 -0.375 -1.234375 -0.375q-1.03125 0 -1.703125 0.828125q-0.65625 0.8125 -0.65625 2.140625l0 0.140625zm8.323914 -5.4375l0 1.796875l1.46875 0l0 0.640625l-1.46875 0l0 4.6875q0 0.59375 0.21875 0.890625q0.21875 0.28125 0.703125 0.28125q0.203125 0 0.640625 -0.078125l0.03125 0.640625q-0.3125 0.109375 -0.84375 0.109375q-0.796875 0 -1.171875 -0.453125q-0.359375 -0.46875 -0.359375 -1.375l0 -4.703125l-1.28125 0l0 -0.640625l1.28125 0l0 -1.796875l0.78125 0zm7.516571 8.84375q-0.109375 -0.328125 -0.140625 -0.984375q-0.40625 0.53125 -1.046875 0.828125q-0.640625 0.28125 -1.34375 0.28125q-1.015625 0 -1.640625 -0.5625q-0.625 -0.5625 -0.625 -1.4375q0 -1.015625 0.84375 -1.609375q0.859375 -0.609375 2.390625 -0.609375l1.40625 0l0 -0.796875q0 -0.765625 -0.46875 -1.1875q-0.453125 -0.4375 -1.34375 -0.4375q-0.8125 0 -1.359375 0.421875q-0.53125 0.40625 -0.53125 1.0l-0.78125 -0.015625q0 -0.828125 0.78125 -1.4375q0.78125 -0.625 1.921875 -0.625q1.1875 0 1.859375 0.59375q0.6875 0.578125 0.703125 1.640625l0 3.328125q0 1.03125 0.21875 1.53125l0 0.078125l-0.84375 0zm-2.4375 -0.5625q0.78125 0 1.390625 -0.375q0.625 -0.375 0.890625 -1.015625l0 -1.546875l-1.390625 0q-1.15625 0.015625 -1.8125 0.4375q-0.65625 0.40625 -0.65625 1.125q0 0.59375 0.4375 0.984375q0.4375 0.390625 1.140625 0.390625zm6.0141296 0.5625l-0.78125 0l0 -10.0l0.78125 0l0 10.0zm6.509308 0l-0.796875 0l0 -9.46875l0.796875 0l0 9.46875zm6.6092834 -1.796875q0 -0.578125 -0.46875 -0.921875q-0.46875 -0.359375 -1.40625 -0.546875q-0.9375 -0.203125 -1.453125 -0.453125q-0.515625 -0.265625 -0.765625 -0.625q-0.25 -0.375 -0.25 -0.90625q0 -0.828125 0.6875 -1.375q0.703125 -0.546875 1.796875 -0.546875q1.171875 0 1.875 0.59375q0.71875 0.578125 0.71875 1.515625l-0.78125 0q0 -0.625 -0.515625 -1.03125q-0.515625 -0.421875 -1.296875 -0.421875q-0.765625 0 -1.234375 0.34375q-0.46875 0.34375 -0.46875 0.890625q0 0.53125 0.390625 0.828125q0.390625 0.28125 1.40625 0.53125q1.03125 0.234375 1.53125 0.515625q0.515625 0.265625 0.765625 0.65625q0.25 0.375 0.25 0.921875q0 0.890625 -0.71875 1.421875q-0.71875 0.53125 -1.875 0.53125q-1.234375 0 -2.0 -0.59375q-0.765625 -0.59375 -0.765625 -1.5l0.78125 0q0.046875 0.6875 0.578125 1.0625q0.53125 0.375 1.40625 0.375q0.8125 0 1.3125 -0.359375q0.5 -0.359375 0.5 -0.90625zm6.7486877 0q0 -0.578125 -0.46875 -0.921875q-0.46875 -0.359375 -1.40625 -0.546875q-0.9375 -0.203125 -1.453125 -0.453125q-0.515625 -0.265625 -0.765625 -0.625q-0.25 -0.375 -0.25 -0.90625q0 -0.828125 0.6875 -1.375q0.703125 -0.546875 1.796875 -0.546875q1.171875 0 1.875 0.59375q0.71875 0.578125 0.71875 1.515625l-0.78125 0q0 -0.625 -0.515625 -1.03125q-0.515625 -0.421875 -1.296875 -0.421875q-0.765625 0 -1.234375 0.34375q-0.46875 0.34375 -0.46875 0.890625q0 0.53125 0.390625 0.828125q0.390625 0.28125 1.40625 0.53125q1.03125 0.234375 1.53125 0.515625q0.515625 0.265625 0.765625 0.65625q0.25 0.375 0.25 0.921875q0 0.890625 -0.71875 1.421875q-0.71875 0.53125 -1.875 0.53125q-1.234375 0 -2.0 -0.59375q-0.765625 -0.59375 -0.765625 -1.5l0.78125 0q0.046875 0.6875 0.578125 1.0625q0.53125 0.375 1.40625 0.375q0.8125 0 1.3125 -0.359375q0.5 -0.359375 0.5 -0.90625zm7.061157 0.90625q-0.703125 1.015625 -2.25 1.015625q-1.125 0 -1.71875 -0.640625q-0.578125 -0.65625 -0.59375 -1.9375l0 -4.59375l0.78125 0l0 4.484375q0 2.015625 1.625 2.015625q1.6875 0 2.140625 -1.40625l0 -5.09375l0.78125 0l0 7.046875l-0.75 0l-0.015625 -0.890625zm7.2276 0.890625q-0.109375 -0.328125 -0.140625 -0.984375q-0.40625 0.53125 -1.046875 0.828125q-0.640625 0.28125 -1.3437195 0.28125q-1.015625 0 -1.640625 -0.5625q-0.625 -0.5625 -0.625 -1.4375q0 -1.015625 0.84375 -1.609375q0.859375 -0.609375 2.3905945 -0.609375l1.40625 0l0 -0.796875q0 -0.765625 -0.46875 -1.1875q-0.453125 -0.4375 -1.34375 -0.4375q-0.8124695 0 -1.3593445 0.421875q-0.53125 0.40625 -0.53125 1.0l-0.78125 -0.015625q0 -0.828125 0.78125 -1.4375q0.78125 -0.625 1.9218445 -0.625q1.1875 0 1.859375 0.59375q0.6875 0.578125 0.703125 1.640625l0 3.328125q0 1.03125 0.21875 1.53125l0 0.078125l-0.84375 0zm-2.4374695 -0.5625q0.7812195 0 1.3905945 -0.375q0.625 -0.375 0.890625 -1.015625l0 -1.546875l-1.390625 0q-1.1562195 0.015625 -1.8124695 0.4375q-0.65625 0.40625 -0.65625 1.125q0 0.59375 0.4375 0.984375q0.4375 0.390625 1.140625 0.390625zm5.8735046 -6.484375l0.03125 1.203125q0.40625 -0.640625 0.984375 -0.984375q0.59375 -0.34375 1.3125 -0.34375q1.140625 0 1.6875 0.640625q0.546875 0.640625 0.5625 1.90625l0 4.625l-0.78125 0l0 -4.625q0 -0.953125 -0.40625 -1.40625q-0.390625 -0.46875 -1.25 -0.46875q-0.71875 0 -1.28125 0.453125q-0.546875 0.453125 -0.8125 1.21875l0 4.828125l-0.78125 0l0 -7.046875l0.734375 0zm9.19635 6.515625q0.8125 0 1.359375 -0.453125q0.546875 -0.453125 0.59375 -1.1875l0.75 0q-0.03125 0.640625 -0.40625 1.171875q-0.375 0.53125 -0.984375 0.828125q-0.609375 0.296875 -1.3125 0.296875q-1.390625 0 -2.203125 -0.953125q-0.8125 -0.96875 -0.8125 -2.59375l0 -0.234375q0 -1.046875 0.359375 -1.84375q0.375 -0.796875 1.046875 -1.234375q0.6875 -0.4375 1.59375 -0.4375q1.15625 0 1.90625 0.6875q0.765625 0.6875 0.8125 1.8125l-0.75 0q-0.046875 -0.828125 -0.59375 -1.328125q-0.546875 -0.515625 -1.375 -0.515625q-1.046875 0 -1.640625 0.765625q-0.578125 0.765625 -0.578125 2.140625l0 0.21875q0 1.359375 0.578125 2.109375q0.59375 0.75 1.65625 0.75zm6.9752197 0.65625q-0.890625 0 -1.625 -0.4375q-0.71875 -0.4375 -1.125 -1.234375q-0.40625 -0.796875 -0.40625 -1.765625l0 -0.28125q0 -1.015625 0.390625 -1.828125q0.40625 -0.8125 1.109375 -1.28125q0.703125 -0.46875 1.515625 -0.46875q1.28125 0 2.03125 0.875q0.765625 0.875 0.765625 2.390625l0 0.4375l-5.03125 0l0 0.15625q0 1.1875 0.6875 1.984375q0.6875 0.796875 1.734375 0.796875q0.625 0 1.09375 -0.21875q0.484375 -0.234375 0.875 -0.734375l0.484375 0.375q-0.859375 1.234375 -2.5 1.234375zm-0.140625 -6.640625q-0.875 0 -1.484375 0.65625q-0.59375 0.640625 -0.71875 1.734375l4.21875 0l0 -0.09375q-0.03125 -1.015625 -0.578125 -1.65625q-0.546875 -0.640625 -1.4375 -0.640625z" fill-rule="nonzero"/><path fill="#000000" fill-opacity="0.0" d="m200.979 162.69554l87.055115 0l0 35.55905l-87.055115 0z" fill-rule="evenodd"/><path fill="#ffffff" d="m230.15329 181.8393l-4.296875 0l-0.984375 2.65625l-0.84375 0l3.59375 -9.46875l0.765625 0l3.578125 9.46875l-0.828125 0l-0.984375 -2.65625zm-4.046875 -0.6875l3.796875 0l-1.90625 -5.15625l-1.890625 5.15625zm9.682953 2.8125q0.8125 0 1.359375 -0.453125q0.546875 -0.453125 0.59375 -1.1875l0.75 0q-0.03125 0.640625 -0.40625 1.171875q-0.375 0.53125 -0.984375 0.828125q-0.609375 0.296875 -1.3125 0.296875q-1.390625 0 -2.203125 -0.953125q-0.8125 -0.96875 -0.8125 -2.59375l0 -0.234375q0 -1.046875 0.359375 -1.84375q0.375 -0.796875 1.046875 -1.234375q0.6875 -0.4375 1.59375 -0.4375q1.15625 0 1.90625 0.6875q0.765625 0.6875 0.8125 1.8125l-0.75 0q-0.046875 -0.828125 -0.59375 -1.328125q-0.546875 -0.515625 -1.375 -0.515625q-1.046875 0 -1.640625 0.765625q-0.578125 0.765625 -0.578125 2.140625l0 0.21875q0 1.359375 0.578125 2.109375q0.59375 0.75 1.65625 0.75zm6.865814 0q0.8125 0 1.359375 -0.453125q0.546875 -0.453125 0.59375 -1.1875l0.75 0q-0.03125 0.640625 -0.40625 1.171875q-0.375 0.53125 -0.984375 0.828125q-0.609375 0.296875 -1.3125 0.296875q-1.390625 0 -2.203125 -0.953125q-0.8125 -0.96875 -0.8125 -2.59375l0 -0.234375q0 -1.046875 0.359375 -1.84375q0.375 -0.796875 1.046875 -1.234375q0.6875 -0.4375 1.59375 -0.4375q1.15625 0 1.90625 0.6875q0.765625 0.6875 0.8125 1.8125l-0.75 0q-0.046875 -0.828125 -0.59375 -1.328125q-0.546875 -0.515625 -1.375 -0.515625q-1.046875 0 -1.640625 0.765625q-0.578125 0.765625 -0.578125 2.140625l0 0.21875q0 1.359375 0.578125 2.109375q0.59375 0.75 1.65625 0.75zm3.8189392 -3.09375q0 -1.015625 0.390625 -1.828125q0.40625 -0.8125 1.125 -1.265625q0.71875 -0.453125 1.625 -0.453125q1.40625 0 2.28125 0.984375q0.875 0.984375 0.875 2.609375l0 0.171875q0 1.015625 -0.40625 1.84375q-0.390625 0.8125 -1.109375 1.25q-0.703125 0.4375 -1.625 0.4375q-1.390625 0 -2.28125 -0.984375q-0.875 -0.984375 -0.875 -2.609375l0 -0.15625zm0.78125 0.21875q0 1.265625 0.65625 2.078125q0.65625 0.796875 1.71875 0.796875q1.0625 0 1.703125 -0.796875q0.65625 -0.8125 0.65625 -2.140625l0 -0.15625q0 -0.8125 -0.296875 -1.46875q-0.296875 -0.671875 -0.84375 -1.046875q-0.53125 -0.375 -1.234375 -0.375q-1.03125 0 -1.703125 0.828125q-0.65625 0.8125 -0.65625 2.140625l0 0.140625zm11.652039 2.515625q-0.703125 1.015625 -2.25 1.015625q-1.125 0 -1.71875 -0.640625q-0.578125 -0.65625 -0.59375 -1.9375l0 -4.59375l0.78125 0l0 4.484375q0 2.015625 1.625 2.015625q1.6875 0 2.140625 -1.40625l0 -5.09375l0.78125 0l0 7.046875l-0.75 0l-0.015625 -0.890625zm3.524475 -6.15625l0.03125 1.203125q0.40625 -0.640625 0.984375 -0.984375q0.59375 -0.34375 1.3125 -0.34375q1.140625 0 1.6875 0.640625q0.546875 0.640625 0.5625 1.90625l0 4.625l-0.78125 0l0 -4.625q0 -0.953125 -0.40625 -1.40625q-0.390625 -0.46875 -1.25 -0.46875q-0.71875 0 -1.28125 0.453125q-0.546875 0.453125 -0.8125 1.21875l0 4.828125l-0.78125 0l0 -7.046875l0.734375 0zm7.7901306 -1.796875l0 1.796875l1.46875 0l0 0.640625l-1.46875 0l0 4.6875q0 0.59375 0.21875 0.890625q0.21875 0.28125 0.703125 0.28125q0.203125 0 0.640625 -0.078125l0.03125 0.640625q-0.3125 0.109375 -0.84375 0.109375q-0.796875 0 -1.171875 -0.453125q-0.359375 -0.46875 -0.359375 -1.375l0 -4.703125l-1.28125 0l0 -0.640625l1.28125 0l0 -1.796875l0.78125 0zm7.2977905 7.046875q0 -0.578125 -0.46875 -0.921875q-0.46875 -0.359375 -1.40625 -0.546875q-0.9375 -0.203125 -1.453125 -0.453125q-0.515625 -0.265625 -0.765625 -0.625q-0.25 -0.375 -0.25 -0.90625q0 -0.828125 0.6875 -1.375q0.703125 -0.546875 1.796875 -0.546875q1.171875 0 1.875 0.59375q0.71875 0.578125 0.71875 1.515625l-0.78125 0q0 -0.625 -0.515625 -1.03125q-0.515625 -0.421875 -1.296875 -0.421875q-0.765625 0 -1.234375 0.34375q-0.46875 0.34375 -0.46875 0.890625q0 0.53125 0.390625 0.828125q0.390625 0.28125 1.40625 0.53125q1.03125 0.234375 1.53125 0.515625q0.515625 0.265625 0.765625 0.65625q0.25 0.375 0.25 0.921875q0 0.890625 -0.71875 1.421875q-0.71875 0.53125 -1.875 0.53125q-1.234375 0 -2.0 -0.59375q-0.765625 -0.59375 -0.765625 -1.5l0.78125 0q0.046875 0.6875 0.578125 1.0625q0.53125 0.375 1.40625 0.375q0.8125 0 1.3125 -0.359375q0.5 -0.359375 0.5 -0.90625z" fill-rule="nonzero"/><path fill="#000000" fill-opacity="0.0" d="m245.8694 286.02887l130.04726 0l0 35.55905l-130.04726 0z" fill-rule="evenodd"/><path fill="#212121" d="m271.0259 295.02887l79.73422 0l0 16.0l-79.73422 0l0 -16.0z" fill-rule="nonzero"/><path fill="#000000" fill-opacity="0.0" d="m271.0259 295.4639l79.73422 0l0 15.6188965l-79.73422 0l0 -15.6188965z" fill-rule="nonzero"/><path fill="#ffffff" d="m278.6509 299.03198l-3.25 0l0 8.796875l-0.796875 0l0 -8.796875l-3.234375 0l0 -0.671875l7.28125 0l0 0.671875zm4.1114807 2.421875q-0.25 -0.046875 -0.53125 -0.046875q-0.71875 0 -1.234375 0.40625q-0.5 0.40625 -0.703125 1.1875l0 4.828125l-0.78125 0l0 -7.046875l0.765625 0l0.015625 1.125q0.609375 -1.25 1.984375 -1.25q0.3125 0 0.5 0.078125l-0.015625 0.71875zm2.1089172 6.375l-0.78125 0l0 -7.046875l0.78125 0l0 7.046875zm-0.921875 -9.078125q0 -0.21875 0.140625 -0.375q0.140625 -0.15625 0.390625 -0.15625q0.25 0 0.390625 0.15625q0.15625 0.15625 0.15625 0.375q0 0.21875 -0.15625 0.375q-0.140625 0.140625 -0.390625 0.140625q-0.25 0 -0.390625 -0.140625q-0.140625 -0.15625 -0.140625 -0.375zm5.7527466 9.203125q-0.890625 0 -1.625 -0.4375q-0.71875 -0.4375 -1.125 -1.234375q-0.40625 -0.796875 -0.40625 -1.765625l0 -0.28125q0 -1.015625 0.390625 -1.828125q0.40625 -0.8125 1.109375 -1.28125q0.703125 -0.46875 1.515625 -0.46875q1.28125 0 2.03125 0.875q0.765625 0.875 0.765625 2.390625l0 0.4375l-5.03125 0l0 0.15625q0 1.1875 0.6875 1.984375q0.6875 0.796875 1.734375 0.796875q0.625 0 1.09375 -0.21875q0.484375 -0.234375 0.875 -0.734375l0.484375 0.375q-0.859375 1.234375 -2.5 1.234375zm-0.140625 -6.640625q-0.875 0 -1.484375 0.65625q-0.59375 0.640625 -0.71875 1.734375l4.21875 0l0 -0.09375q-0.03125 -1.015625 -0.578125 -1.65625q-0.546875 -0.640625 -1.4375 -0.640625zm7.735626 6.515625l0 -9.46875l2.796875 0q1.515625 0 2.296875 0.625q0.796875 0.625 0.796875 1.84375q0 0.734375 -0.40625 1.28125q-0.390625 0.546875 -1.09375 0.78125q0.828125 0.1875 1.328125 0.8125q0.515625 0.625 0.515625 1.453125q0 1.265625 -0.8125 1.96875q-0.8125 0.703125 -2.265625 0.703125l-3.15625 0zm0.796875 -4.5625l0 3.890625l2.40625 0q1.015625 0 1.609375 -0.515625q0.609375 -0.53125 0.609375 -1.46875q0 -0.875 -0.578125 -1.390625q-0.5625 -0.515625 -1.578125 -0.515625l-2.46875 0zm0 -0.65625l2.1875 0q1.0 -0.03125 1.546875 -0.484375q0.546875 -0.453125 0.546875 -1.3125q0 -0.90625 -0.578125 -1.34375q-0.5625 -0.4375 -1.703125 -0.4375l-2.0 0l0 3.578125zm10.433014 -1.15625q-0.25 -0.046875 -0.53125 -0.046875q-0.71875 0 -1.234375 0.40625q-0.5 0.40625 -0.703125 1.1875l0 4.828125l-0.78125 0l0 -7.046875l0.765625 0l0.015625 1.125q0.609375 -1.25 1.984375 -1.25q0.3125 0 0.5 0.078125l-0.015625 0.71875zm5.4110107 6.375q-0.109375 -0.328125 -0.140625 -0.984375q-0.40625 0.53125 -1.046875 0.828125q-0.640625 0.28125 -1.34375 0.28125q-1.015625 0 -1.640625 -0.5625q-0.625 -0.5625 -0.625 -1.4375q0 -1.015625 0.84375 -1.609375q0.859375 -0.609375 2.390625 -0.609375l1.40625 0l0 -0.796875q0 -0.765625 -0.46875 -1.1875q-0.453125 -0.4375 -1.34375 -0.4375q-0.8125 0 -1.359375 0.421875q-0.53125 0.40625 -0.53125 1.0l-0.78125 -0.015625q0 -0.828125 0.78125 -1.4375q0.78125 -0.625 1.921875 -0.625q1.1875 0 1.859375 0.59375q0.6875 0.578125 0.703125 1.640625l0 3.328125q0 1.03125 0.21875 1.53125l0 0.078125l-0.84375 0zm-2.4375 -0.5625q0.78125 0 1.390625 -0.375q0.625 -0.375 0.890625 -1.015625l0 -1.546875l-1.390625 0q-1.15625 0.015625 -1.8125 0.4375q-0.65625 0.40625 -0.65625 1.125q0 0.59375 0.4375 0.984375q0.4375 0.390625 1.140625 0.390625zm5.873535 -6.484375l0.03125 1.203125q0.40625 -0.640625 0.984375 -0.984375q0.59375 -0.34375 1.3125 -0.34375q1.140625 0 1.6875 0.640625q0.546875 0.640625 0.5625 1.90625l0 4.625l-0.78125 0l0 -4.625q0 -0.953125 -0.40625 -1.40625q-0.390625 -0.46875 -1.25 -0.46875q-0.71875 0 -1.28125 0.453125q-0.546875 0.453125 -0.8125 1.21875l0 4.828125l-0.78125 0l0 -7.046875l0.734375 0zm9.19635 6.515625q0.8125 0 1.359375 -0.453125q0.546875 -0.453125 0.59375 -1.1875l0.75 0q-0.03125 0.640625 -0.40625 1.171875q-0.375 0.53125 -0.984375 0.828125q-0.609375 0.296875 -1.3125 0.296875q-1.390625 0 -2.203125 -0.953125q-0.8125 -0.96875 -0.8125 -2.59375l0 -0.234375q0 -1.046875 0.359375 -1.84375q0.375 -0.796875 1.046875 -1.234375q0.6875 -0.4375 1.59375 -0.4375q1.15625 0 1.90625 0.6875q0.765625 0.6875 0.8125 1.8125l-0.75 0q-0.046875 -0.828125 -0.59375 -1.328125q-0.546875 -0.515625 -1.375 -0.515625q-1.046875 0 -1.640625 0.765625q-0.578125 0.765625 -0.578125 2.140625l0 0.21875q0 1.359375 0.578125 2.109375q0.59375 0.75 1.65625 0.75zm5.037689 -5.3125q0.375 -0.640625 0.96875 -0.984375q0.609375 -0.34375 1.3125 -0.34375q1.140625 0 1.6875 0.640625q0.546875 0.640625 0.5625 1.90625l0 4.625l-0.78125 0l0 -4.625q0 -0.953125 -0.40625 -1.40625q-0.390625 -0.46875 -1.25 -0.46875q-0.71875 0 -1.28125 0.453125q-0.546875 0.453125 -0.8125 1.21875l0 4.828125l-0.78125 0l0 -10.0l0.78125 0l0 4.15625zm9.25235 5.96875q-0.890625 0 -1.625 -0.4375q-0.71875 -0.4375 -1.125 -1.234375q-0.40625 -0.796875 -0.40625 -1.765625l0 -0.28125q0 -1.015625 0.390625 -1.828125q0.40625 -0.8125 1.109375 -1.28125q0.703125 -0.46875 1.515625 -0.46875q1.28125 0 2.03125 0.875q0.765625 0.875 0.765625 2.390625l0 0.4375l-5.03125 0l0 0.15625q0 1.1875 0.6875 1.984375q0.6875 0.796875 1.734375 0.796875q0.625 0 1.09375 -0.21875q0.484375 -0.234375 0.875 -0.734375l0.484375 0.375q-0.859375 1.234375 -2.5 1.234375zm-0.140625 -6.640625q-0.875 0 -1.484375 0.65625q-0.59375 0.640625 -0.71875 1.734375l4.21875 0l0 -0.09375q-0.03125 -1.015625 -0.578125 -1.65625q-0.546875 -0.640625 -1.4375 -0.640625zm8.52597 4.71875q0 -0.578125 -0.46875 -0.921875q-0.46875 -0.359375 -1.40625 -0.546875q-0.9375 -0.203125 -1.453125 -0.453125q-0.515625 -0.265625 -0.765625 -0.625q-0.25 -0.375 -0.25 -0.90625q0 -0.828125 0.6875 -1.375q0.703125 -0.546875 1.796875 -0.546875q1.171875 0 1.875 0.59375q0.71875 0.578125 0.71875 1.515625l-0.78125 0q0 -0.625 -0.515625 -1.03125q-0.515625 -0.421875 -1.296875 -0.421875q-0.765625 0 -1.234375 0.34375q-0.46875 0.34375 -0.46875 0.890625q0 0.53125 0.390625 0.828125q0.390625 0.28125 1.40625 0.53125q1.03125 0.234375 1.53125 0.515625q0.515625 0.265625 0.765625 0.65625q0.25 0.375 0.25 0.921875q0 0.890625 -0.71875 1.421875q-0.71875 0.53125 -1.875 0.53125q-1.234375 0 -2.0 -0.59375q-0.765625 -0.59375 -0.765625 -1.5l0.78125 0q0.046875 0.6875 0.578125 1.0625q0.53125 0.375 1.40625 0.375q0.8125 0 1.3125 -0.359375q0.5 -0.359375 0.5 -0.90625z" fill-rule="nonzero"/><path fill="#000000" fill-opacity="0.0" d="m350.76013 295.4639l0 0l0 15.6188965l0 0l0 -15.6188965z" fill-rule="nonzero"/><path fill="#000000" fill-opacity="0.0" d="m314.15747 73.72179l105.13388 0l0 35.55905l-105.13388 0z" fill-rule="evenodd"/><path fill="#ffffff" d="m341.30054 95.52178l0 -9.46875l2.796875 0q1.515625 0 2.296875 0.625q0.796875 0.625 0.796875 1.84375q0 0.734375 -0.40625 1.28125q-0.390625 0.546875 -1.09375 0.78125q0.828125 0.1875 1.328125 0.8125q0.515625 0.625 0.515625 1.453125q0 1.265625 -0.8125 1.96875q-0.8125 0.703125 -2.265625 0.703125l-3.15625 0zm0.796875 -4.5625l0 3.890625l2.40625 0q1.015625 0 1.609375 -0.515625q0.609375 -0.53125 0.609375 -1.46875q0 -0.875 -0.578125 -1.390625q-0.5625 -0.515625 -1.578125 -0.515625l-2.46875 0zm0 -0.65625l2.1875 0q1.0 -0.03125 1.546875 -0.484375q0.546875 -0.453125 0.546875 -1.3125q0 -0.90625 -0.578125 -1.34375q-0.5625 -0.4375 -1.703125 -0.4375l-2.0 0l0 3.578125zm11.620514 5.21875q-0.109375 -0.328125 -0.140625 -0.984375q-0.40625 0.53125 -1.046875 0.828125q-0.640625 0.28125 -1.34375 0.28125q-1.015625 0 -1.640625 -0.5625q-0.625 -0.5625 -0.625 -1.4375q0 -1.015625 0.84375 -1.609375q0.859375 -0.609375 2.390625 -0.609375l1.40625 0l0 -0.796875q0 -0.765625 -0.46875 -1.1875q-0.453125 -0.4375 -1.34375 -0.4375q-0.8125 0 -1.359375 0.421875q-0.53125 0.40625 -0.53125 1.0l-0.78125 -0.015625q0 -0.828125 0.78125 -1.4375q0.78125 -0.625 1.921875 -0.625q1.1875 0 1.859375 0.59375q0.6875 0.578125 0.703125 1.640625l0 3.328125q0 1.03125 0.21875 1.53125l0 0.078125l-0.84375 0zm-2.4375 -0.5625q0.78125 0 1.390625 -0.375q0.625 -0.375 0.890625 -1.015625l0 -1.546875l-1.390625 0q-1.15625 0.015625 -1.8125 0.4375q-0.65625 0.40625 -0.65625 1.125q0 0.59375 0.4375 0.984375q0.4375 0.390625 1.140625 0.390625zm6.01416 0.5625l-0.78125 0l0 -10.0l0.78125 0l0 10.0zm6.5496216 0q-0.109375 -0.328125 -0.140625 -0.984375q-0.40625 0.53125 -1.046875 0.828125q-0.640625 0.28125 -1.34375 0.28125q-1.015625 0 -1.640625 -0.5625q-0.625 -0.5625 -0.625 -1.4375q0 -1.015625 0.84375 -1.609375q0.859375 -0.609375 2.390625 -0.609375l1.40625 0l0 -0.796875q0 -0.765625 -0.46875 -1.1875q-0.453125 -0.4375 -1.34375 -0.4375q-0.8125 0 -1.359375 0.421875q-0.53125 0.40625 -0.53125 1.0l-0.78125 -0.015625q0 -0.828125 0.78125 -1.4375q0.78125 -0.625 1.921875 -0.625q1.1875 0 1.859375 0.59375q0.6875 0.578125 0.703125 1.640625l0 3.328125q0 1.03125 0.21875 1.53125l0 0.078125l-0.84375 0zm-2.4375 -0.5625q0.78125 0 1.390625 -0.375q0.625 -0.375 0.890625 -1.015625l0 -1.546875l-1.390625 0q-1.15625 0.015625 -1.8125 0.4375q-0.65625 0.40625 -0.65625 1.125q0 0.59375 0.4375 0.984375q0.4375 0.390625 1.140625 0.390625zm5.8735046 -6.484375l0.03125 1.203125q0.40625 -0.640625 0.984375 -0.984375q0.59375 -0.34375 1.3125 -0.34375q1.140625 0 1.6875 0.640625q0.546875 0.640625 0.5625 1.90625l0 4.625l-0.78125 0l0 -4.625q0 -0.953125 -0.40625 -1.40625q-0.390625 -0.46875 -1.25 -0.46875q-0.71875 0 -1.28125 0.453125q-0.546875 0.453125 -0.8125 1.21875l0 4.828125l-0.78125 0l0 -7.046875l0.734375 0zm9.196381 6.515625q0.8125 0 1.359375 -0.453125q0.546875 -0.453125 0.59375 -1.1875l0.75 0q-0.03125 0.640625 -0.40625 1.171875q-0.375 0.53125 -0.984375 0.828125q-0.609375 0.296875 -1.3125 0.296875q-1.390625 0 -2.203125 -0.953125q-0.8125 -0.96875 -0.8125 -2.59375l0 -0.234375q0 -1.046875 0.359375 -1.84375q0.375 -0.796875 1.046875 -1.234375q0.6875 -0.4375 1.59375 -0.4375q1.15625 0 1.90625 0.6875q0.765625 0.6875 0.8125 1.8125l-0.75 0q-0.046875 -0.828125 -0.59375 -1.328125q-0.546875 -0.515625 -1.375 -0.515625q-1.046875 0 -1.640625 0.765625q-0.578125 0.765625 -0.578125 2.140625l0 0.21875q0 1.359375 0.578125 2.109375q0.59375 0.75 1.65625 0.75zm6.975189 0.65625q-0.890625 0 -1.625 -0.4375q-0.71875 -0.4375 -1.125 -1.234375q-0.40625 -0.796875 -0.40625 -1.765625l0 -0.28125q0 -1.015625 0.390625 -1.828125q0.40625 -0.8125 1.109375 -1.28125q0.703125 -0.46875 1.515625 -0.46875q1.28125 0 2.03125 0.875q0.765625 0.875 0.765625 2.390625l0 0.4375l-5.03125 0l0 0.15625q0 1.1875 0.6875 1.984375q0.6875 0.796875 1.734375 0.796875q0.625 0 1.09375 -0.21875q0.484375 -0.234375 0.875 -0.734375l0.484375 0.375q-0.859375 1.234375 -2.5 1.234375zm-0.140625 -6.640625q-0.875 0 -1.484375 0.65625q-0.59375 0.640625 -0.71875 1.734375l4.21875 0l0 -0.09375q-0.03125 -1.015625 -0.578125 -1.65625q-0.546875 -0.640625 -1.4375 -0.640625zm8.52594 4.71875q0 -0.578125 -0.46875 -0.921875q-0.46875 -0.359375 -1.40625 -0.546875q-0.9375 -0.203125 -1.453125 -0.453125q-0.515625 -0.265625 -0.765625 -0.625q-0.25 -0.375 -0.25 -0.90625q0 -0.828125 0.6875 -1.375q0.703125 -0.546875 1.796875 -0.546875q1.171875 0 1.875 0.59375q0.71875 0.578125 0.71875 1.515625l-0.78125 0q0 -0.625 -0.515625 -1.03125q-0.515625 -0.421875 -1.296875 -0.421875q-0.765625 0 -1.234375 0.34375q-0.46875 0.34375 -0.46875 0.890625q0 0.53125 0.390625 0.828125q0.390625 0.28125 1.40625 0.53125q1.03125 0.234375 1.53125 0.515625q0.515625 0.265625 0.765625 0.65625q0.25 0.375 0.25 0.921875q0 0.890625 -0.71875 1.421875q-0.71875 0.53125 -1.875 0.53125q-1.234375 0 -2.0 -0.59375q-0.765625 -0.59375 -0.765625 -1.5l0.78125 0q0.046875 0.6875 0.578125 1.0625q0.53125 0.375 1.40625 0.375q0.8125 0 1.3125 -0.359375q0.5 -0.359375 0.5 -0.90625z" fill-rule="nonzero"/><path fill="#000000" fill-opacity="0.0" d="m58.682415 69.67716l105.13385 0l0 35.55906l-105.13385 0z" fill-rule="evenodd"/><path fill="#9e9e9e" d="m82.25671 87.258415q0 1.296875 -0.453125 2.296875q-0.453125 0.984375 -1.296875 1.515625q-0.84375 0.53125 -1.9375 0.53125q-1.65625 0 -2.6875 -1.1875q-1.015625 -1.1875 -1.015625 -3.203125l0 -0.96875q0 -1.296875 0.453125 -2.296875q0.46875 -1.0 1.296875 -1.53125q0.84375 -0.546875 1.9375 -0.546875q1.09375 0 1.921875 0.53125q0.84375 0.53125 1.296875 1.5q0.46875 0.953125 0.484375 2.21875l0 1.140625zm-0.796875 -1.03125q0 -1.71875 -0.78125 -2.6875q-0.78125 -0.96875 -2.125 -0.96875q-1.3125 0 -2.109375 0.984375q-0.78125 0.96875 -0.78125 2.703125l0 1.0q0 1.6875 0.78125 2.671875q0.78125 0.984375 2.125 0.984375q1.359375 0 2.125 -0.96875q0.765625 -0.984375 0.765625 -2.71875l0 -1.0zm3.8324127 -3.59375l0 1.796875l1.46875 0l0 0.640625l-1.46875 0l0 4.6875q0 0.59375 0.21875 0.890625q0.21875 0.28125 0.703125 0.28125q0.203125 0 0.640625 -0.078125l0.03125 0.640625q-0.3125 0.109375 -0.84375 0.109375q-0.796875 0 -1.171875 -0.453125q-0.359375 -0.46875 -0.359375 -1.375l0 -4.703125l-1.28125 0l0 -0.640625l1.28125 0l0 -1.796875l0.78125 0zm3.8603058 3.0q0.375 -0.640625 0.96875 -0.984375q0.609375 -0.34375 1.3125 -0.34375q1.140625 0 1.6875 0.640625q0.546875 0.640625 0.5625 1.90625l0 4.625l-0.78125 0l0 -4.625q0 -0.953125 -0.40625 -1.40625q-0.390625 -0.46875 -1.25 -0.46875q-0.71875 0 -1.28125 0.453125q-0.546875 0.453125 -0.8125 1.21875l0 4.828125l-0.78125 0l0 -10.0l0.78125 0l0 4.15625zm9.25235 5.96875q-0.890625 0 -1.625 -0.4375q-0.71875 -0.4375 -1.125 -1.234375q-0.40625 -0.796875 -0.40625 -1.765625l0 -0.28125q0 -1.015625 0.390625 -1.828125q0.40625 -0.8125 1.109375 -1.28125q0.703125 -0.46875 1.515625 -0.46875q1.28125 0 2.03125 0.875q0.765625 0.875 0.765625 2.390625l0 0.4375l-5.03125 0l0 0.15625q0 1.1875 0.6875 1.984375q0.6875 0.796875 1.734375 0.796875q0.625 0 1.09375 -0.21875q0.484375 -0.234375 0.875 -0.734375l0.484375 0.375q-0.859375 1.234375 -2.5 1.234375zm-0.140625 -6.640625q-0.875 0 -1.484375 0.65625q-0.59375 0.640625 -0.71875 1.734375l4.21875 0l0 -0.09375q-0.03125 -1.015625 -0.578125 -1.65625q-0.546875 -0.640625 -1.4375 -0.640625zm7.557205 0.140625q-0.25 -0.046875 -0.53125 -0.046875q-0.71875 0 -1.234375 0.40625q-0.5 0.40625 -0.703125 1.1875l0 4.828125l-0.78125 0l0 -7.046875l0.765625 0l0.015625 1.125q0.609375 -1.25 1.984375 -1.25q0.3125 0 0.5 0.078125l-0.015625 0.71875zm5.4592285 2.515625l0 3.859375l-0.796875 0l0 -9.46875l3.21875 0q1.484375 0 2.328125 0.75q0.859375 0.75 0.859375 2.078125q0 1.328125 -0.828125 2.0625q-0.8125 0.71875 -2.375 0.71875l-2.40625 0zm0 -0.671875l2.421875 0q1.171875 0 1.78125 -0.546875q0.609375 -0.5625 0.609375 -1.546875q0 -0.984375 -0.609375 -1.5625q-0.609375 -0.59375 -1.71875 -0.609375l-2.484375 0l0 4.265625zm11.587952 4.53125q-0.109375 -0.328125 -0.140625 -0.984375q-0.40625 0.53125 -1.046875 0.828125q-0.640625 0.28125 -1.34375 0.28125q-1.015625 0 -1.640625 -0.5625q-0.625 -0.5625 -0.625 -1.4375q0 -1.015625 0.84375 -1.609375q0.859375 -0.609375 2.390625 -0.609375l1.40625 0l0 -0.796875q0 -0.765625 -0.46875 -1.1875q-0.453125 -0.4375 -1.34375 -0.4375q-0.8125 0 -1.359375 0.421875q-0.53125 0.40625 -0.53125 1.0l-0.78125 -0.015625q0 -0.828125 0.78125 -1.4375q0.78125 -0.625 1.921875 -0.625q1.1875 0 1.859375 0.59375q0.6875 0.578125 0.703125 1.640625l0 3.328125q0 1.03125 0.21875 1.53125l0 0.078125l-0.84375 0zm-2.4375 -0.5625q0.78125 0 1.390625 -0.375q0.625 -0.375 0.890625 -1.015625l0 -1.546875l-1.390625 0q-1.15625 0.015625 -1.8125 0.4375q-0.65625 0.40625 -0.65625 1.125q0 0.59375 0.4375 0.984375q0.4375 0.390625 1.140625 0.390625zm6.014145 0.5625l-0.78125 0l0 -10.0l0.78125 0l0 10.0zm2.9871292 0l-0.78125 0l0 -10.0l0.78125 0l0 10.0zm4.8308716 0.125q-0.890625 0 -1.625 -0.4375q-0.71875 -0.4375 -1.125 -1.234375q-0.40625 -0.796875 -0.40625 -1.765625l0 -0.28125q0 -1.015625 0.390625 -1.828125q0.40625 -0.8125 1.109375 -1.28125q0.703125 -0.46875 1.515625 -0.46875q1.28125 0 2.03125 0.875q0.765625 0.875 0.765625 2.390625l0 0.4375l-5.03125 0l0 0.15625q0 1.1875 0.6875 1.984375q0.6875 0.796875 1.734375 0.796875q0.625 0 1.09375 -0.21875q0.484375 -0.234375 0.875 -0.734375l0.484375 0.375q-0.859375 1.234375 -2.5 1.234375zm-0.140625 -6.640625q-0.875 0 -1.484375 0.65625q-0.59375 0.640625 -0.71875 1.734375l4.21875 0l0 -0.09375q-0.03125 -1.015625 -0.578125 -1.65625q-0.546875 -0.640625 -1.4375 -0.640625zm5.51033 -2.328125l0 1.796875l1.46875 0l0 0.640625l-1.46875 0l0 4.6875q0 0.59375 0.21875 0.890625q0.21875 0.28125 0.703125 0.28125q0.203125 0 0.640625 -0.078125l0.03125 0.640625q-0.3125 0.109375 -0.84375 0.109375q-0.796875 0 -1.171875 -0.453125q-0.359375 -0.46875 -0.359375 -1.375l0 -4.703125l-1.28125 0l0 -0.640625l1.28125 0l0 -1.796875l0.78125 0zm7.297806 7.046875q0 -0.578125 -0.46875 -0.921875q-0.46875 -0.359375 -1.40625 -0.546875q-0.9375 -0.203125 -1.453125 -0.453125q-0.515625 -0.265625 -0.765625 -0.625q-0.25 -0.375 -0.25 -0.90625q0 -0.828125 0.6875 -1.375q0.703125 -0.546875 1.796875 -0.546875q1.171875 0 1.875 0.59375q0.71875 0.578125 0.71875 1.515625l-0.78125 0q0 -0.625 -0.515625 -1.03125q-0.515625 -0.421875 -1.296875 -0.421875q-0.765625 0 -1.234375 0.34375q-0.46875 0.34375 -0.46875 0.890625q0 0.53125 0.390625 0.828125q0.390625 0.28125 1.40625 0.53125q1.03125 0.234375 1.53125 0.515625q0.515625 0.265625 0.765625 0.65625q0.25 0.375 0.25 0.921875q0 0.890625 -0.71875 1.421875q-0.71875 0.53125 -1.875 0.53125q-1.234375 0 -2.0 -0.59375q-0.765625 -0.59375 -0.765625 -1.5l0.78125 0q0.046875 0.6875 0.578125 1.0625q0.53125 0.375 1.40625 0.375q0.8125 0 1.3125 -0.359375q0.5 -0.359375 0.5 -0.90625z" fill-rule="nonzero"/><path fill="#000000" fill-opacity="0.0" d="m188.72704 4.4041996l105.133865 0l0 35.55905l-105.133865 0z" fill-rule="evenodd"/><path fill="#9e9e9e" d="m209.82451 23.876074q0 -0.796875 -0.5625 -1.25q-0.546875 -0.453125 -2.015625 -0.859375q-1.46875 -0.421875 -2.15625 -0.90625q-0.953125 -0.703125 -0.953125 -1.8125q0 -1.09375 0.890625 -1.765625q0.890625 -0.6875 2.28125 -0.6875q0.953125 0 1.6875 0.375q0.75 0.359375 1.15625 1.015625q0.421875 0.640625 0.421875 1.4375l-0.8125 0q0 -0.96875 -0.671875 -1.546875q-0.65625 -0.59375 -1.78125 -0.59375q-1.078125 0 -1.734375 0.484375q-0.640625 0.484375 -0.640625 1.265625q0 0.71875 0.578125 1.1875q0.59375 0.453125 1.859375 0.796875q1.28125 0.34375 1.9375 0.71875q0.65625 0.375 0.984375 0.90625q0.328125 0.515625 0.328125 1.21875q0 1.125 -0.890625 1.796875q-0.890625 0.671875 -2.359375 0.671875q-1.0 0 -1.84375 -0.34375q-0.828125 -0.359375 -1.265625 -1.0q-0.421875 -0.65625 -0.421875 -1.484375l0.796875 0q0 1.0 0.75 1.578125q0.75 0.578125 1.984375 0.578125q1.109375 0 1.78125 -0.484375q0.671875 -0.484375 0.671875 -1.296875zm3.5503082 -6.515625l0 1.796875l1.46875 0l0 0.640625l-1.46875 0l0 4.6875q0 0.59375 0.21875 0.890625q0.21875 0.28125 0.703125 0.28125q0.203125 0 0.640625 -0.078125l0.03125 0.640625q-0.3125 0.109375 -0.84375 0.109375q-0.796875 0 -1.171875 -0.453125q-0.359375 -0.46875 -0.359375 -1.375l0 -4.703125l-1.28125 0l0 -0.640625l1.28125 0l0 -1.796875l0.78125 0zm2.5113525 5.21875q0 -1.015625 0.390625 -1.828125q0.40625 -0.8125 1.125 -1.265625q0.71875 -0.453125 1.625 -0.453125q1.40625 0 2.28125 0.984375q0.875 0.984375 0.875 2.609375l0 0.171875q0 1.015625 -0.40625 1.84375q-0.390625 0.8125 -1.109375 1.25q-0.703125 0.4375 -1.625 0.4375q-1.390625 0 -2.28125 -0.984375q-0.875 -0.984375 -0.875 -2.609375l0 -0.15625zm0.78125 0.21875q0 1.265625 0.65625 2.078125q0.65625 0.796875 1.71875 0.796875q1.0625 0 1.703125 -0.796875q0.65625 -0.8125 0.65625 -2.140625l0 -0.15625q0 -0.8125 -0.296875 -1.46875q-0.296875 -0.671875 -0.84375 -1.046875q-0.53125 -0.375 -1.234375 -0.375q-1.03125 0 -1.703125 0.828125q-0.65625 0.8125 -0.65625 2.140625l0 0.140625zm10.370789 -2.96875q-0.25 -0.046875 -0.53125 -0.046875q-0.71875 0 -1.234375 0.40625q-0.5 0.40625 -0.703125 1.1875l0 4.828125l-0.78125 0l0 -7.046875l0.765625 0l0.015625 1.125q0.609375 -1.25 1.984375 -1.25q0.3125 0 0.5 0.078125l-0.015625 0.71875zm5.4110107 6.375q-0.109375 -0.328125 -0.140625 -0.984375q-0.40625 0.53125 -1.046875 0.828125q-0.640625 0.28125 -1.34375 0.28125q-1.015625 0 -1.640625 -0.5625q-0.625 -0.5625 -0.625 -1.4375q0 -1.015625 0.84375 -1.609375q0.859375 -0.609375 2.390625 -0.609375l1.40625 0l0 -0.796875q0 -0.765625 -0.46875 -1.1875q-0.453125 -0.4375 -1.34375 -0.4375q-0.8125 0 -1.359375 0.421875q-0.53125 0.40625 -0.53125 1.0l-0.78125 -0.015625q0 -0.828125 0.78125 -1.4375q0.78125 -0.625 1.921875 -0.625q1.1875 0 1.859375 0.59375q0.6875 0.578125 0.703125 1.640625l0 3.328125q0 1.03125 0.21875 1.53125l0 0.078125l-0.84375 0zm-2.4375 -0.5625q0.78125 0 1.390625 -0.375q0.625 -0.375 0.890625 -1.015625l0 -1.546875l-1.390625 0q-1.15625 0.015625 -1.8125 0.4375q-0.65625 0.40625 -0.65625 1.125q0 0.59375 0.4375 0.984375q0.4375 0.390625 1.140625 0.390625zm4.826645 -3.015625q0 -1.65625 0.734375 -2.625q0.734375 -0.96875 1.984375 -0.96875q1.4375 0 2.1875 1.140625l0.046875 -1.015625l0.71875 0l0 6.90625q0 1.359375 -0.765625 2.15625q-0.75 0.796875 -2.0625 0.796875q-0.734375 0 -1.40625 -0.34375q-0.65625 -0.328125 -1.046875 -0.875l0.4375 -0.46875q0.828125 1.015625 1.96875 1.015625q0.984375 0 1.53125 -0.578125q0.546875 -0.5625 0.5625 -1.59375l0 -0.875q-0.75 1.03125 -2.1875 1.03125q-1.21875 0 -1.96875 -0.96875q-0.734375 -0.984375 -0.734375 -2.640625l0 -0.09375zm0.78125 0.125q0 1.34375 0.546875 2.125q0.546875 0.78125 1.515625 0.78125q1.4375 0 2.046875 -1.28125l0 -3.28125q-0.28125 -0.671875 -0.796875 -1.03125q-0.515625 -0.359375 -1.234375 -0.359375q-0.984375 0 -1.53125 0.78125q-0.546875 0.765625 -0.546875 2.265625zm9.642944 3.578125q-0.890625 0 -1.625 -0.4375q-0.71875 -0.4375 -1.125 -1.234375q-0.40625 -0.796875 -0.40625 -1.765625l0 -0.28125q0 -1.015625 0.390625 -1.828125q0.40625 -0.8125 1.109375 -1.28125q0.703125 -0.46875 1.515625 -0.46875q1.28125 0 2.03125 0.875q0.765625 0.875 0.765625 2.390625l0 0.4375l-5.03125 0l0 0.15625q0 1.1875 0.6875 1.984375q0.6875 0.796875 1.734375 0.796875q0.625 0 1.09375 -0.21875q0.484375 -0.234375 0.875 -0.734375l0.484375 0.375q-0.859375 1.234375 -2.5 1.234375zm-0.140625 -6.640625q-0.875 0 -1.484375 0.65625q-0.59375 0.640625 -0.71875 1.734375l4.21875 0l0 -0.09375q-0.03125 -1.015625 -0.578125 -1.65625q-0.546875 -0.640625 -1.4375 -0.640625zm11.266861 2.578125l-2.7499847 0l0 3.9375l-0.8125 0l0 -9.46875l3.078125 0q1.5156097 0 2.3749847 0.734375q0.859375 0.734375 0.859375 2.046875q0 0.921875 -0.546875 1.625q-0.53125 0.6875 -1.421875 0.953125l2.359375 4.03125l0 0.078125l-0.84375 0l-2.296875 -3.9375zm-2.7499847 -0.6875l2.4531097 0q1.015625 0 1.625 -0.5625q0.609375 -0.578125 0.609375 -1.5q0 -1.0 -0.640625 -1.546875q-0.640625 -0.5625 -1.7812347 -0.5625l-2.265625 0l0 4.171875zm7.0539703 1.0q0 -1.015625 0.390625 -1.828125q0.40625 -0.8125 1.125 -1.265625q0.71875 -0.453125 1.625 -0.453125q1.40625 0 2.28125 0.984375q0.875 0.984375 0.875 2.609375l0 0.171875q0 1.015625 -0.40625 1.84375q-0.390625 0.8125 -1.109375 1.25q-0.703125 0.4375 -1.625 0.4375q-1.390625 0 -2.28125 -0.984375q-0.875 -0.984375 -0.875 -2.609375l0 -0.15625zm0.78125 0.21875q0 1.265625 0.65625 2.078125q0.65625 0.796875 1.71875 0.796875q1.0625 0 1.703125 -0.796875q0.65625 -0.8125 0.65625 -2.140625l0 -0.15625q0 -0.8125 -0.296875 -1.46875q-0.296875 -0.671875 -0.84375 -1.046875q-0.53125 -0.375 -1.234375 -0.375q-1.03125 0 -1.703125 0.828125q-0.65625 0.8125 -0.65625 2.140625l0 0.140625zm6.6832886 -0.21875q0 -1.015625 0.390625 -1.828125q0.40625 -0.8125 1.125 -1.265625q0.71875 -0.453125 1.625 -0.453125q1.40625 0 2.28125 0.984375q0.875 0.984375 0.875 2.609375l0 0.171875q0 1.015625 -0.40625 1.84375q-0.390625 0.8125 -1.109375 1.25q-0.703125 0.4375 -1.625 0.4375q-1.390625 0 -2.28125 -0.984375q-0.875 -0.984375 -0.875 -2.609375l0 -0.15625zm0.78125 0.21875q0 1.265625 0.65625 2.078125q0.65625 0.796875 1.71875 0.796875q1.0625 0 1.703125 -0.796875q0.65625 -0.8125 0.65625 -2.140625l0 -0.15625q0 -0.8125 -0.296875 -1.46875q-0.296875 -0.671875 -0.84375 -1.046875q-0.53125 -0.375 -1.234375 -0.375q-1.03125 0 -1.703125 0.828125q-0.65625 0.8125 -0.65625 2.140625l0 0.140625zm8.323914 -5.4375l0 1.796875l1.46875 0l0 0.640625l-1.46875 0l0 4.6875q0 0.59375 0.21875 0.890625q0.21875 0.28125 0.703125 0.28125q0.203125 0 0.640625 -0.078125l0.03125 0.640625q-0.3125 0.109375 -0.84375 0.109375q-0.796875 0 -1.171875 -0.453125q-0.359375 -0.46875 -0.359375 -1.375l0 -4.703125l-1.28125 0l0 -0.640625l1.28125 0l0 -1.796875l0.78125 0z" fill-rule="nonzero"/></g></svg>