<svg version="1.1" viewBox="0.0 0.0 388.0 378.0" fill="none" stroke="none" stroke-linecap="square" stroke-miterlimit="10" xmlns:xlink="http://www.w3.org/1999/xlink" xmlns="http://www.w3.org/2000/svg"><clipPath id="p.0"><path d="m0 0l388.0 0l0 378.0l-388.0 0l0 -378.0z" clip-rule="nonzero"/></clipPath><g clip-path="url(#p.0)"><path fill="#000000" fill-opacity="0.0" d="m0 0l388.0 0l0 378.0l-388.0 0z" fill-rule="evenodd"/><path fill="#b7b7b7" d="m68.634155 273.61536l24.913383 0l0 24.913391l-24.913383 0z" fill-rule="evenodd"/><path stroke="#ffffff" stroke-width="1.0" stroke-linejoin="round" stroke-linecap="butt" d="m68.634155 273.61536l24.913383 0l0 24.913391l-24.913383 0z" fill-rule="evenodd"/><path fill="#b7b7b7" d="m100.56833 273.61536l24.913383 0l0 24.913391l-24.913383 0z" fill-rule="evenodd"/><path stroke="#ffffff" stroke-width="1.0" stroke-linejoin="round" stroke-linecap="butt" d="m100.56833 273.61536l24.913383 0l0 24.913391l-24.913383 0z" fill-rule="evenodd"/><path fill="#b7b7b7" d="m132.5025 273.61536l24.913376 0l0 24.913391l-24.913376 0z" fill-rule="evenodd"/><path stroke="#ffffff" stroke-width="1.0" stroke-linejoin="round" stroke-linecap="butt" d="m132.5025 273.61536l24.913376 0l0 24.913391l-24.913376 0z" fill-rule="evenodd"/><path fill="#b7b7b7" d="m164.43668 273.61536l24.913376 0l0 24.913391l-24.913376 0z" fill-rule="evenodd"/><path stroke="#ffffff" stroke-width="1.0" stroke-linejoin="round" stroke-linecap="butt" d="m164.43668 273.61536l24.913376 0l0 24.913391l-24.913376 0z" fill-rule="evenodd"/><path fill="#b7b7b7" d="m196.37083 273.61536l24.913391 0l0 24.913391l-24.913391 0z" fill-rule="evenodd"/><path stroke="#ffffff" stroke-width="1.0" stroke-linejoin="round" stroke-linecap="butt" d="m196.37083 273.61536l24.913391 0l0 24.913391l-24.913391 0z" fill-rule="evenodd"/><path fill="#b7b7b7" d="m228.30501 273.61536l24.913391 0l0 24.913391l-24.913391 0z" fill-rule="evenodd"/><path stroke="#ffffff" stroke-width="1.0" stroke-linejoin="round" stroke-linecap="butt" d="m228.30501 273.61536l24.913391 0l0 24.913391l-24.913391 0z" fill-rule="evenodd"/><path fill="#b7b7b7" d="m260.2392 273.61536l24.91336 0l0 24.913391l-24.91336 0z" fill-rule="evenodd"/><path stroke="#ffffff" stroke-width="1.0" stroke-linejoin="round" stroke-linecap="butt" d="m260.2392 273.61536l24.91336 0l0 24.913391l-24.91336 0z" fill-rule="evenodd"/><path fill="#b7b7b7" d="m292.17337 273.61536l24.91336 0l0 24.913391l-24.91336 0z" fill-rule="evenodd"/><path stroke="#ffffff" stroke-width="1.0" stroke-linejoin="round" stroke-linecap="butt" d="m292.17337 273.61536l24.91336 0l0 24.913391l-24.91336 0z" fill-rule="evenodd"/><path fill="#cccccc" d="m84.82508 208.32402l24.913383 0l0 24.913391l-24.913383 0z" fill-rule="evenodd"/><path stroke="#ffffff" stroke-width="1.0" stroke-linejoin="round" stroke-linecap="butt" d="m84.82508 208.32402l24.913383 0l0 24.913391l-24.913383 0z" fill-rule="evenodd"/><path fill="#cccccc" d="m148.69342 208.32402l24.913391 0l0 24.913391l-24.913391 0z" fill-rule="evenodd"/><path stroke="#ffffff" stroke-width="1.0" stroke-linejoin="round" stroke-linecap="butt" d="m148.69342 208.32402l24.913391 0l0 24.913391l-24.913391 0z" fill-rule="evenodd"/><path fill="#cccccc" d="m212.56177 208.32402l24.913391 0l0 24.913391l-24.913391 0z" fill-rule="evenodd"/><path stroke="#ffffff" stroke-width="1.0" stroke-linejoin="round" stroke-linecap="butt" d="m212.56177 208.32402l24.913391 0l0 24.913391l-24.913391 0z" fill-rule="evenodd"/><path fill="#cccccc" d="m276.4301 208.32402l24.913391 0l0 24.913391l-24.913391 0z" fill-rule="evenodd"/><path stroke="#ffffff" stroke-width="1.0" stroke-linejoin="round" stroke-linecap="butt" d="m276.4301 208.32402l24.913391 0l0 24.913391l-24.913391 0z" fill-rule="evenodd"/><path fill="#b7b7b7" d="m117.73673 131.22429l24.913383 0l0 24.913376l-24.913383 0z" fill-rule="evenodd"/><path stroke="#ffffff" stroke-width="1.0" stroke-linejoin="round" stroke-linecap="butt" d="m117.73673 131.22429l24.913383 0l0 24.913376l-24.913383 0z" fill-rule="evenodd"/><path fill="#b7b7b7" d="m245.47342 131.22429l24.913391 0l0 24.913376l-24.913391 0z" fill-rule="evenodd"/><path stroke="#ffffff" stroke-width="1.0" stroke-linejoin="round" stroke-linecap="butt" d="m245.47342 131.22429l24.913391 0l0 24.913376l-24.913391 0z" fill-rule="evenodd"/><path fill="#b7b7b7" d="m357.2101 131.22429l24.91336 0l0 24.913376l-24.91336 0z" fill-rule="evenodd"/><path stroke="#ffffff" stroke-width="1.0" stroke-linejoin="round" stroke-linecap="butt" d="m357.2101 131.22429l24.91336 0l0 24.913376l-24.91336 0z" fill-rule="evenodd"/><path fill="#cccccc" d="m181.60681 72.48412l24.913376 0l0 24.913383l-24.913376 0z" fill-rule="evenodd"/><path stroke="#ffffff" stroke-width="1.0" stroke-linejoin="round" stroke-linecap="butt" d="m181.60681 72.48412l24.913376 0l0 24.913383l-24.913376 0z" fill-rule="evenodd"/><path fill="#cccccc" d="m357.08017 72.48412l24.913391 0l0 24.913383l-24.913391 0z" fill-rule="evenodd"/><path stroke="#ffffff" stroke-width="1.0" stroke-linejoin="round" stroke-linecap="butt" d="m357.08017 72.48412l24.913391 0l0 24.913383l-24.913391 0z" fill-rule="evenodd"/><path fill="#cccccc" d="m311.6509 4.8923883l24.913391 0l0 24.913387l-24.913391 0z" fill-rule="evenodd"/><path stroke="#ffffff" stroke-width="1.0" stroke-linejoin="round" stroke-linecap="butt" d="m311.6509 4.8923883l24.913391 0l0 24.913387l-24.913391 0z" fill-rule="evenodd"/><path fill="#000000" fill-opacity="0.0" d="m194.0635 72.48412l130.04724 -42.677162" fill-rule="evenodd"/><path stroke="#ffffff" stroke-width="1.0" stroke-linejoin="round" stroke-linecap="butt" d="m199.76437 70.61329l124.346375 -40.806328" fill-rule="evenodd"/><path fill="#ffffff" stroke="#ffffff" stroke-width="1.0" stroke-linecap="butt" d="m199.24936 69.0439l-3.7968292 2.984398l4.826874 0.15437317z" fill-rule="evenodd"/><path fill="#000000" fill-opacity="0.0" d="m369.53687 72.48412l-45.417328 -42.677162" fill-rule="evenodd"/><path stroke="#ffffff" stroke-width="1.0" stroke-linejoin="round" stroke-linecap="butt" d="m365.16437 68.375435l-41.04483 -38.568474" fill-rule="evenodd"/><path fill="#ffffff" stroke="#ffffff" stroke-width="1.0" stroke-linecap="butt" d="m364.0333 69.57913l4.438202 1.9039078l-2.176056 -4.311302z" fill-rule="evenodd"/><path fill="#000000" fill-opacity="0.0" d="m130.19342 131.22429l63.874023 -33.826782" fill-rule="evenodd"/><path stroke="#ffffff" stroke-width="1.0" stroke-linejoin="round" stroke-linecap="butt" d="m135.49577 128.41623l58.57167 -31.018715" fill-rule="evenodd"/><path fill="#ffffff" stroke="#ffffff" stroke-width="1.0" stroke-linecap="butt" d="m134.72275 126.956566l-3.2373962 3.5835342l4.7834473 -0.6641846z" fill-rule="evenodd"/><path fill="#000000" fill-opacity="0.0" d="m257.9301 131.22429l-63.874023 -33.826782" fill-rule="evenodd"/><path stroke="#ffffff" stroke-width="1.0" stroke-linejoin="round" stroke-linecap="butt" d="m252.62776 128.41623l-58.571655 -31.018715" fill-rule="evenodd"/><path fill="#ffffff" stroke="#ffffff" stroke-width="1.0" stroke-linecap="butt" d="m251.85475 129.87592l4.7834625 0.6641846l-3.2374115 -3.5835342z" fill-rule="evenodd"/><path fill="#000000" fill-opacity="0.0" d="m97.28177 208.32402l32.91339 -52.18898" fill-rule="evenodd"/><path stroke="#ffffff" stroke-width="1.0" stroke-linejoin="round" stroke-linecap="butt" d="m100.48238 203.24898l29.712776 -47.113937" fill-rule="evenodd"/><path fill="#ffffff" stroke="#ffffff" stroke-width="1.0" stroke-linecap="butt" d="m99.08529 202.36789l-1.0236816 4.7196045l3.8178864 -2.9574127z" fill-rule="evenodd"/><path fill="#000000" fill-opacity="0.0" d="m161.15012 208.32402l-30.960632 -52.18898" fill-rule="evenodd"/><path stroke="#ffffff" stroke-width="1.0" stroke-linejoin="round" stroke-linecap="butt" d="m158.08882 203.16373l-27.899338 -47.028687" fill-rule="evenodd"/><path fill="#ffffff" stroke="#ffffff" stroke-width="1.0" stroke-linecap="butt" d="m156.66826 204.00648l3.7359772 3.0602417l-0.8948364 -4.7457275z" fill-rule="evenodd"/><path fill="#000000" fill-opacity="0.0" d="m225.01846 208.32402l32.91339 -52.18898" fill-rule="evenodd"/><path stroke="#ffffff" stroke-width="1.0" stroke-linejoin="round" stroke-linecap="butt" d="m228.21909 203.24898l29.712769 -47.113937" fill-rule="evenodd"/><path fill="#ffffff" stroke="#ffffff" stroke-width="1.0" stroke-linecap="butt" d="m226.82196 202.36789l-1.0236816 4.7196045l3.8178864 -2.9574127z" fill-rule="evenodd"/><path fill="#000000" fill-opacity="0.0" d="m288.8868 208.32402l-30.960632 -52.18898" fill-rule="evenodd"/><path stroke="#ffffff" stroke-width="1.0" stroke-linejoin="round" stroke-linecap="butt" d="m285.82553 203.16373l-27.899353 -47.028687" fill-rule="evenodd"/><path fill="#ffffff" stroke="#ffffff" stroke-width="1.0" stroke-linecap="butt" d="m284.40497 204.00648l3.735962 3.0602417l-0.8948364 -4.7457275z" fill-rule="evenodd"/><path fill="#000000" fill-opacity="0.0" d="m369.6668 131.22429l-0.12600708 -33.826782" fill-rule="evenodd"/><path stroke="#ffffff" stroke-width="1.0" stroke-linejoin="round" stroke-linecap="butt" d="m369.64444 125.22433l-0.103637695 -27.826813" fill-rule="evenodd"/><path fill="#ffffff" stroke="#ffffff" stroke-width="1.0" stroke-linecap="butt" d="m367.99274 125.23048l1.6686096 4.5319138l1.6348267 -4.5442123z" fill-rule="evenodd"/><path fill="#000000" fill-opacity="0.0" d="m81.09084 273.61536l16.18898 -40.377945" fill-rule="evenodd"/><path stroke="#ffffff" stroke-width="1.0" stroke-linejoin="round" stroke-linecap="butt" d="m83.323685 268.0463l13.956139 -34.808884" fill-rule="evenodd"/><path fill="#ffffff" stroke="#ffffff" stroke-width="1.0" stroke-linecap="butt" d="m81.79059 267.43164l-0.15570831 4.8268127l3.2219086 -3.5974731z" fill-rule="evenodd"/><path fill="#000000" fill-opacity="0.0" d="m113.02502 273.61536l-15.748032 -40.377945" fill-rule="evenodd"/><path stroke="#ffffff" stroke-width="1.0" stroke-linejoin="round" stroke-linecap="butt" d="m110.844864 268.02548l-13.567879 -34.78807" fill-rule="evenodd"/><path fill="#ffffff" stroke="#ffffff" stroke-width="1.0" stroke-linecap="butt" d="m109.30603 268.62564l3.18779 3.6277466l-0.11011505 -4.8280945z" fill-rule="evenodd"/><path fill="#000000" fill-opacity="0.0" d="m144.95918 273.61536l16.18898 -40.377945" fill-rule="evenodd"/><path stroke="#ffffff" stroke-width="1.0" stroke-linejoin="round" stroke-linecap="butt" d="m147.19203 268.0463l13.956146 -34.808884" fill-rule="evenodd"/><path fill="#ffffff" stroke="#ffffff" stroke-width="1.0" stroke-linecap="butt" d="m145.65894 267.43164l-0.15571594 4.8268127l3.2219086 -3.5974731z" fill-rule="evenodd"/><path fill="#000000" fill-opacity="0.0" d="m176.89336 273.61536l-15.748032 -40.377945" fill-rule="evenodd"/><path stroke="#ffffff" stroke-width="1.0" stroke-linejoin="round" stroke-linecap="butt" d="m174.71321 268.02548l-13.567886 -34.78807" fill-rule="evenodd"/><path fill="#ffffff" stroke="#ffffff" stroke-width="1.0" stroke-linecap="butt" d="m173.17438 268.62564l3.1877747 3.6277466l-0.11010742 -4.8280945z" fill-rule="evenodd"/><path fill="#000000" fill-opacity="0.0" d="m208.82753 273.61536l16.18898 -40.377945" fill-rule="evenodd"/><path stroke="#ffffff" stroke-width="1.0" stroke-linejoin="round" stroke-linecap="butt" d="m211.06036 268.0463l13.956146 -34.808884" fill-rule="evenodd"/><path fill="#ffffff" stroke="#ffffff" stroke-width="1.0" stroke-linecap="butt" d="m209.52727 267.43164l-0.15570068 4.8268127l3.2218933 -3.5974731z" fill-rule="evenodd"/><path fill="#000000" fill-opacity="0.0" d="m240.7617 273.61536l-15.748032 -40.377945" fill-rule="evenodd"/><path stroke="#ffffff" stroke-width="1.0" stroke-linejoin="round" stroke-linecap="butt" d="m238.58157 268.02548l-13.567902 -34.78807" fill-rule="evenodd"/><path fill="#ffffff" stroke="#ffffff" stroke-width="1.0" stroke-linecap="butt" d="m237.04272 268.62564l3.18779 3.6277466l-0.11012268 -4.8280945z" fill-rule="evenodd"/><path fill="#000000" fill-opacity="0.0" d="m272.69586 273.61536l16.188995 -40.377945" fill-rule="evenodd"/><path stroke="#ffffff" stroke-width="1.0" stroke-linejoin="round" stroke-linecap="butt" d="m274.9287 268.0463l13.956146 -34.808884" fill-rule="evenodd"/><path fill="#ffffff" stroke="#ffffff" stroke-width="1.0" stroke-linecap="butt" d="m273.39563 267.43164l-0.15570068 4.8268127l3.2218933 -3.5974731z" fill-rule="evenodd"/><path fill="#000000" fill-opacity="0.0" d="m304.63004 273.61536l-15.748016 -40.377945" fill-rule="evenodd"/><path stroke="#ffffff" stroke-width="1.0" stroke-linejoin="round" stroke-linecap="butt" d="m302.44992 268.02548l-13.567902 -34.78807" fill-rule="evenodd"/><path fill="#ffffff" stroke="#ffffff" stroke-width="1.0" stroke-linecap="butt" d="m300.91107 268.62564l3.1877747 3.6277466l-0.11010742 -4.8280945z" fill-rule="evenodd"/><path fill="#cccccc" d="m5.87609 348.19278l24.913387 0l0 24.913391l-24.913387 0z" fill-rule="evenodd"/><path stroke="#ffffff" stroke-width="1.0" stroke-linejoin="round" stroke-linecap="butt" d="m5.87609 348.19278l24.913387 0l0 24.913391l-24.913387 0z" fill-rule="evenodd"/><path fill="#cccccc" d="m37.81026 348.19278l24.913387 0l0 24.913391l-24.913387 0z" fill-rule="evenodd"/><path stroke="#ffffff" stroke-width="1.0" stroke-linejoin="round" stroke-linecap="butt" d="m37.81026 348.19278l24.913387 0l0 24.913391l-24.913387 0z" fill-rule="evenodd"/><path fill="#cccccc" d="m69.74443 348.19278l24.913391 0l0 24.913391l-24.913391 0z" fill-rule="evenodd"/><path stroke="#ffffff" stroke-width="1.0" stroke-linejoin="round" stroke-linecap="butt" d="m69.74443 348.19278l24.913391 0l0 24.913391l-24.913391 0z" fill-rule="evenodd"/><path fill="#cccccc" d="m101.678604 348.19278l24.913383 0l0 24.913391l-24.913383 0z" fill-rule="evenodd"/><path stroke="#ffffff" stroke-width="1.0" stroke-linejoin="round" stroke-linecap="butt" d="m101.678604 348.19278l24.913383 0l0 24.913391l-24.913383 0z" fill-rule="evenodd"/><path fill="#cccccc" d="m133.61278 348.19278l24.913391 0l0 24.913391l-24.913391 0z" fill-rule="evenodd"/><path stroke="#ffffff" stroke-width="1.0" stroke-linejoin="round" stroke-linecap="butt" d="m133.61278 348.19278l24.913391 0l0 24.913391l-24.913391 0z" fill-rule="evenodd"/><path fill="#cccccc" d="m165.54695 348.19278l24.913376 0l0 24.913391l-24.913376 0z" fill-rule="evenodd"/><path stroke="#ffffff" stroke-width="1.0" stroke-linejoin="round" stroke-linecap="butt" d="m165.54695 348.19278l24.913376 0l0 24.913391l-24.913376 0z" fill-rule="evenodd"/><path fill="#cccccc" d="m197.48112 348.19278l24.913376 0l0 24.913391l-24.913376 0z" fill-rule="evenodd"/><path stroke="#ffffff" stroke-width="1.0" stroke-linejoin="round" stroke-linecap="butt" d="m197.48112 348.19278l24.913376 0l0 24.913391l-24.913376 0z" fill-rule="evenodd"/><path fill="#cccccc" d="m229.4153 348.19278l24.913376 0l0 24.913391l-24.913376 0z" fill-rule="evenodd"/><path stroke="#ffffff" stroke-width="1.0" stroke-linejoin="round" stroke-linecap="butt" d="m229.4153 348.19278l24.913376 0l0 24.913391l-24.913376 0z" fill-rule="evenodd"/><path fill="#cccccc" d="m261.34946 348.19278l24.913391 0l0 24.913391l-24.913391 0z" fill-rule="evenodd"/><path stroke="#ffffff" stroke-width="1.0" stroke-linejoin="round" stroke-linecap="butt" d="m261.34946 348.19278l24.913391 0l0 24.913391l-24.913391 0z" fill-rule="evenodd"/><path fill="#cccccc" d="m293.28363 348.19278l24.913391 0l0 24.913391l-24.913391 0z" fill-rule="evenodd"/><path stroke="#ffffff" stroke-width="1.0" stroke-linejoin="round" stroke-linecap="butt" d="m293.28363 348.19278l24.913391 0l0 24.913391l-24.913391 0z" fill-rule="evenodd"/><path fill="#cccccc" d="m325.2178 348.19278l24.913391 0l0 24.913391l-24.913391 0z" fill-rule="evenodd"/><path stroke="#ffffff" stroke-width="1.0" stroke-linejoin="round" stroke-linecap="butt" d="m325.2178 348.19278l24.913391 0l0 24.913391l-24.913391 0z" fill-rule="evenodd"/><path fill="#cccccc" d="m357.15198 348.19278l24.913391 0l0 24.913391l-24.913391 0z" fill-rule="evenodd"/><path stroke="#ffffff" stroke-width="1.0" stroke-linejoin="round" stroke-linecap="butt" d="m357.15198 348.19278l24.913391 0l0 24.913391l-24.913391 0z" fill-rule="evenodd"/><path fill="#000000" fill-opacity="0.0" d="m369.60867 348.19278l-64.97638 -49.66928" fill-rule="evenodd"/><path stroke="#ffffff" stroke-width="1.0" stroke-linejoin="round" stroke-linecap="butt" d="m364.84186 344.54898l-60.209564 -46.025482" fill-rule="evenodd"/><path fill="#ffffff" stroke="#ffffff" stroke-width="1.0" stroke-linecap="butt" d="m363.83878 345.8612l4.6084595 1.4437561l-2.6022644 -4.068268z" fill-rule="evenodd"/><path fill="#000000" fill-opacity="0.0" d="m337.6745 348.19278l-33.039368 -49.66928" fill-rule="evenodd"/><path stroke="#ffffff" stroke-width="1.0" stroke-linejoin="round" stroke-linecap="butt" d="m334.3514 343.19708l-29.716278 -44.673584" fill-rule="evenodd"/><path fill="#ffffff" stroke="#ffffff" stroke-width="1.0" stroke-linecap="butt" d="m332.97617 344.11188l3.8886719 2.8637085l-1.1381531 -4.6932983z" fill-rule="evenodd"/><path fill="#000000" fill-opacity="0.0" d="m305.74033 348.19278l-33.039368 -49.66928" fill-rule="evenodd"/><path stroke="#ffffff" stroke-width="1.0" stroke-linejoin="round" stroke-linecap="butt" d="m302.41724 343.19708l-29.716278 -44.673584" fill-rule="evenodd"/><path fill="#ffffff" stroke="#ffffff" stroke-width="1.0" stroke-linecap="butt" d="m301.04196 344.11188l3.8887024 2.8637085l-1.1381531 -4.6932983z" fill-rule="evenodd"/><path fill="#000000" fill-opacity="0.0" d="m273.80615 348.19278l-1.102356 -49.66928" fill-rule="evenodd"/><path stroke="#ffffff" stroke-width="1.0" stroke-linejoin="round" stroke-linecap="butt" d="m273.67303 342.19427l-0.9692383 -43.670776" fill-rule="evenodd"/><path fill="#ffffff" stroke="#ffffff" stroke-width="1.0" stroke-linecap="butt" d="m272.0217 342.23093l1.7520142 4.5003357l1.5506592 -4.573639z" fill-rule="evenodd"/><path fill="#000000" fill-opacity="0.0" d="m241.87198 348.19278l-1.102356 -49.66928" fill-rule="evenodd"/><path stroke="#ffffff" stroke-width="1.0" stroke-linejoin="round" stroke-linecap="butt" d="m241.73885 342.19427l-0.969223 -43.670776" fill-rule="evenodd"/><path fill="#ffffff" stroke="#ffffff" stroke-width="1.0" stroke-linecap="butt" d="m240.08752 342.23093l1.7520294 4.5003357l1.5506287 -4.573639z" fill-rule="evenodd"/><path fill="#000000" fill-opacity="0.0" d="m209.93782 348.19278l30.83464 -49.66928" fill-rule="evenodd"/><path stroke="#ffffff" stroke-width="1.0" stroke-linejoin="round" stroke-linecap="butt" d="m213.10239 343.0952l27.67006 -44.571716" fill-rule="evenodd"/><path fill="#ffffff" stroke="#ffffff" stroke-width="1.0" stroke-linecap="butt" d="m211.69908 342.22403l-0.9902191 4.7267456l3.7968292 -2.9844055z" fill-rule="evenodd"/><path fill="#000000" fill-opacity="0.0" d="m178.00365 348.19278l30.83464 -49.66928" fill-rule="evenodd"/><path stroke="#ffffff" stroke-width="1.0" stroke-linejoin="round" stroke-linecap="butt" d="m181.16823 343.0952l27.670074 -44.571716" fill-rule="evenodd"/><path fill="#ffffff" stroke="#ffffff" stroke-width="1.0" stroke-linecap="butt" d="m179.76492 342.22403l-0.9902191 4.7267456l3.7968292 -2.9844055z" fill-rule="evenodd"/><path fill="#000000" fill-opacity="0.0" d="m146.06947 348.19278l30.83464 -49.66928" fill-rule="evenodd"/><path stroke="#ffffff" stroke-width="1.0" stroke-linejoin="round" stroke-linecap="butt" d="m149.23404 343.0952l27.670074 -44.571716" fill-rule="evenodd"/><path fill="#ffffff" stroke="#ffffff" stroke-width="1.0" stroke-linecap="butt" d="m147.83073 342.22403l-0.99020386 4.7267456l3.7968292 -2.9844055z" fill-rule="evenodd"/><path fill="#000000" fill-opacity="0.0" d="m114.1353 348.19278l30.83464 -49.66928" fill-rule="evenodd"/><path stroke="#ffffff" stroke-width="1.0" stroke-linejoin="round" stroke-linecap="butt" d="m117.299866 343.0952l27.670074 -44.571716" fill-rule="evenodd"/><path fill="#ffffff" stroke="#ffffff" stroke-width="1.0" stroke-linecap="butt" d="m115.89656 342.22403l-0.9902191 4.7267456l3.7968445 -2.9844055z" fill-rule="evenodd"/><path fill="#000000" fill-opacity="0.0" d="m82.201126 348.19278l30.834648 -49.66928" fill-rule="evenodd"/><path stroke="#ffffff" stroke-width="1.0" stroke-linejoin="round" stroke-linecap="butt" d="m85.36571 343.0952l27.670067 -44.571716" fill-rule="evenodd"/><path fill="#ffffff" stroke="#ffffff" stroke-width="1.0" stroke-linecap="butt" d="m83.962395 342.22403l-0.9902191 4.7267456l3.7968369 -2.9844055z" fill-rule="evenodd"/><path fill="#000000" fill-opacity="0.0" d="m50.266956 348.19278l30.834644 -49.66928" fill-rule="evenodd"/><path stroke="#ffffff" stroke-width="1.0" stroke-linejoin="round" stroke-linecap="butt" d="m53.431534 343.0952l27.670067 -44.571716" fill-rule="evenodd"/><path fill="#ffffff" stroke="#ffffff" stroke-width="1.0" stroke-linecap="butt" d="m52.02822 342.22403l-0.9902191 4.7267456l3.7968407 -2.9844055z" fill-rule="evenodd"/><path fill="#000000" fill-opacity="0.0" d="m18.332783 348.19278l62.771656 -49.66928" fill-rule="evenodd"/><path stroke="#ffffff" stroke-width="1.0" stroke-linejoin="round" stroke-linecap="butt" d="m23.037968 344.46973l58.06647 -45.946228" fill-rule="evenodd"/><path fill="#ffffff" stroke="#ffffff" stroke-width="1.0" stroke-linecap="butt" d="m22.013048 343.17444l-2.533844 4.1112366l4.583683 -1.5206604z" fill-rule="evenodd"/></g></svg>