<svg version="1.1" xmlns="http://www.w3.org/2000/svg" viewBox="0 0 644.6905689826286 325.9766965367262" width="644.6905689826286" height="325.9766965367262">
  <!-- svg-source:excalidraw -->
  
  <defs>
    <style class="style-fonts">
      @font-face {
        font-family: "Virgil";
        src: url("https://excalidraw.com/Virgil.woff2");
      }
      @font-face {
        font-family: "Cascadia";
        src: url("https://excalidraw.com/Cascadia.woff2");
      }
    </style>
  </defs>
  <g stroke-linecap="round" transform="translate(10 37.49694978437128) rotate(0 212.37005897290948 139.23987337617746)"><path d="M32 0 M32 0 C127.25 -1.71, 220.44 -0.68, 392.74 0 M32 0 C115.11 -1.59, 197.09 -1.73, 392.74 0 M392.74 0 C415 1.02, 424.41 9.74, 424.74 32 M392.74 0 C414.39 1.3, 424.37 10.67, 424.74 32 M424.74 32 C426.27 76.59, 427.44 121.53, 424.74 246.48 M424.74 32 C424.4 102.71, 425.56 173.06, 424.74 246.48 M424.74 246.48 C422.98 268.94, 412.92 277.42, 392.74 278.48 M424.74 246.48 C424.13 267.24, 412.74 279.15, 392.74 278.48 M392.74 278.48 C255.8 279.17, 118.64 281.64, 32 278.48 M392.74 278.48 C308.91 280.09, 224.5 279.94, 32 278.48 M32 278.48 C11.06 276.63, 1.97 269.72, 0 246.48 M32 278.48 C9.51 278.65, -0.58 267.94, 0 246.48 M0 246.48 C0.81 184.21, -1.35 120.2, 0 32 M0 246.48 C1.21 192.41, 2.6 136.5, 0 32 M0 32 C0.78 11.47, 11.52 -0.98, 32 0 M0 32 C-0.47 12.91, 12.72 -1.43, 32 0" stroke="#ffffff" stroke-width="1" fill="none"></path></g><g transform="translate(52.06755572436214 10) rotate(0 41.00833511352539 12)"><text x="41.00833511352539" y="0" font-family="Cascadia, Segoe UI Emoji" font-size="20px" fill="#ffffff" text-anchor="middle" style="white-space: pre;" direction="ltr" dominant-baseline="text-before-edge">Machine</text></g><g stroke-linecap="round" transform="translate(141.0492925893434 67.33406550783809) rotate(0 136.3146659523083 113.79056878851469)"><path d="M32 0 M32 0 C107.9 -1.08, 180.41 -1.02, 240.63 0 M32 0 C112.23 -0.2, 193.69 1.02, 240.63 0 M240.63 0 C262.23 -1.96, 272.88 9.05, 272.63 32 M240.63 0 C262.92 -2.25, 274.45 12.6, 272.63 32 M272.63 32 C273.84 86.64, 274.48 137.29, 272.63 195.58 M272.63 32 C273.49 88.74, 273.53 143.37, 272.63 195.58 M272.63 195.58 C274.27 218.91, 260.56 226.57, 240.63 227.58 M272.63 195.58 C273.24 216.16, 264.05 227.19, 240.63 227.58 M240.63 227.58 C159.97 227.46, 79.35 228.17, 32 227.58 M240.63 227.58 C167.58 229.51, 96.65 228.82, 32 227.58 M32 227.58 C11.84 225.8, 1.63 218.06, 0 195.58 M32 227.58 C10.33 229.25, 0.09 217.13, 0 195.58 M0 195.58 C-1.38 157.77, 2.16 114.99, 0 32 M0 195.58 C-0.84 134.27, -0.25 73.99, 0 32 M0 32 C-1.26 11.1, 11.3 -0.09, 32 0 M0 32 C-0.5 8.67, 8.37 1.73, 32 0" stroke="#ffffff" stroke-width="1" fill="none"></path></g><g transform="translate(231.66737662472497 40.42215720824038) rotate(0 46.86666488647461 12)"><text x="46.86666488647461" y="0" font-family="Cascadia, Segoe UI Emoji" font-size="20px" fill="#ffffff" text-anchor="middle" style="white-space: pre;" direction="ltr" dominant-baseline="text-before-edge">Executor</text></g><g stroke-linecap="round" transform="translate(159.18557861733314 163.28086901075005) rotate(0 120.22602512102719 54.116337341581584)"><path d="M27.06 0 M27.06 0 C82.16 -0.04, 134.01 1.34, 213.39 0 M27.06 0 C93.13 1.27, 159.47 0.41, 213.39 0 M213.39 0 C232.57 0.1, 238.92 8.17, 240.45 27.06 M213.39 0 C233.49 -1.4, 241.59 9.16, 240.45 27.06 M240.45 27.06 C242.01 39.02, 239.22 51.83, 240.45 81.17 M240.45 27.06 C240.11 45.83, 239.46 63.14, 240.45 81.17 M240.45 81.17 C238.6 100.53, 230.09 107.61, 213.39 108.23 M240.45 81.17 C240.79 100.99, 230.56 109.83, 213.39 108.23 M213.39 108.23 C167.24 108.19, 117.3 106.46, 27.06 108.23 M213.39 108.23 C143.99 108.11, 76.74 109.41, 27.06 108.23 M27.06 108.23 C8.11 107.12, 0.2 98.29, 0 81.17 M27.06 108.23 C9.44 106.36, 1.79 98.4, 0 81.17 M0 81.17 C0.73 66.28, -0.26 50.37, 0 27.06 M0 81.17 C-0.15 68.61, -0.46 55.9, 0 27.06 M0 27.06 C1.44 10.2, 8.56 0.43, 27.06 0 M0 27.06 C-0.16 7.6, 10.95 0.2, 27.06 0" stroke="#ffffff" stroke-width="1" fill="none"></path></g><g transform="translate(172.4989916340918 129.93350437864035) rotate(0 82.01667022705078 12)"><text x="164.03334045410156" y="0" font-family="Cascadia, Segoe UI Emoji" font-size="20px" fill="#ffffff" text-anchor="end" style="white-space: pre;" direction="ltr" dominant-baseline="text-before-edge">Sandboxed env.</text></g><g stroke-linecap="round"><g transform="translate(170.88640831281043 91.90580786833982) rotate(0 -29.701446130718864 -0.8812124687138976)"><path d="M-0.77 0 C-10.85 -0.35, -49.82 -1.62, -59.34 -1.76 M1.02 -1.05 C-9.33 -1.33, -50.58 -1.07, -60.43 -0.84" stroke="#ffffff" stroke-width="1" fill="none"></path></g><g transform="translate(170.88640831281043 91.90580786833982) rotate(0 -29.701446130718864 -0.8812124687138976)"><path d="M-32.8 -11.72 C-45.59 -5.4, -54.94 -1.48, -61.61 0.88 M-33.63 -11.36 C-40.01 -9.32, -45.54 -7.03, -61.05 -1.76" stroke="#ffffff" stroke-width="1" fill="none"></path></g><g transform="translate(170.88640831281043 91.90580786833982) rotate(0 -29.701446130718864 -0.8812124687138976)"><path d="M-32.54 8.48 C-45.49 6.86, -54.94 2.83, -61.61 0.88 M-33.37 8.85 C-39.81 5.88, -45.4 3.16, -61.05 -1.76" stroke="#ffffff" stroke-width="1" fill="none"></path></g></g><mask></mask><g stroke-linecap="round"><g transform="translate(110.62713538110336 117.06259171361557) rotate(0 31.00706196211064 -1.2505832423817083)"><path d="M0.15 0.27 C10.81 0.32, 52.74 -0.47, 63.25 -0.83 M-1.23 -0.63 C9.3 -0.87, 51.47 -2.72, 62.02 -2.77" stroke="#ffffff" stroke-width="1" fill="none"></path></g><g transform="translate(110.62713538110336 117.06259171361557) rotate(0 31.00706196211064 -1.2505832423817083)"><path d="M34.57 7.38 C41.42 4.6, 46.26 1.82, 61.76 -1.27 M34.54 8.79 C42.08 5.99, 50.89 2.33, 62.57 -3.06" stroke="#ffffff" stroke-width="1" fill="none"></path></g><g transform="translate(110.62713538110336 117.06259171361557) rotate(0 31.00706196211064 -1.2505832423817083)"><path d="M34.01 -13.14 C40.81 -11.04, 45.78 -8.94, 61.76 -1.27 M33.98 -11.73 C41.5 -8.37, 50.48 -5.88, 62.57 -3.06" stroke="#ffffff" stroke-width="1" fill="none"></path></g></g><mask></mask><g stroke-linecap="round" transform="translate(177.01819812634267 184.87825252474147) rotate(0 71.319100249565 30.85050138021893)"><path d="M15.43 0 M15.43 0 C47.51 1.06, 77.82 0.75, 127.21 0 M15.43 0 C48.39 0.9, 79.1 0.26, 127.21 0 M127.21 0 C136.03 1.72, 141.04 6.7, 142.64 15.43 M127.21 0 C137.58 -0.94, 142.47 5.88, 142.64 15.43 M142.64 15.43 C141.91 26.27, 141.4 35.83, 142.64 46.28 M142.64 15.43 C143.15 25.95, 142.69 37.14, 142.64 46.28 M142.64 46.28 C141.18 56.12, 137.26 61.42, 127.21 61.7 M142.64 46.28 C142.55 54.65, 139.24 60.43, 127.21 61.7 M127.21 61.7 C92.04 62.3, 60.02 62.46, 15.43 61.7 M127.21 61.7 C89.39 60.45, 50.98 60.61, 15.43 61.7 M15.43 61.7 C4.01 60.44, -0.62 56.56, 0 46.28 M15.43 61.7 C6.44 63.77, 0.25 57.2, 0 46.28 M0 46.28 C-0.35 39.14, -0.01 34.41, 0 15.43 M0 46.28 C0.28 37.35, 0.13 29.49, 0 15.43 M0 15.43 C-0.98 5.19, 5.55 0.4, 15.43 0 M0 15.43 C-1.98 7.37, 4.9 -0.44, 15.43 0" stroke="#ffffff" stroke-width="1" fill="none"></path></g><g transform="translate(215.53729913884706 198.92875390496044) rotate(0 32.79999923706055 16.80000000000001)"><text x="32.79999923706055" y="0" font-family="Cascadia, Segoe UI Emoji" font-size="28px" fill="#ffffff" text-anchor="middle" style="white-space: pre;" direction="ltr" dominant-baseline="text-before-edge">WASM</text></g><g stroke-linecap="round"><g transform="translate(318.204610325227 192.86308817609233) rotate(0 18.412172493681283 -35.97303921512014)"><path d="M0.03 -0.68 C5.98 -1.52, 28.44 7.32, 34.69 -5.15 C40.93 -17.61, 36.91 -63.78, 37.52 -75.46 M-1.41 1.58 C4.45 0.95, 27.35 8.97, 33.66 -3.65 C39.97 -16.27, 35.6 -62.4, 36.44 -74.13" stroke="#2f9e44" stroke-width="1" fill="none"></path></g><g transform="translate(318.204610325227 192.86308817609233) rotate(0 18.412172493681283 -35.97303921512014)"><path d="M45.92 -46.33 C44.66 -53.13, 42.52 -57.82, 36.85 -75.85 M46.95 -46.82 C43.8 -57.36, 39.21 -68.02, 37.03 -73.68" stroke="#2f9e44" stroke-width="1" fill="none"></path></g><g transform="translate(318.204610325227 192.86308817609233) rotate(0 18.412172493681283 -35.97303921512014)"><path d="M25.4 -46.08 C28.58 -52.94, 30.89 -57.68, 36.85 -75.85 M26.43 -46.57 C31.42 -57.17, 34.97 -67.93, 37.03 -73.68" stroke="#2f9e44" stroke-width="1" fill="none"></path></g></g><mask></mask><g stroke-linecap="round"><g transform="translate(383.17213676121753 117.00714948825987) rotate(0 -31.42290979846439 55.855904774687474)"><path d="M0.69 -0.27 C-0.07 15.66, 5.2 77.4, -5.55 96.12 C-16.3 114.84, -54.07 109.32, -63.82 112.07 M-0.4 -1.45 C-1.14 14.59, 4.64 78.33, -5.99 97.44 C-16.61 116.54, -54.58 110.43, -64.17 113.16" stroke="#1971c2" stroke-width="1" fill="none"></path></g><g transform="translate(383.17213676121753 117.00714948825987) rotate(0 -31.42290979846439 55.855904774687474)"><path d="M-37.17 102.68 C-43.31 105.12, -49.26 107.31, -63.95 112.31 M-36.2 101.04 C-46.02 105.28, -54.15 108.32, -63.31 113.25" stroke="#1971c2" stroke-width="1" fill="none"></path></g><g transform="translate(383.17213676121753 117.00714948825987) rotate(0 -31.42290979846439 55.855904774687474)"><path d="M-35.8 123.15 C-42.33 121.19, -48.57 118.95, -63.95 112.31 M-34.83 121.52 C-45.29 119.01, -53.88 115.33, -63.31 113.25" stroke="#1971c2" stroke-width="1" fill="none"></path></g></g><mask></mask><g stroke-linecap="round"><g transform="translate(382.75217441007123 185.4100947309422) rotate(0 34.91783594906428 23.003997002270125)"><path d="M-1.04 0.16 C10.45 8.07, 56.93 39.16, 68.67 46.81 M0.61 -0.8 C12.49 6.86, 59.56 37.84, 70.88 45.3" stroke="#1971c2" stroke-width="1" fill="none"></path></g></g><mask></mask><g transform="translate(454.29057508614426 213.94218924652068) rotate(0 90.19999694824219 16.80000000000001)"><text x="180.39999389648438" y="0" font-family="Cascadia, Segoe UI Emoji" font-size="28px" fill="#1971c2" text-anchor="end" style="white-space: pre;" direction="ltr" dominant-baseline="text-before-edge">Runtime API</text></g><g transform="translate(453.99333324104225 123.49544963213691) rotate(0 73.80000305175781 33.60000000000002)"><text x="0" y="0" font-family="Cascadia, Segoe UI Emoji" font-size="28px" fill="#2f9e44" text-anchor="start" style="white-space: pre;" direction="ltr" dominant-baseline="text-before-edge">Host</text><text x="0" y="33.6" font-family="Cascadia, Segoe UI Emoji" font-size="28px" fill="#2f9e44" text-anchor="start" style="white-space: pre;" direction="ltr" dominant-baseline="text-before-edge">Functions</text></g><g stroke-linecap="round"><g transform="translate(354.7907217848043 153.45414887349432) rotate(0 46.00909154876712 1.2831437112236017)"><path d="M0.35 0.01 C15.43 0.78, 75.44 3.01, 90.6 3.6 M-0.92 -1.03 C14.54 -0.54, 77.7 1.32, 92.94 1.72" stroke="#2f9e44" stroke-width="1" fill="none"></path></g></g><mask></mask></svg>