<svg version="1.1" xmlns="http://www.w3.org/2000/svg" viewBox="0 0 573.9469663191642 446.8140722414046" width="573.9469663191642" height="446.8140722414046">
  <!-- svg-source:excalidraw -->
  
  <defs>
    <style class="style-fonts">
      @font-face {
        font-family: "Virgil";
        src: url("https://excalidraw.com/Virgil.woff2");
      }
      @font-face {
        font-family: "Cascadia";
        src: url("https://excalidraw.com/Cascadia.woff2");
      }
    </style>
  </defs>
  <g stroke-linecap="round" transform="translate(33.86996177008905 290.51473327654753) rotate(0 244.11222244573332 49.153818546765365)"><path d="M24.58 0 M24.58 0 C153.34 -2.19, 281.86 -1.7, 463.65 0 M24.58 0 C197.51 -0.19, 370.27 -0.83, 463.65 0 M463.65 0 C481.81 -1.64, 489.7 6.41, 488.22 24.58 M463.65 0 C478.15 -1.78, 488.08 7.35, 488.22 24.58 M488.22 24.58 C490.01 38.48, 487.54 57.78, 488.22 73.73 M488.22 24.58 C488.44 41.13, 487.54 58.29, 488.22 73.73 M488.22 73.73 C486.99 89.6, 480.49 98.36, 463.65 98.31 M488.22 73.73 C488.77 89.37, 480.83 99.55, 463.65 98.31 M463.65 98.31 C317.95 98.32, 170.97 98.47, 24.58 98.31 M463.65 98.31 C342.54 97.74, 222.57 97.35, 24.58 98.31 M24.58 98.31 C6.47 99.3, -1.1 89.81, 0 73.73 M24.58 98.31 C7.48 99.56, -0.48 92.14, 0 73.73 M0 73.73 C-0.9 53.63, 1.38 36.57, 0 24.58 M0 73.73 C0.28 63.72, 0.77 53.49, 0 24.58 M0 24.58 C-0.19 6.98, 6.7 -0.47, 24.58 0 M0 24.58 C0.22 6.21, 8.46 -0.01, 24.58 0" stroke="#ffffff" stroke-width="1" fill="none"></path></g><g stroke-linecap="round"><g transform="translate(189.61576885085094 289.4101530844854) rotate(0 -0.681369647859583 49.42037318302607)"><path d="M0.1 -0.12 C-0.33 16.5, -1.54 82.52, -1.85 99.03 M-1.31 -1.23 C-1.42 15.57, 0.73 83.25, 0.47 100.07" stroke="#1971c2" stroke-width="1" fill="none"></path></g></g><mask></mask><g stroke-linecap="round"><g transform="translate(151.0142404001166 288.36435116386394) rotate(0 0.23197795595973503 49.94893130142532)"><path d="M-0.69 -0.82 C-0.66 15.72, 0.08 82.72, -0.09 99.45 M1.15 1.37 C1.13 18.04, 0.15 84.17, -0.51 100.71" stroke="#1971c2" stroke-width="1" fill="none"></path></g></g><mask></mask><g stroke-linecap="round"><g transform="translate(109.65126146922705 288.97541953133555) rotate(0 -0.34545758502844137 50.56410973493303)"><path d="M-0.43 1.02 C-0.68 17.7, -1.99 84.05, -2.25 100.61 M1.55 0.51 C1.71 16.8, 0.04 82.53, -0.14 98.83" stroke="#ffffff" stroke-width="1" fill="none"></path></g></g><mask></mask><g stroke-linecap="round"><g transform="translate(69.39286273039954 289.0341978027765) rotate(0 -0.4823965819175555 50.11364670731422)"><path d="M0.7 -0.88 C0.36 16.13, -0.66 84.23, -0.85 101.11 M-0.4 1.27 C-0.98 18.06, -1.59 83.42, -1.66 99.58" stroke="#ffffff" stroke-width="1" fill="none"></path></g></g><mask></mask><g stroke-linecap="round"><g transform="translate(226.67798355637342 289.4689313559262) rotate(0 -0.6301127408842149 50.21767678041306)"><path d="M0.08 -0.59 C0.15 16.19, -0.19 82.95, -0.52 99.65 M-1.33 1.72 C-1.29 18.76, -1.48 84.51, -1.16 101.02" stroke="#1971c2" stroke-width="1" fill="none"></path></g></g><mask></mask><g stroke-linecap="round"><g transform="translate(267.60622893411335 290.07999972339803) rotate(0 -1.089215649962 49.787558550073925)"><path d="M0.27 -0.11 C0.02 16.43, -1.13 82.68, -1.36 99.5 M-1.05 -1.21 C-1.5 15.47, -2.3 84.11, -2.45 100.79" stroke="#1971c2" stroke-width="1" fill="none"></path></g></g><mask></mask><g stroke-linecap="round"><g transform="translate(306.8776040237601 290.13877799483873) rotate(0 -0.931284963097653 49.86081735089715)"><path d="M0.5 0.17 C0.23 16.56, -1.18 82.87, -1.31 99.32 M-0.7 -0.79 C-1.17 15.66, -2.38 83.78, -2.36 100.51" stroke="#1971c2" stroke-width="1" fill="none"></path></g></g><mask></mask><g stroke-linecap="round"><g transform="translate(346.14897911340677 287.98839588215503) rotate(0 -0.46086765828499665 50.90474613173228)"><path d="M-0.37 1.16 C-0.53 17.97, -1.2 83.25, -1.43 99.69 M1.63 0.72 C1.33 17.82, -1.81 84.36, -2.55 101.09" stroke="#1971c2" stroke-width="1" fill="none"></path></g></g><mask></mask><g stroke-linecap="round"><g transform="translate(383.76348391496003 289.7040444416889) rotate(0 -0.00013656352598445665 49.838590051422955)"><path d="M-0.37 -1.07 C-0.61 15.71, -0.78 82.58, -0.83 99.47 M1.63 0.99 C1.21 18.02, -1.16 83.95, -1.63 100.75" stroke="#1971c2" stroke-width="1" fill="none"></path></g></g><mask></mask><g stroke-linecap="round"><g transform="translate(422.4825689085758 290.86740290519174) rotate(0 -0.23782167409501653 49.83744896516498)"><path d="M-0.8 -0.26 C-0.93 16.2, -0.54 83.13, -0.71 99.71 M0.98 -1.44 C0.72 15.12, -1.41 84.19, -1.45 101.11" stroke="#ffffff" stroke-width="1" fill="none"></path></g></g><mask></mask><g stroke-linecap="round"><g transform="translate(458.4402034220359 289.26931088853917) rotate(0 -0.18732609022754332 50.257885316119655)"><path d="M0.47 0.8 C0.28 17.41, 0.08 83.81, -0.24 100.34 M-0.74 0.18 C-1.09 16.35, -0.45 81.56, -0.74 98.41" stroke="#ffffff" stroke-width="1" fill="none"></path></g></g><mask></mask><g stroke-linecap="round"><g transform="translate(491.0840973593099 289.880379256011) rotate(0 -0.34197761792586334 50.102659929919184)"><path d="M-0.41 -0.67 C-0.57 16.01, -0.17 84.13, -0.25 100.88" stroke="#ffffff" stroke-width="1.5" fill="none" stroke-dasharray="8 9"></path></g></g><mask></mask><g stroke-linecap="round" transform="translate(375.61604357256897 62.27592956131127) rotate(0 94.1654613732976 53.01984921898281)"><path d="M26.51 0 M26.51 0 C75.25 -2.03, 122.88 -2.94, 161.82 0 M26.51 0 C75.62 1.13, 123.16 0.23, 161.82 0 M161.82 0 C180.76 1.8, 189.28 7.62, 188.33 26.51 M161.82 0 C179.93 1.28, 187.98 7.46, 188.33 26.51 M188.33 26.51 C187.48 40.74, 187.95 54.06, 188.33 79.53 M188.33 26.51 C187.73 44.19, 188.68 63.28, 188.33 79.53 M188.33 79.53 C188.82 95.97, 180.1 107.27, 161.82 106.04 M188.33 79.53 C187.63 97.05, 177.54 107.19, 161.82 106.04 M161.82 106.04 C111.43 104.59, 62.34 105.88, 26.51 106.04 M161.82 106.04 C108.14 105.69, 53.13 106.38, 26.51 106.04 M26.51 106.04 C8.25 105.04, 1.35 98.81, 0 79.53 M26.51 106.04 C9.29 106.33, -1.44 98.46, 0 79.53 M0 79.53 C-1.45 60.81, 1.29 42.41, 0 26.51 M0 79.53 C0.67 61.5, -0.09 41.11, 0 26.51 M0 26.51 C1.88 8.26, 9.59 1.93, 26.51 0 M0 26.51 C-1.7 7.15, 8.31 0.91, 26.51 0" stroke="#ffffff" stroke-width="1" fill="none"></path></g><g transform="translate(446.34817250262927 103.29577878029409) rotate(0 23.433332443237305 12)"><text x="23.433332443237305" y="0" font-family="Cascadia, Segoe UI Emoji" font-size="20px" fill="#ffffff" text-anchor="middle" style="white-space: pre;" direction="ltr" dominant-baseline="text-before-edge">Wasm</text></g><g stroke-linecap="round"><g transform="translate(419.2469611590236 168.3156279992769) rotate(0 -98.08876238608798 57.48389510043626)"><path d="M1.13 0.02 C1.19 7.24, 29.29 35.82, -0.36 42.5 C-30.01 49.18, -141.95 28, -176.79 40.08 C-211.63 52.15, -203.85 102.52, -209.41 114.95" stroke="#ffffff" stroke-width="1.5" fill="none" stroke-dasharray="8 9"></path></g><g transform="translate(419.2469611590236 168.3156279992769) rotate(0 -98.08876238608798 57.48389510043626)"><path d="M-215.34 84.03 C-213.27 90.64, -214.03 100.44, -208.36 114.45" stroke="#ffffff" stroke-width="1.5" fill="none"></path></g><g transform="translate(419.2469611590236 168.3156279992769) rotate(0 -98.08876238608798 57.48389510043626)"><path d="M-195.04 87.08 C-197.84 93.15, -203.5 102.21, -208.36 114.45" stroke="#ffffff" stroke-width="1.5" fill="none"></path></g></g><mask></mask><g transform="translate(154.14771506410955 263.3900822184946) rotate(0 14.074999809265137 9.600000000000023)"><text x="0" y="0" font-family="Cascadia, Segoe UI Emoji" font-size="16px" fill="transparent" text-anchor="start" style="white-space: pre;" direction="ltr" dominant-baseline="text-before-edge">BLM</text></g><g stroke-linecap="round" transform="translate(10 10) rotate(0 105.21126329391905 60.19962046738675)"><path d="M30.1 0 M30.1 0 C68.82 -2.14, 107.46 -1.68, 180.32 0 M30.1 0 C61.64 1.43, 93.98 1.74, 180.32 0 M180.32 0 C201.13 -0.62, 208.84 8.54, 210.42 30.1 M180.32 0 C202.04 -0.01, 209.61 10.97, 210.42 30.1 M210.42 30.1 C210.16 42.87, 211.63 54.04, 210.42 90.3 M210.42 30.1 C210.8 45.76, 210.18 60.76, 210.42 90.3 M210.42 90.3 C208.5 109.46, 198.93 121.69, 180.32 120.4 M210.42 90.3 C209.14 108.66, 198.15 122.59, 180.32 120.4 M180.32 120.4 C120.1 120.28, 63.78 119, 30.1 120.4 M180.32 120.4 C121.58 119.53, 61.37 119.95, 30.1 120.4 M30.1 120.4 C10.77 121.43, 0.07 110.46, 0 90.3 M30.1 120.4 C8.57 120.94, 0.58 109.26, 0 90.3 M0 90.3 C-1.13 72.69, -0.27 53.02, 0 30.1 M0 90.3 C1.08 71.11, -0.25 50.5, 0 30.1 M0 30.1 C1.94 8.68, 11.14 0.31, 30.1 0 M0 30.1 C-0.3 10.49, 9.97 -1.05, 30.1 0" stroke="transparent" stroke-width="2" fill="none"></path></g><g transform="translate(68.34459840744444 58.19962046738675) rotate(0 46.86666488647461 12)"><text x="46.86666488647461" y="0" font-family="Cascadia, Segoe UI Emoji" font-size="20px" fill="transparent" text-anchor="middle" style="white-space: pre;" direction="ltr" dominant-baseline="text-before-edge">Embedder</text></g><g mask="url(#mask-F4feBJf_8hqBInWXbh1GQ)" stroke-linecap="round"><g transform="translate(373.4327717866961 113.95849784415702) rotate(0 -71.64583228644852 -19.363619851064158)"><path d="M0.77 0.5 C-23.17 -5.62, -119.48 -30.85, -143.66 -37.26 M-0.29 -0.28 C-24.29 -6.73, -119.96 -33.13, -144.06 -39.23" stroke="transparent" stroke-width="1" fill="none"></path></g><g transform="translate(373.4327717866961 113.95849784415702) rotate(0 -71.64583228644852 -19.363619851064158)"><path d="M-113.34 -40.16 C-122.58 -40.29, -132.62 -40.56, -144.94 -37.86 M-114.87 -41.51 C-120.33 -40.96, -126.21 -39.89, -144.07 -39.28" stroke="transparent" stroke-width="1" fill="none"></path></g><g transform="translate(373.4327717866961 113.95849784415702) rotate(0 -71.64583228644852 -19.363619851064158)"><path d="M-118.62 -20.33 C-126.2 -26.38, -134.67 -32.55, -144.94 -37.86 M-120.14 -21.68 C-124.4 -25.34, -129.18 -28.43, -144.07 -39.28" stroke="transparent" stroke-width="1" fill="none"></path></g></g><mask id="mask-F4feBJf_8hqBInWXbh1GQ"><rect x="0" y="0" fill="#fff" width="618.1327769468367" height="251.51422437426982"></rect><rect x="295.2244360958164" y="83.18063457910068" fill="#000" width="11.716666221618652" height="24" opacity="1"></rect></mask><g transform="translate(295.2244360958165 83.18063457910063) rotate(0 6.562503404431084 11.414243413992239)"><text x="5.858333110809326" y="0" font-family="Cascadia, Segoe UI Emoji" font-size="20px" fill="transparent" text-anchor="middle" style="white-space: pre;" direction="ltr" dominant-baseline="text-before-edge">1</text></g><g mask="url(#mask-3neIK1vCgWpE6gy4woiTp)" stroke-linecap="round"><g transform="translate(98.84144417559583 131.43202071762255) rotate(0 38.024960195990104 74.37740789574781)"><path d="M0.04 0.07 C-5.94 10.28, -52.32 48.14, -35.31 60.27 C-18.31 72.4, 77.52 58.05, 102.08 72.83 C126.63 87.61, 110.49 136.08, 112.02 148.97 M-1.39 -0.94 C-7.54 9.47, -53.06 48.75, -35.95 61.26 C-18.84 73.77, 76.47 59.37, 101.26 74.11 C126.05 88.85, 111.35 136.92, 112.8 149.7" stroke="transparent" stroke-width="1" fill="none"></path></g><g transform="translate(98.84144417559583 131.43202071762255) rotate(0 38.024960195990104 74.37740789574781)"><path d="M104.96 121.75 C105.66 130.73, 110.05 142.69, 111.62 150.15 M104.66 120.32 C108.28 129.74, 110.41 141.27, 113.68 150.67" stroke="transparent" stroke-width="1" fill="none"></path></g><g transform="translate(98.84144417559583 131.43202071762255) rotate(0 38.024960195990104 74.37740789574781)"><path d="M125.41 123.41 C118.98 131.81, 116.21 143.19, 111.62 150.15 M125.11 121.98 C121.78 130.65, 116.96 141.61, 113.68 150.67" stroke="transparent" stroke-width="1" fill="none"></path></g></g><mask id="mask-3neIK1vCgWpE6gy4woiTp"><rect x="0" y="0" fill="#fff" width="345.7506097198607" height="381.1026367420427"></rect><rect x="101.8005102505715" y="187.35057939795354" fill="#000" width="65.68333435058594" height="19.2" opacity="1"></rect></mask><g transform="translate(101.8005102505715 187.35057939795354) rotate(0 35.06589412101442 18.45884921541682)"><text x="32.84166717529297" y="0" font-family="Cascadia, Segoe UI Emoji" font-size="16px" fill="transparent" text-anchor="middle" style="white-space: pre;" direction="ltr" dominant-baseline="text-before-edge">BLM + 1</text></g><g stroke-linecap="round"><g transform="translate(147.54297016120597 394.5930100754332) rotate(0 117.77745007274785 11.33759189700794)"><path d="M0.53 0.07 C0.92 2.52, -13.32 11.68, 2.6 14.5 C18.51 17.31, 78.34 15.67, 96.01 16.98 C113.67 18.28, 104.15 22.49, 108.58 22.33 C113.01 22.17, 102.47 17.06, 122.61 16.01 C142.74 14.96, 210.06 18.34, 229.39 16.02 C248.73 13.71, 236.89 4.58, 238.62 2.11 M-0.66 -0.94 C-0.4 1.17, -14.1 9.99, 1.89 12.66 C17.87 15.34, 77.47 13.28, 95.25 15.1 C113.02 16.93, 103.68 23.33, 108.54 23.61 C113.39 23.89, 104.11 18.13, 124.4 16.78 C144.7 15.43, 211.17 18.16, 230.31 15.51 C249.45 12.86, 237.74 3.39, 239.25 0.89" stroke="#ffffff" stroke-width="1" fill="none"></path></g></g><mask></mask><g transform="translate(197.14908126912655 417.61407224140453) rotate(0 60.99166488647461 9.600000000000023)"><text x="0" y="0" font-family="Cascadia, Segoe UI Emoji" font-size="16px" fill="#ffffff" text-anchor="start" style="white-space: pre;" direction="ltr" dominant-baseline="text-before-edge">Linear Memory</text></g></svg>