<svg version="1.1" xmlns="http://www.w3.org/2000/svg" viewBox="0 0 281.1173486951085 252.7477332322253" width="281.1173486951085" height="252.7477332322253">
  <!-- svg-source:excalidraw -->
  
  <defs>
    <style class="style-fonts">
      @font-face {
        font-family: "Virgil";
        src: url("https://excalidraw.com/Virgil.woff2");
      }
      @font-face {
        font-family: "Cascadia";
        src: url("https://excalidraw.com/Cascadia.woff2");
      }
    </style>
  </defs>
  <g stroke-linecap="round" transform="translate(12.397364659470554 10) rotate(0 62.726339452656475 116.37386661611265)"><path d="M31.36 0 M31.36 0 C46.16 -1.2, 64.75 0.21, 94.09 0 M31.36 0 C53.81 0.49, 74.78 0.85, 94.09 0 M94.09 0 C113.18 0.51, 124.78 12.44, 125.45 31.36 M94.09 0 C112.74 -2.08, 127.01 9.86, 125.45 31.36 M125.45 31.36 C125.32 65.55, 124.64 98.65, 125.45 201.38 M125.45 31.36 C126.5 95.62, 126.07 160.96, 125.45 201.38 M125.45 201.38 C127.11 223.43, 116.72 231.73, 94.09 232.75 M125.45 201.38 C123.91 221.93, 113.67 231.21, 94.09 232.75 M94.09 232.75 C74.35 230.3, 57.64 233.21, 31.36 232.75 M94.09 232.75 C71.26 232.9, 49.13 232.69, 31.36 232.75 M31.36 232.75 C10.63 233.13, 0.7 222.38, 0 201.38 M31.36 232.75 C11.33 233.75, -1.6 221.94, 0 201.38 M0 201.38 C-1.56 154.04, 0.04 107.84, 0 31.36 M0 201.38 C-0.82 154.93, -1.21 107.33, 0 31.36 M0 31.36 C0.07 9.33, 10.91 -0.78, 31.36 0 M0 31.36 C-1.64 10.21, 9.47 1.73, 31.36 0" stroke="#ffffff" stroke-width="1" fill="none"></path></g><g stroke-linecap="round"><g transform="translate(12.105421916781438 55.79788573930705) rotate(0 63.32700387932903 0.599587322010052)"><path d="M0.81 0.71 C22.15 0.9, 106.04 -0.06, 126.88 0.03 M-0.22 0.04 C21.16 0.47, 105.67 1.31, 126.56 1.16" stroke="#ffffff" stroke-width="1" fill="none"></path></g></g><mask></mask><g stroke-linecap="round"><g transform="translate(10.896968137100316 93.25995290942285) rotate(0 63.41127827201552 0.20186400786269587)"><path d="M-0.9 0.85 C20.26 0.58, 106.3 -0.44, 127.72 -0.45 M0.83 0.25 C21.8 0.62, 105.97 0.91, 127 0.64" stroke="#ffffff" stroke-width="1" fill="none"></path></g></g><mask></mask><g transform="translate(57.73938298855046 15.163997834795168) rotate(0 16.399999618530273 16.80000000000001)"><text x="16.399999618530273" y="0" font-family="Cascadia, Segoe UI Emoji" font-size="28px" fill="#ffffff" text-anchor="middle" style="white-space: pre;" direction="ltr" dominant-baseline="text-before-edge">10</text></g><g transform="translate(67.55065450405698 57.00633951898817) rotate(0 8.199999809265137 16.80000000000001)"><text x="8.199999809265137" y="0" font-family="Cascadia, Segoe UI Emoji" font-size="28px" fill="#ffffff" text-anchor="middle" style="white-space: pre;" direction="ltr" dominant-baseline="text-before-edge">3</text></g><g transform="translate(228.9370017767136 43.310530015935115) rotate(0 16.399999618530273 16.80000000000001)"><text x="16.399999618530273" y="0" font-family="Cascadia, Segoe UI Emoji" font-size="28px" fill="#ffffff" text-anchor="middle" style="white-space: pre;" direction="ltr" dominant-baseline="text-before-edge">13</text></g><g stroke-linecap="round" transform="translate(221.57074372818113 38.47671489721051) rotate(0 24.77330248346368 21.752168034260762)"><path d="M10.88 0 M10.88 0 C23.15 1.24, 32.84 -0.35, 38.67 0 M10.88 0 C16.47 -0.33, 22.92 -0.23, 38.67 0 M38.67 0 C47.49 1.88, 48.77 2.12, 49.55 10.88 M38.67 0 C43.69 1.84, 48.13 5.22, 49.55 10.88 M49.55 10.88 C50.78 15.04, 49.6 20.9, 49.55 32.63 M49.55 10.88 C50.09 17.84, 49.22 27.27, 49.55 32.63 M49.55 32.63 C48.73 41.63, 45.75 43.97, 38.67 43.5 M49.55 32.63 C50.85 39.33, 47.29 42.15, 38.67 43.5 M38.67 43.5 C29.26 44.26, 16.42 42.33, 10.88 43.5 M38.67 43.5 C31.84 42.94, 22.96 43.24, 10.88 43.5 M10.88 43.5 C4.4 43.29, -1.91 40.7, 0 32.63 M10.88 43.5 C2.59 45.27, 1.99 39.99, 0 32.63 M0 32.63 C-0.56 25.21, -2.02 16.33, 0 10.88 M0 32.63 C0.58 24.24, -0.74 15.69, 0 10.88 M0 10.88 C-1.71 4.34, 4.7 1.53, 10.88 0 M0 10.88 C-1.22 2.51, 1.43 0.23, 10.88 0" stroke="#ffffff" stroke-width="1" fill="none"></path></g><g stroke-linecap="round"><g transform="translate(122.88035172088712 36.059807337848156) rotate(0 46.67761259105953 7.814971527796672)"><path d="M0.86 0.13 C16.33 2.77, 78.2 13.84, 93.5 16.47 M-0.15 -0.84 C15.14 1.4, 77.49 11.71, 92.79 14.75" stroke="#ffffff" stroke-width="1" fill="none"></path></g><g transform="translate(122.88035172088712 36.059807337848156) rotate(0 46.67761259105953 7.814971527796672)"><path d="M63.46 20.63 C75.03 17.17, 84.71 17.14, 92.07 13.64 M63.97 19 C74.19 17.37, 83.4 16.94, 93.37 15.67" stroke="#ffffff" stroke-width="1" fill="none"></path></g><g transform="translate(122.88035172088712 36.059807337848156) rotate(0 46.67761259105953 7.814971527796672)"><path d="M67.07 0.43 C77.46 4.21, 85.86 11.39, 92.07 13.64 M67.59 -1.2 C76.65 4.25, 84.6 10.9, 93.37 15.67" stroke="#ffffff" stroke-width="1" fill="none"></path></g></g><mask></mask><g stroke-linecap="round"><g transform="translate(122.07471586776637 79.96696133293005) rotate(0 44.64629096293618 -7.790970157919901)"><path d="M0.83 0.61 C15.75 -1.94, 74.88 -13.32, 89.49 -16.2 M-0.19 -0.11 C14.58 -2.43, 73.4 -12.3, 88.57 -14.91" stroke="#ffffff" stroke-width="1" fill="none"></path></g><g transform="translate(122.07471586776637 79.96696133293005) rotate(0 44.64629096293618 -7.790970157919901)"><path d="M63.52 0.02 C69.5 -6.25, 76.49 -10.19, 86.9 -14.71 M62.14 0.16 C68.91 -4.58, 76.94 -8.61, 88.02 -14.03" stroke="#ffffff" stroke-width="1" fill="none"></path></g><g transform="translate(122.07471586776637 79.96696133293005) rotate(0 44.64629096293618 -7.790970157919901)"><path d="M60.09 -20.21 C66.93 -20.53, 74.94 -18.49, 86.9 -14.71 M58.71 -20.07 C66.32 -19.47, 75.26 -18.15, 88.02 -14.03" stroke="#ffffff" stroke-width="1" fill="none"></path></g></g><mask></mask><g stroke-linecap="round"><g transform="translate(19.356144594868397 89.23177364381888) rotate(0 50.802543227840374 -11.403373532011699)"><path d="M-0.2 1.11 C16.9 -2.55, 85.97 -18.23, 103.38 -22.06 M-1.77 0.65 C15.13 -3.36, 84.92 -19.84, 102.56 -23.92" stroke="#ffffff" stroke-width="1" fill="none"></path></g></g><mask></mask><g stroke-linecap="round"><g transform="translate(33.45477202448183 60.228882931471276) rotate(0 40.750352711662856 11.89396140696499)"><path d="M0.35 -0.9 C14.12 3.17, 68.65 19.36, 82.42 23.78 M-0.92 1.25 C12.72 5.47, 67.68 20.95, 81.61 24.68" stroke="#ffffff" stroke-width="1" fill="none"></path></g></g><mask></mask><g stroke-linecap="round"><g transform="translate(37.080133363525306 48.54716306122009) rotate(0 36.77530236841034 -17.008975483664358)"><path d="M0.79 -0.3 C12.96 -5.91, 61.61 -28.05, 73.8 -33.72 M-0.25 -1.5 C11.77 -6.94, 61 -27.01, 73.32 -32.33" stroke="#ffffff" stroke-width="1" fill="none"></path></g></g><mask></mask><g stroke-linecap="round"><g transform="translate(39.899858849447924 13.904821377027133) rotate(0 38.251134414486614 18.56522773393243)"><path d="M-0.18 0.52 C13.03 6.94, 65.34 31.4, 78.24 37.38 M-1.74 -0.25 C11.42 5.96, 63.78 29.51, 77.34 35.85" stroke="#ffffff" stroke-width="1" fill="none"></path></g></g><mask></mask><g stroke-linecap="round"><g transform="translate(244.9341834686835 87.21768401101701) rotate(0 -87.15669981900498 37.6242754497635)"><path d="M-0.64 -0.79 C-25.14 11.83, -118.91 72.88, -148.07 75.91 C-177.22 78.94, -171.35 27.3, -175.54 17.39 M1.23 1.41 C-23.29 13.7, -119.63 72, -148.71 74.31 C-177.79 76.62, -168.68 24.8, -173.24 15.29" stroke="#ffffff" stroke-width="1" fill="none"></path></g><g transform="translate(244.9341834686835 87.21768401101701) rotate(0 -87.15669981900498 37.6242754497635)"><path d="M-161.43 43.23 C-161.3 34.57, -164.97 32.66, -174.05 14.08 M-160.72 41.37 C-164.73 34.34, -168.05 28.78, -174.12 15.91" stroke="#ffffff" stroke-width="1" fill="none"></path></g><g transform="translate(244.9341834686835 87.21768401101701) rotate(0 -87.15669981900498 37.6242754497635)"><path d="M-181.84 45.35 C-177.36 36.35, -176.67 33.99, -174.05 14.08 M-181.13 43.49 C-179.65 35.76, -177.47 29.62, -174.12 15.91" stroke="#ffffff" stroke-width="1" fill="none"></path></g></g><mask></mask></svg>