<svg version="1.1" xmlns="http://www.w3.org/2000/svg" viewBox="0 0 863.9888296315834 499.3414561632666" width="863.9888296315834" height="499.3414561632666">
  <!-- svg-source:excalidraw -->
  
  <defs>
    <style class="style-fonts">
      @font-face {
        font-family: "Virgil";
        src: url("https://excalidraw.com/Virgil.woff2");
      }
      @font-face {
        font-family: "Cascadia";
        src: url("https://excalidraw.com/Cascadia.woff2");
      }
    </style>
    
  </defs>
  <g stroke-linecap="round" transform="translate(15.58275617112713 78.3571788719205) rotate(0 90.5 40)"><path d="M20 0 M20 0 C60.36 0.62, 104.75 0.47, 161 0 M20 0 C75.91 0.16, 130.25 0.7, 161 0 M161 0 C176.11 -1.63, 182.01 6.38, 181 20 M161 0 C176.31 0.88, 183.24 7.34, 181 20 M181 20 C179.97 33.69, 180.91 46.69, 181 60 M181 20 C181.38 30.39, 180.39 41.92, 181 60 M181 60 C182.55 75.01, 175.71 80.34, 161 80 M181 60 C180.03 74.39, 176.54 78.6, 161 80 M161 80 C123.59 79.88, 89.22 79.47, 20 80 M161 80 C116.18 79.4, 70.75 78.78, 20 80 M20 80 C6.2 79.03, 1.36 73.49, 0 60 M20 80 C5.11 77.89, -0.17 73.59, 0 60 M0 60 C-0.2 46.01, 1.37 29.69, 0 20 M0 60 C0.75 45.26, -0.69 28.97, 0 20 M0 20 C0.16 5.17, 6.44 0.14, 20 0 M0 20 C-1.37 7.7, 6.31 -0.87, 20 0" stroke="#ffffff" stroke-width="1" fill="none"></path></g><g transform="translate(58.982757697006036 106.8571788719205) rotate(0 47.099998474121094 11.5)"><text x="47.099998474121094" y="0" font-family="Helvetica, Segoe UI Emoji" font-size="20px" fill="#ffffff" text-anchor="middle" style="white-space: pre;" direction="ltr" dominant-baseline="text-before-edge">Rust Code</text></g><g stroke-linecap="round" transform="translate(530.562566867441 74.7382055984607) rotate(0 99.45705241155542 38.90525873746137)"><path d="M19.45 0 M19.45 0 C53.43 2.28, 90.58 1.06, 179.46 0 M19.45 0 C56.58 1.16, 96.25 0.93, 179.46 0 M179.46 0 C190.6 -1.81, 200.1 6.39, 198.91 19.45 M179.46 0 C191.88 1.27, 197.88 7.35, 198.91 19.45 M198.91 19.45 C197.62 29.46, 199.75 38.04, 198.91 58.36 M198.91 19.45 C198.89 32.21, 198.58 42.76, 198.91 58.36 M198.91 58.36 C197.92 69.99, 194.13 76.62, 179.46 77.81 M198.91 58.36 C196.8 71.28, 193.32 77.65, 179.46 77.81 M179.46 77.81 C124.2 77.56, 71.15 77.23, 19.45 77.81 M179.46 77.81 C141.13 78.22, 105.5 78.24, 19.45 77.81 M19.45 77.81 C5.49 77.1, -1.2 72.1, 0 58.36 M19.45 77.81 C6.82 79, -1.35 71.45, 0 58.36 M0 58.36 C-0.92 48.77, -1.69 43.51, 0 19.45 M0 58.36 C-0.8 43.65, -0.65 27.58, 0 19.45 M0 19.45 C1.96 6.54, 6.58 1.2, 19.45 0 M0 19.45 C-1.31 8.38, 7.68 -0.86, 19.45 0" stroke="#ffffff" stroke-width="1" fill="none"></path></g><g transform="translate(599.6362860728196 102.14346433592203) rotate(0 30.383333206176758 11.5)"><text x="30.383333206176758" y="0" font-family="Helvetica, Segoe UI Emoji" font-size="20px" fill="#ffffff" text-anchor="middle" style="white-space: pre;" direction="ltr" dominant-baseline="text-before-edge">WASM</text></g><g stroke-linecap="round" transform="translate(10 216.56057188675874) rotate(0 358.007655577889 136.39044213825395)"><path d="M32 0 M32 0 C203.18 -1.68, 373.06 -1.03, 684.02 0 M32 0 C181.74 -1.65, 330.76 -1.74, 684.02 0 M684.02 0 C706.27 1.02, 715.68 9.74, 716.02 32 M684.02 0 C705.67 1.3, 715.64 10.67, 716.02 32 M716.02 32 C717.53 75.4, 718.71 119.15, 716.02 240.78 M716.02 32 C715.66 100.82, 716.84 169.28, 716.02 240.78 M716.02 240.78 C714.26 263.24, 704.19 271.72, 684.02 272.78 M716.02 240.78 C715.4 261.54, 704.02 273.46, 684.02 272.78 M684.02 272.78 C436.71 274.2, 189.28 275.76, 32 272.78 M684.02 272.78 C532.31 274.38, 380.24 274.28, 32 272.78 M32 272.78 C11.06 270.93, 1.97 264.02, 0 240.78 M32 272.78 C9.51 272.95, -0.58 262.24, 0 240.78 M0 240.78 C0.84 180.2, -1.34 117.85, 0 32 M0 240.78 C1.18 188.18, 2.58 133.71, 0 32 M0 32 C0.78 11.47, 11.52 -0.98, 32 0 M0 32 C-0.47 12.91, 12.72 -1.43, 32 0" stroke="#ffffff" stroke-width="1" fill="none"></path></g><g transform="translate(52.70076266612284 189.06362210238746) rotate(0 37.78333282470703 11.5)"><text x="37.78333282470703" y="0" font-family="Helvetica, Segoe UI Emoji" font-size="20px" fill="#ffffff" text-anchor="middle" style="white-space: pre;" direction="ltr" dominant-baseline="text-before-edge">Machine</text></g><g stroke-linecap="round" transform="translate(141.6824995311041 246.39768761022555) rotate(0 277.5198139649623 113.79056878851469)"><path d="M32 0 M32 0 C208.97 -0.21, 384.35 -0.18, 523.04 0 M32 0 C221.91 0.07, 412.4 0.64, 523.04 0 M523.04 0 C544.64 -1.96, 555.29 9.05, 555.04 32 M523.04 0 C545.33 -2.25, 556.86 12.6, 555.04 32 M555.04 32 C556.25 86.64, 556.89 137.29, 555.04 195.58 M555.04 32 C555.9 88.74, 555.94 143.37, 555.04 195.58 M555.04 195.58 C556.68 218.91, 542.97 226.57, 523.04 227.58 M555.04 195.58 C555.65 216.16, 546.46 227.19, 523.04 227.58 M523.04 227.58 C333.29 227.48, 143.56 227.81, 32 227.58 M523.04 227.58 C352.46 229.28, 182.87 228.96, 32 227.58 M32 227.58 C11.84 225.8, 1.63 218.06, 0 195.58 M32 227.58 C10.33 229.25, 0.09 217.13, 0 195.58 M0 195.58 C-1.38 157.77, 2.16 114.99, 0 32 M0 195.58 C-0.84 134.27, -0.25 73.99, 0 32 M0 32 C-1.26 11.1, 11.3 -0.09, 32 0 M0 32 C-0.5 8.67, 8.37 1.73, 32 0" stroke="#ffffff" stroke-width="1" fill="none"></path></g><g transform="translate(176.613477032765 220.75219319414936) rotate(0 30.174999237060547 11.5)"><text x="30.174999237060547" y="0" font-family="Helvetica, Segoe UI Emoji" font-size="20px" fill="#ffffff" text-anchor="middle" style="white-space: pre;" direction="ltr" dominant-baseline="text-before-edge">Wasmi</text></g><g stroke-linecap="round" transform="translate(314.70836792548266 294.3614026050338) rotate(0 180.13117420369048 78.7783992682152)"><path d="M32 0 M32 0 C118.72 -0.02, 203.04 1, 328.26 0 M32 0 C136.88 1.26, 241.97 0.62, 328.26 0 M328.26 0 C350.73 0.1, 358.73 9.81, 360.26 32 M328.26 0 C351.66 -1.4, 361.4 10.81, 360.26 32 M360.26 32 C361.74 53.47, 358.96 75.77, 360.26 125.56 M360.26 32 C359.74 64.26, 359.09 95.06, 360.26 125.56 M360.26 125.56 C358.41 148.2, 348.25 156.93, 328.26 157.56 M360.26 125.56 C360.6 148.67, 348.73 159.15, 328.26 157.56 M328.26 157.56 C253.91 156.81, 176.75 155.53, 32 157.56 M328.26 157.56 C218.52 157.73, 110.37 158.69, 32 157.56 M32 157.56 C9.75 156.45, 0.2 145.97, 0 125.56 M32 157.56 C11.09 155.68, 1.79 146.08, 0 125.56 M0 125.56 C0.99 99.57, 0 72.57, 0 32 M0 125.56 C-0.19 103.71, -0.5 81.71, 0 32 M0 32 C1.44 11.84, 10.2 0.43, 32 0 M0 32 C-0.16 9.25, 12.6 0.2, 32 0" stroke="#ffffff" stroke-width="1" fill="none"></path></g><g transform="translate(338.7482324173568 263.84427610433903) rotate(0 69.07499694824219 11.5)"><text x="138.14999389648438" y="0" font-family="Helvetica, Segoe UI Emoji" font-size="20px" fill="#ffffff" text-anchor="end" style="white-space: pre;" direction="ltr" dominant-baseline="text-before-edge">Virtual machine</text></g><g stroke-linecap="round" transform="translate(326.96724365047714 62.333856462891276) rotate(0 43.5 56.5)"><path d="M21.75 0 M21.75 0 C36.49 0, 51.23 0, 65.25 0 M21.75 0 C36.03 0, 50.32 0, 65.25 0 M65.25 0 C79.75 0, 87 7.25, 87 21.75 M65.25 0 C79.75 0, 87 7.25, 87 21.75 M87 21.75 C87 45.11, 87 68.47, 87 91.25 M87 21.75 C87 36.05, 87 50.36, 87 91.25 M87 91.25 C87 105.75, 79.75 113, 65.25 113 M87 91.25 C87 105.75, 79.75 113, 65.25 113 M65.25 113 C51.91 113, 38.57 113, 21.75 113 M65.25 113 C54.37 113, 43.49 113, 21.75 113 M21.75 113 C7.25 113, 0 105.75, 0 91.25 M21.75 113 C7.25 113, 0 105.75, 0 91.25 M0 91.25 C0 65.66, 0 40.07, 0 21.75 M0 91.25 C0 64.1, 0 36.95, 0 21.75 M0 21.75 C0 7.25, 7.25 0, 21.75 0 M0 21.75 C0 7.25, 7.25 0, 21.75 0" stroke="#ffffff" stroke-width="1" fill="none"></path></g><g transform="translate(332.61724517635605 107.33385646289128) rotate(0 37.849998474121094 11.5)"><text x="37.849998474121094" y="0" font-family="Helvetica, Segoe UI Emoji" font-size="20px" fill="#ffffff" text-anchor="middle" style="white-space: pre;" direction="ltr" dominant-baseline="text-before-edge">LLVM IR</text></g><g stroke-linecap="round"><g transform="translate(203.38875471352537 115.63916265436364) rotate(0 57.60014314857915 -0.2618188324935602)"><path d="M0 0 C19.2 -0.09, 96 -0.44, 115.2 -0.52 M0 0 C19.2 -0.09, 96 -0.44, 115.2 -0.52" stroke="#ffffff" stroke-width="1" fill="none"></path></g><g transform="translate(203.38875471352537 115.63916265436364) rotate(0 57.60014314857915 -0.2618188324935602)"><path d="M87.06 9.86 C92.92 7.7, 98.78 5.54, 115.2 -0.52 M87.06 9.86 C96.51 6.38, 105.96 2.89, 115.2 -0.52" stroke="#ffffff" stroke-width="1" fill="none"></path></g><g transform="translate(203.38875471352537 115.63916265436364) rotate(0 57.60014314857915 -0.2618188324935602)"><path d="M86.96 -10.66 C92.84 -8.55, 98.73 -6.44, 115.2 -0.52 M86.96 -10.66 C96.44 -7.25, 105.93 -3.85, 115.2 -0.52" stroke="#ffffff" stroke-width="1" fill="none"></path></g></g><mask></mask><g stroke-linecap="round"><g transform="translate(423.3165740081005 112.49733666444115) rotate(0 49.483759341279324 0.2618188324935318)"><path d="M0 0 C16.49 0.09, 82.47 0.44, 98.97 0.52 M0 0 C16.49 0.09, 82.47 0.44, 98.97 0.52" stroke="#ffffff" stroke-width="1" fill="none"></path></g><g transform="translate(423.3165740081005 112.49733666444115) rotate(0 49.483759341279324 0.2618188324935318)"><path d="M70.72 10.63 C77.69 8.14, 84.66 5.64, 98.97 0.52 M70.72 10.63 C78.41 7.88, 86.1 5.13, 98.97 0.52" stroke="#ffffff" stroke-width="1" fill="none"></path></g><g transform="translate(423.3165740081005 112.49733666444115) rotate(0 49.483759341279324 0.2618188324935318)"><path d="M70.83 -9.89 C77.78 -7.32, 84.72 -4.75, 98.97 0.52 M70.83 -9.89 C78.49 -7.05, 86.15 -4.22, 98.97 0.52" stroke="#ffffff" stroke-width="1" fill="none"></path></g></g><mask></mask><g transform="translate(303.3916004842903 10) rotate(0 66.84166717529297 9.199999999999989)"><text x="66.84166717529297" y="0" font-family="Helvetica, Segoe UI Emoji" font-size="16px" fill="#ffffff" text-anchor="middle" style="white-space: pre;" direction="ltr" dominant-baseline="text-before-edge">Compilation Phase</text></g><g transform="translate(734.7388296315834 195.50141624327296) rotate(0 59.625 9.200000000000017)"><text x="59.625" y="0" font-family="Helvetica, Segoe UI Emoji" font-size="16px" fill="#ffffff" text-anchor="middle" style="white-space: pre;" direction="ltr" dominant-baseline="text-before-edge">Execution Phase</text></g><g transform="translate(231.52023233034117 118.04789591330422) rotate(0 17.424999237060547 9.199999999999989)"><text x="17.424999237060547" y="0" font-family="Helvetica, Segoe UI Emoji" font-size="16px" fill="#ffffff" text-anchor="middle" style="white-space: pre;" direction="ltr" dominant-baseline="text-before-edge">rusct</text></g><g transform="translate(432.979703340942 114.90606992338172) rotate(0 30.133333206176758 18.400000000000006)"><text x="30.133333206176758" y="0" font-family="Helvetica, Segoe UI Emoji" font-size="16px" fill="#ffffff" text-anchor="middle" style="white-space: pre;" direction="ltr" dominant-baseline="text-before-edge">LLVM</text><text x="30.133333206176758" y="18.4" font-family="Helvetica, Segoe UI Emoji" font-size="16px" fill="#ffffff" text-anchor="middle" style="white-space: pre;" direction="ltr" dominant-baseline="text-before-edge">backend</text></g><g stroke-linecap="round"><g transform="translate(206.4063423171384 77.37251903691094) rotate(0 160.66795891390194 -14.06849301284521)"><path d="M0 17.89 C12.61 17.3, 61.35 24.03, 75.69 14.35 C90.03 4.67, 58.85 -30.79, 86.07 -40.19 C113.29 -49.58, 211.96 -50.29, 238.99 -42.01 C266.01 -33.73, 234.47 0.41, 248.2 9.5 C261.92 18.59, 309.15 12.03, 321.34 12.53" stroke="#ffffff" stroke-width="1.5" fill="none" stroke-dasharray="8 9"></path></g><g transform="translate(206.4063423171384 77.37251903691094) rotate(0 160.66795891390194 -14.06849301284521)"><path d="M293.64 24.06 C302.55 20.35, 311.47 16.64, 321.34 12.53" stroke="#ffffff" stroke-width="1.5" fill="none"></path></g><g transform="translate(206.4063423171384 77.37251903691094) rotate(0 160.66795891390194 -14.06849301284521)"><path d="M292.71 3.56 C301.92 6.45, 311.14 9.33, 321.34 12.53" stroke="#ffffff" stroke-width="1.5" fill="none"></path></g></g><mask></mask><g stroke-linecap="round"><g transform="translate(671.6870949856383 153.1389178291588) rotate(0 45.350442149390005 136.12756459951373)"><path d="M0.12 0.79 C25.48 28.46, 127.81 121.31, 151.79 166.16 C175.76 211.02, 182.73 259.59, 143.98 269.93 C105.24 280.27, -43.27 235.25, -80.71 228.2" stroke="#ffffff" stroke-width="1.5" fill="none" stroke-dasharray="8 9"></path></g><g transform="translate(671.6870949856383 153.1389178291588) rotate(0 45.350442149390005 136.12756459951373)"><path d="M-49.57 224.12 C-60.46 225.4, -68.22 226.4, -79.87 227.96" stroke="#ffffff" stroke-width="1.5" fill="none"></path></g><g transform="translate(671.6870949856383 153.1389178291588) rotate(0 45.350442149390005 136.12756459951373)"><path d="M-54.44 244.06 C-64.03 239.92, -70.46 235.51, -79.87 227.96" stroke="#ffffff" stroke-width="1.5" fill="none"></path></g></g><mask></mask><g stroke-linecap="round"><g transform="translate(576.8091794706619 152.55733649425588) rotate(0 -220.66358183918157 102.47290062473539)"><path d="M-1.02 0.21 C-0.72 5.86, 70.15 26.42, 1.55 34.67 C-67.05 42.92, -333.9 26.15, -412.64 49.71 C-491.38 73.27, -470.04 150.1, -470.9 176.02 C-471.76 201.93, -426.8 200.52, -417.82 205.19 M0.65 -0.73 C0.9 5.02, 70.01 27.89, 1.09 35.96 C-67.83 44.03, -334.21 24.2, -412.85 47.7 C-491.49 71.21, -470.22 150.66, -470.75 176.99 C-471.27 203.31, -425.18 200.82, -415.98 205.68" stroke="transparent" stroke-width="1" fill="none"></path></g><g transform="translate(576.8091794706619 152.55733649425588) rotate(0 -220.66358183918157 102.47290062473539)"><path d="M-445.34 211.47 C-438.24 210.76, -428.15 207.52, -416.41 204.59 M-445.51 209.78 C-437.26 208.28, -426.26 207.64, -415.41 205.58" stroke="transparent" stroke-width="1" fill="none"></path></g><g transform="translate(576.8091794706619 152.55733649425588) rotate(0 -220.66358183918157 102.47290062473539)"><path d="M-441.11 191.39 C-435.07 196.22, -426.14 198.55, -416.41 204.59 M-441.29 189.7 C-434.34 194.49, -424.68 200.18, -415.41 205.58" stroke="transparent" stroke-width="1" fill="none"></path></g></g><mask></mask><g stroke-linecap="round" transform="translate(171.9103154525743 310.6681051966959) rotate(0 49 46)"><path d="M23 0 M23 0 C35.55 0.89, 45.69 1.44, 75 0 M23 0 C40.67 0.17, 57.21 -0.87, 75 0 M75 0 C90.32 0.96, 98.94 6.66, 98 23 M75 0 C90.32 -2.16, 98.58 8.99, 98 23 M98 23 C98.48 40.36, 96.02 56.25, 98 69 M98 23 C98.98 39.09, 97.45 54.06, 98 69 M98 69 C98.19 82.35, 88.66 90.82, 75 92 M98 69 C99.62 85.39, 88.7 91.54, 75 92 M75 92 C55.95 90.88, 34.95 93.13, 23 92 M75 92 C60.2 91.83, 46.04 91.71, 23 92 M23 92 C8.25 93.61, 1.88 84.88, 0 69 M23 92 C6.4 94.1, 1.19 82.84, 0 69 M0 69 C-0.12 56.82, -0.8 43.08, 0 23 M0 69 C0.42 58, 0.94 46.99, 0 23 M0 23 C-0.94 9.62, 5.79 -1.98, 23 0 M0 23 C-1.02 6.28, 5.57 1.16, 23 0" stroke="transparent" stroke-width="1" fill="none"></path></g><g transform="translate(186.5353154525743 347.46810519669583) rotate(0 34.375 9.199999999999989)"><text x="34.375" y="0" font-family="Helvetica, Segoe UI Emoji" font-size="16px" fill="transparent" text-anchor="middle" style="white-space: pre;" direction="ltr" dominant-baseline="text-before-edge">Wasmi IR</text></g><g stroke-linecap="round" transform="translate(420.7311363108154 351.2141112562005) rotate(0 82.13841489126679 23.4681185403619)"><path d="M57.64 0.28 C68.62 -1.28, 82.92 -0.49, 95.5 0.21 C108.08 0.9, 122.78 2.37, 133.11 4.46 C143.44 6.55, 152.41 9.29, 157.46 12.75 C162.51 16.21, 164.37 21.32, 163.41 25.22 C162.45 29.12, 158.26 33.05, 151.71 36.14 C145.16 39.22, 134.81 42.09, 124.13 43.73 C113.45 45.38, 100.05 45.91, 87.64 46.03 C75.23 46.16, 61.46 45.92, 49.68 44.49 C37.89 43.06, 24.87 40.32, 16.95 37.46 C9.02 34.59, 4.45 30.66, 2.14 27.29 C-0.18 23.93, -0.68 20.77, 3.04 17.28 C6.76 13.78, 12.72 9.09, 24.44 6.32 C36.15 3.55, 62.3 1.76, 73.33 0.64 C84.36 -0.47, 90.37 -0.5, 90.61 -0.36 M45 1.46 C54.74 -0.26, 68.57 -0.18, 81.09 -0.11 C93.62 -0.05, 108.46 0.2, 120.14 1.86 C131.82 3.52, 143.99 6.76, 151.19 9.83 C158.38 12.9, 162.17 16.71, 163.29 20.26 C164.41 23.81, 162.36 27.74, 157.9 31.13 C153.43 34.52, 145.77 38.16, 136.47 40.6 C127.17 43.05, 114.31 44.67, 102.09 45.77 C89.87 46.88, 75.6 47.95, 63.16 47.23 C50.71 46.52, 37.15 44.18, 27.42 41.49 C17.7 38.8, 9.14 34.76, 4.82 31.09 C0.5 27.42, -0.12 22.71, 1.5 19.46 C3.12 16.2, 7.2 14.39, 14.55 11.54 C21.91 8.68, 40.54 4, 45.64 2.34 C50.74 0.68, 44.69 0.95, 45.14 1.57" stroke="#ffffff" stroke-width="1" fill="none"></path></g><g transform="translate(453.68058744890686 365.3877640349827) rotate(0 49.10833358764654 9.199999999999989)"><text x="49.108333587646484" y="0" font-family="Helvetica, Segoe UI Emoji" font-size="16px" fill="#ffffff" text-anchor="middle" style="white-space: pre;" direction="ltr" dominant-baseline="text-before-edge">VM Execution</text></g><g stroke-linecap="round"><g transform="translate(277.2403543783165 356.57825263685453) rotate(0 66.222558158629 7.458500703452273)"><path d="M0.62 -0.67 C22.94 1.82, 111 11.86, 132.96 14.52 M-0.51 1.59 C21.7 4.24, 109.23 13.1, 131.76 15.59" stroke="transparent" stroke-width="1" fill="none"></path></g><g transform="translate(277.2403543783165 356.57825263685453) rotate(0 66.222558158629 7.458500703452273)"><path d="M101.53 22.04 C107.53 19.27, 115.18 20.54, 133.07 14.71 M102.22 22.32 C111.5 19.87, 119.61 17.56, 132.12 14.71" stroke="transparent" stroke-width="1" fill="none"></path></g><g transform="translate(277.2403543783165 356.57825263685453) rotate(0 66.222558158629 7.458500703452273)"><path d="M103.69 1.63 C109.15 3.33, 116.32 9.06, 133.07 14.71 M104.37 1.92 C112.86 5.72, 120.31 9.66, 132.12 14.71" stroke="transparent" stroke-width="1" fill="none"></path></g></g><mask></mask></svg>