<svg version="1.1" viewBox="0.0 0.0 690.5669291338583 607.5459317585302" fill="none" stroke="none" stroke-linecap="square" stroke-miterlimit="10" xmlns:xlink="http://www.w3.org/1999/xlink" xmlns="http://www.w3.org/2000/svg"><clipPath id="p.0"><path d="m0 0l690.56696 0l0 607.54596l-690.56696 0l0 -607.54596z" clip-rule="nonzero"/></clipPath><g clip-path="url(#p.0)"><path fill="#000000" fill-opacity="0.0" d="m0 0l690.56696 0l0 607.54596l-690.56696 0z" fill-rule="evenodd"/><path fill="#eeeeee" d="m23.902887 28.349081l34.04724 0l0 550.83466l-34.04724 0z" fill-rule="evenodd"/><path stroke="#595959" stroke-width="1.0" stroke-linejoin="round" stroke-linecap="butt" d="m23.902887 28.349081l34.04724 0l0 550.83466l-34.04724 0z" fill-rule="evenodd"/><path fill="#eeeeee" d="m84.77428 54.65354l34.04725 0l0 524.5354l-34.04725 0z" fill-rule="evenodd"/><path stroke="#595959" stroke-width="1.0" stroke-linejoin="round" stroke-linecap="butt" d="m84.77428 54.65354l34.04725 0l0 524.5354l-34.04725 0z" fill-rule="evenodd"/><path fill="#eeeeee" d="m145.64568 70.125984l34.04724 0l0 509.07086l-34.04724 0z" fill-rule="evenodd"/><path stroke="#595959" stroke-width="1.0" stroke-linejoin="round" stroke-linecap="butt" d="m145.64568 70.125984l34.04724 0l0 509.07086l-34.04724 0z" fill-rule="evenodd"/><path fill="#eeeeee" d="m206.51706 152.13124l34.04724 0l0 427.0551l-34.04724 0z" fill-rule="evenodd"/><path stroke="#595959" stroke-width="1.0" stroke-linejoin="round" stroke-linecap="butt" d="m206.51706 152.13124l34.04724 0l0 427.0551l-34.04724 0z" fill-rule="evenodd"/><path fill="#eeeeee" d="m267.38846 272.8189l34.04724 0l0 306.36218l-34.04724 0z" fill-rule="evenodd"/><path stroke="#595959" stroke-width="1.0" stroke-linejoin="round" stroke-linecap="butt" d="m267.38846 272.8189l34.04724 0l0 306.36218l-34.04724 0z" fill-rule="evenodd"/><path fill="#eeeeee" d="m328.25986 395.0551l34.04724 0l0 184.12598l-34.04724 0z" fill-rule="evenodd"/><path stroke="#595959" stroke-width="1.0" stroke-linejoin="round" stroke-linecap="butt" d="m328.25986 395.0551l34.04724 0l0 184.12598l-34.04724 0z" fill-rule="evenodd"/><path fill="#eeeeee" d="m389.13123 504.91077l34.04724 0l0 74.2677l-34.04724 0z" fill-rule="evenodd"/><path stroke="#595959" stroke-width="1.0" stroke-linejoin="round" stroke-linecap="butt" d="m389.13123 504.91077l34.04724 0l0 74.2677l-34.04724 0z" fill-rule="evenodd"/><path fill="#ff1864" d="m450.00262 532.76117l34.04724 0l0 46.42517l-34.04724 0z" fill-rule="evenodd"/><path stroke="#595959" stroke-width="1.0" stroke-linejoin="round" stroke-linecap="butt" d="m450.00262 532.76117l34.04724 0l0 46.42517l-34.04724 0z" fill-rule="evenodd"/><path fill="#eeeeee" d="m510.87402 543.5932l34.04724 0l0 35.590515l-34.04724 0z" fill-rule="evenodd"/><path stroke="#595959" stroke-width="1.0" stroke-linejoin="round" stroke-linecap="butt" d="m510.87402 543.5932l34.04724 0l0 35.590515l-34.04724 0z" fill-rule="evenodd"/><path fill="#eeeeee" d="m571.7454 554.4252l34.04724 0l0 24.75592l-34.04724 0z" fill-rule="evenodd"/><path stroke="#595959" stroke-width="1.0" stroke-linejoin="round" stroke-linecap="butt" d="m571.7454 554.4252l34.04724 0l0 24.75592l-34.04724 0z" fill-rule="evenodd"/><path fill="#eeeeee" d="m632.6168 563.7087l34.04724 0l0 15.464539l-34.04724 0z" fill-rule="evenodd"/><path stroke="#595959" stroke-width="1.0" stroke-linejoin="round" stroke-linecap="butt" d="m632.6168 563.7087l34.04724 0l0 15.464539l-34.04724 0z" fill-rule="evenodd"/></g></svg>