<svg version="1.1" viewBox="0.0 0.0 690.5669291338583 607.5459317585302" fill="none" stroke="none" stroke-linecap="square" stroke-miterlimit="10" xmlns:xlink="http://www.w3.org/1999/xlink" xmlns="http://www.w3.org/2000/svg"><clipPath id="p.0"><path d="m0 0l690.56696 0l0 607.54596l-690.56696 0l0 -607.54596z" clip-rule="nonzero"/></clipPath><g clip-path="url(#p.0)"><path fill="#000000" fill-opacity="0.0" d="m0 0l690.56696 0l0 607.54596l-690.56696 0z" fill-rule="evenodd"/><path fill="#000000" fill-opacity="0.0" d="m88.42257 50.027557l60.343834 168.65092l20.11287 -41.774277l49.514435 170.19946l61.88977 -165.55905l44.87137 165.55905l46.419952 -117.59317l35.585297 116.04462l43.32547 -78.91077l43.322845 123.782166l21.661377 -40.228363l55.70343 176.38846" fill-rule="evenodd"/><path stroke="#ff1864" stroke-width="8.0" stroke-linejoin="round" stroke-linecap="butt" d="m88.42257 50.027557l60.343834 168.65092l20.11287 -41.774277l49.514435 170.19946l61.88977 -165.55905l44.87137 165.55905l46.419952 -117.59317l35.585297 116.04462l43.32547 -78.91077l43.322845 123.782166l21.661377 -40.228363l55.70343 176.38846" fill-rule="evenodd"/><path fill="#000000" fill-opacity="0.0" d="m24.984251 25.26903l0 557.0079" fill-rule="evenodd"/><path stroke="#595959" stroke-width="8.0" stroke-linejoin="round" stroke-linecap="butt" d="m24.984251 73.26903l0 509.00787" fill-rule="evenodd"/><path fill="#595959" stroke="#595959" stroke-width="8.0" stroke-linecap="butt" d="m38.198112 73.26903l-13.213861 -36.30478l-13.213859 36.30478z" fill-rule="evenodd"/><path fill="#000000" fill-opacity="0.0" d="m24.984251 577.647l640.59845 0" fill-rule="evenodd"/><path stroke="#595959" stroke-width="8.0" stroke-linejoin="round" stroke-linecap="butt" d="m24.984251 577.647l592.59845 0" fill-rule="evenodd"/><path fill="#595959" stroke="#595959" stroke-width="8.0" stroke-linecap="butt" d="m617.5827 590.86084l36.30475 -13.213867l-36.30475 -13.213867z" fill-rule="evenodd"/></g></svg>