<svg xmlns="http://www.w3.org/2000/svg" viewBox="0 0 48 48"><defs><style>.cls-1{fill:#db5669;}.cls-2{fill:#f26674;}.cls-3{fill:#c4455e;}.cls-4{fill:#ffde76;}.cls-5{fill:#edebf2;}</style></defs><title>free (splash tag)</title><g id="free_splash_tag_" data-name="free (splash tag)"><path class="cls-1" d="M45.93,26.39a3.2,3.2,0,0,0-.76,3.79,3.21,3.21,0,0,1-1.83,4.42,3.19,3.19,0,0,0-2.15,3c0,.06,0,.36,0,.39a3.21,3.21,0,0,1-3.4,3.2,3.19,3.19,0,0,0-3.21,2.14,3.2,3.2,0,0,1-4.42,1.83,3.2,3.2,0,0,0-3.79.76,3.2,3.2,0,0,1-4.78,0,3.2,3.2,0,0,0-3.79-.76,3.2,3.2,0,0,1-4.42-1.83,3.18,3.18,0,0,0-3.21-2.14A3.2,3.2,0,0,1,6.8,37.81,3.19,3.19,0,0,0,4.66,34.6a3.2,3.2,0,0,1-1.83-4.42,3.2,3.2,0,0,0-.76-3.79,3.2,3.2,0,0,1,0-4.78,3.2,3.2,0,0,0,.76-3.79A3.2,3.2,0,0,1,4.66,13.4,3.18,3.18,0,0,0,6.8,10.19,3.2,3.2,0,0,1,10.1,6.8h.29a3.19,3.19,0,0,0,3-2.15,3.21,3.21,0,0,1,4.42-1.83,3.2,3.2,0,0,0,3.79-.76,3.2,3.2,0,0,1,4.78,0,3.21,3.21,0,0,0,3.79.76A3.2,3.2,0,0,1,34.6,4.66a3.19,3.19,0,0,0,3,2.15l.39,0a3.21,3.21,0,0,1,3.2,3.4,3.19,3.19,0,0,0,2.14,3.21,3.19,3.19,0,0,1,2.15,3c0,1.29-.64,1.52-.64,2.79C44.85,21.68,47,21.53,47,24A3.19,3.19,0,0,1,45.93,26.39Z"/><path class="cls-2" d="M45.93,26.39a3.2,3.2,0,0,0-.76,3.79,3.12,3.12,0,0,1,.18,2.3c0,.1-.76,1.28-.82,1.38a3.08,3.08,0,0,1-1.19.74,3.19,3.19,0,0,0-2.15,3s0,.14,0,.29C27.32,51.18,4,41.37,4,22A21.9,21.9,0,0,1,10.1,6.8a3.2,3.2,0,0,0,3.3-2.14c.38-1.13,1-1.39,2.11-2a2.89,2.89,0,0,1,.91-.14c1.29,0,1.52.64,2.79.64C21.68,3.15,21.53,1,24,1a3.19,3.19,0,0,1,2.39,1.07,3.21,3.21,0,0,0,3.79.76A3.2,3.2,0,0,1,34.6,4.66,3.18,3.18,0,0,0,37.81,6.8a3.2,3.2,0,0,1,3.39,3.39,3.19,3.19,0,0,0,2.14,3.21,3.2,3.2,0,0,1,1.83,4.42,3.2,3.2,0,0,0,.76,3.79A3.2,3.2,0,0,1,45.93,26.39Z"/><path class="cls-3" d="M41,24A17,17,0,0,1,24,41C8.17,41,1,21.21,13,11,23.87,1.82,41,9.36,41,24Z"/><path class="cls-1" d="M41,24a16.91,16.91,0,0,1-4,11,16.91,16.91,0,0,1-11,4C11.38,39,3.81,21.88,13,11,23.87,1.82,41,9.36,41,24Z"/><path class="cls-4" d="M31.77,16.23a11,11,0,0,0-15.54,0,1,1,0,0,1-1.42-1.42,13,13,0,0,1,18.38,0A1,1,0,0,1,31.77,16.23Z"/><path class="cls-4" d="M14.81,33.19a1,1,0,0,1,1.42-1.42,11,11,0,0,0,15.54,0,1,1,0,0,1,1.42,1.42A13,13,0,0,1,14.81,33.19Z"/><path class="cls-5" d="M29,21a1,1,0,0,0,0-2H25a1,1,0,0,0-1,1v8a1,1,0,0,0,1,1h4a1,1,0,0,0,0-2H26V25h3a1,1,0,0,0,0-2H26V21Z"/><path class="cls-5" d="M36,25a1,1,0,0,0,0-2H33V21h3a1,1,0,0,0,0-2H32a1,1,0,0,0-1,1v8a1,1,0,0,0,1,1h4a1,1,0,0,0,0-2H33V25Z"/><path class="cls-5" d="M15,21a1,1,0,0,0,0-2H12a1,1,0,0,0-1,1v8a1,1,0,0,0,2,0V25h2a1,1,0,0,0,0-2H13V21Z"/><path class="cls-5" d="M23,22a3,3,0,0,0-3-3H18a1,1,0,0,0-1,1v8a1,1,0,0,0,2,0V26.41l2.29,2.3a1,1,0,0,0,1.42-1.42L20.39,25A3,3,0,0,0,23,22Zm-3,1H19V21h1A1,1,0,0,1,20,23Z"/></g></svg>