<svg xmlns="http://www.w3.org/2000/svg" viewBox="0 0 64 64"><defs><style>.cls-1{isolation:isolate;}.cls-2{fill:#d3d3d3;}.cls-10,.cls-3{fill:#fff;}.cls-4,.cls-5,.cls-6,.cls-7,.cls-8{fill:none;}.cls-5,.cls-6,.cls-7,.cls-8{stroke:#000;}.cls-5,.cls-6,.cls-8{stroke-miterlimit:10;}.cls-5,.cls-7{stroke-width:2px;}.cls-7,.cls-8{stroke-linecap:round;}.cls-7{stroke-linejoin:round;}.cls-8{stroke-width:3px;}.cls-9{opacity:0.25;mix-blend-mode:multiply;}.cls-10{mix-blend-mode:overlay;}</style></defs><title>Icon Color</title><g class="cls-1"><g id="Layer_1" data-name="Layer 1"><g id="Vector"><path class="cls-2" d="M12.88,46.37c-1.92-.91-2-3.56-2-3.56,0-.7,0-1.35,0-1.93s0-1.11,0-1.55,0-.73,0-1.08a1.61,1.61,0,0,0-.62,1,3.17,3.17,0,0,1-.41,1,3,3,0,0,1-5.42-2.37,7.2,7.2,0,0,1,5.57-5.57h0a6.63,6.63,0,0,1,2,0c0,1.07-.07,2.08-.1,3a54,54,0,0,0,0,6.37,7,7,0,0,0,.3,1.64A22.26,22.26,0,0,0,12.88,46.37Z"/><path class="cls-2" d="M59.38,49.57a16.82,16.82,0,0,1-6.72,6.6l.06-.21c.27-1.22-1.12-2-2.39-6a22.88,22.88,0,0,1-.63-2.46,22.51,22.51,0,0,0,8.17-.09A1.44,1.44,0,0,1,59.38,49.57Z"/><path class="cls-3" d="M52.72,56l-.06.21C50.9,61,25.4,65.41,15.88,52.8a17.87,17.87,0,0,1-3-6.43,22.26,22.26,0,0,1-.53-3.11,7,7,0,0,1-.3-1.64,54,54,0,0,1,0-6.37c0-.94.07-2,.1-3,.11-3.15.23-6.81.23-10.82a18.43,18.43,0,0,1,36.86,0V43.26A25.05,25.05,0,0,0,50.33,50C51.6,54,53,54.74,52.72,56Z"/><path d="M27.83,18.24h.46a2.33,2.33,0,0,1,2.33,2.33v5.77a2.56,2.56,0,0,1-2.56,2.56h0a2.56,2.56,0,0,1-2.56-2.56V20.57a2.33,2.33,0,0,1,2.33-2.33Z"/><path d="M17.71,18.24h.46a2.33,2.33,0,0,1,2.33,2.33v5.77a2.56,2.56,0,0,1-2.56,2.56h0a2.56,2.56,0,0,1-2.56-2.56V20.57A2.33,2.33,0,0,1,17.71,18.24Z"/><ellipse cx="23.15" cy="37.29" rx="3.61" ry="5.76"/><path class="cls-3" d="M38.22,42.79a4.22,4.22,0,0,1,3.17-3.32,3.19,3.19,0,0,1,2.93.87c.43.52.45,1.08.43,3.27,0,.9,0,2.09,0,3.51"/><path class="cls-3" d="M47.7,47.18c0-1.43,0-2.64,0-3.54,0-2.45,0-3.8-1.1-5.2a6.17,6.17,0,0,0-5.75-1.93h0a7.19,7.19,0,0,0-5.56,5.57,3,3,0,0,0,5.83,1.41,1.71,1.71,0,0,1,.61-1c0,.36,0,.77,0,1.09,0,.89,0,2.07,0,3.48,0,0,.07,3.85,3.39,3.85"/><path class="cls-4" d="M33.23,8.34h0A10.85,10.85,0,0,1,44.08,19.19"/></g><g id="Line"><path class="cls-5" d="M12.88,46.37c-1.92-.91-2-3.56-2-3.56,0-.7,0-1.35,0-1.93s0-1.11,0-1.55,0-.73,0-1.08a1.61,1.61,0,0,0-.62,1,3.17,3.17,0,0,1-.41,1,3,3,0,0,1-5.42-2.37,7.2,7.2,0,0,1,5.57-5.57h0a6.63,6.63,0,0,1,2,0c0,1.07-.07,2.08-.1,3a54,54,0,0,0,0,6.37,7,7,0,0,0,.3,1.64A22.26,22.26,0,0,0,12.88,46.37Z"/><path class="cls-5" d="M59.38,49.57a16.82,16.82,0,0,1-6.72,6.6l.06-.21c.27-1.22-1.12-2-2.39-6a22.88,22.88,0,0,1-.63-2.46,22.51,22.51,0,0,0,8.17-.09A1.44,1.44,0,0,1,59.38,49.57Z"/><path class="cls-5" d="M52.72,56l-.06.21C50.9,61,25.4,65.41,15.88,52.8a17.87,17.87,0,0,1-3-6.43,22.26,22.26,0,0,1-.53-3.11,7,7,0,0,1-.3-1.64,54,54,0,0,1,0-6.37c0-.94.07-2,.1-3,.11-3.15.23-6.81.23-10.82a18.43,18.43,0,0,1,36.86,0V43.26A25.05,25.05,0,0,0,50.33,50C51.6,54,53,54.74,52.72,56Z"/><path class="cls-6" d="M27.83,18.24h.46a2.33,2.33,0,0,1,2.33,2.33v5.77a2.56,2.56,0,0,1-2.56,2.56h0a2.56,2.56,0,0,1-2.56-2.56V20.57a2.33,2.33,0,0,1,2.33-2.33Z"/><path class="cls-6" d="M17.71,18.24h.46a2.33,2.33,0,0,1,2.33,2.33v5.77a2.56,2.56,0,0,1-2.56,2.56h0a2.56,2.56,0,0,1-2.56-2.56V20.57A2.33,2.33,0,0,1,17.71,18.24Z"/><ellipse class="cls-6" cx="23.15" cy="37.29" rx="3.61" ry="5.76"/><path class="cls-7" d="M38.22,42.79a4.22,4.22,0,0,1,3.17-3.32,3.19,3.19,0,0,1,2.93.87c.43.52.45,1.08.43,3.27,0,.9,0,2.09,0,3.51"/><path class="cls-7" d="M47.7,47.18c0-1.43,0-2.64,0-3.54,0-2.45,0-3.8-1.1-5.2a6.17,6.17,0,0,0-5.75-1.93h0a7.19,7.19,0,0,0-5.56,5.57,3,3,0,0,0,5.83,1.41,1.71,1.71,0,0,1,.61-1c0,.36,0,.77,0,1.09,0,.89,0,2.07,0,3.48,0,0,.07,3.85,3.39,3.85"/><line class="cls-8" x1="44.08" y1="26.86" x2="44.08" y2="32.06"/><path class="cls-8" d="M33.23,8.34h0A10.85,10.85,0,0,1,44.08,19.19"/></g><g id="Shadow" class="cls-9"><path d="M57.87,47.46a22.51,22.51,0,0,1-8.17.09,23,23,0,0,1-.49-4.29V21.41A18.39,18.39,0,0,0,24.55,4.08a18.39,18.39,0,0,1,12.2,17.33V43.26a23,23,0,0,0,.49,4.29q2.1,6.31,4.19,12.63c-1.25.31-2.49.58-3.73.81,7.57-.22,14.1-2.48,15-4.82a16.82,16.82,0,0,0,6.72-6.6A1.44,1.44,0,0,0,57.87,47.46Z"/></g><g id="Highligth"><path class="cls-10" d="M42.5,60.57A23.46,23.46,0,0,1,28.18,50.14c-3.57-5.56-5.09-12.25-5.33-18.86s.72-13.2,1.76-19.73a33.58,33.58,0,0,1,2-8l0,0A18.41,18.41,0,0,0,12.35,21.41c0,4-.12,7.67-.23,10.82a6.63,6.63,0,0,0-2,0h0a7.2,7.2,0,0,0-5.57,5.57,3,3,0,0,0,5.42,2.37,3.17,3.17,0,0,0,.41-1,1.61,1.61,0,0,1,.62-1c0,.35,0,.76,0,1.08s0,1,0,1.55,0,1.23,0,1.93c0,0,.05,2.65,2,3.56a17.87,17.87,0,0,0,3,6.43C21.77,60.61,33.78,61.87,42.5,60.57Z"/></g></g></g></svg>