<?xml version="1.0" encoding="iso-8859-1"?>
<!-- Generator: Adobe Illustrator 19.0.0, SVG Export Plug-In . SVG Version: 6.00 Build 0)  -->
<svg version="1.1" id="Layer_1" xmlns="http://www.w3.org/2000/svg" xmlns:xlink="http://www.w3.org/1999/xlink" x="0px" y="0px"
	 viewBox="0 0 512 512" style="enable-background:new 0 0 512 512;" xml:space="preserve">
<path style="fill:#FCD559;" d="M463.801,77.524v214.899c0,69.432-38.105,133.269-99.215,166.232l-58.579,31.582
	c-31.303,16.888-69.014,16.888-100.317,0l-58.568-31.582C86,425.692,47.907,361.855,47.907,292.423V77.524
	c0-38.198,30.967-69.165,69.165-69.165h277.553C432.834,8.359,463.801,39.326,463.801,77.524z M380.081,246.646
	c26.51-6.686,47.17-24.699,58.115-47.565c-20.486-14.938-47.205-21.008-73.715-14.323c-26.51,6.686-47.158,24.699-58.115,47.565
	C326.852,247.261,353.583,253.332,380.081,246.646z M255.854,415.362c59.705,0,108.105-48.4,108.105-108.117
	c-59.705,59.717-156.517,59.717-216.222,0C147.737,366.962,196.137,415.362,255.854,415.362z M205.341,232.323
	c-10.957-22.865-31.617-40.879-58.115-47.565c-26.51-6.686-53.24-0.615-73.726,14.323c10.957,22.865,31.605,40.879,58.115,47.565
	C158.125,253.332,184.855,247.261,205.341,232.323z"/>
<path style="fill:#E2B844;" d="M254.728,502.889c-4.48-0.046-8.96-0.371-13.406-0.987c-1.068-0.151-2.136-0.313-3.203-0.499
	c-1.068-0.186-2.124-0.383-3.192-0.592c-0.534-0.104-1.056-0.221-1.59-0.337c-1.056-0.232-2.112-0.476-3.169-0.743
	c-1.056-0.255-2.112-0.546-3.157-0.836c-1.045-0.302-2.089-0.615-3.122-0.94c-6.233-1.973-12.326-4.55-18.199-7.718l-58.568-31.582
	C86,425.692,47.907,361.855,47.907,292.423V77.524c0-38.198,30.967-69.165,69.165-69.165h42.109
	c-26.603,0-48.18,30.967-48.18,69.165v105.749c-13.638,2.298-26.475,7.765-37.501,15.808c7.916,16.528,20.904,30.514,37.501,39.533
	v53.809c0,69.432,26.533,133.269,69.118,166.232l40.786,31.582C231.479,498.408,243.075,502.633,254.728,502.889z"/>
<path d="M133.89,238.552c-11.736-2.96-22.358-8.365-31.569-16.064c-3.689-3.084-9.179-2.593-12.261,1.096
	c-3.083,3.689-2.592,9.179,1.097,12.261c11.237,9.392,24.182,15.984,38.476,19.588c7.876,1.986,15.864,2.962,23.803,2.962
	c20.34,0,40.343-6.414,57.182-18.693c3.39-2.472,4.535-7.012,2.722-10.795c-12.519-26.123-35.787-45.167-63.837-52.243
	c-28.055-7.073-57.572-1.341-80.984,15.729c-3.39,2.472-4.535,7.012-2.722,10.795c1.598,3.337,3.41,6.62,5.382,9.761
	c2.558,4.072,7.934,5.3,12.003,2.742c4.072-2.557,5.298-7.931,2.742-12.001c-0.288-0.458-0.571-0.919-0.85-1.385
	c18.064-10.742,39.596-13.95,60.172-8.761c20.572,5.191,38.01,18.226,48.822,36.244C176,240.531,154.463,243.74,133.89,238.552z"/>
<path d="M446.193,203.186c1.812-3.784,0.666-8.321-2.723-10.792c-23.41-17.07-52.92-22.803-80.972-15.729
	c-28.049,7.074-51.316,26.115-63.837,52.243c-1.814,3.784-0.669,8.323,2.722,10.795c16.841,12.28,36.838,18.693,57.175,18.693
	c7.937,0,15.927-0.977,23.798-2.963C410.42,248.356,433.688,229.311,446.193,203.186z M317.935,229.79
	c10.812-18.021,28.252-31.056,48.822-36.244c20.572-5.188,42.104-1.979,60.165,8.763c-10.802,18.018-28.24,31.052-48.823,36.243
	C357.531,243.742,336.001,240.533,317.935,229.79z"/>
<path d="M463.947,140.802c4.809,0,8.705-3.896,8.705-8.705V77.87C472.652,34.932,437.714,0,394.77,0H117.218
	c-42.937,0-77.87,34.932-77.87,77.87v214.899c0,72.736,39.769,139.368,103.789,173.894l58.565,31.581
	c17,9.172,35.644,13.756,54.293,13.756c18.644,0,37.294-4.586,54.288-13.755l58.581-31.582
	c64.018-34.531,103.788-101.165,103.788-173.894V166.917c0-4.808-3.896-8.705-8.705-8.705s-8.705,3.898-8.705,8.705v125.852
	c0,66.321-36.265,127.081-94.642,158.569l-58.582,31.583c-28.816,15.547-63.229,15.548-92.052-0.001l-58.568-31.581
	c-58.377-31.483-94.642-92.244-94.642-158.57V77.87c0-33.338,27.122-60.46,60.46-60.46h277.553c33.345,0,60.472,27.122,60.472,60.46
	v54.227C455.242,136.905,459.139,140.802,463.947,140.802z"/>
<path d="M256,424.413c64.409,0,116.81-52.406,116.81-116.822c0-3.521-2.121-6.696-5.374-8.042c-3.255-1.348-6.998-0.602-9.487,1.887
	c-27.232,27.236-63.439,42.237-101.955,42.237s-74.724-15.001-101.956-42.237c-2.491-2.49-6.235-3.236-9.487-1.887
	c-3.253,1.348-5.374,4.522-5.374,8.042C139.178,372.007,191.584,424.413,256,424.413z M255.994,361.084
	c35.527,0,69.305-11.389,97.163-32.44c-9.681,44.741-49.567,78.358-97.157,78.358c-47.596,0-87.486-33.618-97.17-78.358
	C186.689,349.696,220.466,361.084,255.994,361.084z"/>
<g>
</g>
<g>
</g>
<g>
</g>
<g>
</g>
<g>
</g>
<g>
</g>
<g>
</g>
<g>
</g>
<g>
</g>
<g>
</g>
<g>
</g>
<g>
</g>
<g>
</g>
<g>
</g>
<g>
</g>
</svg>
