<?xml version="1.0" encoding="utf-8"?>
<!-- Generator: Adobe Illustrator 22.0.1, SVG Export Plug-In . SVG Version: 6.00 Build 0)  -->
<svg version="1.1" xmlns="http://www.w3.org/2000/svg" xmlns:xlink="http://www.w3.org/1999/xlink" x="0px" y="0px"
	 viewBox="0 0 512 512" style="enable-background:new 0 0 512 512;" xml:space="preserve">
<style type="text/css">
	.st0{fill:#7585F0;stroke:#000000;stroke-width:20;stroke-linecap:round;stroke-linejoin:round;stroke-miterlimit:10;}
	.st1{fill:none;stroke:#000000;stroke-width:20;stroke-linecap:round;stroke-linejoin:round;stroke-miterlimit:10;}
	.st2{fill:#FFFFFF;}
	.st3{fill:#E4B75C;stroke:#000000;stroke-width:20;stroke-linecap:round;stroke-linejoin:round;stroke-miterlimit:10;}
	.st4{fill:#DE5A5A;stroke:#000000;stroke-width:20;stroke-linecap:round;stroke-linejoin:round;stroke-miterlimit:10;}
	.st5{fill:#D4F4FF;}
	.st6{fill:#D4F4FF;stroke:#000000;stroke-width:20;stroke-linecap:round;stroke-linejoin:round;stroke-miterlimit:10;}
	.st7{fill:#F2DF98;stroke:#000000;stroke-width:20;stroke-linecap:round;stroke-linejoin:round;stroke-miterlimit:10;}
	.st8{fill:#FFFFFF;stroke:#000000;stroke-width:20;stroke-linecap:round;stroke-linejoin:round;stroke-miterlimit:10;}
	.st9{fill:#87BF8C;stroke:#000000;stroke-width:20;stroke-linecap:round;stroke-linejoin:round;stroke-miterlimit:10;}
	.st10{fill:#7585F0;}
	.st11{fill:#EDD4B4;stroke:#000000;stroke-width:20;stroke-linecap:round;stroke-linejoin:round;stroke-miterlimit:10;}
	.st12{fill:#E4B75C;}
	.st13{fill:#AACF9A;stroke:#000000;stroke-width:20;stroke-linecap:round;stroke-linejoin:round;stroke-miterlimit:10;}
	.st14{fill:#E8C673;stroke:#000000;stroke-width:20;stroke-linecap:round;stroke-linejoin:round;stroke-miterlimit:10;}
	.st15{fill:#F2DF98;}
	.st16{fill:#D0524E;stroke:#000000;stroke-width:20;stroke-linecap:round;stroke-linejoin:round;stroke-miterlimit:10;}
	.st17{fill:#87BF8C;}
	.st18{fill:#AACF9A;}
	.st19{fill:#DE5A5A;}
	.st20{fill:#E8C673;}
	.st21{fill:#7ACBAA;}
	.st22{fill:#EFCDC2;}
	.st23{fill:#6B7DFA;stroke:#000000;stroke-width:20;stroke-linecap:round;stroke-linejoin:round;stroke-miterlimit:10;}
</style>
<g id="GUIDELINES">
</g>
<g id="ICON_1_">
	<g>
		<g>
			<g>
				<path class="st22" d="M61.1,228.8l27.8,20.9l0,41.2h77.2v-51.3c0,0,67.6-5.6,67.6-48.8v-77.5c0-15.5-17.9-24.1-30-14.5l-2.4,1.9
					v45.6v-45.6V39.8c0-10.8-8.7-19.5-19.5-19.5l0,0c-10.8,0-19.5,8.7-19.5,19.5V28c0-0.2,0,103.3,0,103.3V28
					c-0.7-10.1-9.3-18-19.6-18c-10.3,0-18.8,7.9-19.6,18c-0.7-10.1-9.2-18-19.4-18c-5.4,0-10.3,2.2-13.8,5.7
					c-3.2,3.2-5.3,7.5-5.6,12.3l-0.1,20.7c-0.7-10.3-9.5-18.3-20-18C53.8,31,45.7,39.4,45.2,49.6l0,147.2
					C45.2,209.3,51.1,221.2,61.1,228.8z"/>
			</g>
			<g>
				<path class="st1" d="M166.1,239.6c0,0,67.6-5.6,67.6-48.8v-77.5c0-15.5-17.9-24.1-30-14.5l-2.4,1.9v45.6v-45.6V39.8
					c0-10.8-8.7-19.5-19.5-19.5l0,0c-10.8,0-19.5,8.7-19.5,19.5V28c0-0.2,0,103.3,0,103.3V28c-0.7-10.1-9.3-18-19.6-18
					c-10.3,0-18.8,7.9-19.6,18c-0.7-10.1-9.2-18-19.4-18c-5.4,0-10.3,2.2-13.8,5.7c-3.2,3.2-5.3,7.5-5.6,12.3l-0.1,20.7
					c-0.7-10.3-9.5-18.3-20-18C53.8,31,45.7,39.4,45.2,49.6l0,147.2c0,12.6,5.9,24.5,16,32.1l27.8,20.9l0,41.2h58.9"/>
			</g>
			<line class="st1" x1="123.1" y1="28" x2="123.1" y2="130.6"/>
			<line class="st1" x1="84" y1="48.9" x2="84" y2="130.6"/>
			<path class="st8" d="M176.3,340.3H77.6v-35.9c0-7.4,6-13.5,13.5-13.5h71.7c7.4,0,13.5,6,13.5,13.5V340.3z"/>
			<path class="st23" d="M68,482.9v-129c0-7.4,6-13.5,13.5-13.5h91c7.4,0,13.5,6,13.5,13.5v129h-62.8"/>
		</g>
		<g>
			<g>
				<path class="st22" d="M298.5,302l27.1,20.4l0,40.2h75.4v-50.1c0,0,65.9-5.5,65.9-47.6v-75.6c0-15.1-17.5-23.6-29.3-14.1
					l-2.3,1.9v44.5v-44.5v-59.4c0-10.5-8.5-19-19-19l0,0c-10.5,0-19,8.5-19,19v-11.5c0-0.2,0,100.8,0,100.8V106.1
					c-0.7-9.8-9.1-17.6-19.1-17.6c-10,0-18.4,7.7-19.1,17.6c-0.7-9.8-8.9-17.6-19-17.6c-5.3,0-10,2.1-13.5,5.6
					c-3.1,3.1-5.2,7.3-5.5,12l-0.1,20.2c-0.7-10-9.2-17.9-19.5-17.6c-10,0.3-17.9,8.5-18.5,18.4l0,143.6
					C282.9,283,288.6,294.6,298.5,302z"/>
			</g>
			<g>
				<path class="st1" d="M400.9,312.6c0,0,65.9-5.5,65.9-47.6v-75.6c0-15.1-17.5-23.6-29.3-14.1l-2.3,1.9v44.5v-44.5v-59.4
					c0-10.5-8.5-19-19-19l0,0c-10.5,0-19,8.5-19,19v-11.5c0-0.2,0,100.8,0,100.8V106.1c-0.7-9.8-9.1-17.6-19.1-17.6
					c-10,0-18.4,7.7-19.1,17.6c-0.7-9.8-8.9-17.6-19-17.6c-5.3,0-10,2.1-13.5,5.6c-3.1,3.1-5.2,7.3-5.5,12l-0.1,20.2
					c-0.7-10-9.2-17.9-19.5-17.6c-10,0.3-17.9,8.5-18.5,18.4l0,143.6c0,12.3,5.8,23.9,15.6,31.3l27.1,20.4l0,40.2H383"/>
			</g>
			<line class="st1" x1="358.9" y1="106.1" x2="358.9" y2="206.2"/>
			<line class="st1" x1="320.8" y1="126.5" x2="320.8" y2="206.2"/>
			<path class="st8" d="M410.8,410.9h-96.3v-35c0-7.3,5.9-13.1,13.1-13.1h70c7.3,0,13.1,5.9,13.1,13.1V410.9z"/>
			<path class="st4" d="M305.1,502v-78c0-7.3,5.9-13.1,13.1-13.1h88.8c7.3,0,13.1,5.9,13.1,13.1v78h-61.3"/>
		</g>
	</g>
</g>
</svg>
