<?xml version="1.0" encoding="utf-8"?>
<!-- Generator: Adobe Illustrator 19.0.0, SVG Export Plug-In . SVG Version: 6.00 Build 0)  -->
<svg version="1.1" id="icons" xmlns="http://www.w3.org/2000/svg" xmlns:xlink="http://www.w3.org/1999/xlink" x="0px" y="0px"
	 viewBox="0 0 64 64" style="enable-background:new 0 0 64 64;" xml:space="preserve">
<style type="text/css">
	.st0{display:none;}
	.st1{display:inline;fill:none;stroke:#414042;stroke-miterlimit:10;}
	.st2{display:inline;fill:#A7A9AC;}
	.st3{display:inline;fill:#BCBEC0;}
	.st4{display:inline;fill:#D1D3D4;}
	.st5{display:inline;fill:none;stroke:#414042;stroke-miterlimit:10;stroke-dasharray:1;}
	.st6{display:inline;fill:#F5AB35;}
	.st7{display:inline;fill:#36D7B7;}
	.st8{display:inline;fill:#414042;}
	.st9{display:inline;fill:#F1F2F2;}
	.st10{display:inline;fill:#86E7D4;}
	.st11{display:inline;fill:#FFFFFF;}
	.st12{display:inline;}
	.st13{fill:#A7A9AC;}
	.st14{fill:#414042;}
	.st15{display:inline;fill:#F7BC5D;}
	.st16{fill:none;stroke:#414042;stroke-miterlimit:10;}
	.st17{display:inline;fill:none;stroke:#36D7B7;stroke-miterlimit:10;}
	.st18{fill:#E6E7E8;}
	.st19{display:inline;fill:#E6E7E8;}
	.st20{display:inline;fill:#5EDFC5;}
	.st21{fill:#F1F2F2;}
	.st22{fill:#FFFFFF;}
	.st23{fill:#F5AB35;}
	.st24{fill:#36D7B7;}
	.st25{fill:#29A189;}
	.st26{display:inline;fill:#29A189;}
	.st27{display:inline;fill:#36D7B7;stroke:#414042;stroke-miterlimit:10;}
	.st28{fill:#D1D3D4;}
	.st29{fill:#86E7D4;}
	.st30{fill:#F9CD86;}
	.st31{fill:#58595B;}
	.st32{opacity:0.26;fill:#231F20;}
	.st33{fill:none;stroke:#414042;stroke-linecap:round;stroke-miterlimit:10;}
	.st34{display:inline;fill:none;}
</style>
<g id="XMLID_55_" class="st0">
	<line id="XMLID_52_" class="st1" x1="12.1" y1="13.1" x2="34.7" y2="13.1"/>
	<line id="XMLID_13_" class="st1" x1="18.5" y1="16.4" x2="30.7" y2="16.4"/>
	<line id="XMLID_53_" class="st1" x1="22.4" y1="19.6" x2="28.1" y2="19.6"/>
	<line id="XMLID_434_" class="st1" x1="30.7" y1="33" x2="26.9" y2="36.8"/>
	<path id="XMLID_431_" class="st2" d="M30.2,15.4c-5,5-5,13.1,0,18.1s13.1,5,18.1,0c5-5,5-13.1,0-18.1
		C43.3,10.4,35.2,10.4,30.2,15.4z M31.2,16.4c4.4-4.4,11.6-4.4,16.1,0c4.4,4.4,4.4,11.6,0,16.1c-4.4,4.4-11.6,4.4-16.1,0
		C26.8,28,26.8,20.8,31.2,16.4z"/>
	<path id="XMLID_429_" class="st3" d="M29.8,37.4L15.6,51.6c-1,1-2.6,1-3.6,0l16-16L29.8,37.4z"/>
	<path id="XMLID_428_" class="st4" d="M28,35.7l-16,16c-1-1-1-2.6,0-3.6l14.2-14.2L28,35.7z"/>
	<line id="XMLID_427_" class="st1" x1="27.3" y1="40.1" x2="23.6" y2="36.4"/>
	<line id="XMLID_426_" class="st1" x1="25.8" y1="41.7" x2="22" y2="37.9"/>
	<path id="XMLID_236_" class="st5" d="M52.7,30.6c-0.7,1.7-1.8,3.3-3.1,4.6c-1.3,1.3-2.8,2.3-4.6,3.1c-1.7,0.7-3.6,1.1-5.6,1.1
		c-2,0-3.9-0.4-5.6-1.1"/>
	<polygon id="XMLID_54_" class="st6" points="39.6,23.6 39.6,23.6 39.6,23.6 	"/>
	<path id="XMLID_46_" class="st6" d="M39.5,13.9v10.3l0,0l7.3,7.3c1.9-1.9,3-4.4,3-7.3c0,0,0,0,0,0C49.8,18.5,45.2,13.9,39.5,13.9z"
		/>
	<path id="XMLID_48_" class="st7" d="M31.7,16.9c-1.9,1.9-3,4.4-3,7.3l10.3,0v0V13.9C36.2,13.9,33.6,15,31.7,16.9z"/>
	<path id="XMLID_47_" class="st8" d="M39,24.7L39,24.7l-10.3,0c0,0,0,0,0,0C28.7,30.4,33.3,35,39,35c2.8,0,5.4-1.2,7.3-3L39,24.7z"
		/>
</g>
<g id="XMLID_75_" class="st0">
	<rect id="XMLID_56_" x="19.9" y="13.8" class="st9" width="24.6" height="34.5"/>
	<polyline id="XMLID_76_" class="st1" points="20.5,44.1 20.5,13.8 44,13.8 44,45.5 	"/>
	<rect id="XMLID_57_" x="23.4" y="17.3" class="st6" width="17.9" height="5.9"/>
	<rect id="XMLID_73_" x="13.5" y="47.7" class="st10" width="2.9" height="1.8"/>
	<rect id="XMLID_74_" x="13.5" y="47.7" class="st1" width="2.9" height="1.8"/>
	<line id="XMLID_72_" class="st1" x1="48.2" y1="48.6" x2="50.5" y2="48.6"/>
	<polyline id="XMLID_71_" class="st1" points="29.8,45.5 16.5,45.5 16.5,47.3 	"/>
	<path id="XMLID_70_" class="st11" d="M45.7,50.2H16.4v-3.1h29.3l3.9,1.5c0.1,0,0.1,0.1,0,0.2L45.7,50.2z"/>
	<rect id="XMLID_69_" x="16.4" y="47.1" class="st9" width="29.3" height="3.1"/>
	<rect id="XMLID_63_" x="32.2" y="47.1" class="st7" width="9.9" height="3.1"/>
	<rect id="XMLID_68_" x="32.2" y="47.1" class="st10" width="9.9" height="1.6"/>
	<path id="XMLID_66_" class="st1" d="M45.7,50.2H16.4v-3.1h29.3l3.9,1.5c0.1,0,0.1,0.1,0,0.2L45.7,50.2z"/>
	<line id="XMLID_65_" class="st1" x1="32.2" y1="47.3" x2="32.2" y2="50"/>
	<line id="XMLID_67_" class="st1" x1="41.6" y1="47.3" x2="41.6" y2="50"/>
	<line id="XMLID_64_" class="st1" x1="45.7" y1="47.3" x2="45.7" y2="50"/>
	<g id="XMLID_58_" class="st12">
		<circle id="XMLID_823_" class="st13" cx="27.4" cy="28.7" r="4.1"/>
		<path id="XMLID_883_" class="st14" d="M27.3,30.6v-1.5h-1.5v-0.7h1.5v-1.5H28v1.5h1.5v0.7H28v1.5H27.3z"/>
	</g>
	<g id="XMLID_60_" class="st12">
		<circle id="XMLID_862_" class="st13" cx="27.4" cy="39.5" r="4.1"/>
		<path id="XMLID_895_" class="st14" d="M28.5,41.1L27.4,40l-1.1,1.1l-0.5-0.5l1.1-1.1l-1-1l0.5-0.5l1,1l1.1-1.1l0.5,0.5l-1.1,1.1
			l1.1,1.1L28.5,41.1z"/>
	</g>
	<g id="XMLID_59_" class="st12">
		<circle id="XMLID_824_" class="st13" cx="37.2" cy="28.7" r="4.1"/>
		<path id="XMLID_885_" class="st14" d="M36.1,29.1v-0.8h2.6v0.8H36.1z"/>
	</g>
	<g id="XMLID_62_" class="st12">
		<g id="XMLID_61_">
			<circle id="XMLID_861_" class="st13" cx="37.2" cy="39.5" r="4.1"/>
			<path id="XMLID_863_" class="st14" d="M35.9,39.9v-0.8h2.6v0.8H35.9z"/>
		</g>
		<circle id="XMLID_892_" class="st14" cx="37.2" cy="37.9" r="0.6"/>
		<circle id="XMLID_893_" class="st14" cx="37.2" cy="41.1" r="0.6"/>
	</g>
</g>
<g id="XMLID_122_" class="st0">
	<polygon id="XMLID_93_" class="st4" points="30.3,13.2 28.9,14.3 28.3,13.2 27.1,14.3 26.3,13.2 25.5,14.3 24.4,13.2 23.6,14.3 
		22.6,13.2 22.1,14.3 20.7,13.2 22.7,19.1 28.8,19.1 	"/>
	<path id="XMLID_90_" class="st4" d="M36.6,50.8H15c-0.9,0-1.6-0.7-1.6-1.6V33.5c0-3.1,1.2-6.1,3.3-8.4l6.1-6.1h6.1l6.1,6.1
		c2.1,2.3,3.3,5.3,3.3,8.4v15.6C38.3,50,37.6,50.8,36.6,50.8z"/>
	<path id="XMLID_115_" class="st1" d="M13.8,48.5v-15c0-3,1.1-5.9,3.2-8.1l5.9-5.8h5.9l5.9,5.8c2,2.2,3.2,5.1,3.2,8.1"/>
	<line id="XMLID_92_" class="st1" x1="21.6" y1="18.1" x2="29.5" y2="18.1"/>
	<line id="XMLID_114_" class="st1" x1="21.6" y1="16.7" x2="29.5" y2="16.7"/>
	<path id="XMLID_91_" class="st1" d="M29.3,19.3c0.8,0.8,0.8,2,0,2.8c-0.8,0.8-2,0.8-2.8,0c-0.8-0.8-0.9-3.1-0.9-3.1
		S28.5,18.6,29.3,19.3z"/>
	<path id="XMLID_94_" class="st1" d="M21.7,19.3c-0.8,0.8-0.8,2,0,2.8c0.8,0.8,2,0.8,2.8,0c0.8-0.8,0.9-3.1,0.9-3.1
		S22.5,18.6,21.7,19.3z"/>
	<circle id="XMLID_95_" class="st9" cx="25.8" cy="34.9" r="7"/>
	<g id="XMLID_97_" class="st12">
		<path id="XMLID_98_" class="st14" d="M25.5,39.9V39c-1.1-0.1-2.1-0.5-3-1.3l0.9-1c0.7,0.6,1.4,0.9,2.1,1v-2.3
			c-0.9-0.2-1.6-0.5-2-0.9c-0.4-0.4-0.6-0.9-0.6-1.6s0.2-1.3,0.7-1.7c0.5-0.4,1.1-0.7,1.9-0.7v-0.6h0.8v0.6c0.9,0.1,1.7,0.4,2.5,0.9
			L28,32.5c-0.5-0.4-1.1-0.6-1.7-0.7v2.3h0c0.9,0.2,1.6,0.5,2,0.9c0.4,0.4,0.6,0.9,0.6,1.6c0,0.7-0.2,1.3-0.7,1.7
			c-0.5,0.4-1.2,0.7-2,0.7v0.9H25.5z M24.7,32.1c-0.2,0.2-0.3,0.4-0.3,0.7c0,0.3,0.1,0.5,0.2,0.6c0.2,0.2,0.5,0.3,0.9,0.5v-2.1
			C25.2,31.8,24.9,31.9,24.7,32.1z M27.2,37.4c0.2-0.2,0.3-0.4,0.3-0.7c0-0.3-0.1-0.5-0.3-0.7c-0.2-0.2-0.5-0.3-1-0.5v2.2
			C26.7,37.7,27,37.6,27.2,37.4z"/>
	</g>
	<rect id="XMLID_113_" x="28.8" y="36.4" class="st15" width="20.6" height="3.5"/>
	<rect id="XMLID_112_" x="30" y="39.9" class="st6" width="20.6" height="3.5"/>
	<rect id="XMLID_111_" x="28" y="43.4" class="st15" width="20.6" height="3.5"/>
	<rect id="XMLID_110_" x="29.4" y="47" class="st6" width="20.6" height="3.5"/>
	<line id="XMLID_109_" class="st1" x1="31.5" y1="36.4" x2="31.5" y2="39.9"/>
	<line id="XMLID_108_" class="st1" x1="33.3" y1="36.4" x2="33.3" y2="39.9"/>
	<line id="XMLID_107_" class="st1" x1="44.9" y1="39.9" x2="44.9" y2="43.4"/>
	<line id="XMLID_106_" class="st1" x1="46.6" y1="39.9" x2="46.6" y2="43.4"/>
	<line id="XMLID_105_" class="st1" x1="45.7" y1="47" x2="45.7" y2="50.5"/>
	<line id="XMLID_104_" class="st1" x1="47.5" y1="47" x2="47.5" y2="50.5"/>
	<line id="XMLID_103_" class="st1" x1="11" y1="50.8" x2="53" y2="50.8"/>
	<line id="XMLID_102_" class="st1" x1="30" y1="43.4" x2="30" y2="47"/>
	<line id="XMLID_96_" class="st1" x1="31.8" y1="43.4" x2="31.8" y2="47"/>
	<g id="XMLID_1284_" class="st12">
		<line id="XMLID_1286_" class="st16" x1="44.1" y1="33.3" x2="47.4" y2="33.3"/>
		<line id="XMLID_1285_" class="st16" x1="45.7" y1="34.9" x2="45.7" y2="31.6"/>
	</g>
	<g id="XMLID_116_" class="st12">
		<line id="XMLID_120_" class="st16" x1="39.1" y1="29.6" x2="42.4" y2="29.6"/>
		<line id="XMLID_118_" class="st16" x1="40.8" y1="31.2" x2="40.8" y2="27.9"/>
	</g>
	<line id="XMLID_117_" class="st1" x1="45.7" y1="21.1" x2="45.7" y2="29.9"/>
	<line id="XMLID_121_" class="st1" x1="40.8" y1="15.8" x2="40.8" y2="26.9"/>
</g>
<g id="XMLID_146_" class="st0">
	<path id="XMLID_243_" class="st4" d="M51,48.3H12.8c-0.6,0-1-0.5-1-1V24.3c0-0.5,0.4-1,1-1H51c0.6,0,1,0.5,1,1v22.9
		C52,47.8,51.6,48.3,51,48.3z"/>
	<path id="XMLID_126_" class="st1" d="M41.3,23.3H51c0.6,0,1,0.5,1,1v19.4"/>
	<path id="XMLID_123_" class="st1" d="M11.8,44.3V24.3c0-0.5,0.4-1,1-1h24.7"/>
	<rect id="XMLID_242_" x="13.7" y="25.6" class="st11" width="36.1" height="19.5"/>
	<path id="XMLID_241_" class="st9" d="M51.5,49.6H12.2c-0.9,0-1.7-0.7-1.9-1.6l-0.3-1.7h43.9l-0.2,1.5
		C53.5,48.8,52.6,49.6,51.5,49.6z"/>
	<path id="XMLID_240_" class="st1" d="M51.5,49.6H12.2c-0.9,0-1.7-0.7-1.9-1.6l-0.3-1.7h43.9l-0.2,1.5
		C53.5,48.8,52.6,49.6,51.5,49.6z"/>
	<polyline id="XMLID_125_" class="st17" points="42.6,15.3 45.7,14.4 46.5,17.4 	"/>
	<polyline id="XMLID_124_" class="st17" points="13.7,43.1 15.3,43.1 17.2,36.1 19.2,39.9 23.7,29.1 28.4,39.4 45.4,15.1 	"/>
	<g id="XMLID_130_" class="st12">
		<rect id="XMLID_132_" x="43.1" y="29.9" class="st18" width="5.6" height="0.6"/>
	</g>
	<g id="XMLID_131_" class="st12">
		<rect id="XMLID_133_" x="43.1" y="31.7" class="st18" width="5.6" height="0.6"/>
	</g>
	<g id="XMLID_134_" class="st12">
		<rect id="XMLID_135_" x="43.1" y="33.5" class="st18" width="5.6" height="0.6"/>
	</g>
	<g id="XMLID_136_" class="st12">
		<rect id="XMLID_137_" x="43.1" y="35.2" class="st18" width="3.5" height="0.6"/>
	</g>
	<g id="XMLID_138_" class="st12">
		<rect id="XMLID_139_" x="36.4" y="37.5" class="st18" width="12.2" height="0.6"/>
	</g>
	<g id="XMLID_140_" class="st12">
		<rect id="XMLID_141_" x="36.4" y="39.1" class="st18" width="12.2" height="0.6"/>
	</g>
	<g id="XMLID_142_" class="st12">
		<rect id="XMLID_143_" x="36.4" y="40.7" class="st18" width="12.2" height="0.6"/>
	</g>
	<g id="XMLID_144_" class="st12">
		<rect id="XMLID_145_" x="36.4" y="42.2" class="st18" width="7.3" height="0.6"/>
	</g>
	<rect id="XMLID_129_" x="36.4" y="29.9" class="st19" width="5.9" height="5.9"/>
</g>
<g id="XMLID_1_" class="st0">
	<path id="XMLID_1289_" class="st1" d="M27.3,40.3V33c0-2.6,2.1-4.7,4.7-4.7"/>
	<rect id="XMLID_913_" x="14.5" y="16" class="st7" width="34.3" height="15.4"/>
	<line id="XMLID_155_" class="st1" x1="34.2" y1="31.4" x2="29.6" y2="31.4"/>
	<polyline id="XMLID_152_" class="st1" points="25.8,31.4 14.5,31.4 14.5,16 48.8,16 48.8,31.4 38.6,31.4 	"/>
	<circle id="XMLID_923_" class="st10" cx="31.5" cy="23.7" r="5.4"/>
	<line id="XMLID_925_" class="st1" x1="18.1" y1="23.7" x2="24" y2="23.7"/>
	<line id="XMLID_924_" class="st1" x1="39.1" y1="23.7" x2="44.9" y2="23.7"/>
	<g id="XMLID_927_" class="st12">
		<path id="XMLID_928_" class="st14" d="M31.4,26.8v-0.5c-0.7-0.1-1.3-0.3-1.8-0.8l0.5-0.7c0.4,0.4,0.9,0.6,1.3,0.7V24
			c-0.6-0.1-1-0.3-1.2-0.5c-0.3-0.2-0.4-0.5-0.4-1c0-0.4,0.2-0.8,0.5-1.1c0.3-0.3,0.7-0.4,1.2-0.5v-0.4h0.5V21
			c0.6,0,1.1,0.2,1.6,0.6l-0.5,0.7c-0.3-0.2-0.7-0.4-1.1-0.4v1.4h0c0.6,0.1,1,0.3,1.3,0.5c0.3,0.2,0.4,0.6,0.4,1s-0.2,0.8-0.5,1.1
			c-0.3,0.3-0.7,0.4-1.2,0.5v0.5H31.4z M30.8,22c-0.1,0.1-0.2,0.3-0.2,0.4c0,0.2,0.1,0.3,0.2,0.4c0.1,0.1,0.3,0.2,0.6,0.3v-1.3
			C31.1,21.8,31,21.8,30.8,22z M32.4,25.2c0.1-0.1,0.2-0.3,0.2-0.4c0-0.2-0.1-0.3-0.2-0.4c-0.1-0.1-0.3-0.2-0.6-0.3v1.4
			C32.1,25.4,32.3,25.4,32.4,25.2z"/>
	</g>
	<path id="XMLID_153_" class="st1" d="M31.9,28.4L31.9,28.4c2.6,0,4.7,2.1,4.7,4.7v7.3"/>
	<path id="XMLID_1288_" class="st15" d="M37.2,48H26.5c-0.5,0-1-0.5-1-1V36.3c0-0.6,0.5-1,1-1h10.7c0.5,0,1,0.4,1,1V47
		C38.2,47.6,37.8,48,37.2,48z"/>
	<path id="XMLID_1295_" class="st6" d="M37.6,35.3v11.4c0,0.4-0.3,0.7-0.7,0.7H25.5c0,0.4,0.3,0.7,0.7,0.7h11.4
		c0.4,0,0.7-0.3,0.7-0.7V36C38.2,35.6,37.9,35.3,37.6,35.3z"/>
	<circle id="XMLID_1290_" class="st8" cx="31.9" cy="40.1" r="1.6"/>
	<path id="XMLID_1291_" class="st8" d="M31.9,44.6L31.9,44.6c-0.4,0-0.7-0.3-0.7-0.7v-3c0-0.4,0.3-0.7,0.7-0.7l0,0
		c0.4,0,0.7,0.3,0.7,0.7v3C32.6,44.3,32.2,44.6,31.9,44.6z"/>
	<line id="XMLID_1299_" class="st1" x1="50.5" y1="38.3" x2="39.5" y2="38.3"/>
	<line id="XMLID_1298_" class="st1" x1="45.7" y1="41.5" x2="39.5" y2="41.5"/>
	<line id="XMLID_1297_" class="st1" x1="42.6" y1="44.7" x2="39.5" y2="44.7"/>
	<line id="XMLID_158_" class="st1" x1="13.5" y1="38.3" x2="24.5" y2="38.3"/>
	<line id="XMLID_157_" class="st1" x1="18.3" y1="41.5" x2="24.5" y2="41.5"/>
	<line id="XMLID_156_" class="st1" x1="21.4" y1="44.7" x2="24.5" y2="44.7"/>
</g>
<g id="XMLID_208_" class="st0">
	<g id="XMLID_162_" class="st12">
		<line id="XMLID_206_" class="st16" x1="36.3" y1="15.4" x2="39" y2="15.4"/>
		<line id="XMLID_205_" class="st16" x1="37.6" y1="16.7" x2="37.6" y2="14"/>
	</g>
	<g id="XMLID_176_" class="st12">
		<line id="XMLID_178_" class="st16" x1="44.4" y1="15" x2="47.1" y2="15"/>
		<line id="XMLID_177_" class="st16" x1="45.8" y1="16.3" x2="45.8" y2="13.6"/>
	</g>
	<path id="XMLID_866_" class="st11" d="M20.8,50V23c0-0.7,0.6-1.3,1.3-1.3h21.5c0.7,0,1.3,0.6,1.3,1.3v27H20.8z"/>
	<line id="XMLID_165_" class="st1" x1="44.8" y1="34" x2="44.8" y2="50"/>
	<path id="XMLID_164_" class="st1" d="M20.8,50V23c0-0.7,0.6-1.3,1.3-1.3h12.3"/>
	<line id="XMLID_161_" class="st1" x1="29.7" y1="24.3" x2="35.9" y2="24.3"/>
	<rect id="XMLID_160_" x="22.6" y="26.4" class="st19" width="20.4" height="23.5"/>
	<polygon id="XMLID_159_" class="st3" points="42,26.4 42,48.9 22.6,48.9 22.6,49.9 43,49.9 43,26.4 	"/>
	<path id="XMLID_854_" class="st6" d="M42.7,35.7l2.4-3.4c1-0.4,1.9-1,2.7-1.8c3-3,3-8,0-11c-3-3-8-3-11,0c-3,3-3,8,0,11
		c1.1,1.1,2.4,1.8,3.8,2.1L42.7,35.7z"/>
	<g id="XMLID_846_" class="st12">
		<path id="XMLID_847_" class="st14" d="M42.1,28.3v-0.6c-0.7-0.1-1.4-0.4-2-0.9l0.6-0.7c0.4,0.4,0.9,0.6,1.4,0.7v-1.5
			c-0.6-0.1-1-0.3-1.3-0.6c-0.3-0.2-0.4-0.6-0.4-1c0-0.5,0.2-0.8,0.5-1.1c0.3-0.3,0.7-0.4,1.2-0.5v-0.4h0.5v0.4
			c0.6,0,1.1,0.2,1.6,0.6l-0.5,0.7C43.4,23.2,43,23,42.6,23v1.5h0c0.6,0.1,1.1,0.3,1.3,0.6c0.3,0.2,0.4,0.6,0.4,1.1
			s-0.2,0.8-0.5,1.1c-0.3,0.3-0.8,0.4-1.3,0.5v0.6H42.1z M41.6,23.1c-0.1,0.1-0.2,0.3-0.2,0.4c0,0.2,0.1,0.3,0.2,0.4
			c0.1,0.1,0.3,0.2,0.6,0.3v-1.4C41.9,23,41.7,23,41.6,23.1z M43.2,26.6c0.1-0.1,0.2-0.3,0.2-0.5c0-0.2-0.1-0.3-0.2-0.4
			c-0.1-0.1-0.3-0.2-0.7-0.3v1.4C42.9,26.8,43.1,26.7,43.2,26.6z"/>
	</g>
	<line id="XMLID_838_" class="st1" x1="14.4" y1="17.8" x2="31.5" y2="17.8"/>
	<line id="XMLID_222_" class="st1" x1="19" y1="15.4" x2="32.8" y2="15.4"/>
	<line id="XMLID_207_" class="st1" x1="35" y1="15.4" x2="33.8" y2="15.4"/>
	<polygon id="XMLID_168_" class="st7" points="22.6,43.6 22.6,50.4 27,50.4 27,39.9 	"/>
	<polygon id="XMLID_169_" class="st7" points="30.8,41.6 30.8,41.6 30.8,50.4 35.9,50.3 35.9,37.8 	"/>
	<polygon id="XMLID_170_" class="st20" points="27,39.9 27,39.9 27,50.4 30.8,50.4 30.8,41.6 	"/>
	<polygon id="XMLID_171_" class="st7" points="43,36.2 39,39.6 39,50.3 43,50.3 	"/>
	<polygon id="XMLID_172_" class="st20" points="39,39.6 35.9,37.8 35.9,50.3 39,50.3 39,39.6 	"/>
	<line id="XMLID_851_" class="st1" x1="13.8" y1="50.3" x2="50.2" y2="50.3"/>
	<polyline id="XMLID_163_" class="st1" points="43,36.4 42.7,36.4 39,39.6 35.9,37.8 30.8,41.6 27,39.9 23,43.3 22.6,43.3 	"/>
</g>
<g id="XMLID_237_">
	<polygon id="XMLID_232_" class="st21" points="34.1,47.8 29.9,47.8 30.9,17.3 33.1,17.3 	"/>
	<polygon id="XMLID_234_" class="st22" points="34.1,47.8 32.1,47.8 32.1,17.3 33.5,17.3 	"/>
	<polygon id="XMLID_230_" class="st16" points="34.1,47.8 29.9,47.8 30.9,17.3 33.1,17.3 	"/>
	<line id="XMLID_218_" class="st16" x1="32" y1="13.5" x2="32" y2="18.2"/>
	<line id="XMLID_219_" class="st16" x1="18" y1="18.2" x2="46" y2="18.2"/>
	<circle id="XMLID_210_" class="st23" cx="32" cy="18" r="2.4"/>
	<circle id="XMLID_216_" class="st16" cx="32" cy="18" r="2.4"/>
	<line id="XMLID_224_" class="st16" x1="48.9" y1="31.9" x2="43.5" y2="16.9"/>
	<line id="XMLID_223_" class="st16" x1="39.1" y1="31.9" x2="45" y2="16.9"/>
	<path id="XMLID_217_" class="st24" d="M50.8,31.3c0,3.7-3,6.7-6.7,6.7s-6.7-3-6.7-6.7H50.8z"/>
	<path id="XMLID_213_" class="st25" d="M49.9,31.3c0,3.5-2.8,6.3-6.3,6.3c-3.3,0-5.9-2.5-6.3-5.6c0.3,3.4,3.2,6.1,6.7,6.1
		c3.7,0,6.7-3,6.7-6.7H49.9z"/>
	<line id="XMLID_226_" class="st16" x1="15.1" y1="31.9" x2="20.5" y2="16.9"/>
	<line id="XMLID_221_" class="st16" x1="24.9" y1="31.9" x2="19" y2="16.9"/>
	<path id="XMLID_220_" class="st24" d="M13.2,31.3c0,3.7,3,6.7,6.7,6.7c3.7,0,6.7-3,6.7-6.7H13.2z"/>
	<path id="XMLID_212_" class="st25" d="M14.1,31.3c0,3.5,2.8,6.3,6.3,6.3c3.3,0,5.9-2.5,6.3-5.6c-0.3,3.4-3.2,6.1-6.7,6.1
		c-3.7,0-6.7-3-6.7-6.7H14.1z"/>
	<path id="XMLID_225_" class="st18" d="M44.3,50.5H19.7v-1.2c0-0.8,0.7-1.5,1.5-1.5h21.6c0.8,0,1.5,0.7,1.5,1.5V50.5z"/>
	<path id="XMLID_209_" class="st16" d="M44.3,50.5H19.7v-1.2c0-0.8,0.7-1.5,1.5-1.5h21.6c0.8,0,1.5,0.7,1.5,1.5V50.5z"/>
	<circle id="XMLID_227_" class="st23" cx="44.1" cy="18.2" r="1.8"/>
	<circle id="XMLID_211_" class="st16" cx="44.1" cy="18.2" r="1.8"/>
	<circle id="XMLID_229_" class="st23" cx="19.9" cy="18.2" r="1.8"/>
	<circle id="XMLID_228_" class="st16" cx="19.9" cy="18.2" r="1.8"/>
</g>
<g id="XMLID_266_" class="st0">
	<path id="XMLID_239_" class="st3" d="M46.6,18.3H16.5c-1.6,0-3,1.3-3,3l0,0c0,1.6,1.3,3,3,3h30.1V18.3z"/>
	<polyline id="XMLID_246_" class="st1" points="46.2,19.9 46.2,18.7 17.7,18.7 	"/>
	<rect id="XMLID_264_" x="18.2" y="20.8" class="st26" width="32.6" height="21.1"/>
	<rect id="XMLID_247_" x="17.2" y="22.3" class="st7" width="32.6" height="21.1"/>
	<path id="XMLID_238_" class="st6" d="M48.4,45.7l-30.6,0c-2.6,0-4.6-2.1-4.6-4.6l0.3-20.1c0,2,1,3,4.2,2.9h30.8V45.7z"/>
	<rect id="XMLID_249_" x="40.9" y="31.9" class="st6" width="8.9" height="5.6"/>
	<rect id="XMLID_248_" x="40.9" y="31.9" class="st1" width="8.9" height="5.6"/>
	<line id="XMLID_252_" class="st1" x1="47.9" y1="45.7" x2="47.9" y2="38.8"/>
	<line id="XMLID_244_" class="st1" x1="13.7" y1="40.6" x2="13.7" y2="21.8"/>
	<circle id="XMLID_251_" class="st8" cx="43.5" cy="34.7" r="1.1"/>
	<line id="XMLID_253_" class="st1" x1="19" y1="27.8" x2="44.8" y2="27.8"/>
	<line id="XMLID_245_" class="st1" x1="19" y1="42.9" x2="44.8" y2="42.9"/>
	<path id="XMLID_265_" class="st1" d="M23.7,18.7h-7.1c-1.6,0-2.8,1.3-2.8,2.8l0,0c0,1.6,1.3,2.8,2.8,2.8h31.4v6"/>
</g>
<g id="XMLID_296_" class="st0">
	<path id="XMLID_1329_" class="st11" d="M52.3,31.5c0,0-9.1,10.8-20.3,10.8c-11.2,0-20.3-10.8-20.3-10.8S20.8,20.7,32,20.7
		C43.2,20.7,52.3,31.5,52.3,31.5z"/>
	<path id="XMLID_1328_" class="st1" d="M52.3,31.5c0,0-9.1,10.8-20.3,10.8c-11.2,0-20.3-10.8-20.3-10.8S20.8,20.7,32,20.7
		C43.2,20.7,52.3,31.5,52.3,31.5z"/>
	<circle id="XMLID_1323_" class="st11" cx="31.9" cy="31.4" r="4.2"/>
	<path id="XMLID_267_" class="st27" d="M43.8,29.2l-2.1,0c-0.3-1.1-0.7-2.1-1.3-3.1l1.5-1.5c0.5-0.5,0.5-1.4,0-1.9l-1.1-1.1
		c-0.5-0.5-1.4-0.5-1.9,0l-1.5,1.5c-0.9-0.6-2-1-3-1.3v-2.1c0-0.8-0.6-1.4-1.4-1.4h-1.6c-0.8,0-1.4,0.6-1.4,1.4v2.1
		c-1.1,0.2-2.1,0.7-3,1.2l-1.5-1.5c-0.5-0.5-1.4-0.5-1.9,0l-1.1,1.1c-0.5,0.5-0.5,1.4,0,1.9l1.5,1.5c-0.6,0.9-1,1.9-1.3,3l-2.1,0
		c-0.8,0-1.4,0.6-1.4,1.4l0,1.6c0,0.8,0.6,1.4,1.4,1.4l2.1,0c0.2,1.1,0.7,2.1,1.3,3L22.4,38c-0.5,0.5-0.5,1.4,0,1.9l1.1,1.1
		c0.5,0.5,1.4,0.5,1.9,0l1.5-1.5c0.9,0.6,1.9,1,3.1,1.3l0,2.1c0,0.8,0.6,1.4,1.4,1.4l1.6,0c0.8,0,1.4-0.6,1.4-1.4l0-2.1
		c1.1-0.2,2.1-0.7,3.1-1.3l1.5,1.5c0.5,0.5,1.4,0.5,1.9,0l1.1-1.1c0.5-0.5,0.5-1.4,0-1.9l-1.5-1.5c0.6-0.9,1-1.9,1.3-3.1l2.1,0
		c0.8,0,1.4-0.6,1.4-1.4v-1.6C45.2,29.8,44.6,29.2,43.8,29.2z M32.2,35.7c-2.4,0-4.3-1.9-4.3-4.3c0-2.4,1.9-4.3,4.3-4.3
		c2.4,0,4.3,1.9,4.3,4.3C36.5,33.8,34.6,35.7,32.2,35.7z"/>
	<path id="XMLID_769_" class="st1" d="M43.8,29.2l-2.1,0c-0.3-1.1-0.7-2.1-1.3-3.1l1.5-1.5c0.5-0.5,0.5-1.4,0-1.9l-1.1-1.1
		c-0.5-0.5-1.4-0.5-1.9,0l-1.5,1.5c-0.9-0.6-2-1-3-1.3v-2.1c0-0.8-0.6-1.4-1.4-1.4h-1.6c-0.8,0-1.4,0.6-1.4,1.4v2.1
		c-1.1,0.2-2.1,0.7-3,1.2l-1.5-1.5c-0.5-0.5-1.4-0.5-1.9,0l-1.1,1.1c-0.5,0.5-0.5,1.4,0,1.9l1.5,1.5c-0.6,0.9-1,1.9-1.3,3l-2.1,0
		c-0.8,0-1.4,0.6-1.4,1.4l0,1.6c0,0.8,0.6,1.4,1.4,1.4l2.1,0c0.2,1.1,0.7,2.1,1.3,3L22.4,38c-0.5,0.5-0.5,1.4,0,1.9l1.1,1.1
		c0.5,0.5,1.4,0.5,1.9,0l1.5-1.5c0.9,0.6,1.9,1,3.1,1.3l0,2.1c0,0.8,0.6,1.4,1.4,1.4l1.6,0c0.8,0,1.4-0.6,1.4-1.4l0-2.1
		c1.1-0.2,2.1-0.7,3.1-1.3l1.5,1.5c0.5,0.5,1.4,0.5,1.9,0l1.1-1.1c0.5-0.5,0.5-1.4,0-1.9l-1.5-1.5c0.6-0.9,1-1.9,1.3-3.1l2.1,0
		c0.8,0,1.4-0.6,1.4-1.4v-1.6C45.2,29.8,44.6,29.2,43.8,29.2z M32.2,35.7c-2.4,0-4.3-1.9-4.3-4.3c0-2.4,1.9-4.3,4.3-4.3
		c2.4,0,4.3,1.9,4.3,4.3C36.5,33.8,34.6,35.7,32.2,35.7z"/>
	<circle id="XMLID_307_" class="st6" cx="31.9" cy="31.6" r="6.5"/>
	<g id="XMLID_270_" class="st12">
		<g id="XMLID_203_">
			<path id="XMLID_204_" class="st14" d="M31.5,35.2v-0.7c-0.8-0.1-1.5-0.5-2.1-1l0.8-1c0.5,0.4,0.9,0.7,1.3,0.8V32
				c-0.6-0.2-1.1-0.4-1.4-0.6c-0.3-0.3-0.4-0.7-0.4-1.2c0-0.5,0.2-0.9,0.5-1.3c0.3-0.3,0.8-0.5,1.3-0.6v-0.4h0.9v0.5
				c0.6,0.1,1.2,0.3,1.8,0.7l-0.7,1.1c-0.4-0.3-0.7-0.4-1-0.5v1.3c0.6,0.2,1.1,0.4,1.4,0.7c0.3,0.3,0.5,0.7,0.5,1.2
				s-0.2,0.9-0.5,1.3c-0.3,0.3-0.8,0.5-1.4,0.6v0.6H31.5z M31.5,29.6c-0.3,0.1-0.4,0.3-0.4,0.5c0,0.2,0.1,0.4,0.4,0.5V29.6z
				 M32.9,32.8c0-0.1,0-0.2-0.1-0.3c-0.1-0.1-0.2-0.2-0.4-0.2v1.1C32.8,33.3,32.9,33.1,32.9,32.8z"/>
		</g>
	</g>
	<line id="XMLID_293_" class="st1" x1="32.2" y1="13.4" x2="32.2" y2="15.6"/>
	<line id="XMLID_294_" class="st1" x1="37" y1="14.2" x2="36.4" y2="16.3"/>
	<line id="XMLID_292_" class="st1" x1="41.4" y1="16.2" x2="40.3" y2="18.1"/>
	<line id="XMLID_295_" class="st1" x1="45.2" y1="19.3" x2="43.6" y2="20.9"/>
	<line id="XMLID_310_" class="st1" x1="47.3" y1="41.9" x2="45.4" y2="40.8"/>
	<line id="XMLID_311_" class="st1" x1="44.2" y1="45.7" x2="42.6" y2="44.1"/>
	<line id="XMLID_312_" class="st1" x1="40.2" y1="48.5" x2="39.1" y2="46.6"/>
	<line id="XMLID_313_" class="st1" x1="35.6" y1="50.2" x2="35.1" y2="48"/>
	<line id="XMLID_314_" class="st1" x1="30.8" y1="50.6" x2="30.8" y2="48.4"/>
	<line id="XMLID_315_" class="st1" x1="26" y1="49.8" x2="26.6" y2="47.6"/>
	<line id="XMLID_316_" class="st1" x1="21.6" y1="47.7" x2="22.7" y2="45.8"/>
	<line id="XMLID_317_" class="st1" x1="17.8" y1="44.6" x2="19.4" y2="43.1"/>
	<line id="XMLID_318_" class="st1" x1="15" y1="40.6" x2="17" y2="39.5"/>
	<line id="XMLID_322_" class="st1" x1="15.8" y1="22" x2="17.7" y2="23.1"/>
	<line id="XMLID_323_" class="st1" x1="19" y1="18.3" x2="20.5" y2="19.8"/>
	<line id="XMLID_324_" class="st1" x1="23" y1="15.5" x2="24" y2="17.4"/>
	<line id="XMLID_325_" class="st1" x1="27.5" y1="13.8" x2="28.1" y2="16"/>
</g>
<g id="XMLID_368_" class="st0">
	<line id="XMLID_333_" class="st1" x1="27.5" y1="33.2" x2="27.5" y2="48.5"/>
	<polyline id="XMLID_330_" class="st1" points="17.1,48.5 17.1,47.1 27.6,37.7 	"/>
	<polyline id="XMLID_332_" class="st1" points="38,48.5 38,47.1 27.5,37.7 	"/>
	
		<rect id="XMLID_319_" x="10.4" y="32.6" transform="matrix(0.9659 -0.2588 0.2588 0.9659 -8.2164 4.8861)" class="st2" width="8.1" height="2.2"/>
	<path id="XMLID_320_" class="st7" d="M40.3,26.7c0.5,1.9-0.6,3.8-2.5,4.3c-1.9,0.5-3.7-6.3-1.8-6.9C37.9,23.7,39.8,24.8,40.3,26.7z
		"/>
	<circle id="XMLID_359_" class="st1" cx="52.1" cy="19.5" r="1.2"/>
	<circle id="XMLID_362_" class="st1" cx="45.3" cy="27.8" r="1"/>
	<circle id="XMLID_154_" class="st6" cx="41.6" cy="25.6" r="1"/>
	<circle id="XMLID_360_" class="st6" cx="46.3" cy="21.1" r="1.6"/>
	<circle id="XMLID_361_" class="st6" cx="52.1" cy="28.2" r="1.8"/>
	
		<rect id="XMLID_309_" x="16.2" y="29.1" transform="matrix(0.9659 -0.2588 0.2588 0.9659 -7.4328 6.7772)" class="st4" width="11.6" height="5"/>
	
		<rect id="XMLID_328_" x="16.3" y="31" transform="matrix(0.9659 -0.2588 0.2588 0.9659 -7.5262 6.8159)" class="st9" width="11.6" height="1.9"/>
	
		<rect id="XMLID_297_" x="23.5" y="26.1" transform="matrix(0.9659 -0.2588 0.2588 0.9659 -6.6742 8.6085)" class="st4" width="11.6" height="7.1"/>
	
		<rect id="XMLID_327_" x="23.9" y="29.8" transform="matrix(0.9659 -0.2588 0.2588 0.9659 -7 8.7437)" class="st9" width="11.6" height="2.3"/>
	
		<rect id="XMLID_308_" x="31.3" y="24.1" transform="matrix(0.9659 -0.2588 0.2588 0.9659 -6.1242 9.9362)" class="st4" width="6.7" height="8.3"/>
	
		<rect id="XMLID_321_" x="31.9" y="29" transform="matrix(0.9659 -0.2588 0.2588 0.9659 -6.6535 10.1556)" class="st9" width="6.7" height="2.7"/>
	<line id="XMLID_326_" class="st1" x1="10.1" y1="33.1" x2="11" y2="36.3"/>
	<line id="XMLID_354_" class="st1" x1="16" y1="30.6" x2="17.3" y2="35.5"/>
	<line id="XMLID_356_" class="st1" x1="23.3" y1="27.7" x2="25.1" y2="34.4"/>
	<line id="XMLID_358_" class="st1" x1="30.6" y1="25" x2="32.8" y2="33"/>
	<circle id="XMLID_331_" class="st6" cx="27.5" cy="37.7" r="1.5"/>
	<circle id="XMLID_334_" class="st1" cx="27.5" cy="37.7" r="1.5"/>
	<line id="XMLID_767_" class="st5" x1="53.6" y1="32.5" x2="40.2" y2="31.4"/>
	<line id="XMLID_355_" class="st5" x1="37.9" y1="22.9" x2="48.5" y2="15.5"/>
</g>
<g id="XMLID_383_" class="st0">
	<rect id="XMLID_378_" x="13.1" y="19.5" class="st7" width="37.9" height="17"/>
	<circle id="XMLID_376_" class="st10" cx="31.8" cy="28" r="5.9"/>
	<line id="XMLID_375_" class="st1" x1="17.1" y1="28" x2="23.5" y2="28"/>
	<line id="XMLID_374_" class="st1" x1="40.2" y1="28" x2="46.6" y2="28"/>
	<g id="XMLID_369_" class="st12">
		<path id="XMLID_370_" class="st14" d="M31.7,31.4v-0.6c-0.8-0.1-1.4-0.4-2-0.9l0.6-0.7c0.5,0.4,0.9,0.6,1.4,0.7v-1.6
			c-0.6-0.1-1.1-0.3-1.4-0.6c-0.3-0.2-0.4-0.6-0.4-1.1c0-0.5,0.2-0.9,0.5-1.2c0.3-0.3,0.8-0.5,1.3-0.5v-0.4h0.5V25
			c0.6,0,1.2,0.3,1.7,0.6l-0.5,0.8c-0.4-0.3-0.8-0.4-1.2-0.5v1.6h0c0.6,0.1,1.1,0.4,1.4,0.6c0.3,0.3,0.4,0.6,0.4,1.1
			s-0.2,0.9-0.5,1.2c-0.3,0.3-0.8,0.5-1.4,0.5v0.6H31.7z M31.1,26.1c-0.1,0.1-0.2,0.3-0.2,0.5c0,0.2,0.1,0.3,0.2,0.4
			c0.1,0.1,0.3,0.2,0.6,0.3v-1.4C31.4,25.9,31.2,26,31.1,26.1z M32.8,29.7c0.2-0.1,0.2-0.3,0.2-0.5c0-0.2-0.1-0.3-0.2-0.5
			c-0.1-0.1-0.3-0.2-0.7-0.3V30C32.5,29.9,32.7,29.9,32.8,29.7z"/>
	</g>
	<polyline id="XMLID_379_" class="st1" points="13.5,37.5 13.5,44.5 50.2,44.5 50.2,37.5 	"/>
	<line id="XMLID_380_" class="st1" x1="15.4" y1="42.4" x2="48.5" y2="42.4"/>
	<line id="XMLID_377_" class="st1" x1="15.5" y1="40.2" x2="48.5" y2="40.2"/>
	<line id="XMLID_381_" class="st1" x1="15.5" y1="38" x2="48.6" y2="38"/>
	<line id="XMLID_382_" class="st1" x1="13.1" y1="20" x2="50.9" y2="20"/>
</g>
<g id="XMLID_417_" class="st0">
	<path id="XMLID_402_" class="st19" d="M22.9,45.3h-2.3c-0.5,0-0.9-0.4-0.9-0.9V28.6h4.1v15.7C23.8,44.8,23.4,45.3,22.9,45.3z"/>
	<path id="XMLID_401_" class="st4" d="M21.7,28.6h-2.1v15.7c0,0.5,0.4,0.9,0.9,0.9h1.2V28.6z"/>
	<rect id="XMLID_393_" x="18.9" y="27.8" class="st4" width="5.6" height="1.7"/>
	<path id="XMLID_396_" class="st19" d="M29.8,45.3h-2.3c-0.5,0-0.9-0.4-0.9-0.9V28.6h4.1v15.7C30.7,44.8,30.3,45.3,29.8,45.3z"/>
	<path id="XMLID_395_" class="st4" d="M28.6,28.6h-2.1v15.7c0,0.5,0.4,0.9,0.9,0.9h1.2V28.6z"/>
	<rect id="XMLID_394_" x="25.8" y="27.8" class="st4" width="5.6" height="1.7"/>
	<path id="XMLID_400_" class="st19" d="M36.7,45.3h-2.3c-0.5,0-0.9-0.4-0.9-0.9V28.6h4.1v15.7C37.6,44.8,37.2,45.3,36.7,45.3z"/>
	<path id="XMLID_398_" class="st4" d="M35.5,28.6h-2.1v15.7c0,0.5,0.4,0.9,0.9,0.9h1.2V28.6z"/>
	<rect id="XMLID_397_" x="32.7" y="27.8" class="st4" width="5.6" height="1.7"/>
	<path id="XMLID_406_" class="st19" d="M43.6,45.3h-2.3c-0.5,0-0.9-0.4-0.9-0.9V28.6h4.1v15.7C44.5,44.8,44.1,45.3,43.6,45.3z"/>
	<path id="XMLID_405_" class="st4" d="M42.4,28.6h-2.1v15.7c0,0.5,0.4,0.9,0.9,0.9h1.2V28.6z"/>
	<rect id="XMLID_404_" x="39.6" y="27.8" class="st4" width="5.6" height="1.7"/>
	<polygon id="XMLID_403_" class="st19" points="15.4,28.4 49.2,28.4 32.5,18.8 	"/>
	<path id="XMLID_392_" class="st1" d="M13.4,29.5l18.2-10.2c0.5-0.3,1.2-0.3,1.7,0l17.2,10.2"/>
	<rect id="XMLID_391_" x="18.4" y="44.4" class="st9" width="27.2" height="2.4"/>
	<rect id="XMLID_390_" x="18.4" y="44.4" class="st1" width="27.2" height="2.4"/>
	<circle id="XMLID_416_" class="st7" cx="32.5" cy="24.3" r="2.2"/>
	<circle id="XMLID_387_" class="st1" cx="32.5" cy="24.3" r="2.2"/>
	<polygon id="XMLID_386_" class="st6" points="26.4,17.5 32.2,17.5 32.2,14.1 26.4,14.1 25.4,15.8 	"/>
	<polyline id="XMLID_385_" class="st1" points="32.2,14.1 26.4,14.1 25.4,15.8 26.4,17.5 32.2,17.5 	"/>
	<line id="XMLID_384_" class="st1" x1="32.3" y1="12.8" x2="32.3" y2="19.1"/>
	<rect id="XMLID_389_" x="16.4" y="46.5" class="st4" width="31.2" height="2.7"/>
	<rect id="XMLID_388_" x="16.4" y="46.5" class="st1" width="31.2" height="2.7"/>
	<line id="XMLID_415_" class="st1" x1="11.7" y1="51.2" x2="38.3" y2="51.2"/>
	<line id="XMLID_399_" class="st1" x1="52.3" y1="51.2" x2="39.6" y2="51.2"/>
</g>
<g id="XMLID_420_" class="st0">
	<path id="XMLID_438_" class="st19" d="M22.9,49.3V37.4c0-0.6,0.4-1.5,0.9-1.9l4-3.1c0.5-0.4,0.5-1,0-1.4l-4-3.1
		c-0.5-0.4-0.9-1.2-0.9-1.9V14.7h18V26c0,0.6-0.4,1.5-0.9,1.9l-4,3.1c-0.5,0.4-0.5,1,0,1.4l4,3.1c0.5,0.4,0.9,1.2,0.9,1.9v11.8H22.9
		z"/>
	<polygon id="XMLID_425_" class="st6" points="25,46.9 38.7,46.9 38.7,41.6 31.6,38 25,41.6 	"/>
	<polygon id="XMLID_424_" class="st6" points="25,21.3 32,25.5 38.7,21.3 38.7,26.5 31.6,30.1 25,26.5 	"/>
	<g id="XMLID_423_" class="st12">
		<rect id="XMLID_419_" x="31" y="29.2" class="st23" width="1.4" height="7.8"/>
	</g>
	<line id="XMLID_422_" class="st1" x1="20.8" y1="14.7" x2="43.1" y2="14.7"/>
	<line id="XMLID_421_" class="st1" x1="20.9" y1="49.3" x2="43.1" y2="49.3"/>
	<line id="XMLID_430_" class="st1" x1="48.1" y1="32" x2="51.2" y2="32"/>
	<line id="XMLID_418_" class="st1" x1="47.4" y1="36.2" x2="50.4" y2="37"/>
	<line id="XMLID_435_" class="st1" x1="45.8" y1="40" x2="48.4" y2="41.6"/>
	<line id="XMLID_436_" class="st1" x1="43.1" y1="43.3" x2="45.3" y2="45.5"/>
	<line id="XMLID_443_" class="st1" x1="20.3" y1="42.7" x2="18.1" y2="44.9"/>
	<line id="XMLID_444_" class="st1" x1="17.8" y1="39.3" x2="15.1" y2="40.8"/>
	<line id="XMLID_445_" class="st1" x1="16.3" y1="35.3" x2="13.3" y2="36.1"/>
	<line id="XMLID_446_" class="st1" x1="15.9" y1="31.1" x2="12.8" y2="31.1"/>
	<line id="XMLID_447_" class="st1" x1="16.6" y1="27" x2="13.6" y2="26.1"/>
	<line id="XMLID_448_" class="st1" x1="18.4" y1="23.1" x2="15.7" y2="21.6"/>
	<line id="XMLID_449_" class="st1" x1="21.1" y1="19.9" x2="18.9" y2="17.7"/>
	<line id="XMLID_455_" class="st1" x1="43.9" y1="20.9" x2="46.2" y2="18.8"/>
	<line id="XMLID_456_" class="st1" x1="46.3" y1="24.4" x2="49" y2="22.9"/>
	<line id="XMLID_457_" class="st1" x1="47.7" y1="28.4" x2="50.7" y2="27.7"/>
</g>
<g id="XMLID_2_" class="st0">
	<g id="XMLID_474_" class="st12">
		<rect id="XMLID_454_" x="22" y="12.2" class="st18" width="24" height="35.3"/>
		<g id="XMLID_453_">
			<rect id="XMLID_482_" x="34.5" y="16.9" class="st14" width="8.8" height="1"/>
		</g>
		<g id="XMLID_452_">
			<rect id="XMLID_481_" x="34.5" y="20.5" class="st14" width="8.8" height="1"/>
		</g>
		<g id="XMLID_451_">
			<rect id="XMLID_480_" x="34.5" y="24" class="st14" width="8.8" height="1"/>
		</g>
		<g id="XMLID_450_">
			<rect id="XMLID_479_" x="25.6" y="27.6" class="st14" width="17.7" height="1"/>
		</g>
		<g id="XMLID_442_">
			<rect id="XMLID_478_" x="25.6" y="31.1" class="st14" width="17.7" height="1"/>
		</g>
		<g id="XMLID_441_">
			<rect id="XMLID_477_" x="25.6" y="34.7" class="st14" width="17.7" height="1"/>
		</g>
		<g id="XMLID_440_">
			<rect id="XMLID_476_" x="25.6" y="38.2" class="st14" width="17.7" height="1"/>
		</g>
		<g id="XMLID_439_">
			<rect id="XMLID_475_" x="25.6" y="41.8" class="st14" width="8.4" height="1"/>
		</g>
		<rect id="XMLID_437_" x="25.3" y="16.5" class="st28" width="8" height="9.1"/>
	</g>
	<g id="XMLID_458_" class="st12">
		<path id="XMLID_473_" class="st22" d="M51.1,19v28h-3V19l1.4-3.7c0-0.1,0.1-0.1,0.2,0L51.1,19z"/>
		<rect id="XMLID_471_" x="48.1" y="19" class="st24" width="3" height="28"/>
		<rect id="XMLID_469_" x="48.1" y="19" class="st29" width="1.5" height="28"/>
		<rect id="XMLID_468_" x="48" y="43.5" class="st22" width="3.1" height="3.5"/>
		<path id="XMLID_467_" class="st16" d="M51.1,19v28h-3V19l1.4-3.7c0-0.1,0.1-0.1,0.2,0L51.1,19z"/>
		<line id="XMLID_466_" class="st16" x1="48.1" y1="43.5" x2="50.7" y2="43.5"/>
		<line id="XMLID_465_" class="st16" x1="48.3" y1="19" x2="50.9" y2="19"/>
	</g>
	<circle id="XMLID_483_" class="st1" cx="27" cy="48" r="3.8"/>
	<path id="XMLID_486_" class="st1" d="M30.6,47.3c0-1.1,0.9-2.1,2.1-2.1c1.1,0,2.1,0.9,2.1,2.1"/>
	<circle id="XMLID_484_" class="st1" cx="38.5" cy="48" r="3.8"/>
	<line id="XMLID_487_" class="st1" x1="23.3" y1="48" x2="41.4" y2="50.3"/>
	<line id="XMLID_488_" class="st1" x1="23.9" y1="50.3" x2="42.1" y2="48"/>
	<g id="XMLID_485_" class="st12">
		<rect id="XMLID_498_" x="12.9" y="13.5" class="st23" width="7" height="33.9"/>
		<rect id="XMLID_497_" x="16.8" y="13.5" class="st30" width="3.1" height="33.9"/>
		<line id="XMLID_496_" class="st16" x1="19.9" y1="18.6" x2="17.7" y2="18.6"/>
		<line id="XMLID_495_" class="st16" x1="19.9" y1="13.9" x2="17.7" y2="13.9"/>
		<line id="XMLID_494_" class="st16" x1="19.9" y1="23.3" x2="17.7" y2="23.3"/>
		<line id="XMLID_493_" class="st16" x1="19.9" y1="28.1" x2="17.7" y2="28.1"/>
		<line id="XMLID_492_" class="st16" x1="19.9" y1="32.8" x2="17.7" y2="32.8"/>
		<line id="XMLID_491_" class="st16" x1="19.9" y1="42.3" x2="17.7" y2="42.3"/>
		<line id="XMLID_490_" class="st16" x1="19.9" y1="37.5" x2="17.7" y2="37.5"/>
		<line id="XMLID_489_" class="st16" x1="19.9" y1="47" x2="17.7" y2="47"/>
	</g>
</g>
<g id="XMLID_537_" class="st0">
	<path id="XMLID_472_" class="st11" d="M16.8,24.4c0,1,0.9,1.9,1.9,1.9h-2c-1,0-1.9,0.9-1.9,1.9c0,1,0.9,1.9,1.9,1.9h-2
		c-1,0-1.9,0.9-1.9,1.9c0,1,0.9,1.9,1.9,1.9H16c-1,0-1.9,0.9-1.9,1.9s0.9,1.9,1.9,1.9h4.7v2.7c0,0.7,0.6,1.3,1.3,1.3h8.4
		c0.7,0,1.3-0.4,1.6-1l0.7-1.6c0.3-0.6,0.9-1,1.6-1h9.2V25.5h-9.6c-0.4,0-0.8-0.2-1.1-0.5l-1.9-1.9c-0.3-0.3-0.8-0.5-1.3-0.5H18.7
		C17.7,22.5,16.8,23.4,16.8,24.4z"/>
	<path id="XMLID_460_" class="st1" d="M21.3,34H16c-1,0-1.9,0.9-1.9,1.9l0,0c0,1,0.9,1.9,1.9,1.9h8.1"/>
	<path id="XMLID_461_" class="st1" d="M18,30.2h-3.2c-1,0-1.9,0.9-1.9,1.9l0,0c0,1,0.9,1.9,1.9,1.9H18"/>
	<path id="XMLID_462_" class="st1" d="M21.3,26.4h-4.6c-1,0-1.9,0.9-1.9,1.9l0,0c0,1,0.9,1.9,1.9,1.9h4.6"/>
	<path id="XMLID_464_" class="st1" d="M20.5,26.4h-1.8c-1,0-1.9-0.9-1.9-1.9l0,0c0-1,0.9-1.9,1.9-1.9h10.8c0.5,0,1,0.2,1.3,0.5
		l1.9,1.9c0.3,0.3,0.7,0.5,1.1,0.5h9.6"/>
	<path id="XMLID_463_" class="st1" d="M20.6,37.8v2.7c0,0.7,0.6,1.3,1.3,1.3h8.4c0.7,0,1.3-0.4,1.6-1l0.7-1.6c0.3-0.6,0.9-1,1.6-1
		h9.2"/>
	<rect id="XMLID_459_" x="42.8" y="23.7" class="st7" width="8.4" height="16.1"/>
	<rect id="XMLID_470_" x="42.8" y="23.7" class="st10" width="8.4" height="4.6"/>
	<rect id="XMLID_501_" x="35.2" y="25.1" class="st4" width="4.7" height="13.5"/>
	<g id="XMLID_512_" class="st12">
		<circle id="XMLID_511_" class="st23" cx="37.1" cy="31.7" r="5.3"/>
		<circle id="XMLID_519_" class="st16" cx="37.1" cy="31.7" r="5.3"/>
		<g id="XMLID_500_">
			<g id="XMLID_197_">
				<path id="XMLID_198_" class="st14" d="M36.9,34.1v-0.4c-0.5-0.1-0.9-0.3-1.4-0.7l0.5-0.7c0.3,0.3,0.6,0.4,0.8,0.5V32
					c-0.4-0.1-0.7-0.2-0.9-0.4c-0.2-0.2-0.3-0.4-0.3-0.8c0-0.3,0.1-0.6,0.3-0.8c0.2-0.2,0.5-0.3,0.9-0.4v-0.3h0.6v0.3
					c0.4,0.1,0.8,0.2,1.2,0.5l-0.5,0.7c-0.2-0.2-0.5-0.3-0.7-0.3v0.8c0.4,0.1,0.7,0.3,0.9,0.4c0.2,0.2,0.3,0.4,0.3,0.8
					c0,0.3-0.1,0.6-0.3,0.8c-0.2,0.2-0.5,0.3-0.9,0.4v0.4H36.9z M36.9,30.4c-0.2,0.1-0.3,0.2-0.3,0.3c0,0.2,0.1,0.3,0.3,0.4V30.4z
					 M37.8,32.5c0-0.1,0-0.1-0.1-0.2c0-0.1-0.1-0.1-0.2-0.2v0.7C37.7,32.8,37.8,32.7,37.8,32.5z"/>
			</g>
		</g>
		<rect id="XMLID_499_" x="36.9" y="27.2" class="st14" width="0.4" height="0.4"/>
		
			<rect id="XMLID_502_" x="39.1" y="27.8" transform="matrix(0.8657 0.5005 -0.5005 0.8657 19.2721 -15.9205)" class="st14" width="0.4" height="0.4"/>
		
			<rect id="XMLID_503_" x="40.7" y="29.4" transform="matrix(0.4988 0.8667 -0.8667 0.4988 46.1114 -20.6348)" class="st14" width="0.4" height="0.4"/>
		<rect id="XMLID_504_" x="41.3" y="31.5" class="st14" width="0.4" height="0.4"/>
		
			<rect id="XMLID_505_" x="40.7" y="33.7" transform="matrix(-0.5023 0.8647 -0.8647 -0.5023 90.7311 15.5588)" class="st14" width="0.4" height="0.4"/>
		
			<rect id="XMLID_506_" x="39.1" y="35.3" transform="matrix(-0.8676 0.4973 -0.4973 -0.8676 91.0264 46.7146)" class="st14" width="0.4" height="0.4"/>
		<rect id="XMLID_513_" x="36.9" y="35.9" class="st14" width="0.4" height="0.4"/>
		
			<rect id="XMLID_514_" x="34.8" y="35.3" transform="matrix(-0.8638 -0.5039 0.5039 -0.8638 47.2774 83.6992)" class="st14" width="0.4" height="0.4"/>
		
			<rect id="XMLID_515_" x="33.2" y="33.7" transform="matrix(-0.4955 -0.8686 0.8686 -0.4955 20.4938 79.6271)" class="st14" width="0.4" height="0.4"/>
		<rect id="XMLID_516_" x="32.6" y="31.5" class="st14" width="0.4" height="0.4"/>
		
			<rect id="XMLID_517_" x="33.2" y="29.3" transform="matrix(0.5058 -0.8626 0.8626 0.5058 -8.9615 43.3982)" class="st14" width="0.4" height="0.4"/>
		
			<rect id="XMLID_518_" x="34.8" y="27.7" transform="matrix(0.8695 -0.4939 0.4939 0.8695 -9.2344 20.9317)" class="st14" width="0.4" height="0.4"/>
	</g>
	<line id="XMLID_521_" class="st1" x1="37.5" y1="22.3" x2="37.5" y2="24.4"/>
	<line id="XMLID_520_" class="st1" x1="40.9" y1="23" x2="40.1" y2="25"/>
	<line id="XMLID_522_" class="st1" x1="43.8" y1="25" x2="42.3" y2="26.5"/>
	<line id="XMLID_523_" class="st1" x1="45.7" y1="27.8" x2="43.9" y2="28.7"/>
	<line id="XMLID_524_" class="st1" x1="46.6" y1="31.1" x2="44.5" y2="31.4"/>
	<line id="XMLID_525_" class="st1" x1="46.1" y1="34.6" x2="44.1" y2="34"/>
	<line id="XMLID_526_" class="st1" x1="44.5" y1="37.6" x2="42.8" y2="36.4"/>
	<line id="XMLID_527_" class="st1" x1="41.9" y1="39.9" x2="40.8" y2="38.1"/>
	<line id="XMLID_528_" class="st1" x1="38.6" y1="41" x2="38.2" y2="39"/>
	<line id="XMLID_529_" class="st1" x1="35.2" y1="41" x2="35.5" y2="38.9"/>
	<line id="XMLID_530_" class="st1" x1="32" y1="39.6" x2="33.1" y2="37.8"/>
	<line id="XMLID_531_" class="st1" x1="29.5" y1="37.3" x2="31.1" y2="36"/>
	<line id="XMLID_532_" class="st1" x1="28" y1="34.1" x2="30" y2="33.5"/>
	<line id="XMLID_533_" class="st1" x1="27.7" y1="30.7" x2="29.8" y2="30.8"/>
	<line id="XMLID_534_" class="st1" x1="28.7" y1="27.4" x2="30.6" y2="28.3"/>
	<line id="XMLID_535_" class="st1" x1="30.9" y1="24.7" x2="32.3" y2="26.2"/>
	<line id="XMLID_536_" class="st1" x1="33.8" y1="22.9" x2="34.6" y2="24.8"/>
</g>
<g id="XMLID_565_" class="st0">
	<g id="XMLID_552_" class="st12">
		<rect id="XMLID_556_" x="14.9" y="16.2" class="st24" width="21" height="33.6"/>
		<rect id="XMLID_555_" x="17.7" y="16.2" class="st31" width="4.6" height="33.6"/>
		<rect id="XMLID_554_" x="25.9" y="24.3" class="st25" width="2.3" height="22.7"/>
		<rect id="XMLID_553_" x="30.3" y="33.5" class="st25" width="2.3" height="13.5"/>
	</g>
	<circle id="XMLID_631_" class="st6" cx="37.3" cy="27.9" r="8.3"/>
	<circle id="XMLID_639_" class="st1" cx="37.3" cy="27.9" r="8.3"/>
	<g id="XMLID_600_" class="st12">
		<g id="XMLID_191_">
			<path id="XMLID_192_" class="st14" d="M36.9,31.6V31c-0.8-0.1-1.5-0.5-2.2-1.1l0.9-1c0.5,0.4,0.9,0.7,1.3,0.8v-1.4
				c-0.6-0.2-1.1-0.4-1.4-0.7c-0.3-0.3-0.5-0.7-0.5-1.2c0-0.5,0.2-1,0.5-1.3c0.3-0.3,0.8-0.5,1.4-0.6v-0.5h1v0.5
				c0.6,0.1,1.2,0.3,1.8,0.8L39,26.4c-0.4-0.3-0.7-0.5-1.1-0.6v1.3c0.7,0.2,1.2,0.4,1.5,0.7c0.3,0.3,0.5,0.7,0.5,1.2
				c0,0.5-0.2,1-0.5,1.3c-0.4,0.3-0.8,0.5-1.4,0.6v0.6H36.9z M36.9,25.8c-0.3,0.1-0.4,0.3-0.4,0.5c0,0.2,0.1,0.4,0.4,0.6V25.8z
				 M38.4,29.1c0-0.1,0-0.2-0.1-0.3c-0.1-0.1-0.2-0.2-0.4-0.2v1.1C38.2,29.6,38.4,29.4,38.4,29.1z"/>
		</g>
	</g>
	<rect id="XMLID_564_" x="27" y="36.2" class="st15" width="19.7" height="3.4"/>
	<rect id="XMLID_563_" x="28.1" y="39.6" class="st6" width="19.7" height="3.4"/>
	<rect id="XMLID_562_" x="26.2" y="42.9" class="st15" width="19.7" height="3.4"/>
	<rect id="XMLID_561_" x="27.5" y="46.3" class="st6" width="19.7" height="3.4"/>
	<line id="XMLID_560_" class="st1" x1="29.5" y1="36.2" x2="29.5" y2="39.6"/>
	<line id="XMLID_559_" class="st1" x1="31.2" y1="36.2" x2="31.2" y2="39.6"/>
	<line id="XMLID_551_" class="st1" x1="42.3" y1="39.6" x2="42.3" y2="42.9"/>
	<line id="XMLID_550_" class="st1" x1="44" y1="39.6" x2="44" y2="42.9"/>
	<line id="XMLID_544_" class="st1" x1="43.1" y1="46.3" x2="43.1" y2="49.7"/>
	<line id="XMLID_543_" class="st1" x1="44.9" y1="46.3" x2="44.9" y2="49.7"/>
	<line id="XMLID_542_" class="st1" x1="10.8" y1="49.9" x2="53.2" y2="49.9"/>
	<line id="XMLID_541_" class="st1" x1="28.1" y1="42.9" x2="28.1" y2="46.3"/>
	<line id="XMLID_538_" class="st1" x1="29.8" y1="42.9" x2="29.8" y2="46.3"/>
	<line id="XMLID_584_" class="st1" x1="37.1" y1="14.1" x2="37.1" y2="17.6"/>
	<line id="XMLID_583_" class="st1" x1="40.7" y1="14.5" x2="39.8" y2="17.9"/>
	<line id="XMLID_582_" class="st1" x1="44.2" y1="15.8" x2="42.4" y2="18.9"/>
	<line id="XMLID_581_" class="st1" x1="47.1" y1="18" x2="44.6" y2="20.5"/>
	<line id="XMLID_580_" class="st1" x1="49.4" y1="20.9" x2="46.3" y2="22.7"/>
	<line id="XMLID_579_" class="st1" x1="50.9" y1="24.3" x2="47.4" y2="25.2"/>
	<line id="XMLID_578_" class="st1" x1="51.4" y1="27.9" x2="47.9" y2="27.9"/>
	<line id="XMLID_577_" class="st1" x1="51" y1="31.6" x2="47.6" y2="30.7"/>
	<line id="XMLID_576_" class="st1" x1="49.7" y1="35" x2="46.6" y2="33.2"/>
</g>
<g id="XMLID_3_" class="st0">
	<path id="XMLID_572_" class="st19" d="M11.9,27.3h37.4c0.7,0,1.3-0.6,1.3-1.3l0,0c0-0.7-0.6-1.3-1.3-1.3H11.9
		c-0.7,0-1.3,0.6-1.3,1.3l0,0C10.6,26.7,11.2,27.3,11.9,27.3z"/>
	<path id="XMLID_571_" class="st1" d="M11.9,27.3h37.4c0.7,0,1.3-0.6,1.3-1.3l0,0c0-0.7-0.6-1.3-1.3-1.3H11.9
		c-0.7,0-1.3,0.6-1.3,1.3l0,0C10.6,26.7,11.2,27.3,11.9,27.3z"/>
	<rect id="XMLID_568_" x="39.2" y="21.5" class="st4" width="8" height="9.3"/>
	<polygon id="XMLID_566_" class="st7" points="37.5,35.6 48.9,35.6 47.9,30.4 38.5,30.4 	"/>
	<polygon id="XMLID_567_" class="st7" points="38.5,21.8 47.9,21.8 48.9,16.6 37.5,16.6 	"/>
	<line id="XMLID_570_" class="st1" x1="47.9" y1="21.5" x2="38.5" y2="21.5"/>
	<line id="XMLID_585_" class="st1" x1="48.9" y1="16.6" x2="37.6" y2="16.6"/>
	<line id="XMLID_586_" class="st1" x1="48.9" y1="35.6" x2="37.6" y2="35.6"/>
	<line id="XMLID_569_" class="st1" x1="47.9" y1="30.4" x2="38.5" y2="30.4"/>
	<line id="XMLID_574_" class="st1" x1="34.5" y1="24.6" x2="34.5" y2="27.3"/>
	<line id="XMLID_573_" class="st1" x1="32.7" y1="24.6" x2="32.7" y2="27.3"/>
	<line id="XMLID_575_" class="st1" x1="30.8" y1="24.6" x2="30.8" y2="27.3"/>
	<line id="XMLID_603_" class="st1" x1="9.8" y1="47.4" x2="40.7" y2="47.4"/>
	<line id="XMLID_604_" class="st1" x1="54.2" y1="47.4" x2="42.5" y2="47.4"/>
	<path id="XMLID_606_" class="st6" d="M49.8,44.8v-4.2c0-0.8-0.6-1.4-1.4-1.4H38.1c-0.8,0-1.4,0.6-1.4,1.4v4.2H49.8z"/>
	<path id="XMLID_601_" class="st1" d="M36.7,43.3v-2.7c0-0.8,0.6-1.4,1.4-1.4h10.3c0.8,0,1.4,0.6,1.4,1.4v2.7"/>
	<line id="XMLID_602_" class="st1" x1="12.7" y1="44.7" x2="53.5" y2="44.7"/>
</g>
<g id="XMLID_646_" class="st0">
	<g id="XMLID_607_" class="st12">
		<path id="XMLID_605_" class="st23" d="M22.8,47.6H11l1.5-7.5c0.1-0.3,0.4-0.6,0.7-0.6h7.3c0.3,0,0.7,0.2,0.7,0.6L22.8,47.6z"/>
		<line id="XMLID_609_" class="st16" x1="10.5" y1="47.1" x2="23" y2="47.1"/>
	</g>
	<g id="XMLID_610_" class="st12">
		<path id="XMLID_612_" class="st23" d="M38,47.6H26.2l1.5-7.5c0.1-0.3,0.4-0.6,0.7-0.6h7.3c0.3,0,0.7,0.2,0.7,0.6L38,47.6z"/>
		<line id="XMLID_611_" class="st16" x1="25.8" y1="47.1" x2="38.2" y2="47.1"/>
	</g>
	<g id="XMLID_613_" class="st12">
		<path id="XMLID_620_" class="st23" d="M53.2,47.6H41.4L43,40c0.1-0.3,0.4-0.6,0.7-0.6H51c0.3,0,0.7,0.2,0.7,0.6L53.2,47.6z"/>
		<line id="XMLID_619_" class="st16" x1="41" y1="47.1" x2="53.5" y2="47.1"/>
	</g>
	<g id="XMLID_626_" class="st12">
		<path id="XMLID_634_" class="st23" d="M30.4,39.4H18.6l1.5-7.5c0.1-0.3,0.4-0.6,0.7-0.6h7.3c0.3,0,0.7,0.2,0.7,0.6L30.4,39.4z"/>
		<line id="XMLID_627_" class="st16" x1="18.2" y1="39" x2="30.6" y2="39"/>
	</g>
	<g id="XMLID_621_" class="st12">
		<path id="XMLID_625_" class="st23" d="M45.6,39.4H33.8l1.5-7.5c0.1-0.3,0.4-0.6,0.7-0.6h7.3c0.3,0,0.7,0.2,0.7,0.6L45.6,39.4z"/>
		<line id="XMLID_622_" class="st16" x1="33.4" y1="39" x2="45.8" y2="39"/>
	</g>
	<g id="XMLID_635_" class="st12">
		<path id="XMLID_641_" class="st23" d="M38,31.3H26.2l1.5-7.5c0.1-0.3,0.4-0.6,0.7-0.6h7.3c0.3,0,0.7,0.2,0.7,0.6L38,31.3z"/>
		<line id="XMLID_640_" class="st16" x1="25.8" y1="30.9" x2="38.2" y2="30.9"/>
	</g>
	<line id="XMLID_661_" class="st1" x1="31.8" y1="16.4" x2="31.8" y2="19.8"/>
	<line id="XMLID_660_" class="st1" x1="35.3" y1="16.9" x2="34.4" y2="20.1"/>
	<line id="XMLID_659_" class="st1" x1="38.5" y1="18.2" x2="36.8" y2="21.1"/>
	<line id="XMLID_658_" class="st1" x1="41.2" y1="20.3" x2="38.8" y2="22.6"/>
	<line id="XMLID_657_" class="st1" x1="43.3" y1="23" x2="40.4" y2="24.7"/>
	<line id="XMLID_645_" class="st1" x1="20.3" y1="23.2" x2="23.1" y2="24.9"/>
	<line id="XMLID_644_" class="st1" x1="22.3" y1="20.4" x2="24.7" y2="22.8"/>
	<line id="XMLID_643_" class="st1" x1="25.1" y1="18.3" x2="26.7" y2="21.2"/>
	<line id="XMLID_642_" class="st1" x1="28.2" y1="16.9" x2="29.1" y2="20.1"/>
</g>
<g id="XMLID_647_" class="st0">
	<circle id="XMLID_662_" class="st6" cx="28.4" cy="32" r="15.7"/>
	<path id="XMLID_656_" class="st1" d="M17.3,20.9c1.4-1.4,3.1-2.6,5-3.4c1.9-0.8,4-1.2,6.1-1.2s4.2,0.4,6.1,1.2
		c1.9,0.8,3.6,1.9,5,3.4"/>
	<path id="XMLID_655_" class="st1" d="M39.5,43.1c-1.4,1.4-3.1,2.6-5,3.4c-1.9,0.8-4,1.2-6.1,1.2s-4.2-0.4-6.1-1.2
		c-1.9-0.8-3.6-1.9-5-3.4"/>
	<circle id="XMLID_654_" class="st11" cx="28.4" cy="32" r="11.4"/>
	<circle id="XMLID_653_" class="st6" cx="28.4" cy="32" r="7"/>
	<circle id="XMLID_652_" class="st11" cx="28.4" cy="32" r="3.2"/>
	<g id="XMLID_663_" class="st12">
		<g id="XMLID_185_">
			<path id="XMLID_186_" class="st14" d="M27.7,38.5v-1.1c-1.3-0.2-2.5-0.8-3.6-1.8l1.4-1.8c0.8,0.7,1.5,1.2,2.2,1.3v-2.3
				c-1.1-0.3-1.9-0.7-2.4-1.1c-0.5-0.5-0.8-1.1-0.8-2c0-0.9,0.3-1.6,0.9-2.2c0.6-0.6,1.3-0.9,2.3-1v-0.8h1.6v0.8
				c1,0.1,2.1,0.6,3.1,1.3l-1.3,1.8c-0.7-0.5-1.3-0.8-1.8-0.9V31c1.1,0.3,1.9,0.7,2.5,1.2c0.5,0.5,0.8,1.2,0.8,2.1s-0.3,1.6-0.9,2.2
				c-0.6,0.6-1.4,0.9-2.4,1v1.1H27.7z M27.7,28.7c-0.4,0.2-0.7,0.4-0.7,0.9c0,0.4,0.2,0.7,0.7,0.9V28.7z M30.2,34.3
				c0-0.2-0.1-0.4-0.2-0.5c-0.1-0.1-0.3-0.3-0.6-0.4v1.9C29.9,35.1,30.2,34.8,30.2,34.3z"/>
		</g>
	</g>
	<g id="XMLID_1067_" class="st12">
		<line id="XMLID_1064_" class="st16" x1="28.1" y1="32.1" x2="51.4" y2="32.1"/>
		<line id="XMLID_1065_" class="st16" x1="44.4" y1="32.1" x2="46.5" y2="30.1"/>
		<line id="XMLID_651_" class="st16" x1="46.5" y1="32.1" x2="48.6" y2="30.1"/>
		<line id="XMLID_1066_" class="st16" x1="48.6" y1="32.1" x2="50.6" y2="30.1"/>
		<line id="XMLID_1070_" class="st16" x1="50.6" y1="34.1" x2="48.6" y2="32.1"/>
		<line id="XMLID_1069_" class="st16" x1="48.6" y1="34.1" x2="46.5" y2="32.1"/>
		<line id="XMLID_1068_" class="st16" x1="46.5" y1="34.1" x2="44.4" y2="32.1"/>
	</g>
</g>
<g id="XMLID_680_" class="st0">
	<path id="XMLID_636_" class="st19" d="M39.2,49.5H19.2c-0.5,0-1-0.5-1-1V15.5c0-0.5,0.5-1,1-1h19.9c0.5,0,1,0.5,1,1v33.1
		C40.2,49.1,39.7,49.5,39.2,49.5z"/>
	<line id="XMLID_637_" class="st1" x1="26.4" y1="16.8" x2="32" y2="16.8"/>
	<rect id="XMLID_638_" x="19.9" y="18.8" class="st11" width="18.6" height="26.6"/>
	<polygon id="XMLID_596_" class="st3" points="20.8,18.8 20.8,44.5 38.5,44.5 38.5,45.4 19.9,45.4 19.9,18.8 	"/>
	<polygon id="XMLID_558_" class="st26" points="43.8,32.2 20.8,41 20.8,30.7 38.7,21.8 	"/>
	<polygon id="XMLID_557_" class="st7" points="45.8,36.2 20.8,42 20.8,30.2 43.2,24.9 	"/>
	<rect id="XMLID_674_" x="20.8" y="30.5" class="st20" width="25.7" height="11.6"/>
	<circle id="XMLID_668_" class="st10" cx="33.5" cy="36.3" r="4"/>
	<line id="XMLID_667_" class="st1" x1="23.5" y1="36.3" x2="27.9" y2="36.3"/>
	<line id="XMLID_666_" class="st1" x1="39.2" y1="36.3" x2="43.5" y2="36.3"/>
	<g id="XMLID_648_" class="st12">
		<path id="XMLID_649_" class="st14" d="M33.4,38.6v-0.4c-0.5-0.1-1-0.3-1.4-0.6l0.4-0.5c0.3,0.3,0.6,0.4,1,0.5v-1.1
			c-0.4-0.1-0.7-0.2-0.9-0.4c-0.2-0.2-0.3-0.4-0.3-0.7c0-0.3,0.1-0.6,0.3-0.8c0.2-0.2,0.5-0.3,0.9-0.3v-0.3h0.4v0.3
			c0.4,0,0.8,0.2,1.2,0.4l-0.4,0.5c-0.2-0.2-0.5-0.3-0.8-0.3v1.1h0c0.4,0.1,0.7,0.2,0.9,0.4c0.2,0.2,0.3,0.4,0.3,0.8
			s-0.1,0.6-0.3,0.8c-0.2,0.2-0.5,0.3-0.9,0.3v0.4H33.4z M33,35c-0.1,0.1-0.1,0.2-0.1,0.3c0,0.1,0,0.2,0.1,0.3
			c0.1,0.1,0.2,0.1,0.4,0.2v-1C33.2,34.8,33.1,34.9,33,35z M34.2,37.4c0.1-0.1,0.2-0.2,0.2-0.3c0-0.1,0-0.2-0.1-0.3
			c-0.1-0.1-0.2-0.1-0.5-0.2v1C33.9,37.6,34.1,37.5,34.2,37.4z"/>
	</g>
	<line id="XMLID_675_" class="st1" x1="20.8" y1="42" x2="46.5" y2="42"/>
	<line id="XMLID_669_" class="st1" x1="20.8" y1="30.5" x2="46.5" y2="30.5"/>
	<line id="XMLID_676_" class="st1" x1="21" y1="30.5" x2="43.2" y2="24.9"/>
	<line id="XMLID_677_" class="st1" x1="21" y1="30.5" x2="38.7" y2="21.8"/>
	<g id="XMLID_708_" class="st12">
		<line id="XMLID_710_" class="st16" x1="49.9" y1="27.7" x2="52.3" y2="30"/>
		<line id="XMLID_709_" class="st16" x1="49.9" y1="30" x2="52.3" y2="27.7"/>
	</g>
	<g id="XMLID_540_" class="st12">
		<line id="XMLID_632_" class="st16" x1="14.9" y1="33.5" x2="17.2" y2="35.8"/>
		<line id="XMLID_623_" class="st16" x1="14.9" y1="35.8" x2="17.2" y2="33.5"/>
	</g>
	<path id="XMLID_725_" class="st1" d="M46.5,19.4c0,0.7-1.4,0.7-1.4,1.4c0,0.7,1.4,0.7,1.4,1.4c0,0.7-1.4,0.7-1.4,1.4
		s1.4,0.7,1.4,1.4"/>
	<path id="XMLID_679_" class="st1" d="M46,43.8c0,0.5-1.1,0.5-1.1,1c0,0.5,1.1,0.5,1.1,1c0,0.5-1.1,0.5-1.1,1s1.1,0.5,1.1,1"/>
	<path id="XMLID_633_" class="st1" d="M13.1,42c0,0.7-1.4,0.7-1.4,1.4c0,0.7,1.4,0.7,1.4,1.4c0,0.7-1.4,0.7-1.4,1.4s1.4,0.7,1.4,1.4
		"/>
	<path id="XMLID_678_" class="st1" d="M13.7,20.5c0,0.5-1.1,0.5-1.1,1.1c0,0.5,1.1,0.5,1.1,1.1c0,0.5-1.1,0.5-1.1,1.1
		c0,0.5,1.1,0.5,1.1,1.1"/>
</g>
<g id="XMLID_712_" class="st0">
	<circle id="XMLID_686_" class="st6" cx="32" cy="21" r="1"/>
	<circle id="XMLID_688_" class="st1" cx="35.2" cy="18.2" r="0.9"/>
	<circle id="XMLID_695_" class="st1" cx="27.2" cy="13" r="1.3"/>
	<g id="XMLID_711_" class="st12">
		<g id="XMLID_813_">
			<path id="XMLID_690_" class="st21" d="M35.3,22.4v7.2c5.2,1.4,9.1,6.2,9.1,11.9c0,6.8-5.5,12.4-12.4,12.4
				c-6.8,0-12.4-5.5-12.4-12.4c0-5.7,3.9-10.5,9.1-11.9v-7.2H35.3z"/>
		</g>
		<path id="XMLID_689_" class="st18" d="M35.3,29.6v-7.2h-1.7v7.2c5.2,1.4,9.1,6.2,9.1,11.9c0,6.5-5.1,11.9-11.5,12.3
			c0.3,0,0.6,0,0.9,0c6.8,0,12.4-5.5,12.4-12.4C44.4,35.8,40.5,31,35.3,29.6z"/>
		<rect id="XMLID_841_" x="28.7" y="22.4" class="st32" width="6.6" height="0.9"/>
		<g id="XMLID_837_">
			<path id="XMLID_834_" class="st18" d="M36,22.7h-7.8c-0.5,0-0.9-0.4-0.9-0.9c0-0.5,0.4-0.9,0.9-0.9H36c0.5,0,0.9,0.4,0.9,0.9
				C36.9,22.3,36.5,22.7,36,22.7z"/>
		</g>
	</g>
	<g id="XMLID_691_" class="st12">
		<path id="XMLID_694_" class="st24" d="M39.9,42c0,4.4-3.6,7.9-7.9,7.9V42H39.9z"/>
		<path id="XMLID_693_" class="st22" d="M41.9,42c0-5.5-4.4-9.9-9.9-9.9c-5.5,0-9.9,4.4-9.9,9.9c0,5.5,4.4,9.9,9.9,9.9V42H41.9z"/>
		<path id="XMLID_683_" class="st16" d="M39,35c-1.8-1.8-4.3-2.9-7-2.9s-5.2,1.1-7,2.9c-1.8,1.8-2.9,4.3-2.9,7c0,2.7,1.1,5.2,2.9,7"
			/>
		<path id="XMLID_692_" class="st18" d="M37.4,42c0-3-2.4-5.4-5.4-5.4c-3,0-5.4,2.4-5.4,5.4c0,3,2.4,5.4,5.4,5.4V42H37.4z"/>
	</g>
	<polyline id="XMLID_681_" class="st1" points="32,51.8 32,42 41.9,42 	"/>
	<g id="XMLID_707_" class="st12">
		<circle id="XMLID_701_" class="st23" cx="32.1" cy="42" r="5.5"/>
		<g id="XMLID_682_">
			<g id="XMLID_179_">
				<path id="XMLID_180_" class="st14" d="M31.9,44.5V44c-0.5-0.1-1-0.3-1.4-0.7l0.6-0.7c0.3,0.3,0.6,0.5,0.9,0.5v-0.9
					c-0.4-0.1-0.7-0.3-0.9-0.4c-0.2-0.2-0.3-0.4-0.3-0.8c0-0.3,0.1-0.6,0.3-0.9c0.2-0.2,0.5-0.4,0.9-0.4v-0.3h0.6v0.3
					c0.4,0.1,0.8,0.2,1.2,0.5L33.2,41c-0.3-0.2-0.5-0.3-0.7-0.4v0.9c0.4,0.1,0.8,0.3,1,0.5c0.2,0.2,0.3,0.5,0.3,0.8
					c0,0.3-0.1,0.6-0.3,0.9c-0.2,0.2-0.5,0.4-0.9,0.4v0.4H31.9z M31.9,40.6c-0.2,0.1-0.3,0.2-0.3,0.3c0,0.2,0.1,0.3,0.3,0.4V40.6z
					 M32.8,42.8c0-0.1,0-0.2-0.1-0.2c0-0.1-0.1-0.1-0.2-0.2v0.7C32.7,43.1,32.8,43,32.8,42.8z"/>
			</g>
		</g>
	</g>
	<circle id="XMLID_684_" class="st6" cx="28.1" cy="18.7" r="1"/>
	<circle id="XMLID_687_" class="st6" cx="34.7" cy="11.4" r="1.3"/>
	<circle id="XMLID_685_" class="st6" cx="32.7" cy="15.7" r="1.2"/>
</g>
<g id="XMLID_262_" class="st0">
	<rect id="XMLID_263_" x="18.2" y="15.4" class="st7" width="27.5" height="12.4"/>
	<circle id="XMLID_261_" class="st10" cx="31.9" cy="21.5" r="4.3"/>
	<line id="XMLID_260_" class="st1" x1="21.1" y1="21.5" x2="25.8" y2="21.5"/>
	<line id="XMLID_259_" class="st1" x1="37.9" y1="21.5" x2="42.6" y2="21.5"/>
	<g id="XMLID_254_" class="st12">
		<path id="XMLID_255_" class="st14" d="M31.7,24v-0.4c-0.5-0.1-1-0.3-1.5-0.7l0.4-0.5c0.3,0.3,0.7,0.5,1,0.5v-1.2
			c-0.5-0.1-0.8-0.3-1-0.4c-0.2-0.2-0.3-0.4-0.3-0.8c0-0.3,0.1-0.6,0.4-0.9c0.2-0.2,0.6-0.3,0.9-0.4V19h0.4v0.3
			c0.4,0,0.9,0.2,1.3,0.5L33,20.4c-0.3-0.2-0.6-0.3-0.9-0.3v1.1h0c0.5,0.1,0.8,0.3,1,0.4c0.2,0.2,0.3,0.5,0.3,0.8
			c0,0.4-0.1,0.6-0.4,0.9c-0.2,0.2-0.6,0.3-1,0.4V24H31.7z M31.3,20.1c-0.1,0.1-0.2,0.2-0.2,0.3c0,0.1,0,0.2,0.1,0.3
			c0.1,0.1,0.2,0.2,0.5,0.2v-1C31.5,20,31.4,20.1,31.3,20.1z M32.6,22.8c0.1-0.1,0.2-0.2,0.2-0.3c0-0.1,0-0.3-0.1-0.3
			c-0.1-0.1-0.3-0.2-0.5-0.2V23C32.3,22.9,32.5,22.9,32.6,22.8z"/>
	</g>
	<g id="XMLID_975_" class="st12">
		<path id="XMLID_979_" class="st22" d="M36.8,33.2l4.4-4.7c1.1-1.4,3.3,0,2.1,1.4l-3.5,4.9l1.7,0l4.1-4.4c0,0,0.4-2.7,0.5-3.1
			l0.1-3.5c-0.3-0.6,0-1.3,0.6-1.6c0.6-0.3,1.3,0,1.6,0.6l0,3.9c0.1,0.3,0.1,5,0.1,5l-4.9,10.2h-7.5l0-7.3
			C36.2,34.2,36.4,33.6,36.8,33.2z"/>
		<path id="XMLID_978_" class="st33" d="M36.8,33.2l4.4-4.7c1.1-1.4,3.3,0,2.1,1.4l-3.5,4.9l1.7,0l4.3-4.6c0,0,0.3-2.8,0.4-3.1
			l-0.1-3.5c0.1-0.7,0-1.3,0.6-1.6c0.6-0.3,1.3,0,1.6,0.6l0.2,4.1c0.1,0.3,0.1,5,0.1,5l-4.9,10.2h-7.5l0-7.3
			C36.2,34.2,36.4,33.6,36.8,33.2z"/>
		<rect id="XMLID_977_" x="33.5" y="42.4" class="st23" width="11.7" height="10.2"/>
		<rect id="XMLID_976_" x="33.5" y="42.4" class="st30" width="3.2" height="10.2"/>
	</g>
	<g id="XMLID_714_" class="st12">
		<path id="XMLID_718_" class="st22" d="M27.2,33.2l-4.4-4.7c-1.1-1.4-3.3,0-2.1,1.4l3.5,4.9l-1.7,0l-4.1-4.4c0,0-0.4-2.7-0.5-3.1
			l-0.1-3.5c0.3-0.6,0-1.3-0.6-1.6c-0.6-0.3-1.3,0-1.6,0.6l0,3.9c-0.1,0.3-0.1,5-0.1,5l4.9,10.2h7.5l0-7.3
			C27.8,34.2,27.6,33.6,27.2,33.2z"/>
		<path id="XMLID_717_" class="st33" d="M27.2,33.2l-4.4-4.7c-1.1-1.4-3.3,0-2.1,1.4l3.5,4.9l-1.7,0l-4.3-4.6c0,0-0.3-2.8-0.4-3.1
			l0.1-3.5c-0.1-0.7,0-1.3-0.6-1.6c-0.6-0.3-1.3,0-1.6,0.6l-0.2,4.1c-0.1,0.3-0.1,5-0.1,5l4.9,10.2h7.5l0-7.3
			C27.8,34.2,27.6,33.6,27.2,33.2z"/>
		<rect id="XMLID_716_" x="18.7" y="42.4" class="st23" width="11.7" height="10.2"/>
		<rect id="XMLID_715_" x="27.3" y="42.4" class="st30" width="3.2" height="10.2"/>
	</g>
	<line id="XMLID_719_" class="st1" x1="31.7" y1="11.4" x2="31.7" y2="13.6"/>
	<line id="XMLID_713_" class="st1" x1="34.4" y1="11.7" x2="33.8" y2="13.9"/>
	<line id="XMLID_720_" class="st1" x1="36.8" y1="12.8" x2="35.7" y2="14.7"/>
	<line id="XMLID_729_" class="st1" x1="36.8" y1="30.3" x2="35.7" y2="28.4"/>
	<line id="XMLID_730_" class="st1" x1="34.3" y1="31.4" x2="33.7" y2="29.2"/>
	<line id="XMLID_731_" class="st1" x1="31.7" y1="31.7" x2="31.7" y2="29.4"/>
	<line id="XMLID_732_" class="st1" x1="29.1" y1="31.3" x2="29.6" y2="29.2"/>
	<line id="XMLID_733_" class="st1" x1="26.6" y1="30.3" x2="27.7" y2="28.4"/>
	<line id="XMLID_741_" class="st1" x1="26.7" y1="12.7" x2="27.8" y2="14.7"/>
	<line id="XMLID_742_" class="st1" x1="29.2" y1="11.7" x2="29.8" y2="13.9"/>
</g>
<g id="XMLID_723_" class="st0">
	<circle id="XMLID_749_" class="st6" cx="33" cy="15.4" r="5.4"/>
	<circle id="XMLID_737_" class="st1" cx="33" cy="15.4" r="5.4"/>
	<g id="XMLID_735_" class="st12">
		<g id="XMLID_175_">
			<path id="XMLID_184_" class="st14" d="M32.7,17.8v-0.4c-0.5-0.1-1-0.3-1.4-0.7l0.6-0.7c0.3,0.3,0.6,0.4,0.8,0.5v-0.9
				c-0.4-0.1-0.7-0.2-0.9-0.4c-0.2-0.2-0.3-0.4-0.3-0.8c0-0.3,0.1-0.6,0.3-0.8c0.2-0.2,0.5-0.4,0.9-0.4V13h0.6v0.3
				c0.4,0.1,0.8,0.2,1.2,0.5L34,14.5c-0.2-0.2-0.5-0.3-0.7-0.4V15c0.4,0.1,0.7,0.3,0.9,0.4c0.2,0.2,0.3,0.4,0.3,0.8
				c0,0.3-0.1,0.6-0.3,0.8c-0.2,0.2-0.5,0.4-0.9,0.4v0.4H32.7z M32.7,14.1c-0.2,0.1-0.3,0.2-0.3,0.3c0,0.2,0.1,0.3,0.3,0.4V14.1z
				 M33.7,16.2c0-0.1,0-0.2-0.1-0.2c0-0.1-0.1-0.1-0.2-0.2v0.7C33.6,16.5,33.7,16.4,33.7,16.2z"/>
		</g>
	</g>
	<path id="XMLID_722_" class="st3" d="M35.4,33.7v10.7c0,2.1-1.7,3.9-3.9,3.9c-2.1,0-3.9-1.7-3.9-3.9V33.7h-5.7v10.7
		c0,5.3,4.3,9.6,9.6,9.6c5.3,0,9.6-4.3,9.6-9.6V33.7h-5.2H35.4z"/>
	<path id="XMLID_740_" class="st19" d="M36.4,33.7v10.7c0,2.1-1.7,3.9-3.9,3.9c-2.1,0-3.9-1.7-3.9-3.9V33.7h-5.7v10.7
		c0,5.3,4.3,9.6,9.6,9.6c5.3,0,9.6-4.3,9.6-9.6V33.7H36.4z"/>
	<rect id="XMLID_721_" x="22.9" y="33.7" class="st7" width="5.7" height="3.7"/>
	<rect id="XMLID_724_" x="36.4" y="33.7" class="st7" width="5.7" height="3.7"/>
	<line id="XMLID_727_" class="st1" x1="22.9" y1="37.6" x2="28.6" y2="37.6"/>
	<line id="XMLID_726_" class="st1" x1="36.4" y1="37.6" x2="42.1" y2="37.6"/>
	<path id="XMLID_734_" class="st1" d="M25.8,26.1c0,0.9-1.7,0.9-1.7,1.8c0,0.9,1.7,0.9,1.7,1.8c0,0.9-1.7,0.9-1.7,1.8
		c0,0.9,1.7,0.9,1.7,1.8"/>
	<path id="XMLID_728_" class="st1" d="M39.1,26.1c0,0.9,1.7,0.9,1.7,1.8c0,0.9-1.7,0.9-1.7,1.8c0,0.9,1.7,0.9,1.7,1.8
		c0,0.9-1.7,0.9-1.7,1.8"/>
	<path id="XMLID_736_" class="st1" d="M31.1,21.8c0,1.4,2.8,1.4,2.8,2.9c0,1.4-2.8,1.4-2.8,2.9c0,1.4,2.8,1.4,2.8,2.9
		s-2.8,1.4-2.8,2.9"/>
</g>
<g id="XMLID_786_" class="st0">
	<g id="XMLID_738_" class="st12">
		<line id="XMLID_757_" class="st16" x1="23.9" y1="21.3" x2="27.2" y2="21.3"/>
		<line id="XMLID_756_" class="st16" x1="25.5" y1="22.9" x2="25.5" y2="19.7"/>
	</g>
	<g id="XMLID_780_" class="st12">
		<line id="XMLID_782_" class="st16" x1="39.2" y1="17.5" x2="42.5" y2="17.5"/>
		<line id="XMLID_781_" class="st16" x1="40.9" y1="19.1" x2="40.9" y2="15.8"/>
	</g>
	<polygon id="XMLID_761_" class="st34" points="32,48.2 32.1,48 32,47.8 	"/>
	<polygon id="XMLID_750_" class="st34" points="32.1,48 32.1,47.9 32.1,47.9 32.1,48 32.3,47.7 32.3,47.7 	"/>
	<polygon id="XMLID_760_" class="st34" points="32.1,47.9 32,48 32,48.2 32.1,48 	"/>
	<polygon id="XMLID_762_" class="st3" points="32.1,47.9 32.1,47.9 32.1,47.9 	"/>
	<polygon id="XMLID_763_" class="st3" points="32.3,47.7 39.9,34.5 32.3,47.7 	"/>
	<polygon id="XMLID_770_" class="st7" points="45.9,34.5 39.9,34.5 32.3,47.7 	"/>
	<polygon id="XMLID_771_" class="st11" points="24.2,34.5 18.1,34.5 32,48 32,47.8 	"/>
	<polygon id="XMLID_774_" class="st3" points="32.1,47.9 32,47.8 32,48 32.1,47.9 	"/>
	<polygon id="XMLID_775_" class="st7" points="32,34.5 24.2,34.5 32,47.8 	"/>
	<polygon id="XMLID_776_" class="st3" points="32,47.8 24.2,34.5 32,47.8 	"/>
	<polygon id="XMLID_777_" class="st34" points="32.3,47.7 32.1,47.9 32.1,48 	"/>
	<polygon id="XMLID_778_" class="st11" points="32.1,47.9 32.1,47.9 32.3,47.7 39.9,34.5 32,34.5 32,47.8 	"/>
	<polygon id="XMLID_779_" class="st3" points="32,47.8 32.1,47.9 32,47.8 	"/>
	<polygon id="XMLID_764_" class="st7" points="20.1,28.2 18.1,34.5 24.2,34.5 26.2,28.2 	"/>
	<polygon id="XMLID_765_" class="st11" points="32,28.2 26.2,28.2 24.2,34.5 32,34.5 	"/>
	<polygon id="XMLID_766_" class="st7" points="39.9,34.5 37.9,28.2 32,28.2 32,34.5 	"/>
	<polygon id="XMLID_768_" class="st11" points="45.9,34.5 43.9,28.2 37.9,28.2 39.9,34.5 	"/>
	<polygon id="XMLID_739_" class="st1" points="18.1,34.5 20.1,28.2 43.9,28.2 45.9,34.5 32.1,48 	"/>
	<line id="XMLID_743_" class="st1" x1="18.1" y1="34.5" x2="45.9" y2="34.5"/>
	<line id="XMLID_759_" class="st1" x1="28.5" y1="21.3" x2="29.6" y2="21.3"/>
	<line id="XMLID_758_" class="st1" x1="43.6" y1="21.3" x2="30.4" y2="21.3"/>
	<line id="XMLID_783_" class="st1" x1="38.5" y1="17.5" x2="37" y2="17.5"/>
	<line id="XMLID_784_" class="st1" x1="36" y1="17.5" x2="34.5" y2="17.5"/>
	<line id="XMLID_785_" class="st1" x1="20.8" y1="17.5" x2="33.5" y2="17.5"/>
	<line id="XMLID_789_" class="st1" x1="32" y1="47.8" x2="32" y2="38.3"/>
	<line id="XMLID_788_" class="st1" x1="32" y1="32.6" x2="32" y2="28"/>
</g>
<g id="XMLID_843_" class="st0">
	<line id="XMLID_791_" class="st1" x1="31.7" y1="18.3" x2="31.7" y2="48.3"/>
	<line id="XMLID_792_" class="st1" x1="20.4" y1="28.3" x2="31.7" y2="39.9"/>
	<path id="XMLID_790_" class="st1" d="M28.6,27.7l-0.2,8.7"/>
	<path id="XMLID_800_" class="st1" d="M26.8,34.8l-8.2-0.2"/>
	<line id="XMLID_806_" class="st1" x1="43.1" y1="31.9" x2="31.7" y2="43.5"/>
	<path id="XMLID_804_" class="st1" d="M35,40.1l-0.2-8.7"/>
	<path id="XMLID_802_" class="st1" d="M44.8,38.4l-8.2,0.2"/>
	<rect id="XMLID_833_" x="18.1" y="12.9" class="st7" width="26.9" height="12.1"/>
	<circle id="XMLID_830_" class="st10" cx="31.5" cy="19" r="4.2"/>
	<line id="XMLID_829_" class="st1" x1="20.9" y1="19" x2="25.5" y2="19"/>
	<line id="XMLID_828_" class="st1" x1="37.4" y1="19" x2="42" y2="19"/>
	<g id="XMLID_812_" class="st12">
		<path id="XMLID_814_" class="st14" d="M31.3,21.4V21c-0.5-0.1-1-0.3-1.5-0.6l0.4-0.5c0.3,0.3,0.7,0.5,1,0.5v-1.1
			c-0.4-0.1-0.8-0.2-1-0.4C30.1,18.6,30,18.4,30,18c0-0.3,0.1-0.6,0.4-0.8c0.2-0.2,0.5-0.3,0.9-0.4v-0.3h0.4v0.3
			c0.4,0,0.8,0.2,1.2,0.4l-0.4,0.5c-0.3-0.2-0.5-0.3-0.8-0.3v1.1h0c0.5,0.1,0.8,0.3,1,0.4c0.2,0.2,0.3,0.4,0.3,0.8s-0.1,0.6-0.4,0.8
			c-0.2,0.2-0.6,0.3-1,0.4v0.4H31.3z M30.9,17.6c-0.1,0.1-0.2,0.2-0.2,0.3c0,0.1,0,0.2,0.1,0.3c0.1,0.1,0.2,0.2,0.4,0.2v-1
			C31.2,17.5,31,17.5,30.9,17.6z M32.2,20.2c0.1-0.1,0.2-0.2,0.2-0.3c0-0.1,0-0.2-0.1-0.3c-0.1-0.1-0.2-0.2-0.5-0.2v1.1
			C31.9,20.3,32,20.3,32.2,20.2z"/>
	</g>
	<circle id="XMLID_801_" class="st6" cx="20.4" cy="28.3" r="2.4"/>
	<circle id="XMLID_807_" class="st6" cx="18.9" cy="34.8" r="1.8"/>
	<circle id="XMLID_831_" class="st6" cx="22.5" cy="32.1" r="1"/>
	<circle id="XMLID_832_" class="st6" cx="26.5" cy="33.3" r="1"/>
	<circle id="XMLID_835_" class="st6" cx="38.8" cy="35.3" r="1"/>
	<circle id="XMLID_836_" class="st6" cx="35.6" cy="38.4" r="1"/>
	<circle id="XMLID_808_" class="st6" cx="28.4" cy="28.3" r="1.9"/>
	<circle id="XMLID_809_" class="st6" cx="35" cy="31.4" r="1.9"/>
	<circle id="XMLID_810_" class="st6" cx="42.9" cy="32.3" r="2.1"/>
	<circle id="XMLID_811_" class="st6" cx="44.4" cy="37.9" r="1.7"/>
	<line id="XMLID_840_" class="st1" x1="18.9" y1="48.8" x2="45.4" y2="48.8"/>
	<line id="XMLID_839_" class="st1" x1="14.3" y1="51.1" x2="36.2" y2="51.1"/>
	<line id="XMLID_842_" class="st1" x1="49.7" y1="51.1" x2="37.2" y2="51.1"/>
</g>
</svg>
