<svg version="1.1" viewBox="0.0 0.0 810.4225721784777 586.2860892388452" fill="none" stroke="none" stroke-linecap="square" stroke-miterlimit="10" xmlns:xlink="http://www.w3.org/1999/xlink" xmlns="http://www.w3.org/2000/svg"><clipPath id="p.0"><path d="m0 0l810.42255 0l0 586.2861l-810.42255 0l0 -586.2861z" clip-rule="nonzero"/></clipPath><g clip-path="url(#p.0)"><path fill="#000000" fill-opacity="0.0" d="m0 0l810.42255 0l0 586.2861l-810.42255 0z" fill-rule="evenodd"/><path stroke="#cccccc" stroke-width="1.0" stroke-linecap="butt" d="m107.23753 22.905512l0 458.55118" fill-rule="nonzero"/><path stroke="#cccccc" stroke-width="1.0" stroke-linecap="butt" d="m147.43176 22.905512l0 458.55118" fill-rule="nonzero"/><path stroke="#cccccc" stroke-width="1.0" stroke-linecap="butt" d="m187.62599 22.905512l0 458.55118" fill-rule="nonzero"/><path stroke="#cccccc" stroke-width="1.0" stroke-linecap="butt" d="m227.8202 22.905512l0 458.55118" fill-rule="nonzero"/><path stroke="#cccccc" stroke-width="1.0" stroke-linecap="butt" d="m268.01443 22.905512l0 458.55118" fill-rule="nonzero"/><path stroke="#cccccc" stroke-width="1.0" stroke-linecap="butt" d="m308.20865 22.905512l0 458.55118" fill-rule="nonzero"/><path stroke="#cccccc" stroke-width="1.0" stroke-linecap="butt" d="m348.4029 22.905512l0 458.55118" fill-rule="nonzero"/><path stroke="#cccccc" stroke-width="1.0" stroke-linecap="butt" d="m388.5971 22.905512l0 458.55118" fill-rule="nonzero"/><path stroke="#cccccc" stroke-width="1.0" stroke-linecap="butt" d="m428.79135 22.905512l0 458.55118" fill-rule="nonzero"/><path stroke="#cccccc" stroke-width="1.0" stroke-linecap="butt" d="m468.98557 22.905512l0 458.55118" fill-rule="nonzero"/><path stroke="#cccccc" stroke-width="1.0" stroke-linecap="butt" d="m509.17978 22.905512l0 458.55118" fill-rule="nonzero"/><path stroke="#cccccc" stroke-width="1.0" stroke-linecap="butt" d="m549.374 22.905512l0 458.55118" fill-rule="nonzero"/><path stroke="#cccccc" stroke-width="1.0" stroke-linecap="butt" d="m589.56824 22.905512l0 458.55118" fill-rule="nonzero"/><path stroke="#cccccc" stroke-width="1.0" stroke-linecap="butt" d="m629.76245 22.905512l0 458.55118" fill-rule="nonzero"/><path stroke="#cccccc" stroke-width="1.0" stroke-linecap="butt" d="m669.95667 22.905512l0 458.55118" fill-rule="nonzero"/><path stroke="#cccccc" stroke-width="1.0" stroke-linecap="butt" d="m710.15094 22.905512l0 458.55118" fill-rule="nonzero"/><path stroke="#cccccc" stroke-width="1.0" stroke-linecap="butt" d="m750.34515 22.905512l0 458.55118" fill-rule="nonzero"/><path stroke="#cccccc" stroke-width="1.0" stroke-linecap="butt" d="m106.738846 23.4042l644.105 0" fill-rule="nonzero"/><path stroke="#cccccc" stroke-width="1.0" stroke-linecap="butt" d="m106.738846 65.0l644.105 0" fill-rule="nonzero"/><path stroke="#cccccc" stroke-width="1.0" stroke-linecap="butt" d="m106.738846 106.5958l644.105 0" fill-rule="nonzero"/><path stroke="#cccccc" stroke-width="1.0" stroke-linecap="butt" d="m106.738846 148.1916l644.105 0" fill-rule="nonzero"/><path stroke="#cccccc" stroke-width="1.0" stroke-linecap="butt" d="m106.738846 189.7874l644.105 0" fill-rule="nonzero"/><path stroke="#cccccc" stroke-width="1.0" stroke-linecap="butt" d="m106.738846 231.38321l644.105 0" fill-rule="nonzero"/><path stroke="#cccccc" stroke-width="1.0" stroke-linecap="butt" d="m106.738846 272.979l644.105 0" fill-rule="nonzero"/><path stroke="#cccccc" stroke-width="1.0" stroke-linecap="butt" d="m106.738846 314.5748l644.105 0" fill-rule="nonzero"/><path stroke="#cccccc" stroke-width="1.0" stroke-linecap="butt" d="m106.738846 356.1706l644.105 0" fill-rule="nonzero"/><path stroke="#cccccc" stroke-width="1.0" stroke-linecap="butt" d="m106.738846 397.76642l644.105 0" fill-rule="nonzero"/><path stroke="#cccccc" stroke-width="1.0" stroke-linecap="butt" d="m106.738846 439.3622l644.105 0" fill-rule="nonzero"/><path stroke="#cccccc" stroke-width="1.0" stroke-linecap="butt" d="m106.738846 480.958l644.105 0" fill-rule="nonzero"/><path fill="#000000" fill-opacity="0.0" d="m105.06562 474.58267c7.247589 -7.04068 29.404198 -14.910309 43.485558 -42.24408c14.081375 -27.33377 27.749786 -81.37927 41.002625 -121.758545c13.252853 -40.379272 25.468948 -86.55687 38.514435 -120.51706c13.045502 -33.96019 26.7126 -64.40026 39.758545 -83.24409c13.045929 -18.843834 19.673218 -23.606743 38.51706 -29.818901c18.843811 -6.212158 0.46279907 -5.734474 74.54593 -7.454071c74.0831 -1.7195969 308.29395 -2.386261 369.95276 -2.8635178" fill-rule="evenodd"/><path stroke="#8d3aed" stroke-width="12.0" stroke-linejoin="round" stroke-linecap="butt" d="m105.06562 474.58267c7.247589 -7.04068 29.404198 -14.910309 43.485558 -42.24408c14.081375 -27.33377 27.749786 -81.37927 41.002625 -121.758545c13.252853 -40.379272 25.468948 -86.55687 38.514435 -120.51706c13.045502 -33.96019 26.7126 -64.40026 39.758545 -83.24409c13.045929 -18.843834 19.673218 -23.606743 38.51706 -29.818901c18.843811 -6.212158 0.46279907 -5.734474 74.54593 -7.454071c74.0831 -1.7195969 308.29395 -2.386261 369.95276 -2.8635178" fill-rule="evenodd"/><path fill="#9e9e9e" d="m751.2571 474.27298l0 0c4.916992 0 8.903015 3.986023 8.903015 8.903046l0 35.611206l0 0c0 2.361206 -0.9379883 4.6257324 -2.607605 6.29541c-1.6696777 1.6696777 -3.934204 2.607666 -6.29541 2.607666l-686.6978 0c-4.9170265 0 -8.903065 -3.986084 -8.903065 -8.903076l0 -35.611206c0 -4.9170227 3.9860382 -8.903046 8.903065 -8.903046z" fill-rule="evenodd"/><path fill="#9e9e9e" d="m53.427822 24.813826l0 0c0 -4.9170265 3.9860382 -8.903065 8.903065 -8.903065l35.61119 0l0 0c2.3612442 0 4.6257706 0.9379978 6.295418 2.607647c1.6696472 1.6696491 2.6076508 3.9341774 2.6076508 6.295418l0 492.3671c0 4.917053 -3.9860382 8.903076 -8.903069 8.903076l-35.61119 0c-4.9170265 0 -8.903065 -3.986023 -8.903065 -8.903076z" fill-rule="evenodd"/><path fill="#000000" fill-opacity="0.0" d="m55.66273 251.93176l48.94488 0l0 42.015747l-48.94488 0z" fill-rule="evenodd"/><path fill="#4a86e8" d="m72.07773 279.03925q-2.515625 0 -3.8125 -1.59375q-1.296875 -1.609375 -1.296875 -4.75q0 -3.140625 1.296875 -4.734375q1.296875 -1.609375 3.8125 -1.609375q2.53125 0 3.828125 1.609375q1.296875 1.59375 1.296875 4.734375q0 3.140625 -1.296875 4.75q-1.296875 1.59375 -3.828125 1.59375zm0 -2.5q0.703125 0 1.125 -0.375q0.4375 -0.390625 0.625 -1.234375q0.203125 -0.859375 0.203125 -2.234375q0 -1.375 -0.203125 -2.21875q-0.1875 -0.859375 -0.625 -1.234375q-0.421875 -0.390625 -1.125 -0.390625q-0.671875 0 -1.109375 0.390625q-0.4375 0.375 -0.640625 1.234375q-0.1875 0.84375 -0.1875 2.21875q0 1.375 0.1875 2.234375q0.203125 0.84375 0.640625 1.234375q0.4375 0.375 1.109375 0.375zm8.531097 -0.890625q0.875 0 1.375 0.453125q0.5 0.4375 0.5 1.234375q0 0.78125 -0.5 1.234375q-0.5 0.453125 -1.375 0.453125q-0.859375 0 -1.359375 -0.453125q-0.5 -0.453125 -0.5 -1.234375q0 -0.796875 0.5 -1.234375q0.5 -0.453125 1.359375 -0.453125zm8.035309 3.390625q-1.59375 0 -2.78125 -0.625q-1.1875 -0.625 -1.984375 -2.046875l2.8125 -1.390625q0.203125 0.734375 0.65625 1.1875q0.46875 0.453125 1.375 0.453125q0.578125 0 0.984375 -0.203125q0.421875 -0.21875 0.65625 -0.609375q0.234375 -0.40625 0.234375 -0.984375q0 -0.5625 -0.21875 -0.921875q-0.21875 -0.375 -0.625 -0.578125q-0.40625 -0.203125 -1.03125 -0.203125q-0.4375 0 -0.796875 0.09375q-0.359375 0.078125 -0.65625 0.234375q-0.28125 0.15625 -0.515625 0.40625l-2.4375 -0.453125l0.796875 -6.859375l7.75 0l0 2.484375l-5.421875 0l-0.3125 2.453125l-0.0625 0.296875l0.015625 0q0.375 -0.421875 1.046875 -0.640625q0.671875 -0.234375 1.5 -0.234375q1.203125 0 2.0625 0.484375q0.859375 0.484375 1.328125 1.328125q0.46875 0.84375 0.46875 1.921875q0 1.140625 -0.390625 1.96875q-0.375 0.828125 -1.0625 1.375q-0.671875 0.546875 -1.546875 0.8125q-0.859375 0.25 -1.84375 0.25z" fill-rule="nonzero"/><path fill="#000000" fill-opacity="0.0" d="m53.42651 476.94882l48.94488 0l0 42.015717l-48.94488 0z" fill-rule="evenodd"/><path fill="#ffffff" d="m77.89163 504.0563q-2.515625 0 -3.8125 -1.59375q-1.296875 -1.609375 -1.296875 -4.75q0 -3.140625 1.296875 -4.734375q1.296875 -1.609375 3.8125 -1.609375q2.53125 0 3.828125 1.609375q1.296875 1.59375 1.296875 4.734375q0 3.140625 -1.296875 4.75q-1.296875 1.59375 -3.828125 1.59375zm0 -2.5q0.703125 0 1.125 -0.375q0.4375 -0.390625 0.625 -1.234375q0.203125 -0.859375 0.203125 -2.234375q0 -1.375 -0.203125 -2.21875q-0.1875 -0.859375 -0.625 -1.234375q-0.421875 -0.390625 -1.125 -0.390625q-0.671875 0 -1.109375 0.390625q-0.4375 0.375 -0.640625 1.234375q-0.1875 0.84375 -0.1875 2.21875q0 1.375 0.1875 2.234375q0.203125 0.84375 0.640625 1.234375q0.4375 0.375 1.109375 0.375z" fill-rule="nonzero"/><path fill="#000000" fill-opacity="0.0" d="m55.66273 45.027557l48.94488 0l0 42.015747l-48.94488 0z" fill-rule="evenodd"/><path fill="#ffffff" d="m71.058105 71.947556l0 -7.09375q0 -0.484375 0 -0.984375q0.015625 -0.515625 0.015625 -1.0625q-0.609375 0.5625 -1.359375 0.984375q-0.75 0.40625 -1.5625 0.5625l-0.296875 -2.65625q0.484375 -0.03125 1.03125 -0.234375q0.546875 -0.203125 1.078125 -0.5q0.546875 -0.296875 0.96875 -0.640625q0.4375 -0.359375 0.671875 -0.6875l2.546875 0l0 12.3125l-3.09375 0zm7.181473 -3.203125q0.875 0 1.375 0.453125q0.5 0.4375 0.5 1.234375q0 0.78125 -0.5 1.234375q-0.5 0.453125 -1.375 0.453125q-0.859375 0 -1.359375 -0.453125q-0.5 -0.453125 -0.5 -1.234375q0 -0.796875 0.5 -1.234375q0.5 -0.453125 1.359375 -0.453125zm8.520523 3.390625q-2.515625 0 -3.8125 -1.59375q-1.296875 -1.609375 -1.296875 -4.75q0 -3.140625 1.296875 -4.734375q1.296875 -1.609375 3.8125 -1.609375q2.53125 0 3.828125 1.609375q1.296875 1.59375 1.296875 4.734375q0 3.140625 -1.296875 4.75q-1.296875 1.59375 -3.828125 1.59375zm0 -2.5q0.703125 0 1.125 -0.375q0.4375 -0.390625 0.625 -1.234375q0.203125 -0.859375 0.203125 -2.234375q0 -1.375 -0.203125 -2.21875q-0.1875 -0.859375 -0.625 -1.234375q-0.421875 -0.390625 -1.125 -0.390625q-0.671875 0 -1.109375 0.390625q-0.4375 0.375 -0.640625 1.234375q-0.1875 0.84375 -0.1875 2.21875q0 1.375 0.1875 2.234375q0.203125 0.84375 0.640625 1.234375q0.4375 0.375 1.109375 0.375z" fill-rule="nonzero"/><path fill="#000000" fill-opacity="0.0" d="m284.2264 479.97314l48.944885 0l0 42.015747l-48.944885 0z" fill-rule="evenodd"/><path fill="#ffffff" d="m302.58136 507.08063q-1.59375 0 -2.78125 -0.625q-1.1875 -0.625 -1.984375 -2.046875l2.8125 -1.390625q0.203125 0.734375 0.65625 1.1875q0.46875 0.453125 1.375 0.453125q0.578125 0 0.984375 -0.203125q0.421875 -0.21875 0.65625 -0.609375q0.234375 -0.40625 0.234375 -0.984375q0 -0.5625 -0.21875 -0.921875q-0.21875 -0.375 -0.625 -0.578125q-0.40625 -0.203125 -1.03125 -0.203125q-0.4375 0 -0.796875 0.09375q-0.359375 0.078125 -0.65625 0.234375q-0.28125 0.15625 -0.515625 0.40625l-2.4375 -0.453125l0.796875 -6.859375l7.75 0l0 2.484375l-5.421875 0l-0.3125 2.453125l-0.0625 0.296875l0.015625 0q0.375 -0.421875 1.046875 -0.640625q0.671875 -0.234375 1.5 -0.234375q1.203125 0 2.0625 0.484375q0.859375 0.484375 1.328125 1.328125q0.46875 0.84375 0.46875 1.921875q0 1.140625 -0.390625 1.96875q-0.375 0.828125 -1.0625 1.375q-0.671875 0.546875 -1.546875 0.8125q-0.859375 0.25 -1.84375 0.25zm11.548492 0q-2.515625 0 -3.8125 -1.59375q-1.296875 -1.609375 -1.296875 -4.75q0 -3.140625 1.296875 -4.734375q1.296875 -1.609375 3.8125 -1.609375q2.53125 0 3.828125 1.609375q1.296875 1.59375 1.296875 4.734375q0 3.140625 -1.296875 4.75q-1.296875 1.59375 -3.828125 1.59375zm0 -2.5q0.703125 0 1.125 -0.375q0.4375 -0.390625 0.625 -1.234375q0.203125 -0.859375 0.203125 -2.234375q0 -1.375 -0.203125 -2.21875q-0.1875 -0.859375 -0.625 -1.234375q-0.421875 -0.390625 -1.125 -0.390625q-0.671875 0 -1.109375 0.390625q-0.4375 0.375 -0.640625 1.234375q-0.1875 0.84375 -0.1875 2.21875q0 1.375 0.1875 2.234375q0.203125 0.84375 0.640625 1.234375q0.4375 0.375 1.109375 0.375z" fill-rule="nonzero"/><path fill="#000000" fill-opacity="0.0" d="m480.7007 479.97375l53.417328 0l0 42.015747l-53.417328 0z" fill-rule="evenodd"/><path fill="#ffffff" d="m494.93683 506.89374l0 -7.09375q0 -0.484375 0 -0.984375q0.015625 -0.515625 0.015625 -1.0625q-0.609375 0.5625 -1.359375 0.984375q-0.75 0.40625 -1.5625 0.5625l-0.296875 -2.65625q0.484375 -0.03125 1.03125 -0.234375q0.546875 -0.203125 1.078125 -0.5q0.546875 -0.296875 0.96875 -0.640625q0.4375 -0.359375 0.671875 -0.6875l2.546875 0l0 12.3125l-3.09375 0zm10.4783325 0.1875q-2.515625 0 -3.8125 -1.59375q-1.296875 -1.609375 -1.296875 -4.75q0 -3.140625 1.296875 -4.734375q1.296875 -1.609375 3.8125 -1.609375q2.53125 0 3.828125 1.609375q1.296875 1.59375 1.296875 4.734375q0 3.140625 -1.296875 4.75q-1.296875 1.59375 -3.828125 1.59375zm0 -2.5q0.703125 0 1.125 -0.375q0.4375 -0.390625 0.625 -1.234375q0.203125 -0.859375 0.203125 -2.234375q0 -1.375 -0.203125 -2.21875q-0.1875 -0.859375 -0.625 -1.234375q-0.421875 -0.390625 -1.125 -0.390625q-0.671875 0 -1.109375 0.390625q-0.4375 0.375 -0.640625 1.234375q-0.1875 0.84375 -0.1875 2.21875q0 1.375 0.1875 2.234375q0.203125 0.84375 0.640625 1.234375q0.4375 0.375 1.109375 0.375zm12.014648 2.5q-2.515625 0 -3.8125 -1.59375q-1.296875 -1.609375 -1.296875 -4.75q0 -3.140625 1.296875 -4.734375q1.296875 -1.609375 3.8125 -1.609375q2.53125 0 3.828125 1.609375q1.296875 1.59375 1.296875 4.734375q0 3.140625 -1.296875 4.75q-1.296875 1.59375 -3.828125 1.59375zm0 -2.5q0.703125 0 1.125 -0.375q0.4375 -0.390625 0.625 -1.234375q0.203125 -0.859375 0.203125 -2.234375q0 -1.375 -0.203125 -2.21875q-0.1875 -0.859375 -0.625 -1.234375q-0.421875 -0.390625 -1.125 -0.390625q-0.671875 0 -1.109375 0.390625q-0.4375 0.375 -0.640625 1.234375q-0.1875 0.84375 -0.1875 2.21875q0 1.375 0.1875 2.234375q0.203125 0.84375 0.640625 1.234375q0.4375 0.375 1.109375 0.375z" fill-rule="nonzero"/><path fill="#000000" fill-opacity="0.0" d="m677.9211 479.97375l61.543335 0l0 42.015747l-61.543335 0z" fill-rule="evenodd"/><path fill="#ffffff" d="m696.7892 506.89374l0 -7.09375q0 -0.484375 0 -0.984375q0.015625 -0.515625 0.015625 -1.0625q-0.609375 0.5625 -1.359375 0.984375q-0.75 0.40625 -1.5625 0.5625l-0.296875 -2.65625q0.484375 -0.03125 1.03125 -0.234375q0.546875 -0.203125 1.078125 -0.5q0.546875 -0.296875 0.96875 -0.640625q0.4375 -0.359375 0.671875 -0.6875l2.546875 0l0 12.3125l-3.09375 0zm9.8064575 0.1875q-1.59375 0 -2.78125 -0.625q-1.1875 -0.625 -1.984375 -2.046875l2.8125 -1.390625q0.203125 0.734375 0.65625 1.1875q0.46875 0.453125 1.375 0.453125q0.578125 0 0.984375 -0.203125q0.421875 -0.21875 0.65625 -0.609375q0.234375 -0.40625 0.234375 -0.984375q0 -0.5625 -0.21875 -0.921875q-0.21875 -0.375 -0.625 -0.578125q-0.40625 -0.203125 -1.03125 -0.203125q-0.4375 0 -0.796875 0.09375q-0.359375 0.078125 -0.65625 0.234375q-0.28125 0.15625 -0.515625 0.40625l-2.4375 -0.453125l0.796875 -6.859375l7.75 0l0 2.484375l-5.421875 0l-0.3125 2.453125l-0.0625 0.296875l0.015625 0q0.375 -0.421875 1.046875 -0.640625q0.671875 -0.234375 1.5 -0.234375q1.203125 0 2.0625 0.484375q0.859375 0.484375 1.328125 1.328125q0.46875 0.84375 0.46875 1.921875q0 1.140625 -0.390625 1.96875q-0.375 0.828125 -1.0625 1.375q-0.671875 0.546875 -1.546875 0.8125q-0.859375 0.25 -1.84375 0.25zm11.548523 0q-2.515625 0 -3.8125 -1.59375q-1.296875 -1.609375 -1.296875 -4.75q0 -3.140625 1.296875 -4.734375q1.296875 -1.609375 3.8125 -1.609375q2.53125 0 3.828125 1.609375q1.296875 1.59375 1.296875 4.734375q0 3.140625 -1.296875 4.75q-1.296875 1.59375 -3.828125 1.59375zm0 -2.5q0.703125 0 1.125 -0.375q0.4375 -0.390625 0.625 -1.234375q0.203125 -0.859375 0.203125 -2.234375q0 -1.375 -0.203125 -2.21875q-0.1875 -0.859375 -0.625 -1.234375q-0.421875 -0.390625 -1.125 -0.390625q-0.671875 0 -1.109375 0.390625q-0.4375 0.375 -0.640625 1.234375q-0.1875 0.84375 -0.1875 2.21875q0 1.375 0.1875 2.234375q0.203125 0.84375 0.640625 1.234375q0.4375 0.375 1.109375 0.375z" fill-rule="nonzero"/><path fill="#000000" fill-opacity="0.0" d="m106.30971 472.0971l645.7638 -146.99213" fill-rule="evenodd"/><path stroke="#bd005e" stroke-width="12.0" stroke-linejoin="round" stroke-linecap="butt" d="m106.30971 472.0971l645.7638 -146.99213" fill-rule="evenodd"/><path fill="#000000" fill-opacity="0.0" d="m177.2664 485.67322l48.944885 0l0 38.771667l-48.944885 0z" fill-rule="evenodd"/><path fill="#4a86e8" d="m192.4897 510.03323l0.4375 -1.828125q1.0625 -0.65625 2.109375 -1.34375q1.046875 -0.6875 1.90625 -1.390625q0.859375 -0.703125 1.375 -1.40625q0.515625 -0.71875 0.515625 -1.421875q0 -0.53125 -0.328125 -0.84375q-0.328125 -0.328125 -0.890625 -0.328125q-0.765625 0 -1.21875 0.546875q-0.453125 0.53125 -0.609375 1.46875l-2.28125 -0.875q0.21875 -1.015625 0.78125 -1.75q0.5625 -0.75 1.453125 -1.140625q0.890625 -0.40625 2.125 -0.40625q1.25 0 2.0625 0.421875q0.828125 0.421875 1.234375 1.09375q0.421875 0.671875 0.421875 1.4375q0 0.84375 -0.328125 1.5625q-0.328125 0.703125 -0.890625 1.296875q-0.546875 0.59375 -1.25 1.109375q-0.703125 0.5 -1.46875 0.9375q-0.75 0.421875 -1.453125 0.8125l0 0.015625q0.28125 -0.03125 0.8125 -0.046875q0.53125 -0.015625 1.0 -0.015625l2.890625 0l-0.5 2.09375l-7.90625 0zm13.779648 0.15625q-1.875 0 -2.96875 -0.859375q-1.078125 -0.875 -1.234375 -2.3125l2.546875 -0.53125q0.046875 0.796875 0.453125 1.1875q0.40625 0.390625 1.15625 0.390625q0.421875 0 0.734375 -0.171875q0.328125 -0.171875 0.5 -0.484375q0.171875 -0.3125 0.171875 -0.6875q0 -0.6875 -0.453125 -0.90625q-0.4375 -0.234375 -1.03125 -0.234375q-0.125 0 -0.21875 0.015625q-0.078125 0 -0.1875 0.015625l0.40625 -1.765625q0.125 0.03125 0.28125 0.046875q0.171875 0.015625 0.359375 0.015625q0.46875 0 0.796875 -0.171875q0.34375 -0.171875 0.515625 -0.46875q0.1875 -0.296875 0.1875 -0.703125q0 -0.40625 -0.1875 -0.640625q-0.1875 -0.25 -0.46875 -0.359375q-0.28125 -0.125 -0.609375 -0.125q-0.671875 0 -1.03125 0.328125q-0.359375 0.3125 -0.53125 0.921875l-2.3125 -0.859375q0.453125 -1.234375 1.484375 -1.875q1.03125 -0.640625 2.546875 -0.640625q1.15625 0 1.984375 0.34375q0.84375 0.328125 1.296875 0.953125q0.453125 0.609375 0.453125 1.46875q0 0.765625 -0.3125 1.359375q-0.296875 0.59375 -0.84375 0.953125q-0.53125 0.34375 -1.25 0.390625l-0.015625 0.0625q0.484375 0.0625 0.890625 0.3125q0.40625 0.25 0.640625 0.6875q0.25 0.421875 0.25 1.046875q0 1.0625 -0.5625 1.796875q-0.546875 0.734375 -1.46875 1.125q-0.90625 0.375 -1.96875 0.375z" fill-rule="nonzero"/><path fill="#000000" fill-opacity="0.0" d="m201.74016 491.70865l0 -218.77164" fill-rule="evenodd"/><path stroke="#4a86e8" stroke-width="4.0" stroke-linejoin="round" stroke-linecap="butt" stroke-dasharray="16.0,12.0,4.0,12.0" d="m201.74016 491.70865l0 -218.77164" fill-rule="evenodd"/><path fill="#000000" fill-opacity="0.0" d="m201.23753 272.93964l-96.62992 0" fill-rule="evenodd"/><path stroke="#4a86e8" stroke-width="4.0" stroke-linejoin="round" stroke-linecap="butt" stroke-dasharray="16.0,12.0,4.0,12.0" d="m201.23753 272.93964l-96.62992 0" fill-rule="evenodd"/><path fill="#4a86e8" d="m193.6763 272.93964l0 0c0 -4.453064 3.6099243 -8.062988 8.062988 -8.062988l0 0c2.138443 0 4.1892853 0.8494873 5.7014008 2.3616028c1.5121002 1.512085 2.3615875 3.5629578 2.3615875 5.7013855l0 0c0 4.453064 -3.6099243 8.062988 -8.062988 8.062988l0 0c-4.453064 0 -8.062988 -3.6099243 -8.062988 -8.062988z" fill-rule="evenodd"/><path fill="#9e9e9e" d="m317.66403 545.81116l0 0c0 -3.3167114 2.6887207 -6.005371 6.005371 -6.005371l167.86328 0c1.5927124 0 3.1202087 0.6326904 4.2464294 1.7589111c1.1262512 1.1262207 1.7589417 2.6537476 1.7589417 4.24646l0 24.020752c0 3.3166504 -2.6886902 6.005371 -6.005371 6.005371l-167.86328 0l0 0c-3.3166504 0 -6.005371 -2.6887207 -6.005371 -6.005371z" fill-rule="evenodd"/><path fill="#ffffff" d="m364.82327 552.429q1.515625 0 2.578125 0.484375q1.0625 0.484375 1.609375 1.40625q0.5625 0.90625 0.5625 2.21875q0 1.296875 -0.5625 2.21875q-0.546875 0.90625 -1.609375 1.390625q-1.0625 0.484375 -2.578125 0.484375l-2.4375 0l0 4.109375l-3.21875 0l0 -12.3125l5.65625 0zm-0.5 5.796875q1.0 0 1.515625 -0.40625q0.515625 -0.421875 0.515625 -1.28125q0 -0.859375 -0.515625 -1.28125q-0.515625 -0.421875 -1.515625 -0.421875l-1.9375 0l0 3.390625l1.9375 0zm11.226227 -3.0q1.46875 0 2.578125 0.578125q1.109375 0.5625 1.734375 1.65625q0.625 1.09375 0.625 2.609375q0 1.53125 -0.625 2.625q-0.625 1.09375 -1.734375 1.671875q-1.109375 0.5625 -2.578125 0.5625q-1.4375 0 -2.5625 -0.5625q-1.109375 -0.578125 -1.734375 -1.671875q-0.625 -1.09375 -0.625 -2.625q0 -1.515625 0.625 -2.609375q0.625 -1.09375 1.734375 -1.65625q1.125 -0.578125 2.5625 -0.578125zm0 2.265625q-0.546875 0 -0.9375 0.265625q-0.390625 0.25 -0.59375 0.828125q-0.203125 0.578125 -0.203125 1.484375q0 0.921875 0.203125 1.5q0.203125 0.5625 0.59375 0.828125q0.390625 0.265625 0.9375 0.265625q0.5625 0 0.953125 -0.265625q0.390625 -0.265625 0.59375 -0.828125q0.203125 -0.578125 0.203125 -1.5q0 -0.90625 -0.203125 -1.484375q-0.203125 -0.578125 -0.59375 -0.828125q-0.390625 -0.265625 -0.953125 -0.265625zm6.7375793 11.171875l0 -13.25l2.859375 0l0.15625 3.375l-0.375 -0.390625q0.140625 -0.9375 0.578125 -1.640625q0.453125 -0.703125 1.15625 -1.109375q0.71875 -0.421875 1.625 -0.421875q1.15625 0 2.015625 0.578125q0.859375 0.5625 1.328125 1.640625q0.484375 1.0625 0.484375 2.59375q0 1.53125 -0.484375 2.640625q-0.484375 1.09375 -1.359375 1.671875q-0.859375 0.578125 -2.015625 0.578125q-1.265625 0 -2.0625 -0.75q-0.78125 -0.765625 -1.03125 -1.921875l0.296875 -0.4375l0 6.84375l-3.171875 0zm4.890625 -6.0625q0.8125 0 1.28125 -0.609375q0.46875 -0.609375 0.46875 -1.921875q0 -1.296875 -0.46875 -1.90625q-0.453125 -0.609375 -1.265625 -0.609375q-0.53125 0 -0.921875 0.296875q-0.390625 0.28125 -0.609375 0.84375q-0.203125 0.5625 -0.203125 1.375q0 0.796875 0.1875 1.359375q0.203125 0.5625 0.59375 0.875q0.390625 0.296875 0.9375 0.296875zm9.963104 2.328125q-0.953125 0 -1.671875 -0.328125q-0.71875 -0.328125 -1.140625 -1.046875q-0.40625 -0.734375 -0.40625 -1.90625l0 -6.234375l3.171875 0l0 5.484375q0 0.890625 0.359375 1.25q0.359375 0.359375 1.0 0.359375q0.34375 0 0.640625 -0.125q0.296875 -0.125 0.515625 -0.375q0.234375 -0.25 0.34375 -0.640625q0.125 -0.40625 0.125 -0.953125l0 -5.0l3.171875 0l0 9.328125l-2.828125 0l-0.09375 -1.75q-0.453125 0.984375 -1.265625 1.46875q-0.796875 0.46875 -1.921875 0.46875zm11.516968 -13.46875l0 10.109375q0 0.609375 0.203125 0.875q0.21875 0.265625 0.703125 0.265625q0.28125 0 0.46875 -0.03125q0.1875 -0.046875 0.4375 -0.125l-0.203125 1.90625q-0.328125 0.203125 -0.875 0.328125q-0.546875 0.140625 -1.0625 0.140625q-1.5 0 -2.171875 -0.6875q-0.671875 -0.6875 -0.671875 -2.265625l0 -10.515625l3.171875 0zm8.328064 7.375q0 -0.65625 -0.375 -1.03125q-0.359375 -0.390625 -0.96875 -0.390625q-0.609375 0 -1.0625 0.3125q-0.4375 0.296875 -0.59375 1.078125l-2.6875 -0.625q0.265625 -1.34375 1.375 -2.140625q1.125 -0.8125 3.15625 -0.8125q1.359375 0 2.3125 0.40625q0.96875 0.390625 1.484375 1.1875q0.515625 0.796875 0.515625 1.953125l0 3.40625q0 0.734375 0.65625 0.734375q0.328125 0 0.53125 -0.078125l-0.1875 1.8125q-0.5625 0.265625 -1.359375 0.265625q-0.734375 0 -1.296875 -0.234375q-0.546875 -0.234375 -0.875 -0.703125q-0.3125 -0.484375 -0.3125 -1.21875l0 -0.109375l0.359375 -0.125q0 0.796875 -0.484375 1.34375q-0.46875 0.546875 -1.234375 0.8125q-0.75 0.25 -1.5625 0.25q-0.953125 0 -1.671875 -0.296875q-0.703125 -0.296875 -1.09375 -0.859375q-0.375 -0.578125 -0.375 -1.421875q0 -1.0 0.609375 -1.65625q0.609375 -0.671875 1.90625 -0.9375l3.53125 -0.71875l-0.015625 1.671875l-1.796875 0.375q-0.5625 0.109375 -0.828125 0.328125q-0.265625 0.21875 -0.265625 0.640625q0 0.40625 0.296875 0.625q0.296875 0.203125 0.703125 0.203125q0.328125 0 0.609375 -0.09375q0.296875 -0.09375 0.515625 -0.28125q0.21875 -0.203125 0.34375 -0.5q0.140625 -0.3125 0.140625 -0.71875l0 -2.453125zm9.116119 -6.390625l0 8.96875q0 0.671875 0.328125 0.96875q0.328125 0.28125 0.90625 0.28125q0.453125 0 0.78125 -0.09375q0.328125 -0.109375 0.578125 -0.3125l0.34375 1.96875q-0.46875 0.328125 -1.1875 0.515625q-0.703125 0.1875 -1.453125 0.1875q-1.0625 0 -1.84375 -0.296875q-0.765625 -0.296875 -1.1875 -0.953125q-0.40625 -0.65625 -0.4375 -1.734375l0 -8.625l3.171875 -0.875zm2.78125 2.96875l0 2.25l-7.546875 0l0 -2.25l7.546875 0zm3.0590515 -1.078125q-0.96875 0 -1.40625 -0.359375q-0.4375 -0.375 -0.4375 -1.15625q0 -0.796875 0.4375 -1.15625q0.4375 -0.375 1.40625 -0.375q0.953125 0 1.40625 0.375q0.453125 0.359375 0.453125 1.15625q0 0.78125 -0.453125 1.15625q-0.453125 0.359375 -1.40625 0.359375zm1.59375 1.078125l0 9.328125l-3.171875 0l0 -9.328125l3.171875 0zm6.69458 -0.1875q1.46875 0 2.578125 0.578125q1.109375 0.5625 1.734375 1.65625q0.625 1.09375 0.625 2.609375q0 1.53125 -0.625 2.625q-0.625 1.09375 -1.734375 1.671875q-1.109375 0.5625 -2.578125 0.5625q-1.4375 0 -2.5625 -0.5625q-1.109375 -0.578125 -1.734375 -1.671875q-0.625 -1.09375 -0.625 -2.625q0 -1.515625 0.625 -2.609375q0.625 -1.09375 1.734375 -1.65625q1.125 -0.578125 2.5625 -0.578125zm0 2.265625q-0.546875 0 -0.9375 0.265625q-0.390625 0.25 -0.59375 0.828125q-0.203125 0.578125 -0.203125 1.484375q0 0.921875 0.203125 1.5q0.203125 0.5625 0.59375 0.828125q0.390625 0.265625 0.9375 0.265625q0.5625 0 0.953125 -0.265625q0.390625 -0.265625 0.59375 -0.828125q0.203125 -0.578125 0.203125 -1.5q0 -0.90625 -0.203125 -1.484375q-0.203125 -0.578125 -0.59375 -0.828125q-0.390625 -0.265625 -0.953125 -0.265625zm6.73761 7.25l0 -9.328125l2.8280945 0l0.171875 3.203125l-0.359375 -0.34375q0.1875 -1.015625 0.65625 -1.6875q0.484375 -0.671875 1.203125 -1.015625q0.71875 -0.34375 1.609375 -0.34375q0.984375 0 1.6875 0.375q0.71875 0.375 1.125 1.109375q0.421875 0.71875 0.421875 1.8125l0 6.21875l-3.171875 0l0 -5.375q0 -0.96875 -0.375 -1.34375q-0.375 -0.375 -0.953125 -0.375q-0.4375 0 -0.84375 0.21875q-0.390625 0.21875 -0.609375 0.6875q-0.21875 0.453125 -0.21875 1.25l0 4.9375l-3.1718445 0z" fill-rule="nonzero"/><path fill="#9e9e9e" d="m14.630041 364.1168l0 0c-3.3166733 0 -6.005369 -2.6886902 -6.005369 -6.005371l0 -167.86327c0 -1.5927277 0.63270664 -3.1202087 1.7589321 -4.2464447c1.1262255 -1.1262207 2.6537142 -1.7589264 4.246437 -1.7589264l24.020758 0c3.3166733 0 6.0053673 2.6886902 6.0053673 6.005371l0 167.86327l0 0c0 3.316681 -2.688694 6.005371 -6.0053673 6.005371z" fill-rule="evenodd"/><path fill="#ffffff" d="m21.24792 317.79718q0 -1.515625 0.484375 -2.578125q0.484375 -1.0625 1.40625 -1.609375q0.90625 -0.5625 2.21875 -0.5625q1.296875 0 2.21875 0.5625q0.90625 0.546875 1.390625 1.609375q0.484375 1.0625 0.484375 2.578125l0 2.4375l4.109373 0l0 3.21875l-12.312498 0l0 -5.65625zm5.796875 0.5q0 -1.0 -0.40625 -1.515625q-0.421875 -0.515625 -1.28125 -0.515625q-0.859375 0 -1.28125 0.515625q-0.421875 0.515625 -0.421875 1.515625l0 1.9375l3.390625 0l0 -1.9375zm6.515623 -7.087372l-9.328123 0l0 -2.796875l2.015625 -0.125q-1.046875 -0.359375 -1.625 -1.0625q-0.578125 -0.703125 -0.578125 -1.78125q0 -0.34375 0.0625 -0.59375q0.046875 -0.265625 0.140625 -0.40625l2.609375 0.3125q-0.0625 0.1875 -0.109375 0.484375q-0.046875 0.28125 -0.046875 0.6875q0 0.5625 0.25 1.046875q0.234375 0.484375 0.71875 0.78125q0.46875 0.28125 1.1875 0.28125l4.703123 0l0 3.171875zm-9.515623 -12.347687q0 -1.46875 0.578125 -2.578125q0.5625 -1.109375 1.65625 -1.734375q1.09375 -0.625 2.609375 -0.625q1.53125 0 2.625 0.625q1.0937481 0.625 1.6718731 1.734375q0.5625 1.109375 0.5625 2.578125q0 1.4375 -0.5625 2.5625q-0.578125 1.109375 -1.6718731 1.734375q-1.09375 0.625 -2.625 0.625q-1.515625 0 -2.609375 -0.625q-1.09375 -0.625 -1.65625 -1.734375q-0.578125 -1.125 -0.578125 -2.5625zm2.265625 0q0 0.546875 0.265625 0.9375q0.25 0.390625 0.828125 0.59375q0.578125 0.203125 1.484375 0.203125q0.921875 0 1.5 -0.203125q0.5625 -0.203125 0.828125 -0.59375q0.265625 -0.390625 0.265625 -0.9375q0 -0.5625 -0.265625 -0.953125q-0.265625 -0.390625 -0.828125 -0.59375q-0.578125 -0.203125 -1.5 -0.203125q-0.90625 0 -1.484375 0.203125q-0.578125 0.203125 -0.828125 0.59375q-0.265625 0.390625 -0.265625 0.953125zm7.437498 -12.721985q0 0.90625 -0.40625 1.609375q-0.421875 0.703125 -1.140625 1.15625q-0.7187481 0.4375 -1.6249981 0.578125l-0.390625 -0.296875l3.374998 0.15625l0 2.78125l-13.281248 0l0 -3.171875l6.875 0l-0.4375 0.296875q-1.15625 -0.25 -1.90625 -1.046875q-0.765625 -0.8125 -0.765625 -2.171875q0 -1.09375 0.578125 -1.9375q0.578125 -0.84375 1.671875 -1.3125q1.09375 -0.484375 2.640625 -0.484375q1.515625 0 2.59375 0.484375q1.0781231 0.484375 1.6562481 1.34375q0.5625 0.859375 0.5625 2.015625zm-2.328123 1.09375q0 -0.8125 -0.609375 -1.28125q-0.609375 -0.46875 -1.921875 -0.46875q-1.296875 0 -1.90625 0.46875q-0.609375 0.46875 -0.609375 1.28125q0 0.546875 0.3125 0.9375q0.3125 0.375 0.875 0.578125q0.546875 0.203125 1.359375 0.203125q0.796875 0 1.359375 -0.203125q0.5625 -0.203125 0.859375 -0.59375q0.28125 -0.390625 0.28125 -0.921875zm-3.765625 -11.916626q-0.65625 0 -1.03125 0.375q-0.390625 0.359375 -0.390625 0.96875q0 0.609375 0.3125 1.0625q0.296875 0.4375 1.078125 0.59375l-0.625 2.6875q-1.34375 -0.265625 -2.140625 -1.375q-0.8125 -1.125 -0.8125 -3.15625q0 -1.359375 0.40625 -2.3125q0.390625 -0.96875 1.1875 -1.484375q0.796875 -0.515625 1.953125 -0.515625l3.40625 0q0.734375 0 0.734375 -0.65625q0 -0.328125 -0.078125 -0.53125l1.8124981 0.1875q0.265625 0.5625 0.265625 1.359375q0 0.734375 -0.234375 1.296875q-0.234375 0.546875 -0.703125 0.875q-0.484375 0.3125 -1.2187481 0.3125l-0.109375 0l-0.125 -0.359375q0.7968731 0 1.3437481 0.484375q0.546875 0.46875 0.8125 1.234375q0.25 0.75 0.25 1.5625q0 0.953125 -0.296875 1.671875q-0.296875 0.703125 -0.859375 1.09375q-0.578125 0.375 -1.4218731 0.375q-1.0 0 -1.65625 -0.609375q-0.671875 -0.609375 -0.9375 -1.90625l-0.71875 -3.53125l1.671875 0.015625l0.375 1.796875q0.109375 0.5625 0.328125 0.828125q0.21875 0.265625 0.640625 0.265625q0.40625 0 0.625 -0.296875q0.203125 -0.296875 0.203125 -0.703125q0 -0.328125 -0.09375 -0.609375q-0.09375 -0.296875 -0.28125 -0.515625q-0.203125 -0.21875 -0.5 -0.34375q-0.3125 -0.140625 -0.71875 -0.140625l-2.453125 0zm6.093748 -11.583221q0 0.90625 -0.40625 1.609375q-0.421875 0.703125 -1.140625 1.15625q-0.7187481 0.4375 -1.6249981 0.578125l-0.390625 -0.296875l3.374998 0.15625l0 2.78125l-13.281248 0l0 -3.171875l6.875 0l-0.4375 0.296875q-1.15625 -0.25 -1.90625 -1.046875q-0.765625 -0.8125 -0.765625 -2.171875q0 -1.09375 0.578125 -1.9375q0.578125 -0.84375 1.671875 -1.3125q1.09375 -0.484375 2.640625 -0.484375q1.515625 0 2.59375 0.484375q1.0781231 0.484375 1.6562481 1.34375q0.5625 0.859375 0.5625 2.015625zm-2.328123 1.09375q0 -0.8125 -0.609375 -1.28125q-0.609375 -0.46875 -1.921875 -0.46875q-1.296875 0 -1.90625 0.46875q-0.609375 0.46875 -0.609375 1.28125q0 0.546875 0.3125 0.9375q0.3125 0.375 0.875 0.578125q0.546875 0.203125 1.359375 0.203125q0.796875 0 1.359375 -0.203125q0.5625 -0.203125 0.859375 -0.59375q0.28125 -0.390625 0.28125 -0.921875zm-8.265625 -8.384949q0 0.96875 -0.359375 1.40625q-0.375 0.4375 -1.15625 0.4375q-0.796875 0 -1.15625 -0.4375q-0.375 -0.4375 -0.375 -1.40625q0 -0.95314026 0.375 -1.4062653q0.359375 -0.453125 1.15625 -0.453125q0.78125 0 1.15625 0.453125q0.359375 0.453125 0.359375 1.4062653zm1.078125 -1.5937653l9.328123 0l0 3.1718903l-9.328123 0l0 -3.1718903zm-3.953125 -5.3820953l10.109375 0q0.609375 0 0.875 -0.203125q0.265625 -0.21875 0.265625 -0.703125q0 -0.28125 -0.03125 -0.46875q-0.046875 -0.1875 -0.125 -0.4375l1.9062481 0.203125q0.203125 0.328125 0.328125 0.875q0.140625 0.546875 0.140625 1.0625q0 1.5 -0.6875 2.171875q-0.6875 0.671875 -2.265623 0.671875l-10.515625 0l0 -3.171875zm2.875 -4.553726q0 0.96875 -0.359375 1.40625q-0.375 0.4375 -1.15625 0.4375q-0.796875 0 -1.15625 -0.4375q-0.375 -0.4375 -0.375 -1.40625q0 -0.953125 0.375 -1.40625q0.359375 -0.453125 1.15625 -0.453125q0.78125 0 1.15625 0.453125q0.359375 0.453125 0.359375 1.40625zm1.078125 -1.59375l9.328123 0l0 3.171875l-9.328123 0l0 -3.171875zm-2.96875 -6.1477203l8.96875 0q0.671875 0 0.96875 -0.328125q0.28125 -0.328125 0.28125 -0.90625q0 -0.453125 -0.09375 -0.78125q-0.109375 -0.328125 -0.3125 -0.578125l1.9687481 -0.34375q0.328125 0.46875 0.515625 1.1875q0.1875 0.703125 0.1875 1.453125q0 1.0625 -0.296875 1.84375q-0.296875 0.765625 -0.953125 1.1875q-0.6562481 0.40625 -1.7343731 0.4375l-8.625 0l-0.875 -3.171875zm2.96875 -2.78125l2.25 0l0 7.546875l-2.25 0l0 -7.546875zm0 -10.855911l9.328123 3.390625q1.46875 0.515625 2.34375 1.140625q0.890625 0.609375 1.28125 1.453125q0.390625 0.84375 0.390625 2.015625q0 0.78125 -0.171875 1.4375q-0.171875 0.65625 -0.46875 1.140625l-2.140625 -0.640625q0.234375 -0.34375 0.328125 -0.703125q0.109375 -0.375 0.109375 -0.953125q0 -0.546875 -0.1875 -0.890625q-0.171875 -0.34375 -0.703125 -0.546875l-0.578125 -0.25l-2.531248 1.09375l-7.0 2.796875l0 -3.5l5.3125 -1.4375l1.984375 -0.4375l-2.046875 -0.53125l-5.25 -1.4375l0 -3.140625z" fill-rule="nonzero"/></g></svg>