<svg version="1.1" viewBox="0.0 0.0 817.2860892388452 120.04199475065617" fill="none" stroke="none" stroke-linecap="square" stroke-miterlimit="10" xmlns:xlink="http://www.w3.org/1999/xlink" xmlns="http://www.w3.org/2000/svg"><clipPath id="p.0"><path d="m0 0l817.2861 0l0 120.04199l-817.2861 0l0 -120.04199z" clip-rule="nonzero"/></clipPath><g clip-path="url(#p.0)"><path fill="#000000" fill-opacity="0.0" d="m0 0l817.2861 0l0 120.04199l-817.2861 0z" fill-rule="evenodd"/><defs><linearGradient id="p.1" gradientUnits="userSpaceOnUse" gradientTransform="matrix(26.78053118206771 0.0 0.0 26.78053118206771 0.0 0.0)" spreadMethod="pad" x1="0.09271435341090295" y1="4.283874325498365" x2="26.87324553547861" y2="4.283874325498365"><stop offset="0.0" stop-color="#a081d9"/><stop offset="0.22" stop-color="#6c98f5"/><stop offset="0.51" stop-color="#5ee7f9"/><stop offset="0.76" stop-color="#d1e3cc"/><stop offset="1.0" stop-color="#bb8ba6"/></linearGradient></defs><path fill="url(#p.1)" d="m2.4829397 62.535454l717.1969 0l0 52.18898l-717.1969 0z" fill-rule="evenodd"/><path fill="#000000" fill-opacity="0.0" d="m2.4829397 62.576153l123.338585 0l0 52.188976l-123.338585 0z" fill-rule="evenodd"/><path stroke="#000000" stroke-width="3.0" stroke-linejoin="round" stroke-linecap="butt" d="m2.4829397 62.576153l123.338585 0l0 52.188976l-123.338585 0z" fill-rule="evenodd"/><path fill="#000000" d="m16.599634 77.890015q0.453125 -0.78125 1.3125 -1.265625q0.859375 -0.5 1.96875 -0.5q1.1875 0 2.125 0.5625q0.953125 0.546875 1.484375 1.5625q0.546875 1.015625 0.546875 2.359375q0 1.328125 -0.546875 2.375q-0.53125 1.03125 -1.484375 1.609375q-0.953125 0.578125 -2.125 0.578125q-1.140625 0 -2.0 -0.484375q-0.84375 -0.5 -1.28125 -1.265625l0 1.609375l-1.453124 0l0 -11.84375l1.453124 0l0 4.703125zm5.953125 2.71875q0 -0.984375 -0.40625 -1.71875q-0.390625 -0.734375 -1.078125 -1.109375q-0.671875 -0.390625 -1.5 -0.390625q-0.796875 0 -1.484375 0.390625q-0.671875 0.390625 -1.078125 1.140625q-0.40625 0.734375 -0.40625 1.703125q0 1.0 0.40625 1.75q0.40625 0.734375 1.078125 1.125q0.6875 0.390625 1.484375 0.390625q0.828125 0 1.5 -0.390625q0.6875 -0.390625 1.078125 -1.125q0.40625 -0.75 0.40625 -1.765625zm4.8629 -7.421875l0 11.84375l-1.453125 0l0 -11.84375l1.453125 0zm6.3110065 11.984375q-1.234375 0 -2.234377 -0.546875q-1.0 -0.5625 -1.578125 -1.59375q-0.5625 -1.046875 -0.5625 -2.40625q0 -1.34375 0.578125 -2.375q0.59375 -1.03125 1.59375 -1.578125q1.0156269 -0.546875 2.265627 -0.546875q1.25 0 2.25 0.546875q1.015625 0.546875 1.59375 1.578125q0.578125 1.015625 0.578125 2.375q0 1.359375 -0.59375 2.40625q-0.59375 1.03125 -1.625 1.59375q-1.03125 0.546875 -2.265625 0.546875zm0 -1.28125q0.78125 0 1.46875 -0.359375q0.6875 -0.375 1.109375 -1.109375q0.421875 -0.734375 0.421875 -1.796875q0 -1.046875 -0.421875 -1.78125q-0.40625 -0.734375 -1.078125 -1.09375q-0.671875 -0.359375 -1.453125 -0.359375q-0.8125 0 -1.484375 0.359375q-0.6562519 0.359375 -1.0625019 1.09375q-0.390625 0.734375 -0.390625 1.78125q0 1.078125 0.390625 1.8125q0.390625 0.734375 1.0468769 1.09375q0.65625 0.359375 1.453125 0.359375zm5.8650208 -3.265625q0 -1.359375 0.546875 -2.375q0.546875 -1.015625 1.515625 -1.5625q0.96875 -0.5625 2.203125 -0.5625q1.625 0 2.671875 0.78125q1.046875 0.78125 1.390625 2.171875l-1.578125 0q-0.21875 -0.796875 -0.875 -1.265625q-0.640625 -0.46875 -1.609375 -0.46875q-1.234375 0 -2.015625 0.859375q-0.765625 0.859375 -0.765625 2.421875q0 1.59375 0.765625 2.453125q0.78125 0.859375 2.015625 0.859375q0.96875 0 1.609375 -0.4375q0.640625 -0.453125 0.875 -1.28125l1.578125 0q-0.359375 1.34375 -1.421875 2.15625q-1.046875 0.796875 -2.640625 0.796875q-1.234375 0 -2.203125 -0.546875q-0.96875 -0.5625 -1.515625 -1.59375q-0.546875 -1.03125 -0.546875 -2.40625zm15.149521 4.40625l-3.4375 -3.875l0 3.875l-1.453125 0l0 -11.84375l1.453125 0l0 6.96875l3.375 -3.890625l2.03125 0l-4.125 4.359375l4.140625 4.40625l-1.984375 0zm8.371399 -10.1875q-0.421875 0 -0.71875 -0.28125q-0.28125 -0.296875 -0.28125 -0.71875q0 -0.40625 0.28125 -0.6875q0.296875 -0.296875 0.71875 -0.296875q0.40625 0 0.671875 0.296875q0.2812462 0.28125 0.2812462 0.6875q0 0.421875 -0.2812462 0.71875q-0.265625 0.28125 -0.671875 0.28125zm0.703125 1.421875l0 8.765625l-1.453125 0l0 -8.765625l1.453125 0zm13.029758 -0.15625q1.015625 0 1.8125 0.421875q0.8125 0.421875 1.265625 1.265625q0.46875 0.84375 0.46875 2.0625l0 5.171875l-1.4375 0l0 -4.953125q0 -1.3125 -0.65625 -2.0q-0.640625 -0.703125 -1.75 -0.703125q-1.125 0 -1.796875 0.734375q-0.671875 0.71875 -0.671875 2.09375l0 4.828125l-1.453125 0l0 -4.953125q0 -1.3125 -0.65625 -2.0q-0.640625 -0.703125 -1.734375 -0.703125q-1.140625 0 -1.8125 0.734375q-0.671875 0.71875 -0.671875 2.09375l0 4.828125l-1.4531326 0l0 -8.765625l1.4531326 0l0 1.265625q0.4375 -0.6875 1.15625 -1.046875q0.734375 -0.375 1.609375 -0.375q1.109375 0 1.953125 0.5q0.84375 0.484375 1.265625 1.453125q0.375 -0.9375 1.21875 -1.4375q0.84375 -0.515625 1.890625 -0.515625zm7.3862762 1.765625q0.4375 -0.75 1.28125 -1.25q0.859375 -0.5 2.0 -0.5q1.171875 0 2.125 0.5625q0.953125 0.546875 1.484375 1.5625q0.546875 1.015625 0.546875 2.359375q0 1.328125 -0.546875 2.375q-0.53125 1.03125 -1.484375 1.609375q-0.953125 0.578125 -2.125 0.578125q-1.125 0 -1.984375 -0.5q-0.84375 -0.5 -1.296875 -1.25l0 5.765625l-1.453125 0l0 -12.921875l1.453125 0l0 1.609375zm5.953125 2.734375q0 -0.984375 -0.40625 -1.71875q-0.390625 -0.734375 -1.078125 -1.109375q-0.671875 -0.390625 -1.5 -0.390625q-0.796875 0 -1.484375 0.390625q-0.671875 0.390625 -1.078125 1.140625q-0.40625 0.734375 -0.40625 1.703125q0 1.0 0.40625 1.75q0.40625 0.734375 1.078125 1.125q0.6875 0.390625 1.484375 0.390625q0.828125 0 1.5 -0.390625q0.6875 -0.390625 1.078125 -1.125q0.40625 -0.75 0.40625 -1.765625zm7.2379 4.5625q-1.234375 0 -2.234375 -0.546875q-1.0 -0.5625 -1.578125 -1.59375q-0.5625 -1.046875 -0.5625 -2.40625q0 -1.34375 0.578125 -2.375q0.59375 -1.03125 1.59375 -1.578125q1.015625 -0.546875 2.265625 -0.546875q1.25 0 2.25 0.546875q1.015625 0.546875 1.59375 1.578125q0.578125 1.015625 0.578125 2.375q0 1.359375 -0.59375 2.40625q-0.59375 1.03125 -1.625 1.59375q-1.03125 0.546875 -2.265625 0.546875zm0 -1.28125q0.78125 0 1.46875 -0.359375q0.6875 -0.375 1.109375 -1.109375q0.421875 -0.734375 0.421875 -1.796875q0 -1.046875 -0.421875 -1.78125q-0.40625 -0.734375 -1.078125 -1.09375q-0.671875 -0.359375 -1.453125 -0.359375q-0.8125 0 -1.484375 0.359375q-0.65625 0.359375 -1.0625 1.09375q-0.390625 0.734375 -0.390625 1.78125q0 1.078125 0.390625 1.8125q0.390625 0.734375 1.046875 1.09375q0.65625 0.359375 1.453125 0.359375zm7.8650208 -6.203125q0.390625 -0.75 1.09375 -1.15625q0.71875 -0.421875 1.734375 -0.421875l0 1.5l-0.375 0q-2.453125 0 -2.453125 2.65625l0 4.765625l-1.453125 0l0 -8.765625l1.453125 0l0 1.421875zm6.2961426 -0.21875l0 5.15625q0 0.640625 0.265625 0.90625q0.265625 0.265625 0.9375 0.265625l1.078125 0l0 1.234375l-1.3125 0q-1.21875 0 -1.828125 -0.5625q-0.609375 -0.5625 -0.609375 -1.84375l0 -5.15625l-1.125 0l0 -1.203125l1.125 0l0 -2.203125l1.46875 0l0 2.203125l2.28125 0l0 1.203125l-2.28125 0z" fill-rule="nonzero"/><path fill="#000000" d="m30.766657 104.171265q-1.234375 0 -2.234375 -0.546875q-1.0 -0.5625 -1.578125 -1.59375q-0.5625 -1.046875 -0.5625 -2.40625q0 -1.34375 0.578125 -2.375q0.59375 -1.03125 1.59375 -1.578125q1.015625 -0.546875 2.265625 -0.546875q1.2500019 0 2.250002 0.546875q1.015625 0.546875 1.59375 1.578125q0.578125 1.015625 0.578125 2.375q0 1.359375 -0.59375 2.40625q-0.59375 1.03125 -1.625 1.59375q-1.03125 0.546875 -2.265627 0.546875zm0 -1.28125q0.78125 0 1.4687519 -0.359375q0.6875 -0.375 1.109375 -1.109375q0.421875 -0.734375 0.421875 -1.796875q0 -1.046875 -0.421875 -1.78125q-0.40625 -0.734375 -1.078125 -1.09375q-0.6718769 -0.359375 -1.4531269 -0.359375q-0.8125 0 -1.484375 0.359375q-0.65625 0.359375 -1.0625 1.09375q-0.390625 0.734375 -0.390625 1.78125q0 1.078125 0.390625 1.8125q0.390625 0.734375 1.046875 1.09375q0.65625 0.359375 1.453125 0.359375zm9.677523 -0.203125l2.71875 -7.421875l1.546875 0l-3.4375 8.765625l-1.703125 0l-3.4375 -8.765625l1.578125 0l2.734375 7.421875zm13.710388 -3.375q0 0.421875 -0.046875 0.875l-7.015625 0q0.078125 1.296875 0.890625 2.03125q0.8125 0.71875 1.96875 0.71875q0.9375 0 1.5625 -0.4375q0.640625 -0.4375 0.890625 -1.171875l1.578125 0q-0.359375 1.265625 -1.421875 2.0625q-1.046875 0.78125 -2.609375 0.78125q-1.25 0 -2.234375 -0.546875q-0.984375 -0.5625 -1.546875 -1.59375q-0.5625 -1.046875 -0.5625 -2.40625q0 -1.359375 0.546875 -2.375q0.546875 -1.03125 1.53125 -1.578125q0.984375 -0.546875 2.265625 -0.546875q1.234375 0 2.1875 0.546875q0.96875 0.53125 1.484375 1.484375q0.53125 0.953125 0.53125 2.15625zm-1.5 -0.3125q0 -0.828125 -0.375 -1.421875q-0.375 -0.609375 -1.0 -0.921875q-0.625 -0.3125 -1.40625 -0.3125q-1.09375 0 -1.875 0.71875q-0.78125 0.703125 -0.890625 1.9375l5.546875 0zm4.8731384 -2.3125q0.390625 -0.75 1.09375 -1.15625q0.71875 -0.421875 1.734375 -0.421875l0 1.5l-0.375 0q-2.453125 0 -2.453125 2.65625l0 4.765625l-1.453125 0l0 -8.765625l1.453125 0l0 1.421875zm8.858639 -1.578125q1.0000076 0 1.7968826 0.421875q0.796875 0.421875 1.25 1.265625q0.46875 0.84375 0.46875 2.0625l0 5.171875l-1.453125 0l0 -4.953125q0 -1.3125 -0.65625 -2.0q-0.640625 -0.703125 -1.7812576 -0.703125q-1.15625 0 -1.84375 0.71875q-0.6718712 0.71875 -0.6718712 2.09375l0 4.84375l-1.453125 0l0 -11.84375l1.453125 0l0 4.328125q0.4375 -0.671875 1.1874962 -1.03125q0.765625 -0.375 1.703125 -0.375zm13.896278 4.203125q0 0.421875 -0.046875 0.875l-7.015625 0q0.078125 1.296875 0.890625 2.03125q0.8125 0.71875 1.96875 0.71875q0.9375 0 1.5625 -0.4375q0.640625 -0.4375 0.890625 -1.171875l1.578125 0q-0.359375 1.265625 -1.421875 2.0625q-1.046875 0.78125 -2.609375 0.78125q-1.25 0 -2.234375 -0.546875q-0.984375 -0.5625 -1.546875 -1.59375q-0.5625 -1.046875 -0.5625 -2.40625q0 -1.359375 0.546875 -2.375q0.546875 -1.03125 1.53125 -1.578125q0.984375 -0.546875 2.265625 -0.546875q1.234375 0 2.1875 0.546875q0.96875 0.53125 1.484375 1.484375q0.53125 0.953125 0.53125 2.15625zm-1.5 -0.3125q0 -0.828125 -0.375 -1.421875q-0.375 -0.609375 -1.0 -0.921875q-0.625 -0.3125 -1.40625 -0.3125q-1.09375 0 -1.875 0.71875q-0.78125 0.703125 -0.890625 1.9375l5.546875 0zm2.8731384 0.609375q0 -1.34375 0.546875 -2.359375q0.546875 -1.015625 1.5 -1.5625q0.953125 -0.5625 2.109375 -0.5625q1.15625 0 2.0 0.5q0.859375 0.484375 1.265625 1.234375l0 -1.59375l1.46875 0l0 8.765625l-1.46875 0l0 -1.625q-0.421875 0.765625 -1.28125 1.265625q-0.859375 0.5 -2.0 0.5q-1.171875 0 -2.109375 -0.578125q-0.9375 -0.578125 -1.484375 -1.609375q-0.546875 -1.046875 -0.546875 -2.375zm7.421875 0.015625q0 -0.984375 -0.40625 -1.71875q-0.390625 -0.734375 -1.078125 -1.125q-0.671875 -0.390625 -1.484375 -0.390625q-0.828125 0 -1.5 0.390625q-0.671875 0.375 -1.078125 1.109375q-0.390625 0.734375 -0.390625 1.71875q0 1.015625 0.390625 1.765625q0.40625 0.734375 1.078125 1.125q0.671875 0.390625 1.5 0.390625q0.8125 0 1.484375 -0.390625q0.6875 -0.390625 1.078125 -1.125q0.40625 -0.75 0.40625 -1.75zm3.3941498 -0.015625q0 -1.34375 0.546875 -2.359375q0.546875 -1.015625 1.5 -1.5625q0.953125 -0.5625 2.125 -0.5625q1.03125 0 1.90625 0.46875q0.875 0.46875 1.34375 1.234375l0 -4.640625l1.46875 0l0 11.84375l-1.46875 0l0 -1.640625q-0.421875 0.78125 -1.28125 1.28125q-0.84375 0.5 -1.984375 0.5q-1.15625 0 -2.109375 -0.578125q-0.953125 -0.578125 -1.5 -1.609375q-0.546875 -1.046875 -0.546875 -2.375zm7.421875 0.015625q0 -0.984375 -0.40625 -1.71875q-0.390625 -0.734375 -1.078125 -1.125q-0.671875 -0.390625 -1.484375 -0.390625q-0.828125 0 -1.5 0.390625q-0.671875 0.375 -1.078125 1.109375q-0.390625 0.734375 -0.390625 1.71875q0 1.015625 0.390625 1.765625q0.40625 0.734375 1.078125 1.125q0.671875 0.390625 1.5 0.390625q0.8125 0 1.484375 -0.390625q0.6875 -0.390625 1.078125 -1.125q0.40625 -0.75 0.40625 -1.75z" fill-rule="nonzero"/><path fill="#000000" fill-opacity="0.0" d="m125.82011 62.576153l123.338585 0l0 52.188976l-123.338585 0z" fill-rule="evenodd"/><path stroke="#000000" stroke-width="3.0" stroke-linejoin="round" stroke-linecap="butt" d="m125.82011 62.576153l123.338585 0l0 52.188976l-123.338585 0z" fill-rule="evenodd"/><path fill="#000000" d="m144.56781 94.671265q-1.234375 0 -2.234375 -0.546875q-1.0 -0.5625 -1.578125 -1.59375q-0.5625 -1.046875 -0.5625 -2.40625q0 -1.34375 0.578125 -2.375q0.59375 -1.03125 1.59375 -1.578125q1.015625 -0.546875 2.265625 -0.546875q1.25 0 2.25 0.546875q1.015625 0.546875 1.59375 1.578125q0.578125 1.015625 0.578125 2.375q0 1.359375 -0.59375 2.40625q-0.59375 1.03125 -1.625 1.59375q-1.03125 0.546875 -2.265625 0.546875zm0 -1.28125q0.78125 0 1.46875 -0.359375q0.6875 -0.375 1.109375 -1.109375q0.421875 -0.734375 0.421875 -1.796875q0 -1.046875 -0.421875 -1.78125q-0.40625 -0.734375 -1.078125 -1.09375q-0.671875 -0.359375 -1.453125 -0.359375q-0.8125 0 -1.484375 0.359375q-0.65625 0.359375 -1.0625 1.09375q-0.390625 0.734375 -0.390625 1.78125q0 1.078125 0.390625 1.8125q0.390625 0.734375 1.046875 1.09375q0.65625 0.359375 1.453125 0.359375zm10.677521 -7.78125q1.609375 0 2.59375 0.96875q1.0 0.96875 1.0 2.78125l0 5.171875l-1.453125 0l0 -4.953125q0 -1.3125 -0.65625 -2.0q-0.640625 -0.703125 -1.78125 -0.703125q-1.15625 0 -1.84375 0.71875q-0.671875 0.71875 -0.671875 2.09375l0 4.84375l-1.453125 0l0 -8.765625l1.453125 0l0 1.25q0.4375 -0.671875 1.171875 -1.03125q0.75 -0.375 1.640625 -0.375zm14.927521 9.53125l0 1.34375l-8.5 0l0 -1.34375l8.5 0zm3.5249023 -10.796875q-0.421875 0 -0.71875 -0.28125q-0.28125 -0.296875 -0.28125 -0.71875q0 -0.40625 0.28125 -0.6875q0.296875 -0.296875 0.71875 -0.296875q0.40625 0 0.671875 0.296875q0.28125 0.28125 0.28125 0.6875q0 0.421875 -0.28125 0.71875q-0.265625 0.28125 -0.671875 0.28125zm0.703125 1.421875l0 8.765625l-1.453125 0l0 -8.765625l1.453125 0zm6.7485046 -0.15625q1.609375 0 2.59375 0.96875q1.0 0.96875 1.0 2.78125l0 5.171875l-1.453125 0l0 -4.953125q0 -1.3125 -0.65625 -2.0q-0.640625 -0.703125 -1.78125 -0.703125q-1.15625 0 -1.84375 0.71875q-0.671875 0.71875 -0.671875 2.09375l0 4.84375l-1.453125 0l0 -8.765625l1.453125 0l0 1.25q0.4375 -0.671875 1.171875 -1.03125q0.75 -0.375 1.640625 -0.375zm6.7243958 -1.265625q-0.421875 0 -0.71875 -0.28125q-0.28125 -0.296875 -0.28125 -0.71875q0 -0.40625 0.28125 -0.6875q0.296875 -0.296875 0.71875 -0.296875q0.40625 0 0.671875 0.296875q0.28125 0.28125 0.28125 0.6875q0 0.421875 -0.28125 0.71875q-0.265625 0.28125 -0.671875 0.28125zm0.703125 1.421875l0 8.765625l-1.453125 0l0 -8.765625l1.453125 0zm4.2641296 1.203125l0 5.15625q0 0.640625 0.265625 0.90625q0.265625 0.265625 0.9375 0.265625l1.078125 0l0 1.234375l-1.3125 0q-1.21875 0 -1.828125 -0.5625q-0.609375 -0.5625 -0.609375 -1.84375l0 -5.15625l-1.125 0l0 -1.203125l1.125 0l0 -2.203125l1.46875 0l0 2.203125l2.28125 0l0 1.203125l-2.28125 0zm4.792755 -2.625q-0.421875 0 -0.71875 -0.28125q-0.28125 -0.296875 -0.28125 -0.71875q0 -0.40625 0.28125 -0.6875q0.296875 -0.296875 0.71875 -0.296875q0.40625 0 0.671875 0.296875q0.28125 0.28125 0.28125 0.6875q0 0.421875 -0.28125 0.71875q-0.265625 0.28125 -0.671875 0.28125zm0.703125 1.421875l0 8.765625l-1.453125 0l0 -8.765625l1.453125 0zm1.9360046 4.34375q0 -1.34375 0.546875 -2.359375q0.546875 -1.015625 1.5 -1.5625q0.953125 -0.5625 2.109375 -0.5625q1.15625 0 2.0 0.5q0.859375 0.484375 1.265625 1.234375l0 -1.59375l1.46875 0l0 8.765625l-1.46875 0l0 -1.625q-0.421875 0.765625 -1.28125 1.265625q-0.859375 0.5 -2.0 0.5q-1.171875 0 -2.109375 -0.578125q-0.9375 -0.578125 -1.484375 -1.609375q-0.546875 -1.046875 -0.546875 -2.375zm7.421875 0.015625q0 -0.984375 -0.40625 -1.71875q-0.390625 -0.734375 -1.078125 -1.125q-0.671875 -0.390625 -1.484375 -0.390625q-0.828125 0 -1.5 0.390625q-0.671875 0.375 -1.078125 1.109375q-0.390625 0.734375 -0.390625 1.71875q0 1.015625 0.390625 1.765625q0.40625 0.734375 1.078125 1.125q0.671875 0.390625 1.5 0.390625q0.8125 0 1.484375 -0.390625q0.6875 -0.390625 1.078125 -1.125q0.40625 -0.75 0.40625 -1.75zm5.39415 -7.4375l0 11.84375l-1.453125 0l0 -11.84375l1.453125 0zm3.2328796 1.65625q-0.421875 0 -0.71875 -0.28125q-0.28125 -0.296875 -0.28125 -0.71875q0 -0.40625 0.28125 -0.6875q0.296875 -0.296875 0.71875 -0.296875q0.40625 0 0.671875 0.296875q0.28125 0.28125 0.28125 0.6875q0 0.421875 -0.28125 0.71875q-0.265625 0.28125 -0.671875 0.28125zm0.703125 1.421875l0 8.765625l-1.453125 0l0 -8.765625l1.453125 0zm3.5610046 7.5625l4.3125 0l0 1.203125l-5.96875 0l0 -1.203125l4.25 -6.375l-4.21875 0l0 -1.1875l5.90625 0l0 1.1875l-4.28125 6.375zm14.201889 -3.515625q0 0.421875 -0.046875 0.875l-7.015625 0q0.078125 1.296875 0.890625 2.03125q0.8125 0.71875 1.96875 0.71875q0.9375 0 1.5625 -0.4375q0.640625 -0.4375 0.890625 -1.171875l1.578125 0q-0.359375 1.265625 -1.421875 2.0625q-1.046875 0.78125 -2.609375 0.78125q-1.25 0 -2.234375 -0.546875q-0.984375 -0.5625 -1.546875 -1.59375q-0.5625 -1.046875 -0.5625 -2.40625q0 -1.359375 0.546875 -2.375q0.546875 -1.03125 1.53125 -1.578125q0.984375 -0.546875 2.265625 -0.546875q1.234375 0 2.1875 0.546875q0.96875 0.53125 1.484375 1.484375q0.53125 0.953125 0.53125 2.15625zm-1.5 -0.3125q0 -0.828125 -0.375 -1.421875q-0.375 -0.609375 -1.0 -0.921875q-0.625 -0.3125 -1.40625 -0.3125q-1.09375 0 -1.875 0.71875q-0.78125 0.703125 -0.890625 1.9375l5.546875 0z" fill-rule="nonzero"/><path fill="#000000" fill-opacity="0.0" d="m249.15727 62.576153l347.1811 0l0 52.188976l-347.1811 0z" fill-rule="evenodd"/><path stroke="#000000" stroke-width="3.0" stroke-linejoin="round" stroke-linecap="butt" d="m249.15727 62.576153l347.1811 0l0 52.188976l-347.1811 0z" fill-rule="evenodd"/><path fill="#000000" d="m395.03012 89.81189q0 0.421875 -0.046875 0.875l-7.015625 0q0.078125 1.296875 0.890625 2.03125q0.8125 0.71875 1.96875 0.71875q0.9375 0 1.5625 -0.4375q0.640625 -0.4375 0.890625 -1.171875l1.578125 0q-0.359375 1.265625 -1.421875 2.0625q-1.046875 0.78125 -2.609375 0.78125q-1.25 0 -2.234375 -0.546875q-0.984375 -0.5625 -1.546875 -1.59375q-0.5625 -1.046875 -0.5625 -2.40625q0 -1.359375 0.546875 -2.375q0.546875 -1.03125 1.53125 -1.578125q0.984375 -0.546875 2.265625 -0.546875q1.234375 0 2.1875 0.546875q0.96875 0.53125 1.484375 1.484375q0.53125 0.953125 0.53125 2.15625zm-1.5 -0.3125q0 -0.828125 -0.375 -1.421875q-0.375 -0.609375 -1.0 -0.921875q-0.625 -0.3125 -1.40625 -0.3125q-1.09375 0 -1.875 0.71875q-0.78125 0.703125 -0.890625 1.9375l5.546875 0zm7.9981384 5.03125l-2.078125 -3.265625l-2.0 3.265625l-1.53125 0l2.84375 -4.359375l-2.84375 -4.40625l1.65625 0l2.078125 3.25l1.984375 -3.25l1.515625 0l-2.8125 4.328125l2.828125 4.4375l-1.640625 0zm4.8671265 -7.5625l0 5.15625q0 0.640625 0.265625 0.90625q0.265625 0.265625 0.9375 0.265625l1.078125 0l0 1.234375l-1.3125 0q-1.21875 0 -1.828125 -0.5625q-0.609375 -0.5625 -0.609375 -1.84375l0 -5.15625l-1.125 0l0 -1.203125l1.125 0l0 -2.203125l1.46875 0l0 2.203125l2.28125 0l0 1.203125l-2.28125 0zm5.49588 0.21875q0.390625 -0.75 1.09375 -1.15625q0.71875 -0.421875 1.734375 -0.421875l0 1.5l-0.375 0q-2.453125 0 -2.453125 2.65625l0 4.765625l-1.453125 0l0 -8.765625l1.453125 0l0 1.421875zm5.2648926 -2.84375q-0.421875 0 -0.71875 -0.28125q-0.28125 -0.296875 -0.28125 -0.71875q0 -0.40625 0.28125 -0.6875q0.296875 -0.296875 0.71875 -0.296875q0.40625 0 0.671875 0.296875q0.28125 0.28125 0.28125 0.6875q0 0.421875 -0.28125 0.71875q-0.265625 0.28125 -0.671875 0.28125zm0.703125 1.421875l0 8.765625l-1.453125 0l0 -8.765625l1.453125 0zm6.7485046 -0.15625q1.609375 0 2.59375 0.96875q1.0 0.96875 1.0 2.78125l0 5.171875l-1.453125 0l0 -4.953125q0 -1.3125 -0.65625 -2.0q-0.640625 -0.703125 -1.78125 -0.703125q-1.15625 0 -1.84375 0.71875q-0.671875 0.71875 -0.671875 2.09375l0 4.84375l-1.453125 0l0 -8.765625l1.453125 0l0 1.25q0.4375 -0.671875 1.171875 -1.03125q0.75 -0.375 1.640625 -0.375zm9.083771 9.0625q-1.015625 0 -1.8125 -0.34375q-0.796875 -0.34375 -1.265625 -0.953125q-0.46875 -0.625 -0.515625 -1.421875l1.5 0q0.0625 0.65625 0.609375 1.078125q0.5625 0.40625 1.453125 0.40625q0.84375 0 1.3125 -0.359375q0.484375 -0.375 0.484375 -0.9375q0 -0.5625 -0.515625 -0.84375q-0.5 -0.28125 -1.578125 -0.5625q-0.96875 -0.25 -1.59375 -0.515625q-0.609375 -0.265625 -1.0625 -0.78125q-0.4375 -0.515625 -0.4375 -1.375q0 -0.671875 0.40625 -1.21875q0.40625 -0.5625 1.140625 -0.890625q0.734375 -0.328125 1.671875 -0.328125q1.453125 0 2.34375 0.734375q0.90625 0.734375 0.96875 2.015625l-1.453125 0q-0.046875 -0.6875 -0.5625 -1.109375q-0.5 -0.421875 -1.34375 -0.421875q-0.78125 0 -1.25 0.34375q-0.453125 0.328125 -0.453125 0.875q0 0.4375 0.265625 0.71875q0.28125 0.28125 0.703125 0.453125q0.4375 0.15625 1.1875 0.375q0.9375 0.25 1.53125 0.5q0.59375 0.25 1.015625 0.75q0.421875 0.484375 0.4375 1.28125q0 0.734375 -0.40625 1.3125q-0.390625 0.5625 -1.125 0.890625q-0.71875 0.328125 -1.65625 0.328125zm5.9926453 -10.328125q-0.421875 0 -0.71875 -0.28125q-0.28125 -0.296875 -0.28125 -0.71875q0 -0.40625 0.28125 -0.6875q0.296875 -0.296875 0.71875 -0.296875q0.40625 0 0.671875 0.296875q0.28125 0.28125 0.28125 0.6875q0 0.421875 -0.28125 0.71875q-0.265625 0.28125 -0.671875 0.28125zm0.703125 1.421875l0 8.765625l-1.453125 0l0 -8.765625l1.453125 0zm1.9360046 4.359375q0 -1.359375 0.546875 -2.375q0.546875 -1.015625 1.515625 -1.5625q0.96875 -0.5625 2.203125 -0.5625q1.625 0 2.671875 0.78125q1.046875 0.78125 1.390625 2.171875l-1.578125 0q-0.21875 -0.796875 -0.875 -1.265625q-0.640625 -0.46875 -1.609375 -0.46875q-1.234375 0 -2.015625 0.859375q-0.765625 0.859375 -0.765625 2.421875q0 1.59375 0.765625 2.453125q0.78125 0.859375 2.015625 0.859375q0.96875 0 1.609375 -0.4375q0.640625 -0.453125 0.875 -1.28125l1.578125 0q-0.359375 1.34375 -1.421875 2.15625q-1.046875 0.796875 -2.640625 0.796875q-1.234375 0 -2.203125 -0.546875q-0.96875 -0.5625 -1.515625 -1.59375q-0.546875 -1.03125 -0.546875 -2.40625zm13.368286 4.546875q-1.015625 0 -1.8125 -0.34375q-0.796875 -0.34375 -1.265625 -0.953125q-0.46875 -0.625 -0.515625 -1.421875l1.5 0q0.0625 0.65625 0.609375 1.078125q0.5625 0.40625 1.453125 0.40625q0.84375 0 1.3125 -0.359375q0.484375 -0.375 0.484375 -0.9375q0 -0.5625 -0.515625 -0.84375q-0.5 -0.28125 -1.578125 -0.5625q-0.96875 -0.25 -1.59375 -0.515625q-0.609375 -0.265625 -1.0625 -0.78125q-0.4375 -0.515625 -0.4375 -1.375q0 -0.671875 0.40625 -1.21875q0.40625 -0.5625 1.140625 -0.890625q0.734375 -0.328125 1.671875 -0.328125q1.453125 0 2.34375 0.734375q0.90625 0.734375 0.96875 2.015625l-1.453125 0q-0.046875 -0.6875 -0.5625 -1.109375q-0.5 -0.421875 -1.34375 -0.421875q-0.78125 0 -1.25 0.34375q-0.453125 0.328125 -0.453125 0.875q0 0.4375 0.265625 0.71875q0.28125 0.28125 0.703125 0.453125q0.4375 0.15625 1.1875 0.375q0.9375 0.25 1.53125 0.5q0.59375 0.25 1.015625 0.75q0.421875 0.484375 0.4375 1.28125q0 0.734375 -0.40625 1.3125q-0.390625 0.5625 -1.125 0.890625q-0.71875 0.328125 -1.65625 0.328125z" fill-rule="nonzero"/><defs><linearGradient id="p.2" gradientUnits="userSpaceOnUse" gradientTransform="matrix(14.703366158058936 0.0 0.0 14.703366158058936 0.0 0.0)" spreadMethod="pad" x1="40.55796314031882" y1="3.780804380678033" x2="55.26132929837775" y2="3.780804380678033"><stop offset="0.0" stop-color="#d1e3cc"/><stop offset="1.0" stop-color="#bb8ba6"/></linearGradient></defs><path fill="url(#p.2)" d="m596.33856 3.4015749l216.18903 0l0 52.188976l-216.18903 0z" fill-rule="evenodd"/><path stroke="#000000" stroke-width="3.0" stroke-linejoin="round" stroke-linecap="butt" d="m596.33856 3.4015749l216.18903 0l0 52.188976l-216.18903 0z" fill-rule="evenodd"/><path fill="#000000" d="m638.96747 35.496685q-1.234375 0 -2.234375 -0.546875q-1.0 -0.5625 -1.578125 -1.59375q-0.5625 -1.046875 -0.5625 -2.406248q0 -1.34375 0.578125 -2.375q0.59375 -1.03125 1.59375 -1.578125q1.015625 -0.546875 2.265625 -0.546875q1.25 0 2.25 0.546875q1.015625 0.546875 1.59375 1.578125q0.578125 1.015625 0.578125 2.375q0 1.3593731 -0.59375 2.406248q-0.59375 1.03125 -1.625 1.59375q-1.03125 0.546875 -2.265625 0.546875zm0 -1.28125q0.78125 0 1.46875 -0.359375q0.6875 -0.375 1.109375 -1.109375q0.421875 -0.734375 0.421875 -1.7968731q0 -1.046875 -0.421875 -1.78125q-0.40625 -0.734375 -1.078125 -1.09375q-0.671875 -0.359375 -1.453125 -0.359375q-0.8125 0 -1.484375 0.359375q-0.65625 0.359375 -1.0625 1.09375q-0.390625 0.734375 -0.390625 1.78125q0 1.0781231 0.390625 1.8124981q0.390625 0.734375 1.046875 1.09375q0.65625 0.359375 1.453125 0.359375zm10.67749 -7.781248q1.609375 0 2.59375 0.96875q1.0 0.96875 1.0 2.78125l0 5.171873l-1.453125 0l0 -4.953123q0 -1.3125 -0.65625 -2.0q-0.640625 -0.703125 -1.78125 -0.703125q-1.15625 0 -1.84375 0.71875q-0.671875 0.71875 -0.671875 2.09375l0 4.843748l-1.453125 0l0 -8.765623l1.453125 0l0 1.25q0.4375 -0.671875 1.171875 -1.03125q0.75 -0.375 1.640625 -0.375zm14.927551 9.531248l0 1.34375l-8.5 0l0 -1.34375l8.5 0zm6.3374023 -8.171873l-1.84375 0l0 7.562498l-1.453125 0l0 -7.562498l-1.125 0l0 -1.203125l1.125 0l0 -0.625q0 -1.46875 0.765625 -2.140625q0.765625 -0.6875 2.4375 -0.6875l0 1.203125q-0.953125 0 -1.359375 0.390625q-0.390625 0.375 -0.390625 1.234375l0 0.625l1.84375 0l0 1.203125zm2.451477 -2.625q-0.421875 0 -0.71875 -0.28125q-0.28125 -0.296875 -0.28125 -0.71875q0 -0.40625 0.28125 -0.6875q0.296875 -0.296875 0.71875 -0.296875q0.40625 0 0.671875 0.296875q0.28125 0.28125 0.28125 0.6875q0 0.421875 -0.28125 0.71875q-0.265625 0.28125 -0.671875 0.28125zm0.703125 1.421875l0 8.765623l-1.453125 0l0 -8.765623l1.453125 0zm6.748535 -0.15625q1.609375 0 2.59375 0.96875q1.0 0.96875 1.0 2.78125l0 5.171873l-1.453125 0l0 -4.953123q0 -1.3125 -0.65625 -2.0q-0.640625 -0.703125 -1.78125 -0.703125q-1.15625 0 -1.84375 0.71875q-0.671875 0.71875 -0.671875 2.09375l0 4.843748l-1.453125 0l0 -8.765623l1.453125 0l0 1.25q0.4375 -0.671875 1.171875 -1.03125q0.75 -0.375 1.640625 -0.375zm5.42749 4.5q0 -1.34375 0.546875 -2.359375q0.546875 -1.015625 1.5 -1.5625q0.953125 -0.5625 2.109375 -0.5625q1.15625 0 2.0 0.5q0.859375 0.484375 1.265625 1.234375l0 -1.59375l1.46875 0l0 8.765623l-1.46875 0l0 -1.625q-0.421875 0.765625 -1.28125 1.265625q-0.859375 0.5 -2.0 0.5q-1.171875 0 -2.109375 -0.578125q-0.9375 -0.578125 -1.484375 -1.609375q-0.546875 -1.046875 -0.546875 -2.374998zm7.421875 0.015625q0 -0.984375 -0.40625 -1.71875q-0.390625 -0.734375 -1.078125 -1.125q-0.671875 -0.390625 -1.484375 -0.390625q-0.828125 0 -1.5 0.390625q-0.671875 0.375 -1.078125 1.109375q-0.390625 0.734375 -0.390625 1.71875q0 1.015625 0.390625 1.7656231q0.40625 0.734375 1.078125 1.125q0.671875 0.390625 1.5 0.390625q0.8125 0 1.484375 -0.390625q0.6875 -0.390625 1.078125 -1.125q0.40625 -0.7499981 0.40625 -1.7499981zm5.394165 -7.4375l0 11.843748l-1.453125 0l0 -11.843748l1.453125 0zm3.2328491 1.65625q-0.421875 0 -0.71875 -0.28125q-0.28125 -0.296875 -0.28125 -0.71875q0 -0.40625 0.28125 -0.6875q0.296875 -0.296875 0.71875 -0.296875q0.40625 0 0.671875 0.296875q0.28125 0.28125 0.28125 0.6875q0 0.421875 -0.28125 0.71875q-0.265625 0.28125 -0.671875 0.28125zm0.703125 1.421875l0 8.765623l-1.453125 0l0 -8.765623l1.453125 0zm3.5610352 7.562498l4.3125 0l0 1.203125l-5.96875 0l0 -1.203125l4.25 -6.374998l-4.21875 0l0 -1.1875l5.90625 0l0 1.1875l-4.28125 6.374998zm14.201904 -3.515623q0 0.421875 -0.046875 0.875l-7.015625 0q0.078125 1.2968731 0.890625 2.031248q0.8125 0.71875 1.96875 0.71875q0.9375 0 1.5625 -0.4375q0.640625 -0.4375 0.890625 -1.171875l1.578125 0q-0.359375 1.265625 -1.421875 2.0625q-1.046875 0.78125 -2.609375 0.78125q-1.25 0 -2.234375 -0.546875q-0.984375 -0.5625 -1.546875 -1.59375q-0.5625 -1.046875 -0.5625 -2.406248q0 -1.359375 0.546875 -2.375q0.546875 -1.03125 1.53125 -1.578125q0.984375 -0.546875 2.265625 -0.546875q1.234375 0 2.1875 0.546875q0.96875 0.53125 1.484375 1.484375q0.53125 0.953125 0.53125 2.15625zm-1.5 -0.3125q0 -0.828125 -0.375 -1.421875q-0.375 -0.609375 -1.0 -0.921875q-0.625 -0.3125 -1.40625 -0.3125q-1.09375 0 -1.875 0.71875q-0.78125 0.703125 -0.890625 1.9375l5.546875 0zm11.957642 -3.890625q1.609375 0 2.59375 0.96875q1.0 0.96875 1.0 2.78125l0 5.171873l-1.453125 0l0 -4.953123q0 -1.3125 -0.65625 -2.0q-0.640625 -0.703125 -1.78125 -0.703125q-1.15625 0 -1.84375 0.71875q-0.671875 0.71875 -0.671875 2.09375l0 4.843748l-1.453125 0l0 -8.765623l1.453125 0l0 1.25q0.4375 -0.671875 1.171875 -1.03125q0.75 -0.375 1.640625 -0.375zm13.974365 4.203125q0 0.421875 -0.046875 0.875l-7.015625 0q0.078125 1.2968731 0.890625 2.031248q0.8125 0.71875 1.96875 0.71875q0.9375 0 1.5625 -0.4375q0.640625 -0.4375 0.890625 -1.171875l1.578125 0q-0.359375 1.265625 -1.421875 2.0625q-1.046875 0.78125 -2.609375 0.78125q-1.25 0 -2.234375 -0.546875q-0.984375 -0.5625 -1.546875 -1.59375q-0.5625 -1.046875 -0.5625 -2.406248q0 -1.359375 0.546875 -2.375q0.546875 -1.03125 1.53125 -1.578125q0.984375 -0.546875 2.265625 -0.546875q1.234375 0 2.1875 0.546875q0.96875 0.53125 1.484375 1.484375q0.53125 0.953125 0.53125 2.15625zm-1.5 -0.3125q0 -0.828125 -0.375 -1.421875q-0.375 -0.609375 -1.0 -0.921875q-0.625 -0.3125 -1.40625 -0.3125q-1.09375 0 -1.875 0.71875q-0.78125 0.703125 -0.890625 1.9375l5.546875 0zm11.420044 0.3125q0 0.421875 -0.046875 0.875l-7.015625 0q0.078125 1.2968731 0.890625 2.031248q0.8125 0.71875 1.96875 0.71875q0.9375 0 1.5625 -0.4375q0.640625 -0.4375 0.890625 -1.171875l1.578125 0q-0.359375 1.265625 -1.421875 2.0625q-1.046875 0.78125 -2.609375 0.78125q-1.25 0 -2.234375 -0.546875q-0.984375 -0.5625 -1.546875 -1.59375q-0.5625 -1.046875 -0.5625 -2.406248q0 -1.359375 0.546875 -2.375q0.546875 -1.03125 1.53125 -1.578125q0.984375 -0.546875 2.265625 -0.546875q1.234375 0 2.1875 0.546875q0.96875 0.53125 1.484375 1.484375q0.53125 0.953125 0.53125 2.15625zm-1.5 -0.3125q0 -0.828125 -0.375 -1.421875q-0.375 -0.609375 -1.0 -0.921875q-0.625 -0.3125 -1.40625 -0.3125q-1.09375 0 -1.875 0.71875q-0.78125 0.703125 -0.890625 1.9375l5.546875 0zm2.873108 0.609375q0 -1.34375 0.546875 -2.359375q0.546875 -1.015625 1.5 -1.5625q0.953125 -0.5625 2.125 -0.5625q1.03125 0 1.90625 0.46875q0.875 0.46875 1.34375 1.234375l0 -4.640625l1.46875 0l0 11.843748l-1.46875 0l0 -1.640625q-0.421875 0.78125 -1.28125 1.28125q-0.84375 0.5 -1.984375 0.5q-1.15625 0 -2.109375 -0.578125q-0.953125 -0.578125 -1.5 -1.609375q-0.546875 -1.046875 -0.546875 -2.374998zm7.421875 0.015625q0 -0.984375 -0.40625 -1.71875q-0.390625 -0.734375 -1.078125 -1.125q-0.671875 -0.390625 -1.484375 -0.390625q-0.828125 0 -1.5 0.390625q-0.671875 0.375 -1.078125 1.109375q-0.390625 0.734375 -0.390625 1.71875q0 1.015625 0.390625 1.7656231q0.40625 0.734375 1.078125 1.125q0.671875 0.390625 1.5 0.390625q0.8125 0 1.484375 -0.390625q0.6875 -0.390625 1.078125 -1.125q0.40625 -0.7499981 0.40625 -1.7499981zm7.050415 4.546873q-1.015625 0 -1.8125 -0.34375q-0.796875 -0.34375 -1.265625 -0.953125q-0.46875 -0.625 -0.515625 -1.421875l1.5 0q0.0625 0.65625 0.609375 1.078125q0.5625 0.40625 1.453125 0.40625q0.84375 0 1.3125 -0.359375q0.484375 -0.375 0.484375 -0.9375q0 -0.5625 -0.515625 -0.84375q-0.5 -0.2812481 -1.578125 -0.5624981q-0.96875 -0.25 -1.59375 -0.515625q-0.609375 -0.265625 -1.0625 -0.78125q-0.4375 -0.515625 -0.4375 -1.375q0 -0.671875 0.40625 -1.21875q0.40625 -0.5625 1.140625 -0.890625q0.734375 -0.328125 1.671875 -0.328125q1.453125 0 2.34375 0.734375q0.90625 0.734375 0.96875 2.015625l-1.453125 0q-0.046875 -0.6875 -0.5625 -1.109375q-0.5 -0.421875 -1.34375 -0.421875q-0.78125 0 -1.25 0.34375q-0.453125 0.328125 -0.453125 0.875q0 0.4375 0.265625 0.71875q0.28125 0.28125 0.703125 0.453125q0.4375 0.15625 1.1875 0.375q0.9375 0.25 1.53125 0.5q0.59375 0.25 1.015625 0.75q0.421875 0.4843731 0.4375 1.2812481q0 0.734375 -0.40625 1.3125q-0.390625 0.5625 -1.125 0.890625q-0.71875 0.328125 -1.65625 0.328125z" fill-rule="nonzero"/><path fill="#666666" d="m596.3373 62.535538l123.33856 0l0 52.18898l-123.33856 0z" fill-rule="evenodd"/><path stroke="#000000" stroke-width="3.0" stroke-linejoin="round" stroke-linecap="butt" d="m596.3373 62.535538l123.33856 0l0 52.18898l-123.33856 0z" fill-rule="evenodd"/><path fill="#ffffff" d="m621.71 90.06815q0 -1.34375 0.546875 -2.359375q0.546875 -1.015625 1.5 -1.5625q0.953125 -0.5625 2.109375 -0.5625q1.15625 0 2.0 0.5q0.859375 0.484375 1.265625 1.234375l0 -1.59375l1.46875 0l0 8.765625l-1.46875 0l0 -1.625q-0.421875 0.765625 -1.28125 1.265625q-0.859375 0.5 -2.0 0.5q-1.171875 0 -2.109375 -0.578125q-0.9375 -0.578125 -1.484375 -1.609375q-0.546875 -1.046875 -0.546875 -2.375zm7.421875 0.015625q0 -0.984375 -0.40625 -1.71875q-0.390625 -0.734375 -1.078125 -1.125q-0.671875 -0.390625 -1.484375 -0.390625q-0.828125 0 -1.5 0.390625q-0.671875 0.375 -1.078125 1.109375q-0.390625 0.734375 -0.390625 1.71875q0 1.015625 0.390625 1.765625q0.40625 0.734375 1.078125 1.125q0.671875 0.390625 1.5 0.390625q0.8125 0 1.484375 -0.390625q0.6875 -0.390625 1.078125 -1.125q0.40625 -0.75 0.40625 -1.75zm7.206604 3.0625l2.71875 -7.421875l1.546875 0l-3.4375 8.765625l-1.703125 0l-3.4375 -8.765625l1.578125 0l2.734375 7.421875zm5.163513 -3.078125q0 -1.34375 0.546875 -2.359375q0.546875 -1.015625 1.5 -1.5625q0.953125 -0.5625 2.109375 -0.5625q1.15625 0 2.0 0.5q0.859375 0.484375 1.265625 1.234375l0 -1.59375l1.46875 0l0 8.765625l-1.46875 0l0 -1.625q-0.421875 0.765625 -1.28125 1.265625q-0.859375 0.5 -2.0 0.5q-1.171875 0 -2.109375 -0.578125q-0.9375 -0.578125 -1.484375 -1.609375q-0.546875 -1.046875 -0.546875 -2.375zm7.421875 0.015625q0 -0.984375 -0.40625 -1.71875q-0.390625 -0.734375 -1.078125 -1.125q-0.671875 -0.390625 -1.484375 -0.390625q-0.828125 0 -1.5 0.390625q-0.671875 0.375 -1.078125 1.109375q-0.390625 0.734375 -0.390625 1.71875q0 1.015625 0.390625 1.765625q0.40625 0.734375 1.078125 1.125q0.671875 0.390625 1.5 0.390625q0.8125 0 1.484375 -0.390625q0.6875 -0.390625 1.078125 -1.125q0.40625 -0.75 0.40625 -1.75zm4.69104 -5.78125q-0.421875 0 -0.71875 -0.28125q-0.28125 -0.296875 -0.28125 -0.71875q0 -0.40625 0.28125 -0.6875q0.296875 -0.296875 0.71875 -0.296875q0.40625 0 0.671875 0.296875q0.28125 0.28125 0.28125 0.6875q0 0.421875 -0.28125 0.71875q-0.265625 0.28125 -0.671875 0.28125zm0.703125 1.421875l0 8.765625l-1.453125 0l0 -8.765625l1.453125 0zm3.9360352 -3.078125l0 11.84375l-1.453125 0l0 -11.84375l1.453125 0zm1.9359741 7.421875q0 -1.34375 0.546875 -2.359375q0.546875 -1.015625 1.5 -1.5625q0.953125 -0.5625 2.109375 -0.5625q1.15625 0 2.0 0.5q0.859375 0.484375 1.265625 1.234375l0 -1.59375l1.46875 0l0 8.765625l-1.46875 0l0 -1.625q-0.421875 0.765625 -1.28125 1.265625q-0.859375 0.5 -2.0 0.5q-1.171875 0 -2.109375 -0.578125q-0.9375 -0.578125 -1.484375 -1.609375q-0.546875 -1.046875 -0.546875 -2.375zm7.421875 0.015625q0 -0.984375 -0.40625 -1.71875q-0.390625 -0.734375 -1.078125 -1.125q-0.671875 -0.390625 -1.484375 -0.390625q-0.828125 0 -1.5 0.390625q-0.671875 0.375 -1.078125 1.109375q-0.390625 0.734375 -0.390625 1.71875q0 1.015625 0.390625 1.765625q0.40625 0.734375 1.078125 1.125q0.671875 0.390625 1.5 0.390625q0.8125 0 1.484375 -0.390625q0.6875 -0.390625 1.078125 -1.125q0.40625 -0.75 0.40625 -1.75zm5.394165 -2.734375q0.453125 -0.78125 1.3125 -1.265625q0.859375 -0.5 1.96875 -0.5q1.1875 0 2.125 0.5625q0.953125 0.546875 1.484375 1.5625q0.546875 1.015625 0.546875 2.359375q0 1.328125 -0.546875 2.375q-0.53125 1.03125 -1.484375 1.609375q-0.953125 0.578125 -2.125 0.578125q-1.140625 0 -2.0 -0.484375q-0.84375 -0.5 -1.28125 -1.265625l0 1.609375l-1.453125 0l0 -11.84375l1.453125 0l0 4.703125zm5.953125 2.71875q0 -0.984375 -0.40625 -1.71875q-0.390625 -0.734375 -1.078125 -1.109375q-0.671875 -0.390625 -1.5 -0.390625q-0.796875 0 -1.484375 0.390625q-0.671875 0.390625 -1.078125 1.140625q-0.40625 0.734375 -0.40625 1.703125q0 1.0 0.40625 1.75q0.40625 0.734375 1.078125 1.125q0.6875 0.390625 1.484375 0.390625q0.828125 0 1.5 -0.390625q0.6875 -0.390625 1.078125 -1.125q0.40625 -0.75 0.40625 -1.765625zm4.862915 -7.421875l0 11.84375l-1.453125 0l0 -11.84375l1.453125 0zm10.482849 7.125q0 0.421875 -0.046875 0.875l-7.015625 0q0.078125 1.296875 0.890625 2.03125q0.8125 0.71875 1.96875 0.71875q0.9375 0 1.5625 -0.4375q0.640625 -0.4375 0.890625 -1.171875l1.578125 0q-0.359375 1.265625 -1.421875 2.0625q-1.046875 0.78125 -2.609375 0.78125q-1.25 0 -2.234375 -0.546875q-0.984375 -0.5625 -1.546875 -1.59375q-0.5625 -1.046875 -0.5625 -2.40625q0 -1.359375 0.546875 -2.375q0.546875 -1.03125 1.53125 -1.578125q0.984375 -0.546875 2.265625 -0.546875q1.234375 0 2.1875 0.546875q0.96875 0.53125 1.484375 1.484375q0.53125 0.953125 0.53125 2.15625zm-1.5 -0.3125q0 -0.828125 -0.375 -1.421875q-0.375 -0.609375 -1.0 -0.921875q-0.625 -0.3125 -1.40625 -0.3125q-1.09375 0 -1.875 0.71875q-0.78125 0.703125 -0.890625 1.9375l5.546875 0z" fill-rule="nonzero"/></g></svg>