<?xml version="1.0" encoding="UTF-8" standalone="no"?>
<svg 
   width="249.12pt"
   height="228.95999pt"
   viewBox="0 0 249.12 228.95999"
   version="1.1"
   id="svg130"
   xmlns="http://www.w3.org/2000/svg"
   xmlns:svg="http://www.w3.org/2000/svg" content="%3Cmxfile%20host%3D%22app.diagrams.net%22%20modified%3D%222023-07-18T05%3A07%3A13.931Z%22%20agent%3D%22Mozilla%2F5.0%20(X11%3B%20Ubuntu%3B%20Linux%20x86_64%3B%20rv%3A109.0)%20Gecko%2F20100101%20Firefox%2F115.0%22%20version%3D%2221.6.2%22%20etag%3D%22f5LmsI_R73GV8f6BlXYO%22%20type%3D%22device%22%3E%20%20%20%3Cdiagram%20name%3D%22Page-1%22%20id%3D%22toke8WGo_K3BQ-uILTRm%22%3E%20%20%20%20%20%3CmxGraphModel%20dx%3D%222045%22%20dy%3D%222826%22%20grid%3D%221%22%20gridSize%3D%2210%22%20guides%3D%221%22%20tooltips%3D%221%22%20connect%3D%221%22%20arrows%3D%221%22%20fold%3D%221%22%20page%3D%221%22%20pageScale%3D%221%22%20pageWidth%3D%22850%22%20pageHeight%3D%221100%22%20math%3D%221%22%20shadow%3D%220%22%3E%20%20%20%20%20%20%20%3Croot%3E%20%20%20%20%20%20%20%20%20%3CmxCell%20id%3D%220%22%20%2F%3E%20%20%20%20%20%20%20%20%20%3CmxCell%20id%3D%221%22%20parent%3D%220%22%20%2F%3E%20%20%20%20%20%20%20%20%20%3CmxCell%20id%3D%222%22%20value%3D%22%22%20style%3D%22shape%3DumlActor%3BverticalLabelPosition%3Dbottom%3BverticalAlign%3Dtop%3Bhtml%3D1%3BoutlineConnect%3D0%3BfontFamily%3DHelvetica%3BfontSize%3D11%3BfontColor%3Ddefault%3BstrokeColor%3D%23E6007A%3Bsketch%3D1%3BcurveFitting%3D1%3Bjiggle%3D2%3BfillColor%3Dnone%3B%22%20vertex%3D%221%22%20parent%3D%221%22%3E%20%20%20%20%20%20%20%20%20%20%20%3CmxGeometry%20x%3D%22-753%22%20y%3D%22-880%22%20width%3D%2230%22%20height%3D%2260%22%20as%3D%22geometry%22%20%2F%3E%20%20%20%20%20%20%20%20%20%3C%2FmxCell%3E%20%20%20%20%20%20%20%20%20%3CmxCell%20id%3D%223%22%20value%3D%22%22%20style%3D%22shape%3DumlActor%3BverticalLabelPosition%3Dbottom%3BverticalAlign%3Dtop%3Bhtml%3D1%3BoutlineConnect%3D0%3BfontFamily%3DHelvetica%3BfontSize%3D11%3BfontColor%3Ddefault%3BstrokeColor%3D%23E6007A%3Bsketch%3D1%3BcurveFitting%3D1%3Bjiggle%3D2%3BfillColor%3Dnone%3B%22%20vertex%3D%221%22%20parent%3D%221%22%3E%20%20%20%20%20%20%20%20%20%20%20%3CmxGeometry%20x%3D%22-753%22%20y%3D%22-800%22%20width%3D%2230%22%20height%3D%2260%22%20as%3D%22geometry%22%20%2F%3E%20%20%20%20%20%20%20%20%20%3C%2FmxCell%3E%20%20%20%20%20%20%20%20%20%3CmxCell%20id%3D%224%22%20value%3D%22%22%20style%3D%22shape%3DumlActor%3BverticalLabelPosition%3Dbottom%3BverticalAlign%3Dtop%3Bhtml%3D1%3BoutlineConnect%3D0%3BfontFamily%3DHelvetica%3BfontSize%3D11%3BfontColor%3Ddefault%3BstrokeColor%3D%23E6007A%3Bsketch%3D1%3BcurveFitting%3D1%3Bjiggle%3D2%3BfillColor%3Dnone%3B%22%20vertex%3D%221%22%20parent%3D%221%22%3E%20%20%20%20%20%20%20%20%20%20%20%3CmxGeometry%20x%3D%22-753%22%20y%3D%22-720%22%20width%3D%2230%22%20height%3D%2260%22%20as%3D%22geometry%22%20%2F%3E%20%20%20%20%20%20%20%20%20%3C%2FmxCell%3E%20%20%20%20%20%20%20%20%20%3CmxCell%20id%3D%225%22%20value%3D%22%22%20style%3D%22shape%3DumlActor%3BverticalLabelPosition%3Dbottom%3BverticalAlign%3Dtop%3Bhtml%3D1%3BoutlineConnect%3D0%3BfontFamily%3DHelvetica%3BfontSize%3D11%3BfontColor%3Ddefault%3BstrokeColor%3D%23E6007A%3Bsketch%3D1%3BcurveFitting%3D1%3Bjiggle%3D2%3BfillColor%3Dnone%3B%22%20vertex%3D%221%22%20parent%3D%221%22%3E%20%20%20%20%20%20%20%20%20%20%20%3CmxGeometry%20x%3D%22-753%22%20y%3D%22-640%22%20width%3D%2230%22%20height%3D%2260%22%20as%3D%22geometry%22%20%2F%3E%20%20%20%20%20%20%20%20%20%3C%2FmxCell%3E%20%20%20%20%20%20%20%20%20%3CmxCell%20id%3D%226%22%20style%3D%22edgeStyle%3Dnone%3Bshape%3Dconnector%3Brounded%3D0%3Bsketch%3D1%3Bjiggle%3D2%3BcurveFitting%3D1%3BorthogonalLoop%3D1%3BjettySize%3Dauto%3Bhtml%3D1%3BlabelBackgroundColor%3Ddefault%3BstrokeColor%3D%23E6007A%3BfontFamily%3DHelvetica%3BfontSize%3D11%3BfontColor%3Ddefault%3BendArrow%3Dclassic%3B%22%20edge%3D%221%22%20source%3D%229%22%20target%3D%2221%22%20parent%3D%221%22%3E%20%20%20%20%20%20%20%20%20%20%20%3CmxGeometry%20relative%3D%221%22%20as%3D%22geometry%22%20%2F%3E%20%20%20%20%20%20%20%20%20%3C%2FmxCell%3E%20%20%20%20%20%20%20%20%20%3CmxCell%20id%3D%227%22%20style%3D%22edgeStyle%3Dnone%3Bshape%3Dconnector%3Brounded%3D0%3Bsketch%3D1%3Bjiggle%3D2%3BcurveFitting%3D1%3BorthogonalLoop%3D1%3BjettySize%3Dauto%3Bhtml%3D1%3BentryX%3D0%3BentryY%3D0%3BentryDx%3D0%3BentryDy%3D0%3BlabelBackgroundColor%3Ddefault%3BstrokeColor%3D%23E6007A%3BfontFamily%3DHelvetica%3BfontSize%3D11%3BfontColor%3Ddefault%3BendArrow%3Dclassic%3B%22%20edge%3D%221%22%20source%3D%229%22%20target%3D%2225%22%20parent%3D%221%22%3E%20%20%20%20%20%20%20%20%20%20%20%3CmxGeometry%20relative%3D%221%22%20as%3D%22geometry%22%20%2F%3E%20%20%20%20%20%20%20%20%20%3C%2FmxCell%3E%20%20%20%20%20%20%20%20%20%3CmxCell%20id%3D%228%22%20style%3D%22edgeStyle%3Dnone%3Bshape%3Dconnector%3Brounded%3D0%3Bsketch%3D1%3Bjiggle%3D2%3BcurveFitting%3D1%3BorthogonalLoop%3D1%3BjettySize%3Dauto%3Bhtml%3D1%3BlabelBackgroundColor%3Ddefault%3BstrokeColor%3D%23E6007A%3BfontFamily%3DHelvetica%3BfontSize%3D11%3BfontColor%3Ddefault%3BendArrow%3Dclassic%3B%22%20edge%3D%221%22%20source%3D%229%22%20target%3D%2223%22%20parent%3D%221%22%3E%20%20%20%20%20%20%20%20%20%20%20%3CmxGeometry%20relative%3D%221%22%20as%3D%22geometry%22%20%2F%3E%20%20%20%20%20%20%20%20%20%3C%2FmxCell%3E%20%20%20%20%20%20%20%20%20%3CmxCell%20id%3D%229%22%20value%3D%22%22%20style%3D%22ellipse%3BwhiteSpace%3Dwrap%3Bhtml%3D1%3Baspect%3Dfixed%3Bsketch%3D1%3BcurveFitting%3D1%3Bjiggle%3D2%3BstrokeColor%3D%23E6007A%3BfillColor%3Dnone%3B%22%20vertex%3D%221%22%20parent%3D%221%22%3E%20%20%20%20%20%20%20%20%20%20%20%3CmxGeometry%20x%3D%22-685.96%22%20y%3D%22-875%22%20width%3D%2250%22%20height%3D%2250%22%20as%3D%22geometry%22%20%2F%3E%20%20%20%20%20%20%20%20%20%3C%2FmxCell%3E%20%20%20%20%20%20%20%20%20%3CmxCell%20id%3D%2210%22%20style%3D%22edgeStyle%3Dnone%3Bshape%3Dconnector%3Brounded%3D0%3Bsketch%3D1%3Bjiggle%3D2%3BcurveFitting%3D1%3BorthogonalLoop%3D1%3BjettySize%3Dauto%3Bhtml%3D1%3BlabelBackgroundColor%3Ddefault%3BstrokeColor%3D%23E6007A%3BfontFamily%3DHelvetica%3BfontSize%3D11%3BfontColor%3Ddefault%3BendArrow%3Dclassic%3B%22%20edge%3D%221%22%20source%3D%2213%22%20target%3D%2223%22%20parent%3D%221%22%3E%20%20%20%20%20%20%20%20%20%20%20%3CmxGeometry%20relative%3D%221%22%20as%3D%22geometry%22%20%2F%3E%20%20%20%20%20%20%20%20%20%3C%2FmxCell%3E%20%20%20%20%20%20%20%20%20%3CmxCell%20id%3D%2211%22%20style%3D%22edgeStyle%3Dnone%3Bshape%3Dconnector%3Brounded%3D0%3Bsketch%3D1%3Bjiggle%3D2%3BcurveFitting%3D1%3BorthogonalLoop%3D1%3BjettySize%3Dauto%3Bhtml%3D1%3BentryX%3D-0.021%3BentryY%3D0.281%3BentryDx%3D0%3BentryDy%3D0%3BentryPerimeter%3D0%3BlabelBackgroundColor%3Ddefault%3BstrokeColor%3D%23E6007A%3BfontFamily%3DHelvetica%3BfontSize%3D11%3BfontColor%3Ddefault%3BendArrow%3Dclassic%3B%22%20edge%3D%221%22%20source%3D%2213%22%20target%3D%2225%22%20parent%3D%221%22%3E%20%20%20%20%20%20%20%20%20%20%20%3CmxGeometry%20relative%3D%221%22%20as%3D%22geometry%22%20%2F%3E%20%20%20%20%20%20%20%20%20%3C%2FmxCell%3E%20%20%20%20%20%20%20%20%20%3CmxCell%20id%3D%2212%22%20style%3D%22edgeStyle%3Dnone%3Bshape%3Dconnector%3Brounded%3D0%3Bsketch%3D1%3Bjiggle%3D2%3BcurveFitting%3D1%3BorthogonalLoop%3D1%3BjettySize%3Dauto%3Bhtml%3D1%3BentryX%3D-0.035%3BentryY%3D0.712%3BentryDx%3D0%3BentryDy%3D0%3BentryPerimeter%3D0%3BlabelBackgroundColor%3Ddefault%3BstrokeColor%3D%23E6007A%3BfontFamily%3DHelvetica%3BfontSize%3D11%3BfontColor%3Ddefault%3BendArrow%3Dclassic%3B%22%20edge%3D%221%22%20source%3D%2213%22%20target%3D%2221%22%20parent%3D%221%22%3E%20%20%20%20%20%20%20%20%20%20%20%3CmxGeometry%20relative%3D%221%22%20as%3D%22geometry%22%20%2F%3E%20%20%20%20%20%20%20%20%20%3C%2FmxCell%3E%20%20%20%20%20%20%20%20%20%3CmxCell%20id%3D%2213%22%20value%3D%22%22%20style%3D%22ellipse%3BwhiteSpace%3Dwrap%3Bhtml%3D1%3Baspect%3Dfixed%3Bsketch%3D1%3BcurveFitting%3D1%3Bjiggle%3D2%3BstrokeColor%3D%23E6007A%3BfillColor%3Dnone%3B%22%20vertex%3D%221%22%20parent%3D%221%22%3E%20%20%20%20%20%20%20%20%20%20%20%3CmxGeometry%20x%3D%22-685.96%22%20y%3D%22-795%22%20width%3D%2250%22%20height%3D%2250%22%20as%3D%22geometry%22%20%2F%3E%20%20%20%20%20%20%20%20%20%3C%2FmxCell%3E%20%20%20%20%20%20%20%20%20%3CmxCell%20id%3D%2214%22%20style%3D%22edgeStyle%3Dnone%3Bshape%3Dconnector%3Brounded%3D0%3Bsketch%3D1%3Bjiggle%3D2%3BcurveFitting%3D1%3BorthogonalLoop%3D1%3BjettySize%3Dauto%3Bhtml%3D1%3BlabelBackgroundColor%3Ddefault%3BstrokeColor%3D%23E6007A%3BfontFamily%3DHelvetica%3BfontSize%3D11%3BfontColor%3Ddefault%3BendArrow%3Dclassic%3B%22%20edge%3D%221%22%20source%3D%2216%22%20target%3D%2225%22%20parent%3D%221%22%3E%20%20%20%20%20%20%20%20%20%20%20%3CmxGeometry%20relative%3D%221%22%20as%3D%22geometry%22%20%2F%3E%20%20%20%20%20%20%20%20%20%3C%2FmxCell%3E%20%20%20%20%20%20%20%20%20%3CmxCell%20id%3D%2215%22%20style%3D%22edgeStyle%3Dnone%3Bshape%3Dconnector%3Brounded%3D0%3Bsketch%3D1%3Bjiggle%3D2%3BcurveFitting%3D1%3BorthogonalLoop%3D1%3BjettySize%3Dauto%3Bhtml%3D1%3BlabelBackgroundColor%3Ddefault%3BstrokeColor%3D%23E6007A%3BfontFamily%3DHelvetica%3BfontSize%3D11%3BfontColor%3Ddefault%3BendArrow%3Dclassic%3B%22%20edge%3D%221%22%20source%3D%2216%22%20parent%3D%221%22%3E%20%20%20%20%20%20%20%20%20%20%20%3CmxGeometry%20relative%3D%221%22%20as%3D%22geometry%22%3E%20%20%20%20%20%20%20%20%20%20%20%20%20%3CmxPoint%20x%3D%22-583%22%20y%3D%22-830%22%20as%3D%22targetPoint%22%20%2F%3E%20%20%20%20%20%20%20%20%20%20%20%3C%2FmxGeometry%3E%20%20%20%20%20%20%20%20%20%3C%2FmxCell%3E%20%20%20%20%20%20%20%20%20%3CmxCell%20id%3D%2216%22%20value%3D%22%22%20style%3D%22ellipse%3BwhiteSpace%3Dwrap%3Bhtml%3D1%3Baspect%3Dfixed%3Bsketch%3D1%3BcurveFitting%3D1%3Bjiggle%3D2%3BstrokeColor%3D%23E6007A%3BfillColor%3Dnone%3B%22%20vertex%3D%221%22%20parent%3D%221%22%3E%20%20%20%20%20%20%20%20%20%20%20%3CmxGeometry%20x%3D%22-685.96%22%20y%3D%22-710%22%20width%3D%2250%22%20height%3D%2250%22%20as%3D%22geometry%22%20%2F%3E%20%20%20%20%20%20%20%20%20%3C%2FmxCell%3E%20%20%20%20%20%20%20%20%20%3CmxCell%20id%3D%2217%22%20style%3D%22edgeStyle%3Dnone%3Bshape%3Dconnector%3Brounded%3D0%3Bsketch%3D1%3Bjiggle%3D2%3BcurveFitting%3D1%3BorthogonalLoop%3D1%3BjettySize%3Dauto%3Bhtml%3D1%3BentryX%3D0%3BentryY%3D1%3BentryDx%3D0%3BentryDy%3D0%3BlabelBackgroundColor%3Ddefault%3BstrokeColor%3D%23E6007A%3BfontFamily%3DHelvetica%3BfontSize%3D11%3BfontColor%3Ddefault%3BendArrow%3Dclassic%3BexitX%3D1%3BexitY%3D0%3BexitDx%3D0%3BexitDy%3D0%3B%22%20edge%3D%221%22%20source%3D%2219%22%20target%3D%2223%22%20parent%3D%221%22%3E%20%20%20%20%20%20%20%20%20%20%20%3CmxGeometry%20relative%3D%221%22%20as%3D%22geometry%22%20%2F%3E%20%20%20%20%20%20%20%20%20%3C%2FmxCell%3E%20%20%20%20%20%20%20%20%20%3CmxCell%20id%3D%2218%22%20style%3D%22edgeStyle%3Dnone%3Bshape%3Dconnector%3Brounded%3D0%3Bsketch%3D1%3Bjiggle%3D2%3BcurveFitting%3D1%3BorthogonalLoop%3D1%3BjettySize%3Dauto%3Bhtml%3D1%3BentryX%3D0%3BentryY%3D1%3BentryDx%3D0%3BentryDy%3D0%3BlabelBackgroundColor%3Ddefault%3BstrokeColor%3D%23E6007A%3BfontFamily%3DHelvetica%3BfontSize%3D11%3BfontColor%3Ddefault%3BendArrow%3Dclassic%3BexitX%3D1%3BexitY%3D0%3BexitDx%3D0%3BexitDy%3D0%3B%22%20edge%3D%221%22%20source%3D%2219%22%20target%3D%2221%22%20parent%3D%221%22%3E%20%20%20%20%20%20%20%20%20%20%20%3CmxGeometry%20relative%3D%221%22%20as%3D%22geometry%22%20%2F%3E%20%20%20%20%20%20%20%20%20%3C%2FmxCell%3E%20%20%20%20%20%20%20%20%20%3CmxCell%20id%3D%2219%22%20value%3D%22%22%20style%3D%22ellipse%3BwhiteSpace%3Dwrap%3Bhtml%3D1%3Baspect%3Dfixed%3Bsketch%3D1%3BcurveFitting%3D1%3Bjiggle%3D2%3BstrokeColor%3D%23E6007A%3BfillColor%3D%23E6007A%3B%22%20vertex%3D%221%22%20parent%3D%221%22%3E%20%20%20%20%20%20%20%20%20%20%20%3CmxGeometry%20x%3D%22-685.96%22%20y%3D%22-630%22%20width%3D%2250%22%20height%3D%2250%22%20as%3D%22geometry%22%20%2F%3E%20%20%20%20%20%20%20%20%20%3C%2FmxCell%3E%20%20%20%20%20%20%20%20%20%3CmxCell%20id%3D%2220%22%20style%3D%22edgeStyle%3Dnone%3Bshape%3Dconnector%3Brounded%3D0%3Bsketch%3D1%3Bjiggle%3D2%3BcurveFitting%3D1%3BorthogonalLoop%3D1%3BjettySize%3Dauto%3Bhtml%3D1%3BentryX%3D0%3BentryY%3D0%3BentryDx%3D0%3BentryDy%3D0%3BlabelBackgroundColor%3Ddefault%3BstrokeColor%3D%23E6007A%3BfontFamily%3DHelvetica%3BfontSize%3D11%3BfontColor%3Ddefault%3BendArrow%3Dclassic%3B%22%20edge%3D%221%22%20source%3D%2221%22%20target%3D%2226%22%20parent%3D%221%22%3E%20%20%20%20%20%20%20%20%20%20%20%3CmxGeometry%20relative%3D%221%22%20as%3D%22geometry%22%20%2F%3E%20%20%20%20%20%20%20%20%20%3C%2FmxCell%3E%20%20%20%20%20%20%20%20%20%3CmxCell%20id%3D%2221%22%20value%3D%22%22%20style%3D%22ellipse%3BwhiteSpace%3Dwrap%3Bhtml%3D1%3Baspect%3Dfixed%3Bsketch%3D1%3BcurveFitting%3D1%3Bjiggle%3D2%3BstrokeColor%3D%23E6007A%3BfillColor%3D%23E6007A%3B%22%20vertex%3D%221%22%20parent%3D%221%22%3E%20%20%20%20%20%20%20%20%20%20%20%3CmxGeometry%20x%3D%22-583%22%20y%3D%22-875%22%20width%3D%2250%22%20height%3D%2250%22%20as%3D%22geometry%22%20%2F%3E%20%20%20%20%20%20%20%20%20%3C%2FmxCell%3E%20%20%20%20%20%20%20%20%20%3CmxCell%20id%3D%2222%22%20style%3D%22edgeStyle%3Dnone%3Bshape%3Dconnector%3Brounded%3D0%3Bsketch%3D1%3Bjiggle%3D2%3BcurveFitting%3D1%3BorthogonalLoop%3D1%3BjettySize%3Dauto%3Bhtml%3D1%3BlabelBackgroundColor%3Ddefault%3BstrokeColor%3D%23E6007A%3BfontFamily%3DHelvetica%3BfontSize%3D11%3BfontColor%3Ddefault%3BendArrow%3Dclassic%3B%22%20edge%3D%221%22%20source%3D%2223%22%20target%3D%2226%22%20parent%3D%221%22%3E%20%20%20%20%20%20%20%20%20%20%20%3CmxGeometry%20relative%3D%221%22%20as%3D%22geometry%22%20%2F%3E%20%20%20%20%20%20%20%20%20%3C%2FmxCell%3E%20%20%20%20%20%20%20%20%20%3CmxCell%20id%3D%2223%22%20value%3D%22%22%20style%3D%22ellipse%3BwhiteSpace%3Dwrap%3Bhtml%3D1%3Baspect%3Dfixed%3Bsketch%3D1%3BcurveFitting%3D1%3Bjiggle%3D2%3BstrokeColor%3D%23E6007A%3BfillColor%3Dnone%3B%22%20vertex%3D%221%22%20parent%3D%221%22%3E%20%20%20%20%20%20%20%20%20%20%20%3CmxGeometry%20x%3D%22-583%22%20y%3D%22-795%22%20width%3D%2250%22%20height%3D%2250%22%20as%3D%22geometry%22%20%2F%3E%20%20%20%20%20%20%20%20%20%3C%2FmxCell%3E%20%20%20%20%20%20%20%20%20%3CmxCell%20id%3D%2224%22%20style%3D%22edgeStyle%3Dnone%3Bshape%3Dconnector%3Brounded%3D0%3Bsketch%3D1%3Bjiggle%3D2%3BcurveFitting%3D1%3BorthogonalLoop%3D1%3BjettySize%3Dauto%3Bhtml%3D1%3BlabelBackgroundColor%3Ddefault%3BstrokeColor%3D%23E6007A%3BfontFamily%3DHelvetica%3BfontSize%3D11%3BfontColor%3Ddefault%3BendArrow%3Dclassic%3B%22%20edge%3D%221%22%20source%3D%2225%22%20target%3D%2226%22%20parent%3D%221%22%3E%20%20%20%20%20%20%20%20%20%20%20%3CmxGeometry%20relative%3D%221%22%20as%3D%22geometry%22%20%2F%3E%20%20%20%20%20%20%20%20%20%3C%2FmxCell%3E%20%20%20%20%20%20%20%20%20%3CmxCell%20id%3D%2225%22%20value%3D%22%22%20style%3D%22ellipse%3BwhiteSpace%3Dwrap%3Bhtml%3D1%3Baspect%3Dfixed%3Bsketch%3D1%3BcurveFitting%3D1%3Bjiggle%3D2%3BstrokeColor%3D%23E6007A%3BfillColor%3Dnone%3B%22%20vertex%3D%221%22%20parent%3D%221%22%3E%20%20%20%20%20%20%20%20%20%20%20%3CmxGeometry%20x%3D%22-583%22%20y%3D%22-710%22%20width%3D%2250%22%20height%3D%2250%22%20as%3D%22geometry%22%20%2F%3E%20%20%20%20%20%20%20%20%20%3C%2FmxCell%3E%20%20%20%20%20%20%20%20%20%3CmxCell%20id%3D%2226%22%20value%3D%22%22%20style%3D%22ellipse%3BwhiteSpace%3Dwrap%3Bhtml%3D1%3Baspect%3Dfixed%3Bsketch%3D1%3BcurveFitting%3D1%3Bjiggle%3D2%3BstrokeColor%3D%23E6007A%3BfillColor%3D%23E6007A%3B%22%20vertex%3D%221%22%20parent%3D%221%22%3E%20%20%20%20%20%20%20%20%20%20%20%3CmxGeometry%20x%3D%22-474.67%22%20y%3D%22-795%22%20width%3D%2250%22%20height%3D%2250%22%20as%3D%22geometry%22%20%2F%3E%20%20%20%20%20%20%20%20%20%3C%2FmxCell%3E%20%20%20%20%20%20%20%3C%2Froot%3E%20%20%20%20%20%3C%2FmxGraphModel%3E%20%20%20%3C%2Fdiagram%3E%20%3C%2Fmxfile%3E%20">
  <defs
     id="defs8">
    <clipPath
       id="clip-0">
      <path
         clip-rule="nonzero"
         d="M 49 186 L 91 186 L 91 227.25 L 49 227.25 Z M 49 186 "
         id="path2" />
    </clipPath>
    <clipPath
       id="clip-1">
      <path
         clip-rule="nonzero"
         d="M 210 64 L 249 64 L 249 103 L 210 103 Z M 210 64 "
         id="path5" />
    </clipPath>
  </defs>
  <path
     fill="none"
     stroke-width="1"
     stroke-linecap="round"
     stroke-linejoin="round"
     stroke="rgb(90.19928%, 0%, 47.839355%)"
     stroke-opacity="1"
     stroke-miterlimit="10"
     d="M 8.46875 4.067709 C 9.541667 3.020833 11.880209 1.598958 13.760417 1.041667 C 15.640626 0.479167 17.911459 0.182292 19.739584 0.708333 C 21.567709 1.239583 24.328126 2.739583 24.729168 4.229167 C 25.119793 5.708334 22.880209 7.552084 22.109376 9.609375 C 21.348959 11.682292 21.338543 15.239584 20.140626 16.630209 C 18.937501 18.020834 16.140626 18.697917 14.901042 17.947917 C 13.651042 17.208334 13.531251 13.479167 12.671876 12.171876 C 11.812501 10.869792 9.052084 12.270834 9.729167 10.130209 C 10.411459 7.979167 14.479167 0.25 16.750001 -0.697917 C 19.020834 -1.651042 23.250001 4.151042 23.338543 4.411459 M 16.828126 1.78125 C 17.968751 1.598958 21.812501 0.859375 22.708334 2.317708 C 23.609376 3.78125 22.270834 8.489584 22.239584 10.5625 C 22.208334 12.630209 23.052084 13.552084 22.531251 14.729167 C 22.010418 15.901042 21.119793 18.067709 19.109376 17.588542 C 17.098959 17.109376 12.130209 12.791667 10.447917 11.848959 C 8.770834 10.911459 9.552084 13.229167 9.052084 11.947917 C 8.552084 10.671875 6.671875 5.979167 7.458334 4.161459 C 8.239584 2.328125 11.859376 1.260417 13.760417 0.979167 C 15.661459 0.708333 18.260417 2.671875 18.848959 2.5 C 19.432292 2.338542 16.989584 0.421875 17.260417 -0.0208333 "
     transform="matrix(0.75, 0, 0, 0.75, 0.375, 0.375)"
     id="path10" />
  <path
     fill="none"
     stroke-width="1"
     stroke-linecap="round"
     stroke-linejoin="round"
     stroke="rgb(90.19928%, 0%, 47.839355%)"
     stroke-opacity="1"
     stroke-miterlimit="10"
     d="M 16.000001 16.000001 C 19.260417 17.161459 12.588542 22.447918 16.000001 41.000002 M 16.000001 16.000001 C 15.739584 22.380209 14.979167 29.510418 16.000001 41.000002 M 16.000001 21.000001 C 12.041667 23.869793 7.921875 23.848959 1 21.000001 M 16.000001 21.000001 C 10.75 21.531251 2.791667 21.937501 1 21.000001 M 16.000001 21.000001 C 21.187501 23.510418 25.682293 19.630209 31.000001 21.000001 M 16.000001 21.000001 C 20.109376 21.718751 26.182293 21.541668 31.000001 21.000001 M 16.000001 41.000002 C 6.880209 49.338544 6.901042 54.161461 1 61.000003 M 16.000001 41.000002 C 12.312501 47.16146 7.1875 50.84896 1 61.000003 M 16.000001 41.000002 C 22.828126 52.250002 24.578126 58.187502 31.000001 61.000003 M 16.000001 41.000002 C 18.218751 47.510419 25.020834 52.338544 31.000001 61.000003 "
     transform="matrix(0.75, 0, 0, 0.75, 0.375, 0.375)"
     id="path12" />
  <path
     fill="none"
     stroke-width="1"
     stroke-linecap="round"
     stroke-linejoin="round"
     stroke="rgb(90.19928%, 0%, 47.839355%)"
     stroke-opacity="1"
     stroke-miterlimit="10"
     d="M 19.791668 82.119795 C 21.359376 82.250003 23.250001 82.500003 23.958334 84.078129 C 24.682293 85.661462 24.640626 89.838545 24.078126 91.598962 C 23.510418 93.348962 21.901043 94.197921 20.578126 94.598962 C 19.250001 94.989587 17.932292 94.140629 16.119792 93.958337 C 14.312501 93.781254 11.317709 94.619796 9.71875 93.510421 C 8.119792 92.411462 6.1875 89.19792 6.520834 87.348962 C 6.848959 85.500004 10.630209 83.54167 11.697917 82.411462 C 12.770834 81.270837 11.161459 80.411462 12.937501 80.531253 C 14.729167 80.651045 20.640626 82.031253 22.390626 83.109378 C 24.140626 84.182295 23.421876 86.770837 23.447918 86.97917 M 18.531251 82.640628 C 20.088543 82.750003 17.890626 80.182295 19.119792 81.187503 C 20.359376 82.19792 25.000001 87.218754 25.937501 88.69792 C 26.880209 90.182295 25.838543 88.958337 24.781251 90.052087 C 23.708334 91.140629 21.552084 94.109379 19.567709 95.229171 C 17.588542 96.348962 14.531251 97.182296 12.901042 96.750004 C 11.28125 96.328129 10.401042 94.651046 9.817709 92.661462 C 9.229167 90.682295 9.598959 86.520837 9.380209 84.848962 C 9.161459 83.171878 6.989584 83.109378 8.510417 82.609378 C 10.03125 82.119795 17.010417 82.500003 18.500001 81.880212 C 19.989584 81.270837 18.078126 78.72917 17.458334 78.901045 "
     transform="matrix(0.75, 0, 0, 0.75, 0.375, 0.375)"
     id="path14" />
  <path
     fill="none"
     stroke-width="1"
     stroke-linecap="round"
     stroke-linejoin="round"
     stroke="rgb(90.19928%, 0%, 47.839355%)"
     stroke-opacity="1"
     stroke-miterlimit="10"
     d="M 16.000001 96.000004 C 17.062501 103.088546 16.031251 108.781255 16.000001 121.000005 M 16.000001 96.000004 C 14.197917 104.598963 16.588542 111.979171 16.000001 121.000005 M 16.000001 101.000004 C 10.958334 100.958338 4.598959 98.937504 1 101.000004 M 16.000001 101.000004 C 9.958334 100.750004 3.71875 100.817713 1 101.000004 M 16.000001 101.000004 C 19.697918 99.151046 20.578126 103.520838 31.000001 101.000004 M 16.000001 101.000004 C 22.588543 101.869796 27.802085 100.020838 31.000001 101.000004 M 16.000001 121.000005 C 12.562501 128.161464 6.520834 135.411464 1 141.000006 M 16.000001 121.000005 C 13.869792 126.07813 9.802084 128.479172 1 141.000006 M 16.000001 121.000005 C 16.848959 125.411464 26.369793 132.411464 31.000001 141.000006 M 16.000001 121.000005 C 21.421876 128.64063 25.848959 133.270839 31.000001 141.000006 "
     transform="matrix(0.75, 0, 0, 0.75, 0.375, 0.375)"
     id="path16" />
  <path
     fill="none"
     stroke-width="1"
     stroke-linecap="round"
     stroke-linejoin="round"
     stroke="rgb(90.19928%, 0%, 47.839355%)"
     stroke-opacity="1"
     stroke-miterlimit="10"
     d="M 17.520834 161.401048 C 18.489584 161.312507 17.739584 162.671882 18.958334 163.317715 C 20.182293 163.979174 24.302084 163.77084 24.828126 165.312507 C 25.359376 166.848965 23.208334 170.70834 22.161459 172.578132 C 21.098959 174.437507 20.088543 176.281257 18.479167 176.500007 C 16.869792 176.718757 13.911459 174.651049 12.500001 173.890632 C 11.088542 173.119799 10.489584 173.171882 10.010417 171.901049 C 9.520834 170.630215 9.489584 167.45834 9.578125 166.23959 C 9.671875 165.031257 9.020834 165.567715 10.541667 164.609382 C 12.062501 163.651049 16.979167 160.947923 18.682292 160.479173 C 20.390626 160.02084 20.661459 161.541673 20.791668 161.828132 M 14.218751 164.182299 C 16.052084 163.598965 19.630209 160.130215 21.078126 160.588548 C 22.541668 161.05209 23.067709 165.218757 22.958334 166.95834 C 22.848959 168.687507 20.947918 170.140632 20.432293 171.02084 C 19.901043 171.901049 20.598959 171.552091 19.802084 172.218757 C 18.989584 172.880216 17.031251 174.869799 15.598959 175.010424 C 14.161459 175.151049 12.791667 173.588549 11.1875 173.041674 C 9.578125 172.479174 6.229167 173.052091 5.979167 171.671882 C 5.729167 170.291674 8.671875 166.401049 9.697917 164.781257 C 10.71875 163.161465 11.812501 163.010423 12.140626 161.95834 C 12.458334 160.911465 11.161459 158.718757 11.640626 158.479173 "
     transform="matrix(0.75, 0, 0, 0.75, 0.375, 0.375)"
     id="path18" />
  <path
     fill="none"
     stroke-width="1"
     stroke-linecap="round"
     stroke-linejoin="round"
     stroke="rgb(90.19928%, 0%, 47.839355%)"
     stroke-opacity="1"
     stroke-miterlimit="10"
     d="M 16.000001 176.000007 C 13.859376 181.010424 18.479167 187.109383 16.000001 201.000008 M 16.000001 176.000007 C 16.661459 186.828133 14.197917 194.437508 16.000001 201.000008 M 16.000001 181.000008 C 9.869792 178.651049 7.28125 180.630216 1 181.000008 M 16.000001 181.000008 C 12.171876 180.562508 4.651042 180.312508 1 181.000008 M 16.000001 181.000008 C 18.208334 180.791674 21.468751 181.411466 31.000001 181.000008 M 16.000001 181.000008 C 22.067709 182.020841 26.432293 181.500008 31.000001 181.000008 M 16.000001 201.000008 C 10.229167 206.979175 6.151042 208.65105 1 221.000009 M 16.000001 201.000008 C 9.21875 208.989592 3.208333 214.109384 1 221.000009 M 16.000001 201.000008 C 21.067709 210.562509 25.359376 214.630217 31.000001 221.000009 M 16.000001 201.000008 C 17.619792 206.359384 24.682293 210.812509 31.000001 221.000009 "
     transform="matrix(0.75, 0, 0, 0.75, 0.375, 0.375)"
     id="path20" />
  <path
     fill="none"
     stroke-width="1"
     stroke-linecap="round"
     stroke-linejoin="round"
     stroke="rgb(90.19928%, 0%, 47.839355%)"
     stroke-opacity="1"
     stroke-miterlimit="10"
     d="M 11.239584 242.651052 C 12.562501 241.682302 14.619792 239.958343 16.687501 240.078135 C 18.760417 240.197927 22.760418 241.78126 23.651043 243.369802 C 24.541668 244.947927 22.609376 247.93751 22.031251 249.567719 C 21.447918 251.208344 21.182293 252.052094 20.171876 253.187511 C 19.151042 254.328136 17.447917 256.031261 15.947917 256.411469 C 14.458334 256.791677 12.291667 256.458344 11.197917 255.468761 C 10.109375 254.468761 9.708334 251.958344 9.411459 250.421885 C 9.109375 248.880219 8.989584 247.817719 9.401042 246.208344 C 9.8125 244.598969 11.479167 241.31251 11.859376 240.78126 C 12.229167 240.239593 11.359375 242.697927 11.630209 243.00001 M 10.109375 240.390635 C 11.078125 239.161468 15.229167 239.770843 16.770834 240.619802 C 18.312501 241.479177 18.598959 244.651052 19.369792 245.520844 C 20.140626 246.390635 21.359376 244.31251 21.401043 245.828135 C 21.437501 247.348969 20.130209 252.531261 19.619793 254.651052 C 19.109376 256.781261 19.432292 258.869802 18.338542 258.578136 C 17.239584 258.281261 14.541667 253.932302 13.031251 252.911469 C 11.520834 251.880219 9.53125 253.338552 9.270834 252.411469 C 9 251.479177 11.010417 248.947927 11.458334 247.328135 C 11.911459 245.708344 11.880209 243.119802 11.979167 242.68751 C 12.067709 242.260427 12.437501 244.380219 12.020834 244.71876 "
     transform="matrix(0.75, 0, 0, 0.75, 0.375, 0.375)"
     id="path22" />
  <path
     fill="none"
     stroke-width="1"
     stroke-linecap="round"
     stroke-linejoin="round"
     stroke="rgb(90.19928%, 0%, 47.839355%)"
     stroke-opacity="1"
     stroke-miterlimit="10"
     d="M 16.000001 256.000011 C 11.661459 258.937511 13.921876 265.432303 16.000001 281.000012 M 16.000001 256.000011 C 15.119792 264.062511 15.812501 266.901053 16.000001 281.000012 M 16.000001 261.000011 C 8.78125 261.750011 3.958334 261.718761 1 261.000011 M 16.000001 261.000011 C 11.390625 260.380219 5.578125 259.802094 1 261.000011 M 16.000001 261.000011 C 19.718751 262.437511 28.369793 259.302094 31.000001 261.000011 M 16.000001 261.000011 C 18.541667 262.171886 22.052084 259.979178 31.000001 261.000011 M 16.000001 281.000012 C 16.708334 285.802095 6.567709 289.901054 1 301.000013 M 16.000001 281.000012 C 11.567709 287.91147 6.630209 295.729179 1 301.000013 M 16.000001 281.000012 C 23.078126 283.718762 19.151042 288.84897 31.000001 301.000013 M 16.000001 281.000012 C 20.828126 287.479179 25.500001 295.750012 31.000001 301.000013 "
     transform="matrix(0.75, 0, 0, 0.75, 0.375, 0.375)"
     id="path24" />
  <path
     fill="none"
     stroke-width="1"
     stroke-linecap="round"
     stroke-linejoin="round"
     stroke="rgb(90.19928%, 0%, 47.839355%)"
     stroke-opacity="1"
     stroke-miterlimit="10"
     d="M 118.041672 31.000001 C 129.10938 35.578127 138.348964 29.458335 164.630215 31.000001 M 118.041672 31.000001 C 134.270839 29.041668 149.000006 32.140626 164.630215 31.000001 "
     transform="matrix(0.75, 0, 0, 0.75, 0.375, 0.375)"
     id="path26" />
  <path
     fill="none"
     stroke-width="0.5"
     stroke-linecap="round"
     stroke-linejoin="round"
     stroke="rgb(90.19928%, 0%, 47.839355%)"
     stroke-opacity="1"
     stroke-miterlimit="10"
     d="M 162.812507 27.578126 L 162.812507 27.578126 M 162.812507 27.578126 L 162.812507 27.578126 M 165.171882 30.958335 C 165.328132 30.13021 166.468757 30.078126 166.48959 29.447918 M 165.171882 30.958335 C 165.447924 30.34896 165.890632 30.182293 166.48959 29.447918 "
     transform="matrix(0.75, 0, 0, 0.75, 0.375, 0.375)"
     id="path28" />
  <path
     fill="none"
     stroke-width="1"
     stroke-linecap="round"
     stroke-linejoin="round"
     stroke="rgb(90.19928%, 0%, 47.839355%)"
     stroke-opacity="1"
     stroke-miterlimit="10"
     d="M 169.880215 31.000001 C 166.171882 30.697918 163.932299 34.520835 162.880215 34.500001 M 169.880215 31.000001 C 168.338549 32.682293 165.609382 33.197918 162.880215 34.500001 M 162.880215 34.500001 C 163.661465 33.302085 164.718757 32.708335 164.630215 31.000001 M 162.880215 34.500001 C 163.661465 33.531251 164.197924 32.729168 164.630215 31.000001 M 164.630215 31.000001 C 163.979174 30.41146 163.979174 28.729168 162.880215 27.500001 M 164.630215 31.000001 C 164.541674 30.041668 164.088549 29.088543 162.880215 27.500001 M 162.880215 27.500001 C 164.911465 28.151043 165.781257 30.921876 169.880215 31.000001 M 162.880215 27.500001 C 165.55209 29.171876 167.432299 29.947918 169.880215 31.000001 "
     transform="matrix(0.75, 0, 0, 0.75, 0.375, 0.375)"
     id="path30" />
  <path
     fill="none"
     stroke-width="1"
     stroke-linecap="round"
     stroke-linejoin="round"
     stroke="rgb(90.19928%, 0%, 47.839355%)"
     stroke-opacity="1"
     stroke-miterlimit="10"
     d="M 105.552088 52.640627 C 118.041672 77.911462 129.541672 96.270837 175.130216 172.812507 M 105.552088 52.640627 C 133.979172 97.187504 160.20834 145.760423 175.130216 172.812507 "
     transform="matrix(0.75, 0, 0, 0.75, 0.375, 0.375)"
     id="path32" />
  <path
     fill="none"
     stroke-width="0.5"
     stroke-linecap="round"
     stroke-linejoin="round"
     stroke="rgb(90.19928%, 0%, 47.839355%)"
     stroke-opacity="1"
     stroke-miterlimit="10"
     d="M 171.401049 172.848966 L 171.401049 172.848966 M 171.401049 172.848966 L 171.401049 172.848966 M 174.421882 175.468757 C 176.489591 174.921882 176.171882 172.312507 178.359382 170.947924 M 174.421882 175.468757 C 175.869799 173.729174 176.437507 173.197924 178.359382 170.947924 "
     transform="matrix(0.75, 0, 0, 0.75, 0.375, 0.375)"
     id="path34" />
  <path
     fill="none"
     stroke-width="1"
     stroke-linecap="round"
     stroke-linejoin="round"
     stroke="rgb(90.19928%, 0%, 47.839355%)"
     stroke-opacity="1"
     stroke-miterlimit="10"
     d="M 177.760424 177.348966 C 177.109382 175.562507 173.687507 175.031257 171.229174 173.052091 M 177.760424 177.348966 C 175.489591 175.260424 173.432299 174.140632 171.229174 173.052091 M 171.229174 173.052091 C 171.979174 173.000007 173.781257 172.729174 175.130216 172.812507 M 171.229174 173.052091 C 171.859382 172.932299 172.890632 173.000007 175.130216 172.812507 M 175.130216 172.812507 C 176.348966 171.197924 176.380216 170.02084 177.281257 169.541674 M 175.130216 172.812507 C 175.729174 171.45834 176.432299 170.598965 177.281257 169.541674 M 177.281257 169.541674 C 178.468757 173.750007 178.229174 174.291674 177.760424 177.348966 M 177.281257 169.541674 C 177.197924 172.432299 177.760424 174.578132 177.760424 177.348966 "
     transform="matrix(0.75, 0, 0, 0.75, 0.375, 0.375)"
     id="path36" />
  <path
     fill="none"
     stroke-width="1"
     stroke-linecap="round"
     stroke-linejoin="round"
     stroke="rgb(90.19928%, 0%, 47.839355%)"
     stroke-opacity="1"
     stroke-miterlimit="10"
     d="M 112.838546 46.270835 C 121.531255 55.520836 136.447922 67.291669 171.30209 91.671879 M 112.838546 46.270835 C 127.052089 57.989586 144.588548 69.921878 171.30209 91.671879 "
     transform="matrix(0.75, 0, 0, 0.75, 0.375, 0.375)"
     id="path38" />
  <path
     fill="none"
     stroke-width="0.5"
     stroke-linecap="round"
     stroke-linejoin="round"
     stroke="rgb(90.19928%, 0%, 47.839355%)"
     stroke-opacity="1"
     stroke-miterlimit="10"
     d="M 172.328132 87.520837 L 172.328132 87.520837 M 172.328132 87.520837 L 172.328132 87.520837 M 170.750007 95.432296 C 172.458341 93.958337 171.739591 92.989587 174.031257 91.661462 M 170.750007 95.432296 C 171.479174 94.921879 172.317716 93.458337 174.031257 91.661462 "
     transform="matrix(0.75, 0, 0, 0.75, 0.375, 0.375)"
     id="path40" />
  <path
     fill="none"
     stroke-width="1"
     stroke-linecap="round"
     stroke-linejoin="round"
     stroke="rgb(90.19928%, 0%, 47.839355%)"
     stroke-opacity="1"
     stroke-miterlimit="10"
     d="M 175.447924 94.890629 C 174.291674 94.890629 172.380216 93.260421 167.77084 93.359379 M 175.447924 94.890629 C 171.958341 93.760421 170.02084 94.161462 167.77084 93.359379 M 167.77084 93.359379 C 169.161465 92.958337 169.281257 93.062504 171.30209 91.671879 M 167.77084 93.359379 C 169.119799 92.619796 170.661465 92.031254 171.30209 91.671879 M 171.30209 91.671879 C 171.088549 91.04167 172.411466 89.26042 172.062507 87.828129 M 171.30209 91.671879 C 171.708341 90.437504 171.901049 90.140629 172.062507 87.828129 M 172.062507 87.828129 C 172.302091 89.54167 173.651049 91.031254 175.447924 94.890629 M 172.062507 87.828129 C 173.588549 90.270837 174.067716 90.661462 175.447924 94.890629 "
     transform="matrix(0.75, 0, 0, 0.75, 0.375, 0.375)"
     id="path42" />
  <path
     fill="none"
     stroke-width="1"
     stroke-linecap="round"
     stroke-linejoin="round"
     stroke="rgb(90.19928%, 0%, 47.839355%)"
     stroke-opacity="1"
     stroke-miterlimit="10"
     d="M 79.859378 11.958334 C 83.630212 8.890625 90.79167 6.078125 95.921879 6.671875 C 101.062504 7.270834 106.671879 11.781251 110.682296 15.531251 C 114.687505 19.291667 119.447922 24.270834 119.968755 29.197918 C 120.479172 34.13021 117.067713 40.578127 113.770838 45.13021 C 110.479171 49.671877 105.328129 55.130211 100.187504 56.489586 C 95.052087 57.848961 88.187504 55.708336 82.932295 53.281252 C 77.682295 50.838544 70.848961 47.062502 68.651045 41.869793 C 66.458336 36.687502 63.291669 27.479168 69.781253 22.151043 C 76.26042 16.817709 99.869796 8.130209 107.57813 9.890625 C 115.281255 11.651042 116.500005 32.088543 116.000005 32.708335 M 99.718754 3.421875 C 104.010421 4.78125 106.729171 12.817709 109.932296 17.109376 C 113.130213 21.401043 118.401047 24.437501 118.937505 29.171876 C 119.468755 33.890626 116.369797 41.052085 113.151046 45.458335 C 109.92188 49.88021 104.630213 54.489586 99.562504 55.651044 C 94.489587 56.817711 87.69792 55.531252 82.708337 52.468752 C 77.718753 49.41146 72.01042 42.171877 69.630211 37.302085 C 67.260419 32.421876 66.348961 27.458334 68.458336 23.239584 C 70.562503 19.031251 77.109378 14.901042 82.270837 12.000001 C 87.421879 9.098959 97.229171 6.78125 99.390629 5.828125 C 101.562504 4.890625 95.562504 6.28125 95.260421 6.317709 "
     transform="matrix(0.75, 0, 0, 0.75, 0.375, 0.375)"
     id="path44" />
  <path
     fill="none"
     stroke-width="1"
     stroke-linecap="round"
     stroke-linejoin="round"
     stroke="rgb(90.19928%, 0%, 47.839355%)"
     stroke-opacity="1"
     stroke-miterlimit="10"
     d="M 118.041672 111.000005 C 130.208339 109.041671 141.062506 108.630213 164.630215 111.000005 M 118.041672 111.000005 C 129.197922 112.651046 136.500006 111.848963 164.630215 111.000005 "
     transform="matrix(0.75, 0, 0, 0.75, 0.375, 0.375)"
     id="path46" />
  <path
     fill="none"
     stroke-width="0.5"
     stroke-linecap="round"
     stroke-linejoin="round"
     stroke="rgb(90.19928%, 0%, 47.839355%)"
     stroke-opacity="1"
     stroke-miterlimit="10"
     d="M 163.062507 107.291671 L 163.062507 107.291671 M 163.062507 107.291671 L 163.062507 107.291671 M 164.77084 111.432296 C 165.218757 110.57813 165.567715 110.32813 166.729174 109.161463 M 164.77084 111.432296 C 165.30209 110.552088 165.932299 110.031255 166.729174 109.161463 "
     transform="matrix(0.75, 0, 0, 0.75, 0.375, 0.375)"
     id="path48" />
  <path
     fill="none"
     stroke-width="1"
     stroke-linecap="round"
     stroke-linejoin="round"
     stroke="rgb(90.19928%, 0%, 47.839355%)"
     stroke-opacity="1"
     stroke-miterlimit="10"
     d="M 169.880215 111.000005 C 168.781257 112.14063 165.687507 114.250005 162.880215 114.500005 M 169.880215 111.000005 C 168.98959 112.312505 167.062507 112.630213 162.880215 114.500005 M 162.880215 114.500005 C 162.687507 113.500005 163.619799 112.098963 164.630215 111.000005 M 162.880215 114.500005 C 163.380215 113.718755 164.182299 112.770838 164.630215 111.000005 M 164.630215 111.000005 C 163.859382 110.739588 163.619799 108.42188 162.880215 107.500005 M 164.630215 111.000005 C 163.937507 109.958338 163.932299 109.218755 162.880215 107.500005 M 162.880215 107.500005 C 165.750007 109.208338 164.531257 109.979171 169.880215 111.000005 M 162.880215 107.500005 C 164.30209 108.468755 165.619799 108.651046 169.880215 111.000005 "
     transform="matrix(0.75, 0, 0, 0.75, 0.375, 0.375)"
     id="path50" />
  <path
     fill="none"
     stroke-width="1"
     stroke-linecap="round"
     stroke-linejoin="round"
     stroke="rgb(90.19928%, 0%, 47.839355%)"
     stroke-opacity="1"
     stroke-miterlimit="10"
     d="M 110.947921 128.437505 C 121.541672 142.239589 131.687506 153.260423 165.359382 180.640633 M 110.947921 128.437505 C 126.197922 144.088548 142.140631 155.947923 165.359382 180.640633 "
     transform="matrix(0.75, 0, 0, 0.75, 0.375, 0.375)"
     id="path52" />
  <path
     fill="none"
     stroke-width="0.5"
     stroke-linecap="round"
     stroke-linejoin="round"
     stroke="rgb(90.19928%, 0%, 47.839355%)"
     stroke-opacity="1"
     stroke-miterlimit="10"
     d="M 161.838548 181.760424 L 161.838548 181.760424 M 161.838548 181.760424 L 161.838548 181.760424 M 165.510424 183.630216 C 166.401049 183.119799 166.55209 181.671883 169.447924 179.098966 M 165.510424 183.630216 C 167.197924 181.802091 167.70834 180.739591 169.447924 179.098966 "
     transform="matrix(0.75, 0, 0, 0.75, 0.375, 0.375)"
     id="path54" />
  <path
     fill="none"
     stroke-width="1"
     stroke-linecap="round"
     stroke-linejoin="round"
     stroke="rgb(90.19928%, 0%, 47.839355%)"
     stroke-opacity="1"
     stroke-miterlimit="10"
     d="M 169.140632 184.281258 C 167.697924 184.640633 166.30209 183.098966 161.671882 181.947924 M 169.140632 184.281258 C 167.23959 184.369799 165.697924 182.437508 161.671882 181.947924 M 161.671882 181.947924 C 163.432298 181.348966 164.02084 181.031258 165.359382 180.640633 M 161.671882 181.947924 C 163.390632 181.567716 164.510424 180.911466 165.359382 180.640633 M 165.359382 180.640633 C 166.187507 179.171882 165.567715 178.760424 166.52084 176.901049 M 165.359382 180.640633 C 165.901049 179.031257 166.031257 178.208341 166.52084 176.901049 M 166.52084 176.901049 C 166.697924 178.588549 168.687507 182.911466 169.140632 184.281258 M 166.52084 176.901049 C 166.838549 180.031258 168.500007 182.468758 169.140632 184.281258 "
     transform="matrix(0.75, 0, 0, 0.75, 0.375, 0.375)"
     id="path56" />
  <path
     fill="none"
     stroke-width="1"
     stroke-linecap="round"
     stroke-linejoin="round"
     stroke="rgb(90.19928%, 0%, 47.839355%)"
     stroke-opacity="1"
     stroke-miterlimit="10"
     d="M 111.552088 94.197921 C 121.208338 85.54167 136.708339 75.718753 164.541674 45.890627 M 111.552088 94.197921 C 128.07813 76.921878 146.588548 60.359378 164.541674 45.890627 "
     transform="matrix(0.75, 0, 0, 0.75, 0.375, 0.375)"
     id="path58" />
  <path
     fill="none"
     stroke-width="0.5"
     stroke-linecap="round"
     stroke-linejoin="round"
     stroke="rgb(90.19928%, 0%, 47.839355%)"
     stroke-opacity="1"
     stroke-miterlimit="10"
     d="M 160.901048 44.468752 L 160.901048 44.468752 M 160.901048 44.468752 L 160.901048 44.468752 M 164.578132 46.338544 C 165.151049 44.770835 166.817715 44.770835 167.859382 42.562502 M 164.578132 46.338544 C 165.500007 45.760419 166.291674 43.859377 167.859382 42.562502 "
     transform="matrix(0.75, 0, 0, 0.75, 0.375, 0.375)"
     id="path60" />
  <path
     fill="none"
     stroke-width="1"
     stroke-linecap="round"
     stroke-linejoin="round"
     stroke="rgb(90.19928%, 0%, 47.839355%)"
     stroke-opacity="1"
     stroke-miterlimit="10"
     d="M 168.421882 42.34896 C 167.828132 42.828127 166.20834 44.750002 165.609382 49.66146 M 168.421882 42.34896 C 167.078132 45.302085 167.437507 46.869794 165.609382 49.66146 M 165.609382 49.66146 C 164.968757 48.229169 165.48959 47.869794 164.541674 45.890627 M 165.609382 49.66146 C 164.880215 48.369794 165.010424 46.84896 164.541674 45.890627 M 164.541674 45.890627 C 163.218757 46.119794 163.281257 45.81771 160.890632 44.479169 M 164.541674 45.890627 C 163.27084 45.229169 162.817715 44.979169 160.890632 44.479169 M 160.890632 44.479169 C 164.401049 44.791669 166.250007 41.781252 168.421882 42.34896 M 160.890632 44.479169 C 163.718757 44.229169 166.119799 43.562502 168.421882 42.34896 "
     transform="matrix(0.75, 0, 0, 0.75, 0.375, 0.375)"
     id="path62" />
  <path
     fill="none"
     stroke-width="1"
     stroke-linecap="round"
     stroke-linejoin="round"
     stroke="rgb(90.19928%, 0%, 47.839355%)"
     stroke-opacity="1"
     stroke-miterlimit="10"
     d="M 86.312504 87.468754 C 91.338545 86.302087 99.510421 87.54167 104.312504 89.989587 C 109.10938 92.447921 112.802088 97.302087 115.098963 102.182296 C 117.411463 107.067713 119.708338 114.208338 118.119797 119.312505 C 116.531255 124.411464 110.531255 129.82813 105.567713 132.781256 C 100.609379 135.739589 93.687504 138.218756 88.369795 137.052089 C 83.052087 135.890631 77.22917 130.000005 73.630211 125.770839 C 70.04167 121.541672 67.052086 116.968755 66.802086 111.697921 C 66.562503 106.432296 63.921878 96.229171 72.187503 94.161462 C 80.458337 92.088546 109.817713 93.291671 116.42188 99.270837 C 123.010422 105.250004 112.432296 130.010422 111.760421 130.041672 M 88.802087 88.088545 C 93.432296 85.937504 97.098962 83.880212 101.869796 85.44792 C 106.651046 87.031254 115.317713 92.661462 117.447922 97.562504 C 119.567713 102.458338 116.39063 109.437505 114.60938 114.848963 C 112.838546 120.270838 110.92188 126.098964 106.802088 130.067714 C 102.671879 134.031256 95.197921 138.729172 89.869795 138.661464 C 84.54167 138.588547 78.47917 133.880214 74.812503 129.64063 C 71.130211 125.401047 68.317711 118.989588 67.812503 113.197921 C 67.302086 107.411463 68.661461 99.270837 71.72917 94.901046 C 74.802086 90.531254 84.078129 88.552087 86.239587 86.958337 C 88.411462 85.369795 84.578129 85.140629 84.718754 85.380212 "
     transform="matrix(0.75, 0, 0, 0.75, 0.375, 0.375)"
     id="path64" />
  <path
     fill="none"
     stroke-width="1"
     stroke-linecap="round"
     stroke-linejoin="round"
     stroke="rgb(90.19928%, 0%, 47.839355%)"
     stroke-opacity="1"
     stroke-miterlimit="10"
     d="M 118.041672 196.000008 C 129.067714 192.989591 138.500006 194.1823 164.630215 196.000008 M 118.041672 196.000008 C 130.869797 194.968758 146.869798 195.921883 164.630215 196.000008 "
     transform="matrix(0.75, 0, 0, 0.75, 0.375, 0.375)"
     id="path66" />
  <path
     fill="none"
     stroke-width="0.5"
     stroke-linecap="round"
     stroke-linejoin="round"
     stroke="rgb(90.19928%, 0%, 47.839355%)"
     stroke-opacity="1"
     stroke-miterlimit="10"
     d="M 163.161465 192.1823 L 163.161465 192.1823 M 163.161465 192.1823 L 163.161465 192.1823 M 164.859382 196.312508 C 165.098965 195.359383 166.750007 194.40105 166.828132 194.052091 M 164.859382 196.312508 C 165.437507 195.979175 165.760424 195.421883 166.828132 194.052091 "
     transform="matrix(0.75, 0, 0, 0.75, 0.375, 0.375)"
     id="path68" />
  <path
     fill="none"
     stroke-width="1"
     stroke-linecap="round"
     stroke-linejoin="round"
     stroke="rgb(90.19928%, 0%, 47.839355%)"
     stroke-opacity="1"
     stroke-miterlimit="10"
     d="M 169.880215 196.000008 C 166.52084 197.812508 166.171882 198.510425 162.880215 199.500008 M 169.880215 196.000008 C 167.119799 196.58855 164.119799 198.687508 162.880215 199.500008 M 162.880215 199.500008 C 163.348965 198.578133 163.468757 198.567717 164.630215 196.000008 M 162.880215 199.500008 C 163.479173 198.609383 163.77084 197.40105 164.630215 196.000008 M 164.630215 196.000008 C 163.187507 195.098966 164.041674 193.6198 162.880215 192.500008 M 164.630215 196.000008 C 163.750007 195.328133 163.859382 194.458341 162.880215 192.500008 M 162.880215 192.500008 C 165.182299 195.140633 168.291674 195.208341 169.880215 196.000008 M 162.880215 192.500008 C 165.401049 193.750008 167.130215 193.65105 169.880215 196.000008 "
     transform="matrix(0.75, 0, 0, 0.75, 0.375, 0.375)"
     id="path70" />
  <path
     fill="none"
     stroke-width="1"
     stroke-linecap="round"
     stroke-linejoin="round"
     stroke="rgb(90.19928%, 0%, 47.839355%)"
     stroke-opacity="1"
     stroke-miterlimit="10"
     d="M 104.770838 173.921882 C 117.562505 153.010423 128.151047 121.802088 167.979174 56.609377 M 104.770838 173.921882 C 127.57813 130.182297 148.078131 87.302087 167.979174 56.609377 "
     transform="matrix(0.75, 0, 0, 0.75, 0.375, 0.375)"
     id="path72" />
  <path
     fill="none"
     stroke-width="0.5"
     stroke-linecap="round"
     stroke-linejoin="round"
     stroke="rgb(90.19928%, 0%, 47.839355%)"
     stroke-opacity="1"
     stroke-miterlimit="10"
     d="M 164.067715 56.489586 L 164.067715 56.489586 M 164.067715 56.489586 L 164.067715 56.489586 M 168.401049 57.609377 C 168.838549 56.901044 171.609382 54.010419 172.328132 53.078127 M 168.401049 57.609377 C 169.77084 55.958336 171.630216 53.911461 172.328132 53.078127 "
     transform="matrix(0.75, 0, 0, 0.75, 0.375, 0.375)"
     id="path74" />
  <path
     fill="none"
     stroke-width="1"
     stroke-linecap="round"
     stroke-linejoin="round"
     stroke="rgb(90.19928%, 0%, 47.839355%)"
     stroke-opacity="1"
     stroke-miterlimit="10"
     d="M 170.468757 51.979169 C 168.968757 55.932294 169.421882 55.890627 170.229174 59.812503 M 170.468757 51.979169 C 169.687507 53.187502 170.109382 54.828127 170.229174 59.812503 M 170.229174 59.812503 C 168.95834 58.489586 168.098965 57.239586 167.979174 56.609377 M 170.229174 59.812503 C 169.468757 59.098961 169.70834 58.828127 167.979174 56.609377 M 167.979174 56.609377 C 166.947924 56.151044 166.229174 56.630211 164.067715 56.489586 M 167.979174 56.609377 C 166.510424 56.682294 164.901049 56.270836 164.067715 56.489586 M 164.067715 56.489586 C 166.609382 55.260419 166.468757 54.958336 170.468757 51.979169 M 164.067715 56.489586 C 165.510424 55.812502 166.067715 54.098961 170.468757 51.979169 "
     transform="matrix(0.75, 0, 0, 0.75, 0.375, 0.375)"
     id="path76" />
  <path
     fill="none"
     stroke-width="1"
     stroke-linecap="round"
     stroke-linejoin="round"
     stroke="rgb(90.19928%, 0%, 47.839355%)"
     stroke-opacity="1"
     stroke-miterlimit="10"
     d="M 97.682296 173.489591 C 102.578129 174.182299 108.85938 177.229174 112.260421 181.437508 C 115.661463 185.640633 117.968755 193.661466 118.098963 198.729175 C 118.218755 203.812509 116.901047 208.010425 113.000005 211.890634 C 109.098963 215.760426 100.041671 221.218759 94.697921 222.000009 C 89.348962 222.791676 85.432295 219.661468 80.937503 216.598967 C 76.44792 213.531259 69.328128 208.562509 67.750003 203.609384 C 66.171878 198.661467 68.739586 192.239591 71.44792 186.901049 C 74.161461 181.562508 78.812503 173.750007 84.020837 171.578132 C 89.239587 169.411465 99.317712 173.380216 102.739588 173.890632 C 106.161463 174.401049 104.890629 174.369799 104.562504 174.640632 M 113.447921 177.937507 C 117.031255 181.197924 115.880213 188.437508 115.958338 193.697925 C 116.031255 198.958342 116.812505 204.947925 113.880213 209.510425 C 110.947921 214.062509 103.750004 219.760426 98.390629 221.010426 C 93.020837 222.260426 86.348962 219.187509 81.687503 216.989592 C 77.020837 214.791676 72.609378 212.067717 70.411461 207.791675 C 68.218753 203.510425 66.708336 196.489592 68.51042 191.302091 C 70.312503 186.109383 76.390628 180.052091 81.218753 176.640632 C 86.04167 173.229174 92.552087 170.567715 97.479171 170.859382 C 102.401046 171.151049 108.619796 176.661466 110.750005 178.390632 C 112.869796 180.119799 110.302088 181.317716 110.229171 181.229174 "
     transform="matrix(0.75, 0, 0, 0.75, 0.375, 0.375)"
     id="path78" />
  <path
     fill="none"
     stroke-width="1"
     stroke-linecap="round"
     stroke-linejoin="round"
     stroke="rgb(90.19928%, 0%, 47.839355%)"
     stroke-opacity="1"
     stroke-miterlimit="10"
     d="M 110.718755 258.317719 C 126.432297 231.348968 140.619798 207.520842 175.380216 134.317714 M 110.718755 258.317719 C 131.411464 220.968759 151.109381 183.489591 175.380216 134.317714 "
     transform="matrix(0.75, 0, 0, 0.75, 0.375, 0.375)"
     id="path80" />
  <path
     fill="none"
     stroke-width="0.5"
     stroke-linecap="round"
     stroke-linejoin="round"
     stroke="rgb(90.19928%, 0%, 47.839355%)"
     stroke-opacity="1"
     stroke-miterlimit="10"
     d="M 171.359382 134.390631 L 171.359382 134.390631 M 171.359382 134.390631 L 171.359382 134.390631 M 176.348966 134.750006 C 177.880216 132.760422 178.630216 133.510422 179.630216 130.968755 M 176.348966 134.750006 C 177.531257 133.380214 178.817716 132.651047 179.630216 130.968755 "
     transform="matrix(0.75, 0, 0, 0.75, 0.375, 0.375)"
     id="path82" />
  <path
     fill="none"
     stroke-width="1"
     stroke-linecap="round"
     stroke-linejoin="round"
     stroke="rgb(90.19928%, 0%, 47.839355%)"
     stroke-opacity="1"
     stroke-miterlimit="10"
     d="M 177.812507 129.67188 C 178.489591 131.661464 178.947924 133.348964 177.671882 137.489589 M 177.812507 129.67188 C 177.510424 131.739589 177.979174 133.838547 177.671882 137.489589 M 177.671882 137.489589 C 177.031257 136.552089 176.828132 135.541672 175.380216 134.317714 M 177.671882 137.489589 C 177.171882 136.411464 176.520841 135.697922 175.380216 134.317714 M 175.380216 134.317714 C 174.312507 133.750006 174.421882 134.067714 171.468757 134.260422 M 175.380216 134.317714 C 173.812507 134.197922 172.270841 134.531256 171.468757 134.260422 M 171.468757 134.260422 C 173.140632 133.359381 174.468757 131.000005 177.812507 129.67188 M 171.468757 134.260422 C 174.119799 133.151047 175.479174 131.369797 177.812507 129.67188 "
     transform="matrix(0.75, 0, 0, 0.75, 0.375, 0.375)"
     id="path84" />
  <path
     fill="none"
     stroke-width="1"
     stroke-linecap="round"
     stroke-linejoin="round"
     stroke="rgb(90.19928%, 0%, 47.839355%)"
     stroke-opacity="1"
     stroke-miterlimit="10"
     d="M 110.718755 258.317719 C 123.619797 211.421884 135.890631 170.817715 176.369799 54.739586 M 110.718755 258.317719 C 139.302089 181.729174 163.281257 103.968754 176.369799 54.739586 "
     transform="matrix(0.75, 0, 0, 0.75, 0.375, 0.375)"
     id="path86" />
  <path
     fill="none"
     stroke-width="0.5"
     stroke-linecap="round"
     stroke-linejoin="round"
     stroke="rgb(90.19928%, 0%, 47.839355%)"
     stroke-opacity="1"
     stroke-miterlimit="10"
     d="M 172.229174 55.640627 L 172.229174 55.640627 M 172.229174 55.640627 L 172.229174 55.640627 M 177.218757 56.000002 C 178.739591 55.000002 179.020841 52.958336 180.500008 52.229169 M 177.218757 56.000002 C 177.921882 54.578127 179.567716 53.828127 180.500008 52.229169 "
     transform="matrix(0.75, 0, 0, 0.75, 0.375, 0.375)"
     id="path88" />
  <path
     fill="none"
     stroke-width="1"
     stroke-linecap="round"
     stroke-linejoin="round"
     stroke="rgb(90.19928%, 0%, 47.839355%)"
     stroke-opacity="1"
     stroke-miterlimit="10"
     d="M 177.979174 49.739585 C 178.671882 53.828127 178.052091 54.802086 179.161466 57.479169 M 177.979174 49.739585 C 179.000007 52.208336 179.151049 55.302086 179.161466 57.479169 M 179.161466 57.479169 C 177.468757 56.270836 176.958341 55.682294 176.369799 54.739586 M 179.161466 57.479169 C 178.052091 56.640627 177.437507 56.130211 176.369799 54.739586 M 176.369799 54.739586 C 175.682299 55.062502 174.250007 54.682294 172.500007 55.328127 M 176.369799 54.739586 C 175.552091 54.619794 174.437507 54.697919 172.500007 55.328127 M 172.500007 55.328127 C 175.687507 52.510419 175.000007 51.489585 177.979174 49.739585 M 172.500007 55.328127 C 174.088549 54.020836 175.750007 52.380211 177.979174 49.739585 "
     transform="matrix(0.75, 0, 0, 0.75, 0.375, 0.375)"
     id="path90" />
  <path
     fill="none"
     stroke-width="0.5"
     stroke-linecap="round"
     stroke-linejoin="round"
     stroke="rgb(90.19928%, 0%, 47.839355%)"
     stroke-opacity="1"
     stroke-miterlimit="10"
     d="M 76.750003 254.869802 L 76.750003 254.869802 M 76.750003 254.869802 L 76.750003 254.869802 M 67.302086 271.828136 C 73.598961 268.182303 73.19792 267.187511 82.390628 254.468761 M 67.302086 271.828136 C 71.130211 268.578136 75.218753 260.562511 82.390628 254.468761 M 69.01042 275.968762 C 76.239587 269.937511 78.328128 260.921886 88.687504 253.317719 M 69.01042 275.968762 C 76.562503 267.781261 79.328128 261.312511 88.687504 253.317719 M 70.718753 280.09897 C 79.052087 273.010428 80.640628 262.171886 94.328129 252.932302 M 70.718753 280.09897 C 80.651045 268.770845 86.437504 258.619802 94.328129 252.932302 M 71.770836 284.989595 C 83.54167 274.401053 89.838545 263.270844 98.661462 254.041677 M 71.770836 284.989595 C 80.26042 275.088553 88.880212 267.671886 98.661462 254.041677 M 74.130211 288.369804 C 85.088545 274.890636 97.020837 264.552094 103.651046 254.401052 M 74.130211 288.369804 C 83.770837 277.890637 96.661462 264.197928 103.651046 254.401052 M 76.489587 291.750012 C 89.468754 280.020845 95.802087 268.06772 107.979171 255.520844 M 76.489587 291.750012 C 85.552087 283.171887 93.979171 273.901053 107.979171 255.520844 M 78.848962 295.119804 C 90.718754 284.458345 101.828129 268.932303 110.338546 258.901052 M 78.848962 295.119804 C 86.932295 283.421887 99.682296 271.56772 110.338546 258.901052 M 81.218753 298.500012 C 95.812504 281.432303 102.401046 268.651053 112.052088 263.031261 M 81.218753 298.500012 C 86.588545 289.578137 93.609379 282.739595 112.052088 263.031261 M 83.578129 301.880221 C 87.588545 297.447929 95.947921 281.312512 114.411463 266.411469 M 83.578129 301.880221 C 93.052087 290.760429 105.781254 276.437512 114.411463 266.411469 M 89.218754 301.489596 C 95.708337 290.31772 107.760421 275.671887 116.119797 270.541678 M 89.218754 301.489596 C 98.651046 290.520845 107.85938 279.16147 116.119797 270.541678 M 94.869796 301.088554 C 101.437504 294.041679 113.14063 283.968762 119.14063 273.171886 M 94.869796 301.088554 C 102.151046 291.16147 109.041671 283.31772 119.14063 273.171886 M 100.510421 300.697929 C 106.171879 296.932304 110.067713 285.81772 118.880213 279.56772 M 100.510421 300.697929 C 107.979171 291.218762 114.651046 284.38022 118.880213 279.56772 M 112.708338 292.760429 C 115.10938 289.729179 114.489588 288.84897 119.270838 285.208345 M 112.708338 292.760429 C 114.661463 290.010429 118.39063 288.302095 119.270838 285.208345 "
     transform="matrix(0.75, 0, 0, 0.75, 0.375, 0.375)"
     id="path92" />
  <g
     clip-path="url(#clip-0)"
     id="g96">
    <path
       fill="none"
       stroke-width="1"
       stroke-linecap="round"
       stroke-linejoin="round"
       stroke="#e6007a"
       stroke-opacity="1"
       stroke-miterlimit="10"
       d="m 107.88021,255.26043 c 3.78125,3.04166 6.98959,9.71875 8.38021,15.5 1.39063,5.78125 2.59896,14.30729 -0.0521,19.1875 -2.64583,4.89062 -10.36979,8.22396 -15.84896,10.11979 -5.489584,1.90104 -12.369793,3.46354 -17.046877,1.29167 -4.692708,-2.16146 -8.291667,-9.23959 -11.083333,-14.28125 -2.791667,-5.04688 -6.380209,-10.64584 -5.661459,-15.98959 0.723958,-5.32812 5.421875,-12.89062 9.994792,-16.01041 4.567709,-3.10938 11.489584,-4.08855 17.447918,-2.67709 5.947917,1.41146 14.557289,8.29688 18.260419,11.14063 3.70833,2.84896 4.33854,5.75 3.94792,5.92708 M 92.682296,253.69793 c 5.036458,-0.75 8.166664,-0.0573 12.255204,2.5 4.10417,2.57291 10.17188,8.21354 12.34376,12.90104 2.15625,4.70312 2.79687,10.53125 0.65104,15.28125 -2.14063,4.73958 -8.61459,10.30208 -13.52084,13.17188 -4.911456,2.8802 -10.510414,5.52604 -15.942706,4.0677 -5.416667,-1.44791 -12.848959,-7.70833 -16.619793,-12.78125 -3.760416,-5.07812 -6.119792,-12.76041 -5.96875,-17.65104 0.151042,-4.89583 2.869792,-8.15625 6.859375,-11.72917 3.989584,-3.57812 14.010418,-8.35937 17.098959,-9.71875 3.083334,-1.35937 0.921875,0.72917 1.390625,1.57292"
       transform="matrix(0.75,0,0,0.75,0.375,0.375)"
       id="path94" />
  </g>
  <path
     fill="none"
     stroke-width="1"
     stroke-linecap="round"
     stroke-linejoin="round"
     stroke="rgb(90.19928%, 0%, 47.839355%)"
     stroke-opacity="1"
     stroke-miterlimit="10"
     d="M 216.588551 45.182294 C 233.947926 50.989585 247.682302 64.359378 281.401053 89.718754 M 216.588551 45.182294 C 231.848968 53.541669 246.552094 66.609378 281.401053 89.718754 "
     transform="matrix(0.75, 0, 0, 0.75, 0.375, 0.375)"
     id="path98" />
  <path
     fill="none"
     stroke-width="0.5"
     stroke-linecap="round"
     stroke-linejoin="round"
     stroke="rgb(90.19928%, 0%, 47.839355%)"
     stroke-opacity="1"
     stroke-miterlimit="10"
     d="M 281.81772 85.97917 L 281.81772 85.97917 M 281.81772 85.97917 L 281.81772 85.97917 M 280.250012 93.890629 C 281.838553 91.348962 283.302095 92.052087 284.182304 89.359379 M 280.250012 93.890629 C 281.34897 92.411462 282.651053 90.750004 284.182304 89.359379 "
     transform="matrix(0.75, 0, 0, 0.75, 0.375, 0.375)"
     id="path100" />
  <path
     fill="none"
     stroke-width="1"
     stroke-linecap="round"
     stroke-linejoin="round"
     stroke="rgb(90.19928%, 0%, 47.839355%)"
     stroke-opacity="1"
     stroke-miterlimit="10"
     d="M 285.729179 92.687504 C 282.052095 91.921879 279.697928 91.421879 277.979178 91.609379 M 285.729179 92.687504 C 283.010428 93.229171 281.739595 92.088546 277.979178 91.609379 M 277.979178 91.609379 C 278.937512 90.812504 278.770845 91.47917 281.401053 89.718754 M 277.979178 91.609379 C 279.031262 90.869795 280.239595 90.562504 281.401053 89.718754 M 281.401053 89.718754 C 281.59897 88.140629 280.890637 88.520837 281.937512 85.838545 M 281.401053 89.718754 C 281.697928 88.067712 281.619803 87.062504 281.937512 85.838545 M 281.937512 85.838545 C 283.697929 88.239587 282.750012 91.01042 285.729179 92.687504 M 281.937512 85.838545 C 282.84897 88.171879 284.750012 90.161462 285.729179 92.687504 "
     transform="matrix(0.75, 0, 0, 0.75, 0.375, 0.375)"
     id="path102" />
  <path
     fill="none"
     stroke-width="0.5"
     stroke-linecap="round"
     stroke-linejoin="round"
     stroke="rgb(90.19928%, 0%, 47.839355%)"
     stroke-opacity="1"
     stroke-miterlimit="10"
     d="M 182.062508 8.541667 L 182.062508 8.541667 M 182.062508 8.541667 L 182.062508 8.541667 M 173.270841 24.750001 C 180.578133 15.958334 181.291674 13.140626 187.052091 8.901042 M 173.270841 24.750001 C 174.421882 22.619793 180.760424 16.432292 187.052091 8.901042 M 173.671882 30.390626 C 180.578133 22.359376 178.718757 19.041667 192.687508 8.5 M 173.671882 30.390626 C 181.812508 24.140626 185.817716 14.578126 192.687508 8.5 M 174.718757 35.281251 C 178.088549 27.229168 189.171883 18.500001 198.33855 8.109375 M 174.718757 35.281251 C 183.729174 26.500001 192.348966 13.317709 198.33855 8.109375 M 173.802091 42.432293 C 182.552091 31.84896 191.890633 27.59896 202.010425 9.979167 M 173.802091 42.432293 C 183.640633 31.890626 190.859383 24.041668 202.010425 9.979167 M 176.817716 45.062502 C 184.531258 36.151043 192.9323 22.552084 205.687509 11.848959 M 176.817716 45.062502 C 183.437508 34.921876 192.65105 23.369793 205.687509 11.848959 M 179.838549 47.682294 C 182.567716 38.828127 193.817716 31.520835 210.020842 12.958334 M 179.838549 47.682294 C 188.4323 37.619793 198.067717 26.510418 210.020842 12.958334 M 182.859383 50.302085 C 192.218758 43.791669 198.010425 37.66146 214.348967 14.078126 M 182.859383 50.302085 C 192.40105 37.187502 205.411467 25.671876 214.348967 14.078126 M 185.880216 52.932294 C 199.062508 40.578127 203.161467 34.66146 216.062509 18.208334 M 185.880216 52.932294 C 193.239591 43.34896 201.661467 34.651043 216.062509 18.208334 M 188.90105 55.552086 C 194.812508 40.447918 204.578134 30.59896 217.760426 22.348959 M 188.90105 55.552086 C 198.3698 45.91146 202.8698 37.479168 217.760426 22.348959 M 193.229175 56.671877 C 207.328134 46.119794 213.260426 36.869793 219.468759 26.479168 M 193.229175 56.671877 C 198.520842 51.458335 204.58855 44.56771 219.468759 26.479168 M 198.208342 57.031252 C 206.90105 51.078127 209.317717 45.760419 222.489593 29.09896 M 198.208342 57.031252 C 204.661467 48.552085 210.531259 43.151043 222.489593 29.09896 M 203.859384 56.630211 C 212.932301 50.281252 217.250009 46.06771 220.911468 37.010418 M 203.859384 56.630211 C 211.317717 50.609377 217.182301 45.151044 220.911468 37.010418 "
     transform="matrix(0.75, 0, 0, 0.75, 0.375, 0.375)"
     id="path104" />
  <path
     fill="none"
     stroke-width="1"
     stroke-linecap="round"
     stroke-linejoin="round"
     stroke="rgb(90.19928%, 0%, 47.839355%)"
     stroke-opacity="1"
     stroke-miterlimit="10"
     d="M 213.531259 13.869792 C 217.229176 16.968751 218.880217 21.479168 219.270842 26.880209 C 219.661468 32.270835 218.562509 41.421877 215.880217 46.250002 C 213.197926 51.088544 208.067717 54.640627 203.171883 55.890627 C 198.270842 57.151044 191.40105 56.067711 186.468758 53.791669 C 181.552091 51.500002 176.171882 47.260419 173.619799 42.187502 C 171.067715 37.109377 169.817715 28.890626 171.187507 23.328126 C 172.552091 17.770834 177.041674 11.390625 181.812508 8.828125 C 186.588549 6.260417 193.390633 5.161459 199.83855 7.958334 C 206.291675 10.760417 217.520842 20.250001 220.489593 25.630209 C 223.458343 31.010418 217.812509 39.802085 217.661467 40.229168 M 218.218759 16.312501 C 221.041676 20.567709 218.437509 29.520835 218.151051 34.291668 C 217.869801 39.052085 219.161467 40.869793 216.489592 44.91146 C 213.828134 48.937502 207.468759 56.890627 202.171883 58.489586 C 196.8698 60.098961 189.578133 58.041669 184.697924 54.520836 C 179.828133 50.989585 175.161466 42.520835 172.921882 37.34896 C 170.682299 32.187501 169.510424 28.291668 171.27084 23.541668 C 173.041674 18.791667 178.588549 11.687501 183.510424 8.848959 C 188.4323 6.010417 195.359383 5.578125 200.812508 6.510417 C 206.260425 7.447917 213.588551 12.750001 216.239592 14.479167 C 218.880217 16.197917 217.067717 16.437501 216.682301 16.880209 "
     transform="matrix(0.75, 0, 0, 0.75, 0.375, 0.375)"
     id="path106" />
  <path
     fill="none"
     stroke-width="1"
     stroke-linecap="round"
     stroke-linejoin="round"
     stroke="rgb(90.19928%, 0%, 47.839355%)"
     stroke-opacity="1"
     stroke-miterlimit="10"
     d="M 221.000009 111.000005 C 230.890635 113.052088 245.197927 109.802088 272.958345 111.000005 M 221.000009 111.000005 C 241.317718 110.848963 258.812511 110.447921 272.958345 111.000005 "
     transform="matrix(0.75, 0, 0, 0.75, 0.375, 0.375)"
     id="path108" />
  <path
     fill="none"
     stroke-width="0.5"
     stroke-linecap="round"
     stroke-linejoin="round"
     stroke="rgb(90.19928%, 0%, 47.839355%)"
     stroke-opacity="1"
     stroke-miterlimit="10"
     d="M 271.338553 107.348963 L 271.338553 107.348963 M 271.338553 107.348963 L 271.338553 107.348963 M 273.052095 111.479171 C 273.739595 110.197921 275.119803 109.588546 275.020845 109.218755 M 273.052095 111.479171 C 273.718761 110.750005 274.197928 109.901046 275.020845 109.218755 "
     transform="matrix(0.75, 0, 0, 0.75, 0.375, 0.375)"
     id="path110" />
  <path
     fill="none"
     stroke-width="1"
     stroke-linecap="round"
     stroke-linejoin="round"
     stroke="rgb(90.19928%, 0%, 47.839355%)"
     stroke-opacity="1"
     stroke-miterlimit="10"
     d="M 278.208345 111.000005 C 277.552095 113.187505 275.937512 113.067713 271.208345 114.500005 M 278.208345 111.000005 C 275.531262 111.562505 272.38022 113.411463 271.208345 114.500005 M 271.208345 114.500005 C 272.31772 113.041671 272.34897 112.92188 272.958345 111.000005 M 271.208345 114.500005 C 271.91147 113.468755 271.739595 112.817713 272.958345 111.000005 M 272.958345 111.000005 C 272.270845 110.401046 271.390636 108.57813 271.208345 107.500005 M 272.958345 111.000005 C 272.390636 110.010421 271.578136 108.291671 271.208345 107.500005 M 271.208345 107.500005 C 273.088553 109.041671 274.541678 108.567713 278.208345 111.000005 M 271.208345 107.500005 C 272.770845 108.60938 273.489595 108.401046 278.208345 111.000005 "
     transform="matrix(0.75, 0, 0, 0.75, 0.375, 0.375)"
     id="path112" />
  <path
     fill="none"
     stroke-width="1"
     stroke-linecap="round"
     stroke-linejoin="round"
     stroke="rgb(90.19928%, 0%, 47.839355%)"
     stroke-opacity="1"
     stroke-miterlimit="10"
     d="M 188.447925 88.182295 C 193.609383 86.72917 202.291675 85.411462 207.328134 87.489587 C 212.380217 89.567712 216.890634 95.958337 218.708342 100.661463 C 220.531259 105.348963 219.359384 110.239588 218.270842 115.661463 C 217.182301 121.088547 216.348967 129.718755 212.182301 133.208339 C 208.010425 136.687506 198.83855 137.312506 193.260425 136.578131 C 187.687508 135.859381 182.541674 132.958339 178.750007 128.869797 C 174.958341 124.781255 171.05209 117.60938 170.531257 112.041671 C 170.010424 106.479171 172.031257 99.817713 175.630216 95.500004 C 179.229174 91.182295 188.3698 87.302087 192.1198 86.119795 C 195.859383 84.937504 197.718758 88.29167 198.1198 88.432295 M 201.687508 84.338545 C 206.812509 85.47917 213.119801 90.437504 215.848967 95.062504 C 218.578134 99.682296 218.848967 105.880213 218.088551 112.062505 C 217.317717 118.239588 215.000009 128.411464 211.260425 132.119797 C 207.531259 135.828131 200.458342 134.479172 195.687508 134.302089 C 190.921883 134.130214 186.901049 134.187506 182.640633 131.07813 C 178.380216 127.979172 171.817716 120.39063 170.109382 115.661463 C 168.411465 110.932296 169.890632 107.140629 172.421882 102.697921 C 174.947924 98.250004 180.437508 91.838546 185.312508 88.989587 C 190.171883 86.130212 198.6198 85.859379 201.609383 85.562504 C 204.609384 85.26042 203.359383 86.411462 203.302092 87.182295 "
     transform="matrix(0.75, 0, 0, 0.75, 0.375, 0.375)"
     id="path114" />
  <path
     fill="none"
     stroke-width="1"
     stroke-linecap="round"
     stroke-linejoin="round"
     stroke="rgb(90.19928%, 0%, 47.839355%)"
     stroke-opacity="1"
     stroke-miterlimit="10"
     d="M 215.671884 180.567716 C 230.661468 167.588549 242.81251 162.510423 279.671887 130.39063 M 215.671884 180.567716 C 236.921885 166.27084 257.661469 150.682298 279.671887 130.39063 "
     transform="matrix(0.75, 0, 0, 0.75, 0.375, 0.375)"
     id="path116" />
  <path
     fill="none"
     stroke-width="0.5"
     stroke-linecap="round"
     stroke-linejoin="round"
     stroke="rgb(90.19928%, 0%, 47.839355%)"
     stroke-opacity="1"
     stroke-miterlimit="10"
     d="M 276.13022 128.729172 L 276.13022 128.729172 M 276.13022 128.729172 L 276.13022 128.729172 M 279.802095 130.598964 C 280.052095 129.380214 280.640637 129.500005 282.432303 127.57813 M 279.802095 130.598964 C 280.729178 129.541672 281.16147 129.182297 282.432303 127.57813 "
     transform="matrix(0.75, 0, 0, 0.75, 0.375, 0.375)"
     id="path118" />
  <path
     fill="none"
     stroke-width="1"
     stroke-linecap="round"
     stroke-linejoin="round"
     stroke="rgb(90.19928%, 0%, 47.839355%)"
     stroke-opacity="1"
     stroke-miterlimit="10"
     d="M 283.802095 127.151047 C 282.651053 129.510422 281.447928 133.447922 280.458345 134.229172 M 283.802095 127.151047 C 283.359387 128.510422 281.979178 130.661464 280.458345 134.229172 M 280.458345 134.229172 C 279.531262 132.359381 279.140637 131.682297 279.671887 130.39063 M 280.458345 134.229172 C 280.182303 132.671881 280.208345 131.411464 279.671887 130.39063 M 279.671887 130.39063 C 278.197928 130.437505 277.437512 129.218755 276.140637 128.718755 M 279.671887 130.39063 C 278.421887 129.791672 277.062512 129.411464 276.140637 128.718755 M 276.140637 128.718755 C 277.218762 129.489589 280.291678 128.729172 283.802095 127.151047 M 276.140637 128.718755 C 279.151053 128.479172 281.000012 127.57813 283.802095 127.151047 "
     transform="matrix(0.75, 0, 0, 0.75, 0.375, 0.375)"
     id="path120" />
  <path
     fill="none"
     stroke-width="1"
     stroke-linecap="round"
     stroke-linejoin="round"
     stroke="rgb(90.19928%, 0%, 47.839355%)"
     stroke-opacity="1"
     stroke-miterlimit="10"
     d="M 213.947926 178.739591 C 218.229176 181.697924 219.088551 186.802091 219.848968 191.661466 C 220.619801 196.520842 221.130218 203.317717 218.552092 207.90105 C 215.958342 212.479176 209.718759 217.312509 204.33855 219.151051 C 198.958342 221.000009 191.489591 220.598968 186.260424 218.989592 C 181.031258 217.369801 175.218757 213.729176 172.968757 209.468759 C 170.718757 205.218759 171.848966 198.968758 172.760424 193.447925 C 173.661466 187.921883 174.812507 180.119799 178.411466 176.328132 C 182.010424 172.541674 187.65105 168.23959 194.33855 170.70834 C 201.031258 173.187507 214.661467 185.151049 218.552092 191.187508 C 222.437509 197.229175 217.671884 207.109384 217.687509 206.958342 M 188.578133 171.989591 C 193.197925 169.588549 201.317717 169.911465 206.020842 171.770841 C 210.708342 173.630216 214.380217 178.750007 216.739592 183.161466 C 219.109384 187.562508 220.947926 192.708341 220.187509 198.197925 C 219.421884 203.687509 215.901051 212.041676 212.161467 216.098967 C 208.421884 220.171884 203.479175 222.500009 197.739592 222.598968 C 192.000008 222.697926 182.447924 220.552093 177.718757 216.708342 C 172.989591 212.880217 170.088549 204.9323 169.369799 199.598967 C 168.640632 194.270841 169.859382 189.6198 173.359382 184.729174 C 176.869799 179.838549 188.067716 172.562507 190.40105 170.260424 C 192.739591 167.95834 188.062508 169.95834 187.390633 170.921882 "
     transform="matrix(0.75, 0, 0, 0.75, 0.375, 0.375)"
     id="path122" />
  <g
     clip-path="url(#clip-1)"
     id="g126">
    <path
       fill="none"
       stroke-width="0.5"
       stroke-linecap="round"
       stroke-linejoin="round"
       stroke="#e6007a"
       stroke-opacity="1"
       stroke-miterlimit="10"
       d="m 291.25001,87.552087 v 0 m 0,0 v 0 m -8.13021,15.458333 c 8.34896,-8.182291 6.94792,-9.552083 14.4323,-16.609375 m -14.4323,16.609375 c 3.64063,-2.26042 6.68229,-6.489583 14.4323,-16.609375 m -15.35417,23.760415 c 8.34375,-4.85937 17.59375,-19.791665 21.65104,-24.911456 m -21.65104,24.911456 c 4.85416,-4.16146 8.16146,-9.94271 21.65104,-24.911456 m -23.21875,32.817706 c 11.72917,-7.46875 22.30208,-23.697914 28.20833,-32.458331 m -28.20833,32.458331 c 11.1875,-10.19791 20.30208,-24.187498 28.20833,-32.458331 m -25.84896,35.838541 c 3.82813,-6.09896 15.69271,-13.56771 29.52084,-33.96875 m -29.52084,33.96875 c 11.05209,-12.75 20.34896,-21.968749 29.52084,-33.96875 m -27.16146,37.34896 c 9.8125,-13.97917 14.64063,-22.90625 30.83854,-35.479168 m -30.83854,35.479168 c 8.46875,-10.70833 14.78125,-17.23958 30.83854,-35.479168 m -28.47917,38.848958 c 5.9323,-6.76041 20.38021,-16.75 32.15105,-36.979166 m -32.15105,36.979166 c 9.83334,-8.58854 18.97917,-18.73958 32.15105,-36.979166 m -29.78125,40.359376 c 11.66146,-11.48958 15.75,-17.01562 33.46354,-38.489584 m -33.46354,38.489584 c 13.76041,-13.86979 25.48958,-29.73958 33.46354,-38.489584 m -30.44271,41.119794 c 11.61979,-8.35938 12.09896,-16.11979 33.45313,-38.489586 m -33.45313,38.489586 c 10.90104,-13.67708 21.04167,-25.20833 33.45313,-38.489586 m -28.47396,38.848956 c 11.96354,-12.53645 23.3125,-24.65625 30.18229,-34.718747 m -30.18229,34.718747 c 11.19271,-9.25 19.98437,-23.5677 30.18229,-34.718747 M 302.41147,135.6823 c 9.97917,-11.5625 19.22917,-22.90104 27.55729,-31.70313 m -27.55729,31.70313 c 8.14063,-6.97396 17.28646,-19.16146 27.55729,-31.70313 m -22.56771,32.0625 c 3.03125,-9.35937 10.60938,-20.32291 23.6198,-27.17187 m -23.6198,27.17187 c 8.14063,-11.76041 18.22917,-22.18229 23.6198,-27.17187 m -18.63021,27.53125 c 4.54687,-8.02084 6.61979,-7.5625 19.67708,-22.64063 m -19.67708,22.64063 c 8.08854,-8.97917 13.88021,-16.10938 19.67708,-22.64063"
       transform="matrix(0.75,0,0,0.75,0.375,0.375)"
       id="path124" />
  </g>
  <path
     fill="none"
     stroke-width="1"
     stroke-linecap="round"
     stroke-linejoin="round"
     stroke="rgb(90.19928%, 0%, 47.839355%)"
     stroke-opacity="1"
     stroke-miterlimit="10"
     d="M 308.140638 84.54167 C 313.302096 84.94792 320.281263 88.828129 324.031264 93.421879 C 327.79168 98.010421 331.01043 106.401046 330.682305 112.088546 C 330.348972 117.781255 325.531264 123.901047 322.062513 127.562505 C 318.588555 131.218755 315.22918 133.348964 309.869805 134.041672 C 304.520846 134.739589 294.817721 134.411464 289.937512 131.750006 C 285.06772 129.07813 281.812512 122.989588 280.63022 118.052088 C 279.447928 113.119796 281.062512 107.239588 282.84897 102.140629 C 284.640637 97.031254 285.750012 89.609379 291.359387 87.421879 C 296.968762 85.239587 311.968763 88.317712 316.500013 89.031254 C 321.04168 89.739587 318.932305 91.520837 318.562513 91.671879 M 288.088554 91.661462 C 292.281262 88.682295 298.817721 85.51042 304.848971 85.661462 C 310.869805 85.802087 320.088555 88.671879 324.239597 92.510421 C 328.380222 96.348962 329.781264 103.520838 329.718764 108.697921 C 329.661472 113.89063 326.500014 119.317713 323.890639 123.619797 C 321.281263 127.911464 319.328138 132.661464 314.078138 134.458339 C 308.828138 136.270839 297.630221 136.781256 292.380221 134.432297 C 287.13022 132.088547 284.41147 124.937505 282.588553 120.401047 C 280.760428 115.85938 280.552095 112.510421 281.432303 107.187504 C 282.312512 101.859379 286.187512 91.562504 287.859387 88.458337 C 289.541679 85.348962 290.979179 88.062504 291.489595 88.567712 "
     transform="matrix(0.75, 0, 0, 0.75, 0.375, 0.375)"
     id="path128" />
</svg>
