<svg version="1.1" viewBox="0.0 0.0 718.1312335958005 701.4724409448819" fill="none" stroke="none" stroke-linecap="square" stroke-miterlimit="10" xmlns:xlink="http://www.w3.org/1999/xlink" xmlns="http://www.w3.org/2000/svg"><clipPath id="p.0"><path d="m0 0l718.1312 0l0 701.4724l-718.1312 0l0 -701.4724z" clip-rule="nonzero"/></clipPath><g clip-path="url(#p.0)"><path fill="#000000" fill-opacity="0.0" d="m0 0l718.1312 0l0 701.4724l-718.1312 0z" fill-rule="evenodd"/><path fill="#e6007a" d="m322.0735 153.76402l0 0c0 -6.810196 5.520752 -12.330948 12.330963 -12.330948l49.322327 0l0 0c3.2703857 0 6.4067993 1.2991486 8.719299 3.6116486c2.3125305 2.3125 3.6116638 5.448929 3.6116638 8.719299l0 49.322342c0 6.810196 -5.520752 12.330963 -12.330963 12.330963l-49.322327 0c-6.810211 0 -12.330963 -5.520767 -12.330963 -12.330963z" fill-rule="evenodd"/><path stroke="#595959" stroke-width="1.0" stroke-linejoin="round" stroke-linecap="butt" d="m322.0735 153.76402l0 0c0 -6.810196 5.520752 -12.330948 12.330963 -12.330948l49.322327 0l0 0c3.2703857 0 6.4067993 1.2991486 8.719299 3.6116486c2.3125305 2.3125 3.6116638 5.448929 3.6116638 8.719299l0 49.322342c0 6.810196 -5.520752 12.330963 -12.330963 12.330963l-49.322327 0c-6.810211 0 -12.330963 -5.520767 -12.330963 -12.330963z" fill-rule="evenodd"/><path fill="#dea7c4" d="m174.19423 268.63803l0 0c0 -6.8101807 5.520752 -12.330933 12.330948 -12.330933l49.322342 0l0 0c3.2703705 0 6.4067993 1.2991333 8.719299 3.6116333c2.3125153 2.3125 3.6116638 5.448944 3.6116638 8.719299l0 49.322357c0 6.8101807 -5.520767 12.330963 -12.330963 12.330963l-49.322342 0c-6.810196 0 -12.330948 -5.5207825 -12.330948 -12.330963z" fill-rule="evenodd"/><path stroke="#595959" stroke-width="1.0" stroke-linejoin="round" stroke-linecap="butt" d="m174.19423 268.63803l0 0c0 -6.8101807 5.520752 -12.330933 12.330948 -12.330933l49.322342 0l0 0c3.2703705 0 6.4067993 1.2991333 8.719299 3.6116333c2.3125153 2.3125 3.6116638 5.448944 3.6116638 8.719299l0 49.322357c0 6.8101807 -5.520767 12.330963 -12.330963 12.330963l-49.322342 0c-6.810196 0 -12.330948 -5.5207825 -12.330948 -12.330963z" fill-rule="evenodd"/><path fill="#dea7c4" d="m174.19423 38.89001l0 0c0 -6.8101997 5.520752 -12.3309555 12.330948 -12.3309555l49.322342 0l0 0c3.2703705 0 6.4067993 1.2991505 8.719299 3.6116524c2.3125153 2.3125038 3.6116638 5.448929 3.6116638 8.719303l0 49.32234c0 6.8102036 -5.520767 12.3309555 -12.330963 12.3309555l-49.322342 0c-6.810196 0 -12.330948 -5.520752 -12.330948 -12.3309555z" fill-rule="evenodd"/><path stroke="#595959" stroke-width="1.0" stroke-linejoin="round" stroke-linecap="butt" d="m174.19423 38.89001l0 0c0 -6.8101997 5.520752 -12.3309555 12.330948 -12.3309555l49.322342 0l0 0c3.2703705 0 6.4067993 1.2991505 8.719299 3.6116524c2.3125153 2.3125038 3.6116638 5.448929 3.6116638 8.719303l0 49.32234c0 6.8102036 -5.520767 12.3309555 -12.330963 12.3309555l-49.322342 0c-6.810196 0 -12.330948 -5.520752 -12.330948 -12.3309555z" fill-rule="evenodd"/><path fill="#dea7c4" d="m26.31496 153.76402l0 0c0 -6.810196 5.5207577 -12.330948 12.3309555 -12.330948l49.32234 0l0 0c3.270378 0 6.4067993 1.2991486 8.719307 3.6116486c2.3125 2.3125 3.6116486 5.448929 3.6116486 8.719299l0 49.322342c0 6.810196 -5.520752 12.330963 -12.3309555 12.330963l-49.32234 0c-6.810198 0 -12.3309555 -5.520767 -12.3309555 -12.330963z" fill-rule="evenodd"/><path stroke="#595959" stroke-width="1.0" stroke-linejoin="round" stroke-linecap="butt" d="m26.31496 153.76402l0 0c0 -6.810196 5.5207577 -12.330948 12.3309555 -12.330948l49.32234 0l0 0c3.270378 0 6.4067993 1.2991486 8.719307 3.6116486c2.3125 2.3125 3.6116486 5.448929 3.6116486 8.719299l0 49.322342c0 6.810196 -5.520752 12.330963 -12.3309555 12.330963l-49.32234 0c-6.810198 0 -12.3309555 -5.520767 -12.3309555 -12.330963z" fill-rule="evenodd"/><path fill="#dea7c4" d="m26.31496 38.89001l0 0c0 -6.8101997 5.5207577 -12.3309555 12.3309555 -12.3309555l49.32234 0l0 0c3.270378 0 6.4067993 1.2991505 8.719307 3.6116524c2.3125 2.3125038 3.6116486 5.448929 3.6116486 8.719303l0 49.32234c0 6.8102036 -5.520752 12.3309555 -12.3309555 12.3309555l-49.32234 0c-6.810198 0 -12.3309555 -5.520752 -12.3309555 -12.3309555z" fill-rule="evenodd"/><path stroke="#595959" stroke-width="1.0" stroke-linejoin="round" stroke-linecap="butt" d="m26.31496 38.89001l0 0c0 -6.8101997 5.5207577 -12.3309555 12.3309555 -12.3309555l49.32234 0l0 0c3.270378 0 6.4067993 1.2991505 8.719307 3.6116524c2.3125 2.3125038 3.6116486 5.448929 3.6116486 8.719303l0 49.32234c0 6.8102036 -5.520752 12.3309555 -12.3309555 12.3309555l-49.32234 0c-6.810198 0 -12.3309555 -5.520752 -12.3309555 -12.3309555z" fill-rule="evenodd"/><path fill="#dea7c4" d="m469.95276 268.63803l0 0c0 -6.8101807 5.520752 -12.330933 12.330963 -12.330933l49.322357 0l0 0c3.2703247 0 6.4067993 1.2991333 8.719299 3.6116333c2.3125 2.3125 3.6116333 5.448944 3.6116333 8.719299l0 49.322357c0 6.8101807 -5.520752 12.330963 -12.330933 12.330963l-49.322357 0c-6.810211 0 -12.330963 -5.5207825 -12.330963 -12.330963z" fill-rule="evenodd"/><path stroke="#595959" stroke-width="1.0" stroke-linejoin="round" stroke-linecap="butt" d="m469.95276 268.63803l0 0c0 -6.8101807 5.520752 -12.330933 12.330963 -12.330933l49.322357 0l0 0c3.2703247 0 6.4067993 1.2991333 8.719299 3.6116333c2.3125 2.3125 3.6116333 5.448944 3.6116333 8.719299l0 49.322357c0 6.8101807 -5.520752 12.330963 -12.330933 12.330963l-49.322357 0c-6.810211 0 -12.330963 -5.5207825 -12.330963 -12.330963z" fill-rule="evenodd"/><path fill="#000000" fill-opacity="0.0" d="m359.0656 674.9134l0 -459.49606" fill-rule="evenodd"/><path stroke="#ffffff" stroke-width="2.0" stroke-linejoin="round" stroke-linecap="butt" d="m359.0656 674.9134l0 -459.49606" fill-rule="evenodd"/><path fill="#dea7c4" d="m469.95276 153.76402l0 0c0 -6.810196 5.520752 -12.330948 12.330963 -12.330948l49.322357 0l0 0c3.2703247 0 6.4067993 1.2991486 8.719299 3.6116486c2.3125 2.3125 3.6116333 5.448929 3.6116333 8.719299l0 49.322342c0 6.810196 -5.520752 12.330963 -12.330933 12.330963l-49.322357 0c-6.810211 0 -12.330963 -5.520767 -12.330963 -12.330963z" fill-rule="evenodd"/><path stroke="#595959" stroke-width="1.0" stroke-linejoin="round" stroke-linecap="butt" d="m469.95276 153.76402l0 0c0 -6.810196 5.520752 -12.330948 12.330963 -12.330948l49.322357 0l0 0c3.2703247 0 6.4067993 1.2991486 8.719299 3.6116486c2.3125 2.3125 3.6116333 5.448929 3.6116333 8.719299l0 49.322342c0 6.810196 -5.520752 12.330963 -12.330933 12.330963l-49.322357 0c-6.810211 0 -12.330963 -5.520767 -12.330963 -12.330963z" fill-rule="evenodd"/><path fill="#dea7c4" d="m469.95276 38.89001l0 0c0 -6.8101997 5.520752 -12.3309555 12.330963 -12.3309555l49.322357 0l0 0c3.2703247 0 6.4067993 1.2991505 8.719299 3.6116524c2.3125 2.3125038 3.6116333 5.448929 3.6116333 8.719303l0 49.32234c0 6.8102036 -5.520752 12.3309555 -12.330933 12.3309555l-49.322357 0c-6.810211 0 -12.330963 -5.520752 -12.330963 -12.3309555z" fill-rule="evenodd"/><path stroke="#595959" stroke-width="1.0" stroke-linejoin="round" stroke-linecap="butt" d="m469.95276 38.89001l0 0c0 -6.8101997 5.520752 -12.3309555 12.330963 -12.3309555l49.322357 0l0 0c3.2703247 0 6.4067993 1.2991505 8.719299 3.6116524c2.3125 2.3125038 3.6116333 5.448929 3.6116333 8.719303l0 49.32234c0 6.8102036 -5.520752 12.3309555 -12.330933 12.3309555l-49.322357 0c-6.810211 0 -12.330963 -5.520752 -12.330963 -12.3309555z" fill-rule="evenodd"/><path fill="#dea7c4" d="m617.83203 153.76402l0 0c0 -6.810196 5.520752 -12.330948 12.330933 -12.330948l49.322327 0l0 0c3.2703857 0 6.4067993 1.2991486 8.719299 3.6116486c2.312561 2.3125 3.6116943 5.448929 3.6116943 8.719299l0 49.322342c0 6.810196 -5.520752 12.330963 -12.330994 12.330963l-49.322327 0c-6.8101807 0 -12.330933 -5.520767 -12.330933 -12.330963z" fill-rule="evenodd"/><path stroke="#595959" stroke-width="1.0" stroke-linejoin="round" stroke-linecap="butt" d="m617.83203 153.76402l0 0c0 -6.810196 5.520752 -12.330948 12.330933 -12.330948l49.322327 0l0 0c3.2703857 0 6.4067993 1.2991486 8.719299 3.6116486c2.312561 2.3125 3.6116943 5.448929 3.6116943 8.719299l0 49.322342c0 6.810196 -5.520752 12.330963 -12.330994 12.330963l-49.322327 0c-6.8101807 0 -12.330933 -5.520767 -12.330933 -12.330963z" fill-rule="evenodd"/><path fill="#dea7c4" d="m617.83203 38.89001l0 0c0 -6.8101997 5.520752 -12.3309555 12.330933 -12.3309555l49.322327 0l0 0c3.2703857 0 6.4067993 1.2991505 8.719299 3.6116524c2.312561 2.3125038 3.6116943 5.448929 3.6116943 8.719303l0 49.32234c0 6.8102036 -5.520752 12.3309555 -12.330994 12.3309555l-49.322327 0c-6.8101807 0 -12.330933 -5.520752 -12.330933 -12.3309555z" fill-rule="evenodd"/><path stroke="#595959" stroke-width="1.0" stroke-linejoin="round" stroke-linecap="butt" d="m617.83203 38.89001l0 0c0 -6.8101997 5.520752 -12.3309555 12.330933 -12.3309555l49.322327 0l0 0c3.2703857 0 6.4067993 1.2991505 8.719299 3.6116524c2.312561 2.3125038 3.6116943 5.448929 3.6116943 8.719303l0 49.32234c0 6.8102036 -5.520752 12.3309555 -12.330994 12.3309555l-49.322327 0c-6.8101807 0 -12.330933 -5.520752 -12.330933 -12.3309555z" fill-rule="evenodd"/><path fill="#6c6b80" d="m322.0735 613.2601l0 0c0 -6.8101807 5.520752 -12.330933 12.330963 -12.330933l49.322327 0l0 0c3.2703857 0 6.4067993 1.2991333 8.719299 3.6116333c2.3125305 2.3125 3.6116638 5.4489746 3.6116638 8.719299l0 49.322388c0 6.8101807 -5.520752 12.330933 -12.330963 12.330933l-49.322327 0c-6.810211 0 -12.330963 -5.520752 -12.330963 -12.330933z" fill-rule="evenodd"/><path stroke="#595959" stroke-width="1.0" stroke-linejoin="round" stroke-linecap="butt" d="m322.0735 613.2601l0 0c0 -6.8101807 5.520752 -12.330933 12.330963 -12.330933l49.322327 0l0 0c3.2703857 0 6.4067993 1.2991333 8.719299 3.6116333c2.3125305 2.3125 3.6116638 5.4489746 3.6116638 8.719299l0 49.322388c0 6.8101807 -5.520752 12.330933 -12.330963 12.330933l-49.322327 0c-6.810211 0 -12.330963 -5.520752 -12.330963 -12.330933z" fill-rule="evenodd"/><path fill="#6c6b80" d="m322.0735 498.38608l0 0c0 -6.810211 5.520752 -12.330963 12.330963 -12.330963l49.322327 0l0 0c3.2703857 0 6.4067993 1.2991638 8.719299 3.6116638c2.3125305 2.3125 3.6116638 5.4489136 3.6116638 8.719299l0 49.322357c0 6.8101807 -5.520752 12.330933 -12.330963 12.330933l-49.322327 0c-6.810211 0 -12.330963 -5.520752 -12.330963 -12.330933z" fill-rule="evenodd"/><path stroke="#595959" stroke-width="1.0" stroke-linejoin="round" stroke-linecap="butt" d="m322.0735 498.38608l0 0c0 -6.810211 5.520752 -12.330963 12.330963 -12.330963l49.322327 0l0 0c3.2703857 0 6.4067993 1.2991638 8.719299 3.6116638c2.3125305 2.3125 3.6116638 5.4489136 3.6116638 8.719299l0 49.322357c0 6.8101807 -5.520752 12.330933 -12.330963 12.330933l-49.322327 0c-6.810211 0 -12.330963 -5.520752 -12.330963 -12.330933z" fill-rule="evenodd"/><path fill="#e6007a" d="m322.0735 383.51205l0 0c0 -6.8101807 5.520752 -12.330963 12.330963 -12.330963l49.322327 0l0 0c3.2703857 0 6.4067993 1.2991638 8.719299 3.6116638c2.3125305 2.3125 3.6116638 5.448944 3.6116638 8.719299l0 49.322357c0 6.8101807 -5.520752 12.330933 -12.330963 12.330933l-49.322327 0c-6.810211 0 -12.330963 -5.520752 -12.330963 -12.330933z" fill-rule="evenodd"/><path stroke="#595959" stroke-width="1.0" stroke-linejoin="round" stroke-linecap="butt" d="m322.0735 383.51205l0 0c0 -6.8101807 5.520752 -12.330963 12.330963 -12.330963l49.322327 0l0 0c3.2703857 0 6.4067993 1.2991638 8.719299 3.6116638c2.3125305 2.3125 3.6116638 5.448944 3.6116638 8.719299l0 49.322357c0 6.8101807 -5.520752 12.330933 -12.330963 12.330933l-49.322327 0c-6.810211 0 -12.330963 -5.520752 -12.330963 -12.330933z" fill-rule="evenodd"/><path fill="#e6007a" d="m322.0735 268.63803l0 0c0 -6.8101807 5.520752 -12.330933 12.330963 -12.330933l49.322327 0l0 0c3.2703857 0 6.4067993 1.2991333 8.719299 3.6116333c2.3125305 2.3125 3.6116638 5.448944 3.6116638 8.719299l0 49.322357c0 6.8101807 -5.520752 12.330963 -12.330963 12.330963l-49.322327 0c-6.810211 0 -12.330963 -5.5207825 -12.330963 -12.330963z" fill-rule="evenodd"/><path stroke="#595959" stroke-width="1.0" stroke-linejoin="round" stroke-linecap="butt" d="m322.0735 268.63803l0 0c0 -6.8101807 5.520752 -12.330933 12.330963 -12.330933l49.322327 0l0 0c3.2703857 0 6.4067993 1.2991333 8.719299 3.6116333c2.3125305 2.3125 3.6116638 5.448944 3.6116638 8.719299l0 49.322357c0 6.8101807 -5.520752 12.330963 -12.330963 12.330963l-49.322327 0c-6.810211 0 -12.330963 -5.5207825 -12.330963 -12.330963z" fill-rule="evenodd"/><path fill="#000000" fill-opacity="0.0" d="m322.0735 408.17322l-110.89763 -77.88974" fill-rule="evenodd"/><path stroke="#ffffff" stroke-width="2.0" stroke-linejoin="round" stroke-linecap="butt" d="m322.0735 408.17322l-110.89763 -77.88974" fill-rule="evenodd"/><path fill="#000000" fill-opacity="0.0" d="m396.05774 408.17322l110.897644 -77.88974" fill-rule="evenodd"/><path stroke="#ffffff" stroke-width="2.0" stroke-linejoin="round" stroke-linecap="butt" d="m396.05774 408.17322l110.897644 -77.88974" fill-rule="evenodd"/><path fill="#000000" fill-opacity="0.0" d="m543.937 293.29922l110.897644 -77.88977" fill-rule="evenodd"/><path stroke="#ffffff" stroke-width="2.0" stroke-linejoin="round" stroke-linecap="butt" d="m543.937 293.29922l110.897644 -77.88977" fill-rule="evenodd"/><path fill="#000000" fill-opacity="0.0" d="m506.9449 256.3071l0 -40.881897" fill-rule="evenodd"/><path stroke="#ffffff" stroke-width="2.0" stroke-linejoin="round" stroke-linecap="butt" d="m506.9449 256.3071l0 -40.881897" fill-rule="evenodd"/><path fill="#000000" fill-opacity="0.0" d="m211.18636 256.3071l0 -155.74805" fill-rule="evenodd"/><path stroke="#ffffff" stroke-width="2.0" stroke-linejoin="round" stroke-linecap="butt" d="m211.18636 256.3071l0 -155.74805" fill-rule="evenodd"/><path fill="#000000" fill-opacity="0.0" d="m174.19423 293.29922l-110.897644 -77.88977" fill-rule="evenodd"/><path stroke="#ffffff" stroke-width="2.0" stroke-linejoin="round" stroke-linecap="butt" d="m174.19423 293.29922l-110.897644 -77.88977" fill-rule="evenodd"/><path fill="#dea7c4" d="m174.19423 153.76402l0 0c0 -6.810196 5.520752 -12.330948 12.330948 -12.330948l49.322342 0l0 0c3.2703705 0 6.4067993 1.2991486 8.719299 3.6116486c2.3125153 2.3125 3.6116638 5.448929 3.6116638 8.719299l0 49.322342c0 6.810196 -5.520767 12.330963 -12.330963 12.330963l-49.322342 0c-6.810196 0 -12.330948 -5.520767 -12.330948 -12.330963z" fill-rule="evenodd"/><path stroke="#595959" stroke-width="1.0" stroke-linejoin="round" stroke-linecap="butt" d="m174.19423 153.76402l0 0c0 -6.810196 5.520752 -12.330948 12.330948 -12.330948l49.322342 0l0 0c3.2703705 0 6.4067993 1.2991486 8.719299 3.6116486c2.3125153 2.3125 3.6116638 5.448929 3.6116638 8.719299l0 49.322342c0 6.810196 -5.520767 12.330963 -12.330963 12.330963l-49.322342 0c-6.810196 0 -12.330948 -5.520767 -12.330948 -12.330963z" fill-rule="evenodd"/></g></svg>