<?xml version="1.0" encoding="UTF-8"?>
<svg id="Layer_1" data-name="Layer 1" xmlns="http://www.w3.org/2000/svg" viewBox="0 0 1268.58 372.82">
  <defs>
    <style>
      .cls-1 {
        fill: #fff;
      }

      .cls-1, .cls-2 {
        stroke-width: 0px;
      }

      .cls-2 {
        fill: #e6007a;
      }
    </style>
  </defs>
  <g>
    <path class="cls-1" d="m514.9,54.35c4.44,2.08,7.84,5.01,10.2,8.79s3.55,8.2,3.55,13.21-1.18,9.43-3.55,13.21-5.76,6.72-10.2,8.79c-4.44,2.07-9.68,3.11-15.74,3.11h-20.74v22.64h-20.16V51.24h40.9c6.06,0,11.3,1.04,15.74,3.11Zm-16.91,31c3.24,0,5.77-.79,7.58-2.38,1.81-1.59,2.72-3.79,2.72-6.61s-.91-5.02-2.72-6.61-4.34-2.38-7.58-2.38h-19.58v17.98h19.58Z"/>
    <path class="cls-1" d="m554.83,120.95c-6.54-3.17-11.62-7.63-15.23-13.38-3.61-5.75-5.42-12.38-5.42-19.89s1.81-14.15,5.42-19.89c3.61-5.75,8.69-10.21,15.23-13.38,6.54-3.18,14.09-4.76,22.64-4.76s16.1,1.59,22.64,4.76c6.54,3.17,11.62,7.63,15.23,13.38,3.61,5.75,5.42,12.38,5.42,19.89s-1.81,14.15-5.42,19.89c-3.61,5.75-8.69,10.21-15.23,13.38-6.54,3.17-14.09,4.76-22.64,4.76s-16.1-1.59-22.64-4.76Zm2.5-22.64c1.86,3.01,4.52,5.33,7.97,6.95,3.45,1.62,7.51,2.43,12.17,2.43s8.72-.81,12.17-2.43c3.45-1.62,6.1-3.94,7.97-6.95,1.86-3.01,2.79-6.56,2.79-10.64s-.93-7.63-2.79-10.64c-1.86-3.01-4.52-5.33-7.97-6.95-3.45-1.62-7.51-2.43-12.17-2.43s-8.72.81-12.17,2.43c-3.45,1.62-6.1,3.94-7.97,6.95-1.86,3.01-2.79,6.56-2.79,10.64s.93,7.63,2.79,10.64Z"/>
    <path class="cls-1" d="m651.26,106.19h45.47v17.93h-65.63V51.24h20.16v54.95Z"/>
    <path class="cls-1" d="m705.33,51.24h20.06v45.86l35.9-45.86h21.33l-24.83,30.65,25.8,42.22h-22.88l-15.64-26.52-21.52,26.52h-18.22V51.24Z"/>
    <path class="cls-1" d="m876,124.11h-21.47l-6.07-14.04h-37.65l-6.07,14.04h-21.52l33.18-72.87h26.48l33.13,72.87Zm-34.54-30.22l-11.86-27.3-11.8,27.3h23.66Z"/>
    <path class="cls-1" d="m941.9,55.76c6.52,3.01,11.59,7.27,15.18,12.78,3.6,5.51,5.39,11.89,5.39,19.14s-1.8,13.63-5.39,19.14c-3.6,5.51-8.66,9.76-15.18,12.78-6.53,3.01-14.08,4.52-22.66,4.52h-36.39V51.24h36.39c8.58,0,16.14,1.5,22.66,4.52Zm-21.16,50.43c4.34,0,8.12-.75,11.34-2.26,3.22-1.5,5.7-3.65,7.43-6.44,1.73-2.79,2.6-6.05,2.6-9.81s-.87-7.03-2.6-9.81c-1.73-2.79-4.21-4.93-7.43-6.44-3.22-1.5-7-2.26-11.34-2.26h-17.83v37.02h17.83Z"/>
    <path class="cls-1" d="m990.31,120.95c-6.54-3.17-11.62-7.63-15.23-13.38-3.61-5.75-5.42-12.38-5.42-19.89s1.81-14.15,5.42-19.89c3.61-5.75,8.69-10.21,15.23-13.38,6.54-3.18,14.09-4.76,22.64-4.76s16.1,1.59,22.64,4.76c6.54,3.17,11.62,7.63,15.23,13.38,3.61,5.75,5.42,12.38,5.42,19.89s-1.81,14.15-5.42,19.89c-3.61,5.75-8.69,10.21-15.23,13.38-6.54,3.17-14.09,4.76-22.64,4.76s-16.1-1.59-22.64-4.76Zm2.5-22.64c1.86,3.01,4.52,5.33,7.97,6.95,3.45,1.62,7.51,2.43,12.17,2.43s8.72-.81,12.17-2.43c3.45-1.62,6.1-3.94,7.97-6.95,1.86-3.01,2.79-6.56,2.79-10.64s-.93-7.63-2.79-10.64c-1.86-3.01-4.52-5.33-7.97-6.95-3.45-1.62-7.51-2.43-12.17-2.43s-8.72.81-12.17,2.43c-3.45,1.62-6.1,3.94-7.97,6.95-1.86,3.01-2.79,6.56-2.79,10.64s.93,7.63,2.79,10.64Z"/>
    <path class="cls-1" d="m1134.4,51.24v17.93h-27.79v54.95h-20.16v-54.95h-27.79v-17.93h75.74Z"/>
    <path class="cls-1" d="m461.7,183.86l-5.64-35.47h51.88c4.47,0,8.31.72,11.51,2.14,3.21,1.43,5.65,3.46,7.34,6.12,1.68,2.66,2.52,5.81,2.52,9.47s-.88,6.82-2.65,9.76c-1.77,2.95-4.49,5.28-8.19,7,5.21,1.23,9.13,3.39,11.76,6.48,2.62,3.09,3.94,6.89,3.94,11.39,0,4.02-.92,7.56-2.77,10.64s-4.59,5.49-8.23,7.24c-3.64,1.75-8.09,2.62-13.33,2.62h-53.78l5.64-37.41Zm42.8,23.32c2.88,0,5.14-.72,6.78-2.14,1.63-1.42,2.45-3.4,2.45-5.92s-.91-4.59-2.72-6.1c-1.82-1.5-4.41-2.26-7.77-2.26h-23.32l-2.53,16.42h27.11Zm-24.63-30.22h20.65c2.46,0,4.47-.7,6.02-2.11s2.33-3.28,2.33-5.61c0-2.01-.7-3.64-2.11-4.88-1.41-1.25-3.36-1.87-5.85-1.87h-23.42l2.38,14.48Z"/>
    <path class="cls-1" d="m564.21,203.35h45.47v17.93h-65.63v-72.87h20.16v54.95Z"/>
    <path class="cls-1" d="m632.46,218.12c-6.54-3.18-11.62-7.64-15.23-13.38-3.61-5.75-5.42-12.38-5.42-19.9s1.81-14.14,5.42-19.89c3.61-5.75,8.69-10.21,15.23-13.38,6.54-3.17,14.09-4.76,22.64-4.76s16.1,1.59,22.64,4.76,11.62,7.64,15.23,13.38c3.61,5.75,5.42,12.38,5.42,19.89s-1.81,14.15-5.42,19.9c-3.61,5.75-8.69,10.21-15.23,13.38-6.54,3.17-14.09,4.76-22.64,4.76s-16.1-1.59-22.64-4.76Zm2.5-22.64c1.86,3.01,4.52,5.33,7.97,6.95s7.51,2.43,12.17,2.43,8.72-.81,12.17-2.43c3.45-1.62,6.1-3.94,7.97-6.95,1.86-3.01,2.79-6.56,2.79-10.64s-.93-7.63-2.79-10.64c-1.86-3.01-4.52-5.33-7.97-6.95-3.45-1.62-7.51-2.43-12.17-2.43s-8.72.81-12.17,2.43c-3.45,1.62-6.1,3.94-7.97,6.95-1.86,3.01-2.79,6.56-2.79,10.64s.93,7.63,2.79,10.64Z"/>
    <path class="cls-1" d="m783.11,207.6c-3.69,4.84-8.57,8.6-14.62,11.27-6.06,2.67-12.91,4.01-20.55,4.01-8.39,0-15.79-1.59-22.2-4.76-6.41-3.18-11.38-7.64-14.89-13.38-3.51-5.75-5.27-12.38-5.27-19.9s1.76-14.14,5.27-19.89c3.51-5.75,8.48-10.21,14.89-13.38,6.41-3.17,13.81-4.76,22.2-4.76,7.64,0,14.49,1.33,20.55,4,6.05,2.67,10.93,6.43,14.62,11.27,3.69,4.84,5.89,10.45,6.61,16.83h-20.26c-.97-4.6-3.32-8.2-7.04-10.79-3.73-2.59-8.57-3.88-14.53-3.88-4.5,0-8.39.83-11.68,2.5s-5.81,4.05-7.58,7.14c-1.77,3.09-2.65,6.74-2.65,10.95s.88,7.86,2.65,10.96c1.76,3.09,4.29,5.47,7.58,7.14s7.18,2.5,11.68,2.5c6.02,0,10.89-1.25,14.6-3.77,3.71-2.51,6.03-6.15,6.97-10.9h20.26c-.71,6.38-2.91,11.99-6.61,16.83Z"/>
    <path class="cls-1" d="m799.48,148.4h20.06v45.86l35.9-45.86h21.33l-24.83,30.65,25.8,42.22h-22.88l-15.64-26.52-21.52,26.52h-18.22v-72.87Z"/>
    <path class="cls-1" d="m953.54,207.6c-3.69,4.84-8.57,8.6-14.62,11.27-6.06,2.67-12.91,4.01-20.55,4.01-8.39,0-15.79-1.59-22.2-4.76-6.41-3.18-11.38-7.64-14.89-13.38-3.51-5.75-5.27-12.38-5.27-19.9s1.76-14.14,5.27-19.89c3.51-5.75,8.48-10.21,14.89-13.38,6.41-3.17,13.81-4.76,22.2-4.76,7.64,0,14.49,1.33,20.55,4,6.05,2.67,10.93,6.43,14.62,11.27s5.89,10.45,6.61,16.83h-20.26c-.97-4.6-3.32-8.2-7.04-10.79-3.73-2.59-8.57-3.88-14.53-3.88-4.5,0-8.39.83-11.68,2.5s-5.81,4.05-7.58,7.14c-1.77,3.09-2.65,6.74-2.65,10.95s.88,7.86,2.65,10.96c1.76,3.09,4.29,5.47,7.58,7.14s7.18,2.5,11.68,2.5c6.02,0,10.89-1.25,14.6-3.77,3.71-2.51,6.03-6.15,6.97-10.9h20.26c-.71,6.38-2.91,11.99-6.61,16.83Z"/>
    <path class="cls-1" d="m990.07,148.4v26.97h37.26v-26.97h20.16v72.87h-20.16v-28.13h-37.26v28.13h-20.16v-72.87h20.16Z"/>
    <path class="cls-1" d="m1147.13,221.27h-21.47l-6.07-14.04h-37.65l-6.07,14.04h-21.52l33.18-72.87h26.48l33.13,72.87Zm-34.54-30.22l-11.86-27.3-11.8,27.3h23.66Z"/>
    <path class="cls-1" d="m1174.14,148.4v72.87h-20.16v-72.87h20.16Z"/>
    <path class="cls-1" d="m1187.69,148.4h26.09l35.27,50.04v-50.04h19.53v72.87h-25.36l-35.95-51.15v51.15h-19.58v-72.87Z"/>
    <path class="cls-1" d="m544.39,318.44h-21.47l-6.07-14.04h-37.65l-6.07,14.04h-21.52l33.18-72.87h26.48l33.13,72.87Zm-34.54-30.22l-11.86-27.3-11.8,27.3h23.66Z"/>
    <path class="cls-1" d="m621.24,304.76c-3.69,4.85-8.57,8.6-14.62,11.27-6.06,2.67-12.91,4.01-20.55,4.01-8.39,0-15.79-1.59-22.2-4.76-6.41-3.17-11.38-7.63-14.89-13.38-3.51-5.75-5.27-12.38-5.27-19.89s1.76-14.15,5.27-19.89c3.51-5.75,8.48-10.21,14.89-13.38,6.41-3.18,13.81-4.76,22.2-4.76,7.64,0,14.49,1.33,20.55,4.01,6.05,2.67,10.93,6.43,14.62,11.27,3.69,4.85,5.89,10.45,6.61,16.83h-20.26c-.97-4.6-3.32-8.19-7.04-10.78-3.73-2.59-8.57-3.89-14.53-3.89-4.5,0-8.39.84-11.68,2.5-3.29,1.67-5.81,4.05-7.58,7.14-1.77,3.09-2.65,6.74-2.65,10.96s.88,7.86,2.65,10.96c1.76,3.09,4.29,5.47,7.58,7.14,3.29,1.67,7.18,2.51,11.68,2.51,6.02,0,10.89-1.26,14.6-3.77,3.71-2.51,6.03-6.15,6.97-10.91h20.26c-.71,6.38-2.91,11.99-6.61,16.83Z"/>
    <path class="cls-1" d="m719.96,318.44h-21.47l-6.07-14.04h-37.65l-6.07,14.04h-21.52l33.18-72.87h26.48l33.13,72.87Zm-34.54-30.22l-11.86-27.3-11.8,27.3h23.66Z"/>
    <path class="cls-1" d="m785.86,250.08c6.52,3.01,11.59,7.27,15.18,12.78,3.6,5.51,5.39,11.89,5.39,19.14s-1.8,13.63-5.39,19.14c-3.6,5.51-8.66,9.76-15.18,12.78-6.53,3.01-14.08,4.52-22.66,4.52h-36.39v-72.87h36.39c8.58,0,16.14,1.5,22.66,4.52Zm-21.16,50.43c4.34,0,8.12-.75,11.34-2.26,3.22-1.5,5.7-3.65,7.43-6.44,1.73-2.79,2.6-6.05,2.6-9.81s-.87-7.03-2.6-9.81c-1.73-2.79-4.21-4.93-7.43-6.44-3.22-1.5-7-2.26-11.34-2.26h-17.83v37.02h17.83Z"/>
    <path class="cls-1" d="m878.19,289.33h-40.81l-2.04,12.78h46.15v16.33h-67.77l5.54-36.44-5.54-36.44h67.29v16.32h-45.67l2.04,12.78h40.81v14.67Z"/>
    <path class="cls-1" d="m999.54,318.44h-19.14v-55.28l-23.95,55.28h-20.36l-23.9-55.04v55.04h-19.19v-72.87h31.14l22.2,53.29,22.1-53.29h31.09v72.87Z"/>
    <path class="cls-1" d="m1041.12,289.14l-34.15-43.58h22.3l21.86,27.89,21.86-27.89h22.3l-34.01,43.34v29.54h-20.16v-29.29Z"/>
  </g>
  <g>
    <g>
      <path class="cls-1" d="m218.19,226.56v.46c-.39,13.55-19.9,23.92-43.56,23.15-23.66-.77-42.52-12.35-42.11-25.92l-.15-25.62,43.77,25.34,41.9-25.34.15,27.92Z"/>
      <path class="cls-2" d="m175.28,229.53c-2.97,0-5.94-.8-8.59-2.39h0l-74.02-44.58c-3.28-1.97-5.24-5.44-5.24-9.26,0-3.83,1.95-7.29,5.24-9.27l74.02-44.58c5.3-3.19,11.88-3.19,17.18,0l74.02,44.58c3.28,1.98,5.24,5.44,5.24,9.27,0,3.83-1.96,7.29-5.24,9.26l-74.02,44.58c-2.65,1.59-5.62,2.39-8.59,2.39Zm-2.86-11.9c1.77,1.07,3.96,1.06,5.73,0l73.62-44.34-73.62-44.34c-1.77-1.07-3.96-1.06-5.73,0l-73.62,44.34,73.62,44.34Z"/>
      <path class="cls-1" d="m242.78,209.35c-3.06,0-5.55-2.48-5.55-5.55v-15.36l-16.64-9.42c-2.67-1.51-3.6-4.89-2.1-7.56,1.51-2.67,4.9-3.6,7.56-2.1l19.46,11.01c1.74.98,2.81,2.83,2.81,4.83v18.6c0,3.06-2.48,5.55-5.55,5.55Z"/>
      <circle class="cls-2" cx="242.78" cy="224.58" r="8"/>
    </g>
    <g>
      <ellipse class="cls-2" cx="175.28" cy="39.11" rx="67.22" ry="39.11"/>
      <ellipse class="cls-2" cx="175.28" cy="333.71" rx="67.22" ry="39.11"/>
      <ellipse class="cls-2" cx="47.72" cy="112.76" rx="67.22" ry="39.11" transform="translate(-73.8 97.71) rotate(-60)"/>
      <ellipse class="cls-2" cx="302.85" cy="260.06" rx="67.22" ry="39.11" transform="translate(-73.8 392.3) rotate(-60)"/>
      <ellipse class="cls-2" cx="47.72" cy="260.06" rx="39.11" ry="67.22" transform="translate(-123.64 58.7) rotate(-30)"/>
      <ellipse class="cls-2" cx="302.85" cy="112.76" rx="39.11" ry="67.22" transform="translate(-15.81 166.53) rotate(-30)"/>
    </g>
  </g>
</svg>