<svg width="517" height="64" viewBox="0 0 517 64" fill="none" xmlns="http://www.w3.org/2000/svg">
<path d="M369.825 19.493C371.18 19.7877 372.201 20.3364 372.887 21.1389C373.573 21.9332 373.915 22.9076 373.915 24.0622C373.915 25.0694 373.683 25.9579 373.217 26.7276C372.752 27.4891 372.062 28.0869 371.148 28.5209C370.233 28.9549 369.119 29.1719 367.805 29.1719H354.897L356.33 19.7141L354.897 10.7475H367.339C368.466 10.7475 369.429 10.9277 370.229 11.288C371.029 11.6483 371.638 12.1641 372.054 12.8356C372.479 13.5071 372.691 14.3055 372.691 15.2308C372.691 16.1315 372.458 16.9627 371.993 17.7242C371.527 18.4776 370.805 19.0671 369.825 19.493ZM368.478 15.8326C368.478 15.2349 368.27 14.7517 367.854 14.3833C367.437 14.0148 366.853 13.8305 366.102 13.8305H359.367L360.065 18.2155H365.931C366.682 18.2155 367.294 18.0026 367.768 17.5768C368.241 17.151 368.478 16.5696 368.478 15.8326ZM366.935 26.0889C367.809 26.0889 368.486 25.8842 368.968 25.4747C369.458 25.0571 369.703 24.4716 369.703 23.7183C369.703 22.9404 369.421 22.3303 368.858 21.8881C368.294 21.4378 367.486 21.2126 366.433 21.2126H360.077L359.342 26.0889H366.935Z" fill="black"/>
<path d="M376.286 29.1719V10.2562H380.388V29.1719H376.286Z" fill="black"/>
<path d="M391.458 29.5404C389.744 29.5404 388.225 29.2333 386.903 28.6192C385.588 28.005 384.568 27.1452 383.841 26.0398C383.114 24.9261 382.751 23.6446 382.751 22.1952C382.751 20.7376 383.114 19.452 383.841 18.3384C384.568 17.2247 385.588 16.3608 386.903 15.7467C388.225 15.1325 389.744 14.8254 391.458 14.8254C393.173 14.8254 394.687 15.1325 396.002 15.7467C397.324 16.3608 398.349 17.2247 399.075 18.3384C399.802 19.452 400.165 20.7376 400.165 22.1952C400.165 23.6446 399.802 24.9261 399.075 26.0398C398.349 27.1452 397.324 28.005 396.002 28.6192C394.687 29.2333 393.173 29.5404 391.458 29.5404ZM391.458 26.4328C392.397 26.4328 393.205 26.2609 393.883 25.9169C394.569 25.573 395.095 25.0858 395.463 24.4553C395.83 23.8165 396.014 23.0632 396.014 22.1952C396.014 21.3272 395.83 20.5739 395.463 19.9351C395.095 19.2964 394.569 18.8051 393.883 18.4612C393.197 18.1173 392.389 17.9453 391.458 17.9453C390.519 17.9453 389.707 18.1173 389.021 18.4612C388.335 18.8051 387.809 19.2964 387.441 19.9351C387.074 20.5739 386.89 21.3272 386.89 22.1952C386.89 23.0632 387.074 23.8165 387.441 24.4553C387.809 25.0858 388.335 25.573 389.021 25.9169C389.707 26.2609 390.519 26.4328 391.458 26.4328Z" fill="black"/>
<path d="M418.518 23.4726C418.371 24.6682 417.918 25.7245 417.159 26.6416C416.408 27.5587 415.428 28.2712 414.22 28.7789C413.011 29.2865 411.677 29.5404 410.215 29.5404C408.574 29.5404 407.117 29.2333 405.843 28.6192C404.57 27.9968 403.578 27.1329 402.867 26.0275C402.165 24.9138 401.814 23.6364 401.814 22.1952C401.814 20.754 402.165 19.4766 402.867 18.3629C403.578 17.2493 404.57 16.3813 405.843 15.7589C407.117 15.1366 408.574 14.8254 410.215 14.8254C411.677 14.8254 413.011 15.0793 414.22 15.587C415.428 16.0947 416.408 16.8112 417.159 17.7365C417.918 18.6618 418.371 19.7222 418.518 20.9178H414.428C414.224 19.9843 413.742 19.2555 412.983 18.7314C412.232 18.2073 411.309 17.9453 410.215 17.9453C409.35 17.9453 408.595 18.1132 407.95 18.4489C407.313 18.7846 406.819 19.2719 406.468 19.9106C406.125 20.5493 405.953 21.3108 405.953 22.1952C405.953 23.0714 406.125 23.8288 406.468 24.4675C406.819 25.1063 407.313 25.5935 407.95 25.9292C408.595 26.2649 409.35 26.4328 410.215 26.4328C410.934 26.4328 411.587 26.3141 412.175 26.0766C412.771 25.8309 413.26 25.4829 413.644 25.0326C414.036 24.5822 414.297 24.0622 414.428 23.4726H418.518Z" fill="black"/>
<path d="M431.564 20.8809L436.818 29.1719H432.128L428.956 23.9148L424.449 29.1719H420.726V10.2562H424.829V23.9639L431.956 15.2062H436.426L431.564 20.8809Z" fill="black"/>
<path d="M453.415 23.4726C453.268 24.6682 452.815 25.7245 452.056 26.6416C451.305 27.5587 450.325 28.2712 449.117 28.7789C447.908 29.2865 446.574 29.5404 445.112 29.5404C443.471 29.5404 442.014 29.2333 440.74 28.6192C439.467 27.9968 438.475 27.1329 437.764 26.0275C437.062 24.9138 436.711 23.6364 436.711 22.1952C436.711 20.754 437.062 19.4766 437.764 18.3629C438.475 17.2493 439.467 16.3813 440.74 15.7589C442.014 15.1366 443.471 14.8254 445.112 14.8254C446.574 14.8254 447.908 15.0793 449.117 15.587C450.325 16.0947 451.305 16.8112 452.056 17.7365C452.815 18.6618 453.268 19.7222 453.415 20.9178H449.325C449.121 19.9843 448.639 19.2555 447.88 18.7314C447.129 18.2073 446.206 17.9453 445.112 17.9453C444.247 17.9453 443.492 18.1132 442.847 18.4489C442.21 18.7846 441.716 19.2719 441.365 19.9106C441.022 20.5493 440.851 21.3108 440.851 22.1952C440.851 23.0714 441.022 23.8288 441.365 24.4675C441.716 25.1063 442.21 25.5935 442.847 25.9292C443.492 26.2649 444.247 26.4328 445.112 26.4328C445.831 26.4328 446.484 26.3141 447.072 26.0766C447.668 25.8309 448.157 25.4829 448.541 25.0326C448.933 24.5822 449.194 24.0622 449.325 23.4726H453.415Z" fill="black"/>
<path d="M465.041 14.8254C466.347 14.8254 467.47 15.0916 468.409 15.6238C469.348 16.1479 470.062 16.9054 470.552 17.8962C471.05 18.8788 471.299 20.0457 471.299 21.3968V29.1719H467.196V22.0232C467.196 20.7786 466.89 19.8287 466.278 19.1736C465.674 18.5185 464.8 18.191 463.657 18.191C462.865 18.191 462.171 18.367 461.575 18.7191C460.987 19.0631 460.53 19.5544 460.204 20.1931C459.885 20.8236 459.726 21.5606 459.726 22.404V29.1719H455.624V10.2562H459.726V17.6997C460.338 16.7661 461.102 16.0537 462.016 15.5624C462.931 15.0711 463.939 14.8254 465.041 14.8254Z" fill="black"/>
<path d="M491.207 15.2062L490.398 22.1829L491.207 29.1719H486.969L486.602 26.0275C485.908 27.1411 485.03 28.005 483.969 28.6192C482.916 29.2333 481.744 29.5404 480.454 29.5404C479.107 29.5404 477.907 29.2333 476.854 28.6192C475.801 28.005 474.98 27.1411 474.393 26.0275C473.813 24.9138 473.523 23.6364 473.523 22.1952C473.523 20.7458 473.813 19.4643 474.393 18.3506C474.98 17.2288 475.797 16.3608 476.842 15.7467C477.895 15.1325 479.099 14.8254 480.454 14.8254C481.744 14.8254 482.916 15.1325 483.969 15.7467C485.03 16.3526 485.912 17.2124 486.614 18.3261L486.969 15.2062H491.207ZM481.581 26.3468C482.34 26.3468 483.063 26.1708 483.749 25.8187C484.434 25.4666 485.035 24.9793 485.549 24.357C486.071 23.7265 486.48 23.0059 486.774 22.1952C486.48 21.3845 486.071 20.6639 485.549 20.0334C485.035 19.4029 484.434 18.9116 483.749 18.5595C483.063 18.1992 482.34 18.019 481.581 18.019C480.83 18.019 480.156 18.1992 479.56 18.5595C478.973 18.9116 478.511 19.407 478.177 20.0457C477.842 20.6762 477.675 21.3927 477.675 22.1952C477.675 22.9977 477.842 23.7142 478.177 24.3447C478.511 24.9752 478.973 25.4666 479.56 25.8187C480.156 26.1708 480.83 26.3468 481.581 26.3468Z" fill="black"/>
<path d="M493.941 29.1719V15.0465L495.998 15.4396L498.044 15.0465V29.1719H493.941ZM495.986 13.5972C495.243 13.5972 494.639 13.4047 494.174 13.0199C493.717 12.6268 493.488 12.1109 493.488 11.4722C493.488 10.8335 493.717 10.3217 494.174 9.93684C494.639 9.54379 495.243 9.34726 495.986 9.34726C496.737 9.34726 497.341 9.54379 497.799 9.93684C498.264 10.3217 498.497 10.8335 498.497 11.4722C498.497 12.1109 498.264 12.6268 497.799 13.0199C497.341 13.4047 496.737 13.5972 495.986 13.5972Z" fill="black"/>
<path d="M510.754 14.8254C512.069 14.8254 513.191 15.0916 514.122 15.6238C515.061 16.1479 515.775 16.9054 516.265 17.8962C516.755 18.8788 517 20.0457 517 21.3968V29.1719H512.91V22.0232C512.91 20.7786 512.604 19.8287 511.991 19.1736C511.387 18.5185 510.514 18.191 509.371 18.191C508.57 18.191 507.872 18.367 507.276 18.7191C506.689 19.0631 506.231 19.5544 505.905 20.1931C505.586 20.8236 505.427 21.5606 505.427 22.404V29.1719H501.337V19.8983L500.455 15.2062H504.558L505.072 18.3384C505.652 17.2083 506.436 16.3403 507.423 15.7344C508.419 15.1284 509.53 14.8254 510.754 14.8254Z" fill="black"/>
<path d="M376.242 55.2731H371.809L370.07 51.3917H359.881L358.142 55.2731H353.709L362.294 36.8487H367.658L376.242 55.2731ZM364.976 40.0546L361.412 48.0016H368.552L364.976 40.0546Z" fill="black"/>
<path d="M392.997 49.5738C392.85 50.7694 392.397 51.8257 391.638 52.7428C390.887 53.66 389.907 54.3724 388.699 54.8801C387.49 55.3878 386.155 55.6416 384.694 55.6416C383.053 55.6416 381.596 55.3345 380.322 54.7204C379.049 54.0981 378.057 53.2342 377.346 52.1287C376.644 51.015 376.293 49.7376 376.293 48.2964C376.293 46.8552 376.644 45.5778 377.346 44.4641C378.057 43.3505 379.049 42.4825 380.322 41.8602C381.596 41.2378 383.053 40.9267 384.694 40.9267C386.155 40.9267 387.49 41.1805 388.699 41.6882C389.907 42.1959 390.887 42.9124 391.638 43.8377C392.397 44.763 392.85 45.8235 392.997 47.019H388.907C388.703 46.0855 388.221 45.3567 387.462 44.8326C386.711 44.3086 385.788 44.0465 384.694 44.0465C383.829 44.0465 383.074 44.2144 382.429 44.5501C381.792 44.8859 381.298 45.3731 380.947 46.0118C380.604 46.6505 380.432 47.412 380.432 48.2964C380.432 49.1726 380.604 49.9301 380.947 50.5688C381.298 51.2075 381.792 51.6947 382.429 52.0304C383.074 52.3662 383.829 52.534 384.694 52.534C385.413 52.534 386.066 52.4153 386.654 52.1778C387.249 51.9322 387.739 51.5842 388.123 51.1338C388.515 50.6834 388.776 50.1634 388.907 49.5738H392.997Z" fill="black"/>
<path d="M412.228 41.3074L411.42 48.2841L412.228 55.2731H407.991L407.623 52.1287C406.929 53.2423 406.052 54.1062 404.99 54.7204C403.937 55.3345 402.765 55.6416 401.476 55.6416C400.128 55.6416 398.928 55.3345 397.875 54.7204C396.822 54.1062 396.001 53.2423 395.414 52.1287C394.834 51.015 394.544 49.7376 394.544 48.2964C394.544 46.847 394.834 45.5655 395.414 44.4519C396.001 43.33 396.818 42.462 397.863 41.8479C398.916 41.2337 400.12 40.9267 401.476 40.9267C402.765 40.9267 403.937 41.2337 404.99 41.8479C406.052 42.4538 406.933 43.3136 407.635 44.4273L407.991 41.3074H412.228ZM402.602 52.448C403.361 52.448 404.084 52.272 404.77 51.9199C405.456 51.5678 406.056 51.0806 406.57 50.4582C407.092 49.8277 407.501 49.1071 407.795 48.2964C407.501 47.4857 407.092 46.7651 406.57 46.1346C406.056 45.5041 405.456 45.0128 404.77 44.6607C404.084 44.3004 403.361 44.1202 402.602 44.1202C401.851 44.1202 401.178 44.3004 400.582 44.6607C399.994 45.0128 399.532 45.5082 399.198 46.1469C398.863 46.7774 398.696 47.4939 398.696 48.2964C398.696 49.0989 398.863 49.8154 399.198 50.4459C399.532 51.0765 399.994 51.5678 400.582 51.9199C401.178 52.272 401.851 52.448 402.602 52.448Z" fill="black"/>
<path d="M432.537 36.3574L431.19 48.0016L431.986 55.2731H427.773L427.405 52.0181C426.703 53.1646 425.818 54.0571 424.748 54.6958C423.679 55.3263 422.491 55.6416 421.184 55.6416C419.837 55.6416 418.637 55.3345 417.584 54.7204C416.531 54.1062 415.71 53.2423 415.122 52.1287C414.543 51.015 414.253 49.7376 414.253 48.2964C414.253 46.847 414.543 45.5655 415.122 44.4519C415.71 43.33 416.527 42.462 417.572 41.8479C418.625 41.2337 419.829 40.9267 421.184 40.9267C422.491 40.9267 423.679 41.2378 424.748 41.8602C425.818 42.4825 426.699 43.3628 427.393 44.501L428.299 36.3574H432.537ZM422.311 52.448C423.07 52.448 423.793 52.272 424.479 51.9199C425.164 51.5678 425.764 51.0806 426.279 50.4582C426.801 49.8277 427.21 49.1071 427.503 48.2964C427.21 47.4857 426.801 46.7651 426.279 46.1346C425.764 45.5041 425.164 45.0128 424.479 44.6607C423.793 44.3004 423.07 44.1202 422.311 44.1202C421.56 44.1202 420.886 44.3004 420.29 44.6607C419.703 45.0128 419.241 45.5082 418.907 46.1469C418.572 46.7774 418.404 47.4939 418.404 48.2964C418.404 49.0989 418.572 49.8154 418.907 50.4459C419.241 51.0765 419.703 51.5678 420.29 51.9199C420.886 52.272 421.56 52.448 422.311 52.448Z" fill="black"/>
<path d="M438.321 49.5738C438.631 50.5237 439.235 51.2566 440.133 51.7725C441.031 52.2884 442.17 52.5463 443.55 52.5463C444.603 52.5463 445.661 52.3948 446.722 52.0918C447.783 51.7889 448.734 51.3631 449.575 50.8144V53.5658C448.653 54.2209 447.579 54.7327 446.354 55.1012C445.138 55.4615 443.864 55.6416 442.534 55.6416C440.884 55.6416 439.407 55.3345 438.1 54.7204C436.794 54.0981 435.774 53.2301 435.039 52.1164C434.304 50.9946 433.937 49.7049 433.937 48.2473C433.937 46.8143 434.288 45.545 434.99 44.4396C435.692 43.3259 436.668 42.462 437.917 41.8479C439.166 41.2337 440.578 40.9267 442.154 40.9267C443.738 40.9267 445.118 41.2829 446.293 41.9953C447.469 42.6995 448.371 43.7067 449 45.0169C449.636 46.3189 449.955 47.8379 449.955 49.5738H438.321ZM442.179 43.9483C441.142 43.9483 440.272 44.2103 439.57 44.7344C438.876 45.2503 438.419 45.9545 438.198 46.847H445.975C445.738 45.9217 445.289 45.2093 444.628 44.7098C443.975 44.2021 443.158 43.9483 442.179 43.9483Z" fill="black"/>
<path d="M472.408 40.9267C473.649 40.9267 474.714 41.1928 475.604 41.7251C476.494 42.2491 477.172 43.0066 477.637 43.9974C478.102 44.98 478.335 46.1469 478.335 47.498V55.2731H474.245V48.1245C474.245 46.8798 473.971 45.9299 473.424 45.2748C472.885 44.6197 472.098 44.2922 471.061 44.2922C470.326 44.2922 469.689 44.4682 469.15 44.8204C468.612 45.1643 468.195 45.6556 467.901 46.2943C467.607 46.9248 467.46 47.6618 467.46 48.5052V55.2731H463.37V48.1245C463.37 46.8798 463.097 45.9299 462.55 45.2748C462.011 44.6197 461.223 44.2922 460.186 44.2922C459.451 44.2922 458.814 44.4682 458.276 44.8204C457.737 45.1643 457.32 45.6556 457.027 46.2943C456.733 46.9248 456.586 47.6618 456.586 48.5052V55.2731H452.495V45.9995L451.614 41.3074H455.716L456.218 44.3782C456.782 43.2645 457.525 42.4129 458.447 41.8233C459.378 41.2255 460.415 40.9267 461.558 40.9267C462.913 40.9267 464.052 41.2419 464.974 41.8724C465.905 42.503 466.579 43.3996 466.995 44.5624C467.55 43.3914 468.297 42.4948 469.236 41.8724C470.175 41.2419 471.232 40.9267 472.408 40.9267Z" fill="black"/>
<path d="M492.89 41.3074H497.237L490.294 55.8996C489.673 57.2261 488.869 58.1883 487.881 58.786C486.893 59.392 485.787 59.695 484.562 59.695C483.656 59.695 482.836 59.5844 482.101 59.3633C481.366 59.1423 480.664 58.8024 479.994 58.3439V55.3837C480.705 55.834 481.366 56.1534 481.978 56.3417C482.591 56.5383 483.268 56.6365 484.011 56.6365C484.721 56.6365 485.33 56.4769 485.836 56.1575C486.35 55.8463 486.767 55.3223 487.085 54.5853L487.171 54.401H485.444L479.284 41.3074H483.791L488.31 51.7848L492.89 41.3074Z" fill="black"/>
<path fill-rule="evenodd" clip-rule="evenodd" d="M320.699 62.95L334.476 -5.95067e-07L335.971 0.329193L322.194 63.2792L320.699 62.95Z" fill="black"/>
<mask id="path-3-inside-1_1_5" fill="white">
<path d="M298.293 43.3788C297.236 43.3788 296.552 43.9985 295.247 45.4237C292.946 47.7789 291.517 49.0799 289.714 49.0799C288.098 49.0799 287.227 47.7789 287.227 45.6715C287.227 44.4941 287.476 43.0689 287.787 41.5197L290.088 30.7363H296.99C299.166 30.7363 300.471 29.4968 300.471 27.2658C300.471 26.0264 299.663 25.0968 297.798 25.0968H291.33L292.449 20.077C292.573 19.3336 292.698 18.6518 292.698 18.0321C292.698 16.2967 291.517 15.0572 289.59 15.0572C287.538 15.0572 286.605 16.4208 286.171 18.5277L284.74 25.0968H281.819C279.581 25.0968 278.275 26.3362 278.275 28.5673C278.275 29.8067 279.145 30.7363 281.01 30.7363H283.559L281.259 41.3946C281.01 42.572 280.699 44.4932 280.699 46.4765C280.699 51.4962 283.31 55.1525 288.905 55.1525C292.138 55.1525 294.998 53.5411 297.174 51.6199C299.287 49.7608 300.841 47.4681 300.841 45.9804C300.842 44.5562 299.724 43.3788 298.293 43.3788Z"/>
</mask>
<path d="M298.293 43.3788C297.236 43.3788 296.552 43.9985 295.247 45.4237C292.946 47.7789 291.517 49.0799 289.714 49.0799C288.098 49.0799 287.227 47.7789 287.227 45.6715C287.227 44.4941 287.476 43.0689 287.787 41.5197L290.088 30.7363H296.99C299.166 30.7363 300.471 29.4968 300.471 27.2658C300.471 26.0264 299.663 25.0968 297.798 25.0968H291.33L292.449 20.077C292.573 19.3336 292.698 18.6518 292.698 18.0321C292.698 16.2967 291.517 15.0572 289.59 15.0572C287.538 15.0572 286.605 16.4208 286.171 18.5277L284.74 25.0968H281.819C279.581 25.0968 278.275 26.3362 278.275 28.5673C278.275 29.8067 279.145 30.7363 281.01 30.7363H283.559L281.259 41.3946C281.01 42.572 280.699 44.4932 280.699 46.4765C280.699 51.4962 283.31 55.1525 288.905 55.1525C292.138 55.1525 294.998 53.5411 297.174 51.6199C299.287 49.7608 300.841 47.4681 300.841 45.9804C300.842 44.5562 299.724 43.3788 298.293 43.3788Z" fill="black" stroke="black" stroke-width="2" mask="url(#path-3-inside-1_1_5)"/>
<mask id="path-4-inside-2_1_5" fill="white">
<path d="M266.277 24.4772C256.33 24.4772 249.554 34.331 249.554 43.6888C249.554 43.8642 249.558 44.0374 249.564 44.21C248.004 46.5711 246.01 49.0185 244.643 49.0185C243.648 49.0185 243.275 48.0889 243.275 46.6633C243.275 44.9282 243.771 42.0154 244.332 39.4745L249.492 15.677C249.616 14.9337 249.74 14.3139 249.74 13.6942C249.74 11.8953 248.559 10.7193 246.632 10.7193C244.519 10.7193 243.648 12.0829 243.213 14.1898L240.416 27.0802C238.923 25.5309 236.746 24.4772 233.452 24.4772C226.846 24.4772 220.203 29.5469 217.613 37.3212C214.761 44.6706 212.213 49.0185 210.202 49.0185C209.457 49.0185 209.021 48.3987 209.021 47.345C209.021 44.2465 210.762 36.6867 211.508 33.0295C211.756 31.666 211.881 31.1083 211.881 30.3024C211.881 27.5758 207.343 24.3531 201.437 24.3531C194.608 24.3531 188.422 28.6641 185.32 35.0722C180.715 43.186 176.488 49.0198 174.395 49.0198C173.462 49.0198 173.152 47.842 172.903 46.7262L171.349 38.1739L180.861 30.4274C181.731 29.6836 182.85 28.6286 182.85 27.2668C182.85 25.5938 181.731 24.4785 180.053 24.4785C178.809 24.4785 177.752 25.2224 176.696 26.0899L162.399 37.8631L167.186 15.677C167.31 14.9337 167.497 14.3139 167.497 13.6942C167.497 11.8953 166.253 10.7193 164.326 10.7193C162.275 10.7193 161.342 12.0829 160.907 14.1898L153.136 50.1958C152.95 50.9397 152.825 51.5594 152.825 52.1791C152.825 53.978 154.069 55.1536 155.934 55.1536C158.047 55.1536 158.98 53.79 159.415 51.6831L160.41 47.0352L166.253 42.3253L167.683 49.5141C168.243 52.3648 169.735 55.1536 173.589 55.1536C177.424 55.1536 180.44 51.6624 183.462 46.9452C184.379 51.8859 187.905 55.1536 192.798 55.1536C197.71 55.1536 201.066 52.2407 203.242 48.3367V48.4604C203.242 52.489 205.294 55.1536 208.899 55.1536C212.159 55.1536 214.867 53.1941 217.286 49.0279C218.658 52.6585 221.725 55.1536 225.993 55.1536C231.029 55.1536 234.634 52.117 236.935 47.9027V48.2746C236.935 52.7368 239.173 55.1554 242.84 55.1554C246.079 55.1554 248.832 53.2818 251.18 50.2296C252.967 53.2787 256.169 55.1554 260.496 55.1554C270.442 55.1554 277.218 45.302 277.218 35.8821C277.218 29.2492 273.177 24.4772 266.277 24.4772ZM204.297 37.0572C202.492 44.8037 198.64 49.2037 194.288 49.2037C191.366 49.2037 189.75 46.9727 189.75 43.6272C189.75 37.0581 194.537 29.993 200.938 29.993C202.865 29.993 204.357 30.5511 205.663 31.3566L204.297 37.0572ZM238.923 33.7743C236.934 42.8843 232.396 49.2055 227.422 49.2055C224.687 49.2055 223.071 47.0986 223.071 43.629C223.071 36.9979 227.672 30.1189 233.826 30.1189C236.188 30.1189 237.991 30.9244 239.296 31.9781L238.923 33.7743ZM261.242 49.2042C257.637 49.2042 256.144 46.6012 256.144 43.3169C256.144 37.3055 260.309 30.4265 265.531 30.4265C269.137 30.4265 270.629 33.0295 270.629 36.3138C270.628 42.3873 266.463 49.2042 261.242 49.2042Z"/>
</mask>
<path d="M266.277 24.4772C256.33 24.4772 249.554 34.331 249.554 43.6888C249.554 43.8642 249.558 44.0374 249.564 44.21C248.004 46.5711 246.01 49.0185 244.643 49.0185C243.648 49.0185 243.275 48.0889 243.275 46.6633C243.275 44.9282 243.771 42.0154 244.332 39.4745L249.492 15.677C249.616 14.9337 249.74 14.3139 249.74 13.6942C249.74 11.8953 248.559 10.7193 246.632 10.7193C244.519 10.7193 243.648 12.0829 243.213 14.1898L240.416 27.0802C238.923 25.5309 236.746 24.4772 233.452 24.4772C226.846 24.4772 220.203 29.5469 217.613 37.3212C214.761 44.6706 212.213 49.0185 210.202 49.0185C209.457 49.0185 209.021 48.3987 209.021 47.345C209.021 44.2465 210.762 36.6867 211.508 33.0295C211.756 31.666 211.881 31.1083 211.881 30.3024C211.881 27.5758 207.343 24.3531 201.437 24.3531C194.608 24.3531 188.422 28.6641 185.32 35.0722C180.715 43.186 176.488 49.0198 174.395 49.0198C173.462 49.0198 173.152 47.842 172.903 46.7262L171.349 38.1739L180.861 30.4274C181.731 29.6836 182.85 28.6286 182.85 27.2668C182.85 25.5938 181.731 24.4785 180.053 24.4785C178.809 24.4785 177.752 25.2224 176.696 26.0899L162.399 37.8631L167.186 15.677C167.31 14.9337 167.497 14.3139 167.497 13.6942C167.497 11.8953 166.253 10.7193 164.326 10.7193C162.275 10.7193 161.342 12.0829 160.907 14.1898L153.136 50.1958C152.95 50.9397 152.825 51.5594 152.825 52.1791C152.825 53.978 154.069 55.1536 155.934 55.1536C158.047 55.1536 158.98 53.79 159.415 51.6831L160.41 47.0352L166.253 42.3253L167.683 49.5141C168.243 52.3648 169.735 55.1536 173.589 55.1536C177.424 55.1536 180.44 51.6624 183.462 46.9452C184.379 51.8859 187.905 55.1536 192.798 55.1536C197.71 55.1536 201.066 52.2407 203.242 48.3367V48.4604C203.242 52.489 205.294 55.1536 208.899 55.1536C212.159 55.1536 214.867 53.1941 217.286 49.0279C218.658 52.6585 221.725 55.1536 225.993 55.1536C231.029 55.1536 234.634 52.117 236.935 47.9027V48.2746C236.935 52.7368 239.173 55.1554 242.84 55.1554C246.079 55.1554 248.832 53.2818 251.18 50.2296C252.967 53.2787 256.169 55.1554 260.496 55.1554C270.442 55.1554 277.218 45.302 277.218 35.8821C277.218 29.2492 273.177 24.4772 266.277 24.4772ZM204.297 37.0572C202.492 44.8037 198.64 49.2037 194.288 49.2037C191.366 49.2037 189.75 46.9727 189.75 43.6272C189.75 37.0581 194.537 29.993 200.938 29.993C202.865 29.993 204.357 30.5511 205.663 31.3566L204.297 37.0572ZM238.923 33.7743C236.934 42.8843 232.396 49.2055 227.422 49.2055C224.687 49.2055 223.071 47.0986 223.071 43.629C223.071 36.9979 227.672 30.1189 233.826 30.1189C236.188 30.1189 237.991 30.9244 239.296 31.9781L238.923 33.7743ZM261.242 49.2042C257.637 49.2042 256.144 46.6012 256.144 43.3169C256.144 37.3055 260.309 30.4265 265.531 30.4265C269.137 30.4265 270.629 33.0295 270.629 36.3138C270.628 42.3873 266.463 49.2042 261.242 49.2042Z" fill="black" stroke="black" stroke-width="2" mask="url(#path-4-inside-2_1_5)"/>
<mask id="path-5-inside-3_1_5" fill="white">
<path d="M155.309 13.6942C155.309 11.8953 154.066 10.7193 152.139 10.7193C150.088 10.7193 149.155 12.0829 148.72 14.1898L140.949 50.1958C140.763 50.9397 140.638 51.5594 140.638 52.1791C140.638 53.978 141.882 55.1536 143.747 55.1536C145.86 55.1536 146.793 53.79 147.228 51.6831L155 15.677C155.123 14.9337 155.309 14.3139 155.309 13.6942Z"/>
</mask>
<path d="M155.309 13.6942C155.309 11.8953 154.066 10.7193 152.139 10.7193C150.088 10.7193 149.155 12.0829 148.72 14.1898L140.949 50.1958C140.763 50.9397 140.638 51.5594 140.638 52.1791C140.638 53.978 141.882 55.1536 143.747 55.1536C145.86 55.1536 146.793 53.79 147.228 51.6831L155 15.677C155.123 14.9337 155.309 14.3139 155.309 13.6942Z" fill="black" stroke="black" stroke-width="2" mask="url(#path-5-inside-3_1_5)"/>
<mask id="path-6-inside-4_1_5" fill="white">
<path d="M128.205 24.4772C118.258 24.4772 111.482 34.331 111.482 43.6888C111.482 50.3816 115.523 55.1536 122.423 55.1536C132.37 55.1536 139.147 45.3002 139.147 35.8803C139.147 29.2492 135.105 24.4772 128.205 24.4772ZM123.17 49.2042C119.564 49.2042 118.072 46.6012 118.072 43.3169C118.072 37.3055 122.237 30.4265 127.459 30.4265C131.065 30.4265 132.557 33.0295 132.557 36.3138C132.557 42.3873 128.392 49.2042 123.17 49.2042Z"/>
</mask>
<path d="M128.205 24.4772C118.258 24.4772 111.482 34.331 111.482 43.6888C111.482 50.3816 115.523 55.1536 122.423 55.1536C132.37 55.1536 139.147 45.3002 139.147 35.8803C139.147 29.2492 135.105 24.4772 128.205 24.4772ZM123.17 49.2042C119.564 49.2042 118.072 46.6012 118.072 43.3169C118.072 37.3055 122.237 30.4265 127.459 30.4265C131.065 30.4265 132.557 33.0295 132.557 36.3138C132.557 42.3873 128.392 49.2042 123.17 49.2042Z" fill="black" stroke="black" stroke-width="2" mask="url(#path-6-inside-4_1_5)"/>
<mask id="path-7-inside-5_1_5" fill="white">
<path d="M95.7549 10.0376C92.2734 10.0376 88.9165 10.4716 87.5487 10.8435C85.5596 11.4011 85.062 12.2687 84.6889 14.0657L76.794 50.3816C76.6695 51.1255 76.545 51.7452 76.545 52.3649C76.545 54.1638 77.7265 55.3394 79.6533 55.3394C81.7673 55.3394 82.6376 53.9763 83.0729 51.8693L85.3106 41.5199C86.8647 41.7056 88.9165 41.8913 91.8385 41.8913C104.707 41.8913 112.726 34.9508 112.726 24.4772C112.727 15.3052 106.323 10.0376 95.7549 10.0376ZM91.5277 35.9415C89.5382 35.9415 87.984 35.8799 86.5539 35.6937L90.7193 16.4205C92.0249 16.2343 93.9521 15.9865 95.9416 15.9865C102.78 15.9865 106.261 19.2092 106.261 24.5388C106.261 31.3562 101.288 35.942 91.5259 35.942L91.5277 35.9415Z"/>
</mask>
<path d="M95.7549 10.0376C92.2734 10.0376 88.9165 10.4716 87.5487 10.8435C85.5596 11.4011 85.062 12.2687 84.6889 14.0657L76.794 50.3816C76.6695 51.1255 76.545 51.7452 76.545 52.3649C76.545 54.1638 77.7265 55.3394 79.6533 55.3394C81.7673 55.3394 82.6376 53.9763 83.0729 51.8693L85.3106 41.5199C86.8647 41.7056 88.9165 41.8913 91.8385 41.8913C104.707 41.8913 112.726 34.9508 112.726 24.4772C112.727 15.3052 106.323 10.0376 95.7549 10.0376ZM91.5277 35.9415C89.5382 35.9415 87.984 35.8799 86.5539 35.6937L90.7193 16.4205C92.0249 16.2343 93.9521 15.9865 95.9416 15.9865C102.78 15.9865 106.261 19.2092 106.261 24.5388C106.261 31.3562 101.288 35.942 91.5259 35.942L91.5277 35.9415Z" fill="black" stroke="black" stroke-width="2" mask="url(#path-7-inside-5_1_5)"/>
<path d="M33.284 64C39.6193 64 44.755 61.0211 44.755 57.3464C44.755 53.6717 39.6193 50.6927 33.284 50.6927C26.9488 50.6927 21.8131 53.6717 21.8131 57.3464C21.8131 61.0211 26.9488 64 33.284 64Z" fill="#E6007A"/>
<path d="M60.8335 48.1447C64.0011 42.6754 63.981 36.7522 60.7887 34.9148C57.5963 33.0775 52.4405 36.0217 49.2729 41.491C46.1053 46.9604 46.1253 52.8836 49.3177 54.7209C52.5101 56.5583 57.6659 53.614 60.8335 48.1447Z" fill="#E6007A"/>
<path d="M33.284 13.8844C39.6193 13.8844 44.755 10.9055 44.755 7.23084C44.755 3.55616 39.6193 0.57724 33.284 0.57724C26.9488 0.57724 21.8131 3.55616 21.8131 7.23084C21.8131 10.9055 26.9488 13.8844 33.284 13.8844Z" fill="#E6007A"/>
<path d="M17.2961 23.0864C20.4637 17.6172 20.4437 11.694 17.2513 9.85662C14.0589 8.01928 8.90311 10.9636 5.73549 16.4328C2.56787 21.9021 2.58793 27.8253 5.78031 29.6627C8.97269 31.5 14.1285 28.5557 17.2961 23.0864Z" fill="#E6007A"/>
<path d="M17.2513 54.7205C20.4436 52.8832 20.4637 46.96 17.2961 41.4907C14.1285 36.0214 8.97267 33.0772 5.7803 34.9145C2.58793 36.7519 2.56786 42.675 5.73548 48.1443C8.9031 53.6136 14.0589 56.5579 17.2513 54.7205Z" fill="#E6007A"/>
<path d="M60.7887 29.6627C63.981 27.8254 64.0011 21.9021 60.8335 16.4328C57.6659 10.9635 52.5101 8.01923 49.3177 9.85658C46.1253 11.6939 46.1053 17.6171 49.2729 23.0865C52.4405 28.5558 57.5963 31.5 60.7887 29.6627Z" fill="#E6007A"/>
</svg>
