<svg width="851" height="680" viewBox="0 0 851 680" fill="none" xmlns="http://www.w3.org/2000/svg">
<circle cx="223" cy="356" r="221.5" stroke="white" stroke-width="3"/>
<rect x="126" y="279" width="77" height="77" rx="10" fill="#8D3AED"/>
<rect x="126" y="396" width="77" height="77" rx="10" fill="#8D3AED"/>
<rect x="243" y="279" width="77" height="77" rx="10" fill="#8D3AED"/>
<rect x="243" y="396" width="77" height="77" rx="10" fill="#8D3AED"/>
<rect x="487" width="81" height="81" rx="10" fill="#8D3AED"/>
<rect x="608" y="81" width="81" height="81" rx="10" fill="#8D3AED"/>
<rect x="719" y="176" width="81" height="81" rx="10" fill="#8D3AED"/>
<rect x="770" y="297" width="81" height="81" rx="10" fill="#8D3AED"/>
<rect x="719" y="427" width="81" height="81" rx="10" fill="#8D3AED"/>
<rect x="608" y="518" width="81" height="81" rx="10" fill="#8D3AED"/>
<rect x="487" y="599" width="81" height="81" rx="10" fill="#8D3AED"/>
<path d="M479.487 41.6946C479.595 40.8732 479.016 40.1201 478.195 40.0127L464.809 38.2614C463.987 38.1539 463.234 38.7327 463.127 39.5541C463.019 40.3755 463.598 41.1285 464.419 41.236L476.318 42.7927L474.761 54.6913C474.654 55.5128 475.233 56.2658 476.054 56.3732C476.876 56.4807 477.629 55.9019 477.736 55.0805L479.487 41.6946ZM169.914 280.189L171.491 278.978L169.662 276.599L168.086 277.811L169.914 280.189ZM174.644 276.554L177.797 274.131L175.969 271.752L172.815 274.176L174.644 276.554ZM180.95 271.707L184.103 269.284L182.275 266.905L179.122 269.329L180.95 271.707ZM187.256 266.86L190.409 264.437L188.581 262.058L185.428 264.482L187.256 266.86ZM193.562 262.013L196.715 259.59L194.887 257.211L191.734 259.635L193.562 262.013ZM199.868 257.166L203.021 254.743L201.193 252.364L198.04 254.788L199.868 257.166ZM206.174 252.319L209.327 249.896L207.499 247.517L204.346 249.941L206.174 252.319ZM212.48 247.472L215.633 245.049L213.805 242.67L210.652 245.094L212.48 247.472ZM218.787 242.626L221.94 240.202L220.111 237.823L216.958 240.247L218.787 242.626ZM225.093 237.779L228.246 235.355L226.418 232.977L223.264 235.4L225.093 237.779ZM231.399 232.932L234.552 230.508L232.724 228.13L229.571 230.553L231.399 232.932ZM237.705 228.085L240.858 225.661L239.03 223.283L235.877 225.706L237.705 228.085ZM244.011 223.238L247.164 220.814L245.336 218.436L242.183 220.859L244.011 223.238ZM250.317 218.391L253.47 215.967L251.642 213.589L248.489 216.012L250.317 218.391ZM256.623 213.544L259.776 211.12L257.948 208.742L254.795 211.165L256.623 213.544ZM262.929 208.697L266.082 206.273L264.254 203.895L261.101 206.318L262.929 208.697ZM269.236 203.85L272.389 201.427L270.56 199.048L267.407 201.471L269.236 203.85ZM275.542 199.003L278.695 196.58L276.866 194.201L273.713 196.624L275.542 199.003ZM281.848 194.156L285.001 191.733L283.173 189.354L280.02 191.778L281.848 194.156ZM288.154 189.309L291.307 186.886L289.479 184.507L286.326 186.931L288.154 189.309ZM294.46 184.462L297.613 182.039L295.785 179.66L292.632 182.084L294.46 184.462ZM300.766 179.615L303.919 177.192L302.091 174.813L298.938 177.237L300.766 179.615ZM307.072 174.768L310.225 172.345L308.397 169.966L305.244 172.39L307.072 174.768ZM313.378 169.921L316.531 167.498L314.703 165.119L311.55 167.543L313.378 169.921ZM319.684 165.075L322.838 162.651L321.009 160.272L317.856 162.696L319.684 165.075ZM325.991 160.228L329.144 157.804L327.315 155.426L324.162 157.849L325.991 160.228ZM332.297 155.381L335.45 152.957L333.622 150.579L330.469 153.002L332.297 155.381ZM338.603 150.534L341.756 148.11L339.928 145.732L336.775 148.155L338.603 150.534ZM344.909 145.687L348.062 143.263L346.234 140.885L343.081 143.308L344.909 145.687ZM351.215 140.84L354.368 138.416L352.54 136.038L349.387 138.461L351.215 140.84ZM357.521 135.993L360.674 133.569L358.846 131.191L355.693 133.614L357.521 135.993ZM363.827 131.146L366.98 128.722L365.152 126.344L361.999 128.767L363.827 131.146ZM370.133 126.299L373.287 123.876L371.458 121.497L368.305 123.92L370.133 126.299ZM376.44 121.452L379.593 119.029L377.764 116.65L374.611 119.073L376.44 121.452ZM382.746 116.605L385.899 114.182L384.071 111.803L380.918 114.227L382.746 116.605ZM389.052 111.758L392.205 109.335L390.377 106.956L387.224 109.38L389.052 111.758ZM395.358 106.911L398.511 104.488L396.683 102.109L393.53 104.533L395.358 106.911ZM401.664 102.064L404.817 99.6409L402.989 97.2623L399.836 99.6857L401.664 102.064ZM407.97 97.2174L411.123 94.7939L409.295 92.4153L406.142 94.8388L407.97 97.2174ZM414.276 92.3704L417.429 89.947L415.601 87.5684L412.448 89.9918L414.276 92.3704ZM420.582 87.5235L423.736 85.1L421.907 82.7214L418.754 85.1449L420.582 87.5235ZM426.889 82.6766L430.042 80.2531L428.213 77.8745L425.06 80.298L426.889 82.6766ZM433.195 77.8296L436.348 75.4062L434.52 73.0276L431.366 75.451L433.195 77.8296ZM439.501 72.9827L442.654 70.5592L440.826 68.1806L437.673 70.6041L439.501 72.9827ZM445.807 68.1358L448.96 65.7123L447.132 63.3337L443.979 65.7572L445.807 68.1358ZM452.113 63.2888L455.266 60.8653L453.438 58.4868L450.285 60.9102L452.113 63.2888ZM458.419 58.4419L461.572 56.0184L459.744 53.6398L456.591 56.0633L458.419 58.4419ZM464.725 53.5949L467.878 51.1715L466.05 48.7929L462.897 51.2164L464.725 53.5949ZM471.031 48.748L474.184 46.3245L472.356 43.946L469.203 46.3694L471.031 48.748ZM477.338 43.9011L478.914 42.6893L477.086 40.3107L475.509 41.5225L477.338 43.9011Z" fill="#4ECCEB"/>
<path d="M710.295 217.757C710.713 217.042 710.472 216.123 709.757 215.705L698.102 208.892C697.387 208.474 696.468 208.715 696.05 209.43C695.632 210.146 695.873 211.064 696.588 211.482L706.948 217.538L700.892 227.898C700.474 228.613 700.715 229.532 701.43 229.95C702.146 230.368 703.064 230.127 703.482 229.412L710.295 217.757ZM320.38 320.451L322.325 319.941L321.565 317.039L319.62 317.549L320.38 320.451ZM326.215 318.921L330.105 317.901L329.345 314.999L325.455 316.019L326.215 318.921ZM333.995 316.881L337.885 315.861L337.125 312.959L333.235 313.979L333.995 316.881ZM341.775 314.841L345.665 313.821L344.905 310.919L341.015 311.939L341.775 314.841ZM349.555 312.801L353.445 311.781L352.685 308.879L348.795 309.899L349.555 312.801ZM357.335 310.761L361.225 309.741L360.465 306.839L356.575 307.859L357.335 310.761ZM365.115 308.721L369.005 307.701L368.245 304.799L364.355 305.819L365.115 308.721ZM372.895 306.681L376.785 305.661L376.025 302.759L372.135 303.779L372.895 306.681ZM380.675 304.641L384.565 303.621L383.805 300.719L379.915 301.739L380.675 304.641ZM388.455 302.601L392.345 301.581L391.585 298.679L387.695 299.699L388.455 302.601ZM396.235 300.561L400.125 299.541L399.365 296.639L395.475 297.659L396.235 300.561ZM404.015 298.521L407.905 297.501L407.145 294.599L403.255 295.619L404.015 298.521ZM411.795 296.481L415.685 295.461L414.925 292.559L411.035 293.579L411.795 296.481ZM419.575 294.441L423.465 293.421L422.705 290.519L418.815 291.539L419.575 294.441ZM427.355 292.401L431.245 291.381L430.485 288.479L426.595 289.499L427.355 292.401ZM435.135 290.361L439.025 289.341L438.265 286.439L434.375 287.459L435.135 290.361ZM442.915 288.321L446.805 287.301L446.045 284.399L442.155 285.419L442.915 288.321ZM450.695 286.281L454.585 285.261L453.825 282.359L449.935 283.379L450.695 286.281ZM458.475 284.241L462.365 283.221L461.605 280.319L457.715 281.339L458.475 284.241ZM466.255 282.201L470.145 281.181L469.385 278.279L465.495 279.299L466.255 282.201ZM474.035 280.161L477.925 279.141L477.165 276.239L473.275 277.259L474.035 280.161ZM481.815 278.121L485.705 277.101L484.945 274.199L481.055 275.219L481.815 278.121ZM489.595 276.081L493.485 275.061L492.725 272.159L488.835 273.179L489.595 276.081ZM497.375 274.041L501.265 273.021L500.505 270.119L496.615 271.139L497.375 274.041ZM505.155 272.001L509.045 270.981L508.284 268.079L504.394 269.099L505.155 272.001ZM512.935 269.961L516.825 268.941L516.064 266.039L512.174 267.059L512.935 269.961ZM520.715 267.921L524.605 266.901L523.844 263.999L519.954 265.019L520.715 267.921ZM528.495 265.881L532.385 264.861L531.624 261.959L527.734 262.979L528.495 265.881ZM536.275 263.841L540.165 262.821L539.404 259.919L535.514 260.939L536.275 263.841ZM544.055 261.801L547.945 260.781L547.184 257.879L543.294 258.899L544.055 261.801ZM551.835 259.761L555.725 258.741L554.964 255.839L551.074 256.859L551.835 259.761ZM559.615 257.721L563.505 256.701L562.744 253.799L558.854 254.819L559.615 257.721ZM567.395 255.681L571.285 254.661L570.524 251.759L566.634 252.779L567.395 255.681ZM575.175 253.641L579.065 252.621L578.304 249.719L574.414 250.739L575.175 253.641ZM582.955 251.601L586.845 250.581L586.084 247.679L582.194 248.699L582.955 251.601ZM590.735 249.561L594.625 248.541L593.864 245.639L589.974 246.659L590.735 249.561ZM598.515 247.521L602.405 246.501L601.645 243.599L597.754 244.619L598.515 247.521ZM606.295 245.481L610.185 244.461L609.425 241.559L605.535 242.579L606.295 245.481ZM614.075 243.441L617.965 242.421L617.205 239.519L613.315 240.539L614.075 243.441ZM621.855 241.401L625.745 240.381L624.985 237.479L621.095 238.499L621.855 241.401ZM629.635 239.361L633.525 238.341L632.765 235.439L628.875 236.459L629.635 239.361ZM637.416 237.321L641.305 236.301L640.545 233.399L636.655 234.419L637.416 237.321ZM645.196 235.281L649.086 234.261L648.325 231.359L644.435 232.379L645.196 235.281ZM652.976 233.241L656.866 232.221L656.105 229.319L652.215 230.339L652.976 233.241ZM660.756 231.201L664.646 230.181L663.885 227.279L659.995 228.299L660.756 231.201ZM668.536 229.161L672.426 228.141L671.665 225.239L667.775 226.259L668.536 229.161ZM676.316 227.121L680.206 226.101L679.445 223.199L675.555 224.219L676.316 227.121ZM684.096 225.081L687.986 224.061L687.225 221.159L683.335 222.179L684.096 225.081ZM691.876 223.041L695.766 222.021L695.005 219.119L691.115 220.139L691.876 223.041ZM699.656 221.001L703.546 219.981L702.785 217.079L698.895 218.099L699.656 221.001ZM707.436 218.961L709.38 218.451L708.62 215.549L706.675 216.059L707.436 218.961Z" fill="#4ECCEB"/>
<path d="M605.298 558.249C605.713 558.966 605.468 559.884 604.751 560.298L593.065 567.058C592.348 567.473 591.431 567.228 591.016 566.511C590.601 565.793 590.846 564.876 591.563 564.461L601.951 558.453L595.942 548.065C595.527 547.348 595.772 546.43 596.489 546.016C597.207 545.601 598.124 545.846 598.539 546.563L605.298 558.249ZM282.387 471.551L284.304 472.063L283.53 474.961L281.613 474.449L282.387 471.551ZM288.137 473.087L291.97 474.11L291.196 477.009L287.363 475.985L288.137 473.087ZM295.804 475.134L299.637 476.158L298.863 479.056L295.03 478.033L295.804 475.134ZM303.47 477.182L307.304 478.206L306.53 481.104L302.696 480.08L303.47 477.182ZM311.137 479.229L314.97 480.253L314.196 483.152L310.363 482.128L311.137 479.229ZM318.804 481.277L322.637 482.301L321.863 485.199L318.03 484.175L318.804 481.277ZM326.47 483.325L330.304 484.348L329.53 487.247L325.696 486.223L326.47 483.325ZM334.137 485.372L337.97 486.396L337.196 489.294L333.363 488.271L334.137 485.372ZM341.804 487.42L345.637 488.444L344.863 491.342L341.03 490.318L341.804 487.42ZM349.47 489.467L353.304 490.491L352.53 493.39L348.696 492.366L349.47 489.467ZM357.137 491.515L360.97 492.539L360.196 495.437L356.363 494.413L357.137 491.515ZM364.804 493.563L368.637 494.587L367.863 497.485L364.03 496.461L364.804 493.563ZM372.47 495.61L376.304 496.634L375.53 499.533L371.696 498.509L372.47 495.61ZM380.137 497.658L383.97 498.682L383.196 501.58L379.363 500.556L380.137 497.658ZM387.804 499.706L391.637 500.729L390.863 503.628L387.03 502.604L387.804 499.706ZM395.47 501.753L399.304 502.777L398.53 505.675L394.696 504.652L395.47 501.753ZM403.137 503.801L406.97 504.825L406.196 507.723L402.363 506.699L403.137 503.801ZM410.804 505.848L414.637 506.872L413.863 509.771L410.03 508.747L410.804 505.848ZM418.47 507.896L422.304 508.92L421.53 511.818L417.696 510.794L418.47 507.896ZM426.137 509.944L429.97 510.967L429.196 513.866L425.363 512.842L426.137 509.944ZM433.804 511.991L437.637 513.015L436.863 515.913L433.03 514.89L433.804 511.991ZM441.47 514.039L445.304 515.063L444.53 517.961L440.696 516.937L441.47 514.039ZM449.137 516.087L452.97 517.11L452.196 520.009L448.363 518.985L449.137 516.087ZM456.804 518.134L460.637 519.158L459.863 522.056L456.03 521.033L456.804 518.134ZM464.47 520.182L468.304 521.206L467.53 524.104L463.696 523.08L464.47 520.182ZM472.137 522.229L475.97 523.253L475.196 526.152L471.363 525.128L472.137 522.229ZM479.804 524.277L483.637 525.301L482.863 528.199L479.03 527.175L479.804 524.277ZM487.47 526.325L491.304 527.348L490.53 530.247L486.696 529.223L487.47 526.325ZM495.137 528.372L498.97 529.396L498.196 532.294L494.363 531.271L495.137 528.372ZM502.804 530.42L506.637 531.444L505.863 534.342L502.03 533.318L502.804 530.42ZM510.47 532.467L514.304 533.491L513.53 536.39L509.696 535.366L510.47 532.467ZM518.137 534.515L521.97 535.539L521.196 538.437L517.363 537.413L518.137 534.515ZM525.804 536.563L529.637 537.586L528.863 540.485L525.03 539.461L525.804 536.563ZM533.47 538.61L537.304 539.634L536.53 542.533L532.696 541.509L533.47 538.61ZM541.137 540.658L544.97 541.682L544.196 544.58L540.363 543.556L541.137 540.658ZM548.804 542.706L552.637 543.729L551.863 546.628L548.03 545.604L548.804 542.706ZM556.47 544.753L560.304 545.777L559.53 548.675L555.696 547.652L556.47 544.753ZM564.137 546.801L567.97 547.825L567.196 550.723L563.363 549.699L564.137 546.801ZM571.804 548.848L575.637 549.872L574.863 552.771L571.03 551.747L571.804 548.848ZM579.47 550.896L583.304 551.92L582.53 554.818L578.696 553.794L579.47 550.896ZM587.137 552.944L590.971 553.967L590.196 556.866L586.363 555.842L587.137 552.944ZM594.804 554.991L598.637 556.015L597.863 558.914L594.03 557.89L594.804 554.991ZM602.471 557.039L604.387 557.551L603.613 560.449L601.696 559.937L602.471 557.039Z" fill="#4ECCEB"/>
<path d="M119.902 236V214.88H128.222C130.76 214.88 132.616 215.392 133.79 216.416C134.963 217.44 135.55 218.859 135.55 220.672C135.55 221.781 135.23 222.773 134.59 223.648C133.95 224.501 133.011 225.045 131.774 225.28V225.312C133.139 225.525 134.195 226.091 134.942 227.008C135.71 227.904 136.094 228.949 136.094 230.144C136.094 231.957 135.432 233.387 134.11 234.432C132.787 235.477 130.867 236 128.35 236H119.902ZM123.262 233.152H128.51C129.854 233.152 130.856 232.875 131.518 232.32C132.2 231.765 132.542 230.987 132.542 229.984C132.542 228.981 132.2 228.203 131.518 227.648C130.856 227.093 129.854 226.816 128.51 226.816H123.262V233.152ZM123.262 223.968H127.966C130.654 223.968 131.998 222.933 131.998 220.864C131.998 218.795 130.654 217.76 127.966 217.76H123.262V223.968ZM149.857 225.728C149.857 224.661 149.558 223.84 148.961 223.264C148.385 222.667 147.585 222.368 146.561 222.368C145.601 222.368 144.78 222.592 144.097 223.04C143.414 223.488 142.913 224.213 142.593 225.216L139.713 224C140.118 222.699 140.908 221.653 142.081 220.864C143.276 220.075 144.812 219.68 146.689 219.68C147.969 219.68 149.1 219.893 150.081 220.32C151.062 220.725 151.83 221.344 152.385 222.176C152.961 223.008 153.249 224.075 153.249 225.376V232.512C153.249 233.301 153.644 233.696 154.433 233.696C154.817 233.696 155.19 233.643 155.553 233.536L155.361 235.904C154.87 236.139 154.252 236.256 153.505 236.256C152.822 236.256 152.204 236.139 151.649 235.904C151.116 235.648 150.689 235.275 150.369 234.784C150.07 234.272 149.921 233.643 149.921 232.896V232.672L150.625 232.64C150.433 233.472 150.038 234.165 149.441 234.72C148.844 235.253 148.15 235.659 147.361 235.936C146.572 236.192 145.772 236.32 144.961 236.32C143.958 236.32 143.052 236.16 142.241 235.84C141.452 235.52 140.822 235.04 140.353 234.4C139.905 233.739 139.681 232.928 139.681 231.968C139.681 230.773 140.065 229.792 140.833 229.024C141.622 228.256 142.732 227.733 144.161 227.456L150.369 226.24L150.337 228.64L145.825 229.568C144.929 229.739 144.257 229.984 143.809 230.304C143.361 230.624 143.137 231.093 143.137 231.712C143.137 232.309 143.361 232.789 143.809 233.152C144.278 233.493 144.897 233.664 145.665 233.664C146.198 233.664 146.71 233.6 147.201 233.472C147.713 233.344 148.172 233.141 148.577 232.864C148.982 232.565 149.292 232.192 149.505 231.744C149.74 231.275 149.857 230.72 149.857 230.08V225.728ZM165.74 219.68C167.02 219.68 168.108 219.872 169.004 220.256C169.921 220.619 170.689 221.141 171.308 221.824C171.927 222.507 172.396 223.285 172.716 224.16L169.484 225.44C169.207 224.459 168.759 223.712 168.14 223.2C167.543 222.667 166.753 222.4 165.772 222.4C164.812 222.4 163.991 222.624 163.308 223.072C162.625 223.499 162.103 224.128 161.74 224.96C161.399 225.792 161.228 226.816 161.228 228.032C161.228 229.227 161.409 230.24 161.772 231.072C162.135 231.904 162.657 232.533 163.34 232.96C164.023 233.387 164.833 233.6 165.772 233.6C166.497 233.6 167.127 233.483 167.66 233.248C168.193 232.992 168.631 232.64 168.972 232.192C169.335 231.723 169.58 231.157 169.708 230.496L172.812 231.552C172.513 232.512 172.044 233.355 171.404 234.08C170.785 234.784 170.007 235.339 169.068 235.744C168.129 236.128 167.052 236.32 165.836 236.32C164.257 236.32 162.86 235.989 161.644 235.328C160.428 234.667 159.479 233.717 158.796 232.48C158.135 231.221 157.804 229.728 157.804 228C157.804 226.272 158.135 224.789 158.796 223.552C159.479 222.293 160.417 221.333 161.612 220.672C162.828 220.011 164.204 219.68 165.74 219.68ZM191.901 220L184.765 227.296L184.029 227.808L179.005 233.024L178.973 229.12L187.837 220H191.901ZM180.221 212.8V236H176.797V212.8H180.221ZM185.181 225.376L192.285 236H188.317L182.621 227.328L185.181 225.376ZM197.181 217.312C196.434 217.312 195.858 217.131 195.453 216.768C195.069 216.384 194.877 215.851 194.877 215.168C194.877 214.485 195.069 213.963 195.453 213.6C195.858 213.237 196.434 213.056 197.181 213.056C197.906 213.056 198.461 213.237 198.845 213.6C199.25 213.963 199.453 214.485 199.453 215.168C199.453 215.851 199.25 216.384 198.845 216.768C198.461 217.131 197.906 217.312 197.181 217.312ZM198.877 220V236H195.453V220H198.877ZM204.234 236V220H207.274L207.498 224.16L207.05 223.712C207.349 222.795 207.775 222.037 208.33 221.44C208.906 220.821 209.578 220.373 210.346 220.096C211.135 219.819 211.967 219.68 212.842 219.68C213.973 219.68 214.986 219.904 215.882 220.352C216.799 220.779 217.525 221.429 218.058 222.304C218.591 223.179 218.858 224.288 218.858 225.632V236H215.434V226.688C215.434 225.109 215.103 224.021 214.442 223.424C213.802 222.805 212.991 222.496 212.01 222.496C211.306 222.496 210.623 222.667 209.962 223.008C209.301 223.328 208.746 223.851 208.298 224.576C207.871 225.301 207.658 226.272 207.658 227.488V236H204.234ZM238.127 216.64L238.671 219.328C238.607 219.328 238.543 219.328 238.479 219.328C238.415 219.307 238.351 219.296 238.287 219.296C237.263 219.296 236.484 219.52 235.951 219.968C235.417 220.395 235.151 221.024 235.151 221.856L233.487 221.088C233.487 220.235 233.668 219.477 234.031 218.816C234.393 218.133 234.905 217.6 235.567 217.216C236.249 216.832 237.017 216.64 237.871 216.64C237.913 216.64 237.956 216.64 237.999 216.64C238.041 216.64 238.084 216.64 238.127 216.64ZM233.071 233.504C234.692 233.504 235.951 233.867 236.847 234.592C237.743 235.296 238.191 236.277 238.191 237.536C238.191 238.645 237.839 239.595 237.135 240.384C236.431 241.195 235.471 241.813 234.255 242.24C233.06 242.667 231.684 242.88 230.127 242.88C227.503 242.88 225.561 242.475 224.303 241.664C223.044 240.853 222.415 239.84 222.415 238.624C222.415 237.771 222.713 237.024 223.311 236.384C223.929 235.744 224.964 235.381 226.415 235.296L226.223 235.808C225.327 235.616 224.601 235.275 224.047 234.784C223.513 234.272 223.247 233.557 223.247 232.64C223.247 231.723 223.599 230.944 224.303 230.304C225.007 229.664 225.999 229.291 227.279 229.184L229.071 230.048H228.687C227.705 230.133 227.012 230.357 226.607 230.72C226.201 231.083 225.999 231.488 225.999 231.936C225.999 232.469 226.191 232.864 226.575 233.12C226.98 233.376 227.545 233.504 228.271 233.504H233.071ZM230.127 240.32C231.3 240.32 232.26 240.203 233.007 239.968C233.775 239.755 234.34 239.467 234.703 239.104C235.087 238.763 235.279 238.379 235.279 237.952C235.279 237.461 235.076 237.067 234.671 236.768C234.287 236.469 233.583 236.32 232.559 236.32H227.407C226.809 236.32 226.308 236.469 225.903 236.768C225.497 237.088 225.295 237.515 225.295 238.048C225.295 238.752 225.721 239.307 226.575 239.712C227.428 240.117 228.612 240.32 230.127 240.32ZM229.999 219.68C231.407 219.68 232.623 219.904 233.647 220.352C234.692 220.8 235.492 221.429 236.047 222.24C236.623 223.051 236.911 224 236.911 225.088C236.911 226.176 236.623 227.125 236.047 227.936C235.492 228.747 234.692 229.376 233.647 229.824C232.623 230.272 231.407 230.496 229.999 230.496C227.78 230.496 226.073 230.005 224.879 229.024C223.705 228.021 223.119 226.709 223.119 225.088C223.119 224 223.407 223.051 223.983 222.24C224.559 221.429 225.359 220.8 226.383 220.352C227.428 219.904 228.633 219.68 229.999 219.68ZM229.999 222.08C229.017 222.08 228.196 222.357 227.535 222.912C226.895 223.445 226.575 224.171 226.575 225.088C226.575 226.005 226.895 226.741 227.535 227.296C228.196 227.851 229.017 228.128 229.999 228.128C231.001 228.128 231.823 227.851 232.463 227.296C233.124 226.741 233.455 226.005 233.455 225.088C233.455 224.171 233.124 223.445 232.463 222.912C231.823 222.357 231.001 222.08 229.999 222.08ZM265.814 216.64L266.358 219.328C266.294 219.328 266.23 219.328 266.166 219.328C266.102 219.307 266.038 219.296 265.974 219.296C264.95 219.296 264.171 219.52 263.638 219.968C263.105 220.395 262.838 221.024 262.838 221.856L261.174 221.088C261.174 220.235 261.355 219.477 261.718 218.816C262.081 218.133 262.593 217.6 263.254 217.216C263.937 216.832 264.705 216.64 265.558 216.64C265.601 216.64 265.643 216.64 265.686 216.64C265.729 216.64 265.771 216.64 265.814 216.64ZM260.758 233.504C262.379 233.504 263.638 233.867 264.534 234.592C265.43 235.296 265.878 236.277 265.878 237.536C265.878 238.645 265.526 239.595 264.822 240.384C264.118 241.195 263.158 241.813 261.942 242.24C260.747 242.667 259.371 242.88 257.814 242.88C255.19 242.88 253.249 242.475 251.99 241.664C250.731 240.853 250.102 239.84 250.102 238.624C250.102 237.771 250.401 237.024 250.998 236.384C251.617 235.744 252.651 235.381 254.102 235.296L253.91 235.808C253.014 235.616 252.289 235.275 251.734 234.784C251.201 234.272 250.934 233.557 250.934 232.64C250.934 231.723 251.286 230.944 251.99 230.304C252.694 229.664 253.686 229.291 254.966 229.184L256.758 230.048H256.374C255.393 230.133 254.699 230.357 254.294 230.72C253.889 231.083 253.686 231.488 253.686 231.936C253.686 232.469 253.878 232.864 254.262 233.12C254.667 233.376 255.233 233.504 255.958 233.504H260.758ZM257.814 240.32C258.987 240.32 259.947 240.203 260.694 239.968C261.462 239.755 262.027 239.467 262.39 239.104C262.774 238.763 262.966 238.379 262.966 237.952C262.966 237.461 262.763 237.067 262.358 236.768C261.974 236.469 261.27 236.32 260.246 236.32H255.094C254.497 236.32 253.995 236.469 253.59 236.768C253.185 237.088 252.982 237.515 252.982 238.048C252.982 238.752 253.409 239.307 254.262 239.712C255.115 240.117 256.299 240.32 257.814 240.32ZM257.686 219.68C259.094 219.68 260.31 219.904 261.334 220.352C262.379 220.8 263.179 221.429 263.734 222.24C264.31 223.051 264.598 224 264.598 225.088C264.598 226.176 264.31 227.125 263.734 227.936C263.179 228.747 262.379 229.376 261.334 229.824C260.31 230.272 259.094 230.496 257.686 230.496C255.467 230.496 253.761 230.005 252.566 229.024C251.393 228.021 250.806 226.709 250.806 225.088C250.806 224 251.094 223.051 251.67 222.24C252.246 221.429 253.046 220.8 254.07 220.352C255.115 219.904 256.321 219.68 257.686 219.68ZM257.686 222.08C256.705 222.08 255.883 222.357 255.222 222.912C254.582 223.445 254.262 224.171 254.262 225.088C254.262 226.005 254.582 226.741 255.222 227.296C255.883 227.851 256.705 228.128 257.686 228.128C258.689 228.128 259.51 227.851 260.15 227.296C260.811 226.741 261.142 226.005 261.142 225.088C261.142 224.171 260.811 223.445 260.15 222.912C259.51 222.357 258.689 222.08 257.686 222.08ZM269.015 236V220H271.927L272.247 222.88C272.674 221.835 273.303 221.045 274.135 220.512C274.989 219.957 276.034 219.68 277.271 219.68C277.591 219.68 277.911 219.712 278.231 219.776C278.551 219.819 278.818 219.893 279.031 220L278.551 223.008C278.317 222.923 278.05 222.859 277.751 222.816C277.474 222.752 277.09 222.72 276.599 222.72C275.938 222.72 275.287 222.901 274.647 223.264C274.007 223.605 273.474 224.128 273.047 224.832C272.642 225.536 272.439 226.432 272.439 227.52V236H269.015ZM288.803 219.68C290.36 219.68 291.736 220.011 292.931 220.672C294.126 221.333 295.054 222.293 295.715 223.552C296.398 224.789 296.739 226.272 296.739 228C296.739 229.728 296.398 231.221 295.715 232.48C295.054 233.717 294.126 234.667 292.931 235.328C291.736 235.989 290.36 236.32 288.803 236.32C287.246 236.32 285.87 235.989 284.675 235.328C283.48 234.667 282.542 233.717 281.859 232.48C281.176 231.221 280.835 229.728 280.835 228C280.835 226.272 281.176 224.789 281.859 223.552C282.542 222.293 283.48 221.333 284.675 220.672C285.87 220.011 287.246 219.68 288.803 219.68ZM288.803 222.368C287.843 222.368 287.022 222.592 286.339 223.04C285.678 223.467 285.166 224.096 284.803 224.928C284.44 225.76 284.259 226.784 284.259 228C284.259 229.195 284.44 230.219 284.803 231.072C285.166 231.904 285.678 232.544 286.339 232.992C287.022 233.419 287.843 233.632 288.803 233.632C289.763 233.632 290.574 233.419 291.235 232.992C291.896 232.544 292.408 231.904 292.771 231.072C293.134 230.219 293.315 229.195 293.315 228C293.315 226.784 293.134 225.76 292.771 224.928C292.408 224.096 291.896 223.467 291.235 223.04C290.574 222.592 289.763 222.368 288.803 222.368ZM306.743 236.32C305.697 236.32 304.727 236.128 303.831 235.744C302.956 235.36 302.252 234.741 301.719 233.888C301.185 233.035 300.919 231.925 300.919 230.56V220H304.343V229.696C304.343 231.147 304.652 232.149 305.271 232.704C305.889 233.237 306.753 233.504 307.863 233.504C308.396 233.504 308.908 233.419 309.399 233.248C309.911 233.056 310.369 232.768 310.775 232.384C311.18 231.979 311.489 231.467 311.703 230.848C311.937 230.229 312.055 229.504 312.055 228.672V220H315.479V236H312.471L312.311 233.408C311.756 234.411 311.009 235.147 310.071 235.616C309.132 236.085 308.023 236.32 306.743 236.32ZM320.828 242.72V220H323.868L324.124 224.48L323.676 223.936C323.932 223.104 324.327 222.368 324.86 221.728C325.393 221.088 326.055 220.587 326.844 220.224C327.655 219.861 328.54 219.68 329.5 219.68C330.801 219.68 331.985 220.011 333.052 220.672C334.119 221.333 334.961 222.283 335.58 223.52C336.199 224.736 336.508 226.219 336.508 227.968C336.508 229.717 336.188 231.221 335.548 232.48C334.929 233.717 334.076 234.667 332.988 235.328C331.921 235.989 330.727 236.32 329.404 236.32C328.039 236.32 326.876 235.968 325.916 235.264C324.956 234.539 324.273 233.621 323.868 232.512L324.252 231.968V242.72H320.828ZM328.668 233.536C330.055 233.536 331.132 233.045 331.9 232.064C332.689 231.083 333.084 229.728 333.084 228C333.084 226.272 332.7 224.917 331.932 223.936C331.164 222.933 330.097 222.432 328.732 222.432C327.836 222.432 327.047 222.667 326.364 223.136C325.703 223.584 325.18 224.224 324.796 225.056C324.433 225.867 324.252 226.848 324.252 228C324.252 229.131 324.433 230.112 324.796 230.944C325.159 231.776 325.671 232.416 326.332 232.864C326.993 233.312 327.772 233.536 328.668 233.536Z" fill="white"/>
<path d="M358.151 64.52C359.476 64.52 360.615 64.7533 361.567 65.22C362.538 65.6867 363.294 66.3493 363.835 67.208C364.376 68.0667 364.647 69.1027 364.647 70.316C364.647 71.5107 364.376 72.5467 363.835 73.424C363.294 74.2827 362.538 74.9453 361.567 75.412C360.615 75.8787 359.476 76.112 358.151 76.112H354.035V83H351.039V64.52H358.151ZM357.675 73.536C359 73.536 359.971 73.2653 360.587 72.724C361.222 72.164 361.539 71.3613 361.539 70.316C361.539 69.252 361.222 68.4493 360.587 67.908C359.971 67.348 359 67.068 357.675 67.068H354.035V73.536H357.675ZM376.266 64.24C378.058 64.24 379.607 64.6227 380.914 65.388C382.22 66.1533 383.228 67.2453 383.938 68.664C384.647 70.0827 385.002 71.7813 385.002 73.76C385.002 75.7387 384.647 77.4373 383.938 78.856C383.228 80.2747 382.22 81.3667 380.914 82.132C379.607 82.8973 378.058 83.28 376.266 83.28C374.492 83.28 372.952 82.8973 371.646 82.132C370.339 81.3667 369.331 80.2747 368.622 78.856C367.912 77.4373 367.558 75.7387 367.558 73.76C367.558 71.7813 367.912 70.0827 368.622 68.664C369.331 67.2453 370.339 66.1533 371.646 65.388C372.952 64.6227 374.492 64.24 376.266 64.24ZM376.266 66.844C375.108 66.844 374.11 67.1147 373.27 67.656C372.448 68.1973 371.814 68.9813 371.366 70.008C370.918 71.0347 370.694 72.2853 370.694 73.76C370.694 75.216 370.918 76.4667 371.366 77.512C371.814 78.5387 372.448 79.3227 373.27 79.864C374.11 80.4053 375.108 80.676 376.266 80.676C377.442 80.676 378.44 80.4053 379.262 79.864C380.102 79.3227 380.746 78.5387 381.194 77.512C381.642 76.4667 381.866 75.216 381.866 73.76C381.866 72.2853 381.642 71.0347 381.194 70.008C380.746 68.9813 380.102 68.1973 379.262 67.656C378.44 67.1147 377.442 66.844 376.266 66.844ZM404.084 64.52L397.224 83H393.724L386.864 64.52H390.056L394.368 76.812L395.488 80.48L396.608 76.84L400.92 64.52H404.084Z" fill="#4ECCEB"/>
<path d="M532.151 219.52C533.476 219.52 534.615 219.753 535.567 220.22C536.538 220.687 537.294 221.349 537.835 222.208C538.376 223.067 538.647 224.103 538.647 225.316C538.647 226.511 538.376 227.547 537.835 228.424C537.294 229.283 536.538 229.945 535.567 230.412C534.615 230.879 533.476 231.112 532.151 231.112H528.035V238H525.039V219.52H532.151ZM531.675 228.536C533 228.536 533.971 228.265 534.587 227.724C535.222 227.164 535.539 226.361 535.539 225.316C535.539 224.252 535.222 223.449 534.587 222.908C533.971 222.348 533 222.068 531.675 222.068H528.035V228.536H531.675ZM550.266 219.24C552.058 219.24 553.607 219.623 554.914 220.388C556.22 221.153 557.228 222.245 557.938 223.664C558.647 225.083 559.002 226.781 559.002 228.76C559.002 230.739 558.647 232.437 557.938 233.856C557.228 235.275 556.22 236.367 554.914 237.132C553.607 237.897 552.058 238.28 550.266 238.28C548.492 238.28 546.952 237.897 545.646 237.132C544.339 236.367 543.331 235.275 542.622 233.856C541.912 232.437 541.558 230.739 541.558 228.76C541.558 226.781 541.912 225.083 542.622 223.664C543.331 222.245 544.339 221.153 545.646 220.388C546.952 219.623 548.492 219.24 550.266 219.24ZM550.266 221.844C549.108 221.844 548.11 222.115 547.27 222.656C546.448 223.197 545.814 223.981 545.366 225.008C544.918 226.035 544.694 227.285 544.694 228.76C544.694 230.216 544.918 231.467 545.366 232.512C545.814 233.539 546.448 234.323 547.27 234.864C548.11 235.405 549.108 235.676 550.266 235.676C551.442 235.676 552.44 235.405 553.262 234.864C554.102 234.323 554.746 233.539 555.194 232.512C555.642 231.467 555.866 230.216 555.866 228.76C555.866 227.285 555.642 226.035 555.194 225.008C554.746 223.981 554.102 223.197 553.262 222.656C552.44 222.115 551.442 221.844 550.266 221.844ZM578.084 219.52L571.224 238H567.724L560.864 219.52H564.056L568.368 231.812L569.488 235.48L570.608 231.84L574.92 219.52H578.084Z" fill="#4ECCEB"/>
<path d="M496.151 497.52C497.476 497.52 498.615 497.753 499.567 498.22C500.538 498.687 501.294 499.349 501.835 500.208C502.376 501.067 502.647 502.103 502.647 503.316C502.647 504.511 502.376 505.547 501.835 506.424C501.294 507.283 500.538 507.945 499.567 508.412C498.615 508.879 497.476 509.112 496.151 509.112H492.035V516H489.039V497.52H496.151ZM495.675 506.536C497 506.536 497.971 506.265 498.587 505.724C499.222 505.164 499.539 504.361 499.539 503.316C499.539 502.252 499.222 501.449 498.587 500.908C497.971 500.348 497 500.068 495.675 500.068H492.035V506.536H495.675ZM514.266 497.24C516.058 497.24 517.607 497.623 518.914 498.388C520.22 499.153 521.228 500.245 521.938 501.664C522.647 503.083 523.002 504.781 523.002 506.76C523.002 508.739 522.647 510.437 521.938 511.856C521.228 513.275 520.22 514.367 518.914 515.132C517.607 515.897 516.058 516.28 514.266 516.28C512.492 516.28 510.952 515.897 509.646 515.132C508.339 514.367 507.331 513.275 506.622 511.856C505.912 510.437 505.558 508.739 505.558 506.76C505.558 504.781 505.912 503.083 506.622 501.664C507.331 500.245 508.339 499.153 509.646 498.388C510.952 497.623 512.492 497.24 514.266 497.24ZM514.266 499.844C513.108 499.844 512.11 500.115 511.27 500.656C510.448 501.197 509.814 501.981 509.366 503.008C508.918 504.035 508.694 505.285 508.694 506.76C508.694 508.216 508.918 509.467 509.366 510.512C509.814 511.539 510.448 512.323 511.27 512.864C512.11 513.405 513.108 513.676 514.266 513.676C515.442 513.676 516.44 513.405 517.262 512.864C518.102 512.323 518.746 511.539 519.194 510.512C519.642 509.467 519.866 508.216 519.866 506.76C519.866 505.285 519.642 504.035 519.194 503.008C518.746 501.981 518.102 501.197 517.262 500.656C516.44 500.115 515.442 499.844 514.266 499.844ZM542.084 497.52L535.224 516H531.724L524.864 497.52H528.056L532.368 509.812L533.488 513.48L534.608 509.84L538.92 497.52H542.084Z" fill="#4ECCEB"/>
<path d="M522.001 49.4002L513.601 41.0002L510.801 43.8002L522.001 55.0002L546.001 31.0002L543.201 28.2002L522.001 49.4002Z" fill="white"/>
<path d="M754.001 225.4L745.601 217L742.801 219.8L754.001 231L778.001 207L775.201 204.2L754.001 225.4Z" fill="white"/>
<path d="M643.001 567.4L634.601 559L631.801 561.8L643.001 573L667.001 549L664.201 546.2L643.001 567.4Z" fill="white"/>
</svg>
