<svg width="851" height="680" viewBox="0 0 851 680" fill="none" xmlns="http://www.w3.org/2000/svg">
<circle cx="223" cy="356" r="221.5" stroke="white" stroke-width="3"/>
<rect x="126" y="279" width="77" height="77" rx="10" fill="#8D3AED"/>
<rect x="126" y="396" width="77" height="77" rx="10" fill="#8D3AED"/>
<rect x="243" y="279" width="77" height="77" rx="10" fill="#8D3AED"/>
<rect x="243" y="396" width="77" height="77" rx="10" fill="#8D3AED"/>
<rect x="487" width="81" height="81" rx="10" fill="#8D3AED"/>
<rect x="608" y="81" width="81" height="81" rx="10" fill="#8D3AED"/>
<rect x="719" y="176" width="81" height="81" rx="10" fill="#8D3AED"/>
<rect x="770" y="297" width="81" height="81" rx="10" fill="#8D3AED"/>
<rect x="719" y="427" width="81" height="81" rx="10" fill="#8D3AED"/>
<rect x="608" y="518" width="81" height="81" rx="10" fill="#8D3AED"/>
<rect x="487" y="599" width="81" height="81" rx="10" fill="#8D3AED"/>
<path d="M479.487 41.6946C479.595 40.8732 479.016 40.1201 478.195 40.0127L464.809 38.2614C463.987 38.1539 463.234 38.7327 463.127 39.5541C463.019 40.3755 463.598 41.1285 464.419 41.236L476.318 42.7927L474.761 54.6913C474.654 55.5128 475.233 56.2658 476.054 56.3732C476.876 56.4807 477.629 55.9019 477.736 55.0805L479.487 41.6946ZM169.914 280.189L171.491 278.978L169.662 276.599L168.086 277.811L169.914 280.189ZM174.644 276.554L177.797 274.131L175.969 271.752L172.815 274.176L174.644 276.554ZM180.95 271.707L184.103 269.284L182.275 266.905L179.122 269.329L180.95 271.707ZM187.256 266.86L190.409 264.437L188.581 262.058L185.428 264.482L187.256 266.86ZM193.562 262.013L196.715 259.59L194.887 257.211L191.734 259.635L193.562 262.013ZM199.868 257.166L203.021 254.743L201.193 252.364L198.04 254.788L199.868 257.166ZM206.174 252.319L209.327 249.896L207.499 247.517L204.346 249.941L206.174 252.319ZM212.48 247.472L215.633 245.049L213.805 242.67L210.652 245.094L212.48 247.472ZM218.787 242.626L221.94 240.202L220.111 237.823L216.958 240.247L218.787 242.626ZM225.093 237.779L228.246 235.355L226.418 232.977L223.264 235.4L225.093 237.779ZM231.399 232.932L234.552 230.508L232.724 228.13L229.571 230.553L231.399 232.932ZM237.705 228.085L240.858 225.661L239.03 223.283L235.877 225.706L237.705 228.085ZM244.011 223.238L247.164 220.814L245.336 218.436L242.183 220.859L244.011 223.238ZM250.317 218.391L253.47 215.967L251.642 213.589L248.489 216.012L250.317 218.391ZM256.623 213.544L259.776 211.12L257.948 208.742L254.795 211.165L256.623 213.544ZM262.929 208.697L266.082 206.273L264.254 203.895L261.101 206.318L262.929 208.697ZM269.236 203.85L272.389 201.427L270.56 199.048L267.407 201.471L269.236 203.85ZM275.542 199.003L278.695 196.58L276.866 194.201L273.713 196.624L275.542 199.003ZM281.848 194.156L285.001 191.733L283.173 189.354L280.02 191.778L281.848 194.156ZM288.154 189.309L291.307 186.886L289.479 184.507L286.326 186.931L288.154 189.309ZM294.46 184.462L297.613 182.039L295.785 179.66L292.632 182.084L294.46 184.462ZM300.766 179.615L303.919 177.192L302.091 174.813L298.938 177.237L300.766 179.615ZM307.072 174.768L310.225 172.345L308.397 169.966L305.244 172.39L307.072 174.768ZM313.378 169.921L316.531 167.498L314.703 165.119L311.55 167.543L313.378 169.921ZM319.684 165.075L322.838 162.651L321.009 160.272L317.856 162.696L319.684 165.075ZM325.991 160.228L329.144 157.804L327.315 155.426L324.162 157.849L325.991 160.228ZM332.297 155.381L335.45 152.957L333.622 150.579L330.469 153.002L332.297 155.381ZM338.603 150.534L341.756 148.11L339.928 145.732L336.775 148.155L338.603 150.534ZM344.909 145.687L348.062 143.263L346.234 140.885L343.081 143.308L344.909 145.687ZM351.215 140.84L354.368 138.416L352.54 136.038L349.387 138.461L351.215 140.84ZM357.521 135.993L360.674 133.569L358.846 131.191L355.693 133.614L357.521 135.993ZM363.827 131.146L366.98 128.722L365.152 126.344L361.999 128.767L363.827 131.146ZM370.133 126.299L373.287 123.876L371.458 121.497L368.305 123.92L370.133 126.299ZM376.44 121.452L379.593 119.029L377.764 116.65L374.611 119.073L376.44 121.452ZM382.746 116.605L385.899 114.182L384.071 111.803L380.918 114.227L382.746 116.605ZM389.052 111.758L392.205 109.335L390.377 106.956L387.224 109.38L389.052 111.758ZM395.358 106.911L398.511 104.488L396.683 102.109L393.53 104.533L395.358 106.911ZM401.664 102.064L404.817 99.6409L402.989 97.2623L399.836 99.6857L401.664 102.064ZM407.97 97.2174L411.123 94.7939L409.295 92.4153L406.142 94.8388L407.97 97.2174ZM414.276 92.3704L417.429 89.947L415.601 87.5684L412.448 89.9918L414.276 92.3704ZM420.582 87.5235L423.736 85.1L421.907 82.7214L418.754 85.1449L420.582 87.5235ZM426.889 82.6766L430.042 80.2531L428.213 77.8745L425.06 80.298L426.889 82.6766ZM433.195 77.8296L436.348 75.4062L434.52 73.0276L431.366 75.451L433.195 77.8296ZM439.501 72.9827L442.654 70.5592L440.826 68.1806L437.673 70.6041L439.501 72.9827ZM445.807 68.1358L448.96 65.7123L447.132 63.3337L443.979 65.7572L445.807 68.1358ZM452.113 63.2888L455.266 60.8653L453.438 58.4868L450.285 60.9102L452.113 63.2888ZM458.419 58.4419L461.572 56.0184L459.744 53.6398L456.591 56.0633L458.419 58.4419ZM464.725 53.5949L467.878 51.1715L466.05 48.7929L462.897 51.2164L464.725 53.5949ZM471.031 48.748L474.184 46.3245L472.356 43.946L469.203 46.3694L471.031 48.748ZM477.338 43.9011L478.914 42.6893L477.086 40.3107L475.509 41.5225L477.338 43.9011Z" fill="#4ECCEB"/>
<path d="M598.422 122.476C598.685 121.691 598.262 120.841 597.476 120.578L584.674 116.292C583.889 116.029 583.039 116.453 582.776 117.239C582.513 118.024 582.936 118.874 583.722 119.137L595.101 122.946L591.292 134.326C591.029 135.111 591.453 135.961 592.239 136.224C593.024 136.487 593.874 136.064 594.137 135.278L598.422 122.476ZM282.669 280.342L284.459 279.45L283.121 276.765L281.331 277.658L282.669 280.342ZM288.038 277.666L291.618 275.882L290.28 273.197L286.7 274.981L288.038 277.666ZM295.198 274.098L298.777 272.314L297.439 269.629L293.859 271.413L295.198 274.098ZM302.357 270.53L305.936 268.746L304.598 266.061L301.018 267.845L302.357 270.53ZM309.516 266.962L313.095 265.178L311.757 262.493L308.177 264.277L309.516 266.962ZM316.675 263.394L320.254 261.61L318.916 258.925L315.337 260.709L316.675 263.394ZM323.834 259.825L327.413 258.041L326.075 255.356L322.496 257.14L323.834 259.825ZM330.993 256.257L334.573 254.473L333.234 251.788L329.655 253.572L330.993 256.257ZM338.152 252.689L341.732 250.905L340.393 248.22L336.814 250.004L338.152 252.689ZM345.311 249.121L348.891 247.337L347.552 244.652L343.973 246.436L345.311 249.121ZM352.47 245.553L356.05 243.769L354.712 241.084L351.132 242.868L352.47 245.553ZM359.629 241.985L363.209 240.2L361.871 237.515L358.291 239.3L359.629 241.985ZM366.788 238.416L370.368 236.632L369.03 233.947L365.45 235.731L366.788 238.416ZM373.948 234.848L377.527 233.064L376.189 230.379L372.609 232.163L373.948 234.848ZM381.107 231.28L384.686 229.496L383.348 226.811L379.768 228.595L381.107 231.28ZM388.266 227.712L391.845 225.928L390.507 223.243L386.928 225.027L388.266 227.712ZM395.425 224.144L399.004 222.36L397.666 219.675L394.087 221.459L395.425 224.144ZM402.584 220.575L406.163 218.791L404.825 216.106L401.246 217.89L402.584 220.575ZM409.743 217.007L413.323 215.223L411.984 212.538L408.405 214.322L409.743 217.007ZM416.902 213.439L420.482 211.655L419.143 208.97L415.564 210.754L416.902 213.439ZM424.061 209.871L427.641 208.087L426.302 205.402L422.723 207.186L424.061 209.871ZM431.22 206.303L434.8 204.519L433.462 201.834L429.882 203.618L431.22 206.303ZM438.379 202.735L441.959 200.95L440.621 198.265L437.041 200.05L438.379 202.735ZM445.538 199.166L449.118 197.382L447.78 194.697L444.2 196.481L445.538 199.166ZM452.698 195.598L456.277 193.814L454.939 191.129L451.359 192.913L452.698 195.598ZM459.857 192.03L463.436 190.246L462.098 187.561L458.518 189.345L459.857 192.03ZM467.016 188.462L470.595 186.678L469.257 183.993L465.677 185.777L467.016 188.462ZM474.175 184.894L477.754 183.11L476.416 180.425L472.837 182.209L474.175 184.894ZM481.334 181.325L484.913 179.541L483.575 176.856L479.996 178.64L481.334 181.325ZM488.493 177.757L492.072 175.973L490.734 173.288L487.155 175.072L488.493 177.757ZM495.652 174.189L499.232 172.405L497.893 169.72L494.314 171.504L495.652 174.189ZM502.811 170.621L506.391 168.837L505.052 166.152L501.473 167.936L502.811 170.621ZM509.97 167.053L513.55 165.269L512.212 162.584L508.632 164.368L509.97 167.053ZM517.129 163.485L520.709 161.7L519.371 159.016L515.791 160.8L517.129 163.485ZM524.288 159.916L527.868 158.132L526.53 155.447L522.95 157.231L524.288 159.916ZM531.447 156.348L535.027 154.564L533.689 151.879L530.109 153.663L531.447 156.348ZM538.607 152.78L542.186 150.996L540.848 148.311L537.268 150.095L538.607 152.78ZM545.766 149.212L549.345 147.428L548.007 144.743L544.427 146.527L545.766 149.212ZM552.925 145.644L556.504 143.86L555.166 141.175L551.586 142.959L552.925 145.644ZM560.084 142.076L563.663 140.291L562.325 137.606L558.746 139.391L560.084 142.076ZM567.243 138.507L570.822 136.723L569.484 134.038L565.905 135.822L567.243 138.507ZM574.402 134.939L577.981 133.155L576.643 130.47L573.064 132.254L574.402 134.939ZM581.561 131.371L585.141 129.587L583.802 126.902L580.223 128.686L581.561 131.371ZM588.72 127.803L592.3 126.019L590.961 123.334L587.382 125.118L588.72 127.803ZM595.879 124.235L597.669 123.342L596.331 120.658L594.541 121.55L595.879 124.235Z" fill="#4ECCEB"/>
<path d="M710.295 217.757C710.713 217.042 710.472 216.123 709.757 215.705L698.102 208.892C697.387 208.474 696.468 208.715 696.05 209.43C695.632 210.146 695.873 211.064 696.588 211.482L706.948 217.538L700.892 227.898C700.474 228.613 700.715 229.532 701.43 229.95C702.146 230.368 703.064 230.127 703.482 229.412L710.295 217.757ZM320.38 320.451L322.325 319.941L321.565 317.039L319.62 317.549L320.38 320.451ZM326.215 318.921L330.105 317.901L329.345 314.999L325.455 316.019L326.215 318.921ZM333.995 316.881L337.885 315.861L337.125 312.959L333.235 313.979L333.995 316.881ZM341.775 314.841L345.665 313.821L344.905 310.919L341.015 311.939L341.775 314.841ZM349.555 312.801L353.445 311.781L352.685 308.879L348.795 309.899L349.555 312.801ZM357.335 310.761L361.225 309.741L360.465 306.839L356.575 307.859L357.335 310.761ZM365.115 308.721L369.005 307.701L368.245 304.799L364.355 305.819L365.115 308.721ZM372.895 306.681L376.785 305.661L376.025 302.759L372.135 303.779L372.895 306.681ZM380.675 304.641L384.565 303.621L383.805 300.719L379.915 301.739L380.675 304.641ZM388.455 302.601L392.345 301.581L391.585 298.679L387.695 299.699L388.455 302.601ZM396.235 300.561L400.125 299.541L399.365 296.639L395.475 297.659L396.235 300.561ZM404.015 298.521L407.905 297.501L407.145 294.599L403.255 295.619L404.015 298.521ZM411.795 296.481L415.685 295.461L414.925 292.559L411.035 293.579L411.795 296.481ZM419.575 294.441L423.465 293.421L422.705 290.519L418.815 291.539L419.575 294.441ZM427.355 292.401L431.245 291.381L430.485 288.479L426.595 289.499L427.355 292.401ZM435.135 290.361L439.025 289.341L438.265 286.439L434.375 287.459L435.135 290.361ZM442.915 288.321L446.805 287.301L446.045 284.399L442.155 285.419L442.915 288.321ZM450.695 286.281L454.585 285.261L453.825 282.359L449.935 283.379L450.695 286.281ZM458.475 284.241L462.365 283.221L461.605 280.319L457.715 281.339L458.475 284.241ZM466.255 282.201L470.145 281.181L469.385 278.279L465.495 279.299L466.255 282.201ZM474.035 280.161L477.925 279.141L477.165 276.239L473.275 277.259L474.035 280.161ZM481.815 278.121L485.705 277.101L484.945 274.199L481.055 275.219L481.815 278.121ZM489.595 276.081L493.485 275.061L492.725 272.159L488.835 273.179L489.595 276.081ZM497.375 274.041L501.265 273.021L500.505 270.119L496.615 271.139L497.375 274.041ZM505.155 272.001L509.045 270.981L508.284 268.079L504.395 269.099L505.155 272.001ZM512.935 269.961L516.825 268.941L516.064 266.039L512.174 267.059L512.935 269.961ZM520.715 267.921L524.605 266.901L523.844 263.999L519.954 265.019L520.715 267.921ZM528.495 265.881L532.385 264.861L531.624 261.959L527.734 262.979L528.495 265.881ZM536.275 263.841L540.165 262.821L539.404 259.919L535.514 260.939L536.275 263.841ZM544.055 261.801L547.945 260.781L547.184 257.879L543.294 258.899L544.055 261.801ZM551.835 259.761L555.725 258.741L554.964 255.839L551.074 256.859L551.835 259.761ZM559.615 257.721L563.505 256.701L562.744 253.799L558.854 254.819L559.615 257.721ZM567.395 255.681L571.285 254.661L570.524 251.759L566.634 252.779L567.395 255.681ZM575.175 253.641L579.065 252.621L578.304 249.719L574.414 250.739L575.175 253.641ZM582.955 251.601L586.845 250.581L586.084 247.679L582.194 248.699L582.955 251.601ZM590.735 249.561L594.625 248.541L593.864 245.639L589.974 246.659L590.735 249.561ZM598.515 247.521L602.405 246.501L601.645 243.599L597.754 244.619L598.515 247.521ZM606.295 245.481L610.185 244.461L609.425 241.559L605.535 242.579L606.295 245.481ZM614.075 243.441L617.965 242.421L617.205 239.519L613.315 240.539L614.075 243.441ZM621.855 241.401L625.745 240.381L624.985 237.479L621.095 238.499L621.855 241.401ZM629.635 239.361L633.525 238.341L632.765 235.439L628.875 236.459L629.635 239.361ZM637.415 237.321L641.306 236.301L640.545 233.399L636.655 234.419L637.415 237.321ZM645.196 235.281L649.086 234.261L648.325 231.359L644.435 232.379L645.196 235.281ZM652.976 233.241L656.866 232.221L656.105 229.319L652.215 230.339L652.976 233.241ZM660.756 231.201L664.646 230.181L663.885 227.279L659.995 228.299L660.756 231.201ZM668.536 229.161L672.426 228.141L671.665 225.239L667.775 226.259L668.536 229.161ZM676.316 227.121L680.206 226.101L679.445 223.199L675.555 224.219L676.316 227.121ZM684.096 225.081L687.986 224.061L687.225 221.159L683.335 222.179L684.096 225.081ZM691.876 223.041L695.766 222.021L695.005 219.119L691.115 220.139L691.876 223.041ZM699.656 221.001L703.546 219.981L702.785 217.079L698.895 218.099L699.656 221.001ZM707.436 218.961L709.38 218.451L708.62 215.549L706.675 216.059L707.436 218.961Z" fill="#4ECCEB"/>
<path d="M761.253 340.824C761.708 340.132 761.516 339.202 760.824 338.747L749.542 331.332C748.85 330.877 747.92 331.069 747.465 331.761C747.01 332.454 747.202 333.384 747.895 333.839L757.923 340.43L751.332 350.458C750.877 351.15 751.069 352.08 751.761 352.535C752.454 352.99 753.384 352.798 753.839 352.105L761.253 340.824ZM320.304 432.469L322.268 432.063L321.66 429.125L319.696 429.531L320.304 432.469ZM326.197 431.25L330.125 430.438L329.518 427.5L325.589 428.312L326.197 431.25ZM334.054 429.625L337.982 428.813L337.375 425.875L333.446 426.687L334.054 429.625ZM341.911 428L345.84 427.188L345.232 424.25L341.303 425.062L341.911 428ZM349.768 426.375L353.697 425.563L353.089 422.625L349.16 423.437L349.768 426.375ZM357.625 424.75L361.554 423.938L360.946 421L357.018 421.812L357.625 424.75ZM365.482 423.125L369.411 422.313L368.803 419.375L364.875 420.187L365.482 423.125ZM373.34 421.5L377.268 420.688L376.66 417.75L372.732 418.562L373.34 421.5ZM381.197 419.875L385.125 419.063L384.518 416.125L380.589 416.937L381.197 419.875ZM389.054 418.25L392.982 417.438L392.375 414.5L388.446 415.312L389.054 418.25ZM396.911 416.625L400.84 415.813L400.232 412.875L396.303 413.687L396.911 416.625ZM404.768 415L408.697 414.188L408.089 411.25L404.16 412.062L404.768 415ZM412.625 413.375L416.554 412.563L415.946 409.625L412.018 410.437L412.625 413.375ZM420.482 411.75L424.411 410.938L423.803 408L419.875 408.812L420.482 411.75ZM428.34 410.125L432.268 409.313L431.66 406.375L427.732 407.187L428.34 410.125ZM436.197 408.5L440.125 407.688L439.518 404.75L435.589 405.562L436.197 408.5ZM444.054 406.875L447.982 406.063L447.375 403.125L443.446 403.937L444.054 406.875ZM451.911 405.25L455.84 404.438L455.232 401.5L451.303 402.312L451.911 405.25ZM459.768 403.625L463.697 402.813L463.089 399.875L459.161 400.687L459.768 403.625ZM467.625 402L471.554 401.188L470.946 398.25L467.018 399.062L467.625 402ZM475.482 400.375L479.411 399.563L478.803 396.625L474.875 397.437L475.482 400.375ZM483.34 398.75L487.268 397.938L486.661 395L482.732 395.812L483.34 398.75ZM491.197 397.125L495.125 396.313L494.518 393.375L490.589 394.187L491.197 397.125ZM499.054 395.5L502.982 394.688L502.375 391.75L498.446 392.562L499.054 395.5ZM506.911 393.875L510.84 393.063L510.232 390.125L506.303 390.937L506.911 393.875ZM514.768 392.25L518.697 391.438L518.089 388.5L514.161 389.312L514.768 392.25ZM522.625 390.625L526.554 389.813L525.946 386.875L522.018 387.687L522.625 390.625ZM530.482 389L534.411 388.188L533.803 385.25L529.875 386.062L530.482 389ZM538.34 387.375L542.268 386.563L541.661 383.625L537.732 384.437L538.34 387.375ZM546.197 385.75L550.125 384.938L549.518 382L545.589 382.812L546.197 385.75ZM554.054 384.125L557.983 383.313L557.375 380.375L553.446 381.187L554.054 384.125ZM561.911 382.5L565.84 381.688L565.232 378.75L561.304 379.562L561.911 382.5ZM569.768 380.875L573.697 380.063L573.089 377.125L569.161 377.937L569.768 380.875ZM577.625 379.25L581.554 378.438L580.946 375.5L577.018 376.312L577.625 379.25ZM585.483 377.625L589.411 376.813L588.804 373.875L584.875 374.687L585.483 377.625ZM593.34 376L597.268 375.188L596.661 372.25L592.732 373.062L593.34 376ZM601.197 374.375L605.125 373.563L604.518 370.625L600.589 371.437L601.197 374.375ZM609.054 372.75L612.983 371.938L612.375 369L608.446 369.812L609.054 372.75ZM616.911 371.125L620.84 370.313L620.232 367.375L616.304 368.187L616.911 371.125ZM624.768 369.5L628.697 368.688L628.089 365.75L624.161 366.562L624.768 369.5ZM632.626 367.875L636.554 367.063L635.947 364.125L632.018 364.937L632.626 367.875ZM640.483 366.25L644.411 365.438L643.804 362.5L639.875 363.312L640.483 366.25ZM648.34 364.625L652.268 363.813L651.661 360.875L647.732 361.687L648.34 364.625ZM656.197 363L660.126 362.188L659.518 359.25L655.589 360.062L656.197 363ZM664.054 361.375L667.983 360.563L667.375 357.625L663.447 358.437L664.054 361.375ZM671.911 359.75L675.84 358.938L675.232 356L671.304 356.812L671.911 359.75ZM679.768 358.125L683.697 357.313L683.089 354.375L679.161 355.187L679.768 358.125ZM687.626 356.5L691.554 355.688L690.947 352.75L687.018 353.562L687.626 356.5ZM695.483 354.875L699.411 354.063L698.804 351.125L694.875 351.937L695.483 354.875ZM703.34 353.25L707.269 352.438L706.661 349.5L702.732 350.312L703.34 353.25ZM711.197 351.625L715.126 350.813L714.518 347.875L710.59 348.687L711.197 351.625ZM719.054 350L722.983 349.188L722.375 346.25L718.447 347.062L719.054 350ZM726.911 348.375L730.84 347.563L730.232 344.625L726.304 345.437L726.911 348.375ZM734.769 346.75L738.697 345.938L738.09 343L734.161 343.812L734.769 346.75ZM742.626 345.125L746.554 344.313L745.947 341.375L742.018 342.187L742.626 345.125ZM750.483 343.5L754.411 342.688L753.804 339.75L749.875 340.562L750.483 343.5ZM758.34 341.875L760.304 341.469L759.696 338.531L757.732 338.937L758.34 341.875Z" fill="#4ECCEB"/>
<path d="M710.153 472.04C710.683 472.677 710.596 473.623 709.96 474.153L699.584 482.789C698.947 483.319 698.001 483.233 697.471 482.596C696.941 481.959 697.028 481.014 697.664 480.484L706.888 472.807L699.211 463.584C698.681 462.947 698.767 462.001 699.404 461.471C700.041 460.941 700.986 461.028 701.516 461.664L710.153 472.04ZM321.137 436.006L323.116 436.187L322.843 439.175L320.863 438.994L321.137 436.006ZM327.075 436.55L331.035 436.912L330.761 439.899L326.802 439.537L327.075 436.55ZM334.994 437.274L338.953 437.636L338.68 440.624L334.72 440.262L334.994 437.274ZM342.912 437.999L346.871 438.361L346.598 441.348L342.639 440.986L342.912 437.999ZM350.831 438.723L354.79 439.085L354.516 442.073L350.557 441.711L350.831 438.723ZM358.749 439.448L362.708 439.81L362.435 442.797L358.476 442.435L358.749 439.448ZM366.667 440.172L370.626 440.534L370.353 443.522L366.394 443.16L366.667 440.172ZM374.586 440.897L378.545 441.259L378.271 444.246L374.312 443.884L374.586 440.897ZM382.504 441.621L386.463 441.983L386.19 444.971L382.231 444.609L382.504 441.621ZM390.422 442.346L394.382 442.708L394.108 445.695L390.149 445.333L390.422 442.346ZM398.341 443.07L402.3 443.432L402.027 446.42L398.067 446.058L398.341 443.07ZM406.259 443.795L410.218 444.157L409.945 447.144L405.986 446.782L406.259 443.795ZM414.177 444.519L418.137 444.881L417.863 447.869L413.904 447.507L414.177 444.519ZM422.096 445.243L426.055 445.606L425.782 448.593L421.823 448.231L422.096 445.243ZM430.014 445.968L433.973 446.33L433.7 449.318L429.741 448.955L430.014 445.968ZM437.933 446.692L441.892 447.055L441.618 450.042L437.659 449.68L437.933 446.692ZM445.851 447.417L449.81 447.779L449.537 450.767L445.578 450.404L445.851 447.417ZM453.769 448.141L457.729 448.504L457.455 451.491L453.496 451.129L453.769 448.141ZM461.688 448.866L465.647 449.228L465.374 452.216L461.414 451.853L461.688 448.866ZM469.606 449.59L473.565 449.953L473.292 452.94L469.333 452.578L469.606 449.59ZM477.524 450.315L481.484 450.677L481.21 453.665L477.251 453.302L477.524 450.315ZM485.443 451.039L489.402 451.402L489.129 454.389L485.169 454.027L485.443 451.039ZM493.361 451.764L497.32 452.126L497.047 455.114L493.088 454.751L493.361 451.764ZM501.28 452.488L505.239 452.851L504.965 455.838L501.006 455.476L501.28 452.488ZM509.198 453.213L513.157 453.575L512.884 456.563L508.925 456.2L509.198 453.213ZM517.116 453.937L521.076 454.3L520.802 457.287L516.843 456.925L517.116 453.937ZM525.035 454.662L528.994 455.024L528.721 458.012L524.761 457.649L525.035 454.662ZM532.953 455.386L536.912 455.749L536.639 458.736L532.68 458.374L532.953 455.386ZM540.871 456.111L544.831 456.473L544.557 459.461L540.598 459.098L540.871 456.111ZM548.79 456.835L552.749 457.198L552.476 460.185L548.516 459.823L548.79 456.835ZM556.708 457.56L560.667 457.922L560.394 460.91L556.435 460.547L556.708 457.56ZM564.627 458.284L568.586 458.647L568.312 461.634L564.353 461.272L564.627 458.284ZM572.545 459.009L576.504 459.371L576.231 462.359L572.272 461.996L572.545 459.009ZM580.463 459.733L584.422 460.096L584.149 463.083L580.19 462.721L580.463 459.733ZM588.382 460.458L592.341 460.82L592.067 463.808L588.108 463.445L588.382 460.458ZM596.3 461.182L600.259 461.545L599.986 464.532L596.027 464.17L596.3 461.182ZM604.218 461.907L608.177 462.269L607.904 465.257L603.945 464.894L604.218 461.907ZM612.137 462.631L616.096 462.993L615.822 465.981L611.863 465.619L612.137 462.631ZM620.055 463.356L624.014 463.718L623.741 466.705L619.782 466.343L620.055 463.356ZM627.973 464.08L631.933 464.442L631.659 467.43L627.7 467.068L627.973 464.08ZM635.892 464.805L639.851 465.167L639.578 468.154L635.618 467.792L635.892 464.805ZM643.81 465.529L647.769 465.891L647.496 468.879L643.537 468.517L643.81 465.529ZM651.728 466.254L655.688 466.616L655.414 469.603L651.455 469.241L651.728 466.254ZM659.647 466.978L663.606 467.34L663.333 470.328L659.373 469.966L659.647 466.978ZM667.565 467.703L671.524 468.065L671.251 471.052L667.292 470.69L667.565 467.703ZM675.483 468.427L679.443 468.789L679.169 471.777L675.21 471.415L675.483 468.427ZM683.402 469.152L687.361 469.514L687.088 472.501L683.128 472.139L683.402 469.152ZM691.32 469.876L695.279 470.238L695.006 473.226L691.047 472.864L691.32 469.876ZM699.238 470.601L703.198 470.963L702.924 473.95L698.965 473.588L699.238 470.601ZM707.157 471.325L709.137 471.506L708.863 474.494L706.883 474.313L707.157 471.325Z" fill="#4ECCEB"/>
<path d="M605.298 558.249C605.713 558.966 605.468 559.884 604.751 560.298L593.065 567.058C592.348 567.473 591.431 567.228 591.016 566.511C590.601 565.793 590.846 564.876 591.563 564.461L601.951 558.453L595.942 548.065C595.527 547.348 595.772 546.43 596.489 546.016C597.207 545.601 598.124 545.846 598.539 546.563L605.298 558.249ZM282.387 471.551L284.304 472.063L283.53 474.961L281.613 474.449L282.387 471.551ZM288.137 473.087L291.97 474.11L291.196 477.009L287.363 475.985L288.137 473.087ZM295.804 475.134L299.637 476.158L298.863 479.056L295.03 478.033L295.804 475.134ZM303.47 477.182L307.304 478.206L306.53 481.104L302.696 480.08L303.47 477.182ZM311.137 479.229L314.97 480.253L314.196 483.152L310.363 482.128L311.137 479.229ZM318.804 481.277L322.637 482.301L321.863 485.199L318.03 484.175L318.804 481.277ZM326.47 483.325L330.304 484.348L329.53 487.247L325.696 486.223L326.47 483.325ZM334.137 485.372L337.97 486.396L337.196 489.294L333.363 488.271L334.137 485.372ZM341.804 487.42L345.637 488.444L344.863 491.342L341.03 490.318L341.804 487.42ZM349.47 489.467L353.304 490.491L352.53 493.39L348.696 492.366L349.47 489.467ZM357.137 491.515L360.97 492.539L360.196 495.437L356.363 494.413L357.137 491.515ZM364.804 493.563L368.637 494.587L367.863 497.485L364.03 496.461L364.804 493.563ZM372.47 495.61L376.304 496.634L375.53 499.533L371.696 498.509L372.47 495.61ZM380.137 497.658L383.97 498.682L383.196 501.58L379.363 500.556L380.137 497.658ZM387.804 499.706L391.637 500.729L390.863 503.628L387.03 502.604L387.804 499.706ZM395.47 501.753L399.304 502.777L398.53 505.675L394.696 504.652L395.47 501.753ZM403.137 503.801L406.97 504.825L406.196 507.723L402.363 506.699L403.137 503.801ZM410.804 505.848L414.637 506.872L413.863 509.771L410.03 508.747L410.804 505.848ZM418.47 507.896L422.304 508.92L421.53 511.818L417.696 510.794L418.47 507.896ZM426.137 509.944L429.97 510.967L429.196 513.866L425.363 512.842L426.137 509.944ZM433.804 511.991L437.637 513.015L436.863 515.913L433.03 514.89L433.804 511.991ZM441.47 514.039L445.304 515.063L444.53 517.961L440.696 516.937L441.47 514.039ZM449.137 516.087L452.97 517.11L452.196 520.009L448.363 518.985L449.137 516.087ZM456.804 518.134L460.637 519.158L459.863 522.056L456.03 521.033L456.804 518.134ZM464.47 520.182L468.304 521.206L467.53 524.104L463.696 523.08L464.47 520.182ZM472.137 522.229L475.97 523.253L475.196 526.152L471.363 525.128L472.137 522.229ZM479.804 524.277L483.637 525.301L482.863 528.199L479.03 527.175L479.804 524.277ZM487.47 526.325L491.304 527.348L490.53 530.247L486.696 529.223L487.47 526.325ZM495.137 528.372L498.97 529.396L498.196 532.294L494.363 531.271L495.137 528.372ZM502.804 530.42L506.637 531.444L505.863 534.342L502.03 533.318L502.804 530.42ZM510.47 532.467L514.304 533.491L513.53 536.39L509.696 535.366L510.47 532.467ZM518.137 534.515L521.97 535.539L521.196 538.437L517.363 537.413L518.137 534.515ZM525.804 536.563L529.637 537.586L528.863 540.485L525.03 539.461L525.804 536.563ZM533.47 538.61L537.304 539.634L536.53 542.533L532.696 541.509L533.47 538.61ZM541.137 540.658L544.97 541.682L544.196 544.58L540.363 543.556L541.137 540.658ZM548.804 542.706L552.637 543.729L551.863 546.628L548.03 545.604L548.804 542.706ZM556.47 544.753L560.304 545.777L559.53 548.675L555.696 547.652L556.47 544.753ZM564.137 546.801L567.97 547.825L567.196 550.723L563.363 549.699L564.137 546.801ZM571.804 548.848L575.637 549.872L574.863 552.771L571.03 551.747L571.804 548.848ZM579.47 550.896L583.304 551.92L582.53 554.818L578.696 553.794L579.47 550.896ZM587.137 552.944L590.971 553.967L590.196 556.866L586.363 555.842L587.137 552.944ZM594.804 554.991L598.637 556.015L597.863 558.914L594.03 557.89L594.804 554.991ZM602.471 557.039L604.387 557.551L603.613 560.449L601.696 559.937L602.471 557.039Z" fill="#4ECCEB"/>
<path d="M482.433 639.556C482.678 640.347 482.235 641.188 481.444 641.433L468.549 645.429C467.758 645.674 466.918 645.232 466.672 644.44C466.427 643.649 466.87 642.809 467.661 642.564L479.123 639.011L475.571 627.549C475.326 626.758 475.768 625.918 476.56 625.672C477.351 625.427 478.191 625.87 478.436 626.661L482.433 639.556ZM164.699 471.673L166.46 472.601L165.062 475.255L163.301 474.327L164.699 471.673ZM169.982 474.456L173.505 476.312L172.106 478.966L168.584 477.11L169.982 474.456ZM177.027 478.167L180.549 480.023L179.151 482.677L175.629 480.822L177.027 478.167ZM184.071 481.878L187.594 483.734L186.195 486.388L182.673 484.533L184.071 481.878ZM191.116 485.59L194.638 487.445L193.24 490.099L189.718 488.244L191.116 485.59ZM198.16 489.301L201.682 491.156L200.284 493.81L196.762 491.955L198.16 489.301ZM205.205 493.012L208.727 494.867L207.329 497.522L203.806 495.666L205.205 493.012ZM212.249 496.723L215.771 498.578L214.373 501.233L210.851 499.377L212.249 496.723ZM219.294 500.434L222.816 502.29L221.418 504.944L217.895 503.088L219.294 500.434ZM226.338 504.145L229.86 506.001L228.462 508.655L224.94 506.799L226.338 504.145ZM233.382 507.856L236.905 509.712L235.506 512.366L231.984 510.51L233.382 507.856ZM240.427 511.567L243.949 513.423L242.551 516.077L239.029 514.222L240.427 511.567ZM247.471 515.278L250.994 517.134L249.595 519.788L246.073 517.933L247.471 515.278ZM254.516 518.99L258.038 520.845L256.64 523.499L253.118 521.644L254.516 518.99ZM261.56 522.701L265.082 524.556L263.684 527.21L260.162 525.355L261.56 522.701ZM268.605 526.412L272.127 528.267L270.729 530.922L267.206 529.066L268.605 526.412ZM275.649 530.123L279.171 531.978L277.773 534.633L274.251 532.777L275.649 530.123ZM282.694 533.834L286.216 535.69L284.817 538.344L281.295 536.488L282.694 533.834ZM289.738 537.545L293.26 539.401L291.862 542.055L288.34 540.199L289.738 537.545ZM296.782 541.256L300.305 543.112L298.906 545.766L295.384 543.91L296.782 541.256ZM303.827 544.967L307.349 546.823L305.951 549.477L302.429 547.622L303.827 544.967ZM310.871 548.678L314.394 550.534L312.995 553.188L309.473 551.333L310.871 548.678ZM317.916 552.39L321.438 554.245L320.04 556.899L316.517 555.044L317.916 552.39ZM324.96 556.101L328.482 557.956L327.084 560.61L323.562 558.755L324.96 556.101ZM332.005 559.812L335.527 561.667L334.129 564.322L330.606 562.466L332.005 559.812ZM339.049 563.523L342.571 565.378L341.173 568.033L337.651 566.177L339.049 563.523ZM346.093 567.234L349.616 569.09L348.217 571.744L344.695 569.888L346.093 567.234ZM353.138 570.945L356.66 572.801L355.262 575.455L351.74 573.599L353.138 570.945ZM360.182 574.656L363.705 576.512L362.306 579.166L358.784 577.31L360.182 574.656ZM367.227 578.367L370.749 580.223L369.351 582.877L365.829 581.021L367.227 578.367ZM374.271 582.078L377.793 583.934L376.395 586.588L372.873 584.733L374.271 582.078ZM381.316 585.79L384.838 587.645L383.44 590.299L379.917 588.444L381.316 585.79ZM388.36 589.501L391.882 591.356L390.484 594.01L386.962 592.155L388.36 589.501ZM395.405 593.212L398.927 595.067L397.529 597.721L394.006 595.866L395.405 593.212ZM402.449 596.923L405.971 598.778L404.573 601.433L401.051 599.577L402.449 596.923ZM409.494 600.634L413.016 602.49L411.617 605.144L408.095 603.288L409.494 600.634ZM416.538 604.345L420.06 606.201L418.662 608.855L415.14 606.999L416.538 604.345ZM423.582 608.056L427.105 609.912L425.706 612.566L422.184 610.71L423.582 608.056ZM430.627 611.767L434.149 613.623L432.751 616.277L429.229 614.422L430.627 611.767ZM437.671 615.478L441.194 617.334L439.795 619.988L436.273 618.133L437.671 615.478ZM444.716 619.19L448.238 621.045L446.84 623.699L443.318 621.844L444.716 619.19ZM451.76 622.901L455.283 624.756L453.884 627.41L450.362 625.555L451.76 622.901ZM458.805 626.612L462.327 628.467L460.929 631.122L457.406 629.266L458.805 626.612ZM465.849 630.323L469.371 632.179L467.973 634.833L464.451 632.977L465.849 630.323ZM472.894 634.034L476.416 635.89L475.018 638.544L471.495 636.688L472.894 634.034ZM479.938 637.745L481.699 638.673L480.301 641.327L478.54 640.399L479.938 637.745Z" fill="#4ECCEB"/>
<path d="M119.23 214.88H127.55C130.024 214.88 131.859 215.381 133.054 216.384C134.27 217.387 134.878 218.816 134.878 220.672C134.878 221.824 134.547 222.827 133.886 223.68C133.224 224.533 132.296 225.067 131.102 225.28V225.312C132.424 225.525 133.47 226.08 134.238 226.976C135.027 227.872 135.422 228.928 135.422 230.144C135.422 231.979 134.75 233.419 133.406 234.464C132.062 235.488 130.152 236 127.678 236H119.23V214.88ZM127.294 223.968C129.982 223.968 131.326 222.933 131.326 220.864C131.326 218.795 129.982 217.76 127.294 217.76H122.59V223.968H127.294ZM127.838 233.152C129.16 233.152 130.163 232.885 130.846 232.352C131.528 231.797 131.87 231.008 131.87 229.984C131.87 228.96 131.528 228.181 130.846 227.648C130.163 227.093 129.16 226.816 127.838 226.816H122.59V233.152H127.838ZM153.761 233.76C154.231 233.76 154.625 233.717 154.945 233.632L154.721 235.936C154.145 236.192 153.484 236.32 152.737 236.32C151.82 236.32 151.084 236.139 150.529 235.776C149.996 235.413 149.644 234.805 149.473 233.952C148.983 234.699 148.257 235.285 147.297 235.712C146.337 236.117 145.26 236.32 144.065 236.32C142.508 236.32 141.249 235.957 140.289 235.232C139.329 234.507 138.849 233.472 138.849 232.128C138.849 230.869 139.372 229.813 140.417 228.96C141.463 228.085 143.02 227.467 145.089 227.104L149.153 226.4V225.536C149.153 224.555 148.865 223.787 148.289 223.232C147.713 222.656 146.913 222.368 145.889 222.368C143.777 222.368 142.401 223.328 141.761 225.248L139.105 223.84C139.489 222.56 140.268 221.547 141.441 220.8C142.636 220.053 144.097 219.68 145.825 219.68C147.895 219.68 149.537 220.16 150.753 221.12C151.969 222.08 152.577 223.488 152.577 225.344V232.576C152.577 232.981 152.663 233.28 152.833 233.472C153.025 233.664 153.335 233.76 153.761 233.76ZM144.801 233.728C145.953 233.728 146.967 233.451 147.841 232.896C148.716 232.341 149.153 231.605 149.153 230.688V228.768L145.665 229.472C144.556 229.685 143.735 229.984 143.201 230.368C142.668 230.752 142.401 231.264 142.401 231.904C142.401 232.501 142.604 232.96 143.009 233.28C143.436 233.579 144.033 233.728 144.801 233.728ZM165.196 219.68C168.695 219.68 171.009 221.173 172.14 224.16L168.94 225.44C168.385 223.413 167.137 222.4 165.196 222.4C163.767 222.4 162.657 222.891 161.868 223.872C161.079 224.853 160.684 226.24 160.684 228.032C160.684 229.824 161.079 231.2 161.868 232.16C162.657 233.12 163.767 233.6 165.196 233.6C166.284 233.6 167.159 233.333 167.82 232.8C168.481 232.267 168.919 231.499 169.132 230.496L172.268 231.552C171.799 233.045 170.967 234.219 169.772 235.072C168.577 235.904 167.073 236.32 165.26 236.32C162.743 236.32 160.769 235.584 159.34 234.112C157.932 232.64 157.228 230.603 157.228 228C157.228 225.397 157.932 223.36 159.34 221.888C160.748 220.416 162.7 219.68 165.196 219.68ZM182.873 228.48L179.705 231.744V236H176.281V212.8H179.705V227.84L187.353 220H191.385L185.273 226.272L191.769 236H187.801L182.873 228.48ZM196.665 217.312C195.94 217.312 195.375 217.131 194.969 216.768C194.564 216.384 194.361 215.851 194.361 215.168C194.361 214.485 194.564 213.963 194.969 213.6C195.375 213.237 195.94 213.056 196.665 213.056C197.391 213.056 197.945 213.237 198.329 213.6C198.735 213.963 198.937 214.485 198.937 215.168C198.937 215.851 198.735 216.384 198.329 216.768C197.945 217.131 197.391 217.312 196.665 217.312ZM198.361 236H194.937V220H198.361V236ZM212.327 219.68C214.097 219.68 215.537 220.192 216.647 221.216C217.777 222.24 218.343 223.712 218.343 225.632V236H214.919V226.72C214.919 223.904 213.777 222.496 211.495 222.496C210.3 222.496 209.276 222.912 208.423 223.744C207.569 224.555 207.143 225.813 207.143 227.52V236H203.719V220H206.759L206.919 222.656C207.452 221.653 208.188 220.907 209.127 220.416C210.065 219.925 211.132 219.68 212.327 219.68ZM232.843 233.504C234.464 233.504 235.723 233.867 236.619 234.592C237.515 235.317 237.963 236.32 237.963 237.6C237.963 238.688 237.6 239.627 236.875 240.416C236.171 241.205 235.19 241.813 233.931 242.24C232.694 242.667 231.296 242.88 229.739 242.88C227.2 242.88 225.291 242.507 224.011 241.76C222.752 241.013 222.123 240.021 222.123 238.784C222.123 238.059 222.368 237.419 222.859 236.864C223.371 236.331 224.075 235.947 224.971 235.712C224.288 235.392 223.744 234.987 223.339 234.496C222.934 233.984 222.731 233.376 222.731 232.672C222.731 231.115 223.563 230.048 225.227 229.472C224.416 229.003 223.798 228.395 223.371 227.648C222.966 226.901 222.763 226.048 222.763 225.088C222.763 224.021 223.051 223.083 223.627 222.272C224.203 221.44 225.014 220.8 226.059 220.352C227.126 219.904 228.342 219.68 229.707 219.68C230.88 219.68 231.958 219.851 232.939 220.192C233.238 219.019 233.771 218.133 234.539 217.536C235.328 216.917 236.363 216.619 237.643 216.64L238.219 219.296C237.195 219.275 236.363 219.403 235.723 219.68C235.104 219.957 234.678 220.373 234.443 220.928C235.147 221.419 235.691 222.016 236.075 222.72C236.459 223.424 236.651 224.213 236.651 225.088C236.651 226.731 236.011 228.043 234.731 229.024C233.472 230.005 231.798 230.496 229.707 230.496C228.726 230.496 227.84 230.4 227.051 230.208C226.518 230.336 226.123 230.549 225.867 230.848C225.632 231.125 225.515 231.499 225.515 231.968C225.515 232.459 225.686 232.843 226.027 233.12C226.39 233.376 226.88 233.504 227.499 233.504H232.843ZM229.707 222.08C228.726 222.08 227.904 222.368 227.243 222.944C226.582 223.499 226.251 224.213 226.251 225.088C226.251 225.984 226.582 226.72 227.243 227.296C227.904 227.851 228.726 228.128 229.707 228.128C230.71 228.128 231.531 227.851 232.171 227.296C232.832 226.72 233.163 225.984 233.163 225.088C233.163 224.192 232.832 223.467 232.171 222.912C231.531 222.357 230.71 222.08 229.707 222.08ZM230.059 240.32C231.616 240.32 232.832 240.096 233.707 239.648C234.582 239.2 235.019 238.645 235.019 237.984C235.019 237.451 234.806 237.045 234.379 236.768C233.952 236.491 233.238 236.352 232.235 236.352H227.915C226.955 236.352 226.23 236.501 225.739 236.8C225.27 237.099 225.035 237.515 225.035 238.048C225.035 238.773 225.451 239.328 226.283 239.712C227.136 240.117 228.395 240.32 230.059 240.32ZM260.968 233.504C262.589 233.504 263.848 233.867 264.744 234.592C265.64 235.317 266.088 236.32 266.088 237.6C266.088 238.688 265.725 239.627 265 240.416C264.296 241.205 263.315 241.813 262.056 242.24C260.819 242.667 259.421 242.88 257.864 242.88C255.325 242.88 253.416 242.507 252.136 241.76C250.877 241.013 250.248 240.021 250.248 238.784C250.248 238.059 250.493 237.419 250.984 236.864C251.496 236.331 252.2 235.947 253.096 235.712C252.413 235.392 251.869 234.987 251.464 234.496C251.059 233.984 250.856 233.376 250.856 232.672C250.856 231.115 251.688 230.048 253.352 229.472C252.541 229.003 251.923 228.395 251.496 227.648C251.091 226.901 250.888 226.048 250.888 225.088C250.888 224.021 251.176 223.083 251.752 222.272C252.328 221.44 253.139 220.8 254.184 220.352C255.251 219.904 256.467 219.68 257.832 219.68C259.005 219.68 260.083 219.851 261.064 220.192C261.363 219.019 261.896 218.133 262.664 217.536C263.453 216.917 264.488 216.619 265.768 216.64L266.344 219.296C265.32 219.275 264.488 219.403 263.848 219.68C263.229 219.957 262.803 220.373 262.568 220.928C263.272 221.419 263.816 222.016 264.2 222.72C264.584 223.424 264.776 224.213 264.776 225.088C264.776 226.731 264.136 228.043 262.856 229.024C261.597 230.005 259.923 230.496 257.832 230.496C256.851 230.496 255.965 230.4 255.176 230.208C254.643 230.336 254.248 230.549 253.992 230.848C253.757 231.125 253.64 231.499 253.64 231.968C253.64 232.459 253.811 232.843 254.152 233.12C254.515 233.376 255.005 233.504 255.624 233.504H260.968ZM257.832 222.08C256.851 222.08 256.029 222.368 255.368 222.944C254.707 223.499 254.376 224.213 254.376 225.088C254.376 225.984 254.707 226.72 255.368 227.296C256.029 227.851 256.851 228.128 257.832 228.128C258.835 228.128 259.656 227.851 260.296 227.296C260.957 226.72 261.288 225.984 261.288 225.088C261.288 224.192 260.957 223.467 260.296 222.912C259.656 222.357 258.835 222.08 257.832 222.08ZM258.184 240.32C259.741 240.32 260.957 240.096 261.832 239.648C262.707 239.2 263.144 238.645 263.144 237.984C263.144 237.451 262.931 237.045 262.504 236.768C262.077 236.491 261.363 236.352 260.36 236.352H256.04C255.08 236.352 254.355 236.501 253.864 236.8C253.395 237.099 253.16 237.515 253.16 238.048C253.16 238.773 253.576 239.328 254.408 239.712C255.261 240.117 256.52 240.32 258.184 240.32ZM277.631 219.68C278.377 219.68 278.964 219.787 279.391 220L278.847 223.136C278.356 222.859 277.684 222.72 276.831 222.72C276.148 222.72 275.497 222.901 274.879 223.264C274.281 223.627 273.78 224.171 273.375 224.896C272.991 225.621 272.799 226.496 272.799 227.52V236H269.375V220H272.287L272.575 222.88C273.471 220.747 275.156 219.68 277.631 219.68ZM289.259 219.68C291.755 219.68 293.707 220.416 295.115 221.888C296.523 223.36 297.227 225.397 297.227 228C297.227 230.603 296.523 232.64 295.115 234.112C293.707 235.584 291.755 236.32 289.259 236.32C286.763 236.32 284.811 235.584 283.403 234.112C281.995 232.64 281.291 230.603 281.291 228C281.291 225.397 281.995 223.36 283.403 221.888C284.811 220.416 286.763 219.68 289.259 219.68ZM289.259 222.368C287.808 222.368 286.688 222.859 285.899 223.84C285.131 224.8 284.747 226.187 284.747 228C284.747 229.813 285.131 231.211 285.899 232.192C286.688 233.152 287.808 233.632 289.259 233.632C290.709 233.632 291.829 233.141 292.619 232.16C293.408 231.179 293.803 229.792 293.803 228C293.803 226.208 293.408 224.821 292.619 223.84C291.829 222.859 290.709 222.368 289.259 222.368ZM316.121 220V236H313.081L312.953 233.408C311.865 235.349 309.966 236.32 307.257 236.32C305.529 236.32 304.131 235.851 303.065 234.912C302.019 233.952 301.497 232.491 301.497 230.528V220H304.921V229.632C304.921 231.04 305.198 232.043 305.753 232.64C306.307 233.216 307.129 233.504 308.217 233.504C309.518 233.504 310.585 233.099 311.417 232.288C312.27 231.456 312.697 230.24 312.697 228.64V220H316.121ZM330.045 219.68C332.243 219.68 333.971 220.416 335.229 221.888C336.488 223.339 337.117 225.365 337.117 227.968C337.117 230.571 336.488 232.619 335.229 234.112C333.971 235.584 332.243 236.32 330.045 236.32C328.893 236.32 327.859 236.064 326.941 235.552C326.045 235.04 325.352 234.336 324.861 233.44V242.72H321.437V220H324.445L324.605 222.976C325.075 221.973 325.779 221.173 326.717 220.576C327.677 219.979 328.787 219.68 330.045 219.68ZM329.277 233.536C330.664 233.536 331.741 233.056 332.509 232.096C333.299 231.115 333.693 229.749 333.693 228C333.693 226.251 333.299 224.885 332.509 223.904C331.741 222.923 330.664 222.432 329.277 222.432C327.976 222.432 326.931 222.869 326.141 223.744C325.373 224.619 324.947 225.835 324.861 227.392V228.608C324.947 230.144 325.373 231.349 326.141 232.224C326.931 233.099 327.976 233.536 329.277 233.536Z" fill="white"/>
<path d="M358.151 64.52C360.148 64.52 361.726 65.0333 362.883 66.06C364.059 67.0867 364.647 68.496 364.647 70.288C364.647 72.08 364.059 73.4893 362.883 74.516C361.726 75.524 360.148 76.028 358.151 76.028H354.035V83H351.039V64.52H358.151ZM357.675 73.48C358.982 73.48 359.952 73.2187 360.587 72.696C361.222 72.1547 361.539 71.352 361.539 70.288C361.539 68.1413 360.251 67.068 357.675 67.068H354.035V73.48H357.675ZM376.266 64.24C378.039 64.24 379.579 64.6227 380.886 65.388C382.211 66.1533 383.228 67.2547 383.938 68.692C384.647 70.1293 385.002 71.8187 385.002 73.76C385.002 75.7013 384.647 77.3907 383.938 78.828C383.228 80.2653 382.211 81.3667 380.886 82.132C379.579 82.8973 378.039 83.28 376.266 83.28C374.492 83.28 372.952 82.8973 371.646 82.132C370.339 81.3667 369.331 80.2653 368.622 78.828C367.912 77.3907 367.558 75.7013 367.558 73.76C367.558 71.8187 367.912 70.1293 368.622 68.692C369.331 67.2547 370.339 66.1533 371.646 65.388C372.952 64.6227 374.492 64.24 376.266 64.24ZM376.266 66.844C374.53 66.844 373.167 67.4507 372.178 68.664C371.188 69.8773 370.694 71.576 370.694 73.76C370.694 75.944 371.188 77.6427 372.178 78.856C373.167 80.0693 374.53 80.676 376.266 80.676C378.02 80.676 379.392 80.0693 380.382 78.856C381.371 77.6427 381.866 75.944 381.866 73.76C381.866 71.576 381.371 69.8773 380.382 68.664C379.392 67.4507 378.02 66.844 376.266 66.844ZM397.224 83H393.724L386.864 64.52H390.056L394.368 76.812L395.488 80.48L396.608 76.84L400.92 64.52H404.084L397.224 83Z" fill="#4ECCEB"/>
<path d="M458.151 139.52C460.148 139.52 461.726 140.033 462.883 141.06C464.059 142.087 464.647 143.496 464.647 145.288C464.647 147.08 464.059 148.489 462.883 149.516C461.726 150.524 460.148 151.028 458.151 151.028H454.035V158H451.039V139.52H458.151ZM457.675 148.48C458.982 148.48 459.952 148.219 460.587 147.696C461.222 147.155 461.539 146.352 461.539 145.288C461.539 143.141 460.251 142.068 457.675 142.068H454.035V148.48H457.675ZM476.266 139.24C478.039 139.24 479.579 139.623 480.886 140.388C482.211 141.153 483.228 142.255 483.938 143.692C484.647 145.129 485.002 146.819 485.002 148.76C485.002 150.701 484.647 152.391 483.938 153.828C483.228 155.265 482.211 156.367 480.886 157.132C479.579 157.897 478.039 158.28 476.266 158.28C474.492 158.28 472.952 157.897 471.646 157.132C470.339 156.367 469.331 155.265 468.622 153.828C467.912 152.391 467.558 150.701 467.558 148.76C467.558 146.819 467.912 145.129 468.622 143.692C469.331 142.255 470.339 141.153 471.646 140.388C472.952 139.623 474.492 139.24 476.266 139.24ZM476.266 141.844C474.53 141.844 473.167 142.451 472.178 143.664C471.188 144.877 470.694 146.576 470.694 148.76C470.694 150.944 471.188 152.643 472.178 153.856C473.167 155.069 474.53 155.676 476.266 155.676C478.02 155.676 479.392 155.069 480.382 153.856C481.371 152.643 481.866 150.944 481.866 148.76C481.866 146.576 481.371 144.877 480.382 143.664C479.392 142.451 478.02 141.844 476.266 141.844ZM497.224 158H493.724L486.864 139.52H490.056L494.368 151.812L495.488 155.48L496.608 151.84L500.92 139.52H504.084L497.224 158Z" fill="#4ECCEB"/>
<path d="M532.151 219.52C534.148 219.52 535.726 220.033 536.883 221.06C538.059 222.087 538.647 223.496 538.647 225.288C538.647 227.08 538.059 228.489 536.883 229.516C535.726 230.524 534.148 231.028 532.151 231.028H528.035V238H525.039V219.52H532.151ZM531.675 228.48C532.982 228.48 533.952 228.219 534.587 227.696C535.222 227.155 535.539 226.352 535.539 225.288C535.539 223.141 534.251 222.068 531.675 222.068H528.035V228.48H531.675ZM550.266 219.24C552.039 219.24 553.579 219.623 554.886 220.388C556.211 221.153 557.228 222.255 557.938 223.692C558.647 225.129 559.002 226.819 559.002 228.76C559.002 230.701 558.647 232.391 557.938 233.828C557.228 235.265 556.211 236.367 554.886 237.132C553.579 237.897 552.039 238.28 550.266 238.28C548.492 238.28 546.952 237.897 545.646 237.132C544.339 236.367 543.331 235.265 542.622 233.828C541.912 232.391 541.558 230.701 541.558 228.76C541.558 226.819 541.912 225.129 542.622 223.692C543.331 222.255 544.339 221.153 545.646 220.388C546.952 219.623 548.492 219.24 550.266 219.24ZM550.266 221.844C548.53 221.844 547.167 222.451 546.178 223.664C545.188 224.877 544.694 226.576 544.694 228.76C544.694 230.944 545.188 232.643 546.178 233.856C547.167 235.069 548.53 235.676 550.266 235.676C552.02 235.676 553.392 235.069 554.382 233.856C555.371 232.643 555.866 230.944 555.866 228.76C555.866 226.576 555.371 224.877 554.382 223.664C553.392 222.451 552.02 221.844 550.266 221.844ZM571.224 238H567.724L560.864 219.52H564.056L568.368 231.812L569.488 235.48L570.608 231.84L574.92 219.52H578.084L571.224 238Z" fill="#4ECCEB"/>
<path d="M561.151 341.52C563.148 341.52 564.726 342.033 565.883 343.06C567.059 344.087 567.647 345.496 567.647 347.288C567.647 349.08 567.059 350.489 565.883 351.516C564.726 352.524 563.148 353.028 561.151 353.028H557.035V360H554.039V341.52H561.151ZM560.675 350.48C561.982 350.48 562.952 350.219 563.587 349.696C564.222 349.155 564.539 348.352 564.539 347.288C564.539 345.141 563.251 344.068 560.675 344.068H557.035V350.48H560.675ZM579.266 341.24C581.039 341.24 582.579 341.623 583.886 342.388C585.211 343.153 586.228 344.255 586.938 345.692C587.647 347.129 588.002 348.819 588.002 350.76C588.002 352.701 587.647 354.391 586.938 355.828C586.228 357.265 585.211 358.367 583.886 359.132C582.579 359.897 581.039 360.28 579.266 360.28C577.492 360.28 575.952 359.897 574.646 359.132C573.339 358.367 572.331 357.265 571.622 355.828C570.912 354.391 570.558 352.701 570.558 350.76C570.558 348.819 570.912 347.129 571.622 345.692C572.331 344.255 573.339 343.153 574.646 342.388C575.952 341.623 577.492 341.24 579.266 341.24ZM579.266 343.844C577.53 343.844 576.167 344.451 575.178 345.664C574.188 346.877 573.694 348.576 573.694 350.76C573.694 352.944 574.188 354.643 575.178 355.856C576.167 357.069 577.53 357.676 579.266 357.676C581.02 357.676 582.392 357.069 583.382 355.856C584.371 354.643 584.866 352.944 584.866 350.76C584.866 348.576 584.371 346.877 583.382 345.664C582.392 344.451 581.02 343.844 579.266 343.844ZM600.224 360H596.724L589.864 341.52H593.056L597.368 353.812L598.488 357.48L599.608 353.84L603.92 341.52H607.084L600.224 360Z" fill="#4ECCEB"/>
<path d="M548.151 427.52C550.148 427.52 551.726 428.033 552.883 429.06C554.059 430.087 554.647 431.496 554.647 433.288C554.647 435.08 554.059 436.489 552.883 437.516C551.726 438.524 550.148 439.028 548.151 439.028H544.035V446H541.039V427.52H548.151ZM547.675 436.48C548.982 436.48 549.952 436.219 550.587 435.696C551.222 435.155 551.539 434.352 551.539 433.288C551.539 431.141 550.251 430.068 547.675 430.068H544.035V436.48H547.675ZM566.266 427.24C568.039 427.24 569.579 427.623 570.886 428.388C572.211 429.153 573.228 430.255 573.938 431.692C574.647 433.129 575.002 434.819 575.002 436.76C575.002 438.701 574.647 440.391 573.938 441.828C573.228 443.265 572.211 444.367 570.886 445.132C569.579 445.897 568.039 446.28 566.266 446.28C564.492 446.28 562.952 445.897 561.646 445.132C560.339 444.367 559.331 443.265 558.622 441.828C557.912 440.391 557.558 438.701 557.558 436.76C557.558 434.819 557.912 433.129 558.622 431.692C559.331 430.255 560.339 429.153 561.646 428.388C562.952 427.623 564.492 427.24 566.266 427.24ZM566.266 429.844C564.53 429.844 563.167 430.451 562.178 431.664C561.188 432.877 560.694 434.576 560.694 436.76C560.694 438.944 561.188 440.643 562.178 441.856C563.167 443.069 564.53 443.676 566.266 443.676C568.02 443.676 569.392 443.069 570.382 441.856C571.371 440.643 571.866 438.944 571.866 436.76C571.866 434.576 571.371 432.877 570.382 431.664C569.392 430.451 568.02 429.844 566.266 429.844ZM587.224 446H583.724L576.864 427.52H580.056L584.368 439.812L585.488 443.48L586.608 439.84L590.92 427.52H594.084L587.224 446Z" fill="#4ECCEB"/>
<path d="M496.151 497.52C498.148 497.52 499.726 498.033 500.883 499.06C502.059 500.087 502.647 501.496 502.647 503.288C502.647 505.08 502.059 506.489 500.883 507.516C499.726 508.524 498.148 509.028 496.151 509.028H492.035V516H489.039V497.52H496.151ZM495.675 506.48C496.982 506.48 497.952 506.219 498.587 505.696C499.222 505.155 499.539 504.352 499.539 503.288C499.539 501.141 498.251 500.068 495.675 500.068H492.035V506.48H495.675ZM514.266 497.24C516.039 497.24 517.579 497.623 518.886 498.388C520.211 499.153 521.228 500.255 521.938 501.692C522.647 503.129 523.002 504.819 523.002 506.76C523.002 508.701 522.647 510.391 521.938 511.828C521.228 513.265 520.211 514.367 518.886 515.132C517.579 515.897 516.039 516.28 514.266 516.28C512.492 516.28 510.952 515.897 509.646 515.132C508.339 514.367 507.331 513.265 506.622 511.828C505.912 510.391 505.558 508.701 505.558 506.76C505.558 504.819 505.912 503.129 506.622 501.692C507.331 500.255 508.339 499.153 509.646 498.388C510.952 497.623 512.492 497.24 514.266 497.24ZM514.266 499.844C512.53 499.844 511.167 500.451 510.178 501.664C509.188 502.877 508.694 504.576 508.694 506.76C508.694 508.944 509.188 510.643 510.178 511.856C511.167 513.069 512.53 513.676 514.266 513.676C516.02 513.676 517.392 513.069 518.382 511.856C519.371 510.643 519.866 508.944 519.866 506.76C519.866 504.576 519.371 502.877 518.382 501.664C517.392 500.451 516.02 499.844 514.266 499.844ZM535.224 516H531.724L524.864 497.52H528.056L532.368 509.812L533.488 513.48L534.608 509.84L538.92 497.52H542.084L535.224 516Z" fill="#4ECCEB"/>
<path d="M400.151 560.52C402.148 560.52 403.726 561.033 404.883 562.06C406.059 563.087 406.647 564.496 406.647 566.288C406.647 568.08 406.059 569.489 404.883 570.516C403.726 571.524 402.148 572.028 400.151 572.028H396.035V579H393.039V560.52H400.151ZM399.675 569.48C400.982 569.48 401.952 569.219 402.587 568.696C403.222 568.155 403.539 567.352 403.539 566.288C403.539 564.141 402.251 563.068 399.675 563.068H396.035V569.48H399.675ZM418.266 560.24C420.039 560.24 421.579 560.623 422.886 561.388C424.211 562.153 425.228 563.255 425.938 564.692C426.647 566.129 427.002 567.819 427.002 569.76C427.002 571.701 426.647 573.391 425.938 574.828C425.228 576.265 424.211 577.367 422.886 578.132C421.579 578.897 420.039 579.28 418.266 579.28C416.492 579.28 414.952 578.897 413.646 578.132C412.339 577.367 411.331 576.265 410.622 574.828C409.912 573.391 409.558 571.701 409.558 569.76C409.558 567.819 409.912 566.129 410.622 564.692C411.331 563.255 412.339 562.153 413.646 561.388C414.952 560.623 416.492 560.24 418.266 560.24ZM418.266 562.844C416.53 562.844 415.167 563.451 414.178 564.664C413.188 565.877 412.694 567.576 412.694 569.76C412.694 571.944 413.188 573.643 414.178 574.856C415.167 576.069 416.53 576.676 418.266 576.676C420.02 576.676 421.392 576.069 422.382 574.856C423.371 573.643 423.866 571.944 423.866 569.76C423.866 567.576 423.371 565.877 422.382 564.664C421.392 563.451 420.02 562.844 418.266 562.844ZM439.224 579H435.724L428.864 560.52H432.056L436.368 572.812L437.488 576.48L438.608 572.84L442.92 560.52H446.084L439.224 579Z" fill="#4ECCEB"/>
<path d="M522.001 49.4002L513.601 41.0002L510.801 43.8002L522.001 55.0002L546.001 31.0002L543.201 28.2002L522.001 49.4002Z" fill="white"/>
<path d="M643.001 130.4L634.601 122L631.801 124.8L643.001 136L667.001 112L664.201 109.2L643.001 130.4Z" fill="white"/>
<path d="M754.001 225.4L745.601 217L742.801 219.8L754.001 231L778.001 207L775.201 204.2L754.001 225.4Z" fill="white"/>
<path d="M805.001 346.4L796.601 338L793.801 340.8L805.001 352L829.001 328L826.201 325.2L805.001 346.4Z" fill="white"/>
<path d="M754.001 476.4L745.601 468L742.801 470.8L754.001 482L778.001 458L775.201 455.2L754.001 476.4Z" fill="white"/>
<path d="M643.001 567.4L634.601 559L631.801 561.8L643.001 573L667.001 549L664.201 546.2L643.001 567.4Z" fill="white"/>
<path d="M522.001 648.4L513.601 640L510.801 642.8L522.001 654L546.001 630L543.201 627.2L522.001 648.4Z" fill="white"/>
</svg>
