<?xml version="1.0" encoding="UTF-8" standalone="no"?>
<svg
   width="889"
   height="560"
   viewBox="0 0 889 560"
   fill="none"
   version="1.1"
   id="svg49808"
   sodipodi:docname="5.4-relay-block-construction-I.svg"
   inkscape:version="1.2.1 (9c6d41e410, 2022-07-14)"
   xmlns:inkscape="http://www.inkscape.org/namespaces/inkscape"
   xmlns:sodipodi="http://sodipodi.sourceforge.net/DTD/sodipodi-0.dtd"
   xmlns="http://www.w3.org/2000/svg"
   xmlns:svg="http://www.w3.org/2000/svg">
  <defs
     id="defs49812" />
  <sodipodi:namedview
     id="namedview49810"
     pagecolor="#505050"
     bordercolor="#eeeeee"
     borderopacity="1"
     inkscape:showpageshadow="0"
     inkscape:pageopacity="0"
     inkscape:pagecheckerboard="0"
     inkscape:deskcolor="#505050"
     showgrid="false"
     showguides="true"
     inkscape:zoom="1.3696429"
     inkscape:cx="444.64146"
     inkscape:cy="280.73012"
     inkscape:window-width="1920"
     inkscape:window-height="1003"
     inkscape:window-x="0"
     inkscape:window-y="0"
     inkscape:window-maximized="1"
     inkscape:current-layer="svg49808">
    <sodipodi:guide
       position="303.72881,339.50456"
       orientation="1,0"
       id="guide50413"
       inkscape:locked="false" />
  </sodipodi:namedview>
  <rect
     x="368.5"
     y="187.5"
     width="41"
     height="41"
     rx="8.5"
     stroke="white"
     stroke-width="3"
     id="rect49682" />
  <rect
     x="368.5"
     y="243.5"
     width="41"
     height="41"
     rx="8.5"
     stroke="white"
     stroke-width="3"
     id="rect49684" />
  <rect
     x="368.5"
     y="299.5"
     width="41"
     height="41"
     rx="8.5"
     stroke="white"
     stroke-width="3"
     id="rect49686" />
  <rect
     x="368.5"
     y="355.5"
     width="41"
     height="41"
     rx="8.5"
     stroke="white"
     stroke-width="3"
     id="rect49688" />
  <rect
     x="368.5"
     y="458.5"
     width="41"
     height="41"
     rx="8.5"
     fill="#18F0BD"
     stroke="white"
     stroke-width="3"
     id="rect49690" />
  <rect
     x="422.5"
     y="187.5"
     width="42"
     height="41"
     rx="8.5"
     stroke="white"
     stroke-width="3"
     id="rect49692" />
  <rect
     x="422.5"
     y="243.5"
     width="42"
     height="41"
     rx="8.5"
     fill="#E6007A"
     stroke="white"
     stroke-width="3"
     id="rect49694" />
  <rect
     x="422.5"
     y="299.5"
     width="42"
     height="41"
     rx="8.5"
     stroke="white"
     stroke-width="3"
     id="rect49696" />
  <rect
     x="422.5"
     y="355.5"
     width="42"
     height="41"
     rx="8.5"
     fill="#E6007A"
     stroke="white"
     stroke-width="3"
     id="rect49698" />
  <rect
     x="422.5"
     y="458.5"
     width="42"
     height="41"
     rx="8.5"
     fill="#E6007A"
     stroke="white"
     stroke-width="3"
     id="rect49700" />
  <rect
     x="476.5"
     y="187.5"
     width="42"
     height="41"
     rx="8.5"
     stroke="white"
     stroke-width="3"
     id="rect49702" />
  <rect
     x="476.5"
     y="243.5"
     width="42"
     height="41"
     rx="8.5"
     fill="#E6007A"
     stroke="white"
     stroke-width="3"
     id="rect49704" />
  <rect
     x="476.5"
     y="299.5"
     width="42"
     height="41"
     rx="8.5"
     fill="#E6007A"
     stroke="white"
     stroke-width="3"
     id="rect49706" />
  <rect
     x="476.5"
     y="355.5"
     width="42"
     height="41"
     rx="8.5"
     stroke="white"
     stroke-width="3"
     id="rect49708" />
  <rect
     x="476.5"
     y="458.5"
     width="42"
     height="41"
     rx="8.5"
     fill="#E6007A"
     stroke="white"
     stroke-width="3"
     id="rect49710" />
  <rect
     x="530.5"
     y="187.5"
     width="42"
     height="41"
     rx="8.5"
     stroke="white"
     stroke-width="3"
     id="rect49712" />
  <rect
     x="530.5"
     y="243.5"
     width="42"
     height="41"
     rx="8.5"
     stroke="white"
     stroke-width="3"
     id="rect49714" />
  <rect
     x="530.5"
     y="299.5"
     width="42"
     height="41"
     rx="8.5"
     stroke="white"
     stroke-width="3"
     id="rect49716" />
  <rect
     x="530.5"
     y="355.5"
     width="42"
     height="41"
     rx="8.5"
     fill="#E6007A"
     stroke="white"
     stroke-width="3"
     id="rect49718" />
  <rect
     x="530.5"
     y="458.5"
     width="42"
     height="41"
     rx="8.5"
     fill="#18F0BD"
     stroke="white"
     stroke-width="3"
     id="rect49720" />
  <rect
     x="585.5"
     y="187.5"
     width="41"
     height="41"
     rx="8.5"
     stroke="white"
     stroke-width="3"
     id="rect49722" />
  <rect
     x="585.5"
     y="243.5"
     width="41"
     height="41"
     rx="8.5"
     stroke="white"
     stroke-width="3"
     id="rect49724" />
  <rect
     x="585.5"
     y="299.5"
     width="41"
     height="41"
     rx="8.5"
     stroke="white"
     stroke-width="3"
     id="rect49726" />
  <rect
     x="585.5"
     y="355.5"
     width="41"
     height="41"
     rx="8.5"
     stroke="white"
     stroke-width="3"
     id="rect49728" />
  <rect
     x="585.5"
     y="458.5"
     width="41"
     height="41"
     rx="8.5"
     fill="#18F0BD"
     stroke="white"
     stroke-width="3"
     id="rect49730" />
  <path
     d="M392.616 199.52V218H388.864V204.224C388.864 203.925 388.873 203.692 388.892 203.524C388.22 204.14 387.492 204.663 386.708 205.092C385.942 205.521 385.168 205.811 384.384 205.96L383.88 202.712C384.738 202.619 385.765 202.236 386.96 201.564C388.173 200.873 389.013 200.192 389.48 199.52H392.616Z"
     fill="#18F0BD"
     id="path49732" />
  <path
     d="M392.616 367.52V386H388.864V372.224C388.864 371.925 388.873 371.692 388.892 371.524C388.22 372.14 387.492 372.663 386.708 373.092C385.942 373.521 385.168 373.811 384.384 373.96L383.88 370.712C384.738 370.619 385.765 370.236 386.96 369.564C388.173 368.873 389.013 368.192 389.48 367.52H392.616Z"
     fill="#18F0BD"
     id="path49734" />
  <path
     d="M392.616 310.52V329H388.864V315.224C388.864 314.925 388.873 314.692 388.892 314.524C388.22 315.14 387.492 315.663 386.708 316.092C385.942 316.521 385.168 316.811 384.384 316.96L383.88 313.712C384.738 313.619 385.765 313.236 386.96 312.564C388.173 311.873 389.013 311.192 389.48 310.52H392.616Z"
     fill="#18F0BD"
     id="path49736" />
  <path
     d="M392.616 255.52V274H388.864V260.224C388.864 259.925 388.873 259.692 388.892 259.524C388.22 260.14 387.492 260.663 386.708 261.092C385.942 261.521 385.168 261.811 384.384 261.96L383.88 258.712C384.738 258.619 385.765 258.236 386.96 257.564C388.173 256.873 389.013 256.192 389.48 255.52H392.616Z"
     fill="#18F0BD"
     id="path49738" />
  <path
     d="M447.616 199.52V218H443.864V204.224C443.864 203.925 443.873 203.692 443.892 203.524C443.22 204.14 442.492 204.663 441.708 205.092C440.942 205.521 440.168 205.811 439.384 205.96L438.88 202.712C439.738 202.619 440.765 202.236 441.96 201.564C443.173 200.873 444.013 200.192 444.48 199.52H447.616Z"
     fill="#18F0BD"
     id="path49740" />
  <path
     d="M447.616 310.52V329H443.864V315.224C443.864 314.925 443.873 314.692 443.892 314.524C443.22 315.14 442.492 315.663 441.708 316.092C440.942 316.521 440.168 316.811 439.384 316.96L438.88 313.712C439.738 313.619 440.765 313.236 441.96 312.564C443.173 311.873 444.013 311.192 444.48 310.52H447.616Z"
     fill="#18F0BD"
     id="path49742" />
  <path
     d="M501.616 199.52V218H497.864V204.224C497.864 203.925 497.873 203.692 497.892 203.524C497.22 204.14 496.492 204.663 495.708 205.092C494.942 205.521 494.168 205.811 493.384 205.96L492.88 202.712C493.738 202.619 494.765 202.236 495.96 201.564C497.173 200.873 498.013 200.192 498.48 199.52H501.616Z"
     fill="#18F0BD"
     id="path49744" />
  <path
     d="M501.616 367.52V386H497.864V372.224C497.864 371.925 497.873 371.692 497.892 371.524C497.22 372.14 496.492 372.663 495.708 373.092C494.942 373.521 494.168 373.811 493.384 373.96L492.88 370.712C493.738 370.619 494.765 370.236 495.96 369.564C497.173 368.873 498.013 368.192 498.48 367.52H501.616Z"
     fill="#18F0BD"
     id="path49746" />
  <path
     d="M555.616 199.52V218H551.864V204.224C551.864 203.925 551.873 203.692 551.892 203.524C551.22 204.14 550.492 204.663 549.708 205.092C548.942 205.521 548.168 205.811 547.384 205.96L546.88 202.712C547.738 202.619 548.765 202.236 549.96 201.564C551.173 200.873 552.013 200.192 552.48 199.52H555.616Z"
     fill="#18F0BD"
     id="path49748" />
  <path
     d="M555.616 310.52V329H551.864V315.224C551.864 314.925 551.873 314.692 551.892 314.524C551.22 315.14 550.492 315.663 549.708 316.092C548.942 316.521 548.168 316.811 547.384 316.96L546.88 313.712C547.738 313.619 548.765 313.236 549.96 312.564C551.173 311.873 552.013 311.192 552.48 310.52H555.616Z"
     fill="#18F0BD"
     id="path49750" />
  <path
     d="M555.616 255.52V274H551.864V260.224C551.864 259.925 551.873 259.692 551.892 259.524C551.22 260.14 550.492 260.663 549.708 261.092C548.942 261.521 548.168 261.811 547.384 261.96L546.88 258.712C547.738 258.619 548.765 258.236 549.96 257.564C551.173 256.873 552.013 256.192 552.48 255.52H555.616Z"
     fill="#18F0BD"
     id="path49752" />
  <path
     d="M610.616 199.52V218H606.864V204.224C606.864 203.925 606.873 203.692 606.892 203.524C606.22 204.14 605.492 204.663 604.708 205.092C603.942 205.521 603.168 205.811 602.384 205.96L601.88 202.712C602.738 202.619 603.765 202.236 604.96 201.564C606.173 200.873 607.013 200.192 607.48 199.52H610.616Z"
     fill="#18F0BD"
     id="path49754" />
  <path
     d="M610.616 367.52V386H606.864V372.224C606.864 371.925 606.873 371.692 606.892 371.524C606.22 372.14 605.492 372.663 604.708 373.092C603.942 373.521 603.168 373.811 602.384 373.96L601.88 370.712C602.738 370.619 603.765 370.236 604.96 369.564C606.173 368.873 607.013 368.192 607.48 367.52H610.616Z"
     fill="#18F0BD"
     id="path49756" />
  <path
     d="M610.616 310.52V329H606.864V315.224C606.864 314.925 606.873 314.692 606.892 314.524C606.22 315.14 605.492 315.663 604.708 316.092C603.942 316.521 603.168 316.811 602.384 316.96L601.88 313.712C602.738 313.619 603.765 313.236 604.96 312.564C606.173 311.873 607.013 311.192 607.48 310.52H610.616Z"
     fill="#18F0BD"
     id="path49758" />
  <path
     d="M610.616 255.52V274H606.864V260.224C606.864 259.925 606.873 259.692 606.892 259.524C606.22 260.14 605.492 260.663 604.708 261.092C603.942 261.521 603.168 261.811 602.384 261.96L601.88 258.712C602.738 258.619 603.765 258.236 604.96 257.564C606.173 256.873 607.013 256.192 607.48 255.52H610.616Z"
     fill="#18F0BD"
     id="path49760" />
  <path
     d="M387.939 448.061C388.525 448.646 389.475 448.646 390.061 448.061L399.607 438.515C400.192 437.929 400.192 436.979 399.607 436.393C399.021 435.808 398.071 435.808 397.485 436.393L389 444.879L380.515 436.393C379.929 435.808 378.979 435.808 378.393 436.393C377.808 436.979 377.808 437.929 378.393 438.515L387.939 448.061ZM387.5 406L387.5 447L390.5 447L390.5 406L387.5 406Z"
     fill="white"
     id="path49762" />
  <path
     d="M442.939 448.061C443.525 448.646 444.475 448.646 445.061 448.061L454.607 438.515C455.192 437.929 455.192 436.979 454.607 436.393C454.021 435.808 453.071 435.808 452.485 436.393L444 444.879L435.515 436.393C434.929 435.808 433.979 435.808 433.393 436.393C432.808 436.979 432.808 437.929 433.393 438.515L442.939 448.061ZM442.5 406L442.5 447L445.5 447L445.5 406L442.5 406Z"
     fill="white"
     id="path49764" />
  <path
     d="M497.939 448.061C498.525 448.646 499.475 448.646 500.061 448.061L509.607 438.515C510.192 437.929 510.192 436.979 509.607 436.393C509.021 435.808 508.071 435.808 507.485 436.393L499 444.879L490.515 436.393C489.929 435.808 488.979 435.808 488.393 436.393C487.808 436.979 487.808 437.929 488.393 438.515L497.939 448.061ZM497.5 406L497.5 447L500.5 447L500.5 406L497.5 406Z"
     fill="white"
     id="path49766" />
  <path
     d="M552.939 448.061C553.525 448.646 554.475 448.646 555.061 448.061L564.607 438.515C565.192 437.929 565.192 436.979 564.607 436.393C564.021 435.808 563.071 435.808 562.485 436.393L554 444.879L545.515 436.393C544.929 435.808 543.979 435.808 543.393 436.393C542.808 436.979 542.808 437.929 543.393 438.515L552.939 448.061ZM552.5 406L552.5 447L555.5 447L555.5 406L552.5 406Z"
     fill="white"
     id="path49768" />
  <path
     d="M607.939 448.061C608.525 448.646 609.475 448.646 610.061 448.061L619.607 438.515C620.192 437.929 620.192 436.979 619.607 436.393C619.021 435.808 618.071 435.808 617.485 436.393L609 444.879L600.515 436.393C599.929 435.808 598.979 435.808 598.393 436.393C597.808 436.979 597.808 437.929 598.393 438.515L607.939 448.061ZM607.5 406L607.5 447L610.5 447L610.5 406L607.5 406Z"
     fill="white"
     id="path49770" />
  <path
     d="M331.061 480.061C331.646 479.475 331.646 478.525 331.061 477.939L321.515 468.393C320.929 467.808 319.979 467.808 319.393 468.393C318.808 468.979 318.808 469.929 319.393 470.515L327.879 479L319.393 487.485C318.808 488.071 318.808 489.021 319.393 489.607C319.979 490.192 320.929 490.192 321.515 489.607L331.061 480.061ZM330 477.5L289 477.5L289 480.5L330 480.5L330 477.5Z"
     fill="white"
     id="path49772" />
  <path
     d="M381.979 478.351L381.626 477.999L381.273 478.35L379.853 479.76L379.497 480.114L379.852 480.469L385.442 486.059L385.795 486.412L386.149 486.059L398.149 474.059L398.502 473.705L398.149 473.351L396.739 471.941L396.385 471.588L396.032 471.941L385.795 482.168L381.979 478.351Z"
     fill="#0D2378"
     stroke="#0D2378"
     id="path49774" />
  <path
     d="M598.979 478.351L598.626 477.999L598.273 478.35L596.853 479.76L596.497 480.114L596.852 480.469L602.442 486.059L602.795 486.412L603.149 486.059L615.149 474.059L615.502 473.705L615.149 473.351L613.739 471.941L613.385 471.588L613.032 471.941L602.795 482.168L598.979 478.351Z"
     fill="#0D2378"
     stroke="#0D2378"
     id="path49776" />
  <path
     d="M544.979 478.351L544.626 477.999L544.273 478.35L542.853 479.76L542.497 480.114L542.852 480.469L548.442 486.059L548.795 486.412L549.149 486.059L561.149 474.059L561.502 473.705L561.149 473.351L559.739 471.941L559.385 471.588L559.032 471.941L548.795 482.168L544.979 478.351Z"
     fill="#0D2378"
     stroke="#0D2378"
     id="path49778" />
  <path
     d="M451.354 473.764L451.707 473.41L451.354 473.056L449.944 471.646L449.59 471.293L449.236 471.646L444 476.883L438.764 471.646L438.41 471.293L438.056 471.646L436.646 473.056L436.293 473.41L436.646 473.764L441.883 479L436.646 484.236L436.293 484.59L436.646 484.944L438.056 486.354L438.41 486.707L438.764 486.354L444 481.117L449.236 486.354L449.59 486.707L449.944 486.354L451.354 484.944L451.707 484.59L451.354 484.236L446.117 479L451.354 473.764Z"
     fill="#0D2378"
     stroke="#0D2378"
     id="path49780" />
  <path
     d="M505.354 473.764L505.707 473.41L505.354 473.056L503.944 471.646L503.59 471.293L503.236 471.646L498 476.883L492.764 471.646L492.41 471.293L492.056 471.646L490.646 473.056L490.293 473.41L490.646 473.764L495.883 479L490.646 484.236L490.293 484.59L490.646 484.944L492.056 486.354L492.41 486.707L492.764 486.354L498 481.117L503.236 486.354L503.59 486.707L503.944 486.354L505.354 484.944L505.707 484.59L505.354 484.236L500.117 479L505.354 473.764Z"
     fill="#0D2378"
     stroke="#0D2378"
     id="path49782" />
  <circle
     cx="496"
     cy="91"
     r="63.5"
     stroke="white"
     stroke-width="3"
     id="circle49784" />
  <path
     d="M493.351 103H488.851L480.031 79.24H484.135L489.679 95.044L491.119 99.76L492.559 95.08L498.103 79.24H502.171L493.351 103ZM509.752 112.274C509.277 113.513 508.737 114.384 508.132 114.888C507.527 115.392 506.735 115.644 505.756 115.644C505.194 115.644 504.705 115.572 504.287 115.428C503.884 115.298 503.524 115.082 503.207 114.78L503.877 113.009C504.309 113.527 504.899 113.786 505.648 113.786C506.08 113.786 506.44 113.671 506.728 113.441C507.03 113.225 507.297 112.822 507.527 112.231L508.002 111.065L506.879 108.386L503.51 100.2H506.102L508.478 106.982L509.104 109.013L509.838 106.788L512.085 100.2H514.482L509.752 112.274Z"
     fill="white"
     id="path49786" />
  <path
     d="M160.087 32H155.587L146.767 8.24H150.871L156.415 24.044L157.855 28.76L159.295 24.08L164.839 8.24H168.907L160.087 32ZM180.83 38.488C181.147 38.488 181.413 38.4592 181.629 38.4016L181.478 39.9568C181.089 40.1296 180.643 40.216 180.139 40.216C179.519 40.216 179.023 40.0936 178.648 39.8488C178.288 39.604 178.051 39.1936 177.935 38.6176C177.604 39.1216 177.115 39.5176 176.467 39.8056C175.819 40.0792 175.091 40.216 174.285 40.216C173.234 40.216 172.384 39.9712 171.736 39.4816C171.088 38.992 170.764 38.2936 170.764 37.3864C170.764 36.5368 171.117 35.824 171.823 35.248C172.528 34.6576 173.579 34.24 174.976 33.9952L177.719 33.52V32.9368C177.719 32.2744 177.525 31.756 177.136 31.3816C176.747 30.9928 176.207 30.7984 175.516 30.7984C174.091 30.7984 173.162 31.4464 172.73 32.7424L170.937 31.792C171.196 30.928 171.722 30.244 172.514 29.74C173.32 29.236 174.307 28.984 175.473 28.984C176.87 28.984 177.979 29.308 178.799 29.956C179.62 30.604 180.031 31.5544 180.031 32.8072V37.6888C180.031 37.9624 180.088 38.164 180.203 38.2936C180.333 38.4232 180.542 38.488 180.83 38.488ZM174.782 38.4664C175.559 38.4664 176.243 38.2792 176.834 37.9048C177.424 37.5304 177.719 37.0336 177.719 36.4144V35.1184L175.365 35.5936C174.616 35.7376 174.062 35.9392 173.702 36.1984C173.342 36.4576 173.162 36.8032 173.162 37.2352C173.162 37.6384 173.299 37.948 173.572 38.164C173.86 38.3656 174.263 38.4664 174.782 38.4664Z"
     fill="white"
     id="path49788" />
  <path
     d="M159.455 176H154.955L146.135 152.24H150.239L155.783 168.044L157.223 172.76L158.663 168.08L164.207 152.24H168.275L159.455 176ZM176.676 172.984C178.159 172.984 179.326 173.488 180.175 174.496C181.025 175.49 181.45 176.865 181.45 178.622C181.45 180.378 181.025 181.754 180.175 182.747C179.326 183.726 178.159 184.216 176.676 184.216C175.827 184.216 175.078 184.014 174.43 183.611C173.796 183.208 173.321 182.668 173.004 181.991L172.896 184H170.866V168.34H173.177V174.928C173.508 174.323 173.976 173.848 174.581 173.502C175.2 173.157 175.899 172.984 176.676 172.984ZM176.158 182.358C177.094 182.358 177.821 182.027 178.339 181.365C178.872 180.702 179.139 179.781 179.139 178.6C179.139 177.419 178.872 176.505 178.339 175.857C177.821 175.194 177.094 174.863 176.158 174.863C175.279 174.863 174.574 175.158 174.041 175.749C173.523 176.339 173.235 177.153 173.177 178.19V179.01C173.235 180.062 173.523 180.882 174.041 181.473C174.574 182.063 175.279 182.358 176.158 182.358Z"
     fill="white"
     id="path49790" />
  <path
     d="M825.923 32H821.423L812.603 8.24H816.707L822.251 24.044L823.691 28.76L825.131 24.08L830.675 8.24H834.743L825.923 32ZM840.401 29.2H843.9V31.0144H840.466V40H838.155V31.0144H836.124V29.2H838.155V27.6448C838.155 26.5504 838.486 25.7008 839.148 25.096C839.811 24.4912 840.739 24.1888 841.935 24.1888C842.367 24.1888 842.763 24.2392 843.123 24.34C843.483 24.4264 843.763 24.5488 843.965 24.7072L843.533 26.392C843.202 26.176 842.791 26.068 842.302 26.068C841.035 26.068 840.401 26.6512 840.401 27.8176V29.2Z"
     fill="white"
     id="path49792" />
  <path
     d="M824.267 174H819.767L810.947 150.24H815.051L820.595 166.044L822.035 170.76L823.475 166.08L829.019 150.24H833.087L824.267 174ZM841.964 180.315C843.058 180.315 843.908 180.56 844.512 181.05C845.117 181.539 845.42 182.216 845.42 183.08C845.42 183.814 845.175 184.448 844.685 184.981C844.21 185.514 843.548 185.924 842.698 186.212C841.863 186.5 840.92 186.644 839.868 186.644C838.155 186.644 836.866 186.392 836.002 185.888C835.152 185.384 834.728 184.714 834.728 183.879C834.728 183.39 834.893 182.958 835.224 182.583C835.57 182.223 836.045 181.964 836.65 181.806C836.189 181.59 835.822 181.316 835.548 180.985C835.275 180.639 835.138 180.229 835.138 179.754C835.138 178.702 835.7 177.982 836.823 177.594C836.276 177.277 835.858 176.866 835.57 176.362C835.296 175.858 835.16 175.282 835.16 174.634C835.16 173.914 835.354 173.281 835.743 172.734C836.132 172.172 836.679 171.74 837.384 171.438C838.104 171.135 838.925 170.984 839.847 170.984C840.639 170.984 841.366 171.099 842.028 171.33C842.23 170.538 842.59 169.94 843.108 169.537C843.641 169.119 844.34 168.918 845.204 168.932L845.592 170.725C844.901 170.71 844.34 170.797 843.908 170.984C843.49 171.171 843.202 171.452 843.044 171.826C843.519 172.158 843.886 172.561 844.145 173.036C844.404 173.511 844.534 174.044 844.534 174.634C844.534 175.743 844.102 176.629 843.238 177.291C842.388 177.954 841.258 178.285 839.847 178.285C839.184 178.285 838.587 178.22 838.054 178.09C837.694 178.177 837.428 178.321 837.255 178.522C837.096 178.71 837.017 178.962 837.017 179.278C837.017 179.61 837.132 179.869 837.363 180.056C837.608 180.229 837.939 180.315 838.356 180.315H841.964ZM839.847 172.604C839.184 172.604 838.63 172.798 838.184 173.187C837.737 173.562 837.514 174.044 837.514 174.634C837.514 175.239 837.737 175.736 838.184 176.125C838.63 176.499 839.184 176.686 839.847 176.686C840.524 176.686 841.078 176.499 841.51 176.125C841.956 175.736 842.18 175.239 842.18 174.634C842.18 174.03 841.956 173.54 841.51 173.166C841.078 172.791 840.524 172.604 839.847 172.604ZM840.084 184.916C841.136 184.916 841.956 184.765 842.547 184.462C843.137 184.16 843.432 183.786 843.432 183.339C843.432 182.979 843.288 182.706 843 182.518C842.712 182.331 842.23 182.238 841.553 182.238H838.637C837.989 182.238 837.5 182.338 837.168 182.54C836.852 182.742 836.693 183.022 836.693 183.382C836.693 183.872 836.974 184.246 837.536 184.506C838.112 184.779 838.961 184.916 840.084 184.916Z"
     fill="white"
     id="path49794" />
  <path
     d="M143.402 439H139.154L138.05 435.424H132.626L131.498 439H127.346L132.914 423.16H137.858L143.402 439ZM133.394 432.616H137.282L135.338 426.208L133.394 432.616ZM158.029 423.16L152.413 439H147.565L141.925 423.16H146.269L149.173 432.736L150.037 435.856L150.877 432.784L153.829 423.16H158.029ZM172.605 439H168.357L167.253 435.424H161.829L160.701 439H156.549L162.117 423.16H167.061L172.605 439ZM162.597 432.616H166.485L164.541 426.208L162.597 432.616ZM178.575 423.16V439H174.447V423.16H178.575ZM186.216 435.808H194.16V439H182.088V423.16H186.216V435.808ZM210.925 439H206.677L205.573 435.424H200.149L199.021 439H194.869L200.437 423.16H205.381L210.925 439ZM200.917 432.616H204.805L202.861 426.208L200.917 432.616ZM212.768 439V423.16H220.472C222.424 423.176 223.864 423.552 224.792 424.288C225.72 425.008 226.184 426.056 226.184 427.432C226.184 428.328 225.92 429.104 225.392 429.76C224.864 430.4 224.056 430.808 222.968 430.984V431.008C224.184 431.168 225.088 431.592 225.68 432.28C226.288 432.952 226.592 433.768 226.592 434.728C226.592 436.088 226.112 437.144 225.152 437.896C224.192 438.632 222.752 439 220.832 439H212.768ZM216.752 436.096H220.136C220.888 436.096 221.448 435.944 221.816 435.64C222.184 435.336 222.368 434.896 222.368 434.32C222.368 433.76 222.184 433.336 221.816 433.048C221.448 432.744 220.888 432.592 220.136 432.592H216.752V436.096ZM216.752 429.64H219.752C221.224 429.64 221.96 429.064 221.96 427.912C221.96 426.76 221.224 426.184 219.752 426.184H216.752V429.64ZM233.302 435.808H241.246V439H229.174V423.16H233.302V435.808ZM243.611 439V423.16H255.947V426.352H247.739V429.568H254.267V432.568H247.739V435.808H256.259V439H243.611Z"
     fill="#18F0BD"
     id="path49796" />
  <path
     d="M33.3519 470V468.128C34.8719 467.04 36.1439 466.08 37.1679 465.248C38.2079 464.416 39.0399 463.648 39.6639 462.944C40.2879 462.24 40.7359 461.576 41.0079 460.952C41.2959 460.312 41.4399 459.664 41.4399 459.008C41.4399 458.16 41.1759 457.472 40.6479 456.944C40.1199 456.416 39.3839 456.152 38.4399 456.152C37.4479 456.152 36.6559 456.488 36.0639 457.16C35.4879 457.816 35.1599 458.72 35.0799 459.872L32.8479 458.84C32.9599 457.832 33.2559 456.96 33.7359 456.224C34.2159 455.488 34.8639 454.92 35.6799 454.52C36.5119 454.12 37.4719 453.92 38.5599 453.92C39.4559 453.92 40.2399 454.048 40.9119 454.304C41.5999 454.56 42.1759 454.92 42.6399 455.384C43.1039 455.832 43.4559 456.36 43.6959 456.968C43.9519 457.576 44.0799 458.224 44.0799 458.912C44.0799 459.92 43.8319 460.896 43.3359 461.84C42.8399 462.768 42.0559 463.72 40.9839 464.696C39.9119 465.672 38.5039 466.72 36.7599 467.84V467.888C36.9519 467.856 37.2159 467.84 37.5519 467.84C37.8879 467.824 38.2239 467.816 38.5599 467.816C38.8959 467.8 39.1679 467.792 39.3759 467.792H44.3679V470H33.3519ZM47.2458 470L50.4618 456.08C50.6698 455.2 50.9738 454.496 51.3738 453.968C51.7898 453.44 52.3018 453.056 52.9098 452.816C53.5178 452.56 54.2138 452.432 54.9978 452.432C55.4938 452.432 55.9498 452.488 56.3658 452.6C56.7818 452.696 57.1018 452.832 57.3258 453.008L56.6058 454.88C56.4618 454.784 56.2618 454.696 56.0058 454.616C55.7498 454.536 55.4618 454.496 55.1418 454.496C54.4858 454.496 53.9818 454.648 53.6298 454.952C53.2778 455.24 53.0218 455.76 52.8618 456.512L52.4778 458.216L52.3818 458.864L49.8138 470H47.2458ZM47.1978 460.016L47.6778 458H56.1258L55.6458 460.016H47.1978ZM63.5791 456.272V468.416H61.3471V456.272H63.5791ZM68.3551 461.264V463.4H56.5471V461.264H68.3551ZM74.372 470V459.128C74.372 458.808 74.372 458.48 74.372 458.144C74.388 457.792 74.404 457.424 74.42 457.04C73.876 457.568 73.252 458.024 72.548 458.408C71.86 458.776 71.148 459.04 70.412 459.2L69.932 456.968C70.268 456.92 70.66 456.808 71.108 456.632C71.556 456.456 72.02 456.232 72.5 455.96C72.98 455.688 73.42 455.4 73.82 455.096C74.22 454.776 74.532 454.464 74.756 454.16H76.916V470H74.372ZM88.2569 466.712V464.264L98.1209 460.664L88.2569 457.112V454.664L99.8489 459.176V462.2L88.2569 466.712ZM99.8489 470H88.2569V467.864H99.8489V470ZM116.45 457.76C117.618 457.76 118.65 458.008 119.546 458.504C120.442 459 121.138 459.72 121.634 460.664C122.146 461.592 122.402 462.704 122.402 464C122.402 465.296 122.146 466.416 121.634 467.36C121.138 468.288 120.442 469 119.546 469.496C118.65 469.992 117.618 470.24 116.45 470.24C115.282 470.24 114.25 469.992 113.354 469.496C112.458 469 111.754 468.288 111.242 467.36C110.73 466.416 110.474 465.296 110.474 464C110.474 462.704 110.73 461.592 111.242 460.664C111.754 459.72 112.458 459 113.354 458.504C114.25 458.008 115.282 457.76 116.45 457.76ZM116.45 459.776C115.73 459.776 115.114 459.944 114.602 460.28C114.106 460.6 113.722 461.072 113.45 461.696C113.178 462.32 113.042 463.088 113.042 464C113.042 464.896 113.178 465.664 113.45 466.304C113.722 466.928 114.106 467.408 114.602 467.744C115.114 468.064 115.73 468.224 116.45 468.224C117.17 468.224 117.778 468.064 118.274 467.744C118.77 467.408 119.154 466.928 119.426 466.304C119.698 465.664 119.834 464.896 119.834 464C119.834 463.088 119.698 462.32 119.426 461.696C119.154 461.072 118.77 460.6 118.274 460.28C117.778 459.944 117.17 459.776 116.45 459.776ZM130.557 452.432C131.053 452.432 131.501 452.488 131.901 452.6C132.317 452.696 132.629 452.832 132.837 453.008L132.357 454.856C132.181 454.744 131.981 454.664 131.757 454.616C131.533 454.552 131.277 454.52 130.989 454.52C130.333 454.52 129.813 454.672 129.429 454.976C129.061 455.28 128.877 455.776 128.877 456.464V458.216L128.949 458.864V470H126.381V456.272C126.381 455.664 126.469 455.12 126.645 454.64C126.837 454.16 127.117 453.76 127.485 453.44C127.853 453.104 128.293 452.856 128.805 452.696C129.333 452.52 129.917 452.432 130.557 452.432ZM132.765 458V460.016H124.125V458H132.765ZM145.215 454.472V466.4C145.215 466.992 145.367 467.424 145.671 467.696C145.991 467.968 146.415 468.104 146.943 468.104C147.375 468.104 147.751 468.04 148.071 467.912C148.391 467.768 148.687 467.576 148.959 467.336L149.535 469.208C149.167 469.528 148.711 469.784 148.167 469.976C147.639 470.152 147.047 470.24 146.391 470.24C145.703 470.24 145.071 470.128 144.495 469.904C143.919 469.68 143.471 469.32 143.151 468.824C142.831 468.312 142.663 467.648 142.647 466.832V455.192L145.215 454.472ZM149.343 458V460.016H140.343V458H149.343ZM151.976 470V452.6H154.544V459.92C154.944 459.168 155.48 458.624 156.152 458.288C156.84 457.936 157.6 457.76 158.432 457.76C159.28 457.76 160.04 457.928 160.712 458.264C161.4 458.584 161.944 459.072 162.344 459.728C162.744 460.384 162.944 461.216 162.944 462.224V470H160.376V463.04C160.376 461.856 160.128 461.032 159.632 460.568C159.152 460.104 158.544 459.872 157.808 459.872C157.296 459.872 156.784 460 156.272 460.256C155.776 460.496 155.36 460.896 155.024 461.456C154.704 462 154.544 462.736 154.544 463.664V470H151.976ZM172.116 470.24C170.916 470.24 169.86 469.992 168.948 469.496C168.036 469 167.324 468.288 166.812 467.36C166.316 466.416 166.068 465.296 166.068 464C166.068 462.704 166.316 461.592 166.812 460.664C167.324 459.72 168.028 459 168.924 458.504C169.82 458.008 170.836 457.76 171.972 457.76C173.14 457.76 174.132 458 174.948 458.48C175.764 458.96 176.388 459.616 176.82 460.448C177.252 461.28 177.468 462.224 177.468 463.28C177.468 463.568 177.46 463.84 177.444 464.096C177.428 464.352 177.404 464.576 177.372 464.768H167.724V462.8H176.244L174.972 463.184C174.972 462.096 174.7 461.264 174.156 460.688C173.612 460.096 172.868 459.8 171.924 459.8C171.236 459.8 170.636 459.96 170.124 460.28C169.612 460.6 169.22 461.08 168.948 461.72C168.676 462.344 168.54 463.112 168.54 464.024C168.54 464.92 168.684 465.68 168.972 466.304C169.26 466.928 169.668 467.4 170.196 467.72C170.724 468.04 171.348 468.2 172.068 468.2C172.868 468.2 173.516 468.048 174.012 467.744C174.508 467.44 174.9 467.016 175.188 466.472L177.228 467.432C176.94 468.008 176.548 468.512 176.052 468.944C175.572 469.36 174.996 469.68 174.324 469.904C173.652 470.128 172.916 470.24 172.116 470.24ZM195.451 462.296C195.451 461.496 195.227 460.88 194.779 460.448C194.347 460 193.747 459.776 192.979 459.776C192.259 459.776 191.643 459.944 191.131 460.28C190.619 460.616 190.243 461.16 190.003 461.912L187.843 461C188.147 460.024 188.739 459.24 189.619 458.648C190.515 458.056 191.667 457.76 193.075 457.76C194.035 457.76 194.883 457.92 195.619 458.24C196.355 458.544 196.931 459.008 197.347 459.632C197.779 460.256 197.995 461.056 197.995 462.032V467.384C197.995 467.976 198.291 468.272 198.883 468.272C199.171 468.272 199.451 468.232 199.723 468.152L199.579 469.928C199.211 470.104 198.747 470.192 198.187 470.192C197.675 470.192 197.211 470.104 196.795 469.928C196.395 469.736 196.075 469.456 195.835 469.088C195.611 468.704 195.499 468.232 195.499 467.672V467.504L196.027 467.48C195.883 468.104 195.587 468.624 195.139 469.04C194.691 469.44 194.171 469.744 193.579 469.952C192.987 470.144 192.387 470.24 191.779 470.24C191.027 470.24 190.347 470.12 189.739 469.88C189.147 469.64 188.675 469.28 188.323 468.8C187.987 468.304 187.819 467.696 187.819 466.976C187.819 466.08 188.107 465.344 188.683 464.768C189.275 464.192 190.107 463.8 191.179 463.592L195.835 462.68L195.811 464.48L192.427 465.176C191.755 465.304 191.251 465.488 190.915 465.728C190.579 465.968 190.411 466.32 190.411 466.784C190.411 467.232 190.579 467.592 190.915 467.864C191.267 468.12 191.731 468.248 192.307 468.248C192.707 468.248 193.091 468.2 193.459 468.104C193.843 468.008 194.187 467.856 194.491 467.648C194.795 467.424 195.027 467.144 195.187 466.808C195.363 466.456 195.451 466.04 195.451 465.56V462.296ZM207.364 457.76C208.324 457.76 209.14 457.904 209.812 458.192C210.5 458.464 211.076 458.856 211.54 459.368C212.004 459.88 212.356 460.464 212.596 461.12L210.172 462.08C209.964 461.344 209.628 460.784 209.164 460.4C208.716 460 208.124 459.8 207.388 459.8C206.668 459.8 206.052 459.968 205.54 460.304C205.028 460.624 204.636 461.096 204.364 461.72C204.108 462.344 203.98 463.112 203.98 464.024C203.98 464.92 204.116 465.68 204.388 466.304C204.66 466.928 205.052 467.4 205.564 467.72C206.076 468.04 206.684 468.2 207.388 468.2C207.932 468.2 208.404 468.112 208.804 467.936C209.204 467.744 209.532 467.48 209.788 467.144C210.06 466.792 210.244 466.368 210.34 465.872L212.668 466.664C212.444 467.384 212.092 468.016 211.612 468.56C211.148 469.088 210.564 469.504 209.86 469.808C209.156 470.096 208.348 470.24 207.436 470.24C206.252 470.24 205.204 469.992 204.292 469.496C203.38 469 202.668 468.288 202.156 467.36C201.66 466.416 201.412 465.296 201.412 464C201.412 462.704 201.66 461.592 202.156 460.664C202.668 459.72 203.372 459 204.268 458.504C205.18 458.008 206.212 457.76 207.364 457.76ZM219.16 454.472V466.4C219.16 466.992 219.312 467.424 219.616 467.696C219.936 467.968 220.36 468.104 220.888 468.104C221.32 468.104 221.696 468.04 222.016 467.912C222.336 467.768 222.632 467.576 222.904 467.336L223.48 469.208C223.112 469.528 222.656 469.784 222.112 469.976C221.584 470.152 220.992 470.24 220.336 470.24C219.648 470.24 219.016 470.128 218.44 469.904C217.864 469.68 217.416 469.32 217.096 468.824C216.776 468.312 216.608 467.648 216.592 466.832V455.192L219.16 454.472ZM223.288 458V460.016H214.288V458H223.288ZM227.124 455.984C226.564 455.984 226.132 455.848 225.828 455.576C225.54 455.288 225.396 454.888 225.396 454.376C225.396 453.864 225.54 453.472 225.828 453.2C226.132 452.928 226.564 452.792 227.124 452.792C227.668 452.792 228.084 452.928 228.372 453.2C228.676 453.472 228.828 453.864 228.828 454.376C228.828 454.888 228.676 455.288 228.372 455.576C228.084 455.848 227.668 455.984 227.124 455.984ZM228.396 458V470H225.828V458H228.396ZM240.31 458H242.998L238.222 470H235.414L230.614 458H233.422L236.83 467.768L240.31 458ZM250.397 470.24C249.197 470.24 248.141 469.992 247.229 469.496C246.317 469 245.605 468.288 245.093 467.36C244.597 466.416 244.349 465.296 244.349 464C244.349 462.704 244.597 461.592 245.093 460.664C245.605 459.72 246.309 459 247.205 458.504C248.101 458.008 249.117 457.76 250.253 457.76C251.421 457.76 252.413 458 253.229 458.48C254.045 458.96 254.669 459.616 255.101 460.448C255.533 461.28 255.749 462.224 255.749 463.28C255.749 463.568 255.741 463.84 255.725 464.096C255.709 464.352 255.685 464.576 255.653 464.768H246.005V462.8H254.525L253.253 463.184C253.253 462.096 252.981 461.264 252.437 460.688C251.893 460.096 251.149 459.8 250.205 459.8C249.517 459.8 248.917 459.96 248.405 460.28C247.893 460.6 247.501 461.08 247.229 461.72C246.957 462.344 246.821 463.112 246.821 464.024C246.821 464.92 246.965 465.68 247.253 466.304C247.541 466.928 247.949 467.4 248.477 467.72C249.005 468.04 249.629 468.2 250.349 468.2C251.149 468.2 251.797 468.048 252.293 467.744C252.789 467.44 253.181 467.016 253.469 466.472L255.509 467.432C255.221 468.008 254.829 468.512 254.333 468.944C253.853 469.36 253.277 469.68 252.605 469.904C251.933 470.128 251.197 470.24 250.397 470.24ZM33.2083 501.24C32.0083 501.24 30.9123 501.008 29.9203 500.544C28.9283 500.08 28.1443 499.424 27.5683 498.576L29.3443 497.04C29.6963 497.696 30.2003 498.224 30.8563 498.624C31.5283 499.008 32.3283 499.2 33.2563 499.2C33.9923 499.2 34.5763 499.072 35.0083 498.816C35.4403 498.56 35.6563 498.2 35.6563 497.736C35.6563 497.432 35.5523 497.168 35.3443 496.944C35.1523 496.704 34.7763 496.52 34.2163 496.392L31.6963 495.864C30.4163 495.608 29.5043 495.2 28.9603 494.64C28.4163 494.064 28.1443 493.336 28.1443 492.456C28.1443 491.8 28.3363 491.192 28.7203 490.632C29.1043 490.072 29.6643 489.624 30.4003 489.288C31.1523 488.936 32.0483 488.76 33.0883 488.76C34.2883 488.76 35.3123 488.976 36.1603 489.408C37.0083 489.824 37.6563 490.424 38.1043 491.208L36.3283 492.696C36.0243 492.056 35.5763 491.584 34.9843 491.28C34.3923 490.96 33.7763 490.8 33.1363 490.8C32.6243 490.8 32.1843 490.864 31.8163 490.992C31.4483 491.12 31.1683 491.296 30.9763 491.52C30.7843 491.744 30.6883 492.008 30.6883 492.312C30.6883 492.632 30.8083 492.912 31.0483 493.152C31.2883 493.392 31.7203 493.576 32.3443 493.704L35.0803 494.28C36.2323 494.504 37.0403 494.888 37.5043 495.432C37.9843 495.96 38.2243 496.608 38.2243 497.376C38.2243 498.144 38.0243 498.824 37.6243 499.416C37.2243 499.992 36.6483 500.44 35.8963 500.76C35.1443 501.08 34.2483 501.24 33.2083 501.24ZM46.6079 501.24C45.4079 501.24 44.3519 500.992 43.4399 500.496C42.5279 500 41.8159 499.288 41.3039 498.36C40.8079 497.416 40.5599 496.296 40.5599 495C40.5599 493.704 40.8079 492.592 41.3039 491.664C41.8159 490.72 42.5199 490 43.4159 489.504C44.3119 489.008 45.3279 488.76 46.4639 488.76C47.6319 488.76 48.6239 489 49.4399 489.48C50.2559 489.96 50.8799 490.616 51.3119 491.448C51.7439 492.28 51.9599 493.224 51.9599 494.28C51.9599 494.568 51.9519 494.84 51.9359 495.096C51.9199 495.352 51.8959 495.576 51.8639 495.768H42.2159V493.8H50.7359L49.4639 494.184C49.4639 493.096 49.1919 492.264 48.6479 491.688C48.1039 491.096 47.3599 490.8 46.4159 490.8C45.7279 490.8 45.1279 490.96 44.6159 491.28C44.1039 491.6 43.7119 492.08 43.4399 492.72C43.1679 493.344 43.0319 494.112 43.0319 495.024C43.0319 495.92 43.1759 496.68 43.4639 497.304C43.7519 497.928 44.1599 498.4 44.6879 498.72C45.2159 499.04 45.8399 499.2 46.5599 499.2C47.3599 499.2 48.0079 499.048 48.5039 498.744C48.9999 498.44 49.3919 498.016 49.6799 497.472L51.7199 498.432C51.4319 499.008 51.0399 499.512 50.5439 499.944C50.0639 500.36 49.4879 500.68 48.8159 500.904C48.1439 501.128 47.4079 501.24 46.6079 501.24ZM58.4257 485.472V497.4C58.4257 497.992 58.5777 498.424 58.8817 498.696C59.2017 498.968 59.6257 499.104 60.1537 499.104C60.5857 499.104 60.9617 499.04 61.2817 498.912C61.6017 498.768 61.8977 498.576 62.1697 498.336L62.7457 500.208C62.3777 500.528 61.9217 500.784 61.3777 500.976C60.8497 501.152 60.2577 501.24 59.6017 501.24C58.9137 501.24 58.2817 501.128 57.7057 500.904C57.1297 500.68 56.6817 500.32 56.3617 499.824C56.0417 499.312 55.8737 498.648 55.8577 497.832V486.192L58.4257 485.472ZM62.5537 489V491.016H53.5537V489H62.5537ZM72.8983 501V489H75.1783L75.2983 491.016C75.7143 490.248 76.2663 489.68 76.9543 489.312C77.6583 488.944 78.4023 488.76 79.1863 488.76C80.0503 488.76 80.8423 488.96 81.5623 489.36C82.2983 489.744 82.8503 490.328 83.2183 491.112C83.4743 490.584 83.8263 490.144 84.2743 489.792C84.7223 489.44 85.2183 489.184 85.7623 489.024C86.3063 488.848 86.8423 488.76 87.3703 488.76C88.1383 488.76 88.8583 488.92 89.5303 489.24C90.2023 489.56 90.7463 490.048 91.1623 490.704C91.5783 491.36 91.7863 492.2 91.7863 493.224V501H89.2183V493.632C89.2183 492.656 88.9863 491.952 88.5223 491.52C88.0583 491.088 87.4663 490.872 86.7463 490.872C86.1863 490.872 85.6663 491.008 85.1863 491.28C84.7223 491.552 84.3463 491.96 84.0583 492.504C83.7703 493.032 83.6263 493.688 83.6263 494.472V501H81.0583V493.632C81.0583 492.656 80.8263 491.952 80.3623 491.52C79.8983 491.088 79.3063 490.872 78.5863 490.872C78.1063 490.872 77.6263 491 77.1463 491.256C76.6663 491.512 76.2663 491.912 75.9463 492.456C75.6263 493 75.4663 493.72 75.4663 494.616V501H72.8983ZM99.9515 501.24C99.1675 501.24 98.4395 501.096 97.7675 500.808C97.1115 500.52 96.5835 500.056 96.1835 499.416C95.7835 498.776 95.5835 497.944 95.5835 496.92V489H98.1515V496.272C98.1515 497.36 98.3835 498.112 98.8475 498.528C99.3115 498.928 99.9595 499.128 100.792 499.128C101.192 499.128 101.576 499.064 101.944 498.936C102.328 498.792 102.672 498.576 102.976 498.288C103.28 497.984 103.512 497.6 103.672 497.136C103.848 496.672 103.936 496.128 103.936 495.504V489H106.504V501H104.248L104.128 499.056C103.712 499.808 103.152 500.36 102.448 500.712C101.744 501.064 100.912 501.24 99.9515 501.24ZM115.075 501.24C113.875 501.24 112.779 501.008 111.787 500.544C110.795 500.08 110.011 499.424 109.435 498.576L111.211 497.04C111.563 497.696 112.067 498.224 112.723 498.624C113.395 499.008 114.195 499.2 115.123 499.2C115.859 499.2 116.443 499.072 116.875 498.816C117.307 498.56 117.523 498.2 117.523 497.736C117.523 497.432 117.419 497.168 117.211 496.944C117.019 496.704 116.643 496.52 116.083 496.392L113.563 495.864C112.283 495.608 111.371 495.2 110.827 494.64C110.283 494.064 110.011 493.336 110.011 492.456C110.011 491.8 110.203 491.192 110.587 490.632C110.971 490.072 111.531 489.624 112.267 489.288C113.019 488.936 113.915 488.76 114.955 488.76C116.155 488.76 117.179 488.976 118.027 489.408C118.875 489.824 119.523 490.424 119.971 491.208L118.195 492.696C117.891 492.056 117.443 491.584 116.851 491.28C116.259 490.96 115.643 490.8 115.003 490.8C114.491 490.8 114.051 490.864 113.683 490.992C113.315 491.12 113.035 491.296 112.843 491.52C112.651 491.744 112.555 492.008 112.555 492.312C112.555 492.632 112.675 492.912 112.915 493.152C113.155 493.392 113.587 493.576 114.211 493.704L116.947 494.28C118.099 494.504 118.907 494.888 119.371 495.432C119.851 495.96 120.091 496.608 120.091 497.376C120.091 498.144 119.891 498.824 119.491 499.416C119.091 499.992 118.515 500.44 117.763 500.76C117.011 501.08 116.115 501.24 115.075 501.24ZM126.723 485.472V497.4C126.723 497.992 126.875 498.424 127.179 498.696C127.499 498.968 127.923 499.104 128.451 499.104C128.883 499.104 129.259 499.04 129.579 498.912C129.899 498.768 130.195 498.576 130.467 498.336L131.043 500.208C130.675 500.528 130.219 500.784 129.675 500.976C129.147 501.152 128.555 501.24 127.899 501.24C127.211 501.24 126.579 501.128 126.003 500.904C125.427 500.68 124.979 500.32 124.659 499.824C124.339 499.312 124.171 498.648 124.155 497.832V486.192L126.723 485.472ZM130.851 489V491.016H121.851V489H130.851ZM141.195 501V483.6H143.763V490.92C144.163 490.168 144.699 489.624 145.371 489.288C146.059 488.936 146.819 488.76 147.651 488.76C148.499 488.76 149.259 488.928 149.931 489.264C150.619 489.584 151.163 490.072 151.563 490.728C151.963 491.384 152.163 492.216 152.163 493.224V501H149.595V494.04C149.595 492.856 149.347 492.032 148.851 491.568C148.371 491.104 147.763 490.872 147.027 490.872C146.515 490.872 146.003 491 145.491 491.256C144.995 491.496 144.579 491.896 144.243 492.456C143.923 493 143.763 493.736 143.763 494.664V501H141.195ZM162.991 493.296C162.991 492.496 162.767 491.88 162.319 491.448C161.887 491 161.287 490.776 160.519 490.776C159.799 490.776 159.183 490.944 158.671 491.28C158.159 491.616 157.783 492.16 157.543 492.912L155.383 492C155.687 491.024 156.279 490.24 157.159 489.648C158.055 489.056 159.207 488.76 160.615 488.76C161.575 488.76 162.423 488.92 163.159 489.24C163.895 489.544 164.471 490.008 164.887 490.632C165.319 491.256 165.535 492.056 165.535 493.032V498.384C165.535 498.976 165.831 499.272 166.423 499.272C166.711 499.272 166.991 499.232 167.263 499.152L167.119 500.928C166.751 501.104 166.287 501.192 165.727 501.192C165.215 501.192 164.751 501.104 164.335 500.928C163.935 500.736 163.615 500.456 163.375 500.088C163.151 499.704 163.039 499.232 163.039 498.672V498.504L163.567 498.48C163.423 499.104 163.127 499.624 162.679 500.04C162.231 500.44 161.711 500.744 161.118 500.952C160.526 501.144 159.927 501.24 159.319 501.24C158.567 501.24 157.887 501.12 157.279 500.88C156.687 500.64 156.215 500.28 155.863 499.8C155.527 499.304 155.359 498.696 155.359 497.976C155.359 497.08 155.647 496.344 156.223 495.768C156.815 495.192 157.647 494.8 158.719 494.592L163.375 493.68L163.351 495.48L159.967 496.176C159.295 496.304 158.791 496.488 158.455 496.728C158.119 496.968 157.951 497.32 157.951 497.784C157.951 498.232 158.119 498.592 158.455 498.864C158.807 499.12 159.271 499.248 159.847 499.248C160.247 499.248 160.631 499.2 160.999 499.104C161.383 499.008 161.727 498.856 162.031 498.648C162.335 498.424 162.567 498.144 162.727 497.808C162.903 497.456 162.991 497.04 162.991 496.56V493.296ZM177.216 489H179.904L175.128 501H172.32L167.52 489H170.328L173.736 498.768L177.216 489ZM187.303 501.24C186.103 501.24 185.047 500.992 184.135 500.496C183.223 500 182.511 499.288 181.999 498.36C181.503 497.416 181.255 496.296 181.255 495C181.255 493.704 181.503 492.592 181.999 491.664C182.511 490.72 183.215 490 184.111 489.504C185.007 489.008 186.023 488.76 187.159 488.76C188.327 488.76 189.319 489 190.135 489.48C190.951 489.96 191.575 490.616 192.007 491.448C192.439 492.28 192.655 493.224 192.655 494.28C192.655 494.568 192.647 494.84 192.631 495.096C192.615 495.352 192.591 495.576 192.559 495.768H182.911V493.8H191.431L190.159 494.184C190.159 493.096 189.887 492.264 189.343 491.688C188.799 491.096 188.055 490.8 187.111 490.8C186.423 490.8 185.823 490.96 185.311 491.28C184.799 491.6 184.407 492.08 184.135 492.72C183.863 493.344 183.727 494.112 183.727 495.024C183.727 495.92 183.871 496.68 184.159 497.304C184.447 497.928 184.855 498.4 185.383 498.72C185.911 499.04 186.535 499.2 187.255 499.2C188.055 499.2 188.703 499.048 189.199 498.744C189.695 498.44 190.087 498.016 190.375 497.472L192.415 498.432C192.127 499.008 191.735 499.512 191.239 499.944C190.759 500.36 190.183 500.68 189.511 500.904C188.839 501.128 188.103 501.24 187.303 501.24ZM208.263 501.24C207.063 501.24 205.967 501.008 204.975 500.544C203.983 500.08 203.199 499.424 202.623 498.576L204.399 497.04C204.751 497.696 205.255 498.224 205.911 498.624C206.583 499.008 207.383 499.2 208.311 499.2C209.047 499.2 209.631 499.072 210.063 498.816C210.495 498.56 210.711 498.2 210.711 497.736C210.711 497.432 210.607 497.168 210.399 496.944C210.207 496.704 209.831 496.52 209.271 496.392L206.751 495.864C205.471 495.608 204.559 495.2 204.015 494.64C203.471 494.064 203.199 493.336 203.199 492.456C203.199 491.8 203.391 491.192 203.775 490.632C204.159 490.072 204.719 489.624 205.455 489.288C206.207 488.936 207.103 488.76 208.143 488.76C209.343 488.76 210.367 488.976 211.215 489.408C212.063 489.824 212.711 490.424 213.159 491.208L211.383 492.696C211.079 492.056 210.631 491.584 210.039 491.28C209.447 490.96 208.831 490.8 208.191 490.8C207.679 490.8 207.239 490.864 206.871 490.992C206.503 491.12 206.223 491.296 206.031 491.52C205.839 491.744 205.743 492.008 205.743 492.312C205.743 492.632 205.863 492.912 206.103 493.152C206.343 493.392 206.775 493.576 207.399 493.704L210.135 494.28C211.287 494.504 212.095 494.888 212.559 495.432C213.039 495.96 213.279 496.608 213.279 497.376C213.279 498.144 213.079 498.824 212.679 499.416C212.279 499.992 211.703 500.44 210.951 500.76C210.199 501.08 209.303 501.24 208.263 501.24ZM221.663 501.24C220.463 501.24 219.407 500.992 218.495 500.496C217.583 500 216.871 499.288 216.359 498.36C215.863 497.416 215.615 496.296 215.615 495C215.615 493.704 215.863 492.592 216.359 491.664C216.871 490.72 217.575 490 218.471 489.504C219.367 489.008 220.383 488.76 221.519 488.76C222.687 488.76 223.679 489 224.495 489.48C225.311 489.96 225.935 490.616 226.367 491.448C226.799 492.28 227.015 493.224 227.015 494.28C227.015 494.568 227.007 494.84 226.991 495.096C226.975 495.352 226.951 495.576 226.919 495.768H217.271V493.8H225.791L224.519 494.184C224.519 493.096 224.247 492.264 223.703 491.688C223.159 491.096 222.415 490.8 221.471 490.8C220.783 490.8 220.183 490.96 219.671 491.28C219.159 491.6 218.767 492.08 218.495 492.72C218.223 493.344 218.087 494.112 218.087 495.024C218.087 495.92 218.231 496.68 218.519 497.304C218.807 497.928 219.215 498.4 219.743 498.72C220.271 499.04 220.895 499.2 221.615 499.2C222.415 499.2 223.063 499.048 223.559 498.744C224.055 498.44 224.447 498.016 224.735 497.472L226.775 498.432C226.487 499.008 226.095 499.512 225.599 499.944C225.119 500.36 224.543 500.68 223.871 500.904C223.199 501.128 222.463 501.24 221.663 501.24ZM235.538 501.24C234.338 501.24 233.282 500.992 232.37 500.496C231.458 500 230.746 499.288 230.234 498.36C229.738 497.416 229.49 496.296 229.49 495C229.49 493.704 229.738 492.592 230.234 491.664C230.746 490.72 231.45 490 232.346 489.504C233.242 489.008 234.258 488.76 235.394 488.76C236.562 488.76 237.554 489 238.37 489.48C239.186 489.96 239.81 490.616 240.242 491.448C240.674 492.28 240.89 493.224 240.89 494.28C240.89 494.568 240.882 494.84 240.866 495.096C240.85 495.352 240.826 495.576 240.794 495.768H231.146V493.8H239.666L238.394 494.184C238.394 493.096 238.122 492.264 237.578 491.688C237.034 491.096 236.29 490.8 235.346 490.8C234.658 490.8 234.058 490.96 233.546 491.28C233.034 491.6 232.642 492.08 232.37 492.72C232.098 493.344 231.962 494.112 231.962 495.024C231.962 495.92 232.106 496.68 232.394 497.304C232.682 497.928 233.09 498.4 233.618 498.72C234.146 499.04 234.77 499.2 235.49 499.2C236.29 499.2 236.938 499.048 237.434 498.744C237.93 498.44 238.322 498.016 238.61 497.472L240.65 498.432C240.362 499.008 239.97 499.512 239.474 499.944C238.994 500.36 238.418 500.68 237.746 500.904C237.074 501.128 236.338 501.24 235.538 501.24ZM244.133 501V489H246.413L246.581 492.12L246.245 491.784C246.469 491.096 246.789 490.528 247.205 490.08C247.637 489.616 248.141 489.28 248.717 489.072C249.309 488.864 249.933 488.76 250.589 488.76C251.437 488.76 252.197 488.928 252.869 489.264C253.557 489.584 254.101 490.072 254.501 490.728C254.901 491.384 255.101 492.216 255.101 493.224V501H252.533V494.016C252.533 492.832 252.285 492.016 251.789 491.568C251.309 491.104 250.701 490.872 249.965 490.872C249.437 490.872 248.925 491 248.429 491.256C247.933 491.496 247.517 491.888 247.181 492.432C246.861 492.976 246.701 493.704 246.701 494.616V501H244.133ZM99.7226 516.472V528.4C99.7226 528.992 99.8746 529.424 100.179 529.696C100.499 529.968 100.923 530.104 101.451 530.104C101.883 530.104 102.259 530.04 102.579 529.912C102.899 529.768 103.195 529.576 103.467 529.336L104.043 531.208C103.675 531.528 103.219 531.784 102.675 531.976C102.147 532.152 101.555 532.24 100.899 532.24C100.211 532.24 99.5786 532.128 99.0026 531.904C98.4266 531.68 97.9786 531.32 97.6586 530.824C97.3386 530.312 97.1706 529.648 97.1546 528.832V517.192L99.7226 516.472ZM103.851 520V522.016H94.8506V520H103.851ZM106.484 532V514.6H109.052V521.92C109.452 521.168 109.988 520.624 110.66 520.288C111.348 519.936 112.108 519.76 112.94 519.76C113.788 519.76 114.548 519.928 115.22 520.264C115.908 520.584 116.452 521.072 116.852 521.728C117.252 522.384 117.452 523.216 117.452 524.224V532H114.884V525.04C114.884 523.856 114.636 523.032 114.14 522.568C113.66 522.104 113.052 521.872 112.316 521.872C111.804 521.872 111.292 522 110.78 522.256C110.284 522.496 109.868 522.896 109.532 523.456C109.212 524 109.052 524.736 109.052 525.664V532H106.484ZM126.624 532.24C125.424 532.24 124.368 531.992 123.456 531.496C122.544 531 121.832 530.288 121.32 529.36C120.824 528.416 120.576 527.296 120.576 526C120.576 524.704 120.824 523.592 121.32 522.664C121.832 521.72 122.536 521 123.432 520.504C124.328 520.008 125.344 519.76 126.48 519.76C127.648 519.76 128.64 520 129.456 520.48C130.272 520.96 130.896 521.616 131.328 522.448C131.76 523.28 131.976 524.224 131.976 525.28C131.976 525.568 131.968 525.84 131.952 526.096C131.936 526.352 131.912 526.576 131.88 526.768H122.232V524.8H130.752L129.48 525.184C129.48 524.096 129.208 523.264 128.664 522.688C128.12 522.096 127.376 521.8 126.432 521.8C125.744 521.8 125.144 521.96 124.632 522.28C124.12 522.6 123.728 523.08 123.456 523.72C123.184 524.344 123.048 525.112 123.048 526.024C123.048 526.92 123.192 527.68 123.48 528.304C123.768 528.928 124.176 529.4 124.704 529.72C125.232 530.04 125.856 530.2 126.576 530.2C127.376 530.2 128.024 530.048 128.52 529.744C129.016 529.44 129.408 529.016 129.696 528.472L131.736 529.432C131.448 530.008 131.056 530.512 130.56 530.944C130.08 531.36 129.504 531.68 128.832 531.904C128.16 532.128 127.424 532.24 126.624 532.24ZM148.207 519.76C149.167 519.76 149.983 519.904 150.655 520.192C151.343 520.464 151.919 520.856 152.383 521.368C152.847 521.88 153.199 522.464 153.439 523.12L151.015 524.08C150.807 523.344 150.471 522.784 150.007 522.4C149.559 522 148.967 521.8 148.231 521.8C147.511 521.8 146.895 521.968 146.383 522.304C145.871 522.624 145.479 523.096 145.207 523.72C144.951 524.344 144.823 525.112 144.823 526.024C144.823 526.92 144.959 527.68 145.231 528.304C145.503 528.928 145.895 529.4 146.407 529.72C146.919 530.04 147.527 530.2 148.231 530.2C148.775 530.2 149.247 530.112 149.647 529.936C150.047 529.744 150.375 529.48 150.631 529.144C150.903 528.792 151.087 528.368 151.183 527.872L153.511 528.664C153.287 529.384 152.935 530.016 152.455 530.56C151.991 531.088 151.407 531.504 150.703 531.808C149.999 532.096 149.191 532.24 148.279 532.24C147.095 532.24 146.047 531.992 145.135 531.496C144.223 531 143.511 530.288 142.999 529.36C142.503 528.416 142.255 527.296 142.255 526C142.255 524.704 142.503 523.592 142.999 522.664C143.511 521.72 144.215 521 145.111 520.504C146.023 520.008 147.055 519.76 148.207 519.76ZM163.436 524.296C163.436 523.496 163.212 522.88 162.764 522.448C162.332 522 161.732 521.776 160.964 521.776C160.244 521.776 159.628 521.944 159.116 522.28C158.604 522.616 158.228 523.16 157.988 523.912L155.828 523C156.132 522.024 156.724 521.24 157.604 520.648C158.5 520.056 159.652 519.76 161.06 519.76C162.02 519.76 162.868 519.92 163.604 520.24C164.34 520.544 164.916 521.008 165.332 521.632C165.764 522.256 165.98 523.056 165.98 524.032V529.384C165.98 529.976 166.276 530.272 166.868 530.272C167.156 530.272 167.436 530.232 167.708 530.152L167.564 531.928C167.196 532.104 166.732 532.192 166.172 532.192C165.66 532.192 165.196 532.104 164.78 531.928C164.38 531.736 164.06 531.456 163.82 531.088C163.596 530.704 163.484 530.232 163.484 529.672V529.504L164.012 529.48C163.868 530.104 163.572 530.624 163.124 531.04C162.676 531.44 162.156 531.744 161.564 531.952C160.972 532.144 160.372 532.24 159.764 532.24C159.012 532.24 158.332 532.12 157.724 531.88C157.132 531.64 156.66 531.28 156.308 530.8C155.972 530.304 155.804 529.696 155.804 528.976C155.804 528.08 156.092 527.344 156.668 526.768C157.26 526.192 158.092 525.8 159.164 525.592L163.82 524.68L163.796 526.48L160.412 527.176C159.74 527.304 159.236 527.488 158.9 527.728C158.564 527.968 158.396 528.32 158.396 528.784C158.396 529.232 158.564 529.592 158.9 529.864C159.252 530.12 159.716 530.248 160.292 530.248C160.692 530.248 161.076 530.2 161.444 530.104C161.828 530.008 162.172 529.856 162.476 529.648C162.78 529.424 163.012 529.144 163.172 528.808C163.348 528.456 163.436 528.04 163.436 527.56V524.296ZM170.187 532V520H172.467L172.635 523.12L172.299 522.784C172.523 522.096 172.843 521.528 173.259 521.08C173.691 520.616 174.195 520.28 174.771 520.072C175.363 519.864 175.987 519.76 176.643 519.76C177.491 519.76 178.251 519.928 178.923 520.264C179.611 520.584 180.155 521.072 180.555 521.728C180.955 522.384 181.155 523.216 181.155 524.224V532H178.587V525.016C178.587 523.832 178.339 523.016 177.843 522.568C177.363 522.104 176.755 521.872 176.019 521.872C175.491 521.872 174.979 522 174.483 522.256C173.987 522.496 173.571 522.888 173.235 523.432C172.915 523.976 172.755 524.704 172.755 525.616V532H170.187ZM189.655 532.24C188.663 532.24 187.759 531.992 186.943 531.496C186.143 531 185.511 530.288 185.047 529.36C184.583 528.432 184.351 527.32 184.351 526.024C184.351 524.68 184.599 523.544 185.095 522.616C185.591 521.688 186.255 520.984 187.087 520.504C187.919 520.008 188.831 519.76 189.823 519.76C190.847 519.76 191.711 520.04 192.415 520.6C193.119 521.16 193.591 521.888 193.831 522.784L193.543 523.048V514.6H196.111V532H193.831L193.639 528.736L193.975 528.76C193.863 529.48 193.599 530.104 193.183 530.632C192.767 531.144 192.247 531.544 191.623 531.832C191.015 532.104 190.359 532.24 189.655 532.24ZM190.207 530.176C190.895 530.176 191.487 530 191.983 529.648C192.479 529.296 192.863 528.8 193.135 528.16C193.407 527.52 193.543 526.752 193.543 525.856C193.543 525.024 193.407 524.312 193.135 523.72C192.863 523.112 192.479 522.648 191.983 522.328C191.503 522.008 190.943 521.848 190.303 521.848C189.231 521.848 188.399 522.216 187.807 522.952C187.215 523.688 186.919 524.704 186.919 526C186.919 527.296 187.207 528.32 187.783 529.072C188.359 529.808 189.167 530.176 190.207 530.176ZM201.39 517.984C200.83 517.984 200.398 517.848 200.094 517.576C199.806 517.288 199.662 516.888 199.662 516.376C199.662 515.864 199.806 515.472 200.094 515.2C200.398 514.928 200.83 514.792 201.39 514.792C201.934 514.792 202.35 514.928 202.638 515.2C202.942 515.472 203.094 515.864 203.094 516.376C203.094 516.888 202.942 517.288 202.638 517.576C202.35 517.848 201.934 517.984 201.39 517.984ZM202.662 520V532H200.094V520H202.662ZM211.288 532.24C210.296 532.24 209.392 531.992 208.576 531.496C207.776 531 207.144 530.288 206.68 529.36C206.216 528.432 205.984 527.32 205.984 526.024C205.984 524.68 206.232 523.544 206.728 522.616C207.224 521.688 207.888 520.984 208.72 520.504C209.552 520.008 210.464 519.76 211.456 519.76C212.48 519.76 213.344 520.04 214.048 520.6C214.752 521.16 215.224 521.888 215.464 522.784L215.176 523.048V514.6H217.744V532H215.464L215.272 528.736L215.608 528.76C215.496 529.48 215.232 530.104 214.816 530.632C214.4 531.144 213.88 531.544 213.256 531.832C212.648 532.104 211.992 532.24 211.288 532.24ZM211.84 530.176C212.528 530.176 213.12 530 213.616 529.648C214.112 529.296 214.496 528.8 214.768 528.16C215.04 527.52 215.176 526.752 215.176 525.856C215.176 525.024 215.04 524.312 214.768 523.72C214.496 523.112 214.112 522.648 213.616 522.328C213.136 522.008 212.576 521.848 211.936 521.848C210.864 521.848 210.032 522.216 209.44 522.952C208.848 523.688 208.552 524.704 208.552 526C208.552 527.296 208.84 528.32 209.416 529.072C209.992 529.808 210.8 530.176 211.84 530.176ZM228.662 524.296C228.662 523.496 228.438 522.88 227.99 522.448C227.558 522 226.958 521.776 226.19 521.776C225.47 521.776 224.854 521.944 224.342 522.28C223.83 522.616 223.454 523.16 223.214 523.912L221.054 523C221.358 522.024 221.95 521.24 222.83 520.648C223.726 520.056 224.878 519.76 226.286 519.76C227.246 519.76 228.094 519.92 228.83 520.24C229.566 520.544 230.142 521.008 230.558 521.632C230.99 522.256 231.206 523.056 231.206 524.032V529.384C231.206 529.976 231.502 530.272 232.094 530.272C232.382 530.272 232.662 530.232 232.934 530.152L232.79 531.928C232.422 532.104 231.958 532.192 231.398 532.192C230.886 532.192 230.422 532.104 230.006 531.928C229.606 531.736 229.286 531.456 229.046 531.088C228.822 530.704 228.71 530.232 228.71 529.672V529.504L229.238 529.48C229.094 530.104 228.798 530.624 228.35 531.04C227.902 531.44 227.382 531.744 226.79 531.952C226.198 532.144 225.598 532.24 224.99 532.24C224.238 532.24 223.558 532.12 222.95 531.88C222.358 531.64 221.886 531.28 221.534 530.8C221.198 530.304 221.03 529.696 221.03 528.976C221.03 528.08 221.318 527.344 221.894 526.768C222.486 526.192 223.318 525.8 224.39 525.592L229.046 524.68L229.022 526.48L225.638 527.176C224.966 527.304 224.462 527.488 224.126 527.728C223.79 527.968 223.622 528.32 223.622 528.784C223.622 529.232 223.79 529.592 224.126 529.864C224.478 530.12 224.942 530.248 225.518 530.248C225.918 530.248 226.302 530.2 226.67 530.104C227.054 530.008 227.398 529.856 227.702 529.648C228.006 529.424 228.238 529.144 228.398 528.808C228.574 528.456 228.662 528.04 228.662 527.56V524.296ZM238.449 516.472V528.4C238.449 528.992 238.601 529.424 238.905 529.696C239.225 529.968 239.649 530.104 240.177 530.104C240.609 530.104 240.985 530.04 241.305 529.912C241.625 529.768 241.921 529.576 242.193 529.336L242.769 531.208C242.401 531.528 241.945 531.784 241.401 531.976C240.873 532.152 240.281 532.24 239.625 532.24C238.937 532.24 238.305 532.128 237.729 531.904C237.153 531.68 236.705 531.32 236.385 530.824C236.065 530.312 235.897 529.648 235.881 528.832V517.192L238.449 516.472ZM242.577 520V522.016H233.577V520H242.577ZM250.397 532.24C249.197 532.24 248.141 531.992 247.229 531.496C246.317 531 245.605 530.288 245.093 529.36C244.597 528.416 244.349 527.296 244.349 526C244.349 524.704 244.597 523.592 245.093 522.664C245.605 521.72 246.309 521 247.205 520.504C248.101 520.008 249.117 519.76 250.253 519.76C251.421 519.76 252.413 520 253.229 520.48C254.045 520.96 254.669 521.616 255.101 522.448C255.533 523.28 255.749 524.224 255.749 525.28C255.749 525.568 255.741 525.84 255.725 526.096C255.709 526.352 255.685 526.576 255.653 526.768H246.005V524.8H254.525L253.253 525.184C253.253 524.096 252.981 523.264 252.437 522.688C251.893 522.096 251.149 521.8 250.205 521.8C249.517 521.8 248.917 521.96 248.405 522.28C247.893 522.6 247.501 523.08 247.229 523.72C246.957 524.344 246.821 525.112 246.821 526.024C246.821 526.92 246.965 527.68 247.253 528.304C247.541 528.928 247.949 529.4 248.477 529.72C249.005 530.04 249.629 530.2 250.349 530.2C251.149 530.2 251.797 530.048 252.293 529.744C252.789 529.44 253.181 529.016 253.469 528.472L255.509 529.432C255.221 530.008 254.829 530.512 254.333 530.944C253.853 531.36 253.277 531.68 252.605 531.904C251.933 532.128 251.197 532.24 250.397 532.24Z"
     fill="white"
     id="path49798" />
  <path
     d="M411.779 73.282C412.487 72.8518 412.712 71.9292 412.282 71.2212L405.272 59.6836C404.842 58.9756 403.92 58.7503 403.212 59.1805C402.504 59.6106 402.278 60.5333 402.708 61.2413L408.939 71.4969L398.684 77.7277C397.976 78.1578 397.75 79.0805 398.181 79.7885C398.611 80.4965 399.533 80.7217 400.241 80.2916L411.779 73.282ZM197.644 21.4572L410.644 73.4572L411.356 70.5428L198.356 18.5428L197.644 21.4572Z"
     fill="white"
     id="path49800" />
  <path
     d="M580.221 73.282C579.513 72.8518 579.288 71.9292 579.718 71.2212L586.728 59.6836C587.158 58.9756 588.08 58.7503 588.788 59.1805C589.496 59.6106 589.722 60.5333 589.292 61.2413L583.061 71.4969L593.316 77.7277C594.024 78.1578 594.25 79.0805 593.819 79.7885C593.389 80.4965 592.467 80.7217 591.759 80.2916L580.221 73.282ZM794.356 21.4572L581.356 73.4572L580.644 70.5428L793.644 18.5428L794.356 21.4572Z"
     fill="white"
     id="path49802" />
  <path
     d="M411.779 108.718C412.487 109.148 412.712 110.071 412.282 110.779L405.272 122.316C404.842 123.024 403.92 123.25 403.212 122.82C402.504 122.389 402.278 121.467 402.708 120.759L408.939 110.503L398.684 104.272C397.976 103.842 397.75 102.92 398.181 102.212C398.611 101.504 399.533 101.278 400.241 101.708L411.779 108.718ZM197.644 160.543L410.644 108.543L411.356 111.457L198.356 163.457L197.644 160.543Z"
     fill="white"
     id="path49804" />
  <path
     d="M580.221 108.718C579.513 109.148 579.288 110.071 579.718 110.779L586.728 122.316C587.158 123.024 588.08 123.25 588.788 122.82C589.496 122.389 589.722 121.467 589.292 120.759L583.061 110.503L593.316 104.272C594.024 103.842 594.25 102.92 593.819 102.212C593.389 101.504 592.467 101.278 591.759 101.708L580.221 108.718ZM794.356 160.543L581.356 108.543L580.644 111.457L793.644 163.457L794.356 160.543Z"
     fill="white"
     id="path49806" />
  <path
     d="m 308.22881,220.49544 h -4.5 l -8.82,-23.76 h 4.104 l 5.544,15.804 1.44,4.716 1.44,-4.68 5.544,-15.84 h 4.068 z m 20.743,6.488 c 0.317,0 0.583,-0.0288 0.799,-0.0864 l -0.151,1.5552 c -0.389,0.1728 -0.835,0.2592 -1.339,0.2592 -0.62,0 -1.116,-0.1224 -1.491,-0.3672 -0.36,-0.2448 -0.597,-0.6552 -0.713,-1.2312 -0.331,0.504 -0.82,0.9 -1.468,1.188 -0.648,0.2736 -1.376,0.4104 -2.182,0.4104 -1.051,0 -1.901,-0.2448 -2.549,-0.7344 -0.648,-0.4896 -0.972,-1.188 -0.972,-2.0952 0,-0.8496 0.353,-1.5624 1.059,-2.1384 0.705,-0.5904 1.756,-1.008 3.153,-1.2528 l 2.743,-0.4752 v -0.5832 c 0,-0.6624 -0.194,-1.1808 -0.583,-1.5552 -0.389,-0.3888 -0.929,-0.5832 -1.62,-0.5832 -1.425,0 -2.354,0.648 -2.786,1.944 l -1.793,-0.9504 c 0.259,-0.864 0.785,-1.548 1.577,-2.052 0.806,-0.504 1.793,-0.756 2.959,-0.756 1.397,0 2.506,0.324 3.326,0.972 0.821,0.648 1.232,1.5984 1.232,2.8512 v 4.8816 c 0,0.2736 0.057,0.4752 0.172,0.6048 0.13,0.1296 0.339,0.1944 0.627,0.1944 z m -6.048,-0.0216 c 0.777,0 1.461,-0.1872 2.052,-0.5616 0.59,-0.3744 0.885,-0.8712 0.885,-1.4904 v -1.296 l -2.354,0.4752 c -0.749,0.144 -1.303,0.3456 -1.663,0.6048 -0.36,0.2592 -0.54,0.6048 -0.54,1.0368 0,0.4032 0.137,0.7128 0.41,0.9288 0.288,0.2016 0.691,0.3024 1.21,0.3024 z"
     fill="#ffffff"
     id="path49788-0" />
  <path
     d="m 309.97881,272.64 h -4.5 l -8.82,-23.76 h 4.104 l 5.544,15.804 1.44,4.716 1.44,-4.68 5.544,-15.84 h 4.068 z m 14.478,-2.8 h 3.499 v 1.8144 h -3.434 v 8.9856 h -2.311 v -8.9856 h -2.031 V 269.84 h 2.031 v -1.5552 c 0,-1.0944 0.331,-1.944 0.993,-2.5488 0.663,-0.6048 1.591,-0.9072 2.787,-0.9072 0.432,0 0.828,0.0504 1.188,0.1512 0.36,0.0864 0.64,0.2088 0.842,0.3672 l -0.432,1.6848 c -0.331,-0.216 -0.742,-0.324 -1.231,-0.324 -1.267,0 -1.901,0.5832 -1.901,1.7496 z"
     fill="#ffffff"
     id="path49792-9" />
  <path
     d="m 308.33731,328.9095 h -4.5 l -8.82,-23.76 h 4.104 l 5.544,15.804 1.44,4.716 1.44,-4.68 5.544,-15.84 h 4.068 z m 17.697,6.315 c 1.094,0 1.944,0.245 2.548,0.735 0.605,0.489 0.908,1.166 0.908,2.03 0,0.734 -0.245,1.368 -0.735,1.901 -0.475,0.533 -1.137,0.943 -1.987,1.231 -0.835,0.288 -1.778,0.432 -2.83,0.432 -1.713,0 -3.002,-0.252 -3.866,-0.756 -0.85,-0.504 -1.274,-1.174 -1.274,-2.009 0,-0.489 0.165,-0.921 0.496,-1.296 0.346,-0.36 0.821,-0.619 1.426,-0.777 -0.461,-0.216 -0.828,-0.49 -1.102,-0.821 -0.273,-0.346 -0.41,-0.756 -0.41,-1.231 0,-1.052 0.562,-1.772 1.685,-2.16 -0.547,-0.317 -0.965,-0.728 -1.253,-1.232 -0.274,-0.504 -0.41,-1.08 -0.41,-1.728 0,-0.72 0.194,-1.353 0.583,-1.9 0.389,-0.562 0.936,-0.994 1.641,-1.296 0.72,-0.303 1.541,-0.454 2.463,-0.454 0.792,0 1.519,0.115 2.181,0.346 0.202,-0.792 0.562,-1.39 1.08,-1.793 0.533,-0.418 1.232,-0.619 2.096,-0.605 l 0.388,1.793 c -0.691,-0.015 -1.252,0.072 -1.684,0.259 -0.418,0.187 -0.706,0.468 -0.864,0.842 0.475,0.332 0.842,0.735 1.101,1.21 0.259,0.475 0.389,1.008 0.389,1.598 0,1.109 -0.432,1.995 -1.296,2.657 -0.85,0.663 -1.98,0.994 -3.391,0.994 -0.663,0 -1.26,-0.065 -1.793,-0.195 -0.36,0.087 -0.626,0.231 -0.799,0.432 -0.159,0.188 -0.238,0.44 -0.238,0.756 0,0.332 0.115,0.591 0.346,0.778 0.245,0.173 0.576,0.259 0.993,0.259 z m -2.117,-7.711 c -0.663,0 -1.217,0.194 -1.663,0.583 -0.447,0.375 -0.67,0.857 -0.67,1.447 0,0.605 0.223,1.102 0.67,1.491 0.446,0.374 1,0.561 1.663,0.561 0.677,0 1.231,-0.187 1.663,-0.561 0.446,-0.389 0.67,-0.886 0.67,-1.491 0,-0.604 -0.224,-1.094 -0.67,-1.468 -0.432,-0.375 -0.986,-0.562 -1.663,-0.562 z m 0.237,12.312 c 1.052,0 1.872,-0.151 2.463,-0.454 0.59,-0.302 0.885,-0.676 0.885,-1.123 0,-0.36 -0.144,-0.633 -0.432,-0.821 -0.288,-0.187 -0.77,-0.28 -1.447,-0.28 h -2.916 c -0.648,0 -1.137,0.1 -1.469,0.302 -0.316,0.202 -0.475,0.482 -0.475,0.842 0,0.49 0.281,0.864 0.843,1.124 0.576,0.273 1.425,0.41 2.548,0.41 z"
     fill="#ffffff"
     id="path50429" />
  <path
     d="m 308.00231,389.823 h -4.5 l -8.82,-23.76 h 4.104 l 5.544,15.804 1.44,4.716 1.44,-4.68 5.544,-15.84 h 4.068 z m 17.221,-3.016 c 1.483,0 2.65,0.504 3.499,1.512 0.85,0.994 1.275,2.369 1.275,4.126 0,1.756 -0.425,3.132 -1.275,4.125 -0.849,0.979 -2.016,1.469 -3.499,1.469 -0.849,0 -1.598,-0.202 -2.246,-0.605 -0.634,-0.403 -1.109,-0.943 -1.426,-1.62 l -0.108,2.009 h -2.03 v -15.66 h 2.311 v 6.588 c 0.331,-0.605 0.799,-1.08 1.404,-1.426 0.619,-0.345 1.318,-0.518 2.095,-0.518 z m -0.518,9.374 c 0.936,0 1.663,-0.331 2.181,-0.993 0.533,-0.663 0.8,-1.584 0.8,-2.765 0,-1.181 -0.267,-2.095 -0.8,-2.743 -0.518,-0.663 -1.245,-0.994 -2.181,-0.994 -0.879,0 -1.584,0.295 -2.117,0.886 -0.518,0.59 -0.806,1.404 -0.864,2.441 v 0.82 c 0.058,1.052 0.346,1.872 0.864,2.463 0.533,0.59 1.238,0.885 2.117,0.885 z"
     fill="#ffffff"
     id="path50431" />
</svg>
