<svg width="851" height="680" viewBox="0 0 851 680" fill="none" xmlns="http://www.w3.org/2000/svg">
<circle cx="223" cy="356" r="221.5" stroke="white" stroke-width="3"/>
<rect x="126" y="279" width="77" height="77" rx="10" fill="#8D3AED"/>
<rect x="126" y="396" width="77" height="77" rx="10" fill="#8D3AED"/>
<rect x="243" y="279" width="77" height="77" rx="10" fill="#8D3AED"/>
<rect x="243" y="396" width="77" height="77" rx="10" fill="#8D3AED"/>
<rect x="487" width="81" height="81" rx="10" fill="#8D3AED"/>
<rect x="608" y="81" width="81" height="81" rx="10" fill="#8D3AED"/>
<rect x="719" y="176" width="81" height="81" rx="10" fill="#8D3AED"/>
<rect x="770" y="297" width="81" height="81" rx="10" fill="#8D3AED"/>
<rect x="719" y="427" width="81" height="81" rx="10" fill="#8D3AED"/>
<rect x="608" y="518" width="81" height="81" rx="10" fill="#8D3AED"/>
<rect x="487" y="599" width="81" height="81" rx="10" fill="#8D3AED"/>
<path d="M479.487 41.6946C479.595 40.8732 479.016 40.1201 478.195 40.0127L464.809 38.2614C463.987 38.1539 463.234 38.7327 463.127 39.5541C463.019 40.3755 463.598 41.1285 464.419 41.236L476.318 42.7927L474.761 54.6913C474.654 55.5128 475.233 56.2658 476.054 56.3732C476.876 56.4807 477.629 55.9019 477.736 55.0805L479.487 41.6946ZM169.914 280.189L171.491 278.978L169.662 276.599L168.086 277.811L169.914 280.189ZM174.644 276.554L177.797 274.131L175.969 271.752L172.815 274.176L174.644 276.554ZM180.95 271.707L184.103 269.284L182.275 266.905L179.122 269.329L180.95 271.707ZM187.256 266.86L190.409 264.437L188.581 262.058L185.428 264.482L187.256 266.86ZM193.562 262.013L196.715 259.59L194.887 257.211L191.734 259.635L193.562 262.013ZM199.868 257.166L203.021 254.743L201.193 252.364L198.04 254.788L199.868 257.166ZM206.174 252.319L209.327 249.896L207.499 247.517L204.346 249.941L206.174 252.319ZM212.48 247.472L215.633 245.049L213.805 242.67L210.652 245.094L212.48 247.472ZM218.787 242.626L221.94 240.202L220.111 237.823L216.958 240.247L218.787 242.626ZM225.093 237.779L228.246 235.355L226.418 232.977L223.264 235.4L225.093 237.779ZM231.399 232.932L234.552 230.508L232.724 228.13L229.571 230.553L231.399 232.932ZM237.705 228.085L240.858 225.661L239.03 223.283L235.877 225.706L237.705 228.085ZM244.011 223.238L247.164 220.814L245.336 218.436L242.183 220.859L244.011 223.238ZM250.317 218.391L253.47 215.967L251.642 213.589L248.489 216.012L250.317 218.391ZM256.623 213.544L259.776 211.12L257.948 208.742L254.795 211.165L256.623 213.544ZM262.929 208.697L266.082 206.273L264.254 203.895L261.101 206.318L262.929 208.697ZM269.236 203.85L272.389 201.427L270.56 199.048L267.407 201.471L269.236 203.85ZM275.542 199.003L278.695 196.58L276.866 194.201L273.713 196.624L275.542 199.003ZM281.848 194.156L285.001 191.733L283.173 189.354L280.02 191.778L281.848 194.156ZM288.154 189.309L291.307 186.886L289.479 184.507L286.326 186.931L288.154 189.309ZM294.46 184.462L297.613 182.039L295.785 179.66L292.632 182.084L294.46 184.462ZM300.766 179.615L303.919 177.192L302.091 174.813L298.938 177.237L300.766 179.615ZM307.072 174.768L310.225 172.345L308.397 169.966L305.244 172.39L307.072 174.768ZM313.378 169.921L316.531 167.498L314.703 165.119L311.55 167.543L313.378 169.921ZM319.684 165.075L322.838 162.651L321.009 160.272L317.856 162.696L319.684 165.075ZM325.991 160.228L329.144 157.804L327.315 155.426L324.162 157.849L325.991 160.228ZM332.297 155.381L335.45 152.957L333.622 150.579L330.469 153.002L332.297 155.381ZM338.603 150.534L341.756 148.11L339.928 145.732L336.775 148.155L338.603 150.534ZM344.909 145.687L348.062 143.263L346.234 140.885L343.081 143.308L344.909 145.687ZM351.215 140.84L354.368 138.416L352.54 136.038L349.387 138.461L351.215 140.84ZM357.521 135.993L360.674 133.569L358.846 131.191L355.693 133.614L357.521 135.993ZM363.827 131.146L366.98 128.722L365.152 126.344L361.999 128.767L363.827 131.146ZM370.133 126.299L373.287 123.876L371.458 121.497L368.305 123.92L370.133 126.299ZM376.44 121.452L379.593 119.029L377.764 116.65L374.611 119.073L376.44 121.452ZM382.746 116.605L385.899 114.182L384.071 111.803L380.918 114.227L382.746 116.605ZM389.052 111.758L392.205 109.335L390.377 106.956L387.224 109.38L389.052 111.758ZM395.358 106.911L398.511 104.488L396.683 102.109L393.53 104.533L395.358 106.911ZM401.664 102.064L404.817 99.6409L402.989 97.2623L399.836 99.6857L401.664 102.064ZM407.97 97.2174L411.123 94.7939L409.295 92.4153L406.142 94.8388L407.97 97.2174ZM414.276 92.3704L417.429 89.947L415.601 87.5684L412.448 89.9918L414.276 92.3704ZM420.582 87.5235L423.736 85.1L421.907 82.7214L418.754 85.1449L420.582 87.5235ZM426.889 82.6766L430.042 80.2531L428.213 77.8745L425.06 80.298L426.889 82.6766ZM433.195 77.8296L436.348 75.4062L434.52 73.0276L431.366 75.451L433.195 77.8296ZM439.501 72.9827L442.654 70.5592L440.826 68.1806L437.673 70.6041L439.501 72.9827ZM445.807 68.1358L448.96 65.7123L447.132 63.3337L443.979 65.7572L445.807 68.1358ZM452.113 63.2888L455.266 60.8653L453.438 58.4868L450.285 60.9102L452.113 63.2888ZM458.419 58.4419L461.572 56.0184L459.744 53.6398L456.591 56.0633L458.419 58.4419ZM464.725 53.5949L467.878 51.1715L466.05 48.7929L462.897 51.2164L464.725 53.5949ZM471.031 48.748L474.184 46.3245L472.356 43.946L469.203 46.3694L471.031 48.748ZM477.338 43.9011L478.914 42.6893L477.086 40.3107L475.509 41.5225L477.338 43.9011Z" fill="#4ECCEB"/>
<path d="M598.422 122.476C598.685 121.691 598.262 120.841 597.476 120.578L584.674 116.292C583.889 116.029 583.039 116.453 582.776 117.239C582.513 118.024 582.936 118.874 583.722 119.137L595.101 122.946L591.292 134.326C591.029 135.111 591.453 135.961 592.238 136.224C593.024 136.487 593.874 136.064 594.137 135.278L598.422 122.476ZM282.669 280.342L284.459 279.45L283.121 276.765L281.331 277.658L282.669 280.342ZM288.038 277.666L291.618 275.882L290.28 273.197L286.7 274.981L288.038 277.666ZM295.198 274.098L298.777 272.314L297.439 269.629L293.859 271.413L295.198 274.098ZM302.357 270.53L305.936 268.746L304.598 266.061L301.018 267.845L302.357 270.53ZM309.516 266.962L313.095 265.178L311.757 262.493L308.177 264.277L309.516 266.962ZM316.675 263.394L320.254 261.61L318.916 258.925L315.337 260.709L316.675 263.394ZM323.834 259.825L327.413 258.041L326.075 255.356L322.496 257.14L323.834 259.825ZM330.993 256.257L334.573 254.473L333.234 251.788L329.655 253.572L330.993 256.257ZM338.152 252.689L341.732 250.905L340.393 248.22L336.814 250.004L338.152 252.689ZM345.311 249.121L348.891 247.337L347.552 244.652L343.973 246.436L345.311 249.121ZM352.47 245.553L356.05 243.769L354.712 241.084L351.132 242.868L352.47 245.553ZM359.629 241.985L363.209 240.2L361.871 237.515L358.291 239.3L359.629 241.985ZM366.788 238.416L370.368 236.632L369.03 233.947L365.45 235.731L366.788 238.416ZM373.948 234.848L377.527 233.064L376.189 230.379L372.609 232.163L373.948 234.848ZM381.107 231.28L384.686 229.496L383.348 226.811L379.768 228.595L381.107 231.28ZM388.266 227.712L391.845 225.928L390.507 223.243L386.928 225.027L388.266 227.712ZM395.425 224.144L399.004 222.36L397.666 219.675L394.087 221.459L395.425 224.144ZM402.584 220.575L406.163 218.791L404.825 216.106L401.246 217.89L402.584 220.575ZM409.743 217.007L413.323 215.223L411.984 212.538L408.405 214.322L409.743 217.007ZM416.902 213.439L420.482 211.655L419.143 208.97L415.564 210.754L416.902 213.439ZM424.061 209.871L427.641 208.087L426.302 205.402L422.723 207.186L424.061 209.871ZM431.22 206.303L434.8 204.519L433.462 201.834L429.882 203.618L431.22 206.303ZM438.379 202.735L441.959 200.95L440.621 198.265L437.041 200.05L438.379 202.735ZM445.538 199.166L449.118 197.382L447.78 194.697L444.2 196.481L445.538 199.166ZM452.698 195.598L456.277 193.814L454.939 191.129L451.359 192.913L452.698 195.598ZM459.857 192.03L463.436 190.246L462.098 187.561L458.518 189.345L459.857 192.03ZM467.016 188.462L470.595 186.678L469.257 183.993L465.677 185.777L467.016 188.462ZM474.175 184.894L477.754 183.11L476.416 180.425L472.837 182.209L474.175 184.894ZM481.334 181.325L484.913 179.541L483.575 176.856L479.996 178.64L481.334 181.325ZM488.493 177.757L492.072 175.973L490.734 173.288L487.155 175.072L488.493 177.757ZM495.652 174.189L499.232 172.405L497.893 169.72L494.314 171.504L495.652 174.189ZM502.811 170.621L506.391 168.837L505.052 166.152L501.473 167.936L502.811 170.621ZM509.97 167.053L513.55 165.269L512.212 162.584L508.632 164.368L509.97 167.053ZM517.129 163.485L520.709 161.7L519.371 159.015L515.791 160.8L517.129 163.485ZM524.288 159.916L527.868 158.132L526.53 155.447L522.95 157.231L524.288 159.916ZM531.447 156.348L535.027 154.564L533.689 151.879L530.109 153.663L531.447 156.348ZM538.607 152.78L542.186 150.996L540.848 148.311L537.268 150.095L538.607 152.78ZM545.766 149.212L549.345 147.428L548.007 144.743L544.427 146.527L545.766 149.212ZM552.925 145.644L556.504 143.86L555.166 141.175L551.586 142.959L552.925 145.644ZM560.084 142.076L563.663 140.291L562.325 137.606L558.746 139.391L560.084 142.076ZM567.243 138.507L570.822 136.723L569.484 134.038L565.905 135.822L567.243 138.507ZM574.402 134.939L577.981 133.155L576.643 130.47L573.064 132.254L574.402 134.939ZM581.561 131.371L585.141 129.587L583.802 126.902L580.223 128.686L581.561 131.371ZM588.72 127.803L592.3 126.019L590.961 123.334L587.382 125.118L588.72 127.803ZM595.879 124.235L597.669 123.342L596.331 120.658L594.541 121.55L595.879 124.235Z" fill="#4ECCEB"/>
<path d="M710.295 217.757C710.713 217.042 710.472 216.123 709.757 215.705L698.102 208.892C697.387 208.474 696.468 208.715 696.05 209.43C695.632 210.146 695.873 211.064 696.588 211.482L706.948 217.538L700.892 227.898C700.474 228.613 700.715 229.532 701.43 229.95C702.146 230.368 703.064 230.127 703.482 229.412L710.295 217.757ZM320.38 320.451L322.325 319.941L321.565 317.039L319.62 317.549L320.38 320.451ZM326.215 318.921L330.105 317.901L329.345 314.999L325.455 316.019L326.215 318.921ZM333.995 316.881L337.885 315.861L337.125 312.959L333.235 313.979L333.995 316.881ZM341.775 314.841L345.665 313.821L344.905 310.919L341.015 311.939L341.775 314.841ZM349.555 312.801L353.445 311.781L352.685 308.879L348.795 309.899L349.555 312.801ZM357.335 310.761L361.225 309.741L360.465 306.839L356.575 307.859L357.335 310.761ZM365.115 308.721L369.005 307.701L368.245 304.799L364.355 305.819L365.115 308.721ZM372.895 306.681L376.785 305.661L376.025 302.759L372.135 303.779L372.895 306.681ZM380.675 304.641L384.565 303.621L383.805 300.719L379.915 301.739L380.675 304.641ZM388.455 302.601L392.345 301.581L391.585 298.679L387.695 299.699L388.455 302.601ZM396.235 300.561L400.125 299.541L399.365 296.639L395.475 297.659L396.235 300.561ZM404.015 298.521L407.905 297.501L407.145 294.599L403.255 295.619L404.015 298.521ZM411.795 296.481L415.685 295.461L414.925 292.559L411.035 293.579L411.795 296.481ZM419.575 294.441L423.465 293.421L422.705 290.519L418.815 291.539L419.575 294.441ZM427.355 292.401L431.245 291.381L430.485 288.479L426.595 289.499L427.355 292.401ZM435.135 290.361L439.025 289.341L438.265 286.439L434.375 287.459L435.135 290.361ZM442.915 288.321L446.805 287.301L446.045 284.399L442.155 285.419L442.915 288.321ZM450.695 286.281L454.585 285.261L453.825 282.359L449.935 283.379L450.695 286.281ZM458.475 284.241L462.365 283.221L461.605 280.319L457.715 281.339L458.475 284.241ZM466.255 282.201L470.145 281.181L469.385 278.279L465.495 279.299L466.255 282.201ZM474.035 280.161L477.925 279.141L477.165 276.239L473.275 277.259L474.035 280.161ZM481.815 278.121L485.705 277.101L484.945 274.199L481.055 275.219L481.815 278.121ZM489.595 276.081L493.485 275.061L492.725 272.159L488.835 273.179L489.595 276.081ZM497.375 274.041L501.265 273.021L500.505 270.119L496.615 271.139L497.375 274.041ZM505.155 272.001L509.045 270.981L508.284 268.079L504.395 269.099L505.155 272.001ZM512.935 269.961L516.825 268.941L516.064 266.039L512.174 267.059L512.935 269.961ZM520.715 267.921L524.605 266.901L523.844 263.999L519.954 265.019L520.715 267.921ZM528.495 265.881L532.385 264.861L531.624 261.959L527.734 262.979L528.495 265.881ZM536.275 263.841L540.165 262.821L539.404 259.919L535.514 260.939L536.275 263.841ZM544.055 261.801L547.945 260.781L547.184 257.879L543.294 258.899L544.055 261.801ZM551.835 259.761L555.725 258.741L554.964 255.839L551.074 256.859L551.835 259.761ZM559.615 257.721L563.505 256.701L562.744 253.799L558.854 254.819L559.615 257.721ZM567.395 255.681L571.285 254.661L570.524 251.759L566.634 252.779L567.395 255.681ZM575.175 253.641L579.065 252.621L578.304 249.719L574.414 250.739L575.175 253.641ZM582.955 251.601L586.845 250.581L586.084 247.679L582.194 248.699L582.955 251.601ZM590.735 249.561L594.625 248.541L593.864 245.639L589.974 246.659L590.735 249.561ZM598.515 247.521L602.405 246.501L601.645 243.599L597.754 244.619L598.515 247.521ZM606.295 245.481L610.185 244.461L609.425 241.559L605.535 242.579L606.295 245.481ZM614.075 243.441L617.965 242.421L617.205 239.519L613.315 240.539L614.075 243.441ZM621.855 241.401L625.745 240.381L624.985 237.479L621.095 238.499L621.855 241.401ZM629.635 239.361L633.525 238.341L632.765 235.439L628.875 236.459L629.635 239.361ZM637.415 237.321L641.306 236.301L640.545 233.399L636.655 234.419L637.415 237.321ZM645.196 235.281L649.086 234.261L648.325 231.359L644.435 232.379L645.196 235.281ZM652.976 233.241L656.866 232.221L656.105 229.319L652.215 230.339L652.976 233.241ZM660.756 231.201L664.646 230.181L663.885 227.279L659.995 228.299L660.756 231.201ZM668.536 229.161L672.426 228.141L671.665 225.239L667.775 226.259L668.536 229.161ZM676.316 227.121L680.206 226.101L679.445 223.199L675.555 224.219L676.316 227.121ZM684.096 225.081L687.986 224.061L687.225 221.159L683.335 222.179L684.096 225.081ZM691.876 223.041L695.766 222.021L695.005 219.119L691.115 220.139L691.876 223.041ZM699.656 221.001L703.546 219.981L702.785 217.079L698.895 218.099L699.656 221.001ZM707.436 218.961L709.38 218.451L708.62 215.549L706.675 216.059L707.436 218.961Z" fill="#4ECCEB"/>
<path d="M761.253 340.824C761.708 340.132 761.516 339.202 760.824 338.747L749.542 331.332C748.85 330.877 747.92 331.069 747.465 331.761C747.01 332.454 747.202 333.384 747.895 333.839L757.923 340.43L751.332 350.458C750.877 351.15 751.069 352.08 751.761 352.535C752.454 352.99 753.384 352.798 753.839 352.105L761.253 340.824ZM320.304 432.469L322.268 432.063L321.66 429.125L319.696 429.531L320.304 432.469ZM326.197 431.25L330.125 430.438L329.518 427.5L325.589 428.312L326.197 431.25ZM334.054 429.625L337.982 428.813L337.375 425.875L333.446 426.687L334.054 429.625ZM341.911 428L345.84 427.188L345.232 424.25L341.303 425.062L341.911 428ZM349.768 426.375L353.697 425.563L353.089 422.625L349.16 423.437L349.768 426.375ZM357.625 424.75L361.554 423.938L360.946 421L357.018 421.812L357.625 424.75ZM365.482 423.125L369.411 422.313L368.803 419.375L364.875 420.187L365.482 423.125ZM373.34 421.5L377.268 420.688L376.66 417.75L372.732 418.562L373.34 421.5ZM381.197 419.875L385.125 419.063L384.518 416.125L380.589 416.937L381.197 419.875ZM389.054 418.25L392.982 417.438L392.375 414.5L388.446 415.312L389.054 418.25ZM396.911 416.625L400.84 415.813L400.232 412.875L396.303 413.687L396.911 416.625ZM404.768 415L408.697 414.188L408.089 411.25L404.16 412.062L404.768 415ZM412.625 413.375L416.554 412.563L415.946 409.625L412.018 410.437L412.625 413.375ZM420.482 411.75L424.411 410.938L423.803 408L419.875 408.812L420.482 411.75ZM428.34 410.125L432.268 409.313L431.66 406.375L427.732 407.187L428.34 410.125ZM436.197 408.5L440.125 407.688L439.518 404.75L435.589 405.562L436.197 408.5ZM444.054 406.875L447.982 406.063L447.375 403.125L443.446 403.937L444.054 406.875ZM451.911 405.25L455.84 404.438L455.232 401.5L451.303 402.312L451.911 405.25ZM459.768 403.625L463.697 402.813L463.089 399.875L459.16 400.687L459.768 403.625ZM467.625 402L471.554 401.188L470.946 398.25L467.018 399.062L467.625 402ZM475.482 400.375L479.411 399.563L478.803 396.625L474.875 397.437L475.482 400.375ZM483.34 398.75L487.268 397.938L486.661 395L482.732 395.812L483.34 398.75ZM491.197 397.125L495.125 396.313L494.518 393.375L490.589 394.187L491.197 397.125ZM499.054 395.5L502.982 394.688L502.375 391.75L498.446 392.562L499.054 395.5ZM506.911 393.875L510.84 393.063L510.232 390.125L506.303 390.937L506.911 393.875ZM514.768 392.25L518.697 391.438L518.089 388.5L514.161 389.312L514.768 392.25ZM522.625 390.625L526.554 389.813L525.946 386.875L522.018 387.687L522.625 390.625ZM530.482 389L534.411 388.188L533.803 385.25L529.875 386.062L530.482 389ZM538.34 387.375L542.268 386.563L541.661 383.625L537.732 384.437L538.34 387.375ZM546.197 385.75L550.125 384.938L549.518 382L545.589 382.812L546.197 385.75ZM554.054 384.125L557.983 383.313L557.375 380.375L553.446 381.187L554.054 384.125ZM561.911 382.5L565.84 381.688L565.232 378.75L561.304 379.562L561.911 382.5ZM569.768 380.875L573.697 380.063L573.089 377.125L569.161 377.937L569.768 380.875ZM577.625 379.25L581.554 378.438L580.946 375.5L577.018 376.312L577.625 379.25ZM585.483 377.625L589.411 376.813L588.804 373.875L584.875 374.687L585.483 377.625ZM593.34 376L597.268 375.188L596.661 372.25L592.732 373.062L593.34 376ZM601.197 374.375L605.125 373.563L604.518 370.625L600.589 371.437L601.197 374.375ZM609.054 372.75L612.983 371.938L612.375 369L608.446 369.812L609.054 372.75ZM616.911 371.125L620.84 370.313L620.232 367.375L616.304 368.187L616.911 371.125ZM624.768 369.5L628.697 368.688L628.089 365.75L624.161 366.562L624.768 369.5ZM632.626 367.875L636.554 367.063L635.947 364.125L632.018 364.937L632.626 367.875ZM640.483 366.25L644.411 365.438L643.804 362.5L639.875 363.312L640.483 366.25ZM648.34 364.625L652.268 363.813L651.661 360.875L647.732 361.687L648.34 364.625ZM656.197 363L660.126 362.188L659.518 359.25L655.589 360.062L656.197 363ZM664.054 361.375L667.983 360.563L667.375 357.625L663.447 358.437L664.054 361.375ZM671.911 359.75L675.84 358.938L675.232 356L671.304 356.812L671.911 359.75ZM679.768 358.125L683.697 357.313L683.089 354.375L679.161 355.187L679.768 358.125ZM687.626 356.5L691.554 355.688L690.947 352.75L687.018 353.562L687.626 356.5ZM695.483 354.875L699.411 354.063L698.804 351.125L694.875 351.937L695.483 354.875ZM703.34 353.25L707.269 352.438L706.661 349.5L702.732 350.312L703.34 353.25ZM711.197 351.625L715.126 350.813L714.518 347.875L710.59 348.687L711.197 351.625ZM719.054 350L722.983 349.188L722.375 346.25L718.447 347.062L719.054 350ZM726.911 348.375L730.84 347.563L730.232 344.625L726.304 345.437L726.911 348.375ZM734.769 346.75L738.697 345.938L738.09 343L734.161 343.812L734.769 346.75ZM742.626 345.125L746.554 344.313L745.947 341.375L742.018 342.187L742.626 345.125ZM750.483 343.5L754.411 342.688L753.804 339.75L749.875 340.562L750.483 343.5ZM758.34 341.875L760.304 341.469L759.696 338.531L757.732 338.937L758.34 341.875Z" fill="#4ECCEB"/>
<path d="M710.153 472.04C710.683 472.677 710.596 473.623 709.96 474.153L699.584 482.789C698.947 483.319 698.001 483.233 697.471 482.596C696.941 481.959 697.028 481.014 697.664 480.484L706.888 472.807L699.211 463.584C698.681 462.947 698.767 462.001 699.404 461.471C700.041 460.941 700.986 461.028 701.516 461.664L710.153 472.04ZM321.137 436.006L323.116 436.187L322.843 439.175L320.863 438.994L321.137 436.006ZM327.075 436.55L331.035 436.912L330.761 439.899L326.802 439.537L327.075 436.55ZM334.994 437.274L338.953 437.636L338.68 440.624L334.72 440.262L334.994 437.274ZM342.912 437.999L346.871 438.361L346.598 441.348L342.639 440.986L342.912 437.999ZM350.831 438.723L354.79 439.085L354.516 442.073L350.557 441.711L350.831 438.723ZM358.749 439.448L362.708 439.81L362.435 442.797L358.476 442.435L358.749 439.448ZM366.667 440.172L370.626 440.534L370.353 443.522L366.394 443.16L366.667 440.172ZM374.586 440.897L378.545 441.259L378.271 444.246L374.312 443.884L374.586 440.897ZM382.504 441.621L386.463 441.983L386.19 444.971L382.231 444.609L382.504 441.621ZM390.422 442.346L394.382 442.708L394.108 445.695L390.149 445.333L390.422 442.346ZM398.341 443.07L402.3 443.432L402.027 446.42L398.067 446.058L398.341 443.07ZM406.259 443.795L410.218 444.157L409.945 447.144L405.986 446.782L406.259 443.795ZM414.177 444.519L418.137 444.881L417.863 447.869L413.904 447.507L414.177 444.519ZM422.096 445.243L426.055 445.606L425.782 448.593L421.823 448.231L422.096 445.243ZM430.014 445.968L433.973 446.33L433.7 449.318L429.741 448.955L430.014 445.968ZM437.933 446.692L441.892 447.055L441.618 450.042L437.659 449.68L437.933 446.692ZM445.851 447.417L449.81 447.779L449.537 450.767L445.578 450.404L445.851 447.417ZM453.769 448.141L457.729 448.504L457.455 451.491L453.496 451.129L453.769 448.141ZM461.688 448.866L465.647 449.228L465.374 452.216L461.414 451.853L461.688 448.866ZM469.606 449.59L473.565 449.953L473.292 452.94L469.333 452.578L469.606 449.59ZM477.524 450.315L481.484 450.677L481.21 453.665L477.251 453.302L477.524 450.315ZM485.443 451.039L489.402 451.402L489.129 454.389L485.169 454.027L485.443 451.039ZM493.361 451.764L497.32 452.126L497.047 455.114L493.088 454.751L493.361 451.764ZM501.28 452.488L505.239 452.851L504.965 455.838L501.006 455.476L501.28 452.488ZM509.198 453.213L513.157 453.575L512.884 456.563L508.925 456.2L509.198 453.213ZM517.116 453.937L521.076 454.3L520.802 457.287L516.843 456.925L517.116 453.937ZM525.035 454.662L528.994 455.024L528.721 458.012L524.761 457.649L525.035 454.662ZM532.953 455.386L536.912 455.749L536.639 458.736L532.68 458.374L532.953 455.386ZM540.871 456.111L544.831 456.473L544.557 459.461L540.598 459.098L540.871 456.111ZM548.79 456.835L552.749 457.198L552.476 460.185L548.516 459.823L548.79 456.835ZM556.708 457.56L560.667 457.922L560.394 460.91L556.435 460.547L556.708 457.56ZM564.627 458.284L568.586 458.647L568.312 461.634L564.353 461.272L564.627 458.284ZM572.545 459.009L576.504 459.371L576.231 462.359L572.272 461.996L572.545 459.009ZM580.463 459.733L584.422 460.096L584.149 463.083L580.19 462.721L580.463 459.733ZM588.382 460.458L592.341 460.82L592.067 463.808L588.108 463.445L588.382 460.458ZM596.3 461.182L600.259 461.545L599.986 464.532L596.027 464.17L596.3 461.182ZM604.218 461.907L608.177 462.269L607.904 465.257L603.945 464.894L604.218 461.907ZM612.137 462.631L616.096 462.993L615.822 465.981L611.863 465.619L612.137 462.631ZM620.055 463.356L624.014 463.718L623.741 466.705L619.782 466.343L620.055 463.356ZM627.973 464.08L631.933 464.442L631.659 467.43L627.7 467.068L627.973 464.08ZM635.892 464.805L639.851 465.167L639.578 468.154L635.618 467.792L635.892 464.805ZM643.81 465.529L647.769 465.891L647.496 468.879L643.537 468.517L643.81 465.529ZM651.728 466.254L655.688 466.616L655.414 469.603L651.455 469.241L651.728 466.254ZM659.647 466.978L663.606 467.34L663.333 470.328L659.373 469.966L659.647 466.978ZM667.565 467.703L671.524 468.065L671.251 471.052L667.292 470.69L667.565 467.703ZM675.483 468.427L679.443 468.789L679.169 471.777L675.21 471.415L675.483 468.427ZM683.402 469.152L687.361 469.514L687.088 472.501L683.128 472.139L683.402 469.152ZM691.32 469.876L695.279 470.238L695.006 473.226L691.047 472.864L691.32 469.876ZM699.238 470.601L703.198 470.963L702.924 473.95L698.965 473.588L699.238 470.601ZM707.157 471.325L709.137 471.506L708.863 474.494L706.883 474.313L707.157 471.325Z" fill="#4ECCEB"/>
<path d="M605.298 558.249C605.713 558.966 605.468 559.884 604.751 560.298L593.065 567.058C592.348 567.473 591.431 567.228 591.016 566.511C590.601 565.793 590.846 564.876 591.563 564.461L601.951 558.453L595.942 548.065C595.527 547.348 595.772 546.43 596.489 546.016C597.207 545.601 598.124 545.846 598.539 546.563L605.298 558.249ZM282.387 471.551L284.304 472.063L283.53 474.961L281.613 474.449L282.387 471.551ZM288.137 473.087L291.97 474.11L291.196 477.009L287.363 475.985L288.137 473.087ZM295.804 475.134L299.637 476.158L298.863 479.056L295.03 478.033L295.804 475.134ZM303.47 477.182L307.304 478.206L306.53 481.104L302.696 480.08L303.47 477.182ZM311.137 479.229L314.97 480.253L314.196 483.152L310.363 482.128L311.137 479.229ZM318.804 481.277L322.637 482.301L321.863 485.199L318.03 484.175L318.804 481.277ZM326.47 483.325L330.304 484.348L329.53 487.247L325.696 486.223L326.47 483.325ZM334.137 485.372L337.97 486.396L337.196 489.294L333.363 488.271L334.137 485.372ZM341.804 487.42L345.637 488.444L344.863 491.342L341.03 490.318L341.804 487.42ZM349.47 489.467L353.304 490.491L352.53 493.39L348.696 492.366L349.47 489.467ZM357.137 491.515L360.97 492.539L360.196 495.437L356.363 494.413L357.137 491.515ZM364.804 493.563L368.637 494.587L367.863 497.485L364.03 496.461L364.804 493.563ZM372.47 495.61L376.304 496.634L375.53 499.533L371.696 498.509L372.47 495.61ZM380.137 497.658L383.97 498.682L383.196 501.58L379.363 500.556L380.137 497.658ZM387.804 499.706L391.637 500.729L390.863 503.628L387.03 502.604L387.804 499.706ZM395.47 501.753L399.304 502.777L398.53 505.675L394.696 504.652L395.47 501.753ZM403.137 503.801L406.97 504.825L406.196 507.723L402.363 506.699L403.137 503.801ZM410.804 505.848L414.637 506.872L413.863 509.771L410.03 508.747L410.804 505.848ZM418.47 507.896L422.304 508.92L421.53 511.818L417.696 510.794L418.47 507.896ZM426.137 509.944L429.97 510.967L429.196 513.866L425.363 512.842L426.137 509.944ZM433.804 511.991L437.637 513.015L436.863 515.913L433.03 514.89L433.804 511.991ZM441.47 514.039L445.304 515.063L444.53 517.961L440.696 516.937L441.47 514.039ZM449.137 516.087L452.97 517.11L452.196 520.009L448.363 518.985L449.137 516.087ZM456.804 518.134L460.637 519.158L459.863 522.056L456.03 521.033L456.804 518.134ZM464.47 520.182L468.304 521.206L467.53 524.104L463.696 523.08L464.47 520.182ZM472.137 522.229L475.97 523.253L475.196 526.152L471.363 525.128L472.137 522.229ZM479.804 524.277L483.637 525.301L482.863 528.199L479.03 527.175L479.804 524.277ZM487.47 526.325L491.304 527.348L490.53 530.247L486.696 529.223L487.47 526.325ZM495.137 528.372L498.97 529.396L498.196 532.294L494.363 531.271L495.137 528.372ZM502.804 530.42L506.637 531.444L505.863 534.342L502.03 533.318L502.804 530.42ZM510.47 532.467L514.304 533.491L513.53 536.39L509.696 535.366L510.47 532.467ZM518.137 534.515L521.97 535.539L521.196 538.437L517.363 537.413L518.137 534.515ZM525.804 536.563L529.637 537.587L528.863 540.485L525.03 539.461L525.804 536.563ZM533.47 538.61L537.304 539.634L536.53 542.533L532.696 541.509L533.47 538.61ZM541.137 540.658L544.97 541.682L544.196 544.58L540.363 543.556L541.137 540.658ZM548.804 542.706L552.637 543.729L551.863 546.628L548.03 545.604L548.804 542.706ZM556.47 544.753L560.304 545.777L559.53 548.675L555.696 547.652L556.47 544.753ZM564.137 546.801L567.97 547.825L567.196 550.723L563.363 549.699L564.137 546.801ZM571.804 548.848L575.637 549.872L574.863 552.771L571.03 551.747L571.804 548.848ZM579.47 550.896L583.304 551.92L582.53 554.818L578.696 553.794L579.47 550.896ZM587.137 552.944L590.971 553.968L590.196 556.866L586.363 555.842L587.137 552.944ZM594.804 554.991L598.637 556.015L597.863 558.914L594.03 557.89L594.804 554.991ZM602.471 557.039L604.387 557.551L603.613 560.449L601.696 559.937L602.471 557.039Z" fill="#4ECCEB"/>
<path d="M482.433 639.556C482.678 640.347 482.235 641.188 481.444 641.433L468.549 645.429C467.758 645.674 466.918 645.232 466.672 644.44C466.427 643.649 466.87 642.809 467.661 642.564L479.123 639.011L475.571 627.549C475.326 626.758 475.768 625.918 476.56 625.672C477.351 625.427 478.191 625.87 478.436 626.661L482.433 639.556ZM164.699 471.673L166.46 472.601L165.062 475.255L163.301 474.327L164.699 471.673ZM169.982 474.456L173.505 476.312L172.106 478.966L168.584 477.11L169.982 474.456ZM177.027 478.167L180.549 480.023L179.151 482.677L175.629 480.822L177.027 478.167ZM184.071 481.878L187.594 483.734L186.195 486.388L182.673 484.533L184.071 481.878ZM191.116 485.59L194.638 487.445L193.24 490.099L189.718 488.244L191.116 485.59ZM198.16 489.301L201.682 491.156L200.284 493.81L196.762 491.955L198.16 489.301ZM205.205 493.012L208.727 494.867L207.329 497.522L203.806 495.666L205.205 493.012ZM212.249 496.723L215.771 498.578L214.373 501.233L210.851 499.377L212.249 496.723ZM219.294 500.434L222.816 502.29L221.418 504.944L217.895 503.088L219.294 500.434ZM226.338 504.145L229.86 506.001L228.462 508.655L224.94 506.799L226.338 504.145ZM233.382 507.856L236.905 509.712L235.506 512.366L231.984 510.51L233.382 507.856ZM240.427 511.567L243.949 513.423L242.551 516.077L239.029 514.222L240.427 511.567ZM247.471 515.278L250.994 517.134L249.595 519.788L246.073 517.933L247.471 515.278ZM254.516 518.99L258.038 520.845L256.64 523.499L253.118 521.644L254.516 518.99ZM261.56 522.701L265.082 524.556L263.684 527.21L260.162 525.355L261.56 522.701ZM268.605 526.412L272.127 528.267L270.729 530.922L267.206 529.066L268.605 526.412ZM275.649 530.123L279.171 531.978L277.773 534.633L274.251 532.777L275.649 530.123ZM282.694 533.834L286.216 535.69L284.817 538.344L281.295 536.488L282.694 533.834ZM289.738 537.545L293.26 539.401L291.862 542.055L288.34 540.199L289.738 537.545ZM296.782 541.256L300.305 543.112L298.906 545.766L295.384 543.91L296.782 541.256ZM303.827 544.967L307.349 546.823L305.951 549.477L302.429 547.622L303.827 544.967ZM310.871 548.678L314.394 550.534L312.995 553.188L309.473 551.333L310.871 548.678ZM317.916 552.39L321.438 554.245L320.04 556.899L316.517 555.044L317.916 552.39ZM324.96 556.101L328.482 557.956L327.084 560.61L323.562 558.755L324.96 556.101ZM332.005 559.812L335.527 561.667L334.129 564.322L330.606 562.466L332.005 559.812ZM339.049 563.523L342.571 565.378L341.173 568.033L337.651 566.177L339.049 563.523ZM346.093 567.234L349.616 569.09L348.217 571.744L344.695 569.888L346.093 567.234ZM353.138 570.945L356.66 572.801L355.262 575.455L351.74 573.599L353.138 570.945ZM360.182 574.656L363.705 576.512L362.306 579.166L358.784 577.31L360.182 574.656ZM367.227 578.367L370.749 580.223L369.351 582.877L365.829 581.021L367.227 578.367ZM374.271 582.078L377.793 583.934L376.395 586.588L372.873 584.733L374.271 582.078ZM381.316 585.79L384.838 587.645L383.44 590.299L379.917 588.444L381.316 585.79ZM388.36 589.501L391.882 591.356L390.484 594.01L386.962 592.155L388.36 589.501ZM395.405 593.212L398.927 595.067L397.529 597.721L394.006 595.866L395.405 593.212ZM402.449 596.923L405.971 598.778L404.573 601.433L401.051 599.577L402.449 596.923ZM409.493 600.634L413.016 602.49L411.617 605.144L408.095 603.288L409.493 600.634ZM416.538 604.345L420.06 606.201L418.662 608.855L415.14 606.999L416.538 604.345ZM423.582 608.056L427.105 609.912L425.706 612.566L422.184 610.71L423.582 608.056ZM430.627 611.767L434.149 613.623L432.751 616.277L429.229 614.422L430.627 611.767ZM437.671 615.478L441.194 617.334L439.795 619.988L436.273 618.133L437.671 615.478ZM444.716 619.19L448.238 621.045L446.84 623.699L443.318 621.844L444.716 619.19ZM451.76 622.901L455.283 624.756L453.884 627.41L450.362 625.555L451.76 622.901ZM458.805 626.612L462.327 628.467L460.929 631.122L457.406 629.266L458.805 626.612ZM465.849 630.323L469.371 632.179L467.973 634.833L464.451 632.977L465.849 630.323ZM472.894 634.034L476.416 635.89L475.018 638.544L471.495 636.688L472.894 634.034ZM479.938 637.745L481.699 638.673L480.301 641.327L478.54 640.399L479.938 637.745Z" fill="#4ECCEB"/>
<path d="M119.23 214.88H127.55C130.024 214.88 131.859 215.381 133.054 216.384C134.27 217.387 134.878 218.816 134.878 220.672C134.878 221.824 134.547 222.827 133.886 223.68C133.224 224.533 132.296 225.067 131.102 225.28V225.312C132.424 225.525 133.47 226.08 134.238 226.976C135.027 227.872 135.422 228.928 135.422 230.144C135.422 231.979 134.75 233.419 133.406 234.464C132.062 235.488 130.152 236 127.678 236H119.23V214.88ZM127.294 223.968C129.982 223.968 131.326 222.933 131.326 220.864C131.326 218.795 129.982 217.76 127.294 217.76H122.59V223.968H127.294ZM127.838 233.152C129.16 233.152 130.163 232.885 130.846 232.352C131.528 231.797 131.87 231.008 131.87 229.984C131.87 228.96 131.528 228.181 130.846 227.648C130.163 227.093 129.16 226.816 127.838 226.816H122.59V233.152H127.838ZM153.761 233.76C154.231 233.76 154.625 233.717 154.945 233.632L154.721 235.936C154.145 236.192 153.484 236.32 152.737 236.32C151.82 236.32 151.084 236.139 150.529 235.776C149.996 235.413 149.644 234.805 149.473 233.952C148.983 234.699 148.257 235.285 147.297 235.712C146.337 236.117 145.26 236.32 144.065 236.32C142.508 236.32 141.249 235.957 140.289 235.232C139.329 234.507 138.849 233.472 138.849 232.128C138.849 230.869 139.372 229.813 140.417 228.96C141.463 228.085 143.02 227.467 145.089 227.104L149.153 226.4V225.536C149.153 224.555 148.865 223.787 148.289 223.232C147.713 222.656 146.913 222.368 145.889 222.368C143.777 222.368 142.401 223.328 141.761 225.248L139.105 223.84C139.489 222.56 140.268 221.547 141.441 220.8C142.636 220.053 144.097 219.68 145.825 219.68C147.895 219.68 149.537 220.16 150.753 221.12C151.969 222.08 152.577 223.488 152.577 225.344V232.576C152.577 232.981 152.663 233.28 152.833 233.472C153.025 233.664 153.335 233.76 153.761 233.76ZM144.801 233.728C145.953 233.728 146.967 233.451 147.841 232.896C148.716 232.341 149.153 231.605 149.153 230.688V228.768L145.665 229.472C144.556 229.685 143.735 229.984 143.201 230.368C142.668 230.752 142.401 231.264 142.401 231.904C142.401 232.501 142.604 232.96 143.009 233.28C143.436 233.579 144.033 233.728 144.801 233.728ZM165.196 219.68C168.695 219.68 171.009 221.173 172.14 224.16L168.94 225.44C168.385 223.413 167.137 222.4 165.196 222.4C163.767 222.4 162.657 222.891 161.868 223.872C161.079 224.853 160.684 226.24 160.684 228.032C160.684 229.824 161.079 231.2 161.868 232.16C162.657 233.12 163.767 233.6 165.196 233.6C166.284 233.6 167.159 233.333 167.82 232.8C168.481 232.267 168.919 231.499 169.132 230.496L172.268 231.552C171.799 233.045 170.967 234.219 169.772 235.072C168.577 235.904 167.073 236.32 165.26 236.32C162.743 236.32 160.769 235.584 159.34 234.112C157.932 232.64 157.228 230.603 157.228 228C157.228 225.397 157.932 223.36 159.34 221.888C160.748 220.416 162.7 219.68 165.196 219.68ZM182.873 228.48L179.705 231.744V236H176.281V212.8H179.705V227.84L187.353 220H191.385L185.273 226.272L191.769 236H187.801L182.873 228.48ZM196.665 217.312C195.94 217.312 195.375 217.131 194.969 216.768C194.564 216.384 194.361 215.851 194.361 215.168C194.361 214.485 194.564 213.963 194.969 213.6C195.375 213.237 195.94 213.056 196.665 213.056C197.391 213.056 197.945 213.237 198.329 213.6C198.735 213.963 198.937 214.485 198.937 215.168C198.937 215.851 198.735 216.384 198.329 216.768C197.945 217.131 197.391 217.312 196.665 217.312ZM198.361 236H194.937V220H198.361V236ZM212.327 219.68C214.097 219.68 215.537 220.192 216.647 221.216C217.777 222.24 218.343 223.712 218.343 225.632V236H214.919V226.72C214.919 223.904 213.777 222.496 211.495 222.496C210.3 222.496 209.276 222.912 208.423 223.744C207.569 224.555 207.143 225.813 207.143 227.52V236H203.719V220H206.759L206.919 222.656C207.452 221.653 208.188 220.907 209.127 220.416C210.065 219.925 211.132 219.68 212.327 219.68ZM232.843 233.504C234.464 233.504 235.723 233.867 236.619 234.592C237.515 235.317 237.963 236.32 237.963 237.6C237.963 238.688 237.6 239.627 236.875 240.416C236.171 241.205 235.19 241.813 233.931 242.24C232.694 242.667 231.296 242.88 229.739 242.88C227.2 242.88 225.291 242.507 224.011 241.76C222.752 241.013 222.123 240.021 222.123 238.784C222.123 238.059 222.368 237.419 222.859 236.864C223.371 236.331 224.075 235.947 224.971 235.712C224.288 235.392 223.744 234.987 223.339 234.496C222.934 233.984 222.731 233.376 222.731 232.672C222.731 231.115 223.563 230.048 225.227 229.472C224.416 229.003 223.798 228.395 223.371 227.648C222.966 226.901 222.763 226.048 222.763 225.088C222.763 224.021 223.051 223.083 223.627 222.272C224.203 221.44 225.014 220.8 226.059 220.352C227.126 219.904 228.342 219.68 229.707 219.68C230.88 219.68 231.958 219.851 232.939 220.192C233.238 219.019 233.771 218.133 234.539 217.536C235.328 216.917 236.363 216.619 237.643 216.64L238.219 219.296C237.195 219.275 236.363 219.403 235.723 219.68C235.104 219.957 234.678 220.373 234.443 220.928C235.147 221.419 235.691 222.016 236.075 222.72C236.459 223.424 236.651 224.213 236.651 225.088C236.651 226.731 236.011 228.043 234.731 229.024C233.472 230.005 231.798 230.496 229.707 230.496C228.726 230.496 227.84 230.4 227.051 230.208C226.518 230.336 226.123 230.549 225.867 230.848C225.632 231.125 225.515 231.499 225.515 231.968C225.515 232.459 225.686 232.843 226.027 233.12C226.39 233.376 226.88 233.504 227.499 233.504H232.843ZM229.707 222.08C228.726 222.08 227.904 222.368 227.243 222.944C226.582 223.499 226.251 224.213 226.251 225.088C226.251 225.984 226.582 226.72 227.243 227.296C227.904 227.851 228.726 228.128 229.707 228.128C230.71 228.128 231.531 227.851 232.171 227.296C232.832 226.72 233.163 225.984 233.163 225.088C233.163 224.192 232.832 223.467 232.171 222.912C231.531 222.357 230.71 222.08 229.707 222.08ZM230.059 240.32C231.616 240.32 232.832 240.096 233.707 239.648C234.582 239.2 235.019 238.645 235.019 237.984C235.019 237.451 234.806 237.045 234.379 236.768C233.952 236.491 233.238 236.352 232.235 236.352H227.915C226.955 236.352 226.23 236.501 225.739 236.8C225.27 237.099 225.035 237.515 225.035 238.048C225.035 238.773 225.451 239.328 226.283 239.712C227.136 240.117 228.395 240.32 230.059 240.32ZM260.968 233.504C262.589 233.504 263.848 233.867 264.744 234.592C265.64 235.317 266.088 236.32 266.088 237.6C266.088 238.688 265.725 239.627 265 240.416C264.296 241.205 263.315 241.813 262.056 242.24C260.819 242.667 259.421 242.88 257.864 242.88C255.325 242.88 253.416 242.507 252.136 241.76C250.877 241.013 250.248 240.021 250.248 238.784C250.248 238.059 250.493 237.419 250.984 236.864C251.496 236.331 252.2 235.947 253.096 235.712C252.413 235.392 251.869 234.987 251.464 234.496C251.059 233.984 250.856 233.376 250.856 232.672C250.856 231.115 251.688 230.048 253.352 229.472C252.541 229.003 251.923 228.395 251.496 227.648C251.091 226.901 250.888 226.048 250.888 225.088C250.888 224.021 251.176 223.083 251.752 222.272C252.328 221.44 253.139 220.8 254.184 220.352C255.251 219.904 256.467 219.68 257.832 219.68C259.005 219.68 260.083 219.851 261.064 220.192C261.363 219.019 261.896 218.133 262.664 217.536C263.453 216.917 264.488 216.619 265.768 216.64L266.344 219.296C265.32 219.275 264.488 219.403 263.848 219.68C263.229 219.957 262.803 220.373 262.568 220.928C263.272 221.419 263.816 222.016 264.2 222.72C264.584 223.424 264.776 224.213 264.776 225.088C264.776 226.731 264.136 228.043 262.856 229.024C261.597 230.005 259.923 230.496 257.832 230.496C256.851 230.496 255.965 230.4 255.176 230.208C254.643 230.336 254.248 230.549 253.992 230.848C253.757 231.125 253.64 231.499 253.64 231.968C253.64 232.459 253.811 232.843 254.152 233.12C254.515 233.376 255.005 233.504 255.624 233.504H260.968ZM257.832 222.08C256.851 222.08 256.029 222.368 255.368 222.944C254.707 223.499 254.376 224.213 254.376 225.088C254.376 225.984 254.707 226.72 255.368 227.296C256.029 227.851 256.851 228.128 257.832 228.128C258.835 228.128 259.656 227.851 260.296 227.296C260.957 226.72 261.288 225.984 261.288 225.088C261.288 224.192 260.957 223.467 260.296 222.912C259.656 222.357 258.835 222.08 257.832 222.08ZM258.184 240.32C259.741 240.32 260.957 240.096 261.832 239.648C262.707 239.2 263.144 238.645 263.144 237.984C263.144 237.451 262.931 237.045 262.504 236.768C262.077 236.491 261.363 236.352 260.36 236.352H256.04C255.08 236.352 254.355 236.501 253.864 236.8C253.395 237.099 253.16 237.515 253.16 238.048C253.16 238.773 253.576 239.328 254.408 239.712C255.261 240.117 256.52 240.32 258.184 240.32ZM277.631 219.68C278.377 219.68 278.964 219.787 279.391 220L278.847 223.136C278.356 222.859 277.684 222.72 276.831 222.72C276.148 222.72 275.497 222.901 274.879 223.264C274.281 223.627 273.78 224.171 273.375 224.896C272.991 225.621 272.799 226.496 272.799 227.52V236H269.375V220H272.287L272.575 222.88C273.471 220.747 275.156 219.68 277.631 219.68ZM289.259 219.68C291.755 219.68 293.707 220.416 295.115 221.888C296.523 223.36 297.227 225.397 297.227 228C297.227 230.603 296.523 232.64 295.115 234.112C293.707 235.584 291.755 236.32 289.259 236.32C286.763 236.32 284.811 235.584 283.403 234.112C281.995 232.64 281.291 230.603 281.291 228C281.291 225.397 281.995 223.36 283.403 221.888C284.811 220.416 286.763 219.68 289.259 219.68ZM289.259 222.368C287.808 222.368 286.688 222.859 285.899 223.84C285.131 224.8 284.747 226.187 284.747 228C284.747 229.813 285.131 231.211 285.899 232.192C286.688 233.152 287.808 233.632 289.259 233.632C290.709 233.632 291.829 233.141 292.619 232.16C293.408 231.179 293.803 229.792 293.803 228C293.803 226.208 293.408 224.821 292.619 223.84C291.829 222.859 290.709 222.368 289.259 222.368ZM316.121 220V236H313.081L312.953 233.408C311.865 235.349 309.966 236.32 307.257 236.32C305.529 236.32 304.131 235.851 303.065 234.912C302.019 233.952 301.497 232.491 301.497 230.528V220H304.921V229.632C304.921 231.04 305.198 232.043 305.753 232.64C306.307 233.216 307.129 233.504 308.217 233.504C309.518 233.504 310.585 233.099 311.417 232.288C312.27 231.456 312.697 230.24 312.697 228.64V220H316.121ZM330.045 219.68C332.243 219.68 333.971 220.416 335.229 221.888C336.488 223.339 337.117 225.365 337.117 227.968C337.117 230.571 336.488 232.619 335.229 234.112C333.971 235.584 332.243 236.32 330.045 236.32C328.893 236.32 327.859 236.064 326.941 235.552C326.045 235.04 325.352 234.336 324.861 233.44V242.72H321.437V220H324.445L324.605 222.976C325.075 221.973 325.779 221.173 326.717 220.576C327.677 219.979 328.787 219.68 330.045 219.68ZM329.277 233.536C330.664 233.536 331.741 233.056 332.509 232.096C333.299 231.115 333.693 229.749 333.693 228C333.693 226.251 333.299 224.885 332.509 223.904C331.741 222.923 330.664 222.432 329.277 222.432C327.976 222.432 326.931 222.869 326.141 223.744C325.373 224.619 324.947 225.835 324.861 227.392V228.608C324.947 230.144 325.373 231.349 326.141 232.224C326.931 233.099 327.976 233.536 329.277 233.536Z" fill="white"/>
<path d="M354.492 77.8C354.012 79.224 353.188 80.32 352.02 81.088C350.868 81.856 349.508 82.24 347.94 82.24C346.42 82.24 345.1 81.912 343.98 81.256C342.86 80.6 341.996 79.656 341.388 78.424C340.78 77.192 340.476 75.744 340.476 74.08C340.476 72.416 340.78 70.968 341.388 69.736C341.996 68.504 342.86 67.56 343.98 66.904C345.1 66.248 346.412 65.92 347.916 65.92C349.5 65.92 350.828 66.248 351.9 66.904C352.988 67.56 353.772 68.528 354.252 69.808L351.828 70.888C351.508 69.944 351.044 69.256 350.436 68.824C349.828 68.376 349.036 68.152 348.06 68.152C346.572 68.152 345.38 68.68 344.484 69.736C343.604 70.776 343.164 72.224 343.164 74.08C343.164 75.952 343.588 77.408 344.436 78.448C345.284 79.488 346.46 80.008 347.964 80.008C348.988 80.008 349.844 79.752 350.532 79.24C351.236 78.728 351.74 77.976 352.044 76.984L354.492 77.8ZM363.866 69.76C365.194 69.76 366.274 70.144 367.106 70.912C367.954 71.68 368.378 72.784 368.378 74.224V82H365.81V75.04C365.81 72.928 364.954 71.872 363.242 71.872C362.346 71.872 361.578 72.184 360.938 72.808C360.298 73.432 359.978 74.384 359.978 75.664V82H357.41V64.6H359.978V71.92C360.378 71.184 360.906 70.64 361.562 70.288C362.234 69.936 363.002 69.76 363.866 69.76ZM383.141 70V82H380.861L380.765 80.056C379.949 81.512 378.525 82.24 376.493 82.24C375.197 82.24 374.149 81.888 373.349 81.184C372.565 80.464 372.173 79.368 372.173 77.896V70H374.741V77.224C374.741 78.28 374.949 79.032 375.365 79.48C375.781 79.912 376.397 80.128 377.213 80.128C378.189 80.128 378.989 79.824 379.613 79.216C380.253 78.592 380.573 77.68 380.573 76.48V70H383.141ZM393.585 69.76C394.913 69.76 395.993 70.144 396.825 70.912C397.673 71.68 398.097 72.784 398.097 74.224V82H395.529V75.04C395.529 72.928 394.673 71.872 392.961 71.872C392.065 71.872 391.297 72.184 390.657 72.808C390.017 73.416 389.697 74.36 389.697 75.64V82H387.129V70H389.409L389.529 71.992C389.929 71.24 390.481 70.68 391.185 70.312C391.889 69.944 392.689 69.76 393.585 69.76ZM406.932 76.36L404.556 78.808V82H401.988V64.6H404.556V75.88L410.292 70H413.316L408.732 74.704L413.604 82H410.628L406.932 76.36Z" fill="#18F0BD"/>
<path d="M454.492 152.8C454.012 154.224 453.188 155.32 452.02 156.088C450.868 156.856 449.508 157.24 447.94 157.24C446.42 157.24 445.1 156.912 443.98 156.256C442.86 155.6 441.996 154.656 441.388 153.424C440.78 152.192 440.476 150.744 440.476 149.08C440.476 147.416 440.78 145.968 441.388 144.736C441.996 143.504 442.86 142.56 443.98 141.904C445.1 141.248 446.412 140.92 447.916 140.92C449.5 140.92 450.828 141.248 451.9 141.904C452.988 142.56 453.772 143.528 454.252 144.808L451.828 145.888C451.508 144.944 451.044 144.256 450.436 143.824C449.828 143.376 449.036 143.152 448.06 143.152C446.572 143.152 445.38 143.68 444.484 144.736C443.604 145.776 443.164 147.224 443.164 149.08C443.164 150.952 443.588 152.408 444.436 153.448C445.284 154.488 446.46 155.008 447.964 155.008C448.988 155.008 449.844 154.752 450.532 154.24C451.236 153.728 451.74 152.976 452.044 151.984L454.492 152.8ZM463.866 144.76C465.194 144.76 466.274 145.144 467.106 145.912C467.954 146.68 468.378 147.784 468.378 149.224V157H465.81V150.04C465.81 147.928 464.954 146.872 463.242 146.872C462.346 146.872 461.578 147.184 460.938 147.808C460.298 148.432 459.978 149.384 459.978 150.664V157H457.41V139.6H459.978V146.92C460.378 146.184 460.906 145.64 461.562 145.288C462.234 144.936 463.002 144.76 463.866 144.76ZM483.141 145V157H480.861L480.765 155.056C479.949 156.512 478.525 157.24 476.493 157.24C475.197 157.24 474.149 156.888 473.349 156.184C472.565 155.464 472.173 154.368 472.173 152.896V145H474.741V152.224C474.741 153.28 474.949 154.032 475.365 154.48C475.781 154.912 476.397 155.128 477.213 155.128C478.189 155.128 478.989 154.824 479.613 154.216C480.253 153.592 480.573 152.68 480.573 151.48V145H483.141ZM493.585 144.76C494.913 144.76 495.993 145.144 496.825 145.912C497.673 146.68 498.097 147.784 498.097 149.224V157H495.529V150.04C495.529 147.928 494.673 146.872 492.961 146.872C492.065 146.872 491.297 147.184 490.657 147.808C490.017 148.416 489.697 149.36 489.697 150.64V157H487.129V145H489.409L489.529 146.992C489.929 146.24 490.481 145.68 491.185 145.312C491.889 144.944 492.689 144.76 493.585 144.76ZM506.932 151.36L504.556 153.808V157H501.988V139.6H504.556V150.88L510.292 145H513.316L508.732 149.704L513.604 157H510.628L506.932 151.36Z" fill="#18F0BD"/>
<path d="M528.492 232.8C528.012 234.224 527.188 235.32 526.02 236.088C524.868 236.856 523.508 237.24 521.94 237.24C520.42 237.24 519.1 236.912 517.98 236.256C516.86 235.6 515.996 234.656 515.388 233.424C514.78 232.192 514.476 230.744 514.476 229.08C514.476 227.416 514.78 225.968 515.388 224.736C515.996 223.504 516.86 222.56 517.98 221.904C519.1 221.248 520.412 220.92 521.916 220.92C523.5 220.92 524.828 221.248 525.9 221.904C526.988 222.56 527.772 223.528 528.252 224.808L525.828 225.888C525.508 224.944 525.044 224.256 524.436 223.824C523.828 223.376 523.036 223.152 522.06 223.152C520.572 223.152 519.38 223.68 518.484 224.736C517.604 225.776 517.164 227.224 517.164 229.08C517.164 230.952 517.588 232.408 518.436 233.448C519.284 234.488 520.46 235.008 521.964 235.008C522.988 235.008 523.844 234.752 524.532 234.24C525.236 233.728 525.74 232.976 526.044 231.984L528.492 232.8ZM537.866 224.76C539.194 224.76 540.274 225.144 541.106 225.912C541.954 226.68 542.378 227.784 542.378 229.224V237H539.81V230.04C539.81 227.928 538.954 226.872 537.242 226.872C536.346 226.872 535.578 227.184 534.938 227.808C534.298 228.432 533.978 229.384 533.978 230.664V237H531.41V219.6H533.978V226.92C534.378 226.184 534.906 225.64 535.562 225.288C536.234 224.936 537.002 224.76 537.866 224.76ZM557.141 225V237H554.861L554.765 235.056C553.949 236.512 552.525 237.24 550.493 237.24C549.197 237.24 548.149 236.888 547.349 236.184C546.565 235.464 546.173 234.368 546.173 232.896V225H548.741V232.224C548.741 233.28 548.949 234.032 549.365 234.48C549.781 234.912 550.397 235.128 551.213 235.128C552.189 235.128 552.989 234.824 553.613 234.216C554.253 233.592 554.573 232.68 554.573 231.48V225H557.141ZM567.585 224.76C568.913 224.76 569.993 225.144 570.825 225.912C571.673 226.68 572.097 227.784 572.097 229.224V237H569.529V230.04C569.529 227.928 568.673 226.872 566.961 226.872C566.065 226.872 565.297 227.184 564.657 227.808C564.017 228.416 563.697 229.36 563.697 230.64V237H561.129V225H563.409L563.529 226.992C563.929 226.24 564.481 225.68 565.185 225.312C565.889 224.944 566.689 224.76 567.585 224.76ZM580.932 231.36L578.556 233.808V237H575.988V219.6H578.556V230.88L584.292 225H587.316L582.732 229.704L587.604 237H584.628L580.932 231.36Z" fill="#18F0BD"/>
<path d="M557.492 354.8C557.012 356.224 556.188 357.32 555.02 358.088C553.868 358.856 552.508 359.24 550.94 359.24C549.42 359.24 548.1 358.912 546.98 358.256C545.86 357.6 544.996 356.656 544.388 355.424C543.78 354.192 543.476 352.744 543.476 351.08C543.476 349.416 543.78 347.968 544.388 346.736C544.996 345.504 545.86 344.56 546.98 343.904C548.1 343.248 549.412 342.92 550.916 342.92C552.5 342.92 553.828 343.248 554.9 343.904C555.988 344.56 556.772 345.528 557.252 346.808L554.828 347.888C554.508 346.944 554.044 346.256 553.436 345.824C552.828 345.376 552.036 345.152 551.06 345.152C549.572 345.152 548.38 345.68 547.484 346.736C546.604 347.776 546.164 349.224 546.164 351.08C546.164 352.952 546.588 354.408 547.436 355.448C548.284 356.488 549.46 357.008 550.964 357.008C551.988 357.008 552.844 356.752 553.532 356.24C554.236 355.728 554.74 354.976 555.044 353.984L557.492 354.8ZM566.866 346.76C568.194 346.76 569.274 347.144 570.106 347.912C570.954 348.68 571.378 349.784 571.378 351.224V359H568.81V352.04C568.81 349.928 567.954 348.872 566.242 348.872C565.346 348.872 564.578 349.184 563.938 349.808C563.298 350.432 562.978 351.384 562.978 352.664V359H560.41V341.6H562.978V348.92C563.378 348.184 563.906 347.64 564.562 347.288C565.234 346.936 566.002 346.76 566.866 346.76ZM586.141 347V359H583.861L583.765 357.056C582.949 358.512 581.525 359.24 579.493 359.24C578.197 359.24 577.149 358.888 576.349 358.184C575.565 357.464 575.173 356.368 575.173 354.896V347H577.741V354.224C577.741 355.28 577.949 356.032 578.365 356.48C578.781 356.912 579.397 357.128 580.213 357.128C581.189 357.128 581.989 356.824 582.613 356.216C583.253 355.592 583.573 354.68 583.573 353.48V347H586.141ZM596.585 346.76C597.913 346.76 598.993 347.144 599.825 347.912C600.673 348.68 601.097 349.784 601.097 351.224V359H598.529V352.04C598.529 349.928 597.673 348.872 595.961 348.872C595.065 348.872 594.297 349.184 593.657 349.808C593.017 350.416 592.697 351.36 592.697 352.64V359H590.129V347H592.409L592.529 348.992C592.929 348.24 593.481 347.68 594.185 347.312C594.889 346.944 595.689 346.76 596.585 346.76ZM609.932 353.36L607.556 355.808V359H604.988V341.6H607.556V352.88L613.292 347H616.316L611.732 351.704L616.604 359H613.628L609.932 353.36Z" fill="#18F0BD"/>
<path d="M544.492 440.8C544.012 442.224 543.188 443.32 542.02 444.088C540.868 444.856 539.508 445.24 537.94 445.24C536.42 445.24 535.1 444.912 533.98 444.256C532.86 443.6 531.996 442.656 531.388 441.424C530.78 440.192 530.476 438.744 530.476 437.08C530.476 435.416 530.78 433.968 531.388 432.736C531.996 431.504 532.86 430.56 533.98 429.904C535.1 429.248 536.412 428.92 537.916 428.92C539.5 428.92 540.828 429.248 541.9 429.904C542.988 430.56 543.772 431.528 544.252 432.808L541.828 433.888C541.508 432.944 541.044 432.256 540.436 431.824C539.828 431.376 539.036 431.152 538.06 431.152C536.572 431.152 535.38 431.68 534.484 432.736C533.604 433.776 533.164 435.224 533.164 437.08C533.164 438.952 533.588 440.408 534.436 441.448C535.284 442.488 536.46 443.008 537.964 443.008C538.988 443.008 539.844 442.752 540.532 442.24C541.236 441.728 541.74 440.976 542.044 439.984L544.492 440.8ZM553.866 432.76C555.194 432.76 556.274 433.144 557.106 433.912C557.954 434.68 558.378 435.784 558.378 437.224V445H555.81V438.04C555.81 435.928 554.954 434.872 553.242 434.872C552.346 434.872 551.578 435.184 550.938 435.808C550.298 436.432 549.978 437.384 549.978 438.664V445H547.41V427.6H549.978V434.92C550.378 434.184 550.906 433.64 551.562 433.288C552.234 432.936 553.002 432.76 553.866 432.76ZM573.141 433V445H570.861L570.765 443.056C569.949 444.512 568.525 445.24 566.493 445.24C565.197 445.24 564.149 444.888 563.349 444.184C562.565 443.464 562.173 442.368 562.173 440.896V433H564.741V440.224C564.741 441.28 564.949 442.032 565.365 442.48C565.781 442.912 566.397 443.128 567.213 443.128C568.189 443.128 568.989 442.824 569.613 442.216C570.253 441.592 570.573 440.68 570.573 439.48V433H573.141ZM583.585 432.76C584.913 432.76 585.993 433.144 586.825 433.912C587.673 434.68 588.097 435.784 588.097 437.224V445H585.529V438.04C585.529 435.928 584.673 434.872 582.961 434.872C582.065 434.872 581.297 435.184 580.657 435.808C580.017 436.416 579.697 437.36 579.697 438.64V445H577.129V433H579.409L579.529 434.992C579.929 434.24 580.481 433.68 581.185 433.312C581.889 432.944 582.689 432.76 583.585 432.76ZM596.932 439.36L594.556 441.808V445H591.988V427.6H594.556V438.88L600.292 433H603.316L598.732 437.704L603.604 445H600.628L596.932 439.36Z" fill="#18F0BD"/>
<path d="M492.492 510.8C492.012 512.224 491.188 513.32 490.02 514.088C488.868 514.856 487.508 515.24 485.94 515.24C484.42 515.24 483.1 514.912 481.98 514.256C480.86 513.6 479.996 512.656 479.388 511.424C478.78 510.192 478.476 508.744 478.476 507.08C478.476 505.416 478.78 503.968 479.388 502.736C479.996 501.504 480.86 500.56 481.98 499.904C483.1 499.248 484.412 498.92 485.916 498.92C487.5 498.92 488.828 499.248 489.9 499.904C490.988 500.56 491.772 501.528 492.252 502.808L489.828 503.888C489.508 502.944 489.044 502.256 488.436 501.824C487.828 501.376 487.036 501.152 486.06 501.152C484.572 501.152 483.38 501.68 482.484 502.736C481.604 503.776 481.164 505.224 481.164 507.08C481.164 508.952 481.588 510.408 482.436 511.448C483.284 512.488 484.46 513.008 485.964 513.008C486.988 513.008 487.844 512.752 488.532 512.24C489.236 511.728 489.74 510.976 490.044 509.984L492.492 510.8ZM501.866 502.76C503.194 502.76 504.274 503.144 505.106 503.912C505.954 504.68 506.378 505.784 506.378 507.224V515H503.81V508.04C503.81 505.928 502.954 504.872 501.242 504.872C500.346 504.872 499.578 505.184 498.938 505.808C498.298 506.432 497.978 507.384 497.978 508.664V515H495.41V497.6H497.978V504.92C498.378 504.184 498.906 503.64 499.562 503.288C500.234 502.936 501.002 502.76 501.866 502.76ZM521.141 503V515H518.861L518.765 513.056C517.949 514.512 516.525 515.24 514.493 515.24C513.197 515.24 512.149 514.888 511.349 514.184C510.565 513.464 510.173 512.368 510.173 510.896V503H512.741V510.224C512.741 511.28 512.949 512.032 513.365 512.48C513.781 512.912 514.397 513.128 515.213 513.128C516.189 513.128 516.989 512.824 517.613 512.216C518.253 511.592 518.573 510.68 518.573 509.48V503H521.141ZM531.585 502.76C532.913 502.76 533.993 503.144 534.825 503.912C535.673 504.68 536.097 505.784 536.097 507.224V515H533.529V508.04C533.529 505.928 532.673 504.872 530.961 504.872C530.065 504.872 529.297 505.184 528.657 505.808C528.017 506.416 527.697 507.36 527.697 508.64V515H525.129V503H527.409L527.529 504.992C527.929 504.24 528.481 503.68 529.185 503.312C529.889 502.944 530.689 502.76 531.585 502.76ZM544.932 509.36L542.556 511.808V515H539.988V497.6H542.556V508.88L548.292 503H551.316L546.732 507.704L551.604 515H548.628L544.932 509.36Z" fill="#18F0BD"/>
<path d="M396.492 573.8C396.012 575.224 395.188 576.32 394.02 577.088C392.868 577.856 391.508 578.24 389.94 578.24C388.42 578.24 387.1 577.912 385.98 577.256C384.86 576.6 383.996 575.656 383.388 574.424C382.78 573.192 382.476 571.744 382.476 570.08C382.476 568.416 382.78 566.968 383.388 565.736C383.996 564.504 384.86 563.56 385.98 562.904C387.1 562.248 388.412 561.92 389.916 561.92C391.5 561.92 392.828 562.248 393.9 562.904C394.988 563.56 395.772 564.528 396.252 565.808L393.828 566.888C393.508 565.944 393.044 565.256 392.436 564.824C391.828 564.376 391.036 564.152 390.06 564.152C388.572 564.152 387.38 564.68 386.484 565.736C385.604 566.776 385.164 568.224 385.164 570.08C385.164 571.952 385.588 573.408 386.436 574.448C387.284 575.488 388.46 576.008 389.964 576.008C390.988 576.008 391.844 575.752 392.532 575.24C393.236 574.728 393.74 573.976 394.044 572.984L396.492 573.8ZM405.866 565.76C407.194 565.76 408.274 566.144 409.106 566.912C409.954 567.68 410.378 568.784 410.378 570.224V578H407.81V571.04C407.81 568.928 406.954 567.872 405.242 567.872C404.346 567.872 403.578 568.184 402.938 568.808C402.298 569.432 401.978 570.384 401.978 571.664V578H399.41V560.6H401.978V567.92C402.378 567.184 402.906 566.64 403.562 566.288C404.234 565.936 405.002 565.76 405.866 565.76ZM425.141 566V578H422.861L422.765 576.056C421.949 577.512 420.525 578.24 418.493 578.24C417.197 578.24 416.149 577.888 415.349 577.184C414.565 576.464 414.173 575.368 414.173 573.896V566H416.741V573.224C416.741 574.28 416.949 575.032 417.365 575.48C417.781 575.912 418.397 576.128 419.213 576.128C420.189 576.128 420.989 575.824 421.613 575.216C422.253 574.592 422.573 573.68 422.573 572.48V566H425.141ZM435.585 565.76C436.913 565.76 437.993 566.144 438.825 566.912C439.673 567.68 440.097 568.784 440.097 570.224V578H437.529V571.04C437.529 568.928 436.673 567.872 434.961 567.872C434.065 567.872 433.297 568.184 432.657 568.808C432.017 569.416 431.697 570.36 431.697 571.64V578H429.129V566H431.409L431.529 567.992C431.929 567.24 432.481 566.68 433.185 566.312C433.889 565.944 434.689 565.76 435.585 565.76ZM448.932 572.36L446.556 574.808V578H443.988V560.6H446.556V571.88L452.292 566H455.316L450.732 570.704L455.604 578H452.628L448.932 572.36Z" fill="#18F0BD"/>
<path d="M522.001 49.4002L513.601 41.0002L510.801 43.8002L522.001 55.0002L546.001 31.0002L543.201 28.2002L522.001 49.4002Z" fill="white"/>
<path d="M643.001 130.4L634.601 122L631.801 124.8L643.001 136L667.001 112L664.201 109.2L643.001 130.4Z" fill="white"/>
<path d="M754.001 225.4L745.601 217L742.801 219.8L754.001 231L778.001 207L775.201 204.2L754.001 225.4Z" fill="white"/>
<path d="M805.001 346.4L796.601 338L793.801 340.8L805.001 352L829.001 328L826.201 325.2L805.001 346.4Z" fill="white"/>
<path d="M754.001 476.4L745.601 468L742.801 470.8L754.001 482L778.001 458L775.201 455.2L754.001 476.4Z" fill="white"/>
<path d="M643.001 567.4L634.601 559L631.801 561.8L643.001 573L667.001 549L664.201 546.2L643.001 567.4Z" fill="white"/>
<path d="M522.001 648.4L513.601 640L510.801 642.8L522.001 654L546.001 630L543.201 627.2L522.001 648.4Z" fill="white"/>
</svg>
