<svg version="1.1" viewBox="0.0 0.0 1450.9422572178478 445.2834645669291" fill="none" stroke="none" stroke-linecap="square" stroke-miterlimit="10" xmlns:xlink="http://www.w3.org/1999/xlink" xmlns="http://www.w3.org/2000/svg"><clipPath id="p.0"><path d="m0 0l1450.9423 0l0 445.28348l-1450.9423 0l0 -445.28348z" clip-rule="nonzero"/></clipPath><g clip-path="url(#p.0)"><path fill="#000000" fill-opacity="0.0" d="m0 0l1450.9423 0l0 445.28348l-1450.9423 0z" fill-rule="evenodd"/><path fill="#ffffff" d="m51.072605 21.44041l150.73169 0l0 166.12813l-150.73169 0z" fill-rule="evenodd"/><path stroke="#595959" stroke-width="1.0" stroke-linejoin="round" stroke-linecap="butt" d="m51.072605 21.44041l150.73169 0l0 166.12813l-150.73169 0z" fill-rule="evenodd"/><path fill="#666666" d="m56.39138 25.93727l139.98718 0l0 29.411528l-139.98718 0z" fill-rule="evenodd"/><path fill="#b4b5b1" d="m56.385643 60.523746l139.98718 0l0 121.83626l-139.98718 0z" fill-rule="evenodd"/><path fill="#666666" d="m26.048563 97.85432l20.817488 0l0 -6.647812l13.29562 13.295624l-13.29562 13.295624l0 -6.647812l-20.817488 0z" fill-rule="evenodd"/><path stroke="#ffffff" stroke-width="1.0" stroke-linejoin="round" stroke-linecap="butt" d="m26.048563 97.85432l20.817488 0l0 -6.647812l13.29562 13.295624l-13.29562 13.295624l0 -6.647812l-20.817488 0z" fill-rule="evenodd"/><path fill="#ffffff" d="m225.79938 21.44041l150.73169 0l0 166.12813l-150.73169 0z" fill-rule="evenodd"/><path stroke="#595959" stroke-width="1.0" stroke-linejoin="round" stroke-linecap="butt" d="m225.79938 21.44041l150.73169 0l0 166.12813l-150.73169 0z" fill-rule="evenodd"/><path fill="#666666" d="m231.11815 25.93727l139.98717 0l0 29.411528l-139.98717 0z" fill-rule="evenodd"/><path fill="#b4b5b1" d="m231.11241 60.523746l139.9872 0l0 121.83626l-139.9872 0z" fill-rule="evenodd"/><path fill="#666666" d="m200.77533 97.85432l20.81749 0l0 -6.647812l13.295624 13.295624l-13.295624 13.295624l0 -6.647812l-20.81749 0z" fill-rule="evenodd"/><path stroke="#ffffff" stroke-width="1.0" stroke-linejoin="round" stroke-linecap="butt" d="m200.77533 97.85432l20.81749 0l0 -6.647812l13.295624 13.295624l-13.295624 13.295624l0 -6.647812l-20.81749 0z" fill-rule="evenodd"/><path fill="#ffffff" d="m400.52615 21.44041l150.73166 0l0 166.12813l-150.73166 0z" fill-rule="evenodd"/><path stroke="#595959" stroke-width="1.0" stroke-linejoin="round" stroke-linecap="butt" d="m400.52615 21.44041l150.73166 0l0 166.12813l-150.73166 0z" fill-rule="evenodd"/><path fill="#666666" d="m405.8449 25.93727l139.98718 0l0 29.411528l-139.98718 0z" fill-rule="evenodd"/><path fill="#b4b5b1" d="m405.83917 60.523746l139.98718 0l0 121.83626l-139.98718 0z" fill-rule="evenodd"/><path fill="#666666" d="m375.5021 97.85432l20.817474 0l0 -6.647812l13.295624 13.295624l-13.295624 13.295624l0 -6.647812l-20.817474 0z" fill-rule="evenodd"/><path stroke="#ffffff" stroke-width="1.0" stroke-linejoin="round" stroke-linecap="butt" d="m375.5021 97.85432l20.817474 0l0 -6.647812l13.295624 13.295624l-13.295624 13.295624l0 -6.647812l-20.817474 0z" fill-rule="evenodd"/><path fill="#ffffff" d="m575.2529 21.44041l150.73169 0l0 166.12813l-150.73169 0z" fill-rule="evenodd"/><path stroke="#595959" stroke-width="1.0" stroke-linejoin="round" stroke-linecap="butt" d="m575.2529 21.44041l150.73169 0l0 166.12813l-150.73169 0z" fill-rule="evenodd"/><path fill="#666666" d="m580.5717 25.93727l139.98718 0l0 29.411528l-139.98718 0z" fill-rule="evenodd"/><path fill="#b4b5b1" d="m580.566 60.523746l139.98718 0l0 121.83626l-139.98718 0z" fill-rule="evenodd"/><path fill="#666666" d="m550.2289 97.85432l20.817505 0l0 -6.647812l13.295593 13.295624l-13.295593 13.295624l0 -6.647812l-20.817505 0z" fill-rule="evenodd"/><path stroke="#ffffff" stroke-width="1.0" stroke-linejoin="round" stroke-linecap="butt" d="m550.2289 97.85432l20.817505 0l0 -6.647812l13.295593 13.295624l-13.295593 13.295624l0 -6.647812l-20.817505 0z" fill-rule="evenodd"/><path fill="#ffffff" d="m749.9797 21.44041l150.73169 0l0 166.12813l-150.73169 0z" fill-rule="evenodd"/><path stroke="#595959" stroke-width="1.0" stroke-linejoin="round" stroke-linecap="butt" d="m749.9797 21.44041l150.73169 0l0 166.12813l-150.73169 0z" fill-rule="evenodd"/><path fill="#666666" d="m755.29846 25.93727l139.98718 0l0 29.411528l-139.98718 0z" fill-rule="evenodd"/><path fill="#b4b5b1" d="m755.2927 60.523746l139.98718 0l0 121.83626l-139.98718 0z" fill-rule="evenodd"/><path fill="#666666" d="m724.9556 97.85432l20.817505 0l0 -6.647812l13.295593 13.295624l-13.295593 13.295624l0 -6.647812l-20.817505 0z" fill-rule="evenodd"/><path stroke="#ffffff" stroke-width="1.0" stroke-linejoin="round" stroke-linecap="butt" d="m724.9556 97.85432l20.817505 0l0 -6.647812l13.295593 13.295624l-13.295593 13.295624l0 -6.647812l-20.817505 0z" fill-rule="evenodd"/><path fill="#ffffff" d="m924.7065 21.44041l150.73163 0l0 166.12813l-150.73163 0z" fill-rule="evenodd"/><path stroke="#595959" stroke-width="1.0" stroke-linejoin="round" stroke-linecap="butt" d="m924.7065 21.44041l150.73163 0l0 166.12813l-150.73163 0z" fill-rule="evenodd"/><path fill="#666666" d="m930.0252 25.93727l139.98724 0l0 29.411528l-139.98724 0z" fill-rule="evenodd"/><path fill="#b4b5b1" d="m930.0195 60.523746l139.98724 0l0 121.83626l-139.98724 0z" fill-rule="evenodd"/><path fill="#666666" d="m899.68243 97.85432l20.817444 0l0 -6.647812l13.295654 13.295624l-13.295654 13.295624l0 -6.647812l-20.817444 0z" fill-rule="evenodd"/><path stroke="#ffffff" stroke-width="1.0" stroke-linejoin="round" stroke-linecap="butt" d="m899.68243 97.85432l20.817444 0l0 -6.647812l13.295654 13.295624l-13.295654 13.295624l0 -6.647812l-20.817444 0z" fill-rule="evenodd"/><path fill="#ffffff" d="m400.52615 257.71494l150.73166 0l0 166.12811l-150.73166 0z" fill-rule="evenodd"/><path stroke="#595959" stroke-width="1.0" stroke-linejoin="round" stroke-linecap="butt" d="m400.52615 257.71494l150.73166 0l0 166.12811l-150.73166 0z" fill-rule="evenodd"/><path fill="#ff1864" d="m405.8449 262.2118l139.98718 0l0 29.41153l-139.98718 0z" fill-rule="evenodd"/><path fill="#b4b5b1" d="m405.83917 296.79828l139.98718 0l0 121.83624l-139.98718 0z" fill-rule="evenodd"/><path fill="#ffffff" d="m575.2529 257.71494l150.73169 0l0 166.12811l-150.73169 0z" fill-rule="evenodd"/><path stroke="#595959" stroke-width="1.0" stroke-linejoin="round" stroke-linecap="butt" d="m575.2529 257.71494l150.73169 0l0 166.12811l-150.73169 0z" fill-rule="evenodd"/><path fill="#ff1864" d="m580.5717 262.2118l139.98718 0l0 29.41153l-139.98718 0z" fill-rule="evenodd"/><path fill="#b4b5b1" d="m580.566 296.79828l139.98718 0l0 121.83624l-139.98718 0z" fill-rule="evenodd"/><path fill="#ff1864" d="m550.2289 334.12885l20.817505 0l0 -6.647827l13.295593 13.295624l-13.295593 13.295624l0 -6.6477966l-20.817505 0z" fill-rule="evenodd"/><path fill="#ffffff" d="m749.9797 257.71494l150.73169 0l0 166.12811l-150.73169 0z" fill-rule="evenodd"/><path stroke="#595959" stroke-width="1.0" stroke-linejoin="round" stroke-linecap="butt" d="m749.9797 257.71494l150.73169 0l0 166.12811l-150.73169 0z" fill-rule="evenodd"/><path fill="#ff1864" d="m755.29846 262.2118l139.98718 0l0 29.41153l-139.98718 0z" fill-rule="evenodd"/><path fill="#b4b5b1" d="m755.2927 296.79828l139.98718 0l0 121.83624l-139.98718 0z" fill-rule="evenodd"/><path fill="#ff1864" d="m724.9556 334.12885l20.817505 0l0 -6.647827l13.295593 13.295624l-13.295593 13.295624l0 -6.6477966l-20.817505 0z" fill-rule="evenodd"/><path fill="#ffffff" d="m924.7065 257.71494l150.73163 0l0 166.12811l-150.73163 0z" fill-rule="evenodd"/><path stroke="#595959" stroke-width="1.0" stroke-linejoin="round" stroke-linecap="butt" d="m924.7065 257.71494l150.73163 0l0 166.12811l-150.73163 0z" fill-rule="evenodd"/><path fill="#ff1864" d="m930.0252 262.2118l139.98724 0l0 29.41153l-139.98724 0z" fill-rule="evenodd"/><path fill="#b4b5b1" d="m930.0195 296.79828l139.98724 0l0 121.83624l-139.98724 0z" fill-rule="evenodd"/><path fill="#ff1864" d="m899.68243 334.12885l20.817444 0l0 -6.647827l13.295654 13.295624l-13.295654 13.295624l0 -6.6477966l-20.817444 0z" fill-rule="evenodd"/><path fill="#ff1864" d="m296.5312 207.95609l0 107.31415c0 21.193329 17.180573 38.3739 38.3739 38.3739l30.948181 0l0 11.760773l19.811768 -21.044525l-19.811768 -21.044495l0 11.760773l-30.948181 0l0 0c-10.938782 0 -19.806427 -8.867645 -19.806427 -19.806427l0 -107.31415z" fill-rule="evenodd"/><path stroke="#303030" stroke-width="1.0" stroke-linejoin="round" stroke-linecap="butt" d="m296.5312 207.95609l0 107.31415c0 21.193329 17.180573 38.3739 38.3739 38.3739l30.948181 0l0 11.760773l19.811768 -21.044525l-19.811768 -21.044495l0 11.760773l-30.948181 0l0 0c-10.938782 0 -19.806427 -8.867645 -19.806427 -19.806427l0 -107.31415z" fill-rule="evenodd"/><path fill="#ffffff" d="m1099.4359 257.71494l150.73169 0l0 166.12811l-150.73169 0z" fill-rule="evenodd"/><path stroke="#595959" stroke-width="1.0" stroke-linejoin="round" stroke-linecap="butt" d="m1099.4359 257.71494l150.73169 0l0 166.12811l-150.73169 0z" fill-rule="evenodd"/><path fill="#ff1864" d="m1104.7546 262.2118l139.98718 0l0 29.41153l-139.98718 0z" fill-rule="evenodd"/><path fill="#b4b5b1" d="m1104.7489 296.79828l139.98718 0l0 121.83624l-139.98718 0z" fill-rule="evenodd"/><path fill="#ff1864" d="m1074.4119 334.12885l20.817505 0l0 -6.647827l13.295654 13.295624l-13.295654 13.295624l0 -6.6477966l-20.817505 0z" fill-rule="evenodd"/><path fill="#ffffff" d="m1274.162 257.71494l150.73169 0l0 166.12811l-150.73169 0z" fill-rule="evenodd"/><path stroke="#595959" stroke-width="1.0" stroke-linejoin="round" stroke-linecap="butt" d="m1274.162 257.71494l150.73169 0l0 166.12811l-150.73169 0z" fill-rule="evenodd"/><path fill="#ff1864" d="m1279.4808 262.2118l139.98718 0l0 29.41153l-139.98718 0z" fill-rule="evenodd"/><path fill="#b4b5b1" d="m1279.4751 296.79828l139.98718 0l0 121.83624l-139.98718 0z" fill-rule="evenodd"/><path fill="#ff1864" d="m1249.138 334.12885l20.817505 0l0 -6.647827l13.295654 13.295624l-13.295654 13.295624l0 -6.6477966l-20.817505 0z" fill-rule="evenodd"/></g></svg>