<?xml version="1.0" encoding="utf-8"?>
<!-- Generator: Adobe Illustrator 24.0.3, SVG Export Plug-In . SVG Version: 6.00 Build 0)  -->
<svg version="1.1" id="Layer_1" xmlns="http://www.w3.org/2000/svg" xmlns:xlink="http://www.w3.org/1999/xlink" x="0px" y="0px"
	 viewBox="0 0 180 180" style="enable-background:new 0 0 180 180;" xml:space="preserve">
<style type="text/css">
	.st0{fill:#E6007A;}
	.st1{fill:#FFFFFF;}
</style>
<title>hiress_Governance</title>
<circle class="st0" cx="125.3" cy="118.9" r="2.5"/>
<circle class="st0" cx="116.5" cy="123.8" r="2.5"/>
<circle class="st0" cx="107.7" cy="128.7" r="2.5"/>
<circle class="st0" cx="98.8" cy="133.6" r="2.5"/>
<circle class="st0" cx="90" cy="138.5" r="2.5"/>
<circle class="st0" cx="81.2" cy="133.6" r="2.5"/>
<circle class="st0" cx="72.3" cy="128.7" r="2.5"/>
<circle class="st0" cx="63.5" cy="123.8" r="2.5"/>
<circle class="st0" cx="160.7" cy="99.2" r="2.5"/>
<circle class="st0" cx="151.8" cy="94.3" r="2.5"/>
<circle class="st0" cx="143" cy="89.4" r="2.5"/>
<circle class="st0" cx="134.2" cy="84.5" r="2.5"/>
<circle class="st0" cx="54.7" cy="118.9" r="2.5"/>
<circle class="st0" cx="90" cy="79.6" r="2.5"/>
<circle class="st0" cx="90" cy="99.2" r="2.5"/>
<circle class="st0" cx="90" cy="109" r="2.5"/>
<circle class="st0" cx="90" cy="118.9" r="2.5"/>
<circle class="st0" cx="81.2" cy="113.9" r="2.5"/>
<circle class="st0" cx="72.3" cy="109" r="2.5"/>
<circle class="st0" cx="54.7" cy="99.2" r="2.5"/>
<circle class="st1" cx="63.5" cy="55.1" r="2.5"/>
<circle class="st0" cx="90" cy="89.4" r="2.5"/>
<circle class="st0" cx="63.5" cy="104.1" r="2.5"/>
<circle class="st0" cx="45.8" cy="84.5" r="2.5"/>
<circle class="st0" cx="45.8" cy="74.7" r="2.5"/>
<circle class="st0" cx="45.8" cy="64.9" r="2.5"/>
<circle class="st0" cx="45.8" cy="55.2" r="2.5"/>
<circle class="st0" cx="45.8" cy="94.3" r="2.5"/>
<circle class="st0" cx="134.2" cy="113.9" r="2.5"/>
<circle class="st0" cx="143" cy="109" r="2.5"/>
<circle class="st0" cx="151.8" cy="104.1" r="2.5"/>
<circle class="st0" cx="160.7" cy="109" r="2.5"/>
<circle class="st0" cx="160.7" cy="118.8" r="2.5"/>
<circle class="st0" cx="45.8" cy="113.9" r="2.5"/>
<circle class="st0" cx="37" cy="109" r="2.5"/>
<circle class="st0" cx="28.2" cy="104.1" r="2.5"/>
<circle class="st0" cx="19.3" cy="109" r="2.5"/>
<circle class="st1" cx="90" cy="69.9" r="2.5"/>
<circle class="st1" cx="81.2" cy="65" r="2.5"/>
<circle class="st1" cx="72.3" cy="60.1" r="2.5"/>
<circle class="st1" cx="54.7" cy="50.4" r="2.5"/>
<circle class="st1" cx="45.8" cy="45.5" r="2.5"/>
<circle class="st0" cx="98.8" cy="113.9" r="2.5"/>
<circle class="st0" cx="107.7" cy="109" r="2.5"/>
<circle class="st0" cx="125.3" cy="99.2" r="2.5"/>
<circle class="st1" cx="116.5" cy="55.1" r="2.5"/>
<circle class="st0" cx="116.5" cy="104.1" r="2.5"/>
<circle class="st0" cx="134.2" cy="74.7" r="2.5"/>
<circle class="st0" cx="134.2" cy="64.9" r="2.5"/>
<circle class="st0" cx="134.2" cy="55.2" r="2.5"/>
<circle class="st0" cx="134.2" cy="94.3" r="2.5"/>
<circle class="st1" cx="98.8" cy="65" r="2.5"/>
<circle class="st1" cx="107.7" cy="60.1" r="2.5"/>
<circle class="st1" cx="125.3" cy="50.4" r="2.5"/>
<circle class="st1" cx="134.2" cy="45.5" r="2.5"/>
<circle class="st1" cx="72.3" cy="30.7" r="2.5"/>
<circle class="st1" cx="54.7" cy="40.6" r="2.5"/>
<circle class="st1" cx="63.5" cy="35.7" r="2.5"/>
<circle class="st1" cx="81.2" cy="26" r="2.5"/>
<circle class="st1" cx="90" cy="21.1" r="2.5"/>
<circle class="st1" cx="125.3" cy="40.8" r="2.5"/>
<circle class="st1" cx="116.5" cy="35.9" r="2.5"/>
<circle class="st1" cx="107.7" cy="31" r="2.5"/>
<circle class="st1" cx="98.8" cy="26" r="2.5"/>
<circle class="st0" cx="116.5" cy="153.1" r="2.5"/>
<circle class="st0" cx="107.7" cy="158" r="2.5"/>
<circle class="st0" cx="98.8" cy="163" r="2.5"/>
<circle class="st0" cx="90" cy="167.9" r="2.5"/>
<circle class="st0" cx="81.2" cy="163" r="2.5"/>
<circle class="st0" cx="63.5" cy="153.2" r="2.5"/>
<circle class="st0" cx="72.3" cy="158.1" r="2.5"/>
<circle class="st0" cx="134.2" cy="143.3" r="2.5"/>
<circle class="st0" cx="125.3" cy="148.2" r="2.5"/>
<circle class="st0" cx="54.7" cy="148.3" r="2.5"/>
<circle class="st0" cx="143" cy="138.4" r="2.5"/>
<circle class="st0" cx="151.8" cy="133.5" r="2.5"/>
<circle class="st0" cx="160.7" cy="128.6" r="2.5"/>
<circle class="st0" cx="37" cy="138.5" r="2.5"/>
<circle class="st0" cx="45.8" cy="143.4" r="2.5"/>
<circle class="st0" cx="28.2" cy="133.6" r="2.5"/>
<circle class="st0" cx="19.3" cy="118.9" r="2.5"/>
<circle class="st0" cx="19.3" cy="128.7" r="2.5"/>
<circle class="st0" cx="19.3" cy="99.2" r="2.5"/>
<circle class="st0" cx="28.2" cy="94.3" r="2.5"/>
<circle class="st0" cx="37" cy="89.4" r="2.5"/>
</svg>
