<?xml version="1.0" encoding="utf-8"?>
<!-- Generator: Adobe Illustrator 24.0.3, SVG Export Plug-In . SVG Version: 6.00 Build 0)  -->
<svg version="1.1" id="Layer_1" xmlns="http://www.w3.org/2000/svg" xmlns:xlink="http://www.w3.org/1999/xlink" x="0px" y="0px"
	 viewBox="0 0 180 180" style="enable-background:new 0 0 180 180;" xml:space="preserve">
<style type="text/css">
	.st0{fill:#FFFFFF;}
	.st1{fill:#E6007A;}
</style>
<title>hiress_Bonding</title>
<circle class="st0" cx="116.5" cy="75.3" r="2.5"/>
<circle class="st0" cx="125.3" cy="80.2" r="2.5"/>
<circle class="st0" cx="125.3" cy="90" r="2.5"/>
<circle class="st0" cx="125.3" cy="99.8" r="2.5"/>
<circle class="st0" cx="125.3" cy="109.6" r="2.5"/>
<circle class="st0" cx="125.3" cy="119.4" r="2.5"/>
<circle class="st0" cx="116.5" cy="124.3" r="2.5"/>
<circle class="st0" cx="90" cy="60.6" r="2.5"/>
<circle class="st0" cx="98.8" cy="65.5" r="2.5"/>
<circle class="st0" cx="107.7" cy="70.4" r="2.5"/>
<circle class="st0" cx="107.7" cy="129.2" r="2.5"/>
<circle class="st0" cx="98.8" cy="134.2" r="2.5"/>
<circle class="st0" cx="90" cy="139.1" r="2.5"/>
<circle class="st0" cx="81.2" cy="65.5" r="2.5"/>
<circle class="st0" cx="81.2" cy="134.2" r="2.5"/>
<circle class="st0" cx="72.3" cy="70.4" r="2.5"/>
<circle class="st0" cx="63.5" cy="124.3" r="2.5"/>
<circle class="st0" cx="72.3" cy="129.2" r="2.5"/>
<circle class="st0" cx="54.7" cy="80.2" r="2.5"/>
<circle class="st0" cx="54.7" cy="90" r="2.5"/>
<circle class="st0" cx="54.7" cy="99.8" r="2.5"/>
<circle class="st0" cx="54.7" cy="109.6" r="2.5"/>
<circle class="st0" cx="54.7" cy="119.4" r="2.5"/>
<circle class="st1" cx="90" cy="109.6" r="2.5"/>
<circle class="st1" cx="90" cy="119.4" r="2.5"/>
<circle class="st0" cx="90" cy="129.2" r="2.5"/>
<circle class="st1" cx="81.2" cy="144" r="2.5"/>
<circle class="st1" cx="72.3" cy="148.9" r="2.5"/>
<circle class="st1" cx="63.5" cy="153.8" r="2.5"/>
<circle class="st1" cx="54.7" cy="158.7" r="2.5"/>
<circle class="st1" cx="45.8" cy="85.1" r="2.5"/>
<circle class="st1" cx="45.8" cy="153.8" r="2.5"/>
<circle class="st1" cx="37" cy="90" r="2.5"/>
<circle class="st1" cx="28.2" cy="94.9" r="2.5"/>
<circle class="st1" cx="28.2" cy="144" r="2.5"/>
<circle class="st1" cx="37" cy="148.9" r="2.5"/>
<circle class="st1" cx="19.3" cy="99.8" r="2.5"/>
<circle class="st1" cx="19.3" cy="109.6" r="2.5"/>
<circle class="st1" cx="19.3" cy="119.4" r="2.5"/>
<circle class="st1" cx="19.3" cy="129.2" r="2.5"/>
<circle class="st1" cx="19.3" cy="139.1" r="2.5"/>
<circle class="st1" cx="151.8" cy="94.9" r="2.5"/>
<circle class="st1" cx="160.7" cy="99.8" r="2.5"/>
<circle class="st1" cx="160.7" cy="109.6" r="2.5"/>
<circle class="st1" cx="160.7" cy="119.4" r="2.5"/>
<circle class="st1" cx="160.7" cy="129.2" r="2.5"/>
<circle class="st1" cx="160.7" cy="139.1" r="2.5"/>
<circle class="st1" cx="151.8" cy="144" r="2.5"/>
<circle class="st1" cx="134.2" cy="85.1" r="2.5"/>
<circle class="st1" cx="143" cy="90" r="2.5"/>
<circle class="st1" cx="143" cy="148.9" r="2.5"/>
<circle class="st1" cx="134.2" cy="153.8" r="2.5"/>
<circle class="st1" cx="125.3" cy="158.7" r="2.5"/>
<circle class="st1" cx="116.5" cy="153.8" r="2.5"/>
<circle class="st1" cx="98.8" cy="144" r="2.5"/>
<circle class="st1" cx="107.7" cy="148.9" r="2.5"/>
<circle class="st1" cx="116.5" cy="36" r="2.5"/>
<circle class="st1" cx="125.3" cy="40.9" r="2.5"/>
<circle class="st1" cx="125.3" cy="50.7" r="2.5"/>
<circle class="st1" cx="125.3" cy="60.6" r="2.5"/>
<circle class="st1" cx="125.3" cy="70.4" r="2.5"/>
<circle class="st1" cx="90" cy="21.3" r="2.5"/>
<circle class="st1" cx="98.8" cy="26.2" r="2.5"/>
<circle class="st1" cx="107.7" cy="31.1" r="2.5"/>
<circle class="st1" cx="81.2" cy="26.2" r="2.5"/>
<circle class="st1" cx="72.3" cy="31.1" r="2.5"/>
<circle class="st1" cx="63.5" cy="36" r="2.5"/>
<circle class="st1" cx="54.7" cy="40.9" r="2.5"/>
<circle class="st1" cx="54.7" cy="50.7" r="2.5"/>
<circle class="st1" cx="54.7" cy="60.6" r="2.5"/>
<circle class="st1" cx="54.7" cy="70.4" r="2.5"/>
<circle class="st1" cx="116.5" cy="85.1" r="2.5"/>
<circle class="st1" cx="107.7" cy="90" r="2.5"/>
<circle class="st1" cx="98.8" cy="94.9" r="2.5"/>
<circle class="st1" cx="81.2" cy="94.9" r="2.5"/>
<circle class="st1" cx="72.3" cy="90" r="2.5"/>
<circle class="st1" cx="90" cy="99.8" r="2.5"/>
<circle class="st0" cx="63.5" cy="75.3" r="2.5"/>
<circle class="st1" cx="63.5" cy="85.1" r="2.5"/>
</svg>
