<?xml version="1.0" encoding="utf-8"?>
<!-- Generator: Adobe Illustrator 24.0.3, SVG Export Plug-In . SVG Version: 6.00 Build 0)  -->
<svg version="1.1" id="Layer_1" xmlns="http://www.w3.org/2000/svg" xmlns:xlink="http://www.w3.org/1999/xlink" x="0px" y="0px"
	 viewBox="0 0 180 180" style="enable-background:new 0 0 180 180;" xml:space="preserve">
<style type="text/css">
	.st0{fill:#E6007A;}
	.st1{fill:#FFFFFF;}
</style>
<title>hiress_Operations</title>
<circle class="st0" cx="72.3" cy="116.6" r="2.5"/>
<circle class="st0" cx="72.3" cy="136.2" r="2.5"/>
<circle class="st0" cx="72.3" cy="146" r="2.5"/>
<circle class="st0" cx="72.3" cy="155.9" r="2.5"/>
<circle class="st0" cx="72.3" cy="126.4" r="2.5"/>
<circle class="st0" cx="63.5" cy="151" r="2.5"/>
<circle class="st0" cx="45.8" cy="141.1" r="2.5"/>
<circle class="st0" cx="54.7" cy="146" r="2.5"/>
<circle class="st1" cx="107.7" cy="155.9" r="2.5"/>
<circle class="st1" cx="98.8" cy="151" r="2.5"/>
<circle class="st1" cx="81.2" cy="141.1" r="2.5"/>
<circle class="st1" cx="90" cy="146" r="2.5"/>
<circle class="st0" cx="72.3" cy="97" r="2.5"/>
<circle class="st0" cx="72.3" cy="106.8" r="2.5"/>
<circle class="st0" cx="63.5" cy="92.1" r="2.5"/>
<circle class="st0" cx="54.7" cy="87.2" r="2.5"/>
<circle class="st0" cx="45.8" cy="82.3" r="2.5"/>
<circle class="st1" cx="72.3" cy="67.5" r="2.5"/>
<circle class="st1" cx="72.3" cy="77.4" r="2.5"/>
<circle class="st1" cx="72.3" cy="87.2" r="2.5"/>
<circle class="st0" cx="134.2" cy="151" r="2.5"/>
<circle class="st1" cx="116.5" cy="121.5" r="2.5"/>
<circle class="st1" cx="116.5" cy="131.3" r="2.5"/>
<circle class="st1" cx="116.5" cy="141.1" r="2.5"/>
<circle class="st0" cx="125.3" cy="146" r="2.5"/>
<circle class="st0" cx="134.2" cy="121.5" r="2.5"/>
<circle class="st1" cx="116.5" cy="111.7" r="2.5"/>
<circle class="st0" cx="125.3" cy="116.6" r="2.5"/>
<circle class="st0" cx="37" cy="136.2" r="2.5"/>
<circle class="st0" cx="28.2" cy="92.1" r="2.5"/>
<circle class="st0" cx="28.2" cy="101.9" r="2.5"/>
<circle class="st0" cx="28.2" cy="111.7" r="2.5"/>
<circle class="st0" cx="28.2" cy="121.5" r="2.5"/>
<circle class="st0" cx="28.2" cy="131.3" r="2.5"/>
<circle class="st0" cx="37" cy="77.4" r="2.5"/>
<circle class="st0" cx="28.2" cy="72.4" r="2.5"/>
<circle class="st0" cx="28.2" cy="82.3" r="2.5"/>
<circle class="st1" cx="116.5" cy="151" r="2.5"/>
<circle class="st1" cx="116.5" cy="160.8" r="2.5"/>
<circle class="st1" cx="116.5" cy="101.9" r="2.5"/>
<circle class="st1" cx="116.5" cy="92.1" r="2.5"/>
<circle class="st0" cx="143" cy="155.9" r="2.5"/>
<circle class="st0" cx="143" cy="126.4" r="2.5"/>
<circle class="st0" cx="151.8" cy="131.3" r="2.5"/>
<circle class="st0" cx="151.8" cy="141.1" r="2.5"/>
<circle class="st0" cx="151.8" cy="151" r="2.5"/>
<circle class="st0" cx="151.8" cy="160.8" r="2.5"/>
<circle class="st1" cx="72.3" cy="38.1" r="2.5"/>
<circle class="st1" cx="72.3" cy="47.9" r="2.5"/>
<circle class="st1" cx="72.3" cy="57.7" r="2.5"/>
<circle class="st1" cx="116.5" cy="62.6" r="2.5"/>
<circle class="st1" cx="116.5" cy="82.3" r="2.5"/>
<circle class="st1" cx="116.5" cy="72.4" r="2.5"/>
<circle class="st1" cx="107.7" cy="47.9" r="2.5"/>
<circle class="st1" cx="98.8" cy="43" r="2.5"/>
<circle class="st1" cx="90" cy="38.1" r="2.5"/>
<circle class="st1" cx="81.2" cy="33.2" r="2.5"/>
<circle class="st1" cx="72.3" cy="28.3" r="2.5"/>
<circle class="st1" cx="116.5" cy="52.8" r="2.5"/>
</svg>
