<svg version="1.1" viewBox="0.0 0.0 1776.0 982.0" fill="none" stroke="none" stroke-linecap="square" stroke-miterlimit="10" xmlns:xlink="http://www.w3.org/1999/xlink" xmlns="http://www.w3.org/2000/svg"><clipPath id="p.0"><path d="m0 0l1776.0 0l0 982.0l-1776.0 0l0 -982.0z" clip-rule="nonzero"/></clipPath><g clip-path="url(#p.0)"><path fill="#000000" fill-opacity="0.0" d="m0 0l1776.0 0l0 982.0l-1776.0 0z" fill-rule="evenodd"/><path fill="#00b2ff" fill-opacity="0.5023" d="m810.72046 492.44l0 0c0 -265.09668 214.90332 -480.0 480.0 -480.0l0 0c127.303955 0 249.3938 50.571285 339.41125 140.58875c90.017456 90.017456 140.58875 212.10733 140.58875 339.41125l0 0c0 265.09668 -214.90332 480.0 -480.0 480.0l0 0c-265.09668 0 -480.0 -214.90332 -480.0 -480.0z" fill-rule="evenodd"/><path stroke="#595959" stroke-width="1.0" stroke-linejoin="round" stroke-linecap="butt" d="m810.72046 492.44l0 0c0 -265.09668 214.90332 -480.0 480.0 -480.0l0 0c127.303955 0 249.3938 50.571285 339.41125 140.58875c90.017456 90.017456 140.58875 212.10733 140.58875 339.41125l0 0c0 265.09668 -214.90332 480.0 -480.0 480.0l0 0c-265.09668 0 -480.0 -214.90332 -480.0 -480.0z" fill-rule="evenodd"/><path fill="#fe1864" fill-opacity="0.5" d="m5.2795277 489.56l0 0c0 -265.09668 214.90332 -480.0 480.0 -480.0l0 0c127.303894 0 249.3938 50.57128 339.41125 140.58875c90.017456 90.01747 140.58875 212.10733 140.58875 339.41125l0 0c0 265.09668 -214.90332 480.0 -480.0 480.0l0 0c-265.09668 0 -480.0 -214.90332 -480.0 -480.0z" fill-rule="evenodd"/><path stroke="#595959" stroke-width="1.0" stroke-linejoin="round" stroke-linecap="butt" d="m5.2795277 489.56l0 0c0 -265.09668 214.90332 -480.0 480.0 -480.0l0 0c127.303894 0 249.3938 50.57128 339.41125 140.58875c90.017456 90.01747 140.58875 212.10733 140.58875 339.41125l0 0c0 265.09668 -214.90332 480.0 -480.0 480.0l0 0c-265.09668 0 -480.0 -214.90332 -480.0 -480.0z" fill-rule="evenodd"/><path fill="#000000" fill-opacity="0.0" d="m132.24016 424.3114l706.07874 0l0 152.72443l-706.07874 0z" fill-rule="evenodd"/><path fill="#000000" d="m196.21703 538.9114l0 -80.0l53.90625 0l0 13.9375l-36.984375 0l0 19.0625l34.21875 0l0 13.953125l-34.21875 0l0 19.09375l37.140625 0l0 13.953125l-54.0625 0zm94.17967 1.171875q-9.21875 0 -15.84375 -3.921875q-6.609375 -3.9375 -10.15625 -10.921875q-3.53125 -7.0 -3.53125 -16.09375q0 -9.21875 3.578125 -16.1875q3.578125 -6.984375 10.171875 -10.90625q6.609375 -3.921875 15.703125 -3.921875q7.859375 0 13.75 2.859375q5.90625 2.84375 9.34375 8.0q3.4375 5.15625 3.78125 12.109375l-15.703125 0q-0.65625 -4.5 -3.5 -7.25q-2.828125 -2.75 -7.390625 -2.75q-3.875 0 -6.75 2.09375q-2.859375 2.078125 -4.46875 6.0625q-1.59375 3.984375 -1.59375 9.65625q0 5.734375 1.578125 9.765625q1.578125 4.015625 4.46875 6.125q2.890625 2.109375 6.765625 2.109375q2.84375 0 5.125 -1.171875q2.296875 -1.171875 3.796875 -3.40625q1.5 -2.25 1.96875 -5.421875l15.703125 0q-0.390625 6.875 -3.734375 12.09375q-3.328125 5.21875 -9.1875 8.15625q-5.859375 2.921875 -13.875 2.921875zm64.609375 0q-9.09375 0 -15.71875 -3.890625q-6.625 -3.890625 -10.21875 -10.859375q-3.59375 -6.96875 -3.59375 -16.1875q0 -9.296875 3.59375 -16.265625q3.59375 -6.984375 10.21875 -10.859375q6.625 -3.890625 15.71875 -3.890625q9.109375 0 15.71875 3.890625q6.625 3.875 10.21875 10.859375q3.59375 6.96875 3.59375 16.265625q0 9.21875 -3.59375 16.1875q-3.59375 6.96875 -10.21875 10.859375q-6.609375 3.890625 -15.71875 3.890625zm0.078125 -12.890625q4.140625 0 6.90625 -2.359375q2.78125 -2.375 4.203125 -6.46875q1.4375 -4.109375 1.4375 -9.34375q0 -5.234375 -1.4375 -9.328125q-1.421875 -4.109375 -4.203125 -6.484375q-2.765625 -2.390625 -6.90625 -2.390625q-4.171875 0 -7.015625 2.390625q-2.828125 2.375 -4.25 6.484375q-1.421875 4.09375 -1.421875 9.328125q0 5.234375 1.421875 9.34375q1.421875 4.09375 4.25 6.46875q2.84375 2.359375 7.015625 2.359375zm56.953125 -22.96875l0 34.6875l-16.640625 0l0 -60.0l15.859375 0l0 10.578125l0.703125 0q2.0 -5.234375 6.6875 -8.296875q4.6875 -3.0625 11.359375 -3.0625q6.25 0 10.890625 2.734375q4.65625 2.734375 7.234375 7.796875q2.578125 5.046875 2.578125 12.046875l0 38.203125l-16.640625 0l0 -35.234375q0.046875 -5.515625 -2.8125 -8.609375q-2.84375 -3.109375 -7.84375 -3.109375q-3.359375 0 -5.921875 1.453125q-2.5625 1.4375 -3.984375 4.1875q-1.421875 2.75 -1.46875 6.625zm78.86719 35.859375q-9.09375 0 -15.71875 -3.890625q-6.625 -3.890625 -10.21875 -10.859375q-3.59375 -6.96875 -3.59375 -16.1875q0 -9.296875 3.59375 -16.265625q3.59375 -6.984375 10.21875 -10.859375q6.625 -3.890625 15.71875 -3.890625q9.109375 0 15.71875 3.890625q6.6250305 3.875 10.2187805 10.859375q3.59375 6.96875 3.59375 16.265625q0 9.21875 -3.59375 16.1875q-3.59375 6.96875 -10.2187805 10.859375q-6.609375 3.890625 -15.71875 3.890625zm0.078125 -12.890625q4.140625 0 6.90625 -2.359375q2.78125 -2.375 4.203125 -6.46875q1.4375 -4.109375 1.4375 -9.34375q0 -5.234375 -1.4375 -9.328125q-1.421875 -4.109375 -4.203125 -6.484375q-2.765625 -2.390625 -6.90625 -2.390625q-4.171875 0 -7.015625 2.390625q-2.828125 2.375 -4.25 6.484375q-1.421875 4.09375 -1.421875 9.328125q0 5.234375 1.421875 9.34375q1.421875 4.09375 4.25 6.46875q2.84375 2.359375 7.015625 2.359375zm40.31253 11.71875l0 -60.0l15.859375 0l0 10.578125l0.703125 0q1.875 -5.265625 6.25 -8.3125q4.375 -3.046875 10.46875 -3.046875q6.171875 0 10.5 3.0625q4.34375 3.0625 5.796875 8.296875l0.625 0q1.828125 -5.15625 6.65625 -8.25q4.828125 -3.109375 11.421875 -3.109375q8.40625 0 13.65625 5.328125q5.25 5.328125 5.25 15.09375l0 40.359375l-16.59375 0l0 -37.078125q0 -5.0 -2.65625 -7.5q-2.65625 -2.5 -6.640625 -2.5q-4.53125 0 -7.078125 2.875q-2.53125 2.875 -2.53125 7.5625l0 36.640625l-16.140625 0l0 -37.421875q0 -4.421875 -2.515625 -7.03125q-2.515625 -2.625 -6.625 -2.625q-2.765625 0 -4.984375 1.390625q-2.203125 1.390625 -3.5 3.875q-1.28125 2.46875 -1.28125 5.796875l0 36.015625l-16.640625 0zm100.3125 0l0 -60.0l16.640625 0l0 60.0l-16.640625 0zm8.359375 -67.734375q-3.703125 0 -6.34375 -2.484375q-2.640625 -2.484375 -2.640625 -5.953125q0 -3.4375 2.640625 -5.921875q2.640625 -2.484375 6.34375 -2.484375q3.71875 0 6.34375 2.484375q2.640625 2.484375 2.640625 5.921875q0 3.46875 -2.640625 5.953125q-2.625 2.484375 -6.34375 2.484375zm48.671875 68.90625q-9.21875 0 -15.84375 -3.921875q-6.609375 -3.9375 -10.15625 -10.921875q-3.53125 -7.0 -3.53125 -16.09375q0 -9.21875 3.578125 -16.1875q3.578125 -6.984375 10.171875 -10.90625q6.609375 -3.921875 15.703125 -3.921875q7.859375 0 13.75 2.859375q5.90625 2.84375 9.34375 8.0q3.4375 5.15625 3.78125 12.109375l-15.703125 0q-0.65625 -4.5 -3.5 -7.25q-2.828125 -2.75 -7.390625 -2.75q-3.875 0 -6.75 2.09375q-2.859375 2.078125 -4.46875 6.0625q-1.59375 3.984375 -1.59375 9.65625q0 5.734375 1.578125 9.765625q1.578125 4.015625 4.46875 6.125q2.890625 2.109375 6.765625 2.109375q2.84375 0 5.125 -1.171875q2.296875 -1.171875 3.796875 -3.40625q1.5 -2.25 1.96875 -5.421875l15.703125 0q-0.390625 6.875 -3.734375 12.09375q-3.328125 5.21875 -9.1875 8.15625q-5.859375 2.921875 -13.875 2.921875zm87.421875 -44.0625l-15.234375 0.9375q-0.390625 -1.953125 -1.6875 -3.53125q-1.28125 -1.59375 -3.375 -2.546875q-2.078125 -0.953125 -4.96875 -0.953125q-3.875 0 -6.53125 1.625q-2.65625 1.609375 -2.65625 4.3125q0 2.140625 1.71875 3.625q1.71875 1.484375 5.90625 2.390625l10.859375 2.1875q8.75 1.796875 13.046875 5.78125q4.296875 3.984375 4.296875 10.46875q0 5.890625 -3.46875 10.34375q-3.453125 4.453125 -9.453125 6.9375q-5.984375 2.484375 -13.796875 2.484375q-11.921875 0 -18.96875 -4.984375q-7.046875 -4.984375 -8.265625 -13.578125l16.375 -0.859375q0.734375 3.640625 3.578125 5.53125q2.859375 1.890625 7.3125 1.890625q4.375 0 7.046875 -1.6875q2.6875 -1.703125 2.71875 -4.40625q-0.03125 -2.265625 -1.90625 -3.71875q-1.875 -1.46875 -5.78125 -2.25l-10.390625 -2.078125q-8.796875 -1.75 -13.078125 -6.078125q-4.265625 -4.34375 -4.265625 -11.0625q0 -5.78125 3.140625 -9.953125q3.140625 -4.1875 8.859375 -6.453125q5.734375 -2.265625 13.421875 -2.265625q11.375 0 17.90625 4.8125q6.546875 4.796875 7.640625 13.078125z" fill-rule="nonzero"/><path fill="#000000" fill-opacity="0.0" d="m937.6811 424.3114l706.0788 0l0 152.72443l-706.0788 0z" fill-rule="evenodd"/><path fill="#ffffff" d="m1114.654 481.91138q-0.46875 -4.71875 -4.03125 -7.328125q-3.546875 -2.625 -9.640625 -2.625q-4.140625 0 -7.0 1.15625q-2.84375 1.140625 -4.359375 3.171875q-1.5 2.03125 -1.5 4.609375q-0.078125 2.15625 0.921875 3.765625q1.0 1.59375 2.75 2.75q1.765625 1.140625 4.0625 1.984375q2.3125 0.84375 4.921875 1.421875l7.1875 1.71875q5.234375 1.171875 9.609375 3.125q4.375 1.953125 7.578125 4.8125q3.203125 2.84375 4.984375 6.71875q1.78125 3.859375 1.8125 8.859375q-0.03125 7.34375 -3.734375 12.71875q-3.6875 5.375 -10.625 8.328125q-6.921875 2.953125 -16.6875 2.953125q-9.6875 0 -16.859375 -2.96875q-7.171875 -2.984375 -11.171875 -8.8125q-4.0 -5.84375 -4.203125 -14.484375l16.375 0q0.265625 4.03125 2.3125 6.703125q2.0625 2.671875 5.515625 4.03125q3.453125 1.34375 7.828125 1.34375q4.296875 0 7.484375 -1.25q3.1875 -1.25 4.9375 -3.46875q1.765625 -2.234375 1.765625 -5.125q0 -2.703125 -1.59375 -4.53125q-1.578125 -1.84375 -4.609375 -3.125q-3.015625 -1.296875 -7.390625 -2.34375l-8.71875 -2.1875q-10.109375 -2.46875 -15.96875 -7.703125q-5.859375 -5.234375 -5.828125 -14.09375q-0.03125 -7.265625 3.890625 -12.6875q3.921875 -5.4375 10.796875 -8.484375q6.875 -3.046875 15.625 -3.046875q8.90625 0 15.5625 3.046875q6.671875 3.046875 10.375 8.484375q3.71875 5.421875 3.828125 12.5625l-16.203125 0zm55.65625 58.171875q-9.25 0 -15.921875 -3.765625q-6.65625 -3.78125 -10.25 -10.703125q-3.59375 -6.9375 -3.59375 -16.4375q0 -9.25 3.59375 -16.234375q3.59375 -7.0 10.140625 -10.90625q6.546875 -3.90625 15.375 -3.90625q5.9375 0 11.0625 1.890625q5.140625 1.890625 8.984375 5.6875q3.859375 3.78125 6.0 9.515625q2.15625 5.71875 2.15625 13.375l0 4.5625l-50.671875 0l0 -10.3125l35.0 0q0 -3.59375 -1.5625 -6.359375q-1.5625 -2.78125 -4.3125 -4.359375q-2.75 -1.578125 -6.390625 -1.578125q-3.78125 0 -6.703125 1.734375q-2.90625 1.734375 -4.546875 4.65625q-1.640625 2.90625 -1.671875 6.453125l0 9.8125q0 4.453125 1.65625 7.703125q1.65625 3.234375 4.703125 5.0q3.046875 1.75 7.234375 1.75q2.765625 0 5.0625 -0.78125q2.3125 -0.78125 3.953125 -2.34375q1.640625 -1.5625 2.5 -3.828125l15.390625 1.015625q-1.171875 5.546875 -4.78125 9.671875q-3.609375 4.109375 -9.296875 6.40625q-5.6875 2.28125 -13.109375 2.28125zm65.50781 0q-9.21875 0 -15.84375 -3.921875q-6.609375 -3.9375 -10.15625 -10.921875q-3.53125 -7.0 -3.53125 -16.09375q0 -9.21875 3.578125 -16.1875q3.578125 -6.984375 10.171875 -10.90625q6.609375 -3.921875 15.703125 -3.921875q7.859375 0 13.75 2.859375q5.90625 2.84375 9.34375 8.0q3.4375 5.15625 3.78125 12.109375l-15.703125 0q-0.65625 -4.5 -3.5 -7.25q-2.828125 -2.75 -7.390625 -2.75q-3.875 0 -6.75 2.09375q-2.859375 2.078125 -4.46875 6.0625q-1.59375 3.984375 -1.59375 9.65625q0 5.734375 1.578125 9.765625q1.578125 4.015625 4.46875 6.125q2.890625 2.109375 6.765625 2.109375q2.84375 0 5.125 -1.171875q2.296875 -1.171875 3.796875 -3.40625q1.5 -2.25 1.96875 -5.421875l15.703125 0q-0.390625 6.875 -3.734375 12.09375q-3.328125 5.21875 -9.1875 8.15625q-5.859375 2.921875 -13.875 2.921875zm75.984375 -26.71875l0 -34.453125l16.640625 0l0 60.0l-15.984375 0l0 -10.90625l-0.625 0q-2.03125 5.28125 -6.734375 8.484375q-4.703125 3.203125 -11.46875 3.203125q-6.015625 0 -10.59375 -2.734375q-4.5625 -2.734375 -7.125 -7.765625q-2.546875 -5.046875 -2.59375 -12.078125l0 -38.203125l16.640625 0l0 35.234375q0.046875 5.3125 2.859375 8.40625q2.8125 3.078125 7.53125 3.078125q3.015625 0 5.625 -1.390625q2.625 -1.390625 4.234375 -4.125q1.625 -2.734375 1.59375 -6.75zm29.914062 25.546875l0 -60.0l16.140625 0l0 10.46875l0.625 0q1.640625 -5.59375 5.5 -8.453125q3.875 -2.875 8.90625 -2.875q1.25 0 2.6875 0.15625q1.453125 0.15625 2.546875 0.421875l0 14.765625q-1.171875 -0.34375 -3.25 -0.609375q-2.0625 -0.28125 -3.78125 -0.28125q-3.671875 0 -6.546875 1.578125q-2.859375 1.578125 -4.53125 4.390625q-1.65625 2.8125 -1.65625 6.484375l0 33.953125l-16.640625 0zm44.960938 0l0 -60.0l16.640625 0l0 60.0l-16.640625 0zm8.359375 -67.734375q-3.703125 0 -6.34375 -2.484375q-2.640625 -2.484375 -2.640625 -5.953125q0 -3.4375 2.640625 -5.921875q2.640625 -2.484375 6.34375 -2.484375q3.71875 0 6.34375 2.484375q2.640625 2.484375 2.640625 5.921875q0 3.46875 -2.640625 5.953125q-2.625 2.484375 -6.34375 2.484375zm53.484375 7.734375l0 12.5l-36.140625 0l0 -12.5l36.140625 0zm-27.9375 -14.375l16.640625 0l0 55.9375q0 2.296875 0.703125 3.578125q0.703125 1.265625 1.96875 1.78125q1.28125 0.5 2.953125 0.5q1.171875 0 2.34375 -0.21875q1.171875 -0.21875 1.796875 -0.328125l2.625 12.375q-1.25 0.390625 -3.515625 0.921875q-2.265625 0.53125 -5.515625 0.65625q-6.015625 0.234375 -10.53125 -1.609375q-4.5 -1.84375 -7.0 -5.703125q-2.5 -3.875 -2.46875 -9.765625l0 -58.125zm49.03125 96.875q-3.171875 0 -5.921875 -0.484375q-2.75 -0.484375 -4.546875 -1.234375l3.75 -12.421875q2.921875 0.90625 5.28125 0.984375q2.375 0.078125 4.109375 -1.09375q1.734375 -1.171875 2.828125 -3.984375l0.984375 -2.546875l-21.53125 -61.71875l17.5 0l12.421875 44.0625l0.625 0l12.546875 -44.0625l17.609375 0l-23.3125 66.484375q-1.6875 4.84375 -4.5625 8.453125q-2.859375 3.625 -7.234375 5.59375q-4.375 1.96875 -10.546875 1.96875z" fill-rule="nonzero"/></g></svg>