<?xml version="1.0" encoding="utf-8"?>
<!-- Generator: Adobe Illustrator 24.0.3, SVG Export Plug-In . SVG Version: 6.00 Build 0)  -->
<svg version="1.1" id="Layer_1" xmlns="http://www.w3.org/2000/svg" xmlns:xlink="http://www.w3.org/1999/xlink" x="0px" y="0px"
	 viewBox="0 0 500 500" style="enable-background:new 0 0 500 500;" xml:space="preserve">
<style type="text/css">
	.st0{fill:none;stroke:#B7B8BB;stroke-width:2;stroke-miterlimit:10;}
	.st1{fill:#B7B8BB;}
	.st2{fill:none;stroke:#E6007A;stroke-width:0.25;stroke-miterlimit:10;}
	.st3{fill:#FFFFFF;}
	.st4{fill:#E6007A;}
</style>
<title>hiress_Artboard 1 copy 8</title>
<polyline class="st0" points="390.1,121.3 250,199.1 109.9,121.3 168.8,62 250,40.4 331.2,62 390.1,121.3 301.6,332 198.4,332 
	109.9,121.3 "/>
<path class="st1" d="M234.1,299c0-8.8,7.1-15.9,15.9-15.9c8.7,0,15.9,7.1,15.9,15.9v66c0,8.8-7.1,15.9-15.9,15.9
	c-8.7,0-15.9-7.1-15.9-15.9V299z"/>
<path class="st1" d="M285.7,299c0-8.8,7.1-15.9,15.9-15.9c8.7,0,15.9,7.1,15.9,15.9v66c0,8.8-7.1,15.9-15.9,15.9
	c-8.7,0-15.9-7.1-15.9-15.9V299z"/>
<path class="st1" d="M182.5,299c0-8.8,7.1-15.9,15.9-15.9c8.7,0,15.9,7.1,15.9,15.9v66c0,8.8-7.1,15.9-15.9,15.9
	c-8.7,0-15.9-7.1-15.9-15.9V299z"/>
<polyline class="st0" points="331.2,62 250,199.1 168.8,62 "/>
<circle class="st1" cx="169.1" cy="62" r="16.6"/>
<circle class="st1" cx="109.9" cy="121.3" r="16.6"/>
<circle class="st1" cx="390.1" cy="121.3" r="16.6"/>
<circle class="st1" cx="330.9" cy="62" r="16.6"/>
<g>
	<line class="st2" x1="0" y1="0" x2="500" y2="0"/>
</g>
<line class="st0" x1="250" y1="40.4" x2="250" y2="452.4"/>
<g>
	<g>
		<path class="st1" d="M201.1,166c0-8.8,7.1-15.9,15.9-15.9c8.7,0,15.9,7.1,15.9,15.9v66c0,8.8-7.1,15.9-15.9,15.9
			c-8.7,0-15.9-7.1-15.9-15.9V166z"/>
		<path class="st1" d="M267.1,166c0-8.8,7.1-15.9,15.9-15.9c8.7,0,15.9,7.1,15.9,15.9v66c0,8.8-7.1,15.9-15.9,15.9
			c-8.7,0-15.9-7.1-15.9-15.9V166z"/>
		<path class="st1" d="M217,181.9c-8.8,0-15.9-7.1-15.9-15.9c0-8.7,7.1-15.9,15.9-15.9h66c8.8,0,15.9,7.1,15.9,15.9
			c0,8.7-7.1,15.9-15.9,15.9H217z"/>
		<path class="st1" d="M217,248c-8.8,0-15.9-7.1-15.9-15.9c0-8.7,7.1-15.9,15.9-15.9h66c8.8,0,15.9,7.1,15.9,15.9
			c0,8.7-7.1,15.9-15.9,15.9H217z"/>
	</g>
	<path class="st3" d="M241.9,175.2h16.3c8.7,0,15.7,7,15.7,15.7v16.3c0,8.7-7,15.7-15.7,15.7h-16.3c-8.7,0-15.7-7-15.7-15.7v-16.3
		C226.2,182.2,233.2,175.2,241.9,175.2z"/>
</g>
<circle class="st1" cx="250" cy="40.4" r="16.6"/>
<rect y="404.8" class="st4" width="500" height="95.2"/>
<path class="st3" d="M241.9,428.5h16.3c8.7,0,15.7,7,15.7,15.7v16.3c0,8.7-7,15.7-15.7,15.7h-16.3c-8.7,0-15.7-7-15.7-15.7v-16.3
	C226.2,435.5,233.2,428.5,241.9,428.5z"/>
<path class="st3" d="M101.7,428.5H118c8.7,0,15.7,7,15.7,15.7v16.3c0,8.7-7,15.7-15.7,15.7h-16.3c-8.7,0-15.7-7-15.7-15.7v-16.3
	C86.1,435.5,93.1,428.5,101.7,428.5z"/>
<path class="st3" d="M382,428.5h16.3c8.7,0,15.7,7,15.7,15.7v16.3c0,8.7-7,15.7-15.7,15.7H382c-8.7,0-15.7-7-15.7-15.7v-16.3
	C366.3,435.5,373.3,428.5,382,428.5z"/>
</svg>
