<?xml version="1.0" encoding="utf-8"?>
<!-- Generator: Adobe Illustrator 24.0.3, SVG Export Plug-In . SVG Version: 6.00 Build 0)  -->
<svg version="1.1" id="Layer_1" xmlns="http://www.w3.org/2000/svg" xmlns:xlink="http://www.w3.org/1999/xlink" x="0px" y="0px"
	 viewBox="0 0 500 500" style="enable-background:new 0 0 500 500;" xml:space="preserve">
<style type="text/css">
	.st0{fill:#B7B8BB;}
	.st1{fill:none;stroke:#B7B8BB;stroke-width:2;stroke-miterlimit:10;}
	.st2{fill:#E6007A;}
</style>
<title>hiress_Artboard 1 copy 6</title>
<g>
	<g>
		<path class="st0" d="M117,351.1c0-10.2,8.2-18.4,18.4-18.4s18.4,8.2,18.4,18.4l0,0v76.4c0,10.2-8.2,18.4-18.4,18.4
			c-10.1,0-18.4-8.2-18.4-18.4C117,427.5,117,351.1,117,351.1z"/>
		<path class="st0" d="M346.2,351.1c0-10.2,8.2-18.4,18.4-18.4S383,341,383,351.1v76.4c0,10.2-8.2,18.4-18.4,18.4
			s-18.4-8.2-18.4-18.4l0,0V351.1z"/>
		<path class="st0" d="M174.3,351.1c0-10.2,8.2-18.4,18.4-18.4c10.1,0,18.4,8.2,18.4,18.4v76.4c0,10.2-8.2,18.4-18.4,18.4
			c-10.1,0-18.4-8.2-18.4-18.4V351.1z"/>
		<path class="st0" d="M231.6,351.1c0-10.2,8.2-18.4,18.4-18.4c10.1,0,18.4,8.2,18.4,18.4v76.4c0,10.2-8.2,18.4-18.4,18.4
			c-10.1,0-18.4-8.2-18.4-18.4V351.1z"/>
		<path class="st0" d="M288.9,351.1c-0.2-10.1,7.8-18.6,17.9-18.8c10.1-0.2,18.6,7.8,18.8,17.9c0,0.3,0,0.6,0,0.9v76.4
			c-0.2,10.1-8.7,18.2-18.8,17.9c-9.8-0.2-17.7-8.1-17.9-17.9V351.1z"/>
		<line class="st1" x1="135.4" y1="389.3" x2="364.6" y2="389.3"/>
		<line class="st1" x1="250" y1="500" x2="250" y2="389.3"/>
		<polygon class="st1" points="290.1,137.8 250,84 211.2,137.8 250,250.3 		"/>
		<circle class="st0" cx="211.2" cy="137.8" r="18.4"/>
		<circle class="st0" cx="288.8" cy="137.8" r="18.4"/>
		<polygon class="st1" points="147,137.8 108.2,84 69.4,137.8 108.2,250.3 		"/>
		<circle class="st0" cx="69.4" cy="137.8" r="18.4"/>
		<circle class="st0" cx="147" cy="137.8" r="18.4"/>
		<polygon class="st1" points="430.6,137.8 391.8,84 353,137.8 391.8,250.3 		"/>
		<circle class="st0" cx="353" cy="137.8" r="18.4"/>
		<circle class="st0" cx="430.6" cy="137.8" r="18.4"/>
		<circle class="st0" cx="250" cy="84" r="18.4"/>
		<circle class="st0" cx="391.8" cy="84" r="18.4"/>
		<circle class="st0" cx="108.2" cy="84" r="18.4"/>
		<line class="st1" x1="108.2" y1="84" x2="108.2" y2="250.3"/>
		<line class="st1" x1="250" y1="84" x2="250" y2="250.3"/>
		<line class="st1" x1="391.8" y1="84" x2="391.8" y2="250.3"/>
	</g>
</g>
<path class="st2" d="M193.4,212v76.4c0,10.2,8.2,18.4,18.4,18.4l0,0h76.4c10.2,0,18.4-8.2,18.4-18.4l0,0V212
	c0-10.2-8.2-18.4-18.4-18.4l0,0h-76.4C201.6,193.6,193.4,201.8,193.4,212L193.4,212z"/>
<path class="st0" d="M335.2,212v76.4c0,10.2,8.2,18.4,18.4,18.4l0,0H430c10.2,0,18.4-8.2,18.4-18.4l0,0V212
	c0-10.1-8.2-18.4-18.4-18.4h-76.4C343.5,193.6,335.2,201.9,335.2,212z"/>
<path class="st0" d="M51.6,212v76.4c0,10.2,8.2,18.4,18.4,18.4l0,0h76.4c10.2,0,18.4-8.2,18.4-18.4l0,0V212
	c0-10.2-8.2-18.4-18.4-18.4l0,0H70C59.8,193.6,51.6,201.8,51.6,212L51.6,212z"/>
</svg>
