<?xml version="1.0" encoding="utf-8"?>
<!-- Generator: Adobe Illustrator 24.0.3, SVG Export Plug-In . SVG Version: 6.00 Build 0)  -->
<svg version="1.1" id="Layer_1" xmlns="http://www.w3.org/2000/svg" xmlns:xlink="http://www.w3.org/1999/xlink" x="0px" y="0px"
	 viewBox="0 0 500 500" style="enable-background:new 0 0 500 500;" xml:space="preserve">
<style type="text/css">
	.st0{fill:none;stroke:#6D7278;stroke-width:2;stroke-miterlimit:10;}
	.st1{fill:none;stroke:#B7B8BB;stroke-width:2;stroke-miterlimit:10;}
	.st2{fill:#B7B8BB;}
	.st3{fill:#3D3D3D;}
	.st4{fill:#E6007A;}
	.st5{fill:#FFFFFF;}
	.st6{enable-background:new    ;}
</style>
<title>hiress_Artboard 1 copy 3</title>
<g>
	<g>
		<polygon class="st0" points="422.7,250 250,399.1 77.3,250 163.6,250 250,250 336.4,250 		"/>
		<polyline class="st1" points="163.6,250 250,399.1 336.4,250 		"/>
		<polygon class="st1" points="422.7,250 250,399.1 77.3,250 163.6,250 250,250 336.4,250 		"/>
		<polygon class="st1" points="422.7,250 250,101.3 77.3,250 163.6,250 250,250 336.4,250 		"/>
		<polyline class="st1" points="163.6,250 250,101.3 336.4,250 		"/>
		<line class="st1" x1="169.8" y1="500.1" x2="77.3" y2="250"/>
		<line class="st1" x1="422.7" y1="250" x2="330.2" y2="500"/>
		<line class="st1" x1="250" y1="500.1" x2="250" y2="0"/>
		<circle class="st2" cx="77.3" cy="250" r="18.4"/>
		<circle class="st2" cx="163.6" cy="250" r="18.4"/>
		<circle class="st2" cx="336.4" cy="250" r="18.4"/>
		<circle class="st2" cx="250" cy="250" r="18.4"/>
		<circle class="st2" cx="422.7" cy="250" r="18.4"/>
	</g>
</g>
<path class="st3" d="M193.4,73.1v76.4c0,10.2,8.2,18.4,18.4,18.4l0,0h76.4c10.2,0,18.4-8.2,18.4-18.4l0,0V73.1
	c0-10.2-8.2-18.4-18.4-18.4l0,0h-76.4C201.6,54.8,193.4,63,193.4,73.1L193.4,73.1z"/>
<path class="st4" d="M193.4,389.1v38.2c0,10.1,8.2,18.4,18.4,18.4l0,0h76.4c10.1,0,18.4-8.2,18.4-18.4l0,0v-38.2H193.4z"/>
<path class="st4" d="M306.6,389.1v-38.2c0-10.1-8.2-18.4-18.4-18.4l0,0h-76.4c-10.1,0-18.4,8.2-18.4,18.4l0,0v38.2H306.6z"/>
<path class="st5" d="M240.5,361.2h19.1c10.2,0,18.4,8.2,18.4,18.4v19.1c0,10.2-8.2,18.4-18.4,18.4h-19.1c-10.2,0-18.4-8.2-18.4-18.4
	v-19.1C222.1,369.4,230.3,361.2,240.5,361.2z"/>
<g class="st6">
	<g>
		<path class="st5" d="M250,123.9L250,123.9l20.3-12L250,78.3l-20.2,33.6l0,0L250,123.9L250,123.9z M250,127.7l-20.3-12l20.3,28.5
			l20.3-28.5L250,127.7z"/>
	</g>
</g>
</svg>
