<?xml version="1.0" encoding="utf-8"?>
<!-- Generator: Adobe Illustrator 24.0.3, SVG Export Plug-In . SVG Version: 6.00 Build 0)  -->
<svg version="1.1" id="Layer_1" xmlns="http://www.w3.org/2000/svg" xmlns:xlink="http://www.w3.org/1999/xlink" x="0px" y="0px"
	 viewBox="0 0 500 500" style="enable-background:new 0 0 500 500;" xml:space="preserve">
<style type="text/css">
	.st0{fill:none;stroke:#B7B8BB;stroke-width:2;stroke-miterlimit:10;}
	.st1{fill:#B7B8BB;}
	.st2{fill:#E6007A;}
	.st3{fill:#FFFFFF;}
</style>
<title>hiress_Artboard 1 copy 4</title>
<g>
	<g>
		<polyline class="st0" points="96.3,161.2 192.7,389.3 307.3,389.3 403.7,161.2 338.8,96.3 250,72.5 161.2,96.3 96.3,161.2 		"/>
		<line class="st0" x1="250" y1="500" x2="250" y2="72.5"/>
		<circle class="st1" cx="250" cy="72.5" r="18.4"/>
		<path class="st2" d="M174.3,351.1c0-10.2,8.2-18.4,18.4-18.4c10.1,0,18.4,8.2,18.4,18.4v76.4c0,10.2-8.2,18.4-18.4,18.4
			c-10.1,0-18.4-8.2-18.4-18.4V351.1z"/>
		<path class="st2" d="M231.6,351.1c0-10.2,8.2-18.4,18.4-18.4c10.1,0,18.4,8.2,18.4,18.4v76.4c0,10.2-8.2,18.4-18.4,18.4
			c-10.1,0-18.4-8.2-18.4-18.4V351.1z"/>
		<path class="st2" d="M288.9,351.1c-0.2-10.1,7.8-18.6,17.9-18.8c10.1-0.2,18.6,7.8,18.8,17.9c0,0.3,0,0.6,0,0.9v76.4
			c-0.2,10.1-8.7,18.2-18.8,17.9c-9.8-0.2-17.7-8.1-17.9-17.9V351.1z"/>
		<polyline class="st0" points="403.7,161.2 250,250 96.3,161.2 		"/>
		<circle class="st1" cx="250" cy="72.5" r="18.4"/>
		<circle class="st1" cx="96.3" cy="161.2" r="18.4"/>
		<circle class="st1" cx="403.7" cy="161.2" r="18.4"/>
		<polyline class="st0" points="338.8,96.3 250,250 161.2,96.3 		"/>
		<circle class="st1" cx="161.2" cy="96.3" r="18.4"/>
		<ellipse class="st1" cx="338.8" cy="96.3" rx="18.4" ry="18.4"/>
		<path class="st1" d="M193.4,212v76.4c0,10.2,8.2,18.4,18.4,18.4l0,0h76.4c10.2,0,18.4-8.2,18.4-18.4l0,0V212
			c0-10.2-8.2-18.4-18.4-18.4l0,0h-76.4C201.6,193.6,193.4,201.8,193.4,212L193.4,212z"/>
		<path class="st3" d="M240.5,222.3h19.1c10.2,0,18.4,8.2,18.4,18.4v19.1c0,10.2-8.2,18.4-18.4,18.4h-19.1
			c-10.2,0-18.4-8.2-18.4-18.4v-19.1C222.1,230.5,230.3,222.3,240.5,222.3z"/>
	</g>
</g>
</svg>
