<svg version="1.2" xmlns="http://www.w3.org/2000/svg" viewBox="0 0 441 441" width="441" height="441">
	<title>kusama-logo-svg</title>
	<style>
		.s0 { fill: #ffffff } 
	</style>
	<g id="Layer_2">
		<g id="Layer_1-2">
			<path id="Layer" class="s0" d="m393.8 144.6c0 0-20 7.5-24.5 10.9-4.5 3.4-9.9 9.1-14.3 19.8-3.5 8.3-9.7 26-13.9 34.9-4.2 8.9-11 20.3-40.7 35.7-25.2 13-37.4 18-40.9 27.1q-1.3 3.4-1.7 7-0.4 3.6 0.1 7.2 0.6 3.6 2 7 1.5 3.3 3.7 6.2c4.9 6 14.9 17 25 19.8 10.1 2.8 12.5 7.5 10.9 7q-2.4-0.7-4.8-1.2-2.4-0.5-4.9-0.9-2.4-0.4-4.9-0.7-2.4-0.2-4.9-0.3c-10.4-0.3-21.6 3.1-21.6 3.1 0-3.9 7.6-7 7.6-7 0 0-0.3-5.3-14.9-14.9q-3.2-2.1-5.8-4.8-2.7-2.7-4.7-5.9-2-3.2-3.2-6.8-1.3-3.5-1.7-7.3c0 0-24.2-1.6-25.5-1.6l15-4.4c-24.6-13-152 37.2-152 37.2v-3.3c-11.4 7.2-25 3.6-25 3.6l15.4-11.7h-10.7l107-55.1-24-0.3c0 0 92.2-59.2 115.7-73.3 23.5-14.1 38.1-18 43.8-22.2 5.7-4.2 19.5-18 26.8-22.7 7.3-4.7 18.1-11.8 28.7-10.4 11.3 1.4 17.5 7 22.7 11.1 4.9 3.9 20.2 17.2 20.2 17.2z"/>
		</g>
	</g>
</svg>