<svg version="1.1" viewBox="0.0 0.0 873.7637795275591 576.7664041994751" fill="none" stroke="none" stroke-linecap="square" stroke-miterlimit="10" xmlns:xlink="http://www.w3.org/1999/xlink" xmlns="http://www.w3.org/2000/svg"><clipPath id="p.0"><path d="m0 0l873.7638 0l0 576.7664l-873.7638 0l0 -576.7664z" clip-rule="nonzero"/></clipPath><g clip-path="url(#p.0)"><path fill="#000000" fill-opacity="0.0" d="m0 0l873.7638 0l0 576.7664l-873.7638 0z" fill-rule="evenodd"/><path fill="#e6007a" d="m214.16136 472.9541l209.54332 -362.42517l209.5433 362.42517z" fill-rule="evenodd"/><path stroke="#ffffff" stroke-width="1.0" stroke-linejoin="round" stroke-linecap="butt" d="m214.16136 472.9541l209.54332 -362.42517l209.5433 362.42517z" fill-rule="evenodd"/><path fill="#000000" fill-opacity="0.0" d="m3.371391 522.5289l187.77954 0l0 40.0l-187.77954 0z" fill-rule="evenodd"/><path fill="#ffffff" d="m33.237267 536.21014q-0.171875 -1.71875 -1.46875 -2.671875q-1.296875 -0.953125 -3.5 -0.953125q-1.515625 0 -2.546875 0.421875q-1.03125 0.40625 -1.578125 1.15625q-0.546875 0.734375 -0.546875 1.671875q-0.03125 0.78125 0.328125 1.375q0.359375 0.578125 1.0 1.0q0.640625 0.40625 1.46875 0.71875q0.84375 0.296875 1.796875 0.515625l2.609375 0.625q1.90625 0.421875 3.5 1.140625q1.59375 0.703125 2.75 1.75q1.171875 1.03125 1.8125 2.4375q0.65625 1.40625 0.671875 3.21875q-0.015625 2.671875 -1.359375 4.625q-1.34375 1.953125 -3.875 3.03125q-2.515625 1.0625 -6.0625 1.0625q-3.53125 0 -6.140625 -1.078125q-2.59375 -1.078125 -4.0625 -3.203125q-1.453125 -2.125 -1.515625 -5.265625l5.953125 0q0.09375 1.46875 0.84375 2.453125q0.75 0.96875 2.0 1.453125q1.25 0.484375 2.84375 0.484375q1.5625 0 2.71875 -0.453125q1.15625 -0.453125 1.796875 -1.25q0.640625 -0.8125 0.640625 -1.875q0 -0.96875 -0.578125 -1.640625q-0.5625 -0.671875 -1.671875 -1.140625q-1.09375 -0.46875 -2.6875 -0.84375l-3.171875 -0.796875q-3.671875 -0.90625 -5.8125 -2.796875q-2.125 -1.90625 -2.109375 -5.140625q-0.015625 -2.640625 1.40625 -4.609375q1.4375 -1.96875 3.9375 -3.078125q2.5 -1.109375 5.671875 -1.109375q3.25 0 5.671875 1.109375q2.421875 1.109375 3.765625 3.078125q1.34375 1.96875 1.390625 4.578125l-5.890625 0zm20.239975 21.140625q-3.375 0 -5.796875 -1.359375q-2.421875 -1.375 -3.734375 -3.890625q-1.296875 -2.53125 -1.296875 -5.984375q0 -3.359375 1.296875 -5.90625q1.3125 -2.546875 3.6875 -3.96875q2.390625 -1.421875 5.59375 -1.421875q2.171875 0 4.03125 0.703125q1.875 0.6875 3.265625 2.0625q1.40625 1.375 2.1875 3.453125q0.78125 2.078125 0.78125 4.875l0 1.65625l-18.421875 0l0 -3.75l12.71875 0q0 -1.3125 -0.5625 -2.3125q-0.5625 -1.015625 -1.578125 -1.578125q-1.0 -0.578125 -2.3125 -0.578125q-1.375 0 -2.4375 0.625q-1.0625 0.625 -1.65625 1.6875q-0.59375 1.0625 -0.609375 2.359375l0 3.5625q0 1.609375 0.59375 2.796875q0.609375 1.171875 1.71875 1.8125q1.109375 0.640625 2.625 0.640625q1.015625 0 1.84375 -0.28125q0.84375 -0.28125 1.4375 -0.84375q0.59375 -0.578125 0.90625 -1.40625l5.609375 0.375q-0.4375 2.015625 -1.75 3.515625q-1.3125 1.5 -3.375 2.328125q-2.0625 0.828125 -4.765625 0.828125zm23.812424 0q-3.34375 0 -5.75 -1.421875q-2.40625 -1.421875 -3.703125 -3.96875q-1.28125 -2.546875 -1.28125 -5.859375q0 -3.34375 1.296875 -5.875q1.3125 -2.546875 3.703125 -3.96875q2.40625 -1.4375 5.71875 -1.4375q2.84375 0 4.984375 1.046875q2.15625 1.03125 3.40625 2.90625q1.25 1.875 1.375 4.40625l-5.703125 0q-0.25 -1.640625 -1.28125 -2.640625q-1.03125 -1.0 -2.6875 -1.0q-1.40625 0 -2.453125 0.765625q-1.046875 0.765625 -1.625 2.21875q-0.578125 1.4375 -0.578125 3.5q0 2.078125 0.5625 3.546875q0.578125 1.46875 1.625 2.234375q1.0625 0.765625 2.46875 0.765625q1.03125 0 1.859375 -0.421875q0.84375 -0.4375 1.390625 -1.25q0.546875 -0.8125 0.71875 -1.96875l5.703125 0q-0.140625 2.5 -1.359375 4.40625q-1.203125 1.890625 -3.34375 2.953125q-2.125 1.0625 -5.046875 1.0625zm27.634872 -9.71875l0 -12.515625l6.046875 0l0 21.8125l-5.8125 0l0 -3.96875l-0.21875 0q-0.734375 1.921875 -2.453125 3.09375q-1.703125 1.15625 -4.171875 1.15625q-2.1875 0 -3.84375 -0.984375q-1.65625 -1.0 -2.59375 -2.828125q-0.9375 -1.84375 -0.9375 -4.390625l0 -13.890625l6.046875 0l0 12.8125q0.015625 1.921875 1.03125 3.046875q1.03125 1.125 2.75 1.125q1.09375 0 2.03125 -0.5q0.953125 -0.515625 1.546875 -1.5q0.59375 -1.0 0.578125 -2.46875zm10.887711 9.296875l0 -21.8125l5.859375 0l0 3.796875l0.234375 0q0.59375 -2.03125 2.0 -3.0625q1.40625 -1.046875 3.234375 -1.046875q0.453125 0 0.9687424 0.0625q0.53125 0.046875 0.9375 0.140625l0 5.375q-0.421875 -0.125 -1.1874924 -0.21875q-0.75 -0.109375 -1.375 -0.109375q-1.328125 0 -2.375 0.578125q-1.046875 0.578125 -1.65625 1.609375q-0.59375 1.015625 -0.59375 2.34375l0 12.34375l-6.046875 0zm16.349373 0l0 -21.8125l6.046875 0l0 21.8125l-6.046875 0zm3.03125 -24.625q-1.34375 0 -2.3125 -0.90625q-0.953125 -0.90625 -0.953125 -2.171875q0 -1.25 0.953125 -2.140625q0.96875 -0.90625 2.3125 -0.90625q1.34375 0 2.296875 0.90625q0.96875 0.890625 0.96875 2.140625q0 1.265625 -0.96875 2.171875q-0.953125 0.90625 -2.296875 0.90625zm19.443146 2.8125l0 4.546875l-13.140625 0l0 -4.546875l13.140625 0zm-10.15625 -5.234375l6.0625 0l0 20.34375q0 0.84375 0.25 1.3125q0.25 0.453125 0.703125 0.640625q0.46875 0.171875 1.078125 0.171875q0.4375 0 0.859375 -0.078125q0.421875 -0.078125 0.65625 -0.109375l0.953125 4.5q-0.453125 0.140625 -1.28125 0.328125q-0.828125 0.1875 -2.0 0.234375q-2.1875 0.09375 -3.828125 -0.578125q-1.640625 -0.671875 -2.5625 -2.078125q-0.90625 -1.40625 -0.890625 -3.546875l0 -21.140625zm17.836594 35.234375q-1.15625 0 -2.15625 -0.1875q-1.0 -0.171875 -1.65625 -0.4375l1.359375 -4.515625q1.0625 0.3125 1.921875 0.34375q0.859375 0.03125 1.484375 -0.390625q0.640625 -0.421875 1.046875 -1.453125l0.359375 -0.921875l-7.828125 -22.4375l6.359375 0l4.515625 16.015625l0.234375 0l4.546875 -16.015625l6.40625 0l-8.46875 24.171875q-0.609375 1.765625 -1.65625 3.078125q-1.046875 1.3125 -2.640625 2.03125q-1.59375 0.71875 -3.828125 0.71875z" fill-rule="nonzero"/><path fill="#000000" fill-opacity="0.0" d="m644.88055 522.5289l225.51184 0l0 40.0l-225.51184 0z" fill-rule="evenodd"/><path fill="#ffffff" d="m673.9394 536.21014q-0.171875 -1.71875 -1.46875 -2.671875q-1.296875 -0.953125 -3.5 -0.953125q-1.515625 0 -2.546875 0.421875q-1.03125 0.40625 -1.578125 1.15625q-0.546875 0.734375 -0.546875 1.671875q-0.03125 0.78125 0.328125 1.375q0.359375 0.578125 1.0 1.0q0.640625 0.40625 1.46875 0.71875q0.84375 0.296875 1.796875 0.515625l2.609375 0.625q1.90625 0.421875 3.5 1.140625q1.59375 0.703125 2.75 1.75q1.171875 1.03125 1.8125 2.4375q0.65625 1.40625 0.671875 3.21875q-0.015625 2.671875 -1.359375 4.625q-1.34375 1.953125 -3.875 3.03125q-2.515625 1.0625 -6.0625 1.0625q-3.53125 0 -6.140625 -1.078125q-2.59375 -1.078125 -4.0625 -3.203125q-1.453125 -2.125 -1.515625 -5.265625l5.953125 0q0.09375 1.46875 0.84375 2.453125q0.75 0.96875 2.0 1.453125q1.25 0.484375 2.84375 0.484375q1.5625 0 2.71875 -0.453125q1.15625 -0.453125 1.796875 -1.25q0.640625 -0.8125 0.640625 -1.875q0 -0.96875 -0.578125 -1.640625q-0.5625 -0.671875 -1.671875 -1.140625q-1.09375 -0.46875 -2.6875 -0.84375l-3.171875 -0.796875q-3.671875 -0.90625 -5.8125 -2.796875q-2.125 -1.90625 -2.109375 -5.140625q-0.015625 -2.640625 1.40625 -4.609375q1.4375 -1.96875 3.9375 -3.078125q2.5 -1.109375 5.671875 -1.109375q3.25 0 5.671875 1.109375q2.421875 1.109375 3.765625 3.078125q1.34375 1.96875 1.390625 4.578125l-5.890625 0zm20.14618 21.140625q-3.34375 0 -5.75 -1.421875q-2.40625 -1.421875 -3.703125 -3.96875q-1.28125 -2.546875 -1.28125 -5.859375q0 -3.34375 1.296875 -5.875q1.3125 -2.546875 3.703125 -3.96875q2.40625 -1.4375 5.71875 -1.4375q2.84375 0 4.984375 1.046875q2.15625 1.03125 3.40625 2.90625q1.25 1.875 1.375 4.40625l-5.703125 0q-0.25 -1.640625 -1.28125 -2.640625q-1.03125 -1.0 -2.6875 -1.0q-1.40625 0 -2.453125 0.765625q-1.046875 0.765625 -1.625 2.21875q-0.578125 1.4375 -0.578125 3.5q0 2.078125 0.5625 3.546875q0.578125 1.46875 1.625 2.234375q1.0625 0.765625 2.46875 0.765625q1.03125 0 1.859375 -0.421875q0.84375 -0.4375 1.390625 -1.25q0.546875 -0.8125 0.71875 -1.96875l5.703125 0q-0.140625 2.5 -1.359375 4.40625q-1.203125 1.890625 -3.34375 2.953125q-2.125 1.0625 -5.046875 1.0625zm19.869263 -0.015625q-2.09375 0 -3.734375 -0.71875q-1.625 -0.734375 -2.578125 -2.171875q-0.9375 -1.453125 -0.9375 -3.609375q0 -1.8125 0.671875 -3.046875q0.671875 -1.25 1.8125 -2.0q1.15625 -0.75 2.625 -1.125q1.46875 -0.390625 3.09375 -0.546875q1.890625 -0.203125 3.0625 -0.375q1.171875 -0.171875 1.6875 -0.53125q0.53125 -0.359375 0.53125 -1.046875l0 -0.09375q0 -1.34375 -0.84375 -2.078125q-0.84375 -0.75 -2.390625 -0.75q-1.640625 0 -2.609375 0.71875q-0.96875 0.71875 -1.28125 1.796875l-5.59375 -0.453125q0.421875 -1.984375 1.671875 -3.4375q1.25 -1.46875 3.234375 -2.25q1.984375 -0.796875 4.59375 -0.796875q1.828125 0 3.484375 0.4375q1.671875 0.421875 2.96875 1.328125q1.3125 0.890625 2.0625 2.296875q0.75 1.390625 0.75 3.328125l0 14.71875l-5.734375 0l0 -3.03125l-0.171875 0q-0.53125 1.03125 -1.40625 1.8125q-0.875 0.765625 -2.125 1.203125q-1.234375 0.421875 -2.84375 0.421875zm1.734375 -4.171875q1.328125 0 2.34375 -0.53125q1.03125 -0.53125 1.609375 -1.4375q0.59375 -0.90625 0.59375 -2.0625l0 -2.3125q-0.296875 0.1875 -0.78125 0.34375q-0.484375 0.140625 -1.109375 0.265625q-0.609375 0.109375 -1.21875 0.203125q-0.609375 0.09375 -1.109375 0.15625q-1.0625 0.15625 -1.859375 0.5q-0.796875 0.34375 -1.234375 0.921875q-0.4375 0.578125 -0.4375 1.421875q0 1.234375 0.90625 1.890625q0.90625 0.640625 2.296875 0.640625zm21.303894 -25.328125l0 29.09375l-6.046875 0l0 -29.09375l6.046875 0zm11.052551 29.5q-2.09375 0 -3.734375 -0.71875q-1.625 -0.734375 -2.578125 -2.171875q-0.9375 -1.453125 -0.9375 -3.609375q0 -1.8125 0.671875 -3.046875q0.671875 -1.25 1.8125 -2.0q1.15625 -0.75 2.625 -1.125q1.46875 -0.390625 3.09375 -0.546875q1.890625 -0.203125 3.0625 -0.375q1.171875 -0.171875 1.6875 -0.53125q0.53125 -0.359375 0.53125 -1.046875l0 -0.09375q0 -1.34375 -0.84375 -2.078125q-0.84375 -0.75 -2.390625 -0.75q-1.640625 0 -2.609375 0.71875q-0.96875 0.71875 -1.28125 1.796875l-5.59375 -0.453125q0.421875 -1.984375 1.671875 -3.4375q1.25 -1.46875 3.234375 -2.25q1.984375 -0.796875 4.59375 -0.796875q1.828125 0 3.484375 0.4375q1.671875 0.421875 2.96875 1.328125q1.3125 0.890625 2.0625 2.296875q0.75 1.390625 0.75 3.328125l0 14.71875l-5.734375 0l0 -3.03125l-0.171875 0q-0.53125 1.03125 -1.40625 1.8125q-0.875 0.765625 -2.125 1.203125q-1.234375 0.421875 -2.84375 0.421875zm1.734375 -4.171875q1.328125 0 2.34375 -0.53125q1.03125 -0.53125 1.609375 -1.4375q0.59375 -0.90625 0.59375 -2.0625l0 -2.3125q-0.296875 0.1875 -0.78125 0.34375q-0.484375 0.140625 -1.109375 0.265625q-0.609375 0.109375 -1.21875 0.203125q-0.609375 0.09375 -1.109375 0.15625q-1.0625 0.15625 -1.859375 0.5q-0.796875 0.34375 -1.234375 0.921875q-0.4375 0.578125 -0.4375 1.421875q0 1.234375 0.90625 1.890625q0.90625 0.640625 2.296875 0.640625zm15.366394 3.765625l0 -29.09375l6.046875 0l0 10.9375l0.1875 0q0.390625 -0.875 1.15625 -1.78125q0.765625 -0.921875 1.984375 -1.546875q1.234375 -0.625 3.0625 -0.625q2.390625 0 4.40625 1.25q2.015625 1.25 3.21875 3.75q1.21875 2.484375 1.21875 6.234375q0 3.640625 -1.171875 6.15625q-1.171875 2.5 -3.1875 3.796875q-2.015625 1.28125 -4.5 1.28125q-1.75 0 -2.984375 -0.578125q-1.234375 -0.59375 -2.015625 -1.46875q-0.78125 -0.890625 -1.1875 -1.8125l-0.265625 0l0 3.5l-5.96875 0zm5.921875 -10.90625q0 1.9375 0.53125 3.390625q0.546875 1.453125 1.5625 2.265625q1.03125 0.796875 2.5 0.796875q1.46875 0 2.484375 -0.8125q1.03125 -0.828125 1.5625 -2.28125q0.53125 -1.453125 0.53125 -3.359375q0 -1.890625 -0.53125 -3.328125q-0.515625 -1.4375 -1.546875 -2.234375q-1.015625 -0.8125 -2.5 -0.8125q-1.484375 0 -2.5 0.78125q-1.015625 0.78125 -1.5625 2.21875q-0.53125 1.421875 -0.53125 3.375zm19.380615 10.90625l0 -21.8125l6.046875 0l0 21.8125l-6.046875 0zm3.03125 -24.625q-1.34375 0 -2.3125 -0.90625q-0.953125 -0.90625 -0.953125 -2.171875q0 -1.25 0.953125 -2.140625q0.96875 -0.90625 2.3125 -0.90625q1.34375 0 2.296875 0.90625q0.96875 0.890625 0.96875 2.140625q0 1.265625 -0.96875 2.171875q-0.953125 0.90625 -2.296875 0.90625zm13.89624 -4.46875l0 29.09375l-6.046875 0l0 -29.09375l6.046875 0zm4.8338013 29.09375l0 -21.8125l6.046875 0l0 21.8125l-6.046875 0zm3.03125 -24.625q-1.34375 0 -2.3125 -0.90625q-0.953125 -0.90625 -0.953125 -2.171875q0 -1.25 0.953125 -2.140625q0.96875 -0.90625 2.3125 -0.90625q1.34375 0 2.296875 0.90625q0.96875 0.890625 0.96875 2.140625q0 1.265625 -0.96875 2.171875q-0.953125 0.90625 -2.296875 0.90625zm19.443115 2.8125l0 4.546875l-13.140625 0l0 -4.546875l13.140625 0zm-10.15625 -5.234375l6.0625 0l0 20.34375q0 0.84375 0.25 1.3125q0.25 0.453125 0.703125 0.640625q0.46875 0.171875 1.078125 0.171875q0.4375 0 0.859375 -0.078125q0.421875 -0.078125 0.65625 -0.109375l0.953125 4.5q-0.453125 0.140625 -1.28125 0.328125q-0.828125 0.1875 -2.0 0.234375q-2.1875 0.09375 -3.828125 -0.578125q-1.640625 -0.671875 -2.5625 -2.078125q-0.90625 -1.40625 -0.890625 -3.546875l0 -21.140625zm17.836609 35.234375q-1.15625 0 -2.15625 -0.1875q-1.0 -0.171875 -1.65625 -0.4375l1.359375 -4.515625q1.0625 0.3125 1.921875 0.34375q0.859375 0.03125 1.484375 -0.390625q0.640625 -0.421875 1.046875 -1.453125l0.359375 -0.921875l-7.828125 -22.4375l6.359375 0l4.515625 16.015625l0.234375 0l4.546875 -16.015625l6.40625 0l-8.46875 24.171875q-0.609375 1.765625 -1.65625 3.078125q-1.046875 1.3125 -2.640625 2.03125q-1.59375 0.71875 -3.828125 0.71875z" fill-rule="nonzero"/><path fill="#000000" fill-opacity="0.0" d="m240.50262 14.237533l355.02362 0l0 40.0l-355.02362 0z" fill-rule="evenodd"/><path fill="#ffffff" d="m269.13995 48.637535l-10.3125 0l0 -29.09375l10.390625 0q4.390625 0 7.5625 1.75q3.171875 1.734375 4.875 4.984375q1.71875 3.25 1.71875 7.78125q0 4.546875 -1.71875 7.8125q-1.703125 3.265625 -4.90625 5.015625q-3.1875 1.75 -7.609375 1.75zm-4.171875 -5.265625l3.90625 0q2.734375 0 4.59375 -0.96875q1.875 -0.984375 2.8125 -3.03125q0.953125 -2.0625 0.953125 -5.3125q0 -3.21875 -0.953125 -5.265625q-0.9375 -2.046875 -2.796875 -3.015625q-1.859375 -0.96875 -4.59375 -0.96875l-3.921875 0l0 18.5625zm32.77832 5.6875q-3.375 0 -5.796875 -1.359375q-2.421875 -1.375 -3.734375 -3.890625q-1.296875 -2.53125 -1.296875 -5.984375q0 -3.359375 1.296875 -5.90625q1.3125 -2.546875 3.6875 -3.96875q2.390625 -1.421875 5.59375 -1.421875q2.171875 0 4.03125 0.703125q1.875 0.6875 3.265625 2.0625q1.40625 1.375 2.1875 3.453125q0.78125 2.078125 0.78125 4.875l0 1.65625l-18.421875 0l0 -3.75l12.71875 0q0 -1.3125 -0.5625 -2.3125q-0.5625 -1.015625 -1.578125 -1.578125q-1.0 -0.578125 -2.3125 -0.578125q-1.375 0 -2.4375 0.625q-1.0625 0.625 -1.65625 1.6875q-0.59375 1.0625 -0.609375 2.359375l0 3.5625q0 1.609375 0.59375 2.796875q0.609375 1.171875 1.71875 1.8125q1.109375 0.640625 2.625 0.640625q1.015625 0 1.84375 -0.28125q0.84375 -0.28125 1.4375 -0.84375q0.59375 -0.578125 0.90625 -1.40625l5.609375 0.375q-0.4375 2.015625 -1.75 3.515625q-1.3125 1.5 -3.375 2.328125q-2.0625 0.828125 -4.765625 0.828125zm23.812439 0q-3.34375 0 -5.75 -1.421875q-2.40625 -1.421875 -3.703125 -3.96875q-1.28125 -2.546875 -1.28125 -5.859375q0 -3.34375 1.296875 -5.875q1.3125 -2.546875 3.703125 -3.96875q2.40625 -1.4375 5.71875 -1.4375q2.84375 0 4.984375 1.046875q2.15625 1.03125 3.40625 2.90625q1.25 1.875 1.375 4.40625l-5.703125 0q-0.25 -1.640625 -1.28125 -2.640625q-1.03125 -1.0 -2.6875 -1.0q-1.40625 0 -2.453125 0.765625q-1.046875 0.765625 -1.625 2.21875q-0.578125 1.4375 -0.578125 3.5q0 2.078125 0.5625 3.546875q0.578125 1.46875 1.625 2.234375q1.0625 0.765625 2.46875 0.765625q1.03125 0 1.859375 -0.421875q0.84375 -0.4375 1.390625 -1.25q0.546875 -0.8125 0.71875 -1.96875l5.703125 0q-0.140625 2.5 -1.359375 4.40625q-1.203125 1.890625 -3.34375 2.953125q-2.125 1.0625 -5.046875 1.0625zm23.587982 0q-3.375 0 -5.796875 -1.359375q-2.421875 -1.375 -3.734375 -3.890625q-1.296875 -2.53125 -1.296875 -5.984375q0 -3.359375 1.296875 -5.90625q1.3125 -2.546875 3.6875 -3.96875q2.390625 -1.421875 5.59375 -1.421875q2.171875 0 4.03125 0.703125q1.875 0.6875 3.265625 2.0625q1.40625 1.375 2.1875 3.453125q0.78125 2.078125 0.78125 4.875l0 1.65625l-18.421875 0l0 -3.75l12.71875 0q0 -1.3125 -0.5625 -2.3125q-0.5625 -1.015625 -1.578125 -1.578125q-1.0 -0.578125 -2.3125 -0.578125q-1.375 0 -2.4375 0.625q-1.0625 0.625 -1.65625 1.6875q-0.59375 1.0625 -0.609375 2.359375l0 3.5625q0 1.609375 0.59375 2.796875q0.609375 1.171875 1.71875 1.8125q1.109375 0.640625 2.625 0.640625q1.015625 0 1.84375 -0.28125q0.84375 -0.28125 1.4375 -0.84375q0.59375 -0.578125 0.90625 -1.40625l5.609375 0.375q-0.4375 2.015625 -1.75 3.515625q-1.3125 1.5 -3.375 2.328125q-2.0625 0.828125 -4.765625 0.828125zm20.015564 -13.03125l0 12.609375l-6.046875 0l0 -21.8125l5.765625 0l0 3.84375l0.25 0q0.71875 -1.90625 2.421875 -3.015625q1.71875 -1.125 4.140625 -1.125q2.265625 0 3.953125 1.0q1.703125 1.0 2.640625 2.84375q0.9375 1.828125 0.9375 4.375l0 13.890625l-6.046875 0l0 -12.8125q0 -2.0 -1.03125 -3.125q-1.03125 -1.140625 -2.859375 -1.140625q-1.21875 0 -2.15625 0.53125q-0.921875 0.53125 -1.4375 1.53125q-0.515625 1.0 -0.53125 2.40625zm30.418945 -9.203125l0 4.546875l-13.140625 0l0 -4.546875l13.140625 0zm-10.15625 -5.234375l6.0625 0l0 20.34375q0 0.84375 0.25 1.3125q0.25 0.453125 0.703125 0.640625q0.46875 0.171875 1.078125 0.171875q0.4375 0 0.859375 -0.078125q0.421875 -0.078125 0.65625 -0.109375l0.953125 4.5q-0.453125 0.140625 -1.28125 0.328125q-0.828125 0.1875 -2.0 0.234375q-2.1875 0.09375 -3.828125 -0.578125q-1.640625 -0.671875 -2.5625 -2.078125q-0.90625 -1.40625 -0.890625 -3.546875l0 -21.140625zm14.102234 27.046875l0 -21.8125l5.859375 0l0 3.796875l0.234375 0q0.59375 -2.03125 2.0 -3.0625q1.40625 -1.046875 3.234375 -1.046875q0.453125 0 0.96875 0.0625q0.53125 0.046875 0.9375 0.140625l0 5.375q-0.421875 -0.125 -1.1875 -0.21875q-0.75 -0.109375 -1.375 -0.109375q-1.328125 0 -2.375 0.578125q-1.046875 0.578125 -1.65625 1.609375q-0.59375 1.015625 -0.59375 2.34375l0 12.34375l-6.046875 0zm21.957306 0.40625q-2.09375 0 -3.734375 -0.71875q-1.625 -0.734375 -2.578125 -2.171875q-0.9375 -1.453125 -0.9375 -3.609375q0 -1.8125 0.671875 -3.046875q0.671875 -1.25 1.8125 -2.0q1.15625 -0.75 2.625 -1.125q1.46875 -0.390625 3.09375 -0.546875q1.890625 -0.203125 3.0625 -0.375q1.171875 -0.171875 1.6875 -0.53125q0.53125 -0.359375 0.53125 -1.046875l0 -0.09375q0 -1.34375 -0.84375 -2.078125q-0.84375 -0.75 -2.390625 -0.75q-1.640625 0 -2.609375 0.71875q-0.96875 0.71875 -1.28125 1.796875l-5.59375 -0.453125q0.421875 -1.984375 1.671875 -3.4375q1.25 -1.46875 3.234375 -2.25q1.984375 -0.796875 4.59375 -0.796875q1.828125 0 3.484375 0.4375q1.671875 0.421875 2.96875 1.328125q1.3125 0.890625 2.0625 2.296875q0.75 1.390625 0.75 3.328125l0 14.71875l-5.734375 0l0 -3.03125l-0.171875 0q-0.53125 1.03125 -1.40625 1.8125q-0.875 0.765625 -2.125 1.203125q-1.234375 0.421875 -2.84375 0.421875zm1.734375 -4.171875q1.328125 0 2.34375 -0.53125q1.03125 -0.53125 1.609375 -1.4375q0.59375 -0.90625 0.59375 -2.0625l0 -2.3125q-0.296875 0.1875 -0.78125 0.34375q-0.484375 0.140625 -1.109375 0.265625q-0.609375 0.109375 -1.21875 0.203125q-0.609375 0.09375 -1.109375 0.15625q-1.0625 0.15625 -1.859375 0.5q-0.796875 0.34375 -1.234375 0.921875q-0.4375 0.578125 -0.4375 1.421875q0 1.234375 0.90625 1.890625q0.90625 0.640625 2.296875 0.640625zm21.303925 -25.328125l0 29.09375l-6.046875 0l0 -29.09375l6.046875 0zm4.8337708 29.09375l0 -21.8125l6.046875 0l0 21.8125l-6.046875 0zm3.03125 -24.625q-1.34375 0 -2.3125 -0.90625q-0.953125 -0.90625 -0.953125 -2.171875q0 -1.25 0.953125 -2.140625q0.96875 -0.90625 2.3125 -0.90625q1.34375 0 2.296875 0.90625q0.96875 0.890625 0.96875 2.140625q0 1.265625 -0.96875 2.171875q-0.953125 0.90625 -2.296875 0.90625zm7.7243958 24.625l0 -3.609375l10.6875 -13.21875l0 -0.15625l-10.3125 0l0 -4.828125l17.59375 0l0 3.921875l-10.03125 12.90625l0 0.15625l10.40625 0l0 4.828125l-18.34375 0zm29.212982 0.40625q-2.09375 0 -3.734375 -0.71875q-1.625 -0.734375 -2.578125 -2.171875q-0.9375 -1.453125 -0.9375 -3.609375q0 -1.8125 0.671875 -3.046875q0.671875 -1.25 1.8125 -2.0q1.15625 -0.75 2.625 -1.125q1.46875 -0.390625 3.09375 -0.546875q1.890625 -0.203125 3.0625 -0.375q1.171875 -0.171875 1.6875 -0.53125q0.53125 -0.359375 0.53125 -1.046875l0 -0.09375q0 -1.34375 -0.84375 -2.078125q-0.84375 -0.75 -2.390625 -0.75q-1.640625 0 -2.609375 0.71875q-0.96875 0.71875 -1.28125 1.796875l-5.59375 -0.453125q0.421875 -1.984375 1.671875 -3.4375q1.25 -1.46875 3.234375 -2.25q1.984375 -0.796875 4.59375 -0.796875q1.828125 0 3.484375 0.4375q1.671875 0.421875 2.96875 1.328125q1.3125 0.890625 2.0625 2.296875q0.75 1.390625 0.75 3.328125l0 14.71875l-5.734375 0l0 -3.03125l-0.171875 0q-0.53125 1.03125 -1.40625 1.8125q-0.875 0.765625 -2.125 1.203125q-1.234375 0.421875 -2.84375 0.421875zm1.734375 -4.171875q1.328125 0 2.34375 -0.53125q1.03125 -0.53125 1.609375 -1.4375q0.59375 -0.90625 0.59375 -2.0625l0 -2.3125q-0.296875 0.1875 -0.78125 0.34375q-0.484375 0.140625 -1.109375 0.265625q-0.609375 0.109375 -1.21875 0.203125q-0.609375 0.09375 -1.109375 0.15625q-1.0625 0.15625 -1.859375 0.5q-0.796875 0.34375 -1.234375 0.921875q-0.4375 0.578125 -0.4375 1.421875q0 1.234375 0.90625 1.890625q0.90625 0.640625 2.296875 0.640625zm26.850769 -18.046875l0 4.546875l-13.140625 0l0 -4.546875l13.140625 0zm-10.15625 -5.234375l6.0625 0l0 20.34375q0 0.84375 0.25 1.3125q0.25 0.453125 0.703125 0.640625q0.46875 0.171875 1.078125 0.171875q0.4375 0 0.859375 -0.078125q0.421875 -0.078125 0.65625 -0.109375l0.953125 4.5q-0.453125 0.140625 -1.28125 0.328125q-0.828125 0.1875 -2.0 0.234375q-2.1875 0.09375 -3.828125 -0.578125q-1.640625 -0.671875 -2.5625 -2.078125q-0.90625 -1.40625 -0.890625 -3.546875l0 -21.140625zm14.102234 27.046875l0 -21.8125l6.046875 0l0 21.8125l-6.046875 0zm3.03125 -24.625q-1.34375 0 -2.3125 -0.90625q-0.953125 -0.90625 -0.953125 -2.171875q0 -1.25 0.953125 -2.140625q0.96875 -0.90625 2.3125 -0.90625q1.34375 0 2.296875 0.90625q0.96875 0.890625 0.96875 2.140625q0 1.265625 -0.96875 2.171875q-0.953125 0.90625 -2.296875 0.90625zm17.693176 25.046875q-3.296875 0 -5.71875 -1.40625q-2.40625 -1.421875 -3.71875 -3.953125q-1.296875 -2.53125 -1.296875 -5.890625q0 -3.375 1.296875 -5.90625q1.3125 -2.546875 3.71875 -3.953125q2.421875 -1.421875 5.71875 -1.421875q3.3125 0 5.71875 1.421875q2.40625 1.40625 3.71875 3.953125q1.3125 2.53125 1.3125 5.90625q0 3.359375 -1.3125 5.890625q-1.3125 2.53125 -3.71875 3.953125q-2.40625 1.40625 -5.71875 1.40625zm0.03125 -4.6875q1.515625 0 2.515625 -0.859375q1.015625 -0.859375 1.53125 -2.34375q0.515625 -1.5 0.515625 -3.390625q0 -1.90625 -0.515625 -3.390625q-0.515625 -1.5 -1.53125 -2.359375q-1.0 -0.875 -2.515625 -0.875q-1.515625 0 -2.546875 0.875q-1.03125 0.859375 -1.546875 2.359375q-0.515625 1.484375 -0.515625 3.390625q0 1.890625 0.515625 3.390625q0.515625 1.484375 1.546875 2.34375q1.03125 0.859375 2.546875 0.859375zm20.717224 -8.34375l0 12.609375l-6.046875 0l0 -21.8125l5.765625 0l0 3.84375l0.25 0q0.71875 -1.90625 2.421875 -3.015625q1.71875 -1.125 4.140625 -1.125q2.265625 0 3.953125 1.0q1.703125 1.0 2.640625 2.84375q0.9375 1.828125 0.9375 4.375l0 13.890625l-6.046875 0l0 -12.8125q0 -2.0 -1.03125 -3.125q-1.03125 -1.140625 -2.859375 -1.140625q-1.21875 0 -2.15625 0.53125q-0.921875 0.53125 -1.4375 1.53125q-0.515625 1.0 -0.53125 2.40625z" fill-rule="nonzero"/></g></svg>