<svg version="1.1" viewBox="0.0 0.0 1310.0341207349081 626.0" fill="none" stroke="none" stroke-linecap="square" stroke-miterlimit="10" xmlns:xlink="http://www.w3.org/1999/xlink" xmlns="http://www.w3.org/2000/svg"><clipPath id="p.0"><path d="m0 0l1310.0342 0l0 626.0l-1310.0342 0l0 -626.0z" clip-rule="nonzero"/></clipPath><g clip-path="url(#p.0)"><path fill="#000000" fill-opacity="0.0" d="m0 0l1310.0342 0l0 626.0l-1310.0342 0z" fill-rule="evenodd"/><path fill="#98999a" d="m50.213203 296.7982l0 0c5.256233 -9.103455 16.897064 -12.2222595 26.000519 -6.966034l65.9311 38.06787l0 0c4.371643 2.5241394 7.561508 6.6815186 8.867889 11.557556c1.3063812 4.8760376 0.6222687 10.07132 -1.9018707 14.442963l-38.067856 65.93109c-5.256233 9.103485 -16.897064 12.2222595 -26.000526 6.966034l-65.93109 -38.06787c-9.103459 -5.2562256 -12.222252 -16.897064 -6.9660196 -26.000519z" fill-rule="evenodd"/><path stroke="#3d3d3d" stroke-width="1.0" stroke-linejoin="round" stroke-linecap="butt" d="m50.213203 296.7982l0 0c5.256233 -9.103455 16.897064 -12.2222595 26.000519 -6.966034l65.9311 38.06787l0 0c4.371643 2.5241394 7.561508 6.6815186 8.867889 11.557556c1.3063812 4.8760376 0.6222687 10.07132 -1.9018707 14.442963l-38.067856 65.93109c-5.256233 9.103485 -16.897064 12.2222595 -26.000526 6.966034l-65.93109 -38.06787c-9.103459 -5.2562256 -12.222252 -16.897064 -6.9660196 -26.000519z" fill-rule="evenodd"/><path fill="#98999a" d="m597.9155 19.034502l0 0c0 -10.5124655 8.522034 -19.034502 19.034485 -19.034502l76.13574 0l0 0c5.048279 0 9.8897705 2.005415 13.459412 5.5750766c3.5697021 3.5696616 5.5750732 8.411161 5.5750732 13.459425l0 76.13572c0 10.512466 -8.522034 19.034508 -19.034485 19.034508l-76.13574 0c-10.512451 0 -19.034485 -8.522041 -19.034485 -19.034508z" fill-rule="evenodd"/><path stroke="#3d3d3d" stroke-width="1.0" stroke-linejoin="round" stroke-linecap="butt" d="m597.9155 19.034502l0 0c0 -10.5124655 8.522034 -19.034502 19.034485 -19.034502l76.13574 0l0 0c5.048279 0 9.8897705 2.005415 13.459412 5.5750766c3.5697021 3.5696616 5.5750732 8.411161 5.5750732 13.459425l0 76.13572c0 10.512466 -8.522034 19.034508 -19.034485 19.034508l-76.13574 0c-10.512451 0 -19.034485 -8.522041 -19.034485 -19.034508z" fill-rule="evenodd"/><path fill="#98999a" d="m1160.9235 353.901l0 0c-5.2562256 -9.103455 -2.1374512 -20.744293 6.9659424 -26.000519l65.93115 -38.06787l0 0c4.371582 -2.524109 9.566895 -3.208252 14.442993 -1.9018555c4.8759766 1.306366 9.033447 4.4962463 11.557495 8.867889l38.06787 65.93109c5.2562256 9.103455 2.1374512 20.744293 -6.9660645 26.000519l-65.93103 38.06787c-9.103516 5.2562256 -20.744263 2.1374207 -26.000488 -6.966034z" fill-rule="evenodd"/><path stroke="#3d3d3d" stroke-width="1.0" stroke-linejoin="round" stroke-linecap="butt" d="m1160.9235 353.901l0 0c-5.2562256 -9.103455 -2.1374512 -20.744293 6.9659424 -26.000519l65.93115 -38.06787l0 0c4.371582 -2.524109 9.566895 -3.208252 14.442993 -1.9018555c4.8759766 1.306366 9.033447 4.4962463 11.557495 8.867889l38.06787 65.93109c5.2562256 9.103455 2.1374512 20.744293 -6.9660645 26.000519l-65.93103 38.06787c-9.103516 5.2562256 -20.744263 2.1374207 -26.000488 -6.966034z" fill-rule="evenodd"/><path fill="#000000" fill-opacity="0.0" d="m655.0179 114.20473l0 239.2441" fill-rule="evenodd"/><path stroke="#ff0000" stroke-width="4.0" stroke-linejoin="round" stroke-linecap="butt" d="m655.0179 138.20473l0 215.2441" fill-rule="evenodd"/><path fill="#ff0000" stroke="#ff0000" stroke-width="4.0" stroke-linecap="butt" d="m661.6248 138.20473l-6.6069336 -18.152397l-6.6069336 18.152397z" fill-rule="evenodd"/><path fill="#d90071" d="m298.68503 682.2677l0 0c0 -196.41824 158.94559 -355.79602 355.36313 -356.32938c196.41754 -0.5333557 356.22632 157.97885 357.29303 354.3942l-81.82654 0.44439697l0 0c-0.82177734 -151.31055 -123.93207 -273.422 -275.24432 -273.0111c-151.3122 0.41088867 -273.7575 123.18915 -273.7575 274.5019z" fill-rule="evenodd"/><path stroke="#3d3d3d" stroke-width="1.0" stroke-linejoin="round" stroke-linecap="butt" d="m298.68503 682.2677l0 0c0 -196.41824 158.94559 -355.79602 355.36313 -356.32938c196.41754 -0.5333557 356.22632 157.97885 357.29303 354.3942l-81.82654 0.44439697l0 0c-0.82177734 -151.31055 -123.93207 -273.422 -275.24432 -273.0111c-151.3122 0.41088867 -273.7575 123.18915 -273.7575 274.5019z" fill-rule="evenodd"/><path fill="#ffffff" d="m636.0452 350.04736l0 0c0 -3.5486145 2.876709 -6.4253235 6.425354 -6.4253235l25.7005 0l0 0c1.7041016 0 3.33844 0.67697144 4.543396 1.8819275c1.2050171 1.2049866 1.881958 2.8392944 1.881958 4.543396l0 25.700531c0 3.5486145 -2.876709 6.4253235 -6.425354 6.4253235l-25.7005 0c-3.548645 0 -6.425354 -2.876709 -6.425354 -6.4253235z" fill-rule="evenodd"/><path stroke="#3d3d3d" stroke-width="1.0" stroke-linejoin="round" stroke-linecap="butt" d="m636.0452 350.04736l0 0c0 -3.5486145 2.876709 -6.4253235 6.425354 -6.4253235l25.7005 0l0 0c1.7041016 0 3.33844 0.67697144 4.543396 1.8819275c1.2050171 1.2049866 1.881958 2.8392944 1.881958 4.543396l0 25.700531c0 3.5486145 -2.876709 6.4253235 -6.425354 6.4253235l-25.7005 0c-3.548645 0 -6.425354 -2.876709 -6.425354 -6.4253235z" fill-rule="evenodd"/><path fill="#ffffff" d="m927.0381 494.67795l0 0c3.07312 -1.7743225 7.0027466 -0.721405 8.777039 2.3517456l12.850281 22.256989l0 0c0.8520508 1.475769 1.0829468 3.2295532 0.64190674 4.8756104c-0.44104004 1.6459961 -1.5178833 3.0494385 -2.9936523 3.9014893l-22.257019 12.85022c-3.07312 1.774353 -7.0027466 0.72143555 -8.777039 -2.3517456l-12.850281 -22.256958c-1.774292 -3.0731812 -0.7213745 -7.0028076 2.3517456 -8.7771z" fill-rule="evenodd"/><path stroke="#3d3d3d" stroke-width="1.0" stroke-linejoin="round" stroke-linecap="butt" d="m927.0381 494.67795l0 0c3.07312 -1.7743225 7.0027466 -0.721405 8.777039 2.3517456l12.850281 22.256989l0 0c0.8520508 1.475769 1.0829468 3.2295532 0.64190674 4.8756104c-0.44104004 1.6459961 -1.5178833 3.0494385 -2.9936523 3.9014893l-22.257019 12.85022c-3.07312 1.774353 -7.0027466 0.72143555 -8.777039 -2.3517456l-12.850281 -22.256958c-1.774292 -3.0731812 -0.7213745 -7.0028076 2.3517456 -8.7771z" fill-rule="evenodd"/><path fill="#ffffff" d="m364.328 525.33826l0 0c-3.0731506 -1.774292 -4.126068 -5.7039185 -2.3517456 -8.7771l12.85025 -22.256958l0 0c0.8520508 -1.4757996 2.2554626 -2.5526428 3.9014893 -2.9936829c1.6460266 -0.44104004 3.3998108 -0.21014404 4.8756104 0.64190674l22.256989 12.850281c3.0731506 1.774292 4.1260376 5.7039185 2.3517456 8.777069l-12.85025 22.257019c-1.7743225 3.07312 -5.703949 4.1260376 -8.7771 2.3517456z" fill-rule="evenodd"/><path stroke="#3d3d3d" stroke-width="1.0" stroke-linejoin="round" stroke-linecap="butt" d="m364.328 525.33826l0 0c-3.0731506 -1.774292 -4.126068 -5.7039185 -2.3517456 -8.7771l12.85025 -22.256958l0 0c0.8520508 -1.4757996 2.2554626 -2.5526428 3.9014893 -2.9936829c1.6460266 -0.44104004 3.3998108 -0.21014404 4.8756104 0.64190674l22.256989 12.850281c3.0731506 1.774292 4.1260376 5.7039185 2.3517456 8.777069l-12.85025 22.257019c-1.7743225 3.07312 -5.703949 4.1260376 -8.7771 2.3517456z" fill-rule="evenodd"/><path fill="#000000" fill-opacity="0.0" d="m109.191124 308.8504l488.7244 -251.74805" fill-rule="evenodd"/><path stroke="#ffffff" stroke-width="4.0" stroke-linejoin="round" stroke-linecap="butt" stroke-dasharray="16.0,12.0" d="m109.191124 308.8504l488.7244 -251.74805" fill-rule="evenodd"/><path fill="#000000" fill-opacity="0.0" d="m712.12024 57.102364l488.7245 251.77954" fill-rule="evenodd"/><path stroke="#ffffff" stroke-width="4.0" stroke-linejoin="round" stroke-linecap="butt" stroke-dasharray="16.0,12.0" d="m712.12024 57.102364l488.7245 251.77954" fill-rule="evenodd"/><path fill="#000000" fill-opacity="0.0" d="m130.0769 386.8661l1049.8898 0" fill-rule="evenodd"/><path stroke="#ffffff" stroke-width="4.0" stroke-linejoin="round" stroke-linecap="butt" stroke-dasharray="16.0,12.0" d="m130.0769 386.8661l1049.8898 0" fill-rule="evenodd"/><path fill="#ffffff" d="m635.7408 44.244225l0 0c0 -3.5486107 2.876709 -6.4253273 6.425293 -6.4253273l25.700562 0l0 0c1.7041016 0 3.338379 0.67695236 4.543396 1.8819351c1.204956 1.2049828 1.881897 2.8392868 1.881897 4.543392l0 25.700531c0 3.5486069 -2.876709 6.4253235 -6.425293 6.4253235l-25.700562 0c-3.548584 0 -6.425293 -2.8767166 -6.425293 -6.4253235z" fill-rule="evenodd"/><path stroke="#3d3d3d" stroke-width="1.0" stroke-linejoin="round" stroke-linecap="butt" d="m635.7408 44.244225l0 0c0 -3.5486107 2.876709 -6.4253273 6.425293 -6.4253273l25.700562 0l0 0c1.7041016 0 3.338379 0.67695236 4.543396 1.8819351c1.204956 1.2049828 1.881897 2.8392868 1.881897 4.543392l0 25.700531c0 3.5486069 -2.876709 6.4253235 -6.425293 6.4253235l-25.700562 0c-3.548584 0 -6.425293 -2.8767166 -6.425293 -6.4253235z" fill-rule="evenodd"/><path fill="#ffffff" d="m1230.8964 335.19763l0 0c3.07312 -1.7743225 7.0028076 -0.721405 8.7771 2.3517456l12.85022 22.256989l0 0c0.8520508 1.475769 1.0830078 3.2295837 0.6419678 4.8756104c-0.44104004 1.6460266 -1.5179443 3.049408 -2.9937744 3.9014587l-22.256958 12.850281c-3.07312 1.774292 -7.0028076 0.7213745 -8.7771 -2.3517456l-12.85022 -22.257019c-1.774292 -3.07312 -0.72143555 -7.002777 2.3516846 -8.777069z" fill-rule="evenodd"/><path stroke="#3d3d3d" stroke-width="1.0" stroke-linejoin="round" stroke-linecap="butt" d="m1230.8964 335.19763l0 0c3.07312 -1.7743225 7.0028076 -0.721405 8.7771 2.3517456l12.85022 22.256989l0 0c0.8520508 1.475769 1.0830078 3.2295837 0.6419678 4.8756104c-0.44104004 1.6460266 -1.5179443 3.049408 -2.9937744 3.9014587l-22.256958 12.850281c-3.07312 1.774292 -7.0028076 0.7213745 -8.7771 -2.3517456l-12.85022 -22.257019c-1.774292 -3.07312 -0.72143555 -7.002777 2.3516846 -8.777069z" fill-rule="evenodd"/><path fill="#ffffff" d="m59.863438 368.58237l0 0c-3.073143 -1.7743225 -4.1260567 -5.703949 -2.3517532 -8.7771l12.850262 -22.256989l0 0c0.8520508 -1.475769 2.255455 -2.5526428 3.9014816 -2.9936829c1.646019 -0.44100952 3.399826 -0.21011353 4.8756027 0.64193726l22.256996 12.85025c3.0731354 1.7743225 4.126053 5.703949 2.3517456 8.7771l-12.850258 22.256989c-1.7743073 3.0731506 -5.7039413 4.1260376 -8.777084 2.3517456z" fill-rule="evenodd"/><path stroke="#3d3d3d" stroke-width="1.0" stroke-linejoin="round" stroke-linecap="butt" d="m59.863438 368.58237l0 0c-3.073143 -1.7743225 -4.1260567 -5.703949 -2.3517532 -8.7771l12.850262 -22.256989l0 0c0.8520508 -1.475769 2.255455 -2.5526428 3.9014816 -2.9936829c1.646019 -0.44100952 3.399826 -0.21011353 4.8756027 0.64193726l22.256996 12.85025c3.0731354 1.7743225 4.126053 5.703949 2.3517456 8.7771l-12.850258 22.256989c-1.7743073 3.0731506 -5.7039413 4.1260376 -8.777084 2.3517456z" fill-rule="evenodd"/><path fill="#000000" fill-opacity="0.0" d="m942.2403 508.15817l237.73224 -121.29132" fill-rule="evenodd"/><path stroke="#00ffff" stroke-width="4.0" stroke-linejoin="round" stroke-linecap="butt" d="m963.6185 497.25095l216.354 -110.384094" fill-rule="evenodd"/><path fill="#00ffff" stroke="#00ffff" stroke-width="4.0" stroke-linecap="butt" d="m960.6159 491.36572l-13.166809 14.134888l19.17212 -2.3644714z" fill-rule="evenodd"/><path fill="#000000" fill-opacity="0.0" d="m130.0769 386.8661l238.33072 118.55118" fill-rule="evenodd"/><path stroke="#00ffff" stroke-width="4.0" stroke-linejoin="round" stroke-linecap="butt" d="m130.07692 386.8661l216.84233 107.862366" fill-rule="evenodd"/><path fill="#00ffff" stroke="#00ffff" stroke-width="4.0" stroke-linecap="butt" d="m343.97675 500.64398l19.19522 2.1689758l-13.310211 -13.9999695z" fill-rule="evenodd"/></g></svg>