<svg version="1.1" viewBox="0.0 0.0 603.8005249343832 684.9475065616798" fill="none" stroke="none" stroke-linecap="square" stroke-miterlimit="10" xmlns:xlink="http://www.w3.org/1999/xlink" xmlns="http://www.w3.org/2000/svg"><clipPath id="p.0"><path d="m0 0l603.80054 0l0 684.9475l-603.80054 0l0 -684.9475z" clip-rule="nonzero"/></clipPath><g clip-path="url(#p.0)"><path fill="#000000" fill-opacity="0.0" d="m0 0l603.80054 0l0 684.9475l-603.80054 0z" fill-rule="evenodd"/><path fill="#d0e0e3" d="m14.160982 542.1554l0 0c0 -13.230225 84.46155 -23.955444 188.65013 -23.955444c104.188614 0 188.65013 10.72522 188.65013 23.955444l0 95.82184c0 13.230225 -84.46152 23.955444 -188.65013 23.955444c-104.18858 0 -188.65013 -10.72522 -188.65013 -23.955444z" fill-rule="evenodd"/><path fill="#000000" fill-opacity="0.0" d="m391.46124 542.1554l0 0c0 13.230286 -84.46152 23.955505 -188.65013 23.955505c-104.18858 0 -188.65013 -10.72522 -188.65013 -23.955505" fill-rule="evenodd"/><path fill="#000000" fill-opacity="0.0" d="m14.160982 542.1554l0 0c0 -13.230225 84.46155 -23.955444 188.65013 -23.955444c104.188614 0 188.65013 10.72522 188.65013 23.955444l0 95.82184c0 13.230225 -84.46152 23.955444 -188.65013 23.955444c-104.18858 0 -188.65013 -10.72522 -188.65013 -23.955444z" fill-rule="evenodd"/><path stroke="#3d3d3d" stroke-width="1.0" stroke-linejoin="round" stroke-linecap="butt" d="m391.46124 542.1554l0 0c0 13.230286 -84.46152 23.955505 -188.65013 23.955505c-104.18858 0 -188.65013 -10.72522 -188.65013 -23.955505" fill-rule="evenodd"/><path stroke="#3d3d3d" stroke-width="1.0" stroke-linejoin="round" stroke-linecap="butt" d="m14.160982 542.1554l0 0c0 -13.230225 84.46155 -23.955444 188.65013 -23.955444c104.188614 0 188.65013 10.72522 188.65013 23.955444l0 95.82184c0 13.230225 -84.46152 23.955444 -188.65013 23.955444c-104.18858 0 -188.65013 -10.72522 -188.65013 -23.955444z" fill-rule="evenodd"/><path fill="#000000" d="m182.52966 610.1222l0.578125 0q0.921875 0 1.5625 0.640625q0.65625 0.640625 0.65625 1.5625q0 0.9375 -0.65625 1.578125q-0.65625 0.625 -1.5625 0.625l-0.578125 0q-0.921875 0 -1.578125 -0.640625q-0.640625 -0.640625 -0.640625 -1.546875q0 -0.953125 0.65625 -1.578125q0.65625 -0.640625 1.5625 -0.640625zm20.000137 0l0.578125 0q0.921875 0 1.5625 0.640625q0.65625 0.640625 0.65625 1.5625q0 0.9375 -0.65625 1.578125q-0.65625 0.625 -1.5625 0.625l-0.578125 0q-0.921875 0 -1.578125 -0.640625q-0.640625 -0.640625 -0.640625 -1.546875q0 -0.953125 0.65625 -1.578125q0.65625 -0.640625 1.5625 -0.640625zm20.000137 0l0.578125 0q0.921875 0 1.5625 0.640625q0.65625 0.640625 0.65625 1.5625q0 0.9375 -0.65625 1.578125q-0.65625 0.625 -1.5625 0.625l-0.578125 0q-0.921875 0 -1.578125 -0.640625q-0.640625 -0.640625 -0.640625 -1.546875q0 -0.953125 0.65625 -1.578125q0.65625 -0.640625 1.5625 -0.640625z" fill-rule="nonzero"/><path fill="#d9ead3" d="m14.160982 426.4979l0 0c0 -13.230225 84.46155 -23.955475 188.65013 -23.955475c104.188614 0 188.65013 10.72525 188.65013 23.955475l0 95.82181c0 13.230225 -84.46152 23.955444 -188.65013 23.955444c-104.18858 0 -188.65013 -10.72522 -188.65013 -23.955444z" fill-rule="evenodd"/><path fill="#000000" fill-opacity="0.0" d="m391.46124 426.4979l0 0c0 13.230225 -84.46152 23.955444 -188.65013 23.955444c-104.18858 0 -188.65013 -10.72522 -188.65013 -23.955444" fill-rule="evenodd"/><path fill="#000000" fill-opacity="0.0" d="m14.160982 426.4979l0 0c0 -13.230225 84.46155 -23.955475 188.65013 -23.955475c104.188614 0 188.65013 10.72525 188.65013 23.955475l0 95.82181c0 13.230225 -84.46152 23.955444 -188.65013 23.955444c-104.18858 0 -188.65013 -10.72522 -188.65013 -23.955444z" fill-rule="evenodd"/><path stroke="#3d3d3d" stroke-width="1.0" stroke-linejoin="round" stroke-linecap="butt" d="m391.46124 426.4979l0 0c0 13.230225 -84.46152 23.955444 -188.65013 23.955444c-104.18858 0 -188.65013 -10.72522 -188.65013 -23.955444" fill-rule="evenodd"/><path stroke="#3d3d3d" stroke-width="1.0" stroke-linejoin="round" stroke-linecap="butt" d="m14.160982 426.4979l0 0c0 -13.230225 84.46155 -23.955475 188.65013 -23.955475c104.188614 0 188.65013 10.72525 188.65013 23.955475l0 95.82181c0 13.230225 -84.46152 23.955444 -188.65013 23.955444c-104.18858 0 -188.65013 -10.72522 -188.65013 -23.955444z" fill-rule="evenodd"/><path fill="#000000" d="m77.45085 497.02713l0 -16.3125l-1.15625 0q-0.484375 0 -0.703125 -0.1875q-0.203125 -0.1875 -0.203125 -0.5q0 -0.3125 0.203125 -0.5q0.21875 -0.1875 0.703125 -0.1875l7.359375 0q1.71875 0 3.140625 0.71875q1.421875 0.71875 2.171875 1.625q1.28125 1.546875 1.953125 3.28125q0.46875 1.25 0.46875 2.953125l0 1.890625q0 2.09375 -0.921875 4.078125q-0.921875 1.96875 -3.09375 3.421875q-1.609375 1.078125 -3.71875 1.078125l-7.359375 0q-0.484375 0 -0.703125 -0.1875q-0.203125 -0.203125 -0.203125 -0.5q0 -0.3125 0.203125 -0.484375q0.21875 -0.1875 0.703125 -0.1875l1.15625 0zm1.359375 0l4.96875 0q1.71875 0 3.21875 -1.125q1.515625 -1.125 2.265625 -2.6875q0.765625 -1.578125 0.765625 -3.109375l0 -2.46875q0 -1.28125 -0.40625 -2.265625q-0.59375 -1.453125 -1.65625 -2.75q-0.59375 -0.71875 -1.734375 -1.3125q-1.140625 -0.59375 -2.453125 -0.59375l-4.96875 0l0 16.3125zm31.390762 -5.359375l-13.921875 0q0.359375 2.65625 2.21875 4.28125q1.859375 1.609375 4.609375 1.609375q1.53125 0 3.203125 -0.5q1.6875 -0.515625 2.734375 -1.34375q0.3125 -0.234375 0.546875 -0.234375q0.25 0 0.4375 0.203125q0.203125 0.203125 0.203125 0.46875q0 0.28125 -0.25 0.546875q-0.78125 0.8125 -2.78125 1.515625q-1.984375 0.703125 -4.09375 0.703125q-3.515625 0 -5.875 -2.296875q-2.34375 -2.296875 -2.34375 -5.578125q0 -2.96875 2.203125 -5.09375q2.21875 -2.140625 5.46875 -2.140625q3.34375 0 5.5 2.1875q2.171875 2.1875 2.140625 5.671875zm-1.375 -1.390625q-0.40625 -2.25 -2.140625 -3.671875q-1.734375 -1.421875 -4.125 -1.421875q-2.390625 0 -4.125 1.40625q-1.71875 1.390625 -2.140625 3.6875l12.53125 0zm8.828262 -5.984375l0 2.484375q1.21875 -1.46875 2.625 -2.21875q1.40625 -0.75 3.296875 -0.75q2.03125 0 3.734375 0.953125q1.703125 0.9375 2.640625 2.625q0.9375 1.671875 0.9375 3.53125q0 2.9375 -2.109375 5.03125q-2.109375 2.09375 -5.171875 2.09375q-3.671875 0 -5.953125 -2.96875l0 8.234375l3.328125 0q0.484375 0 0.6875 0.171875q0.21875 0.1875 0.21875 0.5q0 0.296875 -0.21875 0.484375q-0.203125 0.203125 -0.6875 0.203125l-6.53125 0q-0.484375 0 -0.703125 -0.1875q-0.203125 -0.1875 -0.203125 -0.5q0 -0.3125 0.203125 -0.5q0.21875 -0.171875 0.703125 -0.171875l1.84375 0l0 -17.625l-1.84375 0q-0.484375 0 -0.703125 -0.1875q-0.203125 -0.203125 -0.203125 -0.515625q0 -0.296875 0.203125 -0.484375q0.21875 -0.203125 0.703125 -0.203125l3.203125 0zm11.859375 6.625q0 -2.359375 -1.71875 -4.046875q-1.71875 -1.6875 -4.1875 -1.6875q-2.5 0 -4.234375 1.703125q-1.71875 1.6875 -1.71875 4.03125q0 2.359375 1.71875 4.0625q1.734375 1.6875 4.234375 1.6875q2.453125 0 4.171875 -1.6875q1.734375 -1.6875 1.734375 -4.0625zm20.937637 0.453125q0 3.125 -2.234375 5.34375q-2.234375 2.203125 -5.390625 2.203125q-3.203125 0 -5.4375 -2.21875q-2.21875 -2.21875 -2.21875 -5.328125q0 -3.125 2.21875 -5.34375q2.234375 -2.21875 5.4375 -2.21875q3.15625 0 5.390625 2.21875q2.234375 2.203125 2.234375 5.34375zm-1.390625 0q0 -2.5625 -1.828125 -4.375q-1.828125 -1.8125 -4.4375 -1.8125q-2.59375 0 -4.421875 1.828125q-1.828125 1.8125 -1.828125 4.359375q0 2.546875 1.828125 4.375q1.828125 1.8125 4.421875 1.8125q2.609375 0 4.4375 -1.8125q1.828125 -1.8125 1.828125 -4.375zm18.265762 -6.1875q0 -0.46875 0.1875 -0.671875q0.203125 -0.21875 0.5 -0.21875q0.3125 0 0.5 0.21875q0.203125 0.203125 0.203125 0.703125l0 2.34375q0 0.5 -0.203125 0.71875q-0.1875 0.203125 -0.5 0.203125q-0.28125 0 -0.46875 -0.171875q-0.1875 -0.1875 -0.21875 -0.59375q-0.09375 -0.984375 -1.015625 -1.609375q-1.328125 -0.921875 -3.53125 -0.921875q-2.28125 0 -3.5625 0.9375q-0.953125 0.6875 -0.953125 1.5625q0 0.96875 1.140625 1.625q0.78125 0.453125 2.953125 0.703125q2.859375 0.296875 3.953125 0.6875q1.578125 0.578125 2.34375 1.59375q0.78125 1.0 0.78125 2.171875q0 1.734375 -1.671875 3.09375q-1.671875 1.359375 -4.90625 1.359375q-3.25 0 -5.3125 -1.640625q0 0.5625 -0.0625 0.71875q-0.0625 0.15625 -0.234375 0.28125q-0.171875 0.109375 -0.390625 0.109375q-0.28125 0 -0.484375 -0.203125q-0.1875 -0.21875 -0.1875 -0.703125l0 -2.828125q0 -0.484375 0.1875 -0.6875q0.1875 -0.21875 0.484375 -0.21875q0.296875 0 0.5 0.203125q0.203125 0.203125 0.203125 0.546875q0 0.75 0.375 1.25q0.578125 0.78125 1.8125 1.296875q1.25 0.515625 3.046875 0.515625q2.671875 0 3.96875 -0.984375q1.3125 -1.0 1.3125 -2.109375q0 -1.265625 -1.3125 -2.03125q-1.34375 -0.765625 -3.890625 -1.015625q-2.546875 -0.265625 -3.65625 -0.6875q-1.09375 -0.4375 -1.71875 -1.28125q-0.625 -0.84375 -0.625 -1.8125q0 -1.765625 1.71875 -2.796875q1.734375 -1.03125 4.125 -1.03125q2.828125 0 4.609375 1.375zm16.156387 -7.90625l0 3.53125l-2.015625 0l0 -3.53125l2.015625 0zm0.046875 7.015625l0 12.734375l5.375 0q0.5 0 0.703125 0.1875q0.21875 0.171875 0.21875 0.484375q0 0.296875 -0.21875 0.5q-0.203125 0.1875 -0.703125 0.1875l-12.109375 0q-0.484375 0 -0.703125 -0.1875q-0.203125 -0.203125 -0.203125 -0.5q0 -0.3125 0.203125 -0.484375q0.21875 -0.1875 0.703125 -0.1875l5.375 0l0 -11.34375l-3.984375 0q-0.5 0 -0.71875 -0.1875q-0.21875 -0.203125 -0.21875 -0.5q0 -0.3125 0.203125 -0.5q0.21875 -0.203125 0.734375 -0.203125l5.34375 0zm16.468887 0l7.421875 0q0.5 0 0.703125 0.203125q0.21875 0.1875 0.21875 0.5q0 0.296875 -0.21875 0.5q-0.203125 0.1875 -0.703125 0.1875l-7.421875 0l0 9.09375q0 1.1875 0.953125 1.984375q0.953125 0.796875 2.796875 0.796875q1.375 0 2.984375 -0.40625q1.625 -0.421875 2.515625 -0.953125q0.328125 -0.203125 0.53125 -0.203125q0.265625 0 0.453125 0.203125q0.203125 0.203125 0.203125 0.484375q0 0.234375 -0.21875 0.453125q-0.515625 0.53125 -2.53125 1.15625q-2.0 0.625 -3.84375 0.625q-2.390625 0 -3.8125 -1.109375q-1.40625 -1.125 -1.40625 -3.03125l0 -9.09375l-2.53125 0q-0.484375 0 -0.703125 -0.1875q-0.203125 -0.203125 -0.203125 -0.515625q0 -0.296875 0.203125 -0.484375q0.21875 -0.203125 0.703125 -0.203125l2.53125 0l0 -4.03125q0 -0.484375 0.1875 -0.703125q0.203125 -0.21875 0.5 -0.21875q0.296875 0 0.484375 0.21875q0.203125 0.21875 0.203125 0.703125l0 4.03125zm47.312775 7.734375l-8.984375 0l-1.84375 5.0l2.625 0q0.484375 0 0.6875 0.1875q0.21875 0.171875 0.21875 0.484375q0 0.296875 -0.21875 0.5q-0.203125 0.1875 -0.6875 0.1875l-5.109375 0q-0.484375 0 -0.703125 -0.1875q-0.203125 -0.203125 -0.203125 -0.5q0 -0.3125 0.203125 -0.484375q0.21875 -0.1875 0.703125 -0.1875l1.0625 0l6.03125 -16.3125l-4.03125 0q-0.484375 0 -0.703125 -0.1875q-0.203125 -0.1875 -0.203125 -0.5q0 -0.3125 0.203125 -0.5q0.21875 -0.1875 0.703125 -0.1875l6.875 0l6.671875 17.6875l1.0625 0q0.484375 0 0.6875 0.1875q0.21875 0.171875 0.21875 0.484375q0 0.296875 -0.21875 0.5q-0.203125 0.1875 -0.6875 0.1875l-5.09375 0q-0.5 0 -0.71875 -0.1875q-0.203125 -0.203125 -0.203125 -0.5q0 -0.3125 0.203125 -0.484375q0.21875 -0.1875 0.71875 -0.1875l2.609375 0l-1.875 -5.0zm-0.515625 -1.375l-3.78125 -9.9375l-0.5 0l-3.671875 9.9375l7.953125 0zm20.531387 -5.46875q0 -0.46875 0.1875 -0.671875q0.203125 -0.21875 0.5 -0.21875q0.3125 0 0.5 0.21875q0.203125 0.203125 0.203125 0.703125l0 2.34375q0 0.5 -0.203125 0.71875q-0.1875 0.203125 -0.5 0.203125q-0.28125 0 -0.46875 -0.171875q-0.1875 -0.1875 -0.21875 -0.59375q-0.09375 -0.984375 -1.015625 -1.609375q-1.328125 -0.921875 -3.53125 -0.921875q-2.28125 0 -3.5625 0.9375q-0.953125 0.6875 -0.953125 1.5625q0 0.96875 1.140625 1.625q0.78125 0.453125 2.953125 0.703125q2.859375 0.296875 3.953125 0.6875q1.578125 0.578125 2.34375 1.59375q0.78125 1.0 0.78125 2.171875q0 1.734375 -1.671875 3.09375q-1.671875 1.359375 -4.90625 1.359375q-3.25 0 -5.3125 -1.640625q0 0.5625 -0.0625 0.71875q-0.0625 0.15625 -0.234375 0.28125q-0.171875 0.109375 -0.390625 0.109375q-0.28125 0 -0.484375 -0.203125q-0.1875 -0.21875 -0.1875 -0.703125l0 -2.828125q0 -0.484375 0.1875 -0.6875q0.1875 -0.21875 0.484375 -0.21875q0.296875 0 0.5 0.203125q0.203125 0.203125 0.203125 0.546875q0 0.75 0.375 1.25q0.578125 0.78125 1.8125 1.296875q1.25 0.515625 3.046875 0.515625q2.671875 0 3.96875 -0.984375q1.3125 -1.0 1.3125 -2.109375q0 -1.265625 -1.3125 -2.03125q-1.34375 -0.765625 -3.890625 -1.015625q-2.546875 -0.265625 -3.65625 -0.6875q-1.09375 -0.4375 -1.71875 -1.28125q-0.625 -0.84375 -0.625 -1.8125q0 -1.765625 1.71875 -2.796875q1.734375 -1.03125 4.125 -1.03125q2.828125 0 4.609375 1.375zm20.000153 0q0 -0.46875 0.1875 -0.671875q0.203125 -0.21875 0.5 -0.21875q0.3125 0 0.5 0.21875q0.203125 0.203125 0.203125 0.703125l0 2.34375q0 0.5 -0.203125 0.71875q-0.1875 0.203125 -0.5 0.203125q-0.28125 0 -0.46875 -0.171875q-0.1875 -0.1875 -0.21875 -0.59375q-0.09375 -0.984375 -1.015625 -1.609375q-1.328125 -0.921875 -3.53125 -0.921875q-2.28125 0 -3.5625 0.9375q-0.953125 0.6875 -0.953125 1.5625q0 0.96875 1.140625 1.625q0.78125 0.453125 2.953125 0.703125q2.859375 0.296875 3.953125 0.6875q1.578125 0.578125 2.34375 1.59375q0.78125 1.0 0.78125 2.171875q0 1.734375 -1.671875 3.09375q-1.671875 1.359375 -4.90625 1.359375q-3.25 0 -5.3125 -1.640625q0 0.5625 -0.0625 0.71875q-0.0625 0.15625 -0.234375 0.28125q-0.171875 0.109375 -0.390625 0.109375q-0.28125 0 -0.484375 -0.203125q-0.1875 -0.21875 -0.1875 -0.703125l0 -2.828125q0 -0.484375 0.1875 -0.6875q0.1875 -0.21875 0.484375 -0.21875q0.296875 0 0.5 0.203125q0.203125 0.203125 0.203125 0.546875q0 0.75 0.375 1.25q0.578125 0.78125 1.8125 1.296875q1.25 0.515625 3.046875 0.515625q2.671875 0 3.96875 -0.984375q1.3125 -1.0 1.3125 -2.109375q0 -1.265625 -1.3125 -2.03125q-1.34375 -0.765625 -3.890625 -1.015625q-2.546875 -0.265625 -3.65625 -0.6875q-1.09375 -0.4375 -1.71875 -1.28125q-0.625 -0.84375 -0.625 -1.8125q0 -1.765625 1.71875 -2.796875q1.734375 -1.03125 4.125 -1.03125q2.828125 0 4.609375 1.375zm22.875122 6.484375l-13.921875 0q0.359375 2.65625 2.21875 4.28125q1.859375 1.609375 4.609375 1.609375q1.53125 0 3.203125 -0.5q1.6875 -0.515625 2.734375 -1.34375q0.3125 -0.234375 0.546875 -0.234375q0.25 0 0.4375 0.203125q0.203125 0.203125 0.203125 0.46875q0 0.28125 -0.25 0.546875q-0.78125 0.8125 -2.78125 1.515625q-1.984375 0.703125 -4.09375 0.703125q-3.515625 0 -5.875 -2.296875q-2.34375 -2.296875 -2.34375 -5.578125q0 -2.96875 2.203125 -5.09375q2.21875 -2.140625 5.46875 -2.140625q3.34375 0 5.5 2.1875q2.171875 2.1875 2.140625 5.671875zm-1.375 -1.390625q-0.40625 -2.25 -2.140625 -3.671875q-1.734375 -1.421875 -4.125 -1.421875q-2.390625 0 -4.125 1.40625q-1.71875 1.390625 -2.140625 3.6875l12.53125 0zm11.171997 -5.984375l7.421875 0q0.5 0 0.703125 0.203125q0.21875 0.1875 0.21875 0.5q0 0.296875 -0.21875 0.5q-0.203125 0.1875 -0.703125 0.1875l-7.421875 0l0 9.09375q0 1.1875 0.953125 1.984375q0.953125 0.796875 2.796875 0.796875q1.375 0 2.984375 -0.40625q1.625 -0.421875 2.515625 -0.953125q0.328125 -0.203125 0.53125 -0.203125q0.265625 0 0.453125 0.203125q0.203125 0.203125 0.203125 0.484375q0 0.234375 -0.21875 0.453125q-0.515625 0.53125 -2.53125 1.15625q-2.0 0.625 -3.84375 0.625q-2.390625 0 -3.8125 -1.109375q-1.40625 -1.125 -1.40625 -3.03125l0 -9.09375l-2.53125 0q-0.484375 0 -0.703125 -0.1875q-0.203125 -0.203125 -0.203125 -0.515625q0 -0.296875 0.203125 -0.484375q0.21875 -0.203125 0.703125 -0.203125l2.53125 0l0 -4.03125q0 -0.484375 0.1875 -0.703125q0.203125 -0.21875 0.5 -0.21875q0.296875 0 0.484375 0.21875q0.203125 0.21875 0.203125 0.703125l0 4.03125z" fill-rule="nonzero"/><path fill="#ffe599" d="m14.160982 309.11572l0 0c0 -13.230225 84.46155 -23.955444 188.65013 -23.955444c104.188614 0 188.65013 10.72522 188.65013 23.955444l0 95.82181c0 13.230255 -84.46152 23.955475 -188.65013 23.955475c-104.18858 0 -188.65013 -10.72522 -188.65013 -23.955475z" fill-rule="evenodd"/><path fill="#000000" fill-opacity="0.0" d="m391.46124 309.11572l0 0c0 13.230225 -84.46152 23.955475 -188.65013 23.955475c-104.18858 0 -188.65013 -10.72525 -188.65013 -23.955475" fill-rule="evenodd"/><path fill="#000000" fill-opacity="0.0" d="m14.160982 309.11572l0 0c0 -13.230225 84.46155 -23.955444 188.65013 -23.955444c104.188614 0 188.65013 10.72522 188.65013 23.955444l0 95.82181c0 13.230255 -84.46152 23.955475 -188.65013 23.955475c-104.18858 0 -188.65013 -10.72522 -188.65013 -23.955475z" fill-rule="evenodd"/><path stroke="#3d3d3d" stroke-width="1.0" stroke-linejoin="round" stroke-linecap="butt" d="m391.46124 309.11572l0 0c0 13.230225 -84.46152 23.955475 -188.65013 23.955475c-104.18858 0 -188.65013 -10.72525 -188.65013 -23.955475" fill-rule="evenodd"/><path stroke="#3d3d3d" stroke-width="1.0" stroke-linejoin="round" stroke-linecap="butt" d="m14.160982 309.11572l0 0c0 -13.230225 84.46155 -23.955444 188.65013 -23.955444c104.188614 0 188.65013 10.72522 188.65013 23.955444l0 95.82181c0 13.230255 -84.46152 23.955475 -188.65013 23.955475c-104.18858 0 -188.65013 -10.72522 -188.65013 -23.955475z" fill-rule="evenodd"/><path fill="#000000" d="m76.9821 379.645l0 -16.3125l-1.84375 0q-0.484375 0 -0.703125 -0.1875q-0.203125 -0.1875 -0.203125 -0.5q0 -0.3125 0.203125 -0.5q0.21875 -0.1875 0.703125 -0.1875l8.59375 0q2.546875 0 4.15625 1.484375q1.609375 1.46875 1.609375 3.453125q0 2.5 -2.6875 4.046875q2.125 0.765625 3.109375 2.046875q1.0 1.265625 1.0 2.796875q0 1.359375 -0.65625 2.5q-0.640625 1.125 -1.984375 1.921875q-1.34375 0.796875 -2.921875 0.796875l-10.21875 0q-0.484375 0 -0.703125 -0.1875q-0.203125 -0.203125 -0.203125 -0.5q0 -0.3125 0.203125 -0.484375q0.21875 -0.1875 0.703125 -0.1875l1.84375 0zm1.359375 -9.21875l4.828125 0q1.546875 0 2.84375 -0.5625q0.984375 -0.46875 1.53125 -1.328125q0.5625 -0.859375 0.5625 -1.75q0 -1.296875 -1.203125 -2.375q-1.203125 -1.078125 -3.140625 -1.078125l-5.421875 0l0 7.09375zm0 9.21875l6.921875 0q1.3125 0 2.28125 -0.578125q0.984375 -0.59375 1.484375 -1.453125q0.515625 -0.875 0.515625 -1.796875q0 -1.046875 -0.734375 -2.015625q-0.71875 -0.984375 -2.015625 -1.484375q-1.28125 -0.5 -3.53125 -0.5l-4.921875 0l0 7.828125zm29.140762 1.359375l0 -2.0q-2.796875 2.53125 -6.046875 2.53125q-2.0 0 -3.046875 -1.078125q-1.34375 -1.4375 -1.34375 -3.34375l0 -8.8125l-1.84375 0q-0.484375 0 -0.703125 -0.1875q-0.203125 -0.203125 -0.203125 -0.515625q0 -0.296875 0.203125 -0.484375q0.21875 -0.203125 0.703125 -0.203125l3.203125 0l0 10.203125q0 1.328125 0.84375 2.203125q0.859375 0.859375 2.125 0.859375q3.328125 0 6.109375 -3.0625l0 -8.8125l-2.515625 0q-0.484375 0 -0.703125 -0.1875q-0.203125 -0.203125 -0.203125 -0.515625q0 -0.296875 0.203125 -0.484375q0.21875 -0.203125 0.703125 -0.203125l3.890625 0l0 12.734375l1.15625 0q0.484375 0 0.6875 0.1875q0.21875 0.171875 0.21875 0.484375q0 0.296875 -0.21875 0.5q-0.203125 0.1875 -0.6875 0.1875l-2.53125 0zm15.422012 0l-6.34375 -12.703125l-0.40625 0q-0.5 0 -0.71875 -0.1875q-0.203125 -0.203125 -0.203125 -0.5q0 -0.21875 0.109375 -0.390625q0.109375 -0.171875 0.28125 -0.234375q0.171875 -0.078125 0.53125 -0.078125l3.734375 0q0.484375 0 0.6875 0.203125q0.21875 0.1875 0.21875 0.5q0 0.296875 -0.21875 0.5q-0.203125 0.1875 -0.6875 0.1875l-1.84375 0l5.59375 11.203125l5.5 -11.203125l-1.84375 0q-0.484375 0 -0.703125 -0.1875q-0.203125 -0.203125 -0.203125 -0.515625q0 -0.296875 0.203125 -0.484375q0.21875 -0.203125 0.703125 -0.203125l3.71875 0q0.515625 0 0.71875 0.203125q0.21875 0.1875 0.21875 0.5q0 0.203125 -0.140625 0.390625q-0.125 0.171875 -0.296875 0.234375q-0.15625 0.0625 -0.90625 0.0625l-8.65625 17.625l2.140625 0q0.484375 0 0.6875 0.171875q0.21875 0.1875 0.21875 0.5q0 0.296875 -0.21875 0.484375q-0.203125 0.203125 -0.6875 0.203125l-7.875 0q-0.5 0 -0.71875 -0.1875q-0.203125 -0.1875 -0.203125 -0.5q0 -0.3125 0.203125 -0.5q0.21875 -0.171875 0.71875 -0.171875l4.28125 0l2.40625 -4.921875zm35.4534 -9.1875l0 7.828125l10.515625 0l0 -4.046875q0 -0.484375 0.1875 -0.6875q0.1875 -0.21875 0.5 -0.21875q0.296875 0 0.484375 0.21875q0.1875 0.203125 0.1875 0.6875l0 5.40625l-15.078125 0q-0.484375 0 -0.703125 -0.1875q-0.203125 -0.203125 -0.203125 -0.5q0 -0.3125 0.203125 -0.484375q0.21875 -0.1875 0.703125 -0.1875l1.84375 0l0 -16.3125l-1.84375 0q-0.484375 0 -0.703125 -0.1875q-0.203125 -0.1875 -0.203125 -0.5q0 -0.3125 0.203125 -0.5q0.21875 -0.1875 0.703125 -0.1875l14.375 0l0 4.703125q0 0.5 -0.1875 0.71875q-0.1875 0.203125 -0.5 0.203125q-0.3125 0 -0.5 -0.203125q-0.1875 -0.21875 -0.1875 -0.71875l0 -3.328125l-9.796875 0l0 7.109375l4.90625 0l0 -1.546875q0 -0.484375 0.1875 -0.6875q0.203125 -0.21875 0.5 -0.21875q0.296875 0 0.484375 0.21875q0.203125 0.203125 0.203125 0.6875l0 4.453125q0 0.5 -0.203125 0.71875q-0.1875 0.203125 -0.484375 0.203125q-0.296875 0 -0.5 -0.203125q-0.1875 -0.21875 -0.1875 -0.71875l0 -1.53125l-4.90625 0zm25.390762 1.8125l6.265625 6.015625q0.609375 0 0.765625 0.0625q0.171875 0.046875 0.296875 0.234375q0.125 0.171875 0.125 0.375q0 0.296875 -0.21875 0.5q-0.203125 0.1875 -0.703125 0.1875l-4.40625 0q-0.5 0 -0.71875 -0.1875q-0.203125 -0.203125 -0.203125 -0.5q0 -0.3125 0.203125 -0.484375q0.21875 -0.1875 0.71875 -0.1875l2.265625 0l-5.3125 -5.09375l-5.296875 5.09375l2.28125 0q0.484375 0 0.6875 0.1875q0.21875 0.171875 0.21875 0.484375q0 0.296875 -0.21875 0.5q-0.203125 0.1875 -0.6875 0.1875l-4.4375 0q-0.5 0 -0.71875 -0.1875q-0.203125 -0.203125 -0.203125 -0.5q0 -0.203125 0.125 -0.375q0.125 -0.1875 0.28125 -0.234375q0.15625 -0.0625 0.765625 -0.0625l6.265625 -6.015625l-5.5625 -5.328125q-0.59375 0 -0.75 -0.0625q-0.140625 -0.078125 -0.265625 -0.25q-0.125 -0.1875 -0.125 -0.390625q0 -0.296875 0.203125 -0.484375q0.21875 -0.203125 0.71875 -0.203125l3.734375 0q0.5 0 0.703125 0.203125q0.203125 0.1875 0.203125 0.5q0 0.296875 -0.203125 0.5q-0.203125 0.1875 -0.703125 0.1875l-1.625 0l4.609375 4.4375l4.625 -4.4375l-1.625 0q-0.484375 0 -0.703125 -0.1875q-0.21875 -0.203125 -0.21875 -0.515625q0 -0.296875 0.203125 -0.484375q0.21875 -0.203125 0.71875 -0.203125l3.734375 0q0.484375 0 0.6875 0.203125q0.21875 0.1875 0.21875 0.5q0 0.1875 -0.125 0.375q-0.125 0.171875 -0.28125 0.25q-0.140625 0.0625 -0.734375 0.0625l-5.578125 5.328125zm26.453262 0.65625l-13.921875 0q0.359375 2.65625 2.21875 4.28125q1.859375 1.609375 4.609375 1.609375q1.53125 0 3.203125 -0.5q1.6875 -0.515625 2.734375 -1.34375q0.3125 -0.234375 0.546875 -0.234375q0.25 0 0.4375 0.203125q0.203125 0.203125 0.203125 0.46875q0 0.28125 -0.25 0.546875q-0.78125 0.8125 -2.78125 1.515625q-1.984375 0.703125 -4.09375 0.703125q-3.515625 0 -5.875 -2.296875q-2.34375 -2.296875 -2.34375 -5.578125q0 -2.96875 2.203125 -5.09375q2.21875 -2.140625 5.46875 -2.140625q3.34375 0 5.5 2.1875q2.171875 2.1875 2.140625 5.671875zm-1.375 -1.390625q-0.40625 -2.25 -2.140625 -3.671875q-1.734375 -1.421875 -4.125 -1.421875q-2.390625 0 -4.125 1.40625q-1.71875 1.390625 -2.140625 3.6875l12.53125 0zm19.687637 -4.59375l0 -0.46875q0 -0.5 0.1875 -0.703125q0.203125 -0.21875 0.5 -0.21875q0.3125 0 0.5 0.21875q0.203125 0.203125 0.203125 0.703125l0 3.09375q-0.015625 0.515625 -0.203125 0.734375q-0.1875 0.203125 -0.5 0.203125q-0.28125 0 -0.46875 -0.1875q-0.1875 -0.1875 -0.21875 -0.625q-0.09375 -1.15625 -1.515625 -2.203125q-1.421875 -1.046875 -3.84375 -1.046875q-3.03125 0 -4.609375 1.90625q-1.578125 1.90625 -1.578125 4.359375q0 2.65625 1.734375 4.390625q1.734375 1.71875 4.515625 1.71875q1.59375 0 3.234375 -0.578125q1.65625 -0.59375 2.984375 -1.890625q0.34375 -0.328125 0.609375 -0.328125q0.28125 0 0.46875 0.1875q0.1875 0.1875 0.1875 0.453125q0 0.703125 -1.65625 1.78125q-2.640625 1.734375 -5.90625 1.734375q-3.296875 0 -5.421875 -2.09375q-2.125 -2.109375 -2.125 -5.359375q0 -3.296875 2.171875 -5.46875q2.171875 -2.1875 5.484375 -2.1875q3.140625 0 5.265625 1.875zm18.968887 12.703125l0 -2.0q-2.796875 2.53125 -6.046875 2.53125q-2.0 0 -3.046875 -1.078125q-1.34375 -1.4375 -1.34375 -3.34375l0 -8.8125l-1.84375 0q-0.484375 0 -0.703125 -0.1875q-0.203125 -0.203125 -0.203125 -0.515625q0 -0.296875 0.203125 -0.484375q0.21875 -0.203125 0.703125 -0.203125l3.203125 0l0 10.203125q0 1.328125 0.84375 2.203125q0.859375 0.859375 2.125 0.859375q3.328125 0 6.109375 -3.0625l0 -8.8125l-2.515625 0q-0.484375 0 -0.703125 -0.1875q-0.203125 -0.203125 -0.203125 -0.515625q0 -0.296875 0.203125 -0.484375q0.21875 -0.203125 0.703125 -0.203125l3.890625 0l0 12.734375l1.15625 0q0.484375 0 0.6875 0.1875q0.21875 0.171875 0.21875 0.484375q0 0.296875 -0.21875 0.5q-0.203125 0.1875 -0.6875 0.1875l-2.53125 0zm12.515762 -14.09375l7.421875 0q0.5 0 0.703125 0.203125q0.21875 0.1875 0.21875 0.5q0 0.296875 -0.21875 0.5q-0.203125 0.1875 -0.703125 0.1875l-7.421875 0l0 9.09375q0 1.1875 0.953125 1.984375q0.953125 0.796875 2.796875 0.796875q1.375 0 2.984375 -0.40625q1.625 -0.421875 2.515625 -0.953125q0.328125 -0.203125 0.53125 -0.203125q0.265625 0 0.453125 0.203125q0.203125 0.203125 0.203125 0.484375q0 0.234375 -0.21875 0.453125q-0.515625 0.53125 -2.53125 1.15625q-2.0 0.625 -3.84375 0.625q-2.390625 0 -3.8125 -1.109375q-1.40625 -1.125 -1.40625 -3.03125l0 -9.09375l-2.53125 0q-0.484375 0 -0.703125 -0.1875q-0.203125 -0.203125 -0.203125 -0.515625q0 -0.296875 0.203125 -0.484375q0.21875 -0.203125 0.703125 -0.203125l2.53125 0l0 -4.03125q0 -0.484375 0.1875 -0.703125q0.203125 -0.21875 0.5 -0.21875q0.296875 0 0.484375 0.21875q0.203125 0.21875 0.203125 0.703125l0 4.03125zm23.484528 -7.015625l0 3.53125l-2.015625 0l0 -3.53125l2.015625 0zm0.046875 7.015625l0 12.734375l5.375 0q0.5 0 0.703125 0.1875q0.21875 0.171875 0.21875 0.484375q0 0.296875 -0.21875 0.5q-0.203125 0.1875 -0.703125 0.1875l-12.109375 0q-0.484375 0 -0.703125 -0.1875q-0.203125 -0.203125 -0.203125 -0.5q0 -0.3125 0.203125 -0.484375q0.21875 -0.1875 0.703125 -0.1875l5.375 0l0 -11.34375l-3.984375 0q-0.5 0 -0.71875 -0.1875q-0.21875 -0.203125 -0.21875 -0.5q0 -0.3125 0.203125 -0.5q0.21875 -0.203125 0.734375 -0.203125l5.34375 0zm26.921997 7.078125q0 3.125 -2.234375 5.34375q-2.234375 2.203125 -5.390625 2.203125q-3.203125 0 -5.4375 -2.21875q-2.21875 -2.21875 -2.21875 -5.328125q0 -3.125 2.21875 -5.34375q2.234375 -2.21875 5.4375 -2.21875q3.15625 0 5.390625 2.21875q2.234375 2.203125 2.234375 5.34375zm-1.390625 0q0 -2.5625 -1.828125 -4.375q-1.828125 -1.8125 -4.4375 -1.8125q-2.59375 0 -4.421875 1.828125q-1.828125 1.8125 -1.828125 4.359375q0 2.546875 1.828125 4.375q1.828125 1.8125 4.421875 1.8125q2.609375 0 4.4375 -1.8125q1.828125 -1.8125 1.828125 -4.375zm9.328247 -7.078125l0 2.0625q1.4375 -1.4375 2.59375 -1.984375q1.15625 -0.5625 2.59375 -0.5625q1.5625 0 2.859375 0.671875q0.90625 0.484375 1.640625 1.625q0.75 1.125 0.75 2.3125l0 8.609375l1.15625 0q0.484375 0 0.6875 0.1875q0.21875 0.171875 0.21875 0.484375q0 0.296875 -0.21875 0.5q-0.203125 0.1875 -0.6875 0.1875l-3.671875 0q-0.5 0 -0.71875 -0.1875q-0.203125 -0.203125 -0.203125 -0.5q0 -0.3125 0.203125 -0.484375q0.21875 -0.1875 0.71875 -0.1875l1.140625 0l0 -8.390625q0 -1.453125 -1.0625 -2.453125q-1.046875 -1.0 -2.828125 -1.0q-1.34375 0 -2.34375 0.546875q-0.984375 0.546875 -2.828125 2.71875l0 8.578125l1.546875 0q0.484375 0 0.703125 0.1875q0.21875 0.171875 0.21875 0.484375q0 0.296875 -0.21875 0.5q-0.21875 0.1875 -0.703125 0.1875l-4.453125 0q-0.484375 0 -0.703125 -0.1875q-0.21875 -0.203125 -0.21875 -0.5q0 -0.3125 0.21875 -0.484375q0.21875 -0.1875 0.703125 -0.1875l1.546875 0l0 -11.34375l-1.15625 0q-0.484375 0 -0.703125 -0.1875q-0.21875 -0.203125 -0.21875 -0.515625q0 -0.296875 0.21875 -0.484375q0.21875 -0.203125 0.703125 -0.203125l2.515625 0z" fill-rule="nonzero"/><path fill="#f9cb9c" d="m14.160982 197.35036l0 0c0 -13.23024 84.46155 -23.95546 188.65013 -23.95546c104.188614 0 188.65013 10.72522 188.65013 23.95546l0 95.82182c0 13.230225 -84.46152 23.955444 -188.65013 23.955444c-104.18858 0 -188.65013 -10.72522 -188.65013 -23.955444z" fill-rule="evenodd"/><path fill="#000000" fill-opacity="0.0" d="m391.46124 197.35036l0 0c0 13.230225 -84.46152 23.955444 -188.65013 23.955444c-104.18858 0 -188.65013 -10.72522 -188.65013 -23.955444" fill-rule="evenodd"/><path fill="#000000" fill-opacity="0.0" d="m14.160982 197.35036l0 0c0 -13.23024 84.46155 -23.95546 188.65013 -23.95546c104.188614 0 188.65013 10.72522 188.65013 23.95546l0 95.82182c0 13.230225 -84.46152 23.955444 -188.65013 23.955444c-104.18858 0 -188.65013 -10.72522 -188.65013 -23.955444z" fill-rule="evenodd"/><path stroke="#3d3d3d" stroke-width="1.0" stroke-linejoin="round" stroke-linecap="butt" d="m391.46124 197.35036l0 0c0 13.230225 -84.46152 23.955444 -188.65013 23.955444c-104.18858 0 -188.65013 -10.72522 -188.65013 -23.955444" fill-rule="evenodd"/><path stroke="#3d3d3d" stroke-width="1.0" stroke-linejoin="round" stroke-linecap="butt" d="m14.160982 197.35036l0 0c0 -13.23024 84.46155 -23.95546 188.65013 -23.95546c104.188614 0 188.65013 10.72522 188.65013 23.95546l0 95.82182c0 13.230225 -84.46152 23.955444 -188.65013 23.955444c-104.18858 0 -188.65013 -10.72522 -188.65013 -23.955444z" fill-rule="evenodd"/><path fill="#000000" d="m43.497486 251.56711l0 16.3125l4.6875 0q0.484375 0 0.703125 0.1875q0.21875 0.171875 0.21875 0.484375q0 0.296875 -0.21875 0.5q-0.21875 0.1875 -0.703125 0.1875l-10.734375 0q-0.484375 0 -0.703125 -0.1875q-0.203125 -0.203125 -0.203125 -0.5q0 -0.3125 0.203125 -0.484375q0.21875 -0.1875 0.703125 -0.1875l4.6875 0l0 -16.3125l-4.6875 0q-0.484375 0 -0.703125 -0.1875q-0.203125 -0.1875 -0.203125 -0.5q0 -0.3125 0.203125 -0.5q0.21875 -0.1875 0.703125 -0.1875l10.734375 0q0.484375 0 0.703125 0.1875q0.21875 0.1875 0.21875 0.5q0 0.3125 -0.21875 0.5q-0.21875 0.1875 -0.703125 0.1875l-4.6875 0zm14.890762 3.578125l0 2.0625q1.4375 -1.4375 2.59375 -1.984375q1.15625 -0.5625 2.59375 -0.5625q1.5624962 0 2.8593712 0.671875q0.90625 0.484375 1.640625 1.625q0.75 1.125 0.75 2.3125l0 8.609375l1.15625 0q0.484375 0 0.6875 0.1875q0.21875 0.171875 0.21875 0.484375q0 0.296875 -0.21875 0.5q-0.203125 0.1875 -0.6875 0.1875l-3.671875 0q-0.5 0 -0.71875 -0.1875q-0.203125 -0.203125 -0.203125 -0.5q0 -0.3125 0.203125 -0.484375q0.21875 -0.1875 0.71875 -0.1875l1.140625 0l0 -8.390625q0 -1.453125 -1.0625 -2.453125q-1.046875 -1.0 -2.8281212 -1.0q-1.34375 0 -2.34375 0.546875q-0.984375 0.546875 -2.828125 2.71875l0 8.578125l1.546875 0q0.484375 0 0.703125 0.1875q0.21875 0.171875 0.21875 0.484375q0 0.296875 -0.21875 0.5q-0.21875 0.1875 -0.703125 0.1875l-4.453125 0q-0.484375 0 -0.703125 -0.1875q-0.21875 -0.203125 -0.21875 -0.5q0 -0.3125 0.21875 -0.484375q0.21875 -0.1875 0.703125 -0.1875l1.546875 0l0 -11.34375l-1.15625 0q-0.484375 0 -0.703125 -0.1875q-0.21875 -0.203125 -0.21875 -0.515625q0 -0.296875 0.21875 -0.484375q0.21875 -0.203125 0.703125 -0.203125l2.515625 0zm25.093884 -7.015625l0 3.53125l-2.015625 0l0 -3.53125l2.015625 0zm0.046875 7.015625l0 12.734375l5.375 0q0.5 0 0.703125 0.1875q0.21875 0.171875 0.21875 0.484375q0 0.296875 -0.21875 0.5q-0.203125 0.1875 -0.703125 0.1875l-12.109375 0q-0.484375 0 -0.703125 -0.1875q-0.203125 -0.203125 -0.203125 -0.5q0 -0.3125 0.203125 -0.484375q0.21875 -0.1875 0.703125 -0.1875l5.375 0l0 -11.34375l-3.984375 0q-0.5 0 -0.71875 -0.1875q-0.21875 -0.203125 -0.21875 -0.5q0 -0.3125 0.203125 -0.5q0.21875 -0.203125 0.734375 -0.203125l5.34375 0zm16.468887 0l7.421875 0q0.5 0 0.703125 0.203125q0.21875 0.1875 0.21875 0.5q0 0.296875 -0.21875 0.5q-0.203125 0.1875 -0.703125 0.1875l-7.421875 0l0 9.09375q0 1.1875 0.953125 1.984375q0.953125 0.796875 2.796875 0.796875q1.375 0 2.984375 -0.40625q1.625 -0.421875 2.515625 -0.953125q0.328125 -0.203125 0.53125 -0.203125q0.265625 0 0.453125 0.203125q0.203125 0.203125 0.203125 0.484375q0 0.234375 -0.21875 0.453125q-0.515625 0.53125 -2.53125 1.15625q-2.0 0.625 -3.84375 0.625q-2.390625 0 -3.8125 -1.109375q-1.40625 -1.125 -1.40625 -3.03125l0 -9.09375l-2.53125 0q-0.484375 0 -0.703125 -0.1875q-0.203125 -0.203125 -0.203125 -0.515625q0 -0.296875 0.203125 -0.484375q0.21875 -0.203125 0.703125 -0.203125l2.53125 0l0 -4.03125q0 -0.484375 0.1875 -0.703125q0.203125 -0.21875 0.5 -0.21875q0.296875 0 0.484375 0.21875q0.203125 0.21875 0.203125 0.703125l0 4.03125zm23.484512 -7.015625l0 3.53125l-2.015625 0l0 -3.53125l2.015625 0zm0.046875 7.015625l0 12.734375l5.375 0q0.5 0 0.703125 0.1875q0.21875 0.171875 0.21875 0.484375q0 0.296875 -0.21875 0.5q-0.203125 0.1875 -0.703125 0.1875l-12.109375 0q-0.484375 0 -0.703125 -0.1875q-0.203125 -0.203125 -0.203125 -0.5q0 -0.3125 0.203125 -0.484375q0.21875 -0.1875 0.703125 -0.1875l5.375 0l0 -11.34375l-3.984375 0q-0.5 0 -0.71875 -0.1875q-0.21875 -0.203125 -0.21875 -0.5q0 -0.3125 0.203125 -0.5q0.21875 -0.203125 0.734375 -0.203125l5.34375 0zm23.218887 14.09375l0 -1.96875q-2.984375 2.5 -6.375 2.5q-2.453125 0 -3.84375 -1.234375q-1.375 -1.25 -1.375 -3.0625q0 -1.984375 1.8125 -3.453125q1.828125 -1.484375 5.328125 -1.484375q0.953125 0 2.046875 0.125q1.109375 0.109375 2.40625 0.375l0 -2.21875q0 -1.109375 -1.046875 -1.9375q-1.046875 -0.84375 -3.125 -0.84375q-1.59375 0 -4.484375 0.9375q-0.515625 0.15625 -0.65625 0.15625q-0.265625 0 -0.453125 -0.1875q-0.1875 -0.203125 -0.1875 -0.5q0 -0.265625 0.171875 -0.4375q0.21875 -0.234375 1.828125 -0.65625q2.546875 -0.6875 3.84375 -0.6875q2.59375 0 4.03125 1.28125q1.453125 1.265625 1.453125 2.875l0 9.0625l1.828125 0q0.5 0 0.703125 0.1875q0.21875 0.171875 0.21875 0.484375q0 0.296875 -0.21875 0.5q-0.203125 0.1875 -0.703125 0.1875l-3.203125 0zm0 -6.796875q-0.96875 -0.28125 -2.046875 -0.40625q-1.0625 -0.140625 -2.25 -0.140625q-2.984375 0 -4.65625 1.296875q-1.28125 0.953125 -1.28125 2.28125q0 1.25 0.96875 2.09375q0.96875 0.84375 2.828125 0.84375q1.78125 0 3.296875 -0.703125q1.515625 -0.71875 3.140625 -2.265625l0 -3.0zm13.250137 -7.296875l7.421875 0q0.5 0 0.703125 0.203125q0.21875 0.1875 0.21875 0.5q0 0.296875 -0.21875 0.5q-0.203125 0.1875 -0.703125 0.1875l-7.421875 0l0 9.09375q0 1.1875 0.953125 1.984375q0.953125 0.796875 2.796875 0.796875q1.375 0 2.984375 -0.40625q1.625 -0.421875 2.515625 -0.953125q0.328125 -0.203125 0.53125 -0.203125q0.265625 0 0.453125 0.203125q0.203125 0.203125 0.203125 0.484375q0 0.234375 -0.21875 0.453125q-0.515625 0.53125 -2.53125 1.15625q-2.0 0.625 -3.84375 0.625q-2.390625 0 -3.8125 -1.109375q-1.40625 -1.125 -1.40625 -3.03125l0 -9.09375l-2.53125 0q-0.484375 0 -0.703125 -0.1875q-0.203125 -0.203125 -0.203125 -0.515625q0 -0.296875 0.203125 -0.484375q0.21875 -0.203125 0.703125 -0.203125l2.53125 0l0 -4.03125q0 -0.484375 0.1875 -0.703125q0.203125 -0.21875 0.5 -0.21875q0.296875 0 0.484375 0.21875q0.203125 0.21875 0.203125 0.703125l0 4.03125zm30.203262 7.375l-13.921875 0q0.359375 2.65625 2.21875 4.28125q1.859375 1.609375 4.609375 1.609375q1.53125 0 3.203125 -0.5q1.6875 -0.515625 2.734375 -1.34375q0.3125 -0.234375 0.546875 -0.234375q0.25 0 0.4375 0.203125q0.203125 0.203125 0.203125 0.46875q0 0.28125 -0.25 0.546875q-0.78125 0.8125 -2.78125 1.515625q-1.984375 0.703125 -4.09375 0.703125q-3.515625 0 -5.875 -2.296875q-2.34375 -2.296875 -2.34375 -5.578125q0 -2.96875 2.203125 -5.09375q2.21875 -2.140625 5.46875 -2.140625q3.34375 0 5.5 2.1875q2.171875 2.1875 2.140625 5.671875zm-1.375 -1.390625q-0.40625 -2.25 -2.140625 -3.671875q-1.734375 -1.421875 -4.125 -1.421875q-2.390625 0 -4.125 1.40625q-1.71875 1.390625 -2.140625 3.6875l12.53125 0zm34.656525 -9.5625l0 16.3125l3.546875 0q0.5 0 0.703125 0.1875q0.21875 0.171875 0.21875 0.484375q0 0.296875 -0.21875 0.5q-0.203125 0.1875 -0.703125 0.1875l-8.46875 0q-0.5 0 -0.71875 -0.1875q-0.203125 -0.203125 -0.203125 -0.5q0 -0.3125 0.203125 -0.484375q0.21875 -0.1875 0.71875 -0.1875l3.546875 0l0 -16.3125l-5.609375 0l0 4.734375q0 0.5 -0.1875 0.71875q-0.1875 0.203125 -0.484375 0.203125q-0.296875 0 -0.5 -0.203125q-0.1875 -0.21875 -0.1875 -0.71875l0 -6.109375l15.3125 0l0 6.109375q0 0.5 -0.1875 0.71875q-0.1875 0.203125 -0.5 0.203125q-0.3125 0 -0.5 -0.203125q-0.171875 -0.21875 -0.171875 -0.71875l0 -4.734375l-5.609375 0zm26.718887 10.953125l-13.921875 0q0.359375 2.65625 2.21875 4.28125q1.859375 1.609375 4.609375 1.609375q1.53125 0 3.203125 -0.5q1.6875 -0.515625 2.734375 -1.34375q0.3125 -0.234375 0.546875 -0.234375q0.25 0 0.4375 0.203125q0.203125 0.203125 0.203125 0.46875q0 0.28125 -0.25 0.546875q-0.78125 0.8125 -2.78125 1.515625q-1.984375 0.703125 -4.09375 0.703125q-3.515625 0 -5.875 -2.296875q-2.34375 -2.296875 -2.34375 -5.578125q0 -2.96875 2.203125 -5.09375q2.21875 -2.140625 5.46875 -2.140625q3.34375 0 5.5 2.1875q2.171875 2.1875 2.140625 5.671875zm-1.375 -1.390625q-0.40625 -2.25 -2.140625 -3.671875q-1.734375 -1.421875 -4.125 -1.421875q-2.390625 0 -4.125 1.40625q-1.71875 1.390625 -2.140625 3.6875l12.53125 0zm14.672012 -12.3125l0 19.0625l5.375 0q0.5 0 0.703125 0.1875q0.21875 0.171875 0.21875 0.484375q0 0.296875 -0.21875 0.5q-0.203125 0.1875 -0.703125 0.1875l-12.109375 0q-0.484375 0 -0.703125 -0.1875q-0.203125 -0.203125 -0.203125 -0.5q0 -0.3125 0.203125 -0.484375q0.21875 -0.1875 0.703125 -0.1875l5.375 0l0 -17.6875l-3.9375 0q-0.5 0 -0.71875 -0.1875q-0.21875 -0.203125 -0.21875 -0.5q0 -0.296875 0.203125 -0.484375q0.21875 -0.203125 0.734375 -0.203125l5.296875 0zm26.703247 13.703125l-13.921875 0q0.359375 2.65625 2.21875 4.28125q1.859375 1.609375 4.609375 1.609375q1.53125 0 3.203125 -0.5q1.6875 -0.515625 2.734375 -1.34375q0.3125 -0.234375 0.546875 -0.234375q0.25 0 0.4375 0.203125q0.203125 0.203125 0.203125 0.46875q0 0.28125 -0.25 0.546875q-0.78125 0.8125 -2.78125 1.515625q-1.984375 0.703125 -4.09375 0.703125q-3.515625 0 -5.875 -2.296875q-2.34375 -2.296875 -2.34375 -5.578125q0 -2.96875 2.203125 -5.09375q2.21875 -2.140625 5.46875 -2.140625q3.34375 0 5.5 2.1875q2.171875 2.1875 2.140625 5.671875zm-1.375 -1.390625q-0.40625 -2.25 -2.140625 -3.671875q-1.734375 -1.421875 -4.125 -1.421875q-2.390625 0 -4.125 1.40625q-1.71875 1.390625 -2.140625 3.6875l12.53125 0zm8.828247 -5.984375l0 2.484375q1.21875 -1.46875 2.625 -2.21875q1.40625 -0.75 3.296875 -0.75q2.03125 0 3.734375 0.953125q1.703125 0.9375 2.640625 2.625q0.9375 1.671875 0.9375 3.53125q0 2.9375 -2.109375 5.03125q-2.109375 2.09375 -5.171875 2.09375q-3.671875 0 -5.953125 -2.96875l0 8.234375l3.328125 0q0.484375 0 0.6875 0.171875q0.21875 0.1875 0.21875 0.5q0 0.296875 -0.21875 0.484375q-0.203125 0.203125 -0.6875 0.203125l-6.53125 0q-0.484375 0 -0.703125 -0.1875q-0.203125 -0.1875 -0.203125 -0.5q0 -0.3125 0.203125 -0.5q0.21875 -0.171875 0.703125 -0.171875l1.84375 0l0 -17.625l-1.84375 0q-0.484375 0 -0.703125 -0.1875q-0.203125 -0.203125 -0.203125 -0.515625q0 -0.296875 0.203125 -0.484375q0.21875 -0.203125 0.703125 -0.203125l3.203125 0zm11.859375 6.625q0 -2.359375 -1.71875 -4.046875q-1.71875 -1.6875 -4.1875 -1.6875q-2.5 0 -4.234375 1.703125q-1.71875 1.6875 -1.71875 4.03125q0 2.359375 1.71875 4.0625q1.734375 1.6875 4.234375 1.6875q2.453125 0 4.171875 -1.6875q1.734375 -1.6875 1.734375 -4.0625zm20.937622 0.453125q0 3.125 -2.234375 5.34375q-2.234375 2.203125 -5.390625 2.203125q-3.203125 0 -5.4375 -2.21875q-2.21875 -2.21875 -2.21875 -5.328125q0 -3.125 2.21875 -5.34375q2.234375 -2.21875 5.4375 -2.21875q3.15625 0 5.390625 2.21875q2.234375 2.203125 2.234375 5.34375zm-1.390625 0q0 -2.5625 -1.828125 -4.375q-1.828125 -1.8125 -4.4375 -1.8125q-2.59375 0 -4.421875 1.828125q-1.828125 1.8125 -1.828125 4.359375q0 2.546875 1.828125 4.375q1.828125 1.8125 4.421875 1.8125q2.609375 0 4.4375 -1.8125q1.828125 -1.8125 1.828125 -4.375zm12.109497 -7.078125l0 3.453125q2.671875 -2.40625 4.0 -3.09375q1.328125 -0.703125 2.453125 -0.703125q1.21875 0 2.265625 0.828125q1.046875 0.8125 1.046875 1.234375q0 0.3125 -0.203125 0.515625q-0.203125 0.203125 -0.515625 0.203125q-0.15625 0 -0.28125 -0.046875q-0.109375 -0.0625 -0.40625 -0.375q-0.578125 -0.5625 -1.0 -0.765625q-0.421875 -0.21875 -0.828125 -0.21875q-0.890625 0 -2.15625 0.71875q-1.265625 0.703125 -4.375 3.484375l0 7.5l6.0625 0q0.5 0 0.703125 0.1875q0.21875 0.171875 0.21875 0.484375q0 0.296875 -0.21875 0.5q-0.203125 0.1875 -0.703125 0.1875l-10.734375 0q-0.484375 0 -0.703125 -0.1875q-0.203125 -0.1875 -0.203125 -0.484375q0 -0.265625 0.203125 -0.453125q0.203125 -0.1875 0.703125 -0.1875l3.3125 0l0 -11.390625l-2.53125 0q-0.484375 0 -0.703125 -0.1875q-0.203125 -0.203125 -0.203125 -0.515625q0 -0.296875 0.203125 -0.484375q0.203125 -0.203125 0.703125 -0.203125l3.890625 0zm18.828247 0l7.421875 0q0.5 0 0.703125 0.203125q0.21875 0.1875 0.21875 0.5q0 0.296875 -0.21875 0.5q-0.203125 0.1875 -0.703125 0.1875l-7.421875 0l0 9.09375q0 1.1875 0.953125 1.984375q0.953125 0.796875 2.796875 0.796875q1.375 0 2.984375 -0.40625q1.625 -0.421875 2.515625 -0.953125q0.328125 -0.203125 0.53125 -0.203125q0.265625 0 0.453125 0.203125q0.203125 0.203125 0.203125 0.484375q0 0.234375 -0.21875 0.453125q-0.515625 0.53125 -2.53125 1.15625q-2.0 0.625 -3.84375 0.625q-2.390625 0 -3.8125 -1.109375q-1.40625 -1.125 -1.40625 -3.03125l0 -9.09375l-2.53125 0q-0.484375 0 -0.703125 -0.1875q-0.203125 -0.203125 -0.203125 -0.515625q0 -0.296875 0.203125 -0.484375q0.21875 -0.203125 0.703125 -0.203125l2.53125 0l0 -4.03125q0 -0.484375 0.1875 -0.703125q0.203125 -0.21875 0.5 -0.21875q0.296875 0 0.484375 0.21875q0.203125 0.21875 0.203125 0.703125l0 4.03125z" fill-rule="nonzero"/><path fill="#ea9999" d="m212.33928 46.97027l0 0c0 -13.230228 84.46153 -23.955452 188.65013 -23.955452c104.1886 0 188.65012 10.725224 188.65012 23.955452l0 95.821815c0 13.230225 -84.46152 23.955444 -188.65012 23.955444c-104.1886 0 -188.65013 -10.72522 -188.65013 -23.955444z" fill-rule="evenodd"/><path fill="#000000" fill-opacity="0.0" d="m589.6395 46.97027l0 0c0 13.230232 -84.46152 23.955452 -188.65012 23.955452c-104.1886 0 -188.65013 -10.72522 -188.65013 -23.955452" fill-rule="evenodd"/><path fill="#000000" fill-opacity="0.0" d="m212.33928 46.97027l0 0c0 -13.230228 84.46153 -23.955452 188.65013 -23.955452c104.1886 0 188.65012 10.725224 188.65012 23.955452l0 95.821815c0 13.230225 -84.46152 23.955444 -188.65012 23.955444c-104.1886 0 -188.65013 -10.72522 -188.65013 -23.955444z" fill-rule="evenodd"/><path stroke="#3d3d3d" stroke-width="1.0" stroke-linejoin="round" stroke-linecap="butt" d="m589.6395 46.97027l0 0c0 13.230232 -84.46152 23.955452 -188.65012 23.955452c-104.1886 0 -188.65013 -10.72522 -188.65013 -23.955452" fill-rule="evenodd"/><path stroke="#3d3d3d" stroke-width="1.0" stroke-linejoin="round" stroke-linecap="butt" d="m212.33928 46.97027l0 0c0 -13.230228 84.46153 -23.955452 188.65013 -23.955452c104.1886 0 188.65012 10.725224 188.65012 23.955452l0 95.821815c0 13.230225 -84.46152 23.955444 -188.65012 23.955444c-104.1886 0 -188.65013 -10.72522 -188.65013 -23.955444z" fill-rule="evenodd"/><path fill="#000000" d="m276.98846 118.8589l-2.15625 0l-3.875 -13.515625l-3.78125 13.515625l-2.15625 0l-2.015625 -17.671875l-0.5 0q-0.484375 0 -0.703125 -0.1875q-0.203125 -0.1875 -0.203125 -0.5q0 -0.3125 0.203125 -0.5q0.21875 -0.1875 0.703125 -0.1875l5.078125 0q0.5 0 0.703125 0.1875q0.21875 0.1875 0.21875 0.5q0 0.3125 -0.21875 0.5q-0.203125 0.1875 -0.703125 0.1875l-3.1875 0l1.796875 16.109375l3.703125 -13.265625l2.09375 0l3.796875 13.265625l1.765625 -16.109375l-3.203125 0q-0.484375 0 -0.703125 -0.1875q-0.203125 -0.1875 -0.203125 -0.5q0 -0.3125 0.203125 -0.5q0.21875 -0.1875 0.703125 -0.1875l5.046875 0q0.5 0 0.703125 0.1875q0.21875 0.1875 0.21875 0.5q0 0.3125 -0.21875 0.5q-0.203125 0.1875 -0.703125 0.1875l-0.5 0l-1.90625 17.671875zm14.671997 -21.109375l0 3.53125l-2.015625 0l0 -3.53125l2.015625 0zm0.046875 7.015625l0 12.734375l5.375 0q0.5 0 0.703125 0.1875q0.21875 0.171875 0.21875 0.484375q0 0.296875 -0.21875 0.5q-0.203125 0.1875 -0.703125 0.1875l-12.109375 0q-0.484375 0 -0.703125 -0.1875q-0.203125 -0.203125 -0.203125 -0.5q0 -0.3125 0.203125 -0.484375q0.21875 -0.1875 0.703125 -0.1875l5.375 0l0 -11.34375l-3.984375 0q-0.5 0 -0.71875 -0.1875q-0.21875 -0.203125 -0.21875 -0.5q0 -0.3125 0.203125 -0.5q0.21875 -0.203125 0.734375 -0.203125l5.34375 0zm16.468903 0l7.421875 0q0.5 0 0.703125 0.203125q0.21875 0.1875 0.21875 0.5q0 0.296875 -0.21875 0.5q-0.203125 0.1875 -0.703125 0.1875l-7.421875 0l0 9.09375q0 1.1875 0.953125 1.984375q0.953125 0.796875 2.796875 0.796875q1.375 0 2.984375 -0.40625q1.625 -0.421875 2.515625 -0.953125q0.328125 -0.203125 0.53125 -0.203125q0.265625 0 0.453125 0.203125q0.203125 0.203125 0.203125 0.484375q0 0.234375 -0.21875 0.453125q-0.515625 0.53125 -2.53125 1.15625q-2.0 0.625 -3.84375 0.625q-2.390625 0 -3.8125 -1.109375q-1.40625 -1.125 -1.40625 -3.03125l0 -9.09375l-2.53125 0q-0.484375 0 -0.703125 -0.1875q-0.203125 -0.203125 -0.203125 -0.515625q0 -0.296875 0.203125 -0.484375q0.21875 -0.203125 0.703125 -0.203125l2.53125 0l0 -4.03125q0 -0.484375 0.1875 -0.703125q0.203125 -0.21875 0.5 -0.21875q0.296875 0 0.484375 0.21875q0.203125 0.21875 0.203125 0.703125l0 4.03125zm18.312622 -6.328125l0 8.40625q1.296875 -1.40625 2.484375 -1.984375q1.203125 -0.578125 2.6875 -0.578125q1.59375 0 2.703125 0.5625q1.125 0.5625 1.875 1.734375q0.75 1.15625 0.75 2.4375l0 8.484375l1.53125 0q0.5 0 0.703125 0.1875q0.203125 0.171875 0.203125 0.484375q0 0.296875 -0.203125 0.5q-0.203125 0.1875 -0.703125 0.1875l-4.453125 0q-0.5 0 -0.71875 -0.1875q-0.203125 -0.203125 -0.203125 -0.5q0 -0.3125 0.203125 -0.484375q0.21875 -0.1875 0.71875 -0.1875l1.53125 0l0 -8.390625q0 -1.484375 -1.0625 -2.46875q-1.0625 -1.0 -2.96875 -1.0q-1.5 0 -2.5625 0.734375q-0.75 0.515625 -2.515625 2.453125l0 8.671875l1.546875 0q0.484375 0 0.6875 0.1875q0.21875 0.171875 0.21875 0.484375q0 0.296875 -0.21875 0.5q-0.203125 0.1875 -0.6875 0.1875l-4.453125 0q-0.5 0 -0.71875 -0.1875q-0.203125 -0.203125 -0.203125 -0.5q0 -0.3125 0.203125 -0.484375q0.21875 -0.1875 0.71875 -0.1875l1.546875 0l0 -17.6875l-1.84375 0q-0.484375 0 -0.703125 -0.1875q-0.203125 -0.203125 -0.203125 -0.5q0 -0.296875 0.203125 -0.484375q0.21875 -0.203125 0.703125 -0.203125l3.203125 0zm31.203278 0l0 19.0625l1.8125 0q0.515625 0 0.71875 0.1875q0.21875 0.171875 0.21875 0.484375q0 0.296875 -0.21875 0.5q-0.203125 0.1875 -0.71875 0.1875l-3.203125 0l0 -2.71875q-2.375 3.25 -6.03125 3.25q-1.859375 0 -3.5625 -0.984375q-1.703125 -0.984375 -2.6875 -2.796875q-0.984375 -1.828125 -0.984375 -3.765625q0 -1.953125 0.984375 -3.765625q0.984375 -1.8125 2.6875 -2.796875q1.703125 -1.0 3.578125 -1.0q3.578125 0 6.015625 3.25l0 -7.71875l-1.828125 0q-0.5 0 -0.71875 -0.1875q-0.203125 -0.203125 -0.203125 -0.5q0 -0.296875 0.203125 -0.484375q0.21875 -0.203125 0.71875 -0.203125l3.21875 0zm-1.390625 13.40625q0 -2.609375 -1.765625 -4.390625q-1.75 -1.796875 -4.171875 -1.796875q-2.4375 0 -4.203125 1.796875q-1.75 1.78125 -1.75 4.390625q0 2.59375 1.75 4.390625q1.765625 1.796875 4.203125 1.796875q2.421875 0 4.171875 -1.796875q1.765625 -1.796875 1.765625 -4.390625zm13.046997 -7.078125l0 3.453125q2.671875 -2.40625 4.0 -3.09375q1.328125 -0.703125 2.453125 -0.703125q1.21875 0 2.265625 0.828125q1.046875 0.8125 1.046875 1.234375q0 0.3125 -0.203125 0.515625q-0.203125 0.203125 -0.515625 0.203125q-0.15625 0 -0.28125 -0.046875q-0.109375 -0.0625 -0.40625 -0.375q-0.578125 -0.5625 -1.0 -0.765625q-0.421875 -0.21875 -0.828125 -0.21875q-0.890625 0 -2.15625 0.71875q-1.265625 0.703125 -4.375 3.484375l0 7.5l6.0625 0q0.5 0 0.703125 0.1875q0.21875 0.171875 0.21875 0.484375q0 0.296875 -0.21875 0.5q-0.203125 0.1875 -0.703125 0.1875l-10.734375 0q-0.484375 0 -0.703125 -0.1875q-0.203125 -0.1875 -0.203125 -0.484375q0 -0.265625 0.203125 -0.453125q0.203125 -0.1875 0.703125 -0.1875l3.3125 0l0 -11.390625l-2.53125 0q-0.484375 0 -0.703125 -0.1875q-0.203125 -0.203125 -0.203125 -0.515625q0 -0.296875 0.203125 -0.484375q0.203125 -0.203125 0.703125 -0.203125l3.890625 0zm25.578278 14.09375l0 -1.96875q-2.984375 2.5 -6.375 2.5q-2.453125 0 -3.84375 -1.234375q-1.375 -1.25 -1.375 -3.0625q0 -1.984375 1.8125 -3.453125q1.828125 -1.484375 5.328125 -1.484375q0.953125 0 2.046875 0.125q1.109375 0.109375 2.40625 0.375l0 -2.21875q0 -1.109375 -1.046875 -1.9375q-1.046875 -0.84375 -3.125 -0.84375q-1.59375 0 -4.484375 0.9375q-0.515625 0.15625 -0.65625 0.15625q-0.265625 0 -0.453125 -0.1875q-0.1875 -0.203125 -0.1875 -0.5q0 -0.265625 0.171875 -0.4375q0.21875 -0.234375 1.828125 -0.65625q2.546875 -0.6875 3.84375 -0.6875q2.59375 0 4.03125 1.28125q1.453125 1.265625 1.453125 2.875l0 9.0625l1.828125 0q0.5 0 0.703125 0.1875q0.21875 0.171875 0.21875 0.484375q0 0.296875 -0.21875 0.5q-0.203125 0.1875 -0.703125 0.1875l-3.203125 0zm0 -6.796875q-0.96875 -0.28125 -2.046875 -0.40625q-1.0625 -0.140625 -2.25 -0.140625q-2.984375 0 -4.65625 1.296875q-1.28125 0.953125 -1.28125 2.28125q0 1.25 0.96875 2.09375q0.96875 0.84375 2.828125 0.84375q1.78125 0 3.296875 -0.703125q1.515625 -0.71875 3.140625 -2.265625l0 -3.0zm20.781372 6.796875l-1.703125 0.015625l-3.0 -8.78125l-3.0 8.78125l-1.6875 -0.015625l-2.84375 -12.703125l-0.65625 0q-0.5 0 -0.71875 -0.1875q-0.203125 -0.203125 -0.203125 -0.515625q0 -0.296875 0.203125 -0.484375q0.21875 -0.203125 0.71875 -0.203125l3.75 0q0.484375 0 0.703125 0.203125q0.21875 0.1875 0.21875 0.5q0 0.296875 -0.21875 0.5q-0.21875 0.1875 -0.703125 0.1875l-1.734375 0l2.421875 10.828125l2.90625 -8.65625l1.640625 0l2.984375 8.65625l2.328125 -10.828125l-1.71875 0q-0.5 0 -0.71875 -0.1875q-0.21875 -0.203125 -0.21875 -0.515625q0 -0.296875 0.203125 -0.484375q0.21875 -0.203125 0.734375 -0.203125l3.734375 0q0.515625 0 0.71875 0.203125q0.21875 0.1875 0.21875 0.5q0 0.296875 -0.21875 0.5q-0.203125 0.1875 -0.71875 0.1875l-0.640625 0l-2.78125 12.703125zm39.781525 -6.359375l-8.984375 0l-1.84375 5.0l2.625 0q0.484375 0 0.6875 0.1875q0.21875 0.171875 0.21875 0.484375q0 0.296875 -0.21875 0.5q-0.203125 0.1875 -0.6875 0.1875l-5.109375 0q-0.484375 0 -0.703125 -0.1875q-0.203125 -0.203125 -0.203125 -0.5q0 -0.3125 0.203125 -0.484375q0.21875 -0.1875 0.703125 -0.1875l1.0625 0l6.03125 -16.3125l-4.03125 0q-0.484375 0 -0.703125 -0.1875q-0.203125 -0.1875 -0.203125 -0.5q0 -0.3125 0.203125 -0.5q0.21875 -0.1875 0.703125 -0.1875l6.875 0l6.671875 17.6875l1.0625 0q0.484375 0 0.6875 0.1875q0.21875 0.171875 0.21875 0.484375q0 0.296875 -0.21875 0.5q-0.203125 0.1875 -0.6875 0.1875l-5.09375 0q-0.5 0 -0.71875 -0.1875q-0.203125 -0.203125 -0.203125 -0.5q0 -0.3125 0.203125 -0.484375q0.21875 -0.1875 0.71875 -0.1875l2.609375 0l-1.875 -5.0zm-0.515625 -1.375l-3.78125 -9.9375l-0.5 0l-3.671875 9.9375l7.953125 0zm20.531403 -5.46875q0 -0.46875 0.1875 -0.671875q0.203125 -0.21875 0.5 -0.21875q0.3125 0 0.5 0.21875q0.203125 0.203125 0.203125 0.703125l0 2.34375q0 0.5 -0.203125 0.71875q-0.1875 0.203125 -0.5 0.203125q-0.28125 0 -0.46875 -0.171875q-0.1875 -0.1875 -0.21875 -0.59375q-0.09375 -0.984375 -1.015625 -1.609375q-1.328125 -0.921875 -3.53125 -0.921875q-2.28125 0 -3.5625 0.9375q-0.953125 0.6875 -0.953125 1.5625q0 0.96875 1.140625 1.625q0.78125 0.453125 2.953125 0.703125q2.859375 0.296875 3.953125 0.6875q1.578125 0.578125 2.34375 1.59375q0.78125 1.0 0.78125 2.171875q0 1.734375 -1.671875 3.09375q-1.671875 1.359375 -4.90625 1.359375q-3.25 0 -5.3125 -1.640625q0 0.5625 -0.0625 0.71875q-0.0625 0.15625 -0.234375 0.28125q-0.171875 0.109375 -0.390625 0.109375q-0.28125 0 -0.484375 -0.203125q-0.1875 -0.21875 -0.1875 -0.703125l0 -2.828125q0 -0.484375 0.1875 -0.6875q0.1875 -0.21875 0.484375 -0.21875q0.296875 0 0.5 0.203125q0.203125 0.203125 0.203125 0.546875q0 0.75 0.375 1.25q0.578125 0.78125 1.8125 1.296875q1.25 0.515625 3.046875 0.515625q2.671875 0 3.96875 -0.984375q1.3125 -1.0 1.3125 -2.109375q0 -1.265625 -1.3125 -2.03125q-1.34375 -0.765625 -3.890625 -1.015625q-2.546875 -0.265625 -3.65625 -0.6875q-1.09375 -0.4375 -1.71875 -1.28125q-0.625 -0.84375 -0.625 -1.8125q0 -1.765625 1.71875 -2.796875q1.734375 -1.03125 4.125 -1.03125q2.828125 0 4.609375 1.375zm20.000122 0q0 -0.46875 0.1875 -0.671875q0.203125 -0.21875 0.5 -0.21875q0.3125 0 0.5 0.21875q0.203125 0.203125 0.203125 0.703125l0 2.34375q0 0.5 -0.203125 0.71875q-0.1875 0.203125 -0.5 0.203125q-0.28125 0 -0.46875 -0.171875q-0.1875 -0.1875 -0.21875 -0.59375q-0.09375 -0.984375 -1.015625 -1.609375q-1.328125 -0.921875 -3.53125 -0.921875q-2.28125 0 -3.5625 0.9375q-0.953125 0.6875 -0.953125 1.5625q0 0.96875 1.140625 1.625q0.78125 0.453125 2.953125 0.703125q2.859375 0.296875 3.953125 0.6875q1.578125 0.578125 2.34375 1.59375q0.78125 1.0 0.78125 2.171875q0 1.734375 -1.671875 3.09375q-1.671875 1.359375 -4.90625 1.359375q-3.25 0 -5.3125 -1.640625q0 0.5625 -0.0625 0.71875q-0.0625 0.15625 -0.234375 0.28125q-0.171875 0.109375 -0.390625 0.109375q-0.28125 0 -0.484375 -0.203125q-0.1875 -0.21875 -0.1875 -0.703125l0 -2.828125q0 -0.484375 0.1875 -0.6875q0.1875 -0.21875 0.484375 -0.21875q0.296875 0 0.5 0.203125q0.203125 0.203125 0.203125 0.546875q0 0.75 0.375 1.25q0.578125 0.78125 1.8125 1.296875q1.25 0.515625 3.046875 0.515625q2.671875 0 3.96875 -0.984375q1.3125 -1.0 1.3125 -2.109375q0 -1.265625 -1.3125 -2.03125q-1.34375 -0.765625 -3.890625 -1.015625q-2.546875 -0.265625 -3.65625 -0.6875q-1.09375 -0.4375 -1.71875 -1.28125q-0.625 -0.84375 -0.625 -1.8125q0 -1.765625 1.71875 -2.796875q1.734375 -1.03125 4.125 -1.03125q2.828125 0 4.609375 1.375zm22.875153 6.484375l-13.9219055 0q0.359375 2.65625 2.21875 4.28125q1.859375 1.609375 4.609375 1.609375q1.5312805 0 3.2031555 -0.5q1.6875 -0.515625 2.734375 -1.34375q0.3125 -0.234375 0.546875 -0.234375q0.25 0 0.4375 0.203125q0.203125 0.203125 0.203125 0.46875q0 0.28125 -0.25 0.546875q-0.78125 0.8125 -2.78125 1.515625q-1.984375 0.703125 -4.0937805 0.703125q-3.515625 0 -5.875 -2.296875q-2.34375 -2.296875 -2.34375 -5.578125q0 -2.96875 2.203125 -5.09375q2.21875 -2.140625 5.46875 -2.140625q3.3437805 0 5.5000305 2.1875q2.171875 2.1875 2.140625 5.671875zm-1.375 -1.390625q-0.40625 -2.25 -2.140625 -3.671875q-1.734375 -1.421875 -4.1250305 -1.421875q-2.390625 0 -4.125 1.40625q-1.71875 1.390625 -2.140625 3.6875l12.5312805 0zm11.171997 -5.984375l7.421875 0q0.5 0 0.703125 0.203125q0.21875 0.1875 0.21875 0.5q0 0.296875 -0.21875 0.5q-0.203125 0.1875 -0.703125 0.1875l-7.421875 0l0 9.09375q0 1.1875 0.953125 1.984375q0.953125 0.796875 2.796875 0.796875q1.375 0 2.984375 -0.40625q1.625 -0.421875 2.515625 -0.953125q0.328125 -0.203125 0.53125 -0.203125q0.265625 0 0.453125 0.203125q0.203125 0.203125 0.203125 0.484375q0 0.234375 -0.21875 0.453125q-0.515625 0.53125 -2.53125 1.15625q-2.0 0.625 -3.84375 0.625q-2.390625 0 -3.8125 -1.109375q-1.40625 -1.125 -1.40625 -3.03125l0 -9.09375l-2.53125 0q-0.484375 0 -0.703125 -0.1875q-0.203125 -0.203125 -0.203125 -0.515625q0 -0.296875 0.203125 -0.484375q0.21875 -0.203125 0.703125 -0.203125l2.53125 0l0 -4.03125q0 -0.484375 0.1875 -0.703125q0.203125 -0.21875 0.5 -0.21875q0.296875 0 0.484375 0.21875q0.203125 0.21875 0.203125 0.703125l0 4.03125z" fill-rule="nonzero"/><path fill="#f2f4f4" d="m70.756195 198.31364l0 -56.0l0 0c0 -30.92794 25.072052 -55.999992 56.0 -55.999992l44.503937 0l0 -16.0l32.0 32.0l-32.0 31.999992l0 -15.999992l-44.503937 0l0 0c-13.254829 0 -24.0 10.745171 -24.0 23.999992l0 56.0z" fill-rule="evenodd"/><path stroke="#3d3d3d" stroke-width="1.0" stroke-linejoin="round" stroke-linecap="butt" d="m70.756195 198.31364l0 -56.0l0 0c0 -30.92794 25.072052 -55.999992 56.0 -55.999992l44.503937 0l0 -16.0l32.0 32.0l-32.0 31.999992l0 -15.999992l-44.503937 0l0 0c-13.254829 0 -24.0 10.745171 -24.0 23.999992l0 56.0z" fill-rule="evenodd"/></g></svg>