<svg version="1.1" viewBox="0.0 0.0 614.7322834645669 841.4671916010499" fill="none" stroke="none" stroke-linecap="square" stroke-miterlimit="10" xmlns:xlink="http://www.w3.org/1999/xlink" xmlns="http://www.w3.org/2000/svg"><clipPath id="p.0"><path d="m0 0l614.7323 0l0 841.46716l-614.7323 0l0 -841.46716z" clip-rule="nonzero"/></clipPath><g clip-path="url(#p.0)"><path fill="#000000" fill-opacity="0.0" d="m0 0l614.7323 0l0 841.46716l-614.7323 0z" fill-rule="evenodd"/><path fill="#000000" fill-opacity="0.0" d="m99.5981 797.5522l0 -758.4882" fill-rule="evenodd"/><path stroke="#ffffff" stroke-width="8.0" stroke-linejoin="round" stroke-linecap="butt" d="m99.5981 797.5522l0 -710.4882" fill-rule="evenodd"/><path fill="#ffffff" stroke="#ffffff" stroke-width="8.0" stroke-linecap="butt" d="m112.81196 87.06397l-13.21386 -36.304783l-13.21386 36.304783z" fill-rule="evenodd"/><path fill="#000000" fill-opacity="0.0" d="m19.238518 797.5522l0 -781.2284l38.015747 0l0 781.2284z" fill-rule="evenodd"/><path fill="#ffffff" d="m46.88639 796.03656l-17.453125 0l0 -6.890625q0 -1.984375 0.75 -3.375q0.75 -1.40625 2.09375 -2.140625q1.328125 -0.734375 3.0625 -0.734375q1.75 0 3.078125 0.75q1.328125 0.75 2.078125 2.171875q0.734375 1.40625 0.734375 3.421875l0 4.390625l-2.953125 0l0 -3.796875q0 -1.0625 -0.375 -1.75q-0.375 -0.703125 -1.03125 -1.046875q-0.65625 -0.34375 -1.53125 -0.34375q-0.859375 0 -1.515625 0.34375q-0.65625 0.34375 -1.015625 1.046875q-0.359375 0.703125 -0.359375 1.765625l0 2.5l14.4375 0l0 3.6875zm0.25 -18.867981q0 1.265625 -0.4375 2.25q-0.4375 0.96875 -1.296875 1.546875q-0.875 0.5625 -2.171875 0.5625q-1.09375 0 -1.828125 -0.40625q-0.75 -0.40625 -1.203125 -1.09375q-0.453125 -0.6875 -0.671875 -1.5625q-0.234375 -0.890625 -0.328125 -1.859375q-0.125 -1.140625 -0.21875 -1.84375q-0.109375 -0.703125 -0.328125 -1.015625q-0.21875 -0.3125 -0.625 -0.3125l-0.0625 0q-0.796875 0 -1.234375 0.515625q-0.453125 0.5 -0.453125 1.421875q0 0.984375 0.4375 1.5625q0.421875 0.578125 1.0625 0.765625l-0.265625 3.359375q-1.1875 -0.25 -2.0625 -1.0q-0.875 -0.75 -1.34375 -1.9375q-0.484375 -1.1875 -0.484375 -2.765625q0 -1.09375 0.265625 -2.09375q0.25 -1.0 0.796875 -1.78125q0.53125 -0.78125 1.375 -1.21875q0.828125 -0.453125 2.0 -0.453125l8.828125 0l0 3.4375l-1.8125 0l0 0.09375q0.609375 0.328125 1.078125 0.859375q0.46875 0.515625 0.734375 1.265625q0.25 0.734375 0.25 1.703125zm-2.515625 -1.03125q0 -0.796875 -0.3125 -1.40625q-0.3125 -0.625 -0.859375 -0.96875q-0.546875 -0.359375 -1.234375 -0.359375l-1.390625 0q0.109375 0.171875 0.203125 0.46875q0.078125 0.296875 0.15625 0.671875q0.0625 0.359375 0.125 0.734375q0.0625 0.359375 0.09375 0.65625q0.09375 0.640625 0.296875 1.125q0.203125 0.46875 0.5625 0.734375q0.34375 0.265625 0.84375 0.265625q0.75 0 1.140625 -0.546875q0.375 -0.546875 0.375 -1.375zm2.265625 -9.160522l-13.09375 0l0 -3.515625l2.28125 0l0 -0.140625q-1.21875 -0.359375 -1.84375 -1.203125q-0.625 -0.84375 -0.625 -1.9375q0 -0.265625 0.046875 -0.578125q0.03125 -0.328125 0.078125 -0.5625l3.234375 0q-0.078125 0.25 -0.140625 0.703125q-0.0625 0.453125 -0.0625 0.828125q0 0.796875 0.34375 1.4375q0.34375 0.625 0.96875 0.984375q0.609375 0.359375 1.40625 0.359375l7.40625 0l0 3.625zm0.25 -13.177612q0 1.265625 -0.4375 2.25q-0.4375 0.96875 -1.296875 1.546875q-0.875 0.5625 -2.171875 0.5625q-1.09375 0 -1.828125 -0.40625q-0.75 -0.40625 -1.203125 -1.09375q-0.453125 -0.6875 -0.671875 -1.5625q-0.234375 -0.890625 -0.328125 -1.859375q-0.125 -1.140625 -0.21875 -1.84375q-0.109375 -0.703125 -0.328125 -1.015625q-0.21875 -0.3125 -0.625 -0.3125l-0.0625 0q-0.796875 0 -1.234375 0.515625q-0.453125 0.5 -0.453125 1.421875q0 0.984375 0.4375 1.5625q0.421875 0.578125 1.0625 0.765625l-0.265625 3.359375q-1.1875 -0.25 -2.0625 -1.0q-0.875 -0.75 -1.34375 -1.9375q-0.484375 -1.1875 -0.484375 -2.765625q0 -1.09375 0.265625 -2.09375q0.25 -1.0 0.796875 -1.78125q0.53125 -0.78125 1.375 -1.21875q0.828125 -0.453125 2.0 -0.453125l8.828125 0l0 3.4375l-1.8125 0l0 0.09375q0.609375 0.328125 1.078125 0.859375q0.46875 0.515625 0.734375 1.265625q0.25 0.734375 0.25 1.703125zm-2.515625 -1.03125q0 -0.796875 -0.3125 -1.40625q-0.3125 -0.625 -0.859375 -0.96875q-0.546875 -0.359375 -1.234375 -0.359375l-1.390625 0q0.109375 0.171875 0.203125 0.46875q0.078125 0.296875 0.15625 0.671875q0.0625 0.359375 0.125 0.734375q0.0625 0.359375 0.09375 0.65625q0.09375 0.640625 0.296875 1.125q0.203125 0.46875 0.5625 0.734375q0.34375 0.265625 0.84375 0.265625q0.75 0 1.140625 -0.546875q0.375 -0.546875 0.375 -1.375zm2.515625 -15.066772q0 2.0 -0.84375 3.453125q-0.859375 1.4375 -2.390625 2.21875q-1.53125 0.765625 -3.515625 0.765625q-2.0 0 -3.515625 -0.78125q-1.53125 -0.78125 -2.390625 -2.21875q-0.859375 -1.4375 -0.859375 -3.421875q0 -1.71875 0.625 -3.0q0.625 -1.296875 1.75 -2.046875q1.125 -0.75 2.640625 -0.8125l0 3.421875q-0.984375 0.140625 -1.578125 0.765625q-0.609375 0.609375 -0.609375 1.609375q0 0.84375 0.46875 1.46875q0.453125 0.625 1.328125 0.984375q0.859375 0.34375 2.09375 0.34375q1.25 0 2.140625 -0.34375q0.875 -0.34375 1.34375 -0.96875q0.453125 -0.640625 0.453125 -1.484375q0 -0.625 -0.25 -1.125q-0.265625 -0.5 -0.75 -0.828125q-0.5 -0.328125 -1.1875 -0.421875l0 -3.421875q1.5 0.078125 2.640625 0.8125q1.140625 0.71875 1.78125 2.0q0.625 1.28125 0.625 3.03125zm-7.8125 -11.81543l7.5625 0l0 3.625l-17.453125 0l0 -3.53125l6.671875 0l0 -0.140625q-1.15625 -0.453125 -1.8125 -1.4375q-0.671875 -0.984375 -0.671875 -2.484375q0 -1.359375 0.59375 -2.375q0.59375 -1.015625 1.703125 -1.578125q1.09375 -0.578125 2.640625 -0.5625l8.328125 0l0 3.625l-7.6875 0q-1.203125 -0.015625 -1.875 0.609375q-0.6875 0.625 -0.6875 1.71875q0 0.75 0.328125 1.3125q0.3125 0.5625 0.921875 0.890625q0.59375 0.3125 1.4375 0.328125zm7.8125 -15.092346q0 1.265625 -0.4375 2.25q-0.4375 0.96875 -1.296875 1.546875q-0.875 0.5625 -2.171875 0.5625q-1.09375 0 -1.828125 -0.40625q-0.75 -0.40625 -1.203125 -1.09375q-0.453125 -0.6875 -0.671875 -1.5625q-0.234375 -0.890625 -0.328125 -1.859375q-0.125 -1.140625 -0.21875 -1.84375q-0.109375 -0.703125 -0.328125 -1.015625q-0.21875 -0.3125 -0.625 -0.3125l-0.0625 0q-0.796875 0 -1.234375 0.515625q-0.453125 0.5 -0.453125 1.421875q0 0.984375 0.4375 1.5625q0.421875 0.578125 1.0625 0.765625l-0.265625 3.359375q-1.1875 -0.25 -2.0625 -1.0q-0.875 -0.75 -1.34375 -1.9375q-0.484375 -1.1875 -0.484375 -2.765625q0 -1.09375 0.265625 -2.09375q0.25 -1.0 0.796875 -1.78125q0.53125 -0.78125 1.375 -1.21875q0.828125 -0.453125 2.0 -0.453125l8.828125 0l0 3.4375l-1.8125 0l0 0.09375q0.609375 0.328125 1.078125 0.859375q0.46875 0.515625 0.734375 1.265625q0.25 0.734375 0.25 1.703125zm-2.515625 -1.03125q0 -0.796875 -0.3125 -1.40625q-0.3125 -0.625 -0.859375 -0.96875q-0.546875 -0.359375 -1.234375 -0.359375l-1.390625 0q0.109375 0.171875 0.203125 0.46875q0.078125 0.296875 0.15625 0.671875q0.0625 0.359375 0.125 0.734375q0.0625 0.359375 0.09375 0.65625q0.09375 0.640625 0.296875 1.125q0.203125 0.46875 0.5625 0.734375q0.34375 0.265625 0.84375 0.265625q0.75 0 1.140625 -0.546875q0.375 -0.546875 0.375 -1.375zm2.265625 -9.160522l-13.09375 0l0 -3.625l13.09375 0l0 3.625zm-14.78125 -1.8125q0 0.796875 -0.53125 1.375q-0.546875 0.578125 -1.3125 0.578125q-0.75 0 -1.28125 -0.578125q-0.546875 -0.578125 -0.546875 -1.375q0 -0.8125 0.546875 -1.390625q0.53125 -0.578125 1.28125 -0.578125q0.765625 0 1.3125 0.578125q0.53125 0.578125 0.53125 1.390625zm7.21875 -8.340942l7.5625 0l0 3.625l-13.09375 0l0 -3.453125l2.3125 0l0 -0.15625q-1.140625 -0.4375 -1.8125 -1.453125q-0.671875 -1.03125 -0.671875 -2.484375q0 -1.359375 0.609375 -2.375q0.59375 -1.015625 1.703125 -1.578125q1.09375 -0.5625 2.625 -0.5625l8.328125 0l0 3.625l-7.6875 0q-1.203125 0 -1.875 0.625q-0.6875 0.609375 -0.6875 1.703125q0 0.734375 0.328125 1.296875q0.3125 0.5625 0.921875 0.875q0.59375 0.296875 1.4375 0.3125zm7.5625 -16.926208l-17.453125 0l0 -6.984375q0 -1.9375 0.578125 -3.21875q0.5625 -1.28125 1.578125 -1.921875q1.0 -0.65625 2.3125 -0.65625q1.03125 0 1.796875 0.40625q0.765625 0.40625 1.265625 1.125q0.484375 0.703125 0.6875 1.625l0.171875 0q0.046875 -1.0 0.5625 -1.875q0.515625 -0.875 1.453125 -1.421875q0.9375 -0.546875 2.21875 -0.546875q1.390625 0 2.484375 0.6875q1.078125 0.6875 1.71875 2.03125q0.625 1.328125 0.625 3.296875l0 7.453125zm-3.015625 -3.6875l0 -3.015625q0 -1.546875 -0.59375 -2.25q-0.59375 -0.703125 -1.578125 -0.703125q-0.734375 0 -1.28125 0.359375q-0.546875 0.34375 -0.859375 0.984375q-0.328125 0.640625 -0.328125 1.53125l0 3.09375l4.640625 0zm-7.140625 0l0 -2.734375q0 -0.765625 -0.265625 -1.359375q-0.265625 -0.59375 -0.75 -0.9375q-0.5 -0.34375 -1.1875 -0.34375q-0.953125 0 -1.53125 0.671875q-0.578125 0.671875 -0.578125 1.890625l0 2.8125l4.3125 0zm-7.296875 -15.73584l17.453125 0l0 3.625l-17.453125 0l0 -3.625zm17.703125 -8.809692q0 1.984375 -0.84375 3.4375q-0.84375 1.4375 -2.359375 2.21875q-1.53125 0.78125 -3.546875 0.78125q-2.015625 0 -3.53125 -0.78125q-1.53125 -0.78125 -2.375 -2.21875q-0.859375 -1.453125 -0.859375 -3.4375q0 -1.984375 0.859375 -3.421875q0.84375 -1.453125 2.375 -2.234375q1.515625 -0.796875 3.53125 -0.796875q2.015625 0 3.546875 0.796875q1.515625 0.78125 2.359375 2.234375q0.84375 1.4375 0.84375 3.421875zm-2.8125 -0.015625q0 -0.90625 -0.515625 -1.515625q-0.515625 -0.609375 -1.40625 -0.90625q-0.890625 -0.3125 -2.03125 -0.3125q-1.140625 0 -2.03125 0.3125q-0.90625 0.296875 -1.421875 0.90625q-0.515625 0.609375 -0.515625 1.515625q0 0.90625 0.515625 1.53125q0.515625 0.609375 1.421875 0.921875q0.890625 0.3125 2.03125 0.3125q1.140625 0 2.03125 -0.3125q0.890625 -0.3125 1.40625 -0.921875q0.515625 -0.625 0.515625 -1.53125zm2.8125 -14.71167q0 2.0 -0.84375 3.453125q-0.859375 1.4375 -2.390625 2.21875q-1.53125 0.765625 -3.515625 0.765625q-2.0 0 -3.515625 -0.78125q-1.53125 -0.78125 -2.390625 -2.21875q-0.859375 -1.4375 -0.859375 -3.421875q0 -1.71875 0.625 -3.0q0.625 -1.296875 1.75 -2.046875q1.125 -0.75 2.640625 -0.8125l0 3.421875q-0.984375 0.140625 -1.578125 0.765625q-0.609375 0.609375 -0.609375 1.609375q0 0.84375 0.46875 1.46875q0.453125 0.625 1.328125 0.984375q0.859375 0.34375 2.09375 0.34375q1.25 0 2.140625 -0.34375q0.875 -0.34375 1.34375 -0.96875q0.453125 -0.640625 0.453125 -1.484375q0 -0.625 -0.25 -1.125q-0.265625 -0.5 -0.75 -0.828125q-0.5 -0.328125 -1.1875 -0.421875l0 -3.421875q1.5 0.078125 2.640625 0.8125q1.140625 0.71875 1.78125 2.0q0.625 1.28125 0.625 3.03125zm-4.015625 -11.471619l-4.359375 -0.015625l0 -0.53125l-4.96875 -4.1875l0 -4.171875l6.578125 5.640625l0 0.859375l2.75 2.40625zm3.765625 3.28125l-17.453125 0l0 -3.625l17.453125 0l0 3.625zm0 -8.171875l-5.703125 3.84375l-2.5625 -2.421875l8.265625 -5.6875l0 4.265625zm-9.359375 -16.679016l0.203125 3.328125q-0.421875 0.078125 -0.765625 0.359375q-0.34375 0.28125 -0.546875 0.75q-0.21875 0.453125 -0.21875 1.078125q0 0.84375 0.359375 1.421875q0.34375 0.578125 0.9375 0.578125q0.46875 0 0.796875 -0.375q0.3125 -0.375 0.515625 -1.28125l0.46875 -2.375q0.40625 -1.90625 1.28125 -2.84375q0.859375 -0.9375 2.265625 -0.9375q1.296875 0 2.265625 0.765625q0.96875 0.75 1.515625 2.0625q0.53125 1.296875 0.53125 3.0q0 2.609375 -1.078125 4.140625q-1.09375 1.53125 -2.96875 1.796875l-0.1875 -3.5625q0.796875 -0.171875 1.21875 -0.78125q0.40625 -0.625 0.40625 -1.59375q0 -0.953125 -0.375 -1.53125q-0.375 -0.59375 -0.953125 -0.609375q-0.5 0.015625 -0.8125 0.421875q-0.328125 0.40625 -0.5 1.265625l-0.453125 2.265625q-0.375 1.921875 -1.3125 2.859375q-0.953125 0.921875 -2.421875 0.921875q-1.265625 0 -2.171875 -0.6875q-0.90625 -0.6875 -1.40625 -1.9375q-0.5 -1.25 -0.5 -2.921875q0 -2.484375 1.046875 -3.90625q1.046875 -1.4375 2.859375 -1.671875zm9.609375 -11.89209q0 1.265625 -0.4375 2.25q-0.4375 0.96875 -1.296875 1.546875q-0.875 0.5625 -2.171875 0.5625q-1.09375 0 -1.828125 -0.40625q-0.75 -0.40625 -1.203125 -1.09375q-0.453125 -0.6875 -0.671875 -1.5625q-0.234375 -0.890625 -0.328125 -1.859375q-0.125 -1.140625 -0.21875 -1.84375q-0.109375 -0.703125 -0.328125 -1.015625q-0.21875 -0.3125 -0.625 -0.3125l-0.0625 0q-0.796875 0 -1.234375 0.515625q-0.453125 0.5 -0.453125 1.421875q0 0.984375 0.4375 1.5625q0.421875 0.578125 1.0625 0.765625l-0.265625 3.359375q-1.1875 -0.25 -2.0625 -1.0q-0.875 -0.75 -1.34375 -1.9375q-0.484375 -1.1875 -0.484375 -2.765625q0 -1.09375 0.265625 -2.09375q0.25 -1.0 0.796875 -1.78125q0.53125 -0.78125 1.375 -1.21875q0.828125 -0.453125 2.0 -0.453125l8.828125 0l0 3.4375l-1.8125 0l0 0.09375q0.609375 0.328125 1.078125 0.859375q0.46875 0.515625 0.734375 1.265625q0.25 0.734375 0.25 1.703125zm-2.515625 -1.03125q0 -0.796875 -0.3125 -1.40625q-0.3125 -0.625 -0.859375 -0.96875q-0.546875 -0.359375 -1.234375 -0.359375l-1.390625 0q0.109375 0.171875 0.203125 0.46875q0.078125 0.296875 0.15625 0.671875q0.0625 0.359375 0.125 0.734375q0.0625 0.359375 0.09375 0.65625q0.09375 0.640625 0.296875 1.125q0.203125 0.46875 0.5625 0.734375q0.34375 0.265625 0.84375 0.265625q0.75 0 1.140625 -0.546875q0.375 -0.546875 0.375 -1.375zm-5.296875 -12.7855835l7.5625 0l0 3.625l-13.09375 0l0 -3.453125l2.3125 0l0 -0.15625q-1.140625 -0.4375 -1.8125 -1.453125q-0.671875 -1.03125 -0.671875 -2.484375q0 -1.359375 0.609375 -2.375q0.59375 -1.015625 1.703125 -1.578125q1.09375 -0.5625 2.625 -0.5625l8.328125 0l0 3.625l-7.6875 0q-1.203125 0 -1.875 0.625q-0.6875 0.609375 -0.6875 1.703125q0 0.734375 0.328125 1.296875q0.3125 0.5625 0.921875 0.875q0.59375 0.296875 1.4375 0.3125zm7.78125 -16.11084q0 1.484375 -0.765625 2.6875q-0.78125 1.203125 -2.28125 1.90625q-1.515625 0.703125 -3.703125 0.703125q-2.25 0 -3.734375 -0.71875q-1.5 -0.71875 -2.25 -1.921875q-0.75 -1.21875 -0.75 -2.65625q0 -1.09375 0.375 -1.828125q0.375 -0.75 0.921875 -1.203125q0.546875 -0.453125 1.078125 -0.6875l0 -0.109375l-6.5625 0l0 -3.625l17.453125 0l0 3.578125l-2.09375 0l0 0.15625q0.546875 0.25 1.078125 0.71875q0.53125 0.46875 0.890625 1.203125q0.34375 0.734375 0.34375 1.796875zm-2.890625 -1.15625q0 -0.875 -0.484375 -1.484375q-0.484375 -0.609375 -1.34375 -0.9375q-0.875 -0.328125 -2.046875 -0.328125q-1.171875 0 -2.03125 0.328125q-0.859375 0.3125 -1.328125 0.9375q-0.46875 0.609375 -0.46875 1.484375q0 0.890625 0.484375 1.515625q0.484375 0.609375 1.359375 0.921875q0.859375 0.3125 1.984375 0.3125q1.140625 0 2.015625 -0.3125q0.875 -0.328125 1.375 -0.9375q0.484375 -0.609375 0.484375 -1.5zm-14.78125 -18.59375l17.453125 0l0 3.6875l-17.453125 0l0 -3.6875zm9.890625 -6.607971l7.5625 0l0 3.625l-13.09375 0l0 -3.453125l2.3125 0l0 -0.15625q-1.140625 -0.4375 -1.8125 -1.453125q-0.671875 -1.03125 -0.671875 -2.484375q0 -1.359375 0.609375 -2.375q0.59375 -1.015625 1.703125 -1.578125q1.09375 -0.5625 2.625 -0.5625l8.328125 0l0 3.625l-7.6875 0q-1.203125 0 -1.875 0.625q-0.6875 0.609375 -0.6875 1.703125q0 0.734375 0.328125 1.296875q0.3125 0.5625 0.921875 0.875q0.59375 0.296875 1.4375 0.3125zm-5.53125 -18.251495l2.734375 0l0 7.8750305l-2.734375 0l0 -7.8750305zm-3.140625 6.0937805l0 -3.640625l12.21875 0q0.5 0 0.78125 -0.140625q0.265625 -0.15625 0.375 -0.4375q0.109375 -0.28125 0.109375 -0.640625q0 -0.265625 -0.046875 -0.5156555q-0.046875 -0.25 -0.0625 -0.390625l2.703125 -0.578125q0.078125 0.28125 0.1875 0.78125q0.125 0.48440552 0.140625 1.1875305q0.0625 1.3125 -0.34375 2.296875q-0.40625 0.984375 -1.25 1.53125q-0.84375 0.546875 -2.125 0.546875l-12.6875 0zm16.484375 -14.2969055q0 2.03125 -0.8125 3.484375q-0.828125 1.453125 -2.34375 2.234375q-1.515625 0.78125 -3.578125 0.78125q-2.015625 0 -3.546875 -0.78125q-1.53125 -0.78125 -2.375 -2.203125q-0.859375 -1.4375 -0.859375 -3.359375q0 -1.296875 0.421875 -2.421875q0.40625 -1.125 1.234375 -1.953125q0.828125 -0.84375 2.078125 -1.3125q1.25 -0.46875 2.921875 -0.46875l1.0 0l0 11.046875l-2.25 0l0 -7.625q-0.796875 0 -1.390625 0.34375q-0.609375 0.328125 -0.953125 0.9375q-0.34375 0.59375 -0.34375 1.390625q0 0.828125 0.375 1.46875q0.375 0.625 1.015625 0.984375q0.640625 0.359375 1.40625 0.359375l2.140625 0q0.96875 0 1.6875 -0.359375q0.703125 -0.359375 1.09375 -1.015625q0.375 -0.671875 0.375 -1.578125q0 -0.609375 -0.171875 -1.109375q-0.171875 -0.5 -0.515625 -0.859375q-0.34375 -0.359375 -0.828125 -0.546875l0.21875 -3.359375q1.203125 0.25 2.109375 1.046875q0.90625 0.78125 1.40625 2.03125q0.484375 1.234375 0.484375 2.84375zm-0.25 -8.3750305l-13.09375 0l0 -3.515625l2.28125 0l0 -0.140625q-1.21875 -0.359375 -1.84375 -1.203125q-0.625 -0.84375 -0.625 -1.9375q0 -0.265625 0.046875 -0.578125q0.03125 -0.328125 0.078125 -0.5625l3.234375 0q-0.078125 0.25 -0.140625 0.703125q-0.0625 0.453125 -0.0625 0.828125q0 0.796875 0.34375 1.4375q0.34375 0.625 0.96875 0.984375q0.609375 0.359375 1.40625 0.359375l7.40625 0l0 3.625zm0.25 -13.177582q0 1.265625 -0.4375 2.25q-0.4375 0.96875 -1.296875 1.546875q-0.875 0.5625 -2.171875 0.5625q-1.09375 0 -1.828125 -0.40625q-0.75 -0.40625 -1.203125 -1.09375q-0.453125 -0.6875 -0.671875 -1.5625q-0.234375 -0.890625 -0.328125 -1.859375q-0.125 -1.140625 -0.21875 -1.84375q-0.109375 -0.703125 -0.328125 -1.015625q-0.21875 -0.3125 -0.625 -0.3125l-0.0625 0q-0.796875 0 -1.234375 0.515625q-0.453125 0.5 -0.453125 1.421875q0 0.984375 0.4375 1.5625q0.421875 0.578125 1.0625 0.765625l-0.265625 3.359375q-1.1875 -0.25 -2.0625 -1.0q-0.875 -0.75 -1.34375 -1.9375q-0.484375 -1.1875 -0.484375 -2.765625q0 -1.09375 0.265625 -2.09375q0.25 -1.0 0.796875 -1.78125q0.53125 -0.78125 1.375 -1.21875q0.828125 -0.453125 2.0 -0.453125l8.828125 0l0 3.4375l-1.8125 0l0 0.09375q0.609375 0.328125 1.078125 0.859375q0.46875 0.515625 0.734375 1.265625q0.25 0.734375 0.25 1.703125zm-2.515625 -1.03125q0 -0.796875 -0.3125 -1.40625q-0.3125 -0.625 -0.859375 -0.96875q-0.546875 -0.359375 -1.234375 -0.359375l-1.390625 0q0.109375 0.171875 0.203125 0.46875q0.078125 0.296875 0.15625 0.671875q0.0625 0.359375 0.125 0.734375q0.0625 0.359375 0.09375 0.65625q0.09375 0.640625 0.296875 1.125q0.203125 0.46875 0.5625 0.734375q0.34375 0.265625 0.84375 0.265625q0.75 0 1.140625 -0.546875q0.375 -0.546875 0.375 -1.375zm2.515625 -15.066803q0 2.0 -0.84375 3.453125q-0.859375 1.4375 -2.390625 2.21875q-1.53125 0.765625 -3.515625 0.765625q-2.0 0 -3.515625 -0.78125q-1.53125 -0.78125 -2.390625 -2.21875q-0.859375 -1.4375 -0.859375 -3.421875q0 -1.71875 0.625 -3.0q0.625 -1.296875 1.75 -2.046875q1.125 -0.75 2.640625 -0.8125l0 3.421875q-0.984375 0.140625 -1.578125 0.765625q-0.609375 0.609375 -0.609375 1.609375q0 0.84375 0.46875 1.46875q0.453125 0.625 1.328125 0.984375q0.859375 0.34375 2.09375 0.34375q1.25 0 2.140625 -0.34375q0.875 -0.34375 1.34375 -0.96875q0.453125 -0.640625 0.453125 -1.484375q0 -0.625 -0.25 -1.125q-0.265625 -0.5 -0.75 -0.828125q-0.5 -0.328125 -1.1875 -0.421875l0 -3.421875q1.5 0.078125 2.640625 0.8125q1.140625 0.71875 1.78125 2.0q0.625 1.28125 0.625 3.03125zm-13.34375 -15.143524l2.734375 0l0 7.875l-2.734375 0l0 -7.875zm-3.140625 6.09375l0 -3.640625l12.21875 0q0.5 0 0.78125 -0.140625q0.265625 -0.15625 0.375 -0.4375q0.109375 -0.28125 0.109375 -0.640625q0 -0.265625 -0.046875 -0.515625q-0.046875 -0.25 -0.0625 -0.390625l2.703125 -0.578125q0.078125 0.28125 0.1875 0.78125q0.125 0.484375 0.140625 1.1875q0.0625 1.3125 -0.34375 2.296875q-0.40625 0.984375 -1.25 1.53125q-0.84375 0.546875 -2.125 0.546875l-12.6875 0zm16.234375 -8.464508l-13.09375 0l0 -3.625l13.09375 0l0 3.625zm-14.78125 -1.8125q0 0.796875 -0.53125 1.375q-0.546875 0.578125 -1.3125 0.578125q-0.75 0 -1.28125 -0.578125q-0.546875 -0.578125 -0.546875 -1.375q0 -0.8125 0.546875 -1.390625q0.53125 -0.578125 1.28125 -0.578125q0.765625 0 1.3125 0.578125q0.53125 0.578125 0.53125 1.390625zm15.03125 -10.622162q0 1.984375 -0.84375 3.4375q-0.84375 1.4375 -2.359375 2.21875q-1.53125 0.78125 -3.546875 0.78125q-2.015625 0 -3.53125 -0.78125q-1.53125 -0.78125 -2.375 -2.21875q-0.859375 -1.453125 -0.859375 -3.4375q0 -1.984375 0.859375 -3.421875q0.84375 -1.453125 2.375 -2.234375q1.515625 -0.796875 3.53125 -0.796875q2.015625 0 3.546875 0.796875q1.515625 0.78125 2.359375 2.234375q0.84375 1.4375 0.84375 3.421875zm-2.8125 -0.015625q0 -0.90625 -0.515625 -1.515625q-0.515625 -0.609375 -1.40625 -0.90625q-0.890625 -0.3125 -2.03125 -0.3125q-1.140625 0 -2.03125 0.3125q-0.90625 0.296875 -1.421875 0.90625q-0.515625 0.609375 -0.515625 1.515625q0 0.90625 0.515625 1.53125q0.515625 0.609375 1.421875 0.921875q0.890625 0.3125 2.03125 0.3125q1.140625 0 2.03125 -0.3125q0.890625 -0.3125 1.40625 -0.921875q0.515625 -0.625 0.515625 -1.53125zm-5.0 -12.43042l7.5625 0l0 3.625l-13.09375 0l0 -3.453125l2.3125 0l0 -0.15625q-1.140625 -0.4375 -1.8125 -1.453125q-0.671875 -1.03125 -0.671875 -2.484375q0 -1.359375 0.609375 -2.375q0.59375 -1.015625 1.703125 -1.578125q1.09375 -0.5625 2.625 -0.5625l8.328125 0l0 3.625l-7.6875 0q-1.203125 0 -1.875 0.625q-0.6875 0.609375 -0.6875 1.703125q0 0.734375 0.328125 1.296875q0.3125 0.5625 0.921875 0.875q0.59375 0.296875 1.4375 0.3125zm-1.796875 -22.188965l0.203125 3.328125q-0.421875 0.078125 -0.765625 0.359375q-0.34375 0.28125 -0.546875 0.75q-0.21875 0.453125 -0.21875 1.078125q0 0.84375 0.359375 1.421875q0.34375 0.578125 0.9375 0.578125q0.46875 0 0.796875 -0.375q0.3125 -0.375 0.515625 -1.28125l0.46875 -2.375q0.40625 -1.90625 1.28125 -2.84375q0.859375 -0.9375 2.265625 -0.9375q1.296875 0 2.265625 0.765625q0.96875 0.75 1.515625 2.0625q0.53125 1.296875 0.53125 3.0q0 2.609375 -1.078125 4.140625q-1.09375 1.53125 -2.96875 1.796875l-0.1875 -3.5625q0.796875 -0.171875 1.21875 -0.78125q0.40625 -0.625 0.40625 -1.59375q0 -0.953125 -0.375 -1.53125q-0.375 -0.59375 -0.953125 -0.609375q-0.5 0.015625 -0.8125 0.421875q-0.328125 0.40625 -0.5 1.265625l-0.453125 2.265625q-0.375 1.921875 -1.3125 2.859375q-0.953125 0.921875 -2.421875 0.921875q-1.265625 0 -2.171875 -0.6875q-0.90625 -0.6875 -1.40625 -1.9375q-0.5 -1.25 -0.5 -2.921875q0 -2.484375 1.046875 -3.90625q1.046875 -1.4375 2.859375 -1.671875zm9.359375 -8.220215l-17.453125 0l0 -11.5625l3.046875 0l0 7.875l4.15625 0l0 -7.109375l3.046875 0l0 7.109375l7.203125 0l0 3.6875zm0 -13.974487l-13.09375 0l0 -3.625l13.09375 0l0 3.625zm-14.78125 -1.8125q0 0.796875 -0.53125 1.375q-0.546875 0.578125 -1.3125 0.578125q-0.75 0 -1.28125 -0.578125q-0.546875 -0.578125 -0.546875 -1.375q0 -0.8125 0.546875 -1.390625q0.53125 -0.578125 1.28125 -0.578125q0.765625 0 1.3125 0.578125q0.53125 0.578125 0.53125 1.390625zm7.21875 -8.340942l7.5625 0l0 3.625l-13.09375 0l0 -3.453125l2.3125 0l0 -0.15625q-1.140625 -0.4375 -1.8125 -1.453125q-0.671875 -1.03125 -0.671875 -2.484375q0 -1.359375 0.609375 -2.375q0.59375 -1.015625 1.703125 -1.578125q1.09375 -0.5625 2.625 -0.5625l8.328125 0l0 3.625l-7.6875 0q-1.203125 0 -1.875 0.625q-0.6875 0.609375 -0.6875 1.703125q0 0.734375 0.328125 1.296875q0.3125 0.5625 0.921875 0.875q0.59375 0.296875 1.4375 0.3125zm7.8125 -15.032715q0 1.265625 -0.4375 2.25q-0.4375 0.96875 -1.296875 1.546875q-0.875 0.5625 -2.171875 0.5625q-1.09375 0 -1.828125 -0.40625q-0.75 -0.40625 -1.203125 -1.09375q-0.453125 -0.6875 -0.671875 -1.5625q-0.234375 -0.890625 -0.328125 -1.859375q-0.125 -1.140625 -0.21875 -1.84375q-0.109375 -0.703125 -0.328125 -1.015625q-0.21875 -0.3125 -0.625 -0.3125l-0.0625 0q-0.796875 0 -1.234375 0.515625q-0.453125 0.5 -0.453125 1.421875q0 0.984375 0.4375 1.5625q0.421875 0.578125 1.0625 0.765625l-0.265625 3.359375q-1.1875 -0.25 -2.0625 -1.0q-0.875 -0.75 -1.34375 -1.9375q-0.484375 -1.1875 -0.484375 -2.765625q0 -1.09375 0.265625 -2.09375q0.25 -1.0 0.796875 -1.78125q0.53125 -0.78125 1.375 -1.21875q0.828125 -0.453125 2.0 -0.453125l8.828125 0l0 3.4375l-1.8125 0l0 0.09375q0.609375 0.328125 1.078125 0.859375q0.46875 0.515625 0.734375 1.265625q0.25 0.734375 0.25 1.703125zm-2.515625 -1.03125q0 -0.796875 -0.3125 -1.40625q-0.3125 -0.625 -0.859375 -0.96875q-0.546875 -0.359375 -1.234375 -0.359375l-1.390625 0q0.109375 0.171875 0.203125 0.46875q0.078125 0.296875 0.15625 0.671875q0.0625 0.359375 0.125 0.734375q0.0625 0.359375 0.09375 0.65625q0.09375 0.640625 0.296875 1.125q0.203125 0.46875 0.5625 0.734375q0.34375 0.265625 0.84375 0.265625q0.75 0 1.140625 -0.546875q0.375 -0.546875 0.375 -1.375zm-15.1875 -12.785553l17.453125 0l0 3.625l-17.453125 0l0 -3.625zm17.453125 -2.9034119l-13.09375 0l0 -3.625l13.09375 0l0 3.625zm-14.78125 -1.8125q0 0.796875 -0.53125 1.375q-0.546875 0.578125 -1.3125 0.578125q-0.75 0 -1.28125 -0.578125q-0.546875 -0.578125 -0.546875 -1.375q0 -0.8125 0.546875 -1.390625q0.53125 -0.578125 1.28125 -0.578125q0.765625 0 1.3125 0.578125q0.53125 0.578125 0.53125 1.390625zm14.78125 -4.6378174l-2.171875 0l-7.921875 -6.421875l-0.09375 0l0 6.1875l-2.90625 0l0 -10.546875l2.359375 0l7.75 6.015625l0.09375 0l0 -6.25l2.890625 0l0 11.015625zm0 -13.799744l-13.09375 0l0 -3.625l13.09375 0l0 3.625zm-14.78125 -1.8125q0 0.796875 -0.53125 1.375q-0.546875 0.578125 -1.3125 0.578125q-0.75 0 -1.28125 -0.578125q-0.546875 -0.578125 -0.546875 -1.375q0 -0.8125 0.546875 -1.390625q0.53125 -0.578125 1.28125 -0.578125q0.765625 0 1.3125 0.578125q0.53125 0.578125 0.53125 1.390625zm7.21875 -8.340942l7.5625 0l0 3.625l-13.09375 0l0 -3.453125l2.3125 0l0 -0.15625q-1.140625 -0.4375 -1.8125 -1.453125q-0.671875 -1.03125 -0.671875 -2.484375q0 -1.359375 0.609375 -2.375q0.59375 -1.015625 1.703125 -1.578125q1.09375 -0.5625 2.625 -0.5625l8.328125 0l0 3.625l-7.6875 0q-1.203125 0 -1.875 0.625q-0.6875 0.609375 -0.6875 1.703125q0 0.734375 0.328125 1.296875q0.3125 0.5625 0.921875 0.875q0.59375 0.296875 1.4375 0.3125zm12.75 -17.188965q0 1.765625 -0.484375 3.03125q-0.484375 1.25 -1.3125 2.0q-0.828125 0.734375 -1.859375 0.953125l-0.453125 -3.359375q0.390625 -0.15625 0.734375 -0.484375q0.34375 -0.34375 0.546875 -0.890625q0.21875 -0.546875 0.21875 -1.34375q0 -1.171875 -0.578125 -1.9375q-0.578125 -0.78125 -1.921875 -0.78125l-2.390625 0l0 0.15625q0.546875 0.234375 1.03125 0.71875q0.484375 0.46875 0.796875 1.21875q0.296875 0.75 0.296875 1.796875q0 1.46875 -0.6875 2.671875q-0.6875 1.203125 -2.09375 1.921875q-1.421875 0.703125 -3.609375 0.703125q-2.21875 0 -3.703125 -0.71875q-1.5 -0.71875 -2.234375 -1.921875q-0.75 -1.21875 -0.75 -2.65625q0 -1.09375 0.375 -1.828125q0.375 -0.75 0.921875 -1.203125q0.546875 -0.46875 1.078125 -0.703125l0 -0.140625l-2.203125 0l0 -3.609375l13.21875 0q1.671875 0 2.796875 0.828125q1.125 0.8125 1.6875 2.265625q0.578125 1.4375 0.578125 3.3125zm-8.109375 -0.078125q0 -0.875 -0.4375 -1.484375q-0.4375 -0.609375 -1.25 -0.9375q-0.828125 -0.328125 -1.984375 -0.328125q-1.140625 0 -1.984375 0.328125q-0.859375 0.3125 -1.328125 0.9375q-0.46875 0.609375 -0.46875 1.484375q0 0.890625 0.484375 1.515625q0.484375 0.609375 1.34375 0.921875q0.84375 0.3125 1.953125 0.3125q1.140625 0 1.96875 -0.3125q0.8125 -0.328125 1.265625 -0.9375q0.4375 -0.609375 0.4375 -1.5zm2.921875 -17.370789l-13.09375 3.5625l0 -3.671875l8.796875 -2.03125l0 -0.125l-8.796875 -2.109375l0 -3.609375l8.75 -2.140625l0 -0.109375l-8.75 -2.0l0 -3.65625l13.09375 3.546875l0 3.84375l-8.234375 2.25l0 0.171875l8.234375 2.25l0 3.828125zm0 -17.825317l-13.09375 0l0 -3.625l13.09375 0l0 3.625zm-14.78125 -1.8125q0 0.796875 -0.53125 1.375q-0.546875 0.578125 -1.3125 0.578125q-0.75 0 -1.28125 -0.578125q-0.546875 -0.578125 -0.546875 -1.375q0 -0.8125 0.546875 -1.390625q0.53125 -0.578125 1.28125 -0.578125q0.765625 0 1.3125 0.578125q0.53125 0.578125 0.53125 1.390625zm1.6875 -11.669067l2.734375 0l0 7.875l-2.734375 0l0 -7.875zm-3.140625 6.09375l0 -3.640625l12.21875 0q0.5 0 0.78125 -0.140625q0.265625 -0.15625 0.375 -0.4375q0.109375 -0.28125 0.109375 -0.640625q0 -0.265625 -0.046875 -0.515625q-0.046875 -0.25 -0.0625 -0.390625l2.703125 -0.578125q0.078125 0.28125 0.1875 0.78125q0.125 0.484375 0.140625 1.1875q0.0625 1.3125 -0.34375 2.296875q-0.40625 0.984375 -1.25 1.53125q-0.84375 0.546875 -2.125 0.546875l-12.6875 0zm8.671875 -12.362244l7.5625 0l0 3.625l-17.453125 0l0 -3.53125l6.671875 0l0 -0.140625q-1.15625 -0.453125 -1.8125 -1.4375q-0.671875 -0.984375 -0.671875 -2.484375q0 -1.359375 0.59375 -2.375q0.59375 -1.015625 1.703125 -1.578125q1.09375 -0.578125 2.640625 -0.5625l8.328125 0l0 3.625l-7.6875 0q-1.203125 -0.015625 -1.875 0.609375q-0.6875 0.625 -0.6875 1.71875q0 0.75 0.328125 1.3125q0.3125 0.5625 0.921875 0.890625q0.59375 0.3125 1.4375 0.328125zm-5.53125 -23.876465l2.734375 0l0 7.875l-2.734375 0l0 -7.875zm-3.140625 6.09375l0 -3.640625l12.21875 0q0.5 0 0.78125 -0.140625q0.265625 -0.15625 0.375 -0.4375q0.109375 -0.28125 0.109375 -0.640625q0 -0.265625 -0.046875 -0.515625q-0.046875 -0.25 -0.0625 -0.390625l2.703125 -0.578125q0.078125 0.28125 0.1875 0.78125q0.125 0.484375 0.140625 1.1875q0.0625 1.3125 -0.34375 2.296875q-0.40625 0.984375 -1.25 1.53125q-0.84375 0.546875 -2.125 0.546875l-12.6875 0zm8.671875 -12.362244l7.5625 0l0 3.625l-17.453125 0l0 -3.53125l6.671875 0l0 -0.140625q-1.15625 -0.453125 -1.8125 -1.4375q-0.671875 -0.984375 -0.671875 -2.484375q0 -1.359375 0.59375 -2.375q0.59375 -1.015625 1.703125 -1.578125q1.09375 -0.578125 2.640625 -0.5625l8.328125 0l0 3.625l-7.6875 0q-1.203125 -0.015625 -1.875 0.609375q-0.6875 0.625 -0.6875 1.71875q0 0.75 0.328125 1.3125q0.3125 0.5625 0.921875 0.890625q0.59375 0.3125 1.4375 0.328125zm7.8125 -17.326721q0 2.03125 -0.8125 3.484375q-0.828125 1.453125 -2.34375 2.234375q-1.515625 0.78125 -3.578125 0.78125q-2.015625 0 -3.546875 -0.78125q-1.53125 -0.78125 -2.375 -2.203125q-0.859375 -1.4375 -0.859375 -3.359375q0 -1.296875 0.421875 -2.421875q0.40625 -1.125 1.234375 -1.953125q0.828125 -0.84375 2.078125 -1.3125q1.25 -0.46875 2.921875 -0.46875l1.0 0l0 11.046875l-2.25 0l0 -7.625q-0.796875 0 -1.390625 0.34375q-0.609375 0.328125 -0.953125 0.9375q-0.34375 0.59375 -0.34375 1.390625q0 0.828125 0.375 1.46875q0.375 0.625 1.015625 0.984375q0.640625 0.359375 1.40625 0.359375l2.140625 0q0.96875 0 1.6875 -0.359375q0.703125 -0.359375 1.09375 -1.015625q0.375 -0.671875 0.375 -1.578125q0 -0.609375 -0.171875 -1.109375q-0.171875 -0.5 -0.515625 -0.859375q-0.34375 -0.359375 -0.828125 -0.546875l0.21875 -3.359375q1.203125 0.25 2.109375 1.046875q0.90625 0.78125 1.40625 2.03125q0.484375 1.234375 0.484375 2.84375zm-0.25 -14.002869l-17.453125 0l0 -6.890625q0 -1.96875 0.703125 -3.375q0.703125 -1.40625 1.984375 -2.140625q1.28125 -0.734375 3.015625 -0.734375q1.734375 0 2.984375 0.75q1.25 0.75 1.921875 2.171875q0.65625 1.40625 0.65625 3.421875l0 4.609375l-2.96875 0l0 -4.015625q0 -1.046875 -0.28125 -1.75q-0.296875 -0.703125 -0.875 -1.046875q-0.578125 -0.34375 -1.4375 -0.34375q-0.875 0 -1.46875 0.34375q-0.59375 0.34375 -0.90625 1.046875q-0.3125 0.703125 -0.3125 1.765625l0 2.5l14.4375 0l0 3.6875zm-7.9375 -9.421875l7.9375 -4.34375l0 4.078125l-7.9375 4.234375l0 -3.96875zm8.1875 -12.012817q0 2.03125 -0.8125 3.484375q-0.828125 1.453125 -2.34375 2.234375q-1.515625 0.78125 -3.578125 0.78125q-2.015625 0 -3.546875 -0.78125q-1.53125 -0.78125 -2.375 -2.203125q-0.859375 -1.4375 -0.859375 -3.359375q0 -1.296875 0.421875 -2.421875q0.40625 -1.125 1.234375 -1.953125q0.828125 -0.84375 2.078125 -1.3125q1.25 -0.46875 2.921875 -0.46875l1.0 0l0 11.046875l-2.25 0l0 -7.625q-0.796875 0 -1.390625 0.34375q-0.609375 0.328125 -0.953125 0.9375q-0.34375 0.59375 -0.34375 1.390625q0 0.828125 0.375 1.46875q0.375 0.625 1.015625 0.984375q0.640625 0.359375 1.40625 0.359375l2.140625 0q0.96875 0 1.6875 -0.359375q0.703125 -0.359375 1.09375 -1.015625q0.375 -0.671875 0.375 -1.578125q0 -0.609375 -0.171875 -1.109375q-0.171875 -0.5 -0.515625 -0.859375q-0.34375 -0.359375 -0.828125 -0.546875l0.21875 -3.359375q1.203125 0.25 2.109375 1.046875q0.90625 0.78125 1.40625 2.03125q0.484375 1.234375 0.484375 2.84375zm-17.703125 -12.000061l17.453125 0l0 3.625l-17.453125 0l0 -3.625zm17.703125 -6.6378174q0 1.265625 -0.4375 2.25q-0.4375 0.96875 -1.296875 1.546875q-0.875 0.5625 -2.171875 0.5625q-1.09375 0 -1.828125 -0.40625q-0.75 -0.40625 -1.203125 -1.09375q-0.453125 -0.6875 -0.671875 -1.5625q-0.234375 -0.890625 -0.328125 -1.859375q-0.125 -1.140625 -0.21875 -1.84375q-0.109375 -0.703125 -0.328125 -1.015625q-0.21875 -0.3125 -0.625 -0.3125l-0.0625 0q-0.796875 0 -1.234375 0.515625q-0.453125 0.5 -0.453125 1.421875q0 0.984375 0.4375 1.5625q0.421875 0.578125 1.0625 0.765625l-0.265625 3.359375q-1.1875 -0.25 -2.0625 -1.0q-0.875 -0.75 -1.34375 -1.9375q-0.484375 -1.1875 -0.484375 -2.765625q0 -1.09375 0.265625 -2.09375q0.25 -0.9999924 0.796875 -1.7812424q0.53125 -0.78125 1.375 -1.21875q0.828125 -0.453125 2.0 -0.453125l8.828125 0l0 3.4374924l-1.8125 0l0 0.09375q0.609375 0.328125 1.078125 0.859375q0.46875 0.515625 0.734375 1.265625q0.25 0.734375 0.25 1.703125zm-2.515625 -1.03125q0 -0.796875 -0.3125 -1.40625q-0.3125 -0.625 -0.859375 -0.96875q-0.546875 -0.359375 -1.234375 -0.359375l-1.390625 0q0.109375 0.171875 0.203125 0.46875q0.078125 0.296875 0.15625 0.671875q0.0625 0.359375 0.125 0.734375q0.0625 0.359375 0.09375 0.65625q0.09375 0.640625 0.296875 1.125q0.203125 0.46875 0.5625 0.734375q0.34375 0.265625 0.84375 0.265625q0.75 0 1.140625 -0.546875q0.375 -0.546875 0.375 -1.375zm7.171875 -10.917656q0 0.6875 -0.109375 1.296875q-0.09375 0.59375 -0.265625 0.984375l-2.703125 -0.8125q0.1875 -0.640625 0.203125 -1.15625q0.015625 -0.515625 -0.234375 -0.890625q-0.25 -0.390625 -0.875 -0.625l-0.546875 -0.21875l-13.46875 4.703125l0 -3.828125l9.609375 -2.703125l0 -0.140625l-9.609375 -2.734375l0 -3.84375l14.515625 5.09375q1.046875 0.359375 1.828125 0.984375q0.796875 0.625 1.21875 1.59375q0.4375 0.953125 0.4375 2.296875zm-16.25 -32.862305l0 3.734375q-0.71875 0.109375 -1.28125 0.421875q-0.578125 0.3125 -0.96875 0.8125q-0.40625 0.484375 -0.609375 1.140625q-0.21875 0.640625 -0.21875 1.390625q0 1.34375 0.671875 2.359375q0.65625 1.0 1.9375 1.5625q1.265625 0.546875 3.078125 0.546875q1.875 0 3.140625 -0.546875q1.265625 -0.5625 1.921875 -1.5625q0.640625 -1.015625 0.640625 -2.34375q0 -0.734375 -0.1875 -1.359375q-0.203125 -0.640625 -0.578125 -1.140625q-0.375 -0.5 -0.921875 -0.828125q-0.546875 -0.328125 -1.25 -0.453125l0.015625 -3.734375q1.203125 0.15625 2.328125 0.734375q1.109375 0.5625 1.984375 1.53125q0.859375 0.96875 1.375 2.3125q0.5 1.328125 0.5 3.0q0 2.34375 -1.046875 4.1875q-1.0625 1.828125 -3.0625 2.890625q-2.0 1.0625 -4.859375 1.0625q-2.84375 0 -4.84375 -1.078125q-2.015625 -1.078125 -3.0625 -2.921875q-1.046875 -1.84375 -1.046875 -4.140625q0 -1.515625 0.421875 -2.8125q0.421875 -1.296875 1.234375 -2.296875q0.8125 -1.015625 2.0 -1.640625q1.171875 -0.640625 2.6875 -0.828125zm3.78125 -6.2074585l7.5625 0l0 3.625l-17.453125 0l0 -3.53125l6.671875 0l0 -0.140625q-1.15625 -0.453125 -1.8125 -1.4375q-0.671875 -0.984375 -0.671875 -2.484375q0 -1.359375 0.59375 -2.375q0.59375 -1.015625 1.703125 -1.578125q1.09375 -0.578125 2.640625 -0.5625l8.328125 0l0 3.625l-7.6875 0q-1.203125 -0.015625 -1.875 0.609375q-0.6875 0.625 -0.6875 1.71875q0 0.75 0.328125 1.3125q0.3125 0.5625 0.921875 0.890625q0.59375 0.3125 1.4375 0.328125zm7.8125 -15.092346q0 1.265625 -0.4375 2.25q-0.4375 0.96875 -1.296875 1.546875q-0.875 0.5625 -2.171875 0.5625q-1.09375 0 -1.828125 -0.40625q-0.75 -0.40625 -1.203125 -1.09375q-0.453125 -0.6875 -0.671875 -1.5625q-0.234375 -0.890625 -0.328125 -1.859375q-0.125 -1.140625 -0.21875 -1.8437538q-0.109375 -0.703125 -0.328125 -1.015625q-0.21875 -0.3125 -0.625 -0.3125l-0.0625 0q-0.796875 0 -1.234375 0.515625q-0.453125 0.5 -0.453125 1.4218788q0 0.984375 0.4375 1.5625q0.421875 0.578125 1.0625 0.765625l-0.265625 3.359375q-1.1875 -0.25 -2.0625 -1.0q-0.875 -0.75 -1.34375 -1.9375q-0.484375 -1.1875 -0.484375 -2.765625q0 -1.0937538 0.265625 -2.0937538q0.25 -1.0 0.796875 -1.78125q0.53125 -0.78125 1.375 -1.21875q0.828125 -0.453125 2.0 -0.453125l8.828125 0l0 3.4375l-1.8125 0l0 0.09375q0.609375 0.328125 1.078125 0.859375q0.46875 0.515625 0.734375 1.2656288q0.25 0.734375 0.25 1.703125zm-2.515625 -1.03125q0 -0.796875 -0.3125 -1.4062538q-0.3125 -0.625 -0.859375 -0.96875q-0.546875 -0.359375 -1.234375 -0.359375l-1.390625 0q0.109375 0.171875 0.203125 0.46875q0.078125 0.296875 0.15625 0.671875q0.0625 0.3593788 0.125 0.7343788q0.0625 0.359375 0.09375 0.65625q0.09375 0.640625 0.296875 1.125q0.203125 0.46875 0.5625 0.734375q0.34375 0.265625 0.84375 0.265625q0.75 0 1.140625 -0.546875q0.375 -0.546875 0.375 -1.375zm2.265625 -9.160587l-13.09375 0l0 -3.625l13.09375 0l0 3.625zm-14.78125 -1.8125q0 0.796875 -0.53125 1.375q-0.546875 0.578125 -1.3125 0.578125q-0.75 0 -1.28125 -0.578125q-0.546875 -0.578125 -0.546875 -1.375q0 -0.8125 0.546875 -1.390625q0.53125 -0.578125 1.28125 -0.578125q0.765625 0 1.3125 0.578125q0.53125 0.578125 0.53125 1.390625zm7.21875 -8.340942l7.5625 0l0 3.625l-13.09375 0l0 -3.453125l2.3125 0l0 -0.15625q-1.140625 -0.4375 -1.8125 -1.453125q-0.671875 -1.03125 -0.671875 -2.484375q0 -1.359375 0.609375 -2.375q0.59375 -1.015625 1.703125 -1.578125q1.09375 -0.5625 2.625 -0.5625l8.328125 0l0 3.625l-7.6875 0q-1.203125 0 -1.875 0.625q-0.6875 0.609375 -0.6875 1.703125q0 0.734375 0.328125 1.296875q0.3125 0.5625 0.921875 0.875q0.59375 0.296875 1.4375 0.3125z" fill-rule="nonzero"/><path fill="#000000" fill-opacity="0.0" d="m130.46948 718.1401l48.535446 0l0 38.015747l-48.535446 0z" fill-rule="evenodd"/><path fill="#ffffff" d="m138.87067 738.22546l0 7.5625l-3.625 0l0 -13.09375l3.453125 0l0 2.3125l0.15625 0q0.4375 -1.140625 1.453125 -1.8125q1.03125 -0.671875 2.484375 -0.671875q1.359375 0 2.375 0.609375q1.015625 0.59375 1.578125 1.703125q0.5625 1.09375 0.5625 2.625l0 8.328125l-3.625 0l0 -7.6875q0 -1.203125 -0.625 -1.875q-0.609375 -0.6875 -1.703125 -0.6875q-0.734375 0 -1.296875 0.328125q-0.5625 0.3125 -0.875 0.921875q-0.296875 0.59375 -0.3125 1.4375zm19.45459 -1.046875l0 2.875l-7.96875 0l0 -2.875l7.96875 0zm9.389236 8.84375q-1.90625 0 -3.390625 -0.65625q-1.484375 -0.65625 -2.34375 -1.8125q-0.859375 -1.171875 -0.875 -2.703125l3.703125 0q0.046875 0.640625 0.421875 1.125q0.390625 0.484375 1.03125 0.75q0.65625 0.265625 1.46875 0.265625q0.84375 0 1.484375 -0.296875q0.65625 -0.3125 1.015625 -0.828125q0.375 -0.53125 0.375 -1.21875q0 -0.703125 -0.390625 -1.234375q-0.390625 -0.546875 -1.109375 -0.859375q-0.71875 -0.3125 -1.703125 -0.3125l-1.625 0l0 -2.703125l1.625 0q0.828125 0 1.46875 -0.28125q0.65625 -0.296875 1.0 -0.8125q0.359375 -0.515625 0.359375 -1.203125q0 -0.65625 -0.3125 -1.15625q-0.296875 -0.5 -0.859375 -0.78125q-0.5625 -0.28125 -1.296875 -0.28125q-0.75 0 -1.375 0.265625q-0.625 0.265625 -1.0 0.765625q-0.375 0.484375 -0.40625 1.15625l-3.53125 0q0.03125 -1.515625 0.859375 -2.65625q0.84375 -1.15625 2.25 -1.796875q1.421875 -0.65625 3.21875 -0.65625q1.796875 0 3.15625 0.65625q1.359375 0.65625 2.109375 1.765625q0.75 1.109375 0.75 2.484375q0 1.46875 -0.921875 2.453125q-0.90625 0.984375 -2.375 1.25l0 0.125q1.9375 0.25 2.9375 1.34375q1.015625 1.078125 1.0 2.703125q0.015625 1.5 -0.859375 2.65625q-0.859375 1.15625 -2.375 1.828125q-1.515625 0.65625 -3.484375 0.65625z" fill-rule="nonzero"/><path fill="#000000" fill-opacity="0.0" d="m130.46948 573.2267l48.535446 0l0 38.015747l-48.535446 0z" fill-rule="evenodd"/><path fill="#ffffff" d="m139.41614 593.3121l0 7.5625l-3.625 0l0 -13.09375l3.453125 0l0 2.3125l0.15625 0q0.4375 -1.140625 1.453125 -1.8125q1.03125 -0.671875 2.484375 -0.671875q1.359375 0 2.375 0.609375q1.015625 0.59375 1.578125 1.703125q0.5625 1.09375 0.5625 2.625l0 8.328125l-3.625 0l0 -7.6875q0 -1.203125 -0.625 -1.875q-0.609375 -0.6875 -1.703125 -0.6875q-0.734375 0 -1.296875 0.328125q-0.5625 0.3125 -0.875 0.921875q-0.296875 0.59375 -0.3125 1.4375zm19.45459 -1.046875l0 2.875l-7.96875 0l0 -2.875l7.96875 0zm2.5682068 8.609375l0 -2.65625l6.2031097 -5.75q0.796875 -0.765625 1.328125 -1.375q0.546875 -0.625 0.828125 -1.21875q0.28125 -0.59375 0.28125 -1.28125q0 -0.765625 -0.359375 -1.328125q-0.34375 -0.5625 -0.953125 -0.859375q-0.59375 -0.296875 -1.359375 -0.296875q-0.796875 0 -1.40625 0.328125q-0.59375 0.3125 -0.921875 0.921875q-0.3125 0.609375 -0.3125 1.4375l-3.4999847 0q0 -1.71875 0.765625 -2.96875q0.78123474 -1.265625 2.1718597 -1.953125q1.40625 -0.6875 3.234375 -0.6875q1.875 0 3.265625 0.65625q1.390625 0.65625 2.15625 1.828125q0.78125 1.171875 0.78125 2.671875q0 0.984375 -0.390625 1.953125q-0.375 0.96875 -1.375 2.140625q-0.984375 1.171875 -2.78125 2.796875l-2.546875 2.5l0 0.125l7.328125 0l0 3.015625l-12.437485 0z" fill-rule="nonzero"/><path fill="#000000" fill-opacity="0.0" d="m130.46948 428.31332l48.535446 0l0 38.015747l-48.535446 0z" fill-rule="evenodd"/><path fill="#ffffff" d="m140.85648 448.39868l0 7.5625l-3.625 0l0 -13.09375l3.453125 0l0 2.3125l0.15625 0q0.4375 -1.140625 1.453125 -1.8125q1.03125 -0.671875 2.484375 -0.671875q1.359375 0 2.375 0.609375q1.015625 0.59375 1.578125 1.703125q0.5625 1.09375 0.5625 2.625l0 8.328125l-3.625 0l0 -7.6875q0 -1.203125 -0.625 -1.875q-0.609375 -0.6875 -1.703125 -0.6875q-0.734375 0 -1.296875 0.328125q-0.5625 0.3125 -0.875 0.921875q-0.296875 0.59375 -0.3125 1.4375zm19.45459 -1.046875l0 2.875l-7.96875 0l0 -2.875l7.96875 0zm10.656265 -8.84375l0 17.453125l-3.703125 0l0 -13.953125l-0.09375 0l-4.0 2.5l0 -3.265625l4.328125 -2.734375l3.46875 0z" fill-rule="nonzero"/><path fill="#eeeeee" d="m233.88222 738.32196l0 0c0 -43.02014 76.73204 -77.8949 171.38582 -77.8949l0 0c94.65378 0 171.38583 34.874756 171.38583 77.8949l0 0c0 43.02014 -76.732056 77.89484 -171.38583 77.89484l0 0c-94.65378 0 -171.38582 -34.874695 -171.38582 -77.89484z" fill-rule="evenodd"/><path stroke="#595959" stroke-width="1.0" stroke-linejoin="round" stroke-linecap="butt" d="m233.88222 738.32196l0 0c0 -43.02014 76.73204 -77.8949 171.38582 -77.8949l0 0c94.65378 0 171.38583 34.874756 171.38583 77.8949l0 0c0 43.02014 -76.732056 77.89484 -171.38583 77.89484l0 0c-94.65378 0 -171.38582 -34.874695 -171.38582 -77.89484z" fill-rule="evenodd"/><path fill="#0000ff" d="m371.02658 652.171l0 0c0 -1.6668701 1.3512573 -3.0181274 3.0181274 -3.0181274l33.806244 0c0.8004761 0 1.5681458 0.31793213 2.1341553 0.88397217c0.5660095 0.565979 0.88397217 1.3336792 0.88397217 2.1341553l0 12.072144c0 1.6668701 -1.3512573 3.0181274 -3.0181274 3.0181274l-33.806244 0c-1.6668701 0 -3.0181274 -1.3512573 -3.0181274 -3.0181274z" fill-rule="evenodd"/><path stroke="#303030" stroke-width="1.0" stroke-linejoin="round" stroke-linecap="butt" d="m371.02658 652.171l0 0c0 -1.6668701 1.3512573 -3.0181274 3.0181274 -3.0181274l33.806244 0c0.8004761 0 1.5681458 0.31793213 2.1341553 0.88397217c0.5660095 0.565979 0.88397217 1.3336792 0.88397217 2.1341553l0 12.072144c0 1.6668701 -1.3512573 3.0181274 -3.0181274 3.0181274l-33.806244 0c-1.6668701 0 -3.0181274 -1.3512573 -3.0181274 -3.0181274z" fill-rule="evenodd"/><path fill="#4a86e8" d="m497.2737 681.5775l0 0c-2.5918884 -1.1780396 -2.5918884 -3.0879517 0 -4.265991l18.771454 -8.531616l0 0c1.24469 -0.5656738 2.9328003 -0.8834839 4.692993 -0.8834839c1.7602539 0 3.4483643 0.31781006 4.692993 0.8834839l18.771484 8.531616c2.591858 1.1780396 2.591858 3.0879517 0 4.265991l-18.771484 8.531616c-2.591858 1.1779785 -6.7941284 1.1779785 -9.385986 0z" fill-rule="evenodd"/><path stroke="#303030" stroke-width="1.0" stroke-linejoin="round" stroke-linecap="butt" d="m497.2737 681.5775l0 0c-2.5918884 -1.1780396 -2.5918884 -3.0879517 0 -4.265991l18.771454 -8.531616l0 0c1.24469 -0.5656738 2.9328003 -0.8834839 4.692993 -0.8834839c1.7602539 0 3.4483643 0.31781006 4.692993 0.8834839l18.771484 8.531616c2.591858 1.1780396 2.591858 3.0879517 0 4.265991l-18.771484 8.531616c-2.591858 1.1779785 -6.7941284 1.1779785 -9.385986 0z" fill-rule="evenodd"/><path fill="#00ff00" d="m555.65125 726.71497l0 0c0 -1.6668701 1.3512573 -3.0181274 3.0181274 -3.0181274l33.806274 0c0.8004761 0 1.5681152 0.31799316 2.1341553 0.88397217c0.565979 0.56604004 0.88397217 1.3336792 0.88397217 2.1341553l0 12.072144c0 1.6668701 -1.3512573 3.0181274 -3.0181274 3.0181274l-33.806274 0c-1.6668701 0 -3.0181274 -1.3512573 -3.0181274 -3.0181274z" fill-rule="evenodd"/><path stroke="#303030" stroke-width="1.0" stroke-linejoin="round" stroke-linecap="butt" d="m555.65125 726.71497l0 0c0 -1.6668701 1.3512573 -3.0181274 3.0181274 -3.0181274l33.806274 0c0.8004761 0 1.5681152 0.31799316 2.1341553 0.88397217c0.565979 0.56604004 0.88397217 1.3336792 0.88397217 2.1341553l0 12.072144c0 1.6668701 -1.3512573 3.0181274 -3.0181274 3.0181274l-33.806274 0c-1.6668701 0 -3.0181274 -1.3512573 -3.0181274 -3.0181274z" fill-rule="evenodd"/><path fill="#ffff00" d="m531.037 777.97217l0 0c2.591858 -1.1779785 6.7941284 -1.1779785 9.385986 0l18.771484 8.531677l0 0c1.24469 0.5656738 1.9439087 1.3329468 1.9439087 2.1329346c0 0.8000488 -0.69921875 1.5672607 -1.9439087 2.1329956l-18.771484 8.531616c-2.591858 1.1780396 -6.7941284 1.1780396 -9.385986 0l-18.771484 -8.531616c-2.591858 -1.1780396 -2.591858 -3.0879517 0 -4.26593z" fill-rule="evenodd"/><path stroke="#303030" stroke-width="1.0" stroke-linejoin="round" stroke-linecap="butt" d="m531.037 777.97217l0 0c2.591858 -1.1779785 6.7941284 -1.1779785 9.385986 0l18.771484 8.531677l0 0c1.24469 0.5656738 1.9439087 1.3329468 1.9439087 2.1329346c0 0.8000488 -0.69921875 1.5672607 -1.9439087 2.1329956l-18.771484 8.531616c-2.591858 1.1780396 -6.7941284 1.1780396 -9.385986 0l-18.771484 -8.531616c-2.591858 -1.1780396 -2.591858 -3.0879517 0 -4.26593z" fill-rule="evenodd"/><path fill="#ff9900" d="m398.6565 810.0531l0 0c0 -1.6668701 1.3512573 -3.0181274 3.0181274 -3.0181274l33.806274 0c0.80044556 0 1.5681152 0.31793213 2.1341248 0.88397217c0.5660095 0.565979 0.8840027 1.3336792 0.8840027 2.1341553l0 12.072144c0 1.6668701 -1.3512573 3.0181274 -3.0181274 3.0181274l-33.806274 0c-1.6668701 0 -3.0181274 -1.3512573 -3.0181274 -3.0181274z" fill-rule="evenodd"/><path stroke="#303030" stroke-width="1.0" stroke-linejoin="round" stroke-linecap="butt" d="m398.6565 810.0531l0 0c0 -1.6668701 1.3512573 -3.0181274 3.0181274 -3.0181274l33.806274 0c0.80044556 0 1.5681152 0.31793213 2.1341248 0.88397217c0.5660095 0.565979 0.8840027 1.3336792 0.8840027 2.1341553l0 12.072144c0 1.6668701 -1.3512573 3.0181274 -3.0181274 3.0181274l-33.806274 0c-1.6668701 0 -3.0181274 -1.3512573 -3.0181274 -3.0181274z" fill-rule="evenodd"/><path fill="#ff0000" d="m268.84326 797.5633l0 0c-2.5918884 -1.1780396 -2.5918884 -3.0879517 0 -4.265991l18.771454 -8.531616l0 0c1.2446594 -0.5656738 2.9328003 -0.8834839 4.6930237 -0.8834839c1.7601929 0 3.4483337 0.31781006 4.692993 0.8834839l18.771454 8.531616c2.5918884 1.1780396 2.5918884 3.0879517 0 4.265991l-18.771454 8.531616c-2.5918884 1.1779785 -6.7941284 1.1779785 -9.386017 0z" fill-rule="evenodd"/><path stroke="#303030" stroke-width="1.0" stroke-linejoin="round" stroke-linecap="butt" d="m268.84326 797.5633l0 0c-2.5918884 -1.1780396 -2.5918884 -3.0879517 0 -4.265991l18.771454 -8.531616l0 0c1.2446594 -0.5656738 2.9328003 -0.8834839 4.6930237 -0.8834839c1.7601929 0 3.4483337 0.31781006 4.692993 0.8834839l18.771454 8.531616c2.5918884 1.1780396 2.5918884 3.0879517 0 4.265991l-18.771454 8.531616c-2.5918884 1.1779785 -6.7941284 1.1779785 -9.386017 0z" fill-rule="evenodd"/><path fill="#ff00ff" d="m209.87697 734.08l0 0c0 -1.6668701 1.3512573 -3.0181274 3.0181274 -3.0181274l33.80626 0c0.8004608 0 1.5681305 0.31799316 2.13414 0.88397217c0.5660095 0.56604004 0.8839874 1.3336792 0.8839874 2.1341553l0 12.072144c0 1.6668701 -1.3512573 3.0181274 -3.0181274 3.0181274l-33.80626 0c-1.6668701 0 -3.0181274 -1.3512573 -3.0181274 -3.0181274z" fill-rule="evenodd"/><path stroke="#303030" stroke-width="1.0" stroke-linejoin="round" stroke-linecap="butt" d="m209.87697 734.08l0 0c0 -1.6668701 1.3512573 -3.0181274 3.0181274 -3.0181274l33.80626 0c0.8004608 0 1.5681305 0.31799316 2.13414 0.88397217c0.5660095 0.56604004 0.8839874 1.3336792 0.8839874 2.1341553l0 12.072144c0 1.6668701 -1.3512573 3.0181274 -3.0181274 3.0181274l-33.80626 0c-1.6668701 0 -3.0181274 -1.3512573 -3.0181274 -3.0181274z" fill-rule="evenodd"/><path fill="#9900ff" d="m269.55667 675.1657l0 0c2.591858 -1.1779785 6.7941284 -1.1779785 9.386017 0l18.771454 8.531616l0 0c1.2446594 0.56573486 1.9439087 1.3330078 1.9439087 2.1329956c0 0.8000488 -0.69924927 1.5672607 -1.9439087 2.1329956l-18.771454 8.531616c-2.5918884 1.1779785 -6.794159 1.1779785 -9.386017 0l-18.77147 -8.531616c-2.5918732 -1.1780396 -2.5918732 -3.0879517 0 -4.265991z" fill-rule="evenodd"/><path stroke="#303030" stroke-width="1.0" stroke-linejoin="round" stroke-linecap="butt" d="m269.55667 675.1657l0 0c2.591858 -1.1779785 6.7941284 -1.1779785 9.386017 0l18.771454 8.531616l0 0c1.2446594 0.56573486 1.9439087 1.3330078 1.9439087 2.1329956c0 0.8000488 -0.69924927 1.5672607 -1.9439087 2.1329956l-18.771454 8.531616c-2.5918884 1.1779785 -6.794159 1.1779785 -9.386017 0l-18.77147 -8.531616c-2.5918732 -1.1780396 -2.5918732 -3.0879517 0 -4.265991z" fill-rule="evenodd"/><path fill="#000000" fill-opacity="0.0" d="m390.94785 667.2613l27.62204 139.77954" fill-rule="evenodd"/><path stroke="#000000" stroke-width="2.0" stroke-linejoin="round" stroke-linecap="butt" d="m390.94785 667.2613l27.62204 139.77954" fill-rule="evenodd"/><path fill="#000000" fill-opacity="0.0" d="m288.3284 692.2291l233.32285 90.01575" fill-rule="evenodd"/><path stroke="#000000" stroke-width="2.0" stroke-linejoin="round" stroke-linecap="butt" d="m288.3284 692.2291l233.32285 90.01575" fill-rule="evenodd"/><path fill="#000000" fill-opacity="0.0" d="m306.38647 789.0315l84.566925 -121.763794" fill-rule="evenodd"/><path stroke="#000000" stroke-width="2.0" stroke-linejoin="round" stroke-linecap="butt" d="m306.38647 789.0315l84.566925 -121.763794" fill-rule="evenodd"/><path fill="#000000" fill-opacity="0.0" d="m506.65942 685.8433l-88.09448 121.19684" fill-rule="evenodd"/><path stroke="#000000" stroke-width="2.0" stroke-linejoin="round" stroke-linecap="butt" d="m506.65942 685.8433l-88.09448 121.19684" fill-rule="evenodd"/><path fill="#eeeeee" d="m233.88222 593.40857l0 0c0 -43.02014 76.73204 -77.89484 171.38582 -77.89484l0 0c94.65378 0 171.38583 34.874695 171.38583 77.89484l0 0c0 43.02014 -76.732056 77.89484 -171.38583 77.89484l0 0c-94.65378 0 -171.38582 -34.874695 -171.38582 -77.89484z" fill-rule="evenodd"/><path stroke="#595959" stroke-width="1.0" stroke-linejoin="round" stroke-linecap="butt" d="m233.88222 593.40857l0 0c0 -43.02014 76.73204 -77.89484 171.38582 -77.89484l0 0c94.65378 0 171.38583 34.874695 171.38583 77.89484l0 0c0 43.02014 -76.732056 77.89484 -171.38583 77.89484l0 0c-94.65378 0 -171.38582 -34.874695 -171.38582 -77.89484z" fill-rule="evenodd"/><path fill="#0000ff" d="m371.02658 507.2576l0 0c0 -1.6668396 1.3512573 -3.0181274 3.0181274 -3.0181274l33.806244 0c0.8004761 0 1.5681458 0.31799316 2.1341553 0.8840027c0.5660095 0.5660095 0.88397217 1.3336792 0.88397217 2.1341248l0 12.072174c0 1.6668701 -1.3512573 3.0181274 -3.0181274 3.0181274l-33.806244 0c-1.6668701 0 -3.0181274 -1.3512573 -3.0181274 -3.0181274z" fill-rule="evenodd"/><path stroke="#303030" stroke-width="1.0" stroke-linejoin="round" stroke-linecap="butt" d="m371.02658 507.2576l0 0c0 -1.6668396 1.3512573 -3.0181274 3.0181274 -3.0181274l33.806244 0c0.8004761 0 1.5681458 0.31799316 2.1341553 0.8840027c0.5660095 0.5660095 0.88397217 1.3336792 0.88397217 2.1341248l0 12.072174c0 1.6668701 -1.3512573 3.0181274 -3.0181274 3.0181274l-33.806244 0c-1.6668701 0 -3.0181274 -1.3512573 -3.0181274 -3.0181274z" fill-rule="evenodd"/><path fill="#4a86e8" d="m497.2737 536.6641l0 0c-2.5918884 -1.1780396 -2.5918884 -3.0879517 0 -4.265991l18.771454 -8.531616l0 0c1.24469 -0.5656738 2.9328003 -0.8834839 4.692993 -0.8834839c1.7602539 0 3.4483643 0.31781006 4.692993 0.8834839l18.771484 8.531616c2.591858 1.1780396 2.591858 3.0879517 0 4.265991l-18.771484 8.531616c-2.591858 1.1779785 -6.7941284 1.1779785 -9.385986 0z" fill-rule="evenodd"/><path stroke="#303030" stroke-width="1.0" stroke-linejoin="round" stroke-linecap="butt" d="m497.2737 536.6641l0 0c-2.5918884 -1.1780396 -2.5918884 -3.0879517 0 -4.265991l18.771454 -8.531616l0 0c1.24469 -0.5656738 2.9328003 -0.8834839 4.692993 -0.8834839c1.7602539 0 3.4483643 0.31781006 4.692993 0.8834839l18.771484 8.531616c2.591858 1.1780396 2.591858 3.0879517 0 4.265991l-18.771484 8.531616c-2.591858 1.1779785 -6.7941284 1.1779785 -9.385986 0z" fill-rule="evenodd"/><path fill="#00ff00" d="m555.65125 581.8016l0 0c0 -1.6668701 1.3512573 -3.0181274 3.0181274 -3.0181274l33.806274 0c0.8004761 0 1.5681152 0.31799316 2.1341553 0.88397217c0.565979 0.56604004 0.88397217 1.3336792 0.88397217 2.1341553l0 12.072144c0 1.6668701 -1.3512573 3.0181274 -3.0181274 3.0181274l-33.806274 0c-1.6668701 0 -3.0181274 -1.3512573 -3.0181274 -3.0181274z" fill-rule="evenodd"/><path stroke="#303030" stroke-width="1.0" stroke-linejoin="round" stroke-linecap="butt" d="m555.65125 581.8016l0 0c0 -1.6668701 1.3512573 -3.0181274 3.0181274 -3.0181274l33.806274 0c0.8004761 0 1.5681152 0.31799316 2.1341553 0.88397217c0.565979 0.56604004 0.88397217 1.3336792 0.88397217 2.1341553l0 12.072144c0 1.6668701 -1.3512573 3.0181274 -3.0181274 3.0181274l-33.806274 0c-1.6668701 0 -3.0181274 -1.3512573 -3.0181274 -3.0181274z" fill-rule="evenodd"/><path fill="#ffff00" d="m531.037 633.0588l0 0c2.591858 -1.1779785 6.7941284 -1.1779785 9.385986 0l18.771484 8.531677l0 0c1.24469 0.5656738 1.9439087 1.3329468 1.9439087 2.1329346c0 0.8000488 -0.69921875 1.5672607 -1.9439087 2.1329956l-18.771484 8.531616c-2.591858 1.1780396 -6.7941284 1.1780396 -9.385986 0l-18.771484 -8.531616c-2.591858 -1.1780396 -2.591858 -3.0879517 0 -4.26593z" fill-rule="evenodd"/><path stroke="#303030" stroke-width="1.0" stroke-linejoin="round" stroke-linecap="butt" d="m531.037 633.0588l0 0c2.591858 -1.1779785 6.7941284 -1.1779785 9.385986 0l18.771484 8.531677l0 0c1.24469 0.5656738 1.9439087 1.3329468 1.9439087 2.1329346c0 0.8000488 -0.69921875 1.5672607 -1.9439087 2.1329956l-18.771484 8.531616c-2.591858 1.1780396 -6.7941284 1.1780396 -9.385986 0l-18.771484 -8.531616c-2.591858 -1.1780396 -2.591858 -3.0879517 0 -4.26593z" fill-rule="evenodd"/><path fill="#ff9900" d="m398.6565 665.1397l0 0c0 -1.6668701 1.3512573 -3.0181274 3.0181274 -3.0181274l33.806274 0c0.80044556 0 1.5681152 0.31799316 2.1341248 0.88397217c0.5660095 0.56604004 0.8840027 1.3336792 0.8840027 2.1341553l0 12.072144c0 1.6668701 -1.3512573 3.0181274 -3.0181274 3.0181274l-33.806274 0c-1.6668701 0 -3.0181274 -1.3512573 -3.0181274 -3.0181274z" fill-rule="evenodd"/><path stroke="#303030" stroke-width="1.0" stroke-linejoin="round" stroke-linecap="butt" d="m398.6565 665.1397l0 0c0 -1.6668701 1.3512573 -3.0181274 3.0181274 -3.0181274l33.806274 0c0.80044556 0 1.5681152 0.31799316 2.1341248 0.88397217c0.5660095 0.56604004 0.8840027 1.3336792 0.8840027 2.1341553l0 12.072144c0 1.6668701 -1.3512573 3.0181274 -3.0181274 3.0181274l-33.806274 0c-1.6668701 0 -3.0181274 -1.3512573 -3.0181274 -3.0181274z" fill-rule="evenodd"/><path fill="#ff0000" d="m268.84326 652.6499l0 0c-2.5918884 -1.1780396 -2.5918884 -3.0879517 0 -4.265991l18.771454 -8.531616l0 0c1.2446594 -0.5656738 2.9328003 -0.8834839 4.6930237 -0.8834839c1.7601929 0 3.4483337 0.31781006 4.692993 0.8834839l18.771454 8.531616c2.5918884 1.1780396 2.5918884 3.0879517 0 4.265991l-18.771454 8.531616c-2.5918884 1.1779785 -6.7941284 1.1779785 -9.386017 0z" fill-rule="evenodd"/><path stroke="#303030" stroke-width="1.0" stroke-linejoin="round" stroke-linecap="butt" d="m268.84326 652.6499l0 0c-2.5918884 -1.1780396 -2.5918884 -3.0879517 0 -4.265991l18.771454 -8.531616l0 0c1.2446594 -0.5656738 2.9328003 -0.8834839 4.6930237 -0.8834839c1.7601929 0 3.4483337 0.31781006 4.692993 0.8834839l18.771454 8.531616c2.5918884 1.1780396 2.5918884 3.0879517 0 4.265991l-18.771454 8.531616c-2.5918884 1.1779785 -6.7941284 1.1779785 -9.386017 0z" fill-rule="evenodd"/><path fill="#ff00ff" d="m209.87697 589.1666l0 0c0 -1.6668701 1.3512573 -3.0181274 3.0181274 -3.0181274l33.80626 0c0.8004608 0 1.5681305 0.31799316 2.13414 0.88397217c0.5660095 0.56604004 0.8839874 1.3336792 0.8839874 2.1341553l0 12.072144c0 1.6668701 -1.3512573 3.0181274 -3.0181274 3.0181274l-33.80626 0c-1.6668701 0 -3.0181274 -1.3512573 -3.0181274 -3.0181274z" fill-rule="evenodd"/><path stroke="#303030" stroke-width="1.0" stroke-linejoin="round" stroke-linecap="butt" d="m209.87697 589.1666l0 0c0 -1.6668701 1.3512573 -3.0181274 3.0181274 -3.0181274l33.80626 0c0.8004608 0 1.5681305 0.31799316 2.13414 0.88397217c0.5660095 0.56604004 0.8839874 1.3336792 0.8839874 2.1341553l0 12.072144c0 1.6668701 -1.3512573 3.0181274 -3.0181274 3.0181274l-33.80626 0c-1.6668701 0 -3.0181274 -1.3512573 -3.0181274 -3.0181274z" fill-rule="evenodd"/><path fill="#9900ff" d="m269.55667 530.2523l0 0c2.591858 -1.1779785 6.7941284 -1.1779785 9.386017 0l18.771454 8.531677l0 0c1.2446594 0.5656738 1.9439087 1.3329468 1.9439087 2.1329346c0 0.8000488 -0.69924927 1.5672607 -1.9439087 2.1329956l-18.771454 8.531616c-2.5918884 1.1779785 -6.794159 1.1779785 -9.386017 0l-18.77147 -8.531616c-2.5918732 -1.1780396 -2.5918732 -3.0879517 0 -4.26593z" fill-rule="evenodd"/><path stroke="#303030" stroke-width="1.0" stroke-linejoin="round" stroke-linecap="butt" d="m269.55667 530.2523l0 0c2.591858 -1.1779785 6.7941284 -1.1779785 9.386017 0l18.771454 8.531677l0 0c1.2446594 0.5656738 1.9439087 1.3329468 1.9439087 2.1329346c0 0.8000488 -0.69924927 1.5672607 -1.9439087 2.1329956l-18.771454 8.531616c-2.5918884 1.1779785 -6.794159 1.1779785 -9.386017 0l-18.77147 -8.531616c-2.5918732 -1.1780396 -2.5918732 -3.0879517 0 -4.26593z" fill-rule="evenodd"/><path fill="#000000" fill-opacity="0.0" d="m390.94785 522.3479l130.70865 114.99213" fill-rule="evenodd"/><path stroke="#000000" stroke-width="2.0" stroke-linejoin="round" stroke-linecap="butt" d="m390.94785 522.3479l130.70865 114.99213" fill-rule="evenodd"/><path fill="#000000" fill-opacity="0.0" d="m288.3284 547.31573l18.047272 96.787415" fill-rule="evenodd"/><path stroke="#000000" stroke-width="2.0" stroke-linejoin="round" stroke-linecap="butt" d="m288.3284 547.31573l18.047272 96.787415" fill-rule="evenodd"/><path fill="#000000" fill-opacity="0.0" d="m306.38647 644.1181l84.566925 -121.763794" fill-rule="evenodd"/><path stroke="#000000" stroke-width="2.0" stroke-linejoin="round" stroke-linecap="butt" d="m306.38647 644.1181l84.566925 -121.763794" fill-rule="evenodd"/><path fill="#000000" fill-opacity="0.0" d="m506.65942 540.92993l14.992126 96.409424" fill-rule="evenodd"/><path stroke="#000000" stroke-width="2.0" stroke-linejoin="round" stroke-linecap="butt" d="m506.65942 540.92993l14.992126 96.409424" fill-rule="evenodd"/><path fill="#eeeeee" d="m233.88222 448.4965l0 0c0 -43.02014 76.73204 -77.89487 171.38582 -77.89487l0 0c94.65378 0 171.38583 34.874725 171.38583 77.89487l0 0c0 43.02014 -76.732056 77.89487 -171.38583 77.89487l0 0c-94.65378 0 -171.38582 -34.874725 -171.38582 -77.89487z" fill-rule="evenodd"/><path stroke="#595959" stroke-width="1.0" stroke-linejoin="round" stroke-linecap="butt" d="m233.88222 448.4965l0 0c0 -43.02014 76.73204 -77.89487 171.38582 -77.89487l0 0c94.65378 0 171.38583 34.874725 171.38583 77.89487l0 0c0 43.02014 -76.732056 77.89487 -171.38583 77.89487l0 0c-94.65378 0 -171.38582 -34.874725 -171.38582 -77.89487z" fill-rule="evenodd"/><path fill="#0000ff" d="m371.02658 362.34555l0 0c0 -1.6668701 1.3512573 -3.018158 3.0181274 -3.018158l33.806244 0c0.8004761 0 1.5681458 0.31799316 2.1341553 0.8840027c0.5660095 0.5660095 0.88397217 1.3336792 0.88397217 2.1341553l0 12.072144c0 1.6668701 -1.3512573 3.0181274 -3.0181274 3.0181274l-33.806244 0c-1.6668701 0 -3.0181274 -1.3512573 -3.0181274 -3.0181274z" fill-rule="evenodd"/><path stroke="#303030" stroke-width="1.0" stroke-linejoin="round" stroke-linecap="butt" d="m371.02658 362.34555l0 0c0 -1.6668701 1.3512573 -3.018158 3.0181274 -3.018158l33.806244 0c0.8004761 0 1.5681458 0.31799316 2.1341553 0.8840027c0.5660095 0.5660095 0.88397217 1.3336792 0.88397217 2.1341553l0 12.072144c0 1.6668701 -1.3512573 3.0181274 -3.0181274 3.0181274l-33.806244 0c-1.6668701 0 -3.0181274 -1.3512573 -3.0181274 -3.0181274z" fill-rule="evenodd"/><path fill="#4a86e8" d="m497.2737 391.752l0 0c-2.5918884 -1.1779785 -2.5918884 -3.0879211 0 -4.26593l18.771454 -8.531616l0 0c1.24469 -0.56570435 2.9328003 -0.8835144 4.692993 -0.8835144c1.7602539 0 3.4483643 0.31781006 4.692993 0.8835144l18.771484 8.531616c2.591858 1.178009 2.591858 3.0879517 0 4.26593l-18.771484 8.531647c-2.591858 1.178009 -6.7941284 1.178009 -9.385986 0z" fill-rule="evenodd"/><path stroke="#303030" stroke-width="1.0" stroke-linejoin="round" stroke-linecap="butt" d="m497.2737 391.752l0 0c-2.5918884 -1.1779785 -2.5918884 -3.0879211 0 -4.26593l18.771454 -8.531616l0 0c1.24469 -0.56570435 2.9328003 -0.8835144 4.692993 -0.8835144c1.7602539 0 3.4483643 0.31781006 4.692993 0.8835144l18.771484 8.531616c2.591858 1.178009 2.591858 3.0879517 0 4.26593l-18.771484 8.531647c-2.591858 1.178009 -6.7941284 1.178009 -9.385986 0z" fill-rule="evenodd"/><path fill="#00ff00" d="m555.65125 436.8895l0 0c0 -1.6668701 1.3512573 -3.0181274 3.0181274 -3.0181274l33.806274 0c0.8004761 0 1.5681152 0.31799316 2.1341553 0.8840027c0.565979 0.5660095 0.88397217 1.3336792 0.88397217 2.1341248l0 12.072174c0 1.6668701 -1.3512573 3.0181274 -3.0181274 3.0181274l-33.806274 0c-1.6668701 0 -3.0181274 -1.3512573 -3.0181274 -3.0181274z" fill-rule="evenodd"/><path stroke="#303030" stroke-width="1.0" stroke-linejoin="round" stroke-linecap="butt" d="m555.65125 436.8895l0 0c0 -1.6668701 1.3512573 -3.0181274 3.0181274 -3.0181274l33.806274 0c0.8004761 0 1.5681152 0.31799316 2.1341553 0.8840027c0.565979 0.5660095 0.88397217 1.3336792 0.88397217 2.1341248l0 12.072174c0 1.6668701 -1.3512573 3.0181274 -3.0181274 3.0181274l-33.806274 0c-1.6668701 0 -3.0181274 -1.3512573 -3.0181274 -3.0181274z" fill-rule="evenodd"/><path fill="#ffff00" d="m531.037 488.14673l0 0c2.591858 -1.178009 6.7941284 -1.178009 9.385986 0l18.771484 8.531647l0 0c1.24469 0.5656738 1.9439087 1.3329468 1.9439087 2.132965c0 0.8000183 -0.69921875 1.5672607 -1.9439087 2.132965l-18.771484 8.531616c-2.591858 1.178009 -6.7941284 1.178009 -9.385986 0l-18.771484 -8.531616c-2.591858 -1.178009 -2.591858 -3.0879211 0 -4.26593z" fill-rule="evenodd"/><path stroke="#303030" stroke-width="1.0" stroke-linejoin="round" stroke-linecap="butt" d="m531.037 488.14673l0 0c2.591858 -1.178009 6.7941284 -1.178009 9.385986 0l18.771484 8.531647l0 0c1.24469 0.5656738 1.9439087 1.3329468 1.9439087 2.132965c0 0.8000183 -0.69921875 1.5672607 -1.9439087 2.132965l-18.771484 8.531616c-2.591858 1.178009 -6.7941284 1.178009 -9.385986 0l-18.771484 -8.531616c-2.591858 -1.178009 -2.591858 -3.0879211 0 -4.26593z" fill-rule="evenodd"/><path fill="#ff9900" d="m398.6565 520.2276l0 0c0 -1.6668701 1.3512573 -3.0181274 3.0181274 -3.0181274l33.806274 0c0.80044556 0 1.5681152 0.31799316 2.1341248 0.8840332c0.5660095 0.565979 0.8840027 1.3336792 0.8840027 2.1340942l0 12.072205c0 1.6668701 -1.3512573 3.0181274 -3.0181274 3.0181274l-33.806274 0c-1.6668701 0 -3.0181274 -1.3512573 -3.0181274 -3.0181274z" fill-rule="evenodd"/><path stroke="#303030" stroke-width="1.0" stroke-linejoin="round" stroke-linecap="butt" d="m398.6565 520.2276l0 0c0 -1.6668701 1.3512573 -3.0181274 3.0181274 -3.0181274l33.806274 0c0.80044556 0 1.5681152 0.31799316 2.1341248 0.8840332c0.5660095 0.565979 0.8840027 1.3336792 0.8840027 2.1340942l0 12.072205c0 1.6668701 -1.3512573 3.0181274 -3.0181274 3.0181274l-33.806274 0c-1.6668701 0 -3.0181274 -1.3512573 -3.0181274 -3.0181274z" fill-rule="evenodd"/><path fill="#ff0000" d="m268.84326 507.7378l0 0c-2.5918884 -1.178009 -2.5918884 -3.0879211 0 -4.26593l18.771454 -8.531647l0 0c1.2446594 -0.5656738 2.9328003 -0.8834839 4.6930237 -0.8834839c1.7601929 0 3.4483337 0.31781006 4.692993 0.8834839l18.771454 8.531647c2.5918884 1.178009 2.5918884 3.0879211 0 4.26593l-18.771454 8.531616c-2.5918884 1.1780396 -6.7941284 1.1780396 -9.386017 0z" fill-rule="evenodd"/><path stroke="#303030" stroke-width="1.0" stroke-linejoin="round" stroke-linecap="butt" d="m268.84326 507.7378l0 0c-2.5918884 -1.178009 -2.5918884 -3.0879211 0 -4.26593l18.771454 -8.531647l0 0c1.2446594 -0.5656738 2.9328003 -0.8834839 4.6930237 -0.8834839c1.7601929 0 3.4483337 0.31781006 4.692993 0.8834839l18.771454 8.531647c2.5918884 1.178009 2.5918884 3.0879211 0 4.26593l-18.771454 8.531616c-2.5918884 1.1780396 -6.7941284 1.1780396 -9.386017 0z" fill-rule="evenodd"/><path fill="#ff00ff" d="m209.87697 444.25455l0 0c0 -1.6668701 1.3512573 -3.0181274 3.0181274 -3.0181274l33.80626 0c0.8004608 0 1.5681305 0.31799316 2.13414 0.8840027c0.5660095 0.5660095 0.8839874 1.3336792 0.8839874 2.1341248l0 12.072174c0 1.6668701 -1.3512573 3.0181274 -3.0181274 3.0181274l-33.80626 0c-1.6668701 0 -3.0181274 -1.3512573 -3.0181274 -3.0181274z" fill-rule="evenodd"/><path stroke="#303030" stroke-width="1.0" stroke-linejoin="round" stroke-linecap="butt" d="m209.87697 444.25455l0 0c0 -1.6668701 1.3512573 -3.0181274 3.0181274 -3.0181274l33.80626 0c0.8004608 0 1.5681305 0.31799316 2.13414 0.8840027c0.5660095 0.5660095 0.8839874 1.3336792 0.8839874 2.1341248l0 12.072174c0 1.6668701 -1.3512573 3.0181274 -3.0181274 3.0181274l-33.80626 0c-1.6668701 0 -3.0181274 -1.3512573 -3.0181274 -3.0181274z" fill-rule="evenodd"/><path fill="#9900ff" d="m269.55667 385.34027l0 0c2.591858 -1.178009 6.7941284 -1.178009 9.386017 0l18.771454 8.531616l0 0c1.2446594 0.56570435 1.9439087 1.3329468 1.9439087 2.132965c0 0.8000183 -0.69924927 1.5672913 -1.9439087 2.1329956l-18.771454 8.531616c-2.5918884 1.178009 -6.794159 1.178009 -9.386017 0l-18.77147 -8.531616c-2.5918732 -1.178009 -2.5918732 -3.0879517 0 -4.2659607z" fill-rule="evenodd"/><path stroke="#303030" stroke-width="1.0" stroke-linejoin="round" stroke-linecap="butt" d="m269.55667 385.34027l0 0c2.591858 -1.178009 6.7941284 -1.178009 9.386017 0l18.771454 8.531616l0 0c1.2446594 0.56570435 1.9439087 1.3329468 1.9439087 2.132965c0 0.8000183 -0.69924927 1.5672913 -1.9439087 2.1329956l-18.771454 8.531616c-2.5918884 1.178009 -6.794159 1.178009 -9.386017 0l-18.77147 -8.531616c-2.5918732 -1.178009 -2.5918732 -3.0879517 0 -4.2659607z" fill-rule="evenodd"/><path fill="#000000" fill-opacity="0.0" d="m390.94785 377.43582l130.70865 114.99213" fill-rule="evenodd"/><path stroke="#000000" stroke-width="2.0" stroke-linejoin="round" stroke-linecap="butt" d="m390.94785 377.43582l130.70865 114.99213" fill-rule="evenodd"/><path fill="#000000" fill-opacity="0.0" d="m390.94785 377.43582l-84.566925 121.763794" fill-rule="evenodd"/><path stroke="#000000" stroke-width="2.0" stroke-linejoin="round" stroke-linecap="butt" d="m390.94785 377.43582l-84.566925 121.763794" fill-rule="evenodd"/><path fill="#000000" fill-opacity="0.0" d="m249.71948 450.29062l305.92126 -7.370056" fill-rule="evenodd"/><path stroke="#000000" stroke-width="2.0" stroke-linejoin="round" stroke-linecap="butt" d="m249.71948 450.29062l305.92126 -7.370056" fill-rule="evenodd"/><path fill="#eeeeee" d="m233.8809 303.5818l0 0c0 -43.02014 76.73204 -77.89485 171.38582 -77.89485l0 0c94.65378 0 171.38586 34.87471 171.38586 77.89485l0 0c0 43.02014 -76.732086 77.89487 -171.38586 77.89487l0 0c-94.65378 0 -171.38582 -34.874725 -171.38582 -77.89487z" fill-rule="evenodd"/><path stroke="#595959" stroke-width="1.0" stroke-linejoin="round" stroke-linecap="butt" d="m233.8809 303.5818l0 0c0 -43.02014 76.73204 -77.89485 171.38582 -77.89485l0 0c94.65378 0 171.38586 34.87471 171.38586 77.89485l0 0c0 43.02014 -76.732086 77.89487 -171.38586 77.89487l0 0c-94.65378 0 -171.38582 -34.874725 -171.38582 -77.89487z" fill-rule="evenodd"/><path fill="#0000ff" d="m371.02527 217.43085l0 0c0 -1.6668701 1.3512573 -3.0181427 3.0181274 -3.0181427l33.806244 0c0.8004761 0 1.5681458 0.31799316 2.1341553 0.8840027c0.5660095 0.56599426 0.88397217 1.3336792 0.88397217 2.13414l0 12.072159c0 1.6668701 -1.3512573 3.0181274 -3.0181274 3.0181274l-33.806244 0c-1.6668701 0 -3.0181274 -1.3512573 -3.0181274 -3.0181274z" fill-rule="evenodd"/><path stroke="#303030" stroke-width="1.0" stroke-linejoin="round" stroke-linecap="butt" d="m371.02527 217.43085l0 0c0 -1.6668701 1.3512573 -3.0181427 3.0181274 -3.0181427l33.806244 0c0.8004761 0 1.5681458 0.31799316 2.1341553 0.8840027c0.5660095 0.56599426 0.88397217 1.3336792 0.88397217 2.13414l0 12.072159c0 1.6668701 -1.3512573 3.0181274 -3.0181274 3.0181274l-33.806244 0c-1.6668701 0 -3.0181274 -1.3512573 -3.0181274 -3.0181274z" fill-rule="evenodd"/><path fill="#4a86e8" d="m497.2724 246.83733l0 0c-2.5918884 -1.178009 -2.5918884 -3.0879364 0 -4.2659454l18.771484 -8.531631l0 0c1.2446289 -0.5656891 2.9327393 -0.88349915 4.692993 -0.88349915c1.7601929 0 3.4483032 0.31781006 4.692993 0.88349915l18.771484 8.531631c2.591858 1.178009 2.591858 3.0879364 0 4.2659454l-18.771484 8.531631c-2.591858 1.178009 -6.7941284 1.178009 -9.385986 0z" fill-rule="evenodd"/><path stroke="#303030" stroke-width="1.0" stroke-linejoin="round" stroke-linecap="butt" d="m497.2724 246.83733l0 0c-2.5918884 -1.178009 -2.5918884 -3.0879364 0 -4.2659454l18.771484 -8.531631l0 0c1.2446289 -0.5656891 2.9327393 -0.88349915 4.692993 -0.88349915c1.7601929 0 3.4483032 0.31781006 4.692993 0.88349915l18.771484 8.531631c2.591858 1.178009 2.591858 3.0879364 0 4.2659454l-18.771484 8.531631c-2.591858 1.178009 -6.7941284 1.178009 -9.385986 0z" fill-rule="evenodd"/><path fill="#00ff00" d="m555.64996 291.9748l0 0c0 -1.6668701 1.3512573 -3.0181274 3.0181274 -3.0181274l33.806213 0c0.8004761 0 1.5681763 0.31799316 2.1341553 0.8840027c0.56604004 0.5660095 0.88397217 1.3336792 0.88397217 2.1341248l0 12.072174c0 1.6668701 -1.3512573 3.0181274 -3.0181274 3.0181274l-33.806213 0c-1.6668701 0 -3.0181274 -1.3512573 -3.0181274 -3.0181274z" fill-rule="evenodd"/><path stroke="#303030" stroke-width="1.0" stroke-linejoin="round" stroke-linecap="butt" d="m555.64996 291.9748l0 0c0 -1.6668701 1.3512573 -3.0181274 3.0181274 -3.0181274l33.806213 0c0.8004761 0 1.5681763 0.31799316 2.1341553 0.8840027c0.56604004 0.5660095 0.88397217 1.3336792 0.88397217 2.1341248l0 12.072174c0 1.6668701 -1.3512573 3.0181274 -3.0181274 3.0181274l-33.806213 0c-1.6668701 0 -3.0181274 -1.3512573 -3.0181274 -3.0181274z" fill-rule="evenodd"/><path fill="#ffff00" d="m531.03564 343.23203l0 0c2.591919 -1.178009 6.7941895 -1.178009 9.386047 0l18.771484 8.531647l0 0c1.2446289 0.56570435 1.9439087 1.3329468 1.9439087 2.132965c0 0.8000183 -0.6992798 1.5672607 -1.9439087 2.132965l-18.771484 8.531647c-2.591858 1.178009 -6.7941284 1.178009 -9.386047 0l-18.771423 -8.531647c-2.5918884 -1.178009 -2.5918884 -3.0879211 0 -4.26593z" fill-rule="evenodd"/><path stroke="#303030" stroke-width="1.0" stroke-linejoin="round" stroke-linecap="butt" d="m531.03564 343.23203l0 0c2.591919 -1.178009 6.7941895 -1.178009 9.386047 0l18.771484 8.531647l0 0c1.2446289 0.56570435 1.9439087 1.3329468 1.9439087 2.132965c0 0.8000183 -0.6992798 1.5672607 -1.9439087 2.132965l-18.771484 8.531647c-2.591858 1.178009 -6.7941284 1.178009 -9.386047 0l-18.771423 -8.531647c-2.5918884 -1.178009 -2.5918884 -3.0879211 0 -4.26593z" fill-rule="evenodd"/><path fill="#ff9900" d="m398.65518 375.31293l0 0c0 -1.6668701 1.3512573 -3.0181274 3.0181274 -3.0181274l33.806274 0c0.80044556 0 1.5681152 0.31796265 2.1341248 0.88397217c0.5660095 0.5660095 0.8840027 1.3337097 0.8840027 2.1341553l0 12.072174c0 1.6668701 -1.3512573 3.0181274 -3.0181274 3.0181274l-33.806274 0c-1.6668701 0 -3.0181274 -1.3512573 -3.0181274 -3.0181274z" fill-rule="evenodd"/><path stroke="#303030" stroke-width="1.0" stroke-linejoin="round" stroke-linecap="butt" d="m398.65518 375.31293l0 0c0 -1.6668701 1.3512573 -3.0181274 3.0181274 -3.0181274l33.806274 0c0.80044556 0 1.5681152 0.31796265 2.1341248 0.88397217c0.5660095 0.5660095 0.8840027 1.3337097 0.8840027 2.1341553l0 12.072174c0 1.6668701 -1.3512573 3.0181274 -3.0181274 3.0181274l-33.806274 0c-1.6668701 0 -3.0181274 -1.3512573 -3.0181274 -3.0181274z" fill-rule="evenodd"/><path fill="#ff0000" d="m268.84195 362.82312l0 0c-2.5918884 -1.178009 -2.5918884 -3.0879517 0 -4.2659607l18.771454 -8.531616l0 0c1.2446594 -0.56570435 2.9328003 -0.8835144 4.6930237 -0.8835144c1.7601929 0 3.4483337 0.31781006 4.692993 0.8835144l18.771454 8.531616c2.5918884 1.178009 2.5918884 3.0879517 0 4.2659607l-18.771454 8.531616c-2.5918884 1.178009 -6.7941284 1.178009 -9.386017 0z" fill-rule="evenodd"/><path stroke="#303030" stroke-width="1.0" stroke-linejoin="round" stroke-linecap="butt" d="m268.84195 362.82312l0 0c-2.5918884 -1.178009 -2.5918884 -3.0879517 0 -4.2659607l18.771454 -8.531616l0 0c1.2446594 -0.56570435 2.9328003 -0.8835144 4.6930237 -0.8835144c1.7601929 0 3.4483337 0.31781006 4.692993 0.8835144l18.771454 8.531616c2.5918884 1.178009 2.5918884 3.0879517 0 4.2659607l-18.771454 8.531616c-2.5918884 1.178009 -6.7941284 1.178009 -9.386017 0z" fill-rule="evenodd"/><path fill="#ff00ff" d="m209.87566 299.33984l0 0c0 -1.6668701 1.3512573 -3.0181274 3.0181274 -3.0181274l33.80626 0c0.8004608 0 1.5681305 0.31799316 2.13414 0.8840027c0.5660095 0.5660095 0.8839874 1.3336792 0.8839874 2.1341248l0 12.072174c0 1.6668701 -1.3512573 3.0181274 -3.0181274 3.0181274l-33.80626 0c-1.6668701 0 -3.0181274 -1.3512573 -3.0181274 -3.0181274z" fill-rule="evenodd"/><path stroke="#303030" stroke-width="1.0" stroke-linejoin="round" stroke-linecap="butt" d="m209.87566 299.33984l0 0c0 -1.6668701 1.3512573 -3.0181274 3.0181274 -3.0181274l33.80626 0c0.8004608 0 1.5681305 0.31799316 2.13414 0.8840027c0.5660095 0.5660095 0.8839874 1.3336792 0.8839874 2.1341248l0 12.072174c0 1.6668701 -1.3512573 3.0181274 -3.0181274 3.0181274l-33.80626 0c-1.6668701 0 -3.0181274 -1.3512573 -3.0181274 -3.0181274z" fill-rule="evenodd"/><path fill="#9900ff" d="m269.55536 240.42557l0 0c2.591858 -1.178009 6.7941284 -1.178009 9.386017 0l18.771454 8.531631l0 0c1.2446594 0.5656891 1.9439087 1.3329468 1.9439087 2.132965c0 0.8000183 -0.69924927 1.567276 -1.9439087 2.1329803l-18.771454 8.531616c-2.5918884 1.178009 -6.794159 1.178009 -9.386017 0l-18.77147 -8.531616c-2.5918732 -1.178009 -2.5918732 -3.0879364 0 -4.2659454z" fill-rule="evenodd"/><path stroke="#303030" stroke-width="1.0" stroke-linejoin="round" stroke-linecap="butt" d="m269.55536 240.42557l0 0c2.591858 -1.178009 6.7941284 -1.178009 9.386017 0l18.771454 8.531631l0 0c1.2446594 0.5656891 1.9439087 1.3329468 1.9439087 2.132965c0 0.8000183 -0.69924927 1.567276 -1.9439087 2.1329803l-18.771454 8.531616c-2.5918884 1.178009 -6.794159 1.178009 -9.386017 0l-18.77147 -8.531616c-2.5918732 -1.178009 -2.5918732 -3.0879364 0 -4.2659454z" fill-rule="evenodd"/><path fill="#000000" fill-opacity="0.0" d="m506.6581 251.10315l14.992157 96.409454" fill-rule="evenodd"/><path stroke="#000000" stroke-width="2.0" stroke-linejoin="round" stroke-linecap="butt" d="m506.6581 251.10315l14.992157 96.409454" fill-rule="evenodd"/><path fill="#000000" fill-opacity="0.0" d="m288.3271 257.48895l130.23624 114.80316" fill-rule="evenodd"/><path stroke="#000000" stroke-width="2.0" stroke-linejoin="round" stroke-linecap="butt" d="m288.3271 257.48895l130.23624 114.80316" fill-rule="evenodd"/><path fill="#000000" fill-opacity="0.0" d="m249.71817 305.37595l305.9213 -7.3700867" fill-rule="evenodd"/><path stroke="#000000" stroke-width="2.0" stroke-linejoin="round" stroke-linecap="butt" d="m249.71817 305.37595l305.9213 -7.3700867" fill-rule="evenodd"/><path fill="#999999" d="m233.88222 158.66972l0 0c0 -43.02015 76.73204 -77.89487 171.38582 -77.89487l0 0c94.65378 0 171.38583 34.874718 171.38583 77.89487l0 0c0 43.02014 -76.732056 77.89485 -171.38583 77.89485l0 0c-94.65378 0 -171.38582 -34.87471 -171.38582 -77.89485z" fill-rule="evenodd"/><path stroke="#595959" stroke-width="1.0" stroke-linejoin="round" stroke-linecap="butt" d="m233.88222 158.66972l0 0c0 -43.02015 76.73204 -77.89487 171.38582 -77.89487l0 0c94.65378 0 171.38583 34.874718 171.38583 77.89487l0 0c0 43.02014 -76.732056 77.89485 -171.38583 77.89485l0 0c-94.65378 0 -171.38582 -34.87471 -171.38582 -77.89485z" fill-rule="evenodd"/><path fill="#0000ff" d="m371.02658 72.51877l0 0c0 -1.6668701 1.3512573 -3.018135 3.0181274 -3.018135l33.806244 0c0.8004761 0 1.5681458 0.31798553 2.1341553 0.88399506c0.5660095 0.5660095 0.88397217 1.3336792 0.88397217 2.13414l0 12.072159c0 1.6668701 -1.3512573 3.018135 -3.0181274 3.018135l-33.806244 0c-1.6668701 0 -3.0181274 -1.351265 -3.0181274 -3.018135z" fill-rule="evenodd"/><path stroke="#303030" stroke-width="1.0" stroke-linejoin="round" stroke-linecap="butt" d="m371.02658 72.51877l0 0c0 -1.6668701 1.3512573 -3.018135 3.0181274 -3.018135l33.806244 0c0.8004761 0 1.5681458 0.31798553 2.1341553 0.88399506c0.5660095 0.5660095 0.88397217 1.3336792 0.88397217 2.13414l0 12.072159c0 1.6668701 -1.3512573 3.018135 -3.0181274 3.018135l-33.806244 0c-1.6668701 0 -3.0181274 -1.351265 -3.0181274 -3.018135z" fill-rule="evenodd"/><path fill="#4a86e8" d="m497.2737 101.925255l0 0c-2.5918884 -1.178009 -2.5918884 -3.0879364 0 -4.265938l18.771454 -8.531631l0 0c1.24469 -0.56570435 2.9328003 -0.8835068 4.692993 -0.8835068c1.7602539 0 3.4483643 0.31780243 4.692993 0.8835068l18.771484 8.531631c2.591858 1.1780014 2.591858 3.0879288 0 4.265938l-18.771484 8.531631c-2.591858 1.178009 -6.7941284 1.178009 -9.385986 0z" fill-rule="evenodd"/><path stroke="#303030" stroke-width="1.0" stroke-linejoin="round" stroke-linecap="butt" d="m497.2737 101.925255l0 0c-2.5918884 -1.178009 -2.5918884 -3.0879364 0 -4.265938l18.771454 -8.531631l0 0c1.24469 -0.56570435 2.9328003 -0.8835068 4.692993 -0.8835068c1.7602539 0 3.4483643 0.31780243 4.692993 0.8835068l18.771484 8.531631c2.591858 1.1780014 2.591858 3.0879288 0 4.265938l-18.771484 8.531631c-2.591858 1.178009 -6.7941284 1.178009 -9.385986 0z" fill-rule="evenodd"/><path fill="#00ff00" d="m555.65125 147.06273l0 0c0 -1.6668701 1.3512573 -3.0181274 3.0181274 -3.0181274l33.806274 0c0.8004761 0 1.5681152 0.3179779 2.1341553 0.8839874c0.565979 0.5660095 0.88397217 1.3336792 0.88397217 2.13414l0 12.072159c0 1.6668701 -1.3512573 3.0181427 -3.0181274 3.0181427l-33.806274 0c-1.6668701 0 -3.0181274 -1.3512726 -3.0181274 -3.0181427z" fill-rule="evenodd"/><path stroke="#303030" stroke-width="1.0" stroke-linejoin="round" stroke-linecap="butt" d="m555.65125 147.06273l0 0c0 -1.6668701 1.3512573 -3.0181274 3.0181274 -3.0181274l33.806274 0c0.8004761 0 1.5681152 0.3179779 2.1341553 0.8839874c0.565979 0.5660095 0.88397217 1.3336792 0.88397217 2.13414l0 12.072159c0 1.6668701 -1.3512573 3.0181427 -3.0181274 3.0181427l-33.806274 0c-1.6668701 0 -3.0181274 -1.3512726 -3.0181274 -3.0181427z" fill-rule="evenodd"/><path fill="#ffff00" d="m531.037 198.31996l0 0c2.591858 -1.178009 6.7941284 -1.178009 9.385986 0l18.771484 8.531631l0 0c1.24469 0.5656891 1.9439087 1.3329468 1.9439087 2.132965c0 0.8000183 -0.69921875 1.567276 -1.9439087 2.1329803l-18.771484 8.531631c-2.591858 1.178009 -6.7941284 1.178009 -9.385986 0l-18.771484 -8.531631c-2.591858 -1.178009 -2.591858 -3.0879364 0 -4.2659454z" fill-rule="evenodd"/><path stroke="#303030" stroke-width="1.0" stroke-linejoin="round" stroke-linecap="butt" d="m531.037 198.31996l0 0c2.591858 -1.178009 6.7941284 -1.178009 9.385986 0l18.771484 8.531631l0 0c1.24469 0.5656891 1.9439087 1.3329468 1.9439087 2.132965c0 0.8000183 -0.69921875 1.567276 -1.9439087 2.1329803l-18.771484 8.531631c-2.591858 1.178009 -6.7941284 1.178009 -9.385986 0l-18.771484 -8.531631c-2.591858 -1.178009 -2.591858 -3.0879364 0 -4.2659454z" fill-rule="evenodd"/><path fill="#ff9900" d="m398.6565 230.40085l0 0c0 -1.6668701 1.3512573 -3.0181274 3.0181274 -3.0181274l33.806274 0c0.80044556 0 1.5681152 0.3179779 2.1341248 0.8839874c0.5660095 0.5660095 0.8840027 1.3336945 0.8840027 2.13414l0 12.072174c0 1.6668549 -1.3512573 3.0181274 -3.0181274 3.0181274l-33.806274 0c-1.6668701 0 -3.0181274 -1.3512726 -3.0181274 -3.0181274z" fill-rule="evenodd"/><path stroke="#303030" stroke-width="1.0" stroke-linejoin="round" stroke-linecap="butt" d="m398.6565 230.40085l0 0c0 -1.6668701 1.3512573 -3.0181274 3.0181274 -3.0181274l33.806274 0c0.80044556 0 1.5681152 0.3179779 2.1341248 0.8839874c0.5660095 0.5660095 0.8840027 1.3336945 0.8840027 2.13414l0 12.072174c0 1.6668549 -1.3512573 3.0181274 -3.0181274 3.0181274l-33.806274 0c-1.6668701 0 -3.0181274 -1.3512726 -3.0181274 -3.0181274z" fill-rule="evenodd"/><path fill="#ff0000" d="m268.84326 217.91103l0 0c-2.5918884 -1.1779938 -2.5918884 -3.0879364 0 -4.26593l18.771454 -8.531631l0 0c1.2446594 -0.56570435 2.9328003 -0.8835144 4.6930237 -0.8835144c1.7601929 0 3.4483337 0.31781006 4.692993 0.8835144l18.771454 8.531631c2.5918884 1.1779938 2.5918884 3.0879364 0 4.26593l-18.771454 8.531631c-2.5918884 1.178009 -6.7941284 1.178009 -9.386017 0z" fill-rule="evenodd"/><path stroke="#303030" stroke-width="1.0" stroke-linejoin="round" stroke-linecap="butt" d="m268.84326 217.91103l0 0c-2.5918884 -1.1779938 -2.5918884 -3.0879364 0 -4.26593l18.771454 -8.531631l0 0c1.2446594 -0.56570435 2.9328003 -0.8835144 4.6930237 -0.8835144c1.7601929 0 3.4483337 0.31781006 4.692993 0.8835144l18.771454 8.531631c2.5918884 1.1779938 2.5918884 3.0879364 0 4.26593l-18.771454 8.531631c-2.5918884 1.178009 -6.7941284 1.178009 -9.386017 0z" fill-rule="evenodd"/><path fill="#ff00ff" d="m209.87697 154.42778l0 0c0 -1.6668701 1.3512573 -3.0181274 3.0181274 -3.0181274l33.80626 0c0.8004608 0 1.5681305 0.3179779 2.13414 0.8839874c0.5660095 0.5660095 0.8839874 1.3336792 0.8839874 2.13414l0 12.072159c0 1.6668701 -1.3512573 3.0181274 -3.0181274 3.0181274l-33.80626 0c-1.6668701 0 -3.0181274 -1.3512573 -3.0181274 -3.0181274z" fill-rule="evenodd"/><path stroke="#303030" stroke-width="1.0" stroke-linejoin="round" stroke-linecap="butt" d="m209.87697 154.42778l0 0c0 -1.6668701 1.3512573 -3.0181274 3.0181274 -3.0181274l33.80626 0c0.8004608 0 1.5681305 0.3179779 2.13414 0.8839874c0.5660095 0.5660095 0.8839874 1.3336792 0.8839874 2.13414l0 12.072159c0 1.6668701 -1.3512573 3.0181274 -3.0181274 3.0181274l-33.80626 0c-1.6668701 0 -3.0181274 -1.3512573 -3.0181274 -3.0181274z" fill-rule="evenodd"/><path fill="#9900ff" d="m269.55667 95.51349l0 0c2.591858 -1.178009 6.7941284 -1.178009 9.386017 0l18.771454 8.531631l0 0c1.2446594 0.5656967 1.9439087 1.3329544 1.9439087 2.1329727c0 0.8000183 -0.69924927 1.567276 -1.9439087 2.1329727l-18.771454 8.531631c-2.5918884 1.178009 -6.794159 1.178009 -9.386017 0l-18.77147 -8.531631c-2.5918732 -1.178009 -2.5918732 -3.0879364 0 -4.2659454z" fill-rule="evenodd"/><path stroke="#303030" stroke-width="1.0" stroke-linejoin="round" stroke-linecap="butt" d="m269.55667 95.51349l0 0c2.591858 -1.178009 6.7941284 -1.178009 9.386017 0l18.771454 8.531631l0 0c1.2446594 0.5656967 1.9439087 1.3329544 1.9439087 2.1329727c0 0.8000183 -0.69924927 1.567276 -1.9439087 2.1329727l-18.771454 8.531631c-2.5918884 1.178009 -6.794159 1.178009 -9.386017 0l-18.77147 -8.531631c-2.5918732 -1.178009 -2.5918732 -3.0879364 0 -4.2659454z" fill-rule="evenodd"/><path fill="#000000" fill-opacity="0.0" d="m506.65942 106.19107l-218.33069 6.3936996" fill-rule="evenodd"/><path stroke="#ff1864" stroke-width="2.0" stroke-linejoin="round" stroke-linecap="butt" d="m506.65942 106.19107l-218.33069 6.3936996" fill-rule="evenodd"/><path fill="#000000" fill-opacity="0.0" d="m288.3284 112.57688l267.3386 40.53544" fill-rule="evenodd"/><path stroke="#ff1864" stroke-width="2.0" stroke-linejoin="round" stroke-linecap="butt" d="m288.3284 112.57688l267.3386 40.53544" fill-rule="evenodd"/><path fill="#000000" fill-opacity="0.0" d="m306.38647 209.37927l249.25983 -56.283463" fill-rule="evenodd"/><path stroke="#ff1864" stroke-width="2.0" stroke-linejoin="round" stroke-linecap="butt" d="m306.38647 209.37927l249.25983 -56.283463" fill-rule="evenodd"/><path fill="#000000" fill-opacity="0.0" d="m130.46948 283.39993l48.535446 0l0 38.015747l-48.535446 0z" fill-rule="evenodd"/><path fill="#ffffff" d="m152.35367 303.4853l0 7.5625l-3.625 0l0 -13.09375l3.453125 0l0 2.3125l0.15625 0q0.4375 -1.140625 1.453125 -1.8125q1.03125 -0.671875 2.484375 -0.671875q1.359375 0 2.375 0.609375q1.015625 0.59375 1.578125 1.703125q0.5625 1.09375 0.5625 2.625l0 8.328125l-3.625 0l0 -7.6875q0 -1.203125 -0.625 -1.875q-0.609375 -0.6875 -1.703125 -0.6875q-0.734375 0 -1.296875 0.328125q-0.5625 0.3125 -0.875 0.921875q-0.296875 0.59375 -0.3125 1.4375z" fill-rule="nonzero"/><path fill="#000000" fill-opacity="0.0" d="m130.46948 138.48654l48.535446 0l0 38.015747l-48.535446 0z" fill-rule="evenodd"/><path fill="#ffffff" d="m138.32521 158.57191l0 7.5625l-3.625 0l0 -13.09375l3.453125 0l0 2.3125l0.15625 0q0.4375 -1.140625 1.453125 -1.8125q1.03125 -0.671875 2.484375 -0.671875q1.359375 0 2.375 0.609375q1.015625 0.59375 1.578125 1.703125q0.5625 1.09375 0.5625 2.625l0 8.328125l-3.625 0l0 -7.6875q0 -1.203125 -0.625 -1.875q-0.609375 -0.6875 -1.703125 -0.6875q-0.734375 0 -1.296875 0.328125q-0.5625 0.3125 -0.875 0.921875q-0.296875 0.59375 -0.3125 1.4375zm16.470215 6.609375l0 -12.0625l3.0625 0l0 12.0625l-3.0625 0zm-4.5 -4.5l0 -3.046875l12.0625 0l0 3.046875l-12.0625 0zm23.20317 -12.0l0 17.453125l-3.703125 0l0 -13.953125l-0.09375 0l-4.0 2.5l0 -3.265625l4.328125 -2.734375l3.46875 0z" fill-rule="nonzero"/></g></svg>