<svg version="1.1" viewBox="0.0 0.0 910.1837270341207 356.8897637795276" fill="none" stroke="none" stroke-linecap="square" stroke-miterlimit="10" xmlns:xlink="http://www.w3.org/1999/xlink" xmlns="http://www.w3.org/2000/svg"><clipPath id="p.0"><path d="m0 0l910.1837 0l0 356.88977l-910.1837 0l0 -356.88977z" clip-rule="nonzero"/></clipPath><g clip-path="url(#p.0)"><path fill="#none" d="m0 0l910.1837 0l0 356.88977l-910.1837 0z" fill-rule="evenodd"/><path fill="#000000" fill-opacity="0.0" d="m83.89257 140.1603l0 0c0 -5.2707214 4.272766 -9.543503 9.543495 -9.543503l38.17285 0l0 0c2.5310974 0 4.9585114 1.0054779 6.7482758 2.795227c1.7897491 1.7897644 2.7952118 4.2171783 2.7952118 6.7482758l0 38.928757c0 5.2707214 -4.272766 9.543488 -9.543488 9.543488l-38.17285 0l0 0c-5.270729 0 -9.543495 -4.272766 -9.543495 -9.543488z" fill-rule="evenodd"/><path stroke="#8d3aed" stroke-width="3.0" stroke-linejoin="round" stroke-linecap="butt" d="m83.89257 140.1603l0 0c0 -5.2707214 4.272766 -9.543503 9.543495 -9.543503l38.17285 0l0 0c2.5310974 0 4.9585114 1.0054779 6.7482758 2.795227c1.7897491 1.7897644 2.7952118 4.2171783 2.7952118 6.7482758l0 38.928757c0 5.2707214 -4.272766 9.543488 -9.543488 9.543488l-38.17285 0l0 0c-5.270729 0 -9.543495 -4.272766 -9.543495 -9.543488z" fill-rule="evenodd"/><path fill="#ffffff" d="m115.12991 164.14467l-1.359375 0l-2.234375 -4.78125l-0.640625 -1.53125l0 3.859375l0 2.453125l-0.96875 0l0 -7.65625l1.34375 0l2.125 4.515625l0.765625 1.75l0 -4.09375l0 -2.171875l0.96875 0l0 7.65625z" fill-rule="nonzero"/><path fill="#000000" fill-opacity="0.0" d="m65.8294 221.98454l0 0c0 -8.03656 6.5149155 -14.551468 14.551468 -14.551468l64.28289 0c3.8592834 0 7.560501 1.5330963 10.289444 4.262024c2.7289276 2.7289276 4.262024 6.4301605 4.262024 10.289444l0 58.204147c0 8.03656 -6.514923 14.551453 -14.551468 14.551453l-64.28289 0c-8.036552 0 -14.551468 -6.5148926 -14.551468 -14.551453z" fill-rule="evenodd"/><path stroke="#24cc85" stroke-width="3.0" stroke-linejoin="round" stroke-linecap="butt" d="m65.8294 221.98454l0 0c0 -8.03656 6.5149155 -14.551468 14.551468 -14.551468l64.28289 0c3.8592834 0 7.560501 1.5330963 10.289444 4.262024c2.7289276 2.7289276 4.262024 6.4301605 4.262024 10.289444l0 58.204147c0 8.03656 -6.514923 14.551453 -14.551468 14.551453l-64.28289 0c-8.036552 0 -14.551468 -6.5148926 -14.551468 -14.551453z" fill-rule="evenodd"/><path fill="#ffffff" d="m117.259636 257.22662l-1.578125 0l-6.34375 -9.60939l0 9.60939l-1.578125 0l0 -12.093765l1.578125 0l6.34375 9.59375l0 -9.59375l1.578125 0l0 12.093765z" fill-rule="nonzero"/><path fill="#000000" fill-opacity="0.0" d="m235.27821 221.98454l0 0c0 -8.03656 6.514923 -14.551468 14.551468 -14.551468l64.2829 0c3.8592834 0 7.5605164 1.5330963 10.289429 4.262024c2.7289429 2.7289276 4.262024 6.4301605 4.262024 10.289444l0 58.204147c0 8.03656 -6.5148926 14.551453 -14.551453 14.551453l-64.2829 0c-8.036545 0 -14.551468 -6.5148926 -14.551468 -14.551453z" fill-rule="evenodd"/><path stroke="#24cc85" stroke-width="3.0" stroke-linejoin="round" stroke-linecap="butt" d="m235.27821 221.98454l0 0c0 -8.03656 6.514923 -14.551468 14.551468 -14.551468l64.2829 0c3.8592834 0 7.5605164 1.5330963 10.289429 4.262024c2.7289429 2.7289276 4.262024 6.4301605 4.262024 10.289444l0 58.204147c0 8.03656 -6.5148926 14.551453 -14.551453 14.551453l-64.2829 0c-8.036545 0 -14.551468 -6.5148926 -14.551468 -14.551453z" fill-rule="evenodd"/><path fill="#ffffff" d="m278.01846 257.22662l-1.578125 0l-6.34375 -9.60939l0 9.60939l-1.578125 0l0 -12.093765l1.578125 0l6.34375 9.59375l0 -9.59375l1.578125 0l0 12.093765zm11.697205 -5.6718903l-3.6875 0l0 3.75l-1.46875 0l0 -3.75l-3.6875 0l0 -1.328125l3.6875 0l0 -3.765625l1.46875 0l0 3.765625l3.6875 0l0 1.328125zm2.1475525 -5.421875l0 -1.4375l3.265625 0l0 12.531265l-1.59375 0l0 -11.093765l-1.671875 0z" fill-rule="nonzero"/><path fill="#000000" fill-opacity="0.0" d="m404.72702 221.98454l0 0c0 -8.03656 6.514923 -14.551468 14.551483 -14.551468l64.2829 0c3.8592834 0 7.5605164 1.5330963 10.289429 4.262024c2.7289429 2.7289276 4.262024 6.4301605 4.262024 10.289444l0 58.204147c0 8.03656 -6.514923 14.551453 -14.551453 14.551453l-64.2829 0c-8.03656 0 -14.551483 -6.5148926 -14.551483 -14.551453z" fill-rule="evenodd"/><path stroke="#24cc85" stroke-width="3.0" stroke-linejoin="round" stroke-linecap="butt" d="m404.72702 221.98454l0 0c0 -8.03656 6.514923 -14.551468 14.551483 -14.551468l64.2829 0c3.8592834 0 7.5605164 1.5330963 10.289429 4.262024c2.7289429 2.7289276 4.262024 6.4301605 4.262024 10.289444l0 58.204147c0 8.03656 -6.514923 14.551453 -14.551453 14.551453l-64.2829 0c-8.03656 0 -14.551483 -6.5148926 -14.551483 -14.551453z" fill-rule="evenodd"/><path fill="#ffffff" d="m445.25797 257.22662l-1.578125 0l-6.34375 -9.60939l0 9.60939l-1.578125 0l0 -12.093765l1.578125 0l6.34375 9.59375l0 -9.59375l1.578125 0l0 12.093765zm11.697205 -5.6718903l-3.6875 0l0 3.75l-1.46875 0l0 -3.75l-3.6875 0l0 -1.328125l3.6875 0l0 -3.765625l1.46875 0l0 3.765625l3.6875 0l0 1.328125zm2.3819275 4.40625q2.1875 -1.765625 3.4375 -2.890625q1.25 -1.140625 2.109375 -2.375q0.859375 -1.25 0.859375 -2.4375q0 -1.140625 -0.546875 -1.78125q-0.546875 -0.65625 -1.765625 -0.65625q-1.171875 0 -1.828125 0.75q-0.640625 0.734375 -0.703125 1.953125l-1.515625 0q0.0625 -1.9375 1.171875 -2.984375q1.109375 -1.0625 2.859375 -1.0625q1.796875 0 2.84375 0.984375q1.046875 0.984375 1.046875 2.71875q0 1.4375 -0.859375 2.796875q-0.859375 1.359375 -1.953125 2.390625q-1.09375 1.03125 -2.796875 2.40625l5.96875 0l0 1.3125153l-8.328125 0l0 -1.1250153z" fill-rule="nonzero"/><path fill="#000000" fill-opacity="0.0" d="m574.17584 221.98454l0 0c0 -8.03656 6.5149536 -14.551468 14.551453 -14.551468l64.2829 0c3.859314 0 7.560547 1.5330963 10.28949 4.262024c2.7288818 2.7289276 4.262024 6.4301605 4.262024 10.289444l0 58.204147c0 8.03656 -6.5149536 14.551453 -14.551514 14.551453l-64.2829 0c-8.036499 0 -14.551453 -6.5148926 -14.551453 -14.551453z" fill-rule="evenodd"/><path stroke="#24cc85" stroke-width="3.0" stroke-linejoin="round" stroke-linecap="butt" d="m574.17584 221.98454l0 0c0 -8.03656 6.5149536 -14.551468 14.551453 -14.551468l64.2829 0c3.859314 0 7.560547 1.5330963 10.28949 4.262024c2.7288818 2.7289276 4.262024 6.4301605 4.262024 10.289444l0 58.204147c0 8.03656 -6.5149536 14.551453 -14.551514 14.551453l-64.2829 0c-8.036499 0 -14.551453 -6.5148926 -14.551453 -14.551453z" fill-rule="evenodd"/><path fill="#ffffff" d="m614.58545 257.22662l-1.578125 0l-6.34375 -9.60939l0 9.60939l-1.578125 0l0 -12.093765l1.578125 0l6.34375 9.59375l0 -9.59375l1.578125 0l0 12.093765zm11.697266 -5.6718903l-3.6875 0l0 3.75l-1.46875 0l0 -3.75l-3.6875 0l0 -1.328125l3.6875 0l0 -3.765625l1.46875 0l0 3.765625l3.6875 0l0 1.328125zm2.538147 -3.703125q0.109375 -1.59375 1.21875 -2.484375q1.109375 -0.90625 2.875 -0.90625q1.1875 0 2.046875 0.421875q0.859375 0.421875 1.296875 1.15625q0.4375 0.71875 0.4375 1.640625q0 1.078125 -0.625 1.859375q-0.609375 0.78125 -1.59375 1.0l0 0.078125q1.125 0.28125 1.78125 1.09375q0.671875 0.8125 0.671875 2.140625q0 0.984375 -0.453125 1.78125q-0.453125 0.78126526 -1.359375 1.2343903q-0.890625 0.453125 -2.15625 0.453125q-1.84375 0 -3.03125 -0.96875q-1.171875 -0.96876526 -1.3125 -2.7343903l1.53125 0q0.125 1.046875 0.84375 1.703125q0.734375 0.65625 1.9375 0.65625q1.21875 0 1.84375 -0.625q0.640625 -0.640625 0.640625 -1.640625q0 -1.296875 -0.875 -1.859375q-0.859375 -0.578125 -2.609375 -0.578125l-0.390625 0l0 -1.328125l0.40625 0q1.59375 -0.015625 2.40625 -0.515625q0.828125 -0.515625 0.828125 -1.59375q0 -0.921875 -0.609375 -1.46875q-0.59375 -0.5625 -1.703125 -0.5625q-1.078125 0 -1.734375 0.5625q-0.65625 0.546875 -0.78125 1.484375l-1.53125 0z" fill-rule="nonzero"/><path fill="#000000" fill-opacity="0.0" d="m174.3755 140.1603l0 0c0 -5.2707214 4.2727814 -9.543503 9.543503 -9.543503l38.17285 0l0 0c2.5310822 0 4.9585114 1.0054779 6.7482758 2.795227c1.7897491 1.7897644 2.7952118 4.2171783 2.7952118 6.7482758l0 38.928757c0 5.2707214 -4.272766 9.543488 -9.543488 9.543488l-38.17285 0l0 0c-5.2707214 0 -9.543503 -4.272766 -9.543503 -9.543488z" fill-rule="evenodd"/><path stroke="#8d3aed" stroke-width="3.0" stroke-linejoin="round" stroke-linecap="butt" d="m174.3755 140.1603l0 0c0 -5.2707214 4.2727814 -9.543503 9.543503 -9.543503l38.17285 0l0 0c2.5310822 0 4.9585114 1.0054779 6.7482758 2.795227c1.7897491 1.7897644 2.7952118 4.2171783 2.7952118 6.7482758l0 38.928757c0 5.2707214 -4.272766 9.543488 -9.543488 9.543488l-38.17285 0l0 0c-5.2707214 0 -9.543503 -4.272766 -9.543503 -9.543488z" fill-rule="evenodd"/><path fill="#ffffff" d="m205.61285 164.14467l-1.359375 0l-2.234375 -4.78125l-0.640625 -1.53125l0 3.859375l0 2.453125l-0.96875 0l0 -7.65625l1.34375 0l2.125 4.515625l0.765625 1.75l0 -4.09375l0 -2.171875l0.96875 0l0 7.65625z" fill-rule="nonzero"/><path fill="#000000" fill-opacity="0.0" d="m253.34138 140.1603l0 0c0 -5.2707214 4.2727814 -9.543503 9.543503 -9.543503l38.17285 0l0 0c2.5310974 0 4.9585266 1.0054779 6.7482605 2.795227c1.7897644 1.7897644 2.795227 4.2171783 2.795227 6.7482758l0 38.928757c0 5.2707214 -4.272766 9.543488 -9.543488 9.543488l-38.17285 0l0 0c-5.2707214 0 -9.543503 -4.272766 -9.543503 -9.543488z" fill-rule="evenodd"/><path stroke="#8d3aed" stroke-width="3.0" stroke-linejoin="round" stroke-linecap="butt" d="m253.34138 140.1603l0 0c0 -5.2707214 4.2727814 -9.543503 9.543503 -9.543503l38.17285 0l0 0c2.5310974 0 4.9585266 1.0054779 6.7482605 2.795227c1.7897644 1.7897644 2.795227 4.2171783 2.795227 6.7482758l0 38.928757c0 5.2707214 -4.272766 9.543488 -9.543488 9.543488l-38.17285 0l0 0c-5.2707214 0 -9.543503 -4.272766 -9.543503 -9.543488z" fill-rule="evenodd"/><path fill="#ffffff" d="m277.98108 164.14467l-1.359375 0l-2.234375 -4.78125l-0.640625 -1.53125l0 3.859375l0 2.453125l-0.96875 0l0 -7.65625l1.34375 0l2.125 4.515625l0.765625 1.75l0 -4.09375l0 -2.171875l0.96875 0l0 7.65625zm6.8007812 -2.75l-2.3125 0l0 2.390625l-1.0 0l0 -2.390625l-2.296875 0l0 -0.890625l2.296875 0l0 -2.375l1.0 0l0 2.375l2.3125 0l0 0.890625zm6.3320312 2.75l-4.8125 0l0 -0.953125l1.96875 0l0 -5.59375l-1.828125 1.0l-0.375 -0.859375l2.4375 -1.28125l0.890625 0l0 6.734375l1.71875 0l0 0.953125z" fill-rule="nonzero"/><path fill="#000000" fill-opacity="0.0" d="m658.6564 140.1603l0 0c0 -5.2707214 4.272766 -9.543503 9.543457 -9.543503l38.17285 0l0 0c2.531128 0 4.958557 1.0054779 6.748291 2.795227c1.7897339 1.7897644 2.795227 4.2171783 2.795227 6.7482758l0 38.928757c0 5.2707214 -4.272766 9.543488 -9.543518 9.543488l-38.17285 0l0 0c-5.270691 0 -9.543457 -4.272766 -9.543457 -9.543488z" fill-rule="evenodd"/><path stroke="#8d3aed" stroke-width="3.0" stroke-linejoin="round" stroke-linecap="butt" d="m658.6564 140.1603l0 0c0 -5.2707214 4.272766 -9.543503 9.543457 -9.543503l38.17285 0l0 0c2.531128 0 4.958557 1.0054779 6.748291 2.795227c1.7897339 1.7897644 2.795227 4.2171783 2.795227 6.7482758l0 38.928757c0 5.2707214 -4.272766 9.543488 -9.543518 9.543488l-38.17285 0l0 0c-5.270691 0 -9.543457 -4.272766 -9.543457 -9.543488z" fill-rule="evenodd"/><path fill="#ffffff" d="m683.296 164.14467l-1.359375 0l-2.234375 -4.78125l-0.640625 -1.53125l0 3.859375l0 2.453125l-0.96875 0l0 -7.65625l1.34375 0l2.125 4.515625l0.765625 1.75l0 -4.09375l0 -2.171875l0.96875 0l0 7.65625zm6.8007812 -2.75l-2.3125 0l0 2.390625l-1.0 0l0 -2.390625l-2.296875 0l0 -0.890625l2.296875 0l0 -2.375l1.0 0l0 2.375l2.3125 0l0 0.890625zm6.3320312 2.75l-4.8125 0l0 -0.953125l1.96875 0l0 -5.59375l-1.828125 1.0l-0.375 -0.859375l2.4375 -1.28125l0.890625 0l0 6.734375l1.71875 0l0 0.953125z" fill-rule="nonzero"/><path fill="#000000" fill-opacity="0.0" d="m422.79022 44.700977l0 0c0 -5.270729 4.272766 -9.543499 9.543488 -9.543499l38.17285 0l0 0c2.5310974 0 4.958496 1.0054741 6.7482605 2.795227c1.7897644 1.789753 2.795227 4.2171783 2.795227 6.748272l0 38.928753c0 5.270729 -4.272766 9.543495 -9.543488 9.543495l-38.17285 0l0 0c-5.2707214 0 -9.543488 -4.272766 -9.543488 -9.543495z" fill-rule="evenodd"/><path stroke="#8d3aed" stroke-width="3.0" stroke-linejoin="round" stroke-linecap="butt" d="m422.79022 44.700977l0 0c0 -5.270729 4.272766 -9.543499 9.543488 -9.543499l38.17285 0l0 0c2.5310974 0 4.958496 1.0054741 6.7482605 2.795227c1.7897644 1.789753 2.795227 4.2171783 2.795227 6.748272l0 38.928753c0 5.270729 -4.272766 9.543495 -9.543488 9.543495l-38.17285 0l0 0c-5.2707214 0 -9.543488 -4.272766 -9.543488 -9.543495z" fill-rule="evenodd"/><path fill="#ffffff" d="m447.4299 68.685356l-1.359375 0l-2.234375 -4.781254l-0.640625 -1.53125l0 3.8593788l0 2.453125l-0.96875 0l0 -7.656254l1.34375 0l2.125 4.515629l0.765625 1.75l0 -4.093754l0 -2.171875l0.96875 0l0 7.656254zm6.8007812 -2.75l-2.3125 0l0 2.390625l-1.0 0l0 -2.390625l-2.296875 0l0 -0.890625l2.296875 0l0 -2.3750038l1.0 0l0 2.3750038l2.3125 0l0 0.890625zm6.3945312 2.75l-5.046875 0l0 -0.921875l1.984375 -1.96875q0.484375 -0.46875 0.78125 -0.8125q0.3125 -0.359375 0.484375 -0.640625q0.171875 -0.296875 0.21875 -0.5468788q0.0625 -0.265625 0.0625 -0.578125q0 -0.28125 -0.078125 -0.53125q-0.0625 -0.25 -0.234375 -0.4375q-0.15625 -0.203125 -0.40625 -0.3125q-0.25 -0.109375 -0.59375 -0.109375q-0.5 0 -0.90625 0.21875q-0.390625 0.21875 -0.71875 0.5625l-0.5625 -0.671875q0.4375 -0.46875 1.0 -0.734375q0.5625 -0.28125 1.3125 -0.28125q0.515625 0 0.921875 0.15625q0.421875 0.15625 0.71875 0.4375q0.3125 0.28125 0.484375 0.703125q0.171875 0.421875 0.171875 0.9375q0 0.4375 -0.125 0.8125q-0.109375 0.3750038 -0.359375 0.7500038q-0.234375 0.375 -0.59375 0.78125q-0.359375 0.390625 -0.84375 0.859375l-1.390625 1.359375l3.71875 0l0 0.96875z" fill-rule="nonzero"/><path fill="#000000" fill-opacity="0.0" d="m796.07367 44.700977l0 0c0 -5.270729 4.272766 -9.543499 9.543518 -9.543499l38.17285 0l0 0c2.531067 0 4.958496 1.0054741 6.74823 2.795227c1.7897949 1.789753 2.795227 4.2171783 2.795227 6.748272l0 38.928753c0 5.270729 -4.272766 9.543495 -9.543457 9.543495l-38.17285 0l0 0c-5.270752 0 -9.543518 -4.272766 -9.543518 -9.543495z" fill-rule="evenodd"/><path stroke="#8d3aed" stroke-width="3.0" stroke-linejoin="round" stroke-linecap="butt" d="m796.07367 44.700977l0 0c0 -5.270729 4.272766 -9.543499 9.543518 -9.543499l38.17285 0l0 0c2.531067 0 4.958496 1.0054741 6.74823 2.795227c1.7897949 1.789753 2.795227 4.2171783 2.795227 6.748272l0 38.928753c0 5.270729 -4.272766 9.543495 -9.543457 9.543495l-38.17285 0l0 0c-5.270752 0 -9.543518 -4.272766 -9.543518 -9.543495z" fill-rule="evenodd"/><path fill="#ffffff" d="m820.7134 68.685356l-1.359375 0l-2.234375 -4.781254l-0.640625 -1.53125l0 3.8593788l0 2.453125l-0.96875 0l0 -7.656254l1.34375 0l2.125 4.515629l0.765625 1.75l0 -4.093754l0 -2.171875l0.96875 0l0 7.656254zm6.8007812 -2.75l-2.3125 0l0 2.390625l-1.0 0l0 -2.390625l-2.296875 0l0 -0.890625l2.296875 0l0 -2.3750038l1.0 0l0 2.3750038l2.3125 0l0 0.890625zm6.3945312 2.75l-5.046875 0l0 -0.921875l1.984375 -1.96875q0.484375 -0.46875 0.78125 -0.8125q0.3125 -0.359375 0.484375 -0.640625q0.171875 -0.296875 0.21875 -0.5468788q0.0625 -0.265625 0.0625 -0.578125q0 -0.28125 -0.078125 -0.53125q-0.0625 -0.25 -0.234375 -0.4375q-0.15625 -0.203125 -0.40625 -0.3125q-0.25 -0.109375 -0.59375 -0.109375q-0.5 0 -0.90625 0.21875q-0.390625 0.21875 -0.71875 0.5625l-0.5625 -0.671875q0.4375 -0.46875 1.0 -0.734375q0.5625 -0.28125 1.3125 -0.28125q0.515625 0 0.921875 0.15625q0.421875 0.15625 0.71875 0.4375q0.3125 0.28125 0.484375 0.703125q0.171875 0.421875 0.171875 0.9375q0 0.4375 -0.125 0.8125q-0.109375 0.3750038 -0.359375 0.7500038q-0.234375 0.375 -0.59375 0.78125q-0.359375 0.390625 -0.84375 0.859375l-1.390625 1.359375l3.71875 0l0 0.96875z" fill-rule="nonzero"/><path fill="#000000" fill-opacity="0.0" d="m141.1524 159.62466l33.228348 0" fill-rule="evenodd"/><path stroke="#ffffff" stroke-width="1.0" stroke-linejoin="round" stroke-linecap="butt" d="m141.15242 159.62466l29.801254 0" fill-rule="evenodd"/><path fill="#ffffff" stroke="#ffffff" stroke-width="1.0" stroke-linecap="butt" d="m170.95367 159.62466l-1.124588 1.124588l3.0897675 -1.124588l-3.0897675 -1.1245728z" fill-rule="evenodd"/><path fill="#000000" fill-opacity="0.0" d="m310.60123 159.62466l348.06302 0" fill-rule="evenodd"/><path stroke="#ffffff" stroke-width="1.0" stroke-linejoin="round" stroke-linecap="butt" d="m310.60123 159.62466l344.6359 0" fill-rule="evenodd"/><path fill="#ffffff" stroke="#ffffff" stroke-width="1.0" stroke-linecap="butt" d="m655.2371 159.62466l-1.1245728 1.124588l3.0897827 -1.124588l-3.0897827 -1.1245728z" fill-rule="evenodd"/><path fill="#000000" fill-opacity="0.0" d="m480.05005 64.16535l316.0315 0" fill-rule="evenodd"/><path stroke="#ffffff" stroke-width="1.0" stroke-linejoin="round" stroke-linecap="butt" d="m480.05002 64.16535l312.6044 0" fill-rule="evenodd"/><path fill="#ffffff" stroke="#ffffff" stroke-width="1.0" stroke-linecap="butt" d="m792.6544 64.16535l-1.1245728 1.124588l3.0897827 -1.124588l-3.0897827 -1.1245804z" fill-rule="evenodd"/><path fill="#000000" fill-opacity="0.0" d="m112.52231 207.43307l0 -18.803146" fill-rule="evenodd"/><path stroke="#ffffff" stroke-width="1.0" stroke-linejoin="round" stroke-linecap="butt" d="m112.52231 207.43307l0 -15.376068" fill-rule="evenodd"/><path fill="#ffffff" stroke="#ffffff" stroke-width="1.0" stroke-linecap="butt" d="m112.52231 192.057l1.124588 1.124588l-1.124588 -3.0897675l-1.1245804 3.0897675z" fill-rule="evenodd"/><path fill="#000000" fill-opacity="0.0" d="m281.97113 207.43307l0 -18.803146" fill-rule="evenodd"/><path stroke="#ffffff" stroke-width="1.0" stroke-linejoin="round" stroke-linecap="butt" d="m281.97113 207.43307l0 -15.376068" fill-rule="evenodd"/><path fill="#ffffff" stroke="#ffffff" stroke-width="1.0" stroke-linecap="butt" d="m281.97113 192.057l1.1245728 1.124588l-1.1245728 -3.0897675l-1.1245728 3.0897675z" fill-rule="evenodd"/><path fill="#000000" fill-opacity="0.0" d="m451.41995 207.43307l0 -114.26772" fill-rule="evenodd"/><path stroke="#ffffff" stroke-width="1.0" stroke-linejoin="round" stroke-linecap="butt" d="m451.41995 207.43307l0 -110.84064" fill-rule="evenodd"/><path fill="#ffffff" stroke="#ffffff" stroke-width="1.0" stroke-linecap="butt" d="m451.41995 96.59244l1.1245728 1.124588l-1.1245728 -3.0897675l-1.1246033 3.0897675z" fill-rule="evenodd"/></g></svg>
