<svg version="1.1" viewBox="0.0 0.0 542.1076115485564 368.9711286089239" fill="none" stroke="none" stroke-linecap="square" stroke-miterlimit="10" xmlns:xlink="http://www.w3.org/1999/xlink" xmlns="http://www.w3.org/2000/svg"><clipPath id="p.0"><path d="m0 0l542.1076 0l0 368.97113l-542.1076 0l0 -368.97113z" clip-rule="nonzero"/></clipPath><g clip-path="url(#p.0)"><path fill="#140526" d="m0 0l542.1076 0l0 368.97113l-542.1076 0z" fill-rule="evenodd"/><path fill="#000000" fill-opacity="0.0" d="m44.527557 99.708664l162.64568 0l0 56.566925l-162.64568 0z" fill-rule="evenodd"/><path fill="#ffffff" d="m54.183807 134.00804l3.859375 -0.59375q0.25 1.125 1.0 1.703125q0.75 0.578125 2.09375 0.578125q1.5 0 2.25 -0.546875q0.5 -0.375 0.5 -1.015625q0 -0.4375 -0.265625 -0.734375q-0.296875 -0.265625 -1.28125 -0.5q-4.65625 -1.03125 -5.90625 -1.875q-1.71875 -1.171875 -1.71875 -3.2656326q0 -1.890625 1.484375 -3.171875q1.5 -1.28125 4.625 -1.28125q2.984375 0 4.4375 0.96875q1.453125 0.96875 2.0 2.875l-3.625 0.65625q-0.234375 -0.84375 -0.890625 -1.296875q-0.640625 -0.453125 -1.84375 -0.453125q-1.515625 0 -2.171875 0.4375q-0.4375 0.296875 -0.4375 0.765625q0 0.421875 0.375 0.703125q0.515625 0.39063263 3.578125 1.0937576q3.078125 0.6875 4.296875 1.703125q1.203125 1.015625 1.203125 2.84375q0 2.0 -1.671875 3.4375q-1.65625 1.4375 -4.9375 1.4375q-2.953125 0 -4.6875 -1.203125q-1.734375 -1.203125 -2.265625 -3.265625zm26.478516 4.140625l0 -2.171875q-0.78125 1.15625 -2.078125 1.828125q-1.296875 0.671875 -2.734375 0.671875q-1.453125 0 -2.625 -0.640625q-1.15625 -0.640625 -1.6875 -1.796875q-0.515625 -1.171875 -0.515625 -3.21875l0 -9.187508l3.84375 0l0 6.6718826q0 3.0625 0.203125 3.75q0.21875 0.6875 0.78125 1.09375q0.5625 0.40625 1.421875 0.40625q0.984375 0 1.765625 -0.53125q0.78125 -0.546875 1.0625 -1.34375q0.296875 -0.8125 0.296875 -3.921875l0 -6.1250076l3.84375 0l0 14.515633l-3.578125 0zm7.3847656 0l0 -20.046883l3.84375 0l0 7.21875q1.78125 -2.015625 4.21875 -2.015625q2.640625 0 4.375 1.921875q1.75 1.921875 1.75 5.5156326q0 3.71875 -1.78125 5.734375q-1.765625 2.0 -4.296875 2.0q-1.25 0 -2.453125 -0.625q-1.203125 -0.625 -2.078125 -1.84375l0 2.140625l-3.578125 0zm3.8125 -7.578125q0 2.265625 0.71875 3.34375q1.0 1.53125 2.65625 1.53125q1.265625 0 2.15625 -1.078125q0.90625 -1.09375 0.90625 -3.4375q0 -2.484375 -0.90625 -3.5781326q-0.90625 -1.109375 -2.3125 -1.109375q-1.375 0 -2.296875 1.078125q-0.921875 1.0625076 -0.921875 3.2500076zm12.103516 3.4375l3.859375 -0.59375q0.25 1.125 1.0 1.703125q0.75 0.578125 2.09375 0.578125q1.5 0 2.25 -0.546875q0.5 -0.375 0.5 -1.015625q0 -0.4375 -0.265625 -0.734375q-0.296875 -0.265625 -1.28125 -0.5q-4.65625 -1.03125 -5.90625 -1.875q-1.71875 -1.171875 -1.71875 -3.2656326q0 -1.890625 1.484375 -3.171875q1.5 -1.28125 4.625 -1.28125q2.984375 0 4.4375 0.96875q1.453125 0.96875 2.0 2.875l-3.625 0.65625q-0.234375 -0.84375 -0.890625 -1.296875q-0.640625 -0.453125 -1.84375 -0.453125q-1.515625 0 -2.171875 0.4375q-0.4375 0.296875 -0.4375 0.765625q0 0.421875 0.375 0.703125q0.515625 0.39063263 3.578125 1.0937576q3.078125 0.6875 4.296875 1.703125q1.203125 1.015625 1.203125 2.84375q0 2.0 -1.671875 3.4375q-1.65625 1.4375 -4.9375 1.4375q-2.953125 0 -4.6875 -1.203125q-1.734375 -1.203125 -2.265625 -3.265625zm23.58789 -10.375008l0 3.0625l-2.625 0l0 5.8437576q0 1.78125 0.0625 2.078125q0.078125 0.296875 0.34375 0.484375q0.28125 0.1875 0.65625 0.1875q0.53125 0 1.546875 -0.375l0.328125 2.984375q-1.34375 0.578125 -3.03125 0.578125q-1.046875 0 -1.890625 -0.34375q-0.828125 -0.359375 -1.21875 -0.90625q-0.375 -0.5625 -0.53125 -1.5q-0.125 -0.671875 -0.125 -2.703125l0 -6.3281326l-1.765625 0l0 -3.0625l1.765625 0l0 -2.890625l3.859375 -2.234375l0 5.125l2.625 0zm6.3398438 14.515633l-3.84375 0l0 -14.515633l3.578125 0l0 2.0625q0.90625 -1.46875 1.640625 -1.921875q0.734375 -0.46875 1.65625 -0.46875q1.3125 0 2.53125 0.71875l-1.1875 3.34375q-0.96875 -0.625 -1.796875 -0.625q-0.8125 0 -1.375 0.453125q-0.5625 0.4375 -0.890625 1.6093826q-0.3125 1.15625 -0.3125 4.859375l0 4.484375zm10.083984 -10.09375l-3.484375 -0.6250076q0.59375 -2.109375 2.03125 -3.109375q1.4375 -1.015625 4.265625 -1.015625q2.5625 0 3.8125 0.609375q1.265625 0.609375 1.78125 1.546875q0.515625 0.921875 0.515625 3.4375076l-0.046875 4.484375q0 1.90625 0.1875 2.8125q0.1875 0.90625 0.6875 1.953125l-3.796875 0q-0.15625 -0.390625 -0.375 -1.140625q-0.09375 -0.34375 -0.125 -0.453125q-0.984375 0.96875 -2.109375 1.453125q-1.125 0.46875 -2.390625 0.46875q-2.25 0 -3.546875 -1.21875q-1.28125 -1.21875 -1.28125 -3.078125q0 -1.234375 0.578125 -2.1875q0.59375 -0.96875 1.65625 -1.484375q1.0625 -0.515625 3.0625 -0.890625q2.6875 -0.5 3.71875 -0.9375l0 -0.390625q0 -1.1093826 -0.546875 -1.5781326q-0.546875 -0.46875 -2.0625 -0.46875q-1.015625 0 -1.59375 0.40625q-0.578125 0.390625 -0.9375 1.4062576zm5.140625 3.125q-0.734375 0.234375 -2.34375 0.578125q-1.59375 0.34375 -2.078125 0.671875q-0.75 0.53125 -0.75 1.359375q0 0.796875 0.59375 1.390625q0.609375 0.59375 1.53125 0.59375q1.046875 0 1.984375 -0.6875q0.703125 -0.515625 0.921875 -1.265625q0.140625 -0.5 0.140625 -1.875l0 -0.765625zm14.228516 -7.5468826l0 3.0625l-2.625 0l0 5.8437576q0 1.78125 0.0625 2.078125q0.078125 0.296875 0.34375 0.484375q0.28125 0.1875 0.65625 0.1875q0.53125 0 1.546875 -0.375l0.328125 2.984375q-1.34375 0.578125 -3.03125 0.578125q-1.046875 0 -1.890625 -0.34375q-0.828125 -0.359375 -1.21875 -0.90625q-0.375 -0.5625 -0.53125 -1.5q-0.125 -0.671875 -0.125 -2.703125l0 -6.3281326l-1.765625 0l0 -3.0625l1.765625 0l0 -2.890625l3.859375 -2.234375l0 5.125l2.625 0zm11.074219 9.890633l3.828125 0.640625q-0.734375 2.109375 -2.328125 3.21875q-1.59375 1.09375 -3.984375 1.09375q-3.796875 0 -5.609375 -2.46875q-1.4375 -1.984375 -1.4375 -5.015625q0 -3.6093826 1.875 -5.6406326q1.890625 -2.046875 4.78125 -2.046875q3.234375 0 5.109375 2.140625q1.875 2.140625 1.796875 6.5468826l-9.625 0q0.046875 1.71875 0.921875 2.671875q0.890625 0.9375 2.21875 0.9375q0.90625 0 1.515625 -0.484375q0.625 -0.5 0.9375 -1.59375zm0.21875 -3.875q-0.046875 -1.6718826 -0.875 -2.5312576q-0.8125 -0.875 -1.984375 -0.875q-1.265625 0 -2.078125 0.90625q-0.828125 0.9218826 -0.8125 2.5000076l5.75 0z" fill-rule="nonzero"/><path fill="#6aa84f" d="m179.28732 144.21117l0 -2.71875l17.484375 0l0 2.71875l-17.484375 0z" fill-rule="nonzero"/></g></svg>