<svg version="1.1" viewBox="0.0 0.0 343.2834645669291 211.45406824146983" fill="none" stroke="none" stroke-linecap="square" stroke-miterlimit="10" xmlns:xlink="http://www.w3.org/1999/xlink" xmlns="http://www.w3.org/2000/svg"><clipPath id="p.0"><path d="m0 0l343.28348 0l0 211.45407l-343.28348 0l0 -211.45407z" clip-rule="nonzero"/></clipPath><g clip-path="url(#p.0)"><path fill="#000000" fill-opacity="0.0" d="m0 0l343.28348 0l0 211.45407l-343.28348 0z" fill-rule="evenodd"/><path fill="#8d3aed" d="m74.755905 188.0971l95.70079 -165.5433l95.700775 165.5433z" fill-rule="evenodd"/><path stroke="#000000" stroke-width="1.0" stroke-linejoin="round" stroke-linecap="butt" d="m74.755905 188.0971l95.70079 -165.5433l95.700775 165.5433z" fill-rule="evenodd"/><path fill="#8d3aed" d="m124.73491 6.952825l0 0c0 -1.9105663 1.5488205 -3.4593868 3.459381 -3.4593868l84.5143 0c0.9174957 0 1.7973938 0.36447024 2.446167 1.0132308c0.64875793 0.6487613 1.0132294 1.5286698 1.0132294 2.446156l0 13.8371315c0 1.9105663 -1.5488281 3.4593868 -3.4593964 3.4593868l-84.5143 0c-1.9105606 0 -3.459381 -1.5488205 -3.459381 -3.4593868z" fill-rule="evenodd"/><path fill="#ffffff" d="m142.38437 9.012641q1.390625 0 2.390625 0.578125q1.015625 0.5625 1.6875 1.65625l-1.078125 0.84375q-0.59375 -1.03125 -1.34375 -1.453125q-0.734375 -0.421875 -1.796875 -0.421875q-0.84375 0 -1.390625 0.234375q-0.546875 0.234375 -0.8125 0.640625q-0.25 0.390625 -0.25 0.875q0 0.5625 0.34375 0.984375q0.359375 0.421875 1.40625 0.671875l2.296875 0.515625q1.515625 0.328125 2.109375 1.015625q0.609375 0.671875 0.609375 1.687499q0 0.890625 -0.515625 1.59375q-0.5 0.6875 -1.40625 1.078125q-0.90625 0.375 -2.140625 0.375q-1.15625 0 -2.03125 -0.3125q-0.859375 -0.3125 -1.484375 -0.828125q-0.625 -0.53125 -1.03125 -1.1875l1.125 -0.921875q0.296875 0.609375 0.78125 1.078125q0.484375 0.46875 1.15625 0.71875q0.6875 0.25 1.5625 0.25q0.8125 0 1.40625 -0.1875q0.609375 -0.203125 0.921875 -0.59375q0.328125 -0.390625 0.328125 -0.953125q0 -0.515625 -0.34375 -0.921875q-0.328125 -0.40624905 -1.25 -0.60937405l-2.484375 -0.5625q-0.984375 -0.234375 -1.578125 -0.625q-0.59375 -0.390625 -0.859375 -0.921875q-0.265625 -0.53125 -0.265625 -1.15625q0 -0.859375 0.46875 -1.5625q0.46875 -0.71875 1.359375 -1.140625q0.890625 -0.4375 2.109375 -0.4375zm9.927902 2.5625q0.828125 0 1.453125 0.265625q0.640625 0.25 1.109375 0.734375q0.46875 0.46875 0.75 1.125l-1.21875 0.578125q-0.25 -0.765625 -0.78125 -1.171875q-0.515625 -0.421875 -1.34375 -0.421875q-0.796875 0 -1.375 0.375q-0.578125 0.359375 -0.890625 1.046875q-0.296875 0.671875 -0.296875 1.625q0 0.93749905 0.296875 1.624999q0.3125 0.6875 0.890625 1.0625q0.578125 0.359375 1.375 0.359375q0.625 0 1.078125 -0.1875q0.453125 -0.203125 0.75 -0.5625q0.296875 -0.375 0.421875 -0.90625l1.171875 0.421875q-0.265625 0.734375 -0.75 1.265625q-0.46875 0.515625 -1.140625 0.796875q-0.65625 0.28125 -1.5 0.28125q-1.109375 0 -2.0 -0.484375q-0.875 -0.5 -1.375 -1.4375q-0.5 -0.9375 -0.5 -2.234374q0 -1.296875 0.5 -2.234375q0.5 -0.9375 1.375 -1.421875q0.890625 -0.5 2.0 -0.5zm10.319397 2.984375q0 -0.890625 -0.484375 -1.375q-0.46875 -0.5 -1.359375 -0.5q-0.828125 0 -1.40625 0.375q-0.5625 0.359375 -0.84375 1.15625l-1.03125 -0.640625q0.3125 -0.90625 1.171875 -1.453125q0.875 -0.546875 2.15625 -0.546875q0.859375 0 1.5625 0.296875q0.703125 0.296875 1.109375 0.890625q0.40625 0.59375 0.40625 1.546875l0 3.874999q0 0.578125 0.609375 0.578125q0.3125 0 0.59375 -0.09375l-0.0625 1.015625q-0.328125 0.15625 -0.828125 0.15625q-0.46875 0 -0.84375 -0.171875q-0.359375 -0.171875 -0.578125 -0.53125q-0.203125 -0.359375 -0.203125 -0.90625l0 -0.15625l0.328125 0.046875q-0.203125 0.625 -0.671875 1.015625q-0.453125 0.390625 -1.03125 0.578125q-0.578125 0.171875 -1.140625 0.171875q-0.703125 0 -1.3125 -0.234375q-0.59375 -0.234375 -0.96875 -0.71875q-0.359375 -0.5 -0.359375 -1.21875q0 -0.890625 0.59375 -1.46875q0.609375 -0.59374905 1.6875 -0.79687405l3.171875 -0.625l0 1.046875l-2.578125 0.53124905q-0.78125 0.15625 -1.171875 0.453125q-0.390625 0.28125 -0.390625 0.796875q0 0.5 0.390625 0.8125q0.40625 0.3125 1.125 0.3125q0.453125 0 0.875 -0.125q0.4375 -0.125 0.765625 -0.375q0.34375 -0.25 0.53125 -0.625q0.1875 -0.375 0.1875 -0.875l0 -2.218749zm5.60289 -6.515625l0 9.656249q0 0.609375 0.21875 0.84375q0.234375 0.234375 0.71875 0.234375q0.328125 0 0.53125 -0.046875q0.21875 -0.0625 0.5625 -0.1875l-0.203125 1.125q-0.265625 0.109375 -0.578125 0.15625q-0.296875 0.0625 -0.609375 0.0625q-0.96875 0 -1.453125 -0.515625q-0.46875 -0.53125 -0.46875 -1.625l0 -9.703124l1.28125 0zm8.349136 6.515625q0 -0.890625 -0.484375 -1.375q-0.46875 -0.5 -1.359375 -0.5q-0.828125 0 -1.40625 0.375q-0.5625 0.359375 -0.84375 1.15625l-1.03125 -0.640625q0.3125 -0.90625 1.171875 -1.453125q0.875 -0.546875 2.15625 -0.546875q0.859375 0 1.5625 0.296875q0.703125 0.296875 1.109375 0.890625q0.40625 0.59375 0.40625 1.546875l0 3.874999q0 0.578125 0.609375 0.578125q0.3125 0 0.59375 -0.09375l-0.0625 1.015625q-0.328125 0.15625 -0.828125 0.15625q-0.46875 0 -0.84375 -0.171875q-0.359375 -0.171875 -0.578125 -0.53125q-0.203125 -0.359375 -0.203125 -0.90625l0 -0.15625l0.328125 0.046875q-0.203125 0.625 -0.671875 1.015625q-0.453125 0.390625 -1.03125 0.578125q-0.578125 0.171875 -1.140625 0.171875q-0.703125 0 -1.3125 -0.234375q-0.59375 -0.234375 -0.96875 -0.71875q-0.359375 -0.5 -0.359375 -1.21875q0 -0.890625 0.59375 -1.46875q0.609375 -0.59374905 1.6875 -0.79687405l3.171875 -0.625l0 1.046875l-2.578125 0.53124905q-0.78125 0.15625 -1.171875 0.453125q-0.390625 0.28125 -0.390625 0.796875q0 0.5 0.390625 0.8125q0.40625 0.3125 1.125 0.3125q0.453125 0 0.875 -0.125q0.4375 -0.125 0.765625 -0.375q0.34375 -0.25 0.53125 -0.625q0.1875 -0.375 0.1875 -0.875l0 -2.218749zm8.306015 5.328124q-0.671875 0 -1.25 -0.234375q-0.578125 -0.234375 -1.0 -0.671875q-0.40625 -0.4375 -0.609375 -0.984375l0.171875 -0.21875l-0.109375 1.953125l-1.125 0l0 -11.687499l1.28125 0l0 5.5l-0.15625 -0.25q0.3125 -0.75 1.078125 -1.234375q0.765625 -0.484375 1.734375 -0.484375q1.0 0 1.828125 0.5q0.828125 0.484375 1.328125 1.421875q0.5 0.921875 0.5 2.234375q0 1.296874 -0.515625 2.234374q-0.5 0.9375 -1.328125 1.4375q-0.828125 0.484375 -1.828125 0.484375zm-0.125 -1.109375q1.1875 0 1.84375 -0.828125q0.671875 -0.84375 0.671875 -2.218749q0 -1.375 -0.65625 -2.203125q-0.65625 -0.84375 -1.84375 -0.84375q-0.75 0 -1.328125 0.390625q-0.5625 0.390625 -0.890625 1.078125q-0.3125 0.6875 -0.3125 1.609375q0 0.90624905 0.3125 1.593749q0.3125 0.671875 0.875 1.046875q0.578125 0.375 1.328125 0.375zm7.453888 -10.734374l0 9.656249q0 0.609375 0.21875 0.84375q0.234375 0.234375 0.71875 0.234375q0.328125 0 0.53125 -0.046875q0.21875 -0.0625 0.5625 -0.1875l-0.203125 1.125q-0.265625 0.109375 -0.578125 0.15625q-0.296875 0.0625 -0.609375 0.0625q-0.96875 0 -1.453125 -0.515625q-0.46875 -0.53125 -0.46875 -1.625l0 -9.703124l1.28125 0zm7.0210114 11.843749q-1.125 0 -2.015625 -0.484375q-0.890625 -0.5 -1.390625 -1.4375q-0.5 -0.9375 -0.5 -2.234374q0 -1.296875 0.5 -2.234375q0.5 -0.9375 1.359375 -1.421875q0.859375 -0.5 1.96875 -0.5q1.125 0 1.90625 0.484375q0.796875 0.46875 1.203125 1.296875q0.421875 0.828125 0.421875 1.84375q0 0.28125 -0.015625 0.5q-0.015625 0.21875 -0.046875 0.40624905l-6.453125 0l0 -1.140624l5.890625 0l-0.640625 0.125q0 -1.15625 -0.640625 -1.78125q-0.625 -0.625 -1.65625 -0.625q-0.78125 0 -1.359375 0.375q-0.5625 0.359375 -0.875 1.046875q-0.3125 0.671875 -0.3125 1.625q0 0.93749905 0.3125 1.624999q0.328125 0.6875 0.90625 1.0625q0.59375 0.359375 1.40625 0.359375q0.890625 0 1.4375 -0.328125q0.546875 -0.34375 0.890625 -0.921875l1.0 0.59375q-0.296875 0.53125 -0.78125 0.9375q-0.46875 0.40625 -1.109375 0.625q-0.625 0.203125 -1.40625 0.203125z" fill-rule="nonzero"/><path fill="#8d3aed" d="m4.6666665 187.41739l0 0c0 -1.9105682 1.5488205 -3.459381 3.4593873 -3.459381l127.38043 0c0.9174957 0 1.797409 0.36447144 2.446167 1.0132294c0.64875793 0.64875793 1.0132294 1.5286713 1.0132294 2.4461517l0 13.837128c0 1.9105682 -1.5488281 3.4593964 -3.4593964 3.4593964l-127.38043 0c-1.9105668 0 -3.4593873 -1.5488281 -3.4593873 -3.4593964z" fill-rule="evenodd"/><path fill="#ffffff" d="m23.132778 189.63345q2.46875 0 3.890625 1.375q1.421875 1.359375 1.421875 3.90625q0 2.546875 -1.421875 3.921875q-1.421875 1.359375 -3.890625 1.359375l-3.40625 0l0 -10.5625l3.40625 0zm0.125 9.359375q1.8125 0 2.828125 -1.078125q1.015625 -1.078125 1.015625 -3.0q0 -1.921875 -1.015625 -3.0q-1.015625 -1.078125 -2.828125 -1.078125l-2.25 0l0 8.15625l2.25 0zm11.098526 1.359375q-1.125 0 -2.015625 -0.484375q-0.890625 -0.5 -1.390625 -1.4375q-0.5 -0.9375 -0.5 -2.234375q0 -1.296875 0.5 -2.234375q0.5 -0.9375 1.359375 -1.421875q0.859375 -0.5 1.96875 -0.5q1.125 0 1.90625 0.484375q0.796875 0.46875 1.203125 1.296875q0.421875 0.828125 0.421875 1.84375q0 0.28125 -0.015625 0.5q-0.015625 0.21875 -0.046875 0.40625l-6.453125 0l0 -1.140625l5.890625 0l-0.640625 0.125q0 -1.15625 -0.640625 -1.78125q-0.625 -0.625 -1.65625 -0.625q-0.78125 0 -1.359375 0.375q-0.5625 0.359375 -0.875 1.046875q-0.3125 0.671875 -0.3125 1.625q0 0.9375 0.3125 1.625q0.328125 0.6875 0.90625 1.0625q0.59375 0.359375 1.40625 0.359375q0.890625 0 1.4375 -0.328125q0.546875 -0.34375 0.890625 -0.921875l1.0 0.59375q-0.296875 0.53125 -0.78125 0.9375q-0.46875 0.40625 -1.109375 0.625q-0.625 0.203125 -1.40625 0.203125zm9.200775 -8.3125q0.828125 0 1.453125 0.265625q0.640625 0.25 1.109375 0.734375q0.46875 0.46875 0.75 1.125l-1.21875 0.578125q-0.25 -0.765625 -0.78125 -1.171875q-0.515625 -0.421875 -1.34375 -0.421875q-0.796875 0 -1.375 0.375q-0.578125 0.359375 -0.890625 1.046875q-0.296875 0.671875 -0.296875 1.625q0 0.9375 0.296875 1.625q0.3125 0.6875 0.890625 1.0625q0.578125 0.359375 1.375 0.359375q0.625 0 1.078125 -0.1875q0.453125 -0.203125 0.75 -0.5625q0.296875 -0.375 0.421875 -0.90625l1.171875 0.421875q-0.265625 0.734375 -0.75 1.265625q-0.46875 0.515625 -1.140625 0.796875q-0.65625 0.28125 -1.5 0.28125q-1.109375 0 -2.0 -0.484375q-0.875 -0.5 -1.375 -1.4375q-0.5 -0.9375 -0.5 -2.234375q0 -1.296875 0.5 -2.234375q0.5 -0.9375 1.375 -1.421875q0.890625 -0.5 2.0 -0.5zm8.991272 8.3125q-1.125 0 -2.015625 -0.484375q-0.890625 -0.5 -1.390625 -1.4375q-0.5 -0.9375 -0.5 -2.234375q0 -1.296875 0.5 -2.234375q0.5 -0.9375 1.359375 -1.421875q0.859375 -0.5 1.96875 -0.5q1.125 0 1.90625 0.484375q0.796875 0.46875 1.203125 1.296875q0.421875 0.828125 0.421875 1.84375q0 0.28125 -0.015625 0.5q-0.015625 0.21875 -0.046875 0.40625l-6.453125 0l0 -1.140625l5.890625 0l-0.640625 0.125q0 -1.15625 -0.640625 -1.78125q-0.625 -0.625 -1.65625 -0.625q-0.78125 0 -1.359375 0.375q-0.5625 0.359375 -0.875 1.046875q-0.3125 0.671875 -0.3125 1.625q0 0.9375 0.3125 1.625q0.328125 0.6875 0.90625 1.0625q0.59375 0.359375 1.40625 0.359375q0.890625 0 1.4375 -0.328125q0.546875 -0.34375 0.890625 -0.921875l1.0 0.59375q-0.296875 0.53125 -0.78125 0.9375q-0.46875 0.40625 -1.109375 0.625q-0.625 0.203125 -1.40625 0.203125zm5.888275 -0.15625l0 -8.0l1.125 0l0.109375 1.796875l-0.203125 -0.1875q0.25 -0.640625 0.671875 -1.03125q0.4375 -0.390625 1.0 -0.5625q0.578125 -0.171875 1.1875 -0.171875q0.859375 0 1.5625 0.328125q0.7031288 0.328125 1.1250038 1.0q0.4375 0.671875 0.4375 1.703125l0 5.125l-1.28125 0l0 -4.671875q0 -1.328125 -0.5781288 -1.84375q-0.5625 -0.53125 -1.390625 -0.53125q-0.578125 0 -1.15625 0.28125q-0.578125 0.265625 -0.953125 0.875q-0.375 0.609375 -0.375 1.640625l0 4.25l-1.28125 0zm11.6826515 -10.265625l0 8.0625q0 0.59375 0.328125 0.875q0.34375 0.28125 0.875 0.28125q0.46875 0 0.796875 -0.15625q0.34375 -0.15625 0.609375 -0.421875l0.453125 1.0625q-0.375 0.34375 -0.875 0.53125q-0.5 0.1875 -1.15625 0.1875q-0.609375 0 -1.140625 -0.203125q-0.53125 -0.21875 -0.84375 -0.6875q-0.3125 -0.484375 -0.328125 -1.25l0 -7.9375l1.28125 -0.34375zm2.90625 2.265625l0 1.109375l-5.78125 0l0 -1.109375l5.78125 0zm1.907135 8.0l0 -8.0l1.046875 0l0.171875 1.3125q0.34375 -0.734375 0.984375 -1.09375q0.65625 -0.375 1.578125 -0.375q0.203125 0 0.453125 0.03125q0.25 0.03125 0.421875 0.125l-0.21875 1.171875q-0.171875 -0.0625 -0.390625 -0.09375q-0.203125 -0.03125 -0.59375 -0.03125q-0.484375 0 -1.0 0.28125q-0.5 0.28125 -0.84375 0.875q-0.328125 0.578125 -0.328125 1.484375l0 4.3125l-1.28125 0zm10.975891 -5.171875q0 -0.890625 -0.484375 -1.375q-0.46875 -0.5 -1.359375 -0.5q-0.828125 0 -1.40625 0.375q-0.5625 0.359375 -0.84375 1.15625l-1.03125 -0.640625q0.3125 -0.90625 1.171875 -1.453125q0.875 -0.546875 2.15625 -0.546875q0.859375 0 1.5625 0.296875q0.703125 0.296875 1.109375 0.890625q0.40625 0.59375 0.40625 1.546875l0 3.875q0 0.578125 0.609375 0.578125q0.3125 0 0.59375 -0.09375l-0.0625 1.015625q-0.328125 0.15625 -0.828125 0.15625q-0.46875 0 -0.84375 -0.171875q-0.359375 -0.171875 -0.578125 -0.53125q-0.203125 -0.359375 -0.203125 -0.90625l0 -0.15625l0.328125 0.046875q-0.203125 0.625 -0.671875 1.015625q-0.453125 0.390625 -1.03125 0.578125q-0.578125 0.171875 -1.140625 0.171875q-0.703125 0 -1.3125 -0.234375q-0.59375 -0.234375 -0.96875 -0.71875q-0.359375 -0.5 -0.359375 -1.21875q0 -0.890625 0.59375 -1.46875q0.609375 -0.59375 1.6875 -0.796875l3.171875 -0.625l0 1.046875l-2.578125 0.53125q-0.78125 0.15625 -1.171875 0.453125q-0.390625 0.28125 -0.390625 0.796875q0 0.5 0.390625 0.8125q0.40625 0.3125 1.125 0.3125q0.453125 0 0.875 -0.125q0.4375 -0.125 0.765625 -0.375q0.34375 -0.25 0.53125 -0.625q0.1875 -0.375 0.1875 -0.875l0 -2.21875zm5.60289 -6.515625l0 9.65625q0 0.609375 0.21875 0.84375q0.234375 0.234375 0.71875 0.234375q0.328125 0 0.53125 -0.046875q0.21875 -0.0625 0.5625 -0.1875l-0.203125 1.125q-0.265625 0.109375 -0.578125 0.15625q-0.296875 0.0625 -0.609375 0.0625q-0.96875 0 -1.453125 -0.515625q-0.46875 -0.53125 -0.46875 -1.625l0 -9.703125l1.28125 0zm4.3178864 2.15625q-0.421875 0 -0.6875 -0.265625q-0.265625 -0.265625 -0.265625 -0.703125q0 -0.421875 0.265625 -0.6875q0.265625 -0.265625 0.6875 -0.265625q0.4375 0 0.703125 0.265625q0.265625 0.265625 0.265625 0.6875q0 0.4375 -0.265625 0.703125q-0.265625 0.265625 -0.703125 0.265625zm0.640625 1.53125l0 8.0l-1.28125 0l0 -8.0l1.28125 0zm2.396637 8.0l0 -0.96875l4.203125 -4.921875l1.0 -1.03125l-1.421875 0.03125l-3.734375 0l0 -1.109375l6.578125 0l0 0.96875l-4.1875 4.921875l-0.984375 1.03125l1.546875 -0.03125l3.75 0l0 1.109375l-6.75 0zm12.337891 0.15625q-1.125 0 -2.015625 -0.484375q-0.890625 -0.5 -1.390625 -1.4375q-0.5 -0.9375 -0.5 -2.234375q0 -1.296875 0.5 -2.234375q0.5 -0.9375 1.359375 -1.421875q0.859375 -0.5 1.96875 -0.5q1.125 0 1.90625 0.484375q0.796875 0.46875 1.203125 1.296875q0.421875 0.828125 0.421875 1.84375q0 0.28125 -0.015625 0.5q-0.015625 0.21875 -0.046875 0.40625l-6.453125 0l0 -1.140625l5.890625 0l-0.640625 0.125q0 -1.15625 -0.640625 -1.78125q-0.625 -0.625 -1.65625 -0.625q-0.78125 0 -1.359375 0.375q-0.5625 0.359375 -0.875 1.046875q-0.3125 0.671875 -0.3125 1.625q0 0.9375 0.3125 1.625q0.328125 0.6875 0.90625 1.0625q0.59375 0.359375 1.40625 0.359375q0.890625 0 1.4375 -0.328125q0.546875 -0.34375 0.890625 -0.921875l1.0 0.59375q-0.296875 0.53125 -0.78125 0.9375q-0.46875 0.40625 -1.109375 0.625q-0.625 0.203125 -1.40625 0.203125zm9.013275 0q-1.0 0 -1.828125 -0.484375q-0.828125 -0.5 -1.328125 -1.4375q-0.5 -0.9375 -0.5 -2.234375q0 -1.328125 0.53125 -2.25q0.53125 -0.9375 1.390625 -1.421875q0.875 -0.484375 1.859375 -0.484375q1.0 0 1.71875 0.515625q0.734375 0.5 0.96875 1.359375l-0.15625 0.109375l0 -5.515625l1.28125 0l0 11.6875l-1.125 0l-0.109375 -1.9375l0.171875 -0.09375q-0.109375 0.703125 -0.53125 1.1875q-0.421875 0.484375 -1.046875 0.75q-0.609375 0.25 -1.296875 0.25zm0.125 -1.109375q0.765625 0 1.328125 -0.390625q0.578125 -0.390625 0.890625 -1.09375q0.3125 -0.71875 0.3125 -1.671875q0 -0.921875 -0.3125 -1.578125q-0.3125 -0.65625 -0.875 -1.0q-0.546875 -0.359375 -1.28125 -0.359375q-1.21875 0 -1.890625 0.84375q-0.671875 0.828125 -0.671875 2.203125q0 1.375 0.65625 2.21875q0.65625 0.828125 1.84375 0.828125z" fill-rule="nonzero"/><path fill="#8d3aed" d="m240.93701 188.63524l0 0c0 -1.9105682 1.5488129 -3.459381 3.459381 -3.459381l88.388306 0c0.91748047 0 1.7973938 0.36447144 2.446167 1.0132294c0.6487732 0.64875793 1.0132141 1.5286713 1.0132141 2.4461517l0 13.837128c0 1.9105682 -1.5487976 3.4593964 -3.459381 3.4593964l-88.388306 0c-1.9105682 0 -3.459381 -1.5488281 -3.459381 -3.4593964z" fill-rule="evenodd"/><path fill="#ffffff" d="m266.80347 190.69505q1.390625 0 2.390625 0.578125q1.015625 0.5625 1.6875 1.65625l-1.078125 0.84375q-0.59375 -1.03125 -1.34375 -1.453125q-0.734375 -0.421875 -1.796875 -0.421875q-0.84375 0 -1.390625 0.234375q-0.546875 0.234375 -0.8125 0.640625q-0.25 0.390625 -0.25 0.875q0 0.5625 0.34375 0.984375q0.359375 0.421875 1.40625 0.671875l2.296875 0.515625q1.515625 0.328125 2.109375 1.015625q0.609375 0.671875 0.609375 1.6875q0 0.890625 -0.515625 1.59375q-0.5 0.6875 -1.40625 1.078125q-0.90625 0.375 -2.140625 0.375q-1.15625 0 -2.03125 -0.3125q-0.859375 -0.3125 -1.484375 -0.828125q-0.625 -0.53125 -1.03125 -1.1875l1.125 -0.921875q0.296875 0.609375 0.78125 1.078125q0.484375 0.46875 1.15625 0.71875q0.6875 0.25 1.5625 0.25q0.8125 0 1.40625 -0.1875q0.609375 -0.203125 0.921875 -0.59375q0.328125 -0.390625 0.328125 -0.953125q0 -0.515625 -0.34375 -0.921875q-0.328125 -0.40625 -1.25 -0.609375l-2.484375 -0.5625q-0.984375 -0.234375 -1.578125 -0.625q-0.59375 -0.390625 -0.859375 -0.921875q-0.265625 -0.53125 -0.265625 -1.15625q0 -0.859375 0.46875 -1.5625q0.46875 -0.71875 1.359375 -1.140625q0.890625 -0.4375 2.109375 -0.4375zm9.9591675 10.875q-1.125 0 -2.015625 -0.484375q-0.890625 -0.5 -1.390625 -1.4375q-0.5 -0.9375 -0.5 -2.234375q0 -1.296875 0.5 -2.234375q0.5 -0.9375 1.359375 -1.421875q0.859375 -0.5 1.96875 -0.5q1.125 0 1.90625 0.484375q0.796875 0.46875 1.203125 1.296875q0.421875 0.828125 0.421875 1.84375q0 0.28125 -0.015625 0.5q-0.015625 0.21875 -0.046875 0.40625l-6.453125 0l0 -1.140625l5.890625 0l-0.640625 0.125q0 -1.15625 -0.640625 -1.78125q-0.625 -0.625 -1.65625 -0.625q-0.78125 0 -1.359375 0.375q-0.5625 0.359375 -0.875 1.046875q-0.3125 0.671875 -0.3125 1.625q0 0.9375 0.3125 1.625q0.328125 0.6875 0.90625 1.0625q0.59375 0.359375 1.40625 0.359375q0.890625 0 1.4375 -0.328125q0.546875 -0.34375 0.890625 -0.921875l1.0 0.59375q-0.296875 0.53125 -0.78125 0.9375q-0.46875 0.40625 -1.109375 0.625q-0.625 0.203125 -1.40625 0.203125zm9.200775 -8.3125q0.828125 0 1.453125 0.265625q0.640625 0.25 1.109375 0.734375q0.46875 0.46875 0.75 1.125l-1.21875 0.578125q-0.25 -0.765625 -0.78125 -1.171875q-0.515625 -0.421875 -1.34375 -0.421875q-0.796875 0 -1.375 0.375q-0.578125 0.359375 -0.890625 1.046875q-0.296875 0.671875 -0.296875 1.625q0 0.9375 0.296875 1.625q0.3125 0.6875 0.890625 1.0625q0.578125 0.359375 1.375 0.359375q0.625 0 1.078125 -0.1875q0.453125 -0.203125 0.75 -0.5625q0.296875 -0.375 0.421875 -0.90625l1.171875 0.421875q-0.265625 0.734375 -0.75 1.265625q-0.46875 0.515625 -1.140625 0.796875q-0.65625 0.28125 -1.5 0.28125q-1.109375 0 -2.0 -0.484375q-0.875 -0.5 -1.375 -1.4375q-0.5 -0.9375 -0.5 -2.234375q0 -1.296875 0.5 -2.234375q0.5 -0.9375 1.375 -1.421875q0.890625 -0.5 2.0 -0.5zm8.553772 8.3125q-0.78125 0 -1.46875 -0.28125q-0.671875 -0.296875 -1.09375 -0.9375q-0.421875 -0.65625 -0.421875 -1.6875l0 -5.25l1.28125 0l0 4.90625q0 1.21875 0.53125 1.6875q0.53125 0.453125 1.484375 0.453125q0.453125 0 0.875 -0.15625q0.4375 -0.15625 0.78125 -0.484375q0.34375 -0.328125 0.546875 -0.828125q0.203125 -0.515625 0.203125 -1.21875l0 -4.359375l1.28125 0l0 8.0l-1.125 0l-0.078125 -1.21875q-0.421875 0.71875 -1.140625 1.046875q-0.703125 0.328125 -1.65625 0.328125zm6.9657593 -0.15625l0 -8.0l1.046875 0l0.171875 1.3125q0.34375 -0.734375 0.984375 -1.09375q0.65625 -0.375 1.578125 -0.375q0.203125 0 0.453125 0.03125q0.25003052 0.03125 0.42190552 0.125l-0.21878052 1.171875q-0.171875 -0.0625 -0.390625 -0.09375q-0.203125 -0.03125 -0.59375 -0.03125q-0.484375 0 -1.0 0.28125q-0.5 0.28125 -0.84375 0.875q-0.328125 0.578125 -0.328125 1.484375l0 4.3125l-1.28125 0zm9.615784 0.15625q-1.125 0 -2.015625 -0.484375q-0.890625 -0.5 -1.390625 -1.4375q-0.5 -0.9375 -0.5 -2.234375q0 -1.296875 0.5 -2.234375q0.5 -0.9375 1.359375 -1.421875q0.859375 -0.5 1.96875 -0.5q1.125 0 1.90625 0.484375q0.796875 0.46875 1.203125 1.296875q0.421875 0.828125 0.421875 1.84375q0 0.28125 -0.015625 0.5q-0.015625 0.21875 -0.046875 0.40625l-6.453125 0l0 -1.140625l5.890625 0l-0.640625 0.125q0 -1.15625 -0.640625 -1.78125q-0.625 -0.625 -1.65625 -0.625q-0.78125 0 -1.359375 0.375q-0.5625 0.359375 -0.875 1.046875q-0.3125 0.671875 -0.3125 1.625q0 0.9375 0.3125 1.625q0.328125 0.6875 0.90625 1.0625q0.59375 0.359375 1.40625 0.359375q0.890625 0 1.4375 -0.328125q0.546875 -0.34375 0.890625 -0.921875l1.0 0.59375q-0.296875 0.53125 -0.78125 0.9375q-0.46875 0.40625 -1.109375 0.625q-0.625 0.203125 -1.40625 0.203125z" fill-rule="nonzero"/><path fill="#8d3aed" d="m108.002625 144.00262l0 0c0 -23.204659 27.878204 -42.015747 62.267715 -42.015747l0 0c34.38951 0 62.267715 18.811089 62.267715 42.015747l0 0c0 23.20465 -27.878204 42.015747 -62.267715 42.015747l0 0c-34.38951 0 -62.267715 -18.811096 -62.267715 -42.015747z" fill-rule="evenodd"/><path stroke="#bd005e" stroke-width="2.0" stroke-linejoin="round" stroke-linecap="butt" stroke-dasharray="2.0,6.0" d="m108.002625 144.00262l0 0c0 -23.204659 27.878204 -42.015747 62.267715 -42.015747l0 0c34.38951 0 62.267715 18.811089 62.267715 42.015747l0 0c0 23.20465 -27.878204 42.015747 -62.267715 42.015747l0 0c-34.38951 0 -62.267715 -18.811096 -62.267715 -42.015747z" fill-rule="evenodd"/><path fill="#ffffff" d="m137.56618 147.74263l0 -7.03125l2.5 0q1.25 0 1.8125 0.53125q0.578125 0.515625 0.578125 1.40625q0 0.53125 -0.3125 0.96875q-0.296875 0.421875 -0.859375 0.546875l0 0.015625q0.625 0.109375 0.984375 0.5625q0.375 0.453125 0.375 1.03125q0 0.890625 -0.671875 1.4375q-0.671875 0.53125 -1.921875 0.53125l-2.484375 0zm0.84375 -0.796875l1.84375 0q0.765625 0 1.125 -0.3125q0.375 -0.3125 0.375 -0.859375q0 -0.5625 -0.375 -0.859375q-0.359375 -0.3125 -1.125 -0.3125l-1.84375 0l0 2.34375zm0 -3.140625l1.671875 0q1.484375 0 1.484375 -1.15625q0 -1.140625 -1.484375 -1.140625l-1.671875 0l0 2.296875zm6.755478 -3.84375l0 6.421875q0 0.40625 0.140625 0.5625q0.15625 0.15625 0.484375 0.15625q0.21875 0 0.359375 -0.03125q0.140625 -0.03125 0.375 -0.109375l-0.140625 0.734375q-0.171875 0.078125 -0.375 0.109375q-0.203125 0.046875 -0.40625 0.046875q-0.65625 0 -0.96875 -0.34375q-0.3125 -0.359375 -0.3125 -1.09375l0 -6.453125l0.84375 0zm4.667099 2.34375q0.75 0 1.328125 0.328125q0.578125 0.328125 0.90625 0.953125q0.34375 0.625 0.34375 1.484375q0 0.875 -0.34375 1.5q-0.328125 0.625 -0.90625 0.953125q-0.578125 0.328125 -1.328125 0.328125q-0.75 0 -1.34375 -0.328125q-0.578125 -0.328125 -0.90625 -0.953125q-0.328125 -0.625 -0.328125 -1.5q0 -0.859375 0.328125 -1.484375q0.328125 -0.625 0.90625 -0.953125q0.59375 -0.328125 1.34375 -0.328125zm0 0.734375q-0.546875 0 -0.9375 0.25q-0.375 0.25 -0.59375 0.703125q-0.203125 0.453125 -0.203125 1.078125q0 0.640625 0.203125 1.09375q0.21875 0.453125 0.59375 0.703125q0.390625 0.25 0.9375 0.25q0.53125 0 0.90625 -0.25q0.390625 -0.25 0.59375 -0.703125q0.21875 -0.453125 0.21875 -1.09375q0 -0.625 -0.21875 -1.078125q-0.203125 -0.453125 -0.59375 -0.703125q-0.375 -0.25 -0.90625 -0.25zm6.393814 -0.734375q0.546875 0 0.96875 0.171875q0.421875 0.171875 0.734375 0.5q0.3125 0.3125 0.5 0.75l-0.8125 0.375q-0.171875 -0.5 -0.515625 -0.765625q-0.34375 -0.28125 -0.90625 -0.28125q-0.53125 0 -0.921875 0.25q-0.375 0.234375 -0.578125 0.6875q-0.203125 0.453125 -0.203125 1.078125q0 0.640625 0.203125 1.09375q0.203125 0.453125 0.578125 0.703125q0.390625 0.234375 0.921875 0.234375q0.421875 0 0.71875 -0.125q0.3125 -0.125 0.5 -0.375q0.203125 -0.25 0.28125 -0.59375l0.78125 0.28125q-0.171875 0.484375 -0.5 0.84375q-0.3125 0.34375 -0.75 0.53125q-0.4375 0.1875 -1.0 0.1875q-0.75 0 -1.34375 -0.328125q-0.578125 -0.328125 -0.90625 -0.953125q-0.328125 -0.625 -0.328125 -1.5q0 -0.859375 0.328125 -1.484375q0.328125 -0.625 0.90625 -0.953125q0.59375 -0.328125 1.34375 -0.328125zm8.43631 0.109375l-2.296875 2.296875l-0.203125 0.203125l-1.75 1.75l0 -1.0625l3.171875 -3.1875l1.078125 0zm-3.828125 -2.453125l0 7.78125l-0.859375 0l0 -7.78125l0.859375 0zm1.59375 4.3125l2.359375 3.46875l-1.03125 0l-2.03125 -2.984375l0.703125 -0.484375zm5.6157837 -1.96875q0.546875 0 0.96875 0.171875q0.421875 0.171875 0.734375 0.5q0.3125 0.3125 0.5 0.75l-0.8125 0.375q-0.171875 -0.5 -0.515625 -0.765625q-0.34375 -0.28125 -0.90625 -0.28125q-0.53125 0 -0.921875 0.25q-0.375 0.234375 -0.578125 0.6875q-0.203125 0.453125 -0.203125 1.078125q0 0.640625 0.203125 1.09375q0.203125 0.453125 0.578125 0.703125q0.390625 0.234375 0.921875 0.234375q0.421875 0 0.71875 -0.125q0.3125 -0.125 0.5 -0.375q0.203125 -0.25 0.28125 -0.59375l0.78125 0.28125q-0.171875 0.484375 -0.5 0.84375q-0.3125 0.34375 -0.75 0.53125q-0.4375 0.1875 -1.0 0.1875q-0.75 0 -1.34375 -0.328125q-0.578125 -0.328125 -0.90625 -0.953125q-0.328125 -0.625 -0.328125 -1.5q0 -0.859375 0.328125 -1.484375q0.328125 -0.625 0.90625 -0.953125q0.59375 -0.328125 1.34375 -0.328125zm3.7488098 5.4375l0 -7.78125l0.859375 0l0 3.25q0.28125 -0.484375 0.734375 -0.6875q0.453125 -0.21875 1.0 -0.21875q0.578125 0 1.046875 0.21875q0.46875 0.21875 0.75 0.671875q0.28125 0.4375 0.28125 1.140625l0 3.40625l-0.84375 0l0 -3.109375q0 -0.890625 -0.390625 -1.234375q-0.375 -0.34375 -0.921875 -0.34375q-0.390625 0 -0.78125 0.1875q-0.375 0.171875 -0.625 0.59375q-0.25 0.40625 -0.25 1.078125l0 2.828125l-0.859375 0zm9.721283 -3.4375q0 -0.59375 -0.328125 -0.921875q-0.3125 -0.328125 -0.90625 -0.328125q-0.546875 0 -0.9375 0.25q-0.375 0.234375 -0.5625 0.765625l-0.6875 -0.4375q0.203125 -0.59375 0.78125 -0.953125q0.578125 -0.375 1.4375 -0.375q0.5625 0 1.03125 0.203125q0.46875 0.1875 0.734375 0.59375q0.28125 0.40625 0.28125 1.03125l0 2.578125q0 0.375 0.40625 0.375q0.203125 0 0.390625 -0.046875l-0.03125 0.671875q-0.21875 0.109375 -0.5625 0.109375q-0.3125 0 -0.5625 -0.109375q-0.234375 -0.125 -0.375 -0.359375q-0.140625 -0.25 -0.140625 -0.609375l0 -0.109375l0.21875 0.03125q-0.125 0.421875 -0.4375 0.6875q-0.3125 0.25 -0.703125 0.375q-0.375 0.125 -0.75 0.125q-0.46875 0 -0.875 -0.15625q-0.40625 -0.171875 -0.640625 -0.484375q-0.234375 -0.328125 -0.234375 -0.8125q0 -0.59375 0.390625 -0.984375q0.40625 -0.390625 1.109375 -0.53125l2.109375 -0.40625l0 0.703125l-1.703125 0.34375q-0.53125 0.109375 -0.78125 0.3125q-0.25 0.1875 -0.25 0.515625q0 0.328125 0.25 0.546875q0.265625 0.203125 0.75 0.203125q0.296875 0 0.578125 -0.078125q0.296875 -0.078125 0.515625 -0.234375q0.21875 -0.171875 0.34375 -0.421875q0.140625 -0.25 0.140625 -0.59375l0 -1.46875zm3.3439941 -2.90625q-0.296875 0 -0.46875 -0.171875q-0.171875 -0.1875 -0.171875 -0.46875q0 -0.296875 0.171875 -0.46875q0.171875 -0.171875 0.46875 -0.171875q0.28125 0 0.453125 0.171875q0.1875 0.171875 0.1875 0.46875q0 0.28125 -0.1875 0.46875q-0.171875 0.171875 -0.453125 0.171875zm0.421875 1.015625l0 5.328125l-0.859375 0l0 -5.328125l0.859375 0zm1.9752197 5.328125l0 -5.328125l0.75 0l0.078125 1.1875l-0.140625 -0.109375q0.171875 -0.421875 0.453125 -0.6875q0.296875 -0.265625 0.671875 -0.375q0.375 -0.125 0.78125 -0.125q0.578125 0 1.046875 0.21875q0.46875 0.21875 0.75 0.671875q0.28125 0.4375 0.28125 1.140625l0 3.40625l-0.84375 0l0 -3.109375q0 -0.890625 -0.390625 -1.234375q-0.375 -0.34375 -0.921875 -0.34375q-0.390625 0 -0.78125 0.1875q-0.375 0.171875 -0.625 0.578125q-0.25 0.40625 -0.25 1.09375l0 2.828125l-0.859375 0zm8.518158 0.109375q-0.78125 0 -1.4375 -0.328125q-0.640625 -0.328125 -1.0 -0.9375l0.71875 -0.53125q0.234375 0.5 0.6875 0.78125q0.453125 0.265625 1.09375 0.265625q0.5625 0 0.875 -0.21875q0.328125 -0.21875 0.328125 -0.5625q0 -0.234375 -0.140625 -0.421875q-0.140625 -0.1875 -0.546875 -0.265625l-1.28125 -0.265625q-0.78125 -0.15625 -1.125 -0.53125q-0.328125 -0.375 -0.328125 -0.9375q0 -0.421875 0.25 -0.78125q0.25 -0.375 0.71875 -0.59375q0.46875 -0.21875 1.09375 -0.21875q0.796875 0 1.328125 0.3125q0.546875 0.3125 0.8125 0.875l-0.71875 0.46875q-0.171875 -0.46875 -0.578125 -0.6875q-0.40625 -0.21875 -0.84375 -0.21875q-0.390625 0 -0.65625 0.109375q-0.265625 0.109375 -0.421875 0.296875q-0.140625 0.171875 -0.140625 0.40625q0 0.234375 0.15625 0.4375q0.171875 0.203125 0.609375 0.28125l1.328125 0.28125q0.75 0.140625 1.046875 0.484375q0.296875 0.34375 0.296875 0.828125q0 0.5 -0.265625 0.890625q-0.265625 0.375 -0.75 0.578125q-0.484375 0.203125 -1.109375 0.203125zm5.4879 -7.25q0.703125 0 1.21875 0.234375q0.53125 0.21875 0.828125 0.640625q0.296875 0.40625 0.296875 0.984375q0 0.609375 -0.28125 1.03125q-0.265625 0.40625 -0.71875 0.625q-0.453125 0.203125 -1.015625 0.265625l0 1.140625l-0.875 0l0 -1.59375q0.78125 -0.125 1.203125 -0.28125q0.4375 -0.171875 0.609375 -0.421875q0.171875 -0.265625 0.171875 -0.640625q0 -0.375 -0.171875 -0.640625q-0.15625 -0.265625 -0.484375 -0.40625q-0.328125 -0.140625 -0.84375 -0.140625q-0.703125 0 -1.15625 0.390625q-0.4375 0.390625 -0.515625 1.0625l-0.75 -0.4375q0.109375 -0.546875 0.4375 -0.953125q0.34375 -0.40625 0.859375 -0.625q0.515625 -0.234375 1.1875 -0.234375zm-0.125 5.859375q0.3125 0 0.5 0.203125q0.1875 0.1875 0.1875 0.484375q0 0.3125 -0.1875 0.515625q-0.1875 0.1875 -0.5 0.1875q-0.3125 0 -0.5 -0.1875q-0.1875 -0.203125 -0.1875 -0.515625q0 -0.296875 0.1875 -0.484375q0.1875 -0.203125 0.5 -0.203125z" fill-rule="nonzero"/></g></svg>