<svg version="1.1" viewBox="0.0 0.0 343.2834645669291 211.45406824146983" fill="none" stroke="none" stroke-linecap="square" stroke-miterlimit="10" xmlns:xlink="http://www.w3.org/1999/xlink" xmlns="http://www.w3.org/2000/svg"><clipPath id="p.0"><path d="m0 0l343.28348 0l0 211.45407l-343.28348 0l0 -211.45407z" clip-rule="nonzero"/></clipPath><g clip-path="url(#p.0)"><path fill="#000000" fill-opacity="0.0" d="m0 0l343.28348 0l0 211.45407l-343.28348 0z" fill-rule="evenodd"/><path fill="#8d3aed" d="m74.755905 188.0971l95.70079 -165.5433l95.700775 165.5433z" fill-rule="evenodd"/><path stroke="#000000" stroke-width="1.0" stroke-linejoin="round" stroke-linecap="butt" d="m74.755905 188.0971l95.70079 -165.5433l95.700775 165.5433z" fill-rule="evenodd"/><path fill="#8d3aed" d="m133.46457 6.952825l0 0c0 -1.9105663 1.5488129 -3.4593868 3.459381 -3.4593868l67.065475 0c0.9174957 0 1.797409 0.36447024 2.446167 1.0132308c0.64875793 0.6487613 1.0132294 1.5286698 1.0132294 2.446156l0 13.8371315c0 1.9105663 -1.5488281 3.4593868 -3.4593964 3.4593868l-67.065475 0c-1.9105682 0 -3.459381 -1.5488205 -3.459381 -3.4593868z" fill-rule="evenodd"/><path fill="#ffffff" d="m156.03302 19.88764q-1.5 0 -2.609375 -0.65625q-1.09375 -0.671875 -1.6875 -1.875q-0.59375 -1.21875 -0.59375 -2.906249q0 -1.671875 0.625 -2.890625q0.640625 -1.21875 1.765625 -1.875q1.140625 -0.671875 2.609375 -0.671875q1.5625 0 2.546875 0.59375q0.984375 0.59375 1.59375 1.828125l-1.15625 0.640625q-0.359375 -0.921875 -1.125 -1.390625q-0.75 -0.46875 -1.859375 -0.46875q-1.0625 0 -1.890625 0.5q-0.828125 0.5 -1.296875 1.453125q-0.46875 0.953125 -0.46875 2.28125q0 1.328125 0.40625 2.281249q0.40625 0.953125 1.203125 1.453125q0.8125 0.5 1.984375 0.5q0.65625 0 1.21875 -0.15625q0.578125 -0.171875 1.0 -0.5q0.421875 -0.34375 0.65625 -0.859375q0.25 -0.515625 0.25 -1.203124l0 -0.359375l-3.359375 0l0 -1.203125l4.515625 0l0 5.328124l-1.0 0l-0.0625 -1.96875l0.265625 0.046875q-0.40625 1.0 -1.3125 1.546875q-0.890625 0.53125 -2.21875 0.53125zm10.39653 -8.312499q1.140625 0 2.015625 0.5q0.875 0.484375 1.359375 1.421875q0.5 0.9375 0.5 2.234375q0 1.296874 -0.5 2.234374q-0.484375 0.9375 -1.359375 1.4375q-0.875 0.484375 -2.015625 0.484375q-1.109375 0 -2.0 -0.484375q-0.875 -0.5 -1.375 -1.4375q-0.5 -0.9375 -0.5 -2.234374q0 -1.296875 0.5 -2.234375q0.5 -0.9375 1.375 -1.421875q0.890625 -0.5 2.0 -0.5zm0 1.09375q-0.8125 0 -1.390625 0.375q-0.578125 0.375 -0.890625 1.0625q-0.3125 0.671875 -0.3125 1.625q0 0.93749905 0.3125 1.624999q0.3125 0.6875 0.890625 1.0625q0.578125 0.375 1.390625 0.375q0.8125 0 1.390625 -0.375q0.578125 -0.375 0.890625 -1.0625q0.3125 -0.6875 0.3125 -1.624999q0 -0.953125 -0.3125 -1.625q-0.3125 -0.6875 -0.890625 -1.0625q-0.578125 -0.375 -1.390625 -0.375zm9.600021 -1.09375q1.140625 0 2.015625 0.5q0.875 0.484375 1.359375 1.421875q0.5 0.9375 0.5 2.234375q0 1.296874 -0.5 2.234374q-0.484375 0.9375 -1.359375 1.4375q-0.875 0.484375 -2.015625 0.484375q-1.109375 0 -2.0 -0.484375q-0.875 -0.5 -1.375 -1.4375q-0.5 -0.9375 -0.5 -2.234374q0 -1.296875 0.5 -2.234375q0.5 -0.9375 1.375 -1.421875q0.890625 -0.5 2.0 -0.5zm0 1.09375q-0.8125 0 -1.390625 0.375q-0.578125 0.375 -0.890625 1.0625q-0.3125 0.671875 -0.3125 1.625q0 0.93749905 0.3125 1.624999q0.3125 0.6875 0.890625 1.0625q0.578125 0.375 1.390625 0.375q0.8125 0 1.390625 -0.375q0.578125 -0.375 0.890625 -1.0625q0.3125 -0.6875 0.3125 -1.624999q0 -0.953125 -0.3125 -1.625q-0.3125 -0.6875 -0.890625 -1.0625q-0.578125 -0.375 -1.390625 -0.375zm9.412521 7.218749q-1.0 0 -1.828125 -0.484375q-0.828125 -0.5 -1.328125 -1.4375q-0.5 -0.9375 -0.5 -2.234374q0 -1.328125 0.53125 -2.25q0.53125 -0.9375 1.390625 -1.421875q0.875 -0.484375 1.859375 -0.484375q1.0 0 1.71875 0.515625q0.734375 0.5 0.96875 1.359375l-0.15625 0.109375l0 -5.515625l1.28125 0l0 11.687499l-1.125 0l-0.109375 -1.9375l0.171875 -0.09375q-0.109375 0.703125 -0.53125 1.1875q-0.421875 0.484375 -1.046875 0.75q-0.609375 0.25 -1.296875 0.25zm0.125 -1.109375q0.765625 0 1.328125 -0.390625q0.578125 -0.390625 0.890625 -1.09375q0.3125 -0.71875 0.3125 -1.671874q0 -0.921875 -0.3125 -1.578125q-0.3125 -0.65625 -0.875 -1.0q-0.546875 -0.359375 -1.28125 -0.359375q-1.21875 0 -1.890625 0.84375q-0.671875 0.828125 -0.671875 2.203125q0 1.374999 0.65625 2.218749q0.65625 0.828125 1.84375 0.828125z" fill-rule="nonzero"/><path fill="#8d3aed" d="m4.6666665 187.41739l0 0c0 -1.9105682 1.5488205 -3.459381 3.4593873 -3.459381l67.065475 0c0.9174881 0 1.7974014 0.36447144 2.4461594 1.0132294c0.64875793 0.64875793 1.0132294 1.5286713 1.0132294 2.4461517l0 13.837128c0 1.9105682 -1.5488205 3.4593964 -3.4593887 3.4593964l-67.065475 0c-1.9105668 0 -3.4593873 -1.5488281 -3.4593873 -3.4593964z" fill-rule="evenodd"/><path fill="#ffffff" d="m34.215755 190.83658l-6.109377 0l0 3.40625l4.765627 0l0 1.203125l-4.765627 0l0 4.75l-1.28125 0l0 -10.5625l7.390627 0l0 1.203125zm5.975277 4.1875q0 -0.890625 -0.484375 -1.375q-0.46875 -0.5 -1.359375 -0.5q-0.8281212 0 -1.4062462 0.375q-0.5625 0.359375 -0.84375 1.15625l-1.03125 -0.640625q0.3125 -0.90625 1.171875 -1.453125q0.875 -0.546875 2.1562462 -0.546875q0.859375 0 1.5625 0.296875q0.703125 0.296875 1.109375 0.890625q0.40625 0.59375 0.40625 1.546875l0 3.875q0 0.578125 0.609375 0.578125q0.3125 0 0.59375 -0.09375l-0.0625 1.015625q-0.328125 0.15625 -0.828125 0.15625q-0.46875 0 -0.84375 -0.171875q-0.359375 -0.171875 -0.578125 -0.53125q-0.203125 -0.359375 -0.203125 -0.90625l0 -0.15625l0.328125 0.046875q-0.203125 0.625 -0.671875 1.015625q-0.453125 0.390625 -1.03125 0.578125q-0.578125 0.171875 -1.1406212 0.171875q-0.703125 0 -1.3125 -0.234375q-0.59375 -0.234375 -0.96875 -0.71875q-0.359375 -0.5 -0.359375 -1.21875q0 -0.890625 0.59375 -1.46875q0.609375 -0.59375 1.6875 -0.796875l3.1718712 -0.625l0 1.046875l-2.578125 0.53125q-0.7812462 0.15625 -1.1718712 0.453125q-0.390625 0.28125 -0.390625 0.796875q0 0.5 0.390625 0.8125q0.40625 0.3125 1.1249962 0.3125q0.453125 0 0.875 -0.125q0.4375 -0.125 0.765625 -0.375q0.34375 -0.25 0.53125 -0.625q0.1875 -0.375 0.1875 -0.875l0 -2.21875zm7.274765 5.328125q-1.171875 0 -2.15625 -0.484375q-0.984375 -0.5 -1.515625 -1.421875l1.09375 -0.78125q0.34375 0.734375 1.015625 1.15625q0.6875 0.421875 1.65625 0.421875q0.84375 0 1.3125 -0.328125q0.484375 -0.328125 0.484375 -0.859375q0 -0.34375 -0.21875 -0.625q-0.203125 -0.28125 -0.8125 -0.40625l-1.921875 -0.390625q-1.171875 -0.25 -1.671875 -0.796875q-0.5 -0.5625 -0.5 -1.40625q0 -0.65625 0.375 -1.1875q0.375 -0.546875 1.0625 -0.875q0.703125 -0.328125 1.640625 -0.328125q1.1875 0 2.0 0.46875q0.828125 0.453125 1.21875 1.296875l-1.0625 0.703125q-0.28125 -0.703125 -0.890625 -1.03125q-0.609375 -0.328125 -1.265625 -0.328125q-0.578125 0 -0.984375 0.171875q-0.40625 0.15625 -0.625 0.4375q-0.203125 0.28125 -0.203125 0.625q0 0.359375 0.234375 0.65625q0.234375 0.296875 0.890625 0.421875l2.0 0.421875q1.125 0.21875 1.5625 0.734375q0.453125 0.5 0.453125 1.234375q0 0.765625 -0.40625 1.328125q-0.390625 0.5625 -1.109375 0.875q-0.71875 0.296875 -1.65625 0.296875zm7.432022 -10.421875l0 8.0625q0 0.59375 0.328125 0.875q0.34375 0.28125 0.875 0.28125q0.46875 0 0.796875 -0.15625q0.34375 -0.15625 0.609375 -0.421875l0.453125 1.0625q-0.375 0.34375 -0.875 0.53125q-0.5 0.1875 -1.15625 0.1875q-0.609375 0 -1.140625 -0.203125q-0.53125 -0.21875 -0.84375 -0.6875q-0.3125 -0.484375 -0.328125 -1.25l0 -7.9375l1.28125 -0.34375zm2.90625 2.265625l0 1.109375l-5.78125 0l0 -1.109375l5.78125 0z" fill-rule="nonzero"/><path fill="#8d3aed" d="m262.26248 188.63524l0 0c0 -1.9105682 1.5487976 -3.459381 3.459381 -3.459381l67.06546 0c0.917511 0 1.7973938 0.36447144 2.446167 1.0132294c0.6487732 0.64875793 1.0132141 1.5286713 1.0132141 2.4461517l0 13.837128c0 1.9105682 -1.5487976 3.4593964 -3.459381 3.4593964l-67.06546 0c-1.9105835 0 -3.459381 -1.5488281 -3.459381 -3.4593964z" fill-rule="evenodd"/><path fill="#ffffff" d="m284.88892 198.71068q-0.328125 0.890625 -0.953125 1.546875q-0.625 0.640625 -1.46875 0.984375q-0.84375 0.328125 -1.828125 0.328125q-1.5 0 -2.609375 -0.65625q-1.09375 -0.671875 -1.6875 -1.875q-0.59375 -1.21875 -0.59375 -2.90625q0 -1.671875 0.59375 -2.890625q0.59375 -1.21875 1.6875 -1.875q1.109375 -0.671875 2.578125 -0.671875q1.015625 0 1.8125 0.28125q0.8125 0.28125 1.375 0.828125q0.578125 0.546875 0.90625 1.359375l-1.265625 0.59375q-0.34375 -0.921875 -1.015625 -1.390625q-0.65625 -0.46875 -1.71875 -0.46875q-1.078125 0 -1.890625 0.5q-0.8125 0.5 -1.265625 1.453125q-0.453125 0.9375 -0.453125 2.28125q0 1.328125 0.421875 2.28125q0.4375 0.953125 1.234375 1.453125q0.796875 0.5 1.890625 0.5q1.0625 0 1.84375 -0.53125q0.78125 -0.53125 1.125 -1.609375l1.28125 0.484375zm2.2260437 2.703125l0 -11.6875l1.28125 0l0 4.890625q0.421875 -0.71875 1.109375 -1.03125q0.6875 -0.328125 1.5 -0.328125q0.859375 0 1.5625 0.328125q0.703125 0.328125 1.125 1.0q0.4375 0.671875 0.4375 1.703125l0 5.125l-1.28125 0l0 -4.671875q0 -1.328125 -0.578125 -1.84375q-0.5625 -0.53125 -1.390625 -0.53125q-0.578125 0 -1.15625 0.28125q-0.578125 0.265625 -0.953125 0.890625q-0.375 0.609375 -0.375 1.640625l0 4.234375l-1.28125 0zm13.247742 0.15625q-1.125 0 -2.015625 -0.484375q-0.890625 -0.5 -1.390625 -1.4375q-0.5 -0.9375 -0.5 -2.234375q0 -1.296875 0.5 -2.234375q0.5 -0.9375 1.359375 -1.421875q0.859375 -0.5 1.96875 -0.5q1.125 0 1.90625 0.484375q0.796875 0.46875 1.203125 1.296875q0.421875 0.828125 0.421875 1.84375q0 0.28125 -0.015625 0.5q-0.015625 0.21875 -0.046875 0.40625l-6.453125 0l0 -1.140625l5.890625 0l-0.640625 0.125q0 -1.15625 -0.640625 -1.78125q-0.625 -0.625 -1.65625 -0.625q-0.78125 0 -1.359375 0.375q-0.5625 0.359375 -0.875 1.046875q-0.3125 0.671875 -0.3125 1.625q0 0.9375 0.3125 1.625q0.328125 0.6875 0.90625 1.0625q0.59375 0.359375 1.40625 0.359375q0.890625 0 1.4375 -0.328125q0.546875 -0.34375 0.890625 -0.921875l1.0 0.59375q-0.296875 0.53125 -0.78125 0.9375q-0.46875 0.40625 -1.109375 0.625q-0.625 0.203125 -1.40625 0.203125zm10.56015 -5.328125q0 -0.890625 -0.484375 -1.375q-0.46875 -0.5 -1.359375 -0.5q-0.828125 0 -1.40625 0.375q-0.5625 0.359375 -0.84375 1.15625l-1.03125 -0.640625q0.3125 -0.90625 1.171875 -1.453125q0.875 -0.546875 2.15625 -0.546875q0.859375 0 1.5625 0.296875q0.703125 0.296875 1.109375 0.890625q0.40625 0.59375 0.40625 1.546875l0 3.875q0 0.578125 0.609375 0.578125q0.3125 0 0.59375 -0.09375l-0.0625 1.015625q-0.328125 0.15625 -0.828125 0.15625q-0.46875 0 -0.84375 -0.171875q-0.359375 -0.171875 -0.578125 -0.53125q-0.203125 -0.359375 -0.203125 -0.90625l0 -0.15625l0.328125 0.046875q-0.203125 0.625 -0.671875 1.015625q-0.453125 0.390625 -1.03125 0.578125q-0.578125 0.171875 -1.140625 0.171875q-0.703125 0 -1.3125 -0.234375q-0.59375 -0.234375 -0.96875 -0.71875q-0.359375 -0.5 -0.359375 -1.21875q0 -0.890625 0.59375 -1.46875q0.609375 -0.59375 1.6875 -0.796875l3.171875 -0.625l0 1.046875l-2.578125 0.53125q-0.78125 0.15625 -1.171875 0.453125q-0.390625 0.28125 -0.390625 0.796875q0 0.5 0.390625 0.8125q0.40625 0.3125 1.125 0.3125q0.453125 0 0.875 -0.125q0.4375 -0.125 0.765625 -0.375q0.34375 -0.25 0.53125 -0.625q0.1875 -0.375 0.1875 -0.875l0 -2.21875zm4.3841553 8.53125l0 -11.359375l1.125 0l0.109375 1.953125l-0.171875 -0.21875q0.203125 -0.5625 0.609375 -0.984375q0.421875 -0.4375 1.015625 -0.671875q0.59375 -0.234375 1.28125 -0.234375q0.984375 0 1.796875 0.5q0.828125 0.484375 1.328125 1.421875q0.5 0.921875 0.5 2.234375q0 1.296875 -0.515625 2.234375q-0.5 0.9375 -1.328125 1.4375q-0.828125 0.484375 -1.828125 0.484375q-0.984375 0 -1.734375 -0.484375q-0.75 -0.484375 -1.0625 -1.234375l0.15625 -0.25l0 5.171875l-1.28125 0zm3.796875 -4.3125q1.1875 0 1.84375 -0.828125q0.671875 -0.84375 0.671875 -2.21875q0 -1.375 -0.65625 -2.203125q-0.640625 -0.84375 -1.8125 -0.84375q-0.765625 0 -1.34375 0.390625q-0.578125 0.375 -0.90625 1.0625q-0.3125 0.671875 -0.3125 1.59375q0 0.90625 0.3125 1.59375q0.3125 0.6875 0.875 1.078125q0.578125 0.375 1.328125 0.375z" fill-rule="nonzero"/><path fill="#8d3aed" d="m185.08504 71.34312c-1.0798187 -2.3738632 2.465332 -4.723854 9.131149 -6.052788c6.6658173 -1.3289299 15.283249 -1.4037361 22.195633 -0.19267273l0 0c2.4484406 -1.3803673 6.929962 -2.333416 12.088928 -2.5708618c5.158966 -0.23744583 10.389389 0.2686081 14.109116 1.3650742l0 0c2.0858307 -1.251503 6.1814423 -2.0923576 10.833496 -2.2241745c4.6520386 -0.13181686 9.202118 0.46405792 12.035614 1.5761719l0 0c3.7684326 -1.3265152 9.764038 -1.8850288 15.392517 -1.4338684c5.6285095 0.45116043 9.878937 1.8309631 10.91217 3.5423584l0 0c4.6167603 0.37674713 8.462402 1.334465 10.5433655 2.6257095c2.0809937 1.2912521 2.1931458 2.7893677 0.30749512 4.107292c4.546509 1.7701035 5.6101074 4.1287766 2.7938843 6.1957855c-2.8162231 2.067009 -9.089172 3.5317993 -16.477814 3.8477325c-0.05206299 1.9400253 -3.60849 3.720169 -9.298401 4.6542664c-5.689911 0.9341049 -12.624817 0.876297 -18.131653 -0.1511383c-2.345642 2.3235092 -8.947998 4.033127 -16.954575 4.3902283c-8.006561 0.35710144 -15.981979 -0.70233154 -20.48053 -2.7205887l0 0c-5.5142517 0.9947891 -12.13092 1.2813644 -18.357407 0.79506683c-6.226471 -0.48628998 -11.538269 -1.704483 -14.737122 -3.3797684l0 0c-5.6348267 0.19727325 -11.082947 -0.6761093 -13.640488 -2.186699c-2.5575562 -1.5105896 -1.6800842 -3.3368225 2.19693 -4.572342l0 0c-5.026703 -0.8850708 -7.591629 -2.6413574 -6.3572845 -4.353012c1.2343445 -1.7116623 5.988266 -2.9908295 11.782745 -3.1704636z" fill-rule="evenodd"/><path fill="#8d3aed" d="m170.86128 48.430492c0 0.45274734 -0.36701965 0.8197746 -0.81977844 0.8197746c-0.45274353 0 -0.8197632 -0.36702728 -0.8197632 -0.8197746c0 -0.45274734 0.36701965 -0.8197708 0.8197632 -0.8197708c0.4527588 0 0.81977844 0.36702347 0.81977844 0.8197708z" fill-rule="evenodd"/><path fill="#8d3aed" d="m183.71552 53.21648l0 0c0 0.9054947 -0.73405457 1.6395416 -1.6395569 1.6395416c-0.90548706 0 -1.6395416 -0.73404694 -1.6395416 -1.6395416c0 -0.9054985 0.73405457 -1.6395454 1.6395416 -1.6395454c0.9055023 0 1.6395569 0.73404694 1.6395569 1.6395454z" fill-rule="evenodd"/><path fill="#8d3aed" d="m198.09323 58.60834c0 1.358242 -1.1010742 2.4593163 -2.45932 2.4593163c-1.3582458 0 -2.45932 -1.1010742 -2.45932 -2.4593163c0 -1.3582458 1.1010742 -2.45932 2.45932 -2.45932c1.3582458 0 2.45932 1.1010742 2.45932 2.45932z" fill-rule="evenodd"/><path fill="#000000" fill-opacity="0.0" d="m187.54384 79.386314l0 0c-2.7406158 0.06417847 -5.480942 -0.12528229 -7.8530273 -0.54294586m14.781738 6.4846573c-1.1020508 0.13123322 -2.257248 0.21861267 -3.435791 0.25987244m33.04094 2.5951538l0 0c-0.82888794 -0.37187958 -1.5228729 -0.7692566 -2.0701294 -1.1853714m40.35324 -1.7704849c-0.12188721 0.4410782 -0.3989563 0.8770523 -0.8265991 1.3006516m17.262573 -9.33696l0 0c6.21344 0.90454865 10.134491 2.7956543 10.079071 4.8610535m13.695251 -10.038414c-1.0062561 0.7033005 -2.5424194 1.3271866 -4.488037 1.8227463m-6.2816467 -8.586113l0 0c0.17147827 0.28401184 0.25082397 0.57229614 0.236969 0.8608475m-28.89978 -1.8649902l0 0c0.58480835 -0.3971405 1.3592834 -0.766922 2.2993164 -1.0978279m-23.80397 1.6209297l0 0c0.23857117 -0.3282013 0.6126404 -0.64624786 1.1135712 -0.9468117m-26.351746 1.2684898l0 0c1.4626465 0.2562561 2.815796 0.56469727 4.0297394 0.9185333m-34.636536 6.3005447l0 0c-0.31929016 -0.31609344 -0.55444336 -0.6392517 -0.7032776 -0.9664383" fill-rule="evenodd"/><path stroke="#bd005e" stroke-width="1.0" stroke-linejoin="round" stroke-linecap="butt" d="m185.08504 71.34312c-1.0798187 -2.3738632 2.465332 -4.723854 9.131149 -6.052788c6.6658173 -1.3289299 15.283249 -1.4037361 22.195633 -0.19267273l0 0c2.4484406 -1.3803673 6.929962 -2.333416 12.088928 -2.5708618c5.158966 -0.23744583 10.389389 0.2686081 14.109116 1.3650742l0 0c2.0858307 -1.251503 6.1814423 -2.0923576 10.833496 -2.2241745c4.6520386 -0.13181686 9.202118 0.46405792 12.035614 1.5761719l0 0c3.7684326 -1.3265152 9.764038 -1.8850288 15.392517 -1.4338684c5.6285095 0.45116043 9.878937 1.8309631 10.91217 3.5423584l0 0c4.6167603 0.37674713 8.462402 1.334465 10.5433655 2.6257095c2.0809937 1.2912521 2.1931458 2.7893677 0.30749512 4.107292c4.546509 1.7701035 5.6101074 4.1287766 2.7938843 6.1957855c-2.8162231 2.067009 -9.089172 3.5317993 -16.477814 3.8477325c-0.05206299 1.9400253 -3.60849 3.720169 -9.298401 4.6542664c-5.689911 0.9341049 -12.624817 0.876297 -18.131653 -0.1511383c-2.345642 2.3235092 -8.947998 4.033127 -16.954575 4.3902283c-8.006561 0.35710144 -15.981979 -0.70233154 -20.48053 -2.7205887l0 0c-5.5142517 0.9947891 -12.13092 1.2813644 -18.357407 0.79506683c-6.226471 -0.48628998 -11.538269 -1.704483 -14.737122 -3.3797684l0 0c-5.6348267 0.19727325 -11.082947 -0.6761093 -13.640488 -2.186699c-2.5575562 -1.5105896 -1.6800842 -3.3368225 2.19693 -4.572342l0 0c-5.026703 -0.8850708 -7.591629 -2.6413574 -6.3572845 -4.353012c1.2343445 -1.7116623 5.988266 -2.9908295 11.782745 -3.1704636z" fill-rule="evenodd"/><path stroke="#bd005e" stroke-width="1.0" stroke-linejoin="round" stroke-linecap="butt" d="m170.86128 48.430492c0 0.45274734 -0.36701965 0.8197746 -0.81977844 0.8197746c-0.45274353 0 -0.8197632 -0.36702728 -0.8197632 -0.8197746c0 -0.45274734 0.36701965 -0.8197708 0.8197632 -0.8197708c0.4527588 0 0.81977844 0.36702347 0.81977844 0.8197708z" fill-rule="evenodd"/><path stroke="#bd005e" stroke-width="1.0" stroke-linejoin="round" stroke-linecap="butt" d="m183.71552 53.21648l0 0c0 0.9054947 -0.73405457 1.6395416 -1.6395569 1.6395416c-0.90548706 0 -1.6395416 -0.73404694 -1.6395416 -1.6395416c0 -0.9054985 0.73405457 -1.6395454 1.6395416 -1.6395454c0.9055023 0 1.6395569 0.73404694 1.6395569 1.6395454z" fill-rule="evenodd"/><path stroke="#bd005e" stroke-width="1.0" stroke-linejoin="round" stroke-linecap="butt" d="m198.09323 58.60834c0 1.358242 -1.1010742 2.4593163 -2.45932 2.4593163c-1.3582458 0 -2.45932 -1.1010742 -2.45932 -2.4593163c0 -1.3582458 1.1010742 -2.45932 2.45932 -2.45932c1.3582458 0 2.45932 1.1010742 2.45932 2.45932z" fill-rule="evenodd"/><path stroke="#bd005e" stroke-width="1.0" stroke-linejoin="round" stroke-linecap="butt" d="m187.54384 79.386314l0 0c-2.7406158 0.06417847 -5.480942 -0.12528229 -7.8530273 -0.54294586m14.781738 6.4846573c-1.1020508 0.13123322 -2.257248 0.21861267 -3.435791 0.25987244m33.04094 2.5951538l0 0c-0.82888794 -0.37187958 -1.5228729 -0.7692566 -2.0701294 -1.1853714m40.35324 -1.7704849c-0.12188721 0.4410782 -0.3989563 0.8770523 -0.8265991 1.3006516m17.262573 -9.33696l0 0c6.21344 0.90454865 10.134491 2.7956543 10.079071 4.8610535m13.695251 -10.038414c-1.0062561 0.7033005 -2.5424194 1.3271866 -4.488037 1.8227463m-6.2816467 -8.586113l0 0c0.17147827 0.28401184 0.25082397 0.57229614 0.236969 0.8608475m-28.89978 -1.8649902l0 0c0.58480835 -0.3971405 1.3592834 -0.766922 2.2993164 -1.0978279m-23.80397 1.6209297l0 0c0.23857117 -0.3282013 0.6126404 -0.64624786 1.1135712 -0.9468117m-26.351746 1.2684898l0 0c1.4626465 0.2562561 2.815796 0.56469727 4.0297394 0.9185333m-34.636536 6.3005447l0 0c-0.31929016 -0.31609344 -0.55444336 -0.6392517 -0.7032776 -0.9664383" fill-rule="evenodd"/><path fill="#ffffff" d="m216.96246 80.14588l-1.015625 0l-0.84375 -2.203125l-3.59375 0l-0.84375 2.203125l-1.0 0l3.078125 -7.921875l1.140625 0l3.078125 7.921875zm-5.09375 -3.09375l2.890625 0l-1.453125 -3.90625l-1.4375 3.90625zm8.8901825 -3.03125q0.625 0 1.09375 0.203125q0.484375 0.1875 0.828125 0.546875q0.359375 0.359375 0.5625 0.84375l-0.90625 0.4375q-0.1875 -0.578125 -0.578125 -0.875q-0.390625 -0.3125 -1.015625 -0.3125q-0.609375 0 -1.046875 0.28125q-0.421875 0.265625 -0.65625 0.78125q-0.21875 0.5 -0.21875 1.21875q0 0.703125 0.21875 1.21875q0.234375 0.515625 0.65625 0.796875q0.4375 0.265625 1.046875 0.265625q0.46875 0 0.8125 -0.140625q0.34375 -0.15625 0.5625 -0.421875q0.21875 -0.28125 0.296875 -0.671875l0.890625 0.3125q-0.203125 0.546875 -0.5625 0.953125q-0.34375 0.390625 -0.84375 0.609375q-0.5 0.203125 -1.140625 0.203125q-0.828125 0 -1.5 -0.375q-0.65625 -0.375 -1.03125 -1.078125q-0.359375 -0.703125 -0.359375 -1.671875q0 -0.96875 0.359375 -1.671875q0.375 -0.703125 1.03125 -1.078125q0.671875 -0.375 1.5 -0.375zm7.751297 2.25q0 -0.671875 -0.359375 -1.03125q-0.359375 -0.375 -1.03125 -0.375q-0.625 0 -1.0625 0.28125q-0.421875 0.265625 -0.625 0.859375l-0.78125 -0.484375q0.25 -0.671875 0.890625 -1.078125q0.640625 -0.421875 1.609375 -0.421875q0.640625 0 1.171875 0.234375q0.53125 0.21875 0.828125 0.671875q0.3125 0.4375 0.3125 1.15625l0 2.90625q0 0.421875 0.453125 0.421875q0.234375 0 0.453125 -0.0625l-0.046875 0.765625q-0.25 0.109375 -0.625 0.109375q-0.359375 0 -0.640625 -0.125q-0.265625 -0.140625 -0.421875 -0.40625q-0.15625 -0.265625 -0.15625 -0.671875l0 -0.125l0.25 0.03125q-0.15625 0.46875 -0.5 0.765625q-0.34375 0.296875 -0.78125 0.4375q-0.4375 0.140625 -0.84375 0.140625q-0.53125 0 -1.0 -0.171875q-0.453125 -0.1875 -0.71875 -0.546875q-0.265625 -0.375 -0.265625 -0.921875q0 -0.671875 0.4375 -1.109375q0.453125 -0.4375 1.265625 -0.59375l2.375 -0.46875l0 0.796875l-1.9375 0.390625q-0.578125 0.125 -0.875 0.34375q-0.28125 0.21875 -0.28125 0.59375q0 0.375 0.28125 0.609375q0.296875 0.234375 0.84375 0.234375q0.34375 0 0.65625 -0.09375q0.328125 -0.09375 0.578125 -0.265625q0.25 -0.1875 0.390625 -0.46875q0.15625 -0.296875 0.15625 -0.671875l0 -1.65625zm5.620178 4.0q-0.734375 0 -1.359375 -0.375q-0.625 -0.375 -1.0 -1.078125q-0.375 -0.703125 -0.375 -1.671875q0 -1.0 0.390625 -1.6875q0.40625 -0.703125 1.046875 -1.0625q0.65625 -0.375 1.390625 -0.375q0.75 0 1.296875 0.390625q0.546875 0.375 0.71875 1.015625l-0.109375 0.09375l0 -4.140625l0.953125 0l0 8.765625l-0.84375 0l-0.078125 -1.453125l0.125 -0.078125q-0.078125 0.53125 -0.40625 0.90625q-0.3125 0.359375 -0.78125 0.5625q-0.453125 0.1875 -0.96875 0.1875zm0.09375 -0.84375q0.578125 0 1.0 -0.28125q0.4375 -0.296875 0.671875 -0.828125q0.234375 -0.53125 0.234375 -1.25q0 -0.6875 -0.234375 -1.171875q-0.234375 -0.5 -0.65625 -0.765625q-0.40625 -0.265625 -0.96875 -0.265625q-0.90625 0 -1.40625 0.625q-0.5 0.625 -0.5 1.65625q0 1.03125 0.484375 1.65625q0.484375 0.625 1.375 0.625zm7.602173 0.84375q-0.859375 0 -1.53125 -0.375q-0.65625 -0.375 -1.03125 -1.078125q-0.359375 -0.703125 -0.359375 -1.671875q0 -0.96875 0.359375 -1.671875q0.375 -0.703125 1.015625 -1.078125q0.65625 -0.375 1.484375 -0.375q0.84375 0 1.4375 0.359375q0.59375 0.359375 0.90625 0.984375q0.3125 0.625 0.3125 1.390625q0 0.203125 -0.015625 0.375q-0.015625 0.15625 -0.03125 0.296875l-4.859375 0l0 -0.859375l4.4375 0l-0.5 0.09375q0 -0.859375 -0.46875 -1.328125q-0.46875 -0.46875 -1.234375 -0.46875q-0.59375 0 -1.03125 0.28125q-0.421875 0.265625 -0.65625 0.78125q-0.234375 0.5 -0.234375 1.21875q0 0.703125 0.234375 1.21875q0.25 0.515625 0.6875 0.796875q0.4375 0.265625 1.046875 0.265625q0.671875 0 1.078125 -0.25q0.421875 -0.25 0.671875 -0.6875l0.75 0.4375q-0.21875 0.421875 -0.578125 0.71875q-0.359375 0.296875 -0.828125 0.46875q-0.46875 0.15625 -1.0625 0.15625zm4.4084167 -0.125l0 -6.0l0.84375 0l0.0625 0.9375q0.328125 -0.546875 0.84375 -0.796875q0.53125 -0.265625 1.078125 -0.265625q0.640625 0 1.203125 0.296875q0.5625 0.28125 0.859375 0.890625q0.1875 -0.421875 0.53125 -0.671875q0.359375 -0.265625 0.765625 -0.390625q0.421875 -0.125 0.796875 -0.125q0.5625 0 1.078125 0.25q0.53125 0.234375 0.859375 0.75q0.34375 0.5 0.34375 1.28125l0 3.84375l-0.953125 0l0 -3.75q0 -0.8125 -0.40625 -1.171875q-0.40625 -0.359375 -1.015625 -0.359375q-0.46875 0 -0.875 0.234375q-0.40625 0.21875 -0.65625 0.671875q-0.234375 0.4375 -0.234375 1.09375l0 3.28125l-0.96875 0l0 -3.75q0 -0.8125 -0.40625 -1.171875q-0.40625 -0.359375 -1.0 -0.359375q-0.40625 0 -0.828125 0.21875q-0.40625 0.203125 -0.6875 0.65625q-0.265625 0.453125 -0.265625 1.203125l0 3.203125l-0.96875 0zm16.205597 -6.0l-2.8125 7.015625q-0.234375 0.578125 -0.515625 0.921875q-0.265625 0.34375 -0.59375 0.484375q-0.328125 0.15625 -0.75 0.15625q-0.421875 0 -0.765625 -0.109375q-0.328125 -0.109375 -0.59375 -0.3125l0.265625 -0.84375q0.234375 0.21875 0.5 0.3125q0.28125 0.109375 0.53125 0.109375q0.3125 0 0.59375 -0.1875q0.28125 -0.1875 0.5 -0.78125l0.3125 -0.78125l-0.59375 -1.421875l-1.90625 -4.5625l1.09375 0l1.5 3.90625l0.375 1.078125l0.421875 -1.1875l1.40625 -3.796875l1.03125 0zm3.426422 -2.046875q0.78125 0 1.375 0.265625q0.59375 0.25 0.921875 0.71875q0.328125 0.46875 0.328125 1.109375q0 0.703125 -0.3125 1.171875q-0.296875 0.453125 -0.8125 0.6875q-0.515625 0.234375 -1.140625 0.3125l0 1.28125l-0.984375 0l0 -1.796875q0.875 -0.125 1.359375 -0.3125q0.484375 -0.203125 0.671875 -0.484375q0.203125 -0.296875 0.203125 -0.71875q0 -0.421875 -0.1875 -0.71875q-0.171875 -0.296875 -0.546875 -0.453125q-0.375 -0.15625 -0.953125 -0.15625q-0.796875 0 -1.296875 0.4375q-0.484375 0.4375 -0.59375 1.1875l-0.84375 -0.484375q0.125 -0.609375 0.5 -1.0625q0.390625 -0.46875 0.96875 -0.71875q0.578125 -0.265625 1.34375 -0.265625zm-0.15625 6.609375q0.359375 0 0.5625 0.21875q0.21875 0.203125 0.21875 0.5625q0 0.34375 -0.21875 0.5625q-0.203125 0.21875 -0.5625 0.21875q-0.34375 0 -0.5625 -0.21875q-0.203125 -0.21875 -0.203125 -0.5625q0 -0.359375 0.203125 -0.5625q0.21875 -0.21875 0.5625 -0.21875z" fill-rule="nonzero"/><path fill="#8d3aed" d="m163.76378 48.711285l0 0c0 -3.696392 2.996521 -6.692913 6.692917 -6.692913l0 0c1.7750702 0 3.4774323 0.7051468 4.732605 1.9603119c1.2551575 1.2551613 1.9603119 2.957531 1.9603119 4.732601l0 0c0 3.6963959 -2.996521 6.692913 -6.692917 6.692913l0 0c-3.6963959 0 -6.692917 -2.9965172 -6.692917 -6.692913z" fill-rule="evenodd"/><path fill="#000000" fill-opacity="0.0" d="m165.72409 43.978683l9.46521 9.465206m0 -9.465206l-9.46521 9.465206" fill-rule="evenodd"/><path fill="#000000" fill-opacity="0.0" d="m163.76378 48.711285l0 0c0 -3.696392 2.996521 -6.692913 6.692917 -6.692913l0 0c1.7750702 0 3.4774323 0.7051468 4.732605 1.9603119c1.2551575 1.2551613 1.9603119 2.957531 1.9603119 4.732601l0 0c0 3.6963959 -2.996521 6.692913 -6.692917 6.692913l0 0c-3.6963959 0 -6.692917 -2.9965172 -6.692917 -6.692913z" fill-rule="evenodd"/><path stroke="#bd005e" stroke-width="2.0" stroke-linejoin="round" stroke-linecap="butt" d="m165.72409 43.978683l9.46521 9.465206m0 -9.465206l-9.46521 9.465206" fill-rule="evenodd"/><path stroke="#bd005e" stroke-width="2.0" stroke-linejoin="round" stroke-linecap="butt" d="m163.76378 48.711285l0 0c0 -3.696392 2.996521 -6.692913 6.692917 -6.692913l0 0c1.7750702 0 3.4774323 0.7051468 4.732605 1.9603119c1.2551575 1.2551613 1.9603119 2.957531 1.9603119 4.732601l0 0c0 3.6963959 -2.996521 6.692913 -6.692917 6.692913l0 0c-3.6963959 0 -6.692917 -2.9965172 -6.692917 -6.692913z" fill-rule="evenodd"/></g></svg>